<svg xmlns="http://www.w3.org/2000/svg" viewBox="0 0 24 24"><defs><style>.a{fill:none;stroke:#000;stroke-linecap:round;stroke-linejoin:round;}</style></defs><title>coffee-machine</title><polyline class="a" points="21.5 14.5 21.5 19.5 2.5 19.5 2.5 6.5"/><line class="a" x1="21.5" y1="6.5" x2="21.5" y2="8.5"/><circle class="a" cx="12" cy="5.5" r="1.5"/><circle class="a" cx="4.5" cy="3.5" r="1"/><path class="a" d="M22.5.5H1.5a1,1,0,0,0-1,1v4a1,1,0,0,0,1,1H6c2.5,0,1.5,3,4,3h4c2.5,0,1.5-3,4-3h4.5a1,1,0,0,0,1-1v-4A1,1,0,0,0,22.5.5Z"/><path d="M17.75,2.5a.75.75,0,1,0,.75.75.75.75,0,0,0-.75-.75Z"/><path d="M20.25,2.5a.75.75,0,1,0,.75.75.75.75,0,0,0-.75-.75Z"/><rect class="a" x="0.5" y="19.5" width="23" height="4" rx="1" ry="1"/><path class="a" d="M15.5,16a3.5,3.5,0,0,1-7,0v-.5h7Z"/><path class="a" d="M14,9.5H10V12a.5.5,0,0,0,.5.5h3A.5.5,0,0,0,14,12Z"/><line class="a" x1="12" y1="12.5" x2="12" y2="13.5"/><line class="a" x1="14" y1="11.5" x2="18.5" y2="11.5"/><path class="a" d="M23.5,11.5a1,1,0,0,1-1,1H19a.5.5,0,0,1-.5-.5V11a.5.5,0,0,1,.5-.5h3.5A1,1,0,0,1,23.5,11.5Z"/><path class="a" d="M15.5,15.5h1.25a1.25,1.25,0,0,1,0,2.5"/></svg>