<svg xmlns="http://www.w3.org/2000/svg" viewBox="0 0 24 24"><defs><style>.a{fill:none;stroke:#000;stroke-linecap:round;stroke-linejoin:round;}</style></defs><title>content-typing-machine</title><line class="a" x1="2.5" y1="23.493" x2="21.5" y2="23.493"/><polyline class="a" points="20.232 15.5 22.5 15.5 22.5 11.5 1.5 11.5 1.5 15.5 3.768 15.5"/><line class="a" x1="1.5" y1="10.5" x2="1.5" y2="16.5"/><line class="a" x1="22.5" y1="10.5" x2="22.5" y2="16.5"/><line class="a" x1="0.5" y1="13.5" x2="1.5" y2="13.5"/><line class="a" x1="22.5" y1="13.5" x2="23.5" y2="13.5"/><path class="a" d="M18.5,9.507V2.914a1,1,0,0,0-.293-.707L16.793.793A1,1,0,0,0,16.086.5H6.5a1,1,0,0,0-1,1V9.507"/><path d="M6,20.5a.75.75,0,1,0,.75.75A.75.75,0,0,0,6,20.5Z"/><path d="M9,20.5a.75.75,0,1,0,.75.75A.75.75,0,0,0,9,20.5Z"/><path d="M12,20.5a.75.75,0,1,0,.75.75A.75.75,0,0,0,12,20.5Z"/><path d="M15,20.5a.75.75,0,1,0,.75.75A.75.75,0,0,0,15,20.5Z"/><path d="M18,20.5a.75.75,0,1,0,.75.75A.75.75,0,0,0,18,20.5Z"/><path d="M7.5,18a.75.75,0,1,0,.75.75A.75.75,0,0,0,7.5,18Z"/><path d="M10.5,18a.75.75,0,1,0,.75.75A.75.75,0,0,0,10.5,18Z"/><path d="M13.5,18a.75.75,0,1,0,.75.75A.75.75,0,0,0,13.5,18Z"/><path d="M16.5,18a.75.75,0,1,0,.75.75A.75.75,0,0,0,16.5,18Z"/><path class="a" d="M18.5,14.5h-4a2.293,2.293,0,0,1-2.5,2,2.293,2.293,0,0,1-2.5-2h-4a2,2,0,0,0-2,2v7h17v-7A2,2,0,0,0,18.5,14.5Z"/></svg>