<svg xmlns="http://www.w3.org/2000/svg" viewBox="0 0 24 24"><defs><style>.a{fill:none;stroke:#000;stroke-linecap:round;stroke-linejoin:round;}</style></defs><title>dating-smartphone-man</title><line class="a" x1="13.5" y1="19.5" x2="0.5" y2="19.5"/><path d="M7,20.75a.75.75,0,1,0,.75.75A.749.749,0,0,0,7,20.75Z"/><path class="a" d="M13.5,11V21.5a2,2,0,0,1-2,2h-9a2,2,0,0,1-2-2V2.5a2,2,0,0,1,2-2H10"/><path class="a" d="M17.861,10.623a.5.5,0,0,1-.722,0L12.386,5.665a3.025,3.025,0,0,1-.567-3.492h0a3.026,3.026,0,0,1,4.846-.786l.835.835.835-.835a3.026,3.026,0,0,1,4.846.786h0a3.025,3.025,0,0,1-.567,3.492Z"/><path class="a" d="M12,19.5a5,5,0,0,0-10,0Z"/><circle class="a" cx="7" cy="10" r="3"/><path class="a" d="M4.415,8.477A4.986,4.986,0,0,0,9.973,9.594"/></svg>