<svg xmlns="http://www.w3.org/2000/svg" viewBox="0 0 24 24"><defs><style>.a{fill:none;stroke:#000;stroke-linecap:round;stroke-linejoin:round;}</style></defs><title>lab-flask-experiment</title><path class="a" d="M9.5,3.5v8L4.7,19.354A2,2,0,0,0,6.342,22.5H17.658A2,2,0,0,0,19.3,19.354L14.5,11.5v-8"/><path class="a" d="M16.5,2.5a1,1,0,0,1-1,1h-7a1,1,0,0,1,0-2h7A1,1,0,0,1,16.5,2.5Z"/><line class="a" x1="14.5" y1="5.5" x2="12.5" y2="5.5"/><line class="a" x1="14.5" y1="9.5" x2="12.5" y2="9.5"/><line class="a" x1="14.5" y1="7.5" x2="11.5" y2="7.5"/><line class="a" x1="7.057" y1="15.5" x2="16.943" y2="15.5"/><circle class="a" cx="9.5" cy="19" r="1.5"/><path d="M15.5,19.75a.75.75,0,1,0,.75.75.75.75,0,0,0-.75-.75Z"/><path d="M13.5,16.75a.75.75,0,1,0,.75.75.75.75,0,0,0-.75-.75Z"/></svg>