<svg xmlns="http://www.w3.org/2000/svg" viewBox="0 0 24 24"><defs><style>.a{fill:none;stroke:#000;stroke-linecap:round;stroke-linejoin:round;}</style></defs><title>optimization-timer-1</title><path class="a" d="M3.906,19.5H2.5a2,2,0,0,1-2-2V2.5a2,2,0,0,1,2-2h19a2,2,0,0,1,2,2v15a2,2,0,0,1-2,2H19.988"/><line class="a" x1="0.5" y1="5.5" x2="23.5" y2="5.5"/><path d="M4,2.25A.75.75,0,1,0,4.75,3,.749.749,0,0,0,4,2.25Z"/><path d="M7,2.25A.75.75,0,1,0,7.75,3,.749.749,0,0,0,7,2.25Z"/><path d="M10,2.25a.75.75,0,1,0,.75.75A.749.749,0,0,0,10,2.25Z"/><circle class="a" cx="12" cy="17.5" r="6"/><line class="a" x1="12" y1="11.5" x2="12" y2="8.5"/><line class="a" x1="10.5" y1="8.5" x2="13.5" y2="8.5"/><line class="a" x1="7" y1="11.5" x2="8.287" y2="12.787"/><line class="a" x1="17" y1="11.5" x2="15.713" y2="12.787"/><line class="a" x1="12.53" y1="16.97" x2="14.121" y2="15.379"/><path d="M12,16.75a.75.75,0,1,0,.53.22.744.744,0,0,0-.53-.22Z"/></svg>