<svg xmlns="http://www.w3.org/2000/svg" viewBox="0 0 24 24"><defs><style>.a{fill:none;stroke:#000;stroke-linecap:round;stroke-linejoin:round;}</style></defs><title>people-man-graduate</title><path class="a" d="M13.5,12.987a2.5,2.5,0,0,1-3,0"/><path class="a" d="M23,23.487V22.381a1.976,1.976,0,0,0-.77-1.579C20.9,19.783,17.73,17.987,12,17.987S3.105,19.783,1.77,20.8A1.976,1.976,0,0,0,1,22.381v1.106"/><path d="M14,9.737a.75.75,0,1,0,.75.75.75.75,0,0,0-.75-.75Z"/><path d="M10,9.737a.75.75,0,1,0,.75.75.75.75,0,0,0-.75-.75Z"/><path class="a" d="M6,4.124v6.363a6,6,0,0,0,12,0V4.124"/><path class="a" d="M12.222.538l9.705,2.205a.25.25,0,0,1,0,.488l-9.7,2.206a1.008,1.008,0,0,1-.444,0l-9.7-2.206a.25.25,0,0,1,0-.488l9.705-2.2A.979.979,0,0,1,12.222.538Z"/><path class="a" d="M6,7.487s1.5,1,6,1,6-1,6-1"/><line class="a" x1="2" y1="3.203" x2="2" y2="8.485"/><path class="a" d="M3,12.487a7.17,7.17,0,0,0-1-4,7.17,7.17,0,0,0-1,4Z"/><path class="a" d="M17.17,18.556l-4.825,4.6a.5.5,0,0,1-.69,0l-4.825-4.6"/></svg>