<svg id="target" width="48" height="48" viewBox="0 0 48 48" fill="none" xmlns="http://www.w3.org/2000/svg">
<rect width="48" height="48" rx="12" fill="white"/>
<path d="M3.48216 8.81177C2.79764 8.81177 2.18101 8.13291 2.18101 7.38103C2.18101 5.64891 6.15235 4.36731 10.6706 4.36731C11.0807 4.36731 11.3551 4.36731 11.3551 3.99189C11.3551 3.31303 9.98604 3.08777 9.98604 1.9584C9.9851 0.752915 11.2863 0 12.9297 0C14.5731 0 15.8733 0.752915 15.8733 1.9584C15.8733 3.08777 14.5043 3.23897 14.5043 3.99189C14.5043 4.21817 14.7098 4.36834 15.1888 4.36834C19.707 4.36834 23.7462 5.5728 23.7462 7.38103C23.7462 8.13394 23.1994 8.81074 22.4451 8.81074H3.4831L3.48216 8.81177ZM23.9518 15.6651C25.5952 16.7945 26.2109 18.828 25.9374 20.7113L24.0206 32.0832C23.6095 34.344 21.8294 36 19.706 36H6.28907C4.16668 36 2.38655 34.344 1.97546 32.0832L0.0586177 20.7113C-0.0839303 19.7542 0.034865 18.7725 0.4002 17.8885C0.765536 17.0046 1.36125 16.2574 2.11312 15.7402C3.07107 14.9873 3.27661 13.7067 2.11312 13.2552C0.469706 12.5774 0.811966 10.3937 2.45538 10.3937H12.4497C14.0243 10.3937 15.9421 11.6733 15.9421 15.8163C15.9421 19.9584 14.162 19.5809 14.162 22.5185C14.162 23.7991 15.1199 25.1547 16.2834 25.3059C18.2691 25.5322 19.4326 24.7032 19.4326 21.6905C19.4326 18.6027 17.7901 17.172 17.7901 14.6109C17.7901 11.5231 19.5703 10.3176 20.7338 10.3176H23.6095C25.2529 10.3176 25.5952 12.5023 23.9518 13.1801C22.7883 13.7067 22.9938 14.9873 23.9518 15.6651Z" transform="translate(11 6)" fill="#5AB8FF"/>
<defs>
</defs>
</svg>
