
<svg version="1.1" id="target" xmlns="http://www.w3.org/2000/svg" xmlns:xlink="http://www.w3.org/1999/xlink" x="0px" y="0px"
	 viewBox="0 0 24 24" style="enable-background:new 0 0 24 24;" xml:space="preserve">
<title>history-man-napoleon</title>
<g>
	<path d="M23,24c-0.275,0-0.5-0.225-0.5-0.5v-0.106c0.003-0.461-0.212-0.902-0.574-1.182c-0.966-0.737-2.683-1.72-5.426-2.281V23.5
		c0,0.275-0.225,0.5-0.5,0.5s-0.5-0.225-0.5-0.5v-2.172c-0.648,0.805-1.557,1.366-2.588,1.58c-0.307,0.062-0.617,0.095-0.921,0.095
		c-0.872,0-1.723-0.256-2.462-0.74c-0.393-0.259-0.737-0.576-1.029-0.949V23.5C8.5,23.775,8.276,24,8,24s-0.5-0.225-0.5-0.5v-3.567
		c-2.737,0.562-4.457,1.544-5.427,2.281C1.711,22.492,1.497,22.932,1.5,23.39v0.11C1.5,23.775,1.276,24,1,24s-0.5-0.225-0.5-0.5
		v-0.106c-0.005-0.766,0.355-1.504,0.965-1.975c1.142-0.868,3.182-2.017,6.443-2.583l0.019-0.018l0.106-0.002
		C9.255,18.608,10.603,18.5,12,18.5c1.399,0,2.747,0.108,4.007,0.321l0.102,0.017l0.004,0.005c3.272,0.572,5.292,1.713,6.421,2.576
		c0.61,0.468,0.971,1.208,0.967,1.978V23.5C23.5,23.775,23.275,24,23,24z M8.735,19.719c0.259,0.712,0.72,1.298,1.343,1.708
		c0.574,0.377,1.235,0.576,1.912,0.576c0.24,0,0.481-0.024,0.719-0.075c1.186-0.245,2.145-1.08,2.562-2.209
		C14.229,19.573,13.13,19.5,12,19.5C10.873,19.5,9.776,19.573,8.735,19.719z"/>
	<circle cx="10" cy="11.5" r="0.75"/>
	<circle cx="14" cy="11.5" r="0.75"/>
	<path d="M12,18c-1.258,0-2.474-0.362-3.531-1.049C8.15,17.279,7.8,17.529,7.426,17.696c-0.451,0.201-0.929,0.303-1.421,0.303
		c-1.383,0-2.639-0.814-3.202-2.074c-0.712-1.598-0.118-3.488,1.351-4.399C4.056,11.203,4.003,10.864,4,10.532
		c-0.724,0.097-1.446,0.206-2.168,0.329c-0.057,0.009-0.11,0.013-0.163,0.013c-0.494,0-0.909-0.353-0.988-0.84
		c-0.021-0.129-0.017-0.26,0.014-0.39l0.343-1.373c0.34-1.355,1.267-2.456,2.543-3.021l1.826-0.808
		c0.418-0.186,0.735-0.563,0.845-1.009l0.201-0.786C6.842,1.092,8.235,0.002,9.841,0h4.317c1.608,0,3.005,1.09,3.395,2.651
		l0.199,0.78c0.112,0.454,0.42,0.823,0.844,1.013l1.824,0.811c1.275,0.567,2.2,1.668,2.537,3.021L23.3,9.642
		c0.062,0.269,0.017,0.539-0.126,0.766c-0.144,0.227-0.366,0.383-0.627,0.442c-0.071,0.016-0.146,0.024-0.22,0.024
		c-0.052,0-0.104-0.004-0.156-0.012c-0.727-0.124-1.448-0.233-2.171-0.33c-0.004,0.332-0.057,0.671-0.154,0.993
		c0.647,0.401,1.148,1.005,1.423,1.722c0.334,0.874,0.309,1.824-0.072,2.678c-0.562,1.26-1.817,2.074-3.201,2.074
		c-0.493,0-0.971-0.102-1.421-0.303c-0.374-0.166-0.724-0.417-1.044-0.745C14.476,17.638,13.26,18,12,18z M6.5,11.5
		c0,3.032,2.467,5.5,5.5,5.5c3.032,0,5.5-2.468,5.5-5.5v-1.241c-1.824-0.167-3.673-0.252-5.5-0.252s-3.676,0.085-5.5,0.252V11.5z
		 M16.334,16.34c0.206,0.194,0.422,0.342,0.647,0.442c0.322,0.145,0.664,0.217,1.016,0.217c0.987,0,1.885-0.581,2.285-1.48
		c0.272-0.61,0.291-1.289,0.053-1.912c-0.238-0.624-0.706-1.118-1.316-1.39c-0.122-0.054-0.219-0.157-0.266-0.282
		c-0.047-0.125-0.041-0.265,0.016-0.386C18.92,11.224,19,10.861,19,10.5c0-0.028-0.002-0.057-0.004-0.086
		c-0.165-0.019-0.331-0.035-0.496-0.052V11.5C18.5,13.355,17.714,15.104,16.334,16.34z M5,10.501c0,0.359,0.08,0.721,0.231,1.047
		c0.058,0.124,0.062,0.261,0.015,0.388c-0.046,0.124-0.143,0.226-0.264,0.28c-0.609,0.272-1.076,0.765-1.315,1.39
		c-0.239,0.624-0.222,1.303,0.05,1.912c0.401,0.899,1.299,1.48,2.287,1.48c0.351,0,0.692-0.073,1.015-0.217
		c0.225-0.101,0.442-0.249,0.647-0.442C6.286,15.104,5.5,13.355,5.5,11.5v-1.138c-0.165,0.017-0.331,0.033-0.496,0.052
		C5.001,10.445,5,10.474,5,10.501z M9.842,1C8.696,1.002,7.701,1.781,7.422,2.893L7.221,3.678c-0.183,0.74-0.71,1.368-1.409,1.679
		L3.985,6.165c-0.993,0.44-1.713,1.296-1.977,2.35L1.667,9.881c0.489-0.089,0.98-0.158,1.471-0.227l0.117-0.017l0.208-0.486
		C3.884,8.173,4.638,7.374,5.587,6.9l1.706-0.854c0.528-0.264,0.947-0.708,1.181-1.25L9.28,2.91C9.517,2.357,10.058,2,10.659,2
		h2.682c0.602,0,1.143,0.357,1.378,0.91l0.808,1.883c0.232,0.542,0.651,0.986,1.18,1.25l1.708,0.854
		c0.949,0.474,1.703,1.273,2.122,2.25l0.21,0.49l0.168,0.024c0.473,0.067,0.945,0.133,1.416,0.214l-0.342-1.356
		c-0.263-1.052-0.982-1.909-1.975-2.35l-1.826-0.812c-0.707-0.317-1.219-0.93-1.405-1.683l-0.198-0.779
		C16.305,1.779,15.308,1,14.158,1H9.842z M18.1,9.315c0.5,0.05,0.995,0.102,1.489,0.161c-0.331-0.73-0.905-1.327-1.622-1.685
		l-1.708-0.854c-0.739-0.371-1.326-0.992-1.65-1.75l-0.808-1.884C13.722,3.119,13.541,3,13.341,3h-2.682
		c-0.201,0-0.381,0.119-0.459,0.302L9.393,5.189C9.066,5.95,8.479,6.572,7.741,6.94L6.035,7.794
		c-0.716,0.357-1.29,0.953-1.622,1.681c0.495-0.06,0.991-0.112,1.487-0.161l0.017-0.011l0.165-0.001
		C8.007,9.108,10.016,9.009,12,9.009c1.98,0,3.986,0.098,5.962,0.292L18.075,9.3L18.1,9.315z"/>
	<circle cx="6" cy="23" r="0.75"/>
	<circle cx="18" cy="23" r="0.75"/>
	<path d="M12,14.997c-0.647,0-1.287-0.212-1.8-0.597c-0.107-0.08-0.176-0.197-0.195-0.33c-0.019-0.132,0.015-0.264,0.096-0.371
		c0.096-0.126,0.241-0.198,0.399-0.198c0.108,0,0.211,0.033,0.298,0.098c0.343,0.258,0.77,0.399,1.202,0.399
		c0.433,0,0.858-0.142,1.199-0.398c0.09-0.065,0.192-0.099,0.301-0.099c0.158,0,0.304,0.071,0.399,0.197
		c0.166,0.222,0.122,0.536-0.099,0.702C13.286,14.785,12.647,14.997,12,14.997z"/>
</g>
</svg>
