
<svg version="1.1" id="target" xmlns="http://www.w3.org/2000/svg" xmlns:xlink="http://www.w3.org/1999/xlink" x="0px" y="0px"
	 viewBox="0 0 24 24" style="enable-background:new 0 0 24 24;" xml:space="preserve">
<title>people-man-cap-3</title>
<g>
	<path d="M12,11.997c-0.648,0-1.287-0.212-1.8-0.596c-0.22-0.166-0.265-0.479-0.101-0.7c0.098-0.127,0.243-0.2,0.401-0.2
		c0.108,0,0.211,0.034,0.298,0.099c0.343,0.257,0.769,0.398,1.201,0.398c0.433,0,0.858-0.141,1.199-0.397
		c0.089-0.065,0.191-0.1,0.3-0.1c0.158,0,0.308,0.075,0.401,0.2c0.165,0.219,0.121,0.534-0.1,0.699
		C13.287,11.785,12.647,11.997,12,11.997z"/>
	<path d="M23,24c-0.275,0-0.5-0.225-0.5-0.5v-3.106c0.003-0.461-0.212-0.902-0.574-1.182c-0.817-0.625-2.626-1.744-5.655-2.326
		c-0.498,1.544-1.766,2.692-3.358,3.022c-0.307,0.062-0.617,0.095-0.921,0.095c-0.872,0-1.723-0.256-2.462-0.74
		c-0.847-0.557-1.477-1.395-1.793-2.377c-3.025,0.582-4.841,1.702-5.663,2.328C1.711,19.492,1.497,19.932,1.5,20.39v3.11
		C1.5,23.775,1.276,24,1,24s-0.5-0.225-0.5-0.5v-3.106c-0.005-0.766,0.355-1.504,0.965-1.975c1.142-0.868,3.182-2.017,6.443-2.583
		l0.019-0.018l0.106-0.002C9.255,15.608,10.603,15.5,12,15.5c1.399,0,2.747,0.108,4.007,0.321l0.102,0.017l0.004,0.005
		c3.272,0.572,5.292,1.713,6.421,2.576c0.61,0.468,0.971,1.208,0.967,1.978V23.5C23.5,23.775,23.275,24,23,24z M8.735,16.719
		c0.259,0.712,0.72,1.298,1.343,1.708c0.575,0.378,1.235,0.577,1.91,0.577c0.241,0,0.482-0.025,0.72-0.075
		c1.187-0.246,2.146-1.081,2.562-2.21C14.229,16.573,13.13,16.5,12,16.5C10.873,16.5,9.776,16.573,8.735,16.719z"/>
	<circle cx="14" cy="8.5" r="0.75"/>
	<circle cx="10" cy="8.5" r="0.75"/>
	<path d="M12,15c-3.584,0-6.5-2.916-6.5-6.5v-2C5.5,2.916,8.416,0,12,0c3.418,0,6.216,2.617,6.474,6H22c0.275,0,0.5,0.224,0.5,0.5
		S22.275,7,22,7h-3.5v1.5C18.5,12.084,15.584,15,12,15z M6.5,8.5c0,3.033,2.467,5.5,5.5,5.5c3.032,0,5.5-2.467,5.5-5.5V7h-11V8.5z
		 M17.471,6C17.217,3.176,14.862,1,12,1C9.923,1,8.04,2.166,7.103,4H8.5C8.776,4,9,4.224,9,4.5S8.776,5,8.5,5H6.71
		C6.62,5.32,6.56,5.655,6.529,6H17.471z"/>
</g>
</svg>
