
<svg version="1.1" id="target" xmlns="http://www.w3.org/2000/svg" xmlns:xlink="http://www.w3.org/1999/xlink" x="0px" y="0px"
	 viewBox="0 0 24 24" style="enable-background:new 0 0 24 24;" xml:space="preserve">
<title>people-woman-1</title>
<g>
	<path d="M23,24c-0.275,0-0.5-0.225-0.5-0.5v-3.106c0.003-0.461-0.212-0.902-0.574-1.182c-0.845-0.646-2.332-1.524-4.668-2.109
		c-0.492,2.85-2.272,5.354-4.802,6.737c-0.15,0.074-0.305,0.111-0.458,0.111c-0.151,0-0.302-0.036-0.438-0.104
		c-2.542-1.391-4.325-3.896-4.819-6.743c-2.33,0.585-3.82,1.464-4.668,2.109C1.711,19.492,1.497,19.932,1.5,20.39v3.11
		C1.5,23.775,1.276,24,1,24s-0.5-0.225-0.5-0.5v-3.106c-0.005-0.766,0.355-1.504,0.965-1.975c0.446-0.339,1.166-0.818,2.179-1.288
		l-0.768-0.384c-0.071-0.034-0.141-0.08-0.206-0.136c-0.204-0.176-0.327-0.419-0.347-0.686c-0.021-0.267,0.064-0.524,0.238-0.727
		C3.812,13.742,4.5,11.883,4.5,9.964V7.5C4.5,3.364,7.864,0,12,0s7.5,3.364,7.5,7.5v2.464c-0.002,1.919,0.685,3.779,1.934,5.237
		c0.047,0.052,0.095,0.122,0.134,0.199c0.248,0.495,0.049,1.098-0.442,1.346l-0.767,0.384c1.013,0.47,1.731,0.949,2.175,1.289
		c0.61,0.468,0.971,1.208,0.967,1.978V23.5C23.5,23.775,23.275,24,23,24z M7.717,16.886c0.429,2.569,2.026,4.828,4.308,6.075
		c2.237-1.248,3.83-3.506,4.26-6.077C14.96,16.629,13.52,16.5,12,16.5C10.482,16.5,9.043,16.63,7.717,16.886z M12,1
		C8.416,1,5.5,3.916,5.5,7.5v2.464c0,2.158-0.774,4.248-2.179,5.888l1.553,0.776c0.669-0.241,1.383-0.446,2.125-0.61l0.024-0.021
		l0.096-0.002C8.59,15.669,10.25,15.5,12,15.5c2.653,0,5.052,0.379,7.13,1.127l1.547-0.774c-1.395-1.627-2.179-3.736-2.177-5.889
		V7.5C18.5,3.916,15.584,1,12,1z"/>
	<path d="M12,11.997c-0.648,0-1.287-0.212-1.8-0.596c-0.22-0.166-0.265-0.479-0.101-0.7c0.098-0.127,0.243-0.2,0.401-0.2
		c0.108,0,0.211,0.034,0.298,0.099c0.343,0.257,0.769,0.398,1.201,0.398c0.433,0,0.858-0.141,1.199-0.397
		c0.089-0.065,0.191-0.1,0.3-0.1c0.158,0,0.308,0.075,0.401,0.2c0.165,0.219,0.121,0.534-0.1,0.699
		C13.287,11.785,12.647,11.997,12,11.997z"/>
	<circle cx="14" cy="8.5" r="0.75"/>
	<circle cx="10" cy="8.5" r="0.75"/>
	<path d="M12,15c-3.033,0-5.5-2.467-5.5-5.5V6.975c0-0.141,0.06-0.276,0.164-0.371c0.092-0.083,0.21-0.129,0.333-0.129
		c0.188,0.016,0.298,0.027,0.41,0.027C9.213,6.5,10.803,5.504,11.55,3.964c0.081-0.167,0.254-0.271,0.45-0.271
		s0.369,0.104,0.45,0.27C13.197,5.504,14.786,6.5,16.499,6.5c0.16,0,0.306-0.008,0.452-0.022c0.005,0,0.01,0,0.014,0
		c0.164,0,0.278,0.045,0.368,0.125C17.44,6.7,17.5,6.835,17.5,6.975V9.5C17.5,12.533,15.032,15,12,15z M7.5,9.5
		c0,2.481,2.019,4.5,4.5,4.5s4.5-2.019,4.5-4.5v-2c-1.821-0.022-3.487-0.905-4.5-2.338C10.976,6.613,9.286,7.5,7.501,7.5H7.5V9.5z"
		/>
</g>
</svg>
