<?xml version="1.0" encoding="UTF-8"?>
<svg id="target" viewBox="0 0 120 120" version="1.1" xmlns="http://www.w3.org/2000/svg" xmlns:xlink="http://www.w3.org/1999/xlink">
    <!-- Generator: Sketch 51 (57462) - http://www.bohemiancoding.com/sketch -->
    <title>logo / sap</title>
    <desc>Created with Sketch.</desc>
    <defs></defs>
    <g id="logo-/-sap" stroke="none" stroke-width="1" fill="none" fill-rule="evenodd">
        <path d="M40,68.786766 L40,49 L80,49 L60.2143189,68.786766 L40,68.786766 Z M63.738044,52.719722 L59.8007485,52.7187577 L59.8007485,62.079357 L56.3609188,52.7187577 L52.9507416,52.7187577 L50.0133196,60.5462178 C49.7023282,58.5735923 47.6602721,57.8904961 46.0532422,57.37953 C44.9906883,57.0394887 43.8679854,56.5376836 43.8779901,55.9839261 C43.8852225,55.5299751 44.4822536,55.1076054 45.659802,55.1714913 C46.451504,55.2141622 47.1512346,55.2770837 48.5396062,55.9482465 L49.910379,53.5655463 C48.6400154,52.9193351 46.8865303,52.512515 45.4500636,52.5101042 L45.4404204,52.5101042 C43.7650448,52.5101042 42.3678739,53.0544597 41.5028839,53.948379 C40.9000669,54.5736164 40.5747313,55.3656801 40.5602666,56.2446526 C40.5388106,57.4535411 40.9817925,58.3097317 41.9135613,58.9943949 C42.698031,59.569729 43.7035698,59.9440035 44.5896541,60.2199179 C45.6822223,60.5571869 46.5744541,60.8514233 46.563485,61.4790714 C46.558784,61.708096 46.4706698,61.9203657 46.3061336,62.092978 C46.0328711,62.3749194 45.6150819,62.4807529 45.037096,62.491963 C43.9202994,62.5142628 43.0935204,62.3397219 41.7766286,61.5615202 L40.5602666,63.976525 C41.8752298,64.7243507 43.4312715,65.16227 45.0170864,65.16227 L45.2216416,65.160703 C46.6041068,65.136113 47.7187336,64.740503 48.6112065,64.0238969 C48.6601455,63.9847216 48.707638,63.9415686 48.7545278,63.899862 L48.3607259,64.9556656 L51.9360419,64.9556656 L52.5368097,63.1299775 C53.165181,63.3418856 53.8796174,63.4621838 54.6385328,63.4621838 C55.3763538,63.4621838 56.0742763,63.349118 56.6914375,63.1467325 L57.2695439,64.9556656 L63.1017171,64.9556656 L63.1017171,61.1745891 L64.3736477,61.1745891 C67.4486051,61.1745891 69.26911,59.6092659 69.26911,56.9841611 C69.26911,54.0609627 67.5012807,52.719722 63.738044,52.719722 Z M63.9697205,58.4683614 L63.1017171,58.4683614 L63.1017171,55.2946824 L63.9697205,55.2946824 C65.1266567,55.2946824 66.0473358,55.6784795 66.0473358,56.8632602 C66.0473358,58.0843233 65.1266567,58.4683614 63.9697205,58.4683614 Z M54.6385328,60.7314867 C54.1798808,60.7314867 53.7482296,60.6500021 53.3766069,60.5087301 L54.625394,56.5721578 L54.6509483,56.5721578 L55.8738195,60.5200608 C55.5065362,60.6532567 55.0865773,60.7314867 54.6385328,60.7314867 Z" id="sap" fill="currentcolor"></path>
    </g>
</svg>
