<?xml version="1.0" encoding="UTF-8"?>
<svg id="target" viewBox="0 0 120 120" version="1.1" xmlns="http://www.w3.org/2000/svg" xmlns:xlink="http://www.w3.org/1999/xlink">
    <!-- Generator: Sketch 51 (57462) - http://www.bohemiancoding.com/sketch -->
    <title>logo / volkswagen</title>
    <desc>Created with Sketch.</desc>
    <defs></defs>
    <g id="logo-/-volkswagen" stroke="none" stroke-width="1" fill="none" fill-rule="evenodd">
        <path d="M46,59.9997038 C46,52.2675779 52.2681704,46 59.9997038,46 C67.7324221,46 74,52.2675779 74,59.9997038 C74,67.7318296 67.7324221,73.9994075 59.9997038,73.9994075 C52.2681704,73.9994075 46,67.7318296 46,59.9997038 M50.1092656,59.9997038 C50.1092656,64.0129917 52.4992277,67.4681873 55.9342799,69.0186412 L50.5767123,56.9864793 C50.2733755,57.9367766 50.1092656,58.9492816 50.1092656,59.9997038 Z M51.9648336,54.2309727 L56.6132329,64.6718013 L58.5404879,60.3486596 L61.4595121,60.3486596 L63.387952,64.6694315 L68.0351664,54.2309727 C67.2489791,53.1373014 66.2447684,52.2107023 65.0859271,51.5151605 L61.4595121,59.650748 L58.5404879,59.650748 L54.9158503,51.5139756 C53.7564165,52.2101098 52.7516134,53.1367089 51.9648336,54.2309727 Z M69.4232877,56.9864793 L64.0657201,69.0186412 C67.5007723,67.4681873 69.8907344,64.0129917 69.8907344,59.9997038 C69.8907344,58.9492816 69.7272169,57.9367766 69.4232877,56.9864793 Z M62.9051015,69.4570576 L60.0014811,62.9359091 L57.0978608,69.4576501 C58.0155731,69.739066 58.990161,69.890142 59.9997038,69.890142 C61.0110239,69.890142 61.9862043,69.739066 62.9051015,69.4570576 Z M57.0978608,50.5417575 L60.0014811,57.062906 L62.904509,50.5423499 C61.9862043,50.2603415 61.0110239,50.1086731 59.9997038,50.1086731 C58.990161,50.1086731 58.0155731,50.2603415 57.0978608,50.5417575 Z M48.0546328,59.9997038 C48.0546328,53.4027211 53.4027211,48.0540403 59.9997038,48.0540403 C66.5972789,48.0540403 71.9453672,53.4027211 71.9453672,59.9997038 C71.9453672,66.5966865 66.5972789,71.9453672 59.9997038,71.9453672 C53.4027211,71.9453672 48.0546328,66.5966865 48.0546328,59.9997038 Z" id="Fill-3" fill="currentcolor"></path>
    </g>
</svg>
