<?xml version="1.0" encoding="UTF-8"?>
<svg id="target" viewBox="0 0 120 120" version="1.1" xmlns="http://www.w3.org/2000/svg" xmlns:xlink="http://www.w3.org/1999/xlink">
    <!-- Generator: Sketch 51 (57462) - http://www.bohemiancoding.com/sketch -->
    <title>logo / converse</title>
    <desc>Created with Sketch.</desc>
    <defs></defs>
    <g id="logo-/-converse" stroke="none" stroke-width="1" fill="none" fill-rule="evenodd">
        <path d="M86.1642598,71.3914279 L86.3300679,71.3914279 C86.4150656,71.3914279 86.5075999,71.4077575 86.5075999,71.5149467 C86.5075999,71.6422338 86.4062727,71.647677 86.2957339,71.647677 L86.1646785,71.647677 L86.1646785,71.3914279 L86.1642598,71.3914279 Z M86.0390662,72.0961127 L86.1642598,72.0961127 L86.1642598,71.7490042 L86.29699,71.7490042 L86.5159741,72.0961127 L86.6503792,72.0961127 L86.4192526,71.7397926 C86.5394217,71.7272314 86.6319561,71.6656814 86.6319561,71.5208086 C86.6319561,71.3654681 86.541934,71.289682 86.3497472,71.289682 L86.0382288,71.289682 L86.0390662,72.0961127 Z M85.7375968,71.6899664 C85.7375968,71.3600249 85.9846342,71.1054507 86.3074577,71.1054507 C86.6265129,71.1054507 86.8743877,71.3600249 86.8743877,71.6899664 C86.8743877,72.0278634 86.6265129,72.2824376 86.3074577,72.2824376 C85.9846342,72.2824376 85.7375968,72.0274447 85.7375968,71.6899664 Z M85.6128219,71.6899664 C85.6128219,72.0864825 85.9302022,72.3837648 86.3078764,72.3837648 C86.6842945,72.3837648 87,72.0864825 87,71.6899664 C87,71.3005684 86.6842945,71.0037048 86.3078764,71.0037048 C85.9297835,71.0037048 85.6128219,71.3005684 85.6128219,71.6899664 Z M77.8855743,70.6645517 L77.8855743,71.8176722 L74.9973298,71.8176722 L74.9973298,73.1198526 L76.9815848,73.1198526 C77.6558975,73.1198526 78.2025359,73.6664911 78.2025359,74.3408038 L78.2025359,75.4126951 C78.2025359,76.0870078 77.6558975,76.6336462 76.9815848,76.6336462 L73.6260626,76.6336462 L73.6260626,75.4805257 L76.9405514,75.4805257 L76.9405514,74.2729732 L74.9567151,74.2729732 C74.2825659,74.2729732 73.7359951,73.7265899 73.7357639,73.0524407 L73.7357639,71.8855028 C73.735995,71.2112859 74.2824982,70.6647828 74.9567151,70.6645517 L77.8855743,70.6645517 Z M84.5049218,76.6332275 L81.5760626,76.6332275 C80.9018456,76.6329964 80.3553425,76.0864933 80.3551114,75.4122764 L80.3551114,71.8850841 C80.3555733,71.2109628 80.9019413,70.6645949 81.5760626,70.664133 L84.5049218,70.664133 L84.5049218,71.8172535 L81.6170959,71.8172535 L81.6170959,73.1466499 L84.5049218,73.1466499 L84.5049218,74.3001892 L81.6170959,74.3001892 L81.6170959,75.480107 L84.5049218,75.480107 L84.5049218,76.6332275 Z M64.7264339,76.6332275 L61.7971559,76.6332275 C61.122939,76.6329964 60.5764359,76.0864933 60.5762048,75.4122764 L60.5762048,71.8850841 C60.5764359,71.2108672 61.122939,70.6643641 61.7971559,70.664133 L64.7264339,70.664133 L64.7264339,71.8172535 L61.8381893,71.8172535 L61.8381893,73.1466499 L64.7264339,73.1466499 L64.7264339,74.3001892 L61.8381893,74.3001892 L61.8381893,75.480107 L64.7264339,75.480107 L64.7264339,76.6332275 Z M47.8776426,70.6645517 L50.6586981,70.6645517 C51.332915,70.6647828 51.8794181,71.2112859 51.8796492,71.8855028 L51.8796492,76.6336462 L50.6180834,76.6336462 L50.6180834,71.8176722 L48.5157529,71.8176722 L48.5157529,76.6336462 L47.2541871,76.6336462 L47.2541871,70.6645517 L47.8776426,70.6645517 Z M68.2536262,73.1466499 L70.4903618,73.1466499 L70.4903618,71.8172535 L68.2536262,71.8172535 L68.2536262,73.1466499 Z M71.7519276,72.0487988 L71.7519276,73.079238 C71.752072,73.696407 71.2917805,74.2167053 70.6791989,74.291815 L71.8624664,76.6340649 L70.4417918,76.6340649 L69.4096777,74.3010266 L68.2532075,74.3010266 L68.2532075,76.6340649 L66.9912229,76.6340649 L66.9912229,70.6645517 L70.530139,70.6645517 C71.204356,70.6647828 71.7508591,71.2112859 71.7510902,71.8855028 L71.7519276,72.0487988 Z M54.7691499,70.6645517 L56.1797756,75.6295856 L57.6720493,70.6645517 L59.109891,70.6645517 L57.1838363,76.6332275 L55.2033497,76.6332275 L53.3585243,70.664133 L54.7691499,70.6645517 Z M34,71.8855028 C34.0002311,71.2112859 34.5467342,70.6647828 35.2209512,70.6645517 L38.3545584,70.6645517 L38.3545584,71.8176722 L35.2615658,71.8176722 L35.2615658,75.4805257 L38.3545584,75.4805257 L38.3545584,76.6336462 L35.2209512,76.6336462 C34.5465707,76.633415 34,76.0866568 34,75.4122764 L34,71.8855028 Z M40.2806131,71.8855028 C40.2808441,71.2112859 40.8273473,70.6647828 41.5015642,70.6645517 L44.1059251,70.6645517 C44.7803056,70.6645516 45.3270638,71.2111224 45.327295,71.8855028 L45.327295,75.4126951 C45.3270638,76.0870755 44.7803056,76.6336463 44.1059251,76.6336462 L41.5015642,76.6336462 C40.8273473,76.6334151 40.2808441,76.086912 40.2806131,75.4126951 L40.2806131,71.8855028 Z M41.5425976,71.8176722 L41.5425976,75.4805257 L44.0657292,75.4805257 L44.0657292,71.8176722 L41.5425976,71.8176722 Z M59.6588166,48.4089903 L61.2813083,53.402915 L66.5323195,53.402915 L62.2845315,56.4883708 L63.9070232,61.4822955 L59.6588166,58.3960023 L55.4110286,61.4822955 L57.0335203,56.4883708 L52.7857323,53.402915 L58.0359061,53.402915 L59.6588166,48.4089903 Z M69.4465239,55.4629561 C69.4465239,60.8684703 65.0639122,65.2506633 59.6588166,65.2506633 C54.253721,65.2506633 49.8711092,60.8684703 49.8711092,55.4629561 C49.8711092,50.0574418 54.2533023,45.6748301 59.6588166,45.6748301 C65.0643309,45.6748301 69.4465239,50.0574418 69.4465239,55.4629561 Z M59.6588166,44 C53.3279586,44 48.196279,49.1320982 48.196279,55.4629561 C48.196279,61.7933952 53.3283773,66.9254934 59.6588166,66.9254934 C65.9892558,66.9254934 71.1213541,61.7933952 71.1213541,55.4629561 C71.1213541,49.1320982 65.9896745,44 59.6588166,44 Z" id="converse" fill="currentcolor" fill-rule="nonzero"></path>
    </g>
</svg>
