<?xml version="1.0" encoding="UTF-8"?>
<svg id="target" viewBox="0 0 120 120" version="1.1" xmlns="http://www.w3.org/2000/svg" xmlns:xlink="http://www.w3.org/1999/xlink">
    <!-- Generator: Sketch 51 (57462) - http://www.bohemiancoding.com/sketch -->
    <title>logo / sage</title>
    <desc>Created with Sketch.</desc>
    <defs></defs>
    <g id="logo-/-sage" stroke="none" stroke-width="1" fill="none" fill-rule="evenodd">
        <path d="M82,56.4141406 C82,54.5429215 80.5469879,51.050722 75.848587,51.0365818 C73.810685,51.030583 72.2749742,51.9295565 71.5688215,52.5213022 L71.5688215,51.1938379 L68.4262704,51.192124 L68.4262704,52.5213022 C67.6562725,51.8567131 66.7204487,51.2568261 65.7790546,51.1154241 C64.7781002,50.9645954 63.7771459,51.0091584 62.5396646,51.3823739 C61.5100014,51.6921727 60.853982,52.1502293 60.2185303,52.8666658 C58.9069201,51.3995135 56.8338819,51.1064258 55.1820501,51.0460086 C53.3009758,50.9774501 51.4044758,51.2092636 49.9266112,52.2882033 C48.502308,51.560626 46.7026469,50.9890194 44.7045946,51.0001601 C42.9477826,51.0104439 41.2646709,51.4059408 40.0721812,52.4351756 C39.642405,52.8062486 39.4491557,53.1010502 39.2361958,53.6272368 C38.8141324,54.6701833 38.9898136,55.8746708 39.4602964,56.5028382 C40.3378455,57.6751888 41.3208032,58.1306745 43.0857566,58.3290657 C44.6364646,58.5030329 45.7222601,58.5034614 46.8693298,58.7147074 C47.4113706,58.8145457 47.9088483,59.2151846 47.9088483,59.8095012 C47.9088483,60.5027992 46.9387453,61.6387282 44.5966149,61.486614 C42.6448396,61.3597807 41.9078355,61.0846897 40.0721812,59.8917714 L38,61.5658847 C38,61.5658847 38.3535049,61.8482601 38.5947451,62.0063732 C38.8265586,62.1584874 39.0677989,62.3020318 39.316752,62.4361494 L39.3227509,62.4361494 C41.4129287,63.5630801 44.0580021,64.0339914 46.4519798,63.6513492 C47.6264729,63.4628133 48.7405489,63.0694588 49.6995111,62.4464332 C50.4742224,62.9760478 51.4983153,63.8844481 53.9771342,63.7730405 C55.537269,63.7027681 56.6954794,63.7589004 57.778704,62.5141348 L57.778704,63.7580434 L60.8137039,63.7580434 L60.8128469,62.5141348 C60.8128469,62.5141348 61.2914711,62.9010619 61.6282648,63.1024525 C63.5556162,64.2585206 66.6210389,63.8210315 68.4335547,62.4425768 L68.4378396,64.0515595 C68.3859922,65.0439441 67.4737355,65.7239589 66.5147732,66.1061726 C64.8586565,66.7669053 63.3495121,66.1747311 62.0023372,65.2251957 L59.7021989,66.7617634 C60.323082,67.3835035 60.8908322,67.7460067 61.7752371,68.1513589 C64.2626259,69.2890018 67.1725065,68.9012177 69.1804141,67.7108704 C70.504022,66.9258754 71.0164969,65.9634852 71.336151,64.4839067 C71.5058333,63.6971977 71.5225445,63.1213061 71.5486824,62.43315 C71.5495394,62.4130109 71.5495394,62.3950143 71.5503964,62.3774462 C71.5769628,62.3962998 71.6039577,62.4147249 71.6296671,62.43315 C72.2702608,62.8796374 72.8367256,63.2104322 73.7027053,63.473954 C75.1012991,63.8985883 76.6922852,63.9178704 78.4679508,63.4546719 C79.2945095,63.2387126 80.0238007,62.8937775 80.6755351,62.43315 L80.6768206,62.43315 C81.02904,62.1824829 81.3589779,61.8988221 81.6696336,61.5834529 L79.6857215,60.1724329 C79.013848,60.7204725 78.0137507,61.2732256 76.8739653,61.4171985 C75.5572133,61.5834529 74.0643515,61.346069 73.2557895,60.4702339 C72.8191574,59.9967517 72.6666147,59.8480654 72.6666147,58.6491483 L82,58.6594321 L82,56.4141406 Z M62.127028,57.2852623 C62.1518805,56.5958207 62.2174396,55.8588166 62.2907115,55.1350957 C62.3267047,54.7815909 62.75391,54.3552426 63.353797,54.0283042 C63.8988372,53.7313601 64.5865649,53.5166862 65.2545819,53.5132583 C65.7623435,53.5102589 66.2838167,53.6066693 66.7448727,53.7840644 C67.5491498,54.0930063 68.1726039,54.6496157 68.2368775,55.3609104 C68.2964377,56.0237855 68.3649962,56.6506675 68.396276,57.2514115 C68.4344117,58.0021273 68.4159866,58.7117079 68.2531601,59.3998641 C68.1481799,59.8382101 67.9309351,60.2101401 67.4814483,60.5662159 C66.9732583,60.9681402 66.1865493,61.325073 65.2545819,61.2727971 C63.9498276,61.1999537 62.7830473,60.6831938 62.4381123,59.9607584 C62.1488811,59.3523016 62.0876069,58.3791991 62.127028,57.2852623 Z M56.5874998,61.299792 C55.9366223,61.5033251 54.8966753,61.6070199 53.7894552,61.4733308 C52.8682001,61.3627801 51.9906511,61.2972211 51.6320044,60.4702339 C51.4374696,60.0220326 51.4781762,59.610253 51.7806906,59.2271823 C52.2558869,58.6260098 53.3562511,58.5090318 54.0156983,58.502176 L57.6300177,58.502176 C57.7264281,59.4431416 58.0276571,60.8498767 56.5874998,61.299792 Z M45.8520928,56.1626165 C44.4029371,56.0850597 43.0699024,56.0572078 42.3457531,55.4778883 C41.9288316,55.1445225 42.0115303,54.1851318 42.5959917,53.8371973 C43.436262,53.3371486 44.4530705,53.3538597 45.0392459,53.3842826 C46.2257367,53.4455568 47.5921937,53.8333409 48.6677054,54.5493489 L49.9266112,53.3842826 C49.9266112,53.3842826 51.256218,54.6011963 51.256218,54.5493489 C52.806069,53.4708377 53.3528232,53.4678383 54.7964085,53.4691238 C56.7708938,53.4708377 57.3373585,53.8539084 57.6278753,54.2875411 C57.8112693,54.5613466 57.6300177,56.2316035 57.6300177,56.2316035 C57.6300177,56.2316035 55.8873459,56.2851649 54.6301541,56.2221767 C53.6313421,56.1724718 53.0725902,56.1686154 52.0682079,56.3322989 C51.1696629,56.4788427 50.5526362,56.741079 49.9266112,57.2595528 C49.9266112,57.2595528 49.3914263,56.8850519 48.8082504,56.6185307 C47.7473073,56.1334792 46.9884502,56.2234622 45.8520928,56.1626165 Z M72.7394582,56.3790044 C72.7394582,55.6261461 72.9369924,55.0241166 73.2617884,54.5557763 C73.9105233,53.6220949 75.0670198,53.2218846 76.1793818,53.224027 C77.2737472,53.2261695 78.4019633,53.6190955 79.0729798,54.47522 C79.4521941,54.9581291 79.6857215,55.5884389 79.6857215,56.3790044 L72.7394582,56.3790044 Z" id="sage" fill="currentcolor"></path>
    </g>
</svg>
