<?xml version="1.0" encoding="UTF-8"?>
<svg id="target" viewBox="0 0 120 120" version="1.1" xmlns="http://www.w3.org/2000/svg" xmlns:xlink="http://www.w3.org/1999/xlink">
    <!-- Generator: Sketch 51 (57462) - http://www.bohemiancoding.com/sketch -->
    <title>logo / salesforce</title>
    <desc>Created with Sketch.</desc>
    <defs></defs>
    <g id="logo-/-salesforce" stroke="none" stroke-width="1" fill="none" fill-rule="evenodd">
        <path d="M66.737224,58.1748312 C66.5828603,57.9425054 66.3513148,57.8263424 66.023292,57.8263424 C65.6952691,57.8263424 65.4637236,57.9425054 65.3093599,58.1748312 C65.1549963,58.4071571 65.0778144,58.7459656 65.0778144,59.1718964 C65.0778144,59.5978271 65.1549963,59.9366357 65.3093599,60.1786418 C65.4637236,60.4109677 65.6952691,60.5271306 66.023292,60.5271306 C66.3513148,60.5271306 66.5828603,60.4109677 66.737224,60.1786418 C66.8915876,59.9366357 66.9784172,59.5978271 66.9784172,59.1718964 C66.9687695,58.7459656 66.8915876,58.4071571 66.737224,58.1748312 Z M66.737224,58.1748312 C66.5828603,57.9425054 66.3513148,57.8263424 66.023292,57.8263424 C65.6952691,57.8263424 65.4637236,57.9425054 65.3093599,58.1748312 C65.1549963,58.4071571 65.0778144,58.7459656 65.0778144,59.1718964 C65.0778144,59.5978271 65.1549963,59.9366357 65.3093599,60.1786418 C65.4637236,60.4109677 65.6952691,60.5271306 66.023292,60.5271306 C66.3513148,60.5271306 66.5828603,60.4109677 66.737224,60.1786418 C66.8915876,59.9366357 66.9784172,59.5978271 66.9784172,59.1718964 C66.9687695,58.7459656 66.8915876,58.4071571 66.737224,58.1748312 Z M56.6842893,58.1748312 C56.5299255,57.9425054 56.3080277,57.8069819 55.9896526,57.8069819 C55.6616298,57.8069819 55.4300843,57.9328251 55.2757206,58.1748312 C55.1792433,58.3297151 55.1117093,58.52332 55.0731183,58.7653261 L56.8483006,58.7653261 C56.8386529,58.5330003 56.7904143,58.3297151 56.6842893,58.1748312 Z M66.737224,58.1748312 C66.5828603,57.9425054 66.3513148,57.8263424 66.023292,57.8263424 C65.6952691,57.8263424 65.4637236,57.9425054 65.3093599,58.1748312 C65.1549963,58.4071571 65.0778144,58.7459656 65.0778144,59.1718964 C65.0778144,59.5978271 65.1549963,59.9366357 65.3093599,60.1786418 C65.4637236,60.4109677 65.6952691,60.5271306 66.023292,60.5271306 C66.3513148,60.5271306 66.5828603,60.4109677 66.737224,60.1786418 C66.8915876,59.9366357 66.9784172,59.5978271 66.9784172,59.1718964 C66.9687695,58.7459656 66.8915876,58.4071571 66.737224,58.1748312 Z M66.737224,58.1748312 C66.5828603,57.9425054 66.3513148,57.8263424 66.023292,57.8263424 C65.6952691,57.8263424 65.4637236,57.9425054 65.3093599,58.1748312 C65.1549963,58.4071571 65.0778144,58.7459656 65.0778144,59.1718964 C65.0778144,59.5978271 65.1549963,59.9366357 65.3093599,60.1786418 C65.4637236,60.4109677 65.6952691,60.5271306 66.023292,60.5271306 C66.3513148,60.5271306 66.5828603,60.4109677 66.737224,60.1786418 C66.8915876,59.9366357 66.9784172,59.5978271 66.9784172,59.1718964 C66.9687695,58.7459656 66.8915876,58.4071571 66.737224,58.1748312 Z M56.6842893,58.1748312 C56.5299255,57.9425054 56.3080277,57.8069819 55.9896526,57.8069819 C55.6616298,57.8069819 55.4300843,57.9328251 55.2757206,58.1748312 C55.1792433,58.3297151 55.1117093,58.52332 55.0731183,58.7653261 L56.8483006,58.7653261 C56.8386529,58.5330003 56.7904143,58.3297151 56.6842893,58.1748312 Z M50.4132647,59.2590186 C49.901935,59.2493383 49.6896849,59.4429432 49.6896849,59.4429432 C49.544969,59.5494259 49.4677871,59.7043098 49.4677871,59.9269555 C49.4677871,60.0624789 49.4967303,60.1786418 49.544969,60.2560837 C49.5739122,60.304485 49.5932076,60.3238455 49.6896849,60.4012874 C49.6896849,60.4012874 49.9115827,60.5755318 50.4229124,60.5464911 C50.7798784,60.5271306 51.0982535,60.4593689 51.0982535,60.4593689 L51.0982535,59.3171 C51.0886058,59.3171 50.7702307,59.2686988 50.4132647,59.2590186 Z M56.6842893,58.1748312 C56.5299255,57.9425054 56.3080277,57.8069819 55.9896526,57.8069819 C55.6616298,57.8069819 55.4300843,57.9328251 55.2757206,58.1748312 C55.1792433,58.3297151 55.1117093,58.52332 55.0731183,58.7653261 L56.8483006,58.7653261 C56.8386529,58.5330003 56.7904143,58.3297151 56.6842893,58.1748312 Z M66.737224,58.1748312 C66.5828603,57.9425054 66.3513148,57.8263424 66.023292,57.8263424 C65.6952691,57.8263424 65.4637236,57.9425054 65.3093599,58.1748312 C65.1549963,58.4071571 65.0778144,58.7459656 65.0778144,59.1718964 C65.0778144,59.5978271 65.1549963,59.9366357 65.3093599,60.1786418 C65.4637236,60.4109677 65.6952691,60.5271306 66.023292,60.5271306 C66.3513148,60.5271306 66.5828603,60.4109677 66.737224,60.1786418 C66.8915876,59.9366357 66.9784172,59.5978271 66.9784172,59.1718964 C66.9687695,58.7459656 66.8915876,58.4071571 66.737224,58.1748312 Z M66.737224,58.1748312 C66.5828603,57.9425054 66.3513148,57.8263424 66.023292,57.8263424 C65.6952691,57.8263424 65.4637236,57.9425054 65.3093599,58.1748312 C65.1549963,58.4071571 65.0778144,58.7459656 65.0778144,59.1718964 C65.0778144,59.5978271 65.1549963,59.9366357 65.3093599,60.1786418 C65.4637236,60.4109677 65.6952691,60.5271306 66.023292,60.5271306 C66.3513148,60.5271306 66.5828603,60.4109677 66.737224,60.1786418 C66.8915876,59.9366357 66.9784172,59.5978271 66.9784172,59.1718964 C66.9687695,58.7459656 66.8915876,58.4071571 66.737224,58.1748312 Z M56.6842893,58.1748312 C56.5299255,57.9425054 56.3080277,57.8069819 55.9896526,57.8069819 C55.6616298,57.8069819 55.4300843,57.9328251 55.2757206,58.1748312 C55.1792433,58.3297151 55.1117093,58.52332 55.0731183,58.7653261 L56.8483006,58.7653261 C56.8386529,58.5330003 56.7904143,58.3297151 56.6842893,58.1748312 Z M50.4132647,59.2590186 C49.901935,59.2493383 49.6896849,59.4429432 49.6896849,59.4429432 C49.544969,59.5494259 49.4677871,59.7043098 49.4677871,59.9269555 C49.4677871,60.0624789 49.4967303,60.1786418 49.544969,60.2560837 C49.5739122,60.304485 49.5932076,60.3238455 49.6896849,60.4012874 C49.6896849,60.4012874 49.9115827,60.5755318 50.4229124,60.5464911 C50.7798784,60.5271306 51.0982535,60.4593689 51.0982535,60.4593689 L51.0982535,59.3171 C51.0886058,59.3171 50.7702307,59.2686988 50.4132647,59.2590186 Z M50.4132647,59.2590186 C49.901935,59.2493383 49.6896849,59.4429432 49.6896849,59.4429432 C49.544969,59.5494259 49.4677871,59.7043098 49.4677871,59.9269555 C49.4677871,60.0624789 49.4967303,60.1786418 49.544969,60.2560837 C49.5739122,60.304485 49.5932076,60.3238455 49.6896849,60.4012874 C49.6896849,60.4012874 49.9115827,60.5755318 50.4229124,60.5464911 C50.7798784,60.5271306 51.0982535,60.4593689 51.0982535,60.4593689 L51.0982535,59.3171 C51.0886058,59.3171 50.7702307,59.2686988 50.4132647,59.2590186 Z M56.6842893,58.1748312 C56.5299255,57.9425054 56.3080277,57.8069819 55.9896526,57.8069819 C55.6616298,57.8069819 55.4300843,57.9328251 55.2757206,58.1748312 C55.1792433,58.3297151 55.1117093,58.52332 55.0731183,58.7653261 L56.8483006,58.7653261 C56.8386529,58.5330003 56.7904143,58.3297151 56.6842893,58.1748312 Z M66.737224,58.1748312 C66.5828603,57.9425054 66.3513148,57.8263424 66.023292,57.8263424 C65.6952691,57.8263424 65.4637236,57.9425054 65.3093599,58.1748312 C65.1549963,58.4071571 65.0778144,58.7459656 65.0778144,59.1718964 C65.0778144,59.5978271 65.1549963,59.9366357 65.3093599,60.1786418 C65.4637236,60.4109677 65.6952691,60.5271306 66.023292,60.5271306 C66.3513148,60.5271306 66.5828603,60.4109677 66.737224,60.1786418 C66.8915876,59.9366357 66.9784172,59.5978271 66.9784172,59.1718964 C66.9687695,58.7459656 66.8915876,58.4071571 66.737224,58.1748312 Z M66.737224,58.1748312 C66.5828603,57.9425054 66.3513148,57.8263424 66.023292,57.8263424 C65.6952691,57.8263424 65.4637236,57.9425054 65.3093599,58.1748312 C65.1549963,58.4071571 65.0778144,58.7459656 65.0778144,59.1718964 C65.0778144,59.5978271 65.1549963,59.9366357 65.3093599,60.1786418 C65.4637236,60.4109677 65.6952691,60.5271306 66.023292,60.5271306 C66.3513148,60.5271306 66.5828603,60.4109677 66.737224,60.1786418 C66.8915876,59.9366357 66.9784172,59.5978271 66.9784172,59.1718964 C66.9687695,58.7459656 66.8915876,58.4071571 66.737224,58.1748312 Z M56.6842893,58.1748312 C56.5299255,57.9425054 56.3080277,57.8069819 55.9896526,57.8069819 C55.6616298,57.8069819 55.4300843,57.9328251 55.2757206,58.1748312 C55.1792433,58.3297151 55.1117093,58.52332 55.0731183,58.7653261 L56.8483006,58.7653261 C56.8386529,58.5330003 56.7904143,58.3297151 56.6842893,58.1748312 Z M50.4132647,59.2590186 C49.901935,59.2493383 49.6896849,59.4429432 49.6896849,59.4429432 C49.544969,59.5494259 49.4677871,59.7043098 49.4677871,59.9269555 C49.4677871,60.0624789 49.4967303,60.1786418 49.544969,60.2560837 C49.5739122,60.304485 49.5932076,60.3238455 49.6896849,60.4012874 C49.6896849,60.4012874 49.9115827,60.5755318 50.4229124,60.5464911 C50.7798784,60.5271306 51.0982535,60.4593689 51.0982535,60.4593689 L51.0982535,59.3171 C51.0886058,59.3171 50.7702307,59.2686988 50.4132647,59.2590186 Z M50.4132647,59.2590186 C49.901935,59.2493383 49.6896849,59.4429432 49.6896849,59.4429432 C49.544969,59.5494259 49.4677871,59.7043098 49.4677871,59.9269555 C49.4677871,60.0624789 49.4967303,60.1786418 49.544969,60.2560837 C49.5739122,60.304485 49.5932076,60.3238455 49.6896849,60.4012874 C49.6896849,60.4012874 49.9115827,60.5755318 50.4229124,60.5464911 C50.7798784,60.5271306 51.0982535,60.4593689 51.0982535,60.4593689 L51.0982535,59.3171 C51.0886058,59.3171 50.7702307,59.2686988 50.4132647,59.2590186 Z M56.6842893,58.1748312 C56.5299255,57.9425054 56.3080277,57.8069819 55.9896526,57.8069819 C55.6616298,57.8069819 55.4300843,57.9328251 55.2757206,58.1748312 C55.1792433,58.3297151 55.1117093,58.52332 55.0731183,58.7653261 L56.8483006,58.7653261 C56.8386529,58.5330003 56.7904143,58.3297151 56.6842893,58.1748312 Z M66.737224,58.1748312 C66.5828603,57.9425054 66.3513148,57.8263424 66.023292,57.8263424 C65.6952691,57.8263424 65.4637236,57.9425054 65.3093599,58.1748312 C65.1549963,58.4071571 65.0778144,58.7459656 65.0778144,59.1718964 C65.0778144,59.5978271 65.1549963,59.9366357 65.3093599,60.1786418 C65.4637236,60.4109677 65.6952691,60.5271306 66.023292,60.5271306 C66.3513148,60.5271306 66.5828603,60.4109677 66.737224,60.1786418 C66.8915876,59.9366357 66.9784172,59.5978271 66.9784172,59.1718964 C66.9687695,58.7459656 66.8915876,58.4071571 66.737224,58.1748312 Z M66.737224,58.1748312 C66.5828603,57.9425054 66.3513148,57.8263424 66.023292,57.8263424 C65.6952691,57.8263424 65.4637236,57.9425054 65.3093599,58.1748312 C65.1549963,58.4071571 65.0778144,58.7459656 65.0778144,59.1718964 C65.0778144,59.5978271 65.1549963,59.9366357 65.3093599,60.1786418 C65.4637236,60.4109677 65.6952691,60.5271306 66.023292,60.5271306 C66.3513148,60.5271306 66.5828603,60.4109677 66.737224,60.1786418 C66.8915876,59.9366357 66.9784172,59.5978271 66.9784172,59.1718964 C66.9687695,58.7459656 66.8915876,58.4071571 66.737224,58.1748312 Z M56.6842893,58.1748312 C56.5299255,57.9425054 56.3080277,57.8069819 55.9896526,57.8069819 C55.6616298,57.8069819 55.4300843,57.9328251 55.2757206,58.1748312 C55.1792433,58.3297151 55.1117093,58.52332 55.0731183,58.7653261 L56.8483006,58.7653261 C56.8386529,58.5330003 56.7904143,58.3297151 56.6842893,58.1748312 Z M50.4132647,59.2590186 C49.901935,59.2493383 49.6896849,59.4429432 49.6896849,59.4429432 C49.544969,59.5494259 49.4677871,59.7043098 49.4677871,59.9269555 C49.4677871,60.0624789 49.4967303,60.1786418 49.544969,60.2560837 C49.5739122,60.304485 49.5932076,60.3238455 49.6896849,60.4012874 C49.6896849,60.4012874 49.9115827,60.5755318 50.4229124,60.5464911 C50.7798784,60.5271306 51.0982535,60.4593689 51.0982535,60.4593689 L51.0982535,59.3171 C51.0886058,59.3171 50.7702307,59.2686988 50.4132647,59.2590186 Z M50.4132647,59.2590186 C49.901935,59.2493383 49.6896849,59.4429432 49.6896849,59.4429432 C49.544969,59.5494259 49.4677871,59.7043098 49.4677871,59.9269555 C49.4677871,60.0624789 49.4967303,60.1786418 49.544969,60.2560837 C49.5739122,60.304485 49.5932076,60.3238455 49.6896849,60.4012874 C49.6896849,60.4012874 49.9115827,60.5755318 50.4229124,60.5464911 C50.7798784,60.5271306 51.0982535,60.4593689 51.0982535,60.4593689 L51.0982535,59.3171 C51.0886058,59.3171 50.7702307,59.2686988 50.4132647,59.2590186 Z M56.6842893,58.1748312 C56.5299255,57.9425054 56.3080277,57.8069819 55.9896526,57.8069819 C55.6616298,57.8069819 55.4300843,57.9328251 55.2757206,58.1748312 C55.1792433,58.3297151 55.1117093,58.52332 55.0731183,58.7653261 L56.8483006,58.7653261 C56.8386529,58.5330003 56.7904143,58.3297151 56.6842893,58.1748312 Z M66.737224,58.1748312 C66.5828603,57.9425054 66.3513148,57.8263424 66.023292,57.8263424 C65.6952691,57.8263424 65.4637236,57.9425054 65.3093599,58.1748312 C65.1549963,58.4071571 65.0778144,58.7459656 65.0778144,59.1718964 C65.0778144,59.5978271 65.1549963,59.9366357 65.3093599,60.1786418 C65.4637236,60.4109677 65.6952691,60.5271306 66.023292,60.5271306 C66.3513148,60.5271306 66.5828603,60.4109677 66.737224,60.1786418 C66.8915876,59.9366357 66.9784172,59.5978271 66.9784172,59.1718964 C66.9687695,58.7459656 66.8915876,58.4071571 66.737224,58.1748312 Z M66.737224,58.1748312 C66.5828603,57.9425054 66.3513148,57.8263424 66.023292,57.8263424 C65.6952691,57.8263424 65.4637236,57.9425054 65.3093599,58.1748312 C65.1549963,58.4071571 65.0778144,58.7459656 65.0778144,59.1718964 C65.0778144,59.5978271 65.1549963,59.9366357 65.3093599,60.1786418 C65.4637236,60.4109677 65.6952691,60.5271306 66.023292,60.5271306 C66.3513148,60.5271306 66.5828603,60.4109677 66.737224,60.1786418 C66.8915876,59.9366357 66.9784172,59.5978271 66.9784172,59.1718964 C66.9687695,58.7459656 66.8915876,58.4071571 66.737224,58.1748312 Z M56.6842893,58.1748312 C56.5299255,57.9425054 56.3080277,57.8069819 55.9896526,57.8069819 C55.6616298,57.8069819 55.4300843,57.9328251 55.2757206,58.1748312 C55.1792433,58.3297151 55.1117093,58.52332 55.0731183,58.7653261 L56.8483006,58.7653261 C56.8386529,58.5330003 56.7904143,58.3297151 56.6842893,58.1748312 Z M50.4132647,59.2590186 C49.901935,59.2493383 49.6896849,59.4429432 49.6896849,59.4429432 C49.544969,59.5494259 49.4677871,59.7043098 49.4677871,59.9269555 C49.4677871,60.0624789 49.4967303,60.1786418 49.544969,60.2560837 C49.5739122,60.304485 49.5932076,60.3238455 49.6896849,60.4012874 C49.6896849,60.4012874 49.9115827,60.5755318 50.4229124,60.5464911 C50.7798784,60.5271306 51.0982535,60.4593689 51.0982535,60.4593689 L51.0982535,59.3171 C51.0886058,59.3171 50.7702307,59.2686988 50.4132647,59.2590186 Z M50.4132647,59.2590186 C49.901935,59.2493383 49.6896849,59.4429432 49.6896849,59.4429432 C49.544969,59.5494259 49.4677871,59.7043098 49.4677871,59.9269555 C49.4677871,60.0624789 49.4967303,60.1786418 49.544969,60.2560837 C49.5739122,60.304485 49.5932076,60.3238455 49.6896849,60.4012874 C49.6896849,60.4012874 49.9115827,60.5755318 50.4229124,60.5464911 C50.7798784,60.5271306 51.0982535,60.4593689 51.0982535,60.4593689 L51.0982535,59.3171 C51.0886058,59.3171 50.7702307,59.2686988 50.4132647,59.2590186 Z M56.6842893,58.1748312 C56.5299255,57.9425054 56.3080277,57.8069819 55.9896526,57.8069819 C55.6616298,57.8069819 55.4300843,57.9328251 55.2757206,58.1748312 C55.1792433,58.3297151 55.1117093,58.52332 55.0731183,58.7653261 L56.8483006,58.7653261 C56.8386529,58.5330003 56.7904143,58.3297151 56.6842893,58.1748312 Z M66.737224,58.1748312 C66.5828603,57.9425054 66.3513148,57.8263424 66.023292,57.8263424 C65.6952691,57.8263424 65.4637236,57.9425054 65.3093599,58.1748312 C65.1549963,58.4071571 65.0778144,58.7459656 65.0778144,59.1718964 C65.0778144,59.5978271 65.1549963,59.9366357 65.3093599,60.1786418 C65.4637236,60.4109677 65.6952691,60.5271306 66.023292,60.5271306 C66.3513148,60.5271306 66.5828603,60.4109677 66.737224,60.1786418 C66.8915876,59.9366357 66.9784172,59.5978271 66.9784172,59.1718964 C66.9687695,58.7459656 66.8915876,58.4071571 66.737224,58.1748312 Z M66.737224,58.1748312 C66.5828603,57.9425054 66.3513148,57.8263424 66.023292,57.8263424 C65.6952691,57.8263424 65.4637236,57.9425054 65.3093599,58.1748312 C65.1549963,58.4071571 65.0778144,58.7459656 65.0778144,59.1718964 C65.0778144,59.5978271 65.1549963,59.9366357 65.3093599,60.1786418 C65.4637236,60.4109677 65.6952691,60.5271306 66.023292,60.5271306 C66.3513148,60.5271306 66.5828603,60.4109677 66.737224,60.1786418 C66.8915876,59.9366357 66.9784172,59.5978271 66.9784172,59.1718964 C66.9687695,58.7459656 66.8915876,58.4071571 66.737224,58.1748312 Z M56.6842893,58.1748312 C56.5299255,57.9425054 56.3080277,57.8069819 55.9896526,57.8069819 C55.6616298,57.8069819 55.4300843,57.9328251 55.2757206,58.1748312 C55.1792433,58.3297151 55.1117093,58.52332 55.0731183,58.7653261 L56.8483006,58.7653261 C56.8386529,58.5330003 56.7904143,58.3297151 56.6842893,58.1748312 Z M50.4132647,59.2590186 C49.901935,59.2493383 49.6896849,59.4429432 49.6896849,59.4429432 C49.544969,59.5494259 49.4677871,59.7043098 49.4677871,59.9269555 C49.4677871,60.0624789 49.4967303,60.1786418 49.544969,60.2560837 C49.5739122,60.304485 49.5932076,60.3238455 49.6896849,60.4012874 C49.6896849,60.4012874 49.9115827,60.5755318 50.4229124,60.5464911 C50.7798784,60.5271306 51.0982535,60.4593689 51.0982535,60.4593689 L51.0982535,59.3171 C51.0886058,59.3171 50.7702307,59.2686988 50.4132647,59.2590186 Z M50.4132647,59.2590186 C49.901935,59.2493383 49.6896849,59.4429432 49.6896849,59.4429432 C49.544969,59.5494259 49.4677871,59.7043098 49.4677871,59.9269555 C49.4677871,60.0624789 49.4967303,60.1786418 49.544969,60.2560837 C49.5739122,60.304485 49.5932076,60.3238455 49.6896849,60.4012874 C49.6896849,60.4012874 49.9115827,60.5755318 50.4229124,60.5464911 C50.7798784,60.5271306 51.0982535,60.4593689 51.0982535,60.4593689 L51.0982535,59.3171 C51.0886058,59.3171 50.7702307,59.2686988 50.4132647,59.2590186 Z M56.6842893,58.1748312 C56.5299255,57.9425054 56.3080277,57.8069819 55.9896526,57.8069819 C55.6616298,57.8069819 55.4300843,57.9328251 55.2757206,58.1748312 C55.1792433,58.3297151 55.1117093,58.52332 55.0731183,58.7653261 L56.8483006,58.7653261 C56.8386529,58.5330003 56.7904143,58.3297151 56.6842893,58.1748312 Z M66.737224,58.1748312 C66.5828603,57.9425054 66.3513148,57.8263424 66.023292,57.8263424 C65.6952691,57.8263424 65.4637236,57.9425054 65.3093599,58.1748312 C65.1549963,58.4071571 65.0778144,58.7459656 65.0778144,59.1718964 C65.0778144,59.5978271 65.1549963,59.9366357 65.3093599,60.1786418 C65.4637236,60.4109677 65.6952691,60.5271306 66.023292,60.5271306 C66.3513148,60.5271306 66.5828603,60.4109677 66.737224,60.1786418 C66.8915876,59.9366357 66.9784172,59.5978271 66.9784172,59.1718964 C66.9687695,58.7459656 66.8915876,58.4071571 66.737224,58.1748312 Z M66.737224,58.1748312 C66.5828603,57.9425054 66.3513148,57.8263424 66.023292,57.8263424 C65.6952691,57.8263424 65.4637236,57.9425054 65.3093599,58.1748312 C65.1549963,58.4071571 65.0778144,58.7459656 65.0778144,59.1718964 C65.0778144,59.5978271 65.1549963,59.9366357 65.3093599,60.1786418 C65.4637236,60.4109677 65.6952691,60.5271306 66.023292,60.5271306 C66.3513148,60.5271306 66.5828603,60.4109677 66.737224,60.1786418 C66.8915876,59.9366357 66.9784172,59.5978271 66.9784172,59.1718964 C66.9687695,58.7459656 66.8915876,58.4071571 66.737224,58.1748312 Z M56.6842893,58.1748312 C56.5299255,57.9425054 56.3080277,57.8069819 55.9896526,57.8069819 C55.6616298,57.8069819 55.4300843,57.9328251 55.2757206,58.1748312 C55.1792433,58.3297151 55.1117093,58.52332 55.0731183,58.7653261 L56.8483006,58.7653261 C56.8386529,58.5330003 56.7904143,58.3297151 56.6842893,58.1748312 Z M50.4132647,59.2590186 C49.901935,59.2493383 49.6896849,59.4429432 49.6896849,59.4429432 C49.544969,59.5494259 49.4677871,59.7043098 49.4677871,59.9269555 C49.4677871,60.0624789 49.4967303,60.1786418 49.544969,60.2560837 C49.5739122,60.304485 49.5932076,60.3238455 49.6896849,60.4012874 C49.6896849,60.4012874 49.9115827,60.5755318 50.4229124,60.5464911 C50.7798784,60.5271306 51.0982535,60.4593689 51.0982535,60.4593689 L51.0982535,59.3171 C51.0886058,59.3171 50.7702307,59.2686988 50.4132647,59.2590186 Z M50.4132647,59.2590186 C49.901935,59.2493383 49.6896849,59.4429432 49.6896849,59.4429432 C49.544969,59.5494259 49.4677871,59.7043098 49.4677871,59.9269555 C49.4677871,60.0624789 49.4967303,60.1786418 49.544969,60.2560837 C49.5739122,60.304485 49.5932076,60.3238455 49.6896849,60.4012874 C49.6896849,60.4012874 49.9115827,60.5755318 50.4229124,60.5464911 C50.7798784,60.5271306 51.0982535,60.4593689 51.0982535,60.4593689 L51.0982535,59.3171 C51.0886058,59.3171 50.7702307,59.2686988 50.4132647,59.2590186 Z M56.6842893,58.1748312 C56.5299255,57.9425054 56.3080277,57.8069819 55.9896526,57.8069819 C55.6616298,57.8069819 55.4300843,57.9328251 55.2757206,58.1748312 C55.1792433,58.3297151 55.1117093,58.52332 55.0731183,58.7653261 L56.8483006,58.7653261 C56.8386529,58.5330003 56.7904143,58.3297151 56.6842893,58.1748312 Z M66.737224,58.1748312 C66.5828603,57.9425054 66.3513148,57.8263424 66.023292,57.8263424 C65.6952691,57.8263424 65.4637236,57.9425054 65.3093599,58.1748312 C65.1549963,58.4071571 65.0778144,58.7459656 65.0778144,59.1718964 C65.0778144,59.5978271 65.1549963,59.9366357 65.3093599,60.1786418 C65.4637236,60.4109677 65.6952691,60.5271306 66.023292,60.5271306 C66.3513148,60.5271306 66.5828603,60.4109677 66.737224,60.1786418 C66.8915876,59.9366357 66.9784172,59.5978271 66.9784172,59.1718964 C66.9687695,58.7459656 66.8915876,58.4071571 66.737224,58.1748312 Z M66.737224,58.1748312 C66.5828603,57.9425054 66.3513148,57.8263424 66.023292,57.8263424 C65.6952691,57.8263424 65.4637236,57.9425054 65.3093599,58.1748312 C65.1549963,58.4071571 65.0778144,58.7459656 65.0778144,59.1718964 C65.0778144,59.5978271 65.1549963,59.9366357 65.3093599,60.1786418 C65.4637236,60.4109677 65.6952691,60.5271306 66.023292,60.5271306 C66.3513148,60.5271306 66.5828603,60.4109677 66.737224,60.1786418 C66.8915876,59.9366357 66.9784172,59.5978271 66.9784172,59.1718964 C66.9687695,58.7459656 66.8915876,58.4071571 66.737224,58.1748312 Z M56.6842893,58.1748312 C56.5299255,57.9425054 56.3080277,57.8069819 55.9896526,57.8069819 C55.6616298,57.8069819 55.4300843,57.9328251 55.2757206,58.1748312 C55.1792433,58.3297151 55.1117093,58.52332 55.0731183,58.7653261 L56.8483006,58.7653261 C56.8386529,58.5330003 56.7904143,58.3297151 56.6842893,58.1748312 Z M50.4132647,59.2590186 C49.901935,59.2493383 49.6896849,59.4429432 49.6896849,59.4429432 C49.544969,59.5494259 49.4677871,59.7043098 49.4677871,59.9269555 C49.4677871,60.0624789 49.4967303,60.1786418 49.544969,60.2560837 C49.5739122,60.304485 49.5932076,60.3238455 49.6896849,60.4012874 C49.6896849,60.4012874 49.9115827,60.5755318 50.4229124,60.5464911 C50.7798784,60.5271306 51.0982535,60.4593689 51.0982535,60.4593689 L51.0982535,59.3171 C51.0886058,59.3171 50.7702307,59.2686988 50.4132647,59.2590186 Z M50.4132647,59.2590186 C49.901935,59.2493383 49.6896849,59.4429432 49.6896849,59.4429432 C49.544969,59.5494259 49.4677871,59.7043098 49.4677871,59.9269555 C49.4677871,60.0624789 49.4967303,60.1786418 49.544969,60.2560837 C49.5739122,60.304485 49.5932076,60.3238455 49.6896849,60.4012874 C49.6896849,60.4012874 49.9115827,60.5755318 50.4229124,60.5464911 C50.7798784,60.5271306 51.0982535,60.4593689 51.0982535,60.4593689 L51.0982535,59.3171 C51.0886058,59.3171 50.7702307,59.2686988 50.4132647,59.2590186 Z M56.6842893,58.1748312 C56.5299255,57.9425054 56.3080277,57.8069819 55.9896526,57.8069819 C55.6616298,57.8069819 55.4300843,57.9328251 55.2757206,58.1748312 C55.1792433,58.3297151 55.1117093,58.52332 55.0731183,58.7653261 L56.8483006,58.7653261 C56.8386529,58.5330003 56.7904143,58.3297151 56.6842893,58.1748312 Z M66.737224,58.1748312 C66.5828603,57.9425054 66.3513148,57.8263424 66.023292,57.8263424 C65.6952691,57.8263424 65.4637236,57.9425054 65.3093599,58.1748312 C65.1549963,58.4071571 65.0778144,58.7459656 65.0778144,59.1718964 C65.0778144,59.5978271 65.1549963,59.9366357 65.3093599,60.1786418 C65.4637236,60.4109677 65.6952691,60.5271306 66.023292,60.5271306 C66.3513148,60.5271306 66.5828603,60.4109677 66.737224,60.1786418 C66.8915876,59.9366357 66.9784172,59.5978271 66.9784172,59.1718964 C66.9687695,58.7459656 66.8915876,58.4071571 66.737224,58.1748312 Z M66.737224,58.1748312 C66.5828603,57.9425054 66.3513148,57.8263424 66.023292,57.8263424 C65.6952691,57.8263424 65.4637236,57.9425054 65.3093599,58.1748312 C65.1549963,58.4071571 65.0778144,58.7459656 65.0778144,59.1718964 C65.0778144,59.5978271 65.1549963,59.9366357 65.3093599,60.1786418 C65.4637236,60.4109677 65.6952691,60.5271306 66.023292,60.5271306 C66.3513148,60.5271306 66.5828603,60.4109677 66.737224,60.1786418 C66.8915876,59.9366357 66.9784172,59.5978271 66.9784172,59.1718964 C66.9687695,58.7459656 66.8915876,58.4071571 66.737224,58.1748312 Z M56.6842893,58.1748312 C56.5299255,57.9425054 56.3080277,57.8069819 55.9896526,57.8069819 C55.6616298,57.8069819 55.4300843,57.9328251 55.2757206,58.1748312 C55.1792433,58.3297151 55.1117093,58.52332 55.0731183,58.7653261 L56.8483006,58.7653261 C56.8386529,58.5330003 56.7904143,58.3297151 56.6842893,58.1748312 Z M50.4132647,59.2590186 C49.901935,59.2493383 49.6896849,59.4429432 49.6896849,59.4429432 C49.544969,59.5494259 49.4677871,59.7043098 49.4677871,59.9269555 C49.4677871,60.0624789 49.4967303,60.1786418 49.544969,60.2560837 C49.5739122,60.304485 49.5932076,60.3238455 49.6896849,60.4012874 C49.6896849,60.4012874 49.9115827,60.5755318 50.4229124,60.5464911 C50.7798784,60.5271306 51.0982535,60.4593689 51.0982535,60.4593689 L51.0982535,59.3171 C51.0886058,59.3171 50.7702307,59.2686988 50.4132647,59.2590186 Z M50.4132647,59.2590186 C49.901935,59.2493383 49.6896849,59.4429432 49.6896849,59.4429432 C49.544969,59.5494259 49.4677871,59.7043098 49.4677871,59.9269555 C49.4677871,60.0624789 49.4967303,60.1786418 49.544969,60.2560837 C49.5739122,60.304485 49.5932076,60.3238455 49.6896849,60.4012874 C49.6896849,60.4012874 49.9115827,60.5755318 50.4229124,60.5464911 C50.7798784,60.5271306 51.0982535,60.4593689 51.0982535,60.4593689 L51.0982535,59.3171 C51.0886058,59.3171 50.7702307,59.2686988 50.4132647,59.2590186 Z M56.6842893,58.1748312 C56.5299255,57.9425054 56.3080277,57.8069819 55.9896526,57.8069819 C55.6616298,57.8069819 55.4300843,57.9328251 55.2757206,58.1748312 C55.1792433,58.3297151 55.1117093,58.52332 55.0731183,58.7653261 L56.8483006,58.7653261 C56.8386529,58.5330003 56.7904143,58.3297151 56.6842893,58.1748312 Z M66.737224,58.1748312 C66.5828603,57.9425054 66.3513148,57.8263424 66.023292,57.8263424 C65.6952691,57.8263424 65.4637236,57.9425054 65.3093599,58.1748312 C65.1549963,58.4071571 65.0778144,58.7459656 65.0778144,59.1718964 C65.0778144,59.5978271 65.1549963,59.9366357 65.3093599,60.1786418 C65.4637236,60.4109677 65.6952691,60.5271306 66.023292,60.5271306 C66.3513148,60.5271306 66.5828603,60.4109677 66.737224,60.1786418 C66.8915876,59.9366357 66.9784172,59.5978271 66.9784172,59.1718964 C66.9687695,58.7459656 66.8915876,58.4071571 66.737224,58.1748312 Z M66.737224,58.1748312 C66.5828603,57.9425054 66.3513148,57.8263424 66.023292,57.8263424 C65.6952691,57.8263424 65.4637236,57.9425054 65.3093599,58.1748312 C65.1549963,58.4071571 65.0778144,58.7459656 65.0778144,59.1718964 C65.0778144,59.5978271 65.1549963,59.9366357 65.3093599,60.1786418 C65.4637236,60.4109677 65.6952691,60.5271306 66.023292,60.5271306 C66.3513148,60.5271306 66.5828603,60.4109677 66.737224,60.1786418 C66.8915876,59.9366357 66.9784172,59.5978271 66.9784172,59.1718964 C66.9687695,58.7459656 66.8915876,58.4071571 66.737224,58.1748312 Z M56.6842893,58.1748312 C56.5299255,57.9425054 56.3080277,57.8069819 55.9896526,57.8069819 C55.6616298,57.8069819 55.4300843,57.9328251 55.2757206,58.1748312 C55.1792433,58.3297151 55.1117093,58.52332 55.0731183,58.7653261 L56.8483006,58.7653261 C56.8386529,58.5330003 56.7904143,58.3297151 56.6842893,58.1748312 Z M50.4132647,59.2590186 C49.901935,59.2493383 49.6896849,59.4429432 49.6896849,59.4429432 C49.544969,59.5494259 49.4677871,59.7043098 49.4677871,59.9269555 C49.4677871,60.0624789 49.4967303,60.1786418 49.544969,60.2560837 C49.5739122,60.304485 49.5932076,60.3238455 49.6896849,60.4012874 C49.6896849,60.4012874 49.9115827,60.5755318 50.4229124,60.5464911 C50.7798784,60.5271306 51.0982535,60.4593689 51.0982535,60.4593689 L51.0982535,59.3171 C51.0886058,59.3171 50.7702307,59.2686988 50.4132647,59.2590186 Z M50.4132647,59.2590186 C49.901935,59.2493383 49.6896849,59.4429432 49.6896849,59.4429432 C49.544969,59.5494259 49.4677871,59.7043098 49.4677871,59.9269555 C49.4677871,60.0624789 49.4967303,60.1786418 49.544969,60.2560837 C49.5739122,60.304485 49.5932076,60.3238455 49.6896849,60.4012874 C49.6896849,60.4012874 49.9115827,60.5755318 50.4229124,60.5464911 C50.7798784,60.5271306 51.0982535,60.4593689 51.0982535,60.4593689 L51.0982535,59.3171 C51.0886058,59.3171 50.7702307,59.2686988 50.4132647,59.2590186 Z M56.6842893,58.1748312 C56.5299255,57.9425054 56.3080277,57.8069819 55.9896526,57.8069819 C55.6616298,57.8069819 55.4300843,57.9328251 55.2757206,58.1748312 C55.1792433,58.3297151 55.1117093,58.52332 55.0731183,58.7653261 L56.8483006,58.7653261 C56.8386529,58.5330003 56.7904143,58.3297151 56.6842893,58.1748312 Z M66.737224,58.1748312 C66.5828603,57.9425054 66.3513148,57.8263424 66.023292,57.8263424 C65.6952691,57.8263424 65.4637236,57.9425054 65.3093599,58.1748312 C65.1549963,58.4071571 65.0778144,58.7459656 65.0778144,59.1718964 C65.0778144,59.5978271 65.1549963,59.9366357 65.3093599,60.1786418 C65.4637236,60.4109677 65.6952691,60.5271306 66.023292,60.5271306 C66.3513148,60.5271306 66.5828603,60.4109677 66.737224,60.1786418 C66.8915876,59.9366357 66.9784172,59.5978271 66.9784172,59.1718964 C66.9687695,58.7459656 66.8915876,58.4071571 66.737224,58.1748312 Z M66.737224,58.1748312 C66.5828603,57.9425054 66.3513148,57.8263424 66.023292,57.8263424 C65.6952691,57.8263424 65.4637236,57.9425054 65.3093599,58.1748312 C65.1549963,58.4071571 65.0778144,58.7459656 65.0778144,59.1718964 C65.0778144,59.5978271 65.1549963,59.9366357 65.3093599,60.1786418 C65.4637236,60.4109677 65.6952691,60.5271306 66.023292,60.5271306 C66.3513148,60.5271306 66.5828603,60.4109677 66.737224,60.1786418 C66.8915876,59.9366357 66.9784172,59.5978271 66.9784172,59.1718964 C66.9687695,58.7459656 66.8915876,58.4071571 66.737224,58.1748312 Z M56.6842893,58.1748312 C56.5299255,57.9425054 56.3080277,57.8069819 55.9896526,57.8069819 C55.6616298,57.8069819 55.4300843,57.9328251 55.2757206,58.1748312 C55.1792433,58.3297151 55.1117093,58.52332 55.0731183,58.7653261 L56.8483006,58.7653261 C56.8386529,58.5330003 56.7904143,58.3297151 56.6842893,58.1748312 Z M50.4132647,59.2590186 C49.901935,59.2493383 49.6896849,59.4429432 49.6896849,59.4429432 C49.544969,59.5494259 49.4677871,59.7043098 49.4677871,59.9269555 C49.4677871,60.0624789 49.4967303,60.1786418 49.544969,60.2560837 C49.5739122,60.304485 49.5932076,60.3238455 49.6896849,60.4012874 C49.6896849,60.4012874 49.9115827,60.5755318 50.4229124,60.5464911 C50.7798784,60.5271306 51.0982535,60.4593689 51.0982535,60.4593689 L51.0982535,59.3171 C51.0886058,59.3171 50.7702307,59.2686988 50.4132647,59.2590186 Z M50.4132647,59.2590186 C49.901935,59.2493383 49.6896849,59.4429432 49.6896849,59.4429432 C49.544969,59.5494259 49.4677871,59.7043098 49.4677871,59.9269555 C49.4677871,60.0624789 49.4967303,60.1786418 49.544969,60.2560837 C49.5739122,60.304485 49.5932076,60.3238455 49.6896849,60.4012874 C49.6896849,60.4012874 49.9115827,60.5755318 50.4229124,60.5464911 C50.7798784,60.5271306 51.0982535,60.4593689 51.0982535,60.4593689 L51.0982535,59.3171 C51.0886058,59.3171 50.7702307,59.2686988 50.4132647,59.2590186 Z M56.6842893,58.1748312 C56.5299255,57.9425054 56.3080277,57.8069819 55.9896526,57.8069819 C55.6616298,57.8069819 55.4300843,57.9328251 55.2757206,58.1748312 C55.1792433,58.3297151 55.1117093,58.52332 55.0731183,58.7653261 L56.8483006,58.7653261 C56.8386529,58.5330003 56.7904143,58.3297151 56.6842893,58.1748312 Z M66.737224,58.1748312 C66.5828603,57.9425054 66.3513148,57.8263424 66.023292,57.8263424 C65.6952691,57.8263424 65.4637236,57.9425054 65.3093599,58.1748312 C65.1549963,58.4071571 65.0778144,58.7459656 65.0778144,59.1718964 C65.0778144,59.5978271 65.1549963,59.9366357 65.3093599,60.1786418 C65.4637236,60.4109677 65.6952691,60.5271306 66.023292,60.5271306 C66.3513148,60.5271306 66.5828603,60.4109677 66.737224,60.1786418 C66.8915876,59.9366357 66.9784172,59.5978271 66.9784172,59.1718964 C66.9687695,58.7459656 66.8915876,58.4071571 66.737224,58.1748312 Z M66.737224,58.1748312 C66.5828603,57.9425054 66.3513148,57.8263424 66.023292,57.8263424 C65.6952691,57.8263424 65.4637236,57.9425054 65.3093599,58.1748312 C65.1549963,58.4071571 65.0778144,58.7459656 65.0778144,59.1718964 C65.0778144,59.5978271 65.1549963,59.9366357 65.3093599,60.1786418 C65.4637236,60.4109677 65.6952691,60.5271306 66.023292,60.5271306 C66.3513148,60.5271306 66.5828603,60.4109677 66.737224,60.1786418 C66.8915876,59.9366357 66.9784172,59.5978271 66.9784172,59.1718964 C66.9687695,58.7459656 66.8915876,58.4071571 66.737224,58.1748312 Z M56.6842893,58.1748312 C56.5299255,57.9425054 56.3080277,57.8069819 55.9896526,57.8069819 C55.6616298,57.8069819 55.4300843,57.9328251 55.2757206,58.1748312 C55.1792433,58.3297151 55.1117093,58.52332 55.0731183,58.7653261 L56.8483006,58.7653261 C56.8386529,58.5330003 56.7904143,58.3297151 56.6842893,58.1748312 Z M50.4132647,59.2590186 C49.901935,59.2493383 49.6896849,59.4429432 49.6896849,59.4429432 C49.544969,59.5494259 49.4677871,59.7043098 49.4677871,59.9269555 C49.4677871,60.0624789 49.4967303,60.1786418 49.544969,60.2560837 C49.5739122,60.304485 49.5932076,60.3238455 49.6896849,60.4012874 C49.6896849,60.4012874 49.9115827,60.5755318 50.4229124,60.5464911 C50.7798784,60.5271306 51.0982535,60.4593689 51.0982535,60.4593689 L51.0982535,59.3171 C51.0886058,59.3171 50.7702307,59.2686988 50.4132647,59.2590186 Z M72.7477598,49.0850818 C71.4163731,49.0850818 70.1428727,49.3754891 68.9947928,49.8885421 C67.6730538,47.5265625 65.2032349,45.9390024 62.3571545,45.9390024 C60.2153584,45.9390024 58.2858124,46.8392651 56.906187,48.2913018 C55.3818457,46.2874912 52.9699131,45.0000187 50.258901,45.0000187 C45.647286,44.9903385 41.9039668,48.736593 41.9039668,53.3637498 C41.9039668,54.5447396 42.14516,55.6773282 42.5889556,56.6937538 C40.4471595,57.9521856 39,60.304485 39,62.9955929 C39,67.0128943 42.2126941,70.2751366 46.1779112,70.2751366 C46.6795931,70.2751366 47.1812751,70.2267354 47.6540139,70.1202527 C48.7442074,73.0824074 51.58064,75.202381 54.9091069,75.202381 C58.1121533,75.202381 60.8521086,73.2566519 62.0291317,70.4687415 C62.9263706,70.9043525 63.9297345,71.1560388 64.9909848,71.1560388 C67.5283378,71.1560388 69.7473158,69.7524034 70.9050434,67.6711509 C71.4935549,67.7873138 72.1110096,67.8550755 72.7284644,67.8550755 C77.851409,67.8550755 81.999933,63.6538495 81.999933,58.4652386 C82.0192284,53.2863078 77.8707045,49.0850818 72.7477598,49.0850818 Z M48.2135822,59.9753567 C48.2135822,60.7304157 47.6636616,61.2047477 46.7857182,61.2047477 C46.3515703,61.2047477 45.9367179,61.136986 45.5025701,60.9046601 C45.4157405,60.8562589 45.3385587,60.8175379 45.2613768,60.7594564 C45.2517291,60.7497762 45.2131382,60.7304157 45.2420814,60.662654 L45.4157405,60.1786418 C45.4446837,60.0915196 45.5025701,60.1205603 45.5315132,60.1399208 C45.5797519,60.1689615 45.6183428,60.1980023 45.6762292,60.2367232 C46.1875589,60.5658516 46.6602977,60.5658516 46.8146614,60.5658516 C47.2005705,60.5658516 47.4321161,60.3625664 47.4321161,60.0915196 L47.4321161,60.0721591 C47.4321161,59.7720715 47.0655023,59.6559086 46.6410022,59.5300654 L46.5445249,59.5010247 C45.9656611,59.3364605 45.3385587,59.0944544 45.3385587,58.3587559 L45.3385587,58.3393954 C45.3385587,57.6424178 45.898127,57.1487253 46.7085363,57.1487253 L46.7953659,57.1487253 C47.2681047,57.1487253 47.7311957,57.2842487 48.0592185,57.4875339 C48.0881618,57.5068944 48.1171049,57.5359351 48.0978095,57.5843363 C48.078514,57.6230573 47.933798,58.0199473 47.9145026,58.0683485 C47.8855594,58.1554707 47.7987298,58.0973893 47.7987298,58.0973893 C47.5092979,57.9328251 47.0558546,57.8069819 46.6795931,57.8069819 C46.3419226,57.8069819 46.1200248,57.9909066 46.1200248,58.2329127 L46.1200248,58.2425929 C46.1200248,58.5330003 46.4962863,58.6588434 46.9400819,58.7943668 L47.0172637,58.8137273 C47.5961275,58.997652 48.2135822,59.2493383 48.2135822,59.9559962 L48.2135822,59.9753567 Z M51.8218333,60.9627416 C51.8218333,60.9627416 51.725356,60.9917823 51.6481742,61.0111428 C51.5613446,61.0305033 51.2622649,61.0885847 51.0210717,61.136986 C50.7702307,61.1757069 50.5193897,61.2047477 50.258901,61.2047477 C50.0177077,61.2047477 49.79581,61.1853872 49.6028553,61.136986 C49.4099007,61.0885847 49.2362416,61.020823 49.0915256,60.9143404 C48.9468097,60.8175379 48.8406847,60.6820145 48.7635028,60.5271306 C48.686321,60.3722467 48.6477301,60.1786418 48.6477301,59.9559962 C48.6477301,59.7430308 48.6959687,59.5494259 48.7827983,59.3751815 C48.8696278,59.2106173 48.9950484,59.0750939 49.1494121,58.958931 C49.3037757,58.8524483 49.4774349,58.7653261 49.6703895,58.7169249 C49.8633441,58.6685237 50.0659464,58.6394829 50.2878442,58.6394829 C50.4422079,58.6394829 50.5772761,58.6394829 50.6737534,58.6491632 C50.6737534,58.6491632 50.866708,58.6685237 51.0886058,58.6975644 L51.0886058,58.5910817 C51.0886058,58.2522732 51.0210717,58.0973893 50.8860035,57.9909066 C50.7509352,57.8844239 50.5386852,57.8263424 50.2685487,57.8263424 C50.2685487,57.8263424 49.6607418,57.8166622 49.1880029,58.0780288 C49.1687075,58.087709 49.1494121,58.0973893 49.1494121,58.0973893 C49.1494121,58.0973893 49.0915256,58.1167497 49.0722302,58.0586683 L48.8985711,57.5843363 C48.8696278,57.5165746 48.9178665,57.4875339 48.9178665,57.4875339 C49.1397643,57.3132895 49.6896849,57.2068068 49.6896849,57.2068068 C49.8729918,57.1680858 50.1720714,57.1487253 50.3553783,57.1487253 C50.8570602,57.1487253 51.2429695,57.2648882 51.5034582,57.4972141 C51.7639469,57.72954 51.8990151,58.0973893 51.8990151,58.600762 L51.8990151,60.8852996 C51.8797197,60.8852996 51.8893674,60.9433811 51.8218333,60.9627416 Z M53.5005383,61.0305033 C53.5005383,61.0692243 53.4715951,61.1079452 53.4330042,61.1079452 L52.7673108,61.1079452 C52.7287199,61.1079452 52.6997767,61.0692243 52.6997767,61.0305033 L52.6997767,55.6870084 C52.6997767,55.6482875 52.7287199,55.6095665 52.7673108,55.6095665 L53.4330042,55.6095665 C53.4715951,55.6095665 53.5005383,55.6386072 53.5005383,55.6870084 L53.5005383,61.0305033 Z M57.6297668,59.3171 C57.6201191,59.3848618 57.5525849,59.3848618 57.5525849,59.3848618 L55.0634706,59.3848618 C55.082766,59.7623913 55.1695956,60.0334381 55.3529025,60.2173627 C55.5362094,60.3916072 55.8159935,60.5077701 56.2019027,60.5077701 C56.7904143,60.5077701 57.050903,60.3916072 57.2245621,60.3238455 C57.2245621,60.3238455 57.2920962,60.304485 57.3210394,60.3722467 L57.4850508,60.8272182 C57.513994,60.9046601 57.4946986,60.9337009 57.4657553,60.9433811 C57.3113917,61.0305033 56.9351302,61.1950674 56.2115504,61.1950674 C55.8642322,61.1950674 55.5555048,61.1466662 55.3046638,61.0498638 C55.0538228,60.9530614 54.8415728,60.8078577 54.6775614,60.6336133 C54.51355,60.4593689 54.3881295,60.2464035 54.3109476,59.9947172 C54.2337658,59.752711 54.1951749,59.4816642 54.1951749,59.2009371 C54.1951749,58.92021 54.2337658,58.6491632 54.3012999,58.4071571 C54.3784818,58.1554707 54.4846068,57.9425054 54.6389704,57.7585807 C54.7933342,57.5746561 54.9862887,57.4294524 55.2178343,57.3229697 C55.4493798,57.216487 55.729164,57.1584056 56.0378913,57.1584056 C56.3080277,57.1584056 56.549221,57.216487 56.7518233,57.3036092 C56.906187,57.3713709 57.0605507,57.4875339 57.2245621,57.6617783 C57.3210394,57.7682609 57.4850508,58.0102671 57.5429372,58.2425929 C57.7165964,58.8040471 57.6297668,59.2880593 57.6297668,59.3171 Z M59.7040288,61.2047477 C59.2698809,61.2047477 58.8550285,61.136986 58.4208806,60.9046601 C58.3340511,60.8562589 58.2568693,60.8175379 58.1796874,60.7594564 C58.1700397,60.7497762 58.1314488,60.7304157 58.1603919,60.662654 L58.3340511,60.1786418 C58.3629943,60.1011998 58.4305284,60.1302406 58.4498239,60.1399208 C58.4980625,60.1689615 58.5366534,60.1980023 58.5945398,60.2367232 C59.1058695,60.5658516 59.5786082,60.5658516 59.7329719,60.5658516 C60.1188811,60.5658516 60.3600744,60.3625664 60.3600744,60.0915196 L60.3600744,60.0721591 C60.3600744,59.7720715 59.9934606,59.6559086 59.5689605,59.5300654 L59.4724832,59.5010247 C58.8936194,59.3364605 58.266517,59.0944544 58.266517,58.3587559 L58.266517,58.3393954 C58.266517,57.6424178 58.8260853,57.1487253 59.6364946,57.1487253 L59.7233242,57.1487253 C60.196063,57.1487253 60.659154,57.2842487 60.9871769,57.4875339 C61.01612,57.5068944 61.0450632,57.5359351 61.0257677,57.5843363 C61.0064723,57.6230573 60.8617564,58.0199473 60.8424609,58.0683485 C60.8135177,58.1554707 60.7266881,58.0973893 60.7266881,58.0973893 C60.4372562,57.9328251 59.9838129,57.8069819 59.6075515,57.8069819 C59.2602332,57.8069819 59.0479831,57.9909066 59.0479831,58.2329127 L59.0479831,58.2425929 C59.0479831,58.5330003 59.4242446,58.6588434 59.8583924,58.7943668 L59.9355743,58.8137273 C60.5144381,58.997652 61.1318928,59.2493383 61.1318928,59.9559962 L61.1318928,59.9753567 C61.1318928,60.7400959 60.5819722,61.2047477 59.7040288,61.2047477 Z M64.055155,57.8263424 C64.0455073,57.9037844 63.9683254,57.9037844 63.9683254,57.9037844 L63.1482684,57.9037844 L62.5887,61.0885847 C62.5308137,61.4177131 62.4536318,61.6984401 62.3668022,61.930766 C62.2799727,62.1630918 62.1834954,62.327656 62.0387794,62.4922202 C61.9037112,62.6374238 61.7493475,62.7535868 61.5756884,62.8116682 C61.4020293,62.8697497 61.1897792,62.9084707 60.9678814,62.9084707 C60.8617564,62.9084707 60.7459836,62.9084707 60.6012676,62.8697497 C60.5047903,62.8503892 60.446904,62.8310287 60.3697221,62.801988 C60.3407789,62.7923078 60.3118357,62.7535868 60.3311312,62.7051855 C60.3504267,62.6567843 60.4951426,62.2502141 60.5144381,62.2018128 C60.5433813,62.1340511 60.6012676,62.1630918 60.6012676,62.1630918 C60.6495063,62.1824523 60.6784495,62.1921326 60.7363359,62.2018128 C60.7942222,62.2114931 60.8810518,62.2211733 60.9389382,62.2211733 C61.0450632,62.2211733 61.1511883,62.2114931 61.2283701,62.1824523 C61.3344951,62.1437314 61.3923815,62.0856499 61.4599156,62.008208 C61.5274497,61.9210858 61.5756884,61.8049228 61.6335748,61.6500389 C61.6914612,61.495155 61.7396998,61.2821896 61.7782907,61.0305033 L62.3378591,57.9037844 L61.7879384,57.9037844 C61.7204043,57.9037844 61.7011089,57.8747436 61.7107566,57.8263424 L61.8072339,57.3036092 C61.8168817,57.2358475 61.8844157,57.2261673 61.8940635,57.2261673 L62.4632796,57.2261673 L62.4922227,57.0519229 C62.5790523,56.5485502 62.7430637,56.1710206 62.9939047,55.9193343 C63.2447457,55.6676479 63.6017117,55.5418048 64.055155,55.5418048 C64.1805755,55.5418048 64.2963483,55.551485 64.3928256,55.5708455 C64.4893028,55.590206 64.556837,55.5998862 64.6436666,55.628927 C64.662962,55.6386072 64.7112007,55.6579677 64.6919052,55.7160491 L64.4989506,56.2387823 C64.4796551,56.2775033 64.4700074,56.3065441 64.3928256,56.2775033 C64.3735301,56.2678231 64.3445869,56.2581428 64.2674051,56.2484626 C64.2095187,56.2387823 64.1419846,56.2291021 64.0648027,56.2291021 C63.9683254,56.2291021 63.8718481,56.2387823 63.7946663,56.2678231 C63.7174845,56.2968638 63.6499503,56.3355848 63.5824163,56.3936663 C63.5148821,56.461428 63.447348,56.5485502 63.4087571,56.6647131 C63.3122798,56.9260797 63.2833366,57.2068068 63.2736889,57.2261673 L64.0744505,57.2261673 C64.1419846,57.2261673 64.16128,57.255208 64.1516323,57.3036092 L64.055155,57.8263424 Z M67.701997,59.9656764 C67.6248151,60.2076825 67.5186901,60.4303282 67.3643264,60.6045725 C67.2099627,60.7884972 67.0266559,60.9337009 66.7951103,61.0305033 C66.5732125,61.136986 66.3030761,61.1853872 66.0039965,61.1853872 C65.7049169,61.1853872 65.4444281,61.136986 65.2128826,61.0305033 C64.9909848,60.9240206 64.7980302,60.7788169 64.6436666,60.6045725 C64.4893028,60.4206479 64.3831778,60.2076825 64.305996,59.9656764 C64.2384619,59.7236703 64.199871,59.4526235 64.199871,59.1718964 C64.199871,58.8911693 64.2384619,58.6201224 64.305996,58.3781164 C64.3831778,58.1361102 64.4893028,57.9134646 64.6436666,57.7392202 C64.7883825,57.5552956 64.9813371,57.4100919 65.2128826,57.3036092 C65.4347804,57.1971265 65.7049169,57.1487253 66.0039965,57.1487253 C66.3030761,57.1487253 66.5635648,57.1971265 66.7951103,57.3036092 C67.0170081,57.4100919 67.2099627,57.5552956 67.3643264,57.7392202 C67.5186901,57.9231449 67.6248151,58.1361102 67.701997,58.3781164 C67.7695311,58.6201224 67.808122,58.8911693 67.808122,59.1718964 C67.8177697,59.4526235 67.7791788,59.7236703 67.701997,59.9656764 Z M70.7892706,57.3520104 C70.7699751,57.4197722 70.6445546,57.7585807 70.6059638,57.8747436 C70.5866683,57.9134646 70.5673728,57.9521856 70.5094865,57.9425054 C70.5094865,57.9425054 70.3647705,57.9037844 70.23935,57.9037844 C70.1525204,57.9037844 70.0174522,57.9134646 69.9016794,57.9521856 C69.7859067,57.9909066 69.6894294,58.0489881 69.5929521,58.1361102 C69.4964748,58.2232324 69.4289407,58.3490756 69.3710543,58.5039595 C69.3131679,58.6588434 69.2938724,58.9105298 69.2938724,59.1622161 L69.2938724,61.0305033 C69.2938724,61.0692243 69.2552815,61.1079452 69.2166906,61.1079452 L68.5606449,61.1079452 C68.5220541,61.1079452 68.4834631,61.0789045 68.4834631,61.0305033 L68.4834631,57.3036092 C68.4834631,57.2648882 68.5124063,57.2261673 68.5509972,57.2261673 L69.1877474,57.2261673 C69.2263383,57.2261673 69.2552815,57.255208 69.2552815,57.3036092 L69.2552815,57.6036968 C69.3517588,57.4778536 69.525418,57.3616907 69.6797817,57.293929 C69.8341453,57.2261673 70.0078045,57.1680858 70.3261796,57.1874463 C70.490191,57.1971265 70.702441,57.2455277 70.741032,57.255208 C70.7699751,57.2648882 70.8085661,57.293929 70.7892706,57.3520104 Z M73.9054874,61.0014626 C73.6257033,61.1079452 73.2397941,61.1853872 72.8635326,61.1853872 C72.2267824,61.1853872 71.7347482,61.0014626 71.4067253,60.6336133 C71.0787025,60.2754442 70.9146911,59.7720715 70.9146911,59.1622161 C70.9146911,58.8814891 70.953282,58.6104422 71.0304639,58.3684361 C71.1076457,58.12643 71.2330662,57.9037844 71.3874299,57.72954 C71.5417936,57.5456154 71.7443959,57.4004117 71.9855891,57.293929 C72.2171347,57.1874463 72.4969189,57.1390451 72.8056462,57.1390451 C73.0178963,57.1390451 73.2012031,57.1487253 73.3555668,57.177766 C73.529226,57.2068068 73.7511238,57.2648882 73.8476011,57.3036092 C73.8668965,57.3132895 73.9151351,57.33265 73.8958397,57.3907314 C73.8283056,57.5843363 73.7800669,57.7198597 73.7125328,57.8941041 C73.6835896,57.9715461 73.6257033,57.9425054 73.6257033,57.9425054 C73.38451,57.8650634 73.1529645,57.8360227 72.8442371,57.8360227 C72.4776234,57.8360227 72.2074869,57.9618659 72.02418,58.1941917 C71.8408732,58.4361978 71.7443959,58.7459656 71.7443959,59.1622161 C71.7443959,59.6268679 71.8601687,59.9656764 72.062771,60.1689615 C72.2653733,60.3819269 72.5451575,60.4884096 72.9021235,60.4884096 C73.0468394,60.4884096 73.1819076,60.4787294 73.3073282,60.4593689 C73.4327487,60.4400084 73.5388737,60.4012874 73.6449987,60.3625664 C73.6449987,60.3625664 73.7125328,60.3335257 73.741476,60.4109677 L73.9247829,60.9143404 C73.9633738,60.9821021 73.9054874,61.0014626 73.9054874,61.0014626 Z M77.600568,59.3171 C77.5909203,59.3848618 77.5233862,59.3848618 77.5233862,59.3848618 L75.0342718,59.3848618 C75.0535673,59.7623913 75.1403969,60.0334381 75.3237038,60.2173627 C75.5070106,60.3916072 75.7867948,60.5077701 76.172704,60.5077701 C76.7612155,60.5077701 77.0217042,60.3916072 77.1953634,60.3238455 C77.1953634,60.3238455 77.2628975,60.304485 77.2918407,60.3722467 L77.4558521,60.8272182 C77.4847953,60.9046601 77.4654998,60.9337009 77.4365566,60.9433811 C77.2821929,61.0305033 76.9059315,61.1950674 76.1823517,61.1950674 C75.8350334,61.1950674 75.5263061,61.1466662 75.2754651,61.0498638 C75.0246241,60.9530614 74.8123741,60.8078577 74.6483626,60.6336133 C74.4843512,60.4593689 74.3589307,60.2464035 74.2913966,59.9947172 C74.2142148,59.752711 74.1756239,59.4816642 74.1756239,59.2009371 C74.1756239,58.92021 74.2142148,58.6491632 74.2817489,58.4071571 C74.3589307,58.1554707 74.4650558,57.9425054 74.6194194,57.7585807 C74.7737831,57.5746561 74.9667377,57.4294524 75.1982833,57.3229697 C75.4298288,57.216487 75.7096129,57.1584056 76.0183403,57.1584056 C76.2884768,57.1584056 76.52967,57.216487 76.7322723,57.3036092 C76.886636,57.3713709 77.0409997,57.4875339 77.2050111,57.6617783 C77.3014884,57.7682609 77.4558521,58.0102671 77.5233862,58.2425929 C77.6873976,58.8040471 77.600568,59.2880593 77.600568,59.3171 Z M66.0136442,57.8263424 C65.6856214,57.8263424 65.4540759,57.9425054 65.2997122,58.1748312 C65.1453485,58.4071571 65.0681667,58.7459656 65.0681667,59.1718964 C65.0681667,59.5978271 65.1453485,59.9366357 65.2997122,60.1786418 C65.4540759,60.4109677 65.6856214,60.5271306 66.0136442,60.5271306 C66.341667,60.5271306 66.5732125,60.4109677 66.7275763,60.1786418 C66.8819399,59.9366357 66.9687695,59.5978271 66.9687695,59.1718964 C66.9687695,58.7459656 66.8915876,58.4071571 66.7275763,58.1748312 C66.5732125,57.9425054 66.341667,57.8263424 66.0136442,57.8263424 Z M55.9896526,57.8069819 C55.6616298,57.8069819 55.4300843,57.9328251 55.2757206,58.1748312 C55.1792433,58.3297151 55.1117093,58.52332 55.0731183,58.7653261 L56.8483006,58.7653261 C56.8290052,58.5330003 56.7807666,58.3297151 56.6842893,58.1748312 C56.5299255,57.9425054 56.3176755,57.8069819 55.9896526,57.8069819 Z M49.6896849,59.4429432 C49.544969,59.5494259 49.4677871,59.7043098 49.4677871,59.9269555 C49.4677871,60.0624789 49.4967303,60.1786418 49.544969,60.2560837 C49.5739122,60.304485 49.5932076,60.3238455 49.6896849,60.4012874 C49.6896849,60.4012874 49.9115827,60.5755318 50.4229124,60.5464911 C50.7798784,60.5271306 51.0982535,60.4593689 51.0982535,60.4593689 L51.0982535,59.3171 C51.0982535,59.3171 50.7798784,59.2686988 50.4229124,59.2590186 C49.901935,59.2590186 49.6896849,59.4429432 49.6896849,59.4429432 Z M50.4132647,59.2590186 C49.901935,59.2493383 49.6896849,59.4429432 49.6896849,59.4429432 C49.544969,59.5494259 49.4677871,59.7043098 49.4677871,59.9269555 C49.4677871,60.0624789 49.4967303,60.1786418 49.544969,60.2560837 C49.5739122,60.304485 49.5932076,60.3238455 49.6896849,60.4012874 C49.6896849,60.4012874 49.9115827,60.5755318 50.4229124,60.5464911 C50.7798784,60.5271306 51.0982535,60.4593689 51.0982535,60.4593689 L51.0982535,59.3171 C51.0886058,59.3171 50.7702307,59.2686988 50.4132647,59.2590186 Z M56.6842893,58.1748312 C56.5299255,57.9425054 56.3080277,57.8069819 55.9896526,57.8069819 C55.6616298,57.8069819 55.4300843,57.9328251 55.2757206,58.1748312 C55.1792433,58.3297151 55.1117093,58.52332 55.0731183,58.7653261 L56.8483006,58.7653261 C56.8386529,58.5330003 56.7904143,58.3297151 56.6842893,58.1748312 Z M66.737224,58.1748312 C66.5828603,57.9425054 66.3513148,57.8263424 66.023292,57.8263424 C65.6952691,57.8263424 65.4637236,57.9425054 65.3093599,58.1748312 C65.1549963,58.4071571 65.0778144,58.7459656 65.0778144,59.1718964 C65.0778144,59.5978271 65.1549963,59.9366357 65.3093599,60.1786418 C65.4637236,60.4109677 65.6952691,60.5271306 66.023292,60.5271306 C66.3513148,60.5271306 66.5828603,60.4109677 66.737224,60.1786418 C66.8915876,59.9366357 66.9784172,59.5978271 66.9784172,59.1718964 C66.9687695,58.7459656 66.8915876,58.4071571 66.737224,58.1748312 Z M66.737224,58.1748312 C66.5828603,57.9425054 66.3513148,57.8263424 66.023292,57.8263424 C65.6952691,57.8263424 65.4637236,57.9425054 65.3093599,58.1748312 C65.1549963,58.4071571 65.0778144,58.7459656 65.0778144,59.1718964 C65.0778144,59.5978271 65.1549963,59.9366357 65.3093599,60.1786418 C65.4637236,60.4109677 65.6952691,60.5271306 66.023292,60.5271306 C66.3513148,60.5271306 66.5828603,60.4109677 66.737224,60.1786418 C66.8915876,59.9366357 66.9784172,59.5978271 66.9784172,59.1718964 C66.9687695,58.7459656 66.8915876,58.4071571 66.737224,58.1748312 Z M56.6842893,58.1748312 C56.5299255,57.9425054 56.3080277,57.8069819 55.9896526,57.8069819 C55.6616298,57.8069819 55.4300843,57.9328251 55.2757206,58.1748312 C55.1792433,58.3297151 55.1117093,58.52332 55.0731183,58.7653261 L56.8483006,58.7653261 C56.8386529,58.5330003 56.7904143,58.3297151 56.6842893,58.1748312 Z M50.4132647,59.2590186 C49.901935,59.2493383 49.6896849,59.4429432 49.6896849,59.4429432 C49.544969,59.5494259 49.4677871,59.7043098 49.4677871,59.9269555 C49.4677871,60.0624789 49.4967303,60.1786418 49.544969,60.2560837 C49.5739122,60.304485 49.5932076,60.3238455 49.6896849,60.4012874 C49.6896849,60.4012874 49.9115827,60.5755318 50.4229124,60.5464911 C50.7798784,60.5271306 51.0982535,60.4593689 51.0982535,60.4593689 L51.0982535,59.3171 C51.0886058,59.3171 50.7702307,59.2686988 50.4132647,59.2590186 Z M50.4132647,59.2590186 C49.901935,59.2493383 49.6896849,59.4429432 49.6896849,59.4429432 C49.544969,59.5494259 49.4677871,59.7043098 49.4677871,59.9269555 C49.4677871,60.0624789 49.4967303,60.1786418 49.544969,60.2560837 C49.5739122,60.304485 49.5932076,60.3238455 49.6896849,60.4012874 C49.6896849,60.4012874 49.9115827,60.5755318 50.4229124,60.5464911 C50.7798784,60.5271306 51.0982535,60.4593689 51.0982535,60.4593689 L51.0982535,59.3171 C51.0886058,59.3171 50.7702307,59.2686988 50.4132647,59.2590186 Z M56.6842893,58.1748312 C56.5299255,57.9425054 56.3080277,57.8069819 55.9896526,57.8069819 C55.6616298,57.8069819 55.4300843,57.9328251 55.2757206,58.1748312 C55.1792433,58.3297151 55.1117093,58.52332 55.0731183,58.7653261 L56.8483006,58.7653261 C56.8386529,58.5330003 56.7904143,58.3297151 56.6842893,58.1748312 Z M66.737224,58.1748312 C66.5828603,57.9425054 66.3513148,57.8263424 66.023292,57.8263424 C65.6952691,57.8263424 65.4637236,57.9425054 65.3093599,58.1748312 C65.1549963,58.4071571 65.0778144,58.7459656 65.0778144,59.1718964 C65.0778144,59.5978271 65.1549963,59.9366357 65.3093599,60.1786418 C65.4637236,60.4109677 65.6952691,60.5271306 66.023292,60.5271306 C66.3513148,60.5271306 66.5828603,60.4109677 66.737224,60.1786418 C66.8915876,59.9366357 66.9784172,59.5978271 66.9784172,59.1718964 C66.9687695,58.7459656 66.8915876,58.4071571 66.737224,58.1748312 Z M66.737224,58.1748312 C66.5828603,57.9425054 66.3513148,57.8263424 66.023292,57.8263424 C65.6952691,57.8263424 65.4637236,57.9425054 65.3093599,58.1748312 C65.1549963,58.4071571 65.0778144,58.7459656 65.0778144,59.1718964 C65.0778144,59.5978271 65.1549963,59.9366357 65.3093599,60.1786418 C65.4637236,60.4109677 65.6952691,60.5271306 66.023292,60.5271306 C66.3513148,60.5271306 66.5828603,60.4109677 66.737224,60.1786418 C66.8915876,59.9366357 66.9784172,59.5978271 66.9784172,59.1718964 C66.9687695,58.7459656 66.8915876,58.4071571 66.737224,58.1748312 Z M56.6842893,58.1748312 C56.5299255,57.9425054 56.3080277,57.8069819 55.9896526,57.8069819 C55.6616298,57.8069819 55.4300843,57.9328251 55.2757206,58.1748312 C55.1792433,58.3297151 55.1117093,58.52332 55.0731183,58.7653261 L56.8483006,58.7653261 C56.8386529,58.5330003 56.7904143,58.3297151 56.6842893,58.1748312 Z M50.4132647,59.2590186 C49.901935,59.2493383 49.6896849,59.4429432 49.6896849,59.4429432 C49.544969,59.5494259 49.4677871,59.7043098 49.4677871,59.9269555 C49.4677871,60.0624789 49.4967303,60.1786418 49.544969,60.2560837 C49.5739122,60.304485 49.5932076,60.3238455 49.6896849,60.4012874 C49.6896849,60.4012874 49.9115827,60.5755318 50.4229124,60.5464911 C50.7798784,60.5271306 51.0982535,60.4593689 51.0982535,60.4593689 L51.0982535,59.3171 C51.0886058,59.3171 50.7702307,59.2686988 50.4132647,59.2590186 Z M50.4132647,59.2590186 C49.901935,59.2493383 49.6896849,59.4429432 49.6896849,59.4429432 C49.544969,59.5494259 49.4677871,59.7043098 49.4677871,59.9269555 C49.4677871,60.0624789 49.4967303,60.1786418 49.544969,60.2560837 C49.5739122,60.304485 49.5932076,60.3238455 49.6896849,60.4012874 C49.6896849,60.4012874 49.9115827,60.5755318 50.4229124,60.5464911 C50.7798784,60.5271306 51.0982535,60.4593689 51.0982535,60.4593689 L51.0982535,59.3171 C51.0886058,59.3171 50.7702307,59.2686988 50.4132647,59.2590186 Z M56.6842893,58.1748312 C56.5299255,57.9425054 56.3080277,57.8069819 55.9896526,57.8069819 C55.6616298,57.8069819 55.4300843,57.9328251 55.2757206,58.1748312 C55.1792433,58.3297151 55.1117093,58.52332 55.0731183,58.7653261 L56.8483006,58.7653261 C56.8386529,58.5330003 56.7904143,58.3297151 56.6842893,58.1748312 Z M66.737224,58.1748312 C66.5828603,57.9425054 66.3513148,57.8263424 66.023292,57.8263424 C65.6952691,57.8263424 65.4637236,57.9425054 65.3093599,58.1748312 C65.1549963,58.4071571 65.0778144,58.7459656 65.0778144,59.1718964 C65.0778144,59.5978271 65.1549963,59.9366357 65.3093599,60.1786418 C65.4637236,60.4109677 65.6952691,60.5271306 66.023292,60.5271306 C66.3513148,60.5271306 66.5828603,60.4109677 66.737224,60.1786418 C66.8915876,59.9366357 66.9784172,59.5978271 66.9784172,59.1718964 C66.9687695,58.7459656 66.8915876,58.4071571 66.737224,58.1748312 Z M66.737224,58.1748312 C66.5828603,57.9425054 66.3513148,57.8263424 66.023292,57.8263424 C65.6952691,57.8263424 65.4637236,57.9425054 65.3093599,58.1748312 C65.1549963,58.4071571 65.0778144,58.7459656 65.0778144,59.1718964 C65.0778144,59.5978271 65.1549963,59.9366357 65.3093599,60.1786418 C65.4637236,60.4109677 65.6952691,60.5271306 66.023292,60.5271306 C66.3513148,60.5271306 66.5828603,60.4109677 66.737224,60.1786418 C66.8915876,59.9366357 66.9784172,59.5978271 66.9784172,59.1718964 C66.9687695,58.7459656 66.8915876,58.4071571 66.737224,58.1748312 Z M56.6842893,58.1748312 C56.5299255,57.9425054 56.3080277,57.8069819 55.9896526,57.8069819 C55.6616298,57.8069819 55.4300843,57.9328251 55.2757206,58.1748312 C55.1792433,58.3297151 55.1117093,58.52332 55.0731183,58.7653261 L56.8483006,58.7653261 C56.8386529,58.5330003 56.7904143,58.3297151 56.6842893,58.1748312 Z M50.4132647,59.2590186 C49.901935,59.2493383 49.6896849,59.4429432 49.6896849,59.4429432 C49.544969,59.5494259 49.4677871,59.7043098 49.4677871,59.9269555 C49.4677871,60.0624789 49.4967303,60.1786418 49.544969,60.2560837 C49.5739122,60.304485 49.5932076,60.3238455 49.6896849,60.4012874 C49.6896849,60.4012874 49.9115827,60.5755318 50.4229124,60.5464911 C50.7798784,60.5271306 51.0982535,60.4593689 51.0982535,60.4593689 L51.0982535,59.3171 C51.0886058,59.3171 50.7702307,59.2686988 50.4132647,59.2590186 Z M50.4132647,59.2590186 C49.901935,59.2493383 49.6896849,59.4429432 49.6896849,59.4429432 C49.544969,59.5494259 49.4677871,59.7043098 49.4677871,59.9269555 C49.4677871,60.0624789 49.4967303,60.1786418 49.544969,60.2560837 C49.5739122,60.304485 49.5932076,60.3238455 49.6896849,60.4012874 C49.6896849,60.4012874 49.9115827,60.5755318 50.4229124,60.5464911 C50.7798784,60.5271306 51.0982535,60.4593689 51.0982535,60.4593689 L51.0982535,59.3171 C51.0886058,59.3171 50.7702307,59.2686988 50.4132647,59.2590186 Z M56.6842893,58.1748312 C56.5299255,57.9425054 56.3080277,57.8069819 55.9896526,57.8069819 C55.6616298,57.8069819 55.4300843,57.9328251 55.2757206,58.1748312 C55.1792433,58.3297151 55.1117093,58.52332 55.0731183,58.7653261 L56.8483006,58.7653261 C56.8386529,58.5330003 56.7904143,58.3297151 56.6842893,58.1748312 Z M66.737224,58.1748312 C66.5828603,57.9425054 66.3513148,57.8263424 66.023292,57.8263424 C65.6952691,57.8263424 65.4637236,57.9425054 65.3093599,58.1748312 C65.1549963,58.4071571 65.0778144,58.7459656 65.0778144,59.1718964 C65.0778144,59.5978271 65.1549963,59.9366357 65.3093599,60.1786418 C65.4637236,60.4109677 65.6952691,60.5271306 66.023292,60.5271306 C66.3513148,60.5271306 66.5828603,60.4109677 66.737224,60.1786418 C66.8915876,59.9366357 66.9784172,59.5978271 66.9784172,59.1718964 C66.9687695,58.7459656 66.8915876,58.4071571 66.737224,58.1748312 Z M66.737224,58.1748312 C66.5828603,57.9425054 66.3513148,57.8263424 66.023292,57.8263424 C65.6952691,57.8263424 65.4637236,57.9425054 65.3093599,58.1748312 C65.1549963,58.4071571 65.0778144,58.7459656 65.0778144,59.1718964 C65.0778144,59.5978271 65.1549963,59.9366357 65.3093599,60.1786418 C65.4637236,60.4109677 65.6952691,60.5271306 66.023292,60.5271306 C66.3513148,60.5271306 66.5828603,60.4109677 66.737224,60.1786418 C66.8915876,59.9366357 66.9784172,59.5978271 66.9784172,59.1718964 C66.9687695,58.7459656 66.8915876,58.4071571 66.737224,58.1748312 Z M56.6842893,58.1748312 C56.5299255,57.9425054 56.3080277,57.8069819 55.9896526,57.8069819 C55.6616298,57.8069819 55.4300843,57.9328251 55.2757206,58.1748312 C55.1792433,58.3297151 55.1117093,58.52332 55.0731183,58.7653261 L56.8483006,58.7653261 C56.8386529,58.5330003 56.7904143,58.3297151 56.6842893,58.1748312 Z M50.4132647,59.2590186 C49.901935,59.2493383 49.6896849,59.4429432 49.6896849,59.4429432 C49.544969,59.5494259 49.4677871,59.7043098 49.4677871,59.9269555 C49.4677871,60.0624789 49.4967303,60.1786418 49.544969,60.2560837 C49.5739122,60.304485 49.5932076,60.3238455 49.6896849,60.4012874 C49.6896849,60.4012874 49.9115827,60.5755318 50.4229124,60.5464911 C50.7798784,60.5271306 51.0982535,60.4593689 51.0982535,60.4593689 L51.0982535,59.3171 C51.0886058,59.3171 50.7702307,59.2686988 50.4132647,59.2590186 Z M50.4132647,59.2590186 C49.901935,59.2493383 49.6896849,59.4429432 49.6896849,59.4429432 C49.544969,59.5494259 49.4677871,59.7043098 49.4677871,59.9269555 C49.4677871,60.0624789 49.4967303,60.1786418 49.544969,60.2560837 C49.5739122,60.304485 49.5932076,60.3238455 49.6896849,60.4012874 C49.6896849,60.4012874 49.9115827,60.5755318 50.4229124,60.5464911 C50.7798784,60.5271306 51.0982535,60.4593689 51.0982535,60.4593689 L51.0982535,59.3171 C51.0886058,59.3171 50.7702307,59.2686988 50.4132647,59.2590186 Z M56.6842893,58.1748312 C56.5299255,57.9425054 56.3080277,57.8069819 55.9896526,57.8069819 C55.6616298,57.8069819 55.4300843,57.9328251 55.2757206,58.1748312 C55.1792433,58.3297151 55.1117093,58.52332 55.0731183,58.7653261 L56.8483006,58.7653261 C56.8386529,58.5330003 56.7904143,58.3297151 56.6842893,58.1748312 Z M66.737224,58.1748312 C66.5828603,57.9425054 66.3513148,57.8263424 66.023292,57.8263424 C65.6952691,57.8263424 65.4637236,57.9425054 65.3093599,58.1748312 C65.1549963,58.4071571 65.0778144,58.7459656 65.0778144,59.1718964 C65.0778144,59.5978271 65.1549963,59.9366357 65.3093599,60.1786418 C65.4637236,60.4109677 65.6952691,60.5271306 66.023292,60.5271306 C66.3513148,60.5271306 66.5828603,60.4109677 66.737224,60.1786418 C66.8915876,59.9366357 66.9784172,59.5978271 66.9784172,59.1718964 C66.9687695,58.7459656 66.8915876,58.4071571 66.737224,58.1748312 Z M66.737224,58.1748312 C66.5828603,57.9425054 66.3513148,57.8263424 66.023292,57.8263424 C65.6952691,57.8263424 65.4637236,57.9425054 65.3093599,58.1748312 C65.1549963,58.4071571 65.0778144,58.7459656 65.0778144,59.1718964 C65.0778144,59.5978271 65.1549963,59.9366357 65.3093599,60.1786418 C65.4637236,60.4109677 65.6952691,60.5271306 66.023292,60.5271306 C66.3513148,60.5271306 66.5828603,60.4109677 66.737224,60.1786418 C66.8915876,59.9366357 66.9784172,59.5978271 66.9784172,59.1718964 C66.9687695,58.7459656 66.8915876,58.4071571 66.737224,58.1748312 Z M56.6842893,58.1748312 C56.5299255,57.9425054 56.3080277,57.8069819 55.9896526,57.8069819 C55.6616298,57.8069819 55.4300843,57.9328251 55.2757206,58.1748312 C55.1792433,58.3297151 55.1117093,58.52332 55.0731183,58.7653261 L56.8483006,58.7653261 C56.8386529,58.5330003 56.7904143,58.3297151 56.6842893,58.1748312 Z M50.4132647,59.2590186 C49.901935,59.2493383 49.6896849,59.4429432 49.6896849,59.4429432 C49.544969,59.5494259 49.4677871,59.7043098 49.4677871,59.9269555 C49.4677871,60.0624789 49.4967303,60.1786418 49.544969,60.2560837 C49.5739122,60.304485 49.5932076,60.3238455 49.6896849,60.4012874 C49.6896849,60.4012874 49.9115827,60.5755318 50.4229124,60.5464911 C50.7798784,60.5271306 51.0982535,60.4593689 51.0982535,60.4593689 L51.0982535,59.3171 C51.0886058,59.3171 50.7702307,59.2686988 50.4132647,59.2590186 Z M50.4132647,59.2590186 C49.901935,59.2493383 49.6896849,59.4429432 49.6896849,59.4429432 C49.544969,59.5494259 49.4677871,59.7043098 49.4677871,59.9269555 C49.4677871,60.0624789 49.4967303,60.1786418 49.544969,60.2560837 C49.5739122,60.304485 49.5932076,60.3238455 49.6896849,60.4012874 C49.6896849,60.4012874 49.9115827,60.5755318 50.4229124,60.5464911 C50.7798784,60.5271306 51.0982535,60.4593689 51.0982535,60.4593689 L51.0982535,59.3171 C51.0886058,59.3171 50.7702307,59.2686988 50.4132647,59.2590186 Z M56.6842893,58.1748312 C56.5299255,57.9425054 56.3080277,57.8069819 55.9896526,57.8069819 C55.6616298,57.8069819 55.4300843,57.9328251 55.2757206,58.1748312 C55.1792433,58.3297151 55.1117093,58.52332 55.0731183,58.7653261 L56.8483006,58.7653261 C56.8386529,58.5330003 56.7904143,58.3297151 56.6842893,58.1748312 Z M66.737224,58.1748312 C66.5828603,57.9425054 66.3513148,57.8263424 66.023292,57.8263424 C65.6952691,57.8263424 65.4637236,57.9425054 65.3093599,58.1748312 C65.1549963,58.4071571 65.0778144,58.7459656 65.0778144,59.1718964 C65.0778144,59.5978271 65.1549963,59.9366357 65.3093599,60.1786418 C65.4637236,60.4109677 65.6952691,60.5271306 66.023292,60.5271306 C66.3513148,60.5271306 66.5828603,60.4109677 66.737224,60.1786418 C66.8915876,59.9366357 66.9784172,59.5978271 66.9784172,59.1718964 C66.9687695,58.7459656 66.8915876,58.4071571 66.737224,58.1748312 Z M66.737224,58.1748312 C66.5828603,57.9425054 66.3513148,57.8263424 66.023292,57.8263424 C65.6952691,57.8263424 65.4637236,57.9425054 65.3093599,58.1748312 C65.1549963,58.4071571 65.0778144,58.7459656 65.0778144,59.1718964 C65.0778144,59.5978271 65.1549963,59.9366357 65.3093599,60.1786418 C65.4637236,60.4109677 65.6952691,60.5271306 66.023292,60.5271306 C66.3513148,60.5271306 66.5828603,60.4109677 66.737224,60.1786418 C66.8915876,59.9366357 66.9784172,59.5978271 66.9784172,59.1718964 C66.9687695,58.7459656 66.8915876,58.4071571 66.737224,58.1748312 Z M56.6842893,58.1748312 C56.5299255,57.9425054 56.3080277,57.8069819 55.9896526,57.8069819 C55.6616298,57.8069819 55.4300843,57.9328251 55.2757206,58.1748312 C55.1792433,58.3297151 55.1117093,58.52332 55.0731183,58.7653261 L56.8483006,58.7653261 C56.8386529,58.5330003 56.7904143,58.3297151 56.6842893,58.1748312 Z M50.4132647,59.2590186 C49.901935,59.2493383 49.6896849,59.4429432 49.6896849,59.4429432 C49.544969,59.5494259 49.4677871,59.7043098 49.4677871,59.9269555 C49.4677871,60.0624789 49.4967303,60.1786418 49.544969,60.2560837 C49.5739122,60.304485 49.5932076,60.3238455 49.6896849,60.4012874 C49.6896849,60.4012874 49.9115827,60.5755318 50.4229124,60.5464911 C50.7798784,60.5271306 51.0982535,60.4593689 51.0982535,60.4593689 L51.0982535,59.3171 C51.0886058,59.3171 50.7702307,59.2686988 50.4132647,59.2590186 Z M50.4132647,59.2590186 C49.901935,59.2493383 49.6896849,59.4429432 49.6896849,59.4429432 C49.544969,59.5494259 49.4677871,59.7043098 49.4677871,59.9269555 C49.4677871,60.0624789 49.4967303,60.1786418 49.544969,60.2560837 C49.5739122,60.304485 49.5932076,60.3238455 49.6896849,60.4012874 C49.6896849,60.4012874 49.9115827,60.5755318 50.4229124,60.5464911 C50.7798784,60.5271306 51.0982535,60.4593689 51.0982535,60.4593689 L51.0982535,59.3171 C51.0886058,59.3171 50.7702307,59.2686988 50.4132647,59.2590186 Z M56.6842893,58.1748312 C56.5299255,57.9425054 56.3080277,57.8069819 55.9896526,57.8069819 C55.6616298,57.8069819 55.4300843,57.9328251 55.2757206,58.1748312 C55.1792433,58.3297151 55.1117093,58.52332 55.0731183,58.7653261 L56.8483006,58.7653261 C56.8386529,58.5330003 56.7904143,58.3297151 56.6842893,58.1748312 Z M66.737224,58.1748312 C66.5828603,57.9425054 66.3513148,57.8263424 66.023292,57.8263424 C65.6952691,57.8263424 65.4637236,57.9425054 65.3093599,58.1748312 C65.1549963,58.4071571 65.0778144,58.7459656 65.0778144,59.1718964 C65.0778144,59.5978271 65.1549963,59.9366357 65.3093599,60.1786418 C65.4637236,60.4109677 65.6952691,60.5271306 66.023292,60.5271306 C66.3513148,60.5271306 66.5828603,60.4109677 66.737224,60.1786418 C66.8915876,59.9366357 66.9784172,59.5978271 66.9784172,59.1718964 C66.9687695,58.7459656 66.8915876,58.4071571 66.737224,58.1748312 Z M66.737224,58.1748312 C66.5828603,57.9425054 66.3513148,57.8263424 66.023292,57.8263424 C65.6952691,57.8263424 65.4637236,57.9425054 65.3093599,58.1748312 C65.1549963,58.4071571 65.0778144,58.7459656 65.0778144,59.1718964 C65.0778144,59.5978271 65.1549963,59.9366357 65.3093599,60.1786418 C65.4637236,60.4109677 65.6952691,60.5271306 66.023292,60.5271306 C66.3513148,60.5271306 66.5828603,60.4109677 66.737224,60.1786418 C66.8915876,59.9366357 66.9784172,59.5978271 66.9784172,59.1718964 C66.9687695,58.7459656 66.8915876,58.4071571 66.737224,58.1748312 Z M56.6842893,58.1748312 C56.5299255,57.9425054 56.3080277,57.8069819 55.9896526,57.8069819 C55.6616298,57.8069819 55.4300843,57.9328251 55.2757206,58.1748312 C55.1792433,58.3297151 55.1117093,58.52332 55.0731183,58.7653261 L56.8483006,58.7653261 C56.8386529,58.5330003 56.7904143,58.3297151 56.6842893,58.1748312 Z M50.4132647,59.2590186 C49.901935,59.2493383 49.6896849,59.4429432 49.6896849,59.4429432 C49.544969,59.5494259 49.4677871,59.7043098 49.4677871,59.9269555 C49.4677871,60.0624789 49.4967303,60.1786418 49.544969,60.2560837 C49.5739122,60.304485 49.5932076,60.3238455 49.6896849,60.4012874 C49.6896849,60.4012874 49.9115827,60.5755318 50.4229124,60.5464911 C50.7798784,60.5271306 51.0982535,60.4593689 51.0982535,60.4593689 L51.0982535,59.3171 C51.0886058,59.3171 50.7702307,59.2686988 50.4132647,59.2590186 Z M50.4132647,59.2590186 C49.901935,59.2493383 49.6896849,59.4429432 49.6896849,59.4429432 C49.544969,59.5494259 49.4677871,59.7043098 49.4677871,59.9269555 C49.4677871,60.0624789 49.4967303,60.1786418 49.544969,60.2560837 C49.5739122,60.304485 49.5932076,60.3238455 49.6896849,60.4012874 C49.6896849,60.4012874 49.9115827,60.5755318 50.4229124,60.5464911 C50.7798784,60.5271306 51.0982535,60.4593689 51.0982535,60.4593689 L51.0982535,59.3171 C51.0886058,59.3171 50.7702307,59.2686988 50.4132647,59.2590186 Z M56.6842893,58.1748312 C56.5299255,57.9425054 56.3080277,57.8069819 55.9896526,57.8069819 C55.6616298,57.8069819 55.4300843,57.9328251 55.2757206,58.1748312 C55.1792433,58.3297151 55.1117093,58.52332 55.0731183,58.7653261 L56.8483006,58.7653261 C56.8386529,58.5330003 56.7904143,58.3297151 56.6842893,58.1748312 Z M66.737224,58.1748312 C66.5828603,57.9425054 66.3513148,57.8263424 66.023292,57.8263424 C65.6952691,57.8263424 65.4637236,57.9425054 65.3093599,58.1748312 C65.1549963,58.4071571 65.0778144,58.7459656 65.0778144,59.1718964 C65.0778144,59.5978271 65.1549963,59.9366357 65.3093599,60.1786418 C65.4637236,60.4109677 65.6952691,60.5271306 66.023292,60.5271306 C66.3513148,60.5271306 66.5828603,60.4109677 66.737224,60.1786418 C66.8915876,59.9366357 66.9784172,59.5978271 66.9784172,59.1718964 C66.9687695,58.7459656 66.8915876,58.4071571 66.737224,58.1748312 Z M66.737224,58.1748312 C66.5828603,57.9425054 66.3513148,57.8263424 66.023292,57.8263424 C65.6952691,57.8263424 65.4637236,57.9425054 65.3093599,58.1748312 C65.1549963,58.4071571 65.0778144,58.7459656 65.0778144,59.1718964 C65.0778144,59.5978271 65.1549963,59.9366357 65.3093599,60.1786418 C65.4637236,60.4109677 65.6952691,60.5271306 66.023292,60.5271306 C66.3513148,60.5271306 66.5828603,60.4109677 66.737224,60.1786418 C66.8915876,59.9366357 66.9784172,59.5978271 66.9784172,59.1718964 C66.9687695,58.7459656 66.8915876,58.4071571 66.737224,58.1748312 Z M56.6842893,58.1748312 C56.5299255,57.9425054 56.3080277,57.8069819 55.9896526,57.8069819 C55.6616298,57.8069819 55.4300843,57.9328251 55.2757206,58.1748312 C55.1792433,58.3297151 55.1117093,58.52332 55.0731183,58.7653261 L56.8483006,58.7653261 C56.8386529,58.5330003 56.7904143,58.3297151 56.6842893,58.1748312 Z M50.4132647,59.2590186 C49.901935,59.2493383 49.6896849,59.4429432 49.6896849,59.4429432 C49.544969,59.5494259 49.4677871,59.7043098 49.4677871,59.9269555 C49.4677871,60.0624789 49.4967303,60.1786418 49.544969,60.2560837 C49.5739122,60.304485 49.5932076,60.3238455 49.6896849,60.4012874 C49.6896849,60.4012874 49.9115827,60.5755318 50.4229124,60.5464911 C50.7798784,60.5271306 51.0982535,60.4593689 51.0982535,60.4593689 L51.0982535,59.3171 C51.0886058,59.3171 50.7702307,59.2686988 50.4132647,59.2590186 Z M50.4132647,59.2590186 C49.901935,59.2493383 49.6896849,59.4429432 49.6896849,59.4429432 C49.544969,59.5494259 49.4677871,59.7043098 49.4677871,59.9269555 C49.4677871,60.0624789 49.4967303,60.1786418 49.544969,60.2560837 C49.5739122,60.304485 49.5932076,60.3238455 49.6896849,60.4012874 C49.6896849,60.4012874 49.9115827,60.5755318 50.4229124,60.5464911 C50.7798784,60.5271306 51.0982535,60.4593689 51.0982535,60.4593689 L51.0982535,59.3171 C51.0886058,59.3171 50.7702307,59.2686988 50.4132647,59.2590186 Z M56.6842893,58.1748312 C56.5299255,57.9425054 56.3080277,57.8069819 55.9896526,57.8069819 C55.6616298,57.8069819 55.4300843,57.9328251 55.2757206,58.1748312 C55.1792433,58.3297151 55.1117093,58.52332 55.0731183,58.7653261 L56.8483006,58.7653261 C56.8386529,58.5330003 56.7904143,58.3297151 56.6842893,58.1748312 Z M66.737224,58.1748312 C66.5828603,57.9425054 66.3513148,57.8263424 66.023292,57.8263424 C65.6952691,57.8263424 65.4637236,57.9425054 65.3093599,58.1748312 C65.1549963,58.4071571 65.0778144,58.7459656 65.0778144,59.1718964 C65.0778144,59.5978271 65.1549963,59.9366357 65.3093599,60.1786418 C65.4637236,60.4109677 65.6952691,60.5271306 66.023292,60.5271306 C66.3513148,60.5271306 66.5828603,60.4109677 66.737224,60.1786418 C66.8915876,59.9366357 66.9784172,59.5978271 66.9784172,59.1718964 C66.9687695,58.7459656 66.8915876,58.4071571 66.737224,58.1748312 Z M66.737224,58.1748312 C66.5828603,57.9425054 66.3513148,57.8263424 66.023292,57.8263424 C65.6952691,57.8263424 65.4637236,57.9425054 65.3093599,58.1748312 C65.1549963,58.4071571 65.0778144,58.7459656 65.0778144,59.1718964 C65.0778144,59.5978271 65.1549963,59.9366357 65.3093599,60.1786418 C65.4637236,60.4109677 65.6952691,60.5271306 66.023292,60.5271306 C66.3513148,60.5271306 66.5828603,60.4109677 66.737224,60.1786418 C66.8915876,59.9366357 66.9784172,59.5978271 66.9784172,59.1718964 C66.9687695,58.7459656 66.8915876,58.4071571 66.737224,58.1748312 Z M56.6842893,58.1748312 C56.5299255,57.9425054 56.3080277,57.8069819 55.9896526,57.8069819 C55.6616298,57.8069819 55.4300843,57.9328251 55.2757206,58.1748312 C55.1792433,58.3297151 55.1117093,58.52332 55.0731183,58.7653261 L56.8483006,58.7653261 C56.8386529,58.5330003 56.7904143,58.3297151 56.6842893,58.1748312 Z M50.4132647,59.2590186 C49.901935,59.2493383 49.6896849,59.4429432 49.6896849,59.4429432 C49.544969,59.5494259 49.4677871,59.7043098 49.4677871,59.9269555 C49.4677871,60.0624789 49.4967303,60.1786418 49.544969,60.2560837 C49.5739122,60.304485 49.5932076,60.3238455 49.6896849,60.4012874 C49.6896849,60.4012874 49.9115827,60.5755318 50.4229124,60.5464911 C50.7798784,60.5271306 51.0982535,60.4593689 51.0982535,60.4593689 L51.0982535,59.3171 C51.0886058,59.3171 50.7702307,59.2686988 50.4132647,59.2590186 Z M50.4132647,59.2590186 C49.901935,59.2493383 49.6896849,59.4429432 49.6896849,59.4429432 C49.544969,59.5494259 49.4677871,59.7043098 49.4677871,59.9269555 C49.4677871,60.0624789 49.4967303,60.1786418 49.544969,60.2560837 C49.5739122,60.304485 49.5932076,60.3238455 49.6896849,60.4012874 C49.6896849,60.4012874 49.9115827,60.5755318 50.4229124,60.5464911 C50.7798784,60.5271306 51.0982535,60.4593689 51.0982535,60.4593689 L51.0982535,59.3171 C51.0886058,59.3171 50.7702307,59.2686988 50.4132647,59.2590186 Z M56.6842893,58.1748312 C56.5299255,57.9425054 56.3080277,57.8069819 55.9896526,57.8069819 C55.6616298,57.8069819 55.4300843,57.9328251 55.2757206,58.1748312 C55.1792433,58.3297151 55.1117093,58.52332 55.0731183,58.7653261 L56.8483006,58.7653261 C56.8386529,58.5330003 56.7904143,58.3297151 56.6842893,58.1748312 Z M66.737224,58.1748312 C66.5828603,57.9425054 66.3513148,57.8263424 66.023292,57.8263424 C65.6952691,57.8263424 65.4637236,57.9425054 65.3093599,58.1748312 C65.1549963,58.4071571 65.0778144,58.7459656 65.0778144,59.1718964 C65.0778144,59.5978271 65.1549963,59.9366357 65.3093599,60.1786418 C65.4637236,60.4109677 65.6952691,60.5271306 66.023292,60.5271306 C66.3513148,60.5271306 66.5828603,60.4109677 66.737224,60.1786418 C66.8915876,59.9366357 66.9784172,59.5978271 66.9784172,59.1718964 C66.9687695,58.7459656 66.8915876,58.4071571 66.737224,58.1748312 Z M66.737224,58.1748312 C66.5828603,57.9425054 66.3513148,57.8263424 66.023292,57.8263424 C65.6952691,57.8263424 65.4637236,57.9425054 65.3093599,58.1748312 C65.1549963,58.4071571 65.0778144,58.7459656 65.0778144,59.1718964 C65.0778144,59.5978271 65.1549963,59.9366357 65.3093599,60.1786418 C65.4637236,60.4109677 65.6952691,60.5271306 66.023292,60.5271306 C66.3513148,60.5271306 66.5828603,60.4109677 66.737224,60.1786418 C66.8915876,59.9366357 66.9784172,59.5978271 66.9784172,59.1718964 C66.9687695,58.7459656 66.8915876,58.4071571 66.737224,58.1748312 Z M56.6842893,58.1748312 C56.5299255,57.9425054 56.3080277,57.8069819 55.9896526,57.8069819 C55.6616298,57.8069819 55.4300843,57.9328251 55.2757206,58.1748312 C55.1792433,58.3297151 55.1117093,58.52332 55.0731183,58.7653261 L56.8483006,58.7653261 C56.8386529,58.5330003 56.7904143,58.3297151 56.6842893,58.1748312 Z M50.4132647,59.2590186 C49.901935,59.2493383 49.6896849,59.4429432 49.6896849,59.4429432 C49.544969,59.5494259 49.4677871,59.7043098 49.4677871,59.9269555 C49.4677871,60.0624789 49.4967303,60.1786418 49.544969,60.2560837 C49.5739122,60.304485 49.5932076,60.3238455 49.6896849,60.4012874 C49.6896849,60.4012874 49.9115827,60.5755318 50.4229124,60.5464911 C50.7798784,60.5271306 51.0982535,60.4593689 51.0982535,60.4593689 L51.0982535,59.3171 C51.0886058,59.3171 50.7702307,59.2686988 50.4132647,59.2590186 Z M56.6842893,58.1748312 C56.5299255,57.9425054 56.3080277,57.8069819 55.9896526,57.8069819 C55.6616298,57.8069819 55.4300843,57.9328251 55.2757206,58.1748312 C55.1792433,58.3297151 55.1117093,58.52332 55.0731183,58.7653261 L56.8483006,58.7653261 C56.8386529,58.5330003 56.7904143,58.3297151 56.6842893,58.1748312 Z M66.737224,58.1748312 C66.5828603,57.9425054 66.3513148,57.8263424 66.023292,57.8263424 C65.6952691,57.8263424 65.4637236,57.9425054 65.3093599,58.1748312 C65.1549963,58.4071571 65.0778144,58.7459656 65.0778144,59.1718964 C65.0778144,59.5978271 65.1549963,59.9366357 65.3093599,60.1786418 C65.4637236,60.4109677 65.6952691,60.5271306 66.023292,60.5271306 C66.3513148,60.5271306 66.5828603,60.4109677 66.737224,60.1786418 C66.8915876,59.9366357 66.9784172,59.5978271 66.9784172,59.1718964 C66.9687695,58.7459656 66.8915876,58.4071571 66.737224,58.1748312 Z M66.737224,58.1748312 C66.5828603,57.9425054 66.3513148,57.8263424 66.023292,57.8263424 C65.6952691,57.8263424 65.4637236,57.9425054 65.3093599,58.1748312 C65.1549963,58.4071571 65.0778144,58.7459656 65.0778144,59.1718964 C65.0778144,59.5978271 65.1549963,59.9366357 65.3093599,60.1786418 C65.4637236,60.4109677 65.6952691,60.5271306 66.023292,60.5271306 C66.3513148,60.5271306 66.5828603,60.4109677 66.737224,60.1786418 C66.8915876,59.9366357 66.9784172,59.5978271 66.9784172,59.1718964 C66.9687695,58.7459656 66.8915876,58.4071571 66.737224,58.1748312 Z M56.6842893,58.1748312 C56.5299255,57.9425054 56.3080277,57.8069819 55.9896526,57.8069819 C55.6616298,57.8069819 55.4300843,57.9328251 55.2757206,58.1748312 C55.1792433,58.3297151 55.1117093,58.52332 55.0731183,58.7653261 L56.8483006,58.7653261 C56.8386529,58.5330003 56.7904143,58.3297151 56.6842893,58.1748312 Z M66.737224,58.1748312 C66.5828603,57.9425054 66.3513148,57.8263424 66.023292,57.8263424 C65.6952691,57.8263424 65.4637236,57.9425054 65.3093599,58.1748312 C65.1549963,58.4071571 65.0778144,58.7459656 65.0778144,59.1718964 C65.0778144,59.5978271 65.1549963,59.9366357 65.3093599,60.1786418 C65.4637236,60.4109677 65.6952691,60.5271306 66.023292,60.5271306 C66.3513148,60.5271306 66.5828603,60.4109677 66.737224,60.1786418 C66.8915876,59.9366357 66.9784172,59.5978271 66.9784172,59.1718964 C66.9687695,58.7459656 66.8915876,58.4071571 66.737224,58.1748312 Z M66.737224,58.1748312 C66.5828603,57.9425054 66.3513148,57.8263424 66.023292,57.8263424 C65.6952691,57.8263424 65.4637236,57.9425054 65.3093599,58.1748312 C65.1549963,58.4071571 65.0778144,58.7459656 65.0778144,59.1718964 C65.0778144,59.5978271 65.1549963,59.9366357 65.3093599,60.1786418 C65.4637236,60.4109677 65.6952691,60.5271306 66.023292,60.5271306 C66.3513148,60.5271306 66.5828603,60.4109677 66.737224,60.1786418 C66.8915876,59.9366357 66.9784172,59.5978271 66.9784172,59.1718964 C66.9687695,58.7459656 66.8915876,58.4071571 66.737224,58.1748312 Z M66.737224,58.1748312 C66.5828603,57.9425054 66.3513148,57.8263424 66.023292,57.8263424 C65.6952691,57.8263424 65.4637236,57.9425054 65.3093599,58.1748312 C65.1549963,58.4071571 65.0778144,58.7459656 65.0778144,59.1718964 C65.0778144,59.5978271 65.1549963,59.9366357 65.3093599,60.1786418 C65.4637236,60.4109677 65.6952691,60.5271306 66.023292,60.5271306 C66.3513148,60.5271306 66.5828603,60.4109677 66.737224,60.1786418 C66.8915876,59.9366357 66.9784172,59.5978271 66.9784172,59.1718964 C66.9687695,58.7459656 66.8915876,58.4071571 66.737224,58.1748312 Z M66.737224,58.1748312 C66.8915876,58.4071571 66.9687695,58.7459656 66.9784172,59.1718964 C66.9784172,59.5978271 66.8915876,59.9366357 66.737224,60.1786418 C66.5828603,60.4109677 66.3513148,60.5271306 66.023292,60.5271306 C65.6952691,60.5271306 65.4637236,60.4109677 65.3093599,60.1786418 C65.1549963,59.9366357 65.0778144,59.5978271 65.0778144,59.1718964 C65.0778144,58.7459656 65.1549963,58.4071571 65.3093599,58.1748312 C65.4637236,57.9425054 65.6952691,57.8263424 66.023292,57.8263424 C66.3513148,57.8263424 66.5828603,57.9425054 66.737224,58.1748312 Z M76.8809524,58.8214285 L74.8333333,58.8214285 C74.8778468,58.5732323 74.944617,58.3560606 75.067029,58.1905964 C75.2450828,57.9424002 75.5121636,57.797619 75.890528,57.797619 C76.2688924,57.797619 76.5137164,57.9320587 76.6917702,58.1905964 C76.8141822,58.3560606 76.869824,58.5732323 76.8809524,58.8214285 Z" id="Shape" fill="currentcolor" fill-rule="nonzero"></path>
    </g>
</svg>
