<?xml version="1.0" encoding="UTF-8"?>
<svg id="target" viewBox="0 0 120 120" version="1.1" xmlns="http://www.w3.org/2000/svg" xmlns:xlink="http://www.w3.org/1999/xlink">
    <!-- Generator: Sketch 51 (57462) - http://www.bohemiancoding.com/sketch -->
    <title>logo / garmin</title>
    <desc>Created with Sketch.</desc>
    <defs></defs>
    <g id="logo-/-garmin" stroke="none" stroke-width="1" fill="none" fill-rule="evenodd">
        <path d="M68.1652693,64.4994567 C68.0561836,64.6953844 67.8773196,64.694775 67.7697574,64.4985425 L65.4241096,60.1908753 C65.3244699,59.9906816 65.1200103,59.8264436 64.8351077,59.8264436 L63.5629487,59.8264436 C63.3383784,59.8264436 63.1549437,60.0095736 63.1549437,60.2341439 L63.1549437,67.7168761 C63.1549437,67.940837 63.302118,68.0938008 63.5629487,68.0938008 L64.3533632,68.0938008 C64.5779335,68.0938008 64.7397338,67.9527207 64.7397338,67.7363775 C64.7397338,67.6324718 64.7430856,62.2936702 64.7513128,62.2936702 C64.7601493,62.2936702 67.6792589,67.7348539 67.6792589,67.7348539 C67.7849928,67.9323052 68.0446047,67.9332193 68.1524716,67.7363775 C68.1524716,67.7363775 71.0956531,62.3095151 71.104185,62.3095151 C71.1133263,62.3095151 71.1102792,67.5806713 71.1102792,67.7363775 C71.1102792,67.9527207 71.283049,68.0938008 71.5076193,68.0938008 L72.4183937,68.0938008 C72.6429641,68.0938008 72.8254846,67.9822774 72.8254846,67.6864052 L72.8254846,60.2341439 C72.8254846,60.0095736 72.6429641,59.8264436 72.4183937,59.8264436 L71.1986447,59.8264436 C70.8875371,59.8264436 70.7001412,59.9855016 70.5889225,60.1802105 L68.1652693,64.4994567 Z M87.7303119,59.8264436 C87.506351,59.8264436 87.3250493,59.9745321 87.3250493,60.1902659 C87.3250493,60.2935621 87.327487,64.9827247 87.327487,64.9827247 C87.327487,65.207295 87.2007282,65.2584861 87.045022,65.0969905 L82.2461643,60.1195734 C82.0901534,59.9580778 81.8622313,59.8264436 81.5550849,59.8264436 L80.6525376,59.8264436 C80.3688538,59.8264436 80.2448374,59.9778839 80.2448374,60.1314571 C80.2448374,60.2841161 80.2448374,67.6416131 80.2448374,67.7951863 C80.2448374,67.94815 80.3904881,68.0938008 80.6147538,68.0938008 L81.5188246,68.0938008 C81.7424808,68.0938008 81.8994058,67.972222 81.8994058,67.7656295 C81.8994058,67.6620285 81.9039764,62.7169106 81.9039764,62.7169106 C81.9039764,62.492645 82.0307352,62.4414539 82.185832,62.603559 L87.1897587,67.8052416 C87.3485119,67.9642996 87.5416972,68.0938008 87.885104,68.0938008 L88.563995,68.0938008 C88.7885653,68.0938008 88.972,67.9106709 88.972,67.6864052 L88.972,60.2341439 C88.972,60.0095736 88.7885653,59.8264436 88.563995,59.8264436 L87.7303119,59.8264436 Z M58.2579698,63.4232254 C58.0065851,63.4811201 57.723206,63.492699 57.723206,63.492699 C57.4995498,63.5027544 57.1329852,63.5103721 56.9087196,63.5103721 L55.0058136,63.5103721 C54.7815479,63.5103721 54.598418,63.3269375 54.598418,63.1029766 L54.598418,61.5849177 C54.598418,61.3603474 54.7815479,61.1772174 55.0058136,61.1772174 L56.9087196,61.1772174 C57.1329852,61.1772174 57.4995498,61.1851398 57.723206,61.1945858 C57.723206,61.1945858 58.0065851,61.20586 58.2579698,61.2637547 C58.5096592,61.3219541 58.7089387,61.4030066 58.8548942,61.5075217 C59.0017638,61.6126462 59.1062789,61.7363579 59.1696583,61.8783522 C59.2318189,62.0200418 59.2635086,62.1748338 59.2635086,62.3433377 C59.2635086,62.5112322 59.2318189,62.6666337 59.1696583,62.8083232 C59.1062789,62.9503175 59.0017638,63.0737245 58.8548942,63.178849 C58.7089387,63.2839736 58.5096592,63.3659402 58.2579698,63.4232254 Z M59.0310158,64.9449408 C58.902124,64.7615062 58.9728165,64.5588749 59.1873314,64.494886 C59.1873314,64.494886 60.04143,64.2389307 60.4503491,63.8726708 C60.8592682,63.5048874 61.0646419,62.9740848 61.0646419,62.282396 C61.0646419,61.8302082 60.9857223,61.449627 60.8281879,61.1403477 C60.6706535,60.8316777 60.4448643,60.5793789 60.1511251,60.3858889 C59.8573859,60.1917894 59.5060567,60.0491857 59.0965282,59.9599061 C58.6863903,59.8712358 58.1333439,59.8450309 58.1333439,59.8450309 C57.9090783,59.8349755 57.5425137,59.8264436 57.3188575,59.8264436 L53.2141262,59.8264436 C52.9901653,59.8264436 52.8067307,60.0095736 52.8067307,60.2341439 L52.8067307,67.7266268 C52.8067307,67.9508924 52.9901653,68.0938008 53.2141262,68.0938008 L54.1855377,68.0938008 C54.4098033,68.0938008 54.5929332,67.9508924 54.5929332,67.7266268 C54.5929332,67.7266268 54.5938474,64.7465754 54.5953709,64.7465754 C54.5971992,64.7465754 54.598418,64.7447472 54.598418,64.7426142 C54.598418,64.7401766 56.4397728,64.7380436 56.4397728,64.7380436 C56.663429,64.7380436 56.9529023,64.8879603 57.0820988,65.0713949 L58.9938414,67.7628871 C59.1714866,68.0011694 59.3405999,68.0938008 59.5645608,68.0938008 L60.8342821,68.0938008 C61.0585477,68.0938008 61.0935892,67.8826377 61.0161932,67.7726378 C60.9391019,67.6635521 59.0310158,64.9449408 59.0310158,64.9449408 Z M75.5949822,60.2493794 C75.5949822,60.3225094 75.5949822,67.5989538 75.5949822,67.7461281 C75.5949822,67.9527207 75.7781121,68.0938008 76.0026825,68.0938008 L76.9911576,68.0938008 C77.2151185,68.0938008 77.3985532,67.9508924 77.3985532,67.7266268 L77.3985532,60.2341439 C77.3985532,60.0095736 77.2538165,59.8264436 77.0295509,59.8264436 L76.0026825,59.8264436 C75.7781121,59.8264436 75.5949822,59.9644767 75.5949822,60.2493794 Z M45.3599541,65.750286 C45.1356885,65.750286 45.0302593,65.5833056 45.124719,65.3803696 L46.5498417,62.3268834 C46.6449108,62.123338 46.7981793,62.1248616 46.8908108,62.3281023 L48.2784543,65.3815884 C48.3710857,65.5851339 48.2635236,65.7521142 48.0395627,65.7521142 L45.3599541,65.750286 Z M47.6452696,60.1908753 C47.6452696,60.1908753 51.4264001,67.6068763 51.507148,67.7656295 C51.5878958,67.9237733 51.4897796,68.0938008 51.2655139,68.0938008 L50.0527732,68.0938008 C49.7313055,68.0938008 49.565544,67.9332193 49.467123,67.7369869 C49.3690068,67.5407545 49.1703367,67.1811982 49.1270681,67.0949656 C49.0606416,66.9624173 48.9165144,66.9197581 48.6922487,66.9194534 L44.8005089,66.9173204 C44.5762433,66.9170157 44.4171853,66.9843563 44.3656895,67.0949656 C44.3276009,67.1763228 44.1283214,67.5761007 44.0387371,67.7601447 C43.9494574,67.9438841 43.7983219,68.0938008 43.4683223,68.0938008 L42.6325063,68.0938008 C42.407936,68.0938008 42.2985455,67.9508924 42.3994041,67.7510035 L46.0166014,60.1942271 C46.1131941,59.9922052 46.3755483,59.8264436 46.5995092,59.8264436 L47.0559629,59.8264436 C47.2799238,59.8264436 47.5456298,59.9900722 47.6452696,60.1908753 Z M32,63.9528092 C32,63.5143334 32.1389472,59.6655574 36.957611,59.6655574 C39.2158074,59.6655574 40.6710962,60.454753 40.6884646,60.4648084 C40.9511235,60.6427583 40.9873839,60.8658051 40.8798217,61.0809295 C40.8798217,61.0809295 40.6217334,61.6038096 40.6208193,61.6059426 C40.4849192,61.8643356 40.2326204,61.9545294 39.988244,61.8280753 C39.9748368,61.8198481 38.6076087,60.9812897 36.5316282,61.1592396 C33.9668948,61.3786299 33.8370889,63.5484607 33.8370889,63.9817565 C33.8370889,64.4976284 33.9998034,66.2207563 36.088277,66.7201739 C37.5280257,67.0635806 39.3194083,66.540091 39.713092,66.3795095 C39.713092,66.3018088 39.7149202,65.0805362 39.7149202,65.0805362 C39.7149202,64.8885697 39.5589094,64.7322541 39.3663335,64.7322541 L37.3753666,64.7322541 C37.1178878,64.7322541 36.9490791,64.5226145 36.9490791,64.2657451 L36.9490791,63.9768812 C36.9490791,63.7203165 37.1178878,63.5109816 37.3753666,63.5109816 L40.8176611,63.5109816 C41.0745306,63.5109816 41.2835608,63.7203165 41.2835608,63.9768812 L41.2835608,66.7634425 C41.2835608,67.1297024 41.0748353,67.3253254 40.903589,67.4222228 C40.855445,67.4542172 39.6975518,68.1946594 36.9573063,68.1946594 C36.129108,68.1946594 32,67.9898951 32,63.9528092 Z M87.274163,57.7602138 L81.8668019,57.7602138 C81.6684365,57.7602138 81.4984091,57.6614881 81.3993787,57.4899371 C81.3003484,57.3183861 81.3003484,57.121849 81.3993787,56.950298 L84.103364,52.2696672 C84.2023943,52.0981162 84.3724218,52 84.5707872,52 C84.7688478,52 84.9388753,52.0981162 85.0382103,52.2696672 L87.7415862,56.9506027 C87.8409212,57.1221537 87.8409212,57.3186908 87.7418909,57.4902418 C87.6425558,57.6617928 87.4725284,57.7602138 87.274163,57.7602138 Z" id="garmin" fill="currentcolor"></path>
    </g>
</svg>
