
<svg version="1.1" id="target" xmlns="http://www.w3.org/2000/svg" xmlns:xlink="http://www.w3.org/1999/xlink" x="0px" y="0px"
	 viewBox="0 0 24 24" style="enable-background:new 0 0 24 24;" xml:space="preserve">
<g>
	<title>professions-woman-doctor-2</title>
	<path d="M12.711,16.498c-0.58,0-1.16-0.085-1.722-0.253c-3.17-0.946-4.98-4.295-4.035-7.465c0.092-0.307,0.368-0.522,0.688-0.535
		c3.037-0.122,4.353-3.245,4.366-3.276C12.123,4.685,12.396,4.5,12.704,4.5c0.309,0,0.582,0.185,0.696,0.471
		c0.012,0.03,1.326,3.149,4.365,3.274c0.32,0.013,0.596,0.228,0.688,0.535c0.335,1.122,0.335,2.308,0,3.43
		c-0.458,1.536-1.487,2.801-2.897,3.563C14.68,16.248,13.696,16.498,12.711,16.498z M8.275,9.695
		c-0.408,2.241,0.932,4.453,3.142,5.113c0.423,0.126,0.858,0.19,1.292,0.19c0.738,0,1.476-0.188,2.134-0.543
		c1.057-0.572,1.829-1.521,2.172-2.673c0.202-0.678,0.241-1.394,0.116-2.087c-2.253-0.302-3.66-1.769-4.428-2.901
		C11.936,7.927,10.529,9.395,8.275,9.695z"/>
	<path d="M22.18,24c-0.289,0-0.555-0.169-0.678-0.429c-0.958-2.022-2.594-3.65-4.634-4.62c-0.598,1.454-1.941,2.512-3.499,2.747
		C13.05,23.028,11.845,24,10.454,24h-1.5c-1.654,0-3-1.346-3-3v-0.27c-0.846,0.818-1.547,1.788-2.049,2.842
		C3.781,23.832,3.515,24,3.228,24c-0.112,0-0.22-0.024-0.322-0.073c-0.374-0.178-0.533-0.626-0.355-1
		c0.777-1.632,1.951-3.068,3.403-4.165V15.75c0-0.778-0.398-1.489-1.04-1.897C4.521,14.553,3.779,15,2.954,15
		c-1.241,0-2.25-1.009-2.25-2.25c0-1.241,1.009-2.25,2.25-2.25c1.082,0,1.99,0.755,2.203,1.792c1.384,0.581,2.297,1.943,2.297,3.459
		V21c0,0.827,0.673,1.5,1.5,1.5h1.5c0.582,0,1.099-0.337,1.346-0.841c-2.08-0.42-3.596-2.241-3.596-4.409
		c0-0.414,0.336-0.75,0.75-0.75s0.75,0.336,0.75,0.75c0,1.654,1.346,3,3,3c1.21,0,2.299-0.74,2.763-1.838
		C14.559,18.139,13.631,18,12.703,18c-0.2,0-0.389-0.078-0.53-0.22c-0.142-0.142-0.219-0.33-0.219-0.531
		c0-0.413,0.337-0.75,0.75-0.75c1.038,0,2.069,0.146,3.07,0.434c0.119-0.256,0.379-0.434,0.68-0.434c0.414,0,0.75,0.336,0.75,0.75
		c0,0.065-0.001,0.132-0.005,0.198c0.51,0.224,1.007,0.488,1.483,0.788c1.022-0.192,2.015-0.496,2.954-0.904
		c0.364-0.164,0.533-0.603,0.372-0.977l-1.379-3.212c-0.282-0.657-0.425-1.353-0.425-2.068V9c0-4.135-3.365-7.5-7.5-7.5
		s-7.5,3.365-7.5,7.5c0,0.414-0.336,0.75-0.75,0.75S3.704,9.414,3.704,9c0-4.963,4.037-9,9-9c4.963,0,9,4.037,9,9v2.076
		c0,0.51,0.102,1.007,0.303,1.476l1.379,3.211c0.482,1.12-0.03,2.439-1.143,2.941c-0.649,0.282-1.32,0.519-2.004,0.71
		c1.094,0.989,1.992,2.192,2.619,3.515c0.086,0.181,0.096,0.385,0.029,0.573c-0.067,0.189-0.204,0.34-0.385,0.426
		C22.401,23.976,22.292,24,22.18,24z M2.954,12c-0.414,0-0.75,0.336-0.75,0.75s0.336,0.75,0.75,0.75s0.75-0.336,0.75-0.75
		S3.368,12,2.954,12z"/>
</g>
</svg>
