<svg id="target" xmlns="http://www.w3.org/2000/svg" viewBox="0 0 24 24"><title>startup-launch-1</title><path d="M21.013,15.854h1.7a1,1,0,0,0,.184-1.983.25.25,0,0,1-.2-.2,1,1,0,0,0-1.983.183v.018a.015.015,0,0,1-.013.015,2.3,2.3,0,0,0-.962,4.186l1.84,1.227a.3.3,0,0,1-.168.554h-1.7a1,1,0,0,0-.184,1.984.25.25,0,0,1,.2.2A1,1,0,0,0,21.7,22a.25.25,0,0,1,.2-.207,2.295,2.295,0,0,0,.793-4.156l-1.84-1.227a.3.3,0,0,1,.168-.555Z"/><path d="M2.987,8.146H1.29a1,1,0,0,0-.183,1.983.252.252,0,0,1,.2.2,1,1,0,0,0,1.97-.039.249.249,0,0,1,.195-.207,2.295,2.295,0,0,0,.793-4.156L2.425,4.7a.3.3,0,0,1,.168-.555h1.7a1,1,0,0,0,.184-1.983.252.252,0,0,1-.2-.2,1,1,0,0,0-1.983.183v.017a.016.016,0,0,1-.013.016,2.3,2.3,0,0,0-.962,4.186l1.84,1.227a.3.3,0,0,1-.168.554Z"/><path d="M3.786,18.038c-1.052,1.052-1.29,3.5-1.341,4.329a.251.251,0,0,0,.265.266c.827-.051,3.278-.289,4.33-1.341a2.233,2.233,0,0,0,.011-3.265,2.472,2.472,0,0,0-1.671-.711A2.22,2.22,0,0,0,3.786,18.038Z"/><path d="M8.725,12.034l-.217-.1a2.679,2.679,0,0,0-3.036.608l-1.29,1.367a.669.669,0,0,0,.341,1.112l2.227.5h0l0,.006,2.8,2.8h0l.5,2.228a.669.669,0,0,0,1.112.341l1.367-1.291a2.676,2.676,0,0,0,.609-3.035l-.1-.216a.251.251,0,0,1,.094-.313l5.272-3.365.009-.006a4.142,4.142,0,0,0,1.5-3.5c-.051-.447-.2-1.349-.323-2.118a.251.251,0,0,1,.07-.219l.624-.624A1,1,0,0,0,18.873,4.8l-.624.624a.249.249,0,0,1-.218.069c-.771-.128-1.671-.272-2.119-.322a4.144,4.144,0,0,0-3.5,1.5l-.006.01L9.037,11.94A.248.248,0,0,1,8.725,12.034Zm5.686-3.515a1.522,1.522,0,1,1,0,2.152A1.522,1.522,0,0,1,14.411,8.519Z"/></svg>
