<svg id="target" xmlns="http://www.w3.org/2000/svg" xmlns:xlink="http://www.w3.org/1999/xlink" x="0px" y="0px"
	 viewBox="0 0 24 24" style="enable-background:new 0 0 24 24;" xml:space="preserve">
<title>gmo-food-apple</title>
<g>
	<path d="M7.59,17.955c-0.133,0-0.259-0.052-0.354-0.146c-0.195-0.195-0.195-0.512,0-0.707l3.253-3.254
		c-1.029-1.369-0.926-3.273,0.277-4.519l4.602-4.603L14.661,4.02c-0.095-0.094-0.146-0.22-0.146-0.354s0.052-0.259,0.146-0.354
		s0.22-0.146,0.354-0.146s0.259,0.052,0.354,0.146l1.414,1.414l2.122-2.121l-0.708-0.708c-0.195-0.195-0.195-0.512,0-0.707
		c0.095-0.094,0.22-0.146,0.354-0.146s0.259,0.052,0.354,0.146l4.95,4.95c0.195,0.195,0.195,0.512,0,0.707
		c-0.095,0.094-0.22,0.146-0.354,0.146s-0.259-0.052-0.354-0.146l-0.707-0.707l-2.121,2.121l1.414,1.414
		c0.195,0.195,0.195,0.512,0,0.707c-0.095,0.094-0.22,0.146-0.354,0.146s-0.259-0.052-0.354-0.146l-0.707-0.707l-4.597,4.596
		c-0.659,0.637-1.524,0.986-2.438,0.986c-0.743,0-1.474-0.25-2.083-0.707l-3.256,3.257C7.849,17.903,7.723,17.955,7.59,17.955z
		 M11.479,10.03c-0.936,0.969-0.935,2.494,0.006,3.468c0.475,0.491,1.113,0.762,1.798,0.762c0.652,0,1.27-0.249,1.737-0.7
		l4.591-4.59l-3.536-3.536l-0.707,0.708l1.061,1.061c0.095,0.094,0.146,0.22,0.146,0.354s-0.052,0.259-0.146,0.354
		s-0.22,0.146-0.354,0.146s-0.259-0.052-0.354-0.146l-1.061-1.061l-0.707,0.707l1.061,1.062c0.195,0.195,0.195,0.512,0,0.707
		c-0.095,0.094-0.22,0.146-0.354,0.146s-0.259-0.052-0.354-0.146l-1.061-1.062L12.54,8.97l1.061,1.061
		c0.195,0.195,0.195,0.512,0,0.707c-0.095,0.094-0.22,0.146-0.354,0.146s-0.259-0.052-0.354-0.146l-1.061-1.061L11.479,10.03z
		 M19.611,7.556l2.121-2.121l-2.121-2.122l-2.122,2.121L19.611,7.556z"/>
	<path d="M8.71,22.953c-1.196,0-1.558-0.225-1.877-0.496C6.729,22.37,6.708,22.353,6.5,22.353c-0.21,0-0.231,0.019-0.336,0.106
		c-0.321,0.271-0.684,0.494-1.875,0.494C1.963,22.953,0,18.929,0,16.4c0-2.683,1.82-4.949,3.974-4.949
		c1.091,0,1.667,0.266,2.026,0.5c0.002-1.377,1.123-2.497,2.5-2.497c0.276,0,0.5,0.224,0.5,0.5s-0.224,0.5-0.5,0.5
		c-0.826,0-1.498,0.671-1.5,1.496c0.261-0.171,0.633-0.358,1.227-0.446c0.005,0,0.009,0,0.014,0c0.312,0,0.518,0.182,0.554,0.422
		c0.02,0.131-0.013,0.263-0.093,0.371c-0.08,0.107-0.197,0.177-0.329,0.197C7.825,12.576,7.59,12.75,7.364,12.92
		c-0.176,0.132-0.415,0.31-0.768,0.338l-0.013,0.008l-0.155,0.005l-0.021-0.013c-0.354-0.027-0.594-0.206-0.771-0.338
		c-0.295-0.22-0.629-0.468-1.663-0.468C2.362,12.451,1,14.26,1,16.4c0,2.192,1.764,5.553,3.289,5.553
		c0.923,0,1.086-0.138,1.23-0.259c0.214-0.18,0.45-0.342,0.98-0.342c0.53,0,0.766,0.162,0.979,0.342
		c0.135,0.116,0.304,0.259,1.23,0.259c1.314,0,3.057-2.734,3.271-5.134c0.023-0.26,0.232-0.457,0.485-0.457
		c0.332,0.029,0.535,0.272,0.511,0.547C12.762,19.315,10.95,22.953,8.71,22.953z"/>
	<path d="M5,10.955c-1.778,0-3.224-1.446-3.224-3.224c0-0.276,0.224-0.5,0.5-0.5c1.778,0,3.224,1.446,3.224,3.224
		C5.5,10.731,5.276,10.955,5,10.955z M2.852,8.307c0.205,0.763,0.81,1.368,1.573,1.573C4.219,9.117,3.614,8.512,2.852,8.307z"/>
</g>
</svg>
