
<svg version="1.1" id="target" xmlns="http://www.w3.org/2000/svg" xmlns:xlink="http://www.w3.org/1999/xlink" x="0px" y="0px"
	 viewBox="0 0 24 24" style="enable-background:new 0 0 24 24;" xml:space="preserve">
<title>people-woman-7</title>
<g>
	<path d="M12,13.997c-0.647,0-1.287-0.212-1.8-0.597c-0.107-0.08-0.176-0.197-0.195-0.329c-0.019-0.133,0.015-0.265,0.096-0.372
		c0.095-0.125,0.245-0.199,0.4-0.199c0.109,0,0.212,0.035,0.3,0.101c0.341,0.255,0.767,0.396,1.199,0.396s0.858-0.141,1.199-0.397
		c0.088-0.066,0.191-0.1,0.3-0.1c0.158,0,0.304,0.072,0.4,0.198c0.166,0.221,0.122,0.536-0.099,0.702
		C13.286,13.785,12.647,13.997,12,13.997z"/>
	<circle cx="14" cy="10.5" r="0.75"/>
	<circle cx="10" cy="10.5" r="0.75"/>
	<path d="M12,17c-2.496,0-4.724-1.401-5.818-3.613c-0.19,0.255-0.461,0.442-0.779,0.532c-0.342,0.663-0.834,1.234-1.429,1.658
		c0.471,0.256,1.018,0.373,1.583,0.373c0.279,0,0.561-0.029,0.837-0.088l0.104-0.011c0.234,0,0.439,0.167,0.489,0.396
		c0.027,0.132,0.002,0.266-0.07,0.377c-0.073,0.112-0.185,0.188-0.316,0.217c-0.341,0.072-0.691,0.109-1.042,0.109
		c-0.707,0-1.397-0.149-2.051-0.443c-0.185-0.094-0.323-0.221-0.421-0.381c-0.14-0.232-0.182-0.503-0.117-0.764
		s0.227-0.481,0.456-0.62c0.311-0.223,0.598-0.519,0.835-0.861C3.221,13.562,2.5,12.613,2.5,11.5v-2
		c0-0.817,0.397-1.572,1.069-2.042c0.523-4.262,4.128-7.462,8.434-7.462c0.261,0,0.526,0.012,0.791,0.037
		c3.959,0.372,7.153,3.486,7.639,7.426C21.104,7.929,21.5,8.683,21.5,9.5v2c0,1.113-0.722,2.062-1.76,2.381
		c0.238,0.343,0.532,0.643,0.862,0.879c0.127,0.072,0.255,0.211,0.341,0.377c0.123,0.236,0.146,0.508,0.065,0.765
		s-0.257,0.466-0.495,0.59c-0.674,0.304-1.368,0.455-2.078,0.455c-0.35,0-0.699-0.037-1.04-0.11
		c-0.13-0.027-0.242-0.104-0.315-0.217c-0.072-0.112-0.097-0.246-0.068-0.376c0.047-0.229,0.249-0.396,0.482-0.396h0.028
		l0.086,0.014c0.271,0.056,0.552,0.085,0.83,0.085c0.567,0,1.119-0.118,1.64-0.353c-0.642-0.439-1.14-1.014-1.48-1.674
		c-0.318-0.09-0.589-0.277-0.78-0.533C16.725,15.599,14.496,17,12,17z M6.5,10.5c0,3.032,2.467,5.5,5.5,5.5
		c3.032,0,5.5-2.468,5.5-5.5V9.009c-0.182,0.004-0.378,0.008-0.585,0.008c-1.478,0-3.354-0.207-4.915-1.775
		c-1.561,1.567-3.45,1.773-4.938,1.773c-0.199,0-0.387-0.003-0.562-0.007V10.5z M19,8c-0.275,0-0.5,0.224-0.5,0.5v4
		c0,0.276,0.225,0.5,0.5,0.5c0.827,0,1.5-0.673,1.5-1.5v-2C20.5,8.673,19.827,8,19,8z M5,8C4.173,8,3.5,8.673,3.5,9.5v2
		C3.5,12.327,4.173,13,5,13c0.276,0,0.5-0.224,0.5-0.5v-4C5.5,8.224,5.276,8,5,8z M7.075,8.017c1.403,0,3.188-0.208,4.541-1.836
		C11.708,6.069,11.848,6.004,12,6.004s0.292,0.064,0.384,0.175c1.354,1.627,3.147,1.836,4.56,1.836c0.187,0,0.363-0.003,0.527-0.007
		C17.222,5.18,14.865,3,12,3C9.134,3,6.779,5.18,6.529,8.009C6.699,8.013,6.881,8.017,7.075,8.017z M12,2
		c3.059,0,5.723,2.19,6.352,5.155C18.554,7.053,18.773,7,19,7c0.113,0,0.229,0.01,0.348,0.029c-0.645-3.245-3.328-5.689-6.647-6
		c-0.234-0.022-0.467-0.033-0.698-0.033c-3.561,0-6.655,2.569-7.347,6.033C4.774,7.009,4.888,7,5,7c0.227,0,0.446,0.053,0.648,0.155
		C6.277,4.19,8.941,2,12,2z"/>
	<path d="M23,24c-0.275,0-0.5-0.225-0.5-0.5v-1.106c0.003-0.461-0.212-0.902-0.574-1.182c-0.817-0.625-2.626-1.744-5.655-2.326
		c-0.498,1.544-1.766,2.692-3.358,3.022c-0.307,0.062-0.617,0.095-0.921,0.095c-0.872,0-1.723-0.256-2.462-0.74
		c-0.847-0.557-1.477-1.395-1.793-2.377c-3.025,0.582-4.841,1.702-5.663,2.328C1.711,21.492,1.497,21.932,1.5,22.39v1.11
		C1.5,23.775,1.276,24,1,24s-0.5-0.225-0.5-0.5v-1.106c-0.005-0.766,0.355-1.504,0.965-1.975c1.142-0.868,3.182-2.017,6.443-2.583
		l0.019-0.018l0.106-0.002C9.255,17.608,10.603,17.5,12,17.5c1.399,0,2.747,0.108,4.007,0.321l0.102,0.017l0.004,0.005
		c3.272,0.572,5.292,1.713,6.421,2.576c0.61,0.468,0.971,1.208,0.967,1.978V23.5C23.5,23.775,23.275,24,23,24z M8.735,18.719
		c0.259,0.712,0.72,1.298,1.343,1.708c0.574,0.378,1.234,0.577,1.91,0.577c0.241,0,0.483-0.025,0.72-0.075
		c1.187-0.246,2.146-1.081,2.562-2.21C14.229,18.573,13.13,18.5,12,18.5C10.873,18.5,9.776,18.573,8.735,18.719z"/>
</g>
</svg>
