
<svg version="1.1" id="target" xmlns="http://www.w3.org/2000/svg" xmlns:xlink="http://www.w3.org/1999/xlink" x="0px" y="0px"
	 viewBox="0 0 24 24" style="enable-background:new 0 0 24 24;" xml:space="preserve">
<title>color-palette-sample-1</title>
<g>
	<path d="M5.139,7c-1.378,0-2.5-1.122-2.5-2.5S3.761,2,5.139,2s2.5,1.122,2.5,2.5S6.518,7,5.139,7z M5.139,3
		c-0.827,0-1.5,0.673-1.5,1.5S4.312,6,5.139,6s1.5-0.673,1.5-1.5S5.966,3,5.139,3z"/>
	<path d="M5.139,13c-1.378,0-2.5-1.122-2.5-2.5S3.761,8,5.139,8s2.5,1.122,2.5,2.5S6.518,13,5.139,13z M5.139,9
		c-0.827,0-1.5,0.673-1.5,1.5s0.673,1.5,1.5,1.5s1.5-0.673,1.5-1.5S5.966,9,5.139,9z"/>
	<path d="M5.139,19c-1.378,0-2.5-1.121-2.5-2.5s1.122-2.5,2.5-2.5s2.5,1.121,2.5,2.5S6.518,19,5.139,19z M5.139,15
		c-0.827,0-1.5,0.673-1.5,1.5s0.673,1.5,1.5,1.5s1.5-0.673,1.5-1.5S5.966,15,5.139,15z"/>
	<path d="M5.139,24c-2.481,0-4.5-2.019-4.5-4.5v-17c0-1.378,1.122-2.5,2.5-2.5h4c1.378,0,2.5,1.122,2.5,2.5v0.199l0.098-0.171
		c0.335-0.58,0.875-0.994,1.52-1.167c0.212-0.057,0.432-0.086,0.65-0.086c0.435,0,0.866,0.117,1.247,0.337l3.464,2
		c0.578,0.333,0.991,0.873,1.164,1.518c0.173,0.646,0.084,1.32-0.249,1.897l-0.105,0.183l0.184-0.106
		c0.381-0.22,0.812-0.336,1.245-0.336c0.218,0,0.438,0.029,0.651,0.086c0.645,0.173,1.184,0.587,1.519,1.165l2,3.464
		c0.334,0.58,0.422,1.254,0.248,1.899c-0.173,0.645-0.588,1.183-1.166,1.517L7.396,23.391l-0.088,0.021
		C6.663,23.794,5.913,24,5.139,24z M3.139,1c-0.827,0-1.5,0.673-1.5,1.5v17c0,1.93,1.57,3.5,3.5,3.5
		c0.646,0,1.286-0.188,1.852-0.543c0.252-0.159,0.458-0.32,0.629-0.493c0.204-0.219,0.357-0.421,0.493-0.646
		c0.344-0.561,0.525-1.189,0.525-1.818v-17c0-0.827-0.673-1.5-1.5-1.5H3.139z M9.433,21.061l12.175-7.03
		c0.705-0.406,0.956-1.301,0.571-2.013l-2.021-3.5c-0.2-0.347-0.522-0.595-0.909-0.699c-0.13-0.034-0.262-0.052-0.393-0.052
		c-0.26,0-0.518,0.07-0.746,0.202l-1.679,0.969L9.433,21.061z M9.639,18.701l7.027-12.174c0.201-0.346,0.254-0.75,0.151-1.139
		c-0.104-0.386-0.353-0.71-0.699-0.911l-3.464-2c-0.229-0.131-0.487-0.201-0.748-0.201c-0.13,0-0.262,0.017-0.391,0.051
		c-0.386,0.103-0.71,0.351-0.911,0.698l-0.965,1.68V18.701z"/>
	<circle cx="5.139" cy="20.999" r="0.75"/>
</g>
</svg>
