
<svg version="1.1" id="target" xmlns="http://www.w3.org/2000/svg" xmlns:xlink="http://www.w3.org/1999/xlink" x="0px" y="0px"
	 viewBox="0 0 24 24" style="enable-background:new 0 0 24 24;" xml:space="preserve">
<title>professions-woman-telecommunicator</title>
<g>
	<path d="M23,24c-0.275,0-0.5-0.225-0.5-0.5v-3.106c0.003-0.461-0.212-0.902-0.574-1.182c-0.88-0.672-2.41-1.567-4.799-2.144
		l1.385,2.437c0.271,0.479,0.103,1.089-0.375,1.361c-0.153,0.087-0.324,0.132-0.496,0.132h-4.025l-1.2,1.781
		C12.321,22.918,12.167,23,12,23s-0.321-0.082-0.415-0.221l-1.201-1.781H6.359c-0.173,0-0.345-0.046-0.495-0.132
		c-0.479-0.271-0.646-0.883-0.375-1.361l1.383-2.435c-2.384,0.577-3.916,1.472-4.799,2.144C1.711,19.492,1.497,19.932,1.5,20.39
		v3.11C1.5,23.775,1.276,24,1,24s-0.5-0.225-0.5-0.5v-3.106c-0.005-0.766,0.355-1.504,0.965-1.975
		c1.111-0.845,3.1-1.972,6.273-2.551C9.095,15.623,10.523,15.5,12,15.5c1.482,0,2.91,0.123,4.246,0.364
		c3.196,0.582,5.183,1.71,6.287,2.555c0.61,0.468,0.971,1.208,0.967,1.978V23.5C23.5,23.775,23.275,24,23,24z M12,21.605
		l3.292-4.886C14.249,16.574,13.144,16.5,12,16.5c-1.145,0-2.25,0.074-3.292,0.221L12,21.605z M17.641,19.998l-1.534-2.699
		l-1.818,2.699H17.641z M6.358,19.997l3.353,0.001l-1.819-2.699L6.358,19.997z"/>
	<circle cx="14" cy="8.5" r="0.75"/>
	<circle cx="10" cy="8.5" r="0.75"/>
	<path d="M12,15c-2.736,0-5.177-1.751-6.102-4.271c-0.445,1.342-1.095,2.301-1.938,2.858c0.484,0.243,1.029,0.359,1.591,0.359
		c0.286,0,0.574-0.031,0.857-0.092l0.106-0.012c0.237,0,0.438,0.162,0.488,0.395c0.028,0.13,0.004,0.264-0.068,0.376
		s-0.184,0.189-0.314,0.218c-0.352,0.076-0.711,0.115-1.068,0.115c-0.706,0-1.393-0.147-2.042-0.438
		c-0.187-0.097-0.324-0.224-0.422-0.383c-0.14-0.232-0.182-0.503-0.117-0.764s0.227-0.481,0.456-0.62C5.062,11.662,5.5,8.624,5.5,7
		V6.5C5.5,2.916,8.416,0,12,0c3.418,0,6.216,2.617,6.474,6H19c1.379,0,2.5,1.122,2.5,2.5S20.379,11,19,11h-0.562
		c-0.234,1.155-1.246,2-2.438,2h-4c-0.276,0-0.5-0.224-0.5-0.5S11.724,12,12,12h4c0.827,0,1.5-0.673,1.5-1.5V7.009
		c-0.182,0.004-0.378,0.008-0.585,0.008c-1.478,0-3.354-0.207-4.915-1.774C10.439,6.81,8.559,7.017,7.078,7.017
		c-0.205,0-0.398-0.004-0.578-0.008V8.5c0,3.033,2.467,5.5,5.5,5.5c0.276,0,0.5,0.225,0.5,0.5S12.276,15,12,15z M19,10
		c0.827,0,1.5-0.673,1.5-1.5S19.827,7,19,7h-0.5v3H19z M7.072,6.017c1.405,0,3.19-0.209,4.543-1.836
		C11.708,4.069,11.848,4.005,12,4.005l0,0c0.151,0,0.292,0.063,0.385,0.175c1.354,1.628,3.142,1.837,4.55,1.837
		c0.189,0,0.369-0.004,0.536-0.008C17.222,3.18,14.865,1,12,1C9.134,1,6.779,3.18,6.529,6.009C6.698,6.013,6.88,6.017,7.072,6.017z"
		/>
</g>
</svg>
