<svg id="target" xmlns="http://www.w3.org/2000/svg" viewBox="0 0 24 24"><title>design-tool-layout</title><path d="M24,1.98A1.982,1.982,0,0,0,22.02,0H1.98A1.982,1.982,0,0,0,0,1.98V22.02A1.982,1.982,0,0,0,1.98,24H22.02A1.982,1.982,0,0,0,24,22.02ZM22,21.5a.5.5,0,0,1-.5.5l-19,.02a.5.5,0,0,1-.5-.5L1.98,2.5a.5.5,0,0,1,.5-.5L21.5,1.98a.5.5,0,0,1,.5.5Z"/><path d="M4.5,16.5h11a1,1,0,0,0,1-1V4.5a1,1,0,0,0-1-1H4.5a1,1,0,0,0-1,1v11A1,1,0,0,0,4.5,16.5Zm.833-3.343,1.584-3.083a.749.749,0,0,1,1.164-.219L9.3,10.936a.252.252,0,0,0,.386-.069l1.735-3.222a.75.75,0,0,1,1.375.127l1.75,5.5a.75.75,0,0,1-.715.978H6a.75.75,0,0,1-.667-1.093Z"/><rect x="13" y="18" width="3" height="2.5" rx="0.833" ry="0.833"/><rect x="17.5" y="18" width="3" height="2.5" rx="0.833" ry="0.833"/><path d="M4.25,20h4.5a.75.75,0,0,0,0-1.5H4.25a.75.75,0,0,0,0,1.5Z"/><path d="M18.75,5h1a.75.75,0,0,0,0-1.5h-1a.75.75,0,0,0,0,1.5Z"/><path d="M18.75,8.5h1a.75.75,0,0,0,0-1.5h-1a.75.75,0,0,0,0,1.5Z"/><path d="M18.75,12h1a.75.75,0,0,0,0-1.5h-1a.75.75,0,0,0,0,1.5Z"/></svg>
