<svg id="target" xmlns="http://www.w3.org/2000/svg" viewBox="0 0 24 24"><title>people-man-graduate</title><path d="M12.494,22.338a.5.5,0,0,1-.738,0L7.783,18a.246.246,0,0,0-.233-.076,14.359,14.359,0,0,0-5.959,2.49,2.464,2.464,0,0,0-.966,1.976V23.5a.5.5,0,0,0,.5.5h22a.5.5,0,0,0,.5-.5V22.394a2.465,2.465,0,0,0-.967-1.977A14.363,14.363,0,0,0,16.7,17.928a.248.248,0,0,0-.233.076Z"/><path d="M1.125,8.5a.381.381,0,0,0,.016.1.25.25,0,0,1-.015.168A8.893,8.893,0,0,0,.375,12.5a.75.75,0,0,0,.75.75h2a.75.75,0,0,0,.75-.75,8.893,8.893,0,0,0-.751-3.73A.256.256,0,0,1,3.109,8.6a.381.381,0,0,0,.016-.1V5.68a.25.25,0,0,0-.195-.244L1.43,5.1a.25.25,0,0,0-.211.048.253.253,0,0,0-.094.2Z"/><path d="M12.347,7.475a1,1,0,0,1-.444,0L5.43,6a.25.25,0,0,0-.211.048.253.253,0,0,0-.094.2V11a7,7,0,0,0,14,0V6.248a.253.253,0,0,0-.094-.2A.25.25,0,0,0,18.82,6ZM12.125,16a5.052,5.052,0,0,1-5-5V9.255a.249.249,0,0,1,.312-.242,19.2,19.2,0,0,0,4.688.487,19.2,19.2,0,0,0,4.688-.487.249.249,0,0,1,.312.242V11a5.052,5.052,0,0,1-5,5Z"/><circle cx="14.125" cy="11.25" r="1"/><circle cx="10.125" cy="11.25" r="1"/><path d="M13.2,13.362h-2a.64.64,0,0,0-.3,1.2,2.376,2.376,0,0,0,.435.179,3.3,3.3,0,0,0,.873.126,2.976,2.976,0,0,0,.863-.125,2.3,2.3,0,0,0,.436-.181.639.639,0,0,0-.3-1.2Z"/><path d="M.647,3.131a.5.5,0,0,0,.367.357l11,2.5a.519.519,0,0,0,.222,0l11-2.5a.5.5,0,0,0,.367-.357A.513.513,0,0,0,23.625,3a.5.5,0,0,0-.389-.488l-11-2.5a.519.519,0,0,0-.222,0l-11,2.5A.5.5,0,0,0,.625,3,.513.513,0,0,0,.647,3.131Z"/></svg>
