
<svg version="1.1" id="target" xmlns="http://www.w3.org/2000/svg" xmlns:xlink="http://www.w3.org/1999/xlink" x="0px" y="0px"
	 viewBox="0 0 24 24" style="enable-background:new 0 0 24 24;" xml:space="preserve">
<title>mood-rock</title>
<g>
	<path d="M12,24c-4.687,0-8.5-3.813-8.5-8.5v-11C3.5,3.122,4.622,2,6,2s2.5,1.122,2.5,2.5v3.011C8.93,7.182,9.453,7,10,7
		c0.798,0,1.533,0.38,2,1.015C12.467,7.38,13.202,7,14,7c0.547,0,1.07,0.182,1.5,0.511V2.5C15.5,1.122,16.621,0,18,0
		s2.5,1.122,2.5,2.5v13.678C20.493,19.445,17.257,24,12,24z M6,3C5.173,3,4.5,3.673,4.5,4.5v11c0,4.136,3.364,7.5,7.5,7.5
		c4.646,0,7.5-3.974,7.5-6.822c-0.034-0.991-0.551-1.929-1.382-2.498c-0.617-0.445-1.339-0.68-2.09-0.68H12.5
		c-0.827,0-1.5,0.673-1.5,1.5s0.673,1.5,1.5,1.5H16c0.275,0,0.5,0.225,0.5,0.5S16.275,17,16,17c-1.93,0-3.5,1.57-3.5,3.5
		c0,0.275-0.224,0.5-0.5,0.5s-0.5-0.225-0.5-0.5c0-1.375,0.625-2.653,1.673-3.5H12.5c-1.001,0-1.895-0.601-2.287-1.517
		c-0.084,0.014-0.15,0.021-0.216,0.021c-0.422,0-0.842-0.11-1.214-0.317c-0.583-0.326-1.005-0.859-1.188-1.501
		C7.531,13.461,7.5,13.229,7.5,12.999V4.5C7.5,3.673,6.827,3,6,3z M10,8C9.173,8,8.5,8.673,8.5,9.5V13
		c0,0.139,0.019,0.277,0.057,0.412c0.109,0.386,0.362,0.706,0.712,0.9c0.219,0.122,0.459,0.185,0.714,0.185c0.005,0,0.011,0,0.017,0
		c0.001-0.988,0.597-1.882,1.5-2.278V9.5C11.5,8.673,10.827,8,10,8z M16.5,12.036c0.799,0.081,1.553,0.364,2.194,0.825
		c0.296,0.203,0.567,0.45,0.806,0.731V2.5C19.5,1.673,18.827,1,18,1s-1.5,0.673-1.5,1.5V12.036z M15.5,12V9.5
		C15.5,8.673,14.827,8,14,8s-1.5,0.673-1.5,1.5V12H15.5z"/>
</g>
</svg>
