
<svg version="1.1" id="target" xmlns="http://www.w3.org/2000/svg" xmlns:xlink="http://www.w3.org/1999/xlink" x="0px" y="0px"
	 viewBox="0 0 24 24" style="enable-background:new 0 0 24 24;" xml:space="preserve">
<title>shape-rhomboid</title>
<g>
	<path d="M16.516,24c-0.116,0-0.223-0.042-0.307-0.119c-0.251,0.068-0.488,0.106-0.721,0.119H8.516
		c-0.229-0.011-0.458-0.047-0.703-0.11C7.729,23.961,7.627,24,7.516,24c-0.244,0-0.448-0.176-0.491-0.407
		c-0.223-0.112-0.407-0.228-0.572-0.357l-2.527-2.201c-0.558-0.543-0.883-1.252-0.925-2.007L3,5
		c0.042-0.777,0.364-1.488,0.905-2.016L6.434,0.78c0.603-0.475,1.311-0.742,2.057-0.779L15.463,0c0.767,0.04,1.476,0.302,2.062,0.76
		l2.547,2.207c0.559,0.542,0.885,1.25,0.928,2.004V19c-0.043,0.778-0.365,1.488-0.908,2.015l-2.545,2.207
		c-0.165,0.129-0.339,0.24-0.547,0.349C16.944,23.841,16.748,24,16.516,24z M8.016,22.914C8.195,22.963,8.372,22.991,8.542,23h6.92
		c0.178-0.01,0.365-0.042,0.553-0.097V17h-8V22.914z M4.322,19.947C4.406,20.081,4.5,20.199,4.603,20.3l2.414,2.102V17.6
		L4.322,19.947z M17.016,22.359l2.4-2.081c0.093-0.09,0.18-0.2,0.261-0.33l-2.661-2.307V22.359z M20,18.905V5.095l-2.984,2.588
		v8.634L20,18.905z M4,18.901l3.016-2.628V7.728L3.999,5.098L4,18.901z M16.016,16V8h-8v8H16.016z M16.275,7l3.4-2.948
		C19.593,3.92,19.5,3.805,19.396,3.705l-2.506-2.172C16.484,1.216,15.98,1.029,15.443,1L8.516,1
		C7.999,1.027,7.495,1.217,7.071,1.551L4.582,3.72c-0.091,0.089-0.18,0.202-0.261,0.333L7.704,7H16.275z"/>
</g>
</svg>
