
<svg version="1.1" id="target" xmlns="http://www.w3.org/2000/svg" xmlns:xlink="http://www.w3.org/1999/xlink" x="0px" y="0px"
	 viewBox="0 0 24 24" style="enable-background:new 0 0 24 24;" xml:space="preserve">
<title>module-phone-puzzle</title>
<g>
	<circle cx="7.5" cy="21.479" r="0.75"/>
	<path d="M3,23.979c-1.378,0-2.5-1.121-2.5-2.5V2.5C0.5,1.122,1.622,0,3,0h9c1.379,0,2.5,1.122,2.5,2.5v5.979
		c0,0.276-0.225,0.5-0.5,0.5s-0.5-0.224-0.5-0.5v-3.5h-12v14H8c0.276,0,0.5,0.225,0.5,0.5s-0.224,0.5-0.5,0.5H1.5v1.5
		c0,0.827,0.673,1.5,1.5,1.5h8c0.276,0,0.5,0.225,0.5,0.5s-0.224,0.5-0.5,0.5H3z M13.5,3.979V2.5C13.5,1.673,12.827,1,12,1H3
		C2.173,1,1.5,1.673,1.5,2.5v1.479H13.5z"/>
	<path d="M6,2.979c-0.276,0-0.5-0.224-0.5-0.5s0.224-0.5,0.5-0.5h3c0.276,0,0.5,0.224,0.5,0.5s-0.224,0.5-0.5,0.5H6z"/>
	<path d="M15.636,24c-0.4,0-0.777-0.156-1.061-0.439l-5.657-5.657c-0.584-0.585-0.584-1.536,0-2.121l1.459-1.442
		c0.039-0.04,0.09-0.082,0.145-0.12c0.174-0.115,0.365-0.174,0.559-0.174c0.069,0,0.139,0.008,0.207,0.022
		c0.257,0.053,0.483,0.205,0.631,0.428c0.055,0.085,0.119,0.163,0.189,0.233c0.278,0.268,0.647,0.417,1.036,0.417
		c0.39,0,0.76-0.15,1.043-0.423c0.595-0.575,0.611-1.527,0.037-2.121c-0.065-0.065-0.143-0.128-0.228-0.185
		c-0.055-0.036-0.108-0.08-0.157-0.128c-0.189-0.19-0.292-0.442-0.291-0.709s0.106-0.518,0.296-0.706l1.446-1.448
		C15.562,9.155,15.949,9,16.352,9s0.789,0.155,1.06,0.427l1.094,1.093c0.335-0.507,0.845-0.878,1.439-1.038
		c0.209-0.056,0.425-0.084,0.642-0.084c1.131,0,2.126,0.762,2.419,1.853c0.281,1.052-0.15,2.148-1.036,2.733l1.092,1.092
		c0.283,0.283,0.439,0.66,0.439,1.061s-0.156,0.777-0.439,1.061L21.5,18.759c-0.1,0.1-0.216,0.175-0.348,0.225
		c-0.109,0.046-0.232,0.069-0.359,0.069c-0.138,0-0.273-0.028-0.4-0.085c-0.245-0.106-0.434-0.303-0.53-0.552
		c-0.076-0.191-0.189-0.363-0.335-0.509c-0.282-0.283-0.66-0.439-1.062-0.439c-0.4,0-0.776,0.155-1.059,0.437
		c-0.586,0.584-0.588,1.536-0.004,2.121c0.145,0.146,0.317,0.258,0.514,0.336c0.129,0.05,0.245,0.126,0.343,0.224
		c0.39,0.391,0.389,1.025-0.001,1.415l-1.562,1.561C16.413,23.844,16.036,24,15.636,24z M9.623,16.491
		c-0.092,0.093-0.144,0.218-0.144,0.352s0.052,0.26,0.146,0.354l5.657,5.657C15.377,22.948,15.502,23,15.636,23
		s0.259-0.052,0.354-0.146l1.562-1.561c-0.325-0.129-0.613-0.316-0.855-0.561c-0.473-0.474-0.731-1.102-0.73-1.769
		c0.001-0.669,0.262-1.297,0.734-1.767c0.471-0.471,1.098-0.729,1.766-0.729c0.669,0,1.298,0.26,1.77,0.732
		c0.244,0.245,0.431,0.531,0.557,0.851l1.562-1.562c0.195-0.195,0.195-0.512,0-0.707l-1.6-1.6c-0.126-0.126-0.176-0.312-0.129-0.483
		c0.044-0.172,0.181-0.309,0.355-0.354c0.797-0.213,1.272-1.037,1.06-1.837c-0.177-0.655-0.772-1.112-1.449-1.112
		c-0.13,0-0.261,0.017-0.388,0.051c-0.518,0.138-0.924,0.545-1.062,1.061c-0.044,0.171-0.18,0.308-0.353,0.354l-0.032,0.009
		l-0.097,0.008c-0.134,0-0.26-0.052-0.354-0.146l-1.602-1.601c-0.089-0.088-0.218-0.139-0.354-0.139
		c-0.137,0-0.265,0.051-0.354,0.139l-1.448,1.449c0.146,0.1,0.275,0.205,0.389,0.32c0.961,0.995,0.935,2.582-0.056,3.54
		c-0.471,0.455-1.088,0.706-1.737,0.706s-1.266-0.251-1.737-0.706c-0.121-0.12-0.229-0.252-0.323-0.395h0L9.623,16.491z"/>
</g>
</svg>
