
<svg version="1.1" id="target" xmlns="http://www.w3.org/2000/svg" xmlns:xlink="http://www.w3.org/1999/xlink" x="0px" y="0px"
	 viewBox="0 0 24 24" style="enable-background:new 0 0 24 24;" xml:space="preserve">
<g>
	<title>clean-bicycle</title>
	<path d="M18.75,24c-2.895,0-5.25-2.355-5.25-5.25c0-1.91,1.059-3.677,2.726-4.596l-0.521-1.39l-3.613,0.516l1.189,1.189
		c0.142,0.142,0.22,0.33,0.22,0.53s-0.078,0.389-0.22,0.53s-0.33,0.22-0.53,0.22s-0.389-0.078-0.53-0.22l-1.683-1.683l-1.297,1.482
		c0.647,0.756,1.066,1.685,1.204,2.67h0.806c0.414,0,0.75,0.336,0.75,0.75s-0.336,0.75-0.75,0.75h-0.808
		C10.074,22.05,7.857,24,5.25,24C2.355,24,0,21.645,0,18.75s2.355-5.25,5.25-5.25h0.025c1.013,0,1.985,0.291,2.834,0.844
		l1.568-1.792L9.164,10.5H8.25c-0.414,0-0.75-0.336-0.75-0.75S7.836,9,8.25,9h3C11.664,9,12,9.336,12,9.75s-0.336,0.75-0.75,0.75
		h-0.539l0.353,1.412l4.102-0.586l-1.617-4.312c-0.086-0.23-0.054-0.489,0.086-0.691C13.773,6.121,14.004,6,14.25,6H18
		c0.414,0,0.75,0.336,0.75,0.75S18.414,7.5,18,7.5h-2.668l2.297,6.124c0.372-0.083,0.748-0.124,1.121-0.124
		c2.895,0,5.25,2.355,5.25,5.25S21.645,24,18.75,24z M16.76,15.579C15.679,16.261,15,17.464,15,18.75c0,2.068,1.682,3.75,3.75,3.75
		s3.75-1.682,3.75-3.75S20.818,15,18.75,15c-0.193,0-0.39,0.016-0.587,0.049l1.289,3.438c0.07,0.188,0.063,0.391-0.019,0.573
		c-0.083,0.182-0.232,0.322-0.42,0.392C18.93,19.484,18.841,19.5,18.75,19.5c-0.311,0-0.593-0.196-0.702-0.487L16.76,15.579z
		 M5.252,15C3.183,15,1.5,16.682,1.5,18.75s1.682,3.75,3.75,3.75c1.781,0,3.32-1.288,3.672-3H5.25c-0.294,0-0.562-0.173-0.683-0.44
		c-0.121-0.267-0.075-0.583,0.119-0.804l2.422-2.768C6.548,15.168,5.921,15,5.273,15H5.252z M8.925,18
		c-0.111-0.552-0.347-1.074-0.688-1.524L6.903,18H8.925z"/>
	<path d="M3.75,12c-0.099,0-0.196-0.019-0.287-0.057C3.182,11.826,3,11.554,3,11.25V7.5H1.655c-0.3,0-0.582-0.117-0.794-0.329
		c-0.213-0.212-0.33-0.495-0.33-0.795c0-0.3,0.116-0.583,0.329-0.796l5.36-5.36C6.361,0.078,6.55,0,6.75,0
		c0.099,0,0.196,0.019,0.287,0.057C7.318,0.173,7.5,0.445,7.5,0.75V4.5h1.345c0.3,0,0.582,0.117,0.794,0.329
		c0.213,0.212,0.33,0.495,0.33,0.795c0,0.3-0.116,0.583-0.329,0.796l-5.36,5.36C4.139,11.922,3.95,12,3.75,12z M3.75,6
		C4.164,6,4.5,6.336,4.5,6.75v2.689L7.939,6L6.75,6C6.336,6,6,5.663,6,5.25V2.56L2.561,6L3.75,6z"/>
</g>
</svg>
