
<svg version="1.1" id="target" xmlns="http://www.w3.org/2000/svg" xmlns:xlink="http://www.w3.org/1999/xlink" x="0px" y="0px"
	 viewBox="0 0 24 24" style="enable-background:new 0 0 24 24;" xml:space="preserve">
<g>
	<title>people-woman-1</title>
	<path d="M2.498,24.001c-0.112,0-0.22-0.025-0.322-0.073c-0.18-0.085-0.317-0.236-0.384-0.425c-0.067-0.189-0.057-0.392,0.028-0.573
		c0.626-1.323,1.522-2.527,2.614-3.518c-0.68-0.19-1.346-0.426-1.986-0.704c-1.12-0.504-1.635-1.825-1.152-2.945l1.375-3.209
		c0.201-0.47,0.303-0.967,0.303-1.478V9.001c0-4.963,4.037-9,9-9s9,4.037,9,9v2.076c0,0.511,0.102,1.008,0.303,1.478l1.376,3.21
		c0.482,1.121-0.031,2.44-1.145,2.94c-0.646,0.281-1.313,0.517-1.992,0.707c1.097,0.989,1.974,2.169,2.612,3.518
		c0.086,0.181,0.096,0.385,0.028,0.574s-0.205,0.34-0.385,0.425c-0.1,0.048-0.208,0.072-0.32,0.072
		c-0.289,0-0.555-0.169-0.678-0.429c-0.887-1.875-2.308-3.378-4.122-4.366l-1.729,4.324c-0.114,0.287-0.388,0.472-0.696,0.472
		c-0.096,0-0.19-0.018-0.279-0.054c-0.186-0.074-0.332-0.217-0.41-0.401c-0.079-0.184-0.082-0.388-0.007-0.574l1.754-4.386
		c-1.07-0.387-2.186-0.584-3.324-0.584c-1.128,0-2.234,0.195-3.294,0.579l1.756,4.391c0.074,0.186,0.072,0.39-0.007,0.574
		c-0.079,0.184-0.225,0.326-0.411,0.401c-0.089,0.036-0.182,0.054-0.278,0.054c-0.309,0-0.582-0.185-0.697-0.472l-1.731-4.328
		c-1.793,0.984-3.247,2.523-4.121,4.371C3.053,23.833,2.787,24.001,2.498,24.001z M16.66,17.533c0.448,0.206,0.885,0.441,1.3,0.701
		c1.02-0.193,2.009-0.496,2.942-0.902c0.365-0.164,0.534-0.603,0.373-0.977l-1.376-3.211c-0.282-0.657-0.425-1.353-0.425-2.068
		V9.001c0-4.135-3.365-7.5-7.5-7.5s-7.5,3.365-7.5,7.5v2.076c0,0.715-0.143,1.411-0.425,2.068l-1.375,3.21
		c-0.161,0.375,0.01,0.814,0.38,0.981c0.926,0.403,1.911,0.704,2.929,0.897c0.385-0.243,0.783-0.463,1.187-0.653
		c0.036-0.017,0.072-0.033,0.108-0.048l0.038-0.017c0.031-0.018,0.062-0.034,0.096-0.047c0.009-0.004,0.026-0.009,0.042-0.014
		c1.431-0.63,2.946-0.949,4.504-0.949c1.553,0,3.065,0.315,4.495,0.936c0.028,0.007,0.055,0.016,0.082,0.027
		C16.578,17.485,16.619,17.507,16.66,17.533z"/>
	<path d="M11.969,16.503c-0.581,0-1.159-0.085-1.719-0.253c-1.533-0.459-2.796-1.49-3.557-2.903
		c-0.761-1.412-0.927-3.034-0.468-4.567c0.092-0.307,0.369-0.521,0.688-0.534c3.048-0.123,4.352-3.243,4.365-3.274
		c0.114-0.286,0.387-0.471,0.696-0.471c0.309,0,0.582,0.185,0.696,0.471c0.012,0.03,1.326,3.149,4.362,3.274
		c0.32,0.013,0.596,0.228,0.688,0.534c0.338,1.127,0.338,2.318,0,3.445C16.965,14.744,14.6,16.503,11.969,16.503z M7.545,9.696
		c-0.412,2.24,0.926,4.455,3.136,5.118c0.42,0.126,0.854,0.189,1.289,0.189c1.974,0,3.747-1.319,4.314-3.208
		c0.204-0.682,0.244-1.403,0.116-2.099c-2.251-0.302-3.657-1.769-4.425-2.901C11.206,7.928,9.799,9.396,7.545,9.696z"/>
</g>
</svg>
