
<svg version="1.1" id="target" xmlns="http://www.w3.org/2000/svg" xmlns:xlink="http://www.w3.org/1999/xlink" x="0px" y="0px"
	 viewBox="0 0 24 24" style="enable-background:new 0 0 24 24;" xml:space="preserve">
<g>
	<title>people-man-cap-1</title>
	<path d="M12,12c-3.308,0-6-2.692-6-6s2.692-6,6-6s6,2.692,6,6h3c0.414,0,0.75,0.336,0.75,0.75S21.414,7.5,21,7.5h-3.19
		C17.132,10.125,14.737,12,12,12z M7.762,7.5c0.629,1.788,2.309,3,4.238,3c1.929,0,3.61-1.212,4.238-3H7.762z M16.5,6
		c0-2.481-2.019-4.5-4.5-4.5c-1.292,0-2.499,0.55-3.347,1.5H9.75c0.414,0,0.75,0.336,0.75,0.75S10.164,4.5,9.75,4.5H7.758
		C7.587,4.982,7.5,5.485,7.5,6H16.5z"/>
	<path d="M21.75,24C21.336,24,21,23.664,21,23.25c0-3.257-1.718-6.197-4.522-7.804C16.253,17.719,14.331,19.5,12,19.5
		s-4.253-1.781-4.478-4.054C4.718,17.053,3,19.992,3,23.25C3,23.664,2.664,24,2.25,24S1.5,23.664,1.5,23.25
		c0-4.238,2.53-8.039,6.445-9.685c0.011-0.005,0.035-0.015,0.061-0.024C9.262,13.019,10.613,12.75,12,12.75
		c1.384,0,2.731,0.268,4.005,0.795c0.022,0.008,0.043,0.017,0.065,0.027c3.901,1.639,6.43,5.44,6.43,9.678
		C22.5,23.664,22.164,24,21.75,24z M9,15c0,1.654,1.346,3,3,3c1.654,0,3-1.346,3-3v-0.233c-0.966-0.343-1.973-0.517-3-0.517
		s-2.035,0.174-3,0.517V15z"/>
</g>
</svg>
