
<svg version="1.1" id="target" xmlns="http://www.w3.org/2000/svg" xmlns:xlink="http://www.w3.org/1999/xlink" x="0px" y="0px"
	 viewBox="0 0 24 24" style="enable-background:new 0 0 24 24;" xml:space="preserve">
<title>design-tool-pen-station</title>
<g>
	<path d="M6,24c-1.378,0-2.5-1.121-2.5-2.5V11c0-0.451,0.301-0.834,0.712-0.958L3.035,7.689L3.006,7.58l-0.5-2.998
		C2.475,4.391,2.558,4.196,2.719,4.086C2.801,4.03,2.899,4,3,4c0.091,0,0.18,0.025,0.258,0.073l2.535,1.521l0.064,0.069
		C5.881,5.687,5.9,5.709,5.914,5.731L8.294,10H8.5V1c0-0.551,0.449-1,1-1h3c0.552,0,1,0.449,1,1v9h0.206l2.259-4.057
		c-0.212-0.214-0.373-0.47-0.471-0.748c-0.183-0.515-0.153-1.071,0.083-1.565c0.111-0.27,0.315-0.527,0.532-0.8
		c0.527-0.666,0.908-1.147,0.354-1.992c-0.114-0.173-0.11-0.394,0.01-0.563c0.091-0.131,0.244-0.211,0.408-0.211h0.029l0.087,0.014
		c1.449,0.35,2.474,1.371,2.812,2.801c0.3,1.269-0.048,2.625-0.846,3.3c-0.269,0.227-0.59,0.37-0.957,0.424l-1.292,3.42
		C17.163,10.122,17.5,10.522,17.5,11v1H18c1.93,0,3.5,1.57,3.5,3.5S19.93,19,18,19h-0.5v2.5c0,1.379-1.121,2.5-2.5,2.5H6z M4.5,21.5
		C4.5,22.327,5.173,23,6,23h9c0.827,0,1.5-0.673,1.5-1.5V11h-12C4.5,11,4.5,21.5,4.5,21.5z M18,18c1.379,0,2.5-1.121,2.5-2.5
		S19.379,13,18,13h-0.5v5H18z M15.655,10l1.312-3.474c-0.052-0.016-0.103-0.033-0.153-0.052L14.851,10H15.655z M12.5,10V9H12
		c-0.276,0-0.5-0.224-0.5-0.5S11.724,8,12,8h0.5V7H11c-0.276,0-0.5-0.224-0.5-0.5S10.724,6,11,6h1.5V5H12
		c-0.276,0-0.5-0.224-0.5-0.5S11.724,4,12,4h0.5V3H11c-0.276,0-0.5-0.224-0.5-0.5S10.724,2,11,2h1.5V1l-3,0v9H12.5z M7.15,10
		L5.342,6.744L4.134,7.65L5.309,10H7.15z M3.858,6.606l0.748-0.561L3.671,5.485L3.858,6.606z M17.729,1.47
		c0.056,0.856-0.468,1.517-0.835,1.98c-0.175,0.221-0.335,0.424-0.404,0.589c-0.131,0.275-0.147,0.557-0.054,0.824
		c0.095,0.264,0.285,0.477,0.536,0.597c0.032,0.015,0.066,0.03,0.104,0.042c0.229,0.097,0.43,0.142,0.613,0.142
		c0.236,0,0.448-0.077,0.629-0.229c0.513-0.434,0.73-1.404,0.517-2.306C18.672,2.415,18.285,1.848,17.729,1.47z"/>
</g>
</svg>
