<svg id="target" xmlns="http://www.w3.org/2000/svg" viewBox="0 0 24 24"><title>business-trip-plane</title><path d="M5.724,9.956A.249.249,0,0,0,6,9.707V9.583A1.044,1.044,0,0,1,7,8.5h4.5a2.871,2.871,0,0,1,2.445,1.411.246.246,0,0,0,.191.089H17.5A2.065,2.065,0,0,0,19,9h0l.49-.872A.251.251,0,0,1,19.708,8H21a1,1,0,0,0,0-2,.183.183,0,0,1-.16-.272l2.45-4.355a.249.249,0,0,0,0-.249A.252.252,0,0,0,23.072,1H21.5a1.771,1.771,0,0,0-1.5.5l0,0-2.929,2.44a.251.251,0,0,1-.16.058H7C3.615,4,.451,6.492.5,7.462.561,8.623,3.531,9.727,5.724,9.956ZM5,5.385H6.5a.75.75,0,0,1,0,1.5H5a.75.75,0,0,1,0-1.5Z"/><path d="M7.25,9.5A.249.249,0,0,0,7,9.75v1.921a.25.25,0,0,0,.245.25L11.5,12h.012c.534,0,.76,0,1.789-1.193a.086.086,0,0,0,0-.112c-.814-.966-1.036-1.2-1.8-1.2Z"/><path d="M23.5,22V19.75a.25.25,0,0,0-.25-.25H18.5a.25.25,0,0,0-.25.25v.75a.75.75,0,0,1-1.5,0v-.75a.25.25,0,0,0-.25-.25H11.75a.25.25,0,0,0-.25.25V22a1,1,0,0,0,1,1h10A1,1,0,0,0,23.5,22Z"/><path d="M23.5,16a1,1,0,0,0-1-1H21.272a.249.249,0,0,1-.223-.138l-.655-1.309A2.5,2.5,0,0,0,18,12H17a2.5,2.5,0,0,0-2.395,1.553l-.654,1.309a.25.25,0,0,1-.224.138H12.5a1,1,0,0,0-1,1v2.25a.249.249,0,0,0,.25.25h11.5a.249.249,0,0,0,.25-.25Zm-4.81-1.118a.252.252,0,0,1-.213.118H16.522a.249.249,0,0,1-.223-.361l.095-.192C16.618,14,16.729,14,17,14h1c.27,0,.381,0,.605.447l.1.192A.253.253,0,0,1,18.69,14.882Z"/></svg>
