
<svg version="1.1" id="target" xmlns="http://www.w3.org/2000/svg" xmlns:xlink="http://www.w3.org/1999/xlink" x="0px" y="0px"
	 viewBox="0 0 24 24" style="enable-background:new 0 0 24 24;" xml:space="preserve">
<g>
	<title>advertising-megaphone</title>
	<path d="M13.438,23.046c-0.229,0-0.441-0.102-0.584-0.28c-0.125-0.156-0.183-0.351-0.161-0.55s0.119-0.378,0.275-0.504l2.286-1.841
		c0.131-0.107,0.299-0.166,0.472-0.166c0.005,0,0.027,0,0.033,0l2.935,0.146c0.089,0,0.16-0.054,0.18-0.131l0.771-2.837
		c0.048-0.178,0.16-0.332,0.315-0.432l2.458-1.6c0.068-0.044,0.097-0.136,0.068-0.213l-1.045-2.743
		c-0.066-0.172-0.066-0.362,0-0.535l1.045-2.743c0.029-0.076-0.001-0.167-0.069-0.212l-2.458-1.605
		c-0.154-0.101-0.265-0.254-0.314-0.431l-0.767-2.835c-0.021-0.078-0.091-0.131-0.173-0.131l-2.939,0.146
		c-0.006,0-0.033,0.001-0.039,0.001c-0.169,0-0.336-0.059-0.469-0.166L12.971,1.54c-0.031-0.025-0.07-0.038-0.111-0.038
		s-0.081,0.014-0.112,0.039l-2.286,1.845c-0.133,0.107-0.3,0.166-0.469,0.166c-0.007,0-0.035-0.001-0.042-0.001
		c0,0-2.93-0.149-2.93-0.149c-0.087,0-0.159,0.056-0.179,0.131L6.074,6.367C6.025,6.545,5.914,6.698,5.76,6.799L3.302,8.404
		C3.23,8.451,3.202,8.536,3.233,8.617l1.046,2.743c0.066,0.173,0.066,0.362,0,0.535L3.83,13.069
		c-0.11,0.289-0.392,0.483-0.701,0.483c-0.092,0-0.182-0.017-0.268-0.05c-0.186-0.071-0.335-0.211-0.417-0.394
		c-0.082-0.183-0.088-0.387-0.016-0.574l0.346-0.908L1.831,9.15c-0.278-0.732-0.004-1.574,0.65-2.002L4.7,5.699l0.693-2.558
		c0.198-0.73,0.863-1.239,1.616-1.239c0.029,0,0.059,0.001,0.088,0.002l2.645,0.134l2.063-1.665c0.296-0.239,0.67-0.37,1.053-0.37
		s0.758,0.131,1.053,0.37l2.064,1.666l2.646-0.132c0.028-0.002,0.058-0.002,0.088-0.002c0.753,0,1.417,0.51,1.615,1.239l0.692,2.558
		l2.219,1.449c0.656,0.428,0.929,1.27,0.65,2.002l-0.943,2.477l0.943,2.476c0.279,0.732,0.005,1.574-0.65,2.003l-2.219,1.445
		l-0.696,2.559c-0.196,0.729-0.861,1.24-1.617,1.24c0,0-0.058-0.001-0.087-0.002l-2.645-0.132l-2.064,1.662
		C13.776,22.987,13.609,23.046,13.438,23.046z"/>
	<path d="M7.676,23.999c-0.984,0-1.876-0.5-2.387-1.337l-0.554-0.851L3.15,22.308c0.026,0.272-0.098,0.549-0.344,0.705
		c-0.12,0.076-0.259,0.117-0.402,0.117c-0.258,0-0.495-0.13-0.634-0.348l-1.656-2.609c-0.222-0.349-0.118-0.813,0.231-1.035
		c0.121-0.076,0.259-0.117,0.401-0.117c0.114,0,0.223,0.025,0.322,0.072l8.25-10.469L9.272,8.551
		C9.051,8.202,9.155,7.737,9.504,7.516c0.12-0.076,0.259-0.117,0.401-0.117c0.258,0,0.495,0.13,0.634,0.348l6.294,9.916
		c0.221,0.349,0.118,0.813-0.231,1.035c-0.12,0.077-0.259,0.117-0.402,0.117c-0.258,0-0.495-0.13-0.633-0.348l-0.023-0.036
		l-5.195,1.625c0.433,1.24,0.012,2.657-1.075,3.439c-0.054,0.038-0.1,0.068-0.147,0.097C8.689,23.858,8.187,23.999,7.676,23.999z
		 M6.558,21.862c0.245,0.402,0.661,0.636,1.119,0.636c0.235,0,0.466-0.065,0.667-0.188c0.02-0.012,0.041-0.026,0.062-0.04
		c0.561-0.404,0.761-1.139,0.513-1.768l-2.697,0.844L6.558,21.862z M2.398,20.971l12.313-3.852l-4.541-7.153L1.997,20.339
		L2.398,20.971z"/>
</g>
</svg>
