
<svg version="1.1" id="target" xmlns="http://www.w3.org/2000/svg" xmlns:xlink="http://www.w3.org/1999/xlink" x="0px" y="0px"
	 viewBox="0 0 24 24" style="enable-background:new 0 0 24 24;" xml:space="preserve">
<g>
	<title>professions-man-post</title>
	<path d="M11.949,4.875c-0.62,0-1.125-0.505-1.125-1.125s0.505-1.125,1.125-1.125c0.62,0,1.125,0.505,1.125,1.125
		S12.569,4.875,11.949,4.875z"/>
	<path d="M5.199,7.5c-0.414,0-0.75-0.336-0.75-0.75S4.786,6,5.199,6H5.95V3.901C5.945,2.998,6.478,2.178,7.308,1.814l3.752-1.628
		c0.281-0.122,0.581-0.184,0.89-0.184c0.309,0,0.609,0.062,0.89,0.185l3.749,1.627c0.832,0.365,1.366,1.186,1.362,2.091V6h0.749
		c0.414,0,0.75,0.336,0.75,0.75s-0.336,0.75-0.75,0.75H5.199z M16.45,6V3.901c0.001-0.31-0.18-0.59-0.461-0.713l-3.747-1.626
		c-0.093-0.04-0.191-0.061-0.293-0.061c-0.101,0-0.199,0.02-0.292,0.06l-3.75,1.627C7.629,3.311,7.449,3.59,7.45,3.897V6H16.45z"/>
	<path d="M2.314,24.001c-0.038,0-0.075-0.003-0.114-0.009C2,23.961,1.826,23.855,1.707,23.693c-0.118-0.162-0.166-0.36-0.135-0.558
		c0.789-5.059,5.072-8.791,10.189-8.88c0.026-0.003,0.049-0.005,0.073-0.005c0.011,0,0.057,0.002,0.057,0.002l0.058-0.001
		c5.208,0.001,9.572,3.737,10.376,8.883c0.031,0.198-0.017,0.396-0.135,0.558c-0.118,0.162-0.292,0.268-0.49,0.299
		C21.661,23.997,21.623,24,21.585,24l0,0c-0.366,0-0.685-0.272-0.741-0.634c-0.65-4.164-4.092-7.301-8.259-7.591v7.475
		c0,0.414-0.336,0.75-0.75,0.75c-0.414,0-0.75-0.336-0.75-0.75v-7.458c-4.112,0.384-7.386,3.448-8.03,7.574
		C2.997,23.734,2.686,24.001,2.314,24.001z"/>
	<path d="M11.959,13.505c-0.292,0-0.589-0.025-0.882-0.074c-2.204-0.371-3.934-2.101-4.305-4.305C6.738,8.928,6.784,8.729,6.9,8.566
		s0.289-0.271,0.487-0.305c0.041-0.007,0.083-0.01,0.125-0.01c0.368,0,0.678,0.263,0.739,0.626c0.265,1.574,1.501,2.81,3.075,3.075
		c0.209,0.035,0.422,0.053,0.631,0.053c0.777,0,1.526-0.241,2.166-0.696c0.816-0.581,1.357-1.445,1.523-2.432
		c0.062-0.363,0.372-0.625,0.739-0.625c0.041,0,0.083,0.003,0.125,0.01c0.197,0.033,0.37,0.141,0.486,0.305
		c0.116,0.163,0.162,0.362,0.129,0.56c-0.233,1.383-0.99,2.592-2.133,3.405C14.098,13.168,13.048,13.505,11.959,13.505z"/>
	<path d="M14.834,22.5c-0.414,0-0.75-0.336-0.75-0.75S14.421,21,14.834,21h3c0.414,0,0.75,0.336,0.75,0.75s-0.336,0.75-0.75,0.75
		H14.834z"/>
</g>
</svg>
