<svg id="target" xmlns="http://www.w3.org/2000/svg" xmlns:xlink="http://www.w3.org/1999/xlink" x="0px" y="0px"
	 viewBox="0 0 24 24" style="enable-background:new 0 0 24 24;" xml:space="preserve">
<title>organic-plant</title>
<g>
	<path d="M2.437,18.89c-0.167,0-0.322-0.083-0.415-0.221c-0.436-0.65-0.81-1.35-1.111-2.077c-0.104-0.254,0.016-0.547,0.269-0.653
		l0.047-0.02L1.372,15.9c0.205,0,0.386,0.122,0.463,0.31c0.276,0.666,0.618,1.306,1.017,1.902c0.074,0.109,0.101,0.242,0.076,0.373
		c-0.025,0.132-0.101,0.245-0.212,0.319C2.632,18.86,2.536,18.89,2.437,18.89z"/>
	<path d="M5.61,22.063c-0.099,0-0.195-0.029-0.278-0.084c-0.652-0.438-1.263-0.94-1.817-1.494c-0.195-0.195-0.195-0.512,0-0.707
		c0.094-0.095,0.22-0.146,0.354-0.146s0.259,0.052,0.354,0.146c0.506,0.506,1.067,0.967,1.667,1.369
		c0.229,0.154,0.29,0.466,0.137,0.694C5.931,21.981,5.776,22.063,5.61,22.063z"/>
	<path d="M9.664,23.772c-0.774-0.153-1.531-0.383-2.256-0.685c-0.123-0.051-0.219-0.146-0.27-0.27c-0.051-0.124-0.051-0.26,0-0.383
		c0.078-0.188,0.258-0.31,0.46-0.31c0.068,0,0.135,0.014,0.198,0.041c0.656,0.272,1.349,0.483,2.058,0.624
		c0.13,0.025,0.243,0.101,0.317,0.211c0.075,0.111,0.102,0.245,0.075,0.377c-0.046,0.232-0.252,0.402-0.49,0.402L9.664,23.772z"/>
	<path d="M23.189,14.735c-0.136-0.026-0.249-0.102-0.324-0.213c-0.074-0.111-0.101-0.245-0.074-0.377
		c1.178-5.953-2.707-11.757-8.662-12.936C13.43,1.071,12.713,1,12,1c-0.713,0-1.43,0.071-2.128,0.209
		C6.987,1.781,4.497,3.441,2.861,5.885c-1.636,2.443-2.222,5.377-1.651,8.262c0.026,0.132,0,0.266-0.075,0.377
		c-0.075,0.11-0.188,0.186-0.319,0.211c-0.009,0.001-0.018,0.001-0.027,0.001c-0.319,0-0.515-0.167-0.56-0.395
		c-0.623-3.147,0.017-6.348,1.801-9.013c1.784-2.666,4.5-4.477,7.647-5.099C10.438,0.078,11.219,0,12,0
		c0.78,0,1.562,0.078,2.324,0.229c6.495,1.286,10.732,7.617,9.447,14.113c-0.046,0.232-0.252,0.402-0.49,0.402L23.189,14.735z"/>
	<path d="M21.563,18.89c-0.1,0-0.196-0.029-0.278-0.085c-0.229-0.152-0.29-0.464-0.138-0.692c0.4-0.598,0.742-1.238,1.017-1.903
		c0.079-0.188,0.261-0.31,0.463-0.31h0.051l0.142,0.039c0.254,0.106,0.375,0.399,0.271,0.653c-0.303,0.728-0.676,1.426-1.11,2.075
		C21.885,18.807,21.729,18.89,21.563,18.89z"/>
	<path d="M18.39,22.063c-0.165,0-0.32-0.082-0.414-0.219c-0.153-0.232-0.093-0.543,0.135-0.696c0.595-0.398,1.155-0.858,1.668-1.37
		c0.096-0.095,0.221-0.146,0.354-0.146c0.134,0,0.26,0.053,0.354,0.146c0.195,0.195,0.195,0.512,0,0.707
		c-0.554,0.553-1.164,1.055-1.816,1.493C18.584,22.035,18.488,22.063,18.39,22.063z"/>
	<path d="M14.244,23.781c-0.238,0-0.444-0.17-0.49-0.403c-0.026-0.13,0-0.264,0.074-0.375c0.075-0.111,0.188-0.187,0.319-0.212
		c0.709-0.141,1.403-0.352,2.063-0.625l0.046-0.02l0.146-0.02c0.203,0,0.385,0.122,0.461,0.311c0.051,0.119,0.052,0.256,0.001,0.379
		c-0.051,0.124-0.147,0.221-0.271,0.272c-0.721,0.3-1.479,0.529-2.252,0.683L14.244,23.781z"/>
	<path d="M12,24c-0.276,0-0.5-0.225-0.5-0.5v-2.523C6.791,20.714,3,16.737,3,12c0-0.276,0.224-0.5,0.5-0.5
		c1.963,0,3.865,0.648,5.428,1.837C8.388,10.186,9.4,6.918,11.656,4.662c0.094-0.094,0.22-0.146,0.354-0.146
		s0.259,0.052,0.354,0.146c2.25,2.25,3.266,5.511,2.734,8.656c1.558-1.176,3.451-1.817,5.402-1.817c0.275,0,0.5,0.224,0.5,0.5
		c0,4.737-3.791,8.714-8.5,8.977V23.5C12.5,23.775,12.276,24,12,24z M19.983,12.517c-4.003,0.256-7.211,3.464-7.467,7.467
		C16.52,19.728,19.728,16.52,19.983,12.517z M4.017,12.517c0.255,4.003,3.464,7.211,7.467,7.467
		C11.228,15.98,8.019,12.772,4.017,12.517z M12.01,5.744c-2.126,2.395-2.811,5.847-1.74,8.874c0.748,0.819,1.346,1.843,1.73,2.953
		c0.392-1.131,1.012-2.183,1.818-3.078C14.817,11.559,14.125,8.125,12.01,5.744z"/>
</g>
</svg>
