
<svg version="1.1" id="target" xmlns="http://www.w3.org/2000/svg" xmlns:xlink="http://www.w3.org/1999/xlink" x="0px" y="0px"
	 viewBox="0 0 24 24" style="enable-background:new 0 0 24 24;" xml:space="preserve">
<title>like-1</title>
<g>
	<path d="M0.5,22.659c-0.276,0-0.5-0.225-0.5-0.5v-12c0-0.276,0.224-0.5,0.5-0.5h5c0.276,0,0.5,0.224,0.5,0.5v0.918
		c2.19-0.562,5.5-4.353,5.5-7.918c0-0.943,0.595-1.685,1.448-1.802c0.073-0.01,0.148-0.016,0.224-0.016
		c0.384,0,1.684,0.173,2.309,2.402c0.402,1.431-0.304,3.714-0.747,4.916H22c1.103,0,2,0.897,2,2c0,0.79-0.51,1.943-1.363,2.352
		C22.873,13.344,23,13.741,23,14.159c0,0.863-0.552,1.612-1.337,1.888C21.882,16.373,22,16.756,22,17.159
		c0,0.863-0.552,1.612-1.337,1.888C20.882,19.373,21,19.756,21,20.159c0,0.685-0.347,1.5-2,1.5h-6.5
		c-1.81,0-2.749-0.194-4.049-0.464C7.852,21.071,7.058,20.907,6,20.741v1.418c0,0.275-0.224,0.5-0.5,0.5H0.5z M5,21.659v-11H1v11H5z
		 M6,19.728c1.11,0.169,1.91,0.334,2.621,0.481c1.268,0.264,2.166,0.45,3.879,0.45H19c1,0,1-0.277,1-0.5c0-0.552-0.448-1-1-1
		c-0.275,0-0.5-0.225-0.5-0.5s0.225-0.5,0.5-0.5h1c0.552,0,1-0.448,1-1s-0.448-1-1-1c-0.275,0-0.5-0.225-0.5-0.5s0.225-0.5,0.5-0.5
		h1c0.552,0,1-0.448,1-1s-0.448-1-1-1c-0.275,0-0.5-0.224-0.5-0.5s0.225-0.5,0.5-0.5h1c0.439,0,1-0.841,1-1.5c0-0.551-0.448-1-1-1
		h-8c-0.168,0-0.323-0.083-0.417-0.224c-0.093-0.143-0.108-0.319-0.042-0.473c0.397-0.93,1.348-3.63,0.979-4.95
		c-0.347-1.233-0.943-1.671-1.35-1.671c-0.028,0-0.056,0.002-0.082,0.006C12.74,2.395,12.5,2.729,12.5,3.159
		c0,3.896-3.739,8.449-6.5,8.953V19.728z"/>
	<circle cx="3.25" cy="19.909" r="0.75"/>
</g>
</svg>
