<svg id="target" xmlns="http://www.w3.org/2000/svg" viewBox="0 0 24 24"><title>renewable-energy-wind-turbine-2</title><path d="M23,22H15.493A.5.5,0,0,1,15,21.574l-1.111-7.405a.5.5,0,0,1,.3-.537c.112-.046.222-.1.329-.153a.5.5,0,0,1,.465,0,12.406,12.406,0,0,0,3.469,1.205,6.806,6.806,0,0,0,1.128.1,2.52,2.52,0,0,0,2.4-1.124.5.5,0,0,0-.183-.683l-4.884-2.82a.5.5,0,0,1-.249-.411,4,4,0,0,0-1.848-3.192.5.5,0,0,1-.231-.4C14.509,4.014,13.629,0,11.25,0a.5.5,0,0,0-.5.5V6.142a.5.5,0,0,1-.23.421A4,4,0,0,0,8.678,9.758a.5.5,0,0,1-.234.4,12.352,12.352,0,0,0-2.777,2.4c-1.434,1.729-1.271,2.9-.882,3.568a.5.5,0,0,0,.433.25.5.5,0,0,0,.25-.067l4.885-2.82a.5.5,0,0,1,.48-.011,3.864,3.864,0,0,0,.451.2.5.5,0,0,1,.32.543l-1.1,7.349a.5.5,0,0,1-.494.426H1a1,1,0,0,0,0,2H23a1,1,0,0,0,0-2ZM10.674,9.932a2,2,0,1,1,2,2A2,2,0,0,1,10.674,9.932Z"/></svg>
