<svg id="target" xmlns="http://www.w3.org/2000/svg" viewBox="0 0 24 24"><title>color-brush-paint</title><path d="M23.817,2.979a1.659,1.659,0,0,0-2.942-1.535l-6,10.5a.25.25,0,0,0,.194.373A5.151,5.151,0,0,1,18.21,13.77a.251.251,0,0,0,.4-.069Z"/><path d="M15.06,13.821a3.654,3.654,0,0,0-4.081,3.16c-.059.463-.08.889-.1,1.284-.054,1.176-.079,1.713-.964,2.252a1.339,1.339,0,0,0,.517,2.471,7.856,7.856,0,0,0,1.055.071A7.143,7.143,0,0,0,15.872,21.6a5.956,5.956,0,0,0,2.349-3.7A3.654,3.654,0,0,0,15.06,13.821Z"/><path d="M2.417,15.106c.453-.11.464-.105.95.522.7.906,1.767,2.275,4.95,2.592a1,1,0,0,0,.2-1.991A4.269,4.269,0,0,1,4.946,14.4a2.609,2.609,0,0,0-3-1.237A2.5,2.5,0,0,0,.32,14.436a3.237,3.237,0,0,0-.1,2.581c.752,2.207,3.563,4.809,6.837,6.329a1,1,0,1,0,.726-1.869C5.1,20.2,2.673,18.023,2.11,16.372,1.772,15.38,2.272,15.142,2.417,15.106Z"/></svg>
