
<svg version="1.1" id="target" xmlns="http://www.w3.org/2000/svg" xmlns:xlink="http://www.w3.org/1999/xlink" x="0px" y="0px"
	 viewBox="0 0 24 24" style="enable-background:new 0 0 24 24;" xml:space="preserve">
<g>
	<title>renewable-energy-wind-turbine-2</title>
	<path d="M7.173,24c-0.414,0-0.75-0.336-0.75-0.75s0.336-0.75,0.75-0.75h5.212v-9.378c-1.085-0.283-1.937-1.169-2.178-2.261
		l-5.504,0.704c0.048,0.145,0.105,0.288,0.169,0.427c0.445,0.954,1.235,1.678,2.224,2.038c0.437,0.159,0.892,0.24,1.35,0.24
		c0.575,0,1.134-0.125,1.663-0.371c0.1-0.047,0.207-0.07,0.317-0.07c0.291,0,0.557,0.17,0.68,0.433
		c0.085,0.181,0.094,0.385,0.025,0.573c-0.068,0.188-0.206,0.339-0.388,0.423c-0.729,0.34-1.501,0.512-2.296,0.512
		c-0.634,0-1.261-0.111-1.864-0.331c-1.366-0.497-2.456-1.496-3.07-2.813c-0.237-0.509-0.394-1.048-0.465-1.604
		c-0.025-0.196,0.03-0.398,0.15-0.554c0.121-0.156,0.303-0.261,0.499-0.286l6.571-0.84c0.382-1.244,1.548-2.121,2.868-2.121
		c0.129,0,0.26,0.009,0.391,0.027l2.834-5.495c-0.357-0.105-0.727-0.158-1.102-0.158c-0.164,0-0.329,0.01-0.492,0.031
		c-1.043,0.13-1.974,0.659-2.62,1.489c-0.646,0.83-0.929,1.862-0.799,2.905c0.025,0.199-0.029,0.395-0.152,0.554
		c-0.123,0.158-0.3,0.259-0.499,0.284c-0.032,0.004-0.062,0.006-0.092,0.006c-0.378,0-0.698-0.282-0.745-0.657
		c-0.18-1.441,0.212-2.866,1.104-4.012c0.892-1.146,2.177-1.877,3.618-2.057c0.225-0.028,0.453-0.042,0.679-0.042
		c0.859,0,1.72,0.209,2.488,0.606c0.368,0.19,0.512,0.643,0.323,1.01l-3.148,6.104c0.756,0.563,1.213,1.456,1.213,2.406
		c0,0.603-0.184,1.192-0.522,1.688l3.034,4.332c0.286-0.297,0.527-0.639,0.706-1.007c0.461-0.945,0.527-2.014,0.184-3.008
		s-1.051-1.797-1.997-2.258c-0.372-0.181-0.526-0.631-0.345-1.003c0.126-0.26,0.385-0.421,0.674-0.421
		c0.113,0,0.226,0.026,0.328,0.076c1.306,0.637,2.285,1.745,2.757,3.118c0.473,1.373,0.382,2.849-0.255,4.154
		c-0.402,0.825-1.013,1.54-1.765,2.068c-0.127,0.089-0.276,0.136-0.431,0.136c-0.043,0-0.086-0.004-0.128-0.011
		c-0.2-0.035-0.372-0.145-0.486-0.309l-3.413-4.873c-0.189,0.094-0.386,0.168-0.593,0.221V22.5h5.211c0.414,0,0.75,0.336,0.75,0.75
		S19.509,24,19.096,24H7.173z M13.135,8.721c-0.827,0-1.5,0.673-1.5,1.5s0.673,1.5,1.5,1.5s1.5-0.673,1.5-1.5
		S13.962,8.721,13.135,8.721z"/>
</g>
</svg>
