<svg id="target" xmlns="http://www.w3.org/2000/svg" viewBox="0 0 24 24"><title>clean-bicycle</title><path d="M19.25,14.5c-.063,0-.126,0-.189,0a.5.5,0,0,1-.493-.338l-1.093-3.195a.5.5,0,0,1,.352-.647l.416-.1a1,1,0,0,0-.486-1.942l-2,.5a1,1,0,0,0-.7,1.3l.234.685a.5.5,0,0,1-.335.643L10.427,12.7a.405.405,0,0,1-.485-.233A.334.334,0,0,1,10.25,12a1,1,0,0,0,0-2H7a1,1,0,0,0,0,2h.25a.5.5,0,0,1,.462.307l.5,1.2a.5.5,0,0,1-.09.528l-.737.815a.5.5,0,0,1-.588.115A4.755,4.755,0,1,0,8.81,16.787a.5.5,0,0,1,.056-.595l.992-1.1a.992.992,0,0,1,.467-.291l5.325-1.521a.5.5,0,0,1,.611.319l.415,1.214a.5.5,0,0,1-.183.568A4.748,4.748,0,1,0,19.25,14.5ZM4.75,22a2.75,2.75,0,1,1,.578-5.439.25.25,0,0,1,.133.412L4.008,18.579a1,1,0,0,0,1.484,1.342l1.452-1.605a.25.25,0,0,1,.423.09A2.749,2.749,0,0,1,4.75,22Zm14.5,0a2.748,2.748,0,0,1-2.071-4.557.25.25,0,0,1,.425.084l.7,2.047a1,1,0,0,0,.946.676,1.024,1.024,0,0,0,.324-.054,1,1,0,0,0,.622-1.27l-.7-2.048a.25.25,0,0,1,.284-.327A2.75,2.75,0,0,1,19.25,22Z"/><path d="M1,7.5H3.274a.5.5,0,0,1,.49.6l-.676,3.3a.5.5,0,0,0,.872.424l4.8-5.678A1,1,0,0,0,8,4.5H5.726a.5.5,0,0,1-.49-.6L5.912.6A.5.5,0,0,0,5.04.177L.236,5.854A1,1,0,0,0,1,7.5Z"/></svg>
