
<svg version="1.1" id="target" xmlns="http://www.w3.org/2000/svg" xmlns:xlink="http://www.w3.org/1999/xlink" x="0px" y="0px"
	 viewBox="0 0 24 24" style="enable-background:new 0 0 24 24;" xml:space="preserve">
<g>
	<title>history-man-napoleon</title>
	<path d="M3,9.682c-0.414,0-0.75-0.336-0.75-0.75c0-2.956,1.822-5.243,4.451-5.62C6.8,3.18,6.903,3.03,7.011,2.873
		C7.797,1.728,8.984,0,12,0c3.017,0,4.203,1.729,4.988,2.872c0.109,0.158,0.212,0.308,0.31,0.44c2.629,0.377,4.451,2.664,4.451,5.62
		c0,0.414-0.336,0.75-0.75,0.75H3z M20.198,8.182c-0.271-1.917-1.578-3.268-3.35-3.411c-0.194-0.016-0.372-0.105-0.501-0.25
		c-0.212-0.239-0.407-0.524-0.596-0.799C15.037,2.68,14.227,1.5,12,1.5c-2.227,0-3.037,1.18-3.752,2.221
		C8.05,4.01,7.862,4.283,7.652,4.52c-0.129,0.146-0.307,0.235-0.501,0.25c-1.772,0.143-3.079,1.495-3.35,3.411H20.198z"/>
	<path d="M11.984,16.091c-1.099,0-2.169-0.304-3.112-0.883c-0.361,0.363-0.806,0.626-1.304,0.767
		C7.3,16.052,7.023,16.09,6.747,16.09c-0.507,0-1.012-0.132-1.459-0.382c-1.047-0.585-1.633-1.715-1.526-2.885
		c-0.285-0.125-0.536-0.321-0.726-0.569c-0.122-0.159-0.174-0.356-0.147-0.555c0.027-0.198,0.129-0.375,0.288-0.496
		c0.132-0.101,0.289-0.154,0.455-0.154c0.236,0,0.453,0.107,0.596,0.295c0.066,0.086,0.17,0.137,0.278,0.137h0.165
		c0.251,0,0.484,0.125,0.623,0.333c0.14,0.208,0.166,0.471,0.07,0.703c-0.29,0.702-0.008,1.511,0.655,1.882
		c0.224,0.125,0.476,0.191,0.729,0.191c0.138,0,0.277-0.02,0.411-0.058c0.193-0.055,0.371-0.146,0.525-0.27
		c-0.883-0.906-1.443-2.044-1.626-3.314c-0.029-0.198,0.021-0.396,0.141-0.556c0.12-0.16,0.295-0.265,0.494-0.293
		c0.035-0.005,0.072-0.008,0.108-0.008c0.37,0,0.688,0.276,0.741,0.643c0.172,1.189,0.797,2.241,1.76,2.96
		c0.784,0.586,1.713,0.896,2.684,0.896c0.217,0,0.437-0.016,0.653-0.047c1.96-0.283,3.526-1.85,3.81-3.81
		c0.053-0.367,0.371-0.643,0.74-0.643c0.037,0,0.074,0.003,0.111,0.008c0.197,0.028,0.372,0.132,0.492,0.293
		c0.12,0.161,0.17,0.358,0.141,0.556c-0.177,1.225-0.746,2.378-1.614,3.283c0.162,0.139,0.353,0.241,0.562,0.3
		c0.135,0.038,0.273,0.058,0.412,0.058c0.253,0,0.505-0.066,0.729-0.191c0.663-0.371,0.945-1.18,0.655-1.882
		c-0.095-0.232-0.069-0.495,0.07-0.703c0.14-0.208,0.373-0.333,0.624-0.333h0.165c0.108,0,0.212-0.051,0.278-0.137
		c0.144-0.188,0.361-0.295,0.597-0.295c0.166,0,0.323,0.053,0.455,0.155c0.158,0.121,0.261,0.297,0.288,0.496
		c0.027,0.199-0.026,0.396-0.147,0.555c-0.19,0.249-0.441,0.444-0.726,0.569c0.106,1.171-0.48,2.301-1.526,2.885
		c-0.447,0.25-0.952,0.382-1.459,0.382c-0.277,0-0.553-0.039-0.822-0.115c-0.509-0.145-0.962-0.415-1.326-0.79
		c-0.702,0.437-1.488,0.726-2.293,0.843C12.566,16.07,12.273,16.091,11.984,16.091z"/>
	<path d="M20.853,24c-0.292,0-0.559-0.171-0.681-0.436c-0.778-1.682-2.069-3.089-3.672-4.013v3.699c0,0.414-0.336,0.75-0.75,0.75
		S15,23.664,15,23.25v-0.811c-0.818,0.733-1.885,1.152-3,1.152c-1.116,0-2.182-0.419-3-1.152v0.811C9,23.664,8.664,24,8.25,24
		S7.5,23.664,7.5,23.25v-3.702c-1.603,0.926-2.894,2.333-3.672,4.017C3.705,23.829,3.438,24,3.147,24
		c-0.11,0-0.216-0.023-0.315-0.07c-0.375-0.173-0.539-0.62-0.365-0.995c1.045-2.26,2.865-4.079,5.124-5.124
		c0.101-0.047,0.203-0.089,0.305-0.132l0.027-0.011c0.026-0.013,0.053-0.024,0.081-0.034c1.258-0.521,2.604-0.79,3.981-0.79
		c1.358,0,2.688,0.259,3.953,0.771c0.059,0.015,0.116,0.038,0.171,0.069c2.405,1.021,4.331,2.885,5.426,5.252
		c0.174,0.375,0.01,0.822-0.366,0.996C21.068,23.977,20.962,24,20.853,24L20.853,24z M9,19.091c0,1.654,1.346,3,3,3
		c1.654,0,3-1.346,3-3v-0.229c-0.972-0.344-1.985-0.519-3.014-0.519c-1.021,0-2.024,0.173-2.986,0.514V19.091z"/>
</g>
</svg>
