
<svg version="1.1" id="target" xmlns="http://www.w3.org/2000/svg" xmlns:xlink="http://www.w3.org/1999/xlink" x="0px" y="0px"
	 viewBox="0 0 24 24" style="enable-background:new 0 0 24 24;" xml:space="preserve">
<g>
	<title>shape-rhomboid</title>
	<path d="M6.75,24c-0.07,0-0.141-0.011-0.215-0.033c-0.008-0.002-0.036-0.011-0.044-0.014c-0.054-0.019-0.109-0.047-0.159-0.081
		c-0.009-0.005-0.017-0.011-0.025-0.016L0.3,19.35c-0.012-0.009-0.027-0.022-0.04-0.034c-0.022-0.019-0.045-0.041-0.067-0.065
		c-0.011-0.012-0.024-0.028-0.036-0.043c-0.023-0.03-0.042-0.059-0.058-0.088c-0.012-0.021-0.02-0.036-0.027-0.051
		c-0.016-0.035-0.029-0.071-0.041-0.109c-0.003-0.01-0.012-0.041-0.014-0.05C0.006,18.858,0,18.804,0,18.75V5.25
		c0-0.055,0.006-0.108,0.019-0.165c0.003-0.013,0.01-0.039,0.015-0.052c0.009-0.03,0.022-0.067,0.038-0.101
		C0.076,4.924,0.09,4.897,0.094,4.889c0.021-0.037,0.04-0.066,0.061-0.093C0.169,4.778,0.18,4.764,0.193,4.75
		c0.02-0.023,0.043-0.045,0.067-0.066c0.013-0.012,0.027-0.025,0.038-0.033L6.3,0.15C6.429,0.053,6.589,0,6.75,0h10.5
		c0.161,0,0.321,0.053,0.45,0.15l6,4.5c0.012,0.009,0.029,0.024,0.042,0.037c0.023,0.02,0.044,0.04,0.063,0.062
		c0.016,0.018,0.028,0.033,0.04,0.049c0.021,0.027,0.039,0.055,0.056,0.084l0.024,0.045c0.02,0.044,0.033,0.08,0.044,0.118
		c0.002,0.006,0.01,0.034,0.011,0.04C23.994,5.143,24,5.196,24,5.25v13.5c0,0.053-0.006,0.107-0.018,0.163
		c-0.003,0.014-0.011,0.042-0.016,0.056c-0.007,0.026-0.021,0.063-0.037,0.098c-0.004,0.009-0.019,0.038-0.024,0.047
		c-0.02,0.034-0.038,0.062-0.058,0.09c-0.015,0.019-0.025,0.032-0.037,0.045c-0.023,0.026-0.045,0.047-0.068,0.066
		c-0.014,0.014-0.031,0.029-0.044,0.038L17.7,23.85c-0.01,0.007-0.021,0.014-0.031,0.021c-0.05,0.034-0.106,0.062-0.165,0.083
		c-0.007,0.002-0.033,0.011-0.041,0.013C17.39,23.989,17.32,24,17.25,24H6.75z M16.5,22.5V15h-9v7.5H16.5z M18,21.75l4-3l-4-3V21.75
		z M6,21.75v-6l-4,3L6,21.75z M22.5,17.25V6.75L18,10.125v3.75L22.5,17.25z M1.5,17.25L6,13.875v-3.75L1.5,6.75V17.25z M16.5,13.5
		v-3h-9v3H16.5z M17,9l5-3.75L17,1.5H7L2,5.25L7,9H17z"/>
</g>
</svg>
