
<svg version="1.1" id="target" xmlns="http://www.w3.org/2000/svg" xmlns:xlink="http://www.w3.org/1999/xlink" x="0px" y="0px"
	 viewBox="0 0 24 24" style="enable-background:new 0 0 24 24;" xml:space="preserve">
<title>award-medal-1</title>
<g>
	<path d="M11.975,23.963c-4.411,0-8-3.589-8-8s3.589-8,8-8c4.411,0,8,3.589,8,8S16.386,23.963,11.975,23.963z M11.975,8.963
		c-3.86,0-7,3.14-7,7c0,3.859,3.14,7,7,7s7-3.141,7-7C18.975,12.103,15.835,8.963,11.975,8.963z"/>
	<path d="M17.002,7.963l-0.115-0.024c-0.261-0.085-0.405-0.367-0.321-0.629l1.409-4.351C17.991,2.908,18,2.856,18,2.805V1.463
		c0-0.276-0.225-0.5-0.5-0.5h-1.525v5.5c0,0.276-0.225,0.5-0.5,0.5s-0.5-0.224-0.5-0.5v-5.5h-2v5.5c0,0.276-0.224,0.5-0.5,0.5
		s-0.5-0.224-0.5-0.5v-5.5h-2v5.5c0,0.276-0.224,0.5-0.5,0.5s-0.5-0.224-0.5-0.5v-5.5h-1.5c-0.276,0-0.5,0.224-0.5,0.5V2.8
		c0,0.055,0.009,0.11,0.027,0.163L8.49,7.3c0.043,0.126,0.035,0.262-0.024,0.382c-0.059,0.12-0.161,0.21-0.287,0.253L8.14,7.948
		L8.017,7.962c-0.213,0-0.404-0.136-0.473-0.338L6.056,3.286C6.002,3.13,5.975,2.966,5.975,2.8V1.463c0-0.827,0.673-1.5,1.5-1.5
		H17.5c0.827,0,1.5,0.673,1.5,1.5v1.342c0,0.158-0.025,0.314-0.074,0.463l-1.407,4.349c-0.069,0.208-0.261,0.346-0.477,0.346H17.002
		z"/>
	<path d="M9.392,20.463c-0.088,0-0.177-0.012-0.264-0.035c-0.266-0.071-0.487-0.24-0.624-0.478
		c-0.159-0.274-0.181-0.613-0.058-0.906l0.827-1.9l-1.491-1.466c-0.393-0.348-0.427-0.971-0.067-1.379
		c0.188-0.213,0.468-0.334,0.768-0.334h1.675l0.895-1.926c0.184-0.357,0.538-0.574,0.928-0.574c0.163,0,0.325,0.04,0.47,0.114
		c0.191,0.1,0.343,0.252,0.441,0.441l0.902,1.944h1.682c0.265,0.001,0.51,0.095,0.691,0.263c0.194,0.179,0.308,0.424,0.318,0.688
		c0.012,0.294-0.108,0.577-0.329,0.775l-1.475,1.452l0.825,1.895c0.219,0.526-0.027,1.128-0.549,1.345
		c-0.125,0.053-0.258,0.079-0.394,0.079c-0.18,0-0.357-0.048-0.513-0.137l-2.074-1.166l-2.079,1.168
		C9.747,20.415,9.571,20.463,9.392,20.463z M11.977,18.085c0.086,0,0.17,0.022,0.246,0.064l2.322,1.307l-0.919-2.229
		c-0.081-0.188-0.038-0.411,0.107-0.555l1.736-1.708h-1.995c-0.193,0-0.371-0.113-0.453-0.289l-1.025-2.209l-1.066,2.209
		c-0.082,0.176-0.26,0.289-0.453,0.289H8.465v-0.25l-0.006,0.251l1.761,1.706c0.147,0.145,0.19,0.368,0.107,0.557l-0.962,2.208
		l2.367-1.287C11.807,18.107,11.891,18.085,11.977,18.085z"/>
</g>
</svg>
