
<svg version="1.1" id="target" xmlns="http://www.w3.org/2000/svg" xmlns:xlink="http://www.w3.org/1999/xlink" x="0px" y="0px"
	 viewBox="0 0 24 24" style="enable-background:new 0 0 24 24;" xml:space="preserve">
<g>
	<title>design-tool-pen-station</title>
	<path d="M7.414,24.01c-2.895,0-5.25-2.355-5.25-5.25v-9c0-0.414,0.336-0.75,0.75-0.75h1.189L3.687,7.831
		C3.51,7.799,3.337,7.751,3.169,7.688C2.419,7.407,1.823,6.85,1.491,6.12L1.479,6.092C0.611,4.332,0.613,2.21,1.491,0.429
		c0.103-0.209,0.302-0.361,0.531-0.405C2.068,0.015,2.117,0.01,2.165,0.01c0.185,0,0.362,0.068,0.5,0.192
		C4.27,1.641,4.539,1.741,4.85,1.857c0.229,0.085,0.514,0.191,1.044,0.532c0.472,0.313,0.838,0.747,1.063,1.257
		c0.307,0.675,0.35,1.426,0.126,2.134L9.088,9.01h0.028l1.846-5.231c0.039-0.11,0.103-0.21,0.186-0.29l3.407-3.289
		c0.141-0.136,0.326-0.21,0.521-0.21c0.085,0,0.169,0.014,0.249,0.043c0.27,0.095,0.459,0.33,0.495,0.614l0.587,4.698
		c0.015,0.115,0.002,0.234-0.037,0.344L15.199,9.01h2.715c2.895,0,5.25,2.355,5.25,5.25c0,2.895-2.355,5.25-5.25,5.25h-0.808
		c-0.368,2.55-2.584,4.5-5.192,4.5H7.414z M3.664,18.76c0,2.068,1.682,3.75,3.75,3.75h4.5c2.068,0,3.75-1.682,3.75-3.75v-8.25h-12
		V18.76z M17.914,18.01c2.068,0,3.75-1.682,3.75-3.75c0-2.068-1.682-3.75-3.75-3.75h-0.75v7.5H17.914z M13.608,9.01l0.706-2
		c-0.936-0.015-1.847-0.34-2.58-0.911L10.707,9.01H13.608z M7.323,9.01l-1.15-1.853C5.959,7.341,5.722,7.493,5.464,7.61
		C5.389,7.645,5.311,7.676,5.233,7.704l0.46,1.306H7.323z M2.857,5.5c0.166,0.365,0.464,0.643,0.839,0.784
		C3.834,6.335,3.979,6.366,4.13,6.376C4.165,6.371,4.2,6.368,4.234,6.368c0.033,0,0.067,0.002,0.1,0.007
		c0.177-0.013,0.348-0.057,0.509-0.13C5.141,6.11,5.38,5.887,5.536,5.601c0.019-0.054,0.043-0.105,0.073-0.152
		c0,0,0.013-0.029,0.019-0.043c0.141-0.375,0.127-0.782-0.039-1.147C5.476,4.005,5.299,3.794,5.073,3.644
		c-0.384-0.248-0.56-0.313-0.745-0.381C3.892,3.101,3.549,2.944,2.487,2.04c-0.292,1.139-0.172,2.357,0.35,3.416
		c0.005,0.009,0.009,0.018,0.012,0.028C2.852,5.489,2.855,5.494,2.857,5.5z M12.279,4.558c0.524,0.599,1.296,0.951,2.101,0.951
		c0.161,0,0.321-0.014,0.479-0.042l0.039-0.111l-0.379-3.034l-2.201,2.124L12.279,4.558z"/>
</g>
</svg>
