
<svg version="1.1" id="target" xmlns="http://www.w3.org/2000/svg" xmlns:xlink="http://www.w3.org/1999/xlink" x="0px" y="0px"
	 viewBox="0 0 24 24" style="enable-background:new 0 0 24 24;" xml:space="preserve">
<title>like-click</title>
<g>
	<path d="M6.5,13C2.926,12.989,0.011,10.074,0,6.502C0.011,2.927,2.926,0.011,6.498,0H17.5c3.574,0.011,6.49,2.926,6.5,6.499
		c-0.004,2.278-1.222,4.417-3.178,5.583c-0.078,0.046-0.166,0.07-0.255,0.07c-0.176,0-0.34-0.093-0.43-0.243
		c-0.142-0.239-0.063-0.546,0.173-0.687c1.655-0.986,2.686-2.796,2.689-4.723C22.99,3.476,20.522,1.009,17.498,1H6.5
		C3.477,1.009,1.009,3.477,1,6.502C1.009,9.524,3.477,11.991,6.502,12H13c0.275,0,0.5,0.224,0.5,0.5S13.275,13,13,13H6.5z"/>
	<path d="M10.5,9.999c-0.276,0-0.5-0.224-0.5-0.5v-5c0-0.276,0.224-0.5,0.5-0.5s0.5,0.224,0.5,0.5v5
		C11,9.775,10.776,9.999,10.5,9.999z"/>
	<path d="M14.5,9.999c-0.151,0-0.294-0.068-0.39-0.187L13,8.425v1.074c0,0.276-0.224,0.5-0.5,0.5S12,9.775,12,9.499v-5
		c0-0.276,0.224-0.5,0.5-0.5s0.5,0.224,0.5,0.5v1.074l1.109-1.387C14.206,4.067,14.349,4,14.501,4c0.112,0,0.223,0.038,0.311,0.108
		c0.216,0.173,0.251,0.488,0.079,0.703l-1.75,2.188l1.75,2.188c0.172,0.215,0.137,0.53-0.078,0.703
		C14.724,9.96,14.613,9.999,14.5,9.999z"/>
	<path d="M7.5,10C6.673,10,6,9.327,6,8.5v-4C6,4.224,6.224,4,6.5,4S7,4.224,7,4.5v4C7,8.776,7.224,9,7.5,9h1C8.776,9,9,9.224,9,9.5
		S8.776,10,8.5,10H7.5z"/>
	<path d="M17.5,10C16.673,10,16,9.327,16,8.5v-3C16,4.673,16.673,4,17.5,4h1C18.775,4,19,4.224,19,4.5S18.775,5,18.5,5h-1
		C17.225,5,17,5.224,17,5.5v1.499h1.5c0.275,0,0.5,0.224,0.5,0.5s-0.225,0.5-0.5,0.5H17V8.5C17,8.776,17.225,9,17.5,9h1
		C18.775,9,19,9.224,19,9.5S18.775,10,18.5,10H17.5z"/>
	<path d="M23.5,24c-0.275,0-0.5-0.225-0.5-0.5v-2.668C22.999,19.271,21.729,18,20.167,18H18.5c-0.275,0-0.5-0.225-0.5-0.5V13
		c0-0.551-0.448-1-1-1s-1,0.449-1,1v7c0,0.193-0.113,0.371-0.289,0.453c-0.062,0.03-0.137,0.047-0.21,0.047
		c-0.119,0-0.234-0.042-0.323-0.118l-1.287-1.079c-0.192-0.221-0.419-0.33-0.651-0.33c-0.173,0-0.335,0.06-0.469,0.171
		c-0.318,0.265-0.361,0.738-0.097,1.056l2.479,2.98c0.175,0.212,0.146,0.527-0.063,0.704C14.998,23.959,14.885,24,14.768,24
		c-0.148,0-0.289-0.065-0.384-0.18l-2.479-2.98c-0.617-0.741-0.516-1.847,0.226-2.466c0.314-0.26,0.711-0.403,1.118-0.403
		c0.522,0,1.014,0.229,1.347,0.629L15,18.935V13c0-1.103,0.897-2,2-2s2,0.897,2,2v4h1.167c2.112,0,3.832,1.719,3.833,3.832V23.5
		C24,23.775,23.775,24,23.5,24z"/>
</g>
</svg>
