
<svg version="1.1" id="target" xmlns="http://www.w3.org/2000/svg" xmlns:xlink="http://www.w3.org/1999/xlink" x="0px" y="0px"
	 viewBox="0 0 24 24" style="enable-background:new 0 0 24 24;" xml:space="preserve">
<title>people-man-graduate</title>
<g>
	<path d="M12,13.997c-0.647,0-1.287-0.212-1.8-0.597c-0.107-0.08-0.176-0.197-0.195-0.329c-0.019-0.133,0.015-0.265,0.096-0.372
		c0.095-0.125,0.245-0.199,0.4-0.199c0.109,0,0.212,0.035,0.3,0.101c0.341,0.255,0.767,0.396,1.199,0.396s0.858-0.141,1.199-0.397
		c0.088-0.066,0.191-0.1,0.3-0.1c0.158,0,0.304,0.072,0.4,0.198c0.166,0.221,0.122,0.536-0.099,0.702
		C13.286,13.785,12.647,13.997,12,13.997z"/>
	<path d="M23,24c-0.275,0-0.5-0.225-0.5-0.5v-1.106c0.003-0.461-0.212-0.902-0.574-1.182c-0.834-0.637-2.306-1.512-4.604-2.096
		L12.69,23.53c-0.187,0.179-0.432,0.277-0.69,0.277c-0.258,0-0.503-0.099-0.69-0.277l-4.629-4.412
		c-2.297,0.584-3.771,1.459-4.608,2.096C1.711,21.492,1.497,21.932,1.5,22.39v1.11C1.5,23.775,1.276,24,1,24s-0.5-0.225-0.5-0.5
		v-1.106c-0.005-0.766,0.355-1.504,0.965-1.975C2.899,19.328,6.172,17.5,12,17.5c5.844,0,9.107,1.828,10.533,2.919
		c0.61,0.468,0.971,1.208,0.967,1.978V23.5C23.5,23.775,23.275,24,23,24z M12,22.808l4.142-3.948C14.849,18.621,13.458,18.5,12,18.5
		c-1.46,0-2.851,0.121-4.141,0.36L12,22.808z"/>
	<circle cx="14" cy="10.5" r="0.75"/>
	<circle cx="10" cy="10.5" r="0.75"/>
	<path d="M12,17c-3.584,0-6.5-2.916-6.5-6.5V4.534l-3-0.682v4.523c0.722,1.268,1.067,2.7,0.999,4.148C3.487,12.791,3.268,13,3,13H1
		c-0.268,0-0.487-0.209-0.5-0.478c-0.067-1.446,0.278-2.879,1-4.147v-5c-0.111-0.193-0.133-0.369-0.094-0.54
		C1.467,2.556,1.69,2.332,1.973,2.269l9.694-2.206c0.113-0.025,0.225-0.038,0.335-0.038c0.11,0,0.221,0.013,0.329,0.037l9.707,2.207
		c0.194,0.043,0.36,0.161,0.467,0.33c0.108,0.168,0.144,0.37,0.1,0.566c-0.062,0.28-0.284,0.503-0.566,0.567L18.5,4.537V10.5
		C18.5,14.084,15.584,17,12,17z M6.5,10.5c0,3.032,2.467,5.5,5.5,5.5c3.032,0,5.5-2.468,5.5-5.5V8.272C16.612,8.591,14.908,9,12,9
		C9.091,9,7.387,8.591,6.5,8.272V10.5z M2.506,12C2.485,11.181,2.313,10.368,2,9.612C1.687,10.368,1.515,11.181,1.494,12H2.506z
		 M6.5,7.194C7.066,7.447,8.684,8,12,8c3.315,0,4.934-0.553,5.5-0.806V4.764l-5.162,1.174c-0.11,0.025-0.222,0.037-0.333,0.037
		c-0.111,0-0.222-0.012-0.331-0.036L6.5,4.762V7.194z M11.895,4.963c0.036,0.008,0.073,0.012,0.111,0.012s0.075-0.004,0.11-0.013
		L20.744,3l-8.633-1.963C12.076,1.029,12.038,1.025,12,1.025c-0.039,0-0.076,0.004-0.112,0.012L3.266,3L11.895,4.963z"/>
</g>
</svg>
