<svg id="target" xmlns="http://www.w3.org/2000/svg" viewBox="0 0 24 24"><title>global-warming-globe-fire-1</title><path d="M23.7,7.042a1,1,0,0,0-.725-.72.984.984,0,0,0-.981.295.25.25,0,0,1-.417-.157A9.7,9.7,0,0,0,18.006.232a1,1,0,0,0-1.641.781,1.984,1.984,0,0,1-.8,1.622,10.346,10.346,0,0,0-1.479,1.326.5.5,0,0,1-.742-.007A3.5,3.5,0,0,0,11.907,3,1,1,0,0,0,10.57,4.024a4.254,4.254,0,0,1-.424,1.607.5.5,0,0,0,.361.641,9.729,9.729,0,0,1,7.482,9.3.5.5,0,0,0,.659.466,7.959,7.959,0,0,0,4.316-3.036A7.529,7.529,0,0,0,23.7,7.042Z"/><path d="M8.25,7.5a8.25,8.25,0,1,0,8.25,8.25A8.259,8.259,0,0,0,8.25,7.5Zm5.071,4.733a.247.247,0,0,1-.11.165,1.378,1.378,0,0,0-.628,1.154V15.31a.379.379,0,0,1-.378.379H10.879A1.379,1.379,0,0,0,9.571,17.5l.293.879a1.375,1.375,0,0,0,1.308.942h1.692a.25.25,0,0,1,.192.41,6.227,6.227,0,0,1-8.806.809,1,1,0,0,1-.325-1.026l.628-2.351a.642.642,0,0,1,.621-.478A1.38,1.38,0,0,0,6.553,15.31V13.552a1.38,1.38,0,0,0-1.379-1.378H3.636a.25.25,0,0,1-.192-.41,6.238,6.238,0,0,1,9.832.276A.25.25,0,0,1,13.321,12.233Z"/></svg>
