<svg id="target" width="24" height="24" viewBox="0 0 24 24" fill="none" xmlns="http://www.w3.org/2000/svg">
<path d="M23.0129 11.5129C23.0151 10.9305 22.8133 10.3658 22.4425 9.91669C22.0717 9.46761 21.5554 9.16258 20.9831 9.05457C20.4108 8.94656 19.8188 9.04238 19.3098 9.32541C18.8009 9.60843 18.4071 10.0608 18.1969 10.6039C18.1785 10.6507 18.1464 10.6909 18.1048 10.7192C18.0633 10.7476 18.0142 10.7628 17.9639 10.7629H12.5129C12.4466 10.7629 12.383 10.7365 12.3361 10.6897C12.2892 10.6428 12.2629 10.5792 12.2629 10.5129V5.06189C12.263 5.01159 12.2782 4.96249 12.3066 4.92094C12.3349 4.87939 12.3751 4.84732 12.4219 4.82889C12.9648 4.61698 13.4166 4.22205 13.6992 3.71236C13.9819 3.20268 14.0776 2.61026 13.9697 2.03752C13.8619 1.46477 13.5574 0.947694 13.1088 0.575655C12.6602 0.203617 12.0957 0 11.5129 0C10.9301 0 10.3656 0.203617 9.91699 0.575655C9.46838 0.947694 9.16385 1.46477 9.05604 2.03752C8.94822 2.61026 9.0439 3.20268 9.32653 3.71236C9.60916 4.22205 10.061 4.61698 10.6039 4.82889C10.6507 4.84732 10.6909 4.87939 10.7192 4.92094C10.7476 4.96249 10.7628 5.01159 10.7629 5.06189V10.5129C10.7629 10.5792 10.7365 10.6428 10.6897 10.6897C10.6428 10.7365 10.5792 10.7629 10.5129 10.7629H5.06189C5.01159 10.7628 4.96249 10.7476 4.92094 10.7192C4.87939 10.6909 4.84732 10.6507 4.82889 10.6039C4.61698 10.061 4.22205 9.60916 3.71236 9.32653C3.20268 9.0439 2.61026 8.94822 2.03752 9.05604C1.46477 9.16385 0.947694 9.46838 0.575655 9.91699C0.203617 10.3656 0 10.9301 0 11.5129C0 12.0957 0.203617 12.6602 0.575655 13.1088C0.947694 13.5574 1.46477 13.8619 2.03752 13.9697C2.61026 14.0776 3.20268 13.9819 3.71236 13.6992C4.22205 13.4166 4.61698 12.9648 4.82889 12.4219C4.84732 12.3751 4.87939 12.3349 4.92094 12.3066C4.96249 12.2782 5.01159 12.263 5.06189 12.2629H10.5129C10.5792 12.2629 10.6428 12.2892 10.6897 12.3361C10.7365 12.383 10.7629 12.4466 10.7629 12.5129V17.9639C10.7628 18.0142 10.7476 18.0633 10.7192 18.1048C10.6909 18.1464 10.6507 18.1785 10.6039 18.1969C10.061 18.4088 9.60916 18.8037 9.32653 19.3134C9.0439 19.8231 8.94822 20.4155 9.05604 20.9883C9.16385 21.561 9.46838 22.0781 9.91699 22.4501C10.3656 22.8222 10.9301 23.0258 11.5129 23.0258C12.0957 23.0258 12.6602 22.8222 13.1088 22.4501C13.5574 22.0781 13.8619 21.561 13.9697 20.9883C14.0776 20.4155 13.9819 19.8231 13.6992 19.3134C13.4166 18.8037 12.9648 18.4088 12.4219 18.1969C12.3751 18.1785 12.3349 18.1464 12.3066 18.1048C12.2782 18.0633 12.263 18.0142 12.2629 17.9639V12.5129C12.2629 12.4466 12.2892 12.383 12.3361 12.3361C12.383 12.2892 12.4466 12.2629 12.5129 12.2629H17.9639C18.0142 12.263 18.0633 12.2782 18.1048 12.3066C18.1464 12.3349 18.1785 12.3751 18.1969 12.4219C18.4071 12.965 18.8009 13.4173 19.3098 13.7004C19.8188 13.9834 20.4108 14.0792 20.9831 13.9712C21.5554 13.8632 22.0717 13.5582 22.4425 13.1091C22.8133 12.66 23.0151 12.0953 23.0129 11.5129V11.5129Z" transform="translate(0.5 0.5)" fill="currentColor"/>
<path d="M2.83129 6.36329C3.30634 6.79765 3.93063 7.03204 4.57416 7.01765C5.2177 7.00326 5.83088 6.7412 6.28604 6.28604C6.7412 5.83088 7.00326 5.2177 7.01765 4.57416C7.03204 3.93063 6.79765 3.30634 6.36329 2.83129C6.00239 2.48813 5.54903 2.25798 5.05901 2.16914C4.56899 2.0803 4.06369 2.13667 3.60529 2.33129C3.55958 2.35049 3.50918 2.35561 3.46054 2.34599C3.41191 2.33637 3.36725 2.31245 3.33229 2.27729L1.26129 0.201293C1.11912 0.0688125 0.931071 -0.00331137 0.73677 0.000116846C0.542469 0.00354506 0.357084 0.0822578 0.219671 0.219671C0.0822578 0.357084 0.00354506 0.542469 0.000116846 0.73677C-0.00331137 0.931071 0.0688125 1.11912 0.201293 1.26129L2.26129 3.32129C2.29705 3.35716 2.32108 3.40304 2.33019 3.45286C2.33929 3.50268 2.33305 3.55409 2.31229 3.60029C2.17003 3.91452 2.09607 4.25536 2.09529 4.60029C2.09554 4.92819 2.1607 5.25279 2.28702 5.55538C2.41334 5.85797 2.59832 6.13255 2.83129 6.36329Z" transform="translate(13.7816 13.7816)" fill="currentColor"/>
<path d="M4.26747 0.708097C3.79126 0.253591 3.15826 0 2.49997 0C1.84167 0 1.20868 0.253591 0.73247 0.708097C0.382563 1.05791 0.144324 1.50369 0.0479175 1.98898C-0.0484889 2.47427 0.00127326 2.97726 0.190903 3.43426C0.380532 3.89125 0.701501 4.2817 1.11317 4.55617C1.52484 4.83064 2.00869 4.97678 2.50347 4.9761C2.8484 4.97532 3.18924 4.90136 3.50347 4.7591C3.54967 4.73834 3.60108 4.7321 3.6509 4.7412C3.70072 4.75031 3.7466 4.77434 3.78247 4.8101L5.84247 6.8701C5.98465 7.00258 6.17269 7.0747 6.36699 7.07127C6.56129 7.06784 6.74668 6.98913 6.88409 6.85172C7.0215 6.71431 7.10022 6.52892 7.10364 6.33462C7.10707 6.14032 7.03495 5.95227 6.90247 5.8101L4.83747 3.7501C4.80171 3.71423 4.77768 3.66835 4.76858 3.61853C4.75947 3.56871 4.76571 3.51729 4.78647 3.4711C4.92873 3.15687 5.00269 2.81603 5.00347 2.4711C5.00322 2.1432 4.93806 1.8186 4.81174 1.51601C4.68542 1.21342 4.50044 0.938839 4.26747 0.708097V0.708097Z" transform="translate(3.14542 3.17279)" fill="currentColor"/>
<path d="M0.238709 5.81086C0.165022 5.87953 0.105919 5.96233 0.0649275 6.05433C0.0239355 6.14632 0.0018935 6.24564 0.00011672 6.34634C-0.00166006 6.44704 0.0168648 6.54707 0.0545858 6.64046C0.0923068 6.73385 0.148452 6.81868 0.219671 6.8899C0.290889 6.96112 0.375723 7.01726 0.469111 7.05499C0.562499 7.09271 0.662528 7.11123 0.763231 7.10946C0.863934 7.10768 0.963247 7.08564 1.05525 7.04464C1.14725 7.00365 1.23005 6.94455 1.29871 6.87086L3.35871 4.81086C3.39457 4.7751 3.44045 4.75108 3.49028 4.74197C3.5401 4.73286 3.59151 4.7391 3.63771 4.75986C3.95194 4.90212 4.29278 4.97608 4.63771 4.97686C5.13223 4.97696 5.61567 4.83038 6.02688 4.55569C6.43809 4.28099 6.75859 3.89051 6.94785 3.43363C7.1371 2.97676 7.18661 2.47402 7.09011 1.98901C6.99361 1.504 6.75543 1.0585 6.40571 0.708863C5.92973 0.2539 5.29665 0 4.63821 0C3.97977 0 3.34668 0.2539 2.87071 0.708863C2.63768 0.940445 2.45291 1.21595 2.32709 1.51943C2.20127 1.82291 2.1369 2.14834 2.13771 2.47686C2.13849 2.82179 2.21245 3.16263 2.35471 3.47686C2.37547 3.52306 2.38171 3.57447 2.3726 3.62429C2.36349 3.67412 2.33947 3.72 2.30371 3.75586L0.238709 5.81086Z" transform="translate(13.7442 3.17203)" fill="currentColor"/>
<path d="M6.893 0.219754C6.82344 0.15009 6.74082 0.0948231 6.64988 0.0571156C6.55893 0.019408 6.46145 0 6.363 0C6.26455 0 6.16707 0.019408 6.07612 0.0571156C5.98518 0.0948231 5.90257 0.15009 5.833 0.219754L3.763 2.28975C3.72804 2.32491 3.68338 2.34883 3.63475 2.35845C3.58611 2.36807 3.53571 2.36295 3.49 2.34375C3.03155 2.14939 2.52631 2.09316 2.03635 2.18199C1.54639 2.27081 1.09304 2.50082 0.732 2.84375C0.441321 3.13451 0.226837 3.49247 0.107546 3.88592C-0.0117443 4.27937 -0.0321589 4.69616 0.0481112 5.09939C0.128381 5.50261 0.306858 5.87981 0.567732 6.19758C0.828605 6.51535 1.16382 6.76388 1.54369 6.92115C1.92356 7.07842 2.33635 7.13958 2.7455 7.09921C3.15465 7.05883 3.54752 6.91817 3.88933 6.68969C4.23113 6.46121 4.51131 6.15196 4.70504 5.78933C4.89878 5.4267 5.00009 5.02189 5 4.61075C4.99922 4.26582 4.92526 3.92498 4.783 3.61075C4.76224 3.56456 4.756 3.51314 4.76511 3.46332C4.77421 3.4135 4.79824 3.36762 4.834 3.33175L6.894 1.27175C7.03213 1.13146 7.10947 0.942428 7.10928 0.745549C7.10909 0.548671 7.0314 0.359783 6.893 0.219754Z" transform="translate(3.14989 13.7631)" fill="currentColor"/>
</svg>
