
<svg version="1.1" id="target" xmlns="http://www.w3.org/2000/svg" xmlns:xlink="http://www.w3.org/1999/xlink" x="0px" y="0px"
	 viewBox="0 0 24 24" style="enable-background:new 0 0 24 24;" xml:space="preserve">
<title>business-contract-give</title>
<g>
	<path d="M19.5,24c-0.167,0-0.321-0.083-0.415-0.221c-0.549-0.816-0.911-1.724-1.077-2.695l-0.007-1.379l-2.675-2.726
		c-0.675-0.703-0.658-1.816,0.036-2.483c0.324-0.312,0.753-0.484,1.206-0.484c0.479,0,0.927,0.189,1.259,0.533L18,14.722V4.5
		C18,4.224,17.775,4,17.5,4h-10C7.224,4,7,3.776,7,3.5S7.224,3,7.5,3h10C18.327,3,19,3.673,19,4.5v5.768l0.402,0.341
		c1.874,1.577,3.642,3.064,3.598,4.903v4.434l0.943,1.824c0.127,0.245,0.031,0.547-0.213,0.674C23.66,22.48,23.582,22.5,23.5,22.5
		c-0.188,0-0.358-0.104-0.444-0.271l-0.999-1.933C22.019,20.224,22,20.146,22,20.066V15.5c0.031-1.304-1.47-2.633-3-3.923v4.167
		l1.376,1.406c0.192,0.196,0.189,0.514-0.008,0.707C20.273,17.949,20.149,18,20.019,18c-0.136,0-0.263-0.054-0.357-0.15
		l-2.551-2.607c-0.144-0.149-0.335-0.23-0.54-0.23c-0.193,0-0.377,0.073-0.517,0.207c-0.143,0.137-0.225,0.322-0.229,0.522
		c-0.004,0.198,0.07,0.387,0.209,0.531l2.823,2.878C18.949,19.244,19,19.368,19,19.5V21c0.136,0.751,0.453,1.534,0.915,2.221
		c0.074,0.112,0.102,0.246,0.075,0.378c-0.026,0.13-0.102,0.243-0.212,0.316C19.697,23.97,19.601,24,19.5,24z"/>
	<path d="M6.5,21C5.673,21,5,20.327,5,19.5v-5.768l-0.402-0.341C2.726,11.817,0.957,10.329,1,8.488V4.056L0.056,2.229
		c-0.062-0.119-0.073-0.254-0.032-0.381c0.041-0.127,0.128-0.231,0.247-0.292C0.341,1.52,0.42,1.5,0.5,1.5
		c0.188,0,0.359,0.104,0.445,0.271l1,1.934C1.981,3.777,2,3.856,2,3.934V8.5c-0.031,1.303,1.47,2.632,3,3.924V8.256L3.624,6.85
		C3.431,6.653,3.434,6.336,3.631,6.143C3.727,6.05,3.851,6,3.982,6c0.136,0,0.263,0.054,0.357,0.151L6.89,8.757
		c0.14,0.146,0.326,0.228,0.525,0.232c0.209-0.003,0.391-0.073,0.532-0.208C8.089,8.644,8.17,8.458,8.174,8.259
		S8.105,7.872,7.967,7.729L5.144,4.851C5.051,4.756,5,4.631,5,4.5V3C4.864,2.25,4.547,1.467,4.085,0.778
		c-0.074-0.11-0.101-0.243-0.076-0.374C4.035,0.273,4.11,0.16,4.221,0.085C4.304,0.03,4.4,0,4.5,0c0.167,0,0.323,0.083,0.416,0.221
		c0.549,0.817,0.911,1.723,1.078,2.694L6,4.295L8.673,7.02c0.333,0.346,0.511,0.793,0.501,1.26c-0.009,0.466-0.199,0.9-0.535,1.223
		C8.312,9.817,7.883,9.99,7.43,9.99c-0.501-0.01-0.936-0.2-1.258-0.537L6,9.278V19.5C6,19.775,6.224,20,6.5,20H16
		c0.275,0,0.5,0.225,0.5,0.5S16.275,21,16,21H6.5z"/>
</g>
</svg>
