
<svg version="1.1" id="target" xmlns="http://www.w3.org/2000/svg" xmlns:xlink="http://www.w3.org/1999/xlink" x="0px" y="0px"
	 viewBox="0 0 24 24" style="enable-background:new 0 0 24 24;" xml:space="preserve">
<title>database-share</title>
<g>
	<path d="M12,11c-2.565,0-4.5-1.075-4.5-2.5v-6C7.502,1.075,9.437,0.001,12,0.001c2.563,0,4.498,1.074,4.5,2.498V8.5
		C16.5,9.925,14.565,11,12,11z M8.5,8.5C8.5,9.208,9.997,10,12,10c2.003,0,3.5-0.792,3.5-1.5V7.086C14.667,7.665,13.406,8,12,8
		S9.333,7.665,8.5,7.086V8.5z M8.5,5.5C8.5,6.208,9.997,7,12,7c2.003,0,3.5-0.792,3.5-1.5V4.087c-0.833,0.579-2.094,0.914-3.5,0.914
		S9.333,4.666,8.5,4.087V5.5z M12,1.001c-2.003,0-3.5,0.792-3.5,1.5s1.497,1.5,3.5,1.5c2.003,0,3.5-0.792,3.5-1.5
		S14.003,1.001,12,1.001z"/>
	<path d="M3.5,24.001c-0.276,0-0.5-0.225-0.5-0.5s0.224-0.5,0.5-0.5h2V22h-3c-1.136-0.033-2.03-0.976-2-2.101V16
		c0-1.103,0.897-2,2-2h7c1.103,0,2,0.897,2,2v3.912c0.032,1.116-0.859,2.056-1.985,2.088H6.5v1.001h2c0.276,0,0.5,0.225,0.5,0.5
		s-0.224,0.5-0.5,0.5H3.5z M1.501,20.001C1.531,20.546,1.969,20.983,2.515,21H9.5c0.54-0.016,0.977-0.457,1-0.999H1.501z
		 M10.5,19.001V16c0-0.552-0.449-1-1-1h-7c-0.551,0-1,0.448-1,1v3.001H10.5z"/>
	<path d="M15.5,24.001c-0.275,0-0.5-0.225-0.5-0.5s0.225-0.5,0.5-0.5h2V22h-3c-1.136-0.033-2.03-0.976-2-2.101V16
		c0-1.103,0.897-2,2-2h7c1.103,0,2,0.897,2,2v3.912c0.016,0.534-0.183,1.051-0.558,1.448c-0.375,0.396-0.882,0.624-1.429,0.64H18.5
		v1.001h2c0.275,0,0.5,0.225,0.5,0.5s-0.225,0.5-0.5,0.5H15.5z M13.501,20.001c0.029,0.545,0.468,0.982,1.015,0.999H21.5
		c0.267-0.008,0.523-0.124,0.716-0.327c0.174-0.184,0.273-0.42,0.284-0.672H13.501z M22.5,19.001V16c0-0.552-0.448-1-1-1h-7
		c-0.552,0-1,0.448-1,1v3.001H22.5z"/>
	<path d="M21,12.001c-0.275,0-0.5-0.224-0.5-0.5v-4.5H18c-0.275,0-0.5-0.224-0.5-0.5s0.225-0.5,0.5-0.5h3c0.275,0,0.5,0.224,0.5,0.5
		v5C21.5,11.777,21.275,12.001,21,12.001z"/>
	<path d="M3,12.001c-0.276,0-0.5-0.224-0.5-0.5v-5c0-0.276,0.224-0.5,0.5-0.5h3c0.276,0,0.5,0.224,0.5,0.5s-0.224,0.5-0.5,0.5H3.5
		v4.5C3.5,11.777,3.276,12.001,3,12.001z"/>
</g>
</svg>
