
<svg version="1.1" id="target" xmlns="http://www.w3.org/2000/svg" xmlns:xlink="http://www.w3.org/1999/xlink" x="0px" y="0px"
	 viewBox="0 0 24 24" style="enable-background:new 0 0 24 24;" xml:space="preserve">
<title>police-woman-1</title>
<g>
	<path d="M12,12.976c-0.648,0-1.287-0.212-1.8-0.596c-0.22-0.166-0.265-0.479-0.101-0.7c0.098-0.127,0.243-0.2,0.401-0.2
		c0.108,0,0.211,0.034,0.298,0.099c0.343,0.257,0.769,0.398,1.201,0.398c0.433,0,0.858-0.141,1.199-0.397
		c0.089-0.066,0.192-0.1,0.301-0.1c0.158,0,0.308,0.075,0.401,0.201c0.164,0.219,0.12,0.533-0.101,0.699
		C13.287,12.764,12.647,12.976,12,12.976z"/>
	<path d="M23,23.979c-0.275,0-0.5-0.225-0.5-0.5v-2.106c0.003-0.462-0.212-0.903-0.574-1.183c-1.271-0.973-4.172-2.603-9.426-2.702
		v5.991c0,0.275-0.224,0.5-0.5,0.5s-0.5-0.225-0.5-0.5v-5.991c-5.23,0.1-8.146,1.73-9.427,2.704C1.711,20.47,1.497,20.91,1.5,21.368
		v2.11c0,0.275-0.224,0.5-0.5,0.5s-0.5-0.225-0.5-0.5v-2.106c-0.005-0.768,0.356-1.506,0.965-1.976
		c1.436-1.09,4.712-2.918,10.535-2.918c5.85,0,9.111,1.828,10.535,2.918c0.608,0.47,0.969,1.209,0.965,1.979v2.104
		C23.5,23.754,23.275,23.979,23,23.979z"/>
	<path d="M14,10.229c-0.413,0-0.75-0.336-0.75-0.75c-0.002-0.198,0.075-0.386,0.216-0.528c0.143-0.143,0.331-0.222,0.53-0.222
		c0.417,0,0.754,0.336,0.754,0.75S14.413,10.229,14,10.229z"/>
	<path d="M10,10.229c-0.414,0-0.75-0.336-0.75-0.75C9.249,9.281,9.326,9.093,9.467,8.951c0.142-0.143,0.33-0.221,0.529-0.222
		c0.417,0,0.754,0.336,0.754,0.75S10.414,10.229,10,10.229z"/>
	<path d="M12,3.729c-0.414,0-0.75-0.336-0.75-0.75c-0.001-0.198,0.076-0.386,0.217-0.528c0.142-0.143,0.33-0.221,0.529-0.222
		c0.417,0,0.754,0.336,0.754,0.75S12.414,3.729,12,3.729z"/>
	<path d="M16.5,23.878c-0.197,0-0.389-0.058-0.554-0.168l-1.001-0.667c-0.279-0.187-0.445-0.497-0.445-0.832v-1.732
		c0-0.275,0.225-0.5,0.5-0.5h2.5c0.552,0,1,0.448,1,1v1.232c0,0.335-0.166,0.646-0.445,0.832l-1,0.667
		C16.889,23.82,16.696,23.878,16.5,23.878z M15.5,22.211l1,0.667l1-0.667v-1.232h-2V22.211z"/>
	<path d="M12,15.979c-2.737,0-5.177-1.751-6.103-4.27c-0.444,1.341-1.094,2.3-1.937,2.858c0.473,0.239,1.037,0.357,1.602,0.357
		c0.288,0,0.574-0.03,0.851-0.09l0.106-0.012c0.234,0,0.439,0.166,0.488,0.395c0.028,0.13,0.004,0.264-0.068,0.376
		s-0.184,0.189-0.315,0.218c-0.342,0.075-0.699,0.113-1.058,0.113c-0.707,0-1.417-0.15-2.057-0.436
		c-0.188-0.099-0.326-0.226-0.422-0.384c-0.14-0.231-0.182-0.503-0.117-0.765c0.063-0.259,0.225-0.479,0.456-0.619
		C5.062,12.64,5.5,9.603,5.5,7.979V5.967C4.991,5.914,4.484,5.516,4.297,4.958L3.772,3.379c-0.038-0.12-0.054-0.24-0.048-0.36
		C3.75,2.493,4.181,2.064,4.688,2.064c0.261,0.017,0.43,0.022,0.597,0.022c1.773,0,3.294-0.668,5.055-1.441
		c0.412-0.181,0.832-0.365,1.269-0.547C11.735,0.046,11.866,0.021,12,0.021s0.266,0.026,0.391,0.077
		c0.435,0.182,0.852,0.364,1.258,0.543c1.789,0.786,3.305,1.451,5.07,1.451c0.164,0,0.33-0.005,0.498-0.018c0.006,0,0.012,0,0.018,0
		c0.153,0,0.253,0.016,0.349,0.047c0.254,0.082,0.462,0.258,0.583,0.497c0.122,0.236,0.145,0.508,0.062,0.762l-0.526,1.578
		c-0.178,0.535-0.649,0.921-1.202,1.004v2.017c0,1.624,0.44,4.662,2.091,5.751c0.214,0.13,0.377,0.354,0.439,0.612
		c0.064,0.26,0.023,0.531-0.117,0.762c-0.096,0.157-0.232,0.284-0.395,0.37c-0.674,0.302-1.367,0.451-2.074,0.451
		c-0.353,0-0.706-0.038-1.053-0.112c-0.13-0.026-0.242-0.104-0.315-0.216c-0.072-0.112-0.097-0.246-0.068-0.377
		c0.048-0.229,0.253-0.396,0.487-0.396l0.104,0.011c0.28,0.061,0.565,0.09,0.847,0.09c0.565,0,1.116-0.118,1.636-0.352
		c-0.873-0.562-1.53-1.523-1.978-2.869C17.178,14.227,14.737,15.979,12,15.979z M6.5,9.479c0,3.032,2.467,5.5,5.5,5.5
		c3.032,0,5.5-2.467,5.5-5.5V6.727c-1.605,1.148-3.492,1.752-5.488,1.752c-2.017,0-3.906-0.604-5.512-1.752V9.479z M7.182,5.984
		c1.405,0.968,3.086,1.495,4.807,1.495c1.74,0,3.424-0.527,4.829-1.495H7.182z M5.247,4.642c0.068,0.205,0.259,0.342,0.475,0.342
		l0.054-0.005h12.506l0.007,0.003c0.23-0.016,0.401-0.149,0.465-0.34l0.524-1.575c-0.191,0.018-0.384,0.025-0.572,0.025
		c-1.959,0-3.567-0.706-5.43-1.524c-0.453-0.199-0.853-0.374-1.268-0.547c-0.446,0.179-0.86,0.361-1.264,0.539
		C8.877,2.38,7.265,3.087,5.288,3.087c-0.189,0-0.381-0.006-0.576-0.02L5.247,4.642z"/>
</g>
</svg>
