
<svg version="1.1" id="target" xmlns="http://www.w3.org/2000/svg" xmlns:xlink="http://www.w3.org/1999/xlink" x="0px" y="0px"
	 viewBox="0 0 24 24" style="enable-background:new 0 0 24 24;" xml:space="preserve">
<title>people-man-12</title>
<g>
	<path d="M12,14.78c-0.648,0-1.288-0.212-1.8-0.596c-0.22-0.165-0.265-0.479-0.101-0.699c0.097-0.129,0.243-0.2,0.401-0.2
		c0.108,0,0.211,0.033,0.298,0.098C11.141,13.64,11.567,13.78,12,13.78s0.858-0.141,1.199-0.396
		c0.093-0.065,0.195-0.099,0.303-0.099c0.159,0,0.305,0.072,0.398,0.199c0.165,0.221,0.12,0.534-0.1,0.7
		C13.287,14.568,12.648,14.78,12,14.78z"/>
	<circle cx="14" cy="11.284" r="0.75"/>
	<circle cx="10" cy="11.284" r="0.75"/>
	<path d="M12,17.784c-3.584,0-6.5-2.916-6.5-6.5V10.51l-3.73-1C1.512,9.44,1.309,9.236,1.24,8.977
		C1.188,8.785,1.215,8.583,1.315,8.409c0.1-0.174,0.262-0.298,0.456-0.35l4.178-1.12c0.123-0.314,0.265-0.613,0.425-0.892
		l-2.232-3.59c-0.152-0.243-0.153-0.547,0-0.792C4.28,1.445,4.518,1.313,4.779,1.313c0.14,0,0.277,0.039,0.396,0.113l3.602,2.24
		c0.629-0.364,1.301-0.617,2.001-0.751l0.498-1.857c0.069-0.261,0.275-0.465,0.538-0.533c0.06-0.016,0.124-0.024,0.188-0.024
		c0.132,0,0.263,0.036,0.378,0.104c0.172,0.101,0.295,0.263,0.345,0.457l0.497,1.853c0.701,0.135,1.373,0.387,2.002,0.751
		l3.604-2.237c0.119-0.073,0.256-0.112,0.396-0.112c0.142,0,0.279,0.04,0.398,0.114c0.171,0.108,0.289,0.275,0.333,0.471
		C20,2.095,19.965,2.296,19.857,2.466l-2.229,3.585c0.16,0.277,0.302,0.575,0.423,0.889l4.178,1.118
		c0.257,0.068,0.461,0.271,0.531,0.529c0.105,0.402-0.133,0.814-0.531,0.92l-3.729,1v0.777C18.5,14.868,15.584,17.784,12,17.784z
		 M10.481,4.021c-0.608,0.175-1.173,0.45-1.683,0.82C8.642,4.955,8.494,5.075,8.351,5.202C8.222,5.318,8.093,5.437,7.975,5.565
		C7.847,5.703,7.733,5.854,7.62,6.005C6.887,6.982,6.5,8.115,6.5,9.284v2c0,3.032,2.467,5.5,5.5,5.5c3.032,0,5.5-2.468,5.5-5.5v-2
		c0-1.172-0.39-2.31-1.127-3.288c-0.11-0.147-0.22-0.293-0.343-0.427c-0.121-0.13-0.252-0.25-0.385-0.37
		c-0.141-0.125-0.287-0.245-0.442-0.357c-0.511-0.371-1.075-0.646-1.684-0.821l0.329,1.229c0.126,0.38,0.125,0.813-0.006,1.207
		c-0.165,0.493-0.511,0.892-0.974,1.123c-0.273,0.136-0.565,0.206-0.867,0.206c-0.209,0-0.417-0.034-0.616-0.1
		c-1.015-0.339-1.566-1.441-1.229-2.457L10.481,4.021z M5.5,9.474v-0.19c0-0.389,0.044-0.786,0.138-1.225L2.93,8.785L5.5,9.474z
		 M18.362,8.059C18.456,8.5,18.5,8.896,18.5,9.284v0.188l2.569-0.689L18.362,8.059z M11.115,5.517
		c-0.171,0.515,0.094,1.055,0.587,1.219c0.098,0.033,0.199,0.05,0.3,0.05c0.146,0,0.286-0.034,0.419-0.1
		c0.226-0.113,0.394-0.307,0.473-0.545c0.064-0.192,0.064-0.403,0-0.595L12,2.217L11.115,5.517z M16.126,4.282
		c0.278,0.235,0.495,0.443,0.696,0.667l0.184,0.21l1.44-2.317L16.126,4.282z M6.998,5.158l0.184-0.212
		C7.382,4.722,7.6,4.513,7.832,4.319l0.043-0.037L5.557,2.841L6.998,5.158z"/>
	<path d="M23,23.784c-0.275,0-0.5-0.225-0.5-0.5v-0.106c0.003-0.461-0.213-0.903-0.576-1.185c-0.796-0.609-2.202-1.454-4.4-2.04
		l-4.941,3.53C12.412,23.605,12.21,23.67,12,23.67c-0.211,0-0.412-0.064-0.582-0.187l-4.94-3.529
		c-2.195,0.587-3.604,1.433-4.404,2.043c-0.361,0.278-0.576,0.72-0.574,1.179v0.108c0,0.275-0.224,0.5-0.5,0.5s-0.5-0.225-0.5-0.5
		v-0.106c-0.004-0.767,0.356-1.505,0.964-1.975c0.308-0.234,0.655-0.467,1.036-0.691v-2.624c0-0.199,0.078-0.388,0.219-0.53
		c0.141-0.139,0.329-0.215,0.532-0.215c0.2,0,0.394,0.078,0.53,0.215l1.812,1.812c1.908-0.588,4.062-0.886,6.407-0.886
		c2.347,0,4.502,0.298,6.409,0.884l1.811-1.811c0.142-0.142,0.33-0.22,0.53-0.22s0.389,0.078,0.53,0.22s0.22,0.33,0.22,0.53v2.622
		c0.378,0.223,0.725,0.455,1.034,0.692c0.609,0.471,0.97,1.211,0.966,1.979v0.104C23.5,23.56,23.275,23.784,23,23.784z M12,22.671
		l4.217-3.013c-1.312-0.248-2.728-0.374-4.217-0.374c-1.486,0-2.901,0.126-4.216,0.375L12,22.671z M3.5,19.979
		c0.334-0.159,0.682-0.309,1.041-0.446L3.5,18.491V19.979z M19.46,19.531c0.359,0.138,0.707,0.287,1.04,0.446v-1.486L19.46,19.531z"
		/>
</g>
</svg>
