<svg id="target" xmlns="http://www.w3.org/2000/svg" viewBox="0 0 24 24"><title>people-man-12</title><path d="M4.752,18.514a.248.248,0,0,0,.165-.18.245.245,0,0,0-.066-.234l-1.5-1.5a.5.5,0,0,0-.854.353v2.081a.25.25,0,0,0,.356.226A16.528,16.528,0,0,1,4.752,18.514Z"/><path d="M21.144,19.262a.25.25,0,0,0,.356-.226V16.955a.5.5,0,0,0-.854-.353l-1.5,1.5a.25.25,0,0,0,.1.415A16.418,16.418,0,0,1,21.144,19.262Z"/><path d="M22.761,21.369A15.019,15.019,0,0,0,16.4,18.832a.246.246,0,0,0-.2.047l-3.9,2.974a.5.5,0,0,1-.606,0l-3.9-2.974a.246.246,0,0,0-.2-.047,15.03,15.03,0,0,0-6.359,2.537,2.449,2.449,0,0,0-.988,1.98v.106a.5.5,0,0,0,.5.5h22.5a.5.5,0,0,0,.5-.5v-.106A2.447,2.447,0,0,0,22.761,21.369Z"/><path d="M14.321,17.552A7.007,7.007,0,0,0,19,10.955v-.172a.249.249,0,0,1,.185-.241l3.944-1.057a.5.5,0,0,0,0-.966L18.953,7.4a.251.251,0,0,1-.178-.18,6.957,6.957,0,0,0-.4-1.139.248.248,0,0,1,.016-.235l2.537-4.081a.5.5,0,0,0-.688-.69l0,0L16.508,3.4a.249.249,0,0,1-.283-.013,6.984,6.984,0,0,0-1.751-.973.25.25,0,0,0-.33.3l.524,1.956a.249.249,0,0,0,.1.143A4.99,4.99,0,0,1,17,8.955v2a5,5,0,0,1-10,0v-2a4.99,4.99,0,0,1,2.232-4.15.244.244,0,0,0,.1-.143l.523-1.954a.251.251,0,0,0-.33-.3,7.043,7.043,0,0,0-1.752.974.249.249,0,0,1-.283.013L3.762,1.077a.5.5,0,0,0-.689.689L5.61,5.847a.251.251,0,0,1,.016.235,6.913,6.913,0,0,0-.4,1.138.251.251,0,0,1-.178.18L.871,8.519a.5.5,0,0,0,0,.966l3.944,1.057A.249.249,0,0,1,5,10.783v.172a6.983,6.983,0,0,0,9.321,6.6Z"/><circle cx="14" cy="10.475" r="1"/><circle cx="10" cy="10.475" r="1"/><path d="M13.077,12.587h-2a.639.639,0,0,0-.3,1.2,2.374,2.374,0,0,0,.437.182,4.562,4.562,0,0,0,.86.124H12.1a2.977,2.977,0,0,0,.85-.125,2.3,2.3,0,0,0,.436-.181.639.639,0,0,0-.3-1.2Z"/><path d="M10.16,5.439l0,.014a1.942,1.942,0,1,0,3.693.015l0-.012L12.483.373a.519.519,0,0,0-.966,0Z"/></svg>
