
<svg version="1.1" id="target" xmlns="http://www.w3.org/2000/svg" xmlns:xlink="http://www.w3.org/1999/xlink" x="0px" y="0px"
	 viewBox="0 0 24 24" style="enable-background:new 0 0 24 24;" xml:space="preserve">
<title>startup-launch-1</title>
<g>
	<path d="M9,4.5C8.724,4.5,8.5,4.276,8.5,4V3.5H8C7.724,3.5,7.5,3.276,7.5,3S7.724,2.5,8,2.5h0.5V2c0-0.276,0.224-0.5,0.5-0.5
		S9.5,1.724,9.5,2v0.5H10c0.276,0,0.5,0.224,0.5,0.5S10.276,3.5,10,3.5H9.5V4C9.5,4.276,9.276,4.5,9,4.5z"/>
	<path d="M16,23.5c-0.275,0-0.5-0.225-0.5-0.5v-0.5H15c-0.275,0-0.5-0.225-0.5-0.5s0.225-0.5,0.5-0.5h0.5V21
		c0-0.275,0.225-0.5,0.5-0.5s0.5,0.225,0.5,0.5v0.5H17c0.275,0,0.5,0.225,0.5,0.5s-0.225,0.5-0.5,0.5h-0.5V23
		C16.5,23.275,16.275,23.5,16,23.5z"/>
	<path d="M21,21.5c-0.275,0-0.5-0.225-0.5-0.5v-0.5H20c-0.275,0-0.5-0.225-0.5-0.5s0.225-0.5,0.5-0.5h1.7
		c0.272,0,0.524-0.135,0.673-0.361c0.117-0.179,0.157-0.392,0.113-0.602c-0.043-0.209-0.165-0.389-0.343-0.506L20.3,16.803
		c-0.512-0.335-0.815-0.902-0.81-1.517c0.003-0.48,0.194-0.931,0.536-1.269c0.34-0.334,0.788-0.518,1.263-0.518H21.5V13
		c0-0.276,0.225-0.5,0.5-0.5s0.5,0.224,0.5,0.5v0.5H23c0.275,0,0.5,0.225,0.5,0.5s-0.225,0.5-0.5,0.5h-1.7
		c-0.247,0.02-0.43,0.091-0.572,0.23c-0.151,0.149-0.235,0.351-0.237,0.563c-0.002,0.272,0.133,0.524,0.361,0.675l1.843,1.229
		c0.399,0.262,0.675,0.666,0.772,1.137c0.098,0.472,0.006,0.952-0.258,1.354c-0.335,0.509-0.897,0.812-1.506,0.812H21.5V21
		C21.5,21.275,21.275,21.5,21,21.5z"/>
	<path d="M2,9.5C1.724,9.5,1.5,9.276,1.5,9V8.5H1C0.724,8.5,0.5,8.276,0.5,8S0.724,7.5,1,7.5h1.7c0.277,0,0.527-0.135,0.676-0.361
		C3.493,6.96,3.534,6.747,3.491,6.537C3.447,6.328,3.325,6.148,3.146,6.031L1.303,4.803c-0.51-0.334-0.813-0.9-0.81-1.513
		c0.003-0.481,0.192-0.932,0.534-1.27C1.342,1.708,1.791,1.524,2.29,1.5l0.21,0V1c0-0.276,0.224-0.5,0.5-0.5S3.5,0.724,3.5,1v0.5H4
		c0.276,0,0.5,0.224,0.5,0.5S4.276,2.5,4,2.5H2.3c-0.219,0-0.419,0.082-0.569,0.231C1.579,2.882,1.494,3.083,1.493,3.296
		C1.492,3.568,1.626,3.82,1.854,3.969l1.843,1.228c0.4,0.262,0.675,0.667,0.772,1.137c0.098,0.47,0.007,0.951-0.257,1.354
		C3.877,8.196,3.315,8.5,2.708,8.5H2.5V9C2.5,9.276,2.276,9.5,2,9.5z"/>
	<path d="M3,22c-0.137,0-0.269-0.057-0.363-0.156C2.539,21.739,2.49,21.6,2.502,21.46c0.009-0.124,0.246-3.077,1.367-4.197
		c0.367-0.367,0.823-0.573,1.321-0.597c0.617,0.001,1.239,0.321,1.863,0.951c1.53,1.543,0.877,2.655,0.352,3.181
		C6.307,21.895,3.345,21.992,3.011,22H3.008H3z M5.198,17.666c-0.218,0-0.415,0.097-0.622,0.304c-0.607,0.608-0.899,2.202-1.011,3
		c1.189-0.094,2.622-0.368,3.132-0.879c0.347-0.348,0.577-0.83-0.356-1.771c-0.423-0.427-0.818-0.653-1.142-0.654l0-0.25
		L5.198,17.666z"/>
	<path d="M10.555,21.31c-0.268,0-0.519-0.104-0.708-0.292c-0.139-0.137-0.233-0.313-0.273-0.509l-0.495-2.474l-2.615-2.614
		l-2.471-0.495c-0.192-0.036-0.37-0.132-0.512-0.275c-0.388-0.389-0.387-1.022,0.002-1.412l1.956-1.957
		c0.464-0.465,1.109-0.732,1.769-0.732c0.307,0,0.606,0.055,0.893,0.165l0.708,0.271l3.5-5.145c0.616-1.01,1.761-1.645,2.981-1.645
		c0.102,0,0.203,0.005,0.306,0.014l3.656,0.333l0.895-0.895C20.241,3.552,20.366,3.5,20.5,3.5s0.259,0.052,0.354,0.146
		c0.195,0.195,0.195,0.512,0,0.707l-0.895,0.895l0.332,3.655c0.125,1.316-0.523,2.612-1.652,3.301l-5.124,3.486l0.271,0.71
		c0.352,0.92,0.129,1.964-0.567,2.66l-1.957,1.957C11.074,21.206,10.823,21.31,10.555,21.31z M10.554,20.312l1.958-1.958
		c0.418-0.418,0.552-1.045,0.341-1.598l-0.187-0.487l-2.57,1.748L10.554,20.312z M9.601,17.143l2.525-1.718l-3.052-3.051
		l-1.717,2.526L9.601,17.143z M12.968,14.853l5.13-3.488c0.821-0.502,1.287-1.429,1.197-2.367l-0.316-3.477l-3.474-0.316
		c-0.079-0.007-0.156-0.011-0.233-0.011c-0.861,0-1.675,0.455-2.123,1.188l-3.501,5.15L12.968,14.853z M7.208,11.549
		c-0.396,0-0.783,0.16-1.062,0.439L4.19,13.945l2.294,0.46l1.748-2.571l-0.489-0.187C7.572,11.582,7.392,11.549,7.208,11.549z"/>
	<path d="M15.55,10.95c-1.103,0-2-0.897-2-2s0.897-2,2-2s2,0.897,2,2S16.652,10.95,15.55,10.95z M15.55,7.95c-0.552,0-1,0.449-1,1
		s0.448,1,1,1s1-0.449,1-1S16.102,7.95,15.55,7.95z"/>
</g>
</svg>
