<svg id="target" xmlns="http://www.w3.org/2000/svg" xmlns:xlink="http://www.w3.org/1999/xlink" x="0px" y="0px"
	 viewBox="0 0 24 24" style="enable-background:new 0 0 24 24;" xml:space="preserve">
<title>ecology-globe-house</title>
<g>
	<path d="M12,24c-3.422,0-6.645-1.516-8.843-4.158C1.437,17.766,0.5,15.165,0.5,12.5C0.5,12.224,0.724,12,1,12h22
		c0.275,0,0.5,0.224,0.5,0.5C23.5,18.841,18.341,24,12,24z M4.675,20c1.959,1.913,4.597,3,7.325,3c1.183,0,2.358-0.206,3.5-0.612
		V19.5c0-1.379,1.121-2.5,2.5-2.5h3.473c0.608-1.273,0.949-2.617,1.016-4H7.5v0.5C7.5,14.327,8.173,15,9,15
		c1.378,0,2.5,1.121,2.5,2.5S10.378,20,9,20H4.675z M18,18c-0.827,0-1.5,0.673-1.5,1.5v2.479c1.824-0.87,3.379-2.265,4.44-3.979H18z
		 M9,19c0.827,0,1.5-0.673,1.5-1.5S9.827,16,9,16c-1.378,0-2.5-1.121-2.5-2.5V13H1.512c0.103,2.193,0.88,4.261,2.258,6H9z"/>
	<path d="M18,11c-0.275,0-0.5-0.224-0.5-0.5V5.25L12,1.125L6.5,5.25v5.25C6.5,10.776,6.276,11,6,11s-0.5-0.224-0.5-0.5V6L4.3,6.9
		C4.213,6.965,4.109,7,4.001,7c-0.157,0-0.306-0.075-0.4-0.199C3.435,6.579,3.48,6.266,3.7,6.1l8-6C11.788,0.035,11.891,0,12,0
		s0.212,0.035,0.299,0.1L14.5,1.75V0.5C14.5,0.224,14.725,0,15,0h3c0.275,0,0.5,0.224,0.5,0.5v4.25l1.801,1.35
		c0.221,0.166,0.265,0.48,0.1,0.701C20.307,6.925,20.157,7,20,7c-0.109,0-0.213-0.035-0.301-0.1L18.5,6v4.5
		C18.5,10.776,18.275,11,18,11z M17.5,4V1h-2v1.5L17.5,4z"/>
	<path d="M13.5,11c-0.275,0-0.5-0.224-0.5-0.5V8c0-0.551-0.449-1-1-1s-1,0.449-1,1v2.5c0,0.276-0.224,0.5-0.5,0.5S10,10.776,10,10.5
		V8c0-1.103,0.897-2,2-2c1.103,0,2,0.897,2,2v2.5C14,10.776,13.775,11,13.5,11z"/>
</g>
</svg>
