<svg id="target" xmlns="http://www.w3.org/2000/svg" viewBox="0 0 24 24"><title>design-tool-pens</title><path d="M20.375,8.772a3.973,3.973,0,0,1-1.895-.478.252.252,0,0,0-.23,0,.248.248,0,0,0-.136.185,19.387,19.387,0,0,0-.239,3.025,57.262,57.262,0,0,0,1.4,11.619,1.132,1.132,0,0,0,2.207,0,57.358,57.358,0,0,0,1.4-11.619,19.387,19.387,0,0,0-.239-3.025A.248.248,0,0,0,22.5,8.29a.252.252,0,0,0-.23,0A3.973,3.973,0,0,1,20.375,8.772Z"/><path d="M20.71.1a.75.75,0,0,0-1.076.786c.114.731-.171,1.032-.773,1.591a3,3,0,0,0-1.236,2.293,2.75,2.75,0,0,0,5.5,0C23.125,3.094,22.279.886,20.71.1Z"/><path d="M11.375,6a.5.5,0,0,0-.5.5v13a.5.5,0,0,0,.5.5h3a.5.5,0,0,0,.5-.5V6.5a.5.5,0,0,0-.5-.5Z"/><path d="M5.875,0a2,2,0,0,0-2,2V3.5a.5.5,0,0,0,.5.5h3a.5.5,0,0,0,.5-.5V2A2,2,0,0,0,5.875,0Z"/><path d="M7.375,5h-3a3.5,3.5,0,0,0-3.5,3.5v6.25a.75.75,0,0,0,1.5,0V8.5A2,2,0,0,1,3.518,6.693a.25.25,0,0,1,.357.226V18a.5.5,0,0,0,.5.5h3a.5.5,0,0,0,.5-.5V5.5A.5.5,0,0,0,7.375,5Z"/><path d="M13.343.324a.521.521,0,0,0-.936,0l-1.5,4A.5.5,0,0,0,11.375,5h3a.5.5,0,0,0,.468-.676Z"/><path d="M14.375,21h-3a.5.5,0,0,0-.5.5V22a2,2,0,0,0,4,0v-.5A.5.5,0,0,0,14.375,21Z"/><path d="M7.375,19.5h-3a.5.5,0,0,0-.459.7l1.5,3.5a.5.5,0,0,0,.918,0l1.5-3.5A.5.5,0,0,0,7.375,19.5Z"/></svg>
