
<svg version="1.1" id="target" xmlns="http://www.w3.org/2000/svg" xmlns:xlink="http://www.w3.org/1999/xlink" x="0px" y="0px"
	 viewBox="0 0 24 24" style="enable-background:new 0 0 24 24;" xml:space="preserve">
<title>firewall</title>
<g>
	<path d="M1.5,24C0.673,24,0,23.327,0,22.5v-8C0,13.673,0.673,13,1.5,13h21c0.827,0,1.5,0.673,1.5,1.5v8c0,0.827-0.673,1.5-1.5,1.5
		H1.5z M22.5,23c0.275,0,0.5-0.225,0.5-0.5v-2h-6V23H22.5z M16,23v-2.5H5V23H16z M1,22.5C1,22.775,1.224,23,1.5,23H4v-2.5H1V22.5z
		 M23,19.5V17H11.5v2.5H23z M10.5,19.5V17H1v2.5H10.5z M23,16v-1.5c0-0.275-0.225-0.5-0.5-0.5H17v2H23z M16,16v-2H5v2H16z M4,16v-2
		H1.5C1.224,14,1,14.225,1,14.5V16H4z"/>
	<path d="M8.088,12c-0.122-0.016-0.24-0.084-0.321-0.19c-0.081-0.106-0.116-0.238-0.098-0.371c0.244-1.814,1.345-3.427,2.946-4.314
		c0.146-0.084,0.317-0.131,0.492-0.131c0.086,0,0.173,0.011,0.257,0.034c0.258,0.067,0.474,0.232,0.609,0.463
		c0.141,0.243,0.174,0.535,0.091,0.802c-0.23,0.77-0.175,1.623,0.148,2.364c0.205-0.047,0.386-0.183,0.484-0.369
		c0.197-0.321,0.52-0.504,0.873-0.504c0.184,0,0.363,0.051,0.52,0.147c0.057,0.036,0.107,0.073,0.152,0.115
		c0.377,0.355,0.671,0.797,0.852,1.278c0.096,0.259-0.036,0.547-0.293,0.644l-0.043,0.016L14.624,12
		c-0.21,0-0.395-0.127-0.469-0.325c-0.126-0.338-0.332-0.648-0.596-0.897c-0.277,0.542-0.87,0.899-1.498,0.899l0,0
		c-0.072,0-0.145-0.005-0.218-0.014c-0.157-0.019-0.299-0.114-0.377-0.256c-0.566-1.034-0.697-2.276-0.36-3.406
		c-1.331,0.734-2.245,2.07-2.447,3.572c-0.032,0.247-0.245,0.434-0.495,0.434L8.088,12z"/>
	<path d="M4.45,12c-0.212,0-0.401-0.135-0.472-0.336C3.051,9.008,3.605,6.025,5.425,3.88C5.645,3.651,5.917,3.531,6.2,3.531
		c0.256,0,0.499,0.099,0.684,0.278l0.872,0.85c1.569-2.479,4.207-4.181,7.119-4.576c0.044-0.006,0.088-0.009,0.133-0.009
		c0.105,0,0.21,0.016,0.31,0.047c0.255,0.083,0.462,0.259,0.583,0.497c0.122,0.236,0.145,0.508,0.062,0.762
		c-0.487,1.51-0.567,3.104-0.238,4.642l1.252-1.568c0.094-0.119,0.236-0.188,0.391-0.188h0.261c0.163,0,0.316,0.08,0.41,0.215
		c1.456,2.091,1.823,4.776,0.983,7.184c-0.07,0.2-0.261,0.335-0.473,0.335h-0.043l-0.123-0.029
		c-0.258-0.089-0.396-0.375-0.307-0.635c0.682-1.953,0.452-4.132-0.607-5.896l-1.578,1.978c-0.096,0.12-0.239,0.188-0.393,0.188
		c-0.269-0.041-0.417-0.17-0.474-0.345C14.363,5.239,14.358,3.1,15.01,1.074C12.176,1.458,9.669,3.188,8.303,5.7
		C8.229,5.837,8.092,5.933,7.939,5.956c-0.011,0-0.021,0-0.032,0c-0.188,0-0.304-0.05-0.393-0.137L6.188,4.526
		c-1.587,1.871-2.076,4.485-1.266,6.809c0.044,0.125,0.037,0.261-0.021,0.382s-0.16,0.211-0.286,0.255l-0.04,0.014L4.45,12z"/>
</g>
</svg>
