
<svg version="1.1" id="target" xmlns="http://www.w3.org/2000/svg" xmlns:xlink="http://www.w3.org/1999/xlink" x="0px" y="0px"
	 viewBox="0 0 24 24" style="enable-background:new 0 0 24 24;" xml:space="preserve">
<g>
	<title>graphic-tablet-draw</title>
	<path d="M2.25,24.002c-1.241,0-2.25-1.009-2.25-2.25V7.502c0-1.241,1.009-2.25,2.25-2.25h9c0.414,0,0.75,0.336,0.75,0.75
		s-0.336,0.75-0.75,0.75h-9c-0.414,0-0.75,0.336-0.75,0.75v14.25c0,0.414,0.336,0.75,0.75,0.75h19.5c0.414,0,0.75-0.336,0.75-0.75
		v-12c0-0.414,0.336-0.75,0.75-0.75S24,9.338,24,9.752v12c0,1.241-1.009,2.25-2.25,2.25H2.25z"/>
	<path d="M4.5,21.002c-0.827,0-1.5-0.673-1.5-1.5v-9.75c0-0.827,0.673-1.5,1.5-1.5h5.25c0.414,0,0.75,0.336,0.75,0.75
		s-0.336,0.75-0.75,0.75H4.5v9.75h11.473v-2.979c0-0.414,0.336-0.75,0.75-0.75H19.5v-3.771c0-0.414,0.336-0.75,0.75-0.75
		S21,11.588,21,12.002v7.5c0,0.827-0.673,1.5-1.5,1.5H4.5z M19.5,19.502v-2.229h-2.027v2.229H19.5z"/>
	<path d="M12.348,14.72c-0.163,0-0.323-0.054-0.453-0.152c-0.2-0.151-0.311-0.392-0.296-0.643l0.228-3.817
		c0.009-0.149,0.062-0.291,0.152-0.409l6.51-8.562c0.545-0.72,1.378-1.134,2.286-1.134c0.628,0,1.224,0.2,1.725,0.578
		c0.617,0.467,1.015,1.142,1.12,1.899c0.105,0.758-0.091,1.511-0.552,2.121c-0.001,0.001-6.512,8.564-6.512,8.564
		c-0.09,0.118-0.211,0.206-0.351,0.254l-3.611,1.258C12.517,14.705,12.433,14.72,12.348,14.72z M13.164,12.891l2.335-0.813
		l6.372-8.38c0.219-0.29,0.313-0.649,0.263-1.011c-0.05-0.361-0.238-0.681-0.529-0.901c-0.243-0.184-0.532-0.281-0.834-0.281
		c-0.432,0-0.828,0.196-1.087,0.539l-6.373,8.382L13.164,12.891z"/>
	<path d="M9.672,18.564c-0.793,0-1.548-0.255-2.185-0.736c-0.773-0.586-1.272-1.437-1.405-2.398
		c-0.133-0.961,0.116-1.916,0.702-2.689c0.681-0.9,1.762-1.438,2.891-1.439c0.414,0,0.75,0.336,0.751,0.749
		c0,0.201-0.078,0.389-0.219,0.531c-0.142,0.142-0.33,0.22-0.53,0.22c-0.662,0.001-1.297,0.317-1.696,0.845
		c-0.344,0.454-0.49,1.014-0.412,1.578c0.078,0.564,0.371,1.063,0.825,1.407c0.374,0.283,0.817,0.432,1.281,0.432
		c0.099,0,0.198-0.007,0.297-0.021c0.564-0.078,1.063-0.371,1.407-0.824c0.141-0.186,0.365-0.297,0.599-0.297
		c0.165,0,0.321,0.052,0.452,0.152c0.16,0.121,0.263,0.297,0.29,0.495c0.028,0.198-0.024,0.396-0.145,0.555
		c-0.585,0.773-1.437,1.272-2.397,1.405C10.01,18.553,9.84,18.564,9.672,18.564z"/>
</g>
</svg>
