
<svg version="1.1" id="target" xmlns="http://www.w3.org/2000/svg" xmlns:xlink="http://www.w3.org/1999/xlink" x="0px" y="0px"
	 viewBox="0 0 24 24" style="enable-background:new 0 0 24 24;" xml:space="preserve">
<g>
	<title>business-trip-plane</title>
	<path d="M6.5,11.25c-0.334,0-0.648-0.13-0.884-0.366C5.38,10.648,5.25,10.334,5.25,10V9.563C3.258,9.119,0.075,7.781,0.002,6.36
		C-0.024,5.89,0.237,5.368,0.777,4.81c1.192-1.234,3.638-2.562,6.19-2.562c0.052,0,0.105,0.001,0.157,0.002l9.502,0l1.951-1.571
		c0.458-0.442,1.087-0.696,1.727-0.696c0.096,0,0.192,0.006,0.287,0.017H22.5c0.26,0,0.505,0.138,0.641,0.36
		c0.135,0.222,0.145,0.503,0.026,0.734l-2.145,4.155h0.271c0.414,0,0.75,0.336,0.75,0.75s-0.336,0.75-0.75,0.75h-1.045L19.514,8.17
		c-0.01,0.02-0.022,0.041-0.035,0.061c-0.602,0.938-1.668,1.52-2.783,1.52L16.609,9.75l-2.81,0c-1.343,1.362-1.866,1.5-2.786,1.5
		H6.5z M11.068,9.75c0.378,0,0.585,0,1.38-0.77C11.849,8.369,11.641,8.216,11,8.216H6.75V9.75L11.068,9.75z M16.63,8.25l0.064,0.001
		c0.599,0,1.174-0.307,1.505-0.803l0.361-0.699h-0.201c-0.414,0-0.75-0.336-0.75-0.75s0.336-0.75,0.75-0.75h0.975L21.269,1.5h-0.726
		c-0.035,0-0.07-0.002-0.105-0.007c-0.045-0.006-0.09-0.009-0.135-0.009c-0.261,0-0.515,0.105-0.698,0.287
		c-0.02,0.02-0.039,0.037-0.059,0.053l-2.186,1.76c-0.133,0.107-0.3,0.166-0.471,0.166H7.108c-0.05-0.001-0.091-0.001-0.133-0.001
		c-2.264,0-4.302,1.258-5.12,2.104C1.672,6.042,1.574,6.185,1.529,6.268c0.33,0.378,1.97,1.314,3.721,1.758V7.972
		c-0.004-0.326,0.122-0.64,0.355-0.879c0.233-0.239,0.546-0.373,0.88-0.377c0.001,0,4.515,0,4.515,0
		c1.341,0,1.889,0.564,2.719,1.418l0.113,0.116H16.63z"/>
	<path d="M11.927,23.999c-0.787,0-1.427-0.64-1.427-1.427v-6.896c0-0.787,0.64-1.427,1.427-1.427h2.023l0.785-1.569
		c0.332-0.871,1.146-1.432,2.08-1.432c0.038,0,0.076,0.001,0.114,0.003l0.94-0.001c0.02-0.002,0.06-0.003,0.099-0.003
		c0.906,0,1.73,0.575,2.058,1.433l0.785,1.569h1.762c0.787,0,1.427,0.64,1.427,1.427v6.896c0,0.787-0.64,1.427-1.427,1.427H11.927z
		 M22.5,22.499v-3H18v1.305c0,0.414-0.336,0.75-0.75,0.75s-0.75-0.336-0.75-0.75v-1.305H12v3H22.5z M22.5,17.999v-2.25h-2.125
		c-0.009,0.001-0.018,0.001-0.026,0.001c-0.009,0-0.017,0-0.026-0.001H12v2.25H22.5z M19.133,14.249l-0.468-0.935
		c-0.014-0.029-0.026-0.056-0.036-0.084c-0.103-0.289-0.378-0.483-0.685-0.483l-0.038,0.001l-1.016,0.001l-0.063-0.002
		c-0.324,0-0.591,0.185-0.697,0.483c-0.01,0.028-0.022,0.055-0.034,0.081l-0.469,0.937H19.133z"/>
	<path d="M8.25,5.999c-0.414,0-0.75-0.336-0.75-0.75s0.336-0.75,0.75-0.75H9c0.414,0,0.75,0.336,0.75,0.75S9.413,5.999,9,5.999H8.25
		z"/>
	<path d="M12.75,5.999c-0.414,0-0.75-0.336-0.75-0.75s0.336-0.75,0.75-0.75h0.75c0.414,0,0.75,0.336,0.75,0.75
		s-0.336,0.75-0.75,0.75H12.75z"/>
</g>
</svg>
