
<svg version="1.1" id="target" xmlns="http://www.w3.org/2000/svg" xmlns:xlink="http://www.w3.org/1999/xlink" x="0px" y="0px"
	 viewBox="0 0 24 24" style="enable-background:new 0 0 24 24;" xml:space="preserve">
<g>
	<title>ecology-globe-house</title>
	<path d="M12.018,23.993c-0.29,0-0.586-0.011-0.879-0.032c-2.355-0.169-4.593-1.033-6.475-2.498c-0.102-0.049-0.191-0.12-0.26-0.209
		c-2.547-2.095-4.14-5.155-4.373-8.402c-0.054-0.83,0.574-1.547,1.399-1.6c0.034-0.002,0.065-0.003,0.097-0.003H6V6.639L5.002,7.538
		C4.864,7.662,4.686,7.731,4.5,7.731c-0.212,0-0.415-0.09-0.557-0.248C3.667,7.175,3.691,6.7,3.998,6.424l6.493-5.847
		c0.415-0.373,0.95-0.579,1.505-0.579s1.09,0.206,1.505,0.579l3.748,3.372V1.499c0-0.414,0.336-0.75,0.75-0.75s0.75,0.336,0.75,0.75
		v3.799l1.251,1.126c0.308,0.276,0.333,0.752,0.056,1.059C19.916,7.64,19.713,7.731,19.5,7.731c-0.186,0-0.364-0.068-0.502-0.193
		L18,6.64v4.609h4.473c0.828,0,1.501,0.674,1.501,1.502c0,0.034-0.001,0.07-0.004,0.105c-0.23,3.195-1.691,6.111-4.115,8.208
		C17.674,22.953,14.891,23.993,12.018,23.993z M5.823,20.463c1.595,1.17,3.465,1.861,5.424,2.002
		c0.255,0.018,0.514,0.028,0.768,0.028c2.514,0,4.95-0.91,6.858-2.562c0.659-0.571,1.242-1.218,1.74-1.929h-0.592
		c-1.105,0-2.038-0.79-2.22-1.879l-0.562-3.374H9.023l0.239,0.953c0.045,0.18,0.067,0.363,0.067,0.546
		c0,0.601-0.234,1.166-0.659,1.591c-0.425,0.425-0.99,0.659-1.591,0.659H6.615L5.823,20.463z M1.543,12.749
		c-0.013,0.002-0.018,0.006-0.018,0.006c0.181,2.478,1.237,4.792,2.994,6.578l0.746-3.731c0.07-0.349,0.379-0.603,0.735-0.603h1.079
		c0.2,0,0.389-0.078,0.53-0.22s0.22-0.33,0.22-0.531c0-0.061-0.008-0.122-0.023-0.183l-0.33-1.317H1.543z M19.281,15.876
		c0.061,0.363,0.372,0.626,0.74,0.626h1.469c0.559-1.176,0.89-2.438,0.985-3.757c0,0.002-0.001,0.003-0.001,0.003
		c-0.001,0-0.002-0.003-0.002-0.003l-3.71,0.004L19.281,15.876z M16.5,11.249V5.291l-4.001-3.6
		c-0.139-0.125-0.317-0.193-0.502-0.193s-0.363,0.069-0.502,0.193L7.5,5.289v5.96H9v-1.5c0-1.654,1.346-3,3-3c1.654,0,3,1.346,3,3
		v1.5H16.5z M13.5,11.249v-1.5c0-0.827-0.673-1.5-1.5-1.5s-1.5,0.673-1.5,1.5v1.5H13.5z"/>
</g>
</svg>
