
<svg version="1.1" id="target" xmlns="http://www.w3.org/2000/svg" xmlns:xlink="http://www.w3.org/1999/xlink" x="0px" y="0px"
	 viewBox="0 0 24 24" style="enable-background:new 0 0 24 24;" xml:space="preserve">
<title>design-pen-tool</title>
<g>
	<circle cx="4" cy="3" r="0.75"/>
	<circle cx="7" cy="3" r="0.75"/>
	<circle cx="10" cy="3" r="0.75"/>
	<path d="M2.5,24C1.122,24,0,22.879,0,21.5v-19C0,1.122,1.122,0,2.5,0h19C22.879,0,24,1.122,24,2.5v19c0,1.379-1.121,2.5-2.5,2.5
		H2.5z M1,21.5C1,22.327,1.673,23,2.5,23h19c0.827,0,1.5-0.673,1.5-1.5V6H1V21.5z M23,5V2.5C23,1.673,22.327,1,21.5,1h-19
		C1.673,1,1,1.673,1,2.5V5H23z"/>
	<path d="M4,21c-0.551,0-1-0.448-1-1V9c0-0.551,0.449-1,1-1h2c0.551,0,1,0.449,1,1v11c0,0.552-0.449,1-1,1H4z M4,20h2v-2H4V20z
		 M6,17v-2H4v2H6z M6,14v-2H4v2H6z M6,11V9L4,9v2H6z"/>
	<path d="M15,21c-0.552,0-1-0.448-1-1v-4c0-0.552,0.448-1,1-1h1c0.118,0,0.233,0.042,0.323,0.118L17.369,16H20c0.552,0,1,0.448,1,1
		v3c0,0.552-0.448,1-1,1H15z M15,20h5v-3h-2.813c-0.118,0-0.233-0.042-0.323-0.118L15.817,16H15V20z"/>
	<path d="M10,15.999c-0.574,0-1.106-0.333-1.354-0.85c-0.359-0.745-0.044-1.644,0.701-2.003c0.2-0.095,0.41-0.143,0.627-0.143
		c0.384,0,0.761,0.157,1.042,0.428l6.523-3.691c-0.046-0.233-0.04-0.449,0.02-0.654c0.11-0.385,0.364-0.704,0.715-0.898
		c0.223-0.122,0.473-0.186,0.725-0.186c0.547,0,1.051,0.296,1.314,0.772c0.194,0.35,0.24,0.755,0.129,1.141
		c-0.11,0.385-0.364,0.704-0.715,0.898c-0.223,0.123-0.473,0.188-0.725,0.188c-0.139,0-0.278-0.02-0.415-0.059
		c-0.204-0.058-0.389-0.166-0.562-0.328l-6.564,3.713c0.078,0.637-0.239,1.244-0.813,1.522C10.441,15.949,10.224,15.999,10,15.999z
		 M9.995,13.999c-0.075,0-0.147,0.017-0.213,0.049c-0.122,0.059-0.212,0.159-0.256,0.285c-0.044,0.127-0.037,0.263,0.021,0.383
		C9.629,14.889,9.807,15,9.998,15c0.074,0,0.146-0.017,0.214-0.05c0.249-0.12,0.354-0.418,0.237-0.665
		C10.364,14.108,10.19,13.999,9.995,13.999z M18.998,9.001c-0.084,0-0.166,0.021-0.239,0.062c-0.117,0.065-0.202,0.171-0.239,0.3
		c-0.037,0.128-0.021,0.263,0.043,0.38c0.064,0.116,0.171,0.201,0.3,0.238c0.045,0.013,0.093,0.02,0.14,0.02
		c0.084,0,0.165-0.021,0.24-0.062c0.117-0.065,0.202-0.171,0.238-0.299c0.037-0.129,0.021-0.264-0.043-0.381
		C19.35,9.1,19.181,9.001,18.998,9.001z"/>
</g>
</svg>
