
<svg version="1.1" id="target" xmlns="http://www.w3.org/2000/svg" xmlns:xlink="http://www.w3.org/1999/xlink" x="0px" y="0px"
	 viewBox="0 0 24 24" style="enable-background:new 0 0 24 24;" xml:space="preserve">
<g>
	<title>design-tool-layout</title>
	<path d="M2.25,24C1.009,24,0,22.991,0,21.75V2.25C0,1.009,1.009,0,2.25,0h19.5C22.991,0,24,1.009,24,2.25v19.5
		c0,1.241-1.009,2.25-2.25,2.25H2.25z M2.25,1.5C1.836,1.5,1.5,1.836,1.5,2.25v19.5c0,0.414,0.336,0.75,0.75,0.75h19.5
		c0.414,0,0.75-0.336,0.75-0.75V2.25c0-0.414-0.336-0.75-0.75-0.75H2.25z"/>
	<path d="M14.25,21c-0.827,0-1.5-0.673-1.5-1.5V18c0-0.827,0.673-1.5,1.5-1.5h4.5c0.827,0,1.5,0.673,1.5,1.5v1.5
		c0,0.827-0.673,1.5-1.5,1.5H14.25z M14.25,19.5h4.5V18h-4.5V19.5z"/>
	<path d="M4.5,21c-0.414,0-0.75-0.336-0.75-0.75S4.086,19.5,4.5,19.5h3c0.414,0,0.75,0.336,0.75,0.75S7.914,21,7.5,21H4.5z"/>
	<path d="M4.5,18c-0.414,0-0.75-0.336-0.75-0.75S4.086,16.5,4.5,16.5H9c0.414,0,0.75,0.336,0.75,0.75S9.414,18,9,18H4.5z"/>
	<path d="M4.5,15c-0.398,0-0.772-0.154-1.055-0.435c-0.002-0.002-0.005-0.005-0.005-0.005C3.156,14.276,3,13.9,3,13.5v-9
		c0-0.399,0.156-0.775,0.438-1.058C3.439,3.44,3.44,3.439,3.442,3.438C3.725,3.156,4.101,3,4.5,3h9c0.4,0,0.776,0.156,1.06,0.439
		c0.002,0.002,0.003,0.003,0.005,0.005C14.845,3.727,15,4.102,15,4.5v9c0,0.4-0.156,0.776-0.439,1.06C14.276,14.844,13.9,15,13.5,15
		H4.5z M12.439,13.5L9,10.061L5.561,13.5H12.439z M13.5,12.439V5.561L10.061,9L13.5,12.439z M4.5,12.439L7.939,9L4.5,5.561V12.439z
		 M9,7.939L12.439,4.5H5.561L9,7.939z"/>
	<path d="M19.5,14.25c-0.414,0-0.75-0.336-0.75-0.75v-9c0-0.414,0.336-0.75,0.75-0.75s0.75,0.336,0.75,0.75v9
		C20.25,13.914,19.914,14.25,19.5,14.25z"/>
</g>
</svg>
