<svg id="target" width="24" height="24" viewBox="0 0 24 24" fill="none" xmlns="http://www.w3.org/2000/svg">
<path d="M14.0303 12.9697C13.7374 12.6768 13.2626 12.6768 12.9697 12.9697C12.6768 13.2626 12.6768 13.7374 12.9697 14.0303L14.0303 12.9697ZM15.4927 16.5533C15.7856 16.8462 16.2604 16.8462 16.5533 16.5533C16.8462 16.2604 16.8462 15.7856 16.5533 15.4927L15.4927 16.5533ZM7.00734 5.94667C6.71444 5.65378 6.23957 5.65378 5.94667 5.94667C5.65378 6.23957 5.65378 6.71444 5.94667 7.00734L7.00734 5.94667ZM8.46967 9.53033C8.76257 9.82323 9.23744 9.82323 9.53033 9.53033C9.82323 9.23744 9.82323 8.76257 9.53033 8.46967L8.46967 9.53033ZM9.53033 14.0303C9.82323 13.7374 9.82323 13.2626 9.53033 12.9697C9.23744 12.6768 8.76257 12.6768 8.46967 12.9697L9.53033 14.0303ZM5.94667 15.4927C5.65378 15.7856 5.65378 16.2604 5.94668 16.5533C6.23957 16.8462 6.71444 16.8462 7.00734 16.5533L5.94667 15.4927ZM16.5533 7.00734C16.8462 6.71444 16.8462 6.23957 16.5533 5.94668C16.2604 5.65378 15.7856 5.65378 15.4927 5.94667L16.5533 7.00734ZM12.9697 8.46967C12.6768 8.76257 12.6768 9.23744 12.9697 9.53033C13.2626 9.82323 13.7374 9.82323 14.0303 9.53033L12.9697 8.46967ZM3.75 11.25C3.75 12.0784 3.07843 12.75 2.25 12.75V14.25C3.90685 14.25 5.25 12.9069 5.25 11.25H3.75ZM2.25 12.75C1.42157 12.75 0.75 12.0784 0.75 11.25H-0.75C-0.75 12.9069 0.593146 14.25 2.25 14.25V12.75ZM0.75 11.25C0.75 10.4216 1.42157 9.75 2.25 9.75V8.25C0.593146 8.25 -0.75 9.59315 -0.75 11.25H0.75ZM2.25 9.75C3.07843 9.75 3.75 10.4216 3.75 11.25H5.25C5.25 9.59315 3.90685 8.25 2.25 8.25V9.75ZM21.75 11.25C21.75 12.0784 21.0784 12.75 20.25 12.75V14.25C21.9069 14.25 23.25 12.9069 23.25 11.25H21.75ZM20.25 12.75C19.4216 12.75 18.75 12.0784 18.75 11.25H17.25C17.25 12.9069 18.5931 14.25 20.25 14.25V12.75ZM18.75 11.25C18.75 10.4216 19.4216 9.75 20.25 9.75V8.25C18.5931 8.25 17.25 9.59315 17.25 11.25H18.75ZM20.25 9.75C21.0784 9.75 21.75 10.4216 21.75 11.25H23.25C23.25 9.59315 21.9069 8.25 20.25 8.25V9.75ZM4.5 12H18V10.5H4.5V12ZM12.75 2.25C12.75 3.07843 12.0784 3.75 11.25 3.75V5.25C12.9069 5.25 14.25 3.90685 14.25 2.25H12.75ZM11.25 3.75C10.4216 3.75 9.75 3.07843 9.75 2.25H8.25C8.25 3.90685 9.59315 5.25 11.25 5.25V3.75ZM9.75 2.25C9.75 1.42157 10.4216 0.75 11.25 0.75V-0.75C9.59315 -0.75 8.25 0.593146 8.25 2.25H9.75ZM11.25 0.75C12.0784 0.75 12.75 1.42157 12.75 2.25H14.25C14.25 0.593146 12.9069 -0.75 11.25 -0.75V0.75ZM12.75 20.25C12.75 21.0784 12.0784 21.75 11.25 21.75V23.25C12.9069 23.25 14.25 21.9069 14.25 20.25H12.75ZM11.25 21.75C10.4216 21.75 9.75 21.0784 9.75 20.25H8.25C8.25 21.9069 9.59315 23.25 11.25 23.25V21.75ZM9.75 20.25C9.75 19.4216 10.4216 18.75 11.25 18.75V17.25C9.59315 17.25 8.25 18.5931 8.25 20.25H9.75ZM11.25 18.75C12.0784 18.75 12.75 19.4216 12.75 20.25H14.25C14.25 18.5931 12.9069 17.25 11.25 17.25V18.75ZM10.5 4.5V18H12V4.5H10.5ZM6.386 4.88599C6.386 5.71441 5.71443 6.38599 4.886 6.38599V7.88599C6.54286 7.88599 7.886 6.54284 7.886 4.88599H6.386ZM4.886 6.38599C4.05757 6.38599 3.386 5.71441 3.386 4.88599H1.886C1.886 6.54284 3.22915 7.88599 4.886 7.88599V6.38599ZM3.386 4.88599C3.386 4.05756 4.05757 3.38599 4.886 3.38599V1.88599C3.22915 1.88599 1.886 3.22913 1.886 4.88599H3.386ZM4.886 3.38599C5.71443 3.38599 6.386 4.05756 6.386 4.88599H7.886C7.886 3.22913 6.54286 1.88599 4.886 1.88599V3.38599ZM19.114 17.614C19.114 18.4424 18.4424 19.114 17.614 19.114V20.614C19.2709 20.614 20.614 19.2709 20.614 17.614H19.114ZM17.614 19.114C16.7856 19.114 16.114 18.4424 16.114 17.614H14.614C14.614 19.2709 15.9571 20.614 17.614 20.614V19.114ZM16.114 17.614C16.114 16.7856 16.7856 16.114 17.614 16.114V14.614C15.9571 14.614 14.614 15.9571 14.614 17.614H16.114ZM17.614 16.114C18.4424 16.114 19.114 16.7856 19.114 17.614H20.614C20.614 15.9571 19.2709 14.614 17.614 14.614V16.114ZM12.9697 14.0303L15.4927 16.5533L16.5533 15.4927L14.0303 12.9697L12.9697 14.0303ZM5.94667 7.00734L8.46967 9.53033L9.53033 8.46967L7.00734 5.94667L5.94667 7.00734ZM19.114 4.88599C19.114 5.71441 18.4424 6.38599 17.614 6.38599V7.88599C19.2709 7.88599 20.614 6.54284 20.614 4.88599H19.114ZM17.614 6.38599C16.7856 6.38599 16.114 5.71441 16.114 4.88599H14.614C14.614 6.54284 15.9571 7.88599 17.614 7.88599V6.38599ZM16.114 4.88599C16.114 4.05756 16.7856 3.38599 17.614 3.38599V1.88599C15.9571 1.88599 14.614 3.22913 14.614 4.88599H16.114ZM17.614 3.38599C18.4424 3.38599 19.114 4.05756 19.114 4.88599H20.614C20.614 3.22913 19.2709 1.88599 17.614 1.88599V3.38599ZM6.386 17.614C6.386 18.4424 5.71443 19.114 4.886 19.114V20.614C6.54286 20.614 7.886 19.2709 7.886 17.614H6.386ZM4.886 19.114C4.05757 19.114 3.386 18.4424 3.386 17.614H1.886C1.886 19.2709 3.22915 20.614 4.886 20.614V19.114ZM3.386 17.614C3.386 16.7856 4.05757 16.114 4.886 16.114V14.614C3.22915 14.614 1.886 15.9571 1.886 17.614H3.386ZM4.886 16.114C5.71443 16.114 6.386 16.7856 6.386 17.614H7.886C7.886 15.9571 6.54286 14.614 4.886 14.614V16.114ZM8.46967 12.9697L5.94667 15.4927L7.00734 16.5533L9.53033 14.0303L8.46967 12.9697ZM15.4927 5.94667L12.9697 8.46967L14.0303 9.53033L16.5533 7.00734L15.4927 5.94667Z" transform="translate(0.75 0.75)" fill="currentColor"/>
</svg>
