<svg id="target" xmlns="http://www.w3.org/2000/svg" viewBox="0 0 24 24"><title>graphic-tablet-draw</title><path d="M22.073,7.549A.249.249,0,0,0,22,7.726V19.5a1,1,0,0,1-1,1H3a1,1,0,0,1-1-1V7.5a1,1,0,0,1,1-1H14.776a.251.251,0,0,0,.177-.073l1.5-1.5a.25.25,0,0,0-.177-.427H3a3,3,0,0,0-3,3v12a3,3,0,0,0,3,3H21a3,3,0,0,0,3-3V7.5a2.9,2.9,0,0,0-.242-1.152.251.251,0,0,0-.406-.078Z"/><path d="M16.75,16a.25.25,0,0,0-.25.25V18.5a.5.5,0,0,0,.5.5h3a.5.5,0,0,0,.5-.5V16.25a.25.25,0,0,0-.25-.25Z"/><path d="M16.666,12.956a.634.634,0,0,1-.069.059.253.253,0,0,0-.1.2V14.75a.25.25,0,0,0,.25.25h3.5a.25.25,0,0,0,.25-.25V12.5A.5.5,0,0,0,20,12H17.725a.247.247,0,0,0-.176.073Z"/><path d="M23.586,1.915a1.412,1.412,0,0,0-2,0L13.605,9.9l-.684,2.051a.5.5,0,0,0,.475.658.506.506,0,0,0,.158-.025l2.051-.684,7.981-7.981A1.415,1.415,0,0,0,23.586,1.915Z"/><path d="M7.5,10.25a4.25,4.25,0,1,0,4.25,4.25A4.255,4.255,0,0,0,7.5,10.25Zm0,7a2.75,2.75,0,1,1,2.75-2.75A2.752,2.752,0,0,1,7.5,17.25Z"/><circle cx="7.5" cy="14.5" r="1.5"/></svg>
