<svg id="target" xmlns="http://www.w3.org/2000/svg" viewBox="0 0 24 24"><title>professions-man-post</title><circle cx="14" cy="8.5" r="1"/><circle cx="10" cy="8.5" r="1"/><path d="M13.891,15.846a9.9,9.9,0,0,1-1.679,4.674.249.249,0,0,1-.424,0,9.911,9.911,0,0,1-1.679-4.674.8.8,0,0,0-.268-.514.736.736,0,0,0-.553-.17,21.808,21.808,0,0,0-3.925.739.751.751,0,0,0-.508.5l-.046.146a.246.246,0,0,1-.151.16,12.544,12.544,0,0,0-3.192,1.713A2.464,2.464,0,0,0,.5,20.394V23.5A.5.5,0,0,0,1,24H23a.5.5,0,0,0,.5-.5V20.394a2.465,2.465,0,0,0-.967-1.977A12.569,12.569,0,0,0,19.342,16.7a.246.246,0,0,1-.151-.16l-.046-.146a.751.751,0,0,0-.508-.5,21.808,21.808,0,0,0-3.925-.739.735.735,0,0,0-.553.17A.8.8,0,0,0,13.891,15.846Zm4.557,2.942a.25.25,0,0,1-.3.318l-1.508-.357a.625.625,0,0,0-.769.608v2.06a.25.25,0,0,1-.211.247l-1.893.3a.25.25,0,0,1-.258-.366,14.66,14.66,0,0,0,1.644-4.756.249.249,0,0,1,.281-.209,20.031,20.031,0,0,1,2.36.464.253.253,0,0,1,.176.167ZM8.561,16.632a.249.249,0,0,1,.281.21,15.2,15.2,0,0,0,1.686,4.9.25.25,0,0,1-.251.367l-1.933-.244a.25.25,0,0,1-.219-.248V19.5a.625.625,0,0,0-.741-.614l-1.57.3a.25.25,0,0,1-.285-.32l.5-1.6A.251.251,0,0,1,6.2,17.1,20.014,20.014,0,0,1,8.561,16.632Z"/><path d="M12.018,15.5A7.008,7.008,0,0,0,19,8.611a.245.245,0,0,1,.1-.192.249.249,0,0,1,.213-.041c.056.015.111.03.167.048A.75.75,0,0,0,19.926,7c-.448-.141-.9-.258-1.347-.372A.251.251,0,0,1,18.4,6.43L17.49,1.9a.5.5,0,0,0-.346-.381l-5-1.5a.5.5,0,0,0-.288,0l-5,1.5a.5.5,0,0,0-.347.381l-.9,4.521a.25.25,0,0,1-.183.194c-.5.128-1,.262-1.493.421A.751.751,0,0,0,4.167,8.5.765.765,0,0,0,4.4,8.467c.136-.044.273-.079.411-.116a.155.155,0,0,1,.133.027A.153.153,0,0,1,5,8.5a7.007,7.007,0,0,0,6.981,7h.037Zm.087-10.542a.256.256,0,0,1-.21,0,2.489,2.489,0,0,1-1.386-2.189.252.252,0,0,1,.067-.188.248.248,0,0,1,.183-.08h2.482a.252.252,0,0,1,.25.268A2.489,2.489,0,0,1,12.105,4.957ZM7,8.5V7.8c0-.71,10-.712,10,0v.7a5,5,0,0,1-10,0Z"/><path d="M12.87,12.111a2.369,2.369,0,0,0,.435-.181.639.639,0,0,0-.3-1.2H11a.639.639,0,0,0-.3,1.2,2.336,2.336,0,0,0,.435.179,4.011,4.011,0,0,0,.863.126h.021A2.989,2.989,0,0,0,12.87,12.111Z"/></svg>
