
<svg version="1.1" id="target" xmlns="http://www.w3.org/2000/svg" xmlns:xlink="http://www.w3.org/1999/xlink" x="0px" y="0px"
	 viewBox="0 0 24 24" style="enable-background:new 0 0 24 24;" xml:space="preserve">
<g>
	<title>business-contract-give</title>
	<path d="M7.501,22.5c-1.241,0-2.25-1.009-2.25-2.25v-6.573l-0.134-0.113c-1.8-1.514-3.661-3.081-3.615-5.006l0-4.188L0.163,2.683
		c-0.257-0.324-0.202-0.797,0.122-1.054C0.417,1.525,0.582,1.467,0.75,1.467c0.23,0,0.445,0.103,0.588,0.284l1.5,1.892
		C2.943,3.775,3.001,3.94,3.001,4.109v4.467c-0.023,0.977,0.957,2.006,2.25,3.132V8.451L4.695,7.882
		C4.406,7.586,4.412,7.11,4.708,6.821c0.141-0.138,0.327-0.213,0.524-0.213c0.204,0,0.394,0.08,0.537,0.226L6.48,7.562
		c0.042,0.035,0.08,0.074,0.113,0.115l0.945,0.968c0.089,0.091,0.208,0.141,0.336,0.141c0.123,0,0.239-0.047,0.327-0.132
		C8.29,8.568,8.34,8.451,8.341,8.326c0.002-0.125-0.046-0.243-0.133-0.333l-2.75-2.806C5.321,5.047,5.245,4.861,5.245,4.663V3.265
		c-0.137-0.754-0.423-1.46-0.851-2.097c-0.23-0.343-0.139-0.81,0.205-1.041C4.723,0.044,4.867,0,5.016,0
		C5.267,0,5.5,0.124,5.64,0.332c0.558,0.832,0.927,1.755,1.095,2.742c0.007,0.043,0.01,0.084,0.01,0.126v1.157l2.537,2.588
		C9.65,7.323,9.848,7.82,9.841,8.346C9.834,8.871,9.623,9.363,9.247,9.73c-0.369,0.36-0.857,0.558-1.373,0.558
		c-0.408,0-0.796-0.122-1.123-0.35V20.25c0,0.414,0.336,0.75,0.75,0.75h6.75c0.414,0,0.75,0.336,0.75,0.75s-0.336,0.75-0.75,0.75
		H7.501z"/>
	<path d="M18.989,23.996c-0.251,0-0.484-0.124-0.623-0.332c-0.558-0.831-0.926-1.752-1.094-2.737
		c-0.007-0.041-0.011-0.083-0.011-0.126v-1.155l-2.54-2.589c-0.759-0.779-0.743-2.028,0.034-2.785
		c0.37-0.361,0.846-0.559,1.339-0.559c0.023,0,0.046,0,0.07,0.001c0.516,0.006,1.008,0.218,1.375,0.594l0.463,0.473V5.25
		c0-0.414-0.336-0.75-0.75-0.75h-7.5c-0.414,0-0.75-0.336-0.75-0.75S9.337,3,9.751,3h7.5c1.241,0,2.25,1.009,2.25,2.25v5.708
		c1.62,1.385,3.041,2.777,3,4.485v4.187l1.338,1.687c0.124,0.157,0.18,0.353,0.157,0.552c-0.023,0.199-0.122,0.377-0.279,0.502
		c-0.132,0.104-0.298,0.162-0.466,0.162c-0.23,0-0.445-0.104-0.588-0.284l-1.5-1.892c-0.104-0.132-0.162-0.297-0.162-0.466v-4.466
		c0.019-0.802-0.675-1.661-1.5-2.452v3.648c0,0.307-0.183,0.579-0.467,0.695c-0.09,0.037-0.186,0.055-0.283,0.055
		c-0.201,0-0.396-0.082-0.537-0.226l-1.75-1.79c-0.089-0.092-0.204-0.141-0.331-0.143c-0.084,0.002-0.224,0.027-0.332,0.133
		c-0.089,0.087-0.139,0.204-0.141,0.329c-0.002,0.125,0.045,0.243,0.132,0.333l2.753,2.806c0.138,0.141,0.215,0.328,0.215,0.525
		v1.396c0.137,0.753,0.423,1.457,0.851,2.094c0.112,0.166,0.152,0.366,0.113,0.563s-0.152,0.366-0.318,0.478
		C19.283,23.952,19.139,23.996,18.989,23.996z"/>
</g>
</svg>
