<svg id="target" xmlns="http://www.w3.org/2000/svg" xmlns:xlink="http://www.w3.org/1999/xlink" x="0px" y="0px"
	 viewBox="0 0 24 24" style="enable-background:new 0 0 24 24;" xml:space="preserve">
<title>non-gmo-organic-flask</title>
<g>
	<path d="M5.512,24.002c-0.827,0-1.5-0.673-1.5-1.5c0-0.327,0.104-0.639,0.3-0.9l2.51-3.365c0.094-0.126,0.244-0.2,0.401-0.2
		c0.108,0,0.21,0.034,0.297,0.098c0.107,0.08,0.177,0.196,0.197,0.328c0.02,0.133-0.014,0.265-0.094,0.372l-2.511,3.367
		c-0.065,0.088-0.1,0.191-0.1,0.301c0,0.275,0.224,0.5,0.5,0.5h13.722c0.127,0,0.247-0.047,0.339-0.132
		c0.099-0.092,0.155-0.215,0.16-0.349c0.006-0.133-0.042-0.261-0.133-0.358l-0.15-0.162l0.306-0.362l0.403-0.356l0.165,0.188
		c0.285,0.311,0.425,0.691,0.408,1.091c-0.016,0.4-0.186,0.771-0.479,1.043c-0.278,0.257-0.64,0.398-1.019,0.398H5.512z"/>
	<path d="M15.018,12c-0.275,0-0.5-0.224-0.5-0.5V9h-1.5c-0.276,0-0.5-0.224-0.5-0.5s0.224-0.5,0.5-0.5h1.5V6h-1.5
		c-0.276,0-0.5-0.224-0.5-0.5s0.224-0.5,0.5-0.5h1.5V3h-4v2.5c0,0.276-0.224,0.5-0.5,0.5s-0.5-0.224-0.5-0.5V3
		c-0.827,0-1.5-0.673-1.5-1.5S8.691,0,9.518,0h6c0.827,0,1.5,0.673,1.5,1.5S16.345,3,15.518,3v8.5
		C15.518,11.776,15.293,12,15.018,12z M9.518,1c-0.276,0-0.5,0.224-0.5,0.5S9.242,2,9.518,2h6c0.275,0,0.5-0.224,0.5-0.5
		S15.793,1,15.518,1H9.518z"/>
	<path d="M12.471,22l-0.137-0.035l-0.067-0.026l-0.057-0.07c-0.001,0.002-0.002,0.002-0.004,0.002c-0.018,0-0.06-0.054-0.087-0.093
		l-0.021-0.029l-0.047-0.094c-0.027-0.077-0.539-2.513-1.792-5.211c-0.79,0.445-1.679,0.681-2.576,0.681
		c-0.457,0-0.914-0.06-1.356-0.179C0.323,15.442,1.454,6.855,1.944,4.259c0.032-0.17,0.108-0.33,0.219-0.46
		c0.171-0.203,0.413-0.328,0.679-0.351c0.006,0,0.012,0,0.018,0c0.311,0,0.535,0.083,0.711,0.233C5.14,5.079,6.938,6.108,8.925,6.75
		l0.092,0.022c1.363,0.361,2.5,1.229,3.207,2.444c0.706,1.214,0.896,2.632,0.537,3.992c-0.271,1.022-0.846,1.928-1.667,2.628
		c0.781,1.643,1.285,3.187,1.576,4.217c0.174-0.308,0.367-0.609,0.575-0.901c-0.477-0.701-0.728-1.504-0.728-2.333
		c0-2.307,1.876-4.183,4.183-4.183c1.506-0.096,2.972-0.499,4.34-1.195c0.149-0.071,0.293-0.103,0.44-0.103
		c0.114,0,0.227,0.02,0.336,0.058c0.254,0.091,0.455,0.273,0.568,0.515c0.073,0.152,0.105,0.324,0.094,0.496
		C22.297,14.99,21.37,21,16.7,21c-1.035,0-2.012-0.377-2.78-1.067c-0.387,0.571-0.701,1.159-0.937,1.753l-0.021,0.052l-0.052,0.052
		c-0.087,0.103-0.155,0.147-0.236,0.175L12.519,22H12.471z M14.52,19.119C15.116,19.689,15.883,20,16.7,20
		c3.826,0,4.619-5.359,4.782-7.663c-1.483,0.755-3.084,1.192-4.751,1.298c-1.779,0.001-3.214,1.429-3.214,3.184
		c0,0.525,0.129,1.037,0.375,1.496c1.057-1.209,2.378-2.165,3.841-2.775c0.062-0.026,0.127-0.04,0.195-0.04
		c0.201,0,0.382,0.121,0.459,0.309c0.052,0.122,0.053,0.259,0.002,0.383c-0.051,0.123-0.147,0.22-0.271,0.271
		C16.735,17.039,15.495,17.956,14.52,19.119z M2.926,4.446c-0.448,2.377-1.511,10.238,3.65,11.532
		c0.366,0.097,0.737,0.146,1.106,0.146c0.744,0,1.482-0.2,2.133-0.579l0.002-0.002c-1.092-2.099-2.363-3.681-3.78-4.706
		c-0.108-0.079-0.18-0.194-0.201-0.326c-0.021-0.132,0.01-0.265,0.088-0.373C6.02,10.01,6.171,9.933,6.332,9.933
		c0.105,0,0.206,0.032,0.292,0.093c1.519,1.099,2.866,2.742,4.011,4.889c0.563-0.54,0.962-1.214,1.161-1.964
		c0.292-1.101,0.137-2.249-0.435-3.232C10.788,8.734,9.867,8.032,8.767,7.74L8.653,7.712C6.509,7.021,4.587,5.923,2.926,4.446
		C2.926,4.446,2.926,4.446,2.926,4.446z"/>
</g>
</svg>
