<svg id="target" width="24" height="24" viewBox="0 0 24 24" fill="none" xmlns="http://www.w3.org/2000/svg">
<path d="M11.2472 0.814125C11.1936 0.76221 11.129 0.722961 11.0582 0.699254C10.9874 0.675548 10.9123 0.667986 10.8382 0.677125C9.90977 0.76813 8.97264 0.658662 8.09019 0.356126C7.3172 0.0981444 6.50473 -0.0213565 5.69019 0.00312545C5.24027 0.00243266 4.79712 0.112665 4.39996 0.324065C4.0028 0.535466 3.66387 0.841516 3.41319 1.21513C3.16593 1.65692 3.08069 2.17118 3.17219 2.66913C3.18737 2.76805 3.17252 2.86925 3.12956 2.95964C3.08659 3.05003 3.01749 3.12544 2.93119 3.17613C1.94164 3.76003 1.01272 4.44106 0.158189 5.20913C0.0613849 5.29983 0.0045781 5.42527 0.000264768 5.55786C-0.00404857 5.69045 0.0444851 5.81932 0.135189 5.91613C0.225893 6.01293 0.351338 6.06974 0.483926 6.07405C0.616514 6.07836 0.745385 6.02983 0.842189 5.93913C2.39219 4.48513 5.30319 2.62113 7.57319 2.75113C7.7058 2.75895 7.82987 2.81913 7.9181 2.91843C8.00634 3.01773 8.05151 3.14802 8.04369 3.28063C8.03587 3.41323 7.97568 3.5373 7.87638 3.62554C7.77708 3.71377 7.6468 3.75895 7.51419 3.75113C6.23711 3.79811 4.99827 4.1994 3.93619 4.91013C3.82476 4.97548 3.74294 5.08143 3.7079 5.20577C3.67285 5.33012 3.68729 5.4632 3.74819 5.57713C3.87047 5.80486 4.03351 6.00823 4.22919 6.17713C4.72617 6.57351 5.34895 6.77826 5.98419 6.75413C6.40414 6.75025 6.82137 6.68626 7.22319 6.56413C8.30033 6.07686 9.24314 5.33548 9.97068 4.40363C10.6982 3.47178 11.1888 2.37729 11.4002 1.21413C11.4059 1.14028 11.3951 1.06609 11.3687 0.996915C11.3422 0.927739 11.3007 0.865305 11.2472 0.814125V0.814125Z" transform="translate(6.34483 11.5199)" fill="currentColor"/>
<path d="M12.842 5C12.7425 4.96685 12.6559 4.90324 12.5945 4.81818C12.5332 4.73311 12.5001 4.6309 12.5 4.526V3C12.5 2.73478 12.6054 2.48043 12.7929 2.29289C12.9805 2.10536 13.2348 2 13.5 2C13.7652 2 14.0196 1.89464 14.2071 1.70711C14.3947 1.51957 14.5 1.26522 14.5 1C14.5 0.734784 14.3947 0.48043 14.2071 0.292893C14.0196 0.105357 13.7652 0 13.5 0L6.00002 0C5.7348 0 5.48045 0.105357 5.29291 0.292893C5.10538 0.48043 5.00002 0.734784 5.00002 1C5.00002 1.26522 5.10538 1.51957 5.29291 1.70711C5.48045 1.89464 5.7348 2 6.00002 2C6.26524 2 6.51959 2.10536 6.70713 2.29289C6.89466 2.48043 7.00002 2.73478 7.00002 3V4.527C6.99973 4.63173 6.96657 4.73372 6.90521 4.81858C6.84384 4.90345 6.75738 4.96691 6.65802 5C4.46314 5.73394 2.6009 7.22471 1.40432 9.20572C0.207741 11.1867 -0.24514 13.5288 0.126661 15.8131C0.498462 18.0974 1.6707 20.1749 3.43375 21.6742C5.19679 23.1735 7.43568 23.9967 9.75002 23.9967C12.0644 23.9967 14.3032 23.1735 16.0663 21.6742C17.8293 20.1749 19.0016 18.0974 19.3734 15.8131C19.7452 13.5288 19.2923 11.1867 18.0957 9.20572C16.8991 7.22471 15.0369 5.73394 12.842 5V5ZM9.75002 22C7.82947 21.9997 5.97743 21.2864 4.55284 19.9984C3.12826 18.7103 2.2326 16.9393 2.03946 15.0285C1.84633 13.1177 2.36947 11.2032 3.50749 9.65612C4.64552 8.10906 6.31738 7.03959 8.19902 6.655C8.42489 6.60889 8.6279 6.48616 8.77368 6.30758C8.91946 6.129 8.99907 5.90553 8.99902 5.675V3C8.99937 2.85643 8.989 2.71303 8.96802 2.571C8.95778 2.49964 8.96309 2.42691 8.98359 2.3578C9.00409 2.28868 9.03929 2.22482 9.08678 2.17058C9.13428 2.11635 9.19294 2.07302 9.25874 2.04358C9.32454 2.01413 9.39593 1.99927 9.46802 2H10.038C10.1101 1.99927 10.1815 2.01413 10.2473 2.04358C10.3131 2.07302 10.3718 2.11635 10.4193 2.17058C10.4667 2.22482 10.502 2.28868 10.5225 2.3578C10.5429 2.42691 10.5483 2.49964 10.538 2.571C10.5147 2.71285 10.502 2.85625 10.5 3V5.675C10.5 5.90553 10.5796 6.129 10.7254 6.30758C10.8711 6.48616 11.0741 6.60889 11.3 6.655C13.1816 7.03957 14.8534 8.10897 15.9914 9.65592C17.1294 11.2029 17.6526 13.1172 17.4596 15.028C17.2666 16.9387 16.3712 18.7098 14.9468 19.9979C13.5224 21.286 11.6705 21.9995 9.75002 22V22Z" transform="translate(2)" fill="currentColor"/>
</svg>
