<svg id="target" xmlns="http://www.w3.org/2000/svg" viewBox="0 0 24 24"><title>non-gmo-organic-flask</title><path d="M20.993,20.734a1,1,0,0,0-1.726.939.25.25,0,0,1-.238.327H5.194A.25.25,0,0,1,5,21.592l.622-.76a1,1,0,1,0-1.548-1.267l-.956,1.169A2,2,0,0,0,4.666,24H19.445a2,2,0,0,0,1.548-3.266Z"/><path d="M7.993,2.886a.5.5,0,0,1,.313.464V5.684a1,1,0,0,0,2,0V3.5a.5.5,0,0,1,.5-.5h2.5a.5.5,0,0,1,.5.5v6a1,1,0,0,0,2,0V3.35a.5.5,0,0,1,.312-.464A1.5,1.5,0,0,0,15.556,0h-7a1.5,1.5,0,0,0-.563,2.886Z"/><path d="M7.21,17.076a2.377,2.377,0,0,0,.317-.022,2.327,2.327,0,0,0,1-.395.5.5,0,0,0,.162-.636,24.209,24.209,0,0,0-2.63-4.134.5.5,0,1,1,.785-.62c1.942,2.46,4.02,6.312,4.468,9.1A.75.75,0,0,0,12,21a.487.487,0,0,0,.054,0,.75.75,0,0,0,.717-.53c.642-2.073,2.183-4.988,4.169-5.98a.5.5,0,0,1,.448.895,6.756,6.756,0,0,0-2.467,2.689.5.5,0,0,0,.233.71,2.105,2.105,0,0,0,.435.135,2.18,2.18,0,0,0,.4.037,3.44,3.44,0,0,0,2.391-1.194,7.305,7.305,0,0,0,.955-6.72.5.5,0,0,0-.756-.19,6.485,6.485,0,0,1-2.542,1.091,6.976,6.976,0,0,0-2.258.892,2.74,2.74,0,0,0-1.37,2.186,2.113,2.113,0,0,0,.376,1.189.5.5,0,0,1,.017.527c-.12.207-.232.412-.336.613A.25.25,0,0,1,12,17.321a20.408,20.408,0,0,0-1.1-2.443.5.5,0,0,1,.127-.624,2.89,2.89,0,0,0,1.069-1.59A3.8,3.8,0,0,0,10.953,9.4,6.677,6.677,0,0,0,7.467,7.536,8.854,8.854,0,0,1,4.078,5.944a.507.507,0,0,0-.418-.109.5.5,0,0,0-.347.258c-1.378,2.606-.73,7.352.778,9.13A4.406,4.406,0,0,0,7.21,17.076Z"/></svg>
