
<svg version="1.1" id="target" xmlns="http://www.w3.org/2000/svg" xmlns:xlink="http://www.w3.org/1999/xlink" x="0px" y="0px"
	 viewBox="0 0 24 24" style="enable-background:new 0 0 24 24;" xml:space="preserve">
<g>
	<title>artboard-image</title>
	<circle cx="9.75" cy="10.5" r="1.125"/>
	<path d="M6.75,18C6.336,18,6,17.664,6,17.25V6.75C6,6.336,6.336,6,6.75,6h10.5C17.664,6,18,6.336,18,6.75v10.5
		c0,0.414-0.336,0.75-0.75,0.75H6.75z M16.5,16.5v-1.987l-1.648-2.061c-0.036-0.046-0.078-0.087-0.125-0.123
		c-0.133-0.104-0.292-0.159-0.459-0.159c-0.031,0-0.063,0.002-0.095,0.006c-0.198,0.025-0.376,0.125-0.499,0.284L10.533,16.5H16.5z
		 M8.633,16.5l3.858-4.96c0.369-0.474,0.901-0.777,1.497-0.851c0.094-0.012,0.189-0.018,0.283-0.018
		c0.502,0,0.978,0.164,1.377,0.475c0.139,0.108,0.265,0.232,0.375,0.37l0.477,0.596V7.5h-9v9H8.633z"/>
	<path d="M18,24c-0.827,0-1.5-0.673-1.5-1.5V21H5.25C4.009,21,3,19.991,3,18.75V7.5H1.5C0.673,7.5,0,6.827,0,6V4.5
		C0,3.673,0.673,3,1.5,3H3V1.5C3,0.673,3.673,0,4.5,0H6c0.827,0,1.5,0.673,1.5,1.5V3h11.25C19.991,3,21,4.009,21,5.25V16.5h1.5
		c0.827,0,1.5,0.673,1.5,1.5v1.5c0,0.827-0.673,1.5-1.5,1.5H21v1.5c0,0.827-0.673,1.5-1.5,1.5H18z M1.5,6h2.25
		C4.164,6,4.5,6.336,4.5,6.75v12c0,0.414,0.336,0.75,0.75,0.75h12c0.414,0,0.75,0.336,0.75,0.75v2.25h1.5v-2.25
		c0-0.414,0.336-0.75,0.75-0.75h2.25V18h-2.25c-0.414,0-0.75-0.336-0.75-0.75v-12c0-0.414-0.336-0.75-0.75-0.75h-12
		C6.336,4.5,6,4.164,6,3.75V1.5H4.5v2.25c0,0.414-0.336,0.75-0.75,0.75H1.5V6z"/>
</g>
</svg>
