
<svg version="1.1" id="target" xmlns="http://www.w3.org/2000/svg" xmlns:xlink="http://www.w3.org/1999/xlink" x="0px" y="0px"
	 viewBox="0 0 24 24" style="enable-background:new 0 0 24 24;" xml:space="preserve">
<g>
	<title>design-tool-pens</title>
	<path d="M19.594,24c-0.075,0-0.151-0.003-0.226-0.009c-0.772-0.062-1.474-0.42-1.975-1.009c-0.502-0.589-0.744-1.338-0.683-2.109
		l0.928-11.228c-0.378-0.238-0.704-0.538-0.972-0.896c-0.469-0.627-0.728-1.403-0.729-2.185c-0.078-2.545,1.127-4.952,3.224-6.427
		C19.29,0.047,19.439,0,19.595,0c0.118,0,0.235,0.028,0.34,0.082c0.246,0.125,0.403,0.375,0.409,0.651
		c0,0.005,0.094,1.371,1.801,3.221c0.115,0.117,0.241,0.261,0.356,0.408c0.592,0.789,0.839,1.752,0.7,2.717
		c-0.138,0.965-0.644,1.818-1.425,2.403c-0.083,0.062-0.171,0.122-0.261,0.178l0.965,11.207c0.007,0.083,0.01,0.16,0.01,0.237
		C22.49,22.701,21.191,24,19.594,24z M18.206,20.994c-0.03,0.37,0.087,0.731,0.329,1.015s0.58,0.457,0.952,0.487
		c0.036,0.003,0.071,0.004,0.107,0.004c0.77,0,1.396-0.626,1.396-1.396c0-0.038-0.002-0.077-0.005-0.115l-0.93-10.803
		c-0.142,0.017-0.288,0.025-0.435,0.025c-0.087,0-0.173-0.003-0.26-0.008L19.312,10.2c-0.074-0.006-0.145-0.013-0.212-0.021
		L18.206,20.994z M19.164,2.096c-1.154,1.18-1.777,2.77-1.726,4.444c0.001,0.48,0.153,0.941,0.43,1.31
		c0.344,0.46,0.847,0.758,1.416,0.839c0.103,0.015,0.208,0.022,0.311,0.022c0.464,0,0.908-0.149,1.283-0.43
		c0.46-0.344,0.758-0.847,0.839-1.416c0.082-0.568-0.063-1.134-0.407-1.594c-0.073-0.093-0.16-0.193-0.25-0.284
		C20.011,3.852,19.457,2.851,19.164,2.096z"/>
	<path d="M11.25,24c-1.654,0-3-1.346-3-3V6.002c0-0.012,0.001-0.028,0.002-0.043c0.001-0.033,0.005-0.069,0.012-0.106
		c0.003-0.015,0.011-0.045,0.016-0.06c0.005-0.02,0.012-0.043,0.021-0.066c0.003-0.009,2.259-5.272,2.259-5.272
		C10.679,0.178,10.95,0,11.25,0s0.571,0.178,0.689,0.455l2.25,5.25c0.004,0.01,0.008,0.021,0.012,0.032
		c0.009,0.025,0.016,0.047,0.021,0.07c0.003,0.007,0.009,0.026,0.012,0.046c0.008,0.039,0.012,0.077,0.013,0.114
		C14.25,5.977,14.25,5.989,14.25,6v15C14.25,22.654,12.905,24,11.25,24z M9.75,21c0,0.827,0.673,1.5,1.5,1.5s1.5-0.673,1.5-1.5
		v-0.75h-3V21z M12.75,18.75v-1.5h-3v1.5H12.75z M12.75,15.75V7.401l-1.084,0.723C11.543,8.206,11.399,8.25,11.25,8.25
		s-0.292-0.044-0.416-0.126L9.75,7.401v8.349H12.75z M11.25,6.598l1.315-0.877L11.25,2.654L9.935,5.722L11.25,6.598z"/>
	<path d="M3.75,24c-0.301,0-0.571-0.178-0.689-0.455l-2.25-5.25C0.771,18.201,0.75,18.102,0.75,18V3c0-1.654,1.346-3,3-3
		s3,1.346,3,3v15c0,0.102-0.02,0.201-0.06,0.294l-2.25,5.251C4.322,23.821,4.051,24,3.75,24z M3.75,21.346l1.113-2.596H2.638
		L3.75,21.346z M5.25,17.25v-4.5h-3v4.5H5.25z M5.25,11.25v-6h-3v6H5.25z M5.25,3.75V3c0-0.827-0.673-1.5-1.5-1.5S2.25,2.173,2.25,3
		v0.75H5.25z"/>
</g>
</svg>
