
<svg version="1.1" id="target" xmlns="http://www.w3.org/2000/svg" xmlns:xlink="http://www.w3.org/1999/xlink" x="0px" y="0px"
	 viewBox="0 0 24 24" style="enable-background:new 0 0 24 24;" xml:space="preserve">
<g>
	<title>people-woman-7</title>
	<path d="M20.224,16.5c-0.114,0-0.223-0.025-0.326-0.074c-1.559-0.754-2.703-2.12-3.183-3.753C15.587,14.127,13.842,15,11.974,15
		s-3.613-0.873-4.741-2.328c-0.479,1.633-1.624,2.999-3.182,3.753C3.948,16.475,3.838,16.5,3.724,16.5
		c-0.286,0-0.551-0.166-0.675-0.423c-0.18-0.372-0.024-0.822,0.348-1.002C4.649,14.47,5.546,13.34,5.86,12H4.474
		c-0.827,0-1.5-0.673-1.5-1.5v-3c0-0.827,0.673-1.5,1.5-1.5h0.158c0.646-3.209,3.224-5.584,6.507-5.952
		c0.279-0.031,0.562-0.047,0.84-0.047c3.537,0,6.637,2.557,7.342,5.999h0.153c0.827,0,1.5,0.673,1.5,1.5v3
		c0,0.827-0.673,1.5-1.5,1.5h-1.385c0.313,1.339,1.21,2.469,2.462,3.075c0.372,0.18,0.528,0.63,0.349,1.002
		C20.775,16.334,20.51,16.5,20.224,16.5z M7.589,9.999c0.46,2.005,2.283,3.502,4.385,3.502c2.102,0,3.924-1.496,4.385-3.5
		c-0.327,0.083-0.662,0.125-1.002,0.125c-0.007,0-0.021,0-0.028,0c-1.34-0.071-2.557-0.72-3.354-1.767
		c-0.795,1.046-2.005,1.695-3.334,1.766c-0.007,0-0.025,0-0.032,0C8.261,10.125,7.92,10.083,7.589,9.999z M19.474,10.5v-3h-1.5v3
		H19.474z M4.474,10.5h1.5v-3h-1.5V10.5z M11.974,6c0.331,0,0.618,0.212,0.716,0.527c0.37,1.189,1.455,2.032,2.699,2.099
		c0.348,0,0.707-0.08,1.04-0.233C16.13,6.191,14.219,4.5,11.974,4.5c-2.245,0-4.156,1.691-4.455,3.893
		c0.333,0.152,0.695,0.232,1.057,0.232c1.235-0.066,2.312-0.909,2.682-2.098C11.356,6.212,11.644,6,11.974,6z M11.974,3
		c2.159,0,4.121,1.142,5.194,3.002C17.187,6.001,17.206,6,17.224,6h0.558c-0.676-2.632-3.048-4.499-5.802-4.499
		c-0.224,0-0.451,0.013-0.675,0.038C8.795,1.821,6.781,3.59,6.168,6h0.556C6.743,6,6.761,6.001,6.78,6.003
		C7.853,4.143,9.815,3,11.974,3z"/>
	<path d="M21.785,24.001c-0.309,0-0.591-0.194-0.701-0.482c-0.861-2.254-2.49-4.073-4.622-5.175
		c-0.176,2.322-2.121,4.157-4.487,4.157c-2.367,0-4.313-1.837-4.487-4.16c-2.105,1.095-3.773,2.955-4.621,5.177
		C2.756,23.807,2.474,24,2.165,24c-0.092,0-0.182-0.017-0.268-0.049c-0.386-0.148-0.58-0.582-0.433-0.968
		c1.141-2.989,3.509-5.357,6.498-6.498c1.285-0.49,2.629-0.739,3.995-0.739c1.348,0,2.675,0.24,3.945,0.715
		c0.051,0.012,0.101,0.031,0.151,0.056c2.959,1.153,5.303,3.509,6.432,6.466c0.147,0.386-0.047,0.82-0.433,0.968
		C21.966,23.984,21.876,24.001,21.785,24.001L21.785,24.001z M8.974,18c0,1.654,1.346,3,3,3c1.654,0,3-1.346,3-3v-0.276
		c-0.976-0.317-1.986-0.477-3.009-0.477c-1.016,0-2.021,0.159-2.991,0.474V18z"/>
</g>
</svg>
