<svg id="target" width="24" height="24" viewBox="0 0 24 24" fill="none" xmlns="http://www.w3.org/2000/svg">
<g id="whale">

<g id="Vector" transform="translate(0.12236 0.000823975)">
<path d="M23.2533 1.24742H23.2523C21.4533 1.24942 19.9473 2.61342 19.7683 4.40342C19.4393 4.30042 19.0973 4.24742 18.7523 4.24742C16.8193 4.24742 15.2523 5.81442 15.2523 7.74742C15.2523 8.02342 15.4763 8.24742 15.7523 8.24742H18.2523C19.3573 8.24742 20.2523 9.14242 20.2523 10.2474C20.2523 11.3524 19.3573 12.2474 18.2523 12.2474H6.75228C4.64228 12.2764 2.55828 12.7264 0.624276 13.5704C0.361276 13.6654 0.156276 13.8744 0.065276 14.1384C-0.029724 14.3924 -0.020724 14.6734 0.090276 14.9214C0.309276 15.3844 0.554276 15.8344 0.824276 16.2694C1.83328 19.8694 3.79328 23.6424 9.34228 23.6424C10.5003 23.6424 11.6543 23.4954 12.7753 23.2034C12.3713 22.6404 12.0403 22.0284 11.7883 21.3824C9.36728 21.9124 6.51828 21.7884 4.75128 19.8374C3.93028 18.8554 3.32528 17.7104 2.97628 16.4784C4.88228 16.6554 6.69928 17.3654 8.21928 18.5274C9.25828 19.2264 10.3583 19.8284 11.5073 20.3274C11.5543 19.9154 11.9263 19.6204 12.3373 19.6674C12.6473 19.7024 12.9023 19.9254 12.9793 20.2274C13.3213 21.4744 14.0513 22.5794 15.0653 23.3824C15.6633 23.7604 16.3523 23.9724 17.0593 23.9974C17.3063 24.0134 17.5193 23.8254 17.5353 23.5784C17.5393 23.5084 17.5273 23.4374 17.4993 23.3734L16.3573 20.7104C16.1933 20.3294 16.3703 19.8884 16.7503 19.7244C17.1313 19.5614 17.5723 19.7374 17.7353 20.1174L18.0353 20.8084C18.0423 20.7964 19.5983 19.6084 19.5983 19.6084C22.1373 17.3454 23.6393 14.1424 23.7553 10.7434V1.74342C23.7543 1.46842 23.5293 1.24542 23.2533 1.24742ZM9.75228 16.4974C9.20028 16.4974 8.75228 16.0494 8.75228 15.4974C8.75228 14.9454 9.20028 14.4974 9.75228 14.4974C10.3043 14.4974 10.7523 14.9454 10.7523 15.4974C10.7523 16.0494 10.3043 16.4974 9.75228 16.4974Z" fill="currentColor"/>
<path d="M3.00227 4.49743C3.55427 4.49743 4.00227 4.04943 4.00227 3.49743C4.00227 2.66943 4.67427 1.99743 5.50227 1.99743C6.33027 1.99743 7.00227 2.66943 7.00227 3.49743V9.49743C7.00227 10.0494 7.45027 10.4974 8.00327 10.4964C8.55527 10.4964 9.00227 10.0484 9.00227 9.49743V3.49743C9.00227 2.66943 9.67427 1.99743 10.5023 1.99743C11.3303 1.99743 12.0023 2.66943 12.0023 3.49743C12.0023 4.04943 12.4503 4.49743 13.0023 4.49743C13.5543 4.49743 14.0023 4.04943 14.0023 3.49743C14.0013 1.56443 12.4333 -0.00157224 10.5003 0.000427763C9.56027 0.00142776 8.66027 0.379428 8.00227 1.05043C6.64927 -0.330572 4.43327 -0.352572 3.05327 1.00043C2.38127 1.65743 2.00327 2.55743 2.00227 3.49743C2.00227 4.04943 2.45027 4.49743 3.00227 4.49743Z" fill="currentColor"/>
</g>
</g>
</svg>
