<svg id="target" width="24" height="24" viewBox="0 0 24 24" fill="none" xmlns="http://www.w3.org/2000/svg">
<path d="M7.81097 9.67965C8.00665 10.0447 8.46124 10.182 8.82631 9.98636C9.19139 9.79068 9.32871 9.3361 9.13303 8.97102L7.81097 9.67965ZM8.38267 9.15867L7.72066 9.51117L7.72164 9.51298L8.38267 9.15867ZM6.61733 9.15867L5.95533 8.80617L5.95522 8.80638L6.61733 9.15867ZM5.79333 10.7073L6.32349 11.2378C6.37606 11.1853 6.42053 11.1252 6.45545 11.0596L5.79333 10.7073ZM5.086 11L5.08634 10.25H5.086V11ZM3 11V11.75V11ZM0 8H-0.75H0ZM15 8L14.25 8L14.25 8.00065L15 8ZM14.028 8.97715C13.8486 9.3505 14.0058 9.79859 14.3792 9.978C14.7525 10.1574 15.2006 10.0002 15.38 9.62685L14.028 8.97715ZM-0.513982 5.13048C-0.718061 5.49093 -0.591296 5.94858 -0.230845 6.15265C0.129606 6.35673 0.587248 6.22997 0.791326 5.86952L-0.513982 5.13048ZM2.21201 1.838L2.86466 2.20752C2.87821 2.18358 2.89043 2.15892 2.90127 2.13365L2.21201 1.838ZM5.00008 0.75C5.4143 0.749956 5.75005 0.414134 5.75001 -7.96185e-05C5.74996 -0.414293 5.41414 -0.750044 4.99993 -0.75L5.00008 0.75ZM14.2094 5.86961C14.4135 6.23003 14.8712 6.35673 15.2316 6.1526C15.592 5.94848 15.7187 5.49082 15.5146 5.13039L14.2094 5.86961ZM12.788 1.838L12.0987 2.13365C12.1096 2.15896 12.1218 2.18365 12.1354 2.20761L12.788 1.838ZM10.0001 -0.75C9.58587 -0.750044 9.25004 -0.414293 9.25 -7.96185e-05C9.24996 0.414134 9.58571 0.749956 9.99992 0.75L10.0001 -0.75ZM8.27553 11.5473C8.16838 11.9475 8.40588 12.3587 8.806 12.4658C9.20612 12.573 9.61733 12.3355 9.72447 11.9353L8.27553 11.5473ZM9.96733 13L9.96631 12.25C9.55223 12.2506 9.21696 12.5866 9.21733 13.0007C9.21771 13.4148 9.55359 13.7502 9.96767 13.75L9.96733 13ZM9.72684 14.0667C9.61638 13.6675 9.20321 13.4334 8.804 13.5438C8.40479 13.6543 8.1707 14.0675 8.28116 14.4667L9.72684 14.0667ZM12.9673 15H12.2173C12.2173 15.3857 12.5099 15.7086 12.8937 15.7464L12.9673 15ZM14.9673 13.4L15.7116 13.4921C15.7154 13.4615 15.7173 13.4308 15.7173 13.4H14.9673ZM14.9673 12.6H15.7173C15.7173 12.5692 15.7154 12.5385 15.7116 12.5079L14.9673 12.6ZM12.9673 11L12.8937 10.2536C12.5099 10.2914 12.2173 10.6143 12.2173 11H12.9673ZM9.13303 8.97102L9.0437 8.80435L7.72164 9.51298L7.81097 9.67965L9.13303 8.97102ZM9.04467 8.80617C8.74071 8.23533 8.14672 7.87867 7.5 7.87867V9.37867C7.59239 9.37867 7.67724 9.42962 7.72067 9.51117L9.04467 8.80617ZM7.5 7.87867C6.85328 7.87867 6.25929 8.23533 5.95533 8.80617L7.27933 9.51117C7.32276 9.42962 7.40761 9.37867 7.5 9.37867V7.87867ZM5.95522 8.80638L5.13122 10.355L6.45545 11.0596L7.27945 9.51096L5.95522 8.80638ZM5.26317 10.1768C5.21627 10.2237 5.15266 10.25 5.08634 10.25L5.08566 11.75C5.54987 11.7502 5.99514 11.566 6.32349 11.2378L5.26317 10.1768ZM5.086 10.25H3V11.75H5.086V10.25ZM3 10.25C1.75736 10.25 0.75 9.24264 0.75 8H-0.75C-0.75 10.0711 0.928932 11.75 3 11.75L3 10.25ZM0.75 8V6H-0.75V8H0.75ZM0.75 6C0.75 5.86193 0.861929 5.75 1 5.75V4.25C0.0335017 4.25 -0.75 5.0335 -0.75 6H0.75ZM1 5.75H14V4.25H1V5.75ZM14 5.75C14.1381 5.75 14.25 5.86193 14.25 6H15.75C15.75 5.0335 14.9665 4.25 14 4.25V5.75ZM14.25 6V8H15.75V6H14.25ZM14.25 8.00065C14.2503 8.3387 14.1744 8.67247 14.028 8.97715L15.38 9.62685C15.624 9.11903 15.7505 8.56275 15.75 7.99935L14.25 8.00065ZM0.791326 5.86952L2.86466 2.20752L1.55935 1.46848L-0.513982 5.13048L0.791326 5.86952ZM2.90127 2.13365C3.26131 1.29428 4.08676 0.750097 5.00008 0.75L4.99993 -0.75C3.48678 -0.749839 2.11922 0.151735 1.52274 1.54235L2.90127 2.13365ZM15.5146 5.13039L13.4406 1.46839L12.1354 2.20761L14.2094 5.86961L15.5146 5.13039ZM13.4773 1.54235C12.8808 0.151735 11.5132 -0.749839 10.0001 -0.75L9.99992 0.75C10.9132 0.750097 11.7387 1.29428 12.0987 2.13365L13.4773 1.54235ZM9.72447 11.9353C9.75799 11.8102 9.88161 11.7313 10.0092 11.7538L10.2689 10.2764C9.37547 10.1194 8.51017 10.6711 8.27553 11.5473L9.72447 11.9353ZM10.0092 11.7538C10.1369 11.7762 10.2262 11.8924 10.215 12.0216L11.7095 12.1508C11.7876 11.2471 11.1623 10.4334 10.2689 10.2764L10.0092 11.7538ZM10.215 12.0216C10.2039 12.1507 10.0959 12.2498 9.96631 12.25L9.96836 13.75C10.8755 13.7488 11.6313 13.0546 11.7095 12.1508L10.215 12.0216ZM9.96767 13.75C10.0971 13.7499 10.2051 13.8486 10.2168 13.9775L11.7107 13.8422C11.629 12.9402 10.8727 12.2496 9.96699 12.25L9.96767 13.75ZM10.2168 13.9775C10.2284 14.1063 10.1399 14.2228 10.0126 14.246L10.2813 15.7217C11.1723 15.5595 11.7923 14.7442 11.7107 13.8422L10.2168 13.9775ZM10.0126 14.246C9.88528 14.2691 9.76134 14.1914 9.72684 14.0667L8.28116 14.4667C8.52267 15.3395 9.39026 15.8839 10.2813 15.7217L10.0126 14.246ZM12.8937 15.7464C14.2891 15.8839 15.5395 14.8836 15.7116 13.4921L14.223 13.3079C14.1507 13.8917 13.6262 14.3113 13.0408 14.2536L12.8937 15.7464ZM15.7173 13.4V12.6H14.2173V13.4H15.7173ZM15.7116 12.5079C15.5395 11.1164 14.2891 10.1161 12.8937 10.2536L13.0408 11.7464C13.6262 11.6887 14.1507 12.1083 14.223 12.6921L15.7116 12.5079ZM12.2173 11V15H13.7173V11H12.2173Z" transform="translate(4.49927 4.5)" fill="currentColor"/>
</svg>
