<svg id="target" width="24" height="24" viewBox="0 0 24 24" fill="none" xmlns="http://www.w3.org/2000/svg">
<g id="slim">

<g id="Vector">
<path d="M18.534 3.20194L19.074 0.601944C19.131 0.331944 18.957 0.0669437 18.686 0.0109437C18.422 -0.0410563 18.151 0.127944 18.095 0.398944L17.552 3.01194C17.086 5.58794 17.68 8.29494 19.176 10.4339C19.898 11.4909 20.393 12.6809 20.687 14.0009H3.312C3.605 12.6809 4.099 11.4939 4.82 10.4389C6.32 8.29394 6.913 5.58794 6.445 2.99994L5.905 0.399944C5.848 0.126944 5.58 -0.0440563 5.313 0.00994375C5.043 0.0659437 4.869 0.331944 4.925 0.601944L5.463 3.18894C5.882 5.50394 5.349 7.93694 3.997 9.86894C3.11 11.1679 2.524 12.6699 2.229 14.3599C2.217 14.4019 2.201 14.4419 2.2 14.4869C2.2 14.4989 2.205 14.5099 2.206 14.5219C1.956 16.0619 1.939 17.7529 2.179 19.6009L3.01 23.6009C3.06 23.8379 3.268 23.9999 3.5 23.9999C3.534 23.9999 3.568 23.9969 3.602 23.9889C3.873 23.9329 4.046 23.6689 3.99 23.3979L3.165 19.4349C2.958 17.8369 2.953 16.3889 3.126 15.0639C5.884 15.5919 10.579 19.4549 11.5 20.2309V23.4999C11.5 23.7759 11.724 23.9999 12 23.9999C12.276 23.9999 12.5 23.7759 12.5 23.4999V20.2309C14.204 18.7799 18.416 15.5459 20.874 15.0599C21.048 16.3789 21.044 17.8169 20.842 19.3989L20.011 23.3989C19.954 23.6699 20.128 23.9339 20.399 23.9899C20.433 23.9969 20.467 23.9999 20.501 23.9999C20.732 23.9999 20.94 23.8379 20.989 23.6019L21.827 19.5639C22.337 15.5849 21.74 12.4139 20 9.86494C18.651 7.93794 18.118 5.50394 18.534 3.20194ZM12 19.3449C11.058 18.5559 8.291 16.3169 5.729 14.9999H18.27C15.709 16.3169 12.942 18.5559 12 19.3449Z" fill="currentColor"/>
<path d="M2.584 7.72292C2.431 7.95292 2.493 8.26292 2.723 8.41592C2.808 8.47292 2.904 8.49992 3 8.49992C3.162 8.49992 3.32 8.42192 3.417 8.27692L4.417 6.77692C4.423 6.76792 4.421 6.75692 4.426 6.74792C4.468 6.67392 4.5 6.59192 4.5 6.49992C4.5 6.40792 4.468 6.32592 4.425 6.25192C4.42 6.24292 4.422 6.23192 4.416 6.22292L3.416 4.72292C3.263 4.49292 2.953 4.42992 2.723 4.58392C2.493 4.73692 2.431 5.04692 2.584 5.27692L3.066 5.99992H0.5C0.224 5.99992 0 6.22392 0 6.49992C0 6.77592 0.224 6.99992 0.5 6.99992H3.066L2.584 7.72292Z" fill="currentColor"/>
<path d="M23.5 5.99993H20.934L21.416 5.27693C21.569 5.04693 21.507 4.73693 21.277 4.58393C21.049 4.43093 20.737 4.49193 20.584 4.72293L19.584 6.22293C19.578 6.23193 19.58 6.24293 19.575 6.25293C19.532 6.32593 19.501 6.40693 19.5 6.49793C19.5 6.49993 19.5 6.50093 19.5 6.50293C19.5 6.59393 19.532 6.67493 19.575 6.74793C19.58 6.75693 19.578 6.76893 19.584 6.77793L20.584 8.27793C20.681 8.42193 20.839 8.49993 21 8.49993C21.096 8.49993 21.192 8.47293 21.277 8.41593C21.506 8.26293 21.569 7.95293 21.416 7.72293L20.934 6.99993H23.5C23.776 6.99993 24 6.77593 24 6.49993C24 6.22393 23.776 5.99993 23.5 5.99993Z" fill="currentColor"/>
<path d="M11.289 10.6949C11.359 10.9479 11.551 11.1399 11.805 11.2109C11.865 11.2359 11.931 11.2499 12 11.2499C12.069 11.2499 12.135 11.2359 12.195 11.2109C12.448 11.1409 12.64 10.9489 12.711 10.6949C12.736 10.6349 12.75 10.5689 12.75 10.4999C12.75 10.4309 12.736 10.3649 12.711 10.3049C12.641 10.0519 12.449 9.85994 12.195 9.78894C12.135 9.76394 12.069 9.74994 12 9.74994C11.931 9.74994 11.865 9.76394 11.805 9.78894C11.552 9.85894 11.36 10.0509 11.289 10.3049C11.264 10.3649 11.25 10.4309 11.25 10.4999C11.25 10.5689 11.264 10.6349 11.289 10.6949Z" fill="currentColor"/>
</g>
</g>
</svg>
