<svg id="target" width="25" height="24" viewBox="0 0 25 24" fill="none" xmlns="http://www.w3.org/2000/svg">
<g id="love">

<g id="Vector" transform="translate(0.499237 -0.000579834)">
<path d="M7.75 21.5012C7.75 21.4362 7.737 21.3702 7.711 21.3102C7.71 21.3092 7.711 21.3072 7.71 21.3062C7.64 21.0532 7.448 20.8612 7.195 20.7912C7.135 20.7652 7.069 20.7512 7 20.7512C6.931 20.7512 6.865 20.7652 6.805 20.7902C6.552 20.8602 6.36 21.0522 6.29 21.3052C6.29 21.3062 6.29 21.3072 6.289 21.3082C6.263 21.3702 6.25 21.4352 6.25 21.5012C6.25 21.5722 6.264 21.6382 6.29 21.6982C6.361 21.9502 6.552 22.1422 6.805 22.2122C6.865 22.2372 6.931 22.2512 7 22.2512C7.069 22.2512 7.135 22.2372 7.195 22.2122C7.448 22.1422 7.64 21.9502 7.71 21.6972C7.711 21.6962 7.71 21.6942 7.711 21.6932C7.737 21.6322 7.75 21.5662 7.75 21.5012Z" fill="currentColor"/>
<path d="M13.5 10.5012C13.224 10.5012 13 10.7252 13 11.0012V19.0012H12.475C12.221 16.2022 9.864 14.0012 7 14.0012C4.136 14.0012 1.779 16.2022 1.525 19.0012H1V2.50119C1 1.67419 1.673 1.00119 2.5 1.00119H10C10.276 1.00119 10.5 0.77719 10.5 0.50119C10.5 0.22519 10.276 0.00119018 10 0.00119018H2.5C1.122 0.00119018 0 1.12319 0 2.50119V21.5012C0 22.8802 1.122 24.0012 2.5 24.0012H11.5C12.878 24.0012 14 22.8802 14 21.5012V11.0012C14 10.7252 13.776 10.5012 13.5 10.5012ZM7 15.0012C9.312 15.0012 11.223 16.7542 11.472 19.0012H2.528C2.777 16.7542 4.688 15.0012 7 15.0012ZM11.5 23.0012H2.5C1.673 23.0012 1 22.3282 1 21.5012V20.0012H13V21.5012C13 22.3282 12.327 23.0012 11.5 23.0012Z" fill="currentColor"/>
<path d="M23.628 1.9502C23.457 1.6092 23.234 1.3002 22.968 1.0352C21.636 -0.296801 19.314 -0.296801 17.982 1.0352L17.5 1.5162L17.019 1.0352C16.751 0.766199 16.443 0.544199 16.103 0.374199C15.262 -0.0458007 14.307 -0.115801 13.412 0.182199C12.518 0.480199 11.794 1.1082 11.372 1.9502C10.693 3.3092 10.958 4.9452 12.026 6.0122L16.809 11.0002C17.002 11.1862 17.251 11.2772 17.5 11.2772C17.763 11.2772 18.025 11.1742 18.222 10.9702L22.968 6.0192C24.043 4.9452 24.308 3.3092 23.628 1.9502ZM22.253 5.3202L17.514 10.2642L12.74 5.3132C11.97 4.5432 11.78 3.3722 12.266 2.3982C12.568 1.7942 13.087 1.3452 13.726 1.1322C13.989 1.0442 14.259 1.0012 14.527 1.0012C14.915 1.0012 15.298 1.0912 15.655 1.2692C15.898 1.3912 16.119 1.5502 16.311 1.7422L17.146 2.5772C17.341 2.7722 17.658 2.7722 17.853 2.5772L18.688 1.7422C19.643 0.788199 21.304 0.787199 22.261 1.7432C22.451 1.9322 22.611 2.1532 22.733 2.3982C23.221 3.3712 23.03 4.5432 22.253 5.3202Z" fill="currentColor"/>
<path d="M10.445 9.45619C10.181 7.78619 8.743 6.50119 7 6.50119C5.74 6.50119 4.643 7.17619 4.027 8.17819C3.991 8.22519 3.963 8.27419 3.945 8.32819C3.67 8.82719 3.5 9.39219 3.5 10.0012C3.5 11.9312 5.07 13.5012 7 13.5012C8.93 13.5012 10.5 11.9312 10.5 10.0012C10.5 9.87819 10.476 9.76219 10.464 9.64219C10.47 9.58019 10.463 9.51919 10.445 9.45619ZM7 7.50119C8.123 7.50119 9.064 8.25019 9.379 9.27119C7.902 9.74719 6.268 9.41919 5.089 8.40919C5.548 7.85919 6.229 7.50119 7 7.50119ZM7 12.5012C5.622 12.5012 4.5 11.3792 4.5 10.0012C4.5 9.75419 4.547 9.52119 4.614 9.29519C5.593 10.0672 6.79 10.4962 8.016 10.4962C8.504 10.4962 8.993 10.4252 9.471 10.2932C9.323 11.5332 8.278 12.5012 7 12.5012Z" fill="currentColor"/>
</g>
</g>
</svg>
