<svg id="target" width="24" height="24" viewBox="0 0 24 24" fill="none" xmlns="http://www.w3.org/2000/svg">
<g id="flag">

<g id="Vector">
<path d="M22.125 2.773C21.949 2.773 21.775 2.797 21.609 2.845L19.241 3.522C16.854 4.203 14.273 3.848 12.162 2.548C9.623 0.986 6.533 0.593 3.683 1.47L1.503 2.141V0.75C1.503 0.336 1.167 0 0.753 0C0.339 0 0.003 0.336 0.003 0.75V2.603L0 2.604L0.003 23.25C0.003 23.664 0.339 24 0.753 24C1.167 24 1.503 23.664 1.503 23.25V18.924L4.125 18.117C6.562 17.367 9.205 17.702 11.376 19.039C13.022 20.052 14.911 20.574 16.814 20.574C17.767 20.574 18.723 20.443 19.654 20.177L22.639 19.324C23.441 19.095 24 18.354 24 17.521V4.648C24 3.614 23.159 2.773 22.125 2.773ZM22.5 17.521C22.5 17.687 22.389 17.835 22.228 17.881L19.242 18.735C16.859 19.415 14.277 19.061 12.163 17.761C10.513 16.745 8.63 16.225 6.732 16.225C5.709 16.225 4.682 16.376 3.684 16.683L1.504 17.354V3.71L4.126 2.904C6.563 2.154 9.206 2.49 11.377 3.826C13.848 5.347 16.863 5.762 19.654 4.965L22.022 4.288C22.245 4.224 22.501 4.407 22.501 4.649L22.5 17.521Z" fill="currentColor"/>
<path d="M15.957 7.06799C15.664 6.77499 15.189 6.77499 14.896 7.06799C14.603 7.36099 14.603 7.83599 14.896 8.12899L17.301 10.534L14.896 12.937C14.603 13.23 14.603 13.705 14.896 13.998C15.042 14.144 15.234 14.218 15.426 14.218C15.617 14.218 15.81 14.145 15.956 13.998L18.892 11.064C19.033 10.923 19.112 10.733 19.112 10.534C19.112 10.335 19.033 10.144 18.892 10.004L15.957 7.06799Z" fill="currentColor"/>
<path d="M9.10901 7.06799C8.81601 6.77499 8.34101 6.77499 8.04801 7.06799L5.11401 10.003C4.82101 10.296 4.82101 10.771 5.11401 11.064L8.04801 13.998C8.19401 14.144 8.38601 14.218 8.57801 14.218C8.77001 14.218 8.96201 14.145 9.10801 13.998C9.40101 13.705 9.40101 13.23 9.10801 12.937L6.70401 10.534L9.10801 8.12899C9.40201 7.83499 9.40201 7.35999 9.10901 7.06799Z" fill="currentColor"/>
<path d="M13.218 6.88701C12.827 6.75401 12.4 6.96801 12.27 7.36101L10.314 13.23C10.183 13.624 10.396 14.047 10.788 14.179C10.867 14.204 10.947 14.217 11.025 14.217C11.339 14.217 11.632 14.019 11.736 13.704L13.692 7.83501C13.823 7.44201 13.611 7.01801 13.218 6.88701Z" fill="currentColor"/>
</g>
</g>
</svg>
