<svg id="target" width="24" height="24" viewBox="0 0 24 24" fill="none" xmlns="http://www.w3.org/2000/svg">
<path d="M6 0.833206C5.72386 0.833206 5.5 1.05706 5.5 1.33321C5.5 1.60935 5.72386 1.83321 6 1.83321V0.833206ZM6 13.4999C5.72386 13.4999 5.5 13.7237 5.5 13.9999C5.5 14.276 5.72386 14.4999 6 14.4999V13.4999ZM0 13.8145L-0.5 13.8145L-0.5 13.8147L0 13.8145ZM0.261333 14.1399L0.369812 13.6518L0.369333 13.6517L0.261333 14.1399ZM5.59467 15.3252L5.48619 15.8133L5.48667 15.8134L5.59467 15.3252ZM6 14.9999L6.5 15.0001V14.9999H6ZM6 0.333205L6.5 0.333205L6.5 0.333009L6 0.333205ZM5.59467 0.00787187L5.48667 -0.480325L5.48619 -0.480219L5.59467 0.00787187ZM0.261333 1.19321L0.369333 1.6814L0.369812 1.6813L0.261333 1.19321ZM0 1.51854L-0.5 1.51834V1.51854H0ZM6 1.83321H11V0.833206H6V1.83321ZM11 1.83321C10.908 1.83321 10.8333 1.75859 10.8333 1.66654H11.8333C11.8333 1.2063 11.4602 0.833206 11 0.833206V1.83321ZM10.8333 1.66654V13.6665H11.8333V1.66654H10.8333ZM10.8333 13.6665C10.8333 13.5745 10.908 13.4999 11 13.4999V14.4999C11.4602 14.4999 11.8333 14.1268 11.8333 13.6665H10.8333ZM11 13.4999H6V14.4999H11V13.4999ZM-0.5 13.8147C-0.499846 14.2055 -0.228198 14.5437 0.153333 14.6281L0.369333 13.6517C0.445639 13.6686 0.499969 13.7362 0.5 13.8143L-0.5 13.8147ZM0.152855 14.628L5.48619 15.8133L5.70314 14.8371L0.369811 13.6518L0.152855 14.628ZM5.48667 15.8134C5.73327 15.868 5.99132 15.8077 6.18829 15.6496L5.56234 14.8698C5.60174 14.8381 5.65335 14.8261 5.70267 14.837L5.48667 15.8134ZM6.18829 15.6496C6.38526 15.4915 6.4999 15.2526 6.5 15.0001L5.5 14.9997C5.50002 14.9492 5.52295 14.9014 5.56234 14.8698L6.18829 15.6496ZM6.5 14.9999V0.333205H5.5V14.9999H6.5ZM6.5 0.333009C6.4999 0.0804384 6.38526 -0.158458 6.18829 -0.316553L5.56234 0.463314C5.52295 0.431695 5.50002 0.383916 5.5 0.333402L6.5 0.333009ZM6.18829 -0.316553C5.99132 -0.474648 5.73327 -0.53488 5.48667 -0.480325L5.70267 0.496069C5.65335 0.50698 5.60174 0.494933 5.56234 0.463314L6.18829 -0.316553ZM5.48619 -0.480219L0.152855 0.705115L0.369812 1.6813L5.70314 0.495963L5.48619 -0.480219ZM0.153333 0.705009C-0.228199 0.789412 -0.499846 1.12758 -0.5 1.51834L0.5 1.51874C0.499969 1.59689 0.44564 1.66452 0.369333 1.6814L0.153333 0.705009ZM-0.5 1.51854V13.8145H0.5V1.51854H-0.5ZM3.66675 9.16654C4.49518 9.16654 5.16675 8.49497 5.16675 7.66654H4.16675C4.16675 7.94268 3.94289 8.16654 3.66675 8.16654V9.16654ZM5.16675 7.66654C5.16675 6.83811 4.49518 6.16654 3.66675 6.16654V7.16654C3.94289 7.16654 4.16675 7.3904 4.16675 7.66654H5.16675ZM3.66675 6.16654C2.83832 6.16654 2.16675 6.83811 2.16675 7.66654H3.16675C3.16675 7.3904 3.39061 7.16654 3.66675 7.16654V6.16654ZM2.16675 7.66654C2.16675 8.49497 2.83832 9.16654 3.66675 9.16654V8.16654C3.39061 8.16654 3.16675 7.94268 3.16675 7.66654H2.16675Z" transform="translate(6.33325 4.33346)" fill="currentColor"/>
</svg>
