<svg id="target" width="24" height="24" viewBox="0 0 24 24" fill="none" xmlns="http://www.w3.org/2000/svg">
<path d="M7.75 0C7.75 -0.414214 7.41421 -0.75 7 -0.75C6.58579 -0.75 6.25 -0.414214 6.25 0H7.75ZM6.25 12.5C6.25 12.9142 6.58579 13.25 7 13.25C7.41421 13.25 7.75 12.9142 7.75 12.5H6.25ZM7 0.25C6.58579 0.25 6.25 0.585786 6.25 1C6.25 1.41421 6.58579 1.75 7 1.75V0.25ZM14.5007 1L14.5009 0.25H14.5007V1ZM14.8847 1.82L15.3604 2.39978C15.397 2.36977 15.4307 2.33636 15.4609 2.3L14.8847 1.82ZM12.618 3.68L12.1422 3.10022C12.1059 3.13006 12.0724 3.16325 12.0423 3.19936L12.618 3.68ZM12.618 4.32L12.0423 4.80064C12.0724 4.83675 12.1059 4.86994 12.1422 4.89978L12.618 4.32ZM14.8847 6.18L15.4609 5.7C15.4307 5.66364 15.397 5.63023 15.3604 5.60022L14.8847 6.18ZM14.5007 7L14.5007 7.75L14.5009 7.75L14.5007 7ZM7 6.25C6.58579 6.25 6.25 6.58579 6.25 7C6.25 7.41421 6.58579 7.75 7 7.75V6.25ZM9.07233 9.35417C8.66042 9.31054 8.29113 9.60909 8.2475 10.021C8.20388 10.4329 8.50243 10.8022 8.91434 10.8458L9.07233 9.35417ZM4.93643 10.8651C5.34793 10.8177 5.64311 10.4457 5.59575 10.0342C5.54838 9.62274 5.1764 9.32755 4.7649 9.37492L4.93643 10.8651ZM6.25 0V12.5H7.75V0H6.25ZM7 1.75H14.5007V0.25H7V1.75ZM14.5004 1.75C14.4034 1.74996 14.3152 1.69385 14.2741 1.60602L15.6325 0.969882C15.4269 0.530763 14.9858 0.250182 14.5009 0.25L14.5004 1.75ZM14.2741 1.60602C14.2329 1.5182 14.2463 1.41451 14.3084 1.34L15.4609 2.3C15.7713 1.92743 15.8381 1.409 15.6325 0.969882L14.2741 1.60602ZM14.4089 1.24022L12.1422 3.10022L13.0938 4.25978L15.3604 2.39978L14.4089 1.24022ZM12.0423 3.19936C11.6552 3.66296 11.6552 4.33704 12.0423 4.80064L13.1937 3.83936C13.2714 3.93238 13.2714 4.06762 13.1937 4.16064L12.0423 3.19936ZM12.1422 4.89978L14.4089 6.75978L15.3604 5.60022L13.0938 3.74022L12.1422 4.89978ZM14.3084 6.66C14.2463 6.58549 14.2329 6.4818 14.2741 6.39398L15.6325 7.03012C15.8381 6.591 15.7713 6.07257 15.4609 5.7L14.3084 6.66ZM14.2741 6.39398C14.3152 6.30615 14.4034 6.25004 14.5004 6.25L14.5009 7.75C14.9858 7.74982 15.4269 7.46924 15.6325 7.03012L14.2741 6.39398ZM14.5007 6.25H7V7.75H14.5007V6.25ZM8.91434 10.8458C10.3101 10.9937 11.4728 11.2956 12.2623 11.6682C12.6582 11.8551 12.925 12.0434 13.0829 12.2085C13.2376 12.3701 13.25 12.4663 13.25 12.5H14.75C14.75 11.967 14.4985 11.5183 14.1668 11.1715C13.8384 10.8283 13.3964 10.5449 12.9026 10.3118C11.9125 9.8444 10.5719 9.513 9.07233 9.35417L8.91434 10.8458ZM13.25 12.5C13.25 12.5388 13.2301 12.6772 12.9661 12.9001C12.7056 13.1201 12.2842 13.352 11.6977 13.5614C10.5314 13.978 8.87065 14.25 7 14.25V15.75C8.99602 15.75 10.8353 15.4623 12.2023 14.9741C12.8825 14.7311 13.4861 14.4243 13.9339 14.0461C14.3783 13.6708 14.75 13.1515 14.75 12.5H13.25ZM7 14.25C5.12935 14.25 3.46862 13.978 2.30227 13.5614C1.71583 13.352 1.2944 13.1201 1.0339 12.9001C0.769941 12.6772 0.75 12.5388 0.75 12.5H-0.75C-0.75 13.1515 -0.378274 13.6708 0.0660958 14.0461C0.513931 14.4243 1.1175 14.7311 1.79773 14.9741C3.16472 15.4623 5.00398 15.75 7 15.75V14.25ZM0.75 12.5C0.75 12.4669 0.761879 12.3741 0.908702 12.2178C1.0592 12.0576 1.3145 11.8737 1.69579 11.6897C2.45637 11.3227 3.58009 11.0212 4.93643 10.8651L4.7649 9.37492C3.30658 9.54279 2.00496 9.87499 1.04387 10.3388C0.56433 10.5702 0.13472 10.851 -0.184494 11.1907C-0.507379 11.5344 -0.75 11.9767 -0.75 12.5H0.75Z" transform="translate(4.49927 4.5)" fill="currentColor"/>
</svg>
