<svg id="target" width="24" height="24" viewBox="0 0 24 24" fill="none" xmlns="http://www.w3.org/2000/svg">
<path d="M11.8854 3.44736L11.5318 3.8009L11.5318 3.80092L11.8854 3.44736ZM8.11404 3.44736L8.46759 3.80091L8.4676 3.8009L8.11404 3.44736ZM6.05871 8.76936L6.54276 8.89463L6.54277 8.8946L6.05871 8.76936ZM6.56404 9.27469L6.43879 8.79063L6.43877 8.79064L6.56404 9.27469ZM11.8854 7.21869L11.5318 6.86513L11.5318 6.86514L11.8854 7.21869ZM9.88424 6.15622C10.0795 5.96096 10.0795 5.64438 9.88424 5.44912C9.68898 5.25386 9.37239 5.25386 9.17713 5.44912L9.88424 6.15622ZM15.3334 2.66667L15.5906 3.09541C15.7226 3.0162 15.8108 2.88057 15.8296 2.72776C15.8484 2.57494 15.7958 2.42198 15.6869 2.31311L15.3334 2.66667ZM13.6667 3.66667L13.3131 4.02022C13.4754 4.18245 13.7272 4.21346 13.9239 4.09541L13.6667 3.66667ZM11.6667 1.66667L11.2379 1.40942C11.1199 1.60616 11.1509 1.85799 11.3131 2.02022L11.6667 1.66667ZM12.6667 0L13.0202 -0.353553C12.9114 -0.462425 12.7584 -0.515066 12.6056 -0.496254C12.4528 -0.477442 12.3172 -0.389274 12.2379 -0.257248L12.6667 0ZM10.9173 2.72265C10.7642 2.95241 10.8263 3.26285 11.056 3.41603C11.2858 3.5692 11.5962 3.50711 11.7494 3.27735L10.9173 2.72265ZM12.4161 2.27735C12.5692 2.04759 12.5072 1.73715 12.2774 1.58397C12.0476 1.4308 11.7372 1.49289 11.584 1.72265L12.4161 2.27735ZM13.6107 3.7494C13.8405 3.59622 13.9026 3.28579 13.7494 3.05602C13.5962 2.82626 13.2858 2.76417 13.056 2.91735L13.6107 3.7494ZM12.056 3.58402C11.8263 3.73719 11.7642 4.04763 11.9173 4.27739C12.0705 4.50715 12.381 4.56924 12.6107 4.41607L12.056 3.58402ZM5 10.5C5.27614 10.5 5.5 10.2761 5.5 10C5.5 9.72386 5.27614 9.5 5 9.5V10.5ZM0 14.8333C-0.276142 14.8333 -0.5 15.0572 -0.5 15.3333C-0.5 15.6095 -0.276142 15.8333 0 15.8333V14.8333ZM12.2389 3.09381C11.6451 2.49991 10.8396 2.16626 9.99971 2.16626V3.16626C10.5744 3.16626 11.1255 3.39455 11.5318 3.8009L12.2389 3.09381ZM9.99971 2.16626C9.15983 2.16626 8.35435 2.49991 7.76048 3.09381L8.4676 3.8009C8.87393 3.39455 9.42505 3.16626 9.99971 3.16626V2.16626ZM7.76049 3.0938C7.51185 3.34243 7.28618 3.73968 7.08717 4.1597C6.881 4.59483 6.67767 5.11138 6.48829 5.64379C6.10924 6.70943 5.77459 7.87136 5.57465 8.64411L6.54277 8.8946C6.73749 8.14202 7.06384 7.00961 7.43046 5.97892C7.61391 5.46317 7.80457 4.98106 7.99086 4.58789C8.18431 4.17961 8.34956 3.91895 8.46759 3.80091L7.76049 3.0938ZM5.57465 8.64408C5.49348 8.95774 5.58429 9.29092 5.81338 9.52002L6.52049 8.81291C6.54186 8.83428 6.55033 8.86537 6.54276 8.89463L5.57465 8.64408ZM5.81338 9.52002C6.04247 9.74911 6.37566 9.83992 6.68931 9.75874L6.43877 8.79064C6.46803 8.78306 6.49911 8.79154 6.52049 8.81291L5.81338 9.52002ZM6.68929 9.75875C7.46195 9.55883 8.62307 9.22468 9.68828 8.84577C10.2205 8.65647 10.7369 8.45311 11.1721 8.24672C11.5924 8.04742 11.9898 7.82141 12.2389 7.57224L11.5318 6.86514C11.413 6.98397 11.1518 7.14963 10.7437 7.34316C10.3505 7.5296 9.86861 7.72025 9.35314 7.90361C8.32301 8.27003 7.19146 8.59588 6.43879 8.79063L6.68929 9.75875ZM12.2389 7.57225C12.8328 6.97838 13.1665 6.1729 13.1665 5.33302H12.1665C12.1665 5.90768 11.9382 6.4588 11.5318 6.86513L12.2389 7.57225ZM13.1665 5.33302C13.1665 4.49314 12.8328 3.68766 12.2389 3.09379L11.5318 3.80092C11.9382 4.20725 12.1665 4.75837 12.1665 5.33302H13.1665ZM10 6.50002C10.6444 6.50002 11.1667 5.97768 11.1667 5.33335H10.1667C10.1667 5.4254 10.0921 5.50002 10 5.50002V6.50002ZM11.1667 5.33335C11.1667 4.68902 10.6444 4.16669 10 4.16669V5.16669C10.0921 5.16669 10.1667 5.24131 10.1667 5.33335H11.1667ZM10 4.16669C9.35571 4.16669 8.83337 4.68902 8.83337 5.33335H9.83337C9.83337 5.24131 9.90799 5.16669 10 5.16669V4.16669ZM8.83337 5.33335C8.83337 5.97769 9.35571 6.50002 10 6.50002V5.50002C9.90799 5.50002 9.83337 5.4254 9.83337 5.33335H8.83337ZM9.17713 5.44912L5.81338 8.81291L6.52049 9.52001L9.88424 6.15622L9.17713 5.44912ZM15.0761 2.23792L13.4094 3.23792L13.9239 4.09541L15.5906 3.09541L15.0761 2.23792ZM14.0202 3.31311L12.0202 1.31311L11.3131 2.02022L13.3131 4.02022L14.0202 3.31311ZM12.0954 1.92391L13.0954 0.257248L12.2379 -0.257248L11.2379 1.40942L12.0954 1.92391ZM15.6869 2.31311L13.0202 -0.353553L12.3131 0.353553L14.9798 3.02022L15.6869 2.31311ZM11.7494 3.27735L12.4161 2.27735L11.584 1.72265L10.9173 2.72265L11.7494 3.27735ZM13.056 2.91735L12.056 3.58402L12.6107 4.41607L13.6107 3.7494L13.056 2.91735ZM5 9.5H2.66667V10.5H5V9.5ZM2.66667 9.5C1.65414 9.5 0.833333 10.3208 0.833333 11.3333H1.83333C1.83333 10.8731 2.20643 10.5 2.66667 10.5V9.5ZM0.833333 11.3333C0.833333 12.3459 1.65414 13.1667 2.66667 13.1667V12.1667C2.20643 12.1667 1.83333 11.7936 1.83333 11.3333H0.833333ZM2.66667 13.1667H10.6667V12.1667H2.66667V13.1667ZM10.6667 13.1667C11.1269 13.1667 11.5 13.5398 11.5 14H12.5C12.5 12.9875 11.6792 12.1667 10.6667 12.1667V13.1667ZM11.5 14C11.5 14.4602 11.1269 14.8333 10.6667 14.8333V15.8333C11.6792 15.8333 12.5 15.0125 12.5 14H11.5ZM10.6667 14.8333H0V15.8333H10.6667V14.8333Z" transform="translate(4.33331 4.33331)" fill="currentColor"/>
</svg>
