<svg id="target" width="24" height="24" viewBox="0 0 24 24" fill="none" xmlns="http://www.w3.org/2000/svg">
<g id="cup">

<path id="Vector" d="M14.5 9.99915L14.9942 10.0752C14.9981 10.05 15 10.0246 15 9.99915H14.5ZM12.565 22.5751L12.0708 22.4991L12.0708 22.4991L12.565 22.5751ZM12.071 22.9991V23.4991H12.0712L12.071 22.9991ZM4.929 22.9991L4.92881 23.4991H4.929V22.9991ZM4.435 22.5751L4.92919 22.4991L4.92918 22.4991L4.435 22.5751ZM2.5 9.99915H2C2 10.0246 2.00194 10.05 2.00582 10.0752L2.5 9.99915ZM8.5 3.99915V3.49915V3.99915ZM0 9.49915C-0.276142 9.49915 -0.5 9.723 -0.5 9.99915C-0.5 10.2753 -0.276142 10.4991 0 10.4991V9.49915ZM17 10.4991C17.2761 10.4991 17.5 10.2753 17.5 9.99915C17.5 9.723 17.2761 9.49915 17 9.49915V10.4991ZM6.01063 20.8966C5.95398 21.1669 6.12716 21.4319 6.39743 21.4885C6.6677 21.5452 6.93272 21.372 6.98937 21.1017L6.01063 20.8966ZM10.734 0.799155L11.2234 0.901729L11.2238 0.899577L10.734 0.799155ZM12.16 0.105155L12.3835 -0.342105L12.3832 -0.342268L12.16 0.105155ZM15.7765 2.47142C16.0235 2.59486 16.3238 2.49468 16.4473 2.24767C16.5707 2.00065 16.4705 1.70034 16.2235 1.57689L15.7765 2.47142ZM3.26901 14.4991C2.99287 14.4991 2.76901 14.723 2.76901 14.9991C2.76901 15.2753 2.99287 15.4991 3.26901 15.4991V14.4991ZM13.73 15.4991C14.0062 15.4991 14.23 15.2753 14.23 14.9991C14.23 14.723 14.0062 14.4991 13.73 14.4991V15.4991ZM14.0058 9.92311L12.0708 22.4991L13.0592 22.6512L14.9942 10.0752L14.0058 9.92311ZM12.0708 22.4991L12.7221 23.258C12.9033 23.1024 13.0229 22.8872 13.0592 22.6511L12.0708 22.4991ZM12.0708 22.4991L12.0712 23.4991C12.31 23.4991 12.5409 23.4135 12.7221 23.258L12.0708 22.4991ZM12.071 22.4991H4.929V23.4991H12.071V22.4991ZM4.92919 22.4991L4.27789 23.258C4.45911 23.4135 4.69 23.4991 4.92881 23.4991L4.92919 22.4991ZM4.92919 22.4991L3.94081 22.6511C3.97711 22.8872 4.09668 23.1024 4.27789 23.258L4.92919 22.4991ZM4.92918 22.4991L2.99418 9.92311L2.00582 10.0752L3.94082 22.6512L4.92918 22.4991ZM3 9.99915C3 8.54045 3.57946 7.14151 4.61091 6.11006L3.90381 5.40295C2.68482 6.62194 2 8.27524 2 9.99915H3ZM4.61091 6.11006C5.64236 5.07861 7.04131 4.49915 8.5 4.49915V3.49915C6.77609 3.49915 5.12279 4.18397 3.90381 5.40295L4.61091 6.11006ZM8.5 4.49915C9.95869 4.49915 11.3576 5.07861 12.3891 6.11006L13.0962 5.40295C11.8772 4.18397 10.2239 3.49915 8.5 3.49915V4.49915ZM12.3891 6.11006C13.4205 7.14151 14 8.54045 14 9.99915H15C15 8.27524 14.3152 6.62194 13.0962 5.40295L12.3891 6.11006ZM14.5 9.49915H2.5V10.4991H14.5V9.49915ZM0 10.4991H17V9.49915H0V10.4991ZM6.98937 21.1017L11.2234 0.901728L10.2446 0.696582L6.01063 20.8966L6.98937 21.1017ZM11.2238 0.899577C11.2392 0.824499 11.2716 0.753966 11.3186 0.693425L10.5287 0.0802743C10.3877 0.261901 10.2904 0.473503 10.2442 0.698732L11.2238 0.899577ZM11.3186 0.693425C11.3656 0.632883 11.4259 0.583953 11.4948 0.550416L11.0572 -0.348752C10.8505 -0.24814 10.6696 -0.101351 10.5287 0.0802743L11.3186 0.693425ZM11.4948 0.550416C11.5637 0.516879 11.6394 0.499631 11.7161 0.500006L11.721 -0.499982C11.491 -0.501106 11.264 -0.449364 11.0572 -0.348752L11.4948 0.550416ZM11.7161 0.500006C11.7927 0.500381 11.8682 0.518368 11.9368 0.552577L12.3832 -0.342268C12.1774 -0.444897 11.9509 -0.498858 11.721 -0.499982L11.7161 0.500006ZM11.9365 0.552415L15.7765 2.47142L16.2235 1.57689L12.3835 -0.342105L11.9365 0.552415ZM3.26901 15.4991H13.73V14.4991H3.26901V15.4991Z" transform="translate(3.5 0.500427)" fill="currentColor"/>
</g>
</svg>
