<svg id="target" width="24" height="24" viewBox="0 0 24 24" fill="none" xmlns="http://www.w3.org/2000/svg">
<path d="M6.52781 1.12315L7.08447 0.620524L7.08374 0.619708L6.52781 1.12315ZM8.46648 1.12315L9.02314 1.62577L9.02337 1.62552L8.46648 1.12315ZM9.09315 0.428479L8.53787 -0.0756838L8.53626 -0.0738937L9.09315 0.428479ZM11.3645 1.37048L12.1135 1.409L12.1136 1.40728L11.3645 1.37048ZM11.3165 2.30381L10.5675 2.26529L10.5674 2.26615L11.3165 2.30381ZM12.6878 3.67515L12.7255 4.4242L12.7263 4.42416L12.6878 3.67515ZM13.6211 3.62715L13.6597 4.37616L13.661 4.37609L13.6211 3.62715ZM14.5645 5.90181L14.0626 5.34447L14.0621 5.34493L14.5645 5.90181ZM13.8698 6.52848L13.3674 5.97159L13.3672 5.97182L13.8698 6.52848ZM13.8698 8.46715L13.3672 9.02381L13.3674 9.02403L13.8698 8.46715ZM14.5645 9.09381L14.0621 9.6507L14.0621 9.6507L14.5645 9.09381ZM13.6225 11.3678L13.6611 10.6188L13.661 10.6188L13.6225 11.3678ZM12.6891 11.3198L12.7277 10.5708L12.7272 10.5708L12.6891 11.3198ZM11.3178 12.6911L10.5688 12.7292L10.5688 12.7297L11.3178 12.6911ZM11.3658 13.6245L12.1149 13.588L12.1148 13.586L11.3658 13.6245ZM9.09315 14.5645L8.53626 15.0669L8.53713 15.0678L9.09315 14.5645ZM8.46648 13.8698L9.02337 13.3674L9.02314 13.3672L8.46648 13.8698ZM6.52781 13.8698L5.97115 13.3672L5.97093 13.3674L6.52781 13.8698ZM5.90115 14.5645L5.34426 14.0621L5.34426 14.0621L5.90115 14.5645ZM3.62715 13.6225L4.37615 13.6611L4.37616 13.661L3.62715 13.6225ZM3.67515 12.6891L4.42416 12.7277L4.42419 12.7269L3.67515 12.6891ZM2.30448 11.3198L2.26599 10.5708L2.26596 10.5708L2.30448 11.3198ZM1.37115 11.3678L1.40853 12.1169L1.40967 12.1168L1.37115 11.3678ZM0.431146 9.09381L0.933582 9.65064L0.933784 9.65046L0.431146 9.09381ZM1.12515 8.46715L0.622525 7.91048L0.622507 7.9105L1.12515 8.46715ZM1.12515 6.52848L0.622507 7.08512L0.622525 7.08514L1.12515 6.52848ZM0.431146 5.90181L-0.073568 6.45658L-0.0714933 6.45846L0.431146 5.90181ZM1.36981 3.63115L1.40833 2.88212L1.40415 2.88193L1.36981 3.63115ZM2.30315 3.67915L2.34171 2.93014L2.34167 2.93014L2.30315 3.67915ZM3.67515 2.30448L2.92613 2.343L2.92621 2.3445L3.67515 2.30448ZM3.62715 1.37115L2.87808 1.40853L2.87814 1.40967L3.62715 1.37115ZM5.90115 0.431146L5.34432 0.933583L5.34522 0.934583L5.90115 0.431146ZM5.97115 1.62577C6.36098 2.05751 6.91545 2.30391 7.49715 2.30391V0.803915C7.33984 0.803915 7.18989 0.73728 7.08447 0.620525L5.97115 1.62577ZM7.49715 2.30391C8.07884 2.30391 8.63331 2.05751 9.02314 1.62577L7.90982 0.620525C7.8044 0.73728 7.65445 0.803915 7.49715 0.803915V2.30391ZM9.02337 1.62552L9.65003 0.930851L8.53626 -0.0738937L7.90959 0.620773L9.02337 1.62552ZM9.64841 0.932639C9.80622 0.75883 10.0562 0.702871 10.2731 0.792807L10.8477 -0.592757C10.0458 -0.925328 9.12144 -0.7184 8.53788 -0.0756812L9.64841 0.932639ZM10.2731 0.792807C10.4899 0.882744 10.6269 1.09919 10.6154 1.33367L12.1136 1.40728C12.1562 0.54021 11.6496 -0.260186 10.8477 -0.592757L10.2731 0.792807ZM10.6155 1.33196L10.5675 2.26529L12.0655 2.34233L12.1135 1.409L10.6155 1.33196ZM10.5674 2.26615C10.5382 2.84696 10.7562 3.413 11.1674 3.82422L12.2281 2.76356C12.1167 2.65216 12.0576 2.49882 12.0655 2.34147L10.5674 2.26615ZM11.1674 3.82422C11.5786 4.23543 12.1447 4.4534 12.7255 4.4242L12.6501 2.92609C12.4928 2.934 12.3395 2.87495 12.2281 2.76356L11.1674 3.82422ZM12.7263 4.42416L13.6597 4.37616L13.5826 2.87814L12.6493 2.92614L12.7263 4.42416ZM13.661 4.37609C13.8963 4.36356 14.1139 4.50068 14.2041 4.71831L15.5897 4.14369C15.256 3.33894 14.4513 2.8319 13.5813 2.87821L13.661 4.37609ZM14.2041 4.71831C14.2944 4.93594 14.2377 5.18682 14.0626 5.34447L15.0663 6.45915C15.7138 5.87617 15.9235 4.94845 15.5897 4.14369L14.2041 4.71831ZM14.0621 5.34493L13.3674 5.97159L14.3722 7.08536L15.0669 6.4587L14.0621 5.34493ZM13.3672 5.97182C12.9354 6.36165 12.689 6.91612 12.689 7.49781H14.189C14.189 7.34051 14.2557 7.19056 14.3724 7.08514L13.3672 5.97182ZM12.689 7.49781C12.689 8.07951 12.9354 8.63398 13.3672 9.02381L14.3724 7.91048C14.2557 7.80506 14.189 7.65512 14.189 7.49781H12.689ZM13.3674 9.02403L14.0621 9.6507L15.0669 8.53693L14.3722 7.91026L13.3674 9.02403ZM14.0621 9.6507C14.2369 9.80834 14.2934 10.0589 14.2034 10.2763L15.5892 10.8504C15.9222 10.0464 15.713 9.11983 15.0668 8.53692L14.0621 9.6507ZM14.2034 10.2763C14.1133 10.4937 13.8961 10.6309 13.6611 10.6188L13.5839 12.1168C14.453 12.1616 15.2561 11.6544 15.5892 10.8504L14.2034 10.2763ZM13.661 10.6188L12.7277 10.5708L12.6506 12.0688L13.584 12.1168L13.661 10.6188ZM12.7272 10.5708C12.1462 10.5412 11.5799 10.7591 11.1685 11.1705L12.2292 12.2312C12.3405 12.1198 12.4938 12.0608 12.6511 12.0688L12.7272 10.5708ZM11.1685 11.1705C10.7571 11.5819 10.5392 12.1482 10.5688 12.7292L12.0668 12.6531C12.0588 12.4958 12.1178 12.3425 12.2292 12.2312L11.1685 11.1705ZM10.5688 12.7297L10.6168 13.663L12.1148 13.586L12.0668 12.6526L10.5688 12.7297ZM10.6167 13.661C10.6281 13.8956 10.4909 14.112 10.2739 14.2018L10.8472 15.5879C11.6498 15.256 12.1572 14.4555 12.1149 13.588L10.6167 13.661ZM10.2739 14.2018C10.0568 14.2916 9.80679 14.2353 9.64916 14.0611L8.53713 15.0678C9.12 15.7117 10.0446 15.9199 10.8472 15.5879L10.2739 14.2018ZM9.65003 14.0621L9.02337 13.3674L7.90959 14.3722L8.53626 15.0669L9.65003 14.0621ZM9.02314 13.3672C8.63331 12.9354 8.07884 12.689 7.49715 12.689V14.189C7.65445 14.189 7.8044 14.2557 7.90982 14.3724L9.02314 13.3672ZM7.49715 12.689C6.91545 12.689 6.36098 12.9354 5.97115 13.3672L7.08447 14.3724C7.18989 14.2557 7.33984 14.189 7.49715 14.189V12.689ZM5.97093 13.3674L5.34426 14.0621L6.45803 15.0669L7.0847 14.3722L5.97093 13.3674ZM5.34426 14.0621C5.18662 14.2369 4.93605 14.2934 4.71863 14.2034L4.14456 15.5892C4.94855 15.9222 5.87513 15.713 6.45804 15.0668L5.34426 14.0621ZM4.71863 14.2034C4.50121 14.1133 4.36404 13.8961 4.37615 13.6611L2.87814 13.5839C2.83336 14.453 3.34058 15.2561 4.14456 15.5892L4.71863 14.2034ZM4.37616 13.661L4.42416 12.7277L2.92614 12.6506L2.87814 13.584L4.37616 13.661ZM4.42419 12.7269C4.45347 12.1462 4.23543 11.5803 3.8241 11.1694L2.76396 12.2306C2.87509 12.3416 2.93401 12.4945 2.9261 12.6514L4.42419 12.7269ZM3.8241 11.1694C3.41277 10.7585 2.84665 10.541 2.26599 10.5708L2.34297 12.0688C2.49986 12.0608 2.65282 12.1195 2.76396 12.2306L3.8241 11.1694ZM2.26596 10.5708L1.33262 10.6188L1.40967 12.1168L2.343 12.0688L2.26596 10.5708ZM1.33377 10.6187C1.0989 10.6305 0.882059 10.4932 0.792225 10.2758L-0.594008 10.8489C-0.261815 11.6525 0.540029 12.1602 1.40853 12.1169L1.33377 10.6187ZM0.792225 10.2758C0.702391 10.0585 0.758992 9.80818 0.933582 9.65064L-0.0712912 8.53698C-0.716898 9.11953 -0.926201 10.0452 -0.594008 10.8489L0.792225 10.2758ZM0.933784 9.65046L1.62778 9.02379L0.622507 7.9105L-0.0714929 8.53717L0.933784 9.65046ZM1.62777 9.02381C2.05951 8.63398 2.30591 8.07951 2.30591 7.49781H0.805915C0.805915 7.65512 0.73928 7.80506 0.622525 7.91048L1.62777 9.02381ZM2.30591 7.49781C2.30591 6.91612 2.05951 6.36165 1.62777 5.97182L0.622525 7.08514C0.73928 7.19056 0.805915 7.34051 0.805915 7.49781H2.30591ZM1.62778 5.97183L0.933784 5.34517L-0.0714933 6.45846L0.622507 7.08512L1.62778 5.97183ZM0.935856 5.34704C0.762526 5.18935 0.706667 4.93992 0.796187 4.72337L-0.590036 4.15032C-0.921069 4.9511 -0.714511 5.87347 -0.0735645 6.45658L0.935856 5.34704ZM0.796187 4.72337C0.885708 4.50681 1.10139 4.36963 1.33547 4.38036L1.40415 2.88193C0.538556 2.84226 -0.259003 3.34954 -0.590036 4.15032L0.796187 4.72337ZM1.33129 4.38016L2.26463 4.42816L2.34167 2.93014L1.40833 2.88214L1.33129 4.38016ZM2.26458 4.42815C2.84673 4.45813 3.41425 4.23966 3.82603 3.82708L2.76435 2.76745C2.65289 2.87912 2.49928 2.93825 2.34171 2.93014L2.26458 4.42815ZM3.82603 3.82708C4.23782 3.41449 4.45518 2.84654 4.42408 2.26446L2.92621 2.3445C2.93463 2.50205 2.8758 2.65578 2.76435 2.76745L3.82603 3.82708ZM4.42416 2.26596L4.37616 1.33263L2.87814 1.40967L2.92614 2.343L4.42416 2.26596ZM4.37621 1.33377C4.36449 1.0989 4.5018 0.882059 4.71912 0.792225L4.1461 -0.594008C3.34247 -0.261815 2.83474 0.540029 2.87808 1.40853L4.37621 1.33377ZM4.71912 0.792225C4.93644 0.702391 5.18678 0.758992 5.34432 0.933582L6.45797 -0.0712912C5.87543 -0.716898 4.94972 -0.926201 4.1461 -0.594008L4.71912 0.792225ZM5.34522 0.934583L5.97189 1.62658L7.08374 0.619708L6.45707 -0.0722918L5.34522 0.934583ZM7.49707 11.2478C9.56814 11.2478 11.2471 9.56888 11.2471 7.49781H9.74707C9.74707 8.74045 8.73971 9.74781 7.49707 9.74781V11.2478ZM11.2471 7.49781C11.2471 5.42674 9.56814 3.74781 7.49707 3.74781V5.24781C8.73971 5.24781 9.74707 6.25517 9.74707 7.49781H11.2471ZM7.49707 3.74781C5.426 3.74781 3.74707 5.42674 3.74707 7.49781H5.24707C5.24707 6.25517 6.25443 5.24781 7.49707 5.24781V3.74781ZM3.74707 7.49781C3.74707 9.56888 5.426 11.2478 7.49707 11.2478V9.74781C6.25443 9.74781 5.24707 8.74045 5.24707 7.49781H3.74707Z" transform="translate(4.5022 4.50219)" fill="currentColor"/>
</svg>
