<svg id="target" width="24" height="24" viewBox="0 0 24 24" fill="none" xmlns="http://www.w3.org/2000/svg">
<path d="M10.7267 4.45133C10.6953 4.42007 10.6777 4.37761 10.6777 4.33333C10.6777 4.28906 10.6953 4.2466 10.7267 4.21533L12.4707 2.47133C12.6612 2.28076 12.7182 1.99422 12.6152 1.7452C12.5123 1.49619 12.2695 1.33366 12 1.33333H5.83333C5.74129 1.33333 5.66667 1.25871 5.66667 1.16667V0.666667C5.66667 0.298477 5.36819 0 5 0C4.63181 0 4.33333 0.298477 4.33333 0.666667V14C4.33333 14.2761 4.10948 14.5 3.83333 14.5C3.55719 14.5 3.33333 14.2761 3.33333 14V12.3033C3.33354 12.2546 3.31236 12.2083 3.2754 12.1766C3.23844 12.1449 3.18943 12.131 3.14133 12.1387C1.41867 12.4 0 13.036 0 14C0 15.2987 2.576 16 5 16C7.424 16 10 15.2987 10 14C10 12.82 7.87333 12.1333 5.66667 12.018V7.5C5.66667 7.40795 5.74129 7.33333 5.83333 7.33333H12C12.2696 7.33328 12.5126 7.17085 12.6158 6.92177C12.7189 6.67269 12.6619 6.386 12.4713 6.19533L10.7267 4.45133Z" transform="translate(5.66675 4)" fill="currentColor"/>
</svg>
