<svg id="target" width="24" height="24" viewBox="0 0 24 24" fill="none" xmlns="http://www.w3.org/2000/svg">
<path d="M15.4395 0.00353235C10.0342 0.694127 5.37293 3.992 3.08553 8.74401L1.32887 12.472C1.31578 12.4994 1.30551 12.5279 1.2982 12.5571L0.102866 14.3786C-0.0935632 14.6776 -0.000289142 15.0729 0.311199 15.2615C0.622688 15.45 1.03444 15.3605 1.23087 15.0615L4.24287 10.4483C4.3452 10.3096 4.54264 10.2719 4.69248 10.3625C4.84232 10.453 4.89226 10.6403 4.8062 10.7888L4.01353 11.9978C3.97477 12.0566 3.98008 12.1327 4.02667 12.1861C4.07326 12.2394 4.15042 12.2577 4.21753 12.2314L6.50953 11.3277C8.11367 10.713 9.47637 9.63042 10.4055 8.23265C10.446 8.17281 10.4403 8.0945 10.3915 8.04065L8.87353 6.34465C8.8312 6.29706 8.82151 6.2302 8.8487 6.17333C8.87589 6.11645 8.93501 6.07991 9.0002 6.07969H11.3335C11.3918 6.07922 11.4442 6.04551 11.4669 5.99393C11.7927 5.23923 12.2552 4.54587 12.8329 3.94593L15.8669 0.806092C16.0094 0.658314 16.0406 0.440855 15.9452 0.261544C15.8497 0.0822335 15.6478 -0.0208004 15.4395 0.00353235Z" transform="translate(3.99976 4.00031)" fill="currentColor"/>
</svg>
