<svg id="target" viewBox="0 0 25 24" fill="none" xmlns="http://www.w3.org/2000/svg">
<g id="rooster">

<g id="Vector" transform="translate(3.29781 0.247986)">
<path d="M1.4024 6.88502C1.4324 6.87502 1.4604 6.85902 1.4844 6.83802C2.8484 5.65102 4.5974 4.99902 6.4054 5.00402C8.2064 5.00402 9.9464 5.65502 11.3054 6.83802C11.4104 6.92802 11.5694 6.91602 11.6594 6.81002C11.6794 6.78602 11.6954 6.75902 11.7054 6.73002L12.6534 3.96302C13.1014 2.65702 12.4064 1.23502 11.1004 0.787023C10.2314 0.489023 9.2694 0.691023 8.5944 1.31302C7.9384 0.0980225 6.4224 -0.354977 5.2074 0.300023C4.7784 0.532023 4.4264 0.884023 4.1944 1.31302C3.1794 0.377023 1.5974 0.441022 0.661403 1.45702C0.0394027 2.13202 -0.162597 3.09402 0.135403 3.96302L1.0844 6.73002C1.1294 6.86102 1.2714 6.93002 1.4024 6.88502Z" fill="currentColor"/>
<path d="M18.3764 15.269H18.3724C17.6074 12.39 15.1324 10.291 12.1674 10.005L11.8454 9.98001C10.4474 6.97601 6.8784 5.67301 3.8744 7.07101C1.7604 8.05401 0.408396 10.173 0.405396 12.504V22.004C0.405396 22.832 1.0774 23.504 1.9064 23.503C2.7344 23.503 3.4054 22.832 3.4054 22.004C3.4054 22.832 4.0774 23.504 4.9054 23.504C5.7334 23.504 6.4054 22.832 6.4054 22.004C6.4054 22.832 7.0774 23.504 7.9054 23.504C8.7334 23.504 9.4054 22.832 9.4054 22.004C9.4054 22.832 10.0774 23.504 10.9054 23.504C11.7334 23.504 12.4054 22.832 12.4054 22.004V16.754C12.4054 16.616 12.5174 16.504 12.6554 16.504H17.4054C17.9574 16.503 18.4054 16.055 18.4044 15.503C18.4044 15.424 18.3954 15.346 18.3764 15.269ZM8.1574 12.504C8.1554 12.504 8.1534 12.504 8.1514 12.504C7.4614 12.502 6.9034 11.94 6.9054 11.25C6.9074 10.56 7.4694 10.002 8.1594 10.004C8.8484 10.006 9.4054 10.565 9.4054 11.254C9.4064 11.944 8.8474 12.503 8.1574 12.504ZM15.6424 14.457C15.6004 14.487 15.5514 14.503 15.4994 14.504H12.6514C12.5134 14.505 12.4024 14.394 12.4014 14.256C12.4014 13.811 12.3964 12.878 12.3914 12.382C12.3904 12.243 12.5034 12.13 12.6424 12.129C12.6644 12.129 12.6854 12.132 12.7064 12.137C13.9024 12.429 14.9594 13.127 15.6994 14.11C15.7794 14.222 15.7534 14.377 15.6424 14.457Z" fill="currentColor"/>
<path d="M15.9054 17.504H14.4054C14.1294 17.504 13.9054 17.728 13.9054 18.004V21.004C13.9054 21.28 14.1294 21.504 14.4054 21.504H15.4054C16.0374 21.585 16.6584 21.288 16.9934 20.746C17.5614 19.684 16.5334 18.046 16.3214 17.727C16.2284 17.588 16.0724 17.504 15.9054 17.504Z" fill="currentColor"/>
</g>
</g>
</svg>
