<svg id="target" width="24" height="24" viewBox="0 0 24 24" fill="none" xmlns="http://www.w3.org/2000/svg">
<path d="M15 0L15 -0.500001L14.9989 -0.499999L15 0ZM4.238 6.85733L4.68536 7.08101L4.69073 7.06955L4.238 6.85733ZM-0.447214 15.1097C-0.570708 15.3567 -0.470596 15.6571 -0.223607 15.7805C0.0233825 15.904 0.323719 15.8039 0.447214 15.5569L-0.447214 15.1097ZM1.66667 11.5C1.39053 11.5 1.16668 11.7239 1.16669 12C1.16669 12.2762 1.39056 12.5 1.6667 12.5L1.66667 11.5ZM8.91135 7.13667L8.44865 6.94719L8.4486 6.9473L8.91135 7.13667ZM9.40335 6.07L9.84841 6.29787C9.94729 6.10474 9.91033 5.86987 9.75691 5.71645L9.40335 6.07ZM8.47002 5.13667L8.11437 5.48812L8.11647 5.49022L8.47002 5.13667ZM8.66669 4.66667L8.66605 5.16667H8.66669V4.66667ZM10.2194 4.66667V5.16667C10.3916 5.16667 10.5518 5.07798 10.6432 4.93196L10.2194 4.66667ZM15.0314 0.752L14.8772 0.276367C14.8707 0.278468 14.8642 0.280702 14.8579 0.283067L15.0314 0.752ZM15.3334 0.333333L14.8333 0.333333L14.8334 0.337089L15.3334 0.333333ZM6.05043 10.7575C6.24569 10.9528 6.56227 10.9528 6.75753 10.7575C6.9528 10.5623 6.9528 10.2457 6.75753 10.0504L6.05043 10.7575ZM5.68687 8.97976C5.4916 8.7845 5.17502 8.7845 4.97976 8.97976C4.7845 9.17502 4.7845 9.4916 4.97976 9.68687L5.68687 8.97976ZM7.4038 9.44422C7.59906 9.63948 7.91565 9.63948 8.11091 9.44422C8.30617 9.24896 8.30617 8.93238 8.11091 8.73711L7.4038 9.44422ZM7.02024 7.64645C6.82498 7.45118 6.5084 7.45118 6.31313 7.64645C6.11787 7.84171 6.11787 8.15829 6.31313 8.35355L7.02024 7.64645ZM14.9989 -0.499999C10.1931 -0.489645 5.825 2.29362 3.78527 6.64512L4.69073 7.06955C6.56615 3.06858 10.5824 0.509519 15.0011 0.499999L14.9989 -0.499999ZM3.79079 6.63373L-0.447214 15.1097L0.447214 15.5569L4.68521 7.08094L3.79079 6.63373ZM1.6667 12.5C5.04796 12.4999 8.09354 10.4554 9.37411 7.32603L8.4486 6.9473C7.3218 9.70092 4.64192 11.4999 1.66667 11.5L1.6667 12.5ZM9.37406 7.32614C9.52337 6.96153 9.68328 6.62039 9.84841 6.29787L8.9583 5.84213C8.78209 6.18628 8.61001 6.55314 8.44865 6.94719L9.37406 7.32614ZM9.75691 5.71645L8.82357 4.78311L8.11647 5.49022L9.0498 6.42355L9.75691 5.71645ZM8.82566 4.78522C8.88921 4.84953 8.90787 4.94573 8.87298 5.02913L7.95048 4.64312C7.82958 4.93205 7.89422 5.26534 8.11438 5.48812L8.82566 4.78522ZM8.87298 5.02913C8.83808 5.11253 8.75646 5.16678 8.66605 5.16667L8.66732 4.16667C8.35412 4.16627 8.07138 4.3542 7.95048 4.64312L8.87298 5.02913ZM8.66669 5.16667H10.2194V4.16667H8.66669V5.16667ZM10.6432 4.93196C11.7118 3.22481 13.3159 1.91981 15.2049 1.22093L14.8579 0.283067C12.7616 1.05864 10.9815 2.50686 9.79554 4.40137L10.6432 4.93196ZM15.1855 1.22763C15.5742 1.10163 15.8364 0.738185 15.8333 0.329577L14.8334 0.337089C14.8332 0.309461 14.8509 0.284886 14.8772 0.276367L15.1855 1.22763ZM15.8334 0.333333C15.8334 -0.126944 15.4602 -0.5 15 -0.5V0.5C14.908 0.5 14.8334 0.425421 14.8334 0.333333L15.8334 0.333333ZM6.75753 10.0504L5.68687 8.97976L4.97976 9.68687L6.05043 10.7575L6.75753 10.0504ZM8.11091 8.73711L7.02024 7.64645L6.31313 8.35355L7.4038 9.44422L8.11091 8.73711Z" transform="translate(4.33331 4.33334)" fill="currentColor"/>
</svg>
