<svg id="target" width="25" height="24" viewBox="0 0 25 24" fill="none" xmlns="http://www.w3.org/2000/svg">
<g id="love">

<g id="Vector" transform="translate(0.499084 0.00088501)">
<path d="M12 10.4983C12 8.43026 10.318 6.74826 8.25 6.74826C6.182 6.74826 4.5 8.43026 4.5 10.4983C4.5 12.5663 6.182 14.2483 8.25 14.2483C10.318 14.2483 12 12.5663 12 10.4983ZM8.25 12.7483C7.009 12.7483 6 11.7393 6 10.4983C6 9.25726 7.009 8.24826 8.25 8.24826C9.491 8.24826 10.5 9.25726 10.5 10.4983C10.5 11.7393 9.491 12.7483 8.25 12.7483Z" fill="currentColor"/>
<path d="M3 19.4983C3 19.9123 3.336 20.2483 3.75 20.2483C4.164 20.2483 4.5 19.9123 4.5 19.4983C4.5 17.4313 6.182 15.7483 8.25 15.7483C10.318 15.7483 12 17.4313 12 19.4983C12 19.9123 12.336 20.2483 12.75 20.2483C13.164 20.2483 13.5 19.9123 13.5 19.4983C13.5 16.6033 11.145 14.2483 8.25 14.2483C5.355 14.2483 3 16.6033 3 19.4983Z" fill="currentColor"/>
<path d="M15.75 13.4983C15.336 13.4983 15 13.8343 15 14.2483V20.9983C15 21.8253 14.327 22.4983 13.5 22.4983H3.001C2.601 22.4983 2.224 22.3423 1.941 22.0603C1.656 21.7753 1.5 21.3983 1.5 20.9983V4.49826C1.5 3.67126 2.173 2.99826 3.001 2.99826H6.751C7.165 2.99826 7.501 2.66226 7.501 2.24826C7.501 1.83426 7.165 1.49826 6.751 1.49826H3C1.346 1.49826 0 2.84426 0 4.49826V20.9993C0 21.8013 0.312 22.5543 0.879 23.1203C1.446 23.6863 2.199 23.9983 2.999 23.9983C3 23.9983 3 23.9983 3.001 23.9983H13.5C15.154 23.9983 16.5 22.6523 16.5 20.9983V14.2483C16.5 13.8343 16.164 13.4983 15.75 13.4983Z" fill="currentColor"/>
<path d="M23.602 2.08525C23.418 1.71925 23.18 1.38925 22.895 1.10525C21.469 -0.32175 18.981 -0.32175 17.555 1.10525L17.25 1.41025L16.945 1.10525C16.657 0.81725 16.327 0.57925 15.963 0.39725C14.106 -0.53175 11.831 0.22425 10.899 2.08525C10.171 3.54225 10.456 5.29325 11.596 6.43225L16.709 11.7673C16.85 11.9152 17.046 11.9983 17.25 11.9983C17.454 11.9983 17.65 11.9152 17.791 11.7673L22.895 6.44325C24.046 5.29225 24.33 3.54125 23.602 2.08525ZM21.823 5.39425L17.25 10.1643L12.667 5.38225C11.973 4.68925 11.801 3.63325 12.24 2.75625C12.638 1.96025 13.444 1.49925 14.279 1.49925C14.62 1.49925 14.967 1.57625 15.293 1.73925C15.512 1.84825 15.711 1.99225 15.885 2.16625L16.72 3.00125C17.013 3.29425 17.488 3.29425 17.781 3.00125L18.616 2.16625C19.475 1.30625 20.974 1.30525 21.836 2.16725C22.008 2.33825 22.15 2.53725 22.261 2.75725C22.699 3.63425 22.527 4.68925 21.823 5.39425Z" fill="currentColor"/>
</g>
</g>
</svg>
