<svg id="target" width="24" height="24" viewBox="0 0 24 24" fill="none" xmlns="http://www.w3.org/2000/svg">
<g id="whale">

<g id="Vector" transform="translate(0.0257111)">
<path d="M23.9486 14.247V2.65199C23.9506 2.37399 23.8746 2.10099 23.7266 1.85799C23.2926 1.15499 22.3706 0.933991 21.6896 1.35399C20.5056 2.02399 19.7106 3.19199 19.5016 4.50899C17.9996 4.62899 16.6136 5.38499 15.6936 6.61799C15.5046 6.87599 15.4046 7.18099 15.4046 7.50399C15.4076 8.32899 16.0796 8.99999 16.9036 8.99999C16.9046 8.99999 16.9046 8.99999 16.9056 8.99999H17.9516C18.9876 8.99999 19.4516 9.56499 19.4516 10.125C19.4516 10.407 19.3366 10.67 19.1266 10.867C18.8586 11.118 18.4526 11.25 17.9516 11.25H5.92355C4.07155 11.32 2.32655 11.966 0.885552 13.113C0.223552 13.624 -0.104448 14.454 0.029552 15.268C0.678552 19.607 4.98155 24 11.9516 24C12.3656 24 12.7016 23.664 12.7016 23.25C12.7016 22.836 12.3656 22.5 11.9516 22.5C6.15755 22.5 3.01955 19.305 1.91955 16.5H5.20155C7.14055 16.5 8.41255 17.408 9.75955 18.369C10.6946 19.036 11.6576 19.723 12.8556 20.109C13.1346 20.803 13.9216 22.073 16.1156 23.171C17.2276 23.728 18.1736 23.917 18.9466 23.917C20.5666 23.917 21.4286 23.082 21.4806 23.03C21.7336 22.777 21.7726 22.382 21.5746 22.084L20.7486 20.846C22.6426 19.177 23.8036 16.828 23.9486 14.247ZM18.5756 17.584C18.3456 17.239 17.8806 17.146 17.5356 17.376C17.1906 17.606 17.0976 18.071 17.3276 18.416L19.8906 22.261C19.3216 22.469 18.2976 22.584 16.7866 21.829C14.4766 20.674 14.1936 19.391 14.1926 19.391C14.1486 19.09 13.9266 18.845 13.6316 18.772C12.5136 18.493 11.5986 17.839 10.6306 17.148C9.22055 16.142 7.62155 15 5.20155 15H1.51055C1.47955 14.732 1.58755 14.467 1.81055 14.294C3.00855 13.342 4.45055 12.807 5.95155 12.75H17.9516C19.9216 12.75 20.9516 11.43 20.9516 10.125C20.9516 8.81999 19.9216 7.49999 17.9516 7.49999L16.8996 7.50999C17.6626 6.48899 18.8676 5.91999 20.1536 5.99899C20.3756 6.00799 20.5656 5.93599 20.7156 5.79299C20.8666 5.64899 20.9506 5.44899 20.9476 5.23999C20.9326 4.17399 21.4996 3.18499 22.4476 2.64699L22.4486 14.205C22.3316 16.276 21.4166 18.197 19.9126 19.591L18.5756 17.584Z" fill="currentColor"/>
<path d="M2.95155 4.5C3.36555 4.5 3.70155 4.165 3.70155 3.75C3.70155 3.149 3.93555 2.584 4.36155 2.16C4.78655 1.735 5.35155 1.501 5.95155 1.501C7.19155 1.502 8.20055 2.511 8.20155 3.751V9C8.20155 9.414 8.53755 9.75 8.95155 9.75C9.36555 9.75 9.70155 9.414 9.70155 9V3.75C9.70155 2.509 10.7106 1.5 11.9516 1.5C13.1926 1.5 14.2016 2.509 14.2016 3.75C14.2016 4.164 14.5376 4.5 14.9516 4.5C15.3656 4.5 15.7016 4.164 15.7016 3.75C15.7016 1.682 14.0196 0 11.9516 0C10.7196 0 9.63455 0.605 8.95055 1.524C8.26655 0.606 7.18255 0.002 5.95255 0.001C3.88555 0.001 2.20155 1.683 2.20155 3.75C2.20155 4.164 2.53755 4.5 2.95155 4.5Z" fill="currentColor"/>
<path d="M12.3266 16.5C12.9479 16.5 13.4516 15.9963 13.4516 15.375C13.4516 14.7537 12.9479 14.25 12.3266 14.25C11.7052 14.25 11.2016 14.7537 11.2016 15.375C11.2016 15.9963 11.7052 16.5 12.3266 16.5Z" fill="currentColor"/>
</g>
</g>
</svg>
