<svg id="target" width="24" height="24" viewBox="0 0 24 24" fill="none" xmlns="http://www.w3.org/2000/svg">
<path d="M7.49981 0.000781498L7.48734 0.750678C7.49565 0.750816 7.50396 0.750816 7.51227 0.750678L7.49981 0.000781498ZM0.285139 3.75678L-0.26989 3.25235L-0.271852 3.25453L0.285139 3.75678ZM0.285139 5.24078L-0.271855 5.74304L-0.270136 5.74493L0.285139 5.24078ZM7.49981 8.99945L7.51224 8.24955C7.50395 8.24941 7.49566 8.24941 7.48737 8.24955L7.49981 8.99945ZM14.7158 5.24078L15.2709 5.74515L15.2728 5.74304L14.7158 5.24078ZM14.7158 3.75678L15.2728 3.25452L15.2706 3.25214L14.7158 3.75678ZM9.99916 4.50012L10.7492 4.50012L9.99916 4.50012ZM7.49982 2.00012L7.50002 1.25012L7.49982 2.00012ZM7.51227 -0.749115C4.5069 -0.799055 1.53677 1.26448 -0.269886 3.25235L0.840164 4.26121C2.5295 2.40242 5.11671 0.711285 7.48734 0.750678L7.51227 -0.749115ZM-0.271852 3.25453C-0.909383 3.96153 -0.909383 5.03603 -0.271852 5.74304L0.84213 4.73852C0.71929 4.6023 0.71929 4.39526 0.84213 4.25904L-0.271852 3.25453ZM-0.270136 5.74493C1.49467 7.6887 4.45844 9.79999 7.51224 9.74934L7.48737 8.24955C5.0745 8.28957 2.49427 6.55819 0.840414 4.73663L-0.270136 5.74493ZM7.48737 9.74934C10.5412 9.79999 13.5049 7.68869 15.2709 5.74515L14.1607 4.73641C12.5054 6.55821 9.92511 8.28957 7.51224 8.24955L7.48737 9.74934ZM15.2728 5.74304C15.9103 5.03603 15.9103 3.96153 15.2728 3.25453L14.1588 4.25904C14.2817 4.39526 14.2817 4.6023 14.1588 4.73852L15.2728 5.74304ZM15.2706 3.25214C13.4628 1.26444 10.4913 -0.799057 7.48734 -0.749115L7.51227 0.750678C9.88162 0.711287 12.4702 2.40246 14.161 4.26142L15.2706 3.25214ZM9.24916 4.50012C9.24916 5.20797 8.82273 5.84612 8.16875 6.11696L8.74268 7.50281C9.95723 6.99983 10.7492 5.8147 10.7492 4.50012L9.24916 4.50012ZM8.16875 6.11696C7.51476 6.3878 6.76202 6.23799 6.26156 5.73739L5.20075 6.79791C6.13018 7.72759 7.52813 8.0058 8.74268 7.50281L8.16875 6.11696ZM6.26156 5.73739C5.7611 5.2368 5.61149 4.48402 5.8825 3.8301L4.4968 3.2558C3.99349 4.47021 4.27133 5.86824 5.20075 6.79791L6.26156 5.73739ZM5.8825 3.8301C6.15352 3.17619 6.79177 2.74993 7.49962 2.75012L7.50002 1.25012C6.18544 1.24977 5.00011 2.04139 4.4968 3.2558L5.8825 3.8301ZM7.49962 2.75012C8.46594 2.75038 9.24916 3.53381 9.24916 4.50012L10.7492 4.50012C10.7492 2.70554 9.29461 1.2506 7.50002 1.25012L7.49962 2.75012Z" transform="translate(4.50018 7.49988)" fill="currentcolor"/>
</svg>
