<svg id="target" width="25" height="24" viewBox="0 0 25 24" fill="none" xmlns="http://www.w3.org/2000/svg">
<g id="video">
<rect width="24" height="24" fill="white" transform="translate(0.501747)"/>
<path id="Vector" d="M23.3735 1.919C23.2595 1.263 22.7335 0.758 22.0735 0.672C15.3895 -0.224 8.6155 -0.224 1.9315 0.672C1.2725 0.758 0.7455 1.263 0.6315 1.918C-0.2105 6.601 -0.2105 11.397 0.6315 16.081C0.7455 16.737 1.2715 17.242 1.9315 17.328C5.2705 17.776 8.6355 18 12.0045 18C15.3725 18 18.7375 17.776 22.0755 17.328C22.7355 17.242 23.2625 16.737 23.3755 16.081C24.2165 11.398 24.2155 6.602 23.3735 1.919ZM15.9075 9.414C15.8135 9.611 15.6545 9.769 15.4585 9.863L9.5385 12.882C9.0335 13.156 8.4025 12.968 8.1285 12.463C8.0545 12.326 8.0125 12.175 8.0045 12.02V5.981C8.0325 5.407 8.5215 4.965 9.0945 4.994C9.2495 5.002 9.4015 5.044 9.5385 5.118L15.4585 8.137C15.9355 8.365 16.1365 8.937 15.9075 9.414Z" transform="translate(0.498932 3)" fill="currentColor"/>
</g>
</svg>
