<svg id="target" width="24" height="24" viewBox="0 0 24 24" xmlns="http://www.w3.org/2000/svg">
<path d="M13.0002 6.50768L12.2502 6.50687L12.2502 6.50811L13.0002 6.50768ZM2.00019 11.191H2.75019C2.75019 10.9867 2.66685 10.7913 2.51942 10.6498L2.00019 11.191ZM5.75019 13.5077C5.75019 13.0935 5.4144 12.7577 5.00019 12.7577C4.58598 12.7577 4.25019 13.0935 4.25019 13.5077H5.75019ZM8.75019 13.5077C8.75019 13.0935 8.4144 12.7577 8.00019 12.7577C7.58598 12.7577 7.25019 13.0935 7.25019 13.5077H8.75019ZM11.0002 11.191L10.4819 10.6489C10.3339 10.7904 10.2502 10.9863 10.2502 11.191H11.0002ZM7.25018 9.50769C7.25018 9.09348 6.9144 8.75769 6.50018 8.75769C6.08597 8.75769 5.75018 9.09348 5.75018 9.50769H7.25018ZM5.75018 11.0077C5.75018 11.4219 6.08597 11.7577 6.50018 11.7577C6.9144 11.7577 7.25018 11.4219 7.25018 11.0077H5.75018ZM13.7502 6.5085C13.7538 3.20751 11.5271 0.320821 8.33333 -0.51382L7.95406 0.93744C10.487 1.5994 12.253 3.88884 12.2502 6.50687L13.7502 6.5085ZM8.33333 -0.51382C5.13959 -1.34846 1.78524 0.0796805 0.173333 2.96036L1.48234 3.69282C2.76075 1.40815 5.4211 0.275483 7.95406 0.93744L8.33333 -0.51382ZM0.173333 2.96036C-1.43857 5.84104 -0.901043 9.44691 1.48096 11.7322L2.51942 10.6498C0.630248 8.83733 0.203931 5.9775 1.48234 3.69282L0.173333 2.96036ZM1.25019 11.191V13.5077H2.75019V11.191H1.25019ZM1.25019 13.5077C1.25019 14.7503 2.25755 15.7577 3.50019 15.7577V14.2577C3.08598 14.2577 2.75019 13.9219 2.75019 13.5077H1.25019ZM3.50019 15.7577C4.74283 15.7577 5.75019 14.7503 5.75019 13.5077H4.25019C4.25019 13.9219 3.9144 14.2577 3.50019 14.2577V15.7577ZM4.25019 13.5077C4.25019 14.7503 5.25755 15.7577 6.50019 15.7577V14.2577C6.08598 14.2577 5.75019 13.9219 5.75019 13.5077H4.25019ZM6.50019 15.7577C7.74283 15.7577 8.75019 14.7503 8.75019 13.5077H7.25019C7.25019 13.9219 6.9144 14.2577 6.50019 14.2577V15.7577ZM7.25019 13.5077C7.25019 14.7503 8.25755 15.7577 9.50019 15.7577V14.2577C9.08598 14.2577 8.75019 13.9219 8.75019 13.5077H7.25019ZM9.50019 15.7577C10.7428 15.7577 11.7502 14.7503 11.7502 13.5077H10.2502C10.2502 13.9219 9.9144 14.2577 9.50019 14.2577V15.7577ZM11.7502 13.5077V11.191H10.2502V13.5077H11.7502ZM11.5185 11.7331C12.945 10.3691 13.7513 8.4809 13.7502 6.50725L12.2502 6.50811C12.2511 8.07199 11.6122 9.56815 10.4819 10.6489L11.5185 11.7331ZM3.50018 8.75769C4.74282 8.75769 5.75018 7.75033 5.75018 6.50769H4.25018C4.25018 6.9219 3.9144 7.25769 3.50018 7.25769V8.75769ZM5.75018 6.50769C5.75018 5.26505 4.74282 4.25769 3.50018 4.25769V5.75769C3.9144 5.75769 4.25018 6.09348 4.25018 6.50769H5.75018ZM3.50018 4.25769C2.25754 4.25769 1.25018 5.26505 1.25018 6.50769H2.75018C2.75018 6.09348 3.08597 5.75769 3.50018 5.75769V4.25769ZM1.25018 6.50769C1.25018 7.75033 2.25754 8.75769 3.50018 8.75769V7.25769C3.08597 7.25769 2.75018 6.9219 2.75018 6.50769H1.25018ZM9.50018 8.75769C10.7428 8.75769 11.7502 7.75033 11.7502 6.50769H10.2502C10.2502 6.9219 9.9144 7.25769 9.50018 7.25769V8.75769ZM11.7502 6.50769C11.7502 5.26505 10.7428 4.25769 9.50018 4.25769V5.75769C9.9144 5.75769 10.2502 6.09348 10.2502 6.50769H11.7502ZM9.50018 4.25769C8.25754 4.25769 7.25018 5.26505 7.25018 6.50769H8.75018C8.75018 6.09348 9.08597 5.75769 9.50018 5.75769V4.25769ZM7.25018 6.50769C7.25018 7.75033 8.25754 8.75769 9.50018 8.75769V7.25769C9.08597 7.25769 8.75018 6.9219 8.75018 6.50769H7.25018ZM5.75018 9.50769V11.0077H7.25018V9.50769H5.75018Z" transform="translate(5.49915 4.49231)" fill="currentcolor"/>
</svg>
