<svg id="target" width="24" height="24" viewBox="0 0 24 24" fill="none" xmlns="http://www.w3.org/2000/svg">
<path d="M2.22008 7.98933C2.57354 7.98933 2.86008 7.69086 2.86008 7.32267V1.778C2.86008 1.53242 3.0512 1.33333 3.28696 1.33333H12.0326C12.1458 1.33333 12.2544 1.38018 12.3344 1.46357C12.4145 1.54696 12.4594 1.66007 12.4594 1.778V7.32267C12.4594 7.69086 12.746 7.98933 13.0994 7.98933C13.4529 7.98933 13.7394 7.69086 13.7394 7.32267V1.778C13.738 0.796647 12.9747 0.00146854 12.0326 0H3.28696C2.34471 0.0011022 1.58114 0.796495 1.58008 1.778V7.32267C1.58008 7.69086 1.86662 7.98933 2.22008 7.98933Z" transform="translate(4.63944 5.83331)" fill="currentColor"/>
<path d="M15.2927 9.12867C15.2322 9.0476 15.1391 9.00014 15.0406 9H9.92055C9.74382 9 9.60055 9.14924 9.60055 9.33333C9.60055 9.80667 8.81143 10.3333 7.68055 10.3333C6.54967 10.3333 5.76055 9.80667 5.76055 9.33333C5.76055 9.14924 5.61729 9 5.44055 9H0.320555C0.22195 8.99982 0.128773 9.04701 0.0680013 9.1279C0.0072301 9.20878 -0.014348 9.31434 0.00951464 9.414C0.420065 11.1307 1.9009 12.3349 3.59927 12.3333H11.7618C13.4601 12.3351 14.9409 11.1307 15.351 9.414C15.3746 9.31462 15.3532 9.20941 15.2927 9.12867Z" transform="translate(4.63944 5.83331)" fill="currentColor"/>
<path d="M6.06072 4.43335C6.32582 4.43335 6.54072 4.2095 6.54072 3.93335V3.16669C6.54072 2.89054 6.32582 2.66669 6.06072 2.66669C5.79563 2.66669 5.58072 2.89054 5.58072 3.16669V3.93002C5.57987 4.06321 5.63006 4.19124 5.72017 4.28573C5.81028 4.38022 5.93286 4.43336 6.06072 4.43335Z" transform="translate(4.63944 5.83331)" fill="currentColor"/>
<path d="M9.74072 3.93002V3.16669C9.74072 2.89054 9.52581 2.66669 9.26072 2.66669C8.99562 2.66669 8.78072 2.89054 8.78072 3.16669V3.93002C8.78072 4.20616 8.99562 4.43002 9.26072 4.43002C9.52581 4.43002 9.74072 4.20616 9.74072 3.93002Z" transform="translate(4.63944 5.83331)" fill="currentColor"/>
<path d="M4.90296 5.73934C4.81291 5.833 4.76231 5.96012 4.76231 6.09267C4.76231 6.22523 4.81291 6.35234 4.90296 6.446C5.65302 7.2276 6.67049 7.66672 7.73144 7.66672C8.79238 7.66672 9.80985 7.2276 10.5599 6.446C10.7417 6.24973 10.739 5.93787 10.5538 5.7451C10.3685 5.55232 10.0691 5.54976 9.88088 5.73934C8.6935 6.97585 6.76873 6.97585 5.58136 5.73934C5.49144 5.64554 5.36941 5.59283 5.24216 5.59283C5.1149 5.59283 4.99287 5.64554 4.90296 5.73934Z" transform="translate(4.63944 5.83331)" fill="currentColor"/>
</svg>
