<svg id="target" width="24" height="24" viewBox="0 0 24 24" fill="none" xmlns="http://www.w3.org/2000/svg">
<g id="whale">

<g id="Vector" transform="translate(0.12294 1.25)">
<path d="M23.2541 0C21.4441 0 19.9511 1.381 19.7731 3.155C19.1791 2.969 18.5461 2.946 17.9261 3.096C17.0211 3.313 16.2551 3.87 15.7691 4.663C15.4291 5.217 15.2501 5.853 15.2541 6.502C15.2551 6.777 15.4791 7 15.7541 7H18.2541C19.3571 7 20.2541 7.897 20.2541 9C20.2541 10.103 19.3571 11 18.2541 11H6.74514C4.62014 11.037 2.55314 11.483 0.602138 12.328C0.357138 12.433 0.168138 12.629 0.0691376 12.878C-0.0288624 13.126 -0.0248624 13.399 0.0951376 13.674C2.28114 18.282 7.07514 21.5 11.7481 21.5C11.7811 21.5 11.8141 21.5 11.8471 21.5C13.8061 21.5 15.7181 20.968 17.4061 19.975C17.8121 20.071 18.2281 20.126 18.6471 20.126C19.0531 20.126 19.4621 20.08 19.8661 19.987C20.0111 19.954 20.1331 19.858 20.2001 19.726C20.2661 19.593 20.2711 19.439 20.2141 19.302L19.7381 18.192C22.1351 15.944 23.5991 12.81 23.7541 9.499V0.499C23.7541 0.224 23.5301 0 23.2541 0ZM19.3161 17.208L18.7141 15.803C18.6041 15.548 18.3101 15.433 18.0571 15.54C17.8031 15.649 17.6861 15.943 17.7941 16.197L19.0421 19.108C18.1681 19.188 17.2901 19.008 16.5611 18.604C15.6761 17.919 15.0291 16.948 14.7371 15.869C14.6661 15.602 14.3941 15.445 14.1241 15.517C13.8571 15.589 13.7001 15.864 13.7721 16.13C14.1201 17.417 14.8931 18.577 16.0091 19.436C16.0551 19.462 16.1041 19.479 16.1501 19.503C14.8081 20.146 13.3451 20.499 11.8451 20.499C11.8151 20.499 11.7841 20.499 11.7551 20.499C8.25614 20.499 4.68014 18.529 2.37614 15.499H5.33814C6.27414 15.502 7.18414 15.887 7.84114 16.56C9.28014 18 11.1921 18.867 13.2231 18.998C13.2341 18.999 13.2441 18.999 13.2561 18.999C13.5171 18.999 13.7361 18.796 13.7541 18.531C13.7721 18.256 13.5631 18.017 13.2871 18C11.4981 17.884 9.81514 17.121 8.55214 15.856C7.71314 14.997 6.54314 14.502 5.33914 14.499H1.69314C1.44114 14.094 1.20514 13.678 0.999138 13.245C2.82914 12.452 4.76814 12.033 6.75314 11.999H18.2531C19.9071 11.999 21.2531 10.653 21.2531 8.999C21.2531 7.345 19.9071 5.999 18.2531 5.999H16.3011C16.3581 5.712 16.4651 5.437 16.6201 5.185C17.3361 4.017 18.8701 3.649 20.0361 4.365C20.2061 4.468 20.4171 4.463 20.5801 4.351C20.7431 4.24 20.8251 4.043 20.7901 3.849C20.7681 3.729 20.7561 3.607 20.7531 3.498C20.7531 2.29 21.6131 1.28 22.7531 1.048L22.7541 9.474C22.6191 12.385 21.3681 15.158 19.3161 17.208Z" fill="currentColor"/>
<path d="M10.7141 14.055C10.6441 13.802 10.4521 13.61 10.1991 13.54C10.1391 13.515 10.0731 13.501 10.0041 13.501C9.93514 13.501 9.86914 13.515 9.80914 13.54C9.55614 13.61 9.36414 13.802 9.29414 14.055C9.26914 14.115 9.25514 14.181 9.25514 14.25C9.25514 14.319 9.26914 14.385 9.29414 14.445C9.36414 14.698 9.55614 14.89 9.80914 14.96C9.86914 14.985 9.93514 14.999 10.0041 14.999C10.0731 14.999 10.1391 14.985 10.1991 14.96C10.4521 14.89 10.6441 14.698 10.7141 14.445C10.7391 14.385 10.7531 14.319 10.7531 14.25C10.7531 14.181 10.7401 14.115 10.7141 14.055Z" fill="currentColor"/>
<path d="M3.25414 4C3.53014 4 3.75414 3.776 3.75414 3.5C3.75414 2.966 3.96214 2.464 4.34014 2.086C4.71714 1.709 5.21914 1.501 5.75414 1.501C6.85614 1.501 7.75314 2.398 7.75314 3.5V9.5C7.75314 9.776 7.97714 10 8.25314 10C8.52914 10 8.75314 9.776 8.75314 9.5V3.5C8.75314 2.397 9.65014 1.5 10.7531 1.5C11.8561 1.5 12.7531 2.397 12.7531 3.5C12.7531 3.776 12.9771 4 13.2531 4C13.5291 4 13.7531 3.776 13.7531 3.5C13.7531 1.846 12.4071 0.5 10.7531 0.5C9.70914 0.5 8.79014 1.037 8.25314 1.848C7.71514 1.038 6.79714 0.501 5.75414 0.501C4.10014 0.501 2.75314 1.846 2.75314 3.5C2.75414 3.776 2.97814 4 3.25414 4Z" fill="currentColor"/>
</g>
</g>
</svg>
