<svg id="target" width="24" height="24" viewBox="0 0 24 24" fill="none" xmlns="http://www.w3.org/2000/svg">
<path fill-rule="evenodd" clip-rule="evenodd" d="M1.96173 0.841484C3.08783 -0.280495 4.90922 -0.280495 6.03532 0.841484L6.03788 0.838924C6.578 1.37903 6.88142 2.11158 6.88142 2.8754C6.88142 3.63924 6.578 4.37178 6.03788 4.91188C5.25132 5.69717 0.890362 6.74932 0.395001 6.86708C0.286984 6.89183 0.173794 6.85973 0.0948453 6.78197C0.0164914 6.70438 -0.0163913 6.59194 0.00780919 6.48437C0.12492 5.98965 1.17581 1.62677 1.96173 0.841484ZM3.03885 2.87796C3.03885 3.40816 3.46866 3.83796 3.99885 3.83796C4.52903 3.83796 4.95884 3.40816 4.95884 2.87796C4.95884 2.34777 4.52903 1.91796 3.99885 1.91796C3.46866 1.91796 3.03885 2.34777 3.03885 2.87796Z" transform="translate(9.92116 7.20203)" fill="currentColor"/>
<path d="M4.06642 2.65637L1.50642 0.096375C1.43773 0.0252213 1.33965 -0.00960519 1.24146 0.00229495C1.1437 0.0141249 1.05683 0.0703075 1.00594 0.154615L0.0459439 1.75461C-0.0300412 1.88068 -0.0102329 2.04231 0.0939438 2.14629L2.01394 4.0663C2.11782 4.17015 2.27907 4.18994 2.40498 4.1143L4.00498 3.15429C4.08976 3.104 4.14662 3.01745 4.15912 2.91967C4.17163 2.8219 4.13837 2.72382 4.06898 2.65382L4.06642 2.65637Z" transform="translate(15.1995 4.6377)" fill="currentColor"/>
<path d="M10.88 2.5608H3.20768C3.03217 2.57967 2.85747 2.51863 2.73191 2.39456C2.60634 2.27048 2.54322 2.09652 2.56 1.9208C2.54288 1.74637 2.60479 1.57345 2.72872 1.44952C2.85265 1.32559 3.02557 1.26368 3.2 1.2808H4.48C4.83346 1.2808 5.12 0.994261 5.12 0.640799C5.12 0.287336 4.83346 0.000798716 4.48 0.000798716H3.2C2.68633 -0.0142244 2.18919 0.183232 1.82581 0.54661C1.46243 0.909988 1.26498 1.40712 1.28 1.9208C1.26498 2.43447 1.46243 2.93161 1.82581 3.29499C2.18919 3.65836 2.68633 3.85582 3.2 3.8408H10.8723C11.2258 3.83868 11.514 4.1235 11.5162 4.47696C11.5183 4.83042 11.2335 5.11868 10.88 5.1208H0.64C0.286538 5.1208 0 5.40734 0 5.7608C0 6.11426 0.286538 6.4008 0.64 6.4008H10.88C11.9404 6.4008 12.8 5.54119 12.8 4.4808C12.8 3.42041 11.9404 2.5608 10.88 2.5608Z" transform="translate(4 13.5992)" fill="currentColor"/>
</svg>
