<svg id="target" width="24" height="24" viewBox="0 0 24 24" fill="none" xmlns="http://www.w3.org/2000/svg">
<path d="M3.9406 1.33334C3.9406 1.05719 3.71674 0.833336 3.4406 0.833336C3.16446 0.833336 2.9406 1.05719 2.9406 1.33334H3.9406ZM3.4406 6.66667L3.86723 6.92741C3.91521 6.8489 3.9406 6.75868 3.9406 6.66667H3.4406ZM0.240598 11.9027L0.650375 12.1892C0.656257 12.1808 0.661878 12.1722 0.667231 12.1634L0.240598 11.9027ZM1.33526 14L1.33526 13.5L1.33454 13.5L1.33526 14ZM8.87926 14L8.87999 13.5H8.87926V14ZM9.97393 11.9027L9.5473 12.1634C9.55265 12.1722 9.55827 12.1808 9.56415 12.1892L9.97393 11.9027ZM6.77393 6.66667H6.27393C6.27393 6.75868 6.29932 6.8489 6.3473 6.92741L6.77393 6.66667ZM7.27393 1.33334C7.27393 1.05719 7.05007 0.833336 6.77393 0.833336C6.49779 0.833336 6.27393 1.05719 6.27393 1.33334H7.27393ZM6.77376 3.16666C7.04991 3.16666 7.27376 2.94281 7.27376 2.66666C7.27376 2.39052 7.04991 2.16666 6.77376 2.16666V3.16666ZM5.44043 2.16666C5.16429 2.16666 4.94043 2.39052 4.94043 2.66666C4.94043 2.94281 5.16429 3.16666 5.44043 3.16666V2.16666ZM6.77376 5.83334C7.04991 5.83334 7.27376 5.60948 7.27376 5.33334C7.27376 5.05719 7.04991 4.83334 6.77376 4.83334V5.83334ZM5.44043 4.83334C5.16429 4.83334 4.94043 5.05719 4.94043 5.33334C4.94043 5.60948 5.16429 5.83334 5.44043 5.83334V4.83334ZM6.77393 4.5C7.05007 4.5 7.27393 4.27614 7.27393 4C7.27393 3.72386 7.05007 3.5 6.77393 3.5V4.5ZM4.77393 3.5C4.49778 3.5 4.27393 3.72386 4.27393 4C4.27393 4.27614 4.49778 4.5 4.77393 4.5V3.5ZM1.81177 8.83334C1.53563 8.83334 1.31177 9.05719 1.31177 9.33334C1.31177 9.60948 1.53563 9.83334 1.81177 9.83334V8.83334ZM8.40243 9.83334C8.67858 9.83334 8.90243 9.60948 8.90243 9.33334C8.90243 9.05719 8.67858 8.83334 8.40243 8.83334V9.83334ZM2.9406 1.33334V6.66667H3.9406V1.33334H2.9406ZM3.01396 6.40593L-0.186035 11.6419L0.667231 12.1634L3.86723 6.92741L3.01396 6.40593ZM-0.16918 11.6162C-0.561053 12.1767 -0.608379 12.9087 -0.291939 13.515L0.594575 13.0523C0.450739 12.7767 0.472251 12.4439 0.650375 12.1892L-0.16918 11.6162ZM-0.291939 13.515C0.0244995 14.1212 0.652091 14.501 1.33599 14.5L1.33454 13.5C1.02368 13.5005 0.738411 13.3278 0.594575 13.0523L-0.291939 13.515ZM1.33526 14.5H8.87926V13.5H1.33526V14.5ZM8.87854 14.5C9.56244 14.501 10.19 14.1212 10.5065 13.515L9.61995 13.0523C9.47612 13.3278 9.19085 13.5005 8.87999 13.5L8.87854 14.5ZM10.5065 13.515C10.8229 12.9087 10.7756 12.1767 10.3837 11.6162L9.56415 12.1892C9.74228 12.4439 9.76379 12.7767 9.61995 13.0523L10.5065 13.515ZM10.4006 11.6419L7.20056 6.40593L6.3473 6.92741L9.5473 12.1634L10.4006 11.6419ZM7.27393 6.66667V1.33334H6.27393V6.66667H7.27393ZM7.60718 0.666667C7.60718 0.758714 7.53256 0.833333 7.44051 0.833333V1.83333C8.08484 1.83333 8.60718 1.311 8.60718 0.666667H7.60718ZM7.44051 0.833333H2.77384V1.83333H7.44051V0.833333ZM2.77384 0.833333C2.6818 0.833333 2.60718 0.758714 2.60718 0.666667H1.60718C1.60718 1.311 2.12951 1.83333 2.77384 1.83333V0.833333ZM2.60718 0.666667C2.60718 0.574619 2.6818 0.5 2.77384 0.5V-0.5C2.12951 -0.5 1.60718 0.0223344 1.60718 0.666667H2.60718ZM2.77384 0.5H7.44051V-0.5H2.77384V0.5ZM7.44051 0.5C7.53256 0.5 7.60718 0.574619 7.60718 0.666667H8.60718C8.60718 0.0223346 8.08484 -0.5 7.44051 -0.5V0.5ZM6.77376 2.16666H5.44043V3.16666H6.77376V2.16666ZM6.77376 4.83334H5.44043V5.83334H6.77376V4.83334ZM6.77393 3.5H4.77393V4.5H6.77393V3.5ZM1.81177 9.83334H8.40243V8.83334H1.81177V9.83334Z" transform="translate(6.89282 5)" fill="currentColor"/>
<path fill-rule="evenodd" clip-rule="evenodd" d="M1 2C1.55228 2 2 1.55228 2 1C2 0.447715 1.55228 0 1 0C0.447715 0 0 0.447715 0 1C0 1.55228 0.447715 2 1 2Z" transform="translate(9.33325 15.6667)" stroke="currentColor" stroke-linecap="round" stroke-linejoin="round"/>
<path d="M0.5 0C0.223858 0 0 0.223858 0 0.5C0 0.776142 0.223858 1 0.5 1C0.776142 1 1 0.776142 1 0.5C1 0.223858 0.776142 0 0.5 0V0Z" transform="translate(13.8333 17.1667)" fill="currentColor"/>
<path d="M0.5 0C0.223858 0 0 0.223858 0 0.5C0 0.776142 0.223858 1 0.5 1C0.776142 1 1 0.776142 1 0.5C1 0.223858 0.776142 0 0.5 0Z" transform="translate(12.5 15.1667)" fill="currentColor"/>
</svg>
