<svg id="target" width="24" height="24" viewBox="0 0 24 24" fill="none" xmlns="http://www.w3.org/2000/svg">
<path d="M0.748667 1.18689e-06C0.334628 0.000737258 -0.000489958 0.336849 5.37751e-07 0.750888C0.000491034 1.16493 0.336404 1.50024 0.750444 1.5C1.16448 1.49975 1.5 1.16404 1.5 0.750001C1.5 0.550858 1.4208 0.35989 1.27986 0.219199C1.13892 0.0785085 0.94781 -0.000352846 0.748667 1.18689e-06Z" transform="translate(9.31787 11.25)" fill="currentColor"/>
<path d="M9 0.749748C8.58579 0.749748 8.25 1.08553 8.25 1.49975C8.25 1.91396 8.58579 2.24975 9 2.24975V0.749748ZM9 12.7497C8.58579 12.7497 8.25 13.0855 8.25 13.4997C8.25 13.914 8.58579 14.2497 9 14.2497V12.7497ZM6.42933 14.9944L6.32332 15.7369L6.32333 15.7369L6.42933 14.9944ZM0.429333 14.1377L0.322476 14.8801L0.323325 14.8802L0.429333 14.1377ZM8.16799e-08 13.6424L-0.75 13.6424L-0.75 13.6428L8.16799e-08 13.6424ZM8.16799e-08 1.98042L0.75 1.98042L0.75 1.97999L8.16799e-08 1.98042ZM0.395333 1.49175L0.551542 2.2253C0.559398 2.22363 0.567227 2.22183 0.575026 2.2199L0.395333 1.49175ZM6.39533 0.0110823L6.23833 -0.722301C6.23074 -0.720676 6.22318 -0.718933 6.21564 -0.717073L6.39533 0.0110823ZM7 0.499749L7.75 0.499749L7.75 0.499366L7 0.499749ZM7 14.4997L7.75 14.5002V14.4997H7ZM9 2.24975H12V0.749748H9V2.24975ZM12 2.24975C12.1381 2.24975 12.25 2.36168 12.25 2.49975H13.75C13.75 1.53325 12.9665 0.749748 12 0.749748V2.24975ZM12.25 2.49975V12.4997H13.75V2.49975H12.25ZM12.25 12.4997C12.25 12.6378 12.1381 12.7497 12 12.7497V14.2497C12.9665 14.2497 13.75 13.4662 13.75 12.4997H12.25ZM12 12.7497H9V14.2497H12V12.7497ZM6.53534 14.2519L0.535342 13.3953L0.323325 14.8802L6.32332 15.7369L6.53534 14.2519ZM0.536191 13.3954C0.658863 13.4131 0.749944 13.5181 0.75 13.6421L-0.75 13.6428C-0.74972 14.2644 -0.292855 14.7915 0.322476 14.8801L0.536191 13.3954ZM0.75 13.6424V1.98042H-0.75V13.6424H0.75ZM0.75 1.97999C0.750067 2.09836 0.667318 2.20065 0.551542 2.2253L0.239125 0.758197C-0.33791 0.881075 -0.750335 1.39087 -0.75 1.98084L0.75 1.97999ZM0.575026 2.2199L6.57503 0.739238L6.21564 -0.717073L0.215641 0.763593L0.575026 2.2199ZM6.55233 0.744466C6.47854 0.760263 6.40156 0.741881 6.34286 0.694445L7.2857 -0.4722C6.99222 -0.709377 6.60731 -0.80129 6.23833 -0.722301L6.55233 0.744466ZM6.34286 0.694445C6.28417 0.64701 6.25004 0.575598 6.25 0.500132L7.75 0.499366C7.74981 0.122032 7.57917 -0.235024 7.2857 -0.4722L6.34286 0.694445ZM6.25 0.499749V14.4997H7.75V0.499749H6.25ZM6.25 14.4993C6.25005 14.4268 6.28151 14.358 6.33625 14.3105L7.31875 15.444C7.59244 15.2067 7.74977 14.8624 7.75 14.5002L6.25 14.4993ZM6.33625 14.3105C6.39099 14.2631 6.46362 14.2417 6.53533 14.2519L6.32333 15.7369C6.6819 15.7881 7.04505 15.6812 7.31875 15.444L6.33625 14.3105Z" transform="translate(5.49927 4.50025)" fill="currentColor"/>
</svg>
