<svg id="target" width="24" height="24" viewBox="0 0 24 24" fill="none" xmlns="http://www.w3.org/2000/svg">
<g id="frame">

<g id="Vector" transform="translate(1.5)">
<path d="M19 4.5H15C14.724 4.5 14.5 4.724 14.5 5V6C14.5 6.276 14.724 6.5 15 6.5H18.5C18.776 6.5 19 6.724 19 7V16.5C19 16.776 18.776 17 18.5 17H2.5C2.224 17 2 16.776 2 16.5V7C2 6.724 2.224 6.5 2.5 6.5H6C6.276 6.5 6.5 6.276 6.5 6V5C6.5 4.724 6.276 4.5 6 4.5H2C0.895 4.5 0 5.395 0 6.5V18.5C0 19.605 0.895 20.5 2 20.5H9.5V22H4.25C3.698 22 3.25 22.448 3.25 23C3.25 23.552 3.698 24 4.25 24H16.75C17.302 24 17.75 23.552 17.75 23C17.75 22.448 17.302 22 16.75 22H11.5V20.5H19C20.105 20.5 21 19.605 21 18.5V6.5C21 5.395 20.105 4.5 19 4.5Z" fill="currentColor"/>
<path d="M6.07601 9.117C5.92101 9.491 6.00701 9.921 6.29301 10.207L9.79301 13.707C10.183 14.097 10.816 14.097 11.207 13.707L14.707 10.207C14.993 9.921 15.079 9.491 14.924 9.117C14.76 8.751 14.401 8.511 14 8.5H12V1.5C12 0.672 11.328 0 10.5 0C9.67201 0 9.00001 0.672 9.00001 1.5V8.5H7.00001C6.59901 8.51 6.23901 8.75 6.07601 9.117Z" fill="currentColor"/>
</g>
</g>
</svg>
