<svg id="target" width="24" height="24" viewBox="0 0 24 24" fill="none" xmlns="http://www.w3.org/2000/svg">
<path d="M12.9208 10.9533C12.9015 10.9447 12.879 10.9468 12.8615 10.9587C12.844 10.9701 12.8334 10.9897 12.8335 11.0107V13.488C12.8336 13.5475 12.8654 13.6024 12.917 13.6321C12.9685 13.6618 13.032 13.6617 13.0835 13.632C13.576 13.3479 13.8654 12.8098 13.831 12.2423C13.7965 11.6749 13.4441 11.1757 12.9208 10.9533Z" transform="translate(3.99976 4)" fill="currentColor"/>
<path fill-rule="evenodd" clip-rule="evenodd" d="M15.0002 8.66667H7.66699C7.11475 8.66667 6.66699 9.11438 6.66699 9.66667V15C6.66699 15.5523 7.11475 16 7.66699 16H15.0002C15.5525 16 16.0002 15.5523 16.0002 15V9.66667C16.0002 9.11438 15.5525 8.66667 15.0002 8.66667ZM12.3337 14.8333C12.0576 14.8333 11.8337 14.6095 11.8337 14.3333V10.3333C11.8337 10.0572 12.0576 9.83334 12.3337 9.83334C13.7144 9.83334 14.8337 10.9526 14.8337 12.3333C14.8337 13.7141 13.7144 14.8333 12.3337 14.8333ZM10.5005 13.3333C10.5005 13.6095 10.2766 13.8333 10.0005 13.8333H8.33374C8.05762 13.8333 7.83374 14.0572 7.83374 14.3333C7.83374 14.6095 8.05762 14.8333 8.33374 14.8333H10.0005C10.5688 14.8338 11.0886 14.5129 11.3428 14.0045C11.5969 13.4962 11.5417 12.8878 11.2004 12.4333C11.1558 12.3742 11.1558 12.2925 11.2004 12.2333C11.5417 11.7789 11.5969 11.1705 11.3428 10.6622C11.0886 10.1538 10.5688 9.83284 10.0005 9.83334H8.33374C8.05762 9.83334 7.83374 10.0572 7.83374 10.3333C7.83374 10.6095 8.05762 10.8333 8.33374 10.8333H10.0005C10.2766 10.8333 10.5005 11.0572 10.5005 11.3333C10.5005 11.6095 10.2766 11.8333 10.0005 11.8333C9.72437 11.8333 9.50049 12.0572 9.50049 12.3333C9.50049 12.6095 9.72437 12.8333 10.0005 12.8333C10.2766 12.8333 10.5005 13.0572 10.5005 13.3333Z" transform="translate(3.99976 4)" fill="currentColor"/>
<path d="M6.42621 8.31933L6.72421 7.52533C6.77631 7.42079 6.88306 7.35471 6.99987 7.35471C7.11668 7.35471 7.22344 7.42079 7.27554 7.52533L7.29221 7.57C7.31919 7.64075 7.39018 7.68471 7.46554 7.67733C7.53196 7.6701 7.59873 7.66653 7.66554 7.66667H13.4329C13.5158 7.66687 13.5863 7.60607 13.5982 7.524C14.0049 4.67533 13.9982 4.748 13.9982 4.65733C13.9965 4.51041 13.9464 4.36815 13.8555 4.25267L11.2669 0.8C10.8881 0.297705 10.296 0.00166765 9.66687 0H8.66687C8.29868 0 8.00021 0.298477 8.00021 0.666667C8.00021 1.03486 8.29868 1.33333 8.66687 1.33333H9.66687C9.87671 1.33333 10.0743 1.43213 10.2002 1.6L11.8002 3.73333C11.8381 3.78384 11.8442 3.8514 11.8159 3.90787C11.7877 3.96433 11.73 4 11.6669 4H2.33354C2.27041 4 2.2127 3.96433 2.18447 3.90787C2.15624 3.8514 2.16233 3.78384 2.20021 3.73333L3.80021 1.6C3.92611 1.43213 4.1237 1.33333 4.33354 1.33333H5.33354C5.70173 1.33333 6.00021 1.03486 6.00021 0.666667C6.00021 0.298477 5.70173 0 5.33354 0H4.33354C3.70427 0.00104486 3.11194 0.297213 2.73354 0.8L0.142874 4.25467C0.0520228 4.37015 0.00186839 4.51241 0.000206884 4.65933C0.000206884 4.742 -0.0251264 4.53533 0.484874 8.10733C0.644114 9.19099 1.57159 9.99548 2.66687 10H4.00021C5.07893 9.99635 6.04372 9.32797 6.42621 8.31933Z" transform="translate(3.99976 4)" fill="currentColor"/>
</svg>
