<svg id="target" width="24" height="24" viewBox="0 0 24 24" fill="none" xmlns="http://www.w3.org/2000/svg">
<path d="M5.99991 1.75269L5.24991 1.7516L5.24991 1.7527L5.99991 1.75269ZM2.56258 1.28603L3.2857 1.48501L3.28572 1.48493L2.56258 1.28603ZM-0.615213 10.0077C-0.725106 10.4071 -0.490439 10.8199 -0.091069 10.9298C0.308301 11.0397 0.72114 10.805 0.831033 10.4057L-0.615213 10.0077ZM9 1.75269L9.75 1.75269L9.75 1.7516L9 1.75269ZM12.4373 1.28603L11.7142 1.48493L11.7142 1.48511L12.4373 1.28603ZM14.1696 10.4031C14.2795 10.8025 14.6924 11.0371 15.0918 10.9271C15.4911 10.8172 15.7257 10.4043 15.6158 10.0049L14.1696 10.4031ZM6 5.00269V4.25269C5.58579 4.25269 5.25 4.58848 5.25 5.00269H6ZM9 5.00269H9.75C9.75 4.58848 9.41421 4.25269 9 4.25269V5.00269ZM9 7.00269V7.75269C9.41421 7.75269 9.75 7.41691 9.75 7.00269H9ZM6 7.00269H5.25C5.25 7.41691 5.58579 7.75269 6 7.75269V7.00269ZM3 14.7527C5.07107 14.7527 6.75 13.0738 6.75 11.0027H5.25C5.25 12.2453 4.24264 13.2527 3 13.2527V14.7527ZM6.75 11.0027C6.75 8.93163 5.07107 7.25269 3 7.25269V8.75269C4.24264 8.75269 5.25 9.76005 5.25 11.0027H6.75ZM3 7.25269C0.928932 7.25269 -0.75 8.93163 -0.75 11.0027H0.75C0.75 9.76005 1.75736 8.75269 3 8.75269V7.25269ZM-0.75 11.0027C-0.75 13.0738 0.928932 14.7527 3 14.7527V13.2527C1.75736 13.2527 0.75 12.2453 0.75 11.0027H-0.75ZM6.75 11.0027L6.74991 1.75269L5.24991 1.7527L5.25 11.0027L6.75 11.0027ZM6.74991 1.75379C6.75174 0.501665 5.82698 -0.558687 4.58624 -0.727135L4.38444 0.759229C4.88074 0.826609 5.25064 1.25075 5.24991 1.7516L6.74991 1.75379ZM4.58624 -0.727135C3.3455 -0.895583 2.17151 -0.120166 1.83943 1.08712L3.28572 1.48493C3.41855 1.00202 3.88815 0.69185 4.38444 0.759229L4.58624 -0.727135ZM1.83945 1.08705L-0.615213 10.0077L0.831033 10.4057L3.2857 1.48501L1.83945 1.08705ZM12 14.7527C14.0711 14.7527 15.75 13.0738 15.75 11.0027H14.25C14.25 12.2453 13.2426 13.2527 12 13.2527V14.7527ZM15.75 11.0027C15.75 8.93163 14.0711 7.25269 12 7.25269V8.75269C13.2426 8.75269 14.25 9.76005 14.25 11.0027H15.75ZM12 7.25269C9.92893 7.25269 8.25 8.93163 8.25 11.0027H9.75C9.75 9.76005 10.7574 8.75269 12 8.75269V7.25269ZM8.25 11.0027C8.25 13.0738 9.92893 14.7527 12 14.7527V13.2527C10.7574 13.2527 9.75 12.2453 9.75 11.0027H8.25ZM9.75 11.0027L9.75 1.75269L8.25 1.75269L8.25 11.0027L9.75 11.0027ZM9.75 1.7516C9.74927 1.25075 10.1192 0.826609 10.6155 0.759229L10.4137 -0.727135C9.17293 -0.558687 8.24817 0.501666 8.25 1.75379L9.75 1.7516ZM10.6155 0.759229C11.1118 0.69185 11.5814 1.00202 11.7142 1.48493L13.1605 1.08712C12.8284 -0.120166 11.6544 -0.895583 10.4137 -0.727135L10.6155 0.759229ZM11.7142 1.48511L14.1696 10.4031L15.6158 10.0049L13.1604 1.08694L11.7142 1.48511ZM6 5.75269H9V4.25269H6V5.75269ZM8.25 5.00269V7.00269H9.75V5.00269H8.25ZM9 6.25269H6V7.75269H9V6.25269ZM6.75 7.00269V5.00269H5.25V7.00269H6.75Z" transform="translate(4.49927 4.99731)" fill="currentColor"/>
</svg>
