
<svg version="1.1" id="target" xmlns="http://www.w3.org/2000/svg" xmlns:xlink="http://www.w3.org/1999/xlink" x="0px" y="0px"
	 viewBox="0 0 24 24" style="enable-background:new 0 0 24 24;" xml:space="preserve">
<title>browser-hand</title>
<g>
	<path d="M1.5,24c-0.551,0-1-0.448-1-1v-7c0-0.552,0.449-1,1-1h3c0.551,0,1,0.448,1,1h3c2.139,0,3.364,1.758,4.022,2.703
		c0.081,0.115,0.152,0.215,0.215,0.297H14.5c4.262,0,8,1.636,8,3.5c0,0.275-0.225,0.5-0.5,0.5H5.5c0,0.552-0.449,1-1,1H1.5z M1.5,23
		h3v-7h-3C1.5,16,1.5,23,1.5,23z M21.281,22c-0.75-0.923-3.352-2-6.781-2h-7C7.224,20,7,19.775,7,19.5S7.224,19,7.5,19h4.009
		c-0.608-0.851-1.557-2-3.009-2h-3v5H21.281z"/>
	<circle cx="3" cy="21.5" r="0.75"/>
	<path d="M17,17c-0.275,0-0.5-0.225-0.5-0.5S16.725,16,17,16h4c0.824-0.003,1.497-0.676,1.5-1.502V5h-19v8
		c0,0.275-0.224,0.5-0.5,0.5S2.5,13.275,2.5,13V2.5C2.504,1.125,3.625,0.004,4.998,0H21c1.376,0.004,2.497,1.125,2.5,2.499V14.5
		c-0.003,1.376-1.124,2.497-2.498,2.5H17z M22.5,4V2.5c-0.003-0.824-0.676-1.498-1.502-1.5H5.001C4.176,1.002,3.502,1.676,3.5,2.502
		V4H22.5z"/>
	<circle cx="6" cy="2.5" r="0.75"/>
	<circle cx="8" cy="2.5" r="0.75"/>
	<circle cx="10" cy="2.5" r="0.75"/>
</g>
</svg>
