
<svg version="1.1" id="target" xmlns="http://www.w3.org/2000/svg" xmlns:xlink="http://www.w3.org/1999/xlink" x="0px" y="0px"
	 viewBox="0 0 24 24" style="enable-background:new 0 0 24 24;" xml:space="preserve">
<title>programming-language-code</title>
<g>
	<path d="M8.5,6C8.224,6,8,5.776,8,5.5S8.224,5,8.5,5h6C14.775,5,15,5.224,15,5.5S14.775,6,14.5,6H8.5z"/>
	<path d="M8.5,9C8.224,9,8,8.776,8,8.5S8.224,8,8.5,8h6C14.775,8,15,8.224,15,8.5S14.775,9,14.5,9H8.5z"/>
	<path d="M8.5,12C8.224,12,8,11.776,8,11.5S8.224,11,8.5,11h6c0.275,0,0.5,0.224,0.5,0.5S14.775,12,14.5,12H8.5z"/>
	<path d="M8.5,15C8.224,15,8,14.775,8,14.5S8.224,14,8.5,14h6c0.275,0,0.5,0.225,0.5,0.5S14.775,15,14.5,15H8.5z"/>
	<path d="M3.5,24C1.57,24,0,22.43,0,20.5S1.57,17,3.5,17H5V3.5C5,1.57,6.57,0,8.5,0H21c1.651,0.046,2.954,1.367,2.974,3.008
		C24,3.209,23.928,3.452,23.772,3.646c-0.157,0.197-0.381,0.32-0.631,0.348L23.038,4H19v16.5c0,1.93-1.57,3.5-3.5,3.5H3.5z M15.5,17
		c0.275,0,0.5,0.225,0.5,0.5S15.775,18,15.5,18c-1.379,0-2.5,1.121-2.5,2.5s1.121,2.5,2.5,2.5s2.5-1.121,2.5-2.5V3
		c0-0.744,0.28-1.455,0.771-2H8.5C7.122,1,6,2.122,6,3.5V17H15.5z M3.5,18C2.122,18,1,19.121,1,20.5S2.122,23,3.5,23h9.551
		C12.383,22.349,12,21.456,12,20.5s0.383-1.849,1.051-2.5H3.5z M23.038,3c-0.076-1.07-0.948-1.968-2.048-2
		C19.893,1.002,19,1.898,19,3H23.038z"/>
</g>
</svg>
