
<svg version="1.1" id="target" xmlns="http://www.w3.org/2000/svg" xmlns:xlink="http://www.w3.org/1999/xlink" x="0px" y="0px"
	 viewBox="0 0 24 24" style="enable-background:new 0 0 24 24;" xml:space="preserve">
<title>programming-team-chat</title>
<g>
	<path d="M12.451,13l-0.142-0.038C12.121,12.884,12,12.703,12,12.5V10H5.5C4.673,10,4,9.327,4,8.5v-7C4,0.673,4.673,0,5.5,0h14
		C20.327,0,21,0.673,21,1.5v7c0,0.827-0.673,1.5-1.5,1.5h-3.793l-2.854,2.854C12.759,12.948,12.633,13,12.5,13H12.451z M5.5,1
		C5.224,1,5,1.224,5,1.5v7C5,8.776,5.224,9,5.5,9h7C12.776,9,13,9.224,13,9.5v1.793l2.146-2.146C15.241,9.052,15.366,9,15.5,9h4
		C19.775,9,20,8.776,20,8.5v-7C20,1.224,19.775,1,19.5,1H5.5z"/>
	<path d="M4.88,19.5c-1.792,0-3.25-1.458-3.25-3.25S3.088,13,4.88,13s3.25,1.458,3.25,3.25S6.672,19.5,4.88,19.5z M4.88,14
		c-1.241,0-2.25,1.01-2.25,2.25s1.009,2.25,2.25,2.25s2.25-1.01,2.25-2.25S6.121,14,4.88,14z"/>
	<path d="M9.259,24c-0.232,0-0.437-0.164-0.488-0.391c-0.234-1.039-0.86-1.925-1.762-2.493c-0.641-0.404-1.375-0.618-2.122-0.618
		c-0.296,0-0.595,0.034-0.887,0.101c-1.493,0.337-2.675,1.52-3.013,3.012c-0.05,0.229-0.252,0.389-0.49,0.389l-0.102-0.01
		c-0.135-0.03-0.247-0.109-0.318-0.223c-0.072-0.113-0.094-0.247-0.064-0.377c0.422-1.866,1.9-3.345,3.767-3.768
		c0.366-0.082,0.739-0.123,1.109-0.123c0.938,0,1.855,0.267,2.655,0.771c1.127,0.711,1.91,1.819,2.203,3.12
		c0.03,0.13,0.007,0.264-0.064,0.377c-0.071,0.112-0.183,0.191-0.313,0.221L9.259,24z"/>
	<path d="M19.12,19.5c-1.792,0-3.25-1.458-3.25-3.25S17.328,13,19.12,13s3.25,1.458,3.25,3.25S20.912,19.5,19.12,19.5z M19.12,14
		c-1.24,0-2.25,1.01-2.25,2.25s1.01,2.25,2.25,2.25s2.25-1.01,2.25-2.25S20.36,14,19.12,14z"/>
	<path d="M23.5,24c-0.235,0-0.436-0.16-0.488-0.39c-0.234-1.04-0.859-1.926-1.762-2.494c-0.642-0.405-1.375-0.619-2.119-0.619
		c-0.297,0-0.597,0.034-0.89,0.102c-1.493,0.337-2.675,1.52-3.012,3.011C15.177,23.84,14.977,24,14.741,24l-0.106-0.011
		c-0.134-0.03-0.245-0.109-0.316-0.223c-0.071-0.112-0.095-0.246-0.065-0.377c0.423-1.866,1.901-3.345,3.768-3.768
		c0.365-0.082,0.738-0.124,1.109-0.124c0.938,0,1.855,0.267,2.654,0.772c1.127,0.711,1.909,1.818,2.204,3.12
		c0.029,0.13,0.006,0.264-0.065,0.376c-0.071,0.113-0.183,0.192-0.313,0.222L23.5,24z"/>
	<path d="M15,7.5c-0.134,0-0.259-0.052-0.354-0.146c-0.195-0.195-0.195-0.512,0-0.707L16.293,5l-1.646-1.646
		c-0.195-0.195-0.195-0.512,0-0.707C14.741,2.552,14.866,2.5,15,2.5s0.259,0.052,0.354,0.146l2,2c0.195,0.195,0.195,0.512,0,0.707
		l-2,2C15.259,7.448,15.134,7.5,15,7.5z"/>
	<path d="M10,7.5c-0.133,0-0.259-0.052-0.354-0.146l-2-2c-0.195-0.195-0.195-0.512,0-0.707l2-2C9.741,2.552,9.867,2.5,10,2.5
		s0.259,0.052,0.354,0.146c0.195,0.195,0.195,0.512,0,0.707L8.707,5l1.646,1.646c0.195,0.195,0.195,0.512,0,0.707
		C10.259,7.448,10.133,7.5,10,7.5z"/>
	<path d="M11.5,7.5c-0.078,0-0.154-0.018-0.224-0.053c-0.246-0.124-0.346-0.424-0.224-0.67l2-4C13.138,2.608,13.313,2.5,13.501,2.5
		c0.078,0,0.156,0.019,0.225,0.054c0.244,0.122,0.345,0.422,0.222,0.669l-2,4C11.861,7.394,11.69,7.5,11.5,7.5z"/>
</g>
</svg>
