
<svg version="1.1" id="target" xmlns="http://www.w3.org/2000/svg" xmlns:xlink="http://www.w3.org/1999/xlink" x="0px" y="0px"
	 viewBox="0 0 24 24" style="enable-background:new 0 0 24 24;" xml:space="preserve">
<title>programming-search</title>
<g>
	<path d="M23.539,24c-0.134,0-0.259-0.052-0.354-0.146l-5.62-5.619c-1.944,1.776-4.443,2.751-7.065,2.751
		c-5.79,0-10.5-4.711-10.5-10.5s4.71-10.5,10.5-10.5c5.79,0,10.5,4.71,10.5,10.5c0,2.609-0.968,5.099-2.729,7.041l5.622,5.621
		c0.195,0.195,0.195,0.512,0,0.707C23.798,23.948,23.673,24,23.539,24z M10.5,0.985c-5.238,0-9.5,4.262-9.5,9.5
		c0,5.239,4.262,9.5,9.5,9.5s9.5-4.262,9.5-9.5C20,5.247,15.738,0.985,10.5,0.985z"/>
	<path d="M14,14c-0.134,0-0.259-0.052-0.354-0.146c-0.195-0.195-0.195-0.512,0-0.707l2.646-2.646l-2.646-2.646
		c-0.195-0.195-0.195-0.512,0-0.707C13.741,7.052,13.866,7,14,7s0.259,0.052,0.354,0.146l3,3c0.195,0.195,0.195,0.512,0,0.707l-3,3
		C14.259,13.948,14.134,14,14,14z"/>
	<path d="M7,14c-0.133,0-0.259-0.052-0.354-0.146l-3-3c-0.195-0.195-0.195-0.512,0-0.707l3-3C6.741,7.052,6.867,7,7,7
		s0.259,0.052,0.354,0.146c0.195,0.195,0.195,0.512,0,0.707L4.707,10.5l2.646,2.646c0.195,0.195,0.195,0.512,0,0.707
		C7.259,13.948,7.133,14,7,14z"/>
	<path d="M8.955,15l-0.13-0.031c-0.126-0.048-0.226-0.141-0.28-0.263c-0.055-0.122-0.06-0.258-0.012-0.383l3-7.999
		C11.604,6.13,11.792,6,11.999,6h0.047l0.132,0.034c0.123,0.045,0.222,0.138,0.277,0.26c0.055,0.122,0.06,0.258,0.012,0.383l-3,8
		C9.396,14.869,9.208,15,9,15H8.955z"/>
</g>
</svg>
