
<svg version="1.1" id="target" xmlns="http://www.w3.org/2000/svg" xmlns:xlink="http://www.w3.org/1999/xlink" x="0px" y="0px"
	 viewBox="0 0 24 24" style="enable-background:new 0 0 24 24;" xml:space="preserve">
<title>programming-flag</title>
<g>
	<path d="M0.5,24.004c-0.276,0-0.5-0.225-0.5-0.5v-23c0-0.276,0.224-0.5,0.5-0.5S1,0.228,1,0.504v1.783l2.577-0.792
		c0.984-0.303,2.004-0.456,3.033-0.456c1.914,0,3.787,0.531,5.417,1.536c1.467,0.902,3.158,1.378,4.888,1.378
		c0.868,0,1.729-0.121,2.561-0.359l2.423-0.692c0.145-0.042,0.296-0.063,0.448-0.063c0.911,0,1.653,0.74,1.654,1.649v13.161
		c0,0.733-0.492,1.386-1.197,1.586l-3.054,0.873c-0.916,0.263-1.868,0.396-2.828,0.396c-1.919,0-3.793-0.529-5.419-1.53
		c-1.47-0.905-3.16-1.384-4.887-1.384c-0.931,0-1.854,0.14-2.743,0.414L1,18.884v4.62C1,23.779,0.776,24.004,0.5,24.004z
		 M6.613,16.589c1.913,0,3.784,0.529,5.412,1.531c1.468,0.904,3.162,1.382,4.895,1.382c0.866,0,1.726-0.12,2.556-0.356l3.054-0.873
		C22.807,18.193,23,17.937,23,17.647V4.488c-0.001-0.358-0.293-0.65-0.651-0.65c-0.06,0-0.12,0.009-0.178,0.025l-2.422,0.691
		c-0.92,0.264-1.874,0.397-2.836,0.397c-1.916,0-3.787-0.528-5.412-1.526C10.03,2.519,8.338,2.039,6.608,2.039
		c-0.929,0-1.85,0.138-2.738,0.411L1,3.333v14.504l2.578-0.792C4.563,16.742,5.584,16.589,6.613,16.589z"/>
	<path d="M15.5,14.004c-0.134,0-0.259-0.052-0.354-0.146c-0.195-0.195-0.195-0.512,0-0.707l2.646-2.646l-2.646-2.646
		c-0.195-0.195-0.195-0.512,0-0.707c0.095-0.094,0.22-0.146,0.354-0.146s0.259,0.052,0.354,0.146l3,3
		c0.195,0.195,0.195,0.512,0,0.707l-3,3C15.759,13.952,15.634,14.004,15.5,14.004z"/>
	<path d="M8.5,14.004c-0.133,0-0.259-0.052-0.354-0.146l-3-3c-0.195-0.195-0.195-0.512,0-0.707l3-3
		C8.241,7.056,8.367,7.004,8.5,7.004S8.759,7.056,8.854,7.15c0.195,0.195,0.195,0.512,0,0.707l-2.646,2.646l2.646,2.646
		c0.195,0.195,0.195,0.512,0,0.707C8.759,13.952,8.633,14.004,8.5,14.004z"/>
	<path d="M10.959,14.004l-0.118-0.025c-0.261-0.088-0.403-0.371-0.316-0.633l2-6c0.069-0.205,0.26-0.341,0.477-0.341h0.04
		l0.115,0.025c0.128,0.043,0.23,0.132,0.29,0.251c0.06,0.12,0.069,0.255,0.027,0.382l-2,6c-0.069,0.205-0.26,0.342-0.475,0.342
		H10.959z"/>
</g>
</svg>
