<svg id="target" xmlns="http://www.w3.org/2000/svg" viewBox="0 0 24 24"><title>color-palette-sample-1</title><path d="M23.907,16.286l-1.348-4.815a2.5,2.5,0,0,0-3.081-1.734l-.754.211.527-.653a2.5,2.5,0,0,0-.377-3.515L14.982,2.642a2.5,2.5,0,0,0-3.516.376L10.445,4.285A.251.251,0,0,1,10,4.128V2.5A2.5,2.5,0,0,0,7.5,0h-5A2.5,2.5,0,0,0,0,2.5V18.807a5.145,5.145,0,0,0,4.511,5.17c.166.015.332.023.5.023C6,24,5.5,24,22.174,19.367A2.5,2.5,0,0,0,23.907,16.286ZM13.023,4.273a.5.5,0,0,1,.7-.075l3.893,3.139a.5.5,0,0,1,.074.7l-7.248,8.988A.25.25,0,0,1,10,16.871V8.11a.249.249,0,0,1,.056-.157ZM5,9a2,2,0,1,1-2,2A2,2,0,0,1,5,9ZM3,4.5a2,2,0,1,1,2,2A2,2,0,0,1,3,4.5Zm2,11a2,2,0,1,1-2,2A2,2,0,0,1,5,15.5Zm16.634,1.941L10.822,20.468a.25.25,0,0,1-.262-.4l5.95-7.377a.255.255,0,0,1,.127-.084l3.38-.946a.5.5,0,0,1,.616.347l1.348,4.815A.5.5,0,0,1,21.634,17.441Z"/></svg>
