<svg id="target" xmlns="http://www.w3.org/2000/svg" viewBox="0 0 24 24"><title>color-bucket</title><path d="M22.382,17.9a1.083,1.083,0,0,0-1.764,0A8.616,8.616,0,0,0,19,21.472a2.5,2.5,0,0,0,5,0A8.6,8.6,0,0,0,22.382,17.9Z"/><path d="M14.924,7.1a18.912,18.912,0,0,0,6.688,4.488.251.251,0,0,0,.307-.329c-.858-2.251-4.353-5.8-4.855-6.3-.525-.526-4.395-4.34-6.641-4.927a.25.25,0,0,0-.308.3C10.411,1.657,12.451,4.63,14.924,7.1Z"/><path d="M13.864,8.164a24.375,24.375,0,0,1-5-6.852.25.25,0,0,0-.434-.054L.3,12.412c-1.193,1.193,1.416,4.439,3.145,6.169,1.856,1.856,4.1,3.456,5.4,3.456a.958.958,0,0,0,.714-.262l11.486-8.381a.25.25,0,0,0-.07-.439A20.932,20.932,0,0,1,13.864,8.164Z"/></svg>
