<svg id="target" xmlns="http://www.w3.org/2000/svg" viewBox="0 0 24 24"><title>design-pen-tool</title><path d="M24,3a2,2,0,0,0-2-2H2A2,2,0,0,0,0,3V21a2,2,0,0,0,2,2H22a2,2,0,0,0,2-2ZM5.5,3.583a1,1,0,1,1,1,1A1,1,0,0,1,5.5,3.583Zm3.5,0a1,1,0,1,1,1,1A1,1,0,0,1,9,3.583Zm-6-1a1,1,0,1,1-1,1A1,1,0,0,1,3,2.583ZM22,20.5a.5.5,0,0,1-.5.5H2.5a.5.5,0,0,1-.5-.5V7a.5.5,0,0,1,.5-.5h19A.5.5,0,0,1,22,7Z"/><path d="M19.75,15.5a1.252,1.252,0,0,0-1.25-1.25H15.963l-.292-.586A.75.75,0,0,0,15,13.25H13a1.252,1.252,0,0,0-1.25,1.25v4A1.252,1.252,0,0,0,13,19.75h5.5a1.252,1.252,0,0,0,1.25-1.25ZM18.25,18a.25.25,0,0,1-.25.25H13.5a.25.25,0,0,1-.25-.25V15a.25.25,0,0,1,.25-.25h.882a.252.252,0,0,1,.224.138l.223.448a.75.75,0,0,0,.671.414H18a.25.25,0,0,1,.25.25Z"/><path d="M10.5,13a1.5,1.5,0,0,0,1.436-1.067l5.972-1.406a1.5,1.5,0,1,0-.344-1.46l-5.972,1.406A1.5,1.5,0,1,0,10.5,13Z"/><path d="M3.75,16.5A1.252,1.252,0,0,0,5,17.75H7A1.252,1.252,0,0,0,8.25,16.5v-6A1.252,1.252,0,0,0,7,9.25H5A1.252,1.252,0,0,0,3.75,10.5Zm1.75-.25A.25.25,0,0,1,5.25,16V14.5a.25.25,0,0,1,.25-.25h1a.25.25,0,0,1,.25.25V16a.25.25,0,0,1-.25.25Zm1-5.5a.25.25,0,0,1,.25.25v1.5a.25.25,0,0,1-.25.25h-1a.25.25,0,0,1-.25-.25V11a.25.25,0,0,1,.25-.25Z"/></svg>
