<svg id="target" xmlns="http://www.w3.org/2000/svg" viewBox="0 0 24 24"><title>shape-rhomboid-alternate</title><path d="M17.352,7.973a.247.247,0,0,0-.086.188V23a.25.25,0,0,0,.41.192l.034-.029,2.526-2.19A3.247,3.247,0,0,0,21.25,18.75V5.25c0-.04,0-.08,0-.121a.25.25,0,0,0-.413-.175Z"/><path d="M7.726,6.938A.248.248,0,0,0,7.89,7h8.2a.252.252,0,0,0,.164-.061l4.054-3.514a.221.221,0,0,0,.075-.16.217.217,0,0,0-.067-.163c-.026-.026-.053-.05-.08-.074L17.71.839A3.846,3.846,0,0,0,15.463,0H8.516A3.838,3.838,0,0,0,6.269.842L3.761,3.028q-.041.034-.078.072a.218.218,0,0,0,.008.322Z"/><rect x="8.266" y="8.5" width="7.5" height="15.5" rx="0.25" ry="0.25"/><path d="M6.766,8.205a.251.251,0,0,0-.086-.188L3.167,4.955a.249.249,0,0,0-.413.174c0,.041,0,.081,0,.121v13.5a3.26,3.26,0,0,0,1.011,2.223l2.508,2.185c.029.026.06.052.092.077a.251.251,0,0,0,.405-.2Z"/></svg>
