
<svg version="1.1" id="target" xmlns="http://www.w3.org/2000/svg" xmlns:xlink="http://www.w3.org/1999/xlink" x="0px" y="0px"
	 viewBox="0 0 24 24" style="enable-background:new 0 0 24 24;" xml:space="preserve">
<title>artboard-image</title>
<g>
	<path d="M10,10.5c-0.827,0-1.5-0.673-1.5-1.5S9.173,7.5,10,7.5s1.5,0.673,1.5,1.5S10.827,10.5,10,10.5z M10,8.5
		C9.724,8.5,9.5,8.724,9.5,9S9.724,9.5,10,9.5s0.5-0.224,0.5-0.5S10.276,8.5,10,8.5z"/>
	<path d="M18.5,24c-0.827,0-1.5-0.673-1.5-1.5V21H4.5C3.673,21,3,20.327,3,19.5V7H1.5C0.673,7,0,6.327,0,5.5v-1
		C0,3.673,0.673,3,1.5,3H3V1.5C3,0.673,3.673,0,4.5,0h1C6.327,0,7,0.673,7,1.5V3h12.5C20.327,3,21,3.673,21,4.5V17h1.5
		c0.827,0,1.5,0.673,1.5,1.5v1c0,0.827-0.673,1.5-1.5,1.5H21v1.5c0,0.827-0.673,1.5-1.5,1.5H18.5z M1.5,4C1.224,4,1,4.224,1,4.5v1
		C1,5.776,1.224,6,1.5,6h2C3.776,6,4,6.224,4,6.5v13C4,19.775,4.224,20,4.5,20h13c0.275,0,0.5,0.225,0.5,0.5v2
		c0,0.275,0.225,0.5,0.5,0.5h1c0.275,0,0.5-0.225,0.5-0.5v-2c0-0.275,0.225-0.5,0.5-0.5h2c0.275,0,0.5-0.225,0.5-0.5v-1
		c0-0.275-0.225-0.5-0.5-0.5h-2c-0.275,0-0.5-0.225-0.5-0.5v-13C20,4.224,19.775,4,19.5,4h-13C6.224,4,6,3.776,6,3.5v-2
		C6,1.224,5.776,1,5.5,1h-1C4.224,1,4,1.224,4,1.5v2C4,3.776,3.776,4,3.5,4H1.5z"/>
	<path d="M7,18c-0.331,0-0.631-0.167-0.823-0.458l-0.035-0.04l-0.018-0.057C6.048,17.329,6,17.166,6,17V7c0-0.551,0.449-1,1-1h10
		c0.552,0,1,0.449,1,1v10c0,0.158-0.044,0.315-0.135,0.479C17.627,17.835,17.328,18,17,18H7z M16.797,17l-2.275-6.546l-2.874,5.044
		c-0.085,0.147-0.237,0.242-0.408,0.252c0,0-0.001,0-0.001,0c-0.186,0-0.34-0.079-0.433-0.21l-1.651-2.316l-1.843,3.759L16.797,17z
		 M7,15.345l1.626-3.314c0.078-0.159,0.235-0.265,0.409-0.278c0.002,0,0.005,0,0.008,0c0.199,0,0.347,0.079,0.44,0.209l1.683,2.362
		l3.033-5.32c0.098-0.173,0.293-0.251,0.443-0.251c0.231,0.02,0.398,0.151,0.463,0.335L17,14.538V7H7h0C7,7,7,15.345,7,15.345z"/>
</g>
</svg>
