
<svg version="1.1" id="target" xmlns="http://www.w3.org/2000/svg" xmlns:xlink="http://www.w3.org/1999/xlink" x="0px" y="0px"
	 viewBox="0 0 24 24" style="enable-background:new 0 0 24 24;" xml:space="preserve">
<title>color-palette-1</title>
<g>
	<path d="M12,23.5c-1.378,0-2.5-1.121-2.5-2.5c0-1.192,0.845-2.204,2-2.438V12.5H5.438c-0.234,1.154-1.246,2-2.438,2
		c-1.378,0-2.5-1.121-2.5-2.5c0-1.378,1.122-2.5,2.5-2.5c1.192,0,2.204,0.845,2.438,2H11.5V5.438c-1.155-0.234-2-1.246-2-2.438
		c0-1.378,1.122-2.5,2.5-2.5c1.379,0,2.5,1.122,2.5,2.5c0,1.192-0.846,2.204-2,2.438V11.5h6.062c0.234-1.155,1.246-2,2.438-2
		c1.379,0,2.5,1.122,2.5,2.5c0,1.379-1.121,2.5-2.5,2.5c-1.192,0-2.204-0.846-2.438-2H12.5v6.062c1.154,0.234,2,1.246,2,2.438
		C14.5,22.379,13.379,23.5,12,23.5z M12,19.5c-0.827,0-1.5,0.673-1.5,1.5s0.673,1.5,1.5,1.5s1.5-0.673,1.5-1.5S12.827,19.5,12,19.5z
		 M21,10.5c-0.827,0-1.5,0.673-1.5,1.5s0.673,1.5,1.5,1.5s1.5-0.673,1.5-1.5S21.827,10.5,21,10.5z M3,10.5
		c-0.827,0-1.5,0.673-1.5,1.5s0.673,1.5,1.5,1.5s1.5-0.673,1.5-1.5S3.827,10.5,3,10.5z M12,1.5c-0.827,0-1.5,0.673-1.5,1.5
		s0.673,1.5,1.5,1.5s1.5-0.673,1.5-1.5S12.827,1.5,12,1.5z"/>
	<path d="M18.364,20.864c-1.379,0-2.5-1.121-2.5-2.5c0-0.488,0.146-0.958,0.422-1.371l-2.64-2.64c-0.195-0.195-0.195-0.512,0-0.707
		C13.741,13.552,13.866,13.5,14,13.5s0.259,0.052,0.354,0.146l2.64,2.64c0.413-0.276,0.883-0.422,1.371-0.422
		c1.379,0,2.5,1.121,2.5,2.5S19.743,20.864,18.364,20.864z M18.364,16.864c-0.827,0-1.5,0.673-1.5,1.5s0.673,1.5,1.5,1.5
		s1.5-0.673,1.5-1.5S19.191,16.864,18.364,16.864z"/>
	<path d="M10,10.5c-0.133,0-0.259-0.052-0.354-0.146L7.007,7.714C6.595,7.991,6.125,8.136,5.636,8.136c-1.378,0-2.5-1.122-2.5-2.5
		s1.122-2.5,2.5-2.5s2.5,1.122,2.5,2.5c0,0.489-0.145,0.959-0.422,1.371l2.639,2.639c0.195,0.195,0.195,0.512,0,0.707
		C10.259,10.448,10.133,10.5,10,10.5z M5.636,4.136c-0.827,0-1.5,0.673-1.5,1.5s0.673,1.5,1.5,1.5s1.5-0.673,1.5-1.5
		S6.463,4.136,5.636,4.136z"/>
	<path d="M14,10.5c-0.134,0-0.259-0.052-0.354-0.146c-0.195-0.195-0.195-0.512,0-0.707l2.64-2.64
		c-0.276-0.413-0.422-0.882-0.422-1.371c0-1.378,1.121-2.5,2.5-2.5s2.5,1.122,2.5,2.5s-1.121,2.5-2.5,2.5
		c-0.489,0-0.959-0.145-1.371-0.422l-2.64,2.639C14.259,10.448,14.134,10.5,14,10.5z M18.364,4.136c-0.827,0-1.5,0.673-1.5,1.5
		s0.673,1.5,1.5,1.5s1.5-0.673,1.5-1.5S19.191,4.136,18.364,4.136z"/>
	<path d="M5.636,20.864c-1.378,0-2.5-1.121-2.5-2.5s1.122-2.5,2.5-2.5c0.488,0,0.958,0.146,1.371,0.422l2.64-2.64
		C9.741,13.552,9.867,13.5,10,13.5s0.259,0.052,0.354,0.146c0.195,0.195,0.195,0.512,0,0.707l-2.639,2.64
		c0.277,0.412,0.422,0.882,0.422,1.371C8.136,19.743,7.015,20.864,5.636,20.864z M5.636,16.864c-0.827,0-1.5,0.673-1.5,1.5
		s0.673,1.5,1.5,1.5s1.5-0.673,1.5-1.5S6.463,16.864,5.636,16.864z"/>
</g>
</svg>
