
<svg version="1.1" id="target" xmlns="http://www.w3.org/2000/svg" xmlns:xlink="http://www.w3.org/1999/xlink" x="0px" y="0px"
	 viewBox="0 0 24 24" style="enable-background:new 0 0 24 24;" xml:space="preserve">
<title>color-brush-paint</title>
<g>
	<path d="M11.36,19.604c-0.68,0-1.377-0.102-2.073-0.302c-0.315-0.093-0.57-0.317-0.699-0.618c-0.235-0.554,0.022-1.195,0.574-1.431
		c1.077-0.457,1.202-1.102,1.43-2.271c0.075-0.384,0.156-0.798,0.279-1.237c0.244-0.875,0.814-1.602,1.606-2.047
		c0.42-0.237,0.89-0.376,1.398-0.415l7.13-9.205c0.319-0.4,0.793-0.629,1.3-0.629c0.315,0,0.624,0.09,0.891,0.26
		c0.772,0.492,1,1.52,0.51,2.292l-6.327,9.625c0.206,0.638,0.221,1.308,0.044,1.947c-0.335,1.193-1.387,2.406-2.745,3.165
		C13.663,19.305,12.516,19.604,11.36,19.604z M14.144,12.259c-0.409,0-0.815,0.107-1.175,0.31c-0.559,0.315-0.961,0.829-1.134,1.446
		c-0.115,0.411-0.188,0.791-0.26,1.157c-0.233,1.202-0.454,2.336-2.02,3.001c-0.045,0.019-0.066,0.072-0.046,0.119
		c0.661,0.224,1.265,0.312,1.852,0.312c1.001,0,1.953-0.248,2.83-0.737c1.117-0.624,2.008-1.629,2.268-2.561
		c0.173-0.616,0.094-1.264-0.221-1.823c-0.315-0.559-0.828-0.962-1.445-1.134C14.58,12.289,14.361,12.259,14.144,12.259z
		 M15.062,11.385c0.719,0.201,1.343,0.629,1.791,1.223l6.014-9.149c0.192-0.302,0.101-0.709-0.207-0.905
		c-0.106-0.068-0.229-0.104-0.354-0.104c-0.2,0-0.388,0.09-0.514,0.248L15.062,11.385z"/>
	<path d="M10.262,22.602c-0.259,0-0.521-0.028-0.779-0.085c-5.004-0.922-8.809-4.942-9.46-10.004
		c-0.012-0.085-0.018-0.178-0.018-0.271c0-1.099,0.895-1.993,1.994-1.993c1.02,0.008,1.898,0.667,2.19,1.641
		c0.569,1.905,2.831,2.816,4.627,3.244c0.13,0.031,0.24,0.111,0.31,0.225c0.07,0.113,0.092,0.248,0.061,0.378
		c-0.054,0.226-0.253,0.384-0.484,0.384h-0.03l-0.089-0.014c-2.942-0.701-4.793-2.061-5.353-3.93
		c-0.164-0.55-0.66-0.923-1.234-0.928c-0.263,0-0.512,0.103-0.7,0.291c-0.188,0.188-0.292,0.437-0.292,0.702
		c0,0.045,0.002,0.091,0.009,0.136c0.595,4.634,4.078,8.312,8.667,9.158c0.197,0.044,0.39,0.064,0.582,0.064
		c0.835,0,1.63-0.399,2.125-1.069c0.095-0.127,0.246-0.203,0.403-0.203c0.107,0,0.21,0.034,0.296,0.098
		c0.107,0.079,0.178,0.196,0.197,0.329c0.021,0.132-0.013,0.264-0.093,0.371C12.508,22.05,11.413,22.602,10.262,22.602z"/>
</g>
</svg>
