
<svg version="1.1" id="target" xmlns="http://www.w3.org/2000/svg" xmlns:xlink="http://www.w3.org/1999/xlink" x="0px" y="0px"
	 viewBox="0 0 24 24" style="enable-background:new 0 0 24 24;" xml:space="preserve">
<title>graphic-tablet-draw</title>
<g>
	<path d="M1.5,21.5C0.673,21.5,0,20.827,0,20V4c0-0.827,0.673-1.5,1.5-1.5H19c0.275,0,0.5,0.224,0.5,0.5S19.275,3.5,19,3.5H1.5
		C1.224,3.5,1,3.724,1,4v16c0,0.275,0.224,0.5,0.5,0.5h21c0.275,0,0.5-0.225,0.5-0.5V8.5C23,8.224,23.225,8,23.5,8S24,8.224,24,8.5
		V20c0,0.827-0.673,1.5-1.5,1.5H1.5z"/>
	<path d="M2.5,19.5C2.224,19.5,2,19.275,2,19V5c0-0.276,0.224-0.5,0.5-0.5H17c0.275,0,0.5,0.224,0.5,0.5S17.275,5.5,17,5.5H3v13
		h15.5V13c0-0.276,0.225-0.5,0.5-0.5h2v-1.998c0-0.276,0.225-0.5,0.5-0.5s0.5,0.224,0.5,0.5V19c0,0.275-0.225,0.5-0.5,0.5H2.5z
		 M21,18.5v-2h-1.5v2H21z M21,15.5v-2h-1.5v2H21z"/>
	<path d="M8,13.5c-1.103,0-2-0.897-2-2s0.897-2,2-2s2,0.897,2,2S9.103,13.5,8,13.5z M8,10.5c-0.551,0-1,0.449-1,1s0.449,1,1,1
		s1-0.449,1-1S8.551,10.5,8,10.5z"/>
	<path d="M8,15.5c-2.206,0-4-1.794-4-4c0-2.206,1.794-4,4-4s4,1.794,4,4C12,13.706,10.206,15.5,8,15.5z M8,8.5c-1.654,0-3,1.346-3,3
		s1.346,3,3,3s3-1.346,3-3S9.654,8.5,8,8.5z"/>
	<path d="M15.5,12.5c-0.133,0-0.262-0.054-0.354-0.147c-0.118-0.117-0.169-0.286-0.136-0.451l0.5-2.499
		c0.02-0.099,0.067-0.188,0.138-0.257l5.086-5.085c0.359-0.36,0.839-0.56,1.35-0.56c0.51,0,0.99,0.198,1.351,0.559
		C23.803,4.432,24,4.91,24,5.415c0.001,0.505-0.194,0.981-0.55,1.342l-5.097,5.097c-0.07,0.07-0.158,0.117-0.256,0.137l-2.5,0.5
		L15.5,12.5z M16.137,11.362l1.617-0.323l4.972-4.971c0.181-0.182,0.275-0.41,0.274-0.652c0-0.244-0.095-0.472-0.267-0.643
		C22.551,4.593,22.325,4.5,22.085,4.5c-0.244,0-0.473,0.095-0.645,0.266l-4.979,4.979L16.137,11.362z"/>
</g>
</svg>
