
<svg version="1.1" id="target" xmlns="http://www.w3.org/2000/svg" xmlns:xlink="http://www.w3.org/1999/xlink" x="0px" y="0px"
	 viewBox="0 0 24 24" style="enable-background:new 0 0 24 24;" xml:space="preserve">
<title>vectors-pen-anchor</title>
<g>
	<path d="M21,14.689c-0.267,0-0.519-0.104-0.707-0.293L18.5,12.604c-0.39-0.39-0.39-1.024,0-1.414l0.543-0.543L13.25,4.854
		l-0.543,0.543C12.519,5.585,12.268,5.689,12,5.689s-0.519-0.104-0.707-0.292L10.75,4.854l-5.792,5.792L5.5,11.189
		c0.39,0.39,0.39,1.024,0,1.414l-1.793,1.793C3.519,14.585,3.268,14.689,3,14.689s-0.519-0.104-0.708-0.293L0.5,12.604
		c-0.39-0.39-0.39-1.024,0-1.414l1.793-1.793C2.481,9.208,2.732,9.104,3,9.104s0.519,0.104,0.707,0.292L4.25,9.939l5.792-5.792
		L9.5,3.604c-0.39-0.39-0.39-1.024,0-1.414l1.793-1.793C11.481,0.208,11.732,0.104,12,0.104s0.519,0.104,0.707,0.292L14.5,2.189
		c0.39,0.39,0.39,1.024,0,1.414l-0.543,0.543l5.793,5.792l0.543-0.543c0.189-0.188,0.44-0.292,0.707-0.292s0.518,0.104,0.707,0.292
		l1.793,1.794c0.39,0.39,0.39,1.024,0,1.414l-1.793,1.793C21.519,14.585,21.267,14.689,21,14.689z M19.207,11.896L21,13.689
		l1.793-1.793L21,10.104L19.207,11.896z M1.207,11.896L3,13.689l1.793-1.793L3,10.103L1.207,11.896z M10.207,2.896L12,4.69
		l1.793-1.793L12,1.103L10.207,2.896z"/>
	<path d="M15.5,23.896c-0.275,0-0.5-0.225-0.5-0.5v-2.5h-5v2.5c0,0.275-0.224,0.5-0.5,0.5S9,23.672,9,23.396v-3
		c0-0.275,0.224-0.5,0.5-0.5h0.197C8.634,19.051,8,17.773,8,16.4c0-2.291,3.67-7.678,4.089-8.285l0.056-0.082l0.03-0.007
		c0.09-0.084,0.203-0.131,0.325-0.131c0.12,0,0.231,0.045,0.321,0.128l0.031,0.007l0.064,0.092C13.33,8.721,17,14.098,17,16.4
		c0,1.374-0.634,2.65-1.696,3.496H15.5c0.275,0,0.5,0.225,0.5,0.5v3C16,23.672,15.775,23.896,15.5,23.896z M12,10.071
		c-1.888,2.963-3,5.301-3,6.33c0,1.908,1.554,3.477,3.464,3.496C14.446,19.877,16,18.309,16,16.4c0-1.032-1.111-3.37-3-6.331v4.827
		c0,0.275-0.224,0.5-0.5,0.5s-0.5-0.225-0.5-0.5V10.071z"/>
</g>
</svg>
