 <svg id="target" viewBox="0 0 237 237" fill="none" xmlns="http://www.w3.org/2000/svg">

<path fill-rule="evenodd" clip-rule="evenodd" d="M0 1.86751e-05H20.6484C20.709 -0.0136532 0.136719 49.711 0.0683594 49.6465C0.0683594 49.5781 0.0214844 -0.0351376 0 1.86751e-05ZM36.4023 1.86751e-05H57.7539L57.7383 49.6719C57.752 49.8321 36.4023 1.86751e-05 36.4023 1.86751e-05ZM41.7773 50.2305C41.791 50.2559 28.3477 19.4766 28.2871 19.416C28.4219 19.3125 19.4258 40.168 19.3398 40.1426H28.8379C28.8145 40.1719 30.1172 43.3145 31.2656 46.0821C32.1641 48.25 32.9688 50.1875 32.9688 50.2305H41.7773Z" transform="translate(88.7324 92.5156)" fill="currentColor"/>
</svg>
