 <svg id="target" viewBox="0 0 237 237" fill="none" xmlns="http://www.w3.org/2000/svg">

<path fill-rule="evenodd" clip-rule="evenodd" d="M61.5205 53.0633C61.6113 52.8864 61.7475 52.7096 61.9292 52.5328C63.0643 51.7812 64.1542 51.2728 65.1986 51.0075C66.9241 50.5654 68.6042 50.3222 70.2389 50.278C70.693 50.2337 71.1243 50.2559 71.533 50.3443C73.5764 50.5212 74.8024 50.8528 75.2111 51.3391C75.3926 51.6043 75.4835 52.0023 75.4835 52.5328V52.9969C75.4835 54.5444 75.0522 56.3681 74.1894 58.4681C73.3266 60.5681 72.1233 62.2592 70.5794 63.5413C70.3523 63.7182 70.148 63.8066 69.9664 63.8066C69.8756 63.8066 69.7848 63.7845 69.6939 63.7403C69.4216 63.6076 69.3534 63.3644 69.4897 63.0108C71.1697 59.1645 72.0098 56.4898 72.0098 54.9866C72.0098 54.5001 71.9189 54.1465 71.7374 53.9254C71.2832 53.3949 70.0119 53.1296 67.9231 53.1296C67.1511 53.1296 66.2429 53.1738 65.1986 53.2623C64.0634 53.3949 63.019 53.5276 62.0654 53.6601C61.7929 53.6601 61.6113 53.6159 61.5205 53.5276C61.4296 53.4391 61.407 53.3507 61.4524 53.2623C61.4524 53.218 61.4751 53.1517 61.5205 53.0633ZM31.8535 30.7355C31.8535 32.4596 32.2963 33.8413 33.1818 34.8802C34.0672 35.9192 35.2592 36.4387 36.7576 36.4387C36.8938 36.4387 37.0868 36.4166 37.3366 36.3724C37.5864 36.3282 37.7566 36.3061 37.8474 36.3061C39.7545 35.8198 41.2303 34.626 42.2747 32.725C42.7742 31.8849 43.1488 30.9676 43.3986 29.9728C43.6483 28.9781 43.7845 28.1711 43.8072 27.5522C43.8299 26.9333 43.8414 25.9163 43.8414 24.5017V22.8438C41.2076 22.8438 39.2097 23.0206 37.8474 23.3743C33.8514 24.4796 31.8535 26.9333 31.8535 30.7355ZM20.4766 32.5616C20.4766 29.511 21.2485 26.9025 22.7924 24.7362C24.3363 22.5698 26.4478 20.934 29.127 19.8287C31.5789 18.8118 34.5986 18.0823 38.1858 17.6403C39.4118 17.5076 41.4097 17.3307 44.1797 17.1098V15.9823C44.1797 13.1528 43.8618 11.2518 43.2261 10.2791C42.2725 8.95277 40.774 8.2896 38.7307 8.2896H38.1858C36.6873 8.42223 35.3932 8.88645 34.3034 9.68226C33.2136 10.4781 32.5097 11.5834 32.1919 12.9981C32.0102 13.8823 31.5562 14.3908 30.8297 14.5233L22.9968 13.5949C22.2248 13.4181 21.8389 13.0202 21.8389 12.4012C21.8389 12.2686 21.8615 12.1139 21.9069 11.937C22.6789 8.00225 24.5747 5.08432 27.5943 3.18321C30.614 1.2821 34.1444 0.221044 38.1858 0H39.8887C45.0651 0 49.1065 1.30425 52.0126 3.91269C52.4684 4.35682 52.8896 4.83341 53.2727 5.33851C53.6586 5.84695 53.9651 6.3001 54.1922 6.698C54.4191 7.09589 54.6235 7.67067 54.8052 8.42223C54.9867 9.1738 55.123 9.69333 55.2138 9.98068C55.3046 10.268 55.3728 10.887 55.4182 11.8376C55.4636 12.7881 55.4863 13.3518 55.4863 13.5286V29.5773C55.4863 30.7267 55.6566 31.7769 55.9972 32.7273C56.3377 33.6779 56.6669 34.3632 56.9848 34.7831C57.3026 35.2031 57.8249 35.8774 58.5514 36.8059C58.8238 37.2037 58.96 37.5573 58.96 37.8669C58.96 38.2206 58.7783 38.53 58.4151 38.7953C54.6462 41.9785 52.6029 43.7028 52.2851 43.9681C51.7401 44.3659 51.0817 44.4102 50.3098 44.1006C49.6741 43.5701 49.1178 43.0617 48.641 42.5755C48.1643 42.089 47.8237 41.7354 47.6193 41.5143C47.4151 41.2934 47.0857 40.8623 46.6317 40.2211C46.1777 39.58 45.8597 39.149 45.6782 38.928C43.1353 41.6249 40.6379 43.3048 38.1858 43.9681C36.6419 44.4102 34.7348 44.6313 32.4644 44.6313C28.9678 44.6313 26.0959 43.5812 23.8481 41.4812C21.6004 39.3811 20.4766 36.4079 20.4766 32.5616ZM0.136223 51.6814C0.363237 51.3278 0.726488 51.3055 1.22602 51.6151C12.578 58.0257 24.9291 61.2309 38.2791 61.2309C47.179 61.2309 55.9655 59.6173 64.6386 56.3898C64.8655 56.3015 65.1947 56.1689 65.6262 55.992C66.0575 55.8151 66.364 55.6825 66.5456 55.594C67.2268 55.3288 67.7603 55.4615 68.1462 55.992C68.5322 56.5225 68.4073 57.0088 67.7716 57.451C66.9543 58.0257 65.91 58.6889 64.6386 59.4405C60.7334 61.6953 56.3742 63.4415 51.561 64.6794C46.7476 65.9174 42.048 66.5364 37.4617 66.5364C30.3781 66.5364 23.6803 65.3316 17.3686 62.922C11.0569 60.5126 5.40355 57.1193 0.408683 52.7424C0.136223 52.5214 0 52.3003 0 52.0792C0 51.9467 0.0453594 51.8141 0.136223 51.6814Z" transform="translate(80.7695 84.5195)" fill="currentColor"/>
</svg>
