 <svg id="target" viewBox="0 0 237 237" fill="none" xmlns="http://www.w3.org/2000/svg">

<path fill-rule="evenodd" clip-rule="evenodd" d="M7.64844 14.2754C13.5312 10.8398 29.2754 3.82031 32.8848 2.29492C31.5586 1.97266 30.3438 1.53711 29.1309 1.10156C28.0312 0.705078 26.9316 0.310547 25.7461 0C25.6953 0.0644531 25.0156 0.310547 23.8555 0.730469C19.7324 2.22266 9.54102 5.9082 0 11.4727C1.29297 11.9551 2.43359 12.3652 3.51953 12.7539C4.91406 13.2539 6.21875 13.7227 7.64844 14.2754ZM19.5332 19.4297C25.416 15.9941 41.2715 8.34766 44.8789 6.82227C43.4648 6.30078 41.7109 5.56836 40.0293 4.86328C38.7598 4.33398 37.5293 3.81836 36.5176 3.42578C36.4629 3.49609 35.6836 3.82617 34.3594 4.38477C30.1973 6.14258 20.6543 10.1738 11.377 15.584C13.8379 16.5742 16.2539 17.7871 18.7109 19.0176L19.5332 19.4297Z" transform="translate(71.668 103.938)" fill="currentColor"/>
<path opacity="0.5" fill-rule="evenodd" clip-rule="evenodd" d="M27.998 1.32227L27.625 1.20508C26.2832 0.78125 25.0098 0.378906 23.8477 0C23.3555 0.164062 22.3672 0.376953 21.2773 0.611328C19.6934 0.951172 17.8926 1.33789 17.0645 1.69336C17.1426 1.75391 17.5977 1.91602 18.5137 2.24219C21.0742 3.1543 27.2305 5.34766 38.748 10.1738C40.6777 9.36914 43.0117 8.8125 44.9395 8.35352L46.2539 8.03516C41.3242 5.51758 34.0195 3.2168 27.998 1.32227ZM59.9512 13.6055L60.127 13.541L60.2559 13.4922C61.4102 13.0645 62.252 12.752 62.7246 12.5508C61.2773 11.8984 59.9727 11.2578 58.6582 10.6133L58.6016 10.5859L58.4863 10.5293C56.8359 9.71484 55.1523 8.88672 53.1191 7.99609C31.3125 13.5918 16.1309 22.625 4.45898 29.5703C2.91406 30.4902 1.42969 31.373 0 32.207C2.9375 33.1621 7.74609 35.9414 10.7246 37.7676C30.9082 24.3496 52.0547 16.5254 59.9512 13.6055ZM74.4004 19.4863C70.791 21.0117 40.627 35.4258 25.9941 48.1641C24.7949 47.4609 22.9688 46.1973 21.0703 44.8828L21.0508 44.8691L21.0098 44.8418C18.6895 43.2344 16.2754 41.5645 14.7891 40.7695C16.1797 39.873 17.6133 38.9297 19.1016 37.9492C30.1816 30.6543 44.3047 21.3555 65.8418 14.8477C68.8301 16.1582 70.5977 17.2148 72.7305 18.4941L73.0625 18.6914L74.4004 19.4863ZM34.8867 11.9277C28.7461 8.79297 19.3398 5.52539 12.9023 3.42578C11.6973 3.82812 7.08594 5.38281 5.6875 5.98242C5.76562 6.04297 6.27148 6.22461 7.26562 6.58008C10.0098 7.5625 16.4766 9.87891 27.9531 14.6895C28.8457 14.3184 29.7773 13.9844 30.6973 13.6543C32.2051 13.1152 33.6777 12.5879 34.8867 11.9277Z" transform="translate(92.1445 94.8008)" fill="currentColor"/>
</svg>
