 <svg id="target" viewBox="0 0 237 237" fill="none" xmlns="http://www.w3.org/2000/svg">

<path fill-rule="evenodd" clip-rule="evenodd" d="M113.412 3.96065C105.463 -4.82451 54.2853 3.07002 32.5197 7.82393L32.0197 7.93525C31.9083 7.9626 31.8517 8.04658 31.8517 8.15791C31.879 8.26924 31.963 8.32393 32.0743 8.32393L32.5743 8.2126C50.588 5.01533 88.088 0.568067 96.1779 8.57393C98.6525 11.0212 98.0392 14.1618 95.2052 17.8591C96.7345 18.8591 97.8458 20.4157 98.3458 22.363C109.465 14.9411 116.943 7.87861 113.412 3.96065ZM14.0587 27.5036C12.4747 27.8083 11.6134 27.9489 10.0568 27.9489C7.75013 27.9489 5.91419 26.8083 5.99818 24.695C6.08216 23.3063 7.72083 20.3317 11.9474 20.3317C13.2814 20.3317 14.3087 20.5544 15.6993 21.3591L16.3107 17.9411C14.4201 17.2185 13.1701 17.1071 11.5294 17.1345C5.99818 17.1892 0.687631 19.6911 0.0489592 24.8063C-0.61901 30.0056 5.72083 31.3122 8.52747 31.2829C10.1408 31.2829 11.8361 31.2009 13.4201 31.0622L14.0587 27.5036ZM90.7267 17.1325C84.7208 17.1325 80.5802 22.4978 80.7736 27.779C80.9142 31.8649 83.5548 34.5349 87.5568 34.5349C93.84 34.5349 97.7033 29.447 97.5079 23.8884C97.3693 19.8005 94.7286 17.1325 90.7267 17.1325ZM88.8009 34.0075C86.2443 34.0075 84.299 31.4782 84.1876 28.3923C84.047 24.3063 86.7716 18.2731 91.0529 18.2731C93.5822 18.2731 95.5841 20.8024 95.6954 23.8884C95.8341 27.947 93.7501 34.0075 88.8009 34.0075ZM23.7736 27.4099C23.5509 27.4938 23.2736 27.5778 22.9396 27.6325C22.6076 27.7165 21.9669 27.8259 21.0783 27.9665C20.4669 28.0778 20.0216 28.1892 19.7716 28.3825C19.5216 28.5505 19.3829 28.7712 19.3536 29.0231C19.299 29.3005 19.3829 29.5231 19.6329 29.6892C19.8829 29.8552 20.2716 29.9392 20.8283 29.9392C21.2443 29.9392 21.6622 29.8845 22.0783 29.7458C22.4962 29.6052 22.8302 29.4392 23.1076 29.2165C23.3009 29.0505 23.4415 28.8278 23.5529 28.5778C23.5607 28.5036 23.5802 28.4021 23.6056 28.2751L23.6154 28.2243L23.6271 28.1657L23.6544 28.029L23.7736 27.4099ZM29.3693 25.2438L29.3751 25.2048C29.4494 24.7399 29.5021 24.3962 29.5236 24.0349C29.5529 22.7009 28.3849 21.6716 24.7697 21.6989C22.4904 21.6989 20.2951 21.9216 17.9884 22.2556L17.0431 24.8415C18.7931 24.3962 22.213 23.8122 24.0197 24.1735C24.715 24.3122 24.8536 24.6188 24.7697 25.1188C24.715 25.3962 24.6036 25.5368 24.2423 25.6755L24.1994 25.6892C23.9318 25.7771 23.3908 25.9567 22.5744 26.0368C20.9064 26.1755 19.6564 26.3142 18.7658 26.4528C17.8771 26.5915 17.2638 26.7595 16.7365 27.0095C16.2365 27.2595 15.7638 27.5368 15.4025 27.9548C15.0411 28.3708 14.8185 28.9548 14.7911 29.4274C14.7638 30.2341 15.0685 30.6228 15.7365 31.2067C16.3751 31.7634 17.2931 31.9294 18.9337 31.9294C19.9064 31.9294 20.5451 31.8181 21.3517 31.6247C22.1583 31.4021 23.047 31.0407 23.7697 30.5954L23.8263 31.8454H28.8849L28.9122 31.6521C28.4962 31.4021 28.3283 31.0681 28.4122 30.6228L29.3009 25.6755L29.3693 25.2438ZM44.3654 31.5974L46.1173 21.7009H50.9533L49.2033 31.5974H44.3654ZM49.5216 18.2731C48.0763 18.2731 46.797 18.9411 46.6583 19.7458C46.4904 20.5524 47.547 21.2204 48.9923 21.2204C50.4103 21.2204 51.7169 20.5524 51.8556 19.7458C51.9962 18.9411 50.9669 18.2731 49.5216 18.2731ZM68.1681 27.4099C67.9454 27.4938 67.6661 27.5759 67.3341 27.6325C67.0001 27.7165 66.3595 27.8259 65.4435 27.9665C64.8322 28.0759 64.3868 28.1892 64.1368 28.3825C63.9142 28.5505 63.7755 28.7712 63.7189 29.0231C63.6642 29.3005 63.7755 29.5231 63.9982 29.6892C64.2482 29.8552 64.6368 29.9392 65.2208 29.9392C65.6368 29.9392 66.0548 29.8845 66.4708 29.7438C66.8888 29.6052 67.2228 29.4392 67.5001 29.2165C67.6935 29.0505 67.8341 28.8278 67.9161 28.5778C67.9728 28.3825 68.0568 27.9938 68.1681 27.4099ZM72.4747 25.7595C72.6134 25.0368 72.6974 24.5915 72.7247 24.1188C72.7521 22.7849 71.5861 21.7575 67.9982 21.7009C65.6915 21.7009 63.5509 21.9235 61.2169 22.2575L60.2716 24.8415C62.0216 24.3981 65.4142 23.8142 67.2482 24.1755C67.9161 24.3142 68.0822 24.6188 67.9982 25.1208C67.9435 25.4255 67.8048 25.5661 67.4435 25.7048L67.3771 25.7263C67.1056 25.8181 66.5939 25.9899 65.8029 26.0661C64.1349 26.2048 62.8849 26.3435 61.9943 26.4821C61.1056 26.6501 60.4943 26.8161 59.965 27.0661C59.465 27.3161 58.9923 27.5954 58.631 28.0114C58.2697 28.4274 58.047 29.0114 58.0197 29.4841C57.9923 30.2907 58.297 30.6794 58.965 31.2634C59.6036 31.82 60.5216 31.986 62.1622 31.986C63.1349 31.986 63.7736 31.904 64.5802 31.6813C65.3576 31.4587 66.2482 31.0974 66.9982 30.6521L67.0255 31.904H72.0861L72.1134 31.736C71.6954 31.486 71.5294 31.1521 71.6134 30.7087L72.4747 25.7595ZM53.7775 19.3845L53.4435 21.3864V21.4138H51.5529L51.1915 23.4157H53.0255L51.5802 31.3396C51.6095 31.3103 56.4728 31.3396 56.4728 31.3396L57.9181 23.3884H60.3107L60.7814 21.3864H58.3087L58.8361 18.2731L53.7775 19.3845ZM77.754 30.9196H72.8068L75.2814 17.1325L80.09 17.2712L77.754 30.9196ZM36.2736 24.5681C36.8009 24.1794 37.3576 23.9841 37.9962 23.9841C38.6368 23.9841 39.1076 24.1794 39.4689 24.5954C39.8322 24.986 39.9415 25.57 39.8029 26.3474C39.7208 26.8474 39.5529 27.2653 39.2755 27.654C39.0255 28.0153 38.7462 28.238 38.3302 28.4606C37.9962 28.6267 37.5529 28.7106 37.1076 28.7106C36.4396 28.7106 35.9396 28.5153 35.6056 28.1267C35.2716 27.738 35.1896 27.1247 35.3283 26.2634C35.4396 25.5134 35.7736 24.9567 36.2736 24.5681ZM28.4376 35.0974L30.8009 21.8376H35.0529L34.7208 23.5349C35.0822 23.0329 35.6642 22.6169 36.4982 22.2829C37.3048 21.9489 38.2501 21.6989 39.2501 21.6989C40.3634 21.6989 41.0294 21.7536 41.8634 22.1989C42.6974 22.6442 43.254 23.2556 43.588 24.0896C43.8927 24.8962 43.9767 25.7849 43.8107 26.7868C43.5314 28.4255 42.7267 29.7048 41.4201 30.6501C40.1134 31.5954 38.9454 31.8454 37.3048 31.8454C36.7208 31.8454 36.2208 31.7907 35.8048 31.6794C35.4142 31.5681 35.0822 31.4567 34.8302 31.2888C34.6095 31.1228 34.3595 30.9274 34.0255 30.5661L33.2462 35.0974H28.4376ZM115.93 23.986C116.764 23.986 117.154 24.5153 117.182 25.32C117.229 27.1696 115.393 28.861 112.85 29.3161C112.379 29.3728 111.914 29.4196 111.483 29.4353C111.844 27.8786 113.957 23.986 115.93 23.986ZM109.33 31.947C108.475 33.3122 107.483 34.6286 106.143 34.6286C105.393 34.6286 104.865 34.2399 104.838 33.406C104.809 32.8493 105.004 32.072 105.254 31.2087L106.365 27.3728C106.506 26.9841 106.895 25.5935 106.867 24.9821C106.838 24.5661 106.615 24.3708 106.254 24.3708C105.477 24.3708 104.197 25.5095 100.861 28.9567L99.7775 34.2106H97.8322C98.1095 33.072 98.4435 31.654 98.7501 30.2907L99.5001 26.9548C99.5841 26.6228 99.9454 25.1208 99.9454 24.8981C99.9454 24.5368 99.6115 24.4821 99.2501 24.4821C99.0275 24.4821 98.4708 24.5368 98.1388 24.5935L98.1095 24.0368C99.2228 23.8142 100.973 23.3142 102.225 22.8688C102.033 23.4626 101.86 24.2653 101.676 25.1071L101.502 25.9001L101.057 27.9001H101.111C104.699 23.7595 106.395 22.8415 107.672 22.8415C108.424 22.8415 108.924 23.2302 108.951 24.0642C108.979 24.5095 108.813 25.2868 108.479 26.5388L107.256 31.0427C107.117 31.486 106.922 32.154 106.949 32.5993C106.949 32.9606 107.145 33.0993 107.367 33.0993C108.033 33.0993 108.867 31.82 109.229 31.236C109.223 31.1599 109.211 31.0915 109.211 31.0134C109.072 26.7888 113.02 22.8415 116.272 22.8415C117.66 22.8415 118.967 23.4528 119.024 24.9548C119.117 27.7927 115.77 28.9685 112.85 29.3161C112.412 29.3942 111.955 29.4353 111.483 29.4353L111.295 29.4294C111.184 29.7907 111.156 30.1247 111.184 30.6813C111.24 32.07 112.074 33.2653 113.824 33.2653C115.326 33.2106 116.828 32.0153 117.606 30.82L117.994 31.07C117.022 33.0427 115.049 34.6286 112.74 34.6286C111.117 34.6286 109.738 33.7048 109.33 31.947ZM62.9005 42.1228C69.3224 38.1735 75.299 34.4216 80.3595 30.8356C80.5529 31.5036 80.8595 32.1423 81.2208 32.7263L81.1681 32.7478C81.1447 32.7575 81.1271 32.7634 81.1095 32.781C74.8263 36.2556 68.5451 39.6481 63.0958 42.4841L62.8732 42.5935C62.7618 42.6501 62.6505 42.6228 62.5958 42.5388C62.5392 42.4274 62.5685 42.3161 62.6505 42.2614L62.9005 42.1228Z" transform="translate(59.1543 97.0859)" fill="currentColor"/>
</svg>
