 <svg id="target" viewBox="0 0 237 237" fill="none" xmlns="http://www.w3.org/2000/svg">

<path fill-rule="evenodd" clip-rule="evenodd" d="M50.8008 5.29034e-07C60.8809 -0.0019526 70.3184 5.4043 75.4277 13.0703H68.3867C63.5723 8.11524 57.2402 5.41602 50.8008 5.41797C44.2441 5.42188 38.0195 8.11524 33.209 13.0703H26.1641C31.4395 5.24805 40.875 0.00390678 50.8008 5.29034e-07ZM55.0195 43.332C56.3887 43.332 57.9141 42.8281 59.5449 41.8379L59.9043 41.6133L58.4238 47.3789L58.3652 47.418C57.3594 48.0332 55.6953 48.8496 52.9297 48.7949C48.8633 48.7148 46.1328 45.5684 46.1328 40.9688V24.0879H40.9531V18.4551H46.1328V12.3633L52.1484 9.13672V18.4551H58.3789V24.0879H52.1484V39.957C52.1484 42.2891 53.0352 43.332 55.0195 43.332ZM22.877 38.7207L22.7461 38.8594C20.5879 41.0703 18.0762 42.2402 15.4902 42.2402C10.0957 42.2402 6.18359 38.1895 6.18359 32.6094C6.18359 27.0352 10.0957 22.9844 15.4902 22.9844C18.0762 22.9844 20.5879 24.1543 22.7461 26.3691L22.877 26.5059L26.3574 22.3086L26.2617 22.1992C23.377 18.7891 19.9121 17.1328 15.6602 17.1328C11.3965 17.1328 7.48438 18.5605 4.66992 21.1543C1.61523 23.9648 0 27.9258 0 32.6094C0 37.3008 1.61523 41.2598 4.66992 44.0703C7.48438 46.6719 11.3965 48.1016 15.6602 48.1016C19.9121 48.1016 23.377 46.4414 26.2617 43.0312L26.3574 42.916L22.877 38.7207ZM29.5781 48.1914H35.7051V18.2754H29.5781V48.1914ZM64.8418 48.1914H70.9688V18.2754H64.8418V48.1914Z" transform="translate(80.7695 94.8008)" fill="currentColor"/>
</svg>
