 <svg id="target" viewBox="0 0 237 237" fill="none" xmlns="http://www.w3.org/2000/svg">

<path fill-rule="evenodd" clip-rule="evenodd" d="M28.4395 22.6387C28.4395 10.1367 38.5742 0 51.0781 0C63.582 0 73.7168 10.1367 73.7168 22.6387C73.7168 35.1426 63.5801 45.2773 51.0781 45.2773C38.5762 45.2773 28.4395 35.1426 28.4395 22.6387ZM70.5156 22.7578C70.5156 33.4336 61.8594 42.0879 51.1836 42.0879C40.5098 42.0879 31.8535 33.4336 31.8535 22.7578C31.8535 12.082 40.5078 3.42578 51.1836 3.42578C61.8594 3.42578 70.5156 12.082 70.5156 22.7578ZM54.3203 19L51.1152 9.13672L47.9102 19H37.541L45.9297 25.0938L42.7266 34.957L51.1152 28.8613L59.5059 34.957L56.3008 25.0938L64.6914 19H54.3203ZM0 54.9512C0 53.6191 1.08008 52.5391 2.41211 52.5391H8.59961V54.8164H2.49219V62.0508H8.59961V64.3281H2.41211C1.08008 64.3281 0 63.248 0 61.916V54.9512ZM27.3965 52.5391H32.8906C34.2207 52.5391 35.3008 53.6191 35.3008 54.9512V64.3281H32.8105V54.8164H28.6582V64.3281H26.166V52.5391H27.3965ZM54.7422 64.3281H60.5273V62.0508H54.8223V59.7207H60.5273V57.4414H54.8223V54.8164H60.5273V52.5391H54.7422C53.4102 52.5391 52.3301 53.6191 52.3301 54.9512V61.916C52.3301 63.248 53.4102 64.3281 54.7422 64.3281ZM86.9062 54.8164V52.5391H81.123C79.791 52.5391 78.7109 53.6191 78.7109 54.9512V57.2559C78.7109 58.5859 79.791 59.666 81.123 59.666H85.041V62.0508H78.4941V64.3281H85.1211C86.4531 64.3281 87.5332 63.248 87.5332 61.916V59.7988C87.5332 58.4688 86.4531 57.3887 85.1211 57.3887H81.2031V54.8164H86.9062ZM102.461 55.2734H102.633V54.5879H102.896L103.328 55.2734H103.594L103.137 54.5703C103.361 54.5469 103.535 54.4375 103.555 54.1875H103.781C104 54.1875 104.199 54.1777 104.199 53.9258C104.463 54.1348 104.631 54.4531 104.631 54.8359C104.631 55.5039 104.141 56.0059 103.51 56.0059C103.021 56.0059 102.621 55.7109 102.461 55.2734ZM102.404 55.2734H102.461C102.422 55.1699 102.396 55.0566 102.389 54.9375C102.43 54.3613 102.822 53.9062 103.344 53.7461C103.428 53.7871 103.488 53.8496 103.521 53.9336V54.1875H103.555L103.557 54.1387C103.557 54.0605 103.545 53.9922 103.521 53.9336V53.7012L103.629 53.6875C103.844 53.7109 104.039 53.8008 104.199 53.9258C104.199 53.8066 104.143 53.7441 104.062 53.7129C104.664 53.8477 105.125 54.375 105.125 55.0371C105.125 55.8203 104.5 56.4082 103.758 56.4082C103.09 56.4082 102.516 55.9355 102.404 55.2734ZM102.404 55.2734H102.387V55.1133C102.387 55.168 102.395 55.2207 102.404 55.2734ZM103.758 53.6816H103.85C103.924 53.6816 104 53.6875 104.062 53.7129C103.965 53.6914 103.861 53.6816 103.758 53.6816ZM103.521 53.6816H103.758L103.629 53.6875L103.521 53.6816ZM103.252 53.7109C103.182 53.6914 103.098 53.6816 103 53.6816H102.385L102.387 54.7773C102.41 54.2441 102.758 53.8223 103.252 53.7109ZM103.252 53.7109C103.336 53.6914 103.43 53.6816 103.521 53.6816V53.7012C103.461 53.7109 103.4 53.7285 103.344 53.7461L103.252 53.7109ZM99.2031 64.3281H93.4199C92.0879 64.3281 91.0078 63.248 91.0078 61.916V54.9512C91.0078 53.6191 92.0879 52.5391 93.4199 52.5391H99.2031V54.8164H93.5V57.4414H99.2031V59.7207H93.5V62.0508H99.2031V64.3281ZM71.5371 57.4492H67.1191V54.8242H71.5371V57.4492ZM74.2461 55.2734V57.3086C74.2461 58.5273 73.3379 59.5547 72.127 59.7031L74.4648 64.3281H71.6582L69.6211 59.7207H67.3359V64.3281H64.8438V52.5391H71.834C73.1641 52.5391 74.2441 53.6191 74.2441 54.9512L74.2461 55.2734ZM44.252 62.3457L41.4648 52.5391H38.6797L42.3223 64.3281H46.2344L50.0391 52.5391H47.1992L44.252 62.3457ZM14.9258 52.5391C13.5938 52.5391 12.5137 53.6191 12.5137 54.9512V61.916C12.5137 63.248 13.5938 64.3281 14.9258 64.3281H20.0684C21.4004 64.3281 22.4805 63.248 22.4805 61.916V54.9512C22.4805 53.6191 21.4004 52.5391 20.0684 52.5391H14.9258ZM14.7891 54.8242H19.7715V62.0586H14.7891V54.8242Z" transform="translate(67.1172 86.8047)" fill="currentColor"/>
</svg>
