 <svg id="target" viewBox="0 0 237 237" fill="none" xmlns="http://www.w3.org/2000/svg">

<path fill-rule="evenodd" clip-rule="evenodd" d="M68.2559 9.13672H73.7948L81.8963 25.2896L90.0146 9.13672H95.022L80.3655 37.9322H75.0098L79.2514 29.9305L68.2559 9.13672ZM4.55078 17.4604C4.55078 17.4604 4.88985 11.4237 11.7024 11.4219C18.49 11.42 18.49 17.4604 18.49 17.4604H4.55078ZM12.2477 7.99609C0.403954 7.9939 -0.0561883 17.2139 0.0041642 19.6072C0.0041642 19.6072 -0.575951 30.3865 11.958 30.3865C22.7278 30.3865 23.2582 23.623 23.2582 23.623L18.303 23.6329C18.303 23.6329 17.3381 27.359 11.9785 27.2591C5.08804 27.1311 4.82066 20.4558 4.82066 20.4558H23.9092C23.9092 20.4558 25.3577 7.99865 12.2477 7.99609ZM35.8392 27.3702C28.3185 27.4645 28.4407 19.3938 28.4407 19.3938C28.4407 19.3938 28.1667 11.6251 35.8271 11.4254C43.4867 11.2257 43.2376 19.5595 43.2376 19.5595C43.2376 19.5595 43.3598 27.2754 35.8392 27.3702ZM37.3085 8.38424C31.3534 8.35096 28.7915 11.9107 28.7915 11.9107V0H24.0171L24.0979 25.1728C24.0979 25.1728 24.0694 28.1049 23.8887 30.0427H28.5256L28.7246 27.215C28.7246 27.215 30.8877 30.7746 37.2083 30.7746C43.5299 30.7746 48.5209 26.8821 48.654 19.6625C48.7868 12.4432 43.2644 8.41716 37.3085 8.38424ZM58.5409 27.0735C58.5409 27.0735 53.7559 27.0793 53.4753 23.2563C53.1761 19.1761 60.8369 19.4215 60.8369 19.4215L66.2489 19.416C66.2489 19.416 67.1252 27.1861 58.5409 27.0735ZM70.2807 24.7865C70.2924 21.5304 70.3879 18.6229 70.2807 16.572C70.1553 14.1941 70.3806 8.45479 60.0998 8.03086C60.0998 8.03086 50.2433 7.13252 49.2199 14.4685H54.261C54.261 14.4685 54.6524 11.1074 59.7673 11.2043C64.608 11.2957 65.4898 13.67 65.465 16.5896C65.465 16.5896 61.316 16.6013 59.9316 16.6082C57.4363 16.6207 48.7042 16.8972 47.8892 22.2159C46.9196 28.5401 52.5642 30.5131 56.9805 30.4878C61.3972 30.463 63.917 29.1407 65.7887 26.7701L65.9888 29.7142L70.3806 29.6894C70.3806 29.6894 70.2672 28.043 70.2807 24.7865Z" transform="translate(71.668 98.2266)" fill="currentColor"/>
</svg>
