 <svg id="target" viewBox="0 0 237 237" fill="none" xmlns="http://www.w3.org/2000/svg">

<path fill-rule="evenodd" clip-rule="evenodd" d="M69.1523 5.67578V0H67.8359V3.29102C67.3633 2.68555 66.6289 2.3418 65.8594 2.36914C64.043 2.36914 62.5684 3.84375 62.5684 5.66211C62.5684 7.48047 64.043 8.95312 65.8594 8.95312C66.6289 8.98242 67.3633 8.63867 67.8359 8.03125V8.79492H69.1523V5.67578ZM27.6602 3.05078H29.9121L29.9258 4.30273H27.6875V7.17383C27.6875 7.80469 27.9375 8.22656 28.5957 8.22656C29.0234 8.21289 29.4395 8.08984 29.8066 7.87109L30.2012 9.04297C29.6895 9.36328 29.0957 9.53125 28.4902 9.5293C26.8711 9.5293 26.3047 8.66016 26.3047 7.19922V4.30273H25.0273V3.05078H26.2773V1.14258H27.6602V3.05078ZM9.98047 4.79297V8.74219L8.59766 8.76758V5.26562C8.59766 4.19922 8.15039 3.60742 7.21484 3.60742C6.77734 3.58594 6.35156 3.75977 6.05469 4.08203C5.75586 4.40625 5.61719 4.84375 5.67578 5.2793V8.76758H4.29297V5.26562C4.29297 4.19922 3.83203 3.60742 2.92383 3.60742C2.48438 3.58398 2.05664 3.75781 1.75977 4.08008C1.46094 4.4043 1.32227 4.84375 1.38281 5.2793V8.74219H0V2.44922H1.36914V3.22461C1.77539 2.60938 2.47656 2.25391 3.21289 2.29102C4.05859 2.25391 4.85742 2.68359 5.29297 3.41016C5.77148 2.66211 6.61914 2.23242 7.50586 2.29102C8.17773 2.25 8.83398 2.50195 9.30859 2.98242C9.78125 3.46094 10.0273 4.11914 9.98047 4.79297ZM41.6934 2.31055C41.0137 2.29102 40.377 2.64453 40.0332 3.23242V2.46875H38.6777V8.76367H40.0469V5.23438C40.0469 4.19336 40.4941 3.61523 41.3633 3.61523C41.6562 3.61133 41.9473 3.66406 42.2188 3.77344L42.6406 2.45703C42.3281 2.34375 41.998 2.28711 41.666 2.28516L41.6934 2.31055ZM22.2227 2.28711C23.125 2.25781 24.0156 2.48633 24.791 2.94531L24.1855 4.05273C23.584 3.70703 22.9043 3.51953 22.2109 3.51172C21.459 3.51172 21.0117 3.82812 21.0117 4.25C21.0117 4.67188 21.4863 4.78906 22.0781 4.86914L22.7363 4.96094C24.1055 5.1582 24.9355 5.64453 24.9355 6.84375C24.9355 8.04102 23.8828 8.89844 22.0645 8.89844C21.0938 8.92383 20.1367 8.63867 19.3398 8.08203L19.998 7.01562C20.6016 7.46289 21.3398 7.69531 22.0918 7.67383C23.0273 7.67383 23.5273 7.39648 23.5273 6.91016C23.5273 6.55469 23.1719 6.35547 22.4199 6.25195L21.7617 6.1582C20.3535 5.96094 19.5898 5.33008 19.5898 4.30273C19.5898 3.05078 20.6309 2.28711 22.2227 2.28711ZM61.0332 2.31055C60.3535 2.29102 59.7168 2.64453 59.373 3.23242V2.46875H58.0176V8.76367H59.3867V5.23438C59.3867 4.19336 59.834 3.61523 60.7031 3.61523C60.9961 3.61133 61.2871 3.66406 61.5586 3.77344L61.9805 2.45703C61.668 2.34375 61.3379 2.28711 61.0059 2.28516L61.0332 2.31055ZM44.1816 7.99609C43.543 7.36914 43.1973 6.50195 43.2305 5.60742V5.58203C43.1973 4.6875 43.543 3.82031 44.1816 3.19531C44.8203 2.56836 45.6953 2.24023 46.5879 2.29102C47.4102 2.24805 48.2188 2.51562 48.8535 3.04102L48.1953 4.14648C47.7207 3.78516 47.1445 3.58789 46.5488 3.58008C45.5 3.66602 44.6914 4.54297 44.6914 5.5957C44.6914 6.64844 45.5 7.52539 46.5488 7.60938C47.1445 7.60352 47.7207 7.4043 48.1953 7.04297L48.8535 8.15039C48.2188 8.67383 47.4102 8.94141 46.5879 8.90039C45.6953 8.95117 44.8203 8.62305 44.1816 7.99609ZM56.6914 5.57812V2.44531H55.3223V3.20898C54.8496 2.60156 54.1152 2.25781 53.3457 2.28711C51.5293 2.28711 50.0547 3.75977 50.0547 5.57812C50.0547 7.39648 51.5293 8.87109 53.3457 8.87109C54.1152 8.89844 54.8496 8.55469 55.3223 7.94922V8.71289H56.6914V5.57812ZM53.166 3.42773C52.1328 3.38867 51.2559 4.18359 51.1953 5.2168C51.1602 5.74219 51.3477 6.25977 51.709 6.64062C52.0723 7.02344 52.5781 7.23828 53.1055 7.23047C54.1406 7.22461 54.9805 6.39453 54.998 5.35938C55.0137 4.32422 54.2012 3.4668 53.166 3.42773ZM35.0996 2.28516C33.2812 2.31055 31.8281 3.80469 31.8535 5.62305C31.8789 7.44141 33.373 8.89453 35.1914 8.86914C36.1387 8.91797 37.0703 8.61133 37.8047 8.01172L37.1465 6.99805C36.627 7.41602 35.9824 7.64648 35.3164 7.65625C34.375 7.73828 33.541 7.05469 33.4336 6.11719H38.1074V5.58984C38.1074 3.61523 36.8828 2.29883 35.1191 2.29883L35.0996 2.28516ZM35.8008 3.85938C35.5039 3.57422 35.1035 3.41797 34.6895 3.42578H34.6621C33.7832 3.39648 33.0391 4.07422 32.9902 4.95312H36.2812C36.2734 4.54102 36.0996 4.14648 35.8008 3.85938ZM71.4238 8.04297C71.3496 8.01367 71.2734 7.99609 71.1934 7.99609H71.1738L71.082 8.00195L71.0078 7.99609C70.9707 7.99609 70.9336 8 70.8984 8.00781C70.8691 8 70.8398 7.99609 70.8086 7.99609L70.5312 8.00391V8.44531C70.5371 8.33594 70.5801 8.22852 70.6602 8.14062C70.7051 8.0957 70.7578 8.06055 70.8164 8.03516L70.8984 8.00781L70.9531 8.03125L70.9238 8.04297C70.8477 8.07422 70.7793 8.11914 70.7188 8.17383C70.6621 8.23047 70.6152 8.29883 70.582 8.37109C70.5586 8.42578 70.543 8.48047 70.5352 8.53711L70.5332 8.55469L70.5312 8.58203C70.5254 8.67578 70.543 8.77148 70.582 8.85938C70.6875 9.08984 70.9199 9.23828 71.1738 9.24023C71.2598 9.24023 71.3457 9.22266 71.4238 9.1875C71.5 9.1582 71.5684 9.11328 71.6289 9.05664C71.6855 9 71.7324 8.93359 71.7656 8.85938C71.834 8.70312 71.834 8.52734 71.7656 8.37109C71.7324 8.29883 71.6855 8.23047 71.6289 8.17383C71.5684 8.11914 71.5 8.07422 71.4238 8.04297ZM70.5312 8.58203H70.6562V8.36523H70.7168L70.8945 8.58203H71.0449L70.8535 8.36523C70.9062 8.36133 70.9551 8.33984 70.9922 8.30664C71.0234 8.27539 71.041 8.23242 71.0391 8.1875C71.043 8.13477 71.0215 8.08203 70.9805 8.04883L70.9531 8.03125C70.9941 8.01758 71.0371 8.00781 71.082 8.00195C71.123 8.00781 71.1621 8.01953 71.1992 8.03516C71.2559 8.06055 71.3066 8.0957 71.3496 8.14062C71.5215 8.32812 71.5215 8.61328 71.3496 8.79883C71.3066 8.84375 71.2559 8.87891 71.1992 8.9043C71.1387 8.93164 71.0742 8.94531 71.0273 8.94336C70.9551 8.94727 70.8828 8.93359 70.8164 8.9043C70.7578 8.88086 70.7051 8.84375 70.6602 8.79883C70.6016 8.73438 70.5508 8.66016 70.5312 8.58203ZM71.668 7.99609V8.1543H71.8125C71.8379 8.16211 71.8672 8.16211 71.8926 8.1543C71.9023 8.13477 71.9023 8.11328 71.8926 8.0957C71.9023 8.07617 71.9023 8.05469 71.8926 8.03516C71.8672 8.02734 71.8379 8.02734 71.8125 8.03516L71.668 7.99609ZM65.6797 3.42773C64.6465 3.38867 63.7695 4.18359 63.709 5.2168C63.6738 5.74219 63.8613 6.25977 64.2227 6.64062C64.5859 7.02344 65.0918 7.23828 65.6191 7.23047C66.6543 7.22461 67.4941 6.39453 67.5117 5.35938C67.5273 4.32422 66.7148 3.4668 65.6797 3.42773ZM18.0137 5.5918V2.44531H16.6445V3.20898C16.1719 2.60156 15.4375 2.25781 14.668 2.28711C12.8516 2.28711 11.377 3.75977 11.377 5.57812C11.377 7.39648 12.8516 8.87109 14.668 8.87109C15.4375 8.89844 16.1719 8.55469 16.6445 7.94922V8.71289H18.0137V5.5918ZM14.502 3.42773C13.4668 3.38867 12.5918 4.18359 12.5312 5.2168C12.4824 5.74414 12.6699 6.26367 13.0371 6.64648C13.4023 7.0293 13.9102 7.24219 14.4395 7.23047C15.4746 7.22461 16.3164 6.39453 16.332 5.35938C16.3496 4.32422 15.5352 3.4668 14.502 3.42773Z" transform="translate(85.3203 138.203)" fill="currentColor"/>
<path fill-rule="evenodd" clip-rule="evenodd" d="M22.4656 44.9313C34.873 44.9313 44.9313 34.8731 44.9313 22.4656C44.9313 10.0582 34.873 0 22.4656 0C10.0582 0 0 10.0582 0 22.4656C0 34.8731 10.0582 44.9313 22.4656 44.9313Z" transform="translate(80.7695 89.0898)" fill="currentColor"/>
<path opacity="0.5" fill-rule="evenodd" clip-rule="evenodd" d="M22.4656 44.9313C34.873 44.9313 44.9313 34.8731 44.9313 22.4656C44.9313 10.0582 34.873 0 22.4656 0C10.0582 0 0 10.0582 0 22.4656C0 34.8731 10.0582 44.9313 22.4656 44.9313Z" transform="translate(111.484 89.0898)" fill="currentColor"/>
</svg>
