 <svg id="target" viewBox="0 0 237 237" fill="none" xmlns="http://www.w3.org/2000/svg">

<path fill-rule="evenodd" clip-rule="evenodd" d="M0 31.5996C0 49.0508 14.1484 63.1992 31.5996 63.1992C49.0527 63.1992 63.1992 49.0508 63.1992 31.5996C63.1992 14.1484 49.0527 0 31.5996 0C14.1484 0 0 14.1484 0 31.5996ZM5.6875 47.168L31.3438 36.5488L57.1074 47.0039C51.7578 56.1133 41.9902 61.7109 31.4531 61.7383C20.8887 61.793 11.0918 56.25 5.6875 47.168ZM27.7188 29.3672L31.8066 2.28516C21.2715 2.42188 11.5566 8.10156 6.28906 17.2402C0.992188 26.377 0.9375 37.627 6.125 46.8184L27.7188 29.3672ZM57.5918 46.627L35.75 29.7246L31.8535 2.28516C42.3633 2.44922 51.9941 8.10156 57.2617 17.1855C62.5586 26.2676 62.668 37.4355 57.5918 46.627Z" transform="translate(86.457 86.8047)" fill="currentColor"/>
</svg>
