 <svg id="target" viewBox="0 0 237 237" fill="none" xmlns="http://www.w3.org/2000/svg">

<path fill-rule="evenodd" clip-rule="evenodd" d="M24.8027 0C25.9238 0 26.8438 0.912109 26.8438 2.03516V23.6855C26.8438 24.8125 25.9238 25.7227 24.8027 25.7227C23.6719 25.7227 22.752 24.8125 22.752 23.6855V2.03516C22.752 0.912109 23.6719 0 24.8027 0ZM15.4609 10.0312C15.4609 8.91016 14.541 7.99609 13.4199 7.99609C12.2949 7.99609 11.377 8.91016 11.377 10.0312V19.9277C11.377 21.0586 12.2949 21.9727 13.4199 21.9727C14.541 21.9727 15.4609 21.0586 15.4609 19.9277V10.0312ZM2.04297 13.707C3.16602 13.707 4.08398 14.6191 4.08398 15.7383V20.0195C4.08398 21.1504 3.16602 22.0645 2.04297 22.0645C0.917969 22.0645 0 21.1504 0 20.0195V15.7383C0 14.6191 0.917969 13.707 2.04297 13.707ZM20.3633 38.0645L20.3984 38.084V33.707L20.3262 33.6855C19.8516 33.541 18.4727 33.123 16.6406 33.123C11.6387 33.123 7.96289 36.6914 7.96289 41.5605C7.96289 46.8145 12.0195 50.0059 16.6406 50.0059C18.3457 50.0059 19.6758 49.6309 20.2715 49.4609L20.3984 49.4258V45.0469L20.3789 45.0586C20.1328 45.1914 18.8164 45.9141 16.9395 45.9141C14.1973 45.9141 12.4297 43.9824 12.4297 41.5605C12.4297 39.0645 14.2754 37.2109 16.9395 37.2109C18.8086 37.2109 20.0938 37.916 20.3633 38.0645ZM26.1641 49.4258H30.2793V33.123H26.1641V49.4258ZM61.9141 38.084L61.8809 38.0625C61.6426 37.9121 60.5352 37.2109 58.9277 37.2109C56.6387 37.2109 55.043 39.0645 55.043 41.5605C55.043 43.9824 56.5703 45.9141 58.9277 45.9141C60.5977 45.9141 61.7617 45.1465 61.9141 45.0469V49.4258L61.7988 49.4629C61.2793 49.6328 60.1367 50.0059 58.6797 50.0059C54.6895 50.0059 51.1914 46.8145 51.1914 41.5605C51.1914 36.6914 54.3555 33.123 58.6797 33.123C60.2695 33.123 61.4629 33.5469 61.8613 33.6875L61.9141 33.707V38.084ZM75.9258 37.6914C73.4824 37.6914 71.668 39.6113 71.668 41.9785C71.668 44.3496 73.4824 46.2695 75.9258 46.2695C78.3613 46.2695 80.1758 44.3496 80.1758 41.9785C80.1758 39.6113 78.3613 37.6914 75.9258 37.6914ZM84.3418 41.5605C84.3418 46.2246 80.7422 50.0059 75.7305 50.0059C70.7109 50.0059 67.1191 46.2246 67.1191 41.5605C67.1191 36.9043 70.7109 33.123 75.7305 33.123C80.7422 33.123 84.3418 36.9043 84.3418 41.5605ZM46.4941 37.123C46.4336 37.1055 44.6992 36.627 43.2793 36.627C41.623 36.627 40.7305 37.1777 40.7305 37.9609C40.7305 38.916 41.8477 39.2734 42.5312 39.4922L42.6133 39.5176L43.752 39.877C46.4238 40.7246 47.6426 42.5547 47.6426 44.5371C47.6426 48.6367 44.041 50.0117 40.8867 50.0117C38.6973 50.0117 36.6484 49.6094 36.4453 49.5645V45.8145L36.6172 45.8594C37.1992 46.0117 38.7383 46.418 40.3359 46.418C42.377 46.418 43.3242 45.8223 43.3242 44.8965C43.3242 44.0684 42.5078 43.5957 41.4844 43.2734L41.1387 43.1621L40.6074 42.9863C38.3125 42.2637 36.4023 40.9199 36.4023 38.2227C36.4023 35.1719 38.6895 33.123 42.4824 33.123C44.4883 33.123 46.3711 33.6113 46.4941 33.6426V37.123ZM38.209 10.0312C38.209 8.91016 37.2988 7.99609 36.168 7.99609C35.0469 7.99609 34.127 8.91016 34.127 10.0312V19.9277C34.127 21.0586 35.0469 21.9727 36.168 21.9727C37.2988 21.9727 38.209 21.0586 38.209 19.9277V10.0312ZM46.4062 13.707C47.5195 13.707 48.4375 14.6191 48.4375 15.7383V20.0195C48.4375 21.1504 47.5195 22.0645 46.4062 22.0645C45.2754 22.0645 44.3652 21.1504 44.3652 20.0195V15.7383C44.3652 14.6191 45.2754 13.707 46.4062 13.707ZM59.8164 10.0312C59.8164 8.91016 58.9043 7.99609 57.7734 7.99609C56.6523 7.99609 55.7422 8.91016 55.7422 10.0312V19.9277C55.7422 21.0586 56.6523 21.9727 57.7734 21.9727C58.9043 21.9727 59.8164 21.0586 59.8164 19.9277V10.0312ZM69.1562 0C70.2773 0 71.1895 0.912109 71.1895 2.03516V23.6855C71.1895 24.8125 70.2773 25.7227 69.1562 25.7227C68.0273 25.7227 67.1172 24.8125 67.1172 23.6855V2.03516C67.1172 0.912109 68.0273 0 69.1562 0ZM82.584 10.0312C82.584 8.91016 81.6738 7.99609 80.5254 7.99609C79.4043 7.99609 78.4941 8.91016 78.4941 10.0312V19.9277C78.4941 21.0586 79.4043 21.9727 80.5254 21.9727C81.6738 21.9727 82.584 21.0586 82.584 19.9277V10.0312ZM91.9121 13.707C93.0312 13.707 93.9434 14.6191 93.9434 15.7383V20.0195C93.9434 21.1504 93.0312 22.0645 91.9121 22.0645C90.7812 22.0645 89.8691 21.1504 89.8691 20.0195V15.7383C89.8691 14.6191 90.7812 13.707 91.9121 13.707Z" transform="translate(71.668 92.5156)" fill="currentColor"/>
</svg>
