 <svg id="target" viewBox="0 0 237 237" fill="none" xmlns="http://www.w3.org/2000/svg">

<path fill-rule="evenodd" clip-rule="evenodd" d="M55.8756 11.0295H64.4891L59.9403 3.69651L51.5875 16.9497L47.7793 16.9539L57.9483 1.03635C58.3786 0.388888 59.1233 0 59.9341 0C60.7347 0 61.469 0.378545 61.9013 1.00739L72.1034 16.9539L68.2952 16.9497L66.508 13.9876H57.7808L55.8756 11.0295ZM95.3735 13.8262V0H92.1445V15.177C92.1445 15.5969 92.3142 15.9982 92.6141 16.2981C92.9306 16.6105 93.3484 16.7843 93.7973 16.7843H108.517L110.414 13.8262H95.3735ZM42.5656 11.3502C45.6974 11.3502 48.2397 8.80791 48.2397 5.67612C48.2397 2.54225 45.6974 0 42.5656 0H28.4395V16.7843H31.6643V2.95803H42.3422C43.8461 2.95803 45.0582 4.17435 45.0582 5.67612C45.0582 7.17582 43.8461 8.3942 42.3422 8.3942L33.2468 8.39006L42.878 16.7843H47.5674L41.0866 11.3481L42.5656 11.3502ZM8.39213 16.7843C3.75857 16.7843 0 13.0298 0 8.3942C0 3.75856 3.75857 0 8.39213 0H18.1495C22.7851 0 26.5416 3.75856 26.5416 8.3942C26.5416 13.0298 22.7851 16.7884 18.1495 16.7884L8.39213 16.7843ZM18.1692 14.296C21.1707 14.296 23.6012 11.8634 23.6012 8.86194C23.6012 5.86047 21.1707 3.42785 18.1692 3.42785L8.8462 3.42578C5.84473 3.42578 3.41211 5.86047 3.41211 8.86194C3.41211 11.8634 5.84473 14.296 8.8462 14.296H18.1692ZM78.9254 16.7843C74.2919 16.7843 70.5312 13.0298 70.5312 8.3942C70.5312 3.75857 74.2919 0 78.9254 0H90.5197L88.6187 2.9601L79.1426 2.95803C76.1391 2.95803 73.7065 5.39272 73.7065 8.3942C73.7065 11.3957 76.1391 13.8283 79.1426 13.8283H90.7803L88.8855 16.7843H78.9254ZM118.961 13.8283C116.477 13.8283 114.375 12.1569 113.734 9.87942H127.531L129.432 6.91932L113.73 6.91725C114.373 4.63356 116.471 2.95803 118.961 2.95803L128.431 2.9601L130.334 0H118.74C114.106 0 110.346 3.75857 110.346 8.3942C110.346 13.0298 114.106 16.7843 118.74 16.7843H128.7L130.597 13.8283H118.961Z" transform="translate(53.4668 110.791)" fill="currentColor"/>
</svg>
