 <svg id="target" viewBox="0 0 237 237" fill="none" xmlns="http://www.w3.org/2000/svg">

<path fill-rule="evenodd" clip-rule="evenodd" d="M12.8457 15.4004C12.8457 15.3516 12.8457 15.2871 12.8008 15.2227L9.38086 9.39062C11.168 8.69922 12.3223 7.42773 12.3223 5.12305V4.92773C12.3223 1.19727 9.2168 0 5.86523 0C4.27344 0 1.83398 0.107422 0.695312 0.277344C0.257812 0.347656 0 0.496094 0 0.931641V15.2227C0 15.459 0.201172 15.6582 0.4375 15.6582H2.61523C2.85156 15.6582 3.0332 15.459 3.0332 15.2227V9.8457C3.52734 9.87305 5.29297 9.93359 5.86523 9.93359H6.34766L9.49023 15.2227L9.52148 15.2852C9.61523 15.4785 9.70312 15.6582 9.91602 15.6582H12.584C12.7598 15.6582 12.8457 15.5469 12.8457 15.4004ZM6.24414 7.16602C5.86719 7.16602 3.75195 7.11719 3.41211 7.09766V2.36914C3.79883 2.32422 5.78516 2.28516 6.24414 2.28516C8.42188 2.28516 9.69336 2.98242 9.69336 4.61719V4.8125C9.69336 6.73438 8.48438 7.16602 6.24414 7.16602ZM26.3516 8.47461C26.3457 8.71289 26.1523 8.90234 25.9141 8.9043H18.9375V11.3633C18.9375 13.1953 19.0098 13.2422 20.6523 13.2422H26.168C26.4141 13.2422 26.6152 13.4375 26.6152 13.6738V15.0645C26.6152 15.3809 26.4961 15.4844 26.168 15.5273C25.4766 15.6348 24.0605 15.8301 21.4648 15.8301H21.4141C17.8281 15.8301 15.9258 15.8301 15.9258 11.3633V4.46875C15.9258 0 17.8242 0 21.4043 0H21.4648C24.0605 0 25.4766 0.197266 26.168 0.302734C26.4961 0.347656 26.6152 0.453125 26.6152 0.759766V2.1543C26.6152 2.39062 26.4141 2.59375 26.168 2.59375H20.6523C19.0098 2.59375 18.9375 2.64062 18.9375 4.46875V6.4668H25.9141C26.1543 6.4668 26.3496 6.66211 26.3516 6.90234V8.47461ZM42.6465 9.48633V0.414062C42.6465 0.171875 42.4473 0 42.1992 0H40.0469C39.8047 0 39.6094 0.171875 39.6094 0.414062V9.48633C39.6094 11.9746 38.4668 13.1504 36.1074 13.1504C33.7539 13.1504 32.6016 11.9746 32.6016 9.48633V0.414062C32.6016 0.171875 32.416 0 32.168 0H30.0117C29.7734 0 29.5781 0.171875 29.5781 0.414062V9.48633C29.5781 14.1309 32.5957 15.6543 36.1074 15.6543C39.6191 15.6543 42.6465 14.1309 42.6465 9.48633ZM56.5332 0C56.7637 0 56.9648 0.171875 56.9648 0.414062V2.13281C56.9648 2.375 56.7637 2.52734 56.5332 2.52734H52.1816V15.0469C52.1777 15.2871 51.9844 15.4805 51.7441 15.4824H49.582C49.3438 15.4824 49.1484 15.2832 49.1484 15.0469V2.52734H44.7969C44.5605 2.52734 44.3652 2.375 44.3652 2.13281V0.414062C44.3652 0.171875 44.5605 0 44.7969 0H56.5332ZM86.75 15.2227L83.3203 9.39062C85.1113 8.69922 86.2656 7.42773 86.2656 5.12305V4.92773C86.2656 1.19727 83.1699 0 79.8027 0C78.2129 0 75.7773 0.107422 74.6445 0.277344C74.207 0.347656 73.9434 0.496094 73.9434 0.931641V15.2227C73.9434 15.459 74.1445 15.6582 74.3809 15.6582H76.5586C76.8008 15.6582 76.9707 15.459 76.9707 15.2227V9.8457C77.4766 9.87305 79.2363 9.93359 79.8027 9.93359H80.293L83.4336 15.2227L83.4629 15.2832C83.5586 15.4785 83.6465 15.6582 83.8652 15.6582H86.5273C86.7031 15.6582 86.791 15.5469 86.791 15.4004C86.791 15.3516 86.791 15.2871 86.75 15.2227ZM77.3555 7.09766C77.7109 7.11719 79.8203 7.16602 80.1875 7.16602C82.4375 7.16602 83.6426 6.73438 83.6426 4.8125V4.61719C83.6426 2.98242 82.375 2.28516 80.1875 2.28516C79.7344 2.28516 77.752 2.32422 77.3555 2.36914V7.09766ZM97.248 7.36523C96.0176 6.875 94.7852 6.39062 93.5508 5.91016C92.582 5.52148 91.7695 4.86133 91.7695 4.14648C91.7695 3.16992 92.9785 2.59766 94.5957 2.59766C95.9375 2.59766 97.0781 2.73242 98.1387 2.85742C98.5762 2.9082 99 2.95703 99.4199 2.99609H99.4668C99.6836 2.99609 99.8379 2.81445 99.8379 2.59766V0.988281C99.8379 0.771484 99.6621 0.621094 99.4414 0.576172C98.6992 0.398438 96.7988 0 94.7188 0C90.666 0 88.7324 1.74609 88.7324 4.14648C88.7324 5.67188 89.4062 7.17578 91.3047 7.95703C91.7129 8.125 92.2129 8.29883 92.7461 8.48242C94.7031 9.16211 97.1133 9.99805 97.1133 11.2891C97.1133 12.5449 96.5176 13.2422 94.5801 13.2422C92.7734 13.2422 90.9434 13.0117 89.9531 12.8867L89.6465 12.8477H89.6016C89.373 12.8516 89.1914 13.0371 89.1895 13.2637V14.834C89.1895 15.0742 89.3945 15.2246 89.6016 15.2656C90.6523 15.5098 92.6074 15.8379 94.5332 15.8379C98.8945 15.8379 100.27 13.4863 100.27 11.2891C100.27 9.19141 99.0801 8.10938 97.248 7.36523ZM69.4434 8.7793C69.3633 8.86133 69.2539 8.90625 69.1387 8.9043H62.166V11.3633C62.166 13.1953 62.2344 13.2422 63.8867 13.2422H69.4062C69.6445 13.2441 69.8359 13.4355 69.8379 13.6738V15.0645C69.8379 15.3809 69.7305 15.4844 69.4062 15.5273C68.7012 15.6348 67.2852 15.8301 64.6895 15.8301H64.6387C61.0527 15.8301 59.1543 15.8301 59.1543 11.3633V4.46875C59.1543 0 61.0488 0 64.6289 0H64.6895C67.2852 0 68.7012 0.197266 69.4062 0.302734C69.7305 0.347656 69.8379 0.453125 69.8379 0.759766V2.1543C69.8379 2.39453 69.6465 2.58984 69.4062 2.59375H63.8867C62.2344 2.59375 62.166 2.64062 62.166 4.46875V6.4668H69.1387C69.2539 6.46484 69.3652 6.50977 69.4473 6.5918C69.5273 6.67383 69.5723 6.78711 69.5703 6.90234V8.47461C69.5703 8.58984 69.5254 8.69922 69.4434 8.7793Z" transform="translate(95.5586 109.648)" fill="currentColor"/>
<path fill-rule="evenodd" clip-rule="evenodd" d="M3.47067 1.51973C3.86325 1.30684 4.00388 0.818556 3.79489 0.427931C3.69333 0.238477 3.52145 0.0958993 3.31442 0.0333993C3.10934 -0.0271476 2.88669 -0.0037101 2.69919 0.0978524C2.30661 0.30879 2.16013 0.799024 2.37497 1.18965C2.58591 1.58223 3.07614 1.73066 3.47067 1.51973ZM0.0566103 7.55879C-0.0664365 7.32832 0.0175478 7.03926 0.246063 6.91231C0.478485 6.78926 0.765595 6.87324 0.892548 7.10371C0.955048 7.21504 0.96872 7.3459 0.93161 7.46504C0.894501 7.58613 0.810517 7.6877 0.699188 7.74629C0.589813 7.80684 0.458954 7.82246 0.33786 7.78731C0.216767 7.75215 0.115204 7.67012 0.0566103 7.55879ZM0.287079 5.7834C0.0214541 5.92793 -0.0781553 6.26191 0.066376 6.52949C0.214813 6.80098 0.548798 6.90059 0.818329 6.75606C1.08591 6.60957 1.18747 6.26777 1.04294 6.0041C0.972626 5.87324 0.853485 5.77754 0.710907 5.73457C0.570282 5.69356 0.415985 5.71113 0.287079 5.7834ZM0.0722353 4.35957C-0.0879209 4.05098 0.0273135 3.67012 0.333954 3.50215C0.640595 3.34004 1.02341 3.45332 1.19138 3.75801C1.27145 3.90645 1.28903 4.08027 1.2402 4.24043C1.19138 4.40254 1.08005 4.53731 0.93161 4.61738C0.626923 4.7834 0.242157 4.66621 0.0722353 4.35957ZM1.51559 2.36934C1.34567 2.45918 1.22067 2.61152 1.16599 2.79512C1.1113 2.97676 1.13278 3.17402 1.22458 3.34004C1.41208 3.68379 1.83786 3.81465 2.18356 3.62715C2.35153 3.53926 2.47653 3.38691 2.53317 3.20527C2.58786 3.02559 2.56833 2.83027 2.47849 2.66231C2.39059 2.49629 2.23825 2.37129 2.05661 2.3166C1.87692 2.26191 1.68161 2.28145 1.51559 2.36934ZM1.15231 9.42207C1.18356 9.32051 1.25192 9.23457 1.34567 9.18574C1.53903 9.08418 1.77731 9.15449 1.88083 9.3459C1.9863 9.53926 1.91599 9.77949 1.72458 9.88692C1.53122 9.98848 1.29099 9.91621 1.18552 9.72481C1.13474 9.63301 1.12302 9.52363 1.15231 9.42207ZM10.2968 2.98848C10.4238 3.21699 10.7109 3.30488 10.9433 3.18379C11.1738 3.05684 11.2597 2.76777 11.1367 2.53535C11.0781 2.42402 10.9765 2.34199 10.8554 2.30488C10.7343 2.26973 10.6035 2.2834 10.4941 2.34395C10.3828 2.40254 10.2988 2.5041 10.2617 2.6252C10.2246 2.74629 10.2363 2.8752 10.2968 2.98848ZM9.91599 2.18574C9.65427 2.33223 9.31247 2.23457 9.16599 1.96504C9.02341 1.69356 9.12497 1.35566 9.3945 1.20918C9.66403 1.0666 9.99802 1.16816 10.1425 1.43574C10.289 1.70527 10.1914 2.04121 9.91599 2.18574ZM6.90231 0.935743C6.98044 1.08223 7.1152 1.19356 7.27536 1.24043C7.43552 1.28731 7.60739 1.26973 7.75388 1.18965C7.90231 1.10957 8.01364 0.974806 8.06247 0.814649C8.1113 0.654493 8.09372 0.480665 8.01559 0.332227C7.93552 0.18379 7.80075 0.0724618 7.63864 0.0255868C7.47849 -0.0212882 7.30466 -0.00175697 7.15817 0.0783212C7.00974 0.158399 6.90036 0.293165 6.85153 0.453321C6.80466 0.615431 6.82224 0.787306 6.90231 0.935743ZM5.0488 1.3791C4.86716 1.32441 4.71481 1.19941 4.62692 1.03145C4.45309 0.687696 4.58591 0.267774 4.92575 0.0861337C5.26364 -0.0974601 5.68747 0.0216805 5.88083 0.355665C6.06638 0.703321 5.93747 1.13496 5.59372 1.32637C5.42575 1.41426 5.23044 1.43379 5.0488 1.3791ZM11.4258 4.01387C11.5273 4.20723 11.7695 4.27559 11.957 4.17402C12.0488 4.1252 12.1191 4.04121 12.1484 3.9416C12.1797 3.84004 12.1679 3.73262 12.1172 3.64082C12.0156 3.44746 11.7754 3.37129 11.58 3.47285C11.3965 3.57832 11.3183 3.82441 11.4258 4.01387ZM10.1425 11.4572C10.3496 11.5197 10.5234 11.6623 10.623 11.8518C10.834 12.2346 10.6875 12.7287 10.2968 12.9436C9.90427 13.1506 9.41403 13.008 9.20114 12.6154C9.09763 12.4279 9.07419 12.2072 9.13474 12.0021C9.19528 11.7971 9.33591 11.6252 9.52536 11.5236C9.71286 11.4201 9.93747 11.3967 10.1425 11.4572ZM3.16599 10.5256C3.04099 10.299 2.75583 10.2131 2.52536 10.3342C2.41403 10.3947 2.332 10.4963 2.29489 10.6154C2.25974 10.7365 2.27145 10.8654 2.332 10.9768C2.39059 11.0881 2.49216 11.1721 2.61325 11.2072C2.73434 11.2424 2.86325 11.2287 2.97458 11.1662C3.08395 11.1076 3.16794 11.0061 3.20309 10.8869C3.2402 10.7658 3.22653 10.6369 3.16599 10.5256ZM3.707 11.4904C3.97458 11.3459 4.31052 11.4455 4.457 11.7131C4.59958 11.9846 4.49802 12.3205 4.23044 12.4689C3.96091 12.6135 3.62302 12.51 3.48239 12.2404C3.41208 12.1115 3.3945 11.9592 3.43747 11.8186C3.47849 11.6779 3.57614 11.5588 3.707 11.4904ZM5.74411 11.7521C5.582 11.4455 5.19333 11.3361 4.88083 11.4943C4.57614 11.6623 4.46091 12.0451 4.62497 12.3537C4.79489 12.6643 5.1777 12.7775 5.4863 12.6115C5.63474 12.5334 5.74606 12.3986 5.79489 12.2365C5.84372 12.0744 5.82614 11.8986 5.74411 11.7521ZM7.19528 11.508C7.54294 11.3205 7.97458 11.4494 8.16208 11.7971C8.34763 12.1408 8.22263 12.5764 7.87497 12.758C7.70895 12.8498 7.51559 12.8713 7.33395 12.8186C7.15427 12.7639 7.00192 12.6408 6.91599 12.4729C6.72653 12.1232 6.84763 11.6916 7.19528 11.508ZM12.0703 5.4709C12.3047 5.33613 12.3925 5.04707 12.2715 4.81856C12.2109 4.70918 12.1093 4.6252 11.9902 4.59004C11.8691 4.55488 11.7383 4.56856 11.6289 4.62715C11.5156 4.68574 11.4316 4.78731 11.3945 4.91035C11.3593 5.03145 11.373 5.16231 11.4336 5.27363C11.5566 5.50215 11.8398 5.58809 12.0703 5.4709ZM12.414 7.14473C12.5605 7.41231 12.4648 7.74824 12.1953 7.89473C11.9297 8.03731 11.582 7.93965 11.4394 7.67598C11.2968 7.40254 11.3984 7.06856 11.666 6.92012C11.7949 6.84981 11.9472 6.83418 12.0879 6.87715C12.2285 6.91816 12.3457 7.01582 12.414 7.14473ZM12.3047 9.18965C12.6191 9.01973 12.7285 8.64082 12.5683 8.32832C12.4023 8.02168 12.0175 7.90645 11.709 8.07246C11.4004 8.24043 11.2851 8.6252 11.4492 8.93379C11.6172 9.23848 11.998 9.35176 12.3047 9.18965ZM11.5761 10.6545C11.7636 10.9982 11.6347 11.4377 11.289 11.6174C11.125 11.7092 10.9297 11.7307 10.748 11.6779C10.5664 11.6232 10.414 11.4982 10.3242 11.3322C10.2343 11.1662 10.2148 10.9709 10.2675 10.7893C10.3222 10.6076 10.4453 10.4553 10.6113 10.3654C10.957 10.176 11.3867 10.3107 11.5761 10.6545Z" transform="translate(53.4668 110.789)" fill="currentColor"/>
<path fill-rule="evenodd" clip-rule="evenodd" d="M9.1273 0.0375755C8.89683 -0.0307839 8.64878 -0.00539323 8.43785 0.109841C8.22691 0.225076 8.07066 0.420388 8.0023 0.650857C7.93394 0.881326 7.95933 1.12937 8.07457 1.34031C8.1898 1.55125 8.38316 1.7075 8.61363 1.7739C9.0941 1.91453 9.5941 1.64109 9.73668 1.16258C9.80699 0.932107 9.7816 0.68406 9.66636 0.473122C9.55308 0.262185 9.35777 0.105935 9.1273 0.0375755ZM11.7757 1.95359C12.016 1.82273 12.1957 1.60203 12.2738 1.33836C12.3793 0.982888 12.2875 0.596169 12.0316 0.326638C11.7777 0.0571068 11.3968 -0.0561745 11.0355 0.0317161C10.6761 0.117654 10.3871 0.389138 10.2816 0.744607C10.2035 1.01023 10.2328 1.29539 10.3656 1.53758C10.4964 1.77976 10.7211 1.95945 10.9867 2.03562C11.2484 2.11375 11.5336 2.08445 11.7757 1.95359ZM1.15269 3.79734C1.23472 3.52781 1.51793 3.37156 1.79136 3.44773C2.06089 3.53172 2.22105 3.81492 2.13707 4.0864C2.04918 4.34812 1.77183 4.49461 1.50621 4.41648C1.24058 4.33836 1.08433 4.06492 1.15269 3.79734ZM4.22496 2.31101C4.06285 2.26414 3.89097 2.28172 3.74253 2.36375C3.59605 2.44383 3.48668 2.58054 3.4398 2.7407C3.39293 2.90281 3.4105 3.07664 3.49058 3.22312C3.57261 3.37156 3.70738 3.48093 3.86949 3.52781C4.20543 3.62547 4.55699 3.43406 4.6566 3.09812C4.7523 2.76218 4.56089 2.41062 4.22496 2.31101ZM5.72105 1.71922C5.84996 1.29539 6.29722 1.05125 6.723 1.17429C7.14488 1.3032 7.38902 1.74656 7.26793 2.17234C7.20933 2.37742 7.07066 2.55125 6.88316 2.65281C6.69566 2.75633 6.47496 2.77781 6.26988 2.71726C5.8441 2.59226 5.598 2.14695 5.72105 1.71922ZM0.199566 6.90086C0.287457 6.85203 0.392926 6.84031 0.488629 6.86961C0.586285 6.89695 0.670269 6.96336 0.719097 7.0532C0.767926 7.14304 0.779644 7.24656 0.750347 7.34422C0.689801 7.54734 0.478863 7.66648 0.273785 7.60789C0.176129 7.57664 0.0940974 7.51023 0.0452693 7.42039C-0.00160568 7.33054 -0.0133244 7.22508 0.0159724 7.12742C0.0452693 7.02976 0.109722 6.94969 0.199566 6.90086ZM15.9496 8.3657C15.9105 8.49461 15.9261 8.63719 15.9906 8.75633C16.057 8.87547 16.1664 8.96336 16.2972 9.00047C16.5687 9.08054 16.8539 8.92625 16.9339 8.65476C17.014 8.38328 16.8597 8.09812 16.5882 8.01804C16.3148 7.93797 16.0296 8.09226 15.9496 8.3657ZM16.0043 6.6489C15.9242 6.50047 15.9066 6.32664 15.9554 6.16453C16.0023 6.00437 16.1136 5.86765 16.2601 5.78953C16.4086 5.70945 16.5824 5.69187 16.7425 5.7407C17.0785 5.8364 17.2699 6.18797 17.1703 6.5239C17.0726 6.85984 16.723 7.0532 16.3851 6.95359C16.223 6.90672 16.0863 6.79734 16.0043 6.6489ZM14.8226 4.00242C14.7406 4.27781 14.8128 4.57664 15.0121 4.78367C15.2093 4.9907 15.5043 5.07859 15.7836 5.01023C16.0628 4.94187 16.2836 4.73094 16.3656 4.45554C16.4261 4.25047 16.4027 4.02976 16.2992 3.84422C16.1976 3.65672 16.0238 3.51804 15.8187 3.45945C15.3949 3.33836 14.9496 3.57859 14.8226 4.00242ZM13.1664 2.91843C12.6859 2.77976 12.4105 2.27781 12.5511 1.79734C12.6918 1.31687 13.1957 1.04148 13.6761 1.18211C13.9066 1.24851 14.1 1.40476 14.2152 1.6157C14.3304 1.82664 14.3558 2.07468 14.2875 2.30515C14.1468 2.78367 13.6449 3.05906 13.1664 2.91843ZM15.9418 11.6997C15.8832 11.9009 15.9984 12.1137 16.1976 12.1743C16.2953 12.2036 16.4007 12.1938 16.4906 12.145C16.5804 12.0962 16.6449 12.0122 16.6742 11.9145C16.7035 11.8169 16.6918 11.7114 16.6429 11.6235C16.5961 11.5337 16.5121 11.4673 16.4144 11.438C16.2132 11.3813 16.0023 11.4985 15.9418 11.6997ZM7.64097 16.5356C7.77379 16.7778 7.80504 17.0649 7.72496 17.3286C7.56871 17.8755 6.98668 18.1919 6.43589 18.0337C6.17027 17.9555 5.94761 17.7759 5.8148 17.5337C5.68199 17.2895 5.65269 17.0044 5.73082 16.7387C5.80699 16.4751 5.98668 16.2524 6.22886 16.1196C6.47105 15.9868 6.75621 15.9575 7.01988 16.0356C7.2855 16.1118 7.51011 16.2934 7.64097 16.5356ZM1.00816 9.79734C1.08824 9.52586 0.933941 9.23875 0.662457 9.15867C0.389019 9.0825 0.105816 9.23679 0.0218318 9.50828C-0.0152776 9.63914 0.00034744 9.77781 0.0648006 9.89695C0.131207 10.0161 0.240582 10.104 0.371441 10.1411C0.502301 10.1802 0.642926 10.1665 0.762066 10.102C0.881207 10.0376 0.969097 9.92625 1.00816 9.79734ZM1.18785 11.7524C1.26793 11.8989 1.28746 12.0727 1.23863 12.2329C1.14097 12.5669 0.791363 12.7602 0.455426 12.6626C0.119488 12.5649 -0.0719182 12.2134 0.0257381 11.8794C0.0706599 11.7173 0.180035 11.5805 0.328472 11.5005C0.47691 11.4184 0.650738 11.4028 0.810894 11.4536C0.973004 11.4985 1.10777 11.6059 1.18785 11.7524ZM2.71519 14.7427C2.83824 14.3149 2.5941 13.8677 2.16636 13.7387C1.74058 13.6157 1.29527 13.8618 1.17027 14.2876C1.10972 14.4927 1.13316 14.7114 1.23472 14.8989C1.33628 15.0864 1.51011 15.2251 1.71519 15.2856C1.91832 15.3462 2.14097 15.3247 2.32847 15.2212C2.51597 15.1196 2.65464 14.9477 2.71519 14.7427ZM4.56871 14.8872C5.04918 15.0278 5.32457 15.5298 5.18589 16.0102C5.04332 16.4887 4.54136 16.7622 4.06089 16.6235C3.83043 16.5552 3.63707 16.4009 3.52183 16.1899C3.40855 15.9809 3.38121 15.7329 3.44957 15.5024C3.51402 15.272 3.67027 15.0766 3.88121 14.9614C4.09019 14.8462 4.33824 14.8188 4.56871 14.8872ZM15.1546 14.7153C15.4281 14.7954 15.7132 14.6411 15.7953 14.3677C15.8734 14.0962 15.7191 13.811 15.4476 13.729C15.1761 13.6509 14.8929 13.8071 14.8109 14.0766C14.7308 14.3481 14.8851 14.6333 15.1546 14.7153ZM14.891 15.6626C14.7914 15.9966 14.4418 16.188 14.1078 16.0884C13.7718 15.9887 13.5804 15.6391 13.6742 15.3032C13.7757 14.9673 14.1293 14.7759 14.4652 14.8735C14.6273 14.9223 14.7621 15.0317 14.8421 15.1802C14.9222 15.3286 14.9398 15.5024 14.891 15.6626ZM10.8148 17.5649C11.0199 17.6274 11.2406 17.604 11.4281 17.5005C11.6175 17.3989 11.7562 17.2251 11.8148 17.02C11.8753 16.8149 11.8519 16.5942 11.7484 16.4087C11.6468 16.2212 11.475 16.0825 11.2699 16.0239C10.9945 15.9419 10.6957 16.0141 10.4886 16.2114C10.2796 16.4106 10.1937 16.7036 10.2601 16.9829C10.3285 17.2622 10.5394 17.4848 10.8148 17.5649ZM9.30308 17.6899C9.09214 17.8032 8.8441 17.8286 8.61363 17.7583C8.13707 17.6196 7.86168 17.1196 7.99839 16.6411C8.13902 16.1626 8.64293 15.8872 9.12144 16.0278C9.60191 16.1684 9.8773 16.6704 9.73668 17.1509C9.67027 17.3813 9.51402 17.5747 9.30308 17.6899Z" transform="translate(51.1914 108.504)" fill="currentColor"/>
<path fill-rule="evenodd" clip-rule="evenodd" d="M10.4685 0.218719C10.1404 -0.0859686 9.62866 -0.0703436 9.32007 0.253875C9.17358 0.412078 9.0935 0.621063 9.09936 0.835906C9.10717 1.0527 9.19897 1.25778 9.35522 1.40427C9.68335 1.71091 10.197 1.69333 10.5037 1.36911C10.8083 1.04098 10.7927 0.527313 10.4685 0.218719ZM5.86499 1.34567C6.11694 1.082 6.531 1.07028 6.79663 1.31833C7.0603 1.56833 7.07202 1.98239 6.82397 2.24802C6.57397 2.51169 6.15796 2.52341 5.89233 2.27536C5.63061 2.02536 5.61694 1.6113 5.86499 1.34567ZM18.6208 4.58981C19.156 5.09567 19.9998 5.07223 20.5056 4.53708C21.0134 3.99997 20.988 3.15427 20.4529 2.64645C20.1951 2.40231 19.8513 2.27341 19.4978 2.28317C19.1443 2.29489 18.8103 2.44528 18.5681 2.70309C18.324 2.96091 18.1912 3.3027 18.2009 3.65817C18.2107 4.01169 18.363 4.34763 18.6208 4.58981ZM12.7732 0.322235C13.1658 -0.0898748 13.8162 -0.109406 14.2322 0.279266C14.6462 0.671844 14.6658 1.32419 14.2771 1.7402C13.8806 2.13473 13.2439 2.14255 12.8376 1.75973C12.4314 1.37692 12.404 0.740203 12.7732 0.322235ZM16.7458 1.45895C16.5212 1.24606 16.2224 1.13278 15.9138 1.14059C15.6072 1.15036 15.3142 1.28122 15.1033 1.50583C14.8923 1.73044 14.779 2.02731 14.7869 2.33591C14.7966 2.6445 14.9275 2.93552 15.1501 3.14645C15.6169 3.58591 16.3513 3.56442 16.7927 3.09958C17.2322 2.63278 17.2107 1.89841 16.7458 1.45895ZM3.54663 3.57809C3.73217 3.38278 4.04272 3.37302 4.23999 3.55856C4.43725 3.74411 4.44507 4.05466 4.25757 4.25192C4.16967 4.34763 4.04663 4.40231 3.91577 4.40622C3.78491 4.41013 3.65991 4.3613 3.56616 4.27145C3.47046 4.18161 3.41577 4.05856 3.41186 3.92966C3.40796 3.7988 3.45678 3.6738 3.54663 3.57809ZM21.7927 16.1972C21.5427 16.4629 21.5544 16.8789 21.8201 17.1289C22.0857 17.3672 22.4939 17.3496 22.74 17.0879C22.9841 16.8281 22.9783 16.4199 22.7244 16.1679C22.4587 15.9199 22.0427 15.9336 21.7927 16.1972ZM21.8689 13.9668C21.5427 13.6582 21.5271 13.1465 21.8318 12.8203C22.1404 12.4941 22.6521 12.4785 22.9802 12.7832C23.1384 12.9316 23.2322 13.1347 23.238 13.3496C23.2439 13.5664 23.1658 13.7754 23.0173 13.9316C22.8689 14.0898 22.6658 14.1816 22.449 14.1875C22.2341 14.1933 22.0251 14.1152 21.8689 13.9668ZM21.8943 9.44723C21.7068 9.64645 21.6052 9.91208 21.613 10.1855C21.6228 10.4609 21.738 10.7187 21.9392 10.9062C22.1384 11.0937 22.404 11.1953 22.6775 11.1875C22.9509 11.1777 23.2087 11.0605 23.3962 10.8613C23.7751 10.4453 23.7498 9.8027 23.3396 9.41598C22.9294 9.03122 22.2869 9.04489 21.8943 9.44723ZM20.5779 7.34763C20.3865 6.91794 20.4705 6.41598 20.7927 6.07419C21.2322 5.60934 21.9685 5.58395 22.4314 6.02341C22.7751 6.34372 22.8904 6.84177 22.7244 7.28122C22.5583 7.72067 22.1423 8.01559 21.6736 8.03122C21.2048 8.04489 20.7712 7.77536 20.5779 7.34763ZM19.4705 19.5703C19.2849 19.7675 19.2947 20.0761 19.4919 20.2636C19.5857 20.3515 19.7126 20.3984 19.8435 20.3945C19.9724 20.3906 20.0955 20.334 20.1833 20.2383C20.2732 20.1445 20.322 20.0195 20.3181 19.8886C20.3142 19.7597 20.2576 19.6367 20.1619 19.5488C20.0681 19.459 19.9412 19.4101 19.8123 19.414C19.6814 19.4179 19.5583 19.4746 19.4705 19.5703ZM5.62866 18.6386C6.16186 19.1425 6.18921 19.9804 5.69311 20.5175C5.18139 21.0293 4.35717 21.041 3.83178 20.5449C3.30639 20.0488 3.26928 19.2246 3.74975 18.6855C4.25757 18.1562 5.09546 18.1367 5.62866 18.6386ZM2.27514 7.96286C2.43725 7.79098 2.49389 7.54684 2.42749 7.32028C2.35913 7.09567 2.17749 6.9238 1.94702 6.86911C1.7185 6.81442 1.47827 6.88669 1.31616 7.05856C1.06421 7.32223 1.07983 7.7363 1.34546 7.98825C1.60717 8.23434 2.02319 8.22458 2.27514 7.96286ZM1.35522 10.4863C1.67944 10.7968 1.69507 11.3086 1.38842 11.6367C1.07983 11.9609 0.566159 11.9746 0.238034 11.6679C-0.072513 11.3574 -0.0803255 10.8535 0.222409 10.5332C0.525143 10.2129 1.0271 10.1933 1.35522 10.4863ZM1.78296 14.3047C2.17358 13.8886 2.15405 13.2343 1.73999 12.8418C1.32397 12.4531 0.669675 12.4726 0.27905 12.8867C-0.109622 13.3027 -0.0900911 13.955 0.323971 14.3476C0.739987 14.7402 1.39233 14.7187 1.78296 14.3047ZM3.0935 16.3047C3.55835 16.7441 3.57983 17.4785 3.14038 17.9453C2.70092 18.4082 1.9685 18.4316 1.49975 17.9961C1.27514 17.7832 1.14428 17.4922 1.13647 17.1836C1.12866 16.8769 1.24389 16.5781 1.45483 16.3535C1.66577 16.1289 1.95678 15.998 2.26342 15.9882C2.57202 15.9785 2.86889 16.0918 3.0935 16.3047ZM16.1326 21.6953C16.2595 21.8144 16.4275 21.8789 16.6033 21.875C16.7771 21.8691 16.9431 21.7949 17.0623 21.666C17.1814 21.539 17.2458 21.3711 17.24 21.1972C17.2361 21.0215 17.1599 20.8574 17.033 20.7383C16.906 20.6191 16.738 20.5547 16.5642 20.5586C16.3884 20.5644 16.2244 20.6386 16.1052 20.7656C15.8552 21.0293 15.8669 21.4453 16.1326 21.6953ZM13.9177 23.0683C13.6091 23.3925 13.0955 23.4121 12.7673 23.1035C12.4431 22.7968 12.4275 22.2851 12.7322 21.957C13.0408 21.6308 13.5564 21.6152 13.8845 21.9218C14.0408 22.0683 14.1326 22.2734 14.1384 22.4883C14.1443 22.7031 14.0642 22.9121 13.9177 23.0683ZM9.42358 23.4804C9.8435 23.875 10.4919 23.8554 10.8826 23.4414C11.0701 23.2422 11.1716 22.9765 11.1658 22.7031C11.158 22.4297 11.0408 22.1699 10.8415 21.9824C10.4255 21.5918 9.77319 21.6093 9.38061 22.0234C9.19311 22.2226 9.09155 22.4883 9.09936 22.7617C9.10913 23.0351 9.22436 23.2929 9.42358 23.4804ZM6.88257 22.8769C6.57592 22.8867 6.2771 22.7734 6.05444 22.5605C5.82983 22.3515 5.69702 22.0605 5.68725 21.7539C5.67749 21.4472 5.79077 21.1484 6.00171 20.9238C6.44116 20.457 7.17553 20.4355 7.64038 20.873C8.10717 21.3125 8.13061 22.0468 7.69116 22.5136C7.48217 22.7363 7.18921 22.8691 6.88257 22.8769Z" transform="translate(48.918 106.221)" fill="currentColor"/>
<path fill-rule="evenodd" clip-rule="evenodd" d="M17.7838 0.0177021C18.0163 -0.0291729 18.2565 0.0177021 18.4538 0.150515C18.651 0.281374 18.7877 0.486452 18.8327 0.718874C18.9108 1.19348 18.5983 1.6427 18.1256 1.73841C17.6549 1.83216 17.194 1.53528 17.0827 1.06653C17.0358 0.834108 17.0827 0.593874 17.2155 0.396608C17.3463 0.199343 17.5514 0.062624 17.7838 0.0177021ZM27.4362 10.2404C27.7897 11.0607 28.7409 11.4396 29.5612 11.0861C30.362 10.7208 30.7233 9.78333 30.3756 8.97473C30.028 8.16614 29.0983 7.78528 28.2819 8.11536C27.8873 8.28333 27.5768 8.60364 27.4186 9.00208C27.2584 9.40051 27.2663 9.84583 27.4362 10.2404ZM22.6061 1.9552C22.5358 1.67786 22.3581 1.43958 22.11 1.29309C21.8639 1.14661 21.569 1.10559 21.2916 1.17591C21.0143 1.24622 20.7741 1.42591 20.6276 1.672C20.4811 1.91809 20.4401 2.21301 20.5123 2.49036C20.6061 2.86536 20.8952 3.16028 21.2663 3.2638C21.6393 3.36926 22.0377 3.26575 22.3131 2.99622C22.5905 2.72669 22.7018 2.3302 22.6061 1.9552ZM24.7272 2.43958C25.0436 2.60559 25.2819 2.89075 25.3873 3.23059C25.5866 3.93372 25.1881 4.66809 24.4909 4.88489C23.7936 5.10364 23.0514 4.72669 22.8151 4.03528C22.7077 3.69348 22.7409 3.32434 22.9069 3.00794C23.0729 2.69153 23.3581 2.45325 23.6998 2.34778C24.0416 2.24036 24.4108 2.27356 24.7272 2.43958ZM29.0475 5.54114C28.9108 5.17005 28.6334 4.87122 28.2741 4.7052C27.9166 4.54114 27.5084 4.52551 27.1393 4.66419C26.7682 4.79895 26.4674 5.0763 26.3034 5.43567C26.1373 5.79309 26.1217 6.20325 26.2604 6.57239C26.5456 7.34192 27.3991 7.7345 28.1686 7.44934C28.9401 7.16419 29.3327 6.31067 29.0475 5.54114ZM9.99086 1.18762C10.151 1.25208 10.2799 1.37708 10.3483 1.53528C10.4909 1.86341 10.3366 2.24622 10.0084 2.38684C9.67836 2.52942 9.2975 2.37708 9.15493 2.04895C9.0143 1.72083 9.16469 1.33801 9.49477 1.19739C9.65297 1.12708 9.83071 1.12512 9.99086 1.18762ZM26.526 23.0079C26.1373 23.299 26.0514 23.8458 26.3307 24.2423C26.612 24.6368 27.1588 24.7365 27.5592 24.465C27.7526 24.3282 27.8834 24.1193 27.9245 23.8868C27.9635 23.6525 27.9069 23.4122 27.7702 23.2208C27.6334 23.0275 27.4264 22.8966 27.192 22.8556C26.9596 22.8165 26.7194 22.8712 26.526 23.0079ZM28.4401 20.5353C28.4284 20.1447 28.6256 19.7775 28.9616 19.5743C29.4655 19.2697 30.1198 19.424 30.4362 19.922C30.7506 20.42 30.6081 21.0782 30.1159 21.4025C29.7897 21.6173 29.3717 21.6388 29.0241 21.4591C28.6764 21.2794 28.4538 20.9259 28.4401 20.5353ZM29.1276 16.1642C28.4791 16.5294 28.2487 17.3497 28.612 18.0001C28.7877 18.3107 29.0788 18.5411 29.4245 18.6368C29.7682 18.7325 30.1354 18.6876 30.4459 18.5118C30.7584 18.338 30.9889 18.047 31.0866 17.7032C31.1823 17.3575 31.1373 16.9904 30.9616 16.6779C30.7877 16.3673 30.4967 16.1368 30.153 16.0411C29.8073 15.9435 29.4401 15.9884 29.1276 16.1642ZM28.5944 13.5646C28.2311 12.8302 28.5319 11.9415 29.2663 11.5763C30.0006 11.213 30.8913 11.5138 31.2565 12.2482C31.4323 12.5997 31.4616 13.0079 31.3346 13.3829C31.2096 13.756 30.9401 14.0626 30.5866 14.2365C30.2331 14.4142 29.8248 14.4415 29.4498 14.3146C29.0768 14.1896 28.7682 13.92 28.5944 13.5646ZM20.8717 27.4669C20.6588 27.5587 20.5104 27.756 20.4831 27.9865C20.4557 28.2169 20.5553 28.4435 20.7409 28.5822C20.9264 28.7208 21.1725 28.7501 21.3854 28.6583C21.7135 28.5157 21.8678 28.1349 21.7252 27.8029C21.5827 27.4747 21.1998 27.3224 20.8717 27.4669ZM4.23891 20.3927C4.59438 21.2111 4.21743 22.1622 3.39711 22.5177C2.5768 22.8712 1.62563 22.4923 1.27211 21.674C1.10219 21.2794 1.09438 20.8341 1.25454 20.4357C1.41274 20.0372 1.72329 19.7169 2.11782 19.549C2.51039 19.379 2.95571 19.3712 3.35414 19.5294C3.75063 19.6876 4.07094 19.9982 4.23891 20.3927ZM4.82289 7.33216C5.01625 7.19544 5.14711 6.98841 5.18618 6.75403C5.22719 6.52161 5.1725 6.28137 5.03579 6.08997C4.89907 5.89466 4.69204 5.7638 4.45961 5.72473C4.22524 5.68372 3.985 5.73841 3.7936 5.87708C3.59829 6.01184 3.46743 6.22083 3.42836 6.4552C3.38735 6.68762 3.44204 6.92786 3.58071 7.12122C3.86586 7.52161 4.4225 7.61536 4.82289 7.33216ZM3.27407 10.4552C3.21157 10.7365 3.03969 10.9806 2.7975 11.1329C2.2936 11.4513 1.62563 11.3009 1.30727 10.797C0.986957 10.2931 1.13735 9.62512 1.64125 9.30481C2.14516 8.9845 2.81313 9.13489 3.13344 9.6388C3.28579 9.88098 3.33852 10.1759 3.27407 10.4552ZM2.00454 15.1056C2.43813 14.8771 2.71352 14.4318 2.72524 13.9415C2.735 13.4493 2.47719 12.9923 2.05336 12.7462C1.62954 12.5001 1.10414 12.504 0.684223 12.756C0.0377385 13.1232 -0.190777 13.9415 0.174457 14.588C0.537739 15.2365 1.3561 15.4669 2.00454 15.1056ZM2.81899 16.8185C3.18422 17.5529 2.88344 18.4454 2.14907 18.8107C1.41274 19.174 0.52016 18.8732 0.154926 18.1368C-0.0208552 17.7833 -0.048199 17.3751 0.0787541 17.0021C0.205707 16.629 0.473285 16.3224 0.826801 16.1466C1.18032 15.9708 1.58852 15.9415 1.96352 16.0685C2.33657 16.1935 2.64516 16.465 2.81899 16.8185ZM13.6686 29.6232C13.7155 29.8556 13.8522 30.0587 14.0495 30.1915C14.2448 30.3224 14.487 30.3712 14.7194 30.3243C15.2038 30.2267 15.5163 29.756 15.4186 29.2716C15.3209 28.7892 14.8502 28.4767 14.3678 28.5724C13.8854 28.67 13.5729 29.1388 13.6686 29.6232ZM9.62954 29.422C9.38344 29.2755 9.20571 29.0372 9.1354 28.7599C9.06508 28.4825 9.10805 28.1876 9.25258 27.9415C9.39907 27.6954 9.63735 27.5177 9.91469 27.4454C10.2877 27.3497 10.6842 27.4611 10.9557 27.7384C11.2252 28.0138 11.3268 28.4122 11.2213 28.7853C11.1178 29.1564 10.8229 29.4435 10.4498 29.5392C10.1725 29.6115 9.87758 29.5685 9.62954 29.422ZM5.75258 26.8771C5.85805 27.2189 6.09438 27.504 6.41079 27.67C6.72719 27.8361 7.09633 27.8693 7.43813 27.7618C7.77993 27.6564 8.06508 27.4181 8.2311 27.1017C8.39907 26.7853 8.43227 26.4161 8.32485 26.0743C8.10219 25.3654 7.34633 24.9689 6.63539 25.1915C6.2936 25.297 6.00844 25.5333 5.84243 25.8497C5.67836 26.1661 5.64516 26.5372 5.75258 26.8771ZM4.27797 25.67C3.92055 25.506 3.64321 25.2052 3.50649 24.8341C3.22329 24.0646 3.61586 23.2111 4.38539 22.9259C5.14907 22.6622 5.985 23.0568 6.26625 23.8146C6.54555 24.5743 6.1686 25.4161 5.41469 25.713C5.04555 25.8497 4.63735 25.8361 4.27797 25.67ZM24.1393 26.4357C23.8502 26.6798 23.8073 27.1056 24.0416 27.4025C24.276 27.6974 24.7018 27.7521 25.0045 27.5294C25.2077 27.3771 25.3131 27.1271 25.2799 26.8751C25.2448 26.6232 25.0748 26.4083 24.8385 26.3185C24.6002 26.2267 24.3327 26.2716 24.1393 26.4357ZM17.0729 29.3536C17.0163 28.9747 17.2799 28.6193 17.6608 28.5626C17.8444 28.5353 18.0299 28.5822 18.1784 28.6935C18.3288 28.8029 18.4264 28.9689 18.4538 29.1525C18.4811 29.3361 18.4323 29.5216 18.3229 29.67C18.2116 29.8185 18.0456 29.9161 17.8639 29.9435C17.6803 29.9689 17.4948 29.922 17.3463 29.8126C17.1979 29.7013 17.0983 29.5372 17.0729 29.3536ZM13.903 0.595827C13.8756 0.412233 13.778 0.248171 13.6276 0.136843C13.4791 0.0274678 13.2936 -0.0194072 13.11 0.00793652C12.8639 0.0450459 12.6549 0.209108 12.5631 0.439577C12.4713 0.671999 12.5104 0.935671 12.6647 1.12903C12.819 1.32434 13.067 1.422 13.3131 1.38684C13.694 1.3302 13.9577 0.976687 13.903 0.595827ZM5.95375 3.5763C6.25649 3.33801 6.69399 3.3888 6.93422 3.68958C7.11 3.91223 7.13344 4.21692 6.99672 4.46301C6.85805 4.71106 6.58657 4.84973 6.30532 4.81653C6.02407 4.78333 5.79164 4.58606 5.71547 4.31458C5.63735 4.04309 5.7311 3.75012 5.95375 3.5763Z" transform="translate(44.3652 102.793)" fill="currentColor"/>
<path fill-rule="evenodd" clip-rule="evenodd" d="M20.1406 0.000220477C20.6016 0.000220477 20.9746 0.369361 20.9746 0.830299C20.9746 1.29124 20.6016 1.66233 20.1406 1.66233C19.6934 1.6467 19.3398 1.27952 19.3398 0.830299C19.3398 0.383033 19.6934 0.0158455 20.1406 0.000220477ZM30.7012 3.66624C30.7637 3.36936 30.707 3.05881 30.543 2.80491C30.377 2.551 30.1172 2.37327 29.8203 2.31077C29.5254 2.24631 29.2148 2.30295 28.9609 2.46702C28.7051 2.63303 28.5273 2.8928 28.4648 3.18772C28.334 3.80491 28.7266 4.41233 29.3438 4.54514C29.9609 4.676 30.5684 4.28342 30.7012 3.66624ZM39.6094 21.2737C38.4668 21.2737 37.541 20.344 37.541 19.2014C37.541 18.6526 37.7578 18.1252 38.1465 17.7365C38.5352 17.3479 39.0625 17.1311 39.6133 17.133C40.1621 17.1311 40.6895 17.3498 41.0781 17.7385C41.4668 18.1272 41.6836 18.6545 41.6816 19.2033C41.6816 20.3479 40.7539 21.2756 39.6094 21.2737ZM34.3281 5.13694C34.5449 5.43381 34.6328 5.80491 34.5742 6.16624C34.4551 6.9221 33.7461 7.43772 32.9922 7.32053C32.25 7.18577 31.752 6.48264 31.8711 5.7385C31.9883 4.99631 32.6797 4.48264 33.4258 4.58225C33.7871 4.64085 34.1133 4.84006 34.3281 5.13694ZM40.207 14.5666C40.2344 14.0627 40.0605 13.5686 39.7227 13.1936C39.3848 12.8186 38.9102 12.594 38.4062 12.5666C37.9023 12.5393 37.4082 12.7131 37.0332 13.051C36.6562 13.3889 36.4316 13.8635 36.4062 14.3674C36.3633 15.051 36.6914 15.7033 37.2637 16.0764C37.8359 16.4514 38.5664 16.4905 39.1758 16.178C39.7832 15.8655 40.1777 15.2502 40.207 14.5666ZM29.3457 34.2912C28.7285 34.4221 28.334 35.0295 28.4648 35.6487C28.5957 36.2658 29.2031 36.6604 29.8223 36.5295C30.4395 36.3967 30.834 35.7893 30.7031 35.1721C30.5703 34.5549 29.9629 34.1604 29.3457 34.2912ZM31.9473 31.7229C32.127 31.26 32.543 30.928 33.0352 30.8557C33.7871 30.7444 34.4883 31.26 34.6055 32.01C34.7246 32.76 34.2148 33.4651 33.4668 33.5901C32.9766 33.6721 32.4785 33.4846 32.1641 33.0979C31.8496 32.7131 31.7676 32.1877 31.9473 31.7229ZM35.2754 29.3186C35.375 30.2658 36.2246 30.9533 37.1719 30.8537C37.627 30.8069 38.0449 30.5803 38.334 30.2248C38.6211 29.8694 38.7559 29.4123 38.707 28.9573C38.6074 28.01 37.7578 27.3225 36.8105 27.4221C35.8633 27.5217 35.1758 28.3713 35.2754 29.3186ZM36.4043 23.7053C36.3516 22.6584 37.1543 21.7639 38.2031 21.7053C39.2539 21.6506 40.1484 22.4573 40.2051 23.5061C40.2324 24.01 40.0586 24.5041 39.7207 24.8791C39.3828 25.2541 38.9102 25.4807 38.4062 25.5061C37.9004 25.5334 37.4062 25.3596 37.0312 25.0217C36.6562 24.6838 36.4297 24.2112 36.4043 23.7053ZM20.1504 36.551C19.6992 36.5627 19.3398 36.9319 19.3398 37.383C19.3398 37.8323 19.6992 38.2014 20.1504 38.2131C20.6094 38.2131 20.9805 37.842 20.9805 37.383C20.9805 36.924 20.6094 36.551 20.1504 36.551ZM4.14062 19.2014C4.14062 20.344 3.21484 21.2717 2.07227 21.2737C0.929688 21.2737 0.00195312 20.3479 0 19.2033C0 18.6545 0.21875 18.1272 0.607422 17.7385C0.996094 17.3498 1.52344 17.133 2.07227 17.133C2.62109 17.133 3.14844 17.3498 3.53516 17.7385C3.92383 18.1252 4.14062 18.6526 4.14062 19.2014ZM11.6172 4.54514C12.2363 4.41428 12.6289 3.80686 12.498 3.18967C12.4355 2.8928 12.2578 2.63303 12.0039 2.46897C11.748 2.30295 11.4395 2.24631 11.1426 2.31077C10.7441 2.3967 10.4199 2.68772 10.2949 3.07444C10.168 3.46311 10.2578 3.88889 10.5312 4.19163C10.8047 4.49631 11.2188 4.62913 11.6172 4.54514ZM8.43945 5.7385C8.55859 6.49436 8.04297 7.20335 7.28711 7.32444C6.5332 7.44358 5.82422 6.926 5.70508 6.1721C5.64648 5.80881 5.73633 5.43772 5.95117 5.14085C6.16602 4.84397 6.49219 4.64475 6.85352 4.58811C7.2168 4.52952 7.58789 4.61741 7.88477 4.8342C8.18359 5.04905 8.38281 5.37522 8.43945 5.7385ZM4.18164 11.4358C5.11133 11.3147 5.77539 10.4748 5.67578 9.54319C5.57812 8.61155 4.75586 7.926 3.82031 8.00217C3.36523 8.04905 2.94727 8.27561 2.6582 8.63108C2.37109 8.9885 2.23633 9.44358 2.28516 9.90061C2.33203 10.3557 2.55859 10.7737 2.91406 11.0608C3.27148 11.3479 3.72656 11.4826 4.18164 11.4358ZM4.94336 14.3674C4.99805 15.4182 4.19141 16.3127 3.14258 16.3694C2.0918 16.424 1.19531 15.6174 1.13867 14.5666C1.11328 14.0627 1.28711 13.5686 1.625 13.1936C1.96289 12.8186 2.43555 12.594 2.93945 12.5686C3.44531 12.5393 3.93945 12.7131 4.31641 13.051C4.69141 13.3889 4.91797 13.8635 4.94336 14.3674ZM10.2637 35.1701C10.1777 35.5705 10.3125 35.9846 10.6172 36.258C10.9199 36.5315 11.3457 36.6213 11.7344 36.4963C12.123 36.3694 12.4141 36.0451 12.5 35.6467C12.6289 35.0295 12.2363 34.4221 11.6191 34.2912C11.002 34.1604 10.3965 34.5549 10.2637 35.1701ZM5.95117 33.0373C5.73438 32.7405 5.64648 32.3694 5.70508 32.008C5.79297 31.4533 6.20508 31.008 6.75 30.8791C7.29492 30.7483 7.86328 30.9573 8.19141 31.4104C8.52148 31.8635 8.54492 32.4709 8.25195 32.9475C7.95898 33.426 7.4082 33.6799 6.85547 33.5901C6.49219 33.5334 6.16602 33.3362 5.95117 33.0373ZM2.28516 28.9573C2.23633 29.4123 2.37109 29.8694 2.6582 30.2248C2.94727 30.5803 3.36523 30.8069 3.82031 30.8537C4.27539 30.9026 4.73047 30.7678 5.08789 30.4807C5.44336 30.1916 5.66992 29.7737 5.7168 29.3186C5.76562 28.8635 5.63086 28.4084 5.3418 28.053C5.05273 27.6955 4.63672 27.469 4.17969 27.4221C3.72461 27.3733 3.26953 27.508 2.91406 27.7971C2.55859 28.0842 2.33203 28.5022 2.28516 28.9573ZM1.625 24.8791C1.28711 24.5041 1.11328 24.01 1.13867 23.5061C1.19727 22.4573 2.0918 21.6526 3.14258 21.7053C4.19141 21.7619 4.99609 22.6565 4.94336 23.7053C4.91797 24.2112 4.69141 24.6838 4.31641 25.0217C3.93945 25.3596 3.44531 25.5334 2.93945 25.5061C2.43555 25.4807 1.96289 25.2541 1.625 24.8791ZM25.6895 36.5823C25.2129 36.7092 24.9316 37.1994 25.0586 37.676C25.1855 38.1526 25.6758 38.4338 26.1523 38.3069C26.3809 38.2463 26.5762 38.0959 26.6953 37.8908C26.8145 37.6858 26.8477 37.4416 26.7852 37.2131C26.6562 36.7365 26.166 36.4533 25.6895 36.5823ZM14.8203 37.2131C14.9453 36.7444 15.4219 36.4612 15.8945 36.5764C16.209 36.6545 16.457 36.8948 16.543 37.2073C16.6289 37.5178 16.5391 37.8518 16.3086 38.0803C16.0781 38.3069 15.7422 38.3908 15.4316 38.301C14.9668 38.1643 14.6934 37.6819 14.8203 37.2131ZM26.748 2.25803C26.8105 2.02756 26.7773 1.78342 26.6582 1.57835C26.5391 1.37327 26.3438 1.22483 26.1152 1.16428C25.6465 1.06077 25.1816 1.34397 25.0586 1.80491C24.9336 2.2678 25.1973 2.74436 25.6523 2.88889C25.8828 2.94944 26.127 2.91819 26.332 2.79905C26.5371 2.68186 26.6875 2.48655 26.748 2.25803ZM16.1309 0.119361C16.3359 0.236549 16.4863 0.431861 16.5469 0.660377C16.6289 0.96897 16.541 1.29905 16.3145 1.52366C16.0898 1.75022 15.7598 1.83811 15.4512 1.75608C15.1426 1.6721 14.9023 1.43186 14.8184 1.12327C14.7578 0.894752 14.791 0.650611 14.9082 0.445533C15.0273 0.240455 15.2227 0.0920174 15.4512 0.0314705C15.6797 -0.0310295 15.9238 0.000220477 16.1309 0.119361Z" transform="translate(39.8164 98.2246)" fill="currentColor"/>
</svg>
