 <svg id="target" viewBox="0 0 237 237" fill="none" xmlns="http://www.w3.org/2000/svg">

<path fill-rule="evenodd" clip-rule="evenodd" d="M86.9 10.6929C86.9 6.99727 84.0303 0.100176 74.751 0.0722491C70.7261 0.0604013 67.6931 1.83587 66.2984 3.00457V0.38283L60.0919 0.379445V3.00457C58.5711 1.69201 56.7229 0.507231 54.8636 0.227963C52.8867 -0.0699241 50.9099 0.0180878 48.4658 0.755188C46.4323 1.36704 45.1366 2.2717 43.8816 3.68666C41.2912 0.789039 37.1969 0.210191 33.9346 0.090867C30.2194 -0.044536 26.4738 0.413296 23.5551 2.5442C20.7421 1.10724 17.1877 -0.0216868 13.2416 0.000316224C9.77187 0.0206267 6.44773 0.801733 4.09256 2.83447C3.24375 3.56734 2.86208 4.14957 2.44149 5.18879C1.60791 7.24861 1.95488 9.62747 2.88409 10.8681C4.61724 13.1835 6.55859 14.0831 10.0444 14.4749C13.107 14.8185 15.2515 14.8193 17.5169 15.2365C18.5875 15.4337 19.57 16.225 19.57 17.3988C19.57 18.768 17.654 21.0115 13.0283 20.7111C9.17356 20.4606 7.71798 19.9173 4.09256 17.5612L0 20.8676C0 20.8676 0.698172 21.4253 1.17462 21.7376C1.63245 22.038 2.1089 22.3215 2.60059 22.5864H2.61243C6.74053 24.8121 11.9646 25.7421 16.6927 24.9864C19.0123 24.6141 21.2126 23.8372 23.1065 22.6067C24.6366 23.6527 26.6592 25.4468 31.5548 25.2268C34.6361 25.088 36.9236 25.1988 39.0629 22.7404V25.1971H45.0571L45.0554 22.7404C45.0554 22.7404 46.0007 23.5046 46.6658 23.9023C50.4723 26.1856 56.5266 25.3215 60.1063 22.5991L60.1147 25.7768C60.0123 27.7368 58.2106 29.0798 56.3167 29.8347C53.0458 31.1396 50.0653 29.9701 47.4046 28.0948L42.8618 31.1295C44.0881 32.3574 45.2094 33.0734 46.9561 33.8739C51.8687 36.1208 57.6157 35.3549 61.5813 33.004C64.1954 31.4536 65.2076 29.5529 65.8389 26.6307C66.174 25.077 66.207 23.9396 66.2587 22.5805C66.2603 22.5407 66.2603 22.5052 66.262 22.4705C66.3145 22.5077 66.3678 22.5441 66.4186 22.5805C67.6838 23.4623 68.8025 24.1156 70.5128 24.6361C73.2751 25.4747 76.4173 25.5128 79.9242 24.598C81.5567 24.1715 82.997 23.4902 84.2842 22.5805H84.2867C84.9824 22.0854 85.634 21.5252 86.2475 20.9023L82.3293 18.1156C81.0023 19.1979 79.0272 20.2896 76.7761 20.574C74.1755 20.9023 71.2271 20.4335 69.6302 18.7037C68.7678 17.7686 68.4666 17.4749 68.4666 15.1071L86.9 15.1274V10.6929ZM47.8006 12.0182C47.8496 10.6566 47.9791 9.20097 48.1238 7.77162C48.1949 7.07345 49.0386 6.23141 50.2234 5.58571C51.2999 4.99924 52.6581 4.57526 53.9775 4.56849C54.9803 4.56257 56.0102 4.75298 56.9208 5.10334C58.5092 5.7135 59.7406 6.8128 59.8675 8.21761C59.9851 9.52678 60.1205 10.7649 60.1823 11.9513C60.2576 13.434 60.2212 14.8354 59.8997 16.1945C59.6923 17.0603 59.2633 17.7948 58.3755 18.4981C57.3719 19.2919 55.8181 19.9968 53.9775 19.8936C51.4006 19.7497 49.0962 18.7291 48.4149 17.3023C47.8437 16.1006 47.7227 14.1787 47.8006 12.0182ZM36.1859 20.3729C34.9004 20.7749 32.8465 20.9797 30.6597 20.7157C28.8403 20.4974 27.1071 20.3679 26.3988 18.7346C26.0146 17.8494 26.095 17.0361 26.6924 16.2795C27.6309 15.0922 29.8042 14.8612 31.1066 14.8477H38.2448C38.4353 16.7061 39.0302 19.4844 36.1859 20.3729ZM15.4029 10.0807C12.5409 9.92754 9.90812 9.87253 8.47793 8.72838C7.65451 8.06998 7.81784 6.17518 8.97215 5.48801C10.6317 4.50041 12.6399 4.53342 13.7976 4.5935C16.1409 4.71452 18.8396 5.48039 20.9638 6.89451L23.4501 4.5935C23.4501 4.5935 26.0761 6.99691 26.0761 6.89451C29.1371 4.76445 30.2169 4.75853 33.068 4.76107C36.9676 4.76445 38.0863 5.52102 38.6601 6.37744C39.0223 6.91821 38.6644 10.217 38.6644 10.217C38.6644 10.217 35.2226 10.3227 32.7396 10.1983C30.767 10.1002 29.6634 10.0926 27.6798 10.4158C25.9051 10.7053 24.6865 11.2232 23.4501 12.2472C23.4501 12.2472 22.3931 11.5075 21.2414 10.9811C19.146 10.0232 17.6473 10.2009 15.4029 10.0807ZM68.2559 10.7995C68.2559 9.31256 68.646 8.12355 69.2875 7.19858C70.5687 5.35456 72.8528 4.56415 75.0497 4.56838C77.2111 4.57261 79.4393 5.34864 80.7646 7.03948C81.5135 7.99323 81.9747 9.23809 81.9747 10.7995H68.2559Z" transform="translate(75.082 100.512)" fill="currentColor"/>
</svg>
