 <svg id="target" viewBox="0 0 237 237" fill="none" xmlns="http://www.w3.org/2000/svg">

<path d="M60.4229 28.5536C60.0866 28.0501 59.5822 27.7983 58.8677 27.7983C58.1531 27.7983 57.6487 28.0501 57.3124 28.5536C56.9762 29.0571 56.808 29.7914 56.808 30.7145C56.808 31.6376 56.9762 32.3719 57.3124 32.8964C57.6487 33.3999 58.1531 33.6517 58.8677 33.6517C59.5822 33.6517 60.0866 33.3999 60.4229 32.8964C60.7592 32.3719 60.9483 31.6376 60.9483 30.7145C60.9273 29.7914 60.7592 29.0571 60.4229 28.5536ZM60.4229 28.5536C60.0866 28.0501 59.5822 27.7983 58.8677 27.7983C58.1531 27.7983 57.6487 28.0501 57.3124 28.5536C56.9762 29.0571 56.808 29.7914 56.808 30.7145C56.808 31.6376 56.9762 32.3719 57.3124 32.8964C57.6487 33.3999 58.1531 33.6517 58.8677 33.6517C59.5822 33.6517 60.0866 33.3999 60.4229 32.8964C60.7592 32.3719 60.9483 31.6376 60.9483 30.7145C60.9273 29.7914 60.7592 29.0571 60.4229 28.5536ZM38.5235 28.5536C38.1873 28.0501 37.7039 27.7564 37.0103 27.7564C36.2958 27.7564 35.7914 28.0291 35.4551 28.5536C35.245 28.8893 35.0978 29.3089 35.0138 29.8334H38.8808C38.8598 29.3299 38.7547 28.8893 38.5235 28.5536ZM60.4229 28.5536C60.0866 28.0501 59.5822 27.7983 58.8677 27.7983C58.1531 27.7983 57.6487 28.0501 57.3124 28.5536C56.9762 29.0571 56.808 29.7914 56.808 30.7145C56.808 31.6376 56.9762 32.3719 57.3124 32.8964C57.6487 33.3999 58.1531 33.6517 58.8677 33.6517C59.5822 33.6517 60.0866 33.3999 60.4229 32.8964C60.7592 32.3719 60.9483 31.6376 60.9483 30.7145C60.9273 29.7914 60.7592 29.0571 60.4229 28.5536ZM60.4229 28.5536C60.0866 28.0501 59.5822 27.7983 58.8677 27.7983C58.1531 27.7983 57.6487 28.0501 57.3124 28.5536C56.9762 29.0571 56.808 29.7914 56.808 30.7145C56.808 31.6376 56.9762 32.3719 57.3124 32.8964C57.6487 33.3999 58.1531 33.6517 58.8677 33.6517C59.5822 33.6517 60.0866 33.3999 60.4229 32.8964C60.7592 32.3719 60.9483 31.6376 60.9483 30.7145C60.9273 29.7914 60.7592 29.0571 60.4229 28.5536ZM38.5235 28.5536C38.1873 28.0501 37.7039 27.7564 37.0103 27.7564C36.2958 27.7564 35.7914 28.0291 35.4551 28.5536C35.245 28.8893 35.0978 29.3089 35.0138 29.8334H38.8808C38.8598 29.3299 38.7547 28.8893 38.5235 28.5536ZM24.8627 30.9033C23.7488 30.8824 23.2865 31.302 23.2865 31.302C22.9712 31.5327 22.8031 31.8684 22.8031 32.351C22.8031 32.6447 22.8661 32.8964 22.9712 33.0643C23.0343 33.1692 23.0763 33.2111 23.2865 33.379C23.2865 33.379 23.7698 33.7566 24.8837 33.6937C25.6613 33.6517 26.3549 33.5048 26.3549 33.5048V31.0292C26.3339 31.0292 25.6403 30.9243 24.8627 30.9033ZM38.5235 28.5536C38.1873 28.0501 37.7039 27.7564 37.0103 27.7564C36.2958 27.7564 35.7914 28.0291 35.4551 28.5536C35.245 28.8893 35.0978 29.3089 35.0138 29.8334H38.8808C38.8598 29.3299 38.7547 28.8893 38.5235 28.5536ZM60.4229 28.5536C60.0866 28.0501 59.5822 27.7983 58.8677 27.7983C58.1531 27.7983 57.6487 28.0501 57.3124 28.5536C56.9762 29.0571 56.808 29.7914 56.808 30.7145C56.808 31.6376 56.9762 32.3719 57.3124 32.8964C57.6487 33.3999 58.1531 33.6517 58.8677 33.6517C59.5822 33.6517 60.0866 33.3999 60.4229 32.8964C60.7592 32.3719 60.9483 31.6376 60.9483 30.7145C60.9273 29.7914 60.7592 29.0571 60.4229 28.5536ZM60.4229 28.5536C60.0866 28.0501 59.5822 27.7983 58.8677 27.7983C58.1531 27.7983 57.6487 28.0501 57.3124 28.5536C56.9762 29.0571 56.808 29.7914 56.808 30.7145C56.808 31.6376 56.9762 32.3719 57.3124 32.8964C57.6487 33.3999 58.1531 33.6517 58.8677 33.6517C59.5822 33.6517 60.0866 33.3999 60.4229 32.8964C60.7592 32.3719 60.9483 31.6376 60.9483 30.7145C60.9273 29.7914 60.7592 29.0571 60.4229 28.5536ZM38.5235 28.5536C38.1873 28.0501 37.7039 27.7564 37.0103 27.7564C36.2958 27.7564 35.7914 28.0291 35.4551 28.5536C35.245 28.8893 35.0978 29.3089 35.0138 29.8334H38.8808C38.8598 29.3299 38.7547 28.8893 38.5235 28.5536ZM24.8627 30.9033C23.7488 30.8824 23.2865 31.302 23.2865 31.302C22.9712 31.5327 22.8031 31.8684 22.8031 32.351C22.8031 32.6447 22.8661 32.8964 22.9712 33.0643C23.0343 33.1692 23.0763 33.2111 23.2865 33.379C23.2865 33.379 23.7698 33.7566 24.8837 33.6937C25.6613 33.6517 26.3549 33.5048 26.3549 33.5048V31.0292C26.3339 31.0292 25.6403 30.9243 24.8627 30.9033ZM24.8627 30.9033C23.7488 30.8824 23.2865 31.302 23.2865 31.302C22.9712 31.5327 22.8031 31.8684 22.8031 32.351C22.8031 32.6447 22.8661 32.8964 22.9712 33.0643C23.0343 33.1692 23.0763 33.2111 23.2865 33.379C23.2865 33.379 23.7698 33.7566 24.8837 33.6937C25.6613 33.6517 26.3549 33.5048 26.3549 33.5048V31.0292C26.3339 31.0292 25.6403 30.9243 24.8627 30.9033ZM38.5235 28.5536C38.1873 28.0501 37.7039 27.7564 37.0103 27.7564C36.2958 27.7564 35.7914 28.0291 35.4551 28.5536C35.245 28.8893 35.0978 29.3089 35.0138 29.8334H38.8808C38.8598 29.3299 38.7547 28.8893 38.5235 28.5536ZM60.4229 28.5536C60.0866 28.0501 59.5822 27.7983 58.8677 27.7983C58.1531 27.7983 57.6487 28.0501 57.3124 28.5536C56.9762 29.0571 56.808 29.7914 56.808 30.7145C56.808 31.6376 56.9762 32.3719 57.3124 32.8964C57.6487 33.3999 58.1531 33.6517 58.8677 33.6517C59.5822 33.6517 60.0866 33.3999 60.4229 32.8964C60.7592 32.3719 60.9483 31.6376 60.9483 30.7145C60.9273 29.7914 60.7592 29.0571 60.4229 28.5536ZM60.4229 28.5536C60.0866 28.0501 59.5822 27.7983 58.8677 27.7983C58.1531 27.7983 57.6487 28.0501 57.3124 28.5536C56.9762 29.0571 56.808 29.7914 56.808 30.7145C56.808 31.6376 56.9762 32.3719 57.3124 32.8964C57.6487 33.3999 58.1531 33.6517 58.8677 33.6517C59.5822 33.6517 60.0866 33.3999 60.4229 32.8964C60.7592 32.3719 60.9483 31.6376 60.9483 30.7145C60.9273 29.7914 60.7592 29.0571 60.4229 28.5536ZM38.5235 28.5536C38.1873 28.0501 37.7039 27.7564 37.0103 27.7564C36.2958 27.7564 35.7914 28.0291 35.4551 28.5536C35.245 28.8893 35.0978 29.3089 35.0138 29.8334H38.8808C38.8598 29.3299 38.7547 28.8893 38.5235 28.5536ZM24.8627 30.9033C23.7488 30.8824 23.2865 31.302 23.2865 31.302C22.9712 31.5327 22.8031 31.8684 22.8031 32.351C22.8031 32.6447 22.8661 32.8964 22.9712 33.0643C23.0343 33.1692 23.0763 33.2111 23.2865 33.379C23.2865 33.379 23.7698 33.7566 24.8837 33.6937C25.6613 33.6517 26.3549 33.5048 26.3549 33.5048V31.0292C26.3339 31.0292 25.6403 30.9243 24.8627 30.9033ZM24.8627 30.9033C23.7488 30.8824 23.2865 31.302 23.2865 31.302C22.9712 31.5327 22.8031 31.8684 22.8031 32.351C22.8031 32.6447 22.8661 32.8964 22.9712 33.0643C23.0343 33.1692 23.0763 33.2111 23.2865 33.379C23.2865 33.379 23.7698 33.7566 24.8837 33.6937C25.6613 33.6517 26.3549 33.5048 26.3549 33.5048V31.0292C26.3339 31.0292 25.6403 30.9243 24.8627 30.9033ZM38.5235 28.5536C38.1873 28.0501 37.7039 27.7564 37.0103 27.7564C36.2958 27.7564 35.7914 28.0291 35.4551 28.5536C35.245 28.8893 35.0978 29.3089 35.0138 29.8334H38.8808C38.8598 29.3299 38.7547 28.8893 38.5235 28.5536ZM60.4229 28.5536C60.0866 28.0501 59.5822 27.7983 58.8677 27.7983C58.1531 27.7983 57.6487 28.0501 57.3124 28.5536C56.9762 29.0571 56.808 29.7914 56.808 30.7145C56.808 31.6376 56.9762 32.3719 57.3124 32.8964C57.6487 33.3999 58.1531 33.6517 58.8677 33.6517C59.5822 33.6517 60.0866 33.3999 60.4229 32.8964C60.7592 32.3719 60.9483 31.6376 60.9483 30.7145C60.9273 29.7914 60.7592 29.0571 60.4229 28.5536ZM60.4229 28.5536C60.0866 28.0501 59.5822 27.7983 58.8677 27.7983C58.1531 27.7983 57.6487 28.0501 57.3124 28.5536C56.9762 29.0571 56.808 29.7914 56.808 30.7145C56.808 31.6376 56.9762 32.3719 57.3124 32.8964C57.6487 33.3999 58.1531 33.6517 58.8677 33.6517C59.5822 33.6517 60.0866 33.3999 60.4229 32.8964C60.7592 32.3719 60.9483 31.6376 60.9483 30.7145C60.9273 29.7914 60.7592 29.0571 60.4229 28.5536ZM38.5235 28.5536C38.1873 28.0501 37.7039 27.7564 37.0103 27.7564C36.2958 27.7564 35.7914 28.0291 35.4551 28.5536C35.245 28.8893 35.0978 29.3089 35.0138 29.8334H38.8808C38.8598 29.3299 38.7547 28.8893 38.5235 28.5536ZM24.8627 30.9033C23.7488 30.8824 23.2865 31.302 23.2865 31.302C22.9712 31.5327 22.8031 31.8684 22.8031 32.351C22.8031 32.6447 22.8661 32.8964 22.9712 33.0643C23.0343 33.1692 23.0763 33.2111 23.2865 33.379C23.2865 33.379 23.7698 33.7566 24.8837 33.6937C25.6613 33.6517 26.3549 33.5048 26.3549 33.5048V31.0292C26.3339 31.0292 25.6403 30.9243 24.8627 30.9033ZM24.8627 30.9033C23.7488 30.8824 23.2865 31.302 23.2865 31.302C22.9712 31.5327 22.8031 31.8684 22.8031 32.351C22.8031 32.6447 22.8661 32.8964 22.9712 33.0643C23.0343 33.1692 23.0763 33.2111 23.2865 33.379C23.2865 33.379 23.7698 33.7566 24.8837 33.6937C25.6613 33.6517 26.3549 33.5048 26.3549 33.5048V31.0292C26.3339 31.0292 25.6403 30.9243 24.8627 30.9033ZM38.5235 28.5536C38.1873 28.0501 37.7039 27.7564 37.0103 27.7564C36.2958 27.7564 35.7914 28.0291 35.4551 28.5536C35.245 28.8893 35.0978 29.3089 35.0138 29.8334H38.8808C38.8598 29.3299 38.7547 28.8893 38.5235 28.5536ZM60.4229 28.5536C60.0866 28.0501 59.5822 27.7983 58.8677 27.7983C58.1531 27.7983 57.6487 28.0501 57.3124 28.5536C56.9762 29.0571 56.808 29.7914 56.808 30.7145C56.808 31.6376 56.9762 32.3719 57.3124 32.8964C57.6487 33.3999 58.1531 33.6517 58.8677 33.6517C59.5822 33.6517 60.0866 33.3999 60.4229 32.8964C60.7592 32.3719 60.9483 31.6376 60.9483 30.7145C60.9273 29.7914 60.7592 29.0571 60.4229 28.5536ZM60.4229 28.5536C60.0866 28.0501 59.5822 27.7983 58.8677 27.7983C58.1531 27.7983 57.6487 28.0501 57.3124 28.5536C56.9762 29.0571 56.808 29.7914 56.808 30.7145C56.808 31.6376 56.9762 32.3719 57.3124 32.8964C57.6487 33.3999 58.1531 33.6517 58.8677 33.6517C59.5822 33.6517 60.0866 33.3999 60.4229 32.8964C60.7592 32.3719 60.9483 31.6376 60.9483 30.7145C60.9273 29.7914 60.7592 29.0571 60.4229 28.5536ZM38.5235 28.5536C38.1873 28.0501 37.7039 27.7564 37.0103 27.7564C36.2958 27.7564 35.7914 28.0291 35.4551 28.5536C35.245 28.8893 35.0978 29.3089 35.0138 29.8334H38.8808C38.8598 29.3299 38.7547 28.8893 38.5235 28.5536ZM24.8627 30.9033C23.7488 30.8824 23.2865 31.302 23.2865 31.302C22.9712 31.5327 22.8031 31.8684 22.8031 32.351C22.8031 32.6447 22.8661 32.8964 22.9712 33.0643C23.0343 33.1692 23.0763 33.2111 23.2865 33.379C23.2865 33.379 23.7698 33.7566 24.8837 33.6937C25.6613 33.6517 26.3549 33.5048 26.3549 33.5048V31.0292C26.3339 31.0292 25.6403 30.9243 24.8627 30.9033ZM24.8627 30.9033C23.7488 30.8824 23.2865 31.302 23.2865 31.302C22.9712 31.5327 22.8031 31.8684 22.8031 32.351C22.8031 32.6447 22.8661 32.8964 22.9712 33.0643C23.0343 33.1692 23.0763 33.2111 23.2865 33.379C23.2865 33.379 23.7698 33.7566 24.8837 33.6937C25.6613 33.6517 26.3549 33.5048 26.3549 33.5048V31.0292C26.3339 31.0292 25.6403 30.9243 24.8627 30.9033ZM38.5235 28.5536C38.1873 28.0501 37.7039 27.7564 37.0103 27.7564C36.2958 27.7564 35.7914 28.0291 35.4551 28.5536C35.245 28.8893 35.0978 29.3089 35.0138 29.8334H38.8808C38.8598 29.3299 38.7547 28.8893 38.5235 28.5536ZM60.4229 28.5536C60.0866 28.0501 59.5822 27.7983 58.8677 27.7983C58.1531 27.7983 57.6487 28.0501 57.3124 28.5536C56.9762 29.0571 56.808 29.7914 56.808 30.7145C56.808 31.6376 56.9762 32.3719 57.3124 32.8964C57.6487 33.3999 58.1531 33.6517 58.8677 33.6517C59.5822 33.6517 60.0866 33.3999 60.4229 32.8964C60.7592 32.3719 60.9483 31.6376 60.9483 30.7145C60.9273 29.7914 60.7592 29.0571 60.4229 28.5536ZM60.4229 28.5536C60.0866 28.0501 59.5822 27.7983 58.8677 27.7983C58.1531 27.7983 57.6487 28.0501 57.3124 28.5536C56.9762 29.0571 56.808 29.7914 56.808 30.7145C56.808 31.6376 56.9762 32.3719 57.3124 32.8964C57.6487 33.3999 58.1531 33.6517 58.8677 33.6517C59.5822 33.6517 60.0866 33.3999 60.4229 32.8964C60.7592 32.3719 60.9483 31.6376 60.9483 30.7145C60.9273 29.7914 60.7592 29.0571 60.4229 28.5536ZM38.5235 28.5536C38.1873 28.0501 37.7039 27.7564 37.0103 27.7564C36.2958 27.7564 35.7914 28.0291 35.4551 28.5536C35.245 28.8893 35.0978 29.3089 35.0138 29.8334H38.8808C38.8598 29.3299 38.7547 28.8893 38.5235 28.5536ZM24.8627 30.9033C23.7488 30.8824 23.2865 31.302 23.2865 31.302C22.9712 31.5327 22.8031 31.8684 22.8031 32.351C22.8031 32.6447 22.8661 32.8964 22.9712 33.0643C23.0343 33.1692 23.0763 33.2111 23.2865 33.379C23.2865 33.379 23.7698 33.7566 24.8837 33.6937C25.6613 33.6517 26.3549 33.5048 26.3549 33.5048V31.0292C26.3339 31.0292 25.6403 30.9243 24.8627 30.9033ZM24.8627 30.9033C23.7488 30.8824 23.2865 31.302 23.2865 31.302C22.9712 31.5327 22.8031 31.8684 22.8031 32.351C22.8031 32.6447 22.8661 32.8964 22.9712 33.0643C23.0343 33.1692 23.0763 33.2111 23.2865 33.379C23.2865 33.379 23.7698 33.7566 24.8837 33.6937C25.6613 33.6517 26.3549 33.5048 26.3549 33.5048V31.0292C26.3339 31.0292 25.6403 30.9243 24.8627 30.9033ZM38.5235 28.5536C38.1873 28.0501 37.7039 27.7564 37.0103 27.7564C36.2958 27.7564 35.7914 28.0291 35.4551 28.5536C35.245 28.8893 35.0978 29.3089 35.0138 29.8334H38.8808C38.8598 29.3299 38.7547 28.8893 38.5235 28.5536ZM60.4229 28.5536C60.0866 28.0501 59.5822 27.7983 58.8677 27.7983C58.1531 27.7983 57.6487 28.0501 57.3124 28.5536C56.9762 29.0571 56.808 29.7914 56.808 30.7145C56.808 31.6376 56.9762 32.3719 57.3124 32.8964C57.6487 33.3999 58.1531 33.6517 58.8677 33.6517C59.5822 33.6517 60.0866 33.3999 60.4229 32.8964C60.7592 32.3719 60.9483 31.6376 60.9483 30.7145C60.9273 29.7914 60.7592 29.0571 60.4229 28.5536ZM60.4229 28.5536C60.0866 28.0501 59.5822 27.7983 58.8677 27.7983C58.1531 27.7983 57.6487 28.0501 57.3124 28.5536C56.9762 29.0571 56.808 29.7914 56.808 30.7145C56.808 31.6376 56.9762 32.3719 57.3124 32.8964C57.6487 33.3999 58.1531 33.6517 58.8677 33.6517C59.5822 33.6517 60.0866 33.3999 60.4229 32.8964C60.7592 32.3719 60.9483 31.6376 60.9483 30.7145C60.9273 29.7914 60.7592 29.0571 60.4229 28.5536ZM38.5235 28.5536C38.1873 28.0501 37.7039 27.7564 37.0103 27.7564C36.2958 27.7564 35.7914 28.0291 35.4551 28.5536C35.245 28.8893 35.0978 29.3089 35.0138 29.8334H38.8808C38.8598 29.3299 38.7547 28.8893 38.5235 28.5536ZM24.8627 30.9033C23.7488 30.8824 23.2865 31.302 23.2865 31.302C22.9712 31.5327 22.8031 31.8684 22.8031 32.351C22.8031 32.6447 22.8661 32.8964 22.9712 33.0643C23.0343 33.1692 23.0763 33.2111 23.2865 33.379C23.2865 33.379 23.7698 33.7566 24.8837 33.6937C25.6613 33.6517 26.3549 33.5048 26.3549 33.5048V31.0292C26.3339 31.0292 25.6403 30.9243 24.8627 30.9033ZM24.8627 30.9033C23.7488 30.8824 23.2865 31.302 23.2865 31.302C22.9712 31.5327 22.8031 31.8684 22.8031 32.351C22.8031 32.6447 22.8661 32.8964 22.9712 33.0643C23.0343 33.1692 23.0763 33.2111 23.2865 33.379C23.2865 33.379 23.7698 33.7566 24.8837 33.6937C25.6613 33.6517 26.3549 33.5048 26.3549 33.5048V31.0292C26.3339 31.0292 25.6403 30.9243 24.8627 30.9033ZM38.5235 28.5536C38.1873 28.0501 37.7039 27.7564 37.0103 27.7564C36.2958 27.7564 35.7914 28.0291 35.4551 28.5536C35.245 28.8893 35.0978 29.3089 35.0138 29.8334H38.8808C38.8598 29.3299 38.7547 28.8893 38.5235 28.5536ZM60.4229 28.5536C60.0866 28.0501 59.5822 27.7983 58.8677 27.7983C58.1531 27.7983 57.6487 28.0501 57.3124 28.5536C56.9762 29.0571 56.808 29.7914 56.808 30.7145C56.808 31.6376 56.9762 32.3719 57.3124 32.8964C57.6487 33.3999 58.1531 33.6517 58.8677 33.6517C59.5822 33.6517 60.0866 33.3999 60.4229 32.8964C60.7592 32.3719 60.9483 31.6376 60.9483 30.7145C60.9273 29.7914 60.7592 29.0571 60.4229 28.5536ZM60.4229 28.5536C60.0866 28.0501 59.5822 27.7983 58.8677 27.7983C58.1531 27.7983 57.6487 28.0501 57.3124 28.5536C56.9762 29.0571 56.808 29.7914 56.808 30.7145C56.808 31.6376 56.9762 32.3719 57.3124 32.8964C57.6487 33.3999 58.1531 33.6517 58.8677 33.6517C59.5822 33.6517 60.0866 33.3999 60.4229 32.8964C60.7592 32.3719 60.9483 31.6376 60.9483 30.7145C60.9273 29.7914 60.7592 29.0571 60.4229 28.5536ZM38.5235 28.5536C38.1873 28.0501 37.7039 27.7564 37.0103 27.7564C36.2958 27.7564 35.7914 28.0291 35.4551 28.5536C35.245 28.8893 35.0978 29.3089 35.0138 29.8334H38.8808C38.8598 29.3299 38.7547 28.8893 38.5235 28.5536ZM24.8627 30.9033C23.7488 30.8824 23.2865 31.302 23.2865 31.302C22.9712 31.5327 22.8031 31.8684 22.8031 32.351C22.8031 32.6447 22.8661 32.8964 22.9712 33.0643C23.0343 33.1692 23.0763 33.2111 23.2865 33.379C23.2865 33.379 23.7698 33.7566 24.8837 33.6937C25.6613 33.6517 26.3549 33.5048 26.3549 33.5048V31.0292C26.3339 31.0292 25.6403 30.9243 24.8627 30.9033ZM24.8627 30.9033C23.7488 30.8824 23.2865 31.302 23.2865 31.302C22.9712 31.5327 22.8031 31.8684 22.8031 32.351C22.8031 32.6447 22.8661 32.8964 22.9712 33.0643C23.0343 33.1692 23.0763 33.2111 23.2865 33.379C23.2865 33.379 23.7698 33.7566 24.8837 33.6937C25.6613 33.6517 26.3549 33.5048 26.3549 33.5048V31.0292C26.3339 31.0292 25.6403 30.9243 24.8627 30.9033ZM38.5235 28.5536C38.1873 28.0501 37.7039 27.7564 37.0103 27.7564C36.2958 27.7564 35.7914 28.0291 35.4551 28.5536C35.245 28.8893 35.0978 29.3089 35.0138 29.8334H38.8808C38.8598 29.3299 38.7547 28.8893 38.5235 28.5536ZM60.4229 28.5536C60.0866 28.0501 59.5822 27.7983 58.8677 27.7983C58.1531 27.7983 57.6487 28.0501 57.3124 28.5536C56.9762 29.0571 56.808 29.7914 56.808 30.7145C56.808 31.6376 56.9762 32.3719 57.3124 32.8964C57.6487 33.3999 58.1531 33.6517 58.8677 33.6517C59.5822 33.6517 60.0866 33.3999 60.4229 32.8964C60.7592 32.3719 60.9483 31.6376 60.9483 30.7145C60.9273 29.7914 60.7592 29.0571 60.4229 28.5536ZM60.4229 28.5536C60.0866 28.0501 59.5822 27.7983 58.8677 27.7983C58.1531 27.7983 57.6487 28.0501 57.3124 28.5536C56.9762 29.0571 56.808 29.7914 56.808 30.7145C56.808 31.6376 56.9762 32.3719 57.3124 32.8964C57.6487 33.3999 58.1531 33.6517 58.8677 33.6517C59.5822 33.6517 60.0866 33.3999 60.4229 32.8964C60.7592 32.3719 60.9483 31.6376 60.9483 30.7145C60.9273 29.7914 60.7592 29.0571 60.4229 28.5536ZM38.5235 28.5536C38.1873 28.0501 37.7039 27.7564 37.0103 27.7564C36.2958 27.7564 35.7914 28.0291 35.4551 28.5536C35.245 28.8893 35.0978 29.3089 35.0138 29.8334H38.8808C38.8598 29.3299 38.7547 28.8893 38.5235 28.5536ZM24.8627 30.9033C23.7488 30.8824 23.2865 31.302 23.2865 31.302C22.9712 31.5327 22.8031 31.8684 22.8031 32.351C22.8031 32.6447 22.8661 32.8964 22.9712 33.0643C23.0343 33.1692 23.0763 33.2111 23.2865 33.379C23.2865 33.379 23.7698 33.7566 24.8837 33.6937C25.6613 33.6517 26.3549 33.5048 26.3549 33.5048V31.0292C26.3339 31.0292 25.6403 30.9243 24.8627 30.9033ZM24.8627 30.9033C23.7488 30.8824 23.2865 31.302 23.2865 31.302C22.9712 31.5327 22.8031 31.8684 22.8031 32.351C22.8031 32.6447 22.8661 32.8964 22.9712 33.0643C23.0343 33.1692 23.0763 33.2111 23.2865 33.379C23.2865 33.379 23.7698 33.7566 24.8837 33.6937C25.6613 33.6517 26.3549 33.5048 26.3549 33.5048V31.0292C26.3339 31.0292 25.6403 30.9243 24.8627 30.9033ZM38.5235 28.5536C38.1873 28.0501 37.7039 27.7564 37.0103 27.7564C36.2958 27.7564 35.7914 28.0291 35.4551 28.5536C35.245 28.8893 35.0978 29.3089 35.0138 29.8334H38.8808C38.8598 29.3299 38.7547 28.8893 38.5235 28.5536ZM60.4229 28.5536C60.0866 28.0501 59.5822 27.7983 58.8677 27.7983C58.1531 27.7983 57.6487 28.0501 57.3124 28.5536C56.9762 29.0571 56.808 29.7914 56.808 30.7145C56.808 31.6376 56.9762 32.3719 57.3124 32.8964C57.6487 33.3999 58.1531 33.6517 58.8677 33.6517C59.5822 33.6517 60.0866 33.3999 60.4229 32.8964C60.7592 32.3719 60.9483 31.6376 60.9483 30.7145C60.9273 29.7914 60.7592 29.0571 60.4229 28.5536ZM60.4229 28.5536C60.0866 28.0501 59.5822 27.7983 58.8677 27.7983C58.1531 27.7983 57.6487 28.0501 57.3124 28.5536C56.9762 29.0571 56.808 29.7914 56.808 30.7145C56.808 31.6376 56.9762 32.3719 57.3124 32.8964C57.6487 33.3999 58.1531 33.6517 58.8677 33.6517C59.5822 33.6517 60.0866 33.3999 60.4229 32.8964C60.7592 32.3719 60.9483 31.6376 60.9483 30.7145C60.9273 29.7914 60.7592 29.0571 60.4229 28.5536ZM38.5235 28.5536C38.1873 28.0501 37.7039 27.7564 37.0103 27.7564C36.2958 27.7564 35.7914 28.0291 35.4551 28.5536C35.245 28.8893 35.0978 29.3089 35.0138 29.8334H38.8808C38.8598 29.3299 38.7547 28.8893 38.5235 28.5536ZM24.8627 30.9033C23.7488 30.8824 23.2865 31.302 23.2865 31.302C22.9712 31.5327 22.8031 31.8684 22.8031 32.351C22.8031 32.6447 22.8661 32.8964 22.9712 33.0643C23.0343 33.1692 23.0763 33.2111 23.2865 33.379C23.2865 33.379 23.7698 33.7566 24.8837 33.6937C25.6613 33.6517 26.3549 33.5048 26.3549 33.5048V31.0292C26.3339 31.0292 25.6403 30.9243 24.8627 30.9033ZM24.8627 30.9033C23.7488 30.8824 23.2865 31.302 23.2865 31.302C22.9712 31.5327 22.8031 31.8684 22.8031 32.351C22.8031 32.6447 22.8661 32.8964 22.9712 33.0643C23.0343 33.1692 23.0763 33.2111 23.2865 33.379C23.2865 33.379 23.7698 33.7566 24.8837 33.6937C25.6613 33.6517 26.3549 33.5048 26.3549 33.5048V31.0292C26.3339 31.0292 25.6403 30.9243 24.8627 30.9033ZM38.5235 28.5536C38.1873 28.0501 37.7039 27.7564 37.0103 27.7564C36.2958 27.7564 35.7914 28.0291 35.4551 28.5536C35.245 28.8893 35.0978 29.3089 35.0138 29.8334H38.8808C38.8598 29.3299 38.7547 28.8893 38.5235 28.5536ZM60.4229 28.5536C60.0866 28.0501 59.5822 27.7983 58.8677 27.7983C58.1531 27.7983 57.6487 28.0501 57.3124 28.5536C56.9762 29.0571 56.808 29.7914 56.808 30.7145C56.808 31.6376 56.9762 32.3719 57.3124 32.8964C57.6487 33.3999 58.1531 33.6517 58.8677 33.6517C59.5822 33.6517 60.0866 33.3999 60.4229 32.8964C60.7592 32.3719 60.9483 31.6376 60.9483 30.7145C60.9273 29.7914 60.7592 29.0571 60.4229 28.5536ZM60.4229 28.5536C60.0866 28.0501 59.5822 27.7983 58.8677 27.7983C58.1531 27.7983 57.6487 28.0501 57.3124 28.5536C56.9762 29.0571 56.808 29.7914 56.808 30.7145C56.808 31.6376 56.9762 32.3719 57.3124 32.8964C57.6487 33.3999 58.1531 33.6517 58.8677 33.6517C59.5822 33.6517 60.0866 33.3999 60.4229 32.8964C60.7592 32.3719 60.9483 31.6376 60.9483 30.7145C60.9273 29.7914 60.7592 29.0571 60.4229 28.5536ZM38.5235 28.5536C38.1873 28.0501 37.7039 27.7564 37.0103 27.7564C36.2958 27.7564 35.7914 28.0291 35.4551 28.5536C35.245 28.8893 35.0978 29.3089 35.0138 29.8334H38.8808C38.8598 29.3299 38.7547 28.8893 38.5235 28.5536ZM24.8627 30.9033C23.7488 30.8824 23.2865 31.302 23.2865 31.302C22.9712 31.5327 22.8031 31.8684 22.8031 32.351C22.8031 32.6447 22.8661 32.8964 22.9712 33.0643C23.0343 33.1692 23.0763 33.2111 23.2865 33.379C23.2865 33.379 23.7698 33.7566 24.8837 33.6937C25.6613 33.6517 26.3549 33.5048 26.3549 33.5048V31.0292C26.3339 31.0292 25.6403 30.9243 24.8627 30.9033ZM24.8627 30.9033C23.7488 30.8824 23.2865 31.302 23.2865 31.302C22.9712 31.5327 22.8031 31.8684 22.8031 32.351C22.8031 32.6447 22.8661 32.8964 22.9712 33.0643C23.0343 33.1692 23.0763 33.2111 23.2865 33.379C23.2865 33.379 23.7698 33.7566 24.8837 33.6937C25.6613 33.6517 26.3549 33.5048 26.3549 33.5048V31.0292C26.3339 31.0292 25.6403 30.9243 24.8627 30.9033ZM38.5235 28.5536C38.1873 28.0501 37.7039 27.7564 37.0103 27.7564C36.2958 27.7564 35.7914 28.0291 35.4551 28.5536C35.245 28.8893 35.0978 29.3089 35.0138 29.8334H38.8808C38.8598 29.3299 38.7547 28.8893 38.5235 28.5536ZM60.4229 28.5536C60.0866 28.0501 59.5822 27.7983 58.8677 27.7983C58.1531 27.7983 57.6487 28.0501 57.3124 28.5536C56.9762 29.0571 56.808 29.7914 56.808 30.7145C56.808 31.6376 56.9762 32.3719 57.3124 32.8964C57.6487 33.3999 58.1531 33.6517 58.8677 33.6517C59.5822 33.6517 60.0866 33.3999 60.4229 32.8964C60.7592 32.3719 60.9483 31.6376 60.9483 30.7145C60.9273 29.7914 60.7592 29.0571 60.4229 28.5536ZM60.4229 28.5536C60.0866 28.0501 59.5822 27.7983 58.8677 27.7983C58.1531 27.7983 57.6487 28.0501 57.3124 28.5536C56.9762 29.0571 56.808 29.7914 56.808 30.7145C56.808 31.6376 56.9762 32.3719 57.3124 32.8964C57.6487 33.3999 58.1531 33.6517 58.8677 33.6517C59.5822 33.6517 60.0866 33.3999 60.4229 32.8964C60.7592 32.3719 60.9483 31.6376 60.9483 30.7145C60.9273 29.7914 60.7592 29.0571 60.4229 28.5536ZM38.5235 28.5536C38.1873 28.0501 37.7039 27.7564 37.0103 27.7564C36.2958 27.7564 35.7914 28.0291 35.4551 28.5536C35.245 28.8893 35.0978 29.3089 35.0138 29.8334H38.8808C38.8598 29.3299 38.7547 28.8893 38.5235 28.5536ZM24.8627 30.9033C23.7488 30.8824 23.2865 31.302 23.2865 31.302C22.9712 31.5327 22.8031 31.8684 22.8031 32.351C22.8031 32.6447 22.8661 32.8964 22.9712 33.0643C23.0343 33.1692 23.0763 33.2111 23.2865 33.379C23.2865 33.379 23.7698 33.7566 24.8837 33.6937C25.6613 33.6517 26.3549 33.5048 26.3549 33.5048V31.0292C26.3339 31.0292 25.6403 30.9243 24.8627 30.9033ZM73.5163 8.85354C70.616 8.85354 67.8418 9.48293 65.3408 10.5949C62.4615 5.47578 57.0813 2.03509 50.8813 2.03509C46.2156 2.03509 42.0123 3.98621 39.0069 7.13319C35.6863 2.79036 30.4321 4.13762e-05 24.5264 4.13762e-05C14.4805 -0.0209384 6.32601 8.09826 6.32601 18.1266C6.32601 20.6862 6.85143 23.1408 7.8182 25.3437C3.1525 28.0711 0 33.1692 0 39.0016C0 47.7082 6.99855 54.7784 15.6364 54.7784C16.7293 54.7784 17.8221 54.6735 18.8519 54.4427C21.2268 60.8626 27.4057 65.4571 34.6565 65.4571C41.634 65.4571 47.6027 61.2402 50.1668 55.198C52.1213 56.1421 54.3071 56.6876 56.6189 56.6876C62.1463 56.6876 66.9801 53.6455 69.5021 49.1348C70.7841 49.3866 72.1292 49.5334 73.4743 49.5334C84.6341 49.5334 93.6713 40.4282 93.6713 29.183C93.7133 17.9588 84.6761 8.85354 73.5163 8.85354ZM20.0709 32.4559C20.0709 34.0923 18.873 35.1203 16.9604 35.1203C16.0147 35.1203 15.111 34.9734 14.1652 34.4699C13.9761 34.365 13.8079 34.2811 13.6398 34.1552C13.6188 34.1342 13.5347 34.0923 13.5978 33.9454L13.9761 32.8964C14.0391 32.7076 14.1652 32.7705 14.2283 32.8125C14.3334 32.8755 14.4174 32.9384 14.5435 33.0223C15.6574 33.7356 16.6872 33.7356 17.0235 33.7356C17.8642 33.7356 18.3686 33.295 18.3686 32.7076V32.6657C18.3686 32.0153 17.5699 31.7635 16.6452 31.4908L16.435 31.4278C15.174 31.0712 13.8079 30.5467 13.8079 28.9522V28.9103C13.8079 27.3997 15.0269 26.3297 16.7923 26.3297H16.9815C18.0113 26.3297 19.0201 26.6235 19.7347 27.064C19.7977 27.106 19.8607 27.1689 19.8187 27.2738C19.7767 27.3578 19.4614 28.2179 19.4194 28.3228C19.3563 28.5116 19.1672 28.3858 19.1672 28.3858C18.5367 28.0291 17.5489 27.7564 16.7293 27.7564C15.9937 27.7564 15.5103 28.155 15.5103 28.6795V28.7005C15.5103 29.3299 16.33 29.6026 17.2967 29.8963L17.4649 29.9383C18.7259 30.3369 20.0709 30.8824 20.0709 32.4139V32.4559ZM27.9312 34.5958C27.9312 34.5958 27.721 34.6587 27.5528 34.7007C27.3637 34.7427 26.7122 34.8685 26.1868 34.9734C25.6403 35.0574 25.0939 35.1203 24.5264 35.1203C24.001 35.1203 23.5177 35.0783 23.0973 34.9734C22.677 34.8685 22.2987 34.7217 21.9834 34.4909C21.6682 34.2811 21.437 33.9874 21.2689 33.6517C21.1007 33.316 21.0167 32.8964 21.0167 32.4139C21.0167 31.9523 21.1217 31.5327 21.3109 31.1551C21.5 30.7985 21.7733 30.5047 22.1095 30.253C22.4458 30.0222 22.8241 29.8334 23.2444 29.7285C23.6648 29.6236 24.1061 29.5606 24.5895 29.5606C24.9258 29.5606 25.22 29.5606 25.4302 29.5816C25.4302 29.5816 25.8505 29.6236 26.3339 29.6865V29.4557C26.3339 28.7214 26.1868 28.3858 25.8925 28.155C25.5983 27.9242 25.1359 27.7983 24.5475 27.7983C24.5475 27.7983 23.2234 27.7774 22.1936 28.3438C22.1516 28.3648 22.1095 28.3858 22.1095 28.3858C22.1095 28.3858 21.9834 28.4277 21.9414 28.3018L21.5631 27.2738C21.5 27.127 21.6051 27.064 21.6051 27.064C22.0885 26.6864 23.2865 26.4556 23.2865 26.4556C23.6858 26.3717 24.3373 26.3297 24.7366 26.3297C25.8295 26.3297 26.6702 26.5815 27.2376 27.085C27.8051 27.5885 28.0993 28.3858 28.0993 29.4767V34.428C28.0572 34.428 28.0783 34.5538 27.9312 34.5958ZM31.588 34.7427C31.588 34.8266 31.525 34.9105 31.4409 34.9105H29.9908C29.9067 34.9105 29.8437 34.8266 29.8437 34.7427V23.1618C29.8437 23.0779 29.9067 22.9939 29.9908 22.9939H31.4409C31.525 22.9939 31.588 23.0569 31.588 23.1618V34.7427ZM40.5832 31.0292C40.5622 31.1761 40.4151 31.1761 40.4151 31.1761H34.9927C35.0348 31.9943 35.2239 32.5817 35.6232 32.9803C36.0226 33.358 36.6321 33.6097 37.4727 33.6097C38.7547 33.6097 39.3222 33.358 39.7005 33.2111C39.7005 33.2111 39.8476 33.1692 39.9107 33.316L40.2679 34.3021C40.331 34.4699 40.2889 34.5329 40.2259 34.5538C39.8896 34.7427 39.07 35.0993 37.4937 35.0993C36.7371 35.0993 36.0646 34.9944 35.5182 34.7846C34.9717 34.5748 34.5094 34.2601 34.1521 33.8825C33.7948 33.5048 33.5216 33.0433 33.3534 32.4978C33.1853 31.9733 33.1012 31.3859 33.1012 30.7775C33.1012 30.169 33.1853 29.5816 33.3324 29.0571C33.5006 28.5116 33.7317 28.0501 34.068 27.6515C34.4043 27.2529 34.8246 26.9382 35.329 26.7074C35.8334 26.4766 36.4429 26.3507 37.1154 26.3507C37.7039 26.3507 38.2293 26.4766 38.6707 26.6654C39.0069 26.8123 39.3432 27.064 39.7005 27.4417C39.9107 27.6724 40.2679 28.1969 40.394 28.7005C40.7723 29.9173 40.5832 30.9663 40.5832 31.0292ZM45.1018 35.1203C44.156 35.1203 43.2523 34.9734 42.3065 34.4699C42.1174 34.365 41.9493 34.2811 41.7811 34.1552C41.7601 34.1342 41.676 34.0923 41.7391 33.9454L42.1174 32.8964C42.1804 32.7286 42.3276 32.7915 42.3696 32.8125C42.4747 32.8755 42.5587 32.9384 42.6848 33.0223C43.7987 33.7356 44.8285 33.7356 45.1648 33.7356C46.0055 33.7356 46.5309 33.295 46.5309 32.7076V32.6657C46.5309 32.0153 45.7323 31.7635 44.8075 31.4908L44.5974 31.4278C43.3364 31.0712 41.9703 30.5467 41.9703 28.9522V28.9103C41.9703 27.3997 43.1892 26.3297 44.9546 26.3297H45.1438C46.1736 26.3297 47.1824 26.6235 47.897 27.064C47.96 27.106 48.0231 27.1689 47.981 27.2738C47.939 27.3578 47.6238 28.2179 47.5817 28.3228C47.5187 28.5116 47.3295 28.3858 47.3295 28.3858C46.699 28.0291 45.7112 27.7564 44.8916 27.7564C44.135 27.7564 43.6726 28.155 43.6726 28.6795V28.7005C43.6726 29.3299 44.4923 29.6026 45.438 29.8963L45.6062 29.9383C46.8672 30.3369 48.2122 30.8824 48.2122 32.4139V32.4559C48.2122 34.1133 47.0143 35.1203 45.1018 35.1203ZM54.5803 27.7983C54.5593 27.9662 54.3911 27.9662 54.3911 27.9662H52.6047L51.3857 34.8685C51.2596 35.5819 51.0915 36.1903 50.9024 36.6938C50.7132 37.1973 50.503 37.554 50.1878 37.9106C49.8936 38.2253 49.5573 38.4771 49.179 38.6029C48.8007 38.7288 48.3383 38.8127 47.8549 38.8127C47.6238 38.8127 47.3716 38.8127 47.0563 38.7288C46.8461 38.6869 46.72 38.6449 46.5519 38.582C46.4889 38.561 46.4258 38.4771 46.4678 38.3722C46.5099 38.2673 46.8251 37.3861 46.8672 37.2812C46.9302 37.1344 47.0563 37.1973 47.0563 37.1973C47.1614 37.2393 47.2244 37.2602 47.3505 37.2812C47.4766 37.3022 47.6658 37.3232 47.7919 37.3232C48.0231 37.3232 48.2543 37.3022 48.4224 37.2393C48.6536 37.1553 48.7797 37.0295 48.9268 36.8616C49.0739 36.6728 49.179 36.421 49.3051 36.0854C49.4312 35.7497 49.5363 35.2881 49.6203 34.7427L50.8393 27.9662H49.6414C49.4942 27.9662 49.4522 27.9032 49.4732 27.7983L49.6834 26.6654C49.7044 26.5186 49.8515 26.4976 49.8725 26.4976H51.1125L51.1756 26.1199C51.3647 25.029 51.722 24.2108 52.2684 23.6653C52.8149 23.1198 53.5925 22.8471 54.5803 22.8471C54.8535 22.8471 55.1057 22.8681 55.3159 22.91C55.526 22.952 55.6732 22.973 55.8623 23.0359C55.9043 23.0569 56.0094 23.0988 55.9674 23.2247L55.547 24.3576C55.505 24.4416 55.484 24.5045 55.3159 24.4416C55.2738 24.4206 55.2108 24.3996 55.0426 24.3786C54.9165 24.3576 54.7694 24.3367 54.6013 24.3367C54.3911 24.3367 54.181 24.3576 54.0128 24.4206C53.8447 24.4835 53.6976 24.5674 53.5505 24.6933C53.4033 24.8402 53.2562 25.029 53.1722 25.2808C52.962 25.8472 52.8989 26.4556 52.8779 26.4976H54.6223C54.7694 26.4976 54.8115 26.5605 54.7905 26.6654L54.5803 27.7983ZM62.5246 32.4349C62.3564 32.9594 62.1253 33.4419 61.789 33.8195C61.4527 34.2182 61.0534 34.5329 60.549 34.7427C60.0656 34.9734 59.4772 35.0783 58.8256 35.0783C58.1741 35.0783 57.6067 34.9734 57.1023 34.7427C56.6189 34.5119 56.1986 34.1972 55.8623 33.8195C55.526 33.4209 55.2949 32.9594 55.1267 32.4349C54.9796 31.9104 54.8955 31.3229 54.8955 30.7145C54.8955 30.1061 54.9796 29.5187 55.1267 28.9942C55.2949 28.4697 55.526 27.9871 55.8623 27.6095C56.1776 27.2109 56.5979 26.8962 57.1023 26.6654C57.5857 26.4346 58.1741 26.3297 58.8256 26.3297C59.4772 26.3297 60.0446 26.4346 60.549 26.6654C61.0324 26.8962 61.4527 27.2109 61.789 27.6095C62.1253 28.0081 62.3564 28.4697 62.5246 28.9942C62.6717 29.5187 62.7558 30.1061 62.7558 30.7145C62.7768 31.3229 62.6927 31.9104 62.5246 32.4349ZM69.2499 26.7703C69.2079 26.9172 68.9347 27.6515 68.8506 27.9032C68.8086 27.9872 68.7665 28.0711 68.6404 28.0501C68.6404 28.0501 68.3252 27.9662 68.052 27.9662C67.8628 27.9662 67.5686 27.9872 67.3164 28.0711C67.0642 28.155 66.854 28.2809 66.6438 28.4697C66.4337 28.6585 66.2866 28.9312 66.1605 29.2669C66.0344 29.6026 65.9923 30.1481 65.9923 30.6935V34.7427C65.9923 34.8266 65.9083 34.9105 65.8242 34.9105H64.3951C64.311 34.9105 64.2269 34.8476 64.2269 34.7427V26.6654C64.2269 26.5815 64.29 26.4976 64.374 26.4976H65.7611C65.8452 26.4976 65.9083 26.5605 65.9083 26.6654V27.3158C66.1184 27.0431 66.4967 26.7913 66.833 26.6444C67.1693 26.4976 67.5476 26.3717 68.2411 26.4137C68.5984 26.4346 69.0608 26.5395 69.1448 26.5605C69.2079 26.5815 69.2919 26.6444 69.2499 26.7703ZM76.0383 34.6797C75.4288 34.9105 74.5882 35.0783 73.7685 35.0783C72.3814 35.0783 71.3095 34.6797 70.595 33.8825C69.8804 33.1062 69.5231 32.0153 69.5231 30.6935C69.5231 30.0851 69.6072 29.4977 69.7753 28.9732C69.9435 28.4487 70.2167 27.9662 70.5529 27.5885C70.8892 27.1899 71.3306 26.8752 71.856 26.6444C72.3604 26.4137 72.9699 26.3088 73.6424 26.3088C74.1048 26.3088 74.5041 26.3297 74.8403 26.3927C75.2187 26.4556 75.702 26.5815 75.9122 26.6654C75.9542 26.6864 76.0593 26.7284 76.0173 26.8542C75.8702 27.2738 75.7651 27.5676 75.618 27.9452C75.5549 28.113 75.4288 28.0501 75.4288 28.0501C74.9034 27.8822 74.399 27.8193 73.7265 27.8193C72.9278 27.8193 72.3394 28.092 71.94 28.5956C71.5407 29.1201 71.3306 29.7914 71.3306 30.6935C71.3306 31.7006 71.5828 32.4349 72.0241 32.8755C72.4655 33.337 73.0749 33.5678 73.8526 33.5678C74.1678 33.5678 74.462 33.5468 74.7353 33.5048C75.0085 33.4629 75.2397 33.379 75.4708 33.2951C75.4708 33.2951 75.618 33.2321 75.681 33.4L76.0803 34.4909C76.1644 34.6378 76.0383 34.6797 76.0383 34.6797ZM84.0877 31.0292C84.0667 31.1761 83.9195 31.1761 83.9195 31.1761H78.4972C78.5393 31.9943 78.7284 32.5817 79.1278 32.9803C79.5271 33.358 80.1366 33.6097 80.9772 33.6097C82.2592 33.6097 82.8267 33.358 83.205 33.2111C83.205 33.2111 83.3521 33.1692 83.4151 33.316L83.7724 34.3021C83.8355 34.4699 83.7934 34.5329 83.7304 34.5538C83.3941 34.7427 82.5745 35.0993 80.9982 35.0993C80.2416 35.0993 79.5691 34.9944 79.0227 34.7846C78.4762 34.5748 78.0139 34.2601 77.6566 33.8825C77.2993 33.5048 77.0261 33.0433 76.879 32.4978C76.7108 31.9733 76.6268 31.3859 76.6268 30.7775C76.6268 30.169 76.7108 29.5816 76.8579 29.0571C77.0261 28.5116 77.2573 28.0501 77.5935 27.6515C77.9298 27.2529 78.3501 26.9382 78.8545 26.7074C79.3589 26.4766 79.9684 26.3507 80.6409 26.3507C81.2294 26.3507 81.7548 26.4766 82.1962 26.6654C82.5324 26.8123 82.8687 27.064 83.226 27.4417C83.4362 27.6724 83.7724 28.1969 83.9195 28.7005C84.2768 29.9173 84.0877 30.9663 84.0877 31.0292ZM58.8467 27.7983C58.1321 27.7983 57.6277 28.0501 57.2914 28.5536C56.9552 29.0571 56.787 29.7914 56.787 30.7145C56.787 31.6376 56.9552 32.3719 57.2914 32.8964C57.6277 33.3999 58.1321 33.6517 58.8467 33.6517C59.5612 33.6517 60.0656 33.3999 60.4019 32.8964C60.7382 32.3719 60.9273 31.6376 60.9273 30.7145C60.9273 29.7914 60.7592 29.0571 60.4019 28.5536C60.0656 28.0501 59.5612 27.7983 58.8467 27.7983ZM37.0103 27.7564C36.2958 27.7564 35.7914 28.0291 35.4551 28.5536C35.245 28.8893 35.0978 29.3089 35.0138 29.8334H38.8808C38.8388 29.3299 38.7337 28.8893 38.5235 28.5536C38.1873 28.0501 37.7249 27.7564 37.0103 27.7564ZM23.2865 31.302C22.9712 31.5327 22.8031 31.8684 22.8031 32.351C22.8031 32.6447 22.8661 32.8964 22.9712 33.0643C23.0343 33.1692 23.0763 33.2111 23.2865 33.379C23.2865 33.379 23.7698 33.7566 24.8837 33.6937C25.6613 33.6517 26.3549 33.5048 26.3549 33.5048V31.0292C26.3549 31.0292 25.6613 30.9243 24.8837 30.9033C23.7488 30.9033 23.2865 31.302 23.2865 31.302ZM24.8627 30.9033C23.7488 30.8824 23.2865 31.302 23.2865 31.302C22.9712 31.5327 22.8031 31.8684 22.8031 32.351C22.8031 32.6447 22.8661 32.8964 22.9712 33.0643C23.0343 33.1692 23.0763 33.2111 23.2865 33.379C23.2865 33.379 23.7698 33.7566 24.8837 33.6937C25.6613 33.6517 26.3549 33.5048 26.3549 33.5048V31.0292C26.3339 31.0292 25.6403 30.9243 24.8627 30.9033ZM38.5235 28.5536C38.1873 28.0501 37.7039 27.7564 37.0103 27.7564C36.2958 27.7564 35.7914 28.0291 35.4551 28.5536C35.245 28.8893 35.0978 29.3089 35.0138 29.8334H38.8808C38.8598 29.3299 38.7547 28.8893 38.5235 28.5536ZM60.4229 28.5536C60.0866 28.0501 59.5822 27.7983 58.8677 27.7983C58.1531 27.7983 57.6487 28.0501 57.3124 28.5536C56.9762 29.0571 56.808 29.7914 56.808 30.7145C56.808 31.6376 56.9762 32.3719 57.3124 32.8964C57.6487 33.3999 58.1531 33.6517 58.8677 33.6517C59.5822 33.6517 60.0866 33.3999 60.4229 32.8964C60.7592 32.3719 60.9483 31.6376 60.9483 30.7145C60.9273 29.7914 60.7592 29.0571 60.4229 28.5536ZM60.4229 28.5536C60.0866 28.0501 59.5822 27.7983 58.8677 27.7983C58.1531 27.7983 57.6487 28.0501 57.3124 28.5536C56.9762 29.0571 56.808 29.7914 56.808 30.7145C56.808 31.6376 56.9762 32.3719 57.3124 32.8964C57.6487 33.3999 58.1531 33.6517 58.8677 33.6517C59.5822 33.6517 60.0866 33.3999 60.4229 32.8964C60.7592 32.3719 60.9483 31.6376 60.9483 30.7145C60.9273 29.7914 60.7592 29.0571 60.4229 28.5536ZM38.5235 28.5536C38.1873 28.0501 37.7039 27.7564 37.0103 27.7564C36.2958 27.7564 35.7914 28.0291 35.4551 28.5536C35.245 28.8893 35.0978 29.3089 35.0138 29.8334H38.8808C38.8598 29.3299 38.7547 28.8893 38.5235 28.5536ZM24.8627 30.9033C23.7488 30.8824 23.2865 31.302 23.2865 31.302C22.9712 31.5327 22.8031 31.8684 22.8031 32.351C22.8031 32.6447 22.8661 32.8964 22.9712 33.0643C23.0343 33.1692 23.0763 33.2111 23.2865 33.379C23.2865 33.379 23.7698 33.7566 24.8837 33.6937C25.6613 33.6517 26.3549 33.5048 26.3549 33.5048V31.0292C26.3339 31.0292 25.6403 30.9243 24.8627 30.9033ZM24.8627 30.9033C23.7488 30.8824 23.2865 31.302 23.2865 31.302C22.9712 31.5327 22.8031 31.8684 22.8031 32.351C22.8031 32.6447 22.8661 32.8964 22.9712 33.0643C23.0343 33.1692 23.0763 33.2111 23.2865 33.379C23.2865 33.379 23.7698 33.7566 24.8837 33.6937C25.6613 33.6517 26.3549 33.5048 26.3549 33.5048V31.0292C26.3339 31.0292 25.6403 30.9243 24.8627 30.9033ZM38.5235 28.5536C38.1873 28.0501 37.7039 27.7564 37.0103 27.7564C36.2958 27.7564 35.7914 28.0291 35.4551 28.5536C35.245 28.8893 35.0978 29.3089 35.0138 29.8334H38.8808C38.8598 29.3299 38.7547 28.8893 38.5235 28.5536ZM60.4229 28.5536C60.0866 28.0501 59.5822 27.7983 58.8677 27.7983C58.1531 27.7983 57.6487 28.0501 57.3124 28.5536C56.9762 29.0571 56.808 29.7914 56.808 30.7145C56.808 31.6376 56.9762 32.3719 57.3124 32.8964C57.6487 33.3999 58.1531 33.6517 58.8677 33.6517C59.5822 33.6517 60.0866 33.3999 60.4229 32.8964C60.7592 32.3719 60.9483 31.6376 60.9483 30.7145C60.9273 29.7914 60.7592 29.0571 60.4229 28.5536ZM60.4229 28.5536C60.0866 28.0501 59.5822 27.7983 58.8677 27.7983C58.1531 27.7983 57.6487 28.0501 57.3124 28.5536C56.9762 29.0571 56.808 29.7914 56.808 30.7145C56.808 31.6376 56.9762 32.3719 57.3124 32.8964C57.6487 33.3999 58.1531 33.6517 58.8677 33.6517C59.5822 33.6517 60.0866 33.3999 60.4229 32.8964C60.7592 32.3719 60.9483 31.6376 60.9483 30.7145C60.9273 29.7914 60.7592 29.0571 60.4229 28.5536ZM38.5235 28.5536C38.1873 28.0501 37.7039 27.7564 37.0103 27.7564C36.2958 27.7564 35.7914 28.0291 35.4551 28.5536C35.245 28.8893 35.0978 29.3089 35.0138 29.8334H38.8808C38.8598 29.3299 38.7547 28.8893 38.5235 28.5536ZM24.8627 30.9033C23.7488 30.8824 23.2865 31.302 23.2865 31.302C22.9712 31.5327 22.8031 31.8684 22.8031 32.351C22.8031 32.6447 22.8661 32.8964 22.9712 33.0643C23.0343 33.1692 23.0763 33.2111 23.2865 33.379C23.2865 33.379 23.7698 33.7566 24.8837 33.6937C25.6613 33.6517 26.3549 33.5048 26.3549 33.5048V31.0292C26.3339 31.0292 25.6403 30.9243 24.8627 30.9033ZM24.8627 30.9033C23.7488 30.8824 23.2865 31.302 23.2865 31.302C22.9712 31.5327 22.8031 31.8684 22.8031 32.351C22.8031 32.6447 22.8661 32.8964 22.9712 33.0643C23.0343 33.1692 23.0763 33.2111 23.2865 33.379C23.2865 33.379 23.7698 33.7566 24.8837 33.6937C25.6613 33.6517 26.3549 33.5048 26.3549 33.5048V31.0292C26.3339 31.0292 25.6403 30.9243 24.8627 30.9033ZM38.5235 28.5536C38.1873 28.0501 37.7039 27.7564 37.0103 27.7564C36.2958 27.7564 35.7914 28.0291 35.4551 28.5536C35.245 28.8893 35.0978 29.3089 35.0138 29.8334H38.8808C38.8598 29.3299 38.7547 28.8893 38.5235 28.5536ZM60.4229 28.5536C60.0866 28.0501 59.5822 27.7983 58.8677 27.7983C58.1531 27.7983 57.6487 28.0501 57.3124 28.5536C56.9762 29.0571 56.808 29.7914 56.808 30.7145C56.808 31.6376 56.9762 32.3719 57.3124 32.8964C57.6487 33.3999 58.1531 33.6517 58.8677 33.6517C59.5822 33.6517 60.0866 33.3999 60.4229 32.8964C60.7592 32.3719 60.9483 31.6376 60.9483 30.7145C60.9273 29.7914 60.7592 29.0571 60.4229 28.5536ZM60.4229 28.5536C60.0866 28.0501 59.5822 27.7983 58.8677 27.7983C58.1531 27.7983 57.6487 28.0501 57.3124 28.5536C56.9762 29.0571 56.808 29.7914 56.808 30.7145C56.808 31.6376 56.9762 32.3719 57.3124 32.8964C57.6487 33.3999 58.1531 33.6517 58.8677 33.6517C59.5822 33.6517 60.0866 33.3999 60.4229 32.8964C60.7592 32.3719 60.9483 31.6376 60.9483 30.7145C60.9273 29.7914 60.7592 29.0571 60.4229 28.5536ZM38.5235 28.5536C38.1873 28.0501 37.7039 27.7564 37.0103 27.7564C36.2958 27.7564 35.7914 28.0291 35.4551 28.5536C35.245 28.8893 35.0978 29.3089 35.0138 29.8334H38.8808C38.8598 29.3299 38.7547 28.8893 38.5235 28.5536ZM24.8627 30.9033C23.7488 30.8824 23.2865 31.302 23.2865 31.302C22.9712 31.5327 22.8031 31.8684 22.8031 32.351C22.8031 32.6447 22.8661 32.8964 22.9712 33.0643C23.0343 33.1692 23.0763 33.2111 23.2865 33.379C23.2865 33.379 23.7698 33.7566 24.8837 33.6937C25.6613 33.6517 26.3549 33.5048 26.3549 33.5048V31.0292C26.3339 31.0292 25.6403 30.9243 24.8627 30.9033ZM24.8627 30.9033C23.7488 30.8824 23.2865 31.302 23.2865 31.302C22.9712 31.5327 22.8031 31.8684 22.8031 32.351C22.8031 32.6447 22.8661 32.8964 22.9712 33.0643C23.0343 33.1692 23.0763 33.2111 23.2865 33.379C23.2865 33.379 23.7698 33.7566 24.8837 33.6937C25.6613 33.6517 26.3549 33.5048 26.3549 33.5048V31.0292C26.3339 31.0292 25.6403 30.9243 24.8627 30.9033ZM38.5235 28.5536C38.1873 28.0501 37.7039 27.7564 37.0103 27.7564C36.2958 27.7564 35.7914 28.0291 35.4551 28.5536C35.245 28.8893 35.0978 29.3089 35.0138 29.8334H38.8808C38.8598 29.3299 38.7547 28.8893 38.5235 28.5536ZM60.4229 28.5536C60.0866 28.0501 59.5822 27.7983 58.8677 27.7983C58.1531 27.7983 57.6487 28.0501 57.3124 28.5536C56.9762 29.0571 56.808 29.7914 56.808 30.7145C56.808 31.6376 56.9762 32.3719 57.3124 32.8964C57.6487 33.3999 58.1531 33.6517 58.8677 33.6517C59.5822 33.6517 60.0866 33.3999 60.4229 32.8964C60.7592 32.3719 60.9483 31.6376 60.9483 30.7145C60.9273 29.7914 60.7592 29.0571 60.4229 28.5536ZM60.4229 28.5536C60.0866 28.0501 59.5822 27.7983 58.8677 27.7983C58.1531 27.7983 57.6487 28.0501 57.3124 28.5536C56.9762 29.0571 56.808 29.7914 56.808 30.7145C56.808 31.6376 56.9762 32.3719 57.3124 32.8964C57.6487 33.3999 58.1531 33.6517 58.8677 33.6517C59.5822 33.6517 60.0866 33.3999 60.4229 32.8964C60.7592 32.3719 60.9483 31.6376 60.9483 30.7145C60.9273 29.7914 60.7592 29.0571 60.4229 28.5536ZM38.5235 28.5536C38.1873 28.0501 37.7039 27.7564 37.0103 27.7564C36.2958 27.7564 35.7914 28.0291 35.4551 28.5536C35.245 28.8893 35.0978 29.3089 35.0138 29.8334H38.8808C38.8598 29.3299 38.7547 28.8893 38.5235 28.5536ZM24.8627 30.9033C23.7488 30.8824 23.2865 31.302 23.2865 31.302C22.9712 31.5327 22.8031 31.8684 22.8031 32.351C22.8031 32.6447 22.8661 32.8964 22.9712 33.0643C23.0343 33.1692 23.0763 33.2111 23.2865 33.379C23.2865 33.379 23.7698 33.7566 24.8837 33.6937C25.6613 33.6517 26.3549 33.5048 26.3549 33.5048V31.0292C26.3339 31.0292 25.6403 30.9243 24.8627 30.9033ZM24.8627 30.9033C23.7488 30.8824 23.2865 31.302 23.2865 31.302C22.9712 31.5327 22.8031 31.8684 22.8031 32.351C22.8031 32.6447 22.8661 32.8964 22.9712 33.0643C23.0343 33.1692 23.0763 33.2111 23.2865 33.379C23.2865 33.379 23.7698 33.7566 24.8837 33.6937C25.6613 33.6517 26.3549 33.5048 26.3549 33.5048V31.0292C26.3339 31.0292 25.6403 30.9243 24.8627 30.9033ZM38.5235 28.5536C38.1873 28.0501 37.7039 27.7564 37.0103 27.7564C36.2958 27.7564 35.7914 28.0291 35.4551 28.5536C35.245 28.8893 35.0978 29.3089 35.0138 29.8334H38.8808C38.8598 29.3299 38.7547 28.8893 38.5235 28.5536ZM60.4229 28.5536C60.0866 28.0501 59.5822 27.7983 58.8677 27.7983C58.1531 27.7983 57.6487 28.0501 57.3124 28.5536C56.9762 29.0571 56.808 29.7914 56.808 30.7145C56.808 31.6376 56.9762 32.3719 57.3124 32.8964C57.6487 33.3999 58.1531 33.6517 58.8677 33.6517C59.5822 33.6517 60.0866 33.3999 60.4229 32.8964C60.7592 32.3719 60.9483 31.6376 60.9483 30.7145C60.9273 29.7914 60.7592 29.0571 60.4229 28.5536ZM60.4229 28.5536C60.0866 28.0501 59.5822 27.7983 58.8677 27.7983C58.1531 27.7983 57.6487 28.0501 57.3124 28.5536C56.9762 29.0571 56.808 29.7914 56.808 30.7145C56.808 31.6376 56.9762 32.3719 57.3124 32.8964C57.6487 33.3999 58.1531 33.6517 58.8677 33.6517C59.5822 33.6517 60.0866 33.3999 60.4229 32.8964C60.7592 32.3719 60.9483 31.6376 60.9483 30.7145C60.9273 29.7914 60.7592 29.0571 60.4229 28.5536ZM38.5235 28.5536C38.1873 28.0501 37.7039 27.7564 37.0103 27.7564C36.2958 27.7564 35.7914 28.0291 35.4551 28.5536C35.245 28.8893 35.0978 29.3089 35.0138 29.8334H38.8808C38.8598 29.3299 38.7547 28.8893 38.5235 28.5536ZM24.8627 30.9033C23.7488 30.8824 23.2865 31.302 23.2865 31.302C22.9712 31.5327 22.8031 31.8684 22.8031 32.351C22.8031 32.6447 22.8661 32.8964 22.9712 33.0643C23.0343 33.1692 23.0763 33.2111 23.2865 33.379C23.2865 33.379 23.7698 33.7566 24.8837 33.6937C25.6613 33.6517 26.3549 33.5048 26.3549 33.5048V31.0292C26.3339 31.0292 25.6403 30.9243 24.8627 30.9033ZM24.8627 30.9033C23.7488 30.8824 23.2865 31.302 23.2865 31.302C22.9712 31.5327 22.8031 31.8684 22.8031 32.351C22.8031 32.6447 22.8661 32.8964 22.9712 33.0643C23.0343 33.1692 23.0763 33.2111 23.2865 33.379C23.2865 33.379 23.7698 33.7566 24.8837 33.6937C25.6613 33.6517 26.3549 33.5048 26.3549 33.5048V31.0292C26.3339 31.0292 25.6403 30.9243 24.8627 30.9033ZM38.5235 28.5536C38.1873 28.0501 37.7039 27.7564 37.0103 27.7564C36.2958 27.7564 35.7914 28.0291 35.4551 28.5536C35.245 28.8893 35.0978 29.3089 35.0138 29.8334H38.8808C38.8598 29.3299 38.7547 28.8893 38.5235 28.5536ZM60.4229 28.5536C60.0866 28.0501 59.5822 27.7983 58.8677 27.7983C58.1531 27.7983 57.6487 28.0501 57.3124 28.5536C56.9762 29.0571 56.808 29.7914 56.808 30.7145C56.808 31.6376 56.9762 32.3719 57.3124 32.8964C57.6487 33.3999 58.1531 33.6517 58.8677 33.6517C59.5822 33.6517 60.0866 33.3999 60.4229 32.8964C60.7592 32.3719 60.9483 31.6376 60.9483 30.7145C60.9273 29.7914 60.7592 29.0571 60.4229 28.5536ZM60.4229 28.5536C60.0866 28.0501 59.5822 27.7983 58.8677 27.7983C58.1531 27.7983 57.6487 28.0501 57.3124 28.5536C56.9762 29.0571 56.808 29.7914 56.808 30.7145C56.808 31.6376 56.9762 32.3719 57.3124 32.8964C57.6487 33.3999 58.1531 33.6517 58.8677 33.6517C59.5822 33.6517 60.0866 33.3999 60.4229 32.8964C60.7592 32.3719 60.9483 31.6376 60.9483 30.7145C60.9273 29.7914 60.7592 29.0571 60.4229 28.5536ZM38.5235 28.5536C38.1873 28.0501 37.7039 27.7564 37.0103 27.7564C36.2958 27.7564 35.7914 28.0291 35.4551 28.5536C35.245 28.8893 35.0978 29.3089 35.0138 29.8334H38.8808C38.8598 29.3299 38.7547 28.8893 38.5235 28.5536ZM24.8627 30.9033C23.7488 30.8824 23.2865 31.302 23.2865 31.302C22.9712 31.5327 22.8031 31.8684 22.8031 32.351C22.8031 32.6447 22.8661 32.8964 22.9712 33.0643C23.0343 33.1692 23.0763 33.2111 23.2865 33.379C23.2865 33.379 23.7698 33.7566 24.8837 33.6937C25.6613 33.6517 26.3549 33.5048 26.3549 33.5048V31.0292C26.3339 31.0292 25.6403 30.9243 24.8627 30.9033ZM24.8627 30.9033C23.7488 30.8824 23.2865 31.302 23.2865 31.302C22.9712 31.5327 22.8031 31.8684 22.8031 32.351C22.8031 32.6447 22.8661 32.8964 22.9712 33.0643C23.0343 33.1692 23.0763 33.2111 23.2865 33.379C23.2865 33.379 23.7698 33.7566 24.8837 33.6937C25.6613 33.6517 26.3549 33.5048 26.3549 33.5048V31.0292C26.3339 31.0292 25.6403 30.9243 24.8627 30.9033ZM38.5235 28.5536C38.1873 28.0501 37.7039 27.7564 37.0103 27.7564C36.2958 27.7564 35.7914 28.0291 35.4551 28.5536C35.245 28.8893 35.0978 29.3089 35.0138 29.8334H38.8808C38.8598 29.3299 38.7547 28.8893 38.5235 28.5536ZM60.4229 28.5536C60.0866 28.0501 59.5822 27.7983 58.8677 27.7983C58.1531 27.7983 57.6487 28.0501 57.3124 28.5536C56.9762 29.0571 56.808 29.7914 56.808 30.7145C56.808 31.6376 56.9762 32.3719 57.3124 32.8964C57.6487 33.3999 58.1531 33.6517 58.8677 33.6517C59.5822 33.6517 60.0866 33.3999 60.4229 32.8964C60.7592 32.3719 60.9483 31.6376 60.9483 30.7145C60.9273 29.7914 60.7592 29.0571 60.4229 28.5536ZM60.4229 28.5536C60.0866 28.0501 59.5822 27.7983 58.8677 27.7983C58.1531 27.7983 57.6487 28.0501 57.3124 28.5536C56.9762 29.0571 56.808 29.7914 56.808 30.7145C56.808 31.6376 56.9762 32.3719 57.3124 32.8964C57.6487 33.3999 58.1531 33.6517 58.8677 33.6517C59.5822 33.6517 60.0866 33.3999 60.4229 32.8964C60.7592 32.3719 60.9483 31.6376 60.9483 30.7145C60.9273 29.7914 60.7592 29.0571 60.4229 28.5536ZM38.5235 28.5536C38.1873 28.0501 37.7039 27.7564 37.0103 27.7564C36.2958 27.7564 35.7914 28.0291 35.4551 28.5536C35.245 28.8893 35.0978 29.3089 35.0138 29.8334H38.8808C38.8598 29.3299 38.7547 28.8893 38.5235 28.5536ZM24.8627 30.9033C23.7488 30.8824 23.2865 31.302 23.2865 31.302C22.9712 31.5327 22.8031 31.8684 22.8031 32.351C22.8031 32.6447 22.8661 32.8964 22.9712 33.0643C23.0343 33.1692 23.0763 33.2111 23.2865 33.379C23.2865 33.379 23.7698 33.7566 24.8837 33.6937C25.6613 33.6517 26.3549 33.5048 26.3549 33.5048V31.0292C26.3339 31.0292 25.6403 30.9243 24.8627 30.9033ZM24.8627 30.9033C23.7488 30.8824 23.2865 31.302 23.2865 31.302C22.9712 31.5327 22.8031 31.8684 22.8031 32.351C22.8031 32.6447 22.8661 32.8964 22.9712 33.0643C23.0343 33.1692 23.0763 33.2111 23.2865 33.379C23.2865 33.379 23.7698 33.7566 24.8837 33.6937C25.6613 33.6517 26.3549 33.5048 26.3549 33.5048V31.0292C26.3339 31.0292 25.6403 30.9243 24.8627 30.9033ZM38.5235 28.5536C38.1873 28.0501 37.7039 27.7564 37.0103 27.7564C36.2958 27.7564 35.7914 28.0291 35.4551 28.5536C35.245 28.8893 35.0978 29.3089 35.0138 29.8334H38.8808C38.8598 29.3299 38.7547 28.8893 38.5235 28.5536ZM60.4229 28.5536C60.0866 28.0501 59.5822 27.7983 58.8677 27.7983C58.1531 27.7983 57.6487 28.0501 57.3124 28.5536C56.9762 29.0571 56.808 29.7914 56.808 30.7145C56.808 31.6376 56.9762 32.3719 57.3124 32.8964C57.6487 33.3999 58.1531 33.6517 58.8677 33.6517C59.5822 33.6517 60.0866 33.3999 60.4229 32.8964C60.7592 32.3719 60.9483 31.6376 60.9483 30.7145C60.9273 29.7914 60.7592 29.0571 60.4229 28.5536ZM60.4229 28.5536C60.0866 28.0501 59.5822 27.7983 58.8677 27.7983C58.1531 27.7983 57.6487 28.0501 57.3124 28.5536C56.9762 29.0571 56.808 29.7914 56.808 30.7145C56.808 31.6376 56.9762 32.3719 57.3124 32.8964C57.6487 33.3999 58.1531 33.6517 58.8677 33.6517C59.5822 33.6517 60.0866 33.3999 60.4229 32.8964C60.7592 32.3719 60.9483 31.6376 60.9483 30.7145C60.9273 29.7914 60.7592 29.0571 60.4229 28.5536ZM38.5235 28.5536C38.1873 28.0501 37.7039 27.7564 37.0103 27.7564C36.2958 27.7564 35.7914 28.0291 35.4551 28.5536C35.245 28.8893 35.0978 29.3089 35.0138 29.8334H38.8808C38.8598 29.3299 38.7547 28.8893 38.5235 28.5536ZM24.8627 30.9033C23.7488 30.8824 23.2865 31.302 23.2865 31.302C22.9712 31.5327 22.8031 31.8684 22.8031 32.351C22.8031 32.6447 22.8661 32.8964 22.9712 33.0643C23.0343 33.1692 23.0763 33.2111 23.2865 33.379C23.2865 33.379 23.7698 33.7566 24.8837 33.6937C25.6613 33.6517 26.3549 33.5048 26.3549 33.5048V31.0292C26.3339 31.0292 25.6403 30.9243 24.8627 30.9033ZM24.8627 30.9033C23.7488 30.8824 23.2865 31.302 23.2865 31.302C22.9712 31.5327 22.8031 31.8684 22.8031 32.351C22.8031 32.6447 22.8661 32.8964 22.9712 33.0643C23.0343 33.1692 23.0763 33.2111 23.2865 33.379C23.2865 33.379 23.7698 33.7566 24.8837 33.6937C25.6613 33.6517 26.3549 33.5048 26.3549 33.5048V31.0292C26.3339 31.0292 25.6403 30.9243 24.8627 30.9033ZM38.5235 28.5536C38.1873 28.0501 37.7039 27.7564 37.0103 27.7564C36.2958 27.7564 35.7914 28.0291 35.4551 28.5536C35.245 28.8893 35.0978 29.3089 35.0138 29.8334H38.8808C38.8598 29.3299 38.7547 28.8893 38.5235 28.5536ZM60.4229 28.5536C60.0866 28.0501 59.5822 27.7983 58.8677 27.7983C58.1531 27.7983 57.6487 28.0501 57.3124 28.5536C56.9762 29.0571 56.808 29.7914 56.808 30.7145C56.808 31.6376 56.9762 32.3719 57.3124 32.8964C57.6487 33.3999 58.1531 33.6517 58.8677 33.6517C59.5822 33.6517 60.0866 33.3999 60.4229 32.8964C60.7592 32.3719 60.9483 31.6376 60.9483 30.7145C60.9273 29.7914 60.7592 29.0571 60.4229 28.5536ZM60.4229 28.5536C60.0866 28.0501 59.5822 27.7983 58.8677 27.7983C58.1531 27.7983 57.6487 28.0501 57.3124 28.5536C56.9762 29.0571 56.808 29.7914 56.808 30.7145C56.808 31.6376 56.9762 32.3719 57.3124 32.8964C57.6487 33.3999 58.1531 33.6517 58.8677 33.6517C59.5822 33.6517 60.0866 33.3999 60.4229 32.8964C60.7592 32.3719 60.9483 31.6376 60.9483 30.7145C60.9273 29.7914 60.7592 29.0571 60.4229 28.5536ZM38.5235 28.5536C38.1873 28.0501 37.7039 27.7564 37.0103 27.7564C36.2958 27.7564 35.7914 28.0291 35.4551 28.5536C35.245 28.8893 35.0978 29.3089 35.0138 29.8334H38.8808C38.8598 29.3299 38.7547 28.8893 38.5235 28.5536ZM24.8627 30.9033C23.7488 30.8824 23.2865 31.302 23.2865 31.302C22.9712 31.5327 22.8031 31.8684 22.8031 32.351C22.8031 32.6447 22.8661 32.8964 22.9712 33.0643C23.0343 33.1692 23.0763 33.2111 23.2865 33.379C23.2865 33.379 23.7698 33.7566 24.8837 33.6937C25.6613 33.6517 26.3549 33.5048 26.3549 33.5048V31.0292C26.3339 31.0292 25.6403 30.9243 24.8627 30.9033ZM24.8627 30.9033C23.7488 30.8824 23.2865 31.302 23.2865 31.302C22.9712 31.5327 22.8031 31.8684 22.8031 32.351C22.8031 32.6447 22.8661 32.8964 22.9712 33.0643C23.0343 33.1692 23.0763 33.2111 23.2865 33.379C23.2865 33.379 23.7698 33.7566 24.8837 33.6937C25.6613 33.6517 26.3549 33.5048 26.3549 33.5048V31.0292C26.3339 31.0292 25.6403 30.9243 24.8627 30.9033ZM38.5235 28.5536C38.1873 28.0501 37.7039 27.7564 37.0103 27.7564C36.2958 27.7564 35.7914 28.0291 35.4551 28.5536C35.245 28.8893 35.0978 29.3089 35.0138 29.8334H38.8808C38.8598 29.3299 38.7547 28.8893 38.5235 28.5536ZM60.4229 28.5536C60.0866 28.0501 59.5822 27.7983 58.8677 27.7983C58.1531 27.7983 57.6487 28.0501 57.3124 28.5536C56.9762 29.0571 56.808 29.7914 56.808 30.7145C56.808 31.6376 56.9762 32.3719 57.3124 32.8964C57.6487 33.3999 58.1531 33.6517 58.8677 33.6517C59.5822 33.6517 60.0866 33.3999 60.4229 32.8964C60.7592 32.3719 60.9483 31.6376 60.9483 30.7145C60.9273 29.7914 60.7592 29.0571 60.4229 28.5536ZM60.4229 28.5536C60.0866 28.0501 59.5822 27.7983 58.8677 27.7983C58.1531 27.7983 57.6487 28.0501 57.3124 28.5536C56.9762 29.0571 56.808 29.7914 56.808 30.7145C56.808 31.6376 56.9762 32.3719 57.3124 32.8964C57.6487 33.3999 58.1531 33.6517 58.8677 33.6517C59.5822 33.6517 60.0866 33.3999 60.4229 32.8964C60.7592 32.3719 60.9483 31.6376 60.9483 30.7145C60.9273 29.7914 60.7592 29.0571 60.4229 28.5536ZM38.5235 28.5536C38.1873 28.0501 37.7039 27.7564 37.0103 27.7564C36.2958 27.7564 35.7914 28.0291 35.4551 28.5536C35.245 28.8893 35.0978 29.3089 35.0138 29.8334H38.8808C38.8598 29.3299 38.7547 28.8893 38.5235 28.5536ZM24.8627 30.9033C23.7488 30.8824 23.2865 31.302 23.2865 31.302C22.9712 31.5327 22.8031 31.8684 22.8031 32.351C22.8031 32.6447 22.8661 32.8964 22.9712 33.0643C23.0343 33.1692 23.0763 33.2111 23.2865 33.379C23.2865 33.379 23.7698 33.7566 24.8837 33.6937C25.6613 33.6517 26.3549 33.5048 26.3549 33.5048V31.0292C26.3339 31.0292 25.6403 30.9243 24.8627 30.9033ZM38.5235 28.5536C38.1873 28.0501 37.7039 27.7564 37.0103 27.7564C36.2958 27.7564 35.7914 28.0291 35.4551 28.5536C35.245 28.8893 35.0978 29.3089 35.0138 29.8334H38.8808C38.8598 29.3299 38.7547 28.8893 38.5235 28.5536ZM60.4229 28.5536C60.0866 28.0501 59.5822 27.7983 58.8677 27.7983C58.1531 27.7983 57.6487 28.0501 57.3124 28.5536C56.9762 29.0571 56.808 29.7914 56.808 30.7145C56.808 31.6376 56.9762 32.3719 57.3124 32.8964C57.6487 33.3999 58.1531 33.6517 58.8677 33.6517C59.5822 33.6517 60.0866 33.3999 60.4229 32.8964C60.7592 32.3719 60.9483 31.6376 60.9483 30.7145C60.9273 29.7914 60.7592 29.0571 60.4229 28.5536ZM60.4229 28.5536C60.0866 28.0501 59.5822 27.7983 58.8677 27.7983C58.1531 27.7983 57.6487 28.0501 57.3124 28.5536C56.9762 29.0571 56.808 29.7914 56.808 30.7145C56.808 31.6376 56.9762 32.3719 57.3124 32.8964C57.6487 33.3999 58.1531 33.6517 58.8677 33.6517C59.5822 33.6517 60.0866 33.3999 60.4229 32.8964C60.7592 32.3719 60.9483 31.6376 60.9483 30.7145C60.9273 29.7914 60.7592 29.0571 60.4229 28.5536ZM38.5235 28.5536C38.1873 28.0501 37.7039 27.7564 37.0103 27.7564C36.2958 27.7564 35.7914 28.0291 35.4551 28.5536C35.245 28.8893 35.0978 29.3089 35.0138 29.8334H38.8808C38.8598 29.3299 38.7547 28.8893 38.5235 28.5536ZM60.4229 28.5536C60.0866 28.0501 59.5822 27.7983 58.8677 27.7983C58.1531 27.7983 57.6487 28.0501 57.3124 28.5536C56.9762 29.0571 56.808 29.7914 56.808 30.7145C56.808 31.6376 56.9762 32.3719 57.3124 32.8964C57.6487 33.3999 58.1531 33.6517 58.8677 33.6517C59.5822 33.6517 60.0866 33.3999 60.4229 32.8964C60.7592 32.3719 60.9483 31.6376 60.9483 30.7145C60.9273 29.7914 60.7592 29.0571 60.4229 28.5536ZM60.4229 28.5536C60.0866 28.0501 59.5822 27.7983 58.8677 27.7983C58.1531 27.7983 57.6487 28.0501 57.3124 28.5536C56.9762 29.0571 56.808 29.7914 56.808 30.7145C56.808 31.6376 56.9762 32.3719 57.3124 32.8964C57.6487 33.3999 58.1531 33.6517 58.8677 33.6517C59.5822 33.6517 60.0866 33.3999 60.4229 32.8964C60.7592 32.3719 60.9483 31.6376 60.9483 30.7145C60.9273 29.7914 60.7592 29.0571 60.4229 28.5536ZM60.4229 28.5536C60.0866 28.0501 59.5822 27.7983 58.8677 27.7983C58.1531 27.7983 57.6487 28.0501 57.3124 28.5536C56.9762 29.0571 56.808 29.7914 56.808 30.7145C56.808 31.6376 56.9762 32.3719 57.3124 32.8964C57.6487 33.3999 58.1531 33.6517 58.8677 33.6517C59.5822 33.6517 60.0866 33.3999 60.4229 32.8964C60.7592 32.3719 60.9483 31.6376 60.9483 30.7145C60.9273 29.7914 60.7592 29.0571 60.4229 28.5536ZM60.4229 28.5536C60.7592 29.0571 60.9273 29.7914 60.9483 30.7145C60.9483 31.6376 60.7592 32.3719 60.4229 32.8964C60.0866 33.3999 59.5822 33.6517 58.8677 33.6517C58.1531 33.6517 57.6487 33.3999 57.3124 32.8964C56.9762 32.3719 56.808 31.6376 56.808 30.7145C56.808 29.7914 56.9762 29.0571 57.3124 28.5536C57.6487 28.0501 58.1531 27.7983 58.8677 27.7983C59.5822 27.7983 60.0866 28.0501 60.4229 28.5536ZM82.5201 29.955H78.0595C78.1565 29.4171 78.3019 28.9464 78.5686 28.5878C78.9565 28.0499 79.5383 27.7361 80.3625 27.7361C81.1867 27.7361 81.7201 28.0275 82.108 28.5878C82.3746 28.9464 82.4958 29.4171 82.5201 29.955Z" transform="translate(71.668 85.6621)" fill="currentColor"/>
</svg>
