 <svg id="target" viewBox="0 0 237 237" fill="none" xmlns="http://www.w3.org/2000/svg">

<path fill-rule="evenodd" clip-rule="evenodd" d="M8.93385 8.11191C9.76783 8.43417 11.1096 9.26425 11.1096 9.26425C13.6272 10.7779 13.4006 13.6549 13.4006 13.6549V15.5455C13.0979 20.2389 6.6272 20.106 6.6272 20.106C-0.146233 20.106 0.000251789 15.6627 0.000251789 15.6627V13.3365H5.27369V14.9381C5.27369 16.2994 6.58814 16.36 6.58814 16.36C8.0276 16.4166 8.14869 15.0279 8.14869 15.0279C8.34595 13.6725 6.85377 12.8228 6.85377 12.8228C5.3772 12.065 2.92017 10.7408 2.92017 10.7408C1.70728 9.94589 1.2151 9.22714 1.2151 9.22714C0.344002 8.12949 0.402596 6.42831 0.402596 6.42831V4.95175C0.402596 2.90683 0.949471 2.32089 0.949471 2.32089L0.976814 2.28183C2.32056 0.219329 6.08033 0.0162036 6.08033 0.0162036C6.76588 -0.0169996 7.23267 0.0122973 7.23267 0.0122973C13.4378 0.182219 13.0608 4.04159 13.0608 4.04159L13.0706 6.39902H8.12135V4.79941C8.12135 3.66464 6.74049 3.59042 6.74049 3.59042C5.68189 3.59042 5.4358 4.30917 5.4358 4.30917C4.84791 5.40488 5.85181 6.35019 5.85181 6.35019C6.36158 6.9205 8.93385 8.11191 8.93385 8.11191ZM75.9573 9.2662C75.9573 9.2662 74.6116 8.43417 73.7795 8.11191C73.7795 8.11191 71.2053 6.91855 70.6936 6.35019C70.6936 6.35019 69.6917 5.40683 70.2795 4.30722C70.2795 4.30722 70.5237 3.58847 71.5842 3.58847C71.5842 3.58847 72.9651 3.66464 72.9651 4.79941V6.40097H77.9124L77.9026 4.04355C77.9026 4.04355 78.2835 0.182219 72.0764 0.0122973C72.0764 0.0122973 67.1936 -0.308015 65.7932 2.32089C65.7932 2.32089 65.2444 2.90683 65.2444 4.95175V6.42831C65.2444 6.42831 65.1878 8.13144 66.0588 9.22714C66.0588 9.22714 66.5491 9.94589 67.762 10.7408C67.762 10.7408 70.221 12.065 71.6975 12.8228C71.6975 12.8228 73.1878 13.6744 72.9905 15.0279C72.9905 15.0279 72.8713 16.4166 71.4319 16.36C71.4319 16.36 70.1155 16.2994 70.1155 14.9381V13.3385H64.844V15.6627C64.844 15.6627 64.6956 20.106 71.471 20.106C71.471 20.106 77.9417 20.2389 78.2444 15.5455V13.6549C78.2444 13.6549 78.4729 10.7779 75.9573 9.2662ZM50.9846 1.14316L49.3264 11.524H48.9397L47.3577 1.23691H39.094L38.6799 20.0338H43.5725L43.6311 5.86972H44.0159L46.6096 20.0299H51.7561L54.3186 5.87558H54.6585L54.7776 20.0338H59.6956L59.1663 1.14316H50.9846ZM18.2034 19.9342L21.4592 1.14316H29.7717L33.0256 19.9342H27.76L25.8323 5.36386H25.3987L23.469 19.9342H18.2034ZM131.602 9.1412V11.9127H132.953V14.8893C132.953 16.3424 131.709 16.3697 131.709 16.3697C130.198 16.3697 130.254 14.9889 130.254 14.9889V4.69394C130.254 3.63339 131.596 3.5787 131.596 3.5787C132.885 3.5787 132.893 4.84238 132.893 4.84238V6.40878H137.852C138.014 3.35214 137.407 2.61386 137.407 2.61386C136.176 -0.149812 131.522 0.0025317 131.522 0.0025317C124.369 0.0025317 125.162 5.48886 125.162 5.48886V15.442C125.317 20.5885 132.364 20.065 132.483 20.0592C135.617 19.7115 136.565 18.7154 136.565 18.7154C137.436 18.0689 137.66 17.1744 137.66 17.1744C137.908 16.651 137.971 14.9889 137.971 14.9889V9.1412H131.602ZM115.715 12.6393H115.93L115.576 1.14316H120.537V20.0338H114.699L109.485 8.53964H109.266L109.561 20.0338H104.66V1.14511H110.68L115.715 12.6393ZM92.4612 15.315C92.4612 15.315 92.5335 16.8639 91.096 16.8639C91.096 16.8639 89.5842 16.9459 89.5842 15.3521L89.5686 1.14316H84.1936V15.2408C84.1936 15.2408 83.6409 20.5748 91.1702 20.5748C91.1702 20.5748 97.7151 20.6529 97.7151 15.485V1.14316H92.4612V15.315Z" transform="translate(48.9141 108.504)" fill="currentColor"/>
</svg>
