 <svg id="target" viewBox="0 0 237 237" fill="none" xmlns="http://www.w3.org/2000/svg">

<path fill-rule="evenodd" clip-rule="evenodd" d="M0 0.835298C0 0.97973 0 15.3507 0 15.6414C0 16.0494 0.361682 16.328 0.805208 16.328H2.75745C3.19977 16.328 3.56205 16.0458 3.56205 15.6029V0.805208C3.56205 0.361682 3.2762 0 2.83327 0H0.805208C0.361682 0 0 0.272615 0 0.835298Z" transform="translate(150.162 118.785)" fill="currentColor"/>
<path fill-rule="evenodd" clip-rule="evenodd" d="M9.27166 0C9.71306 0 10.2385 0.322266 10.4357 0.720703L18.0627 15.6797C18.2228 15.9922 18.0275 16.3281 17.5861 16.3281H15.1896C14.5549 16.3281 14.2287 16.0117 14.0334 15.623C13.9142 15.3828 13.717 15.0195 13.5646 14.7363L13.3615 14.3555C13.2306 14.0938 12.9455 14.0098 12.5021 14.0078L4.81658 14.0039C4.37322 14.0039 4.06072 14.1367 3.9572 14.3555L3.66814 14.9473L3.31267 15.6699C3.13689 16.0312 2.83806 16.3281 2.18572 16.3281H0.535328C0.0919684 16.3281 -0.124828 16.0449 0.0743903 15.6504L7.21892 0.726562C7.41033 0.328125 7.92791 0 8.36931 0H9.27166ZM5.75798 10.8984C5.57244 11.3008 5.77947 11.6289 6.22283 11.6289L11.5158 11.6328C11.9572 11.6328 12.1701 11.3027 11.9865 10.9023L9.24627 4.87109C9.06267 4.46875 8.75994 4.4668 8.57244 4.86914L5.75798 10.8984Z" transform="translate(84.1816 118.785)" fill="currentColor"/>
<path fill-rule="evenodd" clip-rule="evenodd" d="M11.7494 11.3764H1.06985C0.678078 11.3764 0.342274 11.1814 0.146689 10.8426C-0.0488962 10.5038 -0.0488962 10.1157 0.146689 9.77684L5.48706 0.532593C5.68264 0.193779 6.01845 0 6.41022 0C6.80139 0 7.13719 0.193779 7.33338 0.532593L12.6725 9.77744C12.8687 10.1163 12.8687 10.5044 12.6732 10.8432C12.477 11.182 12.1412 11.3764 11.7494 11.3764Z" transform="translate(161.537 102.795)" fill="currentColor"/>
<path fill-rule="evenodd" clip-rule="evenodd" d="M9.89539 9.2292C9.67995 9.61616 9.32669 9.61496 9.11426 9.2274L4.4816 0.719753C4.28481 0.32437 3.88101 0 3.31832 0H0.80581C0.362283 0 0 0.361682 0 0.805208V15.5836C0 16.0259 0.290669 16.328 0.80581 16.328H2.36688C2.8104 16.328 3.12996 16.0494 3.12996 15.6221C3.12996 15.4169 3.13658 4.87277 3.15283 4.87277C3.17028 4.87277 8.93552 15.6191 8.93552 15.6191C9.14435 16.0091 9.65708 16.0109 9.87012 15.6221C9.87012 15.6221 15.6829 4.90407 15.6998 4.90407C15.7178 4.90407 15.7118 15.3146 15.7118 15.6221C15.7118 16.0494 16.053 16.328 16.4965 16.328H18.2953C18.7388 16.328 19.0993 16.1078 19.0993 15.5234V0.805208C19.0993 0.361682 18.7388 0 18.2953 0H15.8863C15.2719 0 14.9018 0.31414 14.6821 0.69869L9.89539 9.2292Z" transform="translate(125.135 118.785)" fill="currentColor"/>
<path fill-rule="evenodd" clip-rule="evenodd" d="M14.7838 0C14.3415 0 13.9834 0.292475 13.9834 0.718549C13.9834 0.922559 13.9882 10.1837 13.9882 10.1837C13.9882 10.6272 13.7379 10.7283 13.4304 10.4093L3.95262 0.578931C3.6445 0.259978 3.19435 0 2.58774 0H0.805208C0.244932 0 0 0.299095 0 0.602402C0 0.903903 0 15.435 0 15.7383C0 16.0404 0.28766 16.328 0.730585 16.328H2.51612C2.95785 16.328 3.26777 16.0879 3.26777 15.6799C3.26777 15.4753 3.2768 5.70867 3.2768 5.70867C3.2768 5.26575 3.52715 5.16465 3.83346 5.4848L13.7162 15.7581C14.0298 16.0723 14.4113 16.328 15.0895 16.328H16.4303C16.8739 16.328 17.2361 15.9664 17.2361 15.5234V0.805208C17.2361 0.361682 16.8739 0 16.4303 0H14.7838Z" transform="translate(159.264 118.785)" fill="currentColor"/>
<path fill-rule="evenodd" clip-rule="evenodd" d="M12.6016 9.2207C12.1777 9.3457 12.0391 9.74609 12.293 10.1094L16.2129 15.6934C16.3672 15.9102 16.2969 16.3281 15.8535 16.3281H13.3477C12.9043 16.3281 12.5703 16.1445 12.2188 15.6738L8.44336 10.3594C8.18945 9.99609 7.61719 9.70117 7.17578 9.70117C7.17578 9.70117 3.53906 9.70508 3.5332 9.7168C3.5293 9.7168 3.52734 15.6035 3.52734 15.6035C3.52734 16.0449 3.16602 16.3281 2.72266 16.3281H0.804688C0.361328 16.3281 0 16.0449 0 15.6035V0.804688C0 0.361328 0.361328 0 0.804688 0H8.91211C9.35352 0 10.0762 0.0175781 10.5195 0.0371094C10.5195 0.0371094 11.6133 0.0878906 12.4219 0.263672C13.2305 0.439453 13.9258 0.720703 14.5059 1.10547C15.0859 1.48633 15.5312 1.98438 15.8418 2.5957C16.1543 3.20508 16.3086 3.95703 16.3086 4.84961C16.3086 6.2168 15.9043 7.26562 15.0957 7.99219C14.2891 8.71484 12.6016 9.2207 12.6016 9.2207ZM3.5332 9.7168C3.53711 9.7168 3.53906 9.71289 3.53906 9.70898L3.5332 9.7168ZM9.58594 6.85742C9.58594 6.85742 10.1445 6.83594 10.6426 6.7207C11.1387 6.60742 11.5332 6.44531 11.8203 6.23828C12.1113 6.03125 12.3164 5.78711 12.4414 5.50586C12.5645 5.22656 12.627 4.91992 12.627 4.58789C12.627 4.25586 12.5645 3.94922 12.4414 3.66992C12.3164 3.38867 12.1113 3.14453 11.8203 2.9375C11.5332 2.73047 11.1387 2.57031 10.6426 2.45703C10.1445 2.3418 9.58594 2.32031 9.58594 2.32031C9.14453 2.30078 8.41992 2.28516 7.97656 2.28516H4.21875C3.77539 2.28516 3.41406 2.64648 3.41406 3.08984V6.08789C3.41406 6.53125 3.77539 6.89258 4.21875 6.89258H7.97656C8.41992 6.89258 9.14453 6.87891 9.58594 6.85742Z" transform="translate(104.658 118.785)" fill="currentColor"/>
<path fill-rule="evenodd" clip-rule="evenodd" d="M0 8.46732C0 16.4406 8.15499 16.845 9.79068 16.845C15.2027 16.845 17.4895 15.3826 17.5846 15.3194C17.9228 15.128 18.335 14.7417 18.335 14.0183V8.51487C18.335 8.00815 17.9222 7.59471 17.4149 7.59471H10.6163C10.1078 7.59471 9.77443 8.00815 9.77443 8.51487V9.08537C9.77443 9.59269 10.1078 10.0067 10.6163 10.0067H14.5485C14.9288 10.0067 15.237 10.3155 15.237 10.6946C15.237 10.6946 15.2334 13.1066 15.2334 13.2601C14.4558 13.5772 10.9178 14.6111 8.07435 13.9329C3.94961 12.9465 3.62825 9.54334 3.62825 8.5245C3.62825 7.66874 3.88462 3.38332 8.94996 2.95002C13.05 2.59857 15.7503 4.25472 15.7768 4.27097C16.2594 4.52072 16.7577 4.34259 17.0261 3.83226C17.0279 3.82805 17.5376 2.79536 17.5376 2.79536C17.7501 2.37049 17.6785 1.92997 17.1597 1.57852C17.1254 1.55866 14.2512 0 9.79128 0C0.274421 0 0 7.60133 0 8.46732Z" transform="translate(63.7051 117.643)" fill="currentColor"/>
</svg>
