 <svg id="target" viewBox="0 0 237 237" fill="none" xmlns="http://www.w3.org/2000/svg">

<path fill-rule="evenodd" clip-rule="evenodd" d="M39.9238 39.0781H0V0H79L39.9238 39.0781ZM39.1387 7.26367L46.9141 7.26562C54.3477 7.26562 57.8379 9.91406 57.8379 15.6875C57.8379 20.873 54.2422 23.9648 48.1699 23.9648H45.6582V31.4316H34.1387L32.998 27.8594C31.7793 28.2578 30.4004 28.4824 28.9434 28.4824C27.4434 28.4824 26.0332 28.2441 24.791 27.8262L23.6055 31.4316H16.5449L17.3223 29.3457L17.2402 29.418L17.0391 29.5918C15.2754 31.0059 13.0742 31.7871 10.3438 31.8359L9.93945 31.8398C6.80859 31.8398 3.73438 30.9746 1.13867 29.498L3.54102 24.7285C6.14062 26.2656 7.77344 26.6094 9.98047 26.5664C11.1211 26.543 11.9473 26.334 12.4863 25.7773C12.8105 25.4375 12.9844 25.0176 12.9941 24.5645C13.0156 23.3262 11.2539 22.7441 9.0957 22.0781C7.3457 21.5332 5.35938 20.7949 3.81055 19.6582C1.9707 18.3066 1.0957 16.6152 1.13867 14.2266C1.16602 12.4922 1.80859 10.9277 3 9.69141C4.70898 7.92578 7.4668 6.85156 10.7773 6.85156H10.7949C13.6328 6.85547 17.0957 7.66016 19.6055 8.93555L16.8965 13.6426C14.1562 12.3164 12.7734 12.1914 11.209 12.1074C8.88477 11.9824 7.70508 12.8164 7.69141 13.7129C7.67188 14.8066 9.88867 15.7969 11.9863 16.4688C15.1602 17.4785 19.1934 18.8262 19.8086 22.7227L25.6094 7.26367H32.3438L39.1387 25.75V7.26367ZM47.2188 18.832H45.5039V12.5645H47.2188C49.5039 12.5645 51.3223 13.3223 51.3223 15.6621C51.3223 18.0742 49.5039 18.832 47.2188 18.832ZM26.1641 22.623C26.8984 22.9023 27.75 23.0625 28.6562 23.0625C29.541 23.0625 30.3711 22.9082 31.0957 22.6445L28.6816 14.8477H28.6309L26.1641 22.623Z" transform="translate(78.4941 97.084)" fill="currentColor"/>
</svg>
