 <svg id="target" viewBox="0 0 237 237" fill="none" xmlns="http://www.w3.org/2000/svg">

<path fill-rule="evenodd" clip-rule="evenodd" d="M94.6039 0.0932871C94.598 0.0385996 94.5902 -0.0141348 94.5141 0.00344331C94.4594 0.00734956 94.4066 0.0171152 94.4242 0.0932871C94.4945 0.112818 94.5277 0.169459 94.5141 0.272975C97.1293 7.78079 99.0609 16.0327 100.573 24.5113L100.62 24.8218C100.69 25.312 100.772 25.8902 101.116 26.0484C101.141 24.1558 101.28 22.2671 101.418 20.4116L101.422 20.3491L101.426 20.2945C101.631 17.5523 101.83 14.8843 101.659 12.3921C101.26 6.64407 98.4516 2.42141 94.6039 0.0932871ZM108.518 13.7632C108.981 9.7886 106.643 7.3218 104.358 5.80422C104.354 5.74954 104.344 5.6968 104.268 5.71438C103.557 15.1929 101.844 23.6695 100.108 32.1206C101.737 30.1304 103.741 27.2222 105.262 23.982C106.719 20.8784 108.123 17.1577 108.518 13.7632ZM114.657 13.4331L114.721 13.4781C116.356 14.6421 118.575 16.2202 118.385 17.8999C118.307 18.6089 117.12 19.8784 116.346 20.7066L116.274 20.7847C116.104 20.9683 115.959 21.1245 115.854 21.2456C114.864 22.396 114.018 23.3218 113.051 24.23C107.364 30.1499 100.993 35.3843 94.4203 40.4175C95.5473 38.9859 96.6898 37.5679 97.8324 36.1499L97.8422 36.1363C103.676 28.8941 109.508 21.648 113.502 12.564C113.791 12.8159 114.2 13.107 114.657 13.4331ZM51.2641 23.5777C52.2855 20.0132 46.3617 19.3277 46.6508 23.0347C46.7582 24.396 47.8422 25.2261 49.6352 25.1148C50.5297 24.6558 51.0297 24.3902 51.2641 23.5777ZM12.4926 24.2886C9.29922 22.9917 2.56094 23.3726 4.08047 27.8159C4.61953 29.3882 6.74453 30.2046 8.7582 30.9781C9.99453 31.4527 11.1879 31.9097 11.9496 32.5171C13.143 33.4683 13.8715 34.689 14.0297 36.2261C14.7328 43.0347 7.47109 45.6675 0.46328 43.8238C0.521874 43.3491 0.547265 42.8433 0.570702 42.3374C0.601952 41.6929 0.635155 41.0503 0.734765 40.4761C1.10391 40.4292 1.55508 40.5445 2.06875 40.6753C2.43789 40.771 2.84023 40.8726 3.26797 40.9292C5.08047 41.1675 7.09023 41.2241 8.42227 40.5679C9.45742 39.9234 10.4691 38.4976 9.95937 36.6773C9.55312 35.2241 7.57851 34.4175 5.92226 33.7437L5.79922 33.6929L5.32656 33.5015C3.73476 32.8589 2.24062 32.2554 1.27773 31.1616C-0.191017 29.4937 -0.501563 25.9214 0.916405 23.7456C2.83828 20.7925 7.62734 19.9859 12.6723 20.9409C12.6527 21.3413 12.6234 21.732 12.5941 22.1226C12.5395 22.8257 12.4867 23.5269 12.4926 24.2886ZM83.0629 26.98H78.5414C78.518 26.1753 78.5297 25.3335 78.5434 24.4937C78.5629 23.1304 78.5824 21.7691 78.4516 20.5581C77.6918 20.8335 76.8715 21.0464 76.0492 21.2573L75.977 21.2769C75.6234 21.3667 75.2719 21.4566 74.9242 21.5523V26.98H71.6684V29.8726C72.0707 29.896 72.5062 29.8843 72.9437 29.8726C73.6547 29.8531 74.3637 29.8335 74.9242 29.9644C75.1391 31.5698 75.0258 33.4937 74.9125 35.398L74.9105 35.4175L74.9086 35.439L74.9066 35.4605L74.9047 35.4839C74.7484 38.2534 74.5922 40.9722 75.4672 42.6245C76.5824 44.732 80.1723 44.4917 83.0629 43.982V40.9976C82.8383 41.0113 82.5727 41.0406 82.2855 41.0738L82.2406 41.0796L82.2211 41.0816C81.223 41.1968 79.9887 41.3394 79.3559 40.9077C78.4574 40.2964 78.4945 38.4273 78.5297 36.7476V36.7241V36.7007V36.6773V36.6538C78.5355 36.3726 78.5414 36.0991 78.5414 35.8413V29.8726H82.973C83.1 29.3843 83.0824 28.7573 83.0648 28.1245V28.0991C83.0531 27.7144 83.0434 27.3316 83.0629 26.98ZM25.85 40.7769C28.3988 39.2261 29.0102 31.9077 26.5727 30.1948C25.8871 29.7144 24.9809 29.6265 24.1312 29.7437C20.3109 30.273 20.4164 35.9195 20.5043 40.5015L20.5141 41.0484C22.5297 41.5171 24.4437 41.6324 25.85 40.7769ZM20.7875 52.3023H17.1703C17.0395 47.3609 17.059 42.271 17.0785 37.1812C17.0922 34.0406 17.1039 30.8999 17.0805 27.7945H20.6078C20.6215 28.7847 20.5355 29.6734 20.4477 30.5601L20.4262 30.7788C21.4262 29.2007 22.852 27.6089 25.4008 27.4331C30.2543 27.0991 32.2738 30.8823 32.2738 35.482C32.2738 41.857 28.3109 46.1636 20.8793 44.8863C20.7465 46.3062 20.766 47.8765 20.7855 49.4468C20.7992 50.4097 20.8109 51.3745 20.7875 52.3023ZM44.0531 31.0464C38.7719 30.48 38.8852 35.7808 38.9984 40.9527C39.0277 42.3081 39.057 43.6558 38.9887 44.8843H35.3715C35.2406 41.4722 35.2602 37.9097 35.2797 34.3472C35.2934 32.1499 35.3051 29.9527 35.2816 27.7906H38.809C38.848 28.8257 38.7406 29.7124 38.6312 30.5991L38.5375 31.4097C39.5434 29.1909 40.7816 27.2007 44.2348 27.4292C44.143 28.2339 44.1156 29.105 44.0902 29.9761L44.0531 31.0464ZM65.3051 39.0679C65.2074 41.0327 65.1098 42.9898 65.2777 44.7984H68.9848C68.809 42.8882 68.8969 40.7808 68.9848 38.7124L68.9867 38.6597C69.2445 32.6675 69.4867 27.0152 63.2875 27.4331C60.602 27.6148 58.9691 29.2495 57.9516 30.9605L58.0102 30.3433L58.0141 30.3101L58.018 30.2769C58.0922 29.4859 58.1684 28.6929 58.1332 27.7964H54.6059V44.7984H58.3129C58.3168 43.9976 58.3012 43.1538 58.2836 42.2945C58.1937 37.4468 58.0922 32.0699 61.3891 30.7808C63.4437 29.9761 65.0512 30.9312 65.2777 32.7691C65.5219 34.7476 65.4145 36.9116 65.3051 39.0679ZM50.3539 27.4136V44.4156H46.6449V27.6851C46.6371 27.5562 46.6293 27.4292 46.7367 27.4136H50.3539ZM80.7699 50.7652C80.7758 50.7105 80.7836 50.6577 80.8598 50.6734C80.8734 50.6695 80.8852 50.6675 80.8988 50.6636C80.8559 50.6968 80.8129 50.732 80.7699 50.7652ZM80.8988 50.6636C81.5707 50.4995 82.1957 50.2886 82.8227 50.0777C83.559 49.8296 84.2973 49.5796 85.1117 49.4077C88.3227 47.7437 91.6098 46.2202 94.9066 44.6929C99.1449 42.7281 103.401 40.7554 107.539 38.4644C113.651 35.0835 119.877 31.3062 125.627 27.3413C125.825 27.2046 126.059 27.062 126.299 26.9136C127.049 26.4488 127.879 25.937 127.979 25.4429C128.28 23.9448 126.719 22.0757 125.989 21.3726C125.452 20.857 124.707 20.4019 123.998 20.0152C121.588 18.7046 120.444 19.7456 118.821 21.2222L118.754 21.2827C117.914 22.0445 117.096 22.8179 116.287 23.5816C114.748 25.0347 113.245 26.4546 111.7 27.7027C110.02 29.062 108.35 30.4312 106.707 31.7788C105.053 33.1363 103.426 34.4702 101.842 35.7515C98.2465 38.6616 94.3754 41.2652 90.5629 43.8316C87.223 46.0796 83.9301 48.2964 80.8988 50.6636Z" transform="translate(55.7422 92.5156)" fill="currentColor"/>
</svg>
