 <svg id="target" viewBox="0 0 237 237" fill="none" xmlns="http://www.w3.org/2000/svg">

<path fill-rule="evenodd" clip-rule="evenodd" d="M69.3613 18.9805L60.4551 18.9863C59.8555 18.9863 59.1562 18.2871 59.1562 17.6855L59.1582 3.42773H62.209V15.7715H67.3691L69.3613 18.9805ZM19.3125 15.2207V19.5508C20.9531 17.9648 21.9707 15.7383 21.9707 13.2773C21.9707 8.4668 18.0723 4.56836 13.2617 4.56836C8.45117 4.56836 4.55273 8.4668 4.55273 13.2773C4.55273 18.0859 8.45117 21.9863 13.2617 21.9863C14.0508 21.9863 14.8105 21.8633 15.5352 21.668L15.5312 16.3027L19.3125 15.2207ZM0 13.4453C0 6.01953 6.01953 0 13.4434 0C20.8711 0 26.8906 6.01953 26.8906 13.4453C26.8906 18.6797 23.8633 23.1875 19.4961 25.4082V31.9199H15.7129L15.7363 26.6855C14.9844 26.8164 14.2344 26.8906 13.4434 26.8906C6.01953 26.8906 0 20.8711 0 13.4453ZM29.5859 17.6895C29.5859 18.291 30.293 18.9883 30.8945 18.9883H39.6816C40.2832 18.9883 40.9805 18.291 40.9805 17.6895L40.9785 3.42773H37.9258V15.7715H32.6328V3.42773H29.5801L29.5859 17.6895ZM76.5098 3.42773C71.9512 3.42773 68.2578 7.12109 68.2578 11.6777C68.2578 16.2344 71.9512 19.9297 76.5098 19.9297C77.9316 19.9297 79.293 19.5586 80.4629 18.9238L78.9746 16.2441C78.2383 16.6445 77.4043 16.873 76.5098 16.873C73.6387 16.873 71.3125 14.5469 71.3125 11.6777C71.3125 8.80859 73.6387 6.48438 76.5098 6.48438C77.4766 6.48438 78.3887 6.75781 79.1641 7.2207L80.6758 4.55469C79.4551 3.83984 78.0234 3.42773 76.5098 3.42773ZM81.9082 12.0684C81.9082 14.9375 84.2305 17.2422 87.0977 17.2422C89.9668 17.2422 92.293 14.916 92.293 12.0488C92.293 9.17969 89.9668 6.85352 87.0977 6.85352C84.2305 6.85352 81.9082 9.20117 81.9082 12.0684ZM87.875 19.9277C83.3203 19.9277 79.6328 16.2559 79.6328 11.6992C79.6328 7.14258 83.3203 3.42773 87.875 3.42773C92.4336 3.42773 96.127 7.12109 96.127 11.6777C96.127 16.2344 92.4336 19.9277 87.875 19.9277ZM50.2344 7.99609L47.7812 13.5781H52.6992L50.2344 7.99609ZM42.0938 18.877L48.9004 3.42773H51.9258L58.7324 18.877H55.4902L53.9902 15.4746L46.9336 15.4727L45.334 18.877H42.0938ZM136.828 3.42578C137.641 3.42578 138.213 3.71289 138.547 4.33398L144.137 17.2305C144.904 19.25 142.129 20.2871 141.221 18.6641L136.828 8.39453L132.432 18.6641C131.859 19.7148 130.092 19.666 129.566 18.6641L125.172 8.39453L120.777 18.6641C120.49 19.1797 120.012 19.4023 119.52 19.4336C119.461 19.4434 119.404 19.4473 119.344 19.4492C119.283 19.4473 119.227 19.4434 119.168 19.4336C118.678 19.4023 118.199 19.1797 117.912 18.6641L113.518 8.39453L109.121 18.6641C108.598 19.666 106.83 19.7148 106.256 18.6641L101.861 8.39453L97.4668 18.6641C96.5586 20.2871 93.7832 19.25 94.5527 17.2305L100.141 4.33398C100.477 3.71289 101.049 3.42578 101.861 3.42578C102.674 3.42578 103.246 3.71289 103.58 4.33398L107.689 13.791L111.797 4.33398C112.131 3.71289 112.703 3.42578 113.518 3.42578C114.328 3.42578 114.902 3.71289 115.236 4.33398L119.344 13.8145L123.451 4.33398C123.787 3.71289 124.359 3.42578 125.172 3.42578C125.984 3.42578 126.559 3.71289 126.893 4.33398L131 13.791L135.107 4.33398C135.443 3.71289 136.016 3.42578 136.828 3.42578Z" transform="translate(45.5039 102.795)" fill="currentColor"/>
</svg>
