 <svg id="target" viewBox="0 0 237 237" fill="none" xmlns="http://www.w3.org/2000/svg">

<path fill-rule="evenodd" clip-rule="evenodd" d="M93.793 49.1113C93.9375 49.1113 94.1191 49.125 94.3516 49.1562L94.4316 49.168V51.2812L94.3223 51.2559C94.1328 51.2148 93.9023 51.1934 93.6406 51.1934C92.9336 51.1934 92.3184 51.4766 91.8105 52.0273C91.2988 52.5879 91.0391 53.3945 91.0391 54.4316V60.1211H88.8242V52.8105C88.8242 51.4492 88.7949 50.3164 88.7383 49.4473L88.7324 49.3516H90.7051L90.8184 51.168C91.0879 50.582 91.4629 50.1074 91.9355 49.7539C92.502 49.3281 93.1289 49.1113 93.793 49.1113ZM30.7148 20.8496C30.7148 19.4277 31.8691 18.2734 33.291 18.2734C34.7148 18.2734 35.8691 19.4277 35.8691 20.8496C35.8691 22.2754 34.7148 23.4277 33.291 23.4277C31.8691 23.4277 30.7148 22.2754 30.7148 20.8496ZM65.1465 18.2734C63.7227 18.2734 62.5684 19.4258 62.5684 20.8516C62.5684 22.2754 63.7227 23.4297 65.1465 23.4297C66.5703 23.4297 67.7227 22.2754 67.7227 20.8516C67.7227 19.4258 66.5703 18.2734 65.1465 18.2734ZM60.293 21.3027C60.293 24.2363 62.6719 26.6152 65.6055 26.6152C68.5391 26.6152 70.918 24.2363 70.918 21.3027C70.918 18.3672 68.5391 15.9883 65.6055 15.9883C62.6719 15.9883 60.293 18.3672 60.293 21.3027ZM58.0176 21.373C58.0176 17.1367 61.4492 13.7051 65.6836 13.7051C69.918 13.7051 73.3516 17.1367 73.3516 21.373C73.3516 25.6055 69.918 29.0391 65.6836 29.0391C61.4492 29.0391 58.0176 25.6055 58.0176 21.373ZM52.3301 20.7109C52.3301 27.7344 58.0234 33.4277 65.0488 33.4277C72.0703 33.4277 77.7637 27.7344 77.7637 20.7109C77.7637 13.6875 72.0703 7.99414 65.0488 7.99414C58.0234 7.99414 52.3301 13.6875 52.3301 20.7109ZM34.332 34.5703C27.3086 34.5703 21.6152 28.877 21.6152 21.8535C21.6152 14.8301 27.3086 9.13672 34.332 9.13672C41.3555 9.13672 47.0508 14.8301 47.0508 21.8535C47.0508 28.877 41.3555 34.5703 34.332 34.5703ZM81.6621 5.88672H71.1035C65.7207 2.26367 58.3672 0 49.9355 0C41.5 0 33.6426 2.26172 28.2578 5.88672H18.2012C19.8418 7.80469 21.0547 10.4004 21.3574 12.1836C19.4609 14.7891 18.3379 17.9922 18.3379 21.4609C18.3379 30.1855 25.4102 37.2598 34.1348 37.2598C39.0859 37.2598 43.502 34.9785 46.3984 31.416C47.5801 32.7949 49.5352 35.5723 49.9316 36.3789C49.9316 36.3789 52.2012 32.9902 53.4746 31.4297C56.3711 34.9844 60.7852 37.2598 65.7285 37.2598C74.4512 37.2598 81.5254 30.1855 81.5254 21.4609C81.5254 17.9941 80.4004 14.793 78.5059 12.1895C78.8066 10.4062 80.0195 7.80664 81.6621 5.88672ZM33.752 26.6152C30.8184 26.6152 28.4395 24.2363 28.4395 21.3008C28.4395 18.3672 30.8184 15.9883 33.752 15.9883C36.6875 15.9883 39.0664 18.3672 39.0664 21.3008C39.0664 24.2363 36.6875 26.6152 33.752 26.6152ZM33.832 13.7051C29.5977 13.7051 26.1641 17.1387 26.1641 21.373C26.1641 25.6094 29.5977 29.0391 33.832 29.0391C38.0664 29.0391 41.498 25.6094 41.498 21.373C41.498 17.1387 38.0664 13.7051 33.832 13.7051ZM6.65625 52.2949V50.5625H3.83398V47.9707L1.66406 48.6172V50.5625H0V52.2949H1.66406V57.8496C1.66406 60.3184 2.67188 61.5723 4.66406 61.5723C5.37695 61.5723 6 61.4746 6.50977 61.2832L6.57227 61.2578L6.47461 59.5508L6.36523 59.582C6.07617 59.6641 5.69531 59.707 5.23242 59.707C4.74023 59.707 4.39258 59.5605 4.17188 59.2598C3.94727 58.9531 3.83398 58.4316 3.83398 57.7188V52.2949H6.65625ZM14.1641 50.2539C14.3066 50.2539 14.4902 50.2676 14.7227 50.2988L14.8008 50.3105V52.4238L14.6914 52.3984C14.502 52.3574 14.2715 52.3359 14.0098 52.3359C13.3027 52.3359 12.6875 52.6191 12.1797 53.1699C11.668 53.7305 11.4082 54.5371 11.4082 55.5742V61.2637H9.19531V53.9531C9.19531 52.5918 9.16602 51.459 9.10742 50.5898L9.10156 50.4941H11.0742L11.1875 52.3105C11.459 51.7246 11.832 51.25 12.3047 50.8965C12.8711 50.4707 13.498 50.2539 14.1641 50.2539ZM15.9277 61.0234H18.1406V50.2539H15.9277V61.0234ZM18.3242 48.0254C18.0664 48.2871 17.7266 48.4238 17.3086 48.4238C16.9062 48.4238 16.5723 48.2871 16.3145 48.0254C16.0586 47.7598 15.9277 47.4316 15.9277 47.0449C15.9277 46.6641 16.0605 46.3379 16.3203 46.0762C16.5801 45.8184 16.9199 45.6855 17.3301 45.6855C17.7246 45.6855 18.0586 45.8184 18.3184 46.0762C18.5781 46.3379 18.7109 46.6641 18.7109 47.0449C18.7109 47.4316 18.5801 47.7598 18.3242 48.0254ZM24.0234 51.9102C24.4961 51.5703 25.0195 51.3965 25.582 51.3965C26.4727 51.3965 27.166 51.7324 27.7031 52.4238C28.2422 53.1191 28.5156 54.0117 28.5156 55.082C28.5156 56.2754 28.2383 57.2363 27.6934 57.9316C27.1484 58.627 26.4316 58.9648 25.498 58.9648C24.7461 58.9648 24.0938 58.6855 23.5586 58.1387C23.0234 57.5898 22.752 56.9004 22.752 56.0918V54.3828C22.752 54.0781 22.8477 53.6738 23.0332 53.1699C23.2168 52.6777 23.5508 52.2559 24.0234 51.9102ZM29.5 51.8086C28.6367 50.7773 27.541 50.2539 26.2422 50.2539C24.668 50.2539 23.4375 50.873 22.5801 52.0918L22.4902 50.4941H20.4766L20.4863 50.6445C20.541 51.5352 20.5684 52.7031 20.5684 54.1172V65.7031H22.7871V60.1914C23.0957 60.5938 23.4883 60.918 23.957 61.1582C24.5469 61.459 25.2031 61.6094 25.9102 61.6094C27.2969 61.6094 28.4707 61.0723 29.3984 60.0137C30.3242 58.959 30.791 57.5254 30.791 55.7559C30.791 54.1621 30.3574 52.832 29.5 51.8086ZM37.7422 59.1855C37.2383 59.6465 36.6016 59.8809 35.8555 59.8809C35.334 59.8809 34.9121 59.7266 34.5996 59.4258C34.2871 59.1289 34.1289 58.707 34.1289 58.1719C34.1289 57.4883 34.4414 56.9609 35.082 56.5664C35.7168 56.1738 36.8672 55.9707 38.502 55.9648V57.627C38.502 58.2031 38.2461 58.7285 37.7422 59.1855ZM40.8047 61.1582C40.6895 60.5273 40.6309 59.6777 40.6309 58.6367V54.7637C40.6309 53.3184 40.2676 52.1934 39.5527 51.4199C38.834 50.6445 37.7598 50.2539 36.3633 50.2539C34.9375 50.2539 33.6934 50.582 32.6621 51.2324L32.6016 51.2676L33.1211 52.7754L33.2148 52.7168C34.043 52.1895 34.998 51.9199 36.0566 51.9199C36.8379 51.9199 37.4316 52.123 37.8242 52.5234C38.2188 52.9219 38.418 53.4922 38.418 54.2148V54.3242C36.3105 54.334 34.6797 54.6797 33.5703 55.3535C32.4316 56.0449 31.8535 57.0625 31.8535 58.375C31.8535 59.2344 32.168 59.9785 32.7871 60.5859C33.4082 61.1973 34.2422 61.5039 35.2695 61.5039C36.6562 61.5039 37.7637 61.0078 38.5645 60.0312L38.7812 61.2637H40.8242L40.8047 61.1582ZM48.8652 54.25V55.9336C48.8652 56.8457 48.5898 57.582 48.041 58.127C47.4941 58.668 46.8613 58.9453 46.1621 58.9453C45.2324 58.9453 44.5273 58.6055 44.0117 57.9082C43.4922 57.2051 43.2285 56.3086 43.2285 55.2344C43.2285 54.0938 43.5078 53.1543 44.0566 52.4453C44.6035 51.7383 45.3066 51.3965 46.2031 51.3965C46.9297 51.3965 47.5605 51.6582 48.082 52.1797C48.6016 52.6992 48.8652 53.3984 48.8652 54.25ZM51.1445 60.4082L51.1328 60.2539C51.0781 59.5879 51.0508 58.6582 51.0508 57.4883V44.543H48.8301V50.6133C48.5391 50.2637 48.1719 49.9746 47.7363 49.748C47.1602 49.4434 46.498 49.293 45.7715 49.293C44.4121 49.293 43.2539 49.8457 42.332 50.9355C41.416 52.0176 40.9531 53.4355 40.9531 55.1484C40.9531 56.7266 41.3945 58.0547 42.2656 59.084C43.1406 60.1211 44.252 60.6484 45.5645 60.6484C46.377 60.6484 47.1152 60.457 47.7578 60.0723C48.2695 59.7695 48.6895 59.3594 49.0117 58.8613L49.1328 60.4082H51.1445ZM60.6895 50.2539C60.6895 50.2539 57.9277 55.8945 57.7305 56.5312C57.4805 55.7656 54.7324 50.2539 54.7324 50.2539H52.3301L57.7402 61.0234L63.0527 50.2539H60.6895ZM65.9199 61.0234H63.7051V50.2539H65.9199V61.0234ZM65.084 48.4238C65.502 48.4238 65.8438 48.2871 66.1016 48.0254C66.3555 47.7598 66.4883 47.4316 66.4883 47.0449C66.4883 46.6641 66.3555 46.3379 66.0938 46.0762C65.834 45.8184 65.5 45.6855 65.1055 45.6855C64.6973 45.6855 64.3574 45.8184 64.0957 46.0762C63.8359 46.3379 63.7051 46.6641 63.7051 47.0449C63.7051 47.4316 63.834 47.7598 64.0918 48.0254C64.3477 48.2871 64.6816 48.4238 65.084 48.4238ZM72.7266 54.9414C73.7578 55.3125 74.5098 55.7559 74.9629 56.2617C75.4199 56.7793 75.6523 57.4277 75.6523 58.2012C75.6523 59.1855 75.2715 59.9922 74.5195 60.5996C73.7734 61.2012 72.748 61.5059 71.4707 61.5059C70.3008 61.5059 69.2402 61.25 68.3203 60.75L68.2559 60.7148L68.793 58.9824L68.8926 59.043C69.7344 59.5566 70.6172 59.8184 71.5156 59.8184C72.1465 59.8184 72.6406 59.6816 72.9805 59.4199C73.3184 59.1582 73.4805 58.8145 73.4805 58.375C73.4805 57.9492 73.3477 57.6172 73.0684 57.3477C72.7832 57.0801 72.2734 56.8203 71.5508 56.5762C69.5801 55.9023 68.5801 54.8652 68.5801 53.4961C68.5801 52.5801 68.9395 51.8047 69.6445 51.1836C70.3477 50.5684 71.293 50.2539 72.457 50.2539C73.5312 50.2539 74.459 50.4766 75.2129 50.9219L75.2773 50.959L74.7148 52.5977L74.6211 52.543C73.9004 52.1309 73.1504 51.9199 72.3906 51.9199C71.875 51.9199 71.4648 52.0488 71.168 52.2969C70.873 52.5488 70.7285 52.8633 70.7285 53.2539C70.7285 53.6035 70.8516 53.8906 71.1016 54.1309C71.3555 54.375 71.9043 54.6484 72.7266 54.9414ZM81.5017 59.2749C80.6478 59.2749 79.9266 58.9047 79.3588 58.1746C78.7843 57.4409 78.4941 56.4908 78.4941 55.3592C78.4941 54.2241 78.7736 53.2668 79.324 52.5162C79.8672 51.7758 80.6214 51.3984 81.5648 51.3984C82.4921 51.3984 83.236 51.7789 83.7721 52.5265C84.3171 53.2847 84.593 54.2169 84.593 55.2931C84.593 56.4631 84.2925 57.4306 83.7023 58.1675C83.1171 58.9011 82.3767 59.2749 81.5017 59.2749ZM86.3761 51.7997C85.4278 50.7763 84.1772 50.2559 82.6611 50.2559C81.1401 50.2559 79.8619 50.7799 78.8608 51.8104C77.862 52.841 77.3555 54.2381 77.3555 55.9706C77.3555 57.598 77.8464 58.9393 78.8139 59.9627C79.7832 60.9861 81.0284 61.5066 82.5163 61.5066C83.4699 61.5066 84.3695 61.2691 85.1899 60.8046C86.0126 60.3401 86.6609 59.6659 87.1164 58.7998C87.5725 57.9369 87.8027 56.9207 87.8027 55.7712C87.8027 54.1577 87.3225 52.8235 86.3761 51.7997Z" transform="translate(71.668 84.5195)" fill="currentColor"/>
</svg>
