 <svg id="target" viewBox="0 0 237 237" fill="none" xmlns="http://www.w3.org/2000/svg">

<path fill-rule="evenodd" clip-rule="evenodd" d="M0 27.6494C0 12.3785 12.3796 0 27.6494 0C42.9215 0 55.3 12.3785 55.3 27.6494C55.3 42.9204 42.9215 55.2988 27.6494 55.2988C12.3796 55.2988 0 42.9204 0 27.6494ZM7.96289 27.6523C7.96289 35.5785 12.6831 42.4025 19.4673 45.4647L8.8861 21.7012C8.28701 23.578 7.96289 25.5777 7.96289 27.6523ZM11.377 16.7879L20.5575 37.4086L24.3639 28.8704H30.1289L33.9376 37.4039L43.1159 16.7879C41.5631 14.6279 39.5798 12.7979 37.2911 11.4242L30.1289 27.492H24.3639L17.2052 11.4219C14.9153 12.7967 12.9308 14.6268 11.377 16.7879ZM45.8468 21.7012L35.2656 45.4647C42.0499 42.4025 46.77 35.5785 46.77 27.6523C46.77 25.5777 46.4471 23.578 45.8468 21.7012ZM33.0826 46.0023L27.3479 33.123L21.6133 46.0035C23.4258 46.5593 25.3506 46.8577 27.3444 46.8577C29.3418 46.8577 31.2678 46.5593 33.0826 46.0023ZM21.6133 8.85144L27.3479 21.7307L33.0814 8.85261C31.2678 8.29564 29.3418 7.99609 27.3444 7.99609C25.3506 7.99609 23.4258 8.29564 21.6133 8.85144ZM4.55078 28.161C4.55078 15.132 15.1133 4.56836 28.1423 4.56836C41.1725 4.56836 51.735 15.132 51.735 28.161C51.735 41.1901 41.1725 51.7537 28.1423 51.7537C15.1133 51.7537 4.55078 41.1901 4.55078 28.161Z" transform="translate(91.0078 91.373)" fill="currentColor"/>
</svg>
