 <svg id="target" viewBox="0 0 237 237" fill="none" xmlns="http://www.w3.org/2000/svg">

<path fill-rule="evenodd" clip-rule="evenodd" d="M76.2188 32.2832C76.2188 37.3223 80.3418 40.6465 85.6621 40.6465C90.9414 40.6465 94.9668 37.3223 94.9668 32.3164C94.9668 27.2656 90.9414 23.9863 85.6289 23.9863C80.3418 23.9863 76.2188 27.2656 76.2188 32.2832ZM85.1191 25.127C88.2695 25.127 90.5664 27.3184 90.5664 31.5215H90.5332C90.5332 35.7129 88.2227 37.959 85.1191 37.959C82.0059 37.959 79.6328 35.7129 79.6328 31.5215C79.6328 27.3184 82.0059 25.127 85.1191 25.127ZM63.3789 14.2051V15.998H79.2168V9.55078H77.3555C77.3555 11.1133 77.1445 12.0703 76.6797 12.918C76.1699 13.8633 75.0508 14.1074 73.1445 14.1074H69.2539V3.29102C69.2539 1.9707 69.5176 1.82617 71.084 1.82617L72.2363 1.79297V0H62.5684V1.79297H63.5879C64.9414 1.79297 65.5938 1.9375 65.5938 3.29102L65.627 12.707C65.627 14.0723 65.0176 14.2051 63.6211 14.2051H63.3789ZM45.6367 14.2051V15.998H62.1426V9.55078H60.2812C60.2812 11.1133 60.082 12.0703 59.6055 12.918C59.0957 13.8633 57.9766 14.1074 56.0801 14.1074H52.1777V3.29102C52.1777 1.9707 52.4531 1.82617 54.0059 1.82617L55.1582 1.79297V0H45.5039V1.79297H46.3457C47.7109 1.79297 48.5195 1.9375 48.5195 3.29102L48.5527 12.707C48.5527 14.0723 47.9434 14.2051 46.5566 14.2051H45.6367ZM27.3027 14.2051V15.998H44.8965V9.55078H43.0664C42.8125 12.7305 42.1152 14.1074 39.1973 14.1074H34.043V8.53711H35.2285C37.2363 8.53711 37.502 8.91406 37.6348 11.6641H39.5098V3.55469H37.668C37.502 5.96484 37.2363 6.64648 35.1953 6.64648H34.043V1.89062H38.5215C41.7812 1.89062 42.6582 2.47656 42.7578 6.20508H44.5859V0H28.2031V1.79297H28.2441C29.6426 1.79297 30.418 1.9375 30.418 3.25781V12.707C30.418 14.0391 29.6426 14.1719 28.2441 14.1719L27.3027 14.2051ZM27.3027 0V1.79297H27.5938C26.2754 1.79297 25.8301 2.30078 25.2852 3.76367L20.709 15.998H17.8262L14.166 7.11719L10.6758 15.998H7.69336L2.91602 3.96094C2.37109 2.57422 1.56445 1.79297 0.376953 1.79297H0V0H8.13867V1.79297H7.34961C6.44141 1.79297 6.03125 2.03516 6.06445 2.54102L6.0625 2.60156C6.05664 2.70508 6.04883 2.85938 6.13086 3.04688C6.13086 3.04688 7.99219 7.4375 9.4668 11.7734C9.62109 11.7949 9.6875 11.7949 9.6875 11.7949L12.8809 3.79688C12.748 2.47656 12.3047 1.79297 10.9199 1.79297H9.83398V0H18.4023V1.79297H17.0508C16.2402 1.79297 15.9316 1.9707 15.9316 2.44336C15.9316 2.64062 15.9648 2.88281 16.0645 3.11523C16.0645 3.11523 17.9941 7.76758 19.4004 11.8184C19.5879 11.8184 19.5879 11.8281 19.5879 11.8281L22.6816 3.73047C22.8809 3.19141 22.8809 2.78516 22.8809 2.50781C22.8809 2.00195 22.4375 1.79297 21.5293 1.79297H20.4102V0H27.3027ZM88.7676 16.6797C93.0352 16.6797 95.916 15.3594 95.916 11.6953V11.6621C95.916 7.86719 93.2676 7.16211 89.8398 6.58984L86.4824 6.00586L86.293 5.97266C84.875 5.72656 83.7871 5.53906 83.7871 4.39062C83.7871 3.10156 85.041 2.01172 86.9395 1.94727C89.5547 1.88281 92.6113 2.82812 93.002 5.92969H94.7969V0.339844H93.377L92.5684 1.66211C90.8398 0.275391 88.6016 0 86.8711 0C83.3105 0.0332031 80.6621 1.93555 80.7734 4.85156C80.873 7.52539 82.1914 8.71484 86.293 9.42969L89.043 9.93555C89.3672 9.99414 89.7031 10.041 90.0332 10.084C91.6074 10.2969 93.0938 10.4961 92.9023 12.168C92.7012 13.918 90.9062 14.5898 88.377 14.4805C85.4395 14.3477 83.3789 13.0156 82.8672 9.94727H81.0059V16.3828H82.6348L83.1777 14.7109C83.7207 15.2168 86.1953 16.6797 88.7676 16.6797ZM19.1621 30.1699C19.1621 28.9375 18.9629 27.8477 18.5195 26.9668C17.9766 26.0215 16.8672 25.8789 14.9609 25.8789H10.957V30.666H12.2227C14.25 30.666 14.5625 30.293 14.5625 27.8145H16.0469V35.8145L14.5293 35.7812C14.4961 33.1074 14.2168 32.5566 12.2227 32.5566H10.957V36.7285C10.957 38.0605 11.1699 38.1895 12.5547 38.1895H14.418V39.9863H4.55078V38.1895L5.47266 38.1582C6.85742 38.1582 7.33398 38.0273 7.33398 36.6953V27.2441C7.33398 25.9238 6.85742 25.7812 5.47266 25.7812H4.55078V23.9863H21.0039V30.1699H19.1621ZM28.6777 38.1895V39.9863H37.541V38.1895H37.3359C36.4258 38.1895 35.9062 37.8496 35.4395 36.627L30.3184 23.9863H26.3945L21.0391 36.627C20.5625 37.75 20.1855 38.1895 18.9336 38.1895H18.2012V39.9863H26.5488V38.1895H24.8848C24.0332 38.1895 23.5996 38.1582 23.5996 37.6523C23.5996 37.4434 23.666 37.2129 23.7988 36.9043L24.6094 34.9023H30.8496L31.5273 36.7715C31.6602 37.0703 31.7715 37.3438 31.7715 37.543C31.7715 38.0918 31.3281 38.1895 30.4062 38.1895H28.6777ZM38.1113 39.9863V38.1895H38.9609C39.8828 38.1895 40.6348 37.8613 40.6348 36.6953V27.2441C40.6348 25.9238 40.4238 25.7812 39.0391 25.7812H37.7188V23.9863H48.7266C52.8398 23.9863 54.7344 25.209 54.7344 27.7832C54.7344 30.0918 52.9395 31.5137 49.8828 31.9199C52.7305 32.6035 53.1074 33.6133 53.2734 35.7812C53.2949 35.9219 53.2891 36.1621 53.2812 36.4062L53.2734 36.7715C53.3398 37.7168 53.7168 38.1582 54.1934 38.125C55.168 38.0605 55.2461 37.3438 55.168 35.4414H56.6973C56.7305 35.7148 56.7305 35.9922 56.7305 36.2559H56.6973C56.6973 39.1699 55.3457 40.3262 53.416 40.3262C51.2109 40.3262 49.7832 39.7207 49.6836 37.5098L49.6152 35.6484C49.5156 32.9648 48.6602 32.4258 45.8887 32.4258H44.2598V36.7285C44.2598 38.0605 44.4609 38.1895 45.8555 38.1895H47.3086V39.9863H38.1113ZM25.0273 33.5508L27.4316 27.4121L29.8711 33.5508H25.0273ZM47.793 26.2695C50.0664 26.2695 51.1523 26.8184 51.1523 28.6797V28.7129C51.1523 30.373 50.0996 31.0879 47.8594 31.0879L44.3672 31.1211V26.2695H47.793ZM65.4512 25.9121C68.0996 25.9121 69.7051 27.0352 70.4707 29.4336L72.123 29.4238V24.0547H70.8477L70.0293 25.7168C68.8418 24.4609 66.7461 23.9863 64.9512 23.9863C62.7773 23.9551 60.6719 24.7246 59.2852 26.0898C57.6895 27.6738 56.8789 29.6445 56.8789 32.1191C56.8477 34.6289 57.7559 36.7617 59.3184 38.3574C60.8047 39.8535 62.6797 40.625 64.8711 40.625C66.7461 40.625 68.8418 40.0859 70.3047 38.9316L71.1465 40.2617H72.457V34.9043C72.457 33.6387 72.6074 33.6406 73.5469 33.6465L73.7852 33.6484H74.3945V31.8125H66.957V33.6484H67.7559C69.2852 33.6484 69.5527 33.6484 69.5527 34.7266V35.6055C69.5527 37.4453 67.623 38.5234 65.4512 38.5234C62.4668 38.4902 60.8047 36.2559 60.8047 32.1191C60.7715 28.0488 62.8438 25.9121 65.4512 25.9121Z" transform="translate(71.668 98.2266)" fill="currentColor"/>
</svg>
