<svg id="target" xmlns="http://www.w3.org/2000/svg" viewBox="0 0 24 24"><title>ecology-globe-house</title><path d="M5.5,6H7a.5.5,0,0,1,.5.5v3a1,1,0,0,0,1,1H10a.5.5,0,0,0,.5-.5V7.5a1.5,1.5,0,0,1,3,0V10a.5.5,0,0,0,.5.5h1.5a1,1,0,0,0,1-1v-3A.5.5,0,0,1,17,6h1.5a.5.5,0,0,0,.31-.893L16.69,3.433a.5.5,0,0,1-.19-.392V.5A.5.5,0,0,0,16,0H15a.5.5,0,0,0-.5.5v.685a.25.25,0,0,1-.4.2L12.622.217a1,1,0,0,0-1.244,0L5.19,5.108A.5.5,0,0,0,5.5,6Z"/><path d="M23.723,11.809A1,1,0,0,0,23,11.5H1a1,1,0,0,0-1,1.045,12.012,12.012,0,0,0,24,0A1,1,0,0,0,23.723,11.809ZM3.151,16a.5.5,0,0,1-.465-.317A9.908,9.908,0,0,1,2.209,14.1a.5.5,0,0,1,.49-.6H5.052a.5.5,0,0,1,.5.465q.051.75.154,1.464a.5.5,0,0,1-.5.571Zm3.941,4.519a.25.25,0,0,1-.3.03A10,10,0,0,1,4.305,18.41.25.25,0,0,1,4.5,18H5.9a.5.5,0,0,1,.476.345,13.25,13.25,0,0,0,.77,1.877A.25.25,0,0,1,7.092,20.519ZM11,21.266a.251.251,0,0,1-.4.2,7.177,7.177,0,0,1-2.1-3.125A.251.251,0,0,1,8.734,18H10.5a.5.5,0,0,1,.5.5ZM11,15.5a.5.5,0,0,1-.5.5H8.248a.5.5,0,0,1-.493-.415c-.085-.493-.15-1.009-.193-1.544a.5.5,0,0,1,.5-.541H10.5a.5.5,0,0,1,.5.5Zm4.5,2.841a7.168,7.168,0,0,1-2.1,3.125.251.251,0,0,1-.4-.2V18.5a.5.5,0,0,1,.5-.5h1.766a.251.251,0,0,1,.233.341Zm.939-4.3c-.043.535-.108,1.051-.193,1.544a.5.5,0,0,1-.493.415H13.5a.5.5,0,0,1-.5-.5V14a.5.5,0,0,1,.5-.5h2.44a.5.5,0,0,1,.5.541ZM19.7,18.41a10,10,0,0,1-2.487,2.139.25.25,0,0,1-.353-.327,13.37,13.37,0,0,0,.771-1.877A.5.5,0,0,1,18.1,18h1.4a.25.25,0,0,1,.192.41Zm2.1-4.3a9.925,9.925,0,0,1-.476,1.578.5.5,0,0,1-.466.317H18.791a.5.5,0,0,1-.5-.571q.1-.714.155-1.464a.5.5,0,0,1,.5-.465H21.3a.5.5,0,0,1,.489.605Z"/></svg>
