<svg id="target" xmlns="http://www.w3.org/2000/svg" viewBox="0 0 24 24"><title>ecology-plant-deal</title><path d="M7.6,9.944a2.228,2.228,0,0,0,1.2-.712.5.5,0,0,1,.787.065,17.613,17.613,0,0,1,1.762,3.366.5.5,0,0,0,.95-.019A14.985,14.985,0,0,1,13.42,10.1a6.87,6.87,0,0,1,2.667-2.979.5.5,0,1,1,.447.895,6.182,6.182,0,0,0-2.206,2.507.5.5,0,0,0,.231.7A2.708,2.708,0,0,0,17.54,10.3a6.618,6.618,0,0,0,.865-6.089.5.5,0,0,0-.755-.191,5.787,5.787,0,0,1-2.264.972,6.261,6.261,0,0,0-2.042.807A2.506,2.506,0,0,0,12.091,7.8a1.987,1.987,0,0,0,.435,1.22.5.5,0,0,1,.037.548c-.21.373-.392.738-.547,1.074a.249.249,0,0,1-.449.01A22.425,22.425,0,0,0,5.721,3.631a.5.5,0,0,1,.62-.785,23.378,23.378,0,0,1,3.893,3.919.5.5,0,0,0,.8-.01,2.4,2.4,0,0,0,.457-1.048,3.453,3.453,0,0,0-1.229-2.9A6.113,6.113,0,0,0,7,1.321,7.912,7.912,0,0,1,3.894.1.5.5,0,0,0,3.14.3C2.047,2.725,2.907,6.97,4.37,8.486,5.216,9.362,6.414,10.189,7.6,9.944Z"/><path d="M19.854,14.748h-.46a2.017,2.017,0,0,1-.578-.085l-3.381-1.02a2.442,2.442,0,0,0-1.891.1c-.8.388-1.342.649-1.644.8a.5.5,0,0,1-.486-.027,2.186,2.186,0,0,0-1.17-.335,28.9,28.9,0,0,0-3.955,1.03.5.5,0,0,1-.46-.1,1.488,1.488,0,0,0-.975-.362h-1a1,1,0,0,0-1,1v5.5a1,1,0,0,0,1,1h1a1.5,1.5,0,0,0,1.169-.563.5.5,0,0,1,.39-.187H7.744a.5.5,0,0,1,.349.142l1.929,1.879A1.434,1.434,0,0,0,11.094,24a1.416,1.416,0,0,0,.9-.322l2.44-1.96a1.006,1.006,0,0,1,.627-.22h2.493a.5.5,0,0,1,.433.25,1,1,0,0,0,.866.5h1a1.5,1.5,0,0,0,1.5-1.5v-4.5A1.5,1.5,0,0,0,19.854,14.748Zm-5.592,4.986a.5.5,0,0,1-.185.35L11.45,22.2a.5.5,0,0,1-.663-.031L8.775,20.211A.746.746,0,0,0,8.252,20h-1.4a.5.5,0,0,1-.5-.5V17.131a.5.5,0,0,1,.367-.482c2.177-.6,3.1-.856,3.407-.938a.393.393,0,0,1,.49.43,1.955,1.955,0,0,0,1.164,2.043,1.985,1.985,0,0,0,1.1.137.5.5,0,0,1,.454.157l.8.881A.5.5,0,0,1,14.262,19.734Zm3.592-.236a.5.5,0,0,1-.5.5H16.5a.5.5,0,0,1-.5-.428,1.543,1.543,0,0,0-.321-.737l-.724-.8a.249.249,0,0,1,.06-.384.751.751,0,0,0-.6-1.365l-1.7.526A.45.45,0,0,1,12.345,16l1.86-.9a.873.873,0,0,1,.757-.029l2.536.766a.5.5,0,0,1,.356.479Z"/></svg>
