<svg id="target" xmlns="http://www.w3.org/2000/svg" viewBox="0 0 24 24"><title>organic-plant</title><path d="M6.5,20.4a10.09,10.09,0,0,1-1.4-1.116,1,1,0,0,0-1.38,1.447A12.031,12.031,0,0,0,5.4,22.073,1,1,0,0,0,6.5,20.4Z"/><path d="M3.423,17.194a9.9,9.9,0,0,1-.78-1.609,1,1,0,0,0-1.872.7,11.853,11.853,0,0,0,.938,1.934,1,1,0,1,0,1.714-1.03Z"/><path d="M15.092,21.561a10,10,0,0,1-1.745.4,1,1,0,1,0,.267,1.982,12.087,12.087,0,0,0,2.095-.477,1,1,0,1,0-.617-1.9Z"/><path d="M10.664,21.96a9.987,9.987,0,0,1-1.746-.395,1,1,0,1,0-.616,1.9,11.9,11.9,0,0,0,2.1.474,1,1,0,0,0,.265-1.982Z"/><path d="M22.649,14.991a1,1,0,0,0-1.288.583,10.085,10.085,0,0,1-.779,1.611A1,1,0,1,0,22.3,18.214a11.94,11.94,0,0,0,.937-1.935A1,1,0,0,0,22.649,14.991Z"/><path d="M18.906,19.281a10.112,10.112,0,0,1-1.4,1.117,1,1,0,1,0,1.1,1.668,12.081,12.081,0,0,0,1.68-1.339,1,1,0,1,0-1.382-1.446Z"/><path d="M12,.048a12.013,12.013,0,0,0-12,12c0,.368.017.731.049,1.089a1,1,0,1,0,1.992-.179Q2,12.508,2,12.048a10,10,0,0,1,20,0q0,.461-.041.91a1,1,0,1,0,1.992.179c.032-.358.049-.721.049-1.089A12.013,12.013,0,0,0,12,.048Z"/><path d="M3.959,10.758a8.055,8.055,0,0,0,5.711,7.7.25.25,0,0,0,.322-.246,9.728,9.728,0,0,1,1-4.139.5.5,0,0,0-.045-.517,8.036,8.036,0,0,0-6.487-3.294A.5.5,0,0,0,3.959,10.758Z"/><path d="M11.807,12.22a.251.251,0,0,0,.386,0,9.578,9.578,0,0,1,2.462-2.113.5.5,0,0,0,.241-.476A8.864,8.864,0,0,0,12.354,4.2a.5.5,0,0,0-.708,0A8.883,8.883,0,0,0,9.1,9.628a.5.5,0,0,0,.241.477A9.62,9.62,0,0,1,11.807,12.22Z"/><path d="M13,20.048v-.883a.5.5,0,0,1,.413-.491,8.053,8.053,0,0,0,6.628-7.916.5.5,0,0,0-.5-.5,8.058,8.058,0,0,0-8.041,7.79v2a.75.75,0,1,0,1.5,0Z"/></svg>
