<svg id="target" xmlns="http://www.w3.org/2000/svg" viewBox="0 0 24 24"><title>pollution-rain-skull</title><circle cx="14.5" cy="9.5" r="1"/><circle cx="10.5" cy="9.5" r="1"/><path d="M22.127,9.106a.5.5,0,0,1-.179-.47,3.978,3.978,0,0,0-.81-3.114,3.918,3.918,0,0,0-2.847-1.507.5.5,0,0,1-.417-.286A6.5,6.5,0,0,0,5.557,5.634a.5.5,0,0,1-.423.429A6.019,6.019,0,0,0,0,12.015a5.956,5.956,0,0,0,1.778,4.266A5.752,5.752,0,0,0,6,18H19.054a4.9,4.9,0,0,0,3.461-1.425A4.969,4.969,0,0,0,24,13.015,5.046,5.046,0,0,0,22.127,9.106Zm-6.9,3.671a.5.5,0,0,0-.224.417V14.5a.5.5,0,0,1-1,0v-1a.5.5,0,0,0-1,0v1a.5.5,0,0,1-1,0v-1a.5.5,0,0,0-1,0v1a.5.5,0,1,1-1,0V13.2a.5.5,0,0,0-.223-.418A3.774,3.774,0,0,1,8,9.5a4.5,4.5,0,0,1,9,0A3.775,3.775,0,0,1,15.224,12.777Z"/><path d="M4.642,21.762a3.272,3.272,0,0,0-1.349.531,1,1,0,0,0,1.414,1.414,3.248,3.248,0,0,0,.531-1.348.5.5,0,0,0-.6-.6Z"/><path d="M7.392,19.012a3.272,3.272,0,0,0-1.349.531,1,1,0,0,0,1.414,1.414,3.248,3.248,0,0,0,.531-1.348.5.5,0,0,0-.6-.6Z"/><path d="M9.642,21.762a3.272,3.272,0,0,0-1.349.531,1,1,0,0,0,1.414,1.414,3.248,3.248,0,0,0,.531-1.348.5.5,0,0,0-.6-.6Z"/><path d="M12.392,19.012a3.272,3.272,0,0,0-1.349.531,1,1,0,0,0,1.414,1.414,3.248,3.248,0,0,0,.531-1.348.5.5,0,0,0-.6-.6Z"/><path d="M14.642,21.762a3.272,3.272,0,0,0-1.349.531,1,1,0,0,0,1.414,1.414,3.248,3.248,0,0,0,.531-1.348.5.5,0,0,0-.6-.6Z"/><path d="M17.392,19.012a3.272,3.272,0,0,0-1.349.531,1,1,0,0,0,1.414,1.414,3.248,3.248,0,0,0,.531-1.348.5.5,0,0,0-.6-.6Z"/></svg>
