
<svg version="1.1" id="target" xmlns="http://www.w3.org/2000/svg" xmlns:xlink="http://www.w3.org/1999/xlink" x="0px" y="0px"
	 viewBox="0 0 24 24" style="enable-background:new 0 0 24 24;" xml:space="preserve">
<g>
	<title>business-shark-1</title>
	<path d="M1.088,20.389c-0.132,0-0.264-0.005-0.397-0.016c-0.412-0.033-0.721-0.395-0.688-0.807c0.031-0.387,0.36-0.691,0.75-0.691
		c0.018,0,0.035,0.001,0.053,0.002c0.096,0.008,0.189,0.011,0.281,0.011c1.199,0,2.299-0.606,2.942-1.621
		c0.126-0.199,0.342-0.329,0.577-0.347c0.019-0.001,0.039-0.002,0.059-0.002c0.216,0,0.421,0.094,0.564,0.259
		c0.863,0.994,2.06,1.596,3.372,1.697c1.125-0.013,2.179-0.621,2.754-1.589c0.124-0.208,0.342-0.344,0.583-0.364
		c0.022-0.001,0.041-0.002,0.059-0.002c0.223,0,0.433,0.097,0.576,0.266c0.844,0.999,2.078,1.616,3.384,1.691l0.026,0
		c1.111,0,2.147-0.605,2.703-1.578c0.123-0.215,0.344-0.356,0.591-0.376c0.022-0.001,0.039-0.002,0.057-0.002
		c0.23,0,0.444,0.101,0.587,0.278c0.824,1.019,2.048,1.63,3.357,1.678c0.413,0.015,0.737,0.364,0.722,0.777
		c-0.015,0.399-0.347,0.723-0.741,0.723c0,0-0.037-0.001-0.045-0.001c-1.413-0.052-2.75-0.594-3.799-1.538
		c-0.872,0.97-2.135,1.539-3.454,1.539l-0.057,0c-1.431-0.082-2.769-0.632-3.825-1.559c-0.892,0.978-2.172,1.554-3.5,1.559
		c-0.02,0-0.04-0.001-0.059-0.002c-1.402-0.1-2.733-0.655-3.785-1.572C3.794,19.814,2.487,20.388,1.088,20.389
		C1.088,20.389,1.088,20.389,1.088,20.389z"/>
	<path d="M1.086,14.683c-0.131,0-0.263-0.005-0.396-0.016c-0.199-0.016-0.381-0.108-0.511-0.26c-0.13-0.152-0.193-0.346-0.177-0.546
		c0.031-0.387,0.361-0.691,0.752-0.691c0.017,0,0.034,0.001,0.051,0.002c0.098,0.008,0.191,0.011,0.284,0.011
		c1.198,0,2.298-0.606,2.941-1.622c0.126-0.199,0.342-0.329,0.578-0.347c0.019-0.001,0.038-0.002,0.057-0.002
		c0.217,0,0.423,0.094,0.566,0.258c0.863,0.994,2.06,1.597,3.372,1.698c1.125-0.014,2.179-0.622,2.754-1.59
		c0.124-0.208,0.342-0.344,0.583-0.365c0.02-0.002,0.041-0.003,0.063-0.003c0.22,0,0.429,0.097,0.572,0.266
		c0.844,1,2.077,1.617,3.384,1.693l0.026,0c1.112,0,2.148-0.605,2.703-1.579c0.123-0.216,0.344-0.356,0.591-0.376
		c0.02-0.002,0.041-0.002,0.061-0.002c0.227,0,0.44,0.101,0.583,0.278c0.824,1.019,2.048,1.631,3.358,1.679
		c0.2,0.007,0.385,0.092,0.522,0.239c0.136,0.147,0.208,0.338,0.2,0.538c-0.015,0.406-0.341,0.723-0.741,0.723
		c-0.008,0-0.037-0.001-0.045-0.001c-1.414-0.052-2.75-0.595-3.799-1.538c-0.873,0.971-2.137,1.54-3.46,1.54l-0.051,0
		c-1.431-0.083-2.77-0.633-3.825-1.56c-0.889,0.976-2.165,1.552-3.489,1.56c-0.007,0-0.013,0-0.019,0
		c-0.012,0-0.038-0.001-0.049-0.002c-1.404-0.101-2.734-0.656-3.786-1.574C3.794,14.108,2.486,14.683,1.086,14.683z"/>
	<path d="M17.25,10.169c-0.251,0-0.485-0.125-0.624-0.334c-2.418-3.628-6.64-4.588-8.36-4.833c-0.005,0-0.01,0-0.015,0L8.25,9.419
		c0,0.414-0.336,0.75-0.75,0.75s-0.75-0.336-0.75-0.75V5c0-0.401,0.157-0.778,0.44-1.062C7.474,3.656,7.85,3.5,8.251,3.5
		c0.071,0,0.141,0.005,0.21,0.015c1.911,0.27,6.652,1.346,9.413,5.489c0.111,0.167,0.151,0.367,0.112,0.563
		c-0.039,0.197-0.153,0.366-0.32,0.477C17.542,10.126,17.398,10.169,17.25,10.169z"/>
</g>
</svg>
