<?xml version="1.0" standalone="no"?><!DOCTYPE svg PUBLIC "-//W3C//DTD SVG 1.1//EN" "http://www.w3.org/Graphics/SVG/1.1/DTD/svg11.dtd" ><svg version="1.1" xmlns="http://www.w3.org/2000/svg"><defs><font horiz-adv-x="0" id="font"><font-face ascent="750" bbox="-166 -238 1423 997" cap-height="700" descent="-250" font-family="Web use ONLY | Copyright (C) Emtype Foundry" font-stretch="normal" font-weight="800" units-per-em="1000" x-height="512" /><missing-glyph d="M52 351Q52 501 157.5 606.5Q263 712 413 712Q563 712 668.5 606.5Q774 501 774 351Q774 201 668 94.5Q562 -12 413 -12Q264 -12 158 94.5Q52 201 52 351ZM306 565H229L375 346L229 127H307L414 287L520 127H598L452 346L598 565H521L414 404Z" horiz-adv-x="826" /><glyph d="M200 112 143 0H-37L339 700H536L667 0H490L472 112ZM407 518 271 252H450ZM437 700ZM612 0Z" glyph-name="A" horiz-adv-x="719" unicode="A" /><glyph d="M214 112 139 0H-55L435 700H1026L1000 555H685L663 428H947L923 293H639L613 145H939L913 0H412L432 112ZM510 552 308 252H457Z" glyph-name="AE" horiz-adv-x="1003" unicode="&#198;" /><glyph d="M200 112 143 0H-37L339 700H536L667 0H490L472 112ZM407 518 271 252H450ZM437 700ZM612 0ZM642 940H484L379 787H519ZM437 700Z" glyph-name="Aacute" horiz-adv-x="719" unicode="&#193;" /><glyph d="M200 112 143 0H-37L339 700H536L667 0H490L472 112ZM407 518 271 252H450ZM437 700ZM612 0ZM462 875Q485 875 496 890.5Q507 906 507 940H619Q619 870 576.5 827.5Q534 785 456 785Q380 785 340 830Q300 875 309 940H423Q418 908 428 891.5Q438 875 462 875ZM437 700Z" glyph-name="Abreve" horiz-adv-x="719" unicode="&#258;" /><glyph d="M200 112 143 0H-37L339 700H536L667 0H490L472 112ZM407 518 271 252H450ZM437 700ZM612 0ZM258 787 378 940H559L651 787H517L461 861L392 787ZM437 700Z" glyph-name="Acircumflex" horiz-adv-x="719" unicode="&#194;" /><glyph d="M200 112 143 0H-37L339 700H536L667 0H490L472 112ZM407 518 271 252H450ZM437 700ZM612 0ZM283 863Q283 831 305 808.5Q327 786 359 786Q391 786 414 808.5Q437 831 437 863Q437 895 414 918Q391 941 359 941Q328 941 305.5 918Q283 895 283 863ZM477 863Q477 831 499.5 808.5Q522 786 554 786Q586 786 608.5 808.5Q631 831 631 863Q631 895 608 918Q585 941 554 941Q522 941 499.5 918Q477 895 477 863ZM437 700Z" glyph-name="Adieresis" horiz-adv-x="719" unicode="&#196;" /><glyph d="M200 112 143 0H-37L339 700H536L667 0H490L472 112ZM407 518 271 252H450ZM437 700ZM612 0ZM517 787 440 940H289L384 787ZM437 700Z" glyph-name="Agrave" horiz-adv-x="719" unicode="&#192;" /><glyph d="M200 112 143 0H-37L339 700H536L667 0H490L472 112ZM407 518 271 252H450ZM437 700ZM612 0ZM572 813H326L344 912H590ZM437 700Z" glyph-name="Amacron" horiz-adv-x="719" unicode="&#256;" /><glyph d="M200 112 143 0H-37L339 700H536L667 0H563Q531 -22 515 -47.5Q499 -73 499 -102Q499 -128 514 -141.5Q529 -155 556 -155Q564 -155 573 -154Q582 -153 593 -150L579 -224Q562 -231 544 -234.5Q526 -238 502 -238Q454 -238 424.5 -211.5Q395 -185 395 -140Q395 -98 419 -62Q443 -26 490 0L472 112ZM407 518 271 252H450Z" glyph-name="Aogonek" horiz-adv-x="719" unicode="&#260;" /><glyph d="M200 112 143 0H-37L339 700H536L667 0H490L472 112ZM407 518 271 252H450ZM437 700ZM612 0ZM575 878Q575 927 540 962Q505 997 456 997Q406 997 372 962Q338 927 338 878Q338 829 372 794.5Q406 760 456 760Q506 760 540.5 794.5Q575 829 575 878ZM414 878Q414 895 427 908Q440 921 456 921Q473 921 486 908Q499 895 499 878Q499 862 486 849Q473 836 456 836Q440 836 427 849Q414 862 414 878ZM437 700Z" glyph-name="Aring" horiz-adv-x="719" unicode="&#197;" /><glyph d="M200 112 143 0H-37L339 700H536L667 0H490L472 112ZM407 518 271 252H450ZM437 700ZM612 0ZM460 807Q488 795 503 791Q518 787 533 787Q578 787 602 827Q626 867 621 928H528Q527 913 523 907.5Q519 902 508 902Q499 902 488 905Q477 908 454 917Q425 930 408 934Q391 938 375 938Q327 938 296.5 895Q266 852 272 797H367Q370 811 377.5 818Q385 825 399 825Q411 825 423.5 821.5Q436 818 460 807ZM437 700Z" glyph-name="Atilde" horiz-adv-x="719" unicode="&#195;" /><glyph d="M29 0 153 700H472Q576 700 636.5 655Q697 610 697 536Q697 474 662.5 430Q628 386 561 361Q610 341 637 302.5Q664 264 664 214Q664 112 583 56Q502 0 364 0ZM524 507Q524 533 505.5 548Q487 563 454 563H302L278 428H432Q472 428 498 450.5Q524 473 524 507ZM492 227Q492 256 472 274.5Q452 293 419 293H254L226 137H391Q436 137 464 162.5Q492 188 492 227Z" glyph-name="B" horiz-adv-x="712" unicode="B" /><glyph d="M432 557Q346 557 289 486Q232 415 232 309Q232 231 274 184.5Q316 138 388 138Q435 138 473.5 166Q512 194 548 255L691 163Q633 74 556 31Q479 -12 379 -12Q231 -12 142 75Q53 162 53 300Q53 382 80.5 457Q108 532 160 589Q213 649 285 680.5Q357 712 440 712Q548 712 629 659Q710 606 742 513L583 446Q556 505 520.5 531Q485 557 432 557ZM381 10ZM448 700Z" glyph-name="C" horiz-adv-x="721" unicode="C" /><glyph d="M432 557Q346 557 289 486Q232 415 232 309Q232 231 274 184.5Q316 138 388 138Q435 138 473.5 166Q512 194 548 255L691 163Q633 74 556 31Q479 -12 379 -12Q231 -12 142 75Q53 162 53 300Q53 382 80.5 457Q108 532 160 589Q213 649 285 680.5Q357 712 440 712Q548 712 629 659Q710 606 742 513L583 446Q556 505 520.5 531Q485 557 432 557ZM381 10ZM448 700ZM653 940H495L390 787H530ZM448 700Z" glyph-name="Cacute" horiz-adv-x="721" unicode="&#262;" /><glyph d="M432 557Q346 557 289 486Q232 415 232 309Q232 231 274 184.5Q316 138 388 138Q435 138 473.5 166Q512 194 548 255L691 163Q633 74 556 31Q479 -12 379 -12Q231 -12 142 75Q53 162 53 300Q53 382 80.5 457Q108 532 160 589Q213 649 285 680.5Q357 712 440 712Q548 712 629 659Q710 606 742 513L583 446Q556 505 520.5 531Q485 557 432 557ZM381 10ZM448 700ZM555 787H374L282 940H416L472 866L541 940H675ZM448 700Z" glyph-name="Ccaron" horiz-adv-x="721" unicode="&#268;" /><glyph d="M283 -113 266 -79 334 -10Q205 3 129 88.5Q53 174 53 300Q53 382 80.5 457Q108 532 160 589Q213 649 285 680.5Q357 712 440 712Q548 712 629 659Q710 606 742 513L583 446Q556 505 520.5 531Q485 557 432 557Q346 557 289 486Q232 415 232 309Q232 231 274 184.5Q316 138 388 138Q435 138 473.5 166Q512 194 548 255L691 163Q638 82 570.5 39.5Q503 -3 417 -10L374 -53Q414 -57 434.5 -77Q455 -97 455 -132Q455 -180 420.5 -209Q386 -238 329 -238Q304 -238 277.5 -231.5Q251 -225 227 -214L239 -143Q268 -156 284.5 -160Q301 -164 320 -164Q338 -164 348.5 -156Q359 -148 359 -134Q359 -122 348.5 -116Q338 -110 315 -110Q307 -110 298.5 -111Q290 -112 283 -113Z" glyph-name="Ccedilla" horiz-adv-x="721" unicode="&#199;" /><glyph d="M432 557Q346 557 289 486Q232 415 232 309Q232 231 274 184.5Q316 138 388 138Q435 138 473.5 166Q512 194 548 255L691 163Q633 74 556 31Q479 -12 379 -12Q231 -12 142 75Q53 162 53 300Q53 382 80.5 457Q108 532 160 589Q213 649 285 680.5Q357 712 440 712Q548 712 629 659Q710 606 742 513L583 446Q556 505 520.5 531Q485 557 432 557ZM381 10ZM448 700ZM269 787 389 940H570L662 787H528L472 861L403 787ZM448 700Z" glyph-name="Ccircumflex" horiz-adv-x="721" unicode="&#264;" /><glyph d="M432 557Q346 557 289 486Q232 415 232 309Q232 231 274 184.5Q316 138 388 138Q435 138 473.5 166Q512 194 548 255L691 163Q633 74 556 31Q479 -12 379 -12Q231 -12 142 75Q53 162 53 300Q53 382 80.5 457Q108 532 160 589Q213 649 285 680.5Q357 712 440 712Q548 712 629 659Q710 606 742 513L583 446Q556 505 520.5 531Q485 557 432 557ZM381 10ZM448 700ZM374 863Q374 826 401.5 800.5Q429 775 467 775Q506 775 533.5 800.5Q561 826 561 863Q561 899 533.5 924Q506 949 467 949Q429 949 401.5 924Q374 899 374 863ZM448 700Z" glyph-name="Cdotaccent" horiz-adv-x="721" unicode="&#266;" /><glyph d="M29 0 153 700H433Q571 700 659 611Q747 522 747 392Q747 218 626 109Q505 0 318 0ZM571 385Q571 462 528.5 508.5Q486 555 413 555H302L230 145H342Q440 145 505.5 214Q571 283 571 385ZM418 700Z" glyph-name="D" horiz-adv-x="767" unicode="D" /><glyph d="M29 0 153 700H433Q571 700 659 611Q747 522 747 392Q747 218 626 109Q505 0 318 0ZM571 385Q571 462 528.5 508.5Q486 555 413 555H302L230 145H342Q440 145 505.5 214Q571 283 571 385ZM418 700ZM525 787H344L252 940H386L442 866L511 940H645ZM418 700Z" glyph-name="Dcaron" horiz-adv-x="767" unicode="&#270;" /><glyph d="M22 295 42 405H126L178 700H458Q596 700 684 611Q772 522 772 392Q772 218 651 109Q530 0 343 0H54L106 295ZM596 385Q596 462 553.5 508.5Q511 555 438 555H327L301 405H450L430 295H281L255 145H367Q465 145 530.5 214Q596 283 596 385Z" glyph-name="Dcroat" horiz-adv-x="792" unicode="&#272;" /><glyph d="M-19 0 4 130 337 700H534L667 130L644 0ZM404 528 189 140H485Z" glyph-name="Delta" horiz-adv-x="716" unicode="&#8710;" /><glyph d="M29 0 153 700H643L617 555H302L280 428H564L540 293H256L230 145H556L530 0ZM398 700ZM474 0Z" glyph-name="E" horiz-adv-x="620" unicode="E" /><glyph d="M29 0 153 700H643L617 555H302L280 428H564L540 293H256L230 145H556L530 0ZM398 700ZM474 0ZM603 940H445L340 787H480ZM398 700Z" glyph-name="Eacute" horiz-adv-x="620" unicode="&#201;" /><glyph d="M29 0 153 700H643L617 555H302L280 428H564L540 293H256L230 145H556L530 0ZM398 700ZM474 0ZM423 875Q446 875 457 890.5Q468 906 468 940H580Q580 870 537.5 827.5Q495 785 417 785Q341 785 301 830Q261 875 270 940H384Q379 908 389 891.5Q399 875 423 875ZM398 700Z" glyph-name="Ebreve" horiz-adv-x="620" unicode="&#276;" /><glyph d="M29 0 153 700H643L617 555H302L280 428H564L540 293H256L230 145H556L530 0ZM398 700ZM474 0ZM505 787H324L232 940H366L422 866L491 940H625ZM398 700Z" glyph-name="Ecaron" horiz-adv-x="620" unicode="&#282;" /><glyph d="M29 0 153 700H643L617 555H302L280 428H564L540 293H256L230 145H556L530 0ZM398 700ZM474 0ZM219 787 339 940H520L612 787H478L422 861L353 787ZM398 700Z" glyph-name="Ecircumflex" horiz-adv-x="620" unicode="&#202;" /><glyph d="M29 0 153 700H643L617 555H302L280 428H564L540 293H256L230 145H556L530 0ZM398 700ZM474 0ZM244 863Q244 831 266 808.5Q288 786 320 786Q352 786 375 808.5Q398 831 398 863Q398 895 375 918Q352 941 320 941Q289 941 266.5 918Q244 895 244 863ZM438 863Q438 831 460.5 808.5Q483 786 515 786Q547 786 569.5 808.5Q592 831 592 863Q592 895 569 918Q546 941 515 941Q483 941 460.5 918Q438 895 438 863ZM398 700Z" glyph-name="Edieresis" horiz-adv-x="620" unicode="&#203;" /><glyph d="M29 0 153 700H643L617 555H302L280 428H564L540 293H256L230 145H556L530 0ZM398 700ZM474 0ZM324 863Q324 826 351.5 800.5Q379 775 417 775Q456 775 483.5 800.5Q511 826 511 863Q511 899 483.5 924Q456 949 417 949Q379 949 351.5 924Q324 899 324 863ZM398 700Z" glyph-name="Edotaccent" horiz-adv-x="620" unicode="&#278;" /><glyph d="M29 0 153 700H643L617 555H302L280 428H564L540 293H256L230 145H556L530 0ZM398 700ZM474 0ZM478 787 401 940H250L345 787ZM398 700Z" glyph-name="Egrave" horiz-adv-x="620" unicode="&#200;" /><glyph d="M29 0 153 700H643L617 555H302L280 428H564L540 293H256L230 145H556L530 0ZM398 700ZM474 0ZM533 813H287L305 912H551ZM398 700Z" glyph-name="Emacron" horiz-adv-x="620" unicode="&#274;" /><glyph d="M256 293 230 145H556L530 0H474Q442 -22 426 -47.5Q410 -73 410 -102Q410 -128 425 -141.5Q440 -155 467 -155Q475 -155 484 -154Q493 -153 504 -150L490 -224Q473 -231 455 -234.5Q437 -238 413 -238Q365 -238 335.5 -211.5Q306 -185 306 -140Q306 -98 330 -62Q354 -26 401 0H29L153 700H643L617 555H302L280 428H564L540 293Z" glyph-name="Eogonek" horiz-adv-x="620" unicode="&#280;" /><glyph d="M22 295 42 405H126L178 700H458Q596 700 684 611Q772 522 772 392Q772 218 651 109Q530 0 343 0H54L106 295ZM596 385Q596 462 553.5 508.5Q511 555 438 555H327L301 405H450L430 295H281L255 145H367Q465 145 530.5 214Q596 283 596 385Z" glyph-name="Eth" horiz-adv-x="792" unicode="&#208;" /><glyph d="M116 222H30L47 318H112Q113 328 114 339.5Q115 351 117 368H56L73 464H142Q185 580 273 646Q361 712 475 712Q577 712 646.5 661Q716 610 741 516L584 452Q564 513 536.5 539Q509 565 464 565Q423 565 387 538.5Q351 512 326 464H475L458 368H295Q293 355 291.5 342.5Q290 330 290 318H449L432 222H300Q314 180 343 157.5Q372 135 415 135Q453 135 485 161Q517 187 555 252L693 163Q637 72 567 30Q497 -12 405 -12Q286 -12 210.5 50Q135 112 116 222Z" glyph-name="Euro" horiz-adv-x="739" unicode="&#8364;" /><glyph d="M29 0 153 700H654L628 555H302L275 398H570L546 258H250L204 0Z" glyph-name="F" horiz-adv-x="612" unicode="F" /><glyph d="M416 244 440 379H730L663 0H517L526 53Q492 21 448.5 4.5Q405 -12 356 -12Q220 -12 137 76.5Q54 165 54 301Q54 478 163.5 595Q273 712 444 712Q549 712 629 666Q709 620 748 541L605 452Q576 506 534 533Q492 560 439 560Q351 560 292 488.5Q233 417 233 314Q233 235 277 186Q321 137 394 137Q455 137 493.5 161.5Q532 186 539 231L541 244ZM462 700ZM360 0Z" glyph-name="G" horiz-adv-x="758" unicode="G" /><glyph d="M416 244 440 379H730L663 0H517L526 53Q492 21 448.5 4.5Q405 -12 356 -12Q220 -12 137 76.5Q54 165 54 301Q54 478 163.5 595Q273 712 444 712Q549 712 629 666Q709 620 748 541L605 452Q576 506 534 533Q492 560 439 560Q351 560 292 488.5Q233 417 233 314Q233 235 277 186Q321 137 394 137Q455 137 493.5 161.5Q532 186 539 231L541 244ZM462 700ZM360 0ZM487 875Q510 875 521 890.5Q532 906 532 940H644Q644 870 601.5 827.5Q559 785 481 785Q405 785 365 830Q325 875 334 940H448Q443 908 453 891.5Q463 875 487 875ZM462 700Z" glyph-name="Gbreve" horiz-adv-x="758" unicode="&#286;" /><glyph d="M416 244 440 379H730L663 0H517L526 53Q492 21 448.5 4.5Q405 -12 356 -12Q220 -12 137 76.5Q54 165 54 301Q54 478 163.5 595Q273 712 444 712Q549 712 629 666Q709 620 748 541L605 452Q576 506 534 533Q492 560 439 560Q351 560 292 488.5Q233 417 233 314Q233 235 277 186Q321 137 394 137Q455 137 493.5 161.5Q532 186 539 231L541 244ZM462 700ZM360 0ZM283 787 403 940H584L676 787H542L486 861L417 787ZM462 700Z" glyph-name="Gcircumflex" horiz-adv-x="758" unicode="&#284;" /><glyph d="M416 244 440 379H730L663 0H517L526 53Q492 21 448.5 4.5Q405 -12 356 -12Q220 -12 137 76.5Q54 165 54 301Q54 478 163.5 595Q273 712 444 712Q549 712 629 666Q709 620 748 541L605 452Q576 506 534 533Q492 560 439 560Q351 560 292 488.5Q233 417 233 314Q233 235 277 186Q321 137 394 137Q455 137 493.5 161.5Q532 186 539 231L541 244ZM462 700ZM360 0ZM388 863Q388 826 415.5 800.5Q443 775 481 775Q520 775 547.5 800.5Q575 826 575 863Q575 899 547.5 924Q520 949 481 949Q443 949 415.5 924Q388 899 388 863ZM462 700Z" glyph-name="Gdotaccent" horiz-adv-x="758" unicode="&#288;" /><glyph d="M29 0 153 700H328L281 433H541L588 700H763L639 0H464L515 288H255L204 0ZM458 700Z" glyph-name="H" horiz-adv-x="759" unicode="H" /><glyph d="M69 511 89 621H149L163 700H338L324 621H584L598 700H773L759 621H820L800 511H740L649 0H474L525 288H265L214 0H39L130 511ZM305 511 291 433H551L565 511Z" glyph-name="Hbar" horiz-adv-x="779" unicode="&#294;" /><glyph d="M29 0 153 700H328L281 433H541L588 700H763L639 0H464L515 288H255L204 0ZM458 700ZM279 787 399 940H580L672 787H538L482 861L413 787ZM458 700Z" glyph-name="Hcircumflex" horiz-adv-x="759" unicode="&#292;" /><glyph d="M29 0 153 700H328L204 0ZM240 700ZM148 0Z" glyph-name="I" horiz-adv-x="324" unicode="I" /><glyph d="M-1 0 25 140H144L218 560H97L123 700H538L512 560H393L319 140H440L414 0ZM330 700ZM208 0Z" glyph-name="I.alt" horiz-adv-x="504" /><glyph d="M29 0 153 700H328L204 0ZM240 700ZM148 0ZM836 196 924 700H749L663 212Q656 171 636 152.5Q616 134 580 134Q535 134 512 161.5Q489 189 486 256L325 222Q328 112 397 50Q466 -12 584 -12Q689 -12 753.5 41.5Q818 95 836 196ZM836 700Z" glyph-name="IJ" horiz-adv-x="916" unicode="&#306;" /><glyph d="M-1 0 25 140H144L218 560H97L123 700H538L512 560H393L319 140H440L414 0ZM707 560 731 700H1111L1023 196Q1005 95 940.5 41.5Q876 -12 771 -12Q653 -12 584 50Q515 112 512 222L673 256Q676 189 699 161.5Q722 134 767 134Q803 134 823 153Q843 172 850 212L911 560Z" glyph-name="IJ.alt" horiz-adv-x="1103" /><glyph d="M29 0 153 700H328L204 0ZM240 700ZM148 0ZM445 940H287L182 787H322ZM240 700Z" glyph-name="Iacute" horiz-adv-x="324" unicode="&#205;" /><glyph d="M-1 0 25 140H144L218 560H97L123 700H538L512 560H393L319 140H440L414 0ZM330 700ZM208 0ZM545 940H387L282 787H422ZM340 700Z" glyph-name="Iacute.alt" horiz-adv-x="504" /><glyph d="M29 0 153 700H328L204 0ZM240 700ZM148 0ZM61 787 181 940H362L454 787H320L264 861L195 787ZM240 700Z" glyph-name="Icircumflex" horiz-adv-x="324" unicode="&#206;" /><glyph d="M-1 0 25 140H144L218 560H97L123 700H538L512 560H393L319 140H440L414 0ZM330 700ZM208 0ZM150 787 270 940H451L543 787H409L353 861L284 787ZM329 700Z" glyph-name="Icircumflex.alt" horiz-adv-x="504" /><glyph d="M29 0 153 700H328L204 0ZM240 700ZM148 0ZM86 863Q86 831 108 808.5Q130 786 162 786Q194 786 217 808.5Q240 831 240 863Q240 895 217 918Q194 941 162 941Q131 941 108.5 918Q86 895 86 863ZM280 863Q280 831 302.5 808.5Q325 786 357 786Q389 786 411.5 808.5Q434 831 434 863Q434 895 411 918Q388 941 357 941Q325 941 302.5 918Q280 895 280 863ZM240 700Z" glyph-name="Idieresis" horiz-adv-x="324" unicode="&#207;" /><glyph d="M-1 0 25 140H144L218 560H97L123 700H538L512 560H393L319 140H440L414 0ZM330 700ZM208 0ZM168 863Q168 831 190 808.5Q212 786 244 786Q276 786 299 808.5Q322 831 322 863Q322 895 299 918Q276 941 244 941Q213 941 190.5 918Q168 895 168 863ZM362 863Q362 831 384.5 808.5Q407 786 439 786Q471 786 493.5 808.5Q516 831 516 863Q516 895 493 918Q470 941 439 941Q407 941 384.5 918Q362 895 362 863ZM322 700Z" glyph-name="Idieresis.alt" horiz-adv-x="504" /><glyph d="M29 0 153 700H328L204 0ZM240 700ZM148 0ZM166 863Q166 826 193.5 800.5Q221 775 259 775Q298 775 325.5 800.5Q353 826 353 863Q353 899 325.5 924Q298 949 259 949Q221 949 193.5 924Q166 899 166 863ZM240 700Z" glyph-name="Idotaccent" horiz-adv-x="324" unicode="&#304;" /><glyph d="M-1 0 25 140H144L218 560H97L123 700H538L512 560H393L319 140H440L414 0ZM330 700ZM208 0ZM257 863Q257 826 284.5 800.5Q312 775 350 775Q389 775 416.5 800.5Q444 826 444 863Q444 899 416.5 924Q389 949 350 949Q312 949 284.5 924Q257 899 257 863ZM331 700Z" glyph-name="Idotaccent.alt" horiz-adv-x="504" /><glyph d="M29 0 153 700H328L204 0ZM240 700ZM148 0ZM320 787 243 940H92L187 787ZM240 700Z" glyph-name="Igrave" horiz-adv-x="324" unicode="&#204;" /><glyph d="M-1 0 25 140H144L218 560H97L123 700H538L512 560H393L319 140H440L414 0ZM330 700ZM208 0ZM410 787 333 940H182L277 787ZM330 700Z" glyph-name="Igrave.alt" horiz-adv-x="504" /><glyph d="M29 0 153 700H328L204 0ZM240 700ZM148 0ZM375 813H129L147 912H393ZM240 700Z" glyph-name="Imacron" horiz-adv-x="324" unicode="&#298;" /><glyph d="M-1 0 25 140H144L218 560H97L123 700H538L512 560H393L319 140H440L414 0ZM330 700ZM208 0ZM467 813H221L239 912H485ZM332 700Z" glyph-name="Imacron.alt" horiz-adv-x="504" /><glyph d="M29 0 153 700H328L204 0H102Q70 -22 54 -47.5Q38 -73 38 -102Q38 -128 53 -141.5Q68 -155 95 -155Q103 -155 112 -154Q121 -153 132 -150L118 -224Q101 -231 83 -234.5Q65 -238 41 -238Q-7 -238 -36.5 -211.5Q-66 -185 -66 -140Q-66 -98 -42 -62Q-18 -26 29 0Z" glyph-name="Iogonek" horiz-adv-x="324" unicode="&#302;" /><glyph d="M-1 0 25 140H144L218 560H97L123 700H538L512 560H393L319 140H440L414 0H359Q327 -22 311 -47.5Q295 -73 295 -102Q295 -128 310 -141.5Q325 -155 352 -155Q360 -155 369 -154Q378 -153 389 -150L375 -224Q358 -231 340 -234.5Q322 -238 298 -238Q250 -238 220.5 -211.5Q191 -185 191 -140Q191 -98 215 -62Q239 -26 286 0Z" glyph-name="Iogonek.alt" horiz-adv-x="504" /><glyph d="M29 0 153 700H328L204 0ZM240 700ZM148 0ZM263 807Q291 795 306 791Q321 787 336 787Q381 787 405 827Q429 867 424 928H331Q330 913 326 907.5Q322 902 311 902Q302 902 291 905Q280 908 257 917Q228 930 211 934Q194 938 178 938Q130 938 99.5 895Q69 852 75 797H170Q173 811 180.5 818Q188 825 202 825Q214 825 226.5 821.5Q239 818 263 807ZM240 700Z" glyph-name="Itilde" horiz-adv-x="324" unicode="&#296;" /><glyph d="M-1 0 25 140H144L218 560H97L123 700H538L512 560H393L319 140H440L414 0ZM330 700ZM208 0ZM365 807Q393 795 408 791Q423 787 438 787Q483 787 507 827Q531 867 526 928H433Q432 913 428 907.5Q424 902 413 902Q404 902 393 905Q382 908 359 917Q330 930 313 934Q296 938 280 938Q232 938 201.5 895Q171 852 177 797H272Q275 811 282.5 818Q290 825 304 825Q316 825 328.5 821.5Q341 818 365 807ZM342 700Z" glyph-name="Itilde.alt" horiz-adv-x="504" /><glyph d="M512 196 600 700H425L339 212Q332 171 312 152.5Q292 134 256 134Q211 134 188 161.5Q165 189 162 256L1 222Q4 112 73 50Q142 -12 260 -12Q365 -12 429.5 41.5Q494 95 512 196ZM512 700Z" glyph-name="J" horiz-adv-x="592" unicode="J" /><glyph d="M203 560 227 700H607L519 196Q501 95 436.5 41.5Q372 -12 267 -12Q149 -12 80 50Q11 112 8 222L169 256Q172 189 195 161.5Q218 134 263 134Q299 134 319 153Q339 172 346 212L407 560ZM417 700Z" glyph-name="J.alt" horiz-adv-x="599" /><glyph d="M512 196 600 700H425L339 212Q332 171 312 152.5Q292 134 256 134Q211 134 188 161.5Q165 189 162 256L1 222Q4 112 73 50Q142 -12 260 -12Q365 -12 429.5 41.5Q494 95 512 196ZM512 700ZM333 787 453 940H634L726 787H592L536 861L467 787ZM512 700Z" glyph-name="Jcircumflex" horiz-adv-x="592" unicode="&#308;" /><glyph d="M234 787 354 940H535L627 787H493L437 861L368 787ZM203 560 227 700H607L519 196Q501 95 436.5 41.5Q372 -12 267 -12Q149 -12 80 50Q11 112 8 222L169 256Q172 189 195 161.5Q218 134 263 134Q299 134 319 153Q339 172 346 212L407 560Z" glyph-name="Jcircumflex.alt" horiz-adv-x="599" /><glyph d="M454 401 639 0H446L319 281L240 206L204 0H29L153 700H328L280 430L548 700H762ZM322 0Z" glyph-name="K" horiz-adv-x="685" unicode="K" /><glyph d="M29 0 153 700H328L230 145H506L480 0ZM240 700ZM253 0ZM375 700ZM367 350Z" glyph-name="L" horiz-adv-x="541" unicode="L" /><glyph d="M29 0 153 700H328L230 145H506L480 0ZM240 700ZM253 0ZM375 700ZM367 350ZM445 940H287L182 787H322ZM240 700Z" glyph-name="Lacute" horiz-adv-x="541" unicode="&#313;" /><glyph d="M29 0 153 700H328L230 145H506L480 0ZM240 700ZM253 0ZM375 700ZM367 350ZM537 730H401L361 546H462ZM375 700Z" glyph-name="Lcaron" horiz-adv-x="543" unicode="&#317;" /><glyph d="M29 0 153 700H328L230 145H506L480 0ZM240 700ZM253 0ZM375 700ZM367 350ZM343 345Q343 304 373 275.5Q403 247 446 247Q489 247 519.5 275.5Q550 304 550 345Q550 386 520 413.5Q490 441 446 441Q403 441 373 413Q343 385 343 345ZM367 343Z" glyph-name="Ldot" horiz-adv-x="556" unicode="&#319;" /><glyph d="M29 0 153 700H328L230 145H506L480 0ZM240 700ZM253 0ZM375 700ZM367 350ZM343 345Q343 304 373 275.5Q403 247 446 247Q489 247 519.5 275.5Q550 304 550 345Q550 386 520 413.5Q490 441 446 441Q403 441 373 413Q343 385 343 345ZM367 343ZM570 0 694 700H869L771 145H1047L1021 0ZM781 700ZM794 0ZM916 700ZM908 350Z" glyph-name="Lgeminada" horiz-adv-x="1082" /><glyph d="M69 215 19 319 144 384 200 700H375L337 483L392 512L441 409L312 342L277 145H553L527 0H76L119 241Z" glyph-name="Lslash" horiz-adv-x="588" unicode="&#321;" /><glyph d="M29 0 153 700H359L455 229L716 700H936L812 0H650L727 434L483 -3H354L261 426L185 0Z" glyph-name="M" horiz-adv-x="932" unicode="M" /><glyph d="M29 0 153 700H333L523 286L596 700H763L639 0H477L276 451L196 0ZM464 700ZM336 0Z" glyph-name="N" horiz-adv-x="759" unicode="N" /><glyph d="M29 0 153 700H333L523 286L596 700H763L639 0H477L276 451L196 0ZM464 700ZM336 0ZM669 940H511L406 787H546ZM464 700Z" glyph-name="Nacute" horiz-adv-x="759" unicode="&#323;" /><glyph d="M29 0 153 700H333L523 286L596 700H763L639 0H477L276 451L196 0ZM464 700ZM336 0ZM571 787H390L298 940H432L488 866L557 940H691ZM464 700Z" glyph-name="Ncaron" horiz-adv-x="759" unicode="&#327;" /><glyph d="M29 0 153 700H333L523 286L596 700H763L639 0H477L276 451L196 0ZM464 700ZM336 0ZM487 807Q515 795 530 791Q545 787 560 787Q605 787 629 827Q653 867 648 928H555Q554 913 550 907.5Q546 902 535 902Q526 902 515 905Q504 908 481 917Q452 930 435 934Q418 938 402 938Q354 938 323.5 895Q293 852 299 797H394Q397 811 404.5 818Q412 825 426 825Q438 825 450.5 821.5Q463 818 487 807ZM464 700Z" glyph-name="Ntilde" horiz-adv-x="759" unicode="&#209;" /><glyph d="M782 394Q782 533 689 622.5Q596 712 444 712Q275 712 164.5 596.5Q54 481 54 309Q54 168 149.5 78Q245 -12 393 -12Q561 -12 671.5 104.5Q782 221 782 394ZM604 384Q604 279 544 206.5Q484 134 397 134Q323 134 277.5 184Q232 234 232 314Q232 420 291.5 493Q351 566 439 566Q515 566 559.5 516Q604 466 604 384ZM454 700Z" glyph-name="O" horiz-adv-x="802" unicode="O" /><glyph d="M55 309Q55 481 159.5 596.5Q264 712 423 712Q496 712 554 691.5Q612 671 654 631L666 700H1156L1130 555H815L793 428H1077L1053 293H769L743 145H1069L1043 0H542L548 36Q509 12 463 0Q417 -12 365 -12Q230 -12 142.5 78Q55 168 55 309ZM233 314Q233 234 278.5 184Q324 134 398 134Q485 134 545 206.5Q605 279 605 384Q605 464 560 515Q515 566 440 566Q352 566 292.5 493Q233 420 233 314Z" glyph-name="OE" horiz-adv-x="1133" unicode="&#338;" /><glyph d="M782 394Q782 533 689 622.5Q596 712 444 712Q275 712 164.5 596.5Q54 481 54 309Q54 168 149.5 78Q245 -12 393 -12Q561 -12 671.5 104.5Q782 221 782 394ZM604 384Q604 279 544 206.5Q484 134 397 134Q323 134 277.5 184Q232 234 232 314Q232 420 291.5 493Q351 566 439 566Q515 566 559.5 516Q604 466 604 384ZM454 700ZM659 940H501L396 787H536ZM454 700Z" glyph-name="Oacute" horiz-adv-x="802" unicode="&#211;" /><glyph d="M782 394Q782 533 689 622.5Q596 712 444 712Q275 712 164.5 596.5Q54 481 54 309Q54 168 149.5 78Q245 -12 393 -12Q561 -12 671.5 104.5Q782 221 782 394ZM604 384Q604 279 544 206.5Q484 134 397 134Q323 134 277.5 184Q232 234 232 314Q232 420 291.5 493Q351 566 439 566Q515 566 559.5 516Q604 466 604 384ZM454 700ZM479 875Q502 875 513 890.5Q524 906 524 940H636Q636 870 593.5 827.5Q551 785 473 785Q397 785 357 830Q317 875 326 940H440Q435 908 445 891.5Q455 875 479 875ZM454 700Z" glyph-name="Obreve" horiz-adv-x="802" unicode="&#334;" /><glyph d="M782 394Q782 533 689 622.5Q596 712 444 712Q275 712 164.5 596.5Q54 481 54 309Q54 168 149.5 78Q245 -12 393 -12Q561 -12 671.5 104.5Q782 221 782 394ZM604 384Q604 279 544 206.5Q484 134 397 134Q323 134 277.5 184Q232 234 232 314Q232 420 291.5 493Q351 566 439 566Q515 566 559.5 516Q604 466 604 384ZM454 700ZM275 787 395 940H576L668 787H534L478 861L409 787ZM454 700Z" glyph-name="Ocircumflex" horiz-adv-x="802" unicode="&#212;" /><glyph d="M782 394Q782 533 689 622.5Q596 712 444 712Q275 712 164.5 596.5Q54 481 54 309Q54 168 149.5 78Q245 -12 393 -12Q561 -12 671.5 104.5Q782 221 782 394ZM604 384Q604 279 544 206.5Q484 134 397 134Q323 134 277.5 184Q232 234 232 314Q232 420 291.5 493Q351 566 439 566Q515 566 559.5 516Q604 466 604 384ZM454 700ZM300 863Q300 831 322 808.5Q344 786 376 786Q408 786 431 808.5Q454 831 454 863Q454 895 431 918Q408 941 376 941Q345 941 322.5 918Q300 895 300 863ZM494 863Q494 831 516.5 808.5Q539 786 571 786Q603 786 625.5 808.5Q648 831 648 863Q648 895 625 918Q602 941 571 941Q539 941 516.5 918Q494 895 494 863ZM454 700Z" glyph-name="Odieresis" horiz-adv-x="802" unicode="&#214;" /><glyph d="M782 394Q782 533 689 622.5Q596 712 444 712Q275 712 164.5 596.5Q54 481 54 309Q54 168 149.5 78Q245 -12 393 -12Q561 -12 671.5 104.5Q782 221 782 394ZM604 384Q604 279 544 206.5Q484 134 397 134Q323 134 277.5 184Q232 234 232 314Q232 420 291.5 493Q351 566 439 566Q515 566 559.5 516Q604 466 604 384ZM454 700ZM534 787 457 940H306L401 787ZM454 700Z" glyph-name="Ograve" horiz-adv-x="802" unicode="&#210;" /><glyph d="M782 394Q782 533 689 622.5Q596 712 444 712Q275 712 164.5 596.5Q54 481 54 309Q54 168 149.5 78Q245 -12 393 -12Q561 -12 671.5 104.5Q782 221 782 394ZM604 384Q604 279 544 206.5Q484 134 397 134Q323 134 277.5 184Q232 234 232 314Q232 420 291.5 493Q351 566 439 566Q515 566 559.5 516Q604 466 604 384ZM454 700ZM546 940H394L289 787H419ZM756 940H598L463 787H597ZM454 700Z" glyph-name="Ohungarumlaut" horiz-adv-x="802" unicode="&#336;" /><glyph d="M782 394Q782 533 689 622.5Q596 712 444 712Q275 712 164.5 596.5Q54 481 54 309Q54 168 149.5 78Q245 -12 393 -12Q561 -12 671.5 104.5Q782 221 782 394ZM604 384Q604 279 544 206.5Q484 134 397 134Q323 134 277.5 184Q232 234 232 314Q232 420 291.5 493Q351 566 439 566Q515 566 559.5 516Q604 466 604 384ZM454 700ZM589 813H343L361 912H607ZM454 700Z" glyph-name="Omacron" horiz-adv-x="802" unicode="&#332;" /><glyph d="M11 0 34 130H169Q122 171 97 229.5Q72 288 72 357Q72 509 175 610.5Q278 712 438 712Q593 712 684.5 632Q776 552 776 423Q776 335 736.5 257.5Q697 180 627 130H736L713 0H419L445 149Q508 170 553 246Q598 322 598 409Q598 483 555 524.5Q512 566 433 566Q350 566 300 502Q250 438 250 331Q250 270 268 226Q286 182 319 161L291 0Z" glyph-name="Omega" horiz-adv-x="812" unicode="&#8486;" /><glyph d="M257 12 187 -92H54L163 66Q110 110 82 172.5Q54 235 54 309Q54 481 164.5 596.5Q275 712 444 712Q483 712 518.5 706Q554 700 587 687L652 782H782L679 631Q729 588 755.5 526.5Q782 465 782 394Q782 221 671.5 104.5Q561 -12 393 -12Q356 -12 322 -6Q288 0 257 12ZM439 566Q351 566 291.5 493Q232 420 232 314Q232 281 240.5 252Q249 223 265 200L506 554Q492 560 475 563Q458 566 439 566ZM397 134Q484 134 544 206.5Q604 279 604 384Q604 415 597 442.5Q590 470 576 494L338 144Q351 139 365.5 136.5Q380 134 397 134Z" glyph-name="Oslash" horiz-adv-x="802" unicode="&#216;" /><glyph d="M782 394Q782 533 689 622.5Q596 712 444 712Q275 712 164.5 596.5Q54 481 54 309Q54 168 149.5 78Q245 -12 393 -12Q561 -12 671.5 104.5Q782 221 782 394ZM604 384Q604 279 544 206.5Q484 134 397 134Q323 134 277.5 184Q232 234 232 314Q232 420 291.5 493Q351 566 439 566Q515 566 559.5 516Q604 466 604 384ZM454 700ZM487 807Q515 795 530 791Q545 787 560 787Q605 787 629 827Q653 867 648 928H555Q554 913 550 907.5Q546 902 535 902Q526 902 515 905Q504 908 481 917Q452 930 435 934Q418 938 402 938Q354 938 323.5 895Q293 852 299 797H394Q397 811 404.5 818Q412 825 426 825Q438 825 450.5 821.5Q463 818 487 807ZM464 700Z" glyph-name="Otilde" horiz-adv-x="802" unicode="&#213;" /><glyph d="M29 0 153 700H465Q570 700 636.5 637.5Q703 575 703 483Q703 366 612.5 288.5Q522 211 393 211H241L204 0ZM526 476Q526 519 499 540.5Q472 562 418 562H304L266 351H387Q448 351 487 386Q526 421 526 476Z" glyph-name="P" horiz-adv-x="689" unicode="P" /><glyph d="M54 309Q54 481 164.5 596.5Q275 712 444 712Q596 712 689 622.5Q782 533 782 394Q782 311 754 237Q726 163 673 106L750 21L634 -80L546 18Q510 3 471.5 -4.5Q433 -12 393 -12Q245 -12 149.5 78Q54 168 54 309ZM232 314Q232 234 277.5 184Q323 134 397 134Q404 134 412.5 135Q421 136 437 138L363 220L481 321L562 231Q582 264 593 303Q604 342 604 384Q604 466 559.5 516Q515 566 439 566Q351 566 291.5 493Q232 420 232 314Z" glyph-name="Q" horiz-adv-x="808" unicode="Q" /><glyph d="M29 0 153 700H483Q588 700 654.5 640.5Q721 581 721 493Q721 411 669.5 346.5Q618 282 530 253L640 0H459L358 234H245L204 0ZM544 486Q544 524 517 543.5Q490 563 436 563H304L270 370H405Q467 370 505.5 402Q544 434 544 486ZM415 700ZM327 0Z" glyph-name="R" horiz-adv-x="723" unicode="R" /><glyph d="M29 0 153 700H483Q588 700 654.5 640.5Q721 581 721 493Q721 411 669.5 346.5Q618 282 530 253L640 0H459L358 234H245L204 0ZM544 486Q544 524 517 543.5Q490 563 436 563H304L270 370H405Q467 370 505.5 402Q544 434 544 486ZM415 700ZM327 0ZM620 940H462L357 787H497ZM415 700Z" glyph-name="Racute" horiz-adv-x="723" unicode="&#340;" /><glyph d="M29 0 153 700H483Q588 700 654.5 640.5Q721 581 721 493Q721 411 669.5 346.5Q618 282 530 253L640 0H459L358 234H245L204 0ZM544 486Q544 524 517 543.5Q490 563 436 563H304L270 370H405Q467 370 505.5 402Q544 434 544 486ZM415 700ZM327 0ZM522 787H341L249 940H383L439 866L508 940H642ZM415 700Z" glyph-name="Rcaron" horiz-adv-x="723" unicode="&#344;" /><glyph d="M614 227Q614 120 534.5 54Q455 -12 331 -12Q230 -12 144.5 25Q59 62 0 130L115 248Q166 188 220.5 159Q275 130 334 130Q383 130 410.5 149Q438 168 438 202Q438 224 419 239Q400 254 345 273L260 302Q181 329 139 377Q97 425 97 490Q97 586 171 649Q245 712 369 712Q460 712 540 675.5Q620 639 671 580L557 465Q514 515 464 540.5Q414 566 359 566Q318 566 294.5 549Q271 532 271 508Q271 488 287.5 473.5Q304 459 352 442L452 407Q532 379 573 333.5Q614 288 614 227ZM306 10ZM386 700ZM306 0Z" glyph-name="S" horiz-adv-x="660" unicode="S" /><glyph d="M614 227Q614 120 534.5 54Q455 -12 331 -12Q230 -12 144.5 25Q59 62 0 130L115 248Q166 188 220.5 159Q275 130 334 130Q383 130 410.5 149Q438 168 438 202Q438 224 419 239Q400 254 345 273L260 302Q181 329 139 377Q97 425 97 490Q97 586 171 649Q245 712 369 712Q460 712 540 675.5Q620 639 671 580L557 465Q514 515 464 540.5Q414 566 359 566Q318 566 294.5 549Q271 532 271 508Q271 488 287.5 473.5Q304 459 352 442L452 407Q532 379 573 333.5Q614 288 614 227ZM306 10ZM386 700ZM306 0ZM591 940H433L328 787H468ZM386 700Z" glyph-name="Sacute" horiz-adv-x="660" unicode="&#346;" /><glyph d="M614 227Q614 120 534.5 54Q455 -12 331 -12Q230 -12 144.5 25Q59 62 0 130L115 248Q166 188 220.5 159Q275 130 334 130Q383 130 410.5 149Q438 168 438 202Q438 224 419 239Q400 254 345 273L260 302Q181 329 139 377Q97 425 97 490Q97 586 171 649Q245 712 369 712Q460 712 540 675.5Q620 639 671 580L557 465Q514 515 464 540.5Q414 566 359 566Q318 566 294.5 549Q271 532 271 508Q271 488 287.5 473.5Q304 459 352 442L452 407Q532 379 573 333.5Q614 288 614 227ZM306 10ZM386 700ZM306 0ZM493 787H312L220 940H354L410 866L479 940H613ZM386 700Z" glyph-name="Scaron" horiz-adv-x="660" unicode="&#352;" /><glyph d="M208 -113 191 -79 262 -7Q183 4 116 39Q49 74 0 130L115 248Q166 188 220.5 159Q275 130 334 130Q383 130 410.5 149Q438 168 438 202Q438 224 419 239Q400 254 345 273L260 302Q181 329 139 377Q97 425 97 490Q97 586 171 649Q245 712 369 712Q460 712 540 675.5Q620 639 671 580L557 465Q514 515 464 540.5Q414 566 359 566Q318 566 294.5 549Q271 532 271 508Q271 487 287.5 473Q304 459 352 442L452 407Q532 379 573 333.5Q614 288 614 227Q614 123 537.5 57Q461 -9 340 -12L299 -53Q339 -57 359.5 -77Q380 -97 380 -132Q380 -180 345.5 -209Q311 -238 254 -238Q229 -238 202.5 -231.5Q176 -225 152 -214L164 -143Q193 -156 209.5 -160Q226 -164 245 -164Q263 -164 273.5 -156Q284 -148 284 -134Q284 -122 273.5 -116Q263 -110 240 -110Q232 -110 223.5 -111Q215 -112 208 -113Z" glyph-name="Scedilla" horiz-adv-x="660" unicode="&#350;" /><glyph d="M614 227Q614 120 534.5 54Q455 -12 331 -12Q230 -12 144.5 25Q59 62 0 130L115 248Q166 188 220.5 159Q275 130 334 130Q383 130 410.5 149Q438 168 438 202Q438 224 419 239Q400 254 345 273L260 302Q181 329 139 377Q97 425 97 490Q97 586 171 649Q245 712 369 712Q460 712 540 675.5Q620 639 671 580L557 465Q514 515 464 540.5Q414 566 359 566Q318 566 294.5 549Q271 532 271 508Q271 488 287.5 473.5Q304 459 352 442L452 407Q532 379 573 333.5Q614 288 614 227ZM306 10ZM386 700ZM306 0ZM207 787 327 940H508L600 787H466L410 861L341 787ZM386 700Z" glyph-name="Scircumflex" horiz-adv-x="660" unicode="&#348;" /><glyph d="M70 555 96 700H664L638 555H442L344 0H169L267 555ZM256 10ZM380 700ZM256 0Z" glyph-name="T" horiz-adv-x="603" unicode="T" /><glyph d="M75 273 95 383H255L285 555H88L114 700H682L656 555H460L430 383H591L571 273H410L362 0H187L235 273Z" glyph-name="Tbar" horiz-adv-x="641" unicode="&#358;" /><glyph d="M70 555 96 700H664L638 555H442L344 0H169L267 555ZM256 10ZM380 700ZM256 0ZM487 787H306L214 940H348L404 866L473 940H607ZM380 700Z" glyph-name="Tcaron" horiz-adv-x="603" unicode="&#356;" /><glyph d="M29 0 153 700H328L309 595H446Q551 595 617.5 532Q684 469 684 376Q684 260 593.5 183Q503 106 374 106H223L204 0ZM507 369Q507 413 480 435Q453 457 399 457H285L248 246H368Q429 246 468 280.5Q507 315 507 369Z" glyph-name="Thorn" horiz-adv-x="698" unicode="&#222;" /><glyph d="M581 700H756L673 229Q653 117 569 52.5Q485 -12 363 -12Q218 -12 133 71Q48 154 70 282L143 700H320L246 278Q234 211 267 172Q300 133 367 133Q421 133 457 165Q493 197 503 255ZM450 700ZM432 0Z" glyph-name="U" horiz-adv-x="746" unicode="U" /><glyph d="M581 700H756L673 229Q653 117 569 52.5Q485 -12 363 -12Q218 -12 133 71Q48 154 70 282L143 700H320L246 278Q234 211 267 172Q300 133 367 133Q421 133 457 165Q493 197 503 255ZM450 700ZM432 0ZM655 940H497L392 787H532ZM450 700Z" glyph-name="Uacute" horiz-adv-x="746" unicode="&#218;" /><glyph d="M581 700H756L673 229Q653 117 569 52.5Q485 -12 363 -12Q218 -12 133 71Q48 154 70 282L143 700H320L246 278Q234 211 267 172Q300 133 367 133Q421 133 457 165Q493 197 503 255ZM450 700ZM432 0ZM475 875Q498 875 509 890.5Q520 906 520 940H632Q632 870 589.5 827.5Q547 785 469 785Q393 785 353 830Q313 875 322 940H436Q431 908 441 891.5Q451 875 475 875ZM450 700Z" glyph-name="Ubreve" horiz-adv-x="746" unicode="&#364;" /><glyph d="M581 700H756L673 229Q653 117 569 52.5Q485 -12 363 -12Q218 -12 133 71Q48 154 70 282L143 700H320L246 278Q234 211 267 172Q300 133 367 133Q421 133 457 165Q493 197 503 255ZM450 700ZM432 0ZM271 787 391 940H572L664 787H530L474 861L405 787ZM450 700Z" glyph-name="Ucircumflex" horiz-adv-x="746" unicode="&#219;" /><glyph d="M581 700H756L673 229Q653 117 569 52.5Q485 -12 363 -12Q218 -12 133 71Q48 154 70 282L143 700H320L246 278Q234 211 267 172Q300 133 367 133Q421 133 457 165Q493 197 503 255ZM450 700ZM432 0ZM296 863Q296 831 318 808.5Q340 786 372 786Q404 786 427 808.5Q450 831 450 863Q450 895 427 918Q404 941 372 941Q341 941 318.5 918Q296 895 296 863ZM490 863Q490 831 512.5 808.5Q535 786 567 786Q599 786 621.5 808.5Q644 831 644 863Q644 895 621 918Q598 941 567 941Q535 941 512.5 918Q490 895 490 863ZM450 700Z" glyph-name="Udieresis" horiz-adv-x="746" unicode="&#220;" /><glyph d="M581 700H756L673 229Q653 117 569 52.5Q485 -12 363 -12Q218 -12 133 71Q48 154 70 282L143 700H320L246 278Q234 211 267 172Q300 133 367 133Q421 133 457 165Q493 197 503 255ZM450 700ZM432 0ZM530 787 453 940H302L397 787ZM450 700Z" glyph-name="Ugrave" horiz-adv-x="746" unicode="&#217;" /><glyph d="M581 700H756L673 229Q653 117 569 52.5Q485 -12 363 -12Q218 -12 133 71Q48 154 70 282L143 700H320L246 278Q234 211 267 172Q300 133 367 133Q421 133 457 165Q493 197 503 255ZM450 700ZM432 0ZM542 940H390L285 787H415ZM752 940H594L459 787H593ZM450 700Z" glyph-name="Uhungarumlaut" horiz-adv-x="746" unicode="&#368;" /><glyph d="M581 700H756L673 229Q653 117 569 52.5Q485 -12 363 -12Q218 -12 133 71Q48 154 70 282L143 700H320L246 278Q234 211 267 172Q300 133 367 133Q421 133 457 165Q493 197 503 255ZM450 700ZM432 0ZM585 813H339L357 912H603ZM450 700Z" glyph-name="Umacron" horiz-adv-x="746" unicode="&#362;" /><glyph d="M581 700H756L673 229Q662 168 635 124Q608 80 558 44Q546 35 516.5 16.5Q487 -2 473 -13Q450 -32 440 -53Q430 -74 430 -101Q430 -129 447 -144Q464 -159 495 -159Q501 -159 507 -158.5Q513 -158 519 -156L506 -230Q493 -234 479 -236Q465 -238 449 -238Q389 -238 355 -209Q321 -180 321 -130Q321 -95 336.5 -65Q352 -35 383 -12Q378 -12 373 -12Q368 -12 363 -12Q218 -12 133 71Q48 154 70 282L143 700H320L246 278Q234 211 267 172Q300 133 367 133Q421 133 457 165Q493 197 503 255Z" glyph-name="Uogonek" horiz-adv-x="746" unicode="&#370;" /><glyph d="M581 700H756L673 229Q653 117 569 52.5Q485 -12 363 -12Q218 -12 133 71Q48 154 70 282L143 700H320L246 278Q234 211 267 172Q300 133 367 133Q421 133 457 165Q493 197 503 255ZM450 700ZM432 0ZM588 878Q588 927 553 962Q518 997 469 997Q419 997 385 962Q351 927 351 878Q351 829 385 794.5Q419 760 469 760Q519 760 553.5 794.5Q588 829 588 878ZM427 878Q427 895 440 908Q453 921 469 921Q486 921 499 908Q512 895 512 878Q512 862 499 849Q486 836 469 836Q453 836 440 849Q427 862 427 878ZM450 700Z" glyph-name="Uring" horiz-adv-x="746" unicode="&#366;" /><glyph d="M581 700H756L673 229Q653 117 569 52.5Q485 -12 363 -12Q218 -12 133 71Q48 154 70 282L143 700H320L246 278Q234 211 267 172Q300 133 367 133Q421 133 457 165Q493 197 503 255ZM450 700ZM432 0ZM473 807Q501 795 516 791Q531 787 546 787Q591 787 615 827Q639 867 634 928H541Q540 913 536 907.5Q532 902 521 902Q512 902 501 905Q490 908 467 917Q438 930 421 934Q404 938 388 938Q340 938 309.5 895Q279 852 285 797H380Q383 811 390.5 818Q398 825 412 825Q424 825 436.5 821.5Q449 818 473 807ZM450 700Z" glyph-name="Utilde" horiz-adv-x="746" unicode="&#360;" /><glyph d="M217 0 86 700H262L341 224L584 700H770L394 0Z" glyph-name="V" horiz-adv-x="700" unicode="V" /><glyph d="M180 0 89 700H264L311 248L508 700H683L722 248L926 700H1103L764 0H592L548 425L353 0ZM597 700Z" glyph-name="W" horiz-adv-x="1034" unicode="W" /><glyph d="M180 0 89 700H264L311 248L508 700H683L722 248L926 700H1103L764 0H592L548 425L353 0ZM597 700ZM802 940H644L539 787H679ZM597 700Z" glyph-name="Wacute" horiz-adv-x="1034" unicode="&#7810;" /><glyph d="M180 0 89 700H264L311 248L508 700H683L722 248L926 700H1103L764 0H592L548 425L353 0ZM597 700ZM418 787 538 940H719L811 787H677L621 861L552 787ZM597 700Z" glyph-name="Wcircumflex" horiz-adv-x="1034" unicode="&#372;" /><glyph d="M180 0 89 700H264L311 248L508 700H683L722 248L926 700H1103L764 0H592L548 425L353 0ZM597 700ZM443 863Q443 831 465 808.5Q487 786 519 786Q551 786 574 808.5Q597 831 597 863Q597 895 574 918Q551 941 519 941Q488 941 465.5 918Q443 895 443 863ZM637 863Q637 831 659.5 808.5Q682 786 714 786Q746 786 768.5 808.5Q791 831 791 863Q791 895 768 918Q745 941 714 941Q682 941 659.5 918Q637 895 637 863ZM597 700Z" glyph-name="Wdieresis" horiz-adv-x="1034" unicode="&#7812;" /><glyph d="M180 0 89 700H264L311 248L508 700H683L722 248L926 700H1103L764 0H592L548 425L353 0ZM597 700ZM677 787 600 940H449L544 787ZM597 700Z" glyph-name="Wgrave" horiz-adv-x="1034" unicode="&#7808;" /><glyph d="M253 355 87 700H276L373 485L544 700H743L447 343L614 0H426L328 209L161 0H-40Z" glyph-name="X" horiz-adv-x="669" unicode="X" /><glyph d="M257 275 87 700H262L365 418L564 700H751L429 262L383 0H208ZM415 700Z" glyph-name="Y" horiz-adv-x="684" unicode="Y" /><glyph d="M257 275 87 700H262L365 418L564 700H751L429 262L383 0H208ZM415 700ZM620 940H462L357 787H497ZM415 700Z" glyph-name="Yacute" horiz-adv-x="684" unicode="&#221;" /><glyph d="M257 275 87 700H262L365 418L564 700H751L429 262L383 0H208ZM415 700ZM236 787 356 940H537L629 787H495L439 861L370 787ZM415 700Z" glyph-name="Ycircumflex" horiz-adv-x="684" unicode="&#374;" /><glyph d="M257 275 87 700H262L365 418L564 700H751L429 262L383 0H208ZM415 700ZM261 863Q261 831 283 808.5Q305 786 337 786Q369 786 392 808.5Q415 831 415 863Q415 895 392 918Q369 941 337 941Q306 941 283.5 918Q261 895 261 863ZM455 863Q455 831 477.5 808.5Q500 786 532 786Q564 786 586.5 808.5Q609 831 609 863Q609 895 586 918Q563 941 532 941Q500 941 477.5 918Q455 895 455 863ZM415 700Z" glyph-name="Ydieresis" horiz-adv-x="684" unicode="&#376;" /><glyph d="M257 275 87 700H262L365 418L564 700H751L429 262L383 0H208ZM415 700ZM495 787 418 940H267L362 787ZM415 700Z" glyph-name="Ygrave" horiz-adv-x="684" unicode="&#7922;" /><glyph d="M236 145H575L549 0H-11L10 119L416 555H103L129 700H663L642 581ZM396 700Z" glyph-name="Z" horiz-adv-x="631" unicode="Z" /><glyph d="M236 145H575L549 0H-11L10 119L416 555H103L129 700H663L642 581ZM396 700ZM601 940H443L338 787H478ZM396 700Z" glyph-name="Zacute" horiz-adv-x="631" unicode="&#377;" /><glyph d="M236 145H575L549 0H-11L10 119L416 555H103L129 700H663L642 581ZM396 700ZM503 787H322L230 940H364L420 866L489 940H623ZM396 700Z" glyph-name="Zcaron" horiz-adv-x="631" unicode="&#381;" /><glyph d="M236 145H575L549 0H-11L10 119L416 555H103L129 700H663L642 581ZM396 700ZM322 863Q322 826 349.5 800.5Q377 775 415 775Q454 775 481.5 800.5Q509 826 509 863Q509 899 481.5 924Q454 949 415 949Q377 949 349.5 924Q322 899 322 863ZM396 700Z" glyph-name="Zdotaccent" horiz-adv-x="631" unicode="&#379;" /><glyph d="M529 0H371L380 49Q349 19 313.5 3.5Q278 -12 239 -12Q143 -12 87 51Q31 114 31 213Q31 349 104.5 436.5Q178 524 290 524Q342 524 382.5 502.5Q423 481 447 441L460 512H619ZM201 227Q201 178 224.5 149Q248 120 290 120Q340 120 374.5 164.5Q409 209 409 277Q409 326 382 357.5Q355 389 316 389Q265 389 233 344Q201 299 201 227ZM336 512ZM473 0Z" glyph-name="a" horiz-adv-x="631" unicode="a" /><glyph d="M511 298 459 0H305L315 52Q286 20 249.5 4Q213 -12 169 -12Q98 -12 54.5 25.5Q11 63 11 120Q11 193 55.5 236Q100 279 203 298L352 325Q355 357 336.5 373.5Q318 390 280 390Q246 390 211.5 377Q177 364 135 334L65 432Q114 476 175 500Q236 524 300 524Q411 524 470 463Q529 402 511 298ZM178 146Q178 129 190.5 120.5Q203 112 228 112Q264 112 293.5 134.5Q323 157 330 192L334 212L241 195Q206 189 192 177.5Q178 166 178 146ZM295 498ZM393 -14Z" glyph-name="a.alt" horiz-adv-x="554" /><glyph d="M529 0H371L380 49Q349 19 313.5 3.5Q278 -12 239 -12Q143 -12 87 51Q31 114 31 213Q31 349 104.5 436.5Q178 524 290 524Q342 524 382.5 502.5Q423 481 447 441L460 512H619ZM201 227Q201 178 224.5 149Q248 120 290 120Q340 120 374.5 164.5Q409 209 409 277Q409 326 382 357.5Q355 389 316 389Q265 389 233 344Q201 299 201 227ZM336 512ZM473 0ZM531 740H373L268 587H408ZM336 512Z" glyph-name="aacute" horiz-adv-x="631" unicode="&#225;" /><glyph d="M511 298 459 0H305L315 52Q286 20 249.5 4Q213 -12 169 -12Q98 -12 54.5 25.5Q11 63 11 120Q11 193 55.5 236Q100 279 203 298L352 325Q355 357 336.5 373.5Q318 390 280 390Q246 390 211.5 377Q177 364 135 334L65 432Q114 476 175 500Q236 524 300 524Q411 524 470 463Q529 402 511 298ZM178 146Q178 129 190.5 120.5Q203 112 228 112Q264 112 293.5 134.5Q323 157 330 192L334 212L241 195Q206 189 192 177.5Q178 166 178 146ZM295 498ZM393 -14ZM490 726H332L227 573H367ZM295 498Z" glyph-name="aacute.alt" horiz-adv-x="554" /><glyph d="M529 0H371L380 49Q349 19 313.5 3.5Q278 -12 239 -12Q143 -12 87 51Q31 114 31 213Q31 349 104.5 436.5Q178 524 290 524Q342 524 382.5 502.5Q423 481 447 441L460 512H619ZM201 227Q201 178 224.5 149Q248 120 290 120Q340 120 374.5 164.5Q409 209 409 277Q409 326 382 357.5Q355 389 316 389Q265 389 233 344Q201 299 201 227ZM336 512ZM473 0ZM349 675Q372 675 383 690.5Q394 706 394 740H506Q506 670 463.5 627.5Q421 585 343 585Q267 585 227 630Q187 675 196 740H310Q305 708 315 691.5Q325 675 349 675ZM336 512Z" glyph-name="abreve" horiz-adv-x="631" unicode="&#259;" /><glyph d="M511 298 459 0H305L315 52Q286 20 249.5 4Q213 -12 169 -12Q98 -12 54.5 25.5Q11 63 11 120Q11 193 55.5 236Q100 279 203 298L352 325Q355 357 336.5 373.5Q318 390 280 390Q246 390 211.5 377Q177 364 135 334L65 432Q114 476 175 500Q236 524 300 524Q411 524 470 463Q529 402 511 298ZM178 146Q178 129 190.5 120.5Q203 112 228 112Q264 112 293.5 134.5Q323 157 330 192L334 212L241 195Q206 189 192 177.5Q178 166 178 146ZM295 498ZM393 -14ZM308 661Q331 661 342 676.5Q353 692 353 726H465Q465 656 422.5 613.5Q380 571 302 571Q226 571 186 616Q146 661 155 726H269Q264 694 274 677.5Q284 661 308 661ZM295 498Z" glyph-name="abreve.alt" horiz-adv-x="554" /><glyph d="M529 0H371L380 49Q349 19 313.5 3.5Q278 -12 239 -12Q143 -12 87 51Q31 114 31 213Q31 349 104.5 436.5Q178 524 290 524Q342 524 382.5 502.5Q423 481 447 441L460 512H619ZM201 227Q201 178 224.5 149Q248 120 290 120Q340 120 374.5 164.5Q409 209 409 277Q409 326 382 357.5Q355 389 316 389Q265 389 233 344Q201 299 201 227ZM336 512ZM473 0ZM145 587 265 740H446L538 587H404L348 661L279 587ZM336 512Z" glyph-name="acircumflex" horiz-adv-x="631" unicode="&#226;" /><glyph d="M511 298 459 0H305L315 52Q286 20 249.5 4Q213 -12 169 -12Q98 -12 54.5 25.5Q11 63 11 120Q11 193 55.5 236Q100 279 203 298L352 325Q355 357 336.5 373.5Q318 390 280 390Q246 390 211.5 377Q177 364 135 334L65 432Q114 476 175 500Q236 524 300 524Q411 524 470 463Q529 402 511 298ZM178 146Q178 129 190.5 120.5Q203 112 228 112Q264 112 293.5 134.5Q323 157 330 192L334 212L241 195Q206 189 192 177.5Q178 166 178 146ZM295 498ZM393 -14ZM104 573 224 726H405L497 573H363L307 647L238 573ZM295 498Z" glyph-name="acircumflex.alt" horiz-adv-x="554" /><glyph d="M333 740H175L70 587H210ZM138 512Z" glyph-name="acute" horiz-adv-x="401" unicode="&#180;" /><glyph d="M333 940H175L70 787H210ZM128 700Z" glyph-name="acute.case" horiz-adv-x="401" /><glyph d="M529 0H371L380 49Q349 19 313.5 3.5Q278 -12 239 -12Q143 -12 87 51Q31 114 31 213Q31 349 104.5 436.5Q178 524 290 524Q342 524 382.5 502.5Q423 481 447 441L460 512H619ZM201 227Q201 178 224.5 149Q248 120 290 120Q340 120 374.5 164.5Q409 209 409 277Q409 326 382 357.5Q355 389 316 389Q265 389 233 344Q201 299 201 227ZM336 512ZM473 0ZM184 663Q184 631 206 608.5Q228 586 260 586Q292 586 315 608.5Q338 631 338 663Q338 695 315 718Q292 741 260 741Q229 741 206.5 718Q184 695 184 663ZM378 663Q378 631 400.5 608.5Q423 586 455 586Q487 586 509.5 608.5Q532 631 532 663Q532 695 509 718Q486 741 455 741Q423 741 400.5 718Q378 695 378 663ZM336 512Z" glyph-name="adieresis" horiz-adv-x="631" unicode="&#228;" /><glyph d="M511 298 459 0H305L315 52Q286 20 249.5 4Q213 -12 169 -12Q98 -12 54.5 25.5Q11 63 11 120Q11 193 55.5 236Q100 279 203 298L352 325Q355 357 336.5 373.5Q318 390 280 390Q246 390 211.5 377Q177 364 135 334L65 432Q114 476 175 500Q236 524 300 524Q411 524 470 463Q529 402 511 298ZM178 146Q178 129 190.5 120.5Q203 112 228 112Q264 112 293.5 134.5Q323 157 330 192L334 212L241 195Q206 189 192 177.5Q178 166 178 146ZM295 498ZM393 -14ZM143 649Q143 617 165 594.5Q187 572 219 572Q251 572 274 594.5Q297 617 297 649Q297 681 274 704Q251 727 219 727Q188 727 165.5 704Q143 681 143 649ZM337 649Q337 617 359.5 594.5Q382 572 414 572Q446 572 468.5 594.5Q491 617 491 649Q491 681 468 704Q445 727 414 727Q382 727 359.5 704Q337 681 337 649ZM295 498Z" glyph-name="adieresis.alt" horiz-adv-x="554" /><glyph d="M721 166 799 60Q762 24 710.5 6Q659 -12 593 -12Q521 -12 464.5 15.5Q408 43 377 94Q345 42 294.5 15Q244 -12 179 -12Q103 -12 57 25.5Q11 63 11 120Q11 193 55.5 236Q100 279 203 298L352 325Q355 357 336.5 373.5Q318 390 279 390Q245 390 210.5 377Q176 364 134 334L64 432Q113 476 174 500Q235 524 299 524Q346 524 385.5 506.5Q425 489 449 457Q484 489 527.5 506.5Q571 524 619 524Q719 524 780.5 466Q842 408 842 313Q842 289 836 256.5Q830 224 826 215H495Q498 167 526 143Q554 119 607 119Q635 119 665.5 131.5Q696 144 721 166ZM682 333Q682 367 663.5 384.5Q645 402 610 402Q576 402 549 380Q522 358 508 317H681Q682 320 682 323Q682 326 682 333ZM178 146Q178 129 190.5 120.5Q203 112 228 112Q265 112 294.5 135Q324 158 330 194L333 212L241 195Q206 188 192 177Q178 166 178 146Z" glyph-name="ae" horiz-adv-x="868" unicode="&#230;" /><glyph d="M529 0H371L380 49Q349 19 313.5 3.5Q278 -12 239 -12Q143 -12 87 51Q31 114 31 213Q31 349 104.5 436.5Q178 524 290 524Q342 524 382.5 502.5Q423 481 447 441L460 512H619ZM201 227Q201 178 224.5 149Q248 120 290 120Q340 120 374.5 164.5Q409 209 409 277Q409 326 382 357.5Q355 389 316 389Q265 389 233 344Q201 299 201 227ZM336 512ZM473 0ZM403 587 326 740H175L270 587ZM336 512Z" glyph-name="agrave" horiz-adv-x="631" unicode="&#224;" /><glyph d="M511 298 459 0H305L315 52Q286 20 249.5 4Q213 -12 169 -12Q98 -12 54.5 25.5Q11 63 11 120Q11 193 55.5 236Q100 279 203 298L352 325Q355 357 336.5 373.5Q318 390 280 390Q246 390 211.5 377Q177 364 135 334L65 432Q114 476 175 500Q236 524 300 524Q411 524 470 463Q529 402 511 298ZM178 146Q178 129 190.5 120.5Q203 112 228 112Q264 112 293.5 134.5Q323 157 330 192L334 212L241 195Q206 189 192 177.5Q178 166 178 146ZM295 498ZM393 -14ZM362 573 285 726H134L229 573ZM295 498Z" glyph-name="agrave.alt" horiz-adv-x="554" /><glyph d="M529 0H371L380 49Q349 19 313.5 3.5Q278 -12 239 -12Q143 -12 87 51Q31 114 31 213Q31 349 104.5 436.5Q178 524 290 524Q342 524 382.5 502.5Q423 481 447 441L460 512H619ZM201 227Q201 178 224.5 149Q248 120 290 120Q340 120 374.5 164.5Q409 209 409 277Q409 326 382 357.5Q355 389 316 389Q265 389 233 344Q201 299 201 227ZM336 512ZM473 0ZM474 613H228L246 712H492ZM336 512Z" glyph-name="amacron" horiz-adv-x="631" unicode="&#257;" /><glyph d="M511 298 459 0H305L315 52Q286 20 249.5 4Q213 -12 169 -12Q98 -12 54.5 25.5Q11 63 11 120Q11 193 55.5 236Q100 279 203 298L352 325Q355 357 336.5 373.5Q318 390 280 390Q246 390 211.5 377Q177 364 135 334L65 432Q114 476 175 500Q236 524 300 524Q411 524 470 463Q529 402 511 298ZM178 146Q178 129 190.5 120.5Q203 112 228 112Q264 112 293.5 134.5Q323 157 330 192L334 212L241 195Q206 189 192 177.5Q178 166 178 146ZM295 498ZM393 -14ZM433 599H187L205 698H451ZM295 498Z" glyph-name="amacron.alt" horiz-adv-x="554" /><glyph d="M267 -12Q163 -12 94 39Q25 90 25 171Q25 247 72 300.5Q119 354 218 388Q202 418 194 447.5Q186 477 186 505Q186 600 246 656Q306 712 401 712Q485 712 537 669.5Q589 627 589 557Q589 493 552.5 445Q516 397 435 359L504 275L582 376H758L754 359L615 183Q612 180 606 172.5Q600 165 597 161L707 28L702 0H527L482 55Q432 21 378 4.5Q324 -12 267 -12ZM401 591Q374 591 360 573.5Q346 556 346 524Q346 503 352 483.5Q358 464 370 443Q408 465 428 491Q448 517 448 545Q448 567 435.5 579Q423 591 401 591ZM217 202Q217 168 243.5 148.5Q270 129 311 129Q335 129 356.5 136Q378 143 398 158L285 297Q250 278 233.5 254.5Q217 231 217 202Z" glyph-name="ampersand" horiz-adv-x="754" unicode="&amp;" /><glyph d="M460 512H619L529 0H444Q412 -22 396 -47.5Q380 -73 380 -102Q380 -128 395 -141.5Q410 -155 437 -155Q445 -155 454 -154Q463 -153 474 -150L460 -224Q443 -231 425 -234.5Q407 -238 383 -238Q335 -238 305.5 -211.5Q276 -185 276 -140Q276 -98 300 -62Q324 -26 371 0L380 49Q349 19 313.5 3.5Q278 -12 239 -12Q143 -12 87 51Q31 114 31 213Q31 349 104.5 436.5Q178 524 290 524Q342 524 382.5 502.5Q423 481 447 441ZM201 227Q201 178 224.5 149Q248 120 290 120Q340 120 374.5 164.5Q409 209 409 277Q409 326 382 357.5Q355 389 316 389Q265 389 233 344Q201 299 201 227Z" glyph-name="aogonek" horiz-adv-x="631" unicode="&#261;" /><glyph d="M300 524Q411 524 470 463Q529 402 511 298L459 0H378Q346 -22 330 -47.5Q314 -73 314 -102Q314 -128 329 -141.5Q344 -155 371 -155Q379 -155 388 -154Q397 -153 408 -150L394 -224Q377 -231 359 -234.5Q341 -238 317 -238Q269 -238 239.5 -211.5Q210 -185 210 -140Q210 -98 234 -62Q258 -26 305 0L315 52Q286 20 249.5 4Q213 -12 169 -12Q98 -12 54.5 25.5Q11 63 11 120Q11 193 55.5 236Q100 279 203 298L352 325Q355 357 336.5 373.5Q318 390 280 390Q246 390 211.5 377Q177 364 135 334L65 432Q114 476 175 500Q236 524 300 524ZM178 146Q178 129 190.5 120.5Q203 112 228 112Q264 112 293.5 134.5Q323 157 330 192L334 212L241 195Q206 189 192 177.5Q178 166 178 146Z" glyph-name="aogonek.alt" horiz-adv-x="554" /><glyph d="M321.7 171Q358.6 156.6 377.95 151.65Q397.3 146.7 414.4 146.7Q460.3 146.7 483.7 189.45Q507.1 232.2 501.7 306H424.3Q425.2 284.4 419.35 275.85Q413.5 267.3 400 267.3Q387.4 267.3 372.55 271.35Q357.7 275.4 326.2 288Q290.2 303.3 271.3 308.25Q252.4 313.2 235.3 313.2Q178.6 313.2 148.9 267.75Q119.2 222.3 122.8 145.8H201.1Q202 170.1 211.9 181.8Q221.8 193.5 240.7 193.5Q254.2 193.5 270.85 189.45Q287.5 185.4 321.7 171ZM321.7 377Q358.6 362.6 377.95 357.65Q397.3 352.7 414.4 352.7Q460.3 352.7 483.7 395.45Q507.1 438.2 501.7 512H424.3Q425.2 490.4 419.35 481.85Q413.5 473.3 400 473.3Q387.4 473.3 372.55 477.35Q357.7 481.4 326.2 494Q290.2 509.3 271.3 514.25Q252.4 519.2 235.3 519.2Q178.6 519.2 148.9 473.75Q119.2 428.3 122.8 351.8H201.1Q202 376.1 211.9 387.8Q221.8 399.5 240.7 399.5Q254.2 399.5 270.85 395.45Q287.5 391.4 321.7 377Z" glyph-name="approxequal" horiz-adv-x="601" unicode="&#8776;" /><glyph d="M529 0H371L380 49Q349 19 313.5 3.5Q278 -12 239 -12Q143 -12 87 51Q31 114 31 213Q31 349 104.5 436.5Q178 524 290 524Q342 524 382.5 502.5Q423 481 447 441L460 512H619ZM201 227Q201 178 224.5 149Q248 120 290 120Q340 120 374.5 164.5Q409 209 409 277Q409 326 382 357.5Q355 389 316 389Q265 389 233 344Q201 299 201 227ZM336 512ZM473 0ZM474 678Q474 727 439 762Q404 797 355 797Q305 797 271 762Q237 727 237 678Q237 629 271 594.5Q305 560 355 560Q405 560 439.5 594.5Q474 629 474 678ZM313 678Q313 695 326 708Q339 721 355 721Q372 721 385 708Q398 695 398 678Q398 662 385 649Q372 636 355 636Q339 636 326 649Q313 662 313 678ZM336 512Z" glyph-name="aring" horiz-adv-x="631" unicode="&#229;" /><glyph d="M511 298 459 0H305L315 52Q286 20 249.5 4Q213 -12 169 -12Q98 -12 54.5 25.5Q11 63 11 120Q11 193 55.5 236Q100 279 203 298L352 325Q355 357 336.5 373.5Q318 390 280 390Q246 390 211.5 377Q177 364 135 334L65 432Q114 476 175 500Q236 524 300 524Q411 524 470 463Q529 402 511 298ZM178 146Q178 129 190.5 120.5Q203 112 228 112Q264 112 293.5 134.5Q323 157 330 192L334 212L241 195Q206 189 192 177.5Q178 166 178 146ZM295 498ZM393 -14ZM433 664Q433 713 398 748Q363 783 314 783Q264 783 230 748Q196 713 196 664Q196 615 230 580.5Q264 546 314 546Q364 546 398.5 580.5Q433 615 433 664ZM272 664Q272 681 285 694Q298 707 314 707Q331 707 344 694Q357 681 357 664Q357 648 344 635Q331 622 314 622Q298 622 285 635Q272 648 272 664ZM295 498Z" glyph-name="aring.alt" horiz-adv-x="554" /><glyph d="M228 700H399L587 281H421L313 531L205 281H38Z" glyph-name="asciicircum" horiz-adv-x="600" unicode="^" /><glyph d="M323 280Q364 264 385.5 258.5Q407 253 426 253Q477 253 503 300.5Q529 348 523 430H437Q438 406 431.5 396.5Q425 387 410 387Q396 387 379.5 391.5Q363 396 328 410Q288 427 267 432.5Q246 438 227 438Q164 438 131 387.5Q98 337 102 252H189Q190 279 201 292Q212 305 233 305Q248 305 266.5 300.5Q285 296 323 280Z" glyph-name="asciitilde" horiz-adv-x="601" unicode="~" /><glyph d="M318 418 314 290H186L225 413L115 337L67 450L192 497L87 542L167 653L254 574L258 700H386L348 579L459 655L507 542L379 494L487 448L407 337Z" glyph-name="asterisk" horiz-adv-x="490" unicode="*" /><glyph d="M522 127Q495 84 458 61.5Q421 39 379 39Q312 39 270 86Q228 133 228 207Q228 339 289 425.5Q350 512 445 512Q484 512 511.5 497Q539 482 555 452L563 502H702L650 205Q645 174 653.5 158.5Q662 143 684 143Q724 143 753.5 197.5Q783 252 783 343Q783 472 706 550.5Q629 629 486 629Q328 629 236 529Q144 429 144 272Q144 107 225.5 17.5Q307 -72 460 -72Q521 -72 569.5 -60Q618 -48 685 -10L725 -80Q653 -121 590.5 -138Q528 -155 459 -155Q260 -155 150 -42Q40 71 40 269Q40 358 73 442.5Q106 527 166 588Q226 649 307 680.5Q388 712 486 712Q667 712 776.5 611Q886 510 886 346Q886 210 822.5 127.5Q759 45 665 45Q606 45 570 65.5Q534 86 522 127ZM370 206Q370 181 384 167Q398 153 424 153Q457 153 484 191Q511 229 519 289Q526 343 512.5 371Q499 399 465 399Q427 399 398.5 341Q370 283 370 206Z" glyph-name="at" horiz-adv-x="912" unicode="@" /><glyph d="M529 0H371L380 49Q349 19 313.5 3.5Q278 -12 239 -12Q143 -12 87 51Q31 114 31 213Q31 349 104.5 436.5Q178 524 290 524Q342 524 382.5 502.5Q423 481 447 441L460 512H619ZM201 227Q201 178 224.5 149Q248 120 290 120Q340 120 374.5 164.5Q409 209 409 277Q409 326 382 357.5Q355 389 316 389Q265 389 233 344Q201 299 201 227ZM336 512ZM473 0ZM357 607Q385 595 400 591Q415 587 430 587Q475 587 499 627Q523 667 518 728H425Q424 713 420 707.5Q416 702 405 702Q396 702 385 705Q374 708 351 717Q322 730 305 734Q288 738 272 738Q224 738 193.5 695Q163 652 169 597H264Q267 611 274.5 618Q282 625 296 625Q308 625 320.5 621.5Q333 618 357 607ZM336 512Z" glyph-name="atilde" horiz-adv-x="631" unicode="&#227;" /><glyph d="M511 298 459 0H305L315 52Q286 20 249.5 4Q213 -12 169 -12Q98 -12 54.5 25.5Q11 63 11 120Q11 193 55.5 236Q100 279 203 298L352 325Q355 357 336.5 373.5Q318 390 280 390Q246 390 211.5 377Q177 364 135 334L65 432Q114 476 175 500Q236 524 300 524Q411 524 470 463Q529 402 511 298ZM178 146Q178 129 190.5 120.5Q203 112 228 112Q264 112 293.5 134.5Q323 157 330 192L334 212L241 195Q206 189 192 177.5Q178 166 178 146ZM295 498ZM393 -14ZM326 593Q354 581 369 577Q384 573 399 573Q444 573 468 613Q492 653 487 714H394Q393 699 389 693.5Q385 688 374 688Q365 688 354 691Q343 694 320 703Q291 716 274 720Q257 724 241 724Q193 724 162.5 681Q132 638 138 583H233Q236 597 243.5 604Q251 611 265 611Q277 611 289.5 607.5Q302 604 326 593ZM305 498Z" glyph-name="atilde.alt" horiz-adv-x="554" /><glyph d="M396 524Q494 524 551 461.5Q608 399 608 299Q608 165 533 76.5Q458 -12 345 -12Q291 -12 250 9Q209 30 184 70L171 0H13L141 730H309L264 476Q293 500 326.5 512Q360 524 396 524ZM438 285Q438 332 413 360.5Q388 389 345 389Q293 389 257.5 345Q222 301 222 235Q222 186 250 154.5Q278 123 319 123Q372 123 405 167.5Q438 212 438 285Z" glyph-name="b" horiz-adv-x="637" unicode="b" /><glyph d="M228 742 503 -132H374L99 742Z" glyph-name="backslash" horiz-adv-x="586" unicode="\" /><glyph d="M246 742V-152H106V742Z" glyph-name="bar" horiz-adv-x="337" unicode="|" /><glyph d="M25 243 49 381H72Q112 381 129.5 397Q147 413 152 455Q155 473 156 500Q157 527 157 581Q157 661 201.5 701.5Q246 742 335 742H410L388 614H363Q338 614 326.5 597.5Q315 581 312 532Q311 524 311 513.5Q311 503 311 474Q311 393 291.5 357Q272 321 222 299Q248 281 259.5 261Q271 241 271 215Q271 196 266 173.5Q261 151 246 105Q232 64 227.5 44.5Q223 25 223 10Q223 -6 232.5 -15Q242 -24 260 -24H277L254 -152H216Q143 -152 98 -116Q53 -80 53 -23Q53 2 59.5 30Q66 58 85 110Q99 148 103.5 165Q108 182 108 195Q108 217 92 230Q76 243 48 243Z" glyph-name="braceleft" horiz-adv-x="367" unicode="{" /><glyph d="M356 347 332 209H309Q269 209 251.5 193Q234 177 229 135Q226 117 225 90Q224 63 224 9Q224 -71 179.5 -111.5Q135 -152 46 -152H-29L-7 -24H18Q43 -24 54.5 -7.5Q66 9 69 58Q70 66 70 76.5Q70 87 70 116Q70 197 89.5 233Q109 269 159 291Q133 309 121.5 329Q110 349 110 375Q110 394 115 416.5Q120 439 135 485Q149 526 153.5 545.5Q158 565 158 580Q158 596 148.5 605Q139 614 121 614H104L127 742H165Q238 742 283 706Q328 670 328 613Q328 588 321.5 560Q315 532 296 480Q282 442 277.5 425Q273 408 273 395Q273 373 289 360Q305 347 333 347Z" glyph-name="braceright" horiz-adv-x="366" unicode="}" /><glyph d="M271 -152H-3L155 742H429L406 612H292L180 -22H294Z" glyph-name="bracketleft" horiz-adv-x="370" unicode="[" /><glyph d="M113 742H387L229 -152H-45L-22 -22H92L204 612H90Z" glyph-name="bracketright" horiz-adv-x="370" unicode="]" /><glyph d="M205 675Q228 675 239 690.5Q250 706 250 740H362Q362 670 319.5 627.5Q277 585 199 585Q123 585 83 630Q43 675 52 740H166Q161 708 171 691.5Q181 675 205 675ZM192 512Z" glyph-name="breve" horiz-adv-x="400" unicode="&#728;" /><glyph d="M205 875Q228 875 239 890.5Q250 906 250 940H362Q362 870 319.5 827.5Q277 785 199 785Q123 785 83 830Q43 875 52 940H166Q161 908 171 891.5Q181 875 205 875ZM180 700Z" glyph-name="breve.case" horiz-adv-x="400" /><glyph d="M247 742V405H107V742ZM247 205V-132H107V205Z" glyph-name="brokenbar" horiz-adv-x="337" unicode="&#166;" /><glyph d="M83 400Q83 338.5 128 295.75Q173 253 237.5 253Q302 253 347.75 295.75Q393.5 338.5 393.5 400Q393.5 461.5 348.5 502.75Q303.5 544 237.5 544Q173 544 128 502Q83 460 83 400ZM119 397Z" glyph-name="bullet" horiz-adv-x="429" unicode="&#8226;" /><glyph d="M281 -12Q167 -12 98 50.5Q29 113 29 214Q29 352 109 438Q189 524 317 524Q401 524 464 478.5Q527 433 544 354L401 306Q389 345 368 363.5Q347 382 316 382Q266 382 232.5 338.5Q199 295 199 228Q199 179 223.5 151.5Q248 124 291 124Q317 124 340.5 143Q364 162 384 199L513 123Q471 56 412.5 22Q354 -12 281 -12ZM281 10ZM330 512Z" glyph-name="c" horiz-adv-x="548" unicode="c" /><glyph d="M281 -12Q167 -12 98 50.5Q29 113 29 214Q29 352 109 438Q189 524 317 524Q401 524 464 478.5Q527 433 544 354L401 306Q389 345 368 363.5Q347 382 316 382Q266 382 232.5 338.5Q199 295 199 228Q199 179 223.5 151.5Q248 124 291 124Q317 124 340.5 143Q364 162 384 199L513 123Q471 56 412.5 22Q354 -12 281 -12ZM281 10ZM330 512ZM525 740H367L262 587H402ZM330 512Z" glyph-name="cacute" horiz-adv-x="548" unicode="&#263;" /><glyph d="M284 587H103L11 740H145L201 666L270 740H404ZM188 512Z" glyph-name="caron" horiz-adv-x="401" unicode="&#711;" /><glyph d="M284 787H103L11 940H145L201 866L270 940H404ZM177 700Z" glyph-name="caron.case" horiz-adv-x="401" /><glyph d="M180 730H44L4 546H105ZM18 700Z" glyph-name="caron.salt" horiz-adv-x="190" /><glyph d="M281 -12Q167 -12 98 50.5Q29 113 29 214Q29 352 109 438Q189 524 317 524Q401 524 464 478.5Q527 433 544 354L401 306Q389 345 368 363.5Q347 382 316 382Q266 382 232.5 338.5Q199 295 199 228Q199 179 223.5 151.5Q248 124 291 124Q317 124 340.5 143Q364 162 384 199L513 123Q471 56 412.5 22Q354 -12 281 -12ZM281 10ZM330 512ZM426 587H245L153 740H287L343 666L412 740H546ZM330 512Z" glyph-name="ccaron" horiz-adv-x="548" unicode="&#269;" /><glyph d="M183 -113 166 -79 235 -9Q140 3 84.5 64Q29 125 29 214Q29 352 109 438Q189 524 317 524Q401 524 464 478.5Q527 433 544 354L401 306Q389 345 368 363.5Q347 382 316 382Q266 382 232.5 338.5Q199 295 199 228Q199 179 223.5 151.5Q248 124 291 124Q317 124 340.5 143Q364 162 384 199L513 123Q476 65 427 31.5Q378 -2 317 -10L274 -53Q314 -57 334.5 -77Q355 -97 355 -132Q355 -180 320.5 -209Q286 -238 229 -238Q204 -238 177.5 -231.5Q151 -225 127 -214L139 -143Q168 -156 184.5 -160Q201 -164 220 -164Q238 -164 248.5 -156Q259 -148 259 -134Q259 -122 248.5 -116Q238 -110 215 -110Q207 -110 198.5 -111Q190 -112 183 -113Z" glyph-name="ccedilla" horiz-adv-x="548" unicode="&#231;" /><glyph d="M281 -12Q167 -12 98 50.5Q29 113 29 214Q29 352 109 438Q189 524 317 524Q401 524 464 478.5Q527 433 544 354L401 306Q389 345 368 363.5Q347 382 316 382Q266 382 232.5 338.5Q199 295 199 228Q199 179 223.5 151.5Q248 124 291 124Q317 124 340.5 143Q364 162 384 199L513 123Q471 56 412.5 22Q354 -12 281 -12ZM281 10ZM330 512ZM139 587 259 740H440L532 587H398L342 661L273 587ZM330 512Z" glyph-name="ccircumflex" horiz-adv-x="548" unicode="&#265;" /><glyph d="M281 -12Q167 -12 98 50.5Q29 113 29 214Q29 352 109 438Q189 524 317 524Q401 524 464 478.5Q527 433 544 354L401 306Q389 345 368 363.5Q347 382 316 382Q266 382 232.5 338.5Q199 295 199 228Q199 179 223.5 151.5Q248 124 291 124Q317 124 340.5 143Q364 162 384 199L513 123Q471 56 412.5 22Q354 -12 281 -12ZM281 10ZM330 512ZM257 663Q257 626 284.5 600.5Q312 575 350 575Q389 575 416.5 600.5Q444 626 444 663Q444 699 416.5 724Q389 749 350 749Q312 749 284.5 724Q257 699 257 663ZM330 512Z" glyph-name="cdotaccent" horiz-adv-x="548" unicode="&#267;" /><glyph d="M140 -113 123 -79 204 3H287L231 -53Q271 -57 291.5 -77Q312 -97 312 -132Q312 -180 277.5 -209Q243 -238 186 -238Q161 -238 134.5 -231.5Q108 -225 84 -214L96 -143Q125 -156 141.5 -160Q158 -164 177 -164Q195 -164 205.5 -156Q216 -148 216 -134Q216 -122 205.5 -116Q195 -110 172 -110Q164 -110 155.5 -111Q147 -112 140 -113ZM238 10Z" glyph-name="cedilla" horiz-adv-x="400" unicode="&#184;" /><glyph d="M187 -84H101L149 21Q96 50 67 100.5Q38 151 38 214Q38 352 118 438Q198 524 326 524Q338 524 351 522.5Q364 521 378 519L413 594H499L452 492Q492 469 517.5 434Q543 399 553 354L410 306Q405 321 399.5 332.5Q394 344 388 352L283 125Q286 124 289.5 124Q293 124 300 124Q326 124 349.5 143Q373 162 393 199L522 123Q480 56 421.5 22Q363 -12 290 -12Q272 -12 255.5 -10.5Q239 -9 223 -6ZM208 228Q208 212 210.5 198.5Q213 185 219 172L315 381Q269 377 238.5 334Q208 291 208 228Z" glyph-name="cent" horiz-adv-x="577" unicode="&#162;" /><glyph d="M-3 587 117 740H298L390 587H256L200 661L131 587ZM188 512Z" glyph-name="circumflex" horiz-adv-x="401" unicode="&#710;" /><glyph d="M-3 787 117 940H298L390 787H256L200 861L131 787ZM176 700Z" glyph-name="circumflex.case" horiz-adv-x="401" /><glyph d="M81 426Q81 385 111 356.5Q141 328 184 328Q227 328 257.5 356.5Q288 385 288 426Q288 467 258 494.5Q228 522 184 522Q141 522 111 494Q81 466 81 426ZM105 424ZM21 86Q21 45 51 16.5Q81 -12 124 -12Q167 -12 197.5 16.5Q228 45 228 86Q228 127 198 154.5Q168 182 124 182Q81 182 51 154Q21 126 21 86ZM45 84Z" glyph-name="colon" horiz-adv-x="310" unicode=":" /><glyph d="M229 170H54L-19 -125H119Z" glyph-name="comma" horiz-adv-x="284" unicode="," /><glyph d="M197 -56H57L-3 -236H122ZM79 -210ZM130 -1Z" glyph-name="commaaccent" horiz-adv-x="200" unicode="&#63171;" /><glyph d="M2 587H148L208 740H87ZM75 512Z" glyph-name="commaaccent.salt" horiz-adv-x="200" /><glyph d="M780 351Q780 501 674.5 606.5Q569 712 419 712Q269 712 163.5 606.5Q58 501 58 351Q58 201 164 94.5Q270 -12 419 -12Q568 -12 674 94.5Q780 201 780 351ZM133 351Q133 472 217 557.5Q301 643 419 643Q538 643 622 557.5Q706 472 706 351Q706 230 621.5 144Q537 58 419 58Q301 58 217 144Q133 230 133 351ZM421 168Q341 168 292 218Q243 268 243 347Q243 426 294 478Q345 530 427 530Q476 530 515.5 507Q555 484 575 444L473 385Q463 403 451 411Q439 419 422 419Q397 419 381 399.5Q365 380 365 349Q365 317 381 297.5Q397 278 423 278Q440 278 452.5 288.5Q465 299 475 321L581 268Q561 220 519.5 194Q478 168 421 168Z" glyph-name="copyright" horiz-adv-x="804" unicode="&#169;" /><glyph d="M128 79 48 173 148 258Q138 279 133 301Q128 323 128 346Q128 372 134.5 397.5Q141 423 153 445L81 534L186 622L255 538Q275 546 295.5 550Q316 554 336 554Q363 554 389 546.5Q415 539 440 525L547 616L627 522L524 434Q534 413 539 391Q544 369 544 346Q544 320 537.5 295Q531 270 519 248L591 159L486 71L417 155Q398 147 377.5 142.5Q357 138 336 138Q308 138 281 145.5Q254 153 231 167ZM336 270Q368 270 390 292Q412 314 412 346Q412 378 390 400Q368 422 336 422Q304 422 282 400Q260 378 260 346Q260 314 282 292Q304 270 336 270Z" glyph-name="currency" horiz-adv-x="641" unicode="&#164;" /><glyph d="M30 213Q30 347 105 435.5Q180 524 293 524Q343 524 382.5 505.5Q422 487 447 452L496 730H664L536 0H378L387 48Q356 18 319 3Q282 -12 242 -12Q144 -12 87 50.5Q30 113 30 213ZM200 227Q200 180 225 151.5Q250 123 293 123Q345 123 380.5 167Q416 211 416 277Q416 326 388 357.5Q360 389 319 389Q266 389 233 344.5Q200 300 200 227ZM706 700Z" glyph-name="d" horiz-adv-x="638" unicode="d" /><glyph d="M294 415 239 0H111L202 415L56 400L77 520L216 505L235 700H363L312 505L457 520L436 400Z" glyph-name="dagger" horiz-adv-x="441" unicode="&#8224;" /><glyph d="M252 0H124L175 195L30 180L51 300L187 285L186 350L209 414L69 400L90 520L229 505L248 700H376L325 505L470 520L449 400L313 415L314 350L291 286L431 300L410 180L271 195Z" glyph-name="daggerdbl" horiz-adv-x="466" unicode="&#8225;" /><glyph d="M30 213Q30 347 105 435.5Q180 524 293 524Q343 524 382.5 505.5Q422 487 447 452L496 730H664L536 0H378L387 48Q356 18 319 3Q282 -12 242 -12Q144 -12 87 50.5Q30 113 30 213ZM200 227Q200 180 225 151.5Q250 123 293 123Q345 123 380.5 167Q416 211 416 277Q416 326 388 357.5Q360 389 319 389Q266 389 233 344.5Q200 300 200 227ZM706 700ZM868 730H732L692 546H793ZM706 700Z" glyph-name="dcaron" horiz-adv-x="658" unicode="&#271;" /><glyph d="M30 213Q30 347 105 435.5Q180 524 293 524Q343 524 382.5 505.5Q422 487 447 452L466 562H343L363 672H486L496 730H664L654 672H712L692 562H635L536 0H378L387 48Q356 18 319 3Q282 -12 242 -12Q144 -12 87 50.5Q30 113 30 213ZM200 227Q200 180 225 151.5Q250 123 293 123Q345 123 380.5 167Q416 211 416 277Q416 326 388 357.5Q360 389 319 389Q266 389 233 344.5Q200 300 200 227Z" glyph-name="dcroat" horiz-adv-x="638" unicode="&#273;" /><glyph d="M396 556Q396 621 350.5 666.5Q305 712 240 712Q174 712 128 666.5Q82 621 82 556Q82 491 128.5 445Q175 399 240 399Q305 399 350.5 445Q396 491 396 556ZM179 556Q179 582 196.5 600Q214 618 240 618Q266 618 284 600Q302 582 302 556Q302 530 284 512.5Q266 495 240 495Q214 495 196.5 512.5Q179 530 179 556Z" glyph-name="degree" horiz-adv-x="378" unicode="&#176;" /><glyph d="M26 663Q26 631 48 608.5Q70 586 102 586Q134 586 157 608.5Q180 631 180 663Q180 695 157 718Q134 741 102 741Q71 741 48.5 718Q26 695 26 663ZM220 663Q220 631 242.5 608.5Q265 586 297 586Q329 586 351.5 608.5Q374 631 374 663Q374 695 351 718Q328 741 297 741Q265 741 242.5 718Q220 695 220 663ZM178 512Z" glyph-name="dieresis" horiz-adv-x="400" unicode="&#168;" /><glyph d="M26 863Q26 831 48 808.5Q70 786 102 786Q134 786 157 808.5Q180 831 180 863Q180 895 157 918Q134 941 102 941Q71 941 48.5 918Q26 895 26 863ZM220 863Q220 831 242.5 808.5Q265 786 297 786Q329 786 351.5 808.5Q374 831 374 863Q374 895 351 918Q328 941 297 941Q265 941 242.5 918Q220 895 220 863ZM180 700Z" glyph-name="dieresis.case" horiz-adv-x="400" /><glyph d="M82 285V415H552V285ZM223 134Q223 97 250.5 71.5Q278 46 316 46Q355 46 382.5 71.5Q410 97 410 134Q410 171 382.5 196Q355 221 316 221Q277 221 250 196Q223 171 223 134ZM223 565Q223 528 250.5 502.5Q278 477 316 477Q355 477 382.5 502.5Q410 528 410 565Q410 602 382.5 627Q355 652 316 652Q277 652 250 627Q223 602 223 565Z" glyph-name="divide" horiz-adv-x="600" unicode="&#247;" /><glyph d="M335 -12 313 -134H219L242 -4Q171 9 111.5 42Q52 75 3 130L112 243Q141 206 181.5 176.5Q222 147 266 134L295 297L268 307Q187 336 147.5 382Q108 428 108 493Q108 584 181 648Q254 712 369 712L390 833H484L461 704Q527 691 584 658Q641 625 676 583L573 476Q545 505 509 527.5Q473 550 436 562L412 427L456 412Q536 384 576 337.5Q616 291 616 225Q616 121 536 54.5Q456 -12 336 -12ZM278 511Q278 493 288 481Q298 469 324 458L344 574Q312 571 295 554.5Q278 538 278 511ZM439 207Q439 226 426.5 239.5Q414 253 384 265L359 125Q398 130 418.5 151Q439 172 439 207Z" glyph-name="dollar" horiz-adv-x="662" unicode="$" /><glyph d="M107 663Q107 626 134.5 600.5Q162 575 200 575Q239 575 266.5 600.5Q294 626 294 663Q294 699 266.5 724Q239 749 200 749Q162 749 134.5 724Q107 699 107 663ZM180 512Z" glyph-name="dotaccent" horiz-adv-x="400" unicode="&#729;" /><glyph d="M107 863Q107 826 134.5 800.5Q162 775 200 775Q239 775 266.5 800.5Q294 826 294 863Q294 899 266.5 924Q239 949 200 949Q162 949 134.5 924Q107 899 107 863ZM181 700Z" glyph-name="dotaccent.case" horiz-adv-x="400" /><glyph d="M13 0 103 512H271L181 0ZM187 512Z" glyph-name="dotlessi" horiz-adv-x="283" unicode="&#305;" /><glyph d="M290 -12Q173 -12 101.5 51.5Q30 115 30 220Q30 353 111.5 438.5Q193 524 316 524Q416 524 477.5 466Q539 408 539 313Q539 289 533 256.5Q527 224 523 215H192Q195 167 223 143Q251 119 304 119Q332 119 362.5 131.5Q393 144 418 166L496 60Q459 24 407.5 6Q356 -12 290 -12ZM379 333Q379 367 360.5 384.5Q342 402 307 402Q273 402 246 380Q219 358 205 317H378Q379 321 379 324Q379 327 379 333ZM318 512ZM356 0Z" glyph-name="e" horiz-adv-x="565" unicode="e" /><glyph d="M290 -12Q173 -12 101.5 51.5Q30 115 30 220Q30 353 111.5 438.5Q193 524 316 524Q416 524 477.5 466Q539 408 539 313Q539 289 533 256.5Q527 224 523 215H192Q195 167 223 143Q251 119 304 119Q332 119 362.5 131.5Q393 144 418 166L496 60Q459 24 407.5 6Q356 -12 290 -12ZM379 333Q379 367 360.5 384.5Q342 402 307 402Q273 402 246 380Q219 358 205 317H378Q379 321 379 324Q379 327 379 333ZM318 512ZM356 0ZM513 740H355L250 587H390ZM318 512Z" glyph-name="eacute" horiz-adv-x="565" unicode="&#233;" /><glyph d="M290 -12Q173 -12 101.5 51.5Q30 115 30 220Q30 353 111.5 438.5Q193 524 316 524Q416 524 477.5 466Q539 408 539 313Q539 289 533 256.5Q527 224 523 215H192Q195 167 223 143Q251 119 304 119Q332 119 362.5 131.5Q393 144 418 166L496 60Q459 24 407.5 6Q356 -12 290 -12ZM379 333Q379 367 360.5 384.5Q342 402 307 402Q273 402 246 380Q219 358 205 317H378Q379 321 379 324Q379 327 379 333ZM318 512ZM356 0ZM331 675Q354 675 365 690.5Q376 706 376 740H488Q488 670 445.5 627.5Q403 585 325 585Q249 585 209 630Q169 675 178 740H292Q287 708 297 691.5Q307 675 331 675ZM318 512Z" glyph-name="ebreve" horiz-adv-x="565" unicode="&#277;" /><glyph d="M290 -12Q173 -12 101.5 51.5Q30 115 30 220Q30 353 111.5 438.5Q193 524 316 524Q416 524 477.5 466Q539 408 539 313Q539 289 533 256.5Q527 224 523 215H192Q195 167 223 143Q251 119 304 119Q332 119 362.5 131.5Q393 144 418 166L496 60Q459 24 407.5 6Q356 -12 290 -12ZM379 333Q379 367 360.5 384.5Q342 402 307 402Q273 402 246 380Q219 358 205 317H378Q379 321 379 324Q379 327 379 333ZM318 512ZM356 0ZM414 587H233L141 740H275L331 666L400 740H534ZM318 512Z" glyph-name="ecaron" horiz-adv-x="565" unicode="&#283;" /><glyph d="M290 -12Q173 -12 101.5 51.5Q30 115 30 220Q30 353 111.5 438.5Q193 524 316 524Q416 524 477.5 466Q539 408 539 313Q539 289 533 256.5Q527 224 523 215H192Q195 167 223 143Q251 119 304 119Q332 119 362.5 131.5Q393 144 418 166L496 60Q459 24 407.5 6Q356 -12 290 -12ZM379 333Q379 367 360.5 384.5Q342 402 307 402Q273 402 246 380Q219 358 205 317H378Q379 321 379 324Q379 327 379 333ZM318 512ZM356 0ZM127 587 247 740H428L520 587H386L330 661L261 587ZM318 512Z" glyph-name="ecircumflex" horiz-adv-x="565" unicode="&#234;" /><glyph d="M290 -12Q173 -12 101.5 51.5Q30 115 30 220Q30 353 111.5 438.5Q193 524 316 524Q416 524 477.5 466Q539 408 539 313Q539 289 533 256.5Q527 224 523 215H192Q195 167 223 143Q251 119 304 119Q332 119 362.5 131.5Q393 144 418 166L496 60Q459 24 407.5 6Q356 -12 290 -12ZM379 333Q379 367 360.5 384.5Q342 402 307 402Q273 402 246 380Q219 358 205 317H378Q379 321 379 324Q379 327 379 333ZM318 512ZM356 0ZM166 663Q166 631 188 608.5Q210 586 242 586Q274 586 297 608.5Q320 631 320 663Q320 695 297 718Q274 741 242 741Q211 741 188.5 718Q166 695 166 663ZM360 663Q360 631 382.5 608.5Q405 586 437 586Q469 586 491.5 608.5Q514 631 514 663Q514 695 491 718Q468 741 437 741Q405 741 382.5 718Q360 695 360 663ZM318 512Z" glyph-name="edieresis" horiz-adv-x="565" unicode="&#235;" /><glyph d="M290 -12Q173 -12 101.5 51.5Q30 115 30 220Q30 353 111.5 438.5Q193 524 316 524Q416 524 477.5 466Q539 408 539 313Q539 289 533 256.5Q527 224 523 215H192Q195 167 223 143Q251 119 304 119Q332 119 362.5 131.5Q393 144 418 166L496 60Q459 24 407.5 6Q356 -12 290 -12ZM379 333Q379 367 360.5 384.5Q342 402 307 402Q273 402 246 380Q219 358 205 317H378Q379 321 379 324Q379 327 379 333ZM318 512ZM356 0ZM245 663Q245 626 272.5 600.5Q300 575 338 575Q377 575 404.5 600.5Q432 626 432 663Q432 699 404.5 724Q377 749 338 749Q300 749 272.5 724Q245 699 245 663ZM318 512Z" glyph-name="edotaccent" horiz-adv-x="565" unicode="&#279;" /><glyph d="M290 -12Q173 -12 101.5 51.5Q30 115 30 220Q30 353 111.5 438.5Q193 524 316 524Q416 524 477.5 466Q539 408 539 313Q539 289 533 256.5Q527 224 523 215H192Q195 167 223 143Q251 119 304 119Q332 119 362.5 131.5Q393 144 418 166L496 60Q459 24 407.5 6Q356 -12 290 -12ZM379 333Q379 367 360.5 384.5Q342 402 307 402Q273 402 246 380Q219 358 205 317H378Q379 321 379 324Q379 327 379 333ZM318 512ZM356 0ZM385 587 308 740H157L252 587ZM318 512Z" glyph-name="egrave" horiz-adv-x="565" unicode="&#232;" /><glyph d="M582 207Q582 109 506.5 48.5Q431 -12 306 -12Q185 -12 109.5 43Q34 98 34 182Q34 246 70.5 296Q107 346 173 371Q138 395 119.5 429.5Q101 464 101 504Q101 596 171.5 654Q242 712 358 712Q473 712 545.5 659Q618 606 618 528Q618 468 586.5 420.5Q555 373 498 348Q539 323 560.5 286.5Q582 250 582 207ZM276 487Q276 453 297 432Q318 411 352 411Q394 411 419 440.5Q444 470 444 512Q444 544 421.5 562.5Q399 581 362 581Q324 581 300 555.5Q276 530 276 487ZM311 295Q265 295 237.5 267Q210 239 210 198Q210 160 236 139Q262 118 309 118Q351 118 378 145.5Q405 173 405 219Q405 253 379.5 274Q354 295 311 295Z" glyph-name="eight" horiz-adv-x="635" unicode="8" /><glyph d="M63 186Q48 199 40 216Q32 233 32 252Q32 298 70 327Q108 356 170 356Q233 356 273 328.5Q313 301 313 261Q313 232 297.5 208Q282 184 254 171Q273 159 282.5 142Q292 125 292 105Q292 54 252 24Q212 -6 144 -6Q78 -6 36.5 22.5Q-5 51 -5 95Q-5 124 13 148.5Q31 173 63 186ZM171 269Q159 269 150 260.5Q141 252 141 239Q141 227 148 220Q155 213 167 213Q181 213 189 222.5Q197 232 197 246Q197 256 190 262.5Q183 269 171 269ZM146 137Q131 137 122.5 128.5Q114 120 114 107Q114 94 122 87Q130 80 143 80Q157 80 166 89Q175 98 175 112Q175 124 167.5 130.5Q160 137 146 137Z" glyph-name="eight.denominator" horiz-adv-x="343" unicode="&#63069;" /><glyph d="M38 46Q23 59 15 76Q7 93 7 112Q7 158 45 187Q83 216 145 216Q208 216 248 188.5Q288 161 288 121Q288 92 272.5 68Q257 44 229 31Q248 19 257.5 2Q267 -15 267 -35Q267 -86 227 -116Q187 -146 119 -146Q53 -146 11.5 -117.5Q-30 -89 -30 -45Q-30 -16 -12 8.5Q6 33 38 46ZM146 129Q134 129 125 120.5Q116 112 116 99Q116 87 123 80Q130 73 142 73Q156 73 164 82.5Q172 92 172 106Q172 116 165 122.5Q158 129 146 129ZM121 -3Q106 -3 97.5 -11.5Q89 -20 89 -33Q89 -46 97 -53Q105 -60 118 -60Q132 -60 141 -51Q150 -42 150 -28Q150 -16 142.5 -9.5Q135 -3 121 -3Z" glyph-name="eight.inferior" horiz-adv-x="343" unicode="&#8328;" /><glyph d="M125 536Q110 549 102 566Q94 583 94 602Q94 648 132 677Q170 706 232 706Q295 706 335 678.5Q375 651 375 611Q375 582 359.5 558Q344 534 316 521Q335 509 344.5 492Q354 475 354 455Q354 404 314 374Q274 344 206 344Q140 344 98.5 372.5Q57 401 57 445Q57 474 75 498.5Q93 523 125 536ZM233 619Q221 619 212 610.5Q203 602 203 589Q203 577 210 570Q217 563 229 563Q243 563 251 572.5Q259 582 259 596Q259 606 252 612.5Q245 619 233 619ZM208 487Q193 487 184.5 478.5Q176 470 176 457Q176 444 184 437Q192 430 205 430Q219 430 228 439Q237 448 237 462Q237 474 229.5 480.5Q222 487 208 487Z" glyph-name="eight.numerator" horiz-adv-x="343" unicode="&#63081;" /><glyph d="M149 676Q134 689 126 706Q118 723 118 742Q118 788 156 817Q194 846 256 846Q319 846 359 818.5Q399 791 399 751Q399 722 383.5 698Q368 674 340 661Q359 649 368.5 632Q378 615 378 595Q378 544 338 514Q298 484 230 484Q164 484 122.5 512.5Q81 541 81 585Q81 614 99 638.5Q117 663 149 676ZM257 759Q245 759 236 750.5Q227 742 227 729Q227 717 234 710Q241 703 253 703Q267 703 275 712.5Q283 722 283 736Q283 746 276 752.5Q269 759 257 759ZM232 627Q217 627 208.5 618.5Q200 610 200 597Q200 584 208 577Q216 570 229 570Q243 570 252 579Q261 588 261 602Q261 614 253.5 620.5Q246 627 232 627Z" glyph-name="eight.superior" horiz-adv-x="343" unicode="&#8312;" /><glyph d="M585 207Q585 109 509.5 48.5Q434 -12 309 -12Q188 -12 112.5 43Q37 98 37 182Q37 246 73.5 296Q110 346 176 371Q141 395 122.5 429.5Q104 464 104 504Q104 596 174.5 654Q245 712 361 712Q476 712 548.5 659Q621 606 621 528Q621 468 589.5 420.5Q558 373 501 348Q542 323 563.5 286.5Q585 250 585 207ZM279 487Q279 453 300 432Q321 411 355 411Q397 411 422 440.5Q447 470 447 512Q447 544 424.5 562.5Q402 581 365 581Q327 581 303 555.5Q279 530 279 487ZM314 295Q268 295 240.5 267Q213 239 213 198Q213 160 239 139Q265 118 312 118Q354 118 381 145.5Q408 173 408 219Q408 253 382.5 274Q357 295 314 295Z" glyph-name="eight.tab" horiz-adv-x="640" unicode="&#65304;" /><glyph d="M16 86Q16 45 46 16.5Q76 -12 119 -12Q162 -12 192.5 16.5Q223 45 223 86Q223 127 193 154.5Q163 182 119 182Q76 182 46 154Q16 126 16 86ZM40 84ZM273 86Q273 45 303 16.5Q333 -12 376 -12Q419 -12 449.5 16.5Q480 45 480 86Q480 127 450 154.5Q420 182 376 182Q333 182 303 154Q273 126 273 86ZM297 84ZM530 86Q530 45 560 16.5Q590 -12 633 -12Q676 -12 706.5 16.5Q737 45 737 86Q737 127 707 154.5Q677 182 633 182Q590 182 560 154Q530 126 530 86ZM554 84Z" glyph-name="ellipsis" horiz-adv-x="795" unicode="&#8230;" /><glyph d="M290 -12Q173 -12 101.5 51.5Q30 115 30 220Q30 353 111.5 438.5Q193 524 316 524Q416 524 477.5 466Q539 408 539 313Q539 289 533 256.5Q527 224 523 215H192Q195 167 223 143Q251 119 304 119Q332 119 362.5 131.5Q393 144 418 166L496 60Q459 24 407.5 6Q356 -12 290 -12ZM379 333Q379 367 360.5 384.5Q342 402 307 402Q273 402 246 380Q219 358 205 317H378Q379 321 379 324Q379 327 379 333ZM318 512ZM356 0ZM456 613H210L228 712H474ZM318 512Z" glyph-name="emacron" horiz-adv-x="565" unicode="&#275;" /><glyph d="M46 192 68 322H865L843 192Z" glyph-name="emdash" horiz-adv-x="911" unicode="&#8212;" /><glyph d="M46 192 68 322H525L503 192Z" glyph-name="endash" horiz-adv-x="571" unicode="&#8211;" /><glyph d="M304 119Q332 119 362.5 131.5Q393 144 418 166L496 60Q480 47 460 34Q440 21 412 6Q358 -23 341 -46Q324 -69 324 -101Q324 -129 341 -144Q358 -159 389 -159Q395 -159 401 -158.5Q407 -158 413 -156L400 -230Q387 -234 373 -236Q359 -238 343 -238Q283 -238 249 -209Q215 -180 215 -130Q215 -94 235 -64Q255 -34 294 -12H290Q173 -12 101.5 51.5Q30 115 30 220Q30 354 110.5 439Q191 524 316 524Q414 524 476.5 465.5Q539 407 539 313Q539 289 533 256.5Q527 224 523 215H192Q195 167 223 143Q251 119 304 119ZM379 333Q379 367 360.5 384.5Q342 402 307 402Q273 402 246 380Q219 358 205 317H378Q379 320 379 323Q379 326 379 333Z" glyph-name="eogonek" horiz-adv-x="565" unicode="&#281;" /><glyph d="M76 165V295H546V165ZM76 405V535H546V405Z" glyph-name="equal" horiz-adv-x="600" unicode="=" /><glyph d="M428 65Q497 65 557 99Q617 133 657 194L718 139Q667 68 590 28Q513 -12 426 -12Q277 -12 171.5 94Q66 200 66 350Q66 500 171.5 606Q277 712 426 712Q588 712 687 603Q786 494 786 308H253V130Q291 98 336 81.5Q381 65 428 65ZM426 632Q378 632 333.5 616Q289 600 253 570V389H595V575Q560 603 517 617.5Q474 632 426 632Z" glyph-name="estimated" horiz-adv-x="807" unicode="&#8494;" /><glyph d="M334 539 293 603 336 630Q325 643 312.5 656.5Q300 670 285 685L407 756Q412 751 423.5 739Q435 727 453 708L504 740L546 677L499 648Q546 583 568.5 516.5Q591 450 591 377Q591 200 510.5 94Q430 -12 291 -12Q172 -12 101.5 51.5Q31 115 31 221Q31 345 102.5 427.5Q174 510 279 510Q339 510 384.5 485.5Q430 461 455 416Q446 451 427.5 489.5Q409 528 382 569ZM317 385Q266 385 233 341Q200 297 200 228Q200 181 224.5 153.5Q249 126 293 126Q345 126 378 170.5Q411 215 411 283Q411 330 385.5 357.5Q360 385 317 385Z" glyph-name="eth" horiz-adv-x="614" unicode="&#240;" /><glyph d="M79 230 131 700H316L204 230ZM23 82Q23 43 51.5 16Q80 -11 121 -11Q162 -11 191 15.5Q220 42 220 82Q220 120 191 146.5Q162 173 121 173Q80 173 51.5 146.5Q23 120 23 82Z" glyph-name="exclam" horiz-adv-x="298" unicode="!" /><glyph d="M212 283 160 -187H-25L87 283ZM268 431Q268 470 239.5 497Q211 524 170 524Q129 524 100 497.5Q71 471 71 431Q71 393 100 366.5Q129 340 170 340Q211 340 239.5 366.5Q268 393 268 431Z" glyph-name="exclamdown" horiz-adv-x="285" unicode="&#161;" /><glyph d="M46 382 69 512H148L157 564Q171 647 229 694.5Q287 742 380 742Q417 742 449.5 736Q482 730 512 718L462 589Q441 596 424 599.5Q407 603 396 603Q363 603 345.5 588.5Q328 574 321 538L316 512H437L414 382H294L227 0H59L125 382Z" glyph-name="f" horiz-adv-x="405" unicode="f" /><glyph d="M46 382 69 512H148L157 564Q171 647 229 694.5Q287 742 380 742Q417 742 449.5 736Q482 730 512 718L462 589Q441 596 424 599.5Q407 603 396 603Q363 603 345.5 588.5Q328 574 321 538L316 512H437L414 382H294L227 0H59L125 382ZM451 382 474 512H553L562 564Q576 647 634 694.5Q692 742 785 742Q822 742 854.5 736Q887 730 917 718L867 589Q846 596 829 599.5Q812 603 801 603Q768 603 750.5 588.5Q733 574 726 538L721 512H842L819 382H699L632 0H464L530 382Z" glyph-name="f_f" horiz-adv-x="810" unicode="&#64256;" /><glyph d="M46 382 69 512H148L157 564Q171 647 229 694.5Q287 742 380 742Q417 742 449.5 736Q482 730 512 718L462 589Q441 596 424 599.5Q407 603 396 603Q363 603 345.5 588.5Q328 574 321 538L316 512H437L414 382H294L227 0H59L125 382ZM451 382 474 512H553L562 564Q576 647 634 694.5Q692 742 785 742Q822 742 854.5 736Q887 730 917 718L867 589Q846 596 829 599.5Q812 603 801 603Q768 603 750.5 588.5Q733 574 726 538L721 512H842L819 382H699L632 0H464L530 382ZM823 0 913 512H1081L991 0ZM1121 659Q1121 699 1093.5 725.5Q1066 752 1023 752Q981 752 953.5 725.5Q926 699 926 659Q926 620 953.5 593.5Q981 567 1023 567Q1066 567 1093.5 593.5Q1121 620 1121 659ZM936 0Z" glyph-name="f_f_i" horiz-adv-x="1093" unicode="&#64259;" /><glyph d="M46 382 69 512H148L157 564Q171 647 229 694.5Q287 742 380 742Q417 742 449.5 736Q482 730 512 718L462 589Q441 596 424 599.5Q407 603 396 603Q363 603 345.5 588.5Q328 574 321 538L316 512H437L414 382H294L227 0H59L125 382ZM451 382 474 512H553L562 564Q576 647 634 694.5Q692 742 785 742Q822 742 854.5 736Q887 730 917 718L867 589Q846 596 829 599.5Q812 603 801 603Q768 603 750.5 588.5Q733 574 726 538L721 512H842L819 382H699L632 0H464L530 382ZM823 0 951 730H1119L991 0ZM907 0ZM1035 730ZM1161 700ZM1119 350Z" glyph-name="f_f_l" horiz-adv-x="1093" unicode="&#64260;" /><glyph d="M46 382 69 512H148L157 564Q171 647 229 694.5Q287 742 380 742Q417 742 449.5 736Q482 730 512 718L462 589Q441 596 424 599.5Q407 603 396 603Q363 603 345.5 588.5Q328 574 321 538L316 512H437L414 382H294L227 0H59L125 382ZM418 0 508 512H676L586 0ZM716 659Q716 699 688.5 725.5Q661 752 618 752Q576 752 548.5 725.5Q521 699 521 659Q521 620 548.5 593.5Q576 567 618 567Q661 567 688.5 593.5Q716 620 716 659ZM531 0Z" glyph-name="fi" horiz-adv-x="688" unicode="&#64257;" /><glyph d="M358 458Q460 458 521 401Q582 344 582 257Q582 139 503.5 63.5Q425 -12 298 -12Q192 -12 115 33Q38 78 10 162L152 238Q170 183 205 157Q240 131 294 131Q347 131 376 159.5Q405 188 405 242Q405 281 379.5 303Q354 325 308 325Q278 325 250 315Q222 305 203 286L81 344L190 700H613L588 555H297L258 437Q281 448 305.5 453Q330 458 358 458Z" glyph-name="five" horiz-adv-x="618" unicode="5" /><glyph d="M180 231Q234 231 266 202.5Q298 174 298 130Q298 73 255 33.5Q212 -6 146 -6Q84 -6 44.5 15Q5 36 -18 78L74 130Q83 109 99 100Q115 91 139 91Q155 91 164.5 99.5Q174 108 174 123Q174 136 165 143Q156 150 138 150Q128 150 119 147.5Q110 145 105 140L23 174L75 350H316L299 256H148L138 224Q149 228 159 229.5Q169 231 180 231Z" glyph-name="five.denominator" horiz-adv-x="343" unicode="&#63066;" /><glyph d="M155 91Q209 91 241 62.5Q273 34 273 -10Q273 -67 230 -106.5Q187 -146 121 -146Q59 -146 19.5 -125Q-20 -104 -43 -62L49 -10Q58 -31 74 -40Q90 -49 114 -49Q130 -49 139.5 -40.5Q149 -32 149 -17Q149 -4 140 3Q131 10 113 10Q103 10 94 7.5Q85 5 80 0L-2 34L50 210H291L274 116H123L113 84Q124 88 134 89.5Q144 91 155 91Z" glyph-name="five.inferior" horiz-adv-x="343" unicode="&#8325;" /><glyph d="M241 581Q295 581 327 552.5Q359 524 359 480Q359 423 316 383.5Q273 344 207 344Q145 344 105.5 365Q66 386 43 428L135 480Q144 459 160 450Q176 441 200 441Q216 441 225.5 449.5Q235 458 235 473Q235 486 226 493Q217 500 199 500Q189 500 180 497.5Q171 495 166 490L84 524L136 700H377L360 606H209L199 574Q210 578 220 579.5Q230 581 241 581Z" glyph-name="five.numerator" horiz-adv-x="343" unicode="&#63078;" /><glyph d="M266 721Q320 721 352 692.5Q384 664 384 620Q384 563 341 523.5Q298 484 232 484Q170 484 130.5 505Q91 526 68 568L160 620Q169 599 185 590Q201 581 225 581Q241 581 250.5 589.5Q260 598 260 613Q260 626 251 633Q242 640 224 640Q214 640 205 637.5Q196 635 191 630L109 664L161 840H402L385 746H234L224 714Q235 718 245 719.5Q255 721 266 721Z" glyph-name="five.superior" horiz-adv-x="343" unicode="&#8309;" /><glyph d="M369 458Q471 458 532 401Q593 344 593 257Q593 139 514.5 63.5Q436 -12 309 -12Q203 -12 126 33Q49 78 21 162L163 238Q181 183 216 157Q251 131 305 131Q358 131 387 159.5Q416 188 416 242Q416 281 390.5 303Q365 325 319 325Q289 325 261 315Q233 305 214 286L92 344L201 700H624L599 555H308L269 437Q292 448 316.5 453Q341 458 369 458Z" glyph-name="five.tab" horiz-adv-x="640" unicode="&#65301;" /><glyph d="M46 382 69 512H148L157 564Q171 647 229 694.5Q287 742 380 742Q417 742 449.5 736Q482 730 512 718L462 589Q441 596 424 599.5Q407 603 396 603Q363 603 345.5 588.5Q328 574 321 538L316 512H437L414 382H294L227 0H59L125 382ZM418 0 546 730H714L586 0ZM502 0ZM630 730ZM756 700ZM714 350Z" glyph-name="fl" horiz-adv-x="688" unicode="&#64258;" /><glyph d="M318 312 254 -52Q239 -135 181.5 -182.5Q124 -230 31 -230Q-6 -230 -38.5 -224Q-71 -218 -101 -206L-51 -77Q-30 -84 -13 -87.5Q4 -91 15 -91Q48 -91 66 -76.5Q84 -62 90 -26L149 312H46L66 422H168L193 564Q208 647 265.5 694.5Q323 742 416 742Q453 742 485.5 736Q518 730 548 718L498 589Q477 596 460 599.5Q443 603 432 603Q399 603 381 588.5Q363 574 357 538L337 422H450L430 312Z" glyph-name="florin" horiz-adv-x="474" /><glyph d="M390 279 410 387 595 449 565 279H645L620 137H540L516 0H341L365 137H1L25 265L369 700H581L242 279Z" glyph-name="four" horiz-adv-x="664" unicode="4" /><glyph d="M184 152 190 188 314 231 300 152H339L322 56H283L273 0H157L167 56H-20L-4 149L167 350H304L133 152Z" glyph-name="four.denominator" horiz-adv-x="373" unicode="&#63065;" /><glyph d="M160 12 166 48 290 91 276 12H315L298 -84H259L249 -140H133L143 -84H-44L-28 9L143 210H280L109 12Z" glyph-name="four.inferior" horiz-adv-x="373" unicode="&#8324;" /><glyph d="M246 502 252 538 376 581 362 502H401L384 406H345L335 350H219L229 406H42L58 499L229 700H366L195 502Z" glyph-name="four.numerator" horiz-adv-x="373" unicode="&#63077;" /><glyph d="M271 642 277 678 401 721 387 642H426L409 546H370L360 490H244L254 546H67L83 639L254 840H391L220 642Z" glyph-name="four.superior" horiz-adv-x="373" unicode="&#8308;" /><glyph d="M378 279 398 387 583 449 553 279H633L608 137H528L504 0H329L353 137H-11L13 265L357 700H569L230 279Z" glyph-name="four.tab" horiz-adv-x="640" unicode="&#65300;" /><glyph d="M-50 0H-166L241 700H357Z" glyph-name="fraction" horiz-adv-x="160" unicode="&#8260;" /><glyph d="M37 0 160 700H616L591 555H310L282 398H533L509 259H258L212 0ZM518 0 608 512H766L754 439Q779 478 812.5 497.5Q846 517 888 517Q900 517 911 516Q922 515 936 512L905 367Q893 370 885 371Q877 372 869 372Q812 372 774.5 330.5Q737 289 723 209L686 0Z" glyph-name="franc" horiz-adv-x="923" unicode="&#8355;" /><glyph d="M251 18Q155 18 97 78.5Q39 139 39 233Q39 360 111.5 442Q184 524 293 524Q348 524 389.5 501.5Q431 479 456 437L469 512H627L544 38Q520 -101 450.5 -165.5Q381 -230 260 -230Q175 -230 104.5 -203.5Q34 -177 -26 -123L62 -9Q102 -48 153 -71.5Q204 -95 253 -95Q306 -95 335 -66Q364 -37 376 40L379 59Q352 39 319.5 28.5Q287 18 251 18ZM209 248Q209 207 234.5 180Q260 153 299 153Q350 153 384 191Q418 229 418 287Q418 333 390.5 360.5Q363 388 317 388Q272 388 240.5 347.5Q209 307 209 248ZM335 512Z" glyph-name="g" horiz-adv-x="639" unicode="g" /><glyph d="M251 18Q155 18 97 78.5Q39 139 39 233Q39 360 111.5 442Q184 524 293 524Q348 524 389.5 501.5Q431 479 456 437L469 512H627L544 38Q520 -101 450.5 -165.5Q381 -230 260 -230Q175 -230 104.5 -203.5Q34 -177 -26 -123L62 -9Q102 -48 153 -71.5Q204 -95 253 -95Q306 -95 335 -66Q364 -37 376 40L379 59Q352 39 319.5 28.5Q287 18 251 18ZM209 248Q209 207 234.5 180Q260 153 299 153Q350 153 384 191Q418 229 418 287Q418 333 390.5 360.5Q363 388 317 388Q272 388 240.5 347.5Q209 307 209 248ZM335 512ZM348 675Q371 675 382 690.5Q393 706 393 740H505Q505 670 462.5 627.5Q420 585 342 585Q266 585 226 630Q186 675 195 740H309Q304 708 314 691.5Q324 675 348 675ZM335 512Z" glyph-name="gbreve" horiz-adv-x="639" unicode="&#287;" /><glyph d="M251 18Q155 18 97 78.5Q39 139 39 233Q39 360 111.5 442Q184 524 293 524Q348 524 389.5 501.5Q431 479 456 437L469 512H627L544 38Q520 -101 450.5 -165.5Q381 -230 260 -230Q175 -230 104.5 -203.5Q34 -177 -26 -123L62 -9Q102 -48 153 -71.5Q204 -95 253 -95Q306 -95 335 -66Q364 -37 376 40L379 59Q352 39 319.5 28.5Q287 18 251 18ZM209 248Q209 207 234.5 180Q260 153 299 153Q350 153 384 191Q418 229 418 287Q418 333 390.5 360.5Q363 388 317 388Q272 388 240.5 347.5Q209 307 209 248ZM335 512ZM144 587 264 740H445L537 587H403L347 661L278 587ZM335 512Z" glyph-name="gcircumflex" horiz-adv-x="639" unicode="&#285;" /><glyph d="M251 18Q155 18 97 78.5Q39 139 39 233Q39 360 111.5 442Q184 524 293 524Q348 524 389.5 501.5Q431 479 456 437L469 512H627L544 38Q520 -101 450.5 -165.5Q381 -230 260 -230Q175 -230 104.5 -203.5Q34 -177 -26 -123L62 -9Q102 -48 153 -71.5Q204 -95 253 -95Q306 -95 335 -66Q364 -37 376 40L379 59Q352 39 319.5 28.5Q287 18 251 18ZM209 248Q209 207 234.5 180Q260 153 299 153Q350 153 384 191Q418 229 418 287Q418 333 390.5 360.5Q363 388 317 388Q272 388 240.5 347.5Q209 307 209 248ZM335 512ZM262 663Q262 626 289.5 600.5Q317 575 355 575Q394 575 421.5 600.5Q449 626 449 663Q449 699 421.5 724Q394 749 355 749Q317 749 289.5 724Q262 699 262 663ZM335 512Z" glyph-name="gdotaccent" horiz-adv-x="639" unicode="&#289;" /><glyph d="M180 0H13L105 528Q122 625 191.5 683.5Q261 742 368 742Q472 742 532.5 694Q593 646 593 568Q593 509 558.5 460.5Q524 412 465 387Q514 369 542.5 327Q571 285 571 232Q571 120 492.5 60Q414 0 272 0H242L266 137H286Q340 137 370.5 165Q401 193 401 243Q401 277 382 296Q363 315 328 315H296L320 450H339Q380 450 403.5 474Q427 498 427 541Q427 570 409 586.5Q391 603 359 603Q323 603 301 579.5Q279 556 270 507Z" glyph-name="germandbls" horiz-adv-x="609" unicode="&#223;" /><glyph d="M315 587 238 740H87L182 587ZM248 512Z" glyph-name="grave" horiz-adv-x="401" unicode="`" /><glyph d="M315 787 238 940H87L182 787ZM235 700Z" glyph-name="grave.case" horiz-adv-x="401" /><glyph d="M560 395V255L110 45V211L353 321L110 431V605Z" glyph-name="greater" horiz-adv-x="600" unicode="&gt;" /><glyph d="M546 355V495L96 685V519L316 429L96 339V165ZM546 0V130H96V0Z" glyph-name="greaterequal" horiz-adv-x="600" unicode="&#8805;" /><glyph d="M46 312 303 483 275 323 140 238 245 156 219 9 22 179ZM283 312 540 483 512 323 377 238 482 156 456 9 259 179Z" glyph-name="guillemotleft" horiz-adv-x="552" /><glyph d="M502 180 245 9 273 169 408 254 303 336 329 483 526 313ZM265 180 8 9 36 169 171 254 66 336 92 483 289 313Z" glyph-name="guillemotright" horiz-adv-x="551" /><glyph d="M47 312 304 483 276 323 141 238 246 156 220 9 23 179Z" glyph-name="guilsinglleft" horiz-adv-x="317" unicode="&#8249;" /><glyph d="M266 180 9 9 37 169 172 254 67 336 93 483 290 313Z" glyph-name="guilsinglright" horiz-adv-x="316" unicode="&#8250;" /><glyph d="M562 322 506 0H337L389 303Q396 342 380 363.5Q364 385 326 385Q290 385 265 360.5Q240 336 233 294L181 0H13L141 730H309L262 464Q289 494 323 509Q357 524 396 524Q482 524 529.5 466Q577 408 562 322ZM225 730Z" glyph-name="h" horiz-adv-x="602" unicode="h" /><glyph d="M562 322 506 0H337L389 303Q395 343 379 364Q363 385 326 385Q290 385 265.5 360.5Q241 336 233 294L181 0H13L112 562H54L74 672H131L141 730H309L299 672H423L403 562H279L262 464Q289 494 323 509Q357 524 396 524Q481 524 529 466Q577 408 562 322Z" glyph-name="hbar" horiz-adv-x="602" unicode="&#295;" /><glyph d="M562 322 506 0H337L389 303Q396 342 380 363.5Q364 385 326 385Q290 385 265 360.5Q240 336 233 294L181 0H13L141 730H309L262 464Q289 494 323 509Q357 524 396 524Q482 524 529.5 466Q577 408 562 322ZM225 730ZM34 805 154 958H335L427 805H293L237 879L168 805ZM225 730Z" glyph-name="hcircumflex" horiz-adv-x="602" unicode="&#293;" /><glyph d="M238 740H86L-19 587H111ZM448 740H290L155 587H289ZM126 512Z" glyph-name="hungarumlaut" horiz-adv-x="436" unicode="&#733;" /><glyph d="M238 940H86L-19 787H111ZM448 940H290L155 787H289ZM146 700Z" glyph-name="hungarumlaut.case" horiz-adv-x="436" /><glyph d="M44 189 68 324H343L319 189Z" glyph-name="hyphen" horiz-adv-x="387" unicode="-" /><glyph d="M13 0 103 512H271L181 0ZM311 659Q311 699 283.5 725.5Q256 752 213 752Q171 752 143.5 725.5Q116 699 116 659Q116 620 143.5 593.5Q171 567 213 567Q256 567 283.5 593.5Q311 620 311 659ZM126 0Z" glyph-name="i" horiz-adv-x="283" unicode="i" /><glyph d="M13 0 103 512H271L181 0ZM187 512ZM392 740H234L129 587H269ZM197 512Z" glyph-name="iacute" horiz-adv-x="283" unicode="&#237;" /><glyph d="M13 0 103 512H271L181 0ZM187 512ZM-4 587 116 740H297L389 587H255L199 661L130 587ZM187 512Z" glyph-name="icircumflex" horiz-adv-x="283" unicode="&#238;" /><glyph d="M13 0 103 512H271L181 0ZM187 512ZM35 663Q35 631 57 608.5Q79 586 111 586Q143 586 166 608.5Q189 631 189 663Q189 695 166 718Q143 741 111 741Q80 741 57.5 718Q35 695 35 663ZM229 663Q229 631 251.5 608.5Q274 586 306 586Q338 586 360.5 608.5Q383 631 383 663Q383 695 360 718Q337 741 306 741Q274 741 251.5 718Q229 695 229 663ZM187 512Z" glyph-name="idieresis" horiz-adv-x="283" unicode="&#239;" /><glyph d="M13 0 103 512H271L181 0ZM187 512ZM254 587 177 740H26L121 587ZM187 512Z" glyph-name="igrave" horiz-adv-x="283" unicode="&#236;" /><glyph d="M13 0 103 512H271L181 0ZM311 659Q311 699 283.5 725.5Q256 752 213 752Q171 752 143.5 725.5Q116 699 116 659Q116 620 143.5 593.5Q171 567 213 567Q256 567 283.5 593.5Q311 620 311 659ZM126 0ZM595 659Q595 699 567.5 725.5Q540 752 497 752Q455 752 427.5 725.5Q400 699 400 659Q400 620 427.5 593.5Q455 567 497 567Q540 567 567.5 593.5Q595 620 595 659ZM389 512H557L460 -44Q444 -136 391.5 -183Q339 -230 253 -230Q217 -230 191.5 -227Q166 -224 144 -218L185 -75Q196 -78 207 -80Q218 -82 227 -82Q259 -82 274.5 -68.5Q290 -55 297 -18Z" glyph-name="ij" horiz-adv-x="569" unicode="&#307;" /><glyph d="M13 0 103 512H271L181 0ZM187 512ZM325 613H79L97 712H343ZM187 512Z" glyph-name="imacron" horiz-adv-x="283" unicode="&#299;" /><glyph d="M613 448Q693 448 742.5 396Q792 344 792 260Q792 176 742.5 124Q693 72 613 72Q564 72 517 97Q470 122 413 180Q361 122 316.5 97Q272 72 223 72Q143 72 93.5 124Q44 176 44 260Q44 344 93.5 396Q143 448 223 448Q273 448 321 422.5Q369 397 421 342Q474 398 519.5 423Q565 448 613 448ZM669 260Q669 287 653 303Q637 319 610 319Q582 319 553.5 305.5Q525 292 493 264Q524 232 553 216.5Q582 201 610 201Q637 201 653 217Q669 233 669 260ZM226 319Q199 319 183 303Q167 287 167 260Q167 233 183 217Q199 201 226 201Q254 201 282 214.5Q310 228 342 257Q310 289 281.5 304Q253 319 226 319Z" glyph-name="infinity" horiz-adv-x="835" unicode="&#8734;" /><glyph d="M277 534V-28Q277 -119 224.5 -174.5Q172 -230 78 -230Q44 -230 13.5 -224.5Q-17 -219 -49 -207L-19 -78Q2 -84 18 -87Q34 -90 45 -90Q79 -90 94 -74.5Q109 -59 109 -22V540Q109 631 161.5 686.5Q214 742 308 742Q342 742 372.5 736.5Q403 731 435 719L405 590Q384 596 368 599Q352 602 341 602Q307 602 292 586.5Q277 571 277 534Z" glyph-name="integral" horiz-adv-x="386" unicode="&#8747;" /><glyph d="M116 659Q116 699 143.5 725.5Q171 752 213 752Q256 752 283.5 725.5Q311 699 311 659Q311 620 283.5 593.5Q256 567 213 567Q171 567 143.5 593.5Q116 620 116 659ZM103 512H271L181 0H86Q54 -22 38 -47.5Q22 -73 22 -102Q22 -128 37 -141.5Q52 -155 79 -155Q87 -155 96 -154Q105 -153 116 -150L102 -224Q85 -231 67 -234.5Q49 -238 25 -238Q-23 -238 -52.5 -211.5Q-82 -185 -82 -140Q-82 -98 -58 -62Q-34 -26 13 0Z" glyph-name="iogonek" horiz-adv-x="283" unicode="&#303;" /><glyph d="M13 0 103 512H271L181 0ZM187 512ZM208 607Q236 595 251 591Q266 587 281 587Q326 587 350 627Q374 667 369 728H276Q275 713 271 707.5Q267 702 256 702Q247 702 236 705Q225 708 202 717Q173 730 156 734Q139 738 123 738Q75 738 44.5 695Q14 652 20 597H115Q118 611 125.5 618Q133 625 147 625Q159 625 171.5 621.5Q184 618 208 607ZM187 512Z" glyph-name="itilde" horiz-adv-x="283" unicode="&#297;" /><glyph d="M312 659Q312 699 284.5 725.5Q257 752 214 752Q172 752 144.5 725.5Q117 699 117 659Q117 620 144.5 593.5Q172 567 214 567Q257 567 284.5 593.5Q312 620 312 659ZM106 512H274L177 -44Q161 -136 108.5 -183Q56 -230 -30 -230Q-66 -230 -91.5 -227Q-117 -224 -139 -218L-98 -75Q-87 -78 -76 -80Q-65 -82 -56 -82Q-24 -82 -8.5 -68.5Q7 -55 14 -18Z" glyph-name="j" horiz-adv-x="286" unicode="j" /><glyph d="M14 -18 106 512H274L177 -44Q161 -136 108.5 -183Q56 -230 -30 -230Q-66 -230 -91.5 -227Q-117 -224 -139 -218L-98 -75Q-87 -78 -76 -80Q-65 -82 -56 -82Q-24 -82 -8.5 -68.5Q7 -55 14 -18ZM190 512ZM2 587 122 740H303L395 587H261L205 661L136 587ZM193 512Z" glyph-name="jcircumflex" horiz-adv-x="286" unicode="&#309;" /><glyph d="M389 307 536 0H354L261 206L209 160L181 0H13L141 730H309L245 362L409 512H623ZM262 0Z" glyph-name="k" horiz-adv-x="578" unicode="k" /><glyph d="M13 0 103 512H271L245 362L409 512H623L389 307L536 0H354L261 207L209 162L181 0Z" glyph-name="kgreenlandic" horiz-adv-x="578" /><glyph d="M13 0 141 730H309L181 0ZM97 0ZM225 730ZM351 700ZM309 350Z" glyph-name="l" horiz-adv-x="283" unicode="l" /><glyph d="M13 0 141 730H309L181 0ZM97 0ZM225 730ZM351 700ZM309 350ZM430 958H272L167 805H307ZM235 730Z" glyph-name="lacute" horiz-adv-x="283" unicode="&#314;" /><glyph d="M13 0 141 730H309L181 0ZM97 0ZM225 730ZM351 700ZM309 350ZM513 730H377L337 546H438ZM351 700Z" glyph-name="lcaron" horiz-adv-x="303" unicode="&#318;" /><glyph d="M13 0 141 730H309L181 0ZM97 0ZM225 730ZM351 700ZM309 350ZM276 360Q276 319 306 290.5Q336 262 379 262Q422 262 452.5 290.5Q483 319 483 360Q483 401 453 428.5Q423 456 379 456Q336 456 306 428Q276 400 276 360ZM300 358Z" glyph-name="ldot" horiz-adv-x="439" unicode="&#320;" /><glyph d="M66 255V395L516 605V439L273 329L516 219V45Z" glyph-name="less" horiz-adv-x="600" unicode="&lt;" /><glyph d="M74 355V495L524 685V519L304 429L524 339V165ZM74 0V130H524V0Z" glyph-name="lessequal" horiz-adv-x="600" unicode="&#8804;" /><glyph d="M13 0 141 730H309L181 0ZM97 0ZM225 730ZM351 700ZM309 350ZM276 360Q276 319 306 290.5Q336 262 379 262Q422 262 452.5 290.5Q483 319 483 360Q483 401 453 428.5Q423 456 379 456Q336 456 306 428Q276 400 276 360ZM300 358ZM453 0 581 730H749L621 0ZM537 0ZM665 730ZM791 700ZM749 350Z" glyph-name="lgeminada" horiz-adv-x="723" /><glyph d="M531 115H401V285H61V415H531Z" glyph-name="logicalnot" horiz-adv-x="600" unicode="&#172;" /><glyph d="M46 382 69 512H148L157 564Q171 647 229 694.5Q287 742 380 742Q417 742 449.5 736Q482 730 512 718L462 589Q441 596 424 599.5Q407 603 396 603Q363 603 345 588.5Q327 574 321 538L227 0H59L125 382Z" glyph-name="longs" horiz-adv-x="349" unicode="&#383;" /><glyph d="M46 382 69 512H148L157 564Q171 647 229 694.5Q287 742 380 742Q417 742 449.5 736Q482 730 512 718L462 589Q441 596 424 599.5Q407 603 396 603Q363 603 345 588.5Q327 574 321 538L227 0H59L125 382ZM466 382H387L410 512H489L512 643L690 700L657 512H788L765 382H634L600 186Q595 155 606 142Q617 129 648 129Q669 129 687.5 133Q706 137 731 147L751 21Q717 5 680.5 -3.5Q644 -12 607 -12Q510 -12 462.5 36.5Q415 85 428 163ZM574 10ZM502 0ZM744 740Z" glyph-name="longs_t" horiz-adv-x="790" unicode="&#64261;" /><glyph d="M276 0 50 364 280 700H391L621 364L395 0ZM336 526 224 363 336 182 447 363Z" glyph-name="lozenge" horiz-adv-x="633" unicode="&#9674;" /><glyph d="M74 215 24 319 157 388 217 730H385L342 483L397 512L446 409L317 342L257 0H89L132 245Z" glyph-name="lslash" horiz-adv-x="415" unicode="&#322;" /><glyph d="M541 287 491 0H322L374 303Q381 342 367 363.5Q353 385 320 385Q286 385 263 360Q240 335 232 288L181 0H13L103 512H261L250 448Q277 486 312.5 505Q348 524 390 524Q441 524 480 499.5Q519 475 537 431Q565 476 606.5 500Q648 524 699 524Q780 524 825.5 466Q871 408 856 322L800 0H631L683 303Q690 342 676 363.5Q662 385 629 385Q595 385 572 360Q549 335 541 287Z" glyph-name="m" horiz-adv-x="896" unicode="m" /><glyph d="M315 613H69L87 712H333ZM177 512Z" glyph-name="macron" horiz-adv-x="400" unicode="&#175;" /><glyph d="M315 813H69L87 912H333ZM180 700Z" glyph-name="macron.case" horiz-adv-x="400" /><glyph d="M80 285V415H550V285Z" glyph-name="minus" horiz-adv-x="600" unicode="&#8722;" /><glyph d="M585 512 495 0H337L348 63Q322 26 286 7Q250 -12 207 -12Q196 -12 185 -11Q174 -10 161 -7L167 -78L142 -218H-26L102 512H271L219 209Q212 168 226.5 147.5Q241 127 277 127Q311 127 334 151.5Q357 176 365 219L417 512Z" glyph-name="mu" horiz-adv-x="597" unicode="&#181;" /><glyph d="M183 124 91 216 225 350 91 484 183 576 317 442 451 576 543 484 409 350 543 216 451 124 317 258Z" glyph-name="multiply" horiz-adv-x="600" unicode="&#215;" /><glyph d="M562 322 506 0H337L389 303Q396 342 380 363.5Q364 385 326 385Q289 385 264.5 359.5Q240 334 232 289L181 0H13L103 512H261L250 449Q277 486 314 505Q351 524 396 524Q482 524 529.5 466Q577 408 562 322ZM349 512ZM259 0ZM114 581Z" glyph-name="n" horiz-adv-x="602" unicode="n" /><glyph d="M562 322 506 0H337L389 303Q396 342 380 363.5Q364 385 326 385Q289 385 264.5 359.5Q240 334 232 289L181 0H13L103 512H261L250 449Q277 486 314 505Q351 524 396 524Q482 524 529.5 466Q577 408 562 322ZM349 512ZM259 0ZM114 581ZM544 740H386L281 587H421ZM349 512Z" glyph-name="nacute" horiz-adv-x="602" unicode="&#324;" /><glyph d="M562 322 506 0H337L389 303Q396 342 380 363.5Q364 385 326 385Q289 385 264.5 359.5Q240 334 232 289L181 0H13L103 512H261L250 449Q277 486 314 505Q351 524 396 524Q482 524 529.5 466Q577 408 562 322ZM349 512ZM259 0ZM114 581ZM232 735H92L32 555H157ZM114 581ZM165 790Z" glyph-name="napostrophe" horiz-adv-x="602" unicode="&#329;" /><glyph d="M562 322 506 0H337L389 303Q396 342 380 363.5Q364 385 326 385Q289 385 264.5 359.5Q240 334 232 289L181 0H13L103 512H261L250 449Q277 486 314 505Q351 524 396 524Q482 524 529.5 466Q577 408 562 322ZM349 512ZM259 0ZM114 581ZM445 587H264L172 740H306L362 666L431 740H565ZM349 512Z" glyph-name="ncaron" horiz-adv-x="602" unicode="&#328;" /><glyph d="M257 250Q170 250 114 304.5Q58 359 58 440Q58 559 140 635.5Q222 712 348 712Q463 712 538 649.5Q613 587 613 492Q613 437 584.5 373Q556 309 502 243L302 0H92L308 256Q295 253 282.5 251.5Q270 250 257 250ZM330 370Q377 370 407.5 404.5Q438 439 438 490Q438 529 412 554Q386 579 344 579Q297 579 265 546.5Q233 514 233 464Q233 421 259 395.5Q285 370 330 370Z" glyph-name="nine" horiz-adv-x="610" unicode="9" /><glyph d="M105 125Q62 125 35 152.5Q8 180 8 222Q8 282 52 319Q96 356 167 356Q231 356 273.5 322.5Q316 289 316 239Q316 208 303 178.5Q290 149 263 117L165 0H23L130 129Q124 127 118 126Q112 125 105 125ZM130 230Q130 216 138 208Q146 200 160 200Q176 200 185 210Q194 220 194 237Q194 251 186 259Q178 267 164 267Q148 267 139 257Q130 247 130 230Z" glyph-name="nine.denominator" horiz-adv-x="341" unicode="&#63070;" /><glyph d="M82 -15Q39 -15 12 12.5Q-15 40 -15 82Q-15 142 29 179Q73 216 144 216Q208 216 250.5 182.5Q293 149 293 99Q293 68 280 38.5Q267 9 240 -23L142 -140H0L107 -11Q101 -13 95 -14Q89 -15 82 -15ZM107 90Q107 76 115 68Q123 60 137 60Q153 60 162 70Q171 80 171 97Q171 111 163 119Q155 127 141 127Q125 127 116 117Q107 107 107 90Z" glyph-name="nine.inferior" horiz-adv-x="341" unicode="&#8329;" /><glyph d="M167 475Q124 475 97 502.5Q70 530 70 572Q70 632 114 669Q158 706 229 706Q293 706 335.5 672.5Q378 639 378 589Q378 558 365 528.5Q352 499 325 467L227 350H85L192 479Q186 477 180 476Q174 475 167 475ZM192 580Q192 566 200 558Q208 550 222 550Q238 550 247 560Q256 570 256 587Q256 601 248 609Q240 617 226 617Q210 617 201 607Q192 597 192 580Z" glyph-name="nine.numerator" horiz-adv-x="341" unicode="&#63082;" /><glyph d="M192 615Q149 615 122 642.5Q95 670 95 712Q95 772 139 809Q183 846 254 846Q318 846 360.5 812.5Q403 779 403 729Q403 698 390 668.5Q377 639 350 607L252 490H110L217 619Q211 617 205 616Q199 615 192 615ZM217 720Q217 706 225 698Q233 690 247 690Q263 690 272 700Q281 710 281 727Q281 741 273 749Q265 757 251 757Q235 757 226 747Q217 737 217 720Z" glyph-name="nine.superior" horiz-adv-x="341" unicode="&#8313;" /><glyph d="M272 250Q185 250 129 304.5Q73 359 73 440Q73 559 155 635.5Q237 712 363 712Q478 712 553 649.5Q628 587 628 492Q628 437 599.5 373Q571 309 517 243L317 0H107L323 256Q310 253 297.5 251.5Q285 250 272 250ZM345 370Q392 370 422.5 404.5Q453 439 453 490Q453 529 427 554Q401 579 359 579Q312 579 280 546.5Q248 514 248 464Q248 421 274 395.5Q300 370 345 370Z" glyph-name="nine.tab" horiz-adv-x="640" unicode="&#65305;" /><glyph d="M240 76H128L169 165H75V295H229L279 405H75V535H339L380 625H492L451 535H545V405H391L341 295H545V165H281Z" glyph-name="notequal" horiz-adv-x="600" unicode="&#8800;" /><glyph d="M562 322 506 0H337L389 303Q396 342 380 363.5Q364 385 326 385Q289 385 264.5 359.5Q240 334 232 289L181 0H13L103 512H261L250 449Q277 486 314 505Q351 524 396 524Q482 524 529.5 466Q577 408 562 322ZM349 512ZM259 0ZM114 581ZM370 607Q398 595 413 591Q428 587 443 587Q488 587 512 627Q536 667 531 728H438Q437 713 433 707.5Q429 702 418 702Q409 702 398 705Q387 708 364 717Q335 730 318 734Q301 738 285 738Q237 738 206.5 695Q176 652 182 597H277Q280 611 287.5 618Q295 625 309 625Q321 625 333.5 621.5Q346 618 370 607ZM349 512Z" glyph-name="ntilde" horiz-adv-x="602" unicode="&#241;" /><glyph d="M257 190 223 0H106L140 190H34L54 306H160L180 418H74L94 534H201L230 700H347L318 534H413L442 700H559L530 534H634L614 418H509L489 306H594L574 190H469L435 0H318L352 190ZM297 418 277 306H372L392 418Z" glyph-name="numbersign" horiz-adv-x="631" unicode="#" /><glyph d="M308 524Q431 524 505.5 453Q580 382 580 266Q580 145 502 66.5Q424 -12 306 -12Q182 -12 107 58.5Q32 129 32 242Q32 365 110.5 444.5Q189 524 308 524ZM410 276Q410 329 384 358Q358 387 310 387Q263 387 232.5 344.5Q202 302 202 235Q202 185 228 155.5Q254 126 300 126Q349 126 379.5 168.5Q410 211 410 276ZM323 512Z" glyph-name="o" horiz-adv-x="612" unicode="o" /><glyph d="M308 524Q431 524 505.5 453Q580 382 580 266Q580 145 502 66.5Q424 -12 306 -12Q182 -12 107 58.5Q32 129 32 242Q32 365 110.5 444.5Q189 524 308 524ZM410 276Q410 329 384 358Q358 387 310 387Q263 387 232.5 344.5Q202 302 202 235Q202 185 228 155.5Q254 126 300 126Q349 126 379.5 168.5Q410 211 410 276ZM323 512ZM518 740H360L255 587H395ZM323 512Z" glyph-name="oacute" horiz-adv-x="612" unicode="&#243;" /><glyph d="M308 524Q431 524 505.5 453Q580 382 580 266Q580 145 502 66.5Q424 -12 306 -12Q182 -12 107 58.5Q32 129 32 242Q32 365 110.5 444.5Q189 524 308 524ZM410 276Q410 329 384 358Q358 387 310 387Q263 387 232.5 344.5Q202 302 202 235Q202 185 228 155.5Q254 126 300 126Q349 126 379.5 168.5Q410 211 410 276ZM323 512ZM336 675Q359 675 370 690.5Q381 706 381 740H493Q493 670 450.5 627.5Q408 585 330 585Q254 585 214 630Q174 675 183 740H297Q292 708 302 691.5Q312 675 336 675ZM323 512Z" glyph-name="obreve" horiz-adv-x="612" unicode="&#335;" /><glyph d="M308 524Q431 524 505.5 453Q580 382 580 266Q580 145 502 66.5Q424 -12 306 -12Q182 -12 107 58.5Q32 129 32 242Q32 365 110.5 444.5Q189 524 308 524ZM410 276Q410 329 384 358Q358 387 310 387Q263 387 232.5 344.5Q202 302 202 235Q202 185 228 155.5Q254 126 300 126Q349 126 379.5 168.5Q410 211 410 276ZM323 512ZM132 587 252 740H433L525 587H391L335 661L266 587ZM323 512Z" glyph-name="ocircumflex" horiz-adv-x="612" unicode="&#244;" /><glyph d="M308 524Q431 524 505.5 453Q580 382 580 266Q580 145 502 66.5Q424 -12 306 -12Q182 -12 107 58.5Q32 129 32 242Q32 365 110.5 444.5Q189 524 308 524ZM410 276Q410 329 384 358Q358 387 310 387Q263 387 232.5 344.5Q202 302 202 235Q202 185 228 155.5Q254 126 300 126Q349 126 379.5 168.5Q410 211 410 276ZM323 512ZM171 663Q171 631 193 608.5Q215 586 247 586Q279 586 302 608.5Q325 631 325 663Q325 695 302 718Q279 741 247 741Q216 741 193.5 718Q171 695 171 663ZM365 663Q365 631 387.5 608.5Q410 586 442 586Q474 586 496.5 608.5Q519 631 519 663Q519 695 496 718Q473 741 442 741Q410 741 387.5 718Q365 695 365 663ZM323 512Z" glyph-name="odieresis" horiz-adv-x="612" unicode="&#246;" /><glyph d="M686 -12Q621 -12 570 10.5Q519 33 489 74Q455 33 405 10.5Q355 -12 297 -12Q177 -12 105 58.5Q33 129 33 242Q33 365 109 444.5Q185 524 299 524Q367 524 421 498.5Q475 473 507 426Q542 473 595.5 498.5Q649 524 712 524Q806 524 865.5 465.5Q925 407 925 313Q925 289 919 256.5Q913 224 909 215H578Q581 167 609 143Q637 119 690 119Q718 119 748.5 131.5Q779 144 804 166L882 60Q844 24 795.5 6Q747 -12 686 -12ZM765 333Q765 367 746.5 384.5Q728 402 693 402Q659 402 632 380Q605 358 591 317H764Q765 320 765 323Q765 326 765 333ZM411 276Q411 329 385 358Q359 387 311 387Q264 387 233.5 344.5Q203 302 203 235Q203 185 229 155.5Q255 126 301 126Q350 126 380.5 168.5Q411 211 411 276Z" glyph-name="oe" horiz-adv-x="951" unicode="&#339;" /><glyph d="M227 -238Q179 -238 149.5 -211.5Q120 -185 120 -140Q120 -98 144 -62Q168 -26 215 0H288Q256 -22 240 -47.5Q224 -73 224 -102Q224 -128 239 -141.5Q254 -155 281 -155Q289 -155 298 -154Q307 -153 318 -150L304 -224Q287 -231 269 -234.5Q251 -238 227 -238ZM249 0Z" glyph-name="ogonek" horiz-adv-x="401" unicode="&#731;" /><glyph d="M308 524Q431 524 505.5 453Q580 382 580 266Q580 145 502 66.5Q424 -12 306 -12Q182 -12 107 58.5Q32 129 32 242Q32 365 110.5 444.5Q189 524 308 524ZM410 276Q410 329 384 358Q358 387 310 387Q263 387 232.5 344.5Q202 302 202 235Q202 185 228 155.5Q254 126 300 126Q349 126 379.5 168.5Q410 211 410 276ZM323 512ZM390 587 313 740H162L257 587ZM323 512Z" glyph-name="ograve" horiz-adv-x="612" unicode="&#242;" /><glyph d="M308 524Q431 524 505.5 453Q580 382 580 266Q580 145 502 66.5Q424 -12 306 -12Q182 -12 107 58.5Q32 129 32 242Q32 365 110.5 444.5Q189 524 308 524ZM410 276Q410 329 384 358Q358 387 310 387Q263 387 232.5 344.5Q202 302 202 235Q202 185 228 155.5Q254 126 300 126Q349 126 379.5 168.5Q410 211 410 276ZM323 512ZM435 740H283L178 587H308ZM645 740H487L352 587H486ZM323 512Z" glyph-name="ohungarumlaut" horiz-adv-x="612" unicode="&#337;" /><glyph d="M308 524Q431 524 505.5 453Q580 382 580 266Q580 145 502 66.5Q424 -12 306 -12Q182 -12 107 58.5Q32 129 32 242Q32 365 110.5 444.5Q189 524 308 524ZM410 276Q410 329 384 358Q358 387 310 387Q263 387 232.5 344.5Q202 302 202 235Q202 185 228 155.5Q254 126 300 126Q349 126 379.5 168.5Q410 211 410 276ZM323 512ZM461 613H215L233 712H479ZM323 512Z" glyph-name="omacron" horiz-adv-x="612" unicode="&#333;" /><glyph d="M24 0 49 140H199L261 494Q224 475 178 465.5Q132 456 75 456L100 600Q176 600 237 627.5Q298 655 330 700H473L374 140H524L499 0Z" glyph-name="one" horiz-adv-x="558" unicode="1" /><glyph d="M329 0H154L241 494Q204 475 158 465.5Q112 456 55 456L80 600Q156 600 217 627.5Q278 655 310 700H453Z" glyph-name="one.alt" horiz-adv-x="449" /><glyph d="M-8 0 8 94H85L107 224Q88 216 65 211.5Q42 207 15 207L32 304Q70 304 104 317.5Q138 331 154 350H253L208 94H285L268 0Z" glyph-name="one.denominator" horiz-adv-x="324" unicode="&#63062;" /><glyph d="M-33 -140 -17 -46H60L82 84Q63 76 40 71.5Q17 67 -10 67L7 164Q45 164 79 177.5Q113 191 129 210H228L183 -46H260L243 -140Z" glyph-name="one.inferior" horiz-adv-x="324" unicode="&#8321;" /><glyph d="M54 350 70 444H147L169 574Q150 566 127 561.5Q104 557 77 557L94 654Q132 654 166 667.5Q200 681 216 700H315L270 444H347L330 350Z" glyph-name="one.numerator" horiz-adv-x="324" unicode="&#63074;" /><glyph d="M65 0 90 140H240L302 494Q265 475 219 465.5Q173 456 116 456L141 600Q217 600 278 627.5Q339 655 371 700H514L415 140H565L540 0Z" glyph-name="one.tab" horiz-adv-x="640" unicode="&#65297;" /><glyph d="M792 0H489L508 101L639 182Q666 199 678 211Q690 223 690 236Q690 246 684 251.5Q678 257 667 257Q652 257 642 250Q632 243 618 220L513 258Q538 306 579.5 331Q621 356 676 356Q741 356 777.5 325.5Q814 295 814 244Q814 205 790.5 175Q767 145 693 104L684 99H809ZM68 350 84 444H161L183 574Q164 566 141 561.5Q118 557 91 557L108 654Q146 654 180 667.5Q214 681 230 700H329L284 444H361L344 350ZM309 0H193L600 700H716Z" glyph-name="onehalf" horiz-adv-x="866" unicode="&#189;" /><glyph d="M68 350 84 444H161L183 574Q164 566 141 561.5Q118 557 91 557L108 654Q146 654 180 667.5Q214 681 230 700H329L284 444H361L344 350ZM309 0H193L600 700H716ZM644 152 650 188 774 231 760 152H799L782 56H743L733 0H617L627 56H440L456 149L627 350H764L593 152Z" glyph-name="onequarter" horiz-adv-x="845" unicode="&#188;" /><glyph d="M78 490 94 584H171L193 714Q174 706 151 701.5Q128 697 101 697L118 794Q156 794 190 807.5Q224 821 240 840H339L294 584H371L354 490Z" glyph-name="onesuperior" horiz-adv-x="324" unicode="&#185;" /><glyph d="M362 439H260L266 471Q252 453 233 443Q214 433 193 433Q144 433 115.5 465Q87 497 87 548Q87 617 124 661.5Q161 706 218 706Q246 706 265 696Q284 686 295 666L301 700H408ZM198 559Q198 542 205.5 532Q213 522 227 522Q244 522 255 537Q266 552 266 576Q266 594 258 603.5Q250 613 236 613Q219 613 208.5 598Q198 583 198 559ZM248 262ZM335 0Z" glyph-name="ordfeminine" horiz-adv-x="387" unicode="&#170;" /><glyph d="M197 564Q197 585 206 598.5Q215 612 230 612Q245 612 253 603Q261 594 261 576Q261 556 251.5 543Q242 530 227 530Q213 530 205 539Q197 548 197 564ZM229 433Q291 433 332.5 473Q374 513 374 574Q374 634 334.5 670Q295 706 230 706Q167 706 126 665.5Q85 625 85 562Q85 505 124.5 469Q164 433 229 433ZM235 264Z" glyph-name="ordmasculine" horiz-adv-x="354" unicode="&#186;" /><glyph d="M204 3 145 -92H32L120 47Q77 82 54.5 132Q32 182 32 242Q32 365 110.5 444.5Q189 524 308 524Q337 524 363 520Q389 516 411 508L470 603H580L493 464Q535 429 557.5 378Q580 327 580 266Q580 145 502 66.5Q424 -12 306 -12Q278 -12 252.5 -8.5Q227 -5 204 3ZM310 387Q263 387 232.5 344.5Q202 302 202 235Q202 221 205 206.5Q208 192 213 179L341 383Q335 385 327.5 386Q320 387 310 387ZM300 126Q349 126 379.5 168.5Q410 211 410 276Q410 292 407.5 305.5Q405 319 400 331L273 129Q280 127 286.5 126.5Q293 126 300 126Z" glyph-name="oslash" horiz-adv-x="612" unicode="&#248;" /><glyph d="M308 524Q431 524 505.5 453Q580 382 580 266Q580 145 502 66.5Q424 -12 306 -12Q182 -12 107 58.5Q32 129 32 242Q32 365 110.5 444.5Q189 524 308 524ZM410 276Q410 329 384 358Q358 387 310 387Q263 387 232.5 344.5Q202 302 202 235Q202 185 228 155.5Q254 126 300 126Q349 126 379.5 168.5Q410 211 410 276ZM323 512ZM344 607Q372 595 387 591Q402 587 417 587Q462 587 486 627Q510 667 505 728H412Q411 713 407 707.5Q403 702 392 702Q383 702 372 705Q361 708 338 717Q309 730 292 734Q275 738 259 738Q211 738 180.5 695Q150 652 156 597H251Q254 611 261.5 618Q269 625 283 625Q295 625 307.5 621.5Q320 618 344 607ZM323 512Z" glyph-name="otilde" horiz-adv-x="612" unicode="&#245;" /><glyph d="M609 299Q609 165 534 76.5Q459 -12 346 -12Q296 -12 256.5 6.5Q217 25 192 60L143 -218H-25L103 512H261L253 465Q284 494 320.5 509Q357 524 397 524Q495 524 552 461.5Q609 399 609 299ZM439 285Q439 332 414 360.5Q389 389 346 389Q294 389 258.5 345Q223 301 223 235Q223 186 251 154.5Q279 123 320 123Q373 123 406 167.5Q439 212 439 285Z" glyph-name="p" horiz-adv-x="638" unicode="p" /><glyph d="M363 700H708L546 -218H396L534 563H464L326 -218H176L251 204Q169 211 115 276Q61 341 61 428Q61 547 147.5 623.5Q234 700 363 700ZM208 439Q208 397 226 370Q244 343 275 340L314 563Q268 560 238 523.5Q208 487 208 439Z" glyph-name="paragraph" horiz-adv-x="716" unicode="&#182;" /><glyph d="M194 190Q194 108 217 30Q240 -48 283 -114L186 -175Q110 -87 72 6.5Q34 100 34 202Q34 378 111 516Q188 654 350 765L422 686Q312 587 253 459Q194 331 194 190Z" glyph-name="parenleft" horiz-adv-x="353" unicode="(" /><glyph d="M174 400Q174 482 151 560Q128 638 85 704L182 765Q258 677 296 583.5Q334 490 334 388Q334 212 257 74Q180 -64 18 -175L-54 -96Q56 3 115 131Q174 259 174 400Z" glyph-name="parenright" horiz-adv-x="354" unicode=")" /><glyph d="M251 -12Q148 -12 83.5 44Q19 100 19 188Q19 288 86.5 355Q154 422 257 422Q300 422 337 408Q374 394 401 368Q402 394 402.5 405Q403 416 403 425Q403 505 372 541.5Q341 578 276 578Q249 578 218.5 569.5Q188 561 156 545L116 662Q159 686 208 699Q257 712 306 712Q435 712 502 634.5Q569 557 569 411Q569 219 480.5 103.5Q392 -12 251 -12ZM274 284Q236 284 213.5 258Q191 232 191 188Q191 156 211 137.5Q231 119 266 119Q301 119 328.5 146.5Q356 174 374 228Q363 250 333.5 267Q304 284 274 284Z" glyph-name="partialdiff" horiz-adv-x="590" unicode="&#8706;" /><glyph d="M325 0H209L616 700H732ZM865 199Q865 271 820.5 313.5Q776 356 701 356Q615 356 563 299.5Q511 243 511 150Q511 78 555.5 36Q600 -6 676 -6Q762 -6 813.5 50Q865 106 865 199ZM741 195Q741 151 723 122.5Q705 94 677 94Q656 94 645.5 109.5Q635 125 635 154Q635 198 653 227Q671 256 699 256Q719 256 730 240Q741 224 741 195ZM430 549Q430 621 385.5 663.5Q341 706 266 706Q180 706 128 649.5Q76 593 76 500Q76 428 120.5 386Q165 344 241 344Q327 344 378.5 400Q430 456 430 549ZM306 545Q306 501 288 472.5Q270 444 242 444Q221 444 210.5 459.5Q200 475 200 504Q200 548 218 577Q236 606 264 606Q284 606 295 590Q306 574 306 545Z" glyph-name="percent" horiz-adv-x="908" unicode="%" /><glyph d="M16 86Q16 45 46 16.5Q76 -12 119 -12Q162 -12 192.5 16.5Q223 45 223 86Q223 127 193 154.5Q163 182 119 182Q76 182 46 154Q16 126 16 86ZM40 84Z" glyph-name="period" horiz-adv-x="281" unicode="." /><glyph d="M60 383Q60 342 90 313.5Q120 285 163 285Q206 285 236.5 313.5Q267 342 267 383Q267 424 237 451.5Q207 479 163 479Q120 479 90 451Q60 423 60 383ZM84 381Z" glyph-name="periodcentered" horiz-adv-x="287" unicode="&#183;" /><glyph d="M325 0H209L616 700H732ZM865 199Q865 271 820.5 313.5Q776 356 701 356Q615 356 563 299.5Q511 243 511 150Q511 78 555.5 36Q600 -6 676 -6Q762 -6 813.5 50Q865 106 865 199ZM741 195Q741 151 723 122.5Q705 94 677 94Q656 94 645.5 109.5Q635 125 635 154Q635 198 653 227Q671 256 699 256Q719 256 730 240Q741 224 741 195ZM430 549Q430 621 385.5 663.5Q341 706 266 706Q180 706 128 649.5Q76 593 76 500Q76 428 120.5 386Q165 344 241 344Q327 344 378.5 400Q430 456 430 549ZM306 545Q306 501 288 472.5Q270 444 242 444Q221 444 210.5 459.5Q200 475 200 504Q200 548 218 577Q236 606 264 606Q284 606 295 590Q306 574 306 545ZM1256 199Q1256 271 1211.5 313.5Q1167 356 1092 356Q1006 356 954 299.5Q902 243 902 150Q902 78 946.5 36Q991 -6 1067 -6Q1153 -6 1204.5 50Q1256 106 1256 199ZM1132 195Q1132 151 1114 122.5Q1096 94 1068 94Q1047 94 1036.5 109.5Q1026 125 1026 154Q1026 198 1044 227Q1062 256 1090 256Q1110 256 1121 240Q1132 224 1132 195Z" glyph-name="perthousand" horiz-adv-x="1299" unicode="&#8240;" /><glyph d="M77 512H678L655 382H595L528 0H360L427 382H282L215 0H47L114 382H54Z" glyph-name="pi" horiz-adv-x="664" unicode="&#960;" /><glyph d="M382 115H252V285H82V415H252V585H382V415H552V285H382Z" glyph-name="plus" horiz-adv-x="600" unicode="+" /><glyph d="M365 205H235V335H65V465H235V595H365V465H535V335H365ZM65 0V130H535V0Z" glyph-name="plusminus" horiz-adv-x="600" unicode="&#177;" /><glyph d="M121 700H736L710 555H650L552 0H377L475 555H330L232 0H57L155 555H95Z" glyph-name="product" horiz-adv-x="698" unicode="&#8719;" /><glyph d="M30 213Q30 347 105 435.5Q180 524 293 524Q348 524 389.5 502.5Q431 481 455 440L468 512H626L498 -218H330L375 37Q346 13 312.5 0.5Q279 -12 242 -12Q144 -12 87 50.5Q30 113 30 213ZM200 227Q200 180 225 151.5Q250 123 293 123Q345 123 380.5 167Q416 211 416 277Q416 326 388 357.5Q360 389 319 389Q266 389 233 344.5Q200 300 200 227Z" glyph-name="q" horiz-adv-x="638" unicode="q" /><glyph d="M328 258 324 230H180L191 297Q196 325 207 346Q218 367 241 387Q254 399 284 421.5Q314 444 325 452Q350 471 361.5 489Q373 507 373 528Q373 549 358 561.5Q343 574 320 574Q286 574 262 553Q238 532 219 482L74 525Q99 609 170.5 660.5Q242 712 337 712Q436 712 493 667Q550 622 550 551Q550 524 544 500.5Q538 477 525 456Q515 437 499 419.5Q483 402 459 383Q442 370 412 348.5Q382 327 379 325Q351 305 341 291.5Q331 278 328 258ZM146 82Q146 43 174.5 16Q203 -11 244 -11Q285 -11 314 15.5Q343 42 343 82Q343 120 314 146.5Q285 173 244 173Q203 173 174.5 146.5Q146 120 146 82Z" glyph-name="question" horiz-adv-x="542" unicode="?" /><glyph d="M207 255 211 283H355L344 216Q339 188 328 167Q317 146 294 126Q281 114 251 91.5Q221 69 210 61Q185 42 173.5 24Q162 6 162 -15Q162 -36 177 -48.5Q192 -61 215 -61Q249 -61 273 -40Q297 -19 316 31L461 -12Q436 -96 364.5 -147.5Q293 -199 198 -199Q99 -199 42 -154Q-15 -109 -15 -38Q-15 -11 -9 12.5Q-3 36 10 57Q20 76 36 93.5Q52 111 76 130Q93 143 123 164.5Q153 186 156 188Q184 208 194 221.5Q204 235 207 255ZM389 431Q389 470 360.5 497Q332 524 291 524Q250 524 221 497.5Q192 471 192 431Q192 393 221 366.5Q250 340 291 340Q332 340 360.5 366.5Q389 393 389 431Z" glyph-name="questiondown" horiz-adv-x="532" unicode="&#191;" /><glyph d="M488 700 420 425H294L322 700ZM288 700 220 425H94L122 700Z" glyph-name="quotedbl" horiz-adv-x="458" unicode="&quot;" /><glyph d="M229 170H54L-19 -125H119ZM439 170H264L191 -125H329Z" glyph-name="quotedblbase" horiz-adv-x="494" unicode="&#8222;" /><glyph d="M172 700 69 425H238L306 700ZM392 700 289 425H458L526 700Z" glyph-name="quotedblleft" horiz-adv-x="496" unicode="&#8220;" /><glyph d="M318 700H147L79 425H215ZM538 700H367L299 425H435Z" glyph-name="quotedblright" horiz-adv-x="492" unicode="&#8221;" /><glyph d="M172 700 69 425H238L306 700Z" glyph-name="quoteleft" horiz-adv-x="276" unicode="&#8216;" /><glyph d="M318 700H147L79 425H215Z" glyph-name="quoteright" horiz-adv-x="272" unicode="&#8217;" /><glyph d="M229 170H54L-19 -125H119Z" glyph-name="quotesinglbase" horiz-adv-x="284" unicode="&#8218;" /><glyph d="M288 700 220 425H94L122 700Z" glyph-name="quotesingle" horiz-adv-x="258" unicode="'" /><glyph d="M13 0 103 512H261L247 432Q274 475 310.5 496Q347 517 393 517Q407 517 421 516Q435 515 451 512L420 367Q406 370 395.5 371Q385 372 374 372Q314 372 273.5 332Q233 292 220 218L181 0ZM267 512ZM97 0Z" glyph-name="r" horiz-adv-x="416" unicode="r" /><glyph d="M13 0 103 512H261L247 432Q274 475 310.5 496Q347 517 393 517Q407 517 421 516Q435 515 451 512L420 367Q406 370 395.5 371Q385 372 374 372Q314 372 273.5 332Q233 292 220 218L181 0ZM267 512ZM97 0ZM462 740H304L199 587H339ZM267 512Z" glyph-name="racute" horiz-adv-x="416" unicode="&#341;" /><glyph d="M49 363V512H260L343 186L498 700H667L425 0H248L140 363Z" glyph-name="radical" horiz-adv-x="619" unicode="&#8730;" /><glyph d="M13 0 103 512H261L247 432Q274 475 310.5 496Q347 517 393 517Q407 517 421 516Q435 515 451 512L420 367Q406 370 395.5 371Q385 372 374 372Q314 372 273.5 332Q233 292 220 218L181 0ZM267 512ZM97 0ZM363 587H182L90 740H224L280 666L349 740H483ZM267 512Z" glyph-name="rcaron" horiz-adv-x="416" unicode="&#345;" /><glyph d="M58 351Q58 501 163.5 606.5Q269 712 419 712Q569 712 674.5 606.5Q780 501 780 351Q780 201 674 94.5Q568 -12 419 -12Q270 -12 164 94.5Q58 201 58 351ZM706 351Q706 472 622 557.5Q538 643 419 643Q301 643 217 557.5Q133 472 133 351Q133 230 217 144Q301 58 419 58Q537 58 621.5 144Q706 230 706 351ZM263 180V530H469Q524 530 560.5 496.5Q597 463 597 415Q597 377 578 346.5Q559 316 526 300L597 180H463L402 288H384V180ZM475 412Q475 426 464 433.5Q453 441 434 441H384V376H434Q453 376 464 385.5Q475 395 475 412Z" glyph-name="registered" horiz-adv-x="804" unicode="&#174;" /><glyph d="M331 678Q331 727 296 762Q261 797 212 797Q162 797 128 762Q94 727 94 678Q94 629 128 594.5Q162 560 212 560Q262 560 296.5 594.5Q331 629 331 678ZM170 678Q170 695 183 708Q196 721 212 721Q229 721 242 708Q255 695 255 678Q255 662 242 649Q229 636 212 636Q196 636 183 649Q170 662 170 678ZM193 512Z" glyph-name="ring" horiz-adv-x="400" unicode="&#730;" /><glyph d="M331 878Q331 927 296 962Q261 997 212 997Q162 997 128 962Q94 927 94 878Q94 829 128 794.5Q162 760 212 760Q262 760 296.5 794.5Q331 829 331 878ZM170 878Q170 895 183 908Q196 921 212 921Q229 921 242 908Q255 895 255 878Q255 862 242 849Q229 836 212 836Q196 836 183 849Q170 862 170 878ZM193 700Z" glyph-name="ring.case" horiz-adv-x="400" /><glyph d="M456 167Q456 87 397.5 37.5Q339 -12 244 -12Q171 -12 103.5 13.5Q36 39 -10 82L80 188Q117 151 158.5 132Q200 113 242 113Q268 113 283.5 123Q299 133 299 150Q299 164 291 172Q283 180 253 190L185 213Q124 234 93 270.5Q62 307 62 358Q62 428 120 476Q178 524 272 524Q334 524 390.5 503.5Q447 483 498 442L411 336Q379 364 341 380.5Q303 397 267 397Q243 397 230 389.5Q217 382 217 367Q217 356 225.5 348Q234 340 251 334L330 307Q392 286 424 250.5Q456 215 456 167ZM234 10ZM282 512ZM234 0Z" glyph-name="s" horiz-adv-x="504" unicode="s" /><glyph d="M456 167Q456 87 397.5 37.5Q339 -12 244 -12Q171 -12 103.5 13.5Q36 39 -10 82L80 188Q117 151 158.5 132Q200 113 242 113Q268 113 283.5 123Q299 133 299 150Q299 164 291 172Q283 180 253 190L185 213Q124 234 93 270.5Q62 307 62 358Q62 428 120 476Q178 524 272 524Q334 524 390.5 503.5Q447 483 498 442L411 336Q379 364 341 380.5Q303 397 267 397Q243 397 230 389.5Q217 382 217 367Q217 356 225.5 348Q234 340 251 334L330 307Q392 286 424 250.5Q456 215 456 167ZM234 10ZM282 512ZM234 0ZM477 740H319L214 587H354ZM282 512Z" glyph-name="sacute" horiz-adv-x="504" unicode="&#347;" /><glyph d="M456 167Q456 87 397.5 37.5Q339 -12 244 -12Q171 -12 103.5 13.5Q36 39 -10 82L80 188Q117 151 158.5 132Q200 113 242 113Q268 113 283.5 123Q299 133 299 150Q299 164 291 172Q283 180 253 190L185 213Q124 234 93 270.5Q62 307 62 358Q62 428 120 476Q178 524 272 524Q334 524 390.5 503.5Q447 483 498 442L411 336Q379 364 341 380.5Q303 397 267 397Q243 397 230 389.5Q217 382 217 367Q217 356 225.5 348Q234 340 251 334L330 307Q392 286 424 250.5Q456 215 456 167ZM234 10ZM282 512ZM234 0ZM378 587H197L105 740H239L295 666L364 740H498ZM282 512Z" glyph-name="scaron" horiz-adv-x="504" unicode="&#353;" /><glyph d="M136 -113 119 -79 189 -8Q132 0 80 23.5Q28 47 -10 82L80 188Q117 151 158.5 132Q200 113 242 113Q268 113 283.5 123Q299 133 299 150Q299 163 291.5 171Q284 179 253 190L185 213Q124 234 93 270.5Q62 307 62 358Q62 428 120 476Q178 524 272 524Q334 524 390.5 503.5Q447 483 498 442L411 336Q379 364 341 380.5Q303 397 267 397Q243 397 230 389.5Q217 382 217 367Q217 356 225 348Q233 340 251 334L330 307Q392 286 424 250.5Q456 215 456 167Q456 93 405 44.5Q354 -4 269 -11L227 -53Q267 -57 287.5 -77Q308 -97 308 -132Q308 -180 273.5 -209Q239 -238 182 -238Q157 -238 130.5 -231.5Q104 -225 80 -214L92 -143Q121 -156 137.5 -160Q154 -164 173 -164Q191 -164 201.5 -156Q212 -148 212 -134Q212 -122 201.5 -116Q191 -110 168 -110Q160 -110 151.5 -111Q143 -112 136 -113Z" glyph-name="scedilla" horiz-adv-x="504" unicode="&#351;" /><glyph d="M456 167Q456 87 397.5 37.5Q339 -12 244 -12Q171 -12 103.5 13.5Q36 39 -10 82L80 188Q117 151 158.5 132Q200 113 242 113Q268 113 283.5 123Q299 133 299 150Q299 164 291 172Q283 180 253 190L185 213Q124 234 93 270.5Q62 307 62 358Q62 428 120 476Q178 524 272 524Q334 524 390.5 503.5Q447 483 498 442L411 336Q379 364 341 380.5Q303 397 267 397Q243 397 230 389.5Q217 382 217 367Q217 356 225.5 348Q234 340 251 334L330 307Q392 286 424 250.5Q456 215 456 167ZM234 10ZM282 512ZM234 0ZM91 587 211 740H392L484 587H350L294 661L225 587ZM282 512Z" glyph-name="scircumflex" horiz-adv-x="504" unicode="&#349;" /><glyph d="M33 235Q33 288 61 329.5Q89 371 142 397Q126 420 118.5 445.5Q111 471 111 499Q111 593 181 652.5Q251 712 370 712Q442 712 505.5 692Q569 672 617 636L535 508Q487 542 444.5 557Q402 572 361 572Q324 572 304 555.5Q284 539 284 512Q284 493 300.5 478.5Q317 464 354 452L453 419Q533 392 572.5 349Q612 306 612 246Q612 194 584.5 151.5Q557 109 506 81Q520 60 527.5 35.5Q535 11 535 -17Q535 -110 464.5 -170Q394 -230 276 -230Q205 -230 140.5 -210Q76 -190 28 -154L110 -26Q157 -59 199.5 -74Q242 -89 284 -89Q321 -89 341.5 -73Q362 -57 362 -31Q362 -11 345.5 3.5Q329 18 291 31L192 64Q111 91 72 133Q33 175 33 235ZM297 200 382 170Q389 167 394 165.5Q399 164 403 162Q420 171 430 185.5Q440 200 440 216Q440 235 424 248.5Q408 262 348 283L263 313Q261 314 254.5 316.5Q248 319 244 320Q226 311 215.5 296.5Q205 282 205 266Q205 247 221 234Q237 221 297 200Z" glyph-name="section" horiz-adv-x="650" unicode="&#167;" /><glyph d="M236 170H61L-12 -125H126ZM78 426Q78 385 108 356.5Q138 328 181 328Q224 328 254.5 356.5Q285 385 285 426Q285 467 255 494.5Q225 522 181 522Q138 522 108 494Q78 466 78 426ZM102 424Z" glyph-name="semicolon" horiz-adv-x="307" unicode=";" /><glyph d="M390 555H77L103 700H611L587 567L217 0H22Z" glyph-name="seven" horiz-adv-x="556" unicode="7" /><glyph d="M158 251H18L36 350H308L291 257L114 0H-17Z" glyph-name="seven.denominator" horiz-adv-x="307" unicode="&#63068;" /><glyph d="M133 111H-7L11 210H283L266 117L89 -140H-42Z" glyph-name="seven.inferior" horiz-adv-x="307" unicode="&#8327;" /><glyph d="M219 601H79L97 700H369L352 607L175 350H44Z" glyph-name="seven.numerator" horiz-adv-x="307" unicode="&#63080;" /><glyph d="M244 741H104L122 840H394L377 747L200 490H69Z" glyph-name="seven.superior" horiz-adv-x="307" unicode="&#8311;" /><glyph d="M432 555H119L145 700H653L629 567L259 0H64Z" glyph-name="seven.tab" horiz-adv-x="640" unicode="&#65303;" /><glyph d="M387 450Q474 450 530 395.5Q586 341 586 260Q586 141 504 64.5Q422 -12 296 -12Q181 -12 106 50.5Q31 113 31 208Q31 263 59.5 327Q88 391 142 457L342 700H552L336 444Q349 447 361.5 448.5Q374 450 387 450ZM314 330Q267 330 236.5 295.5Q206 261 206 210Q206 171 232 146Q258 121 300 121Q347 121 379 153.5Q411 186 411 236Q411 279 385 304.5Q359 330 314 330Z" glyph-name="six" horiz-adv-x="611" unicode="6" /><glyph d="M207 225Q250 225 277 197.5Q304 170 304 128Q304 68 260 31Q216 -6 145 -6Q81 -6 38.5 27.5Q-4 61 -4 111Q-4 141 9 171Q22 201 49 233L147 350H289L182 221Q188 223 194 224Q200 225 207 225ZM182 120Q182 134 174 142Q166 150 152 150Q136 150 127 140Q118 130 118 113Q118 99 126 91Q134 83 148 83Q164 83 173 93Q182 103 182 120Z" glyph-name="six.denominator" horiz-adv-x="341" unicode="&#63067;" /><glyph d="M182 85Q225 85 252 57.5Q279 30 279 -12Q279 -72 235 -109Q191 -146 120 -146Q56 -146 13.5 -112.5Q-29 -79 -29 -29Q-29 1 -16 31Q-3 61 24 93L122 210H264L157 81Q163 83 169 84Q175 85 182 85ZM157 -20Q157 -6 149 2Q141 10 127 10Q111 10 102 0Q93 -10 93 -27Q93 -41 101 -49Q109 -57 123 -57Q139 -57 148 -47Q157 -37 157 -20Z" glyph-name="six.inferior" horiz-adv-x="341" unicode="&#8326;" /><glyph d="M269 575Q312 575 339 547.5Q366 520 366 478Q366 418 322 381Q278 344 207 344Q143 344 100.5 377.5Q58 411 58 461Q58 491 71 521Q84 551 111 583L209 700H351L244 571Q250 573 256 574Q262 575 269 575ZM244 470Q244 484 236 492Q228 500 214 500Q198 500 189 490Q180 480 180 463Q180 449 188 441Q196 433 210 433Q226 433 235 443Q244 453 244 470Z" glyph-name="six.numerator" horiz-adv-x="341" unicode="&#63079;" /><glyph d="M294 715Q337 715 364 687.5Q391 660 391 618Q391 558 347 521Q303 484 232 484Q168 484 125.5 517.5Q83 551 83 601Q83 631 96 661Q109 691 136 723L234 840H376L269 711Q275 713 281 714Q287 715 294 715ZM269 610Q269 624 261 632Q253 640 239 640Q223 640 214 630Q205 620 205 603Q205 589 213 581Q221 573 235 573Q251 573 260 583Q269 593 269 610Z" glyph-name="six.superior" horiz-adv-x="341" unicode="&#8310;" /><glyph d="M401 450Q488 450 544 395.5Q600 341 600 260Q600 141 518 64.5Q436 -12 310 -12Q195 -12 120 50.5Q45 113 45 208Q45 263 73.5 327Q102 391 156 457L356 700H566L350 444Q363 447 375.5 448.5Q388 450 401 450ZM328 330Q281 330 250.5 295.5Q220 261 220 210Q220 171 246 146Q272 121 314 121Q361 121 393 153.5Q425 186 425 236Q425 279 399 304.5Q373 330 328 330Z" glyph-name="six.tab" horiz-adv-x="640" unicode="&#65302;" /><glyph d="M94 -132H-41L390 742H522Z" glyph-name="slash" horiz-adv-x="463" unicode="/" /><glyph glyph-name="space" horiz-adv-x="227" unicode=" " /><glyph d="M145 266H46L66 376H131L128 403Q125 423 124 438Q123 453 123 467Q123 574 190.5 643Q258 712 377 712Q485 712 549 660.5Q613 609 623 515L463 477Q454 525 431.5 547.5Q409 570 373 570Q335 570 314.5 546.5Q294 523 294 482Q294 468 295 455Q296 442 298 426L304 376H453L433 266H316Q319 228 309.5 198Q300 168 277 145H560L534 0H6L26 111Q85 123 119 164Q153 205 145 266Z" glyph-name="sterling" horiz-adv-x="615" unicode="&#163;" /><glyph d="M103 583 124 700H655L629 555H317L445 365L258 145H567L541 0H4L23 107L258 374Z" glyph-name="summation" horiz-adv-x="626" unicode="&#8721;" /><glyph d="M117 382H38L61 512H140L163 643L341 700L308 512H439L416 382H285L251 186Q246 155 257 142Q268 129 299 129Q320 129 338.5 133Q357 137 382 147L402 21Q368 5 331.5 -3.5Q295 -12 258 -12Q161 -12 113.5 36.5Q66 85 79 163ZM225 10ZM153 0ZM395 740Z" glyph-name="t" horiz-adv-x="441" unicode="t" /><glyph d="M16 208 36 318H113L124 382H45L68 512H147L170 643L348 700L315 512H446L423 382H292L281 318H412L392 208H262L258 186Q252 155 263.5 142Q275 129 306 129Q327 129 345.5 133Q364 137 389 147L409 21Q375 5 338.5 -3.5Q302 -12 265 -12Q168 -12 120.5 36.5Q73 85 86 163L94 208Z" glyph-name="tbar" horiz-adv-x="452" unicode="&#359;" /><glyph d="M117 382H38L61 512H140L163 643L341 700L308 512H439L416 382H285L251 186Q246 155 257 142Q268 129 299 129Q320 129 338.5 133Q357 137 382 147L402 21Q368 5 331.5 -3.5Q295 -12 258 -12Q161 -12 113.5 36.5Q66 85 79 163ZM225 10ZM153 0ZM395 740ZM557 770H421L381 586H482ZM395 740Z" glyph-name="tcaron" horiz-adv-x="441" unicode="&#357;" /><glyph d="M609 299Q609 165 534 76.5Q459 -12 346 -12Q296 -12 256.5 6.5Q217 25 192 60L143 -218H-25L141 730H309L265 475Q294 499 327.5 511.5Q361 524 397 524Q495 524 552 461.5Q609 399 609 299ZM439 285Q439 332 414 360.5Q389 389 346 389Q294 389 258.5 345Q223 301 223 235Q223 186 251 154.5Q279 123 320 123Q373 123 406 167.5Q439 212 439 285Z" glyph-name="thorn" horiz-adv-x="638" unicode="&#254;" /><glyph d="M291 311Q278 311 263 308Q248 305 235 300L190 407L377 560H114L138 700H619L598 580L410 429Q482 411 522 361.5Q562 312 562 243Q562 126 488 57Q414 -12 285 -12Q182 -12 108.5 38.5Q35 89 4 181L151 253Q169 191 202 158.5Q235 126 280 126Q331 126 356.5 152.5Q382 179 382 232Q382 269 358.5 290Q335 311 291 311Z" glyph-name="three" horiz-adv-x="611" unicode="3" /><glyph d="M132 139Q126 139 119 137.5Q112 136 107 133L79 200L154 256H31L48 350H312L299 276L216 214Q248 202 266.5 178.5Q285 155 285 124Q285 63 246 28.5Q207 -6 136 -6Q79 -6 39.5 18.5Q0 43 -18 90L73 137Q86 108 98.5 98Q111 88 129 88Q145 88 153.5 95Q162 102 162 116Q162 127 154.5 133Q147 139 132 139Z" glyph-name="three.denominator" horiz-adv-x="334" unicode="&#63064;" /><glyph d="M107 -1Q101 -1 94 -2.5Q87 -4 82 -7L54 60L129 116H6L23 210H287L274 136L191 74Q223 62 241.5 38.5Q260 15 260 -16Q260 -77 221 -111.5Q182 -146 111 -146Q54 -146 14.5 -121.5Q-25 -97 -43 -50L48 -3Q61 -32 73.5 -42Q86 -52 104 -52Q120 -52 128.5 -45Q137 -38 137 -24Q137 -13 129.5 -7Q122 -1 107 -1Z" glyph-name="three.inferior" horiz-adv-x="334" unicode="&#8323;" /><glyph d="M194 489Q188 489 181 487.5Q174 486 169 483L141 550L216 606H93L110 700H374L361 626L278 564Q310 552 328.5 528.5Q347 505 347 474Q347 413 308 378.5Q269 344 198 344Q141 344 101.5 368.5Q62 393 44 440L135 487Q148 458 160.5 448Q173 438 191 438Q207 438 215.5 445Q224 452 224 466Q224 477 216.5 483Q209 489 194 489Z" glyph-name="three.numerator" horiz-adv-x="334" unicode="&#63076;" /><glyph d="M305 311Q292 311 277 308Q262 305 249 300L204 407L391 560H128L152 700H633L612 580L424 429Q496 411 536 361.5Q576 312 576 243Q576 126 502 57Q428 -12 299 -12Q196 -12 122.5 38.5Q49 89 18 181L165 253Q183 191 216 158.5Q249 126 294 126Q345 126 370.5 152.5Q396 179 396 232Q396 269 372.5 290Q349 311 305 311Z" glyph-name="three.tab" horiz-adv-x="640" unicode="&#65299;" /><glyph d="M211 489Q205 489 198 487.5Q191 486 186 483L158 550L233 606H110L127 700H391L378 626L295 564Q327 552 345.5 528.5Q364 505 364 474Q364 413 325 378.5Q286 344 215 344Q158 344 118.5 368.5Q79 393 61 440L152 487Q165 458 177.5 448Q190 438 208 438Q224 438 232.5 445Q241 452 241 466Q241 477 233.5 483Q226 489 211 489ZM278 0H162L569 700H685ZM613 152 619 188 743 231 729 152H768L751 56H712L702 0H586L596 56H409L425 149L596 350H733L562 152Z" glyph-name="threequarters" horiz-adv-x="815" unicode="&#190;" /><glyph d="M219 629Q213 629 206 627.5Q199 626 194 623L166 690L241 746H118L135 840H399L386 766L303 704Q335 692 353.5 668.5Q372 645 372 614Q372 553 333 518.5Q294 484 223 484Q166 484 126.5 508.5Q87 533 69 580L160 627Q173 598 185.5 588Q198 578 216 578Q232 578 240.5 585Q249 592 249 606Q249 617 241.5 623Q234 629 219 629Z" glyph-name="threesuperior" horiz-adv-x="334" unicode="&#179;" /><glyph d="M211 607Q239 595 254 591Q269 587 284 587Q329 587 353 627Q377 667 372 728H279Q278 713 274 707.5Q270 702 259 702Q250 702 239 705Q228 708 205 717Q176 730 159 734Q142 738 126 738Q78 738 47.5 695Q17 652 23 597H118Q121 611 128.5 618Q136 625 150 625Q162 625 174.5 621.5Q187 618 211 607ZM190 512Z" glyph-name="tilde" horiz-adv-x="402" unicode="&#732;" /><glyph d="M211 807Q239 795 254 791Q269 787 284 787Q329 787 353 827Q377 867 372 928H279Q278 913 274 907.5Q270 902 259 902Q250 902 239 905Q228 908 205 917Q176 930 159 934Q142 938 126 938Q78 938 47.5 895Q17 852 23 797H118Q121 811 128.5 818Q136 825 150 825Q162 825 174.5 821.5Q187 818 211 807ZM188 700Z" glyph-name="tilde.case" horiz-adv-x="402" /><glyph d="M426 350V700H571L630 528L687 700H832V350H720V514L658 348H599L534 512V350ZM106 603V700H396V603H313V350H190V603Z" glyph-name="trademark" horiz-adv-x="871" unicode="&#8482;" /><glyph d="M557 0H9L37 162L327 338Q387 375 415.5 411Q444 447 444 488Q444 524 421.5 545.5Q399 567 361 567Q318 567 287.5 540.5Q257 514 237 460L77 501Q112 602 190 657Q268 712 375 712Q487 712 554.5 651.5Q622 591 622 498Q622 413 574.5 347.5Q527 282 408 215L283 145H583Z" glyph-name="two" horiz-adv-x="645" unicode="2" /><glyph d="M292 0H-11L8 101L139 182Q166 199 178 211Q190 223 190 236Q190 246 184 251.5Q178 257 167 257Q152 257 142 250Q132 243 118 220L13 258Q38 306 79.5 331Q121 356 176 356Q241 356 277.5 325.5Q314 295 314 244Q314 205 290.5 175Q267 145 193 104L184 99H309Z" glyph-name="two.denominator" horiz-adv-x="360" unicode="&#63063;" /><glyph d="M267 -140H-36L-17 -39L114 42Q141 59 153 71Q165 83 165 96Q165 106 159 111.5Q153 117 142 117Q127 117 117 110Q107 103 93 80L-12 118Q13 166 54.5 191Q96 216 151 216Q216 216 252.5 185.5Q289 155 289 104Q289 65 265.5 35Q242 5 168 -36L159 -41H284Z" glyph-name="two.inferior" horiz-adv-x="360" unicode="&#8322;" /><glyph d="M354 350H51L70 451L201 532Q228 549 240 561Q252 573 252 586Q252 596 246 601.5Q240 607 229 607Q214 607 204 600Q194 593 180 570L75 608Q100 656 141.5 681Q183 706 238 706Q303 706 339.5 675.5Q376 645 376 594Q376 555 352.5 525Q329 495 255 454L246 449H371Z" glyph-name="two.numerator" horiz-adv-x="360" unicode="&#63075;" /><glyph d="M554 0H6L34 162L324 338Q384 375 412.5 411Q441 447 441 488Q441 524 418.5 545.5Q396 567 358 567Q315 567 284.5 540.5Q254 514 234 460L74 501Q109 602 187 657Q265 712 372 712Q484 712 551.5 651.5Q619 591 619 498Q619 413 571.5 347.5Q524 282 405 215L280 145H580Z" glyph-name="two.tab" horiz-adv-x="640" unicode="&#65298;" /><glyph d="M379 490H76L95 591L226 672Q253 689 265 701Q277 713 277 726Q277 736 271 741.5Q265 747 254 747Q239 747 229 740Q219 733 205 710L100 748Q125 796 166.5 821Q208 846 263 846Q328 846 364.5 815.5Q401 785 401 734Q401 695 377.5 665Q354 635 280 594L271 589H396Z" glyph-name="twosuperior" horiz-adv-x="360" unicode="&#178;" /><glyph d="M580 512 490 0H332L343 63Q317 26 281 7Q245 -12 202 -12Q118 -12 72 45.5Q26 103 41 190L97 512H266L214 209Q207 168 221.5 147.5Q236 127 272 127Q306 127 329 151.5Q352 176 360 219L412 512ZM339 512ZM435 0Z" glyph-name="u" horiz-adv-x="592" unicode="u" /><glyph d="M580 512 490 0H332L343 63Q317 26 281 7Q245 -12 202 -12Q118 -12 72 45.5Q26 103 41 190L97 512H266L214 209Q207 168 221.5 147.5Q236 127 272 127Q306 127 329 151.5Q352 176 360 219L412 512ZM339 512ZM435 0ZM534 740H376L271 587H411ZM339 512Z" glyph-name="uacute" horiz-adv-x="592" unicode="&#250;" /><glyph d="M580 512 490 0H332L343 63Q317 26 281 7Q245 -12 202 -12Q118 -12 72 45.5Q26 103 41 190L97 512H266L214 209Q207 168 221.5 147.5Q236 127 272 127Q306 127 329 151.5Q352 176 360 219L412 512ZM339 512ZM435 0ZM352 675Q375 675 386 690.5Q397 706 397 740H509Q509 670 466.5 627.5Q424 585 346 585Q270 585 230 630Q190 675 199 740H313Q308 708 318 691.5Q328 675 352 675ZM339 512Z" glyph-name="ubreve" horiz-adv-x="592" unicode="&#365;" /><glyph d="M580 512 490 0H332L343 63Q317 26 281 7Q245 -12 202 -12Q118 -12 72 45.5Q26 103 41 190L97 512H266L214 209Q207 168 221.5 147.5Q236 127 272 127Q306 127 329 151.5Q352 176 360 219L412 512ZM339 512ZM435 0ZM148 587 268 740H449L541 587H407L351 661L282 587ZM339 512Z" glyph-name="ucircumflex" horiz-adv-x="592" unicode="&#251;" /><glyph d="M580 512 490 0H332L343 63Q317 26 281 7Q245 -12 202 -12Q118 -12 72 45.5Q26 103 41 190L97 512H266L214 209Q207 168 221.5 147.5Q236 127 272 127Q306 127 329 151.5Q352 176 360 219L412 512ZM339 512ZM435 0ZM187 663Q187 631 209 608.5Q231 586 263 586Q295 586 318 608.5Q341 631 341 663Q341 695 318 718Q295 741 263 741Q232 741 209.5 718Q187 695 187 663ZM381 663Q381 631 403.5 608.5Q426 586 458 586Q490 586 512.5 608.5Q535 631 535 663Q535 695 512 718Q489 741 458 741Q426 741 403.5 718Q381 695 381 663ZM339 512Z" glyph-name="udieresis" horiz-adv-x="592" unicode="&#252;" /><glyph d="M580 512 490 0H332L343 63Q317 26 281 7Q245 -12 202 -12Q118 -12 72 45.5Q26 103 41 190L97 512H266L214 209Q207 168 221.5 147.5Q236 127 272 127Q306 127 329 151.5Q352 176 360 219L412 512ZM339 512ZM435 0ZM406 587 329 740H178L273 587ZM339 512Z" glyph-name="ugrave" horiz-adv-x="592" unicode="&#249;" /><glyph d="M580 512 490 0H332L343 63Q317 26 281 7Q245 -12 202 -12Q118 -12 72 45.5Q26 103 41 190L97 512H266L214 209Q207 168 221.5 147.5Q236 127 272 127Q306 127 329 151.5Q352 176 360 219L412 512ZM339 512ZM435 0ZM451 740H299L194 587H324ZM661 740H503L368 587H502ZM339 512Z" glyph-name="uhungarumlaut" horiz-adv-x="592" unicode="&#369;" /><glyph d="M580 512 490 0H332L343 63Q317 26 281 7Q245 -12 202 -12Q118 -12 72 45.5Q26 103 41 190L97 512H266L214 209Q207 168 221.5 147.5Q236 127 272 127Q306 127 329 151.5Q352 176 360 219L412 512ZM339 512ZM435 0ZM477 613H231L249 712H495ZM339 512Z" glyph-name="umacron" horiz-adv-x="592" unicode="&#363;" /><glyph d="M-23 -120 -1 0H456L434 -120Z" glyph-name="underscore" horiz-adv-x="541" unicode="_" /><glyph glyph-name="uni00A0" horiz-adv-x="227" unicode="&#160;" /><glyph d="M44 189 68 324H343L319 189Z" glyph-name="uni00AD" horiz-adv-x="387" unicode="&#173;" /><glyph d="M416 244 440 379H730L663 0H517L526 53Q492 21 448.5 4.5Q405 -12 356 -12Q220 -12 137 76.5Q54 165 54 301Q54 478 163.5 595Q273 712 444 712Q549 712 629 666Q709 620 748 541L605 452Q576 506 534 533Q492 560 439 560Q351 560 292 488.5Q233 417 233 314Q233 235 277 186Q321 137 394 137Q455 137 493.5 161.5Q532 186 539 231L541 244ZM462 700ZM360 0ZM427 -55H287L227 -235H352ZM309 -209ZM360 0Z" glyph-name="uni0122" horiz-adv-x="758" /><glyph d="M251 18Q155 18 97 78.5Q39 139 39 233Q39 360 111.5 442Q184 524 293 524Q348 524 389.5 501.5Q431 479 456 437L469 512H627L544 38Q520 -101 450.5 -165.5Q381 -230 260 -230Q175 -230 104.5 -203.5Q34 -177 -26 -123L62 -9Q102 -48 153 -71.5Q204 -95 253 -95Q306 -95 335 -66Q364 -37 376 40L379 59Q352 39 319.5 28.5Q287 18 251 18ZM209 248Q209 207 234.5 180Q260 153 299 153Q350 153 384 191Q418 229 418 287Q418 333 390.5 360.5Q363 388 317 388Q272 388 240.5 347.5Q209 307 209 248ZM335 512ZM262 587H408L468 740H347ZM335 512Z" glyph-name="uni0123" horiz-adv-x="639" /><glyph d="M454 401 639 0H446L319 281L240 206L204 0H29L153 700H328L280 430L548 700H762ZM322 0ZM389 -55H249L189 -235H314ZM271 -209ZM322 0Z" glyph-name="uni0136" horiz-adv-x="685" /><glyph d="M389 307 536 0H354L261 206L209 160L181 0H13L141 730H309L245 362L409 512H623ZM262 0ZM329 -55H189L129 -235H254ZM211 -209ZM262 0Z" glyph-name="uni0137" horiz-adv-x="578" /><glyph d="M29 0 153 700H328L230 145H506L480 0ZM240 700ZM253 0ZM375 700ZM367 350ZM320 -55H180L120 -235H245ZM202 -209ZM253 0Z" glyph-name="uni013B" horiz-adv-x="541" unicode="&#315;" /><glyph d="M13 0 141 730H309L181 0ZM97 0ZM225 730ZM351 700ZM309 350ZM160 -55H20L-40 -235H85ZM42 -209ZM93 0Z" glyph-name="uni013C" horiz-adv-x="283" unicode="&#316;" /><glyph d="M29 0 153 700H333L523 286L596 700H763L639 0H477L276 451L196 0ZM464 700ZM336 0ZM403 -55H263L203 -235H328ZM285 -209ZM336 0Z" glyph-name="uni0145" horiz-adv-x="759" /><glyph d="M562 322 506 0H337L389 303Q396 342 380 363.5Q364 385 326 385Q289 385 264.5 359.5Q240 334 232 289L181 0H13L103 512H261L250 449Q277 486 314 505Q351 524 396 524Q482 524 529.5 466Q577 408 562 322ZM349 512ZM259 0ZM114 581ZM326 -55H186L126 -235H251ZM208 -209ZM259 0Z" glyph-name="uni0146" horiz-adv-x="602" /><glyph d="M29 0 153 700H483Q588 700 654.5 640.5Q721 581 721 493Q721 411 669.5 346.5Q618 282 530 253L640 0H459L358 234H245L204 0ZM544 486Q544 524 517 543.5Q490 563 436 563H304L270 370H405Q467 370 505.5 402Q544 434 544 486ZM415 700ZM327 0ZM394 -55H254L194 -235H319ZM276 -209ZM327 0Z" glyph-name="uni0156" horiz-adv-x="723" /><glyph d="M13 0 103 512H261L247 432Q274 475 310.5 496Q347 517 393 517Q407 517 421 516Q435 515 451 512L420 367Q406 370 395.5 371Q385 372 374 372Q314 372 273.5 332Q233 292 220 218L181 0ZM267 512ZM97 0ZM162 -55H22L-38 -235H87ZM44 -209ZM95 0Z" glyph-name="uni0157" horiz-adv-x="416" /><glyph d="M158 -113 141 -79 219 0H169L267 555H70L96 700H664L638 555H442L344 0H302L249 -53L256 -54Q293 -60 311.5 -79.5Q330 -99 330 -132Q330 -180 295.5 -209Q261 -238 204 -238Q179 -238 152.5 -231.5Q126 -225 102 -214L114 -143Q143 -156 159.5 -160Q176 -164 195 -164Q213 -164 223.5 -156Q234 -148 234 -134Q234 -122 223.5 -116Q213 -110 190 -110Q182 -110 173.5 -111Q165 -112 158 -113Z" glyph-name="uni0162" horiz-adv-x="603" /><glyph d="M127 -113 110 -79 185 -3Q125 13 97 58Q69 103 79 163L117 382H38L61 512H140L163 643L341 700L308 512H439L416 382H285L251 186Q245 155 256.5 142Q268 129 299 129Q320 129 338.5 133Q357 137 382 147L402 21Q368 5 331.5 -3.5Q295 -12 259 -12L218 -53Q258 -57 278.5 -77Q299 -97 299 -132Q299 -180 264.5 -209Q230 -238 173 -238Q148 -238 121.5 -231.5Q95 -225 71 -214L83 -143Q112 -156 128.5 -160Q145 -164 164 -164Q182 -164 192.5 -156Q203 -148 203 -134Q203 -122 192.5 -116Q182 -110 159 -110Q151 -110 142.5 -111Q134 -112 127 -113Z" glyph-name="uni0163" horiz-adv-x="441" /><glyph d="M614 227Q614 120 534.5 54Q455 -12 331 -12Q230 -12 144.5 25Q59 62 0 130L115 248Q166 188 220.5 159Q275 130 334 130Q383 130 410.5 149Q438 168 438 202Q438 224 419 239Q400 254 345 273L260 302Q181 329 139 377Q97 425 97 490Q97 586 171 649Q245 712 369 712Q460 712 540 675.5Q620 639 671 580L557 465Q514 515 464 540.5Q414 566 359 566Q318 566 294.5 549Q271 532 271 508Q271 488 287.5 473.5Q304 459 352 442L452 407Q532 379 573 333.5Q614 288 614 227ZM306 10ZM386 700ZM306 0ZM373 -55H233L173 -235H298ZM255 -209ZM306 0Z" glyph-name="uni0218" horiz-adv-x="660" /><glyph d="M456 167Q456 87 397.5 37.5Q339 -12 244 -12Q171 -12 103.5 13.5Q36 39 -10 82L80 188Q117 151 158.5 132Q200 113 242 113Q268 113 283.5 123Q299 133 299 150Q299 164 291 172Q283 180 253 190L185 213Q124 234 93 270.5Q62 307 62 358Q62 428 120 476Q178 524 272 524Q334 524 390.5 503.5Q447 483 498 442L411 336Q379 364 341 380.5Q303 397 267 397Q243 397 230 389.5Q217 382 217 367Q217 356 225.5 348Q234 340 251 334L330 307Q392 286 424 250.5Q456 215 456 167ZM234 10ZM282 512ZM234 0ZM301 -55H161L101 -235H226ZM183 -209ZM234 0Z" glyph-name="uni0219" horiz-adv-x="504" /><glyph d="M70 555 96 700H664L638 555H442L344 0H169L267 555ZM256 10ZM380 700ZM256 0ZM323 -55H183L123 -235H248ZM205 -209ZM256 0Z" glyph-name="uni021A" horiz-adv-x="603" unicode="&#538;" /><glyph d="M117 382H38L61 512H140L163 643L341 700L308 512H439L416 382H285L251 186Q246 155 257 142Q268 129 299 129Q320 129 338.5 133Q357 137 382 147L402 21Q368 5 331.5 -3.5Q295 -12 258 -12Q161 -12 113.5 36.5Q66 85 79 163ZM225 10ZM153 0ZM395 740ZM220 -55H80L20 -235H145ZM102 -209ZM153 0Z" glyph-name="uni021B" horiz-adv-x="441" unicode="&#539;" /><glyph d="M14 -18 106 512H274L177 -44Q161 -136 108.5 -183Q56 -230 -30 -230Q-66 -230 -91.5 -227Q-117 -224 -139 -218L-98 -75Q-87 -78 -76 -80Q-65 -82 -56 -82Q-24 -82 -8.5 -68.5Q7 -55 14 -18ZM190 512Z" glyph-name="uni0237" horiz-adv-x="286" /><glyph d="M315 613H69L87 712H333ZM177 512Z" glyph-name="uni02C9" horiz-adv-x="400" unicode="&#713;" /><glyph d="M-19 0 4 130 337 700H534L667 130L644 0ZM404 528 189 140H485Z" glyph-name="uni0394" horiz-adv-x="716" unicode="&#916;" /><glyph d="M11 0 34 130H169Q122 171 97 229.5Q72 288 72 357Q72 509 175 610.5Q278 712 438 712Q593 712 684.5 632Q776 552 776 423Q776 335 736.5 257.5Q697 180 627 130H736L713 0H419L445 149Q508 170 553 246Q598 322 598 409Q598 483 555 524.5Q512 566 433 566Q350 566 300 502Q250 438 250 331Q250 270 268 226Q286 182 319 161L291 0Z" glyph-name="uni03A9" horiz-adv-x="812" unicode="&#937;" /><glyph d="M585 512 495 0H337L348 63Q322 26 286 7Q250 -12 207 -12Q196 -12 185 -11Q174 -10 161 -7L167 -78L142 -218H-26L102 512H271L219 209Q212 168 226.5 147.5Q241 127 277 127Q311 127 334 151.5Q357 176 365 219L417 512Z" glyph-name="uni03BC" horiz-adv-x="597" unicode="&#956;" /><glyph d="M272 414 199 0H23L99 429Q126 580 204.5 646Q283 712 425 712Q514 712 599 673Q684 634 733 579L579 390L583 388Q644 358 674.5 315Q705 272 705 218Q705 113 630.5 50.5Q556 -12 436 -12Q394 -12 355.5 -6.5Q317 -1 279 10L319 148Q353 139 380 134.5Q407 130 431 130Q479 130 504 149.5Q529 169 529 206Q529 235 507.5 253.5Q486 272 436 285L369 302L378 356L522 541Q498 554 472.5 561Q447 568 420 568Q357 568 322 533.5Q287 499 272 414Z" glyph-name="uni1E9E" horiz-adv-x="750" unicode="&#7838;" /><glyph d="M115 218 60 198 30 306 138 348 170 533Q185 619 238 665.5Q291 712 374 712Q448 712 491.5 674Q535 636 535 572Q535 489 469 406Q403 323 301 279L294 276L278 186Q272 155 283.5 142Q295 129 326 129Q347 129 365 133Q383 137 408 147L428 21Q394 5 357.5 -3.5Q321 -12 284 -12Q187 -12 139 37Q91 86 105 163ZM368 587Q359 587 352 579Q345 571 343 558L320 430L324 433Q353 455 370.5 490Q388 525 388 560Q388 573 382.5 580Q377 587 368 587Z" glyph-name="uni2113" horiz-adv-x="507" /><glyph d="M660 139Q654 139 647 137.5Q640 136 635 133L607 200L682 256H559L576 350H840L827 276L744 214Q776 202 794.5 178.5Q813 155 813 124Q813 63 774 28.5Q735 -6 664 -6Q607 -6 567.5 18.5Q528 43 510 90L601 137Q614 108 626.5 98Q639 88 657 88Q673 88 681.5 95Q690 102 690 116Q690 127 682.5 133Q675 139 660 139ZM63 350 79 444H156L178 574Q159 566 136 561.5Q113 557 86 557L103 654Q141 654 175 667.5Q209 681 225 700H324L279 444H356L339 350ZM304 0H188L595 700H711Z" glyph-name="uni2153" horiz-adv-x="870" unicode="&#8531;" /><glyph d="M371 350H68L87 451L218 532Q245 549 257 561Q269 573 269 586Q269 596 263 601.5Q257 607 246 607Q231 607 221 600Q211 593 197 570L92 608Q117 656 158.5 681Q200 706 255 706Q320 706 356.5 675.5Q393 645 393 594Q393 555 369.5 525Q346 495 272 454L263 449H388ZM694 139Q688 139 681 137.5Q674 136 669 133L641 200L716 256H593L610 350H874L861 276L778 214Q810 202 828.5 178.5Q847 155 847 124Q847 63 808 28.5Q769 -6 698 -6Q641 -6 601.5 18.5Q562 43 544 90L635 137Q648 108 660.5 98Q673 88 691 88Q707 88 715.5 95Q724 102 724 116Q724 127 716.5 133Q709 139 694 139ZM338 0H222L629 700H745Z" glyph-name="uni2154" horiz-adv-x="907" unicode="&#8532;" /><glyph d="M669 231Q723 231 755 202.5Q787 174 787 130Q787 73 744 33.5Q701 -6 635 -6Q573 -6 533.5 15Q494 36 471 78L563 130Q572 109 588 100Q604 91 628 91Q644 91 653.5 99.5Q663 108 663 123Q663 136 654 143Q645 150 627 150Q617 150 608 147.5Q599 145 594 140L512 174L564 350H805L788 256H637L627 224Q638 228 648 229.5Q658 231 669 231ZM64 350 80 444H157L179 574Q160 566 137 561.5Q114 557 87 557L104 654Q142 654 176 667.5Q210 681 226 700H325L280 444H357L340 350ZM305 0H189L596 700H712Z" glyph-name="uni2155" horiz-adv-x="842" unicode="&#8533;" /><glyph d="M371 350H68L87 451L218 532Q245 549 257 561Q269 573 269 586Q269 596 263 601.5Q257 607 246 607Q231 607 221 600Q211 593 197 570L92 608Q117 656 158.5 681Q200 706 255 706Q320 706 356.5 675.5Q393 645 393 594Q393 555 369.5 525Q346 495 272 454L263 449H388ZM702 231Q756 231 788 202.5Q820 174 820 130Q820 73 777 33.5Q734 -6 668 -6Q606 -6 566.5 15Q527 36 504 78L596 130Q605 109 621 100Q637 91 661 91Q677 91 686.5 99.5Q696 108 696 123Q696 136 687 143Q678 150 660 150Q650 150 641 147.5Q632 145 627 140L545 174L597 350H838L821 256H670L660 224Q671 228 681 229.5Q691 231 702 231ZM338 0H222L629 700H745Z" glyph-name="uni2156" horiz-adv-x="876" unicode="&#8534;" /><glyph d="M642 231Q696 231 728 202.5Q760 174 760 130Q760 73 717 33.5Q674 -6 608 -6Q546 -6 506.5 15Q467 36 444 78L536 130Q545 109 561 100Q577 91 601 91Q617 91 626.5 99.5Q636 108 636 123Q636 136 627 143Q618 150 600 150Q590 150 581 147.5Q572 145 567 140L485 174L537 350H778L761 256H610L600 224Q611 228 621 229.5Q631 231 642 231ZM211 489Q205 489 198 487.5Q191 486 186 483L158 550L233 606H110L127 700H391L378 626L295 564Q327 552 345.5 528.5Q364 505 364 474Q364 413 325 378.5Q286 344 215 344Q158 344 118.5 368.5Q79 393 61 440L152 487Q165 458 177.5 448Q190 438 208 438Q224 438 232.5 445Q241 452 241 466Q241 477 233.5 483Q226 489 211 489ZM278 0H162L569 700H685Z" glyph-name="uni2157" horiz-adv-x="819" unicode="&#8535;" /><glyph d="M259 502 265 538 389 581 375 502H414L397 406H358L348 350H232L242 406H55L71 499L242 700H379L208 502ZM707 231Q761 231 793 202.5Q825 174 825 130Q825 73 782 33.5Q739 -6 673 -6Q611 -6 571.5 15Q532 36 509 78L601 130Q610 109 626 100Q642 91 666 91Q682 91 691.5 99.5Q701 108 701 123Q701 136 692 143Q683 150 665 150Q655 150 646 147.5Q637 145 632 140L550 174L602 350H843L826 256H675L665 224Q676 228 686 229.5Q696 231 707 231ZM343 0H227L634 700H750Z" glyph-name="uni2158" horiz-adv-x="883" unicode="&#8536;" /><glyph d="M680 225Q723 225 750 197.5Q777 170 777 128Q777 68 733 31Q689 -6 618 -6Q554 -6 511.5 27.5Q469 61 469 111Q469 141 482 171Q495 201 522 233L620 350H762L655 221Q661 223 667 224Q673 225 680 225ZM655 120Q655 134 647 142Q639 150 625 150Q609 150 600 140Q591 130 591 113Q591 99 599 91Q607 83 621 83Q637 83 646 93Q655 103 655 120ZM68 350 84 444H161L183 574Q164 566 141 561.5Q118 557 91 557L108 654Q146 654 180 667.5Q214 681 230 700H329L284 444H361L344 350ZM309 0H193L600 700H716Z" glyph-name="uni2159" horiz-adv-x="830" unicode="&#8537;" /><glyph d="M256 581Q310 581 342 552.5Q374 524 374 480Q374 423 331 383.5Q288 344 222 344Q160 344 120.5 365Q81 386 58 428L150 480Q159 459 175 450Q191 441 215 441Q231 441 240.5 449.5Q250 458 250 473Q250 486 241 493Q232 500 214 500Q204 500 195 497.5Q186 495 181 490L99 524L151 700H392L375 606H224L214 574Q225 578 235 579.5Q245 581 256 581ZM674 225Q717 225 744 197.5Q771 170 771 128Q771 68 727 31Q683 -6 612 -6Q548 -6 505.5 27.5Q463 61 463 111Q463 141 476 171Q489 201 516 233L614 350H756L649 221Q655 223 661 224Q667 225 674 225ZM649 120Q649 134 641 142Q633 150 619 150Q603 150 594 140Q585 130 585 113Q585 99 593 91Q601 83 615 83Q631 83 640 93Q649 103 649 120ZM303 0H187L594 700H710Z" glyph-name="uni215A" horiz-adv-x="825" unicode="&#8538;" /><glyph d="M569 186Q554 199 546 216Q538 233 538 252Q538 298 576 327Q614 356 676 356Q739 356 779 328.5Q819 301 819 261Q819 232 803.5 208Q788 184 760 171Q779 159 788.5 142Q798 125 798 105Q798 54 758 24Q718 -6 650 -6Q584 -6 542.5 22.5Q501 51 501 95Q501 124 519 148.5Q537 173 569 186ZM677 269Q665 269 656 260.5Q647 252 647 239Q647 227 654 220Q661 213 673 213Q687 213 695 222.5Q703 232 703 246Q703 256 696 262.5Q689 269 677 269ZM652 137Q637 137 628.5 128.5Q620 120 620 107Q620 94 628 87Q636 80 649 80Q663 80 672 89Q681 98 681 112Q681 124 673.5 130.5Q666 137 652 137ZM65 350 81 444H158L180 574Q161 566 138 561.5Q115 557 88 557L105 654Q143 654 177 667.5Q211 681 227 700H326L281 444H358L341 350ZM306 0H190L597 700H713Z" glyph-name="uni215B" horiz-adv-x="856" unicode="&#8539;" /><glyph d="M541 186Q526 199 518 216Q510 233 510 252Q510 298 548 327Q586 356 648 356Q711 356 751 328.5Q791 301 791 261Q791 232 775.5 208Q760 184 732 171Q751 159 760.5 142Q770 125 770 105Q770 54 730 24Q690 -6 622 -6Q556 -6 514.5 22.5Q473 51 473 95Q473 124 491 148.5Q509 173 541 186ZM649 269Q637 269 628 260.5Q619 252 619 239Q619 227 626 220Q633 213 645 213Q659 213 667 222.5Q675 232 675 246Q675 256 668 262.5Q661 269 649 269ZM624 137Q609 137 600.5 128.5Q592 120 592 107Q592 94 600 87Q608 80 621 80Q635 80 644 89Q653 98 653 112Q653 124 645.5 130.5Q638 137 624 137ZM211 489Q205 489 198 487.5Q191 486 186 483L158 550L233 606H110L127 700H391L378 626L295 564Q327 552 345.5 528.5Q364 505 364 474Q364 413 325 378.5Q286 344 215 344Q158 344 118.5 368.5Q79 393 61 440L152 487Q165 458 177.5 448Q190 438 208 438Q224 438 232.5 445Q241 452 241 466Q241 477 233.5 483Q226 489 211 489ZM278 0H162L569 700H685Z" glyph-name="uni215C" horiz-adv-x="831" unicode="&#8540;" /><glyph d="M566 186Q551 199 543 216Q535 233 535 252Q535 298 573 327Q611 356 673 356Q736 356 776 328.5Q816 301 816 261Q816 232 800.5 208Q785 184 757 171Q776 159 785.5 142Q795 125 795 105Q795 54 755 24Q715 -6 647 -6Q581 -6 539.5 22.5Q498 51 498 95Q498 124 516 148.5Q534 173 566 186ZM674 269Q662 269 653 260.5Q644 252 644 239Q644 227 651 220Q658 213 670 213Q684 213 692 222.5Q700 232 700 246Q700 256 693 262.5Q686 269 674 269ZM649 137Q634 137 625.5 128.5Q617 120 617 107Q617 94 625 87Q633 80 646 80Q660 80 669 89Q678 98 678 112Q678 124 670.5 130.5Q663 137 649 137ZM256 581Q310 581 342 552.5Q374 524 374 480Q374 423 331 383.5Q288 344 222 344Q160 344 120.5 365Q81 386 58 428L150 480Q159 459 175 450Q191 441 215 441Q231 441 240.5 449.5Q250 458 250 473Q250 486 241 493Q232 500 214 500Q204 500 195 497.5Q186 495 181 490L99 524L151 700H392L375 606H224L214 574Q225 578 235 579.5Q245 581 256 581ZM303 0H187L594 700H710Z" glyph-name="uni215D" horiz-adv-x="857" unicode="&#8541;" /><glyph d="M234 601H94L112 700H384L367 607L190 350H59ZM492 186Q477 199 469 216Q461 233 461 252Q461 298 499 327Q537 356 599 356Q662 356 702 328.5Q742 301 742 261Q742 232 726.5 208Q711 184 683 171Q702 159 711.5 142Q721 125 721 105Q721 54 681 24Q641 -6 573 -6Q507 -6 465.5 22.5Q424 51 424 95Q424 124 442 148.5Q460 173 492 186ZM600 269Q588 269 579 260.5Q570 252 570 239Q570 227 577 220Q584 213 596 213Q610 213 618 222.5Q626 232 626 246Q626 256 619 262.5Q612 269 600 269ZM575 137Q560 137 551.5 128.5Q543 120 543 107Q543 94 551 87Q559 80 572 80Q586 80 595 89Q604 98 604 112Q604 124 596.5 130.5Q589 137 575 137ZM229 0H113L520 700H636Z" glyph-name="uni215E" horiz-adv-x="779" unicode="&#8542;" /><glyph d="M78 350 94 444H171L193 574Q174 566 151 561.5Q128 557 101 557L118 654Q156 654 190 667.5Q224 681 240 700H339L294 444H371L354 350ZM319 0H203L610 700H726Z" glyph-name="uni215F" horiz-adv-x="509" unicode="&#8543;" /><glyph d="M55 0H-61L346 700H462Z" glyph-name="uni2215" horiz-adv-x="370" unicode="&#8725;" /><glyph d="M103 400Q103 338.5 148 295.75Q193 253 257.5 253Q322 253 367.75 295.75Q413.5 338.5 413.5 400Q413.5 461.5 368.5 502.75Q323.5 544 257.5 544Q193 544 148 502Q103 460 103 400ZM139 397Z" glyph-name="uni2219" horiz-adv-x="469" /><glyph d="M1414 529H76V537H1414ZM1221 257Q1221 262 1221 287.5Q1221 313 1220 332L1191 330V334Q1191 344 1194 349Q1197 354 1203 354H1220L1217 384Q1236 390 1240.5 391Q1245 392 1249 392Q1254 392 1257 390Q1260 388 1260 384V355H1307V352Q1307 341 1304 336Q1301 331 1295 331H1260V241Q1260 233 1264 229.5Q1268 226 1276 226Q1282 226 1289 227Q1296 228 1310 231Q1330 235 1340.5 236Q1351 237 1361 237Q1383 237 1403 230.5Q1423 224 1423 213Q1423 200 1414.5 192.5Q1406 185 1396 185Q1394 185 1391 186Q1388 187 1380 192Q1361 202 1348.5 205.5Q1336 209 1325 209Q1321 209 1316 208.5Q1311 208 1299 206Q1281 203 1270 202Q1259 201 1249 201Q1232 201 1227 210.5Q1222 220 1221 257ZM1204 290Q1204 278 1198 270.5Q1192 263 1179 258Q1170 255 1160 253.5Q1150 252 1135 252Q1136 242 1143 236Q1150 230 1161 230Q1170 230 1177.5 232Q1185 234 1193 239Q1197 236 1199 232Q1201 228 1201 223Q1201 214 1188.5 207Q1176 200 1154 200Q1126 200 1110 214.5Q1094 229 1094 253Q1094 282 1113 301.5Q1132 321 1163 321Q1181 321 1192.5 312Q1204 303 1204 290ZM881 290Q881 278 875 270.5Q869 263 856 258Q847 255 837 253.5Q827 252 812 252Q813 242 820 236Q827 230 838 230Q847 230 854.5 232Q862 234 870 239Q874 236 876 232Q878 228 878 223Q878 214 865.5 207Q853 200 831 200Q803 200 787 214.5Q771 229 771 253Q771 282 790 301.5Q809 321 840 321Q858 321 869.5 312Q881 303 881 290ZM182 290Q182 278 176 270.5Q170 263 157 258Q148 255 138 253.5Q128 252 113 252Q114 242 121 236Q128 230 139 230Q148 230 155.5 232Q163 234 171 239Q175 236 177 232Q179 228 179 223Q179 214 166.5 207Q154 200 132 200Q104 200 88 214.5Q72 229 72 253Q72 282 91 301.5Q110 321 141 321Q159 321 170.5 312Q182 303 182 290ZM1049 321Q1063 321 1070.5 313Q1078 305 1078 289V240L1080 208Q1061 202 1056.5 201Q1052 200 1049 200Q1044 200 1041 202Q1038 204 1038 208V275Q1038 283 1036 286.5Q1034 290 1030 290Q1023 290 1013.5 272.5Q1004 255 1004 242L1007 208Q988 202 983.5 201Q979 200 975 200Q970 200 967 202Q964 204 964 208V277L961 313Q980 319 984.5 320Q989 321 993 321Q998 321 1001 318.5Q1004 316 1004 312V272Q1013 296 1024 308.5Q1035 321 1049 321ZM359 321Q373 321 380 313Q387 305 387 289V240L390 208Q371 202 366.5 201Q362 200 359 200Q354 200 351 202Q348 204 348 208V274Q348 283 346 286.5Q344 290 340 290Q333 290 323.5 272.5Q314 255 314 242L316 208Q297 202 292.5 201Q288 200 285 200Q280 200 277 202Q274 204 274 208V274Q274 283 272 286.5Q270 290 266 290Q259 290 249.5 272.5Q240 255 240 242L243 208Q224 202 219.5 201Q215 200 211 200Q206 200 203 202Q200 204 200 208V277L197 313Q216 319 220.5 320Q225 321 229 321Q234 321 237 318.5Q240 316 240 312V272Q246 292 258 306.5Q270 321 285 321Q299 321 306.5 313Q314 305 314 289V272Q320 294 332 307.5Q344 321 359 321ZM835 298Q826 298 819.5 288.5Q813 279 811 264Q827 264 837.5 269.5Q848 275 848 285Q848 291 844.5 294.5Q841 298 835 298ZM1158 298Q1149 298 1142.5 288.5Q1136 279 1134 264Q1150 264 1160.5 269.5Q1171 275 1171 285Q1171 291 1167.5 294.5Q1164 298 1158 298ZM136 298Q127 298 120.5 288.5Q114 279 112 264Q128 264 138.5 269.5Q149 275 149 285Q149 291 145.5 294.5Q142 298 136 298ZM671 242V219Q694 222 705 235Q716 248 716 270Q716 280 712.5 285Q709 290 703 290Q691 290 681 272Q671 254 671 242ZM896 226Q896 236 903 243Q910 250 921 250Q932 250 939.5 243Q947 236 947 226Q947 216 939.5 209.5Q932 203 921 203Q910 203 903 209.5Q896 216 896 226ZM718 320Q736 320 747 306Q758 292 758 269Q758 236 735.5 218.5Q713 201 671 201V161L674 129Q655 123 650.5 122Q646 121 642 121Q637 121 634 123Q631 125 631 129V204L606 201V198Q606 160 588.5 139.5Q571 119 538 119Q519 119 508 128.5Q497 138 497 153Q497 171 513.5 184Q530 197 567 206V248Q559 225 547 212.5Q535 200 521 200Q507 200 500 207.5Q493 215 493 231V234Q483 217 470 209Q457 201 440 201Q427 201 419 209Q411 217 411 231V332L382 330V334Q382 344 385 349Q388 354 394 354H411L408 384Q427 390 431.5 391Q436 392 440 392Q445 392 448 390Q451 388 451 384V355H498V352Q498 341 495 336Q492 331 486 331H451V245Q451 237 454 233Q457 229 464 229Q474 229 483.5 237Q493 245 493 255V280L490 313Q509 319 513.5 320Q518 321 522 321Q527 321 530 318.5Q533 316 533 312V246Q533 238 534.5 234.5Q536 231 540 231Q547 231 556.5 248Q566 265 566 279L564 313Q583 319 587.5 320Q592 321 595 321Q600 321 603 318.5Q606 316 606 312V213L631 216V277L628 313Q647 319 651.5 320Q656 321 660 321Q665 321 668 318.5Q671 316 671 312V272Q679 295 691 307.5Q703 320 718 320ZM539 148Q551 148 558 159Q565 170 566 194Q547 190 536 181.5Q525 173 525 162Q525 155 529 151.5Q533 148 539 148ZM1414 0H76V8H1414Z" glyph-name="uniF8FF" horiz-adv-x="1495" unicode="&#63743;" /><glyph d="M412 512H580L490 0H405Q373 -22 357 -47.5Q341 -73 341 -102Q341 -128 356 -141.5Q371 -155 398 -155Q406 -155 415 -154Q424 -153 435 -150L421 -224Q404 -231 386 -234.5Q368 -238 344 -238Q296 -238 266.5 -211.5Q237 -185 237 -140Q237 -98 261 -62Q285 -26 332 0L343 63Q317 26 281 7Q245 -12 202 -12Q118 -12 72 45.5Q26 103 41 190L97 512H266L214 209Q207 168 221.5 147.5Q236 127 272 127Q306 127 329 151.5Q352 176 360 219Z" glyph-name="uogonek" horiz-adv-x="592" unicode="&#371;" /><glyph d="M580 512 490 0H332L343 63Q317 26 281 7Q245 -12 202 -12Q118 -12 72 45.5Q26 103 41 190L97 512H266L214 209Q207 168 221.5 147.5Q236 127 272 127Q306 127 329 151.5Q352 176 360 219L412 512ZM339 512ZM435 0ZM477 678Q477 727 442 762Q407 797 358 797Q308 797 274 762Q240 727 240 678Q240 629 274 594.5Q308 560 358 560Q408 560 442.5 594.5Q477 629 477 678ZM316 678Q316 695 329 708Q342 721 358 721Q375 721 388 708Q401 695 401 678Q401 662 388 649Q375 636 358 636Q342 636 329 649Q316 662 316 678ZM339 512Z" glyph-name="uring" horiz-adv-x="592" unicode="&#367;" /><glyph d="M580 512 490 0H332L343 63Q317 26 281 7Q245 -12 202 -12Q118 -12 72 45.5Q26 103 41 190L97 512H266L214 209Q207 168 221.5 147.5Q236 127 272 127Q306 127 329 151.5Q352 176 360 219L412 512ZM339 512ZM435 0ZM360 607Q388 595 403 591Q418 587 433 587Q478 587 502 627Q526 667 521 728H428Q427 713 423 707.5Q419 702 408 702Q399 702 388 705Q377 708 354 717Q325 730 308 734Q291 738 275 738Q227 738 196.5 695Q166 652 172 597H267Q270 611 277.5 618Q285 625 299 625Q311 625 323.5 621.5Q336 618 360 607ZM339 512Z" glyph-name="utilde" horiz-adv-x="592" unicode="&#361;" /><glyph d="M151 0 53 512H226L270 194L425 512H602L323 0Z" glyph-name="v" horiz-adv-x="564" unicode="v" /><glyph d="M122 0 54 512H212L237 200L362 512H514L533 199L665 512H828L580 0H425L401 288L277 0ZM439 512Z" glyph-name="w" horiz-adv-x="792" unicode="w" /><glyph d="M122 0 54 512H212L237 200L362 512H514L533 199L665 512H828L580 0H425L401 288L277 0ZM439 512ZM634 740H476L371 587H511ZM439 512Z" glyph-name="wacute" horiz-adv-x="792" unicode="&#7811;" /><glyph d="M122 0 54 512H212L237 200L362 512H514L533 199L665 512H828L580 0H425L401 288L277 0ZM439 512ZM248 587 368 740H549L641 587H507L451 661L382 587ZM439 512Z" glyph-name="wcircumflex" horiz-adv-x="792" unicode="&#373;" /><glyph d="M122 0 54 512H212L237 200L362 512H514L533 199L665 512H828L580 0H425L401 288L277 0ZM439 512ZM287 663Q287 631 309 608.5Q331 586 363 586Q395 586 418 608.5Q441 631 441 663Q441 695 418 718Q395 741 363 741Q332 741 309.5 718Q287 695 287 663ZM481 663Q481 631 503.5 608.5Q526 586 558 586Q590 586 612.5 608.5Q635 631 635 663Q635 695 612 718Q589 741 558 741Q526 741 503.5 718Q481 695 481 663ZM439 512Z" glyph-name="wdieresis" horiz-adv-x="792" unicode="&#7813;" /><glyph d="M122 0 54 512H212L237 200L362 512H514L533 199L665 512H828L580 0H425L401 288L277 0ZM439 512ZM506 587 429 740H278L373 587ZM439 512Z" glyph-name="wgrave" horiz-adv-x="792" unicode="&#7809;" /><glyph d="M192 263 52 512H236L305 377L419 512H606L374 256L525 0H338L263 141L140 0H-47Z" glyph-name="x" horiz-adv-x="566" unicode="x" /><glyph d="M152 -7 52 512H226L270 196L425 512H602L206 -218H35ZM326 512Z" glyph-name="y" horiz-adv-x="564" unicode="y" /><glyph d="M152 -7 52 512H226L270 196L425 512H602L206 -218H35ZM326 512ZM521 740H363L258 587H398ZM326 512Z" glyph-name="yacute" horiz-adv-x="564" unicode="&#253;" /><glyph d="M152 -7 52 512H226L270 196L425 512H602L206 -218H35ZM326 512ZM135 587 255 740H436L528 587H394L338 661L269 587ZM326 512Z" glyph-name="ycircumflex" horiz-adv-x="564" unicode="&#375;" /><glyph d="M152 -7 52 512H226L270 196L425 512H602L206 -218H35ZM326 512ZM174 663Q174 631 196 608.5Q218 586 250 586Q282 586 305 608.5Q328 631 328 663Q328 695 305 718Q282 741 250 741Q219 741 196.5 718Q174 695 174 663ZM368 663Q368 631 390.5 608.5Q413 586 445 586Q477 586 499.5 608.5Q522 631 522 663Q522 695 499 718Q476 741 445 741Q413 741 390.5 718Q368 695 368 663ZM326 512Z" glyph-name="ydieresis" horiz-adv-x="564" unicode="&#255;" /><glyph d="M231 132H65L82 228H248L257 278H91L108 374H223L106 700H285L369 430L542 700H730L506 374H615L598 278H440L429 262L423 228H589L572 132H406L383 0H208Z" glyph-name="yen" horiz-adv-x="683" unicode="&#165;" /><glyph d="M152 -7 52 512H226L270 196L425 512H602L206 -218H35ZM326 512ZM393 587 316 740H165L260 587ZM326 512Z" glyph-name="ygrave" horiz-adv-x="564" unicode="&#7923;" /><glyph d="M231 139H481L457 0H-16L4 113L290 373H65L89 512H531L510 393ZM310 512Z" glyph-name="z" horiz-adv-x="530" unicode="z" /><glyph d="M231 139H481L457 0H-16L4 113L290 373H65L89 512H531L510 393ZM310 512ZM505 740H347L242 587H382ZM310 512Z" glyph-name="zacute" horiz-adv-x="530" unicode="&#378;" /><glyph d="M231 139H481L457 0H-16L4 113L290 373H65L89 512H531L510 393ZM310 512ZM406 587H225L133 740H267L323 666L392 740H526ZM310 512Z" glyph-name="zcaron" horiz-adv-x="530" unicode="&#382;" /><glyph d="M231 139H481L457 0H-16L4 113L290 373H65L89 512H531L510 393ZM310 512ZM237 663Q237 626 264.5 600.5Q292 575 330 575Q369 575 396.5 600.5Q424 626 424 663Q424 699 396.5 724Q369 749 330 749Q292 749 264.5 724Q237 699 237 663ZM310 512Z" glyph-name="zdotaccent" horiz-adv-x="530" unicode="&#380;" /><glyph d="M339 -12Q493 -12 588.5 107.5Q684 227 684 417Q684 552 608.5 632Q533 712 402 712Q248 712 152 591.5Q56 471 56 282Q56 148 132 68Q208 -12 339 -12ZM507 416Q507 295 460.5 214Q414 133 343 133Q290 133 261.5 172.5Q233 212 233 283Q233 404 280 485.5Q327 567 397 567Q450 567 478.5 527.5Q507 488 507 416Z" glyph-name="zero" horiz-adv-x="706" unicode="0" /><glyph d="M361 199Q361 271 316.5 313.5Q272 356 197 356Q111 356 59 299.5Q7 243 7 150Q7 78 51.5 36Q96 -6 172 -6Q258 -6 309.5 50Q361 106 361 199ZM237 195Q237 151 219 122.5Q201 94 173 94Q152 94 141.5 109.5Q131 125 131 154Q131 198 149 227Q167 256 195 256Q215 256 226 240Q237 224 237 195Z" glyph-name="zero.denominator" horiz-adv-x="397" unicode="&#63061;" /><glyph d="M337 59Q337 131 292.5 173.5Q248 216 173 216Q87 216 35 159.5Q-17 103 -17 10Q-17 -62 27.5 -104Q72 -146 148 -146Q234 -146 285.5 -90Q337 -34 337 59ZM213 55Q213 11 195 -17.5Q177 -46 149 -46Q128 -46 117.5 -30.5Q107 -15 107 14Q107 58 125 87Q143 116 171 116Q191 116 202 100Q213 84 213 55Z" glyph-name="zero.inferior" horiz-adv-x="397" unicode="&#8320;" /><glyph d="M423 549Q423 621 378.5 663.5Q334 706 259 706Q173 706 121 649.5Q69 593 69 500Q69 428 113.5 386Q158 344 234 344Q320 344 371.5 400Q423 456 423 549ZM299 545Q299 501 281 472.5Q263 444 235 444Q214 444 203.5 459.5Q193 475 193 504Q193 548 211 577Q229 606 257 606Q277 606 288 590Q299 574 299 545Z" glyph-name="zero.numerator" horiz-adv-x="397" unicode="&#63073;" /><glyph d="M448 689Q448 761 403.5 803.5Q359 846 284 846Q198 846 146 789.5Q94 733 94 640Q94 568 138.5 526Q183 484 259 484Q345 484 396.5 540Q448 596 448 689ZM324 685Q324 641 306 612.5Q288 584 260 584Q239 584 228.5 599.5Q218 615 218 644Q218 688 236 717Q254 746 282 746Q302 746 313 730Q324 714 324 685Z" glyph-name="zero.superior" horiz-adv-x="397" unicode="&#8304;" /><glyph d="M306 -12Q460 -12 555.5 107.5Q651 227 651 417Q651 552 575.5 632Q500 712 369 712Q215 712 119 591.5Q23 471 23 282Q23 148 99 68Q175 -12 306 -12ZM474 416Q474 295 427.5 214Q381 133 310 133Q257 133 228.5 172.5Q200 212 200 283Q200 404 247 485.5Q294 567 364 567Q417 567 445.5 527.5Q474 488 474 416Z" glyph-name="zero.tab" horiz-adv-x="640" unicode="&#65296;" /></font>
</defs>
</svg>
