<?xml version="1.0" standalone="no"?><!DOCTYPE svg PUBLIC "-//W3C//DTD SVG 1.1//EN" "http://www.w3.org/Graphics/SVG/1.1/DTD/svg11.dtd" ><svg version="1.1" xmlns="http://www.w3.org/2000/svg"><defs><font horiz-adv-x="0" id="font"><font-face ascent="750" bbox="-145 -230 1419 976" cap-height="700" descent="-250" font-family="Web use ONLY | Copyright (C) Emtype Foundry" font-stretch="normal" font-weight="400" units-per-em="1000" x-height="500" /><missing-glyph d="M52 351Q52 501 157.5 606.5Q263 712 413 712Q563 712 668.5 606.5Q774 501 774 351Q774 201 668 94.5Q562 -12 413 -12Q264 -12 158 94.5Q52 201 52 351ZM306 565H229L375 346L229 127H307L414 287L520 127H598L452 346L598 565H521L414 404Z" horiz-adv-x="826" /><glyph d="M176 167 82 0H-20L378 700H475L624 0H525L491 167ZM408 582 224 253H474ZM426 700ZM572 0Z" glyph-name="A" horiz-adv-x="693" unicode="A" /><glyph d="M211 167 80 0H-33L522 700H1053L1038 612H658L621 404H971L956 317H606L565 88H956L940 0H455L484 167ZM561 612 279 253H499L563 612Z" glyph-name="AE" horiz-adv-x="1040" unicode="&#198;" /><glyph d="M176 167 82 0H-20L378 700H475L624 0H525L491 167ZM408 582 224 253H474ZM426 700ZM572 0ZM598 930H492L391 787H475ZM426 700Z" glyph-name="Aacute" horiz-adv-x="693" unicode="&#193;" /><glyph d="M176 167 82 0H-20L378 700H475L624 0H525L491 167ZM408 582 224 253H474ZM426 700ZM572 0ZM439 846Q474 846 494 867.5Q514 889 516 930H580Q579 867 540.5 826Q502 785 436 785Q372 785 339 825.5Q306 866 310 930H374Q375 883 390 864.5Q405 846 439 846ZM426 700Z" glyph-name="Abreve" horiz-adv-x="693" unicode="&#258;" /><glyph d="M176 167 82 0H-20L378 700H475L624 0H525L491 167ZM408 582 224 253H474ZM426 700ZM572 0ZM306 787 404 930H505L579 787H504L450 870L381 787ZM426 700Z" glyph-name="Acircumflex" horiz-adv-x="693" unicode="&#194;" /><glyph d="M176 167 82 0H-20L378 700H475L624 0H525L491 167ZM408 582 224 253H474ZM426 700ZM572 0ZM304 858Q304 834 321 817Q338 800 362 800Q386 800 403.5 817Q421 834 421 858Q421 882 403.5 899.5Q386 917 362 917Q338 917 321 899.5Q304 882 304 858ZM471 858Q471 834 488 817Q505 800 529 800Q553 800 570.5 817Q588 834 588 858Q588 882 570.5 899.5Q553 917 529 917Q505 917 488 899.5Q471 882 471 858ZM426 700Z" glyph-name="Adieresis" horiz-adv-x="693" unicode="&#196;" /><glyph d="M176 167 82 0H-20L378 700H475L624 0H525L491 167ZM408 582 224 253H474ZM426 700ZM572 0ZM467 787 390 930H286L385 787ZM426 700Z" glyph-name="Agrave" horiz-adv-x="693" unicode="&#192;" /><glyph d="M176 167 82 0H-20L378 700H475L624 0H525L491 167ZM408 582 224 253H474ZM426 700ZM572 0ZM560 823H314L328 892H574ZM426 700Z" glyph-name="Amacron" horiz-adv-x="693" unicode="&#256;" /><glyph d="M176 167 82 0H-20L378 700H475L624 0H596Q549 -28 526 -57Q503 -86 503 -117Q503 -142 517 -154Q531 -166 560 -166Q568 -166 575.5 -165.5Q583 -165 592 -163L582 -216Q572 -221 560.5 -223Q549 -225 532 -225Q482 -225 454 -201Q426 -177 426 -135Q426 -93 451 -59Q476 -25 525 0L491 167ZM408 582 224 253H474Z" glyph-name="Aogonek" horiz-adv-x="693" unicode="&#260;" /><glyph d="M176 167 82 0H-20L378 700H475L624 0H525L491 167ZM408 582 224 253H474ZM426 700ZM572 0ZM553 868Q553 912 521.5 944Q490 976 445 976Q400 976 369 944.5Q338 913 338 868Q338 823 369 792Q400 761 445 761Q490 761 521.5 792.5Q553 824 553 868ZM396 868Q396 888 410.5 903Q425 918 445 918Q465 918 480 903Q495 888 495 868Q495 849 480 834Q465 819 445 819Q425 819 410.5 834Q396 849 396 868ZM426 700Z" glyph-name="Aring" horiz-adv-x="693" unicode="&#197;" /><glyph d="M176 167 82 0H-20L378 700H475L624 0H525L491 167ZM408 582 224 253H474ZM426 700ZM572 0ZM441 823Q466 810 479.5 805.5Q493 801 506 801Q540 801 560.5 827.5Q581 854 585 904H524Q522 887 516.5 880Q511 873 500 873Q492 873 481.5 876.5Q471 880 449 891Q420 906 405 910.5Q390 915 377 915Q339 915 315 888Q291 861 283 810H346Q350 828 358 836.5Q366 845 378 845Q390 845 403 841Q416 837 441 823ZM433 700Z" glyph-name="Atilde" horiz-adv-x="693" unicode="&#195;" /><glyph d="M57 0 181 700H470Q563 700 618 654.5Q673 609 673 537Q673 476 636 429Q599 382 533 358Q578 336 604.5 296Q631 256 631 210Q631 118 557.5 59Q484 0 379 0ZM576 525Q576 566 545.5 589.5Q515 613 460 613H261L223 403H427Q490 403 533 437.5Q576 472 576 525ZM534 218Q534 264 501.5 291Q469 318 412 318H208L167 86H395Q452 86 493 125Q534 164 534 218Z" glyph-name="B" horiz-adv-x="700" unicode="B" /><glyph d="M433 623Q323 623 245 531Q167 439 167 312Q167 203 225 139.5Q283 76 384 76Q445 76 494 110Q543 144 589 218L669 167Q618 80 542.5 34Q467 -12 376 -12Q238 -12 154 76Q70 164 70 303Q70 382 95.5 454.5Q121 527 169 584Q220 646 288.5 679Q357 712 433 712Q541 712 615 657Q689 602 716 503L626 468Q598 549 551.5 586Q505 623 433 623ZM379 10ZM438 700Z" glyph-name="C" horiz-adv-x="714" unicode="C" /><glyph d="M433 623Q323 623 245 531Q167 439 167 312Q167 203 225 139.5Q283 76 384 76Q445 76 494 110Q543 144 589 218L669 167Q618 80 542.5 34Q467 -12 376 -12Q238 -12 154 76Q70 164 70 303Q70 382 95.5 454.5Q121 527 169 584Q220 646 288.5 679Q357 712 433 712Q541 712 615 657Q689 602 716 503L626 468Q598 549 551.5 586Q505 623 433 623ZM379 10ZM438 700ZM610 930H504L403 787H487ZM438 700Z" glyph-name="Cacute" horiz-adv-x="714" unicode="&#262;" /><glyph d="M433 623Q323 623 245 531Q167 439 167 312Q167 203 225 139.5Q283 76 384 76Q445 76 494 110Q543 144 589 218L669 167Q618 80 542.5 34Q467 -12 376 -12Q238 -12 154 76Q70 164 70 303Q70 382 95.5 454.5Q121 527 169 584Q220 646 288.5 679Q357 712 433 712Q541 712 615 657Q689 602 716 503L626 468Q598 549 551.5 586Q505 623 433 623ZM379 10ZM438 700ZM496 787H395L321 930H396L450 847L519 930H594ZM438 700Z" glyph-name="Ccaron" horiz-adv-x="714" unicode="&#268;" /><glyph d="M286 -105 272 -80 340 -10Q217 1 143.5 87.5Q70 174 70 303Q70 382 95.5 454.5Q121 527 169 584Q220 646 288.5 679Q357 712 433 712Q541 712 615 657Q689 602 716 503L626 468Q598 549 551.5 586Q505 623 433 623Q323 623 245 531Q167 439 167 312Q167 203 225 139.5Q283 76 384 76Q445 76 494 110Q543 144 589 218L669 167Q621 86 552 40Q483 -6 400 -11L350 -60H357Q398 -60 420 -79Q442 -98 442 -130Q442 -173 409.5 -199Q377 -225 324 -225Q301 -225 278 -219Q255 -213 236 -202L244 -153Q266 -166 281.5 -170Q297 -174 316 -174Q342 -174 355.5 -163.5Q369 -153 369 -132Q369 -117 355 -108.5Q341 -100 318 -100Q310 -100 302 -101.5Q294 -103 286 -105Z" glyph-name="Ccedilla" horiz-adv-x="714" unicode="&#199;" /><glyph d="M433 623Q323 623 245 531Q167 439 167 312Q167 203 225 139.5Q283 76 384 76Q445 76 494 110Q543 144 589 218L669 167Q618 80 542.5 34Q467 -12 376 -12Q238 -12 154 76Q70 164 70 303Q70 382 95.5 454.5Q121 527 169 584Q220 646 288.5 679Q357 712 433 712Q541 712 615 657Q689 602 716 503L626 468Q598 549 551.5 586Q505 623 433 623ZM379 10ZM438 700ZM318 787 416 930H517L591 787H516L462 870L393 787ZM438 700Z" glyph-name="Ccircumflex" horiz-adv-x="714" unicode="&#264;" /><glyph d="M433 623Q323 623 245 531Q167 439 167 312Q167 203 225 139.5Q283 76 384 76Q445 76 494 110Q543 144 589 218L669 167Q618 80 542.5 34Q467 -12 376 -12Q238 -12 154 76Q70 164 70 303Q70 382 95.5 454.5Q121 527 169 584Q220 646 288.5 679Q357 712 433 712Q541 712 615 657Q689 602 716 503L626 468Q598 549 551.5 586Q505 623 433 623ZM379 10ZM438 700ZM393 858Q393 831 412 812Q431 793 458 793Q485 793 504 812Q523 831 523 858Q523 885 504 904Q485 923 458 923Q431 923 412 904Q393 885 393 858ZM438 700Z" glyph-name="Cdotaccent" horiz-adv-x="714" unicode="&#266;" /><glyph d="M57 0 181 700H410Q552 700 639.5 612.5Q727 525 727 394Q727 309 695 235.5Q663 162 603 108Q545 56 468.5 28Q392 0 308 0ZM630 387Q630 484 565 547.5Q500 611 394 611H260L168 89H323Q451 89 540.5 176Q630 263 630 387ZM445 700Z" glyph-name="D" horiz-adv-x="761" unicode="D" /><glyph d="M57 0 181 700H410Q552 700 639.5 612.5Q727 525 727 394Q727 309 695 235.5Q663 162 603 108Q545 56 468.5 28Q392 0 308 0ZM630 387Q630 484 565 547.5Q500 611 394 611H260L168 89H323Q451 89 540.5 176Q630 263 630 387ZM445 700ZM503 787H402L328 930H403L457 847L526 930H601ZM445 700Z" glyph-name="Dcaron" horiz-adv-x="761" unicode="&#270;" /><glyph d="M28 312 42 388H146L201 700H430Q572 700 659.5 612.5Q747 525 747 394Q747 309 715 235.5Q683 162 623 108Q565 56 488.5 28Q412 0 328 0H77L132 312ZM650 387Q650 484 585 547.5Q520 611 414 611H280L241 388H450L436 312H227L188 89H343Q471 89 560.5 176Q650 263 650 387Z" glyph-name="Dcroat" horiz-adv-x="781" unicode="&#272;" /><glyph d="M-8 0 6 70 371 700H468L610 70L596 0ZM400 580 117 86H506Z" glyph-name="Delta" horiz-adv-x="679" unicode="&#8710;" /><glyph d="M57 0 180 700H655L640 612H260L223 404H573L558 317H208L167 88H558L542 0ZM419 700ZM493 0Z" glyph-name="E" horiz-adv-x="642" unicode="E" /><glyph d="M57 0 180 700H655L640 612H260L223 404H573L558 317H208L167 88H558L542 0ZM419 700ZM493 0ZM591 930H485L384 787H468ZM419 700Z" glyph-name="Eacute" horiz-adv-x="642" unicode="&#201;" /><glyph d="M57 0 180 700H655L640 612H260L223 404H573L558 317H208L167 88H558L542 0ZM419 700ZM493 0ZM432 846Q467 846 487 867.5Q507 889 509 930H573Q572 867 533.5 826Q495 785 429 785Q365 785 332 825.5Q299 866 303 930H367Q368 883 383 864.5Q398 846 432 846ZM419 700Z" glyph-name="Ebreve" horiz-adv-x="642" unicode="&#276;" /><glyph d="M57 0 180 700H655L640 612H260L223 404H573L558 317H208L167 88H558L542 0ZM419 700ZM493 0ZM477 787H376L302 930H377L431 847L500 930H575ZM419 700Z" glyph-name="Ecaron" horiz-adv-x="642" unicode="&#282;" /><glyph d="M57 0 180 700H655L640 612H260L223 404H573L558 317H208L167 88H558L542 0ZM419 700ZM493 0ZM299 787 397 930H498L572 787H497L443 870L374 787ZM419 700Z" glyph-name="Ecircumflex" horiz-adv-x="642" unicode="&#202;" /><glyph d="M57 0 180 700H655L640 612H260L223 404H573L558 317H208L167 88H558L542 0ZM419 700ZM493 0ZM297 858Q297 834 314 817Q331 800 355 800Q379 800 396.5 817Q414 834 414 858Q414 882 396.5 899.5Q379 917 355 917Q331 917 314 899.5Q297 882 297 858ZM464 858Q464 834 481 817Q498 800 522 800Q546 800 563.5 817Q581 834 581 858Q581 882 563.5 899.5Q546 917 522 917Q498 917 481 899.5Q464 882 464 858ZM419 700Z" glyph-name="Edieresis" horiz-adv-x="642" unicode="&#203;" /><glyph d="M57 0 180 700H655L640 612H260L223 404H573L558 317H208L167 88H558L542 0ZM419 700ZM493 0ZM374 858Q374 831 393 812Q412 793 439 793Q466 793 485 812Q504 831 504 858Q504 885 485 904Q466 923 439 923Q412 923 393 904Q374 885 374 858ZM419 700Z" glyph-name="Edotaccent" horiz-adv-x="642" unicode="&#278;" /><glyph d="M57 0 180 700H655L640 612H260L223 404H573L558 317H208L167 88H558L542 0ZM419 700ZM493 0ZM460 787 383 930H279L378 787ZM419 700Z" glyph-name="Egrave" horiz-adv-x="642" unicode="&#200;" /><glyph d="M57 0 180 700H655L640 612H260L223 404H573L558 317H208L167 88H558L542 0ZM419 700ZM493 0ZM553 823H307L321 892H567ZM419 700Z" glyph-name="Emacron" horiz-adv-x="642" unicode="&#274;" /><glyph d="M208 317 167 88H558L542 0H517Q470 -28 447 -57Q424 -86 424 -117Q424 -142 438 -154Q452 -166 481 -166Q489 -166 496.5 -165.5Q504 -165 513 -163L503 -216Q493 -221 481.5 -223Q470 -225 453 -225Q403 -225 375 -201Q347 -177 347 -135Q347 -93 372 -59Q397 -25 446 0H57L180 700H655L640 612H260L223 404H573L558 317Z" glyph-name="Eogonek" horiz-adv-x="642" unicode="&#280;" /><glyph d="M28 312 42 388H146L201 700H430Q572 700 659.5 612.5Q747 525 747 394Q747 309 715 235.5Q683 162 623 108Q565 56 488.5 28Q412 0 328 0H77L132 312ZM650 387Q650 484 585 547.5Q520 611 414 611H280L241 388H450L436 312H227L188 89H343Q471 89 560.5 176Q650 263 650 387Z" glyph-name="Eth" horiz-adv-x="781" unicode="&#208;" /><glyph d="M120 247H41L52 313H122Q123 331 125.5 348Q128 365 131 383H65L76 449H147Q183 570 258.5 641Q334 712 430 712Q526 712 587.5 657.5Q649 603 661 507L570 484Q558 555 523.5 590Q489 625 430 625Q373 625 324.5 578Q276 531 247 449H433L422 383H228Q224 359 222 343Q220 327 219 313H409L398 247H218Q222 163 259.5 118Q297 73 364 73Q412 73 451.5 107.5Q491 142 528 218L610 173Q566 81 502 34.5Q438 -12 355 -12Q247 -12 185 57Q123 126 120 247Z" glyph-name="Euro" horiz-adv-x="668" unicode="&#8364;" /><glyph d="M57 0 180 700H675L660 612H260L221 392H591L576 303H205L152 0Z" glyph-name="F" horiz-adv-x="638" unicode="F" /><glyph d="M421 270 436 357H717L654 0H572L587 89Q545 40 489 14Q433 -12 368 -12Q232 -12 151 73Q70 158 70 295Q70 378 95.5 452.5Q121 527 169 584Q221 645 292 678.5Q363 712 442 712Q553 712 630 658.5Q707 605 735 509L644 472Q620 547 568.5 585Q517 623 439 623Q383 623 330.5 595.5Q278 568 239 519Q204 475 185.5 419Q167 363 167 302Q167 199 226 138Q285 77 386 77Q471 77 534 127Q597 177 610 253L613 270ZM446 700ZM371 0Z" glyph-name="G" horiz-adv-x="762" unicode="G" /><glyph d="M421 270 436 357H717L654 0H572L587 89Q545 40 489 14Q433 -12 368 -12Q232 -12 151 73Q70 158 70 295Q70 378 95.5 452.5Q121 527 169 584Q221 645 292 678.5Q363 712 442 712Q553 712 630 658.5Q707 605 735 509L644 472Q620 547 568.5 585Q517 623 439 623Q383 623 330.5 595.5Q278 568 239 519Q204 475 185.5 419Q167 363 167 302Q167 199 226 138Q285 77 386 77Q471 77 534 127Q597 177 610 253L613 270ZM446 700ZM371 0ZM459 846Q494 846 514 867.5Q534 889 536 930H600Q599 867 560.5 826Q522 785 456 785Q392 785 359 825.5Q326 866 330 930H394Q395 883 410 864.5Q425 846 459 846ZM446 700Z" glyph-name="Gbreve" horiz-adv-x="762" unicode="&#286;" /><glyph d="M421 270 436 357H717L654 0H572L587 89Q545 40 489 14Q433 -12 368 -12Q232 -12 151 73Q70 158 70 295Q70 378 95.5 452.5Q121 527 169 584Q221 645 292 678.5Q363 712 442 712Q553 712 630 658.5Q707 605 735 509L644 472Q620 547 568.5 585Q517 623 439 623Q383 623 330.5 595.5Q278 568 239 519Q204 475 185.5 419Q167 363 167 302Q167 199 226 138Q285 77 386 77Q471 77 534 127Q597 177 610 253L613 270ZM446 700ZM371 0ZM326 787 424 930H525L599 787H524L470 870L401 787ZM446 700Z" glyph-name="Gcircumflex" horiz-adv-x="762" unicode="&#284;" /><glyph d="M421 270 436 357H717L654 0H572L587 89Q545 40 489 14Q433 -12 368 -12Q232 -12 151 73Q70 158 70 295Q70 378 95.5 452.5Q121 527 169 584Q221 645 292 678.5Q363 712 442 712Q553 712 630 658.5Q707 605 735 509L644 472Q620 547 568.5 585Q517 623 439 623Q383 623 330.5 595.5Q278 568 239 519Q204 475 185.5 419Q167 363 167 302Q167 199 226 138Q285 77 386 77Q471 77 534 127Q597 177 610 253L613 270ZM446 700ZM371 0ZM401 858Q401 831 420 812Q439 793 466 793Q493 793 512 812Q531 831 531 858Q531 885 512 904Q493 923 466 923Q439 923 420 904Q401 885 401 858ZM446 700Z" glyph-name="Gdotaccent" horiz-adv-x="762" unicode="&#288;" /><glyph d="M57 0 180 700H275L223 405H593L645 700H740L617 0H522L578 316H208L152 0ZM460 700Z" glyph-name="H" horiz-adv-x="761" unicode="H" /><glyph d="M76 509 90 585H170L190 700H285L265 585H635L655 700H750L730 585H811L797 509H716L627 0H532L588 316H218L162 0H67L156 509ZM251 509 233 405H603L621 509Z" glyph-name="Hbar" horiz-adv-x="782" unicode="&#294;" /><glyph d="M57 0 180 700H275L223 405H593L645 700H740L617 0H522L578 316H208L152 0ZM460 700ZM340 787 438 930H539L613 787H538L484 870L415 787ZM460 700Z" glyph-name="Hcircumflex" horiz-adv-x="761" unicode="&#292;" /><glyph d="M57 0 180 700H275L152 0ZM227 700ZM100 0Z" glyph-name="I" horiz-adv-x="296" unicode="I" /><glyph d="M5 0 20 87H140L233 613H113L128 700H463L448 613H328L235 87H355L340 0ZM296 700ZM174 0Z" glyph-name="I.alt" horiz-adv-x="432" /><glyph d="M57 0 180 700H275L152 0ZM227 700ZM100 0ZM743 195 830 700H737L650 203Q639 138 608.5 106Q578 74 527 74Q467 74 435 107.5Q403 141 401 208L307 191Q307 99 366.5 43.5Q426 -12 525 -12Q616 -12 670.5 40Q725 92 743 195ZM783 700Z" glyph-name="IJ" horiz-adv-x="846" unicode="&#306;" /><glyph d="M5 0 20 87H140L233 613H113L128 700H463L448 613H328L235 87H355L340 0ZM675 611 690 700H972L885 195Q868 92 813 40Q758 -12 667 -12Q568 -12 508.5 43.5Q449 99 449 191L543 208Q545 141 577 107.5Q609 74 669 74Q720 74 750.5 106Q781 138 792 203L863 611Z" glyph-name="IJ.alt" horiz-adv-x="988" /><glyph d="M57 0 180 700H275L152 0ZM227 700ZM100 0ZM399 930H293L192 787H276ZM227 700Z" glyph-name="Iacute" horiz-adv-x="296" unicode="&#205;" /><glyph d="M5 0 20 87H140L233 613H113L128 700H463L448 613H328L235 87H355L340 0ZM296 700ZM174 0ZM469 930H363L262 787H346ZM297 700Z" glyph-name="Iacute.alt" horiz-adv-x="432" /><glyph d="M57 0 180 700H275L152 0ZM227 700ZM100 0ZM107 787 205 930H306L380 787H305L251 870L182 787ZM227 700Z" glyph-name="Icircumflex" horiz-adv-x="296" unicode="&#206;" /><glyph d="M5 0 20 87H140L233 613H113L128 700H463L448 613H328L235 87H355L340 0ZM296 700ZM174 0ZM173 787 271 930H372L446 787H371L317 870L248 787ZM293 700Z" glyph-name="Icircumflex.alt" horiz-adv-x="432" /><glyph d="M57 0 180 700H275L152 0ZM227 700ZM100 0ZM105 858Q105 834 122 817Q139 800 163 800Q187 800 204.5 817Q222 834 222 858Q222 882 204.5 899.5Q187 917 163 917Q139 917 122 899.5Q105 882 105 858ZM272 858Q272 834 289 817Q306 800 330 800Q354 800 371.5 817Q389 834 389 858Q389 882 371.5 899.5Q354 917 330 917Q306 917 289 899.5Q272 882 272 858ZM227 700Z" glyph-name="Idieresis" horiz-adv-x="296" unicode="&#207;" /><glyph d="M5 0 20 87H140L233 613H113L128 700H463L448 613H328L235 87H355L340 0ZM296 700ZM174 0ZM171 858Q171 834 188 817Q205 800 229 800Q253 800 270.5 817Q288 834 288 858Q288 882 270.5 899.5Q253 917 229 917Q205 917 188 899.5Q171 882 171 858ZM338 858Q338 834 355 817Q372 800 396 800Q420 800 437.5 817Q455 834 455 858Q455 882 437.5 899.5Q420 917 396 917Q372 917 355 899.5Q338 882 338 858ZM293 700Z" glyph-name="Idieresis.alt" horiz-adv-x="432" /><glyph d="M57 0 180 700H275L152 0ZM227 700ZM100 0ZM182 858Q182 831 201 812Q220 793 247 793Q274 793 293 812Q312 831 312 858Q312 885 293 904Q274 923 247 923Q220 923 201 904Q182 885 182 858ZM227 700Z" glyph-name="Idotaccent" horiz-adv-x="296" unicode="&#304;" /><glyph d="M5 0 20 87H140L233 613H113L128 700H463L448 613H328L235 87H355L340 0ZM296 700ZM174 0ZM248 858Q248 831 267 812Q286 793 313 793Q340 793 359 812Q378 831 378 858Q378 885 359 904Q340 923 313 923Q286 923 267 904Q248 885 248 858ZM293 700Z" glyph-name="Idotaccent.alt" horiz-adv-x="432" /><glyph d="M57 0 180 700H275L152 0ZM227 700ZM100 0ZM268 787 191 930H87L186 787ZM227 700Z" glyph-name="Igrave" horiz-adv-x="296" unicode="&#204;" /><glyph d="M5 0 20 87H140L233 613H113L128 700H463L448 613H328L235 87H355L340 0ZM296 700ZM174 0ZM334 787 257 930H153L252 787ZM293 700Z" glyph-name="Igrave.alt" horiz-adv-x="432" /><glyph d="M57 0 180 700H275L152 0ZM227 700ZM100 0ZM361 823H115L129 892H375ZM227 700Z" glyph-name="Imacron" horiz-adv-x="296" unicode="&#298;" /><glyph d="M5 0 20 87H140L233 613H113L128 700H463L448 613H328L235 87H355L340 0ZM296 700ZM174 0ZM433 823H187L201 892H447ZM299 700Z" glyph-name="Imacron.alt" horiz-adv-x="432" /><glyph d="M57 0 180 700H275L152 0H128Q81 -28 58 -57Q35 -86 35 -117Q35 -142 49 -154Q63 -166 92 -166Q100 -166 107.5 -165.5Q115 -165 124 -163L114 -216Q104 -221 92.5 -223Q81 -225 64 -225Q14 -225 -14 -201Q-42 -177 -42 -135Q-42 -93 -17 -59Q8 -25 57 0Z" glyph-name="Iogonek" horiz-adv-x="296" unicode="&#302;" /><glyph d="M5 0 20 87H140L233 613H113L128 700H463L448 613H328L235 87H355L340 0H315Q268 -28 245 -57Q222 -86 222 -117Q222 -142 236 -154Q250 -166 279 -166Q287 -166 294.5 -165.5Q302 -165 311 -163L301 -216Q291 -221 279.5 -223Q268 -225 251 -225Q201 -225 173 -201Q145 -177 145 -135Q145 -93 170 -59Q195 -25 244 0Z" glyph-name="Iogonek.alt" horiz-adv-x="432" /><glyph d="M57 0 180 700H275L152 0ZM227 700ZM100 0ZM245 823Q270 810 283.5 805.5Q297 801 310 801Q344 801 364.5 827.5Q385 854 389 904H328Q326 887 320.5 880Q315 873 304 873Q296 873 285.5 876.5Q275 880 253 891Q224 906 209 910.5Q194 915 181 915Q143 915 119 888Q95 861 87 810H150Q154 828 162 836.5Q170 845 182 845Q194 845 207 841Q220 837 245 823ZM237 700Z" glyph-name="Itilde" horiz-adv-x="296" unicode="&#296;" /><glyph d="M5 0 20 87H140L233 613H113L128 700H463L448 613H328L235 87H355L340 0ZM296 700ZM174 0ZM315 823Q340 810 353.5 805.5Q367 801 380 801Q414 801 434.5 827.5Q455 854 459 904H398Q396 887 390.5 880Q385 873 374 873Q366 873 355.5 876.5Q345 880 323 891Q294 906 279 910.5Q264 915 251 915Q213 915 189 888Q165 861 157 810H220Q224 828 232 836.5Q240 845 252 845Q264 845 277 841Q290 837 315 823ZM307 700Z" glyph-name="Itilde.alt" horiz-adv-x="432" /><glyph d="M447 195 534 700H441L354 203Q343 138 312.5 106Q282 74 231 74Q171 74 139 107.5Q107 141 105 208L11 191Q11 99 70.5 43.5Q130 -12 229 -12Q320 -12 374.5 40Q429 92 447 195ZM487 700Z" glyph-name="J" horiz-adv-x="550" unicode="J" /><glyph d="M243 611 258 700H540L453 195Q436 92 381 40Q326 -12 235 -12Q136 -12 76.5 43.5Q17 99 17 191L111 208Q113 141 145 107.5Q177 74 237 74Q288 74 318.5 106Q349 138 360 203L431 611ZM403 700Z" glyph-name="J.alt" horiz-adv-x="556" /><glyph d="M447 195 534 700H441L354 203Q343 138 312.5 106Q282 74 231 74Q171 74 139 107.5Q107 141 105 208L11 191Q11 99 70.5 43.5Q130 -12 229 -12Q320 -12 374.5 40Q429 92 447 195ZM487 700ZM367 787 465 930H566L640 787H565L511 870L442 787ZM487 700Z" glyph-name="Jcircumflex" horiz-adv-x="550" unicode="&#308;" /><glyph d="M276 787 374 930H475L549 787H474L420 870L351 787ZM243 611 258 700H540L453 195Q436 92 381 40Q326 -12 235 -12Q136 -12 76.5 43.5Q17 99 17 191L111 208Q113 141 145 107.5Q177 74 237 74Q288 74 318.5 106Q349 138 360 203L431 611Z" glyph-name="Jcircumflex.alt" horiz-adv-x="556" /><glyph d="M395 394 605 0H496L321 328L188 203L152 0H57L181 700H276L211 333L597 700H720ZM322 0Z" glyph-name="K" horiz-adv-x="661" unicode="K" /><glyph d="M57 0 180 700H275L168 89H524L508 0ZM227 700ZM282 0ZM324 700ZM393 350Z" glyph-name="L" horiz-adv-x="574" unicode="L" /><glyph d="M57 0 180 700H275L168 89H524L508 0ZM227 700ZM282 0ZM324 700ZM393 350ZM399 930H293L192 787H276ZM227 700Z" glyph-name="Lacute" horiz-adv-x="574" unicode="&#313;" /><glyph d="M57 0 180 700H275L168 89H524L508 0ZM227 700ZM282 0ZM324 700ZM393 350ZM462 730H367L321 567H393ZM324 700Z" glyph-name="Lcaron" horiz-adv-x="574" unicode="&#317;" /><glyph d="M57 0 180 700H275L168 89H524L508 0ZM227 700ZM282 0ZM324 700ZM393 350ZM389 359Q389 332 408 313Q427 294 454 294Q481 294 500 313Q519 332 519 359Q519 386 500 405Q481 424 454 424Q427 424 408 405Q389 386 389 359ZM405 361Z" glyph-name="Ldot" horiz-adv-x="577" unicode="&#319;" /><glyph d="M57 0 180 700H275L168 89H524L508 0ZM227 700ZM282 0ZM324 700ZM393 350ZM389 359Q389 332 408 313Q427 294 454 294Q481 294 500 313Q519 332 519 359Q519 386 500 405Q481 424 454 424Q427 424 408 405Q389 386 389 359ZM405 361ZM631 0 754 700H849L742 89H1098L1082 0ZM801 700ZM856 0ZM898 700ZM967 350Z" glyph-name="Lgeminada" horiz-adv-x="1148" /><glyph d="M65 258 27 324 147 393 201 700H296L253 454L332 500L369 433L236 356L189 89H545L529 0H78L130 295Z" glyph-name="Lslash" horiz-adv-x="595" unicode="&#321;" /><glyph d="M57 0 180 700H309L430 143L744 700H885L762 0H673L777 589L437 -3H375L246 587L143 0Z" glyph-name="M" horiz-adv-x="906" unicode="M" /><glyph d="M57 0 180 700H274L555 157L650 700H740L617 0H539L247 567L147 0ZM462 700ZM342 0Z" glyph-name="N" horiz-adv-x="761" unicode="N" /><glyph d="M57 0 180 700H274L555 157L650 700H740L617 0H539L247 567L147 0ZM462 700ZM342 0ZM634 930H528L427 787H511ZM462 700Z" glyph-name="Nacute" horiz-adv-x="761" unicode="&#323;" /><glyph d="M57 0 180 700H274L555 157L650 700H740L617 0H539L247 567L147 0ZM462 700ZM342 0ZM520 787H419L345 930H420L474 847L543 930H618ZM462 700Z" glyph-name="Ncaron" horiz-adv-x="761" unicode="&#327;" /><glyph d="M57 0 180 700H274L555 157L650 700H740L617 0H539L247 567L147 0ZM462 700ZM342 0ZM470 823Q495 810 508.5 805.5Q522 801 535 801Q569 801 589.5 827.5Q610 854 614 904H553Q551 887 545.5 880Q540 873 529 873Q521 873 510.5 876.5Q500 880 478 891Q449 906 434 910.5Q419 915 406 915Q368 915 344 888Q320 861 312 810H375Q379 828 387 836.5Q395 845 407 845Q419 845 432 841Q445 837 470 823ZM462 700Z" glyph-name="Ntilde" horiz-adv-x="761" unicode="&#209;" /><glyph d="M758 394Q758 532 670.5 622Q583 712 444 712Q366 712 296.5 680Q227 648 174 589Q124 532 97 459.5Q70 387 70 308Q70 168 157 78Q244 -12 383 -12Q461 -12 531 20Q601 52 654 112Q704 168 731 241Q758 314 758 394ZM661 385Q661 259 579.5 168Q498 77 386 77Q290 77 228.5 145Q167 213 167 316Q167 441 248.5 532Q330 623 442 623Q538 623 599.5 555Q661 487 661 385ZM450 700Z" glyph-name="O" horiz-adv-x="792" unicode="O" /><glyph d="M172 588Q223 647 292 679.5Q361 712 438 712Q524 712 592 674.5Q660 637 699 568L722 700H1197L1182 612H802L765 404H1115L1100 317H750L709 88H1100L1084 0H599L614 88Q565 39 504 13.5Q443 -12 377 -12Q241 -12 155.5 78Q70 168 70 308Q70 386 96.5 458.5Q123 531 172 588ZM167 316Q167 213 228.5 145Q290 77 386 77Q498 77 579.5 168Q661 259 661 385Q661 487 599.5 555Q538 623 442 623Q330 623 248.5 532Q167 441 167 316Z" glyph-name="OE" horiz-adv-x="1184" unicode="&#338;" /><glyph d="M758 394Q758 532 670.5 622Q583 712 444 712Q366 712 296.5 680Q227 648 174 589Q124 532 97 459.5Q70 387 70 308Q70 168 157 78Q244 -12 383 -12Q461 -12 531 20Q601 52 654 112Q704 168 731 241Q758 314 758 394ZM661 385Q661 259 579.5 168Q498 77 386 77Q290 77 228.5 145Q167 213 167 316Q167 441 248.5 532Q330 623 442 623Q538 623 599.5 555Q661 487 661 385ZM450 700ZM622 930H516L415 787H499ZM450 700Z" glyph-name="Oacute" horiz-adv-x="792" unicode="&#211;" /><glyph d="M758 394Q758 532 670.5 622Q583 712 444 712Q366 712 296.5 680Q227 648 174 589Q124 532 97 459.5Q70 387 70 308Q70 168 157 78Q244 -12 383 -12Q461 -12 531 20Q601 52 654 112Q704 168 731 241Q758 314 758 394ZM661 385Q661 259 579.5 168Q498 77 386 77Q290 77 228.5 145Q167 213 167 316Q167 441 248.5 532Q330 623 442 623Q538 623 599.5 555Q661 487 661 385ZM450 700ZM463 846Q498 846 518 867.5Q538 889 540 930H604Q603 867 564.5 826Q526 785 460 785Q396 785 363 825.5Q330 866 334 930H398Q399 883 414 864.5Q429 846 463 846ZM450 700Z" glyph-name="Obreve" horiz-adv-x="792" unicode="&#334;" /><glyph d="M758 394Q758 532 670.5 622Q583 712 444 712Q366 712 296.5 680Q227 648 174 589Q124 532 97 459.5Q70 387 70 308Q70 168 157 78Q244 -12 383 -12Q461 -12 531 20Q601 52 654 112Q704 168 731 241Q758 314 758 394ZM661 385Q661 259 579.5 168Q498 77 386 77Q290 77 228.5 145Q167 213 167 316Q167 441 248.5 532Q330 623 442 623Q538 623 599.5 555Q661 487 661 385ZM450 700ZM330 787 428 930H529L603 787H528L474 870L405 787ZM450 700Z" glyph-name="Ocircumflex" horiz-adv-x="792" unicode="&#212;" /><glyph d="M758 394Q758 532 670.5 622Q583 712 444 712Q366 712 296.5 680Q227 648 174 589Q124 532 97 459.5Q70 387 70 308Q70 168 157 78Q244 -12 383 -12Q461 -12 531 20Q601 52 654 112Q704 168 731 241Q758 314 758 394ZM661 385Q661 259 579.5 168Q498 77 386 77Q290 77 228.5 145Q167 213 167 316Q167 441 248.5 532Q330 623 442 623Q538 623 599.5 555Q661 487 661 385ZM450 700ZM328 858Q328 834 345 817Q362 800 386 800Q410 800 427.5 817Q445 834 445 858Q445 882 427.5 899.5Q410 917 386 917Q362 917 345 899.5Q328 882 328 858ZM495 858Q495 834 512 817Q529 800 553 800Q577 800 594.5 817Q612 834 612 858Q612 882 594.5 899.5Q577 917 553 917Q529 917 512 899.5Q495 882 495 858ZM450 700Z" glyph-name="Odieresis" horiz-adv-x="792" unicode="&#214;" /><glyph d="M758 394Q758 532 670.5 622Q583 712 444 712Q366 712 296.5 680Q227 648 174 589Q124 532 97 459.5Q70 387 70 308Q70 168 157 78Q244 -12 383 -12Q461 -12 531 20Q601 52 654 112Q704 168 731 241Q758 314 758 394ZM661 385Q661 259 579.5 168Q498 77 386 77Q290 77 228.5 145Q167 213 167 316Q167 441 248.5 532Q330 623 442 623Q538 623 599.5 555Q661 487 661 385ZM450 700ZM491 787 414 930H310L409 787ZM450 700Z" glyph-name="Ograve" horiz-adv-x="792" unicode="&#210;" /><glyph d="M758 394Q758 532 670.5 622Q583 712 444 712Q366 712 296.5 680Q227 648 174 589Q124 532 97 459.5Q70 387 70 308Q70 168 157 78Q244 -12 383 -12Q461 -12 531 20Q601 52 654 112Q704 168 731 241Q758 314 758 394ZM661 385Q661 259 579.5 168Q498 77 386 77Q290 77 228.5 145Q167 213 167 316Q167 441 248.5 532Q330 623 442 623Q538 623 599.5 555Q661 487 661 385ZM450 700ZM531 930H436L345 787H416ZM688 930H585L462 787H539ZM450 700Z" glyph-name="Ohungarumlaut" horiz-adv-x="792" unicode="&#336;" /><glyph d="M758 394Q758 532 670.5 622Q583 712 444 712Q366 712 296.5 680Q227 648 174 589Q124 532 97 459.5Q70 387 70 308Q70 168 157 78Q244 -12 383 -12Q461 -12 531 20Q601 52 654 112Q704 168 731 241Q758 314 758 394ZM661 385Q661 259 579.5 168Q498 77 386 77Q290 77 228.5 145Q167 213 167 316Q167 441 248.5 532Q330 623 442 623Q538 623 599.5 555Q661 487 661 385ZM450 700ZM584 823H338L352 892H598ZM450 700Z" glyph-name="Omacron" horiz-adv-x="792" unicode="&#332;" /><glyph d="M22 0 37 86H219Q154 129 120 194.5Q86 260 86 341Q86 500 182.5 606Q279 712 430 712Q566 712 647.5 632.5Q729 553 729 425Q729 314 677 225.5Q625 137 530 86H683L668 0H407L424 92Q521 137 577.5 222.5Q634 308 634 414Q634 508 578.5 565.5Q523 623 427 623Q319 623 250 539.5Q181 456 181 333Q181 261 209 203Q237 145 292 104L273 0Z" glyph-name="Omega" horiz-adv-x="778" unicode="&#8486;" /><glyph d="M237 20 160 -92H70L175 61Q125 105 97.5 169Q70 233 70 308Q70 387 97 459.5Q124 532 174 589Q227 648 296.5 680Q366 712 444 712Q485 712 523.5 703Q562 694 596 677L668 782H758L657 635Q705 591 731.5 528.5Q758 466 758 394Q758 314 731 241Q704 168 654 112Q601 52 531 20Q461 -12 383 -12Q344 -12 307 -4Q270 4 237 20ZM442 623Q330 623 248.5 532Q167 441 167 316Q167 264 184.5 218Q202 172 234 139L546 597Q523 610 497 616.5Q471 623 442 623ZM386 77Q498 77 579.5 168Q661 259 661 385Q661 436 644.5 480Q628 524 598 556L286 100Q308 89 333.5 83Q359 77 386 77Z" glyph-name="Oslash" horiz-adv-x="792" unicode="&#216;" /><glyph d="M758 394Q758 532 670.5 622Q583 712 444 712Q366 712 296.5 680Q227 648 174 589Q124 532 97 459.5Q70 387 70 308Q70 168 157 78Q244 -12 383 -12Q461 -12 531 20Q601 52 654 112Q704 168 731 241Q758 314 758 394ZM661 385Q661 259 579.5 168Q498 77 386 77Q290 77 228.5 145Q167 213 167 316Q167 441 248.5 532Q330 623 442 623Q538 623 599.5 555Q661 487 661 385ZM450 700ZM458 823Q483 810 496.5 805.5Q510 801 523 801Q557 801 577.5 827.5Q598 854 602 904H541Q539 887 533.5 880Q528 873 517 873Q509 873 498.5 876.5Q488 880 466 891Q437 906 422 910.5Q407 915 394 915Q356 915 332 888Q308 861 300 810H363Q367 828 375 836.5Q383 845 395 845Q407 845 420 841Q433 837 458 823ZM450 700Z" glyph-name="Otilde" horiz-adv-x="792" unicode="&#213;" /><glyph d="M57 0 181 700H440Q542 700 603.5 641.5Q665 583 665 491Q665 373 580.5 301.5Q496 230 368 230H193L152 0ZM567 484Q567 543 529.5 577.5Q492 612 426 612H260L208 318H381Q461 318 514 365Q567 412 567 484Z" glyph-name="P" horiz-adv-x="663" unicode="P" /><glyph d="M174 589Q227 648 296.5 680Q366 712 444 712Q583 712 670.5 622Q758 532 758 394Q758 301 722 218.5Q686 136 621 79L712 -24L645 -83L547 28Q510 8 468.5 -2Q427 -12 383 -12Q244 -12 157 78Q70 168 70 308Q70 387 97 459.5Q124 532 174 589ZM167 316Q167 213 228.5 145Q290 77 386 77Q412 77 436.5 82.5Q461 88 484 98L381 214L450 272L560 148Q608 192 634.5 254Q661 316 661 385Q661 487 599.5 555Q538 623 442 623Q330 623 248.5 532Q167 441 167 316Z" glyph-name="Q" horiz-adv-x="797" unicode="Q" /><glyph d="M57 0 181 700H453Q556 700 618.5 643Q681 586 681 499Q681 418 627.5 357Q574 296 483 269L593 0H487L383 254Q381 254 379.5 254Q378 254 376 254H197L152 0ZM584 494Q584 550 547 581.5Q510 613 441 613H261L212 340H397Q473 340 528.5 385.5Q584 431 584 494ZM413 700ZM316 0Z" glyph-name="R" horiz-adv-x="696" unicode="R" /><glyph d="M57 0 181 700H453Q556 700 618.5 643Q681 586 681 499Q681 418 627.5 357Q574 296 483 269L593 0H487L383 254Q381 254 379.5 254Q378 254 376 254H197L152 0ZM584 494Q584 550 547 581.5Q510 613 441 613H261L212 340H397Q473 340 528.5 385.5Q584 431 584 494ZM413 700ZM316 0ZM585 930H479L378 787H462ZM413 700Z" glyph-name="Racute" horiz-adv-x="696" unicode="&#340;" /><glyph d="M57 0 181 700H453Q556 700 618.5 643Q681 586 681 499Q681 418 627.5 357Q574 296 483 269L593 0H487L383 254Q381 254 379.5 254Q378 254 376 254H197L152 0ZM584 494Q584 550 547 581.5Q510 613 441 613H261L212 340H397Q473 340 528.5 385.5Q584 431 584 494ZM413 700ZM316 0ZM471 787H370L296 930H371L425 847L494 930H569ZM413 700Z" glyph-name="Rcaron" horiz-adv-x="696" unicode="&#344;" /><glyph d="M568 206Q568 110 499.5 49Q431 -12 323 -12Q229 -12 146.5 28.5Q64 69 18 130L92 198Q149 132 205 102.5Q261 73 322 73Q393 73 433 108Q473 143 473 199Q473 236 448 260.5Q423 285 365 304L268 336Q193 361 154 406Q115 451 115 513Q115 598 180.5 655Q246 712 352 712Q437 712 507.5 679Q578 646 624 586L550 517Q505 575 455.5 600.5Q406 626 347 626Q280 626 244 596.5Q208 567 208 519Q208 484 231 460.5Q254 437 310 418L416 382Q496 355 532 313Q568 271 568 206ZM313 10ZM365 700ZM313 0Z" glyph-name="S" horiz-adv-x="628" unicode="S" /><glyph d="M568 206Q568 110 499.5 49Q431 -12 323 -12Q229 -12 146.5 28.5Q64 69 18 130L92 198Q149 132 205 102.5Q261 73 322 73Q393 73 433 108Q473 143 473 199Q473 236 448 260.5Q423 285 365 304L268 336Q193 361 154 406Q115 451 115 513Q115 598 180.5 655Q246 712 352 712Q437 712 507.5 679Q578 646 624 586L550 517Q505 575 455.5 600.5Q406 626 347 626Q280 626 244 596.5Q208 567 208 519Q208 484 231 460.5Q254 437 310 418L416 382Q496 355 532 313Q568 271 568 206ZM313 10ZM365 700ZM313 0ZM537 930H431L330 787H414ZM365 700Z" glyph-name="Sacute" horiz-adv-x="628" unicode="&#346;" /><glyph d="M568 206Q568 110 499.5 49Q431 -12 323 -12Q229 -12 146.5 28.5Q64 69 18 130L92 198Q149 132 205 102.5Q261 73 322 73Q393 73 433 108Q473 143 473 199Q473 236 448 260.5Q423 285 365 304L268 336Q193 361 154 406Q115 451 115 513Q115 598 180.5 655Q246 712 352 712Q437 712 507.5 679Q578 646 624 586L550 517Q505 575 455.5 600.5Q406 626 347 626Q280 626 244 596.5Q208 567 208 519Q208 484 231 460.5Q254 437 310 418L416 382Q496 355 532 313Q568 271 568 206ZM313 10ZM365 700ZM313 0ZM423 787H322L248 930H323L377 847L446 930H521ZM365 700Z" glyph-name="Scaron" horiz-adv-x="628" unicode="&#352;" /><glyph d="M220 -105 206 -80 275 -9Q195 0 125.5 39.5Q56 79 18 130L92 198Q149 132 205 102.5Q261 73 322 73Q393 73 433 108Q473 143 473 199Q473 236 448 260.5Q423 285 365 304L268 336Q193 361 154 406Q115 451 115 513Q115 598 180.5 655Q246 712 352 712Q437 712 507.5 679Q578 646 624 586L550 517Q505 575 455.5 600.5Q406 626 347 626Q280 626 244 596.5Q208 567 208 519Q208 484 231 460.5Q254 437 310 418L416 382Q496 355 532 312.5Q568 270 568 206Q568 112 502.5 51.5Q437 -9 333 -12L284 -60Q286 -60 287.5 -60Q289 -60 291 -60Q332 -60 354 -79Q376 -98 376 -130Q376 -173 343.5 -199Q311 -225 258 -225Q235 -225 212 -219Q189 -213 170 -202L178 -153Q200 -166 215.5 -170Q231 -174 250 -174Q276 -174 289.5 -163.5Q303 -153 303 -132Q303 -117 289 -108.5Q275 -100 252 -100Q244 -100 236 -101.5Q228 -103 220 -105Z" glyph-name="Scedilla" horiz-adv-x="628" unicode="&#350;" /><glyph d="M568 206Q568 110 499.5 49Q431 -12 323 -12Q229 -12 146.5 28.5Q64 69 18 130L92 198Q149 132 205 102.5Q261 73 322 73Q393 73 433 108Q473 143 473 199Q473 236 448 260.5Q423 285 365 304L268 336Q193 361 154 406Q115 451 115 513Q115 598 180.5 655Q246 712 352 712Q437 712 507.5 679Q578 646 624 586L550 517Q505 575 455.5 600.5Q406 626 347 626Q280 626 244 596.5Q208 567 208 519Q208 484 231 460.5Q254 437 310 418L416 382Q496 355 532 313Q568 271 568 206ZM313 10ZM365 700ZM313 0ZM245 787 343 930H444L518 787H443L389 870L320 787ZM365 700Z" glyph-name="Scircumflex" horiz-adv-x="628" unicode="&#348;" /><glyph d="M88 611 103 700H658L643 611H412L305 0H210L317 611ZM259 10ZM380 700ZM257 0Z" glyph-name="T" horiz-adv-x="602" unicode="T" /><glyph d="M95 312 109 388H304L343 611H114L129 700H684L669 611H438L399 388H595L581 312H386L331 0H236L291 312Z" glyph-name="Tbar" horiz-adv-x="653" unicode="&#358;" /><glyph d="M88 611 103 700H658L643 611H412L305 0H210L317 611ZM259 10ZM380 700ZM257 0ZM438 787H337L263 930H338L392 847L461 930H536ZM380 700Z" glyph-name="Tcaron" horiz-adv-x="602" unicode="&#356;" /><glyph d="M57 0 181 700H276L256 585H420Q523 585 584 527.5Q645 470 645 376Q645 260 558.5 187.5Q472 115 345 115H172L152 0ZM547 369Q547 428 509.5 462.5Q472 497 406 497H240L188 203H361Q441 203 494 250Q547 297 547 369Z" glyph-name="Thorn" horiz-adv-x="674" unicode="&#222;" /><glyph d="M636 700H730L650 244Q629 124 550 56Q471 -12 355 -12Q220 -12 147 74.5Q74 161 98 293L171 700H266L192 284Q175 189 222.5 133Q270 77 363 77Q438 77 491 123.5Q544 170 558 252ZM451 700ZM405 0Z" glyph-name="U" horiz-adv-x="743" unicode="U" /><glyph d="M636 700H730L650 244Q629 124 550 56Q471 -12 355 -12Q220 -12 147 74.5Q74 161 98 293L171 700H266L192 284Q175 189 222.5 133Q270 77 363 77Q438 77 491 123.5Q544 170 558 252ZM451 700ZM405 0ZM623 930H517L416 787H500ZM451 700Z" glyph-name="Uacute" horiz-adv-x="743" unicode="&#218;" /><glyph d="M636 700H730L650 244Q629 124 550 56Q471 -12 355 -12Q220 -12 147 74.5Q74 161 98 293L171 700H266L192 284Q175 189 222.5 133Q270 77 363 77Q438 77 491 123.5Q544 170 558 252ZM451 700ZM405 0ZM464 846Q499 846 519 867.5Q539 889 541 930H605Q604 867 565.5 826Q527 785 461 785Q397 785 364 825.5Q331 866 335 930H399Q400 883 415 864.5Q430 846 464 846ZM451 700Z" glyph-name="Ubreve" horiz-adv-x="743" unicode="&#364;" /><glyph d="M636 700H730L650 244Q629 124 550 56Q471 -12 355 -12Q220 -12 147 74.5Q74 161 98 293L171 700H266L192 284Q175 189 222.5 133Q270 77 363 77Q438 77 491 123.5Q544 170 558 252ZM451 700ZM405 0ZM331 787 429 930H530L604 787H529L475 870L406 787ZM451 700Z" glyph-name="Ucircumflex" horiz-adv-x="743" unicode="&#219;" /><glyph d="M636 700H730L650 244Q629 124 550 56Q471 -12 355 -12Q220 -12 147 74.5Q74 161 98 293L171 700H266L192 284Q175 189 222.5 133Q270 77 363 77Q438 77 491 123.5Q544 170 558 252ZM451 700ZM405 0ZM329 858Q329 834 346 817Q363 800 387 800Q411 800 428.5 817Q446 834 446 858Q446 882 428.5 899.5Q411 917 387 917Q363 917 346 899.5Q329 882 329 858ZM496 858Q496 834 513 817Q530 800 554 800Q578 800 595.5 817Q613 834 613 858Q613 882 595.5 899.5Q578 917 554 917Q530 917 513 899.5Q496 882 496 858ZM451 700Z" glyph-name="Udieresis" horiz-adv-x="743" unicode="&#220;" /><glyph d="M636 700H730L650 244Q629 124 550 56Q471 -12 355 -12Q220 -12 147 74.5Q74 161 98 293L171 700H266L192 284Q175 189 222.5 133Q270 77 363 77Q438 77 491 123.5Q544 170 558 252ZM451 700ZM405 0ZM492 787 415 930H311L410 787ZM451 700Z" glyph-name="Ugrave" horiz-adv-x="743" unicode="&#217;" /><glyph d="M636 700H730L650 244Q629 124 550 56Q471 -12 355 -12Q220 -12 147 74.5Q74 161 98 293L171 700H266L192 284Q175 189 222.5 133Q270 77 363 77Q438 77 491 123.5Q544 170 558 252ZM451 700ZM405 0ZM532 930H437L346 787H417ZM689 930H586L463 787H540ZM451 700Z" glyph-name="Uhungarumlaut" horiz-adv-x="743" unicode="&#368;" /><glyph d="M636 700H730L650 244Q629 124 550 56Q471 -12 355 -12Q220 -12 147 74.5Q74 161 98 293L171 700H266L192 284Q175 189 222.5 133Q270 77 363 77Q438 77 491 123.5Q544 170 558 252ZM451 700ZM405 0ZM585 823H339L353 892H599ZM451 700Z" glyph-name="Umacron" horiz-adv-x="743" unicode="&#362;" /><glyph d="M636 700H730L650 244Q639 179 610.5 129.5Q582 80 531 41Q515 28 485.5 9Q456 -10 445 -19Q418 -40 406.5 -60.5Q395 -81 395 -107Q395 -137 412.5 -151.5Q430 -166 466 -166Q475 -166 483.5 -165.5Q492 -165 501 -163L491 -216Q478 -221 465 -223Q452 -225 438 -225Q382 -225 350 -198Q318 -171 318 -124Q318 -93 334.5 -64.5Q351 -36 384 -11Q376 -12 370.5 -12Q365 -12 355 -12Q220 -12 147 74.5Q74 161 98 293L171 700H266L192 284Q175 189 222.5 133Q270 77 363 77Q438 77 491 123.5Q544 170 558 252Z" glyph-name="Uogonek" horiz-adv-x="743" unicode="&#370;" /><glyph d="M636 700H730L650 244Q629 124 550 56Q471 -12 355 -12Q220 -12 147 74.5Q74 161 98 293L171 700H266L192 284Q175 189 222.5 133Q270 77 363 77Q438 77 491 123.5Q544 170 558 252ZM451 700ZM405 0ZM578 868Q578 912 546.5 944Q515 976 470 976Q425 976 394 944.5Q363 913 363 868Q363 823 394 792Q425 761 470 761Q515 761 546.5 792.5Q578 824 578 868ZM421 868Q421 888 435.5 903Q450 918 470 918Q490 918 505 903Q520 888 520 868Q520 849 505 834Q490 819 470 819Q450 819 435.5 834Q421 849 421 868ZM451 700Z" glyph-name="Uring" horiz-adv-x="743" unicode="&#366;" /><glyph d="M636 700H730L650 244Q629 124 550 56Q471 -12 355 -12Q220 -12 147 74.5Q74 161 98 293L171 700H266L192 284Q175 189 222.5 133Q270 77 363 77Q438 77 491 123.5Q544 170 558 252ZM451 700ZM405 0ZM459 823Q484 810 497.5 805.5Q511 801 524 801Q558 801 578.5 827.5Q599 854 603 904H542Q540 887 534.5 880Q529 873 518 873Q510 873 499.5 876.5Q489 880 467 891Q438 906 423 910.5Q408 915 395 915Q357 915 333 888Q309 861 301 810H364Q368 828 376 836.5Q384 845 396 845Q408 845 421 841Q434 837 459 823ZM451 700Z" glyph-name="Utilde" horiz-adv-x="743" unicode="&#360;" /><glyph d="M245 0 106 700H204L313 120L626 700H730L342 0Z" glyph-name="V" horiz-adv-x="676" unicode="V" /><glyph d="M190 0 111 700H208L263 137L515 700H611L670 139L919 700H1020L695 0H600L537 540L285 0ZM564 700Z" glyph-name="W" horiz-adv-x="972" unicode="W" /><glyph d="M190 0 111 700H208L263 137L515 700H611L670 139L919 700H1020L695 0H600L537 540L285 0ZM564 700ZM736 930H630L529 787H613ZM564 700Z" glyph-name="Wacute" horiz-adv-x="972" unicode="&#7810;" /><glyph d="M190 0 111 700H208L263 137L515 700H611L670 139L919 700H1020L695 0H600L537 540L285 0ZM564 700ZM444 787 542 930H643L717 787H642L588 870L519 787ZM564 700Z" glyph-name="Wcircumflex" horiz-adv-x="972" unicode="&#372;" /><glyph d="M190 0 111 700H208L263 137L515 700H611L670 139L919 700H1020L695 0H600L537 540L285 0ZM564 700ZM442 858Q442 834 459 817Q476 800 500 800Q524 800 541.5 817Q559 834 559 858Q559 882 541.5 899.5Q524 917 500 917Q476 917 459 899.5Q442 882 442 858ZM609 858Q609 834 626 817Q643 800 667 800Q691 800 708.5 817Q726 834 726 858Q726 882 708.5 899.5Q691 917 667 917Q643 917 626 899.5Q609 882 609 858ZM564 700Z" glyph-name="Wdieresis" horiz-adv-x="972" unicode="&#7812;" /><glyph d="M190 0 111 700H208L263 137L515 700H611L670 139L919 700H1020L695 0H600L537 540L285 0ZM564 700ZM605 787 528 930H424L523 787ZM564 700Z" glyph-name="Wgrave" horiz-adv-x="972" unicode="&#7808;" /><glyph d="M273 356 105 700H203L335 420L564 700H675L375 343L549 0H451L315 275L90 0H-22Z" glyph-name="X" horiz-adv-x="617" unicode="X" /><glyph d="M284 286 112 700H209L340 367L588 700H696L380 290L329 0H234ZM402 700Z" glyph-name="Y" horiz-adv-x="649" unicode="Y" /><glyph d="M284 286 112 700H209L340 367L588 700H696L380 290L329 0H234ZM402 700ZM574 930H468L367 787H451ZM402 700Z" glyph-name="Yacute" horiz-adv-x="649" unicode="&#221;" /><glyph d="M284 286 112 700H209L340 367L588 700H696L380 290L329 0H234ZM402 700ZM282 787 380 930H481L555 787H480L426 870L357 787ZM402 700Z" glyph-name="Ycircumflex" horiz-adv-x="649" unicode="&#374;" /><glyph d="M284 286 112 700H209L340 367L588 700H696L380 290L329 0H234ZM402 700ZM280 858Q280 834 297 817Q314 800 338 800Q362 800 379.5 817Q397 834 397 858Q397 882 379.5 899.5Q362 917 338 917Q314 917 297 899.5Q280 882 280 858ZM447 858Q447 834 464 817Q481 800 505 800Q529 800 546.5 817Q564 834 564 858Q564 882 546.5 899.5Q529 917 505 917Q481 917 464 899.5Q447 882 447 858ZM402 700Z" glyph-name="Ydieresis" horiz-adv-x="649" unicode="&#376;" /><glyph d="M284 286 112 700H209L340 367L588 700H696L380 290L329 0H234ZM402 700ZM443 787 366 930H262L361 787ZM402 700Z" glyph-name="Ygrave" horiz-adv-x="649" unicode="&#7922;" /><glyph d="M137 87H552L537 0H-3L11 79L507 613H118L133 700H647L633 621ZM390 700Z" glyph-name="Z" horiz-adv-x="621" unicode="Z" /><glyph d="M137 87H552L537 0H-3L11 79L507 613H118L133 700H647L633 621ZM390 700ZM562 930H456L355 787H439ZM390 700Z" glyph-name="Zacute" horiz-adv-x="621" unicode="&#377;" /><glyph d="M137 87H552L537 0H-3L11 79L507 613H118L133 700H647L633 621ZM390 700ZM448 787H347L273 930H348L402 847L471 930H546ZM390 700Z" glyph-name="Zcaron" horiz-adv-x="621" unicode="&#381;" /><glyph d="M137 87H552L537 0H-3L11 79L507 613H118L133 700H647L633 621ZM390 700ZM345 858Q345 831 364 812Q383 793 410 793Q437 793 456 812Q475 831 475 858Q475 885 456 904Q437 923 410 923Q383 923 364 904Q345 885 345 858ZM390 700Z" glyph-name="Zdotaccent" horiz-adv-x="621" unicode="&#379;" /><glyph d="M485 0H403L414 65Q380 27 338.5 7.5Q297 -12 251 -12Q159 -12 102 49.5Q45 111 45 205Q45 336 117.5 424Q190 512 298 512Q359 512 403 484.5Q447 457 471 406L489 500H573ZM135 217Q135 147 171 106.5Q207 66 271 66Q343 66 394.5 126.5Q446 187 446 276Q446 346 407.5 390Q369 434 307 434Q234 434 184.5 371.5Q135 309 135 217ZM315 500ZM434 0Z" glyph-name="a" horiz-adv-x="615" unicode="a" /><glyph d="M495 307 440 0H358L372 80Q339 35 294.5 11.5Q250 -12 199 -12Q125 -12 81 25.5Q37 63 37 122Q37 188 82 229Q127 270 230 293L411 334Q414 384 387.5 409Q361 434 305 434Q263 434 212 408.5Q161 383 127 347L78 405Q119 451 183 481.5Q247 512 312 512Q413 512 462 453.5Q511 395 495 307ZM126 127Q126 94 148 78Q170 62 214 62Q279 62 331.5 111.5Q384 161 396 240L399 259L239 224Q178 211 152 189Q126 167 126 127ZM311 498ZM397 -14Z" glyph-name="a.alt" horiz-adv-x="563" /><glyph d="M485 0H403L414 65Q380 27 338.5 7.5Q297 -12 251 -12Q159 -12 102 49.5Q45 111 45 205Q45 336 117.5 424Q190 512 298 512Q359 512 403 484.5Q447 457 471 406L489 500H573ZM135 217Q135 147 171 106.5Q207 66 271 66Q343 66 394.5 126.5Q446 187 446 276Q446 346 407.5 390Q369 434 307 434Q234 434 184.5 371.5Q135 309 135 217ZM315 500ZM434 0ZM485 730H379L278 587H362ZM315 500Z" glyph-name="aacute" horiz-adv-x="615" unicode="&#225;" /><glyph d="M495 307 440 0H358L372 80Q339 35 294.5 11.5Q250 -12 199 -12Q125 -12 81 25.5Q37 63 37 122Q37 188 82 229Q127 270 230 293L411 334Q414 384 387.5 409Q361 434 305 434Q263 434 212 408.5Q161 383 127 347L78 405Q119 451 183 481.5Q247 512 312 512Q413 512 462 453.5Q511 395 495 307ZM126 127Q126 94 148 78Q170 62 214 62Q279 62 331.5 111.5Q384 161 396 240L399 259L239 224Q178 211 152 189Q126 167 126 127ZM311 498ZM397 -14ZM481 728H375L274 585H358ZM311 498Z" glyph-name="aacute.alt" horiz-adv-x="563" /><glyph d="M485 0H403L414 65Q380 27 338.5 7.5Q297 -12 251 -12Q159 -12 102 49.5Q45 111 45 205Q45 336 117.5 424Q190 512 298 512Q359 512 403 484.5Q447 457 471 406L489 500H573ZM135 217Q135 147 171 106.5Q207 66 271 66Q343 66 394.5 126.5Q446 187 446 276Q446 346 407.5 390Q369 434 307 434Q234 434 184.5 371.5Q135 309 135 217ZM315 500ZM434 0ZM329 646Q364 646 384 667.5Q404 689 406 730H470Q469 667 430.5 626Q392 585 326 585Q262 585 229 625.5Q196 666 200 730H264Q265 683 280 664.5Q295 646 329 646ZM315 500Z" glyph-name="abreve" horiz-adv-x="615" unicode="&#259;" /><glyph d="M495 307 440 0H358L372 80Q339 35 294.5 11.5Q250 -12 199 -12Q125 -12 81 25.5Q37 63 37 122Q37 188 82 229Q127 270 230 293L411 334Q414 384 387.5 409Q361 434 305 434Q263 434 212 408.5Q161 383 127 347L78 405Q119 451 183 481.5Q247 512 312 512Q413 512 462 453.5Q511 395 495 307ZM126 127Q126 94 148 78Q170 62 214 62Q279 62 331.5 111.5Q384 161 396 240L399 259L239 224Q178 211 152 189Q126 167 126 127ZM311 498ZM397 -14ZM335 646Q370 646 390 667.5Q410 689 412 730H476Q475 667 436.5 626Q398 585 332 585Q268 585 235 625.5Q202 666 206 730H270Q271 683 286 664.5Q301 646 335 646ZM321 500Z" glyph-name="abreve.alt" horiz-adv-x="563" /><glyph d="M485 0H403L414 65Q380 27 338.5 7.5Q297 -12 251 -12Q159 -12 102 49.5Q45 111 45 205Q45 336 117.5 424Q190 512 298 512Q359 512 403 484.5Q447 457 471 406L489 500H573ZM135 217Q135 147 171 106.5Q207 66 271 66Q343 66 394.5 126.5Q446 187 446 276Q446 346 407.5 390Q369 434 307 434Q234 434 184.5 371.5Q135 309 135 217ZM315 500ZM434 0ZM187 587 285 730H386L460 587H385L331 670L262 587ZM315 500Z" glyph-name="acircumflex" horiz-adv-x="615" unicode="&#226;" /><glyph d="M495 307 440 0H358L372 80Q339 35 294.5 11.5Q250 -12 199 -12Q125 -12 81 25.5Q37 63 37 122Q37 188 82 229Q127 270 230 293L411 334Q414 384 387.5 409Q361 434 305 434Q263 434 212 408.5Q161 383 127 347L78 405Q119 451 183 481.5Q247 512 312 512Q413 512 462 453.5Q511 395 495 307ZM126 127Q126 94 148 78Q170 62 214 62Q279 62 331.5 111.5Q384 161 396 240L399 259L239 224Q178 211 152 189Q126 167 126 127ZM311 498ZM397 -14ZM190 587 288 730H389L463 587H388L334 670L265 587ZM318 500Z" glyph-name="acircumflex.alt" horiz-adv-x="563" /><glyph d="M298 730H192L91 587H175ZM128 500Z" glyph-name="acute" horiz-adv-x="390" unicode="&#180;" /><glyph d="M298 930H192L91 787H175ZM126 700Z" glyph-name="acute.case" horiz-adv-x="390" /><glyph d="M485 0H403L414 65Q380 27 338.5 7.5Q297 -12 251 -12Q159 -12 102 49.5Q45 111 45 205Q45 336 117.5 424Q190 512 298 512Q359 512 403 484.5Q447 457 471 406L489 500H573ZM135 217Q135 147 171 106.5Q207 66 271 66Q343 66 394.5 126.5Q446 187 446 276Q446 346 407.5 390Q369 434 307 434Q234 434 184.5 371.5Q135 309 135 217ZM315 500ZM434 0ZM193 658Q193 634 210 617Q227 600 251 600Q275 600 292.5 617Q310 634 310 658Q310 682 292.5 699.5Q275 717 251 717Q227 717 210 699.5Q193 682 193 658ZM360 658Q360 634 377 617Q394 600 418 600Q442 600 459.5 617Q477 634 477 658Q477 682 459.5 699.5Q442 717 418 717Q394 717 377 699.5Q360 682 360 658ZM315 500Z" glyph-name="adieresis" horiz-adv-x="615" unicode="&#228;" /><glyph d="M495 307 440 0H358L372 80Q339 35 294.5 11.5Q250 -12 199 -12Q125 -12 81 25.5Q37 63 37 122Q37 188 82 229Q127 270 230 293L411 334Q414 384 387.5 409Q361 434 305 434Q263 434 212 408.5Q161 383 127 347L78 405Q119 451 183 481.5Q247 512 312 512Q413 512 462 453.5Q511 395 495 307ZM126 127Q126 94 148 78Q170 62 214 62Q279 62 331.5 111.5Q384 161 396 240L399 259L239 224Q178 211 152 189Q126 167 126 127ZM311 498ZM397 -14ZM195 658Q195 634 212 617Q229 600 253 600Q277 600 294.5 617Q312 634 312 658Q312 682 294.5 699.5Q277 717 253 717Q229 717 212 699.5Q195 682 195 658ZM362 658Q362 634 379 617Q396 600 420 600Q444 600 461.5 617Q479 634 479 658Q479 682 461.5 699.5Q444 717 420 717Q396 717 379 699.5Q362 682 362 658ZM317 500Z" glyph-name="adieresis.alt" horiz-adv-x="563" /><glyph d="M773 141 829 81Q792 36 740.5 12Q689 -12 629 -12Q553 -12 496.5 22Q440 56 414 117Q378 55 324.5 21.5Q271 -12 206 -12Q129 -12 83 25.5Q37 63 37 122Q37 188 82 229Q127 270 230 293L411 334Q414 384 387.5 409Q361 434 305 434Q263 434 212 408.5Q161 383 127 347L78 405Q119 451 183 481.5Q247 512 312 512Q372 512 413 486Q454 460 472 412Q508 460 558 486Q608 512 664 512Q755 512 811.5 457Q868 402 868 312Q868 292 864 266Q860 240 856 229H486Q486 225 486 221Q486 217 486 213Q486 143 526 103Q566 63 635 63Q671 63 704 81.5Q737 100 773 141ZM782 315Q782 373 748 406Q714 439 658 439Q603 439 559 401.5Q515 364 497 300H781Q782 303 782 306Q782 309 782 315ZM126 127Q126 94 148 78Q170 62 214 62Q278 62 329 109.5Q380 157 395 234L400 259L239 224Q178 210 152 188.5Q126 167 126 127Z" glyph-name="ae" horiz-adv-x="908" unicode="&#230;" /><glyph d="M485 0H403L414 65Q380 27 338.5 7.5Q297 -12 251 -12Q159 -12 102 49.5Q45 111 45 205Q45 336 117.5 424Q190 512 298 512Q359 512 403 484.5Q447 457 471 406L489 500H573ZM135 217Q135 147 171 106.5Q207 66 271 66Q343 66 394.5 126.5Q446 187 446 276Q446 346 407.5 390Q369 434 307 434Q234 434 184.5 371.5Q135 309 135 217ZM315 500ZM434 0ZM356 587 279 730H175L274 587ZM315 500Z" glyph-name="agrave" horiz-adv-x="615" unicode="&#224;" /><glyph d="M495 307 440 0H358L372 80Q339 35 294.5 11.5Q250 -12 199 -12Q125 -12 81 25.5Q37 63 37 122Q37 188 82 229Q127 270 230 293L411 334Q414 384 387.5 409Q361 434 305 434Q263 434 212 408.5Q161 383 127 347L78 405Q119 451 183 481.5Q247 512 312 512Q413 512 462 453.5Q511 395 495 307ZM126 127Q126 94 148 78Q170 62 214 62Q279 62 331.5 111.5Q384 161 396 240L399 259L239 224Q178 211 152 189Q126 167 126 127ZM311 498ZM397 -14ZM352 585 275 728H171L270 585ZM311 498Z" glyph-name="agrave.alt" horiz-adv-x="563" /><glyph d="M485 0H403L414 65Q380 27 338.5 7.5Q297 -12 251 -12Q159 -12 102 49.5Q45 111 45 205Q45 336 117.5 424Q190 512 298 512Q359 512 403 484.5Q447 457 471 406L489 500H573ZM135 217Q135 147 171 106.5Q207 66 271 66Q343 66 394.5 126.5Q446 187 446 276Q446 346 407.5 390Q369 434 307 434Q234 434 184.5 371.5Q135 309 135 217ZM315 500ZM434 0ZM451 623H205L219 692H465ZM315 500Z" glyph-name="amacron" horiz-adv-x="615" unicode="&#257;" /><glyph d="M495 307 440 0H358L372 80Q339 35 294.5 11.5Q250 -12 199 -12Q125 -12 81 25.5Q37 63 37 122Q37 188 82 229Q127 270 230 293L411 334Q414 384 387.5 409Q361 434 305 434Q263 434 212 408.5Q161 383 127 347L78 405Q119 451 183 481.5Q247 512 312 512Q413 512 462 453.5Q511 395 495 307ZM126 127Q126 94 148 78Q170 62 214 62Q279 62 331.5 111.5Q384 161 396 240L399 259L239 224Q178 211 152 189Q126 167 126 127ZM311 498ZM397 -14ZM451 623H205L219 692H465ZM315 500Z" glyph-name="amacron.alt" horiz-adv-x="563" /><glyph d="M268 -12Q167 -12 105 35Q43 82 43 164Q43 237 88 291Q133 345 230 385Q207 419 195.5 451Q184 483 184 514Q184 602 240 657Q296 712 378 712Q446 712 491.5 673Q537 634 537 572Q537 506 494 455Q451 404 356 362L493 207Q504 221 515 236Q526 251 538 267L616 376H701L697 355L612 233Q593 207 577 185.5Q561 164 546 147L666 11L664 0H566L489 87Q435 37 381 12.5Q327 -12 268 -12ZM374 639Q325 639 296 604.5Q267 570 267 528Q267 500 278 472Q289 444 311 415Q387 450 422 486Q457 522 457 563Q457 598 434.5 618.5Q412 639 374 639ZM134 174Q134 120 171.5 91.5Q209 63 277 63Q321 63 359.5 82Q398 101 439 144L274 330Q201 302 167.5 264Q134 226 134 174Z" glyph-name="ampersand" horiz-adv-x="715" unicode="&amp;" /><glyph d="M489 500H573L485 0H474Q420 -33 395.5 -60.5Q371 -88 371 -117Q371 -142 386 -154Q401 -166 431 -166Q437 -166 443 -165.5Q449 -165 456 -163L446 -216Q437 -221 426.5 -223Q416 -225 403 -225Q352 -225 323 -201Q294 -177 294 -135Q294 -96 321.5 -62Q349 -28 403 0L414 65Q380 27 338.5 7.5Q297 -12 251 -12Q159 -12 102 49.5Q45 111 45 205Q45 336 117.5 424Q190 512 298 512Q359 512 403 484.5Q447 457 471 406ZM135 217Q135 147 171 106.5Q207 66 271 66Q343 66 394.5 126.5Q446 187 446 276Q446 346 407.5 390Q369 434 307 434Q234 434 184.5 371.5Q135 309 135 217Z" glyph-name="aogonek" horiz-adv-x="615" unicode="&#261;" /><glyph d="M312 512Q413 512 462 453.5Q511 395 495 307L440 0H429Q375 -33 350.5 -60.5Q326 -88 326 -117Q326 -142 341 -154Q356 -166 386 -166Q392 -166 398 -165.5Q404 -165 411 -163L401 -216Q392 -221 381.5 -223Q371 -225 358 -225Q307 -225 278 -201Q249 -177 249 -135Q249 -96 276.5 -62Q304 -28 358 0L372 80Q339 35 294.5 11.5Q250 -12 199 -12Q125 -12 81 25.5Q37 63 37 122Q37 188 82 229Q127 270 230 293L411 334Q414 384 387.5 409Q361 434 305 434Q263 434 212 408.5Q161 383 127 347L78 405Q119 451 183 481.5Q247 512 312 512ZM126 127Q126 94 148 78Q170 62 214 62Q279 62 331.5 111.5Q384 161 396 240L399 259L239 224Q178 211 152 189Q126 167 126 127Z" glyph-name="aogonek.alt" horiz-adv-x="563" /><glyph d="M311.6 239.4Q344 225 360.65 220.5Q377.3 216 391.7 216Q437.6 216 460.55 247.5Q483.5 279 478.1 333H409.7Q410.6 305.1 405.2 295.65Q399.8 286.2 385.4 286.2Q374.6 286.2 361.1 290.25Q347.6 294.3 319.7 306.9Q287.3 322.2 270.65 326.7Q254 331.2 238.7 331.2Q186.5 331.2 159.05 297.9Q131.6 264.6 135.2 208.8H204.5Q205.4 234.9 214.85 247.5Q224.3 260.1 242.3 260.1Q254 260.1 268.4 256.05Q282.8 252 311.6 239.4ZM311.6 406.4Q344 392 360.65 387.5Q377.3 383 391.7 383Q437.6 383 460.55 414.5Q483.5 446 478.1 500H409.7Q410.6 472.1 405.2 462.65Q399.8 453.2 385.4 453.2Q374.6 453.2 361.1 457.25Q347.6 461.3 319.7 473.9Q287.3 489.2 270.65 493.7Q254 498.2 238.7 498.2Q186.5 498.2 159.05 464.9Q131.6 431.6 135.2 375.8H204.5Q205.4 401.9 214.85 414.5Q224.3 427.1 242.3 427.1Q254 427.1 268.4 423.05Q282.8 419 311.6 406.4Z" glyph-name="approxequal" horiz-adv-x="581" unicode="&#8776;" /><glyph d="M485 0H403L414 65Q380 27 338.5 7.5Q297 -12 251 -12Q159 -12 102 49.5Q45 111 45 205Q45 336 117.5 424Q190 512 298 512Q359 512 403 484.5Q447 457 471 406L489 500H573ZM135 217Q135 147 171 106.5Q207 66 271 66Q343 66 394.5 126.5Q446 187 446 276Q446 346 407.5 390Q369 434 307 434Q234 434 184.5 371.5Q135 309 135 217ZM315 500ZM434 0ZM443 668Q443 712 411.5 744Q380 776 335 776Q290 776 259 744.5Q228 713 228 668Q228 623 259 592Q290 561 335 561Q380 561 411.5 592.5Q443 624 443 668ZM286 668Q286 688 300.5 703Q315 718 335 718Q355 718 370 703Q385 688 385 668Q385 649 370 634Q355 619 335 619Q315 619 300.5 634Q286 649 286 668ZM315 500Z" glyph-name="aring" horiz-adv-x="615" unicode="&#229;" /><glyph d="M495 307 440 0H358L372 80Q339 35 294.5 11.5Q250 -12 199 -12Q125 -12 81 25.5Q37 63 37 122Q37 188 82 229Q127 270 230 293L411 334Q414 384 387.5 409Q361 434 305 434Q263 434 212 408.5Q161 383 127 347L78 405Q119 451 183 481.5Q247 512 312 512Q413 512 462 453.5Q511 395 495 307ZM126 127Q126 94 148 78Q170 62 214 62Q279 62 331.5 111.5Q384 161 396 240L399 259L239 224Q178 211 152 189Q126 167 126 127ZM311 498ZM397 -14ZM437 668Q437 712 405.5 744Q374 776 329 776Q284 776 253 744.5Q222 713 222 668Q222 623 253 592Q284 561 329 561Q374 561 405.5 592.5Q437 624 437 668ZM280 668Q280 688 294.5 703Q309 718 329 718Q349 718 364 703Q379 688 379 668Q379 649 364 634Q349 619 329 619Q309 619 294.5 634Q280 649 280 668ZM309 500Z" glyph-name="aring.alt" horiz-adv-x="563" /><glyph d="M272 700H343L531 281H445L307 600L169 281H82Z" glyph-name="asciicircum" horiz-adv-x="580" unicode="^" /><glyph d="M314 326Q350 310 368.5 305Q387 300 403 300Q454 300 479.5 335Q505 370 499 430H423Q424 399 418 388.5Q412 378 396 378Q384 378 369 382.5Q354 387 323 401Q287 418 268.5 423Q250 428 233 428Q175 428 144.5 391Q114 354 118 292H195Q196 321 206.5 335Q217 349 237 349Q250 349 266 344.5Q282 340 314 326Z" glyph-name="asciitilde" horiz-adv-x="580" unicode="~" /><glyph d="M306 460 290 330H212L242 458L125 389L92 455L221 514L115 574L159 640L261 567L278 700H356L325 569L445 640L478 574L345 513L448 455L404 389Z" glyph-name="asterisk" horiz-adv-x="472" unicode="*" /><glyph d="M572 155Q544 110 505.5 86.5Q467 63 422 63Q353 63 309.5 110Q266 157 266 231Q266 346 325.5 424.5Q385 503 473 503Q520 503 554 482.5Q588 462 606 423L618 493H701L653 228Q644 180 656.5 155Q669 130 701 130Q750 130 786.5 188.5Q823 247 823 343Q823 407 800 466.5Q777 526 733 567Q692 605 634 624.5Q576 644 503 644Q335 644 236.5 539.5Q138 435 138 272Q138 100 225.5 6.5Q313 -87 477 -87Q542 -87 593.5 -74.5Q645 -62 714 -24L742 -80Q670 -121 607.5 -138Q545 -155 476 -155Q277 -155 167 -42Q57 71 57 269Q57 358 90 442.5Q123 527 183 588Q243 649 324 680.5Q405 712 503 712Q684 712 793.5 611Q903 510 903 346Q903 221 843 145Q783 69 694 69Q643 69 612 91Q581 113 572 155ZM354 240Q354 185 376.5 157Q399 129 443 129Q491 129 530.5 173Q570 217 580 283Q591 356 565.5 397Q540 438 482 438Q426 438 390 382.5Q354 327 354 240Z" glyph-name="at" horiz-adv-x="943" unicode="@" /><glyph d="M485 0H403L414 65Q380 27 338.5 7.5Q297 -12 251 -12Q159 -12 102 49.5Q45 111 45 205Q45 336 117.5 424Q190 512 298 512Q359 512 403 484.5Q447 457 471 406L489 500H573ZM135 217Q135 147 171 106.5Q207 66 271 66Q343 66 394.5 126.5Q446 187 446 276Q446 346 407.5 390Q369 434 307 434Q234 434 184.5 371.5Q135 309 135 217ZM315 500ZM434 0ZM332 623Q357 610 370.5 605.5Q384 601 397 601Q431 601 451.5 627.5Q472 654 476 704H415Q413 687 407.5 680Q402 673 391 673Q383 673 372.5 676.5Q362 680 340 691Q311 706 296 710.5Q281 715 268 715Q230 715 206 688Q182 661 174 610H237Q241 628 249 636.5Q257 645 269 645Q281 645 294 641Q307 637 332 623ZM315 500Z" glyph-name="atilde" horiz-adv-x="615" unicode="&#227;" /><glyph d="M495 307 440 0H358L372 80Q339 35 294.5 11.5Q250 -12 199 -12Q125 -12 81 25.5Q37 63 37 122Q37 188 82 229Q127 270 230 293L411 334Q414 384 387.5 409Q361 434 305 434Q263 434 212 408.5Q161 383 127 347L78 405Q119 451 183 481.5Q247 512 312 512Q413 512 462 453.5Q511 395 495 307ZM126 127Q126 94 148 78Q170 62 214 62Q279 62 331.5 111.5Q384 161 396 240L399 259L239 224Q178 211 152 189Q126 167 126 127ZM311 498ZM397 -14ZM337 623Q362 610 375.5 605.5Q389 601 402 601Q436 601 456.5 627.5Q477 654 481 704H420Q418 687 412.5 680Q407 673 396 673Q388 673 377.5 676.5Q367 680 345 691Q316 706 301 710.5Q286 715 273 715Q235 715 211 688Q187 661 179 610H242Q246 628 254 636.5Q262 645 274 645Q286 645 299 641Q312 637 337 623ZM320 500Z" glyph-name="atilde.alt" horiz-adv-x="563" /><glyph d="M369 512Q462 512 519.5 450.5Q577 389 577 295Q577 163 504.5 75.5Q432 -12 321 -12Q258 -12 212.5 15.5Q167 43 143 95L126 0H42L170 730H258L207 441Q240 476 281.5 494Q323 512 369 512ZM487 285Q487 352 449.5 392.5Q412 433 348 433Q272 433 221 373Q170 313 170 223Q170 153 209 109.5Q248 66 313 66Q387 66 437 129Q487 192 487 285Z" glyph-name="b" horiz-adv-x="623" unicode="b" /><glyph d="M196 742 471 -132H380L105 742Z" glyph-name="backslash" horiz-adv-x="557" unicode="\" /><glyph d="M203 742V-132H123V742Z" glyph-name="bar" horiz-adv-x="307" unicode="|" /><glyph d="M43 287 57 364 85 363Q124 362 142 383.5Q160 405 163 465Q163 465 164.5 521Q166 577 172 614Q183 679 225.5 710.5Q268 742 346 742H392L378 664H361Q312 664 291.5 651Q271 638 267 610Q265 596 263.5 578.5Q262 561 259 524Q257 479 254.5 456.5Q252 434 249 415Q242 377 218 354Q194 331 144 317Q182 298 198.5 276Q215 254 215 225Q215 204 209.5 179.5Q204 155 187 107Q171 63 166 41.5Q161 20 161 3Q161 -27 179 -40.5Q197 -54 235 -54H253L239 -132H203Q142 -132 104.5 -95.5Q67 -59 67 -1Q67 24 73.5 53Q80 82 99 136Q115 179 119.5 198.5Q124 218 124 233Q124 257 110.5 271Q97 285 72 286Z" glyph-name="braceleft" horiz-adv-x="343" unicode="{" /><glyph d="M320 323 306 246 278 247Q239 248 221 226.5Q203 205 200 145Q200 145 198.5 89Q197 33 191 -4Q180 -69 137.5 -100.5Q95 -132 17 -132H-29L-15 -54H2Q51 -54 71.5 -41Q92 -28 96 0Q98 14 99.5 31.5Q101 49 104 86Q106 131 108.5 153.5Q111 176 114 195Q121 233 145 256Q169 279 219 293Q181 312 164.5 334Q148 356 148 385Q148 406 153.5 430.5Q159 455 176 503Q192 547 197 568.5Q202 590 202 607Q202 637 184 650.5Q166 664 128 664H110L124 742H160Q221 742 258.5 705.5Q296 669 296 611Q296 586 289.5 557Q283 528 264 474Q248 431 243.5 411.5Q239 392 239 377Q239 353 252.5 339Q266 325 291 324Z" glyph-name="braceright" horiz-adv-x="343" unicode="}" /><glyph d="M274 -132H30L184 742H428L414 664H263L137 -54H288Z" glyph-name="bracketleft" horiz-adv-x="372" unicode="[" /><glyph d="M117 742H361L207 -132H-37L-23 -54H128L254 664H103Z" glyph-name="bracketright" horiz-adv-x="371" unicode="]" /><glyph d="M196 646Q231 646 251 667.5Q271 689 273 730H337Q336 667 297.5 626Q259 585 193 585Q129 585 96 625.5Q63 666 67 730H131Q132 683 147 664.5Q162 646 196 646ZM182 500Z" glyph-name="breve" horiz-adv-x="394" unicode="&#728;" /><glyph d="M196 846Q231 846 251 867.5Q271 889 273 930H337Q336 867 297.5 826Q259 785 193 785Q129 785 96 825.5Q63 866 67 930H131Q132 883 147 864.5Q162 846 196 846ZM183 700Z" glyph-name="breve.case" horiz-adv-x="394" /><glyph d="M203 742V405H123V742ZM203 205V-132H123V205Z" glyph-name="brokenbar" horiz-adv-x="307" unicode="&#166;" /><glyph d="M102.5 350.5Q102.5 310 131 281.5Q159.5 253 200 253Q240.5 253 269 281.5Q297.5 310 297.5 350.5Q297.5 391 269 419.5Q240.5 448 200 448Q159.5 448 131 419.5Q102.5 391 102.5 350.5ZM126.5 353.5Z" glyph-name="bullet" horiz-adv-x="370" unicode="&#8226;" /><glyph d="M271 -12Q168 -12 106.5 48Q45 108 45 208Q45 338 123 425Q201 512 315 512Q390 512 445 470.5Q500 429 522 353L441 319Q423 377 390.5 405Q358 433 308 433Q237 433 186 370.5Q135 308 135 218Q135 146 171.5 106Q208 66 273 66Q315 66 349.5 90Q384 114 418 167L490 121Q449 55 393.5 21.5Q338 -12 271 -12ZM273 10ZM313 500Z" glyph-name="c" horiz-adv-x="543" unicode="c" /><glyph d="M271 -12Q168 -12 106.5 48Q45 108 45 208Q45 338 123 425Q201 512 315 512Q390 512 445 470.5Q500 429 522 353L441 319Q423 377 390.5 405Q358 433 308 433Q237 433 186 370.5Q135 308 135 218Q135 146 171.5 106Q208 66 273 66Q315 66 349.5 90Q384 114 418 167L490 121Q449 55 393.5 21.5Q338 -12 271 -12ZM273 10ZM313 500ZM483 730H377L276 587H360ZM313 500Z" glyph-name="cacute" horiz-adv-x="543" unicode="&#263;" /><glyph d="M242 587H141L67 730H142L196 647L265 730H340ZM183 500Z" glyph-name="caron" horiz-adv-x="394" unicode="&#711;" /><glyph d="M242 787H141L67 930H142L196 847L265 930H340ZM184 700Z" glyph-name="caron.case" horiz-adv-x="394" /><glyph d="M146 730H51L5 567H77ZM8 700Z" glyph-name="caron.salt" horiz-adv-x="178" /><glyph d="M271 -12Q168 -12 106.5 48Q45 108 45 208Q45 338 123 425Q201 512 315 512Q390 512 445 470.5Q500 429 522 353L441 319Q423 377 390.5 405Q358 433 308 433Q237 433 186 370.5Q135 308 135 218Q135 146 171.5 106Q208 66 273 66Q315 66 349.5 90Q384 114 418 167L490 121Q449 55 393.5 21.5Q338 -12 271 -12ZM273 10ZM313 500ZM372 587H271L197 730H272L326 647L395 730H470ZM313 500Z" glyph-name="ccaron" horiz-adv-x="543" unicode="&#269;" /><glyph d="M180 -105 166 -80 234 -10Q146 1 95.5 59Q45 117 45 208Q45 338 123 425Q201 512 315 512Q390 512 445 470.5Q500 429 522 353L441 319Q423 377 390.5 405Q358 433 308 433Q237 433 186 370.5Q135 308 135 218Q135 146 171.5 106Q208 66 273 66Q315 66 349.5 90Q384 114 418 167L490 121Q452 61 402.5 27.5Q353 -6 294 -11L244 -60Q246 -60 247.5 -60Q249 -60 251 -60Q292 -60 314 -79Q336 -98 336 -130Q336 -173 303.5 -199Q271 -225 218 -225Q195 -225 172 -219Q149 -213 130 -202L138 -153Q160 -166 175.5 -170Q191 -174 210 -174Q236 -174 249.5 -163.5Q263 -153 263 -132Q263 -117 249 -108.5Q235 -100 212 -100Q204 -100 196 -101.5Q188 -103 180 -105Z" glyph-name="ccedilla" horiz-adv-x="543" unicode="&#231;" /><glyph d="M271 -12Q168 -12 106.5 48Q45 108 45 208Q45 338 123 425Q201 512 315 512Q390 512 445 470.5Q500 429 522 353L441 319Q423 377 390.5 405Q358 433 308 433Q237 433 186 370.5Q135 308 135 218Q135 146 171.5 106Q208 66 273 66Q315 66 349.5 90Q384 114 418 167L490 121Q449 55 393.5 21.5Q338 -12 271 -12ZM273 10ZM313 500ZM185 587 283 730H384L458 587H383L329 670L260 587ZM313 500Z" glyph-name="ccircumflex" horiz-adv-x="543" unicode="&#265;" /><glyph d="M271 -12Q168 -12 106.5 48Q45 108 45 208Q45 338 123 425Q201 512 315 512Q390 512 445 470.5Q500 429 522 353L441 319Q423 377 390.5 405Q358 433 308 433Q237 433 186 370.5Q135 308 135 218Q135 146 171.5 106Q208 66 273 66Q315 66 349.5 90Q384 114 418 167L490 121Q449 55 393.5 21.5Q338 -12 271 -12ZM273 10ZM313 500ZM268 658Q268 631 287 612Q306 593 333 593Q360 593 379 612Q398 631 398 658Q398 685 379 704Q360 723 333 723Q306 723 287 704Q268 685 268 658ZM313 500Z" glyph-name="cdotaccent" horiz-adv-x="543" unicode="&#267;" /><glyph d="M130 -105 116 -80 197 3H258L194 -60Q196 -60 197.5 -60Q199 -60 201 -60Q242 -60 264 -79Q286 -98 286 -130Q286 -173 253.5 -199Q221 -225 168 -225Q145 -225 122 -219Q99 -213 80 -202L88 -153Q110 -166 125.5 -170Q141 -174 160 -174Q186 -174 199.5 -163.5Q213 -153 213 -132Q213 -117 199 -108.5Q185 -100 162 -100Q154 -100 146 -101.5Q138 -103 130 -105ZM223 10Z" glyph-name="cedilla" horiz-adv-x="389" unicode="&#184;" /><glyph d="M167 -84H95L144 22Q99 50 74.5 98.5Q50 147 50 208Q50 338 128 425Q206 512 320 512Q331 512 343 510.5Q355 509 367 507L407 594H479L429 484Q464 464 488.5 431Q513 398 527 353L446 319Q436 350 423 371.5Q410 393 393 407L238 71Q248 69 258 67.5Q268 66 278 66Q320 66 354.5 90Q389 114 423 167L495 121Q454 55 398.5 21.5Q343 -12 276 -12Q257 -12 239 -10Q221 -8 204 -3ZM313 433Q242 433 191 370.5Q140 308 140 218Q140 180 150.5 150.5Q161 121 181 102L332 432Q329 433 325 433Q321 433 313 433Z" glyph-name="cent" horiz-adv-x="562" unicode="&#162;" /><glyph d="M55 587 153 730H254L328 587H253L199 670L130 587ZM183 500Z" glyph-name="circumflex" horiz-adv-x="394" unicode="&#710;" /><glyph d="M55 787 153 930H254L328 787H253L199 870L130 787ZM175 700Z" glyph-name="circumflex.case" horiz-adv-x="394" /><glyph d="M108 447Q108 420 127 401Q146 382 173 382Q200 382 219 401Q238 420 238 447Q238 474 219 493Q200 512 173 512Q146 512 127 493Q108 474 108 447ZM124 449ZM39 53Q39 26 58 7Q77 -12 104 -12Q131 -12 150 7Q169 26 169 53Q169 80 150 99Q131 118 104 118Q77 118 58 99Q39 80 39 53ZM55 55Z" glyph-name="colon" horiz-adv-x="276" unicode=":" /><glyph d="M168 116H67L-20 -139H65Z" glyph-name="comma" horiz-adv-x="252" unicode="," /><glyph d="M165 -66H65L7 -223H88ZM80 -210ZM123 0Z" glyph-name="commaaccent" horiz-adv-x="198" unicode="&#63171;" /><glyph d="M31 587H136L194 730H119ZM77 500Z" glyph-name="commaaccent.salt" horiz-adv-x="198" /><glyph d="M796 351Q796 501 690.5 606.5Q585 712 435 712Q285 712 179.5 606.5Q74 501 74 351Q74 201 180 94.5Q286 -12 435 -12Q584 -12 690 94.5Q796 201 796 351ZM149 351Q149 472 233 557.5Q317 643 435 643Q554 643 638 557.5Q722 472 722 351Q722 230 637.5 144Q553 58 435 58Q317 58 233 144Q149 230 149 351ZM435 170Q359 170 311.5 220.5Q264 271 264 350Q264 428 312.5 480Q361 532 438 532Q488 532 526.5 509Q565 486 585 444L518 407Q501 437 482 450Q463 463 436 463Q395 463 369 431.5Q343 400 343 351Q343 302 369 270Q395 238 437 238Q466 238 485.5 253Q505 268 522 304L590 271Q568 222 528.5 196Q489 170 435 170Z" glyph-name="copyright" horiz-adv-x="834" unicode="&#169;" /><glyph d="M104 106 56 166 164 258Q152 278 146 300.5Q140 323 140 346Q140 371 147.5 395.5Q155 420 169 442L101 525L169 585L238 501Q255 509 274 513.5Q293 518 312 518Q337 518 361 510.5Q385 503 406 489L519 585L567 525L460 434Q472 414 478 391.5Q484 369 484 346Q484 322 477.5 299.5Q471 277 458 257L533 166L465 106L392 194Q374 184 353.5 179Q333 174 312 174Q287 174 263 181.5Q239 189 218 203ZM312 249Q352 249 380 277.5Q408 306 408 346Q408 386 380 414Q352 442 312 442Q272 442 243.5 414Q215 386 215 346Q215 306 243.5 277.5Q272 249 312 249Z" glyph-name="currency" horiz-adv-x="596" unicode="&#164;" /><glyph d="M45 205Q45 336 118.5 424Q192 512 302 512Q363 512 407.5 486Q452 460 477 411L533 730H621L493 0H409L419 63Q386 26 344.5 7Q303 -12 255 -12Q161 -12 103 49Q45 110 45 205ZM135 217Q135 148 172.5 107Q210 66 275 66Q350 66 402 126Q454 186 454 276Q454 346 414.5 390Q375 434 311 434Q237 434 186 371.5Q135 309 135 217ZM665 700Z" glyph-name="d" horiz-adv-x="623" unicode="d" /><glyph d="M276 428 210 0H122L207 428L70 420L84 500L217 492L246 700H334L288 492L424 500L410 420Z" glyph-name="dagger" horiz-adv-x="420" unicode="&#8224;" /><glyph d="M224 0H136L182 208L46 200L60 280L192 272L198 350L219 428L84 420L98 500L231 492L260 700H348L302 492L438 500L424 420L292 428L286 350L265 272L400 280L386 200L253 208Z" glyph-name="daggerdbl" horiz-adv-x="449" unicode="&#8225;" /><glyph d="M45 205Q45 336 118.5 424Q192 512 302 512Q363 512 407.5 486Q452 460 477 411L533 730H621L493 0H409L419 63Q386 26 344.5 7Q303 -12 255 -12Q161 -12 103 49Q45 110 45 205ZM135 217Q135 148 172.5 107Q210 66 275 66Q350 66 402 126Q454 186 454 276Q454 346 414.5 390Q375 434 311 434Q237 434 186 371.5Q135 309 135 217ZM665 700ZM803 730H708L662 567H734ZM665 700Z" glyph-name="dcaron" horiz-adv-x="643" unicode="&#271;" /><glyph d="M45 205Q45 336 118.5 424Q192 512 302 512Q363 512 407.5 486Q452 460 477 411L507 582H353L367 658H520L533 730H621L608 658H688L674 582H595L493 0H409L419 63Q386 26 344.5 7Q303 -12 255 -12Q161 -12 103 49Q45 110 45 205ZM135 217Q135 148 172.5 107Q210 66 275 66Q350 66 402 126Q454 186 454 276Q454 346 414.5 390Q375 434 311 434Q237 434 186 371.5Q135 309 135 217Z" glyph-name="dcroat" horiz-adv-x="623" unicode="&#273;" /><glyph d="M388 570Q388 629 346.5 670.5Q305 712 246 712Q186 712 144 670.5Q102 629 102 570Q102 511 144.5 469Q187 427 246 427Q305 427 346.5 469Q388 511 388 570ZM170 570Q170 602 192 624.5Q214 647 246 647Q278 647 300.5 624.5Q323 602 323 570Q323 538 300.5 516Q278 494 246 494Q214 494 192 516Q170 538 170 570Z" glyph-name="degree" horiz-adv-x="385" unicode="&#176;" /><glyph d="M55 658Q55 634 72 617Q89 600 113 600Q137 600 154.5 617Q172 634 172 658Q172 682 154.5 699.5Q137 717 113 717Q89 717 72 699.5Q55 682 55 658ZM222 658Q222 634 239 617Q256 600 280 600Q304 600 321.5 617Q339 634 339 658Q339 682 321.5 699.5Q304 717 280 717Q256 717 239 699.5Q222 682 222 658ZM177 500Z" glyph-name="dieresis" horiz-adv-x="394" unicode="&#168;" /><glyph d="M55 858Q55 834 72 817Q89 800 113 800Q137 800 154.5 817Q172 834 172 858Q172 882 154.5 899.5Q137 917 113 917Q89 917 72 899.5Q55 882 55 858ZM222 858Q222 834 239 817Q256 800 280 800Q304 800 321.5 817Q339 834 339 858Q339 882 321.5 899.5Q304 917 280 917Q256 917 239 899.5Q222 882 222 858ZM177 700Z" glyph-name="dieresis.case" horiz-adv-x="394" /><glyph d="M83 310V390H533V310ZM250 161Q250 136 267 119Q284 102 308 102Q332 102 349.5 119Q367 136 367 161Q367 185 349.5 202Q332 219 308 219Q284 219 267 202Q250 185 250 161ZM250 541Q250 516 267 499Q284 482 308 482Q332 482 349.5 499Q367 516 367 541Q367 565 349.5 582Q332 599 308 599Q284 599 267 582Q250 565 250 541Z" glyph-name="divide" horiz-adv-x="580" unicode="&#247;" /><glyph d="M273 -12 251 -134H187L210 -4Q149 10 97 44.5Q45 79 11 127L82 193Q115 149 150.5 122Q186 95 225 83L269 331L227 352Q168 381 138.5 423Q109 465 109 520Q109 601 170.5 656.5Q232 712 333 712Q334 712 335 712Q336 712 337 712L358 833H422L399 706Q453 695 498.5 666Q544 637 581 590L509 527Q481 563 450 585.5Q419 608 384 618L345 397L408 365Q462 338 489.5 298.5Q517 259 517 208Q517 112 452.5 50Q388 -12 287 -12Q284 -12 280.5 -12Q277 -12 273 -12ZM202 532Q202 498 217 475Q232 452 266 436L286 426L321 626Q264 624 233 598Q202 572 202 532ZM423 194Q423 225 406.5 249Q390 273 358 288L328 303L288 73H290Q353 73 388 106.5Q423 140 423 194Z" glyph-name="dollar" horiz-adv-x="575" unicode="$" /><glyph d="M128 658Q128 631 147 612Q166 593 193 593Q220 593 239 612Q258 631 258 658Q258 685 239 704Q220 723 193 723Q166 723 147 704Q128 685 128 658ZM173 500Z" glyph-name="dotaccent" horiz-adv-x="386" unicode="&#729;" /><glyph d="M128 858Q128 831 147 812Q166 793 193 793Q220 793 239 812Q258 831 258 858Q258 885 239 904Q220 923 193 923Q166 923 147 904Q128 885 128 858ZM173 700Z" glyph-name="dotaccent.case" horiz-adv-x="386" /><glyph d="M43 0 129 500H217L131 0ZM173 500Z" glyph-name="dotlessi" horiz-adv-x="260" unicode="&#305;" /><glyph d="M279 -12Q175 -12 110.5 49.5Q46 111 46 210Q46 341 123 426.5Q200 512 314 512Q405 512 461.5 457Q518 402 518 312Q518 292 514 266Q510 240 506 229H136Q136 225 136 221Q136 217 136 213Q136 143 176 103Q216 63 285 63Q320 63 352 80Q384 97 424 140L479 81Q442 36 390.5 12Q339 -12 279 -12ZM432 315Q432 373 398 406Q364 439 308 439Q253 439 209 401.5Q165 364 147 300H431Q432 303 432 306Q432 309 432 315ZM312 500ZM320 0Z" glyph-name="e" horiz-adv-x="558" unicode="e" /><glyph d="M279 -12Q175 -12 110.5 49.5Q46 111 46 210Q46 341 123 426.5Q200 512 314 512Q405 512 461.5 457Q518 402 518 312Q518 292 514 266Q510 240 506 229H136Q136 225 136 221Q136 217 136 213Q136 143 176 103Q216 63 285 63Q320 63 352 80Q384 97 424 140L479 81Q442 36 390.5 12Q339 -12 279 -12ZM432 315Q432 373 398 406Q364 439 308 439Q253 439 209 401.5Q165 364 147 300H431Q432 303 432 306Q432 309 432 315ZM312 500ZM320 0ZM482 730H376L275 587H359ZM312 500Z" glyph-name="eacute" horiz-adv-x="558" unicode="&#233;" /><glyph d="M279 -12Q175 -12 110.5 49.5Q46 111 46 210Q46 341 123 426.5Q200 512 314 512Q405 512 461.5 457Q518 402 518 312Q518 292 514 266Q510 240 506 229H136Q136 225 136 221Q136 217 136 213Q136 143 176 103Q216 63 285 63Q320 63 352 80Q384 97 424 140L479 81Q442 36 390.5 12Q339 -12 279 -12ZM432 315Q432 373 398 406Q364 439 308 439Q253 439 209 401.5Q165 364 147 300H431Q432 303 432 306Q432 309 432 315ZM312 500ZM320 0ZM326 646Q361 646 381 667.5Q401 689 403 730H467Q466 667 427.5 626Q389 585 323 585Q259 585 226 625.5Q193 666 197 730H261Q262 683 277 664.5Q292 646 326 646ZM312 500Z" glyph-name="ebreve" horiz-adv-x="558" unicode="&#277;" /><glyph d="M279 -12Q175 -12 110.5 49.5Q46 111 46 210Q46 341 123 426.5Q200 512 314 512Q405 512 461.5 457Q518 402 518 312Q518 292 514 266Q510 240 506 229H136Q136 225 136 221Q136 217 136 213Q136 143 176 103Q216 63 285 63Q320 63 352 80Q384 97 424 140L479 81Q442 36 390.5 12Q339 -12 279 -12ZM432 315Q432 373 398 406Q364 439 308 439Q253 439 209 401.5Q165 364 147 300H431Q432 303 432 306Q432 309 432 315ZM312 500ZM320 0ZM371 587H270L196 730H271L325 647L394 730H469ZM312 500Z" glyph-name="ecaron" horiz-adv-x="558" unicode="&#283;" /><glyph d="M279 -12Q175 -12 110.5 49.5Q46 111 46 210Q46 341 123 426.5Q200 512 314 512Q405 512 461.5 457Q518 402 518 312Q518 292 514 266Q510 240 506 229H136Q136 225 136 221Q136 217 136 213Q136 143 176 103Q216 63 285 63Q320 63 352 80Q384 97 424 140L479 81Q442 36 390.5 12Q339 -12 279 -12ZM432 315Q432 373 398 406Q364 439 308 439Q253 439 209 401.5Q165 364 147 300H431Q432 303 432 306Q432 309 432 315ZM312 500ZM320 0ZM184 587 282 730H383L457 587H382L328 670L259 587ZM312 500Z" glyph-name="ecircumflex" horiz-adv-x="558" unicode="&#234;" /><glyph d="M279 -12Q175 -12 110.5 49.5Q46 111 46 210Q46 341 123 426.5Q200 512 314 512Q405 512 461.5 457Q518 402 518 312Q518 292 514 266Q510 240 506 229H136Q136 225 136 221Q136 217 136 213Q136 143 176 103Q216 63 285 63Q320 63 352 80Q384 97 424 140L479 81Q442 36 390.5 12Q339 -12 279 -12ZM432 315Q432 373 398 406Q364 439 308 439Q253 439 209 401.5Q165 364 147 300H431Q432 303 432 306Q432 309 432 315ZM312 500ZM320 0ZM190 658Q190 634 207 617Q224 600 248 600Q272 600 289.5 617Q307 634 307 658Q307 682 289.5 699.5Q272 717 248 717Q224 717 207 699.5Q190 682 190 658ZM357 658Q357 634 374 617Q391 600 415 600Q439 600 456.5 617Q474 634 474 658Q474 682 456.5 699.5Q439 717 415 717Q391 717 374 699.5Q357 682 357 658ZM312 500Z" glyph-name="edieresis" horiz-adv-x="558" unicode="&#235;" /><glyph d="M279 -12Q175 -12 110.5 49.5Q46 111 46 210Q46 341 123 426.5Q200 512 314 512Q405 512 461.5 457Q518 402 518 312Q518 292 514 266Q510 240 506 229H136Q136 225 136 221Q136 217 136 213Q136 143 176 103Q216 63 285 63Q320 63 352 80Q384 97 424 140L479 81Q442 36 390.5 12Q339 -12 279 -12ZM432 315Q432 373 398 406Q364 439 308 439Q253 439 209 401.5Q165 364 147 300H431Q432 303 432 306Q432 309 432 315ZM312 500ZM320 0ZM267 658Q267 631 286 612Q305 593 332 593Q359 593 378 612Q397 631 397 658Q397 685 378 704Q359 723 332 723Q305 723 286 704Q267 685 267 658ZM312 500Z" glyph-name="edotaccent" horiz-adv-x="558" unicode="&#279;" /><glyph d="M279 -12Q175 -12 110.5 49.5Q46 111 46 210Q46 341 123 426.5Q200 512 314 512Q405 512 461.5 457Q518 402 518 312Q518 292 514 266Q510 240 506 229H136Q136 225 136 221Q136 217 136 213Q136 143 176 103Q216 63 285 63Q320 63 352 80Q384 97 424 140L479 81Q442 36 390.5 12Q339 -12 279 -12ZM432 315Q432 373 398 406Q364 439 308 439Q253 439 209 401.5Q165 364 147 300H431Q432 303 432 306Q432 309 432 315ZM312 500ZM320 0ZM353 587 276 730H172L271 587ZM312 500Z" glyph-name="egrave" horiz-adv-x="558" unicode="&#232;" /><glyph d="M542 209Q542 112 472 50Q402 -12 290 -12Q183 -12 116 41.5Q49 95 49 177Q49 245 88.5 299.5Q128 354 198 375Q160 398 141 431.5Q122 465 122 509Q122 595 188.5 653.5Q255 712 358 712Q460 712 522.5 661.5Q585 611 585 534Q585 473 550.5 423.5Q516 374 455 353Q498 329 520 293Q542 257 542 209ZM216 510Q216 458 252 427.5Q288 397 349 397Q412 397 451.5 437.5Q491 478 491 530Q491 577 453.5 604.5Q416 632 352 632Q291 632 253.5 599.5Q216 567 216 510ZM296 322Q227 322 185.5 280Q144 238 144 180Q144 129 185 99Q226 69 294 69Q361 69 404 104.5Q447 140 447 199Q447 256 406.5 289Q366 322 296 322Z" glyph-name="eight" horiz-adv-x="611" unicode="8" /><glyph d="M81 188Q63 200 54 217Q45 234 45 255Q45 299 79.5 327.5Q114 356 169 356Q224 356 258.5 330Q293 304 293 265Q293 235 276.5 210.5Q260 186 230 174Q251 161 261.5 143Q272 125 272 103Q272 55 235 24.5Q198 -6 140 -6Q81 -6 44.5 21Q8 48 8 90Q8 123 27.5 149.5Q47 176 81 188ZM169 301Q145 301 130 287Q115 273 115 249Q115 228 128.5 215.5Q142 203 165 203Q190 203 205 219.5Q220 236 220 259Q220 279 206.5 290Q193 301 169 301ZM142 153Q115 153 98.5 136.5Q82 120 82 96Q82 75 98 62.5Q114 50 140 50Q166 50 183 65Q200 80 200 105Q200 127 184.5 140Q169 153 142 153Z" glyph-name="eight.denominator" horiz-adv-x="334" unicode="&#63069;" /><glyph d="M56 48Q38 60 29 77Q20 94 20 115Q20 159 54.5 187.5Q89 216 144 216Q199 216 233.5 190Q268 164 268 125Q268 95 251.5 70.5Q235 46 205 34Q226 21 236.5 3Q247 -15 247 -37Q247 -85 210 -115.5Q173 -146 115 -146Q56 -146 19.5 -119Q-17 -92 -17 -50Q-17 -17 2.5 9.5Q22 36 56 48ZM144 161Q120 161 105 147Q90 133 90 109Q90 88 103.5 75.5Q117 63 140 63Q165 63 180 79.5Q195 96 195 119Q195 139 181.5 150Q168 161 144 161ZM117 13Q90 13 73.5 -3.5Q57 -20 57 -44Q57 -65 73 -77.5Q89 -90 115 -90Q141 -90 158 -75Q175 -60 175 -35Q175 -13 159.5 0Q144 13 117 13Z" glyph-name="eight.inferior" horiz-adv-x="334" unicode="&#8328;" /><glyph d="M143 538Q125 550 116 567Q107 584 107 605Q107 649 141.5 677.5Q176 706 231 706Q286 706 320.5 680Q355 654 355 615Q355 585 338.5 560.5Q322 536 292 524Q313 511 323.5 493Q334 475 334 453Q334 405 297 374.5Q260 344 202 344Q143 344 106.5 371Q70 398 70 440Q70 473 89.5 499.5Q109 526 143 538ZM231 651Q207 651 192 637Q177 623 177 599Q177 578 190.5 565.5Q204 553 227 553Q252 553 267 569.5Q282 586 282 609Q282 629 268.5 640Q255 651 231 651ZM204 503Q177 503 160.5 486.5Q144 470 144 446Q144 425 160 412.5Q176 400 202 400Q228 400 245 415Q262 430 262 455Q262 477 246.5 490Q231 503 204 503Z" glyph-name="eight.numerator" horiz-adv-x="334" unicode="&#63081;" /><glyph d="M167 678Q149 690 140 707Q131 724 131 745Q131 789 165.5 817.5Q200 846 255 846Q310 846 344.5 820Q379 794 379 755Q379 725 362.5 700.5Q346 676 316 664Q337 651 347.5 633Q358 615 358 593Q358 545 321 514.5Q284 484 226 484Q167 484 130.5 511Q94 538 94 580Q94 613 113.5 639.5Q133 666 167 678ZM255 791Q231 791 216 777Q201 763 201 739Q201 718 214.5 705.5Q228 693 251 693Q276 693 291 709.5Q306 726 306 749Q306 769 292.5 780Q279 791 255 791ZM228 643Q201 643 184.5 626.5Q168 610 168 586Q168 565 184 552.5Q200 540 226 540Q252 540 269 555Q286 570 286 595Q286 617 270.5 630Q255 643 228 643Z" glyph-name="eight.superior" horiz-adv-x="334" unicode="&#8312;" /><glyph d="M536 209Q536 112 466 50Q396 -12 284 -12Q177 -12 110 41.5Q43 95 43 177Q43 245 82.5 299.5Q122 354 192 375Q154 398 135 431.5Q116 465 116 509Q116 595 182.5 653.5Q249 712 352 712Q454 712 516.5 661.5Q579 611 579 534Q579 473 544.5 423.5Q510 374 449 353Q492 329 514 293Q536 257 536 209ZM210 510Q210 458 246 427.5Q282 397 343 397Q406 397 445.5 437.5Q485 478 485 530Q485 577 447.5 604.5Q410 632 346 632Q285 632 247.5 599.5Q210 567 210 510ZM290 322Q221 322 179.5 280Q138 238 138 180Q138 129 179 99Q220 69 288 69Q355 69 398 104.5Q441 140 441 199Q441 256 400.5 289Q360 322 290 322Z" glyph-name="eight.tab" horiz-adv-x="600" unicode="&#65304;" /><glyph d="M35 53Q35 26 54 7Q73 -12 100 -12Q127 -12 146 7Q165 26 165 53Q165 80 146 99Q127 118 100 118Q73 118 54 99Q35 80 35 53ZM51 55ZM237 53Q237 26 256 7Q275 -12 302 -12Q329 -12 348 7Q367 26 367 53Q367 80 348 99Q329 118 302 118Q275 118 256 99Q237 80 237 53ZM253 55ZM437 53Q437 26 456 7Q475 -12 502 -12Q529 -12 548 7Q567 26 567 53Q567 80 548 99Q529 118 502 118Q475 118 456 99Q437 80 437 53ZM453 55Z" glyph-name="ellipsis" horiz-adv-x="651" unicode="&#8230;" /><glyph d="M279 -12Q175 -12 110.5 49.5Q46 111 46 210Q46 341 123 426.5Q200 512 314 512Q405 512 461.5 457Q518 402 518 312Q518 292 514 266Q510 240 506 229H136Q136 225 136 221Q136 217 136 213Q136 143 176 103Q216 63 285 63Q320 63 352 80Q384 97 424 140L479 81Q442 36 390.5 12Q339 -12 279 -12ZM432 315Q432 373 398 406Q364 439 308 439Q253 439 209 401.5Q165 364 147 300H431Q432 303 432 306Q432 309 432 315ZM312 500ZM320 0ZM448 623H202L216 692H462ZM312 500Z" glyph-name="emacron" horiz-adv-x="558" unicode="&#275;" /><glyph d="M66 221 80 301H877L863 221Z" glyph-name="emdash" horiz-adv-x="939" unicode="&#8212;" /><glyph d="M66 221 80 301H517L503 221Z" glyph-name="endash" horiz-adv-x="579" unicode="&#8211;" /><glyph d="M136 213Q136 143 176 103Q216 63 285 63Q320 63 352 80Q384 97 424 140L479 81Q468 66 451 51.5Q434 37 407 19Q377 -1 358.5 -14Q340 -27 334 -32Q313 -50 303.5 -68.5Q294 -87 294 -108Q294 -137 309 -151.5Q324 -166 355 -166Q364 -166 372.5 -165.5Q381 -165 390 -163L380 -216Q367 -221 354 -223Q341 -225 327 -225Q276 -225 246.5 -198Q217 -171 217 -124Q217 -94 234.5 -65.5Q252 -37 285 -12H279Q175 -12 110.5 49.5Q46 111 46 210Q46 341 123 426.5Q200 512 314 512Q405 512 461.5 457Q518 402 518 312Q518 292 514 266Q510 240 506 229H136Q136 225 136 221Q136 217 136 213ZM432 315Q432 373 398 406Q364 439 308 439Q253 439 209 401.5Q165 364 147 300H431Q432 304 432 307Q432 310 432 315Z" glyph-name="eogonek" horiz-adv-x="558" unicode="&#281;" /><glyph d="M79 205V285H529V205ZM79 415V495H529V415Z" glyph-name="equal" horiz-adv-x="580" unicode="=" /><glyph d="M436 39Q511 39 577 74Q643 109 687 172L728 139Q677 68 600 28Q523 -12 436 -12Q287 -12 181.5 94Q76 200 76 350Q76 500 181.5 606Q287 712 436 712Q589 712 692.5 604.5Q796 497 796 335H203V151Q247 98 307.5 68.5Q368 39 436 39ZM436 662Q368 662 307.5 633.5Q247 605 203 553V389H665V555Q623 606 563.5 634Q504 662 436 662Z" glyph-name="estimated" horiz-adv-x="816" unicode="&#8494;" /><glyph d="M363 539 323 586 381 631Q369 644 354.5 658.5Q340 673 322 688L394 741Q409 727 422.5 712.5Q436 698 448 684L498 726L537 677L484 635Q524 573 544.5 504Q565 435 565 362Q565 193 485.5 90.5Q406 -12 280 -12Q175 -12 111 51Q47 114 47 216Q47 342 123.5 427Q200 512 310 512Q370 512 415.5 484.5Q461 457 485 406Q479 454 462.5 497.5Q446 541 419 582ZM317 433Q243 433 189.5 372Q136 311 136 224Q136 152 175.5 109Q215 66 283 66Q358 66 411.5 126.5Q465 187 465 276Q465 344 423 388.5Q381 433 317 433Z" glyph-name="eth" horiz-adv-x="609" unicode="&#240;" /><glyph d="M99 190 163 700H272L156 190ZM49 53Q49 26 68 7Q87 -12 114 -12Q141 -12 160 7Q179 26 179 53Q179 80 160 99Q141 118 114 118Q87 118 68 99Q49 80 49 53Z" glyph-name="exclam" horiz-adv-x="282" unicode="!" /><glyph d="M176 310 112 -200H3L119 310ZM226 447Q226 474 207 493Q188 512 161 512Q134 512 115 493Q96 474 96 447Q96 420 115 401Q134 382 161 382Q188 382 207 401Q226 420 226 447Z" glyph-name="exclamdown" horiz-adv-x="268" unicode="&#161;" /><glyph d="M58 424 72 500H157L169 567Q185 654 232 698Q279 742 357 742Q381 742 403 738Q425 734 449 726L426 651Q406 658 390 661Q374 664 359 664Q316 664 291 639Q266 614 256 561L245 500H391L377 424H232L158 0H70L144 424Z" glyph-name="f" horiz-adv-x="365" unicode="f" /><glyph d="M58 424 72 500H157L169 567Q185 654 232 698Q279 742 357 742Q381 742 403 738Q425 734 449 726L426 651Q406 658 390 661Q374 664 359 664Q316 664 291 639Q266 614 256 561L245 500H391L377 424H232L158 0H70L144 424ZM423 424 437 500H522L534 567Q550 654 597 698Q644 742 722 742Q746 742 768 738Q790 734 814 726L791 651Q771 658 755 661Q739 664 724 664Q681 664 656 639Q631 614 621 561L610 500H756L742 424H597L523 0H435L509 424Z" glyph-name="f_f" horiz-adv-x="730" unicode="&#64256;" /><glyph d="M58 424 72 500H157L169 567Q185 654 232 698Q279 742 357 742Q381 742 403 738Q425 734 449 726L426 651Q406 658 390 661Q374 664 359 664Q316 664 291 639Q266 614 256 561L245 500H391L377 424H232L158 0H70L144 424ZM423 424 437 500H522L534 567Q550 654 597 698Q644 742 722 742Q746 742 768 738Q790 734 814 726L791 651Q771 658 755 661Q739 664 724 664Q681 664 656 639Q631 614 621 561L610 500H756L742 424H597L523 0H435L509 424ZM773 0 859 500H947L861 0ZM996 678Q996 704 977 723Q958 742 932 742Q906 742 887.5 723Q869 704 869 678Q869 652 887.5 633.5Q906 615 932 615Q959 615 977.5 633.5Q996 652 996 678ZM809 0Z" glyph-name="f_f_i" horiz-adv-x="990" unicode="&#64259;" /><glyph d="M58 424 72 500H157L169 567Q185 654 232 698Q279 742 357 742Q381 742 403 738Q425 734 449 726L426 651Q406 658 390 661Q374 664 359 664Q316 664 291 639Q266 614 256 561L245 500H391L377 424H232L158 0H70L144 424ZM423 424 437 500H522L534 567Q550 654 597 698Q644 742 722 742Q746 742 768 738Q790 734 814 726L791 651Q771 658 755 661Q739 664 724 664Q681 664 656 639Q631 614 621 561L610 500H756L742 424H597L523 0H435L509 424ZM772 0 901 730H989L860 0ZM816 0ZM945 730ZM1032 700ZM972 350Z" glyph-name="f_f_l" horiz-adv-x="990" unicode="&#64260;" /><glyph d="M58 424 72 500H157L169 567Q185 654 232 698Q279 742 357 742Q381 742 403 738Q425 734 449 726L426 651Q406 658 390 661Q374 664 359 664Q316 664 291 639Q266 614 256 561L245 500H391L377 424H232L158 0H70L144 424ZM408 0 494 500H582L496 0ZM631 678Q631 704 612 723Q593 742 567 742Q541 742 522.5 723Q504 704 504 678Q504 652 522.5 633.5Q541 615 567 615Q594 615 612.5 633.5Q631 652 631 678ZM444 0Z" glyph-name="fi" horiz-adv-x="625" unicode="&#64257;" /><glyph d="M325 445Q419 445 476.5 390.5Q534 336 534 251Q534 134 462.5 61Q391 -12 274 -12Q181 -12 111 33.5Q41 79 21 154L107 192Q126 133 169 102Q212 71 276 71Q348 71 393.5 118Q439 165 439 243Q439 299 403 330.5Q367 362 304 362Q265 362 229.5 347Q194 332 168 306L91 347L204 700H561L546 616H267L200 412Q227 429 258 437Q289 445 325 445Z" glyph-name="five" horiz-adv-x="584" unicode="5" /><glyph d="M160 227Q209 227 239 199Q269 171 269 128Q269 69 231 31.5Q193 -6 132 -6Q82 -6 45 16.5Q8 39 -5 79L55 110Q64 82 83 68Q102 54 131 54Q162 54 179 71.5Q196 89 196 122Q196 145 181.5 158Q167 171 141 171Q125 171 109.5 164.5Q94 158 82 147L30 173L85 350H284L273 289H130L105 214Q117 221 131 224Q145 227 160 227Z" glyph-name="five.denominator" horiz-adv-x="321" unicode="&#63066;" /><glyph d="M135 87Q184 87 214 59Q244 31 244 -12Q244 -71 206 -108.5Q168 -146 107 -146Q57 -146 20 -123.5Q-17 -101 -30 -61L30 -30Q39 -58 58 -72Q77 -86 106 -86Q137 -86 154 -68.5Q171 -51 171 -18Q171 5 156.5 18Q142 31 116 31Q100 31 84.5 24.5Q69 18 57 7L5 33L60 210H259L248 149H105L80 74Q92 81 106 84Q120 87 135 87Z" glyph-name="five.inferior" horiz-adv-x="321" unicode="&#8325;" /><glyph d="M221 577Q270 577 300 549Q330 521 330 478Q330 419 292 381.5Q254 344 193 344Q143 344 106 366.5Q69 389 56 429L116 460Q125 432 144 418Q163 404 192 404Q223 404 240 421.5Q257 439 257 472Q257 495 242.5 508Q228 521 202 521Q186 521 170.5 514.5Q155 508 143 497L91 523L146 700H345L334 639H191L166 564Q178 571 192 574Q206 577 221 577Z" glyph-name="five.numerator" horiz-adv-x="321" unicode="&#63078;" /><glyph d="M246 717Q295 717 325 689Q355 661 355 618Q355 559 317 521.5Q279 484 218 484Q168 484 131 506.5Q94 529 81 569L141 600Q150 572 169 558Q188 544 217 544Q248 544 265 561.5Q282 579 282 612Q282 635 267.5 648Q253 661 227 661Q211 661 195.5 654.5Q180 648 168 637L116 663L171 840H370L359 779H216L191 704Q203 711 217 714Q231 717 246 717Z" glyph-name="five.superior" horiz-adv-x="321" unicode="&#8309;" /><glyph d="M333 445Q427 445 484.5 390.5Q542 336 542 251Q542 134 470.5 61Q399 -12 282 -12Q189 -12 119 33.5Q49 79 29 154L115 192Q134 133 177 102Q220 71 284 71Q356 71 401.5 118Q447 165 447 243Q447 299 411 330.5Q375 362 312 362Q273 362 237.5 347Q202 332 176 306L99 347L212 700H569L554 616H275L208 412Q235 429 266 437Q297 445 333 445Z" glyph-name="five.tab" horiz-adv-x="600" unicode="&#65301;" /><glyph d="M58 424 72 500H157L169 567Q185 654 232 698Q279 742 357 742Q381 742 403 738Q425 734 449 726L426 651Q406 658 390 661Q374 664 359 664Q316 664 291 639Q266 614 256 561L245 500H391L377 424H232L158 0H70L144 424ZM407 0 536 730H624L495 0ZM451 0ZM580 730ZM667 700ZM607 350Z" glyph-name="fl" horiz-adv-x="625" unicode="&#64258;" /><glyph d="M254 364 181 -55Q167 -138 118 -184Q69 -230 -9 -230Q-32 -230 -53 -226.5Q-74 -223 -99 -214L-76 -139Q-55 -146 -40 -149Q-25 -152 -9 -152Q35 -152 60 -127.5Q85 -103 94 -49L166 364H58L72 440H180L202 567Q216 650 265 696Q314 742 392 742Q415 742 436 738.5Q457 735 482 726L459 651Q438 658 423 661Q408 664 392 664Q348 664 323 639.5Q298 615 289 561L268 440H404L390 364Z" glyph-name="florin" horiz-adv-x="420" /><glyph d="M380 250 407 403 508 435 475 250H574L560 166H461L431 0H336L366 166H13L25 237L427 700H542L152 250Z" glyph-name="four" horiz-adv-x="605" unicode="4" /><glyph d="M187 134 199 197 275 222 259 134H306L296 74H249L236 0H164L177 74H-8L1 127L191 350H279L95 134Z" glyph-name="four.denominator" horiz-adv-x="350" unicode="&#63065;" /><glyph d="M162 -6 174 57 250 82 234 -6H281L271 -66H224L211 -140H139L152 -66H-33L-24 -13L166 210H254L70 -6Z" glyph-name="four.inferior" horiz-adv-x="350" unicode="&#8324;" /><glyph d="M248 484 260 547 336 572 320 484H367L357 424H310L297 350H225L238 424H53L62 477L252 700H340L156 484Z" glyph-name="four.numerator" horiz-adv-x="350" unicode="&#63077;" /><glyph d="M273 624 285 687 361 712 345 624H392L382 564H335L322 490H250L263 564H78L87 617L277 840H365L181 624Z" glyph-name="four.superior" horiz-adv-x="350" unicode="&#8308;" /><glyph d="M377 250 404 403 505 435 472 250H571L557 166H458L428 0H333L363 166H10L22 237L424 700H539L149 250Z" glyph-name="four.tab" horiz-adv-x="600" unicode="&#65300;" /><glyph d="M-69 0H-145L262 700H338Z" glyph-name="fraction" horiz-adv-x="160" unicode="&#8260;" /><glyph d="M62 0 186 700H611L595 612H265L226 392H526L511 304H211L157 0ZM524 0 612 500H696L676 390Q706 448 746 476Q786 504 838 504Q848 504 857.5 503Q867 502 879 500L862 416Q853 417 842.5 418Q832 419 821 419Q760 419 712.5 361Q665 303 648 205L612 0Z" glyph-name="franc" horiz-adv-x="871" unicode="&#8355;" /><glyph d="M262 11Q174 11 113.5 73Q53 135 53 222Q53 348 123.5 430Q194 512 303 512Q364 512 409.5 484.5Q455 457 479 407L497 500H581L494 0Q474 -114 410.5 -172Q347 -230 241 -230Q161 -230 92.5 -194.5Q24 -159 -13 -103L53 -46Q91 -99 138 -125.5Q185 -152 242 -152Q309 -152 350.5 -111Q392 -70 406 10L417 74Q386 43 346.5 27Q307 11 262 11ZM143 235Q143 169 181.5 129Q220 89 283 89Q356 89 404.5 145Q453 201 453 286Q453 352 414.5 392.5Q376 433 312 433Q240 433 191.5 376Q143 319 143 235ZM317 500Z" glyph-name="g" horiz-adv-x="623" unicode="g" /><glyph d="M262 11Q174 11 113.5 73Q53 135 53 222Q53 348 123.5 430Q194 512 303 512Q364 512 409.5 484.5Q455 457 479 407L497 500H581L494 0Q474 -114 410.5 -172Q347 -230 241 -230Q161 -230 92.5 -194.5Q24 -159 -13 -103L53 -46Q91 -99 138 -125.5Q185 -152 242 -152Q309 -152 350.5 -111Q392 -70 406 10L417 74Q386 43 346.5 27Q307 11 262 11ZM143 235Q143 169 181.5 129Q220 89 283 89Q356 89 404.5 145Q453 201 453 286Q453 352 414.5 392.5Q376 433 312 433Q240 433 191.5 376Q143 319 143 235ZM317 500ZM331 646Q366 646 386 667.5Q406 689 408 730H472Q471 667 432.5 626Q394 585 328 585Q264 585 231 625.5Q198 666 202 730H266Q267 683 282 664.5Q297 646 331 646ZM317 500Z" glyph-name="gbreve" horiz-adv-x="623" unicode="&#287;" /><glyph d="M262 11Q174 11 113.5 73Q53 135 53 222Q53 348 123.5 430Q194 512 303 512Q364 512 409.5 484.5Q455 457 479 407L497 500H581L494 0Q474 -114 410.5 -172Q347 -230 241 -230Q161 -230 92.5 -194.5Q24 -159 -13 -103L53 -46Q91 -99 138 -125.5Q185 -152 242 -152Q309 -152 350.5 -111Q392 -70 406 10L417 74Q386 43 346.5 27Q307 11 262 11ZM143 235Q143 169 181.5 129Q220 89 283 89Q356 89 404.5 145Q453 201 453 286Q453 352 414.5 392.5Q376 433 312 433Q240 433 191.5 376Q143 319 143 235ZM317 500ZM189 587 287 730H388L462 587H387L333 670L264 587ZM317 500Z" glyph-name="gcircumflex" horiz-adv-x="623" unicode="&#285;" /><glyph d="M262 11Q174 11 113.5 73Q53 135 53 222Q53 348 123.5 430Q194 512 303 512Q364 512 409.5 484.5Q455 457 479 407L497 500H581L494 0Q474 -114 410.5 -172Q347 -230 241 -230Q161 -230 92.5 -194.5Q24 -159 -13 -103L53 -46Q91 -99 138 -125.5Q185 -152 242 -152Q309 -152 350.5 -111Q392 -70 406 10L417 74Q386 43 346.5 27Q307 11 262 11ZM143 235Q143 169 181.5 129Q220 89 283 89Q356 89 404.5 145Q453 201 453 286Q453 352 414.5 392.5Q376 433 312 433Q240 433 191.5 376Q143 319 143 235ZM317 500ZM272 658Q272 631 291 612Q310 593 337 593Q364 593 383 612Q402 631 402 658Q402 685 383 704Q364 723 337 723Q310 723 291 704Q272 685 272 658ZM317 500Z" glyph-name="gdotaccent" horiz-adv-x="623" unicode="&#289;" /><glyph d="M131 0H42L135 530Q152 626 214 684Q276 742 368 742Q460 742 514.5 695.5Q569 649 569 576Q569 507 535.5 457.5Q502 408 439 384Q486 365 514 324Q542 283 542 233Q542 130 464.5 65Q387 0 265 0H234L248 78H280Q358 78 405 121Q452 164 452 234Q452 287 419.5 316.5Q387 346 328 346H294L308 421H331Q399 421 439 460Q479 499 479 566Q479 613 449 638.5Q419 664 365 664Q309 664 271 623.5Q233 583 221 517Z" glyph-name="germandbls" horiz-adv-x="595" unicode="&#223;" /><glyph d="M286 587 209 730H105L204 587ZM245 500Z" glyph-name="grave" horiz-adv-x="390" unicode="`" /><glyph d="M286 787 209 930H105L204 787ZM245 700Z" glyph-name="grave.case" horiz-adv-x="390" /><glyph d="M557 385V315L107 115V201L455 350L107 499V585Z" glyph-name="greater" horiz-adv-x="580" unicode="&gt;" /><glyph d="M531 345V415L81 605V519L427 380L81 241V155ZM531 0V80H81V0Z" glyph-name="greaterequal" horiz-adv-x="580" unicode="&#8805;" /><glyph d="M54 282 301 453 281 338 129 240 247 144 229 39 41 209ZM271 282 518 453 498 338 346 240 464 144 446 39 258 209Z" glyph-name="guillemotleft" horiz-adv-x="550" /><glyph d="M496 210 249 39 269 154 421 252 303 348 321 453 509 283ZM279 210 32 39 52 154 204 252 86 348 104 453 292 283Z" glyph-name="guillemotright" horiz-adv-x="551" /><glyph d="M54 282 301 453 281 338 129 240 247 144 229 39 41 209Z" glyph-name="guilsinglleft" horiz-adv-x="333" unicode="&#8249;" /><glyph d="M279 210 32 39 52 154 204 252 86 348 104 453 292 283Z" glyph-name="guilsinglright" horiz-adv-x="334" unicode="&#8250;" /><glyph d="M535 293 483 0H394L445 279Q458 352 432.5 391Q407 430 344 430Q279 430 234 383Q189 336 175 255L130 0H42L170 730H258L207 437Q238 474 277.5 493Q317 512 363 512Q455 512 503.5 449Q552 386 535 293ZM214 730Z" glyph-name="h" horiz-adv-x="606" unicode="h" /><glyph d="M535 293 483 0H394L445 279Q459 351 433 390.5Q407 430 344 430Q279 430 234 383Q189 336 175 255L130 0H42L144 582H65L79 658H157L170 730H258L245 658H400L386 582H232L207 437Q238 474 277.5 493Q317 512 363 512Q455 512 503.5 449Q552 386 535 293Z" glyph-name="hbar" horiz-adv-x="605" unicode="&#295;" /><glyph d="M535 293 483 0H394L445 279Q458 352 432.5 391Q407 430 344 430Q279 430 234 383Q189 336 175 255L130 0H42L170 730H258L207 437Q238 474 277.5 493Q317 512 363 512Q455 512 503.5 449Q552 386 535 293ZM214 730ZM86 817 184 960H285L359 817H284L230 900L161 817ZM214 730Z" glyph-name="hcircumflex" horiz-adv-x="606" unicode="&#293;" /><glyph d="M203 730H108L17 587H88ZM360 730H257L134 587H211ZM120 500Z" glyph-name="hungarumlaut" horiz-adv-x="396" unicode="&#733;" /><glyph d="M203 930H108L17 787H88ZM360 930H257L134 787H211ZM122 700Z" glyph-name="hungarumlaut.case" horiz-adv-x="396" /><glyph d="M66 220 80 302H345L331 220Z" glyph-name="hyphen" horiz-adv-x="407" unicode="-" /><glyph d="M43 0 129 500H217L131 0ZM266 678Q266 704 247 723Q228 742 202 742Q176 742 157.5 723Q139 704 139 678Q139 652 157.5 633.5Q176 615 202 615Q229 615 247.5 633.5Q266 652 266 678ZM79 0Z" glyph-name="i" horiz-adv-x="260" unicode="i" /><glyph d="M43 0 129 500H217L131 0ZM173 500ZM343 730H237L136 587H220ZM173 500Z" glyph-name="iacute" horiz-adv-x="260" unicode="&#237;" /><glyph d="M43 0 129 500H217L131 0ZM173 500ZM45 587 143 730H244L318 587H243L189 670L120 587ZM173 500Z" glyph-name="icircumflex" horiz-adv-x="260" unicode="&#238;" /><glyph d="M43 0 129 500H217L131 0ZM173 500ZM51 658Q51 634 68 617Q85 600 109 600Q133 600 150.5 617Q168 634 168 658Q168 682 150.5 699.5Q133 717 109 717Q85 717 68 699.5Q51 682 51 658ZM218 658Q218 634 235 617Q252 600 276 600Q300 600 317.5 617Q335 634 335 658Q335 682 317.5 699.5Q300 717 276 717Q252 717 235 699.5Q218 682 218 658ZM173 500Z" glyph-name="idieresis" horiz-adv-x="260" unicode="&#239;" /><glyph d="M43 0 129 500H217L131 0ZM173 500ZM214 587 137 730H33L132 587ZM173 500Z" glyph-name="igrave" horiz-adv-x="260" unicode="&#236;" /><glyph d="M43 0 129 500H217L131 0ZM266 678Q266 704 247 723Q228 742 202 742Q176 742 157.5 723Q139 704 139 678Q139 652 157.5 633.5Q176 615 202 615Q229 615 247.5 633.5Q266 652 266 678ZM79 0ZM531 678Q531 704 512 723Q493 742 467 742Q441 742 422.5 723Q404 704 404 678Q404 652 422.5 633.5Q441 615 467 615Q494 615 512.5 633.5Q531 652 531 678ZM394 500H482L386 -47Q369 -145 324.5 -187.5Q280 -230 200 -230Q183 -230 164 -226.5Q145 -223 128 -217L150 -143Q180 -150 189 -151Q198 -152 205 -152Q245 -152 266.5 -128Q288 -104 299 -42Z" glyph-name="ij" horiz-adv-x="524" unicode="&#307;" /><glyph d="M43 0 129 500H217L131 0ZM173 500ZM309 623H63L77 692H323ZM173 500Z" glyph-name="imacron" horiz-adv-x="260" unicode="&#299;" /><glyph d="M610 428Q681 428 725 381.5Q769 335 769 260Q769 185 725 138.5Q681 92 610 92Q562 92 516.5 118Q471 144 411 206Q358 145 313.5 118.5Q269 92 220 92Q149 92 105 138.5Q61 185 61 260Q61 335 105 381.5Q149 428 220 428Q269 428 316.5 401Q364 374 417 315Q471 375 516 401.5Q561 428 610 428ZM686 260Q686 301 664.5 325Q643 349 607 349Q574 349 539.5 329Q505 309 462 264Q502 216 537.5 193.5Q573 171 607 171Q643 171 664.5 195Q686 219 686 260ZM223 349Q187 349 165.5 325Q144 301 144 260Q144 219 165.5 195Q187 171 223 171Q255 171 287.5 190Q320 209 367 258Q325 306 290.5 327.5Q256 349 223 349Z" glyph-name="infinity" horiz-adv-x="827" unicode="&#8734;" /><glyph d="M218 551V-45Q218 -129 172 -179.5Q126 -230 44 -230Q24 -230 5 -227Q-14 -224 -40 -216L-24 -141Q0 -148 13.5 -150Q27 -152 40 -152Q86 -152 108 -125Q130 -98 130 -39V557Q130 641 175.5 691.5Q221 742 303 742Q323 742 342 739Q361 736 387 728L371 653Q347 660 333.5 662Q320 664 307 664Q261 664 239.5 637Q218 610 218 551Z" glyph-name="integral" horiz-adv-x="345" unicode="&#8747;" /><glyph d="M139 678Q139 704 157.5 723Q176 742 202 742Q228 742 247 723Q266 704 266 678Q266 652 247.5 633.5Q229 615 202 615Q176 615 157.5 633.5Q139 652 139 678ZM129 500H217L131 0H114Q60 -33 35.5 -60.5Q11 -88 11 -117Q11 -142 26 -154Q41 -166 71 -166Q77 -166 83 -165.5Q89 -165 96 -163L86 -216Q77 -221 66.5 -223Q56 -225 43 -225Q-8 -225 -37 -201Q-66 -177 -66 -135Q-66 -96 -38.5 -62Q-11 -28 43 0Z" glyph-name="iogonek" horiz-adv-x="260" unicode="&#303;" /><glyph d="M43 0 129 500H217L131 0ZM173 500ZM190 623Q215 610 228.5 605.5Q242 601 255 601Q289 601 309.5 627.5Q330 654 334 704H273Q271 687 265.5 680Q260 673 249 673Q241 673 230.5 676.5Q220 680 198 691Q169 706 154 710.5Q139 715 126 715Q88 715 64 688Q40 661 32 610H95Q99 628 107 636.5Q115 645 127 645Q139 645 152 641Q165 637 190 623ZM173 500Z" glyph-name="itilde" horiz-adv-x="260" unicode="&#297;" /><glyph d="M271 678Q271 704 252 723Q233 742 207 742Q181 742 162.5 723Q144 704 144 678Q144 652 162.5 633.5Q181 615 207 615Q234 615 252.5 633.5Q271 652 271 678ZM134 500H222L126 -47Q109 -145 64.5 -187.5Q20 -230 -60 -230Q-77 -230 -96 -226.5Q-115 -223 -132 -217L-110 -143Q-80 -150 -71 -151Q-62 -152 -55 -152Q-15 -152 6.5 -128Q28 -104 39 -42Z" glyph-name="j" horiz-adv-x="264" unicode="j" /><glyph d="M39 -42 134 500H222L126 -47Q109 -145 64.5 -187.5Q20 -230 -60 -230Q-77 -230 -96 -226.5Q-115 -223 -132 -217L-110 -143Q-80 -150 -71 -151Q-62 -152 -55 -152Q-15 -152 6.5 -128Q28 -104 39 -42ZM178 500ZM50 587 148 730H249L323 587H248L194 670L125 587ZM178 500Z" glyph-name="jcircumflex" horiz-adv-x="264" unicode="&#309;" /><glyph d="M338 311 494 0H397L269 258L159 167L130 0H42L170 730H258L179 277L444 500H566ZM261 0Z" glyph-name="k" horiz-adv-x="547" unicode="k" /><glyph d="M42 0 130 500H218L179 277L444 500H566L338 311L494 0H397L269 258L159 167L130 0Z" glyph-name="kgreenlandic" horiz-adv-x="547" /><glyph d="M42 0 171 730H259L130 0ZM86 0ZM215 730ZM302 700ZM242 350Z" glyph-name="l" horiz-adv-x="260" unicode="l" /><glyph d="M42 0 171 730H259L130 0ZM86 0ZM215 730ZM302 700ZM242 350ZM385 960H279L178 817H262ZM215 730Z" glyph-name="lacute" horiz-adv-x="260" unicode="&#314;" /><glyph d="M42 0 171 730H259L130 0ZM86 0ZM215 730ZM302 700ZM242 350ZM440 730H345L299 567H371ZM302 700Z" glyph-name="lcaron" horiz-adv-x="280" unicode="&#318;" /><glyph d="M42 0 171 730H259L130 0ZM86 0ZM215 730ZM302 700ZM242 350ZM234 359Q234 332 253 313Q272 294 299 294Q326 294 345 313Q364 332 364 359Q364 386 345 405Q326 424 299 424Q272 424 253 405Q234 386 234 359ZM250 361Z" glyph-name="ldot" horiz-adv-x="298" unicode="&#320;" /><glyph d="M58 315V385L508 585V499L160 350L508 201V115Z" glyph-name="less" horiz-adv-x="580" unicode="&lt;" /><glyph d="M61 345V415L511 605V519L165 380L511 241V155ZM61 0V80H511V0Z" glyph-name="lessequal" horiz-adv-x="580" unicode="&#8804;" /><glyph d="M42 0 171 730H259L130 0ZM86 0ZM215 730ZM302 700ZM242 350ZM234 359Q234 332 253 313Q272 294 299 294Q326 294 345 313Q364 332 364 359Q364 386 345 405Q326 424 299 424Q272 424 253 405Q234 386 234 359ZM250 361ZM340 0 469 730H557L428 0ZM384 0ZM513 730ZM600 700ZM540 350Z" glyph-name="lgeminada" horiz-adv-x="558" /><glyph d="M510 125H430V310H60V390H510Z" glyph-name="logicalnot" horiz-adv-x="580" unicode="&#172;" /><glyph d="M58 424 72 500H157L169 567Q184 650 233 696Q282 742 359 742Q382 742 403 738.5Q424 735 449 726L426 651Q405 658 390 661Q375 664 359 664Q315 664 290.5 640Q266 616 256 561L158 0H70L144 424Z" glyph-name="longs" horiz-adv-x="308" unicode="&#383;" /><glyph d="M58 424 72 500H157L169 567Q184 650 233 696Q282 742 359 742Q382 742 403 738.5Q424 735 449 726L426 651Q405 658 390 661Q375 664 359 664Q315 664 290.5 640Q266 616 256 561L158 0H70L144 424ZM447 424H361L374 500H461L491 670L584 700L548 500H705L692 424H535L489 165Q479 111 495 88.5Q511 66 555 66Q573 66 592 71.5Q611 77 638 93L665 26Q636 7 606.5 -2.5Q577 -12 546 -12Q464 -12 425 32Q386 76 399 152ZM512 10ZM432 0ZM633 701Z" glyph-name="longs_t" horiz-adv-x="711" unicode="&#64261;" /><glyph d="M243 0 57 364 247 700H328L518 364L332 0ZM288 608 148 362 288 90 427 362Z" glyph-name="lozenge" horiz-adv-x="536" unicode="&#9674;" /><glyph d="M66 258 28 324 156 398 215 730H303L254 455L333 500L370 433L237 356L174 0H86L139 300Z" glyph-name="lslash" horiz-adv-x="348" unicode="&#322;" /><glyph d="M501 242 460 0H371L421 286Q434 358 412 394Q390 430 333 430Q273 430 232 382Q191 334 175 246L131 0H42L131 500H215L202 425Q233 468 272 490Q311 512 356 512Q413 512 452 484Q491 456 507 406Q539 457 584 484.5Q629 512 682 512Q767 512 810 452.5Q853 393 837 300L786 0H697L747 286Q760 358 738 394Q716 430 659 430Q599 430 557.5 380.5Q516 331 501 242Z" glyph-name="m" horiz-adv-x="908" unicode="m" /><glyph d="M313 623H67L81 692H327ZM177 500Z" glyph-name="macron" horiz-adv-x="392" unicode="&#175;" /><glyph d="M313 823H67L81 892H327ZM179 700Z" glyph-name="macron.case" horiz-adv-x="392" /><glyph d="M81 310V390H531V310Z" glyph-name="minus" horiz-adv-x="580" unicode="&#8722;" /><glyph d="M563 500 474 0H390L403 76Q372 33 332 10.5Q292 -12 245 -12Q209 -12 179.5 -1.5Q150 9 127 29L116 -78L91 -218H3L130 500H219L168 221Q154 147 178.5 108.5Q203 70 264 70Q328 70 371 118Q414 166 430 254L474 500Z" glyph-name="mu" horiz-adv-x="604" unicode="&#181;" /><glyph d="M153 141 96 198 248 350 96 502 153 559 305 407 457 559 513 502 361 350 513 198 457 141 305 293Z" glyph-name="multiply" horiz-adv-x="580" unicode="&#215;" /><glyph d="M537 293 485 0H396L447 279Q460 352 434.5 391Q409 430 346 430Q280 430 235.5 382Q191 334 175 246L131 0H42L131 500H215L203 424Q235 467 277 489.5Q319 512 369 512Q459 512 506.5 449Q554 386 537 293ZM356 500ZM263 0ZM136 585Z" glyph-name="n" horiz-adv-x="608" unicode="n" /><glyph d="M537 293 485 0H396L447 279Q460 352 434.5 391Q409 430 346 430Q280 430 235.5 382Q191 334 175 246L131 0H42L131 500H215L203 424Q235 467 277 489.5Q319 512 369 512Q459 512 506.5 449Q554 386 537 293ZM356 500ZM263 0ZM136 585ZM526 730H420L319 587H403ZM356 500Z" glyph-name="nacute" horiz-adv-x="608" unicode="&#324;" /><glyph d="M537 293 485 0H396L447 279Q460 352 434.5 391Q409 430 346 430Q280 430 235.5 382Q191 334 175 246L131 0H42L131 500H215L203 424Q235 467 277 489.5Q319 512 369 512Q459 512 506.5 449Q554 386 537 293ZM356 500ZM263 0ZM136 585ZM221 729H121L63 572H144ZM136 585ZM179 795Z" glyph-name="napostrophe" horiz-adv-x="608" unicode="&#329;" /><glyph d="M537 293 485 0H396L447 279Q460 352 434.5 391Q409 430 346 430Q280 430 235.5 382Q191 334 175 246L131 0H42L131 500H215L203 424Q235 467 277 489.5Q319 512 369 512Q459 512 506.5 449Q554 386 537 293ZM356 500ZM263 0ZM136 585ZM415 587H314L240 730H315L369 647L438 730H513ZM356 500Z" glyph-name="ncaron" horiz-adv-x="608" unicode="&#328;" /><glyph d="M279 259Q189 259 131.5 314.5Q74 370 74 456Q74 566 147 639Q220 712 332 712Q431 712 495.5 654Q560 596 560 507Q560 449 532 387.5Q504 326 444 253L238 0H123L343 262Q344 263 348 267.5Q352 272 352 272Q334 265 316 262Q298 259 279 259ZM310 337Q378 337 423 382.5Q468 428 468 496Q468 557 430 594Q392 631 329 631Q259 631 212.5 583.5Q166 536 166 464Q166 405 204 371Q242 337 310 337Z" glyph-name="nine" horiz-adv-x="568" unicode="9" /><glyph d="M121 127Q76 127 48.5 154Q21 181 21 223Q21 280 60.5 318Q100 356 160 356Q214 356 249.5 325.5Q285 295 285 249Q285 220 271 188.5Q257 157 229 123L127 0H41L150 131Q143 129 136.5 128Q130 127 121 127ZM93 232Q93 207 108 193Q123 179 150 179Q177 179 195 198Q213 217 213 245Q213 269 198 284Q183 299 158 299Q130 299 111.5 280Q93 261 93 232Z" glyph-name="nine.denominator" horiz-adv-x="319" unicode="&#63070;" /><glyph d="M98 -13Q53 -13 25.5 14Q-2 41 -2 83Q-2 140 37.5 178Q77 216 137 216Q191 216 226.5 185.5Q262 155 262 109Q262 80 248 48.5Q234 17 206 -17L104 -140H18L127 -9Q120 -11 113.5 -12Q107 -13 98 -13ZM70 92Q70 67 85 53Q100 39 127 39Q154 39 172 58Q190 77 190 105Q190 129 175 144Q160 159 135 159Q107 159 88.5 140Q70 121 70 92Z" glyph-name="nine.inferior" horiz-adv-x="319" unicode="&#8329;" /><glyph d="M183 477Q138 477 110.5 504Q83 531 83 573Q83 630 122.5 668Q162 706 222 706Q276 706 311.5 675.5Q347 645 347 599Q347 570 333 538.5Q319 507 291 473L189 350H103L212 481Q205 479 198.5 478Q192 477 183 477ZM155 582Q155 557 170 543Q185 529 212 529Q239 529 257 548Q275 567 275 595Q275 619 260 634Q245 649 220 649Q192 649 173.5 630Q155 611 155 582Z" glyph-name="nine.numerator" horiz-adv-x="319" unicode="&#63082;" /><glyph d="M208 617Q163 617 135.5 644Q108 671 108 713Q108 770 147.5 808Q187 846 247 846Q301 846 336.5 815.5Q372 785 372 739Q372 710 358 678.5Q344 647 316 613L214 490H128L237 621Q230 619 223.5 618Q217 617 208 617ZM180 722Q180 697 195 683Q210 669 237 669Q264 669 282 688Q300 707 300 735Q300 759 285 774Q270 789 245 789Q217 789 198.5 770Q180 751 180 722Z" glyph-name="nine.superior" horiz-adv-x="319" unicode="&#8313;" /><glyph d="M295 259Q205 259 147.5 314.5Q90 370 90 456Q90 566 163 639Q236 712 348 712Q447 712 511.5 654Q576 596 576 507Q576 449 548 387.5Q520 326 460 253L254 0H139L359 262Q360 263 364 267.5Q368 272 368 272Q350 265 332 262Q314 259 295 259ZM326 337Q394 337 439 382.5Q484 428 484 496Q484 557 446 594Q408 631 345 631Q275 631 228.5 583.5Q182 536 182 464Q182 405 220 371Q258 337 326 337Z" glyph-name="nine.tab" horiz-adv-x="600" unicode="&#65305;" /><glyph d="M222 126H130L174 205H77V285H219L292 415H77V495H337L382 575H474L429 495H527V415H384L311 285H527V205H266Z" glyph-name="notequal" horiz-adv-x="580" unicode="&#8800;" /><glyph d="M537 293 485 0H396L447 279Q460 352 434.5 391Q409 430 346 430Q280 430 235.5 382Q191 334 175 246L131 0H42L131 500H215L203 424Q235 467 277 489.5Q319 512 369 512Q459 512 506.5 449Q554 386 537 293ZM356 500ZM263 0ZM136 585ZM373 623Q398 610 411.5 605.5Q425 601 438 601Q472 601 492.5 627.5Q513 654 517 704H456Q454 687 448.5 680Q443 673 432 673Q424 673 413.5 676.5Q403 680 381 691Q352 706 337 710.5Q322 715 309 715Q271 715 247 688Q223 661 215 610H278Q282 628 290 636.5Q298 645 310 645Q322 645 335 641Q348 637 373 623ZM356 500Z" glyph-name="ntilde" horiz-adv-x="608" unicode="&#241;" /><glyph d="M241 200 206 0H125L160 200H45L57 272H173L201 428H85L97 500H214L249 700H330L295 500H442L477 700H558L523 500H637L625 428H510L482 272H597L585 200H469L434 0H353L388 200ZM282 428 254 272H401L429 428Z" glyph-name="numbersign" horiz-adv-x="647" unicode="#" /><glyph d="M320 512Q424 512 489 447.5Q554 383 554 281Q554 153 477 70.5Q400 -12 281 -12Q177 -12 112 52.5Q47 117 47 219Q47 347 124 429.5Q201 512 320 512ZM464 274Q464 345 424.5 389.5Q385 434 320 434Q238 434 187.5 377.5Q137 321 137 226Q137 155 177 110.5Q217 66 283 66Q362 66 413 123.5Q464 181 464 274ZM324 500Z" glyph-name="o" horiz-adv-x="600" unicode="o" /><glyph d="M320 512Q424 512 489 447.5Q554 383 554 281Q554 153 477 70.5Q400 -12 281 -12Q177 -12 112 52.5Q47 117 47 219Q47 347 124 429.5Q201 512 320 512ZM464 274Q464 345 424.5 389.5Q385 434 320 434Q238 434 187.5 377.5Q137 321 137 226Q137 155 177 110.5Q217 66 283 66Q362 66 413 123.5Q464 181 464 274ZM324 500ZM494 730H388L287 587H371ZM324 500Z" glyph-name="oacute" horiz-adv-x="600" unicode="&#243;" /><glyph d="M320 512Q424 512 489 447.5Q554 383 554 281Q554 153 477 70.5Q400 -12 281 -12Q177 -12 112 52.5Q47 117 47 219Q47 347 124 429.5Q201 512 320 512ZM464 274Q464 345 424.5 389.5Q385 434 320 434Q238 434 187.5 377.5Q137 321 137 226Q137 155 177 110.5Q217 66 283 66Q362 66 413 123.5Q464 181 464 274ZM324 500ZM338 646Q373 646 393 667.5Q413 689 415 730H479Q478 667 439.5 626Q401 585 335 585Q271 585 238 625.5Q205 666 209 730H273Q274 683 289 664.5Q304 646 338 646ZM324 500Z" glyph-name="obreve" horiz-adv-x="600" unicode="&#335;" /><glyph d="M320 512Q424 512 489 447.5Q554 383 554 281Q554 153 477 70.5Q400 -12 281 -12Q177 -12 112 52.5Q47 117 47 219Q47 347 124 429.5Q201 512 320 512ZM464 274Q464 345 424.5 389.5Q385 434 320 434Q238 434 187.5 377.5Q137 321 137 226Q137 155 177 110.5Q217 66 283 66Q362 66 413 123.5Q464 181 464 274ZM324 500ZM196 587 294 730H395L469 587H394L340 670L271 587ZM324 500Z" glyph-name="ocircumflex" horiz-adv-x="600" unicode="&#244;" /><glyph d="M320 512Q424 512 489 447.5Q554 383 554 281Q554 153 477 70.5Q400 -12 281 -12Q177 -12 112 52.5Q47 117 47 219Q47 347 124 429.5Q201 512 320 512ZM464 274Q464 345 424.5 389.5Q385 434 320 434Q238 434 187.5 377.5Q137 321 137 226Q137 155 177 110.5Q217 66 283 66Q362 66 413 123.5Q464 181 464 274ZM324 500ZM202 658Q202 634 219 617Q236 600 260 600Q284 600 301.5 617Q319 634 319 658Q319 682 301.5 699.5Q284 717 260 717Q236 717 219 699.5Q202 682 202 658ZM369 658Q369 634 386 617Q403 600 427 600Q451 600 468.5 617Q486 634 486 658Q486 682 468.5 699.5Q451 717 427 717Q403 717 386 699.5Q369 682 369 658ZM324 500Z" glyph-name="odieresis" horiz-adv-x="600" unicode="&#246;" /><glyph d="M699 -12Q627 -12 573.5 19.5Q520 51 495 107Q461 50 403.5 19Q346 -12 276 -12Q174 -12 110.5 52.5Q47 117 47 219Q47 347 123 429.5Q199 512 315 512Q386 512 440 478.5Q494 445 519 387Q553 446 610 479Q667 512 734 512Q823 512 878 457Q933 402 933 312Q933 292 929 266Q925 240 921 229H551Q551 225 551 221Q551 217 551 213Q551 143 591 103Q631 63 700 63Q736 63 769 81.5Q802 100 838 141L894 81Q856 35 806.5 11.5Q757 -12 699 -12ZM847 315Q847 373 813 406Q779 439 723 439Q668 439 624 401.5Q580 364 562 300H846Q847 303 847 306Q847 309 847 315ZM464 274Q464 345 424.5 389.5Q385 434 320 434Q238 434 187.5 377.5Q137 321 137 226Q137 155 177 110.5Q217 66 283 66Q362 66 413 123.5Q464 181 464 274Z" glyph-name="oe" horiz-adv-x="973" unicode="&#339;" /><glyph d="M228 -225Q178 -225 150 -201Q122 -177 122 -135Q122 -93 147 -59Q172 -25 221 0H292Q245 -28 222 -57Q199 -86 199 -117Q199 -142 213 -154Q227 -166 256 -166Q264 -166 271.5 -165.5Q279 -165 288 -163L278 -216Q268 -221 256.5 -223Q245 -225 228 -225ZM245 0Z" glyph-name="ogonek" horiz-adv-x="391" unicode="&#731;" /><glyph d="M320 512Q424 512 489 447.5Q554 383 554 281Q554 153 477 70.5Q400 -12 281 -12Q177 -12 112 52.5Q47 117 47 219Q47 347 124 429.5Q201 512 320 512ZM464 274Q464 345 424.5 389.5Q385 434 320 434Q238 434 187.5 377.5Q137 321 137 226Q137 155 177 110.5Q217 66 283 66Q362 66 413 123.5Q464 181 464 274ZM324 500ZM365 587 288 730H184L283 587ZM324 500Z" glyph-name="ograve" horiz-adv-x="600" unicode="&#242;" /><glyph d="M320 512Q424 512 489 447.5Q554 383 554 281Q554 153 477 70.5Q400 -12 281 -12Q177 -12 112 52.5Q47 117 47 219Q47 347 124 429.5Q201 512 320 512ZM464 274Q464 345 424.5 389.5Q385 434 320 434Q238 434 187.5 377.5Q137 321 137 226Q137 155 177 110.5Q217 66 283 66Q362 66 413 123.5Q464 181 464 274ZM324 500ZM407 730H312L221 587H292ZM564 730H461L338 587H415ZM324 500Z" glyph-name="ohungarumlaut" horiz-adv-x="600" unicode="&#337;" /><glyph d="M320 512Q424 512 489 447.5Q554 383 554 281Q554 153 477 70.5Q400 -12 281 -12Q177 -12 112 52.5Q47 117 47 219Q47 347 124 429.5Q201 512 320 512ZM464 274Q464 345 424.5 389.5Q385 434 320 434Q238 434 187.5 377.5Q137 321 137 226Q137 155 177 110.5Q217 66 283 66Q362 66 413 123.5Q464 181 464 274ZM324 500ZM460 623H214L228 692H474ZM324 500Z" glyph-name="omacron" horiz-adv-x="600" unicode="&#333;" /><glyph d="M35 0 50 86H196L278 551Q244 527 198 515Q152 503 91 503L106 590Q181 590 234 617Q287 644 320 700H400L291 86H437L422 0Z" glyph-name="one" horiz-adv-x="483" unicode="1" /><glyph d="M256 0H161L258 551Q224 527 178 515Q132 503 71 503L86 590Q161 590 214 617Q267 644 300 700H380Z" glyph-name="one.alt" horiz-adv-x="401" /><glyph d="M3 0 13 60H88L122 257Q105 247 81.5 242Q58 237 29 237L40 298Q78 298 106.5 311.5Q135 325 152 350H211L160 60H234L223 0Z" glyph-name="one.denominator" horiz-adv-x="287" unicode="&#63062;" /><glyph d="M-22 -140 -12 -80H63L97 117Q80 107 56.5 102Q33 97 4 97L15 158Q53 158 81.5 171.5Q110 185 127 210H186L135 -80H209L198 -140Z" glyph-name="one.inferior" horiz-adv-x="287" unicode="&#8321;" /><glyph d="M65 350 75 410H150L184 607Q167 597 143.5 592Q120 587 91 587L102 648Q140 648 168.5 661.5Q197 675 214 700H273L222 410H296L285 350Z" glyph-name="one.numerator" horiz-adv-x="287" unicode="&#63074;" /><glyph d="M94 0 109 86H255L337 551Q303 527 257 515Q211 503 150 503L165 590Q240 590 293 617Q346 644 379 700H459L350 86H496L481 0Z" glyph-name="one.tab" horiz-adv-x="600" unicode="&#65297;" /><glyph d="M73 350 83 410H158L192 607Q175 597 151.5 592Q128 587 99 587L110 648Q148 648 176.5 661.5Q205 675 222 700H281L230 410H304L293 350ZM223 0H147L554 700H630ZM672 0H410L422 67L567 164Q599 185 615 207Q631 229 631 250Q631 271 618 283Q605 295 583 295Q558 295 540 280Q522 265 512 235L446 252Q462 302 499 329Q536 356 587 356Q640 356 672 327.5Q704 299 704 255Q704 213 679.5 178.5Q655 144 598 108L523 61H683Z" glyph-name="onehalf" horiz-adv-x="751" unicode="&#189;" /><glyph d="M76 350 86 410H161L195 607Q178 597 154.5 592Q131 587 102 587L113 648Q151 648 179.5 661.5Q208 675 225 700H284L233 410H307L296 350ZM226 0H150L557 700H633ZM572 134 584 197 660 222 644 134H691L681 74H634L621 0H549L562 74H377L386 127L576 350H664L480 134Z" glyph-name="onequarter" horiz-adv-x="745" unicode="&#188;" /><glyph d="M90 490 100 550H175L209 747Q192 737 168.5 732Q145 727 116 727L127 788Q165 788 193.5 801.5Q222 815 239 840H298L247 550H321L310 490Z" glyph-name="onesuperior" horiz-adv-x="287" unicode="&#185;" /><glyph d="M342 446H280L285 477Q269 459 249.5 449.5Q230 440 208 440Q161 440 133 471Q105 502 105 551Q105 618 141.5 662Q178 706 233 706Q261 706 282 693.5Q303 681 315 658L323 700H387ZM174 558Q174 529 188 512.5Q202 496 228 496Q257 496 277.5 521Q298 546 298 584Q298 612 282.5 630Q267 648 243 648Q213 648 193.5 622.5Q174 597 174 558Z" glyph-name="ordfeminine" horiz-adv-x="385" unicode="&#170;" /><glyph d="M174 562Q174 600 193 624Q212 648 242 648Q270 648 285.5 631Q301 614 301 584Q301 545 281.5 521Q262 497 232 497Q205 497 189.5 515Q174 533 174 562ZM234 440Q293 440 331.5 480Q370 520 370 582Q370 638 335 672Q300 706 242 706Q183 706 143.5 665.5Q104 625 104 563Q104 508 139.5 474Q175 440 234 440Z" glyph-name="ordmasculine" horiz-adv-x="366" unicode="&#186;" /><glyph d="M192 3 134 -90H47L127 39Q88 70 67.5 116.5Q47 163 47 219Q47 347 124 429.5Q201 512 320 512Q346 512 368.5 508Q391 504 412 496L467 586H554L475 460Q513 429 533.5 382.5Q554 336 554 281Q554 153 477 70.5Q400 -12 281 -12Q257 -12 234.5 -8Q212 -4 192 3ZM320 434Q238 434 187.5 377.5Q137 321 137 226Q137 191 147.5 161.5Q158 132 177 111L373 425Q361 429 347.5 431.5Q334 434 320 434ZM283 66Q362 66 413 123.5Q464 181 464 274Q464 308 454 337.5Q444 367 425 388L231 75Q243 70 256 68Q269 66 283 66Z" glyph-name="oslash" horiz-adv-x="600" unicode="&#248;" /><glyph d="M320 512Q424 512 489 447.5Q554 383 554 281Q554 153 477 70.5Q400 -12 281 -12Q177 -12 112 52.5Q47 117 47 219Q47 347 124 429.5Q201 512 320 512ZM464 274Q464 345 424.5 389.5Q385 434 320 434Q238 434 187.5 377.5Q137 321 137 226Q137 155 177 110.5Q217 66 283 66Q362 66 413 123.5Q464 181 464 274ZM324 500ZM341 623Q366 610 379.5 605.5Q393 601 406 601Q440 601 460.5 627.5Q481 654 485 704H424Q422 687 416.5 680Q411 673 400 673Q392 673 381.5 676.5Q371 680 349 691Q320 706 305 710.5Q290 715 277 715Q239 715 215 688Q191 661 183 610H246Q250 628 258 636.5Q266 645 278 645Q290 645 303 641Q316 637 341 623ZM324 500Z" glyph-name="otilde" horiz-adv-x="600" unicode="&#245;" /><glyph d="M577 295Q577 163 504.5 75.5Q432 -12 320 -12Q260 -12 215 14Q170 40 146 88L92 -218H4L130 500H214L204 438Q237 474 279 493Q321 512 368 512Q462 512 519.5 451Q577 390 577 295ZM487 285Q487 352 449 392.5Q411 433 347 433Q271 433 220 373Q169 313 169 223Q169 153 208 109.5Q247 66 312 66Q387 66 437 129Q487 192 487 285Z" glyph-name="p" horiz-adv-x="623" unicode="p" /><glyph d="M352 700H624L463 -218H373L519 612H409L263 -218H173L254 243Q174 253 122.5 313.5Q71 374 71 453Q71 563 150.5 631.5Q230 700 352 700ZM168 458Q168 410 196 373.5Q224 337 269 330L319 611Q252 606 210 563Q168 520 168 458Z" glyph-name="paragraph" horiz-adv-x="654" unicode="&#182;" /><glyph d="M150 217Q150 130 177.5 49.5Q205 -31 260 -105L208 -140Q130 -54 91.5 36.5Q53 127 53 224Q53 386 128 514.5Q203 643 364 751L402 708Q278 608 214 484Q150 360 150 217Z" glyph-name="parenleft" horiz-adv-x="338" unicode="(" /><glyph d="M208 393Q208 480 180.5 560.5Q153 641 98 715L150 750Q228 664 266.5 573.5Q305 483 305 386Q305 224 230 95.5Q155 -33 -6 -141L-44 -98Q80 2 144 126Q208 250 208 393Z" glyph-name="parenright" horiz-adv-x="338" unicode=")" /><glyph d="M254 -12Q157 -12 97 43Q37 98 37 185Q37 288 104.5 356Q172 424 277 424Q336 424 382.5 403.5Q429 383 457 344Q460 371 461.5 398.5Q463 426 463 451Q463 546 423.5 592Q384 638 304 638Q271 638 234 625.5Q197 613 169 594L138 658Q181 685 224.5 698.5Q268 712 313 712Q430 712 491.5 642.5Q553 573 553 447Q553 245 474 116.5Q395 -12 254 -12ZM288 346Q217 346 173 302.5Q129 259 129 189Q129 133 164.5 101Q200 69 263 69Q326 69 370.5 114.5Q415 160 440 250Q419 292 376.5 319Q334 346 288 346Z" glyph-name="partialdiff" horiz-adv-x="595" unicode="&#8706;" /><glyph d="M240 0H164L571 700H647ZM729 213Q729 279 694 317.5Q659 356 598 356Q525 356 478.5 294.5Q432 233 432 137Q432 72 467 33Q502 -6 564 -6Q637 -6 683 55.5Q729 117 729 213ZM656 214Q656 146 630.5 100.5Q605 55 566 55Q537 55 521.5 76Q506 97 506 136Q506 204 531.5 249.5Q557 295 595 295Q624 295 640 274Q656 253 656 214ZM379 563Q379 629 344 667.5Q309 706 248 706Q175 706 128.5 644.5Q82 583 82 487Q82 422 117 383Q152 344 214 344Q287 344 333 405.5Q379 467 379 563ZM306 564Q306 496 280.5 450.5Q255 405 216 405Q187 405 171.5 426Q156 447 156 486Q156 554 181.5 599.5Q207 645 245 645Q274 645 290 624Q306 603 306 564Z" glyph-name="percent" horiz-adv-x="776" unicode="%" /><glyph d="M35 53Q35 26 54 7Q73 -12 100 -12Q127 -12 146 7Q165 26 165 53Q165 80 146 99Q127 118 100 118Q73 118 54 99Q35 80 35 53ZM51 55Z" glyph-name="period" horiz-adv-x="249" unicode="." /><glyph d="M84 350Q84 323 103 304Q122 285 149 285Q176 285 195 304Q214 323 214 350Q214 377 195 396Q176 415 149 415Q122 415 103 396Q84 377 84 350ZM100 352Z" glyph-name="periodcentered" horiz-adv-x="266" unicode="&#183;" /><glyph d="M240 0H164L571 700H647ZM729 213Q729 279 694 317.5Q659 356 598 356Q525 356 478.5 294.5Q432 233 432 137Q432 72 467 33Q502 -6 564 -6Q637 -6 683 55.5Q729 117 729 213ZM656 214Q656 146 630.5 100.5Q605 55 566 55Q537 55 521.5 76Q506 97 506 136Q506 204 531.5 249.5Q557 295 595 295Q624 295 640 274Q656 253 656 214ZM379 563Q379 629 344 667.5Q309 706 248 706Q175 706 128.5 644.5Q82 583 82 487Q82 422 117 383Q152 344 214 344Q287 344 333 405.5Q379 467 379 563ZM306 564Q306 496 280.5 450.5Q255 405 216 405Q187 405 171.5 426Q156 447 156 486Q156 554 181.5 599.5Q207 645 245 645Q274 645 290 624Q306 603 306 564ZM1067 213Q1067 279 1032 317.5Q997 356 936 356Q863 356 816.5 294.5Q770 233 770 137Q770 72 805 33Q840 -6 902 -6Q975 -6 1021 55.5Q1067 117 1067 213ZM994 214Q994 146 968.5 100.5Q943 55 904 55Q875 55 859.5 76Q844 97 844 136Q844 204 869.5 249.5Q895 295 933 295Q962 295 978 274Q994 253 994 214Z" glyph-name="perthousand" horiz-adv-x="1113" unicode="&#8240;" /><glyph d="M77 500H625L611 421H531L457 0H369L443 421H231L157 0H69L143 421H63Z" glyph-name="pi" horiz-adv-x="614" unicode="&#960;" /><glyph d="M348 125H268V310H83V390H268V575H348V390H533V310H348Z" glyph-name="plus" horiz-adv-x="580" unicode="+" /><glyph d="M330 155H250V340H65V420H250V605H330V420H515V340H330ZM65 0V80H515V0Z" glyph-name="plusminus" horiz-adv-x="580" unicode="&#177;" /><glyph d="M121 700H681L665 611H570L462 0H369L477 611H292L184 0H91L199 611H105Z" glyph-name="product" horiz-adv-x="642" unicode="&#8719;" /><glyph d="M45 205Q45 336 118.5 424Q192 512 302 512Q365 512 410.5 484Q456 456 480 403L497 500H581L455 -218H367L416 60Q383 25 342 6.5Q301 -12 255 -12Q161 -12 103 49Q45 110 45 205ZM135 217Q135 148 172.5 107Q210 66 275 66Q350 66 402 126Q454 186 454 276Q454 346 414.5 389.5Q375 433 311 433Q236 433 185.5 371Q135 309 135 217Z" glyph-name="q" horiz-adv-x="623" unicode="q" /><glyph d="M276 232 269 190H187L194 239Q201 286 225 319Q249 352 321 402Q380 443 399.5 475Q419 507 419 547Q419 587 393.5 609.5Q368 632 323 632Q274 632 233.5 601.5Q193 571 156 505L83 541Q122 625 184.5 668.5Q247 712 327 712Q412 712 463 667.5Q514 623 514 554Q514 496 484 448Q454 400 366 337Q307 295 293.5 276.5Q280 258 276 232ZM155 53Q155 26 174 7Q193 -12 220 -12Q247 -12 266 7Q285 26 285 53Q285 80 266 99Q247 118 220 118Q193 118 174 99Q155 80 155 53Z" glyph-name="question" horiz-adv-x="508" unicode="?" /><glyph d="M227 268 234 310H316L309 261Q302 214 278 181Q254 148 182 98Q123 57 103.5 25Q84 -7 84 -47Q84 -87 109.5 -109.5Q135 -132 180 -132Q229 -132 269.5 -101.5Q310 -71 347 -5L420 -41Q381 -125 318.5 -168.5Q256 -212 176 -212Q91 -212 40 -167.5Q-11 -123 -11 -54Q-11 4 19 52Q49 100 137 163Q196 205 209.5 223.5Q223 242 227 268ZM348 447Q348 474 329 493Q310 512 283 512Q256 512 237 493Q218 474 218 447Q218 420 237 401Q256 382 283 382Q310 382 329 401Q348 420 348 447Z" glyph-name="questiondown" horiz-adv-x="498" unicode="&#191;" /><glyph d="M376 700 324 465H252L284 700ZM236 700 184 465H112L144 700Z" glyph-name="quotedbl" horiz-adv-x="364" unicode="&quot;" /><glyph d="M168 116H67L-20 -139H65ZM329 116H228L141 -139H226Z" glyph-name="quotedblbase" horiz-adv-x="413" unicode="&#8222;" /><glyph d="M188 700 93 465H189L270 700ZM344 700 249 465H345L426 700Z" glyph-name="quotedblleft" horiz-adv-x="400" unicode="&#8220;" /><glyph d="M275 700H178L97 465H180ZM431 700H334L253 465H336Z" glyph-name="quotedblright" horiz-adv-x="399" unicode="&#8221;" /><glyph d="M188 700 93 465H189L270 700Z" glyph-name="quoteleft" horiz-adv-x="244" unicode="&#8216;" /><glyph d="M275 700H178L97 465H180Z" glyph-name="quoteright" horiz-adv-x="243" unicode="&#8217;" /><glyph d="M168 116H67L-20 -139H65Z" glyph-name="quotesinglbase" horiz-adv-x="252" unicode="&#8218;" /><glyph d="M236 700 184 465H112L144 700Z" glyph-name="quotesingle" horiz-adv-x="224" unicode="'" /><glyph d="M43 0 131 500H215L195 386Q225 445 268 474.5Q311 504 367 504Q377 504 386.5 503Q396 502 408 500L391 416Q382 417 371.5 418Q361 419 350 419Q285 419 234.5 361.5Q184 304 168 211L131 0ZM270 500ZM87 0Z" glyph-name="r" horiz-adv-x="381" unicode="r" /><glyph d="M43 0 131 500H215L195 386Q225 445 268 474.5Q311 504 367 504Q377 504 386.5 503Q396 502 408 500L391 416Q382 417 371.5 418Q361 419 350 419Q285 419 234.5 361.5Q184 304 168 211L131 0ZM270 500ZM87 0ZM440 730H334L233 587H317ZM270 500Z" glyph-name="racute" horiz-adv-x="381" unicode="&#341;" /><glyph d="M50 358V447H241L320 132L489 700H588L366 0H269L163 358Z" glyph-name="radical" horiz-adv-x="564" unicode="&#8730;" /><glyph d="M43 0 131 500H215L195 386Q225 445 268 474.5Q311 504 367 504Q377 504 386.5 503Q396 502 408 500L391 416Q382 417 371.5 418Q361 419 350 419Q285 419 234.5 361.5Q184 304 168 211L131 0ZM270 500ZM87 0ZM329 587H228L154 730H229L283 647L352 730H427ZM270 500Z" glyph-name="rcaron" horiz-adv-x="381" unicode="&#345;" /><glyph d="M74 351Q74 501 179.5 606.5Q285 712 435 712Q585 712 690.5 606.5Q796 501 796 351Q796 201 690 94.5Q584 -12 435 -12Q286 -12 180 94.5Q74 201 74 351ZM722 351Q722 472 638 557.5Q554 643 435 643Q317 643 233 557.5Q149 472 149 351Q149 230 233 144Q317 58 435 58Q553 58 637.5 144Q722 230 722 351ZM299 177V527H462Q517 527 553 495.5Q589 464 589 418Q589 380 568.5 350.5Q548 321 512 307L588 177H506L436 298H371V177ZM516 417Q516 439 498 453.5Q480 468 451 468H371V356H451Q480 356 498 373Q516 390 516 417Z" glyph-name="registered" horiz-adv-x="834" unicode="&#174;" /><glyph d="M315 668Q315 712 283.5 744Q252 776 207 776Q162 776 131 744.5Q100 713 100 668Q100 623 131 592Q162 561 207 561Q252 561 283.5 592.5Q315 624 315 668ZM158 668Q158 688 172.5 703Q187 718 207 718Q227 718 242 703Q257 688 257 668Q257 649 242 634Q227 619 207 619Q187 619 172.5 634Q158 649 158 668ZM187 500Z" glyph-name="ring" horiz-adv-x="391" unicode="&#730;" /><glyph d="M315 868Q315 912 283.5 944Q252 976 207 976Q162 976 131 944.5Q100 913 100 868Q100 823 131 792Q162 761 207 761Q252 761 283.5 792.5Q315 824 315 868ZM158 868Q158 888 172.5 903Q187 918 207 918Q227 918 242 903Q257 888 257 868Q257 849 242 834Q227 819 207 819Q187 819 172.5 834Q158 849 158 868ZM188 700Z" glyph-name="ring.case" horiz-adv-x="391" /><glyph d="M431 147Q431 76 377.5 32Q324 -12 242 -12Q169 -12 106 16Q43 44 9 86L70 148Q104 108 148 86Q192 64 240 64Q289 64 317 84.5Q345 105 345 136Q345 162 328.5 177Q312 192 266 206L196 228Q137 247 106 281.5Q75 316 75 364Q75 427 125 469.5Q175 512 257 512Q317 512 366 491Q415 470 464 418L403 355Q373 395 334 415.5Q295 436 251 436Q207 436 183 418.5Q159 401 159 372Q159 348 173 333.5Q187 319 227 306L305 281Q370 260 400.5 227.5Q431 195 431 147ZM213 11ZM273 500ZM211 1Z" glyph-name="s" horiz-adv-x="492" unicode="s" /><glyph d="M431 147Q431 76 377.5 32Q324 -12 242 -12Q169 -12 106 16Q43 44 9 86L70 148Q104 108 148 86Q192 64 240 64Q289 64 317 84.5Q345 105 345 136Q345 162 328.5 177Q312 192 266 206L196 228Q137 247 106 281.5Q75 316 75 364Q75 427 125 469.5Q175 512 257 512Q317 512 366 491Q415 470 464 418L403 355Q373 395 334 415.5Q295 436 251 436Q207 436 183 418.5Q159 401 159 372Q159 348 173 333.5Q187 319 227 306L305 281Q370 260 400.5 227.5Q431 195 431 147ZM213 11ZM273 500ZM211 1ZM443 730H337L236 587H320ZM273 500Z" glyph-name="sacute" horiz-adv-x="492" unicode="&#347;" /><glyph d="M431 147Q431 76 377.5 32Q324 -12 242 -12Q169 -12 106 16Q43 44 9 86L70 148Q104 108 148 86Q192 64 240 64Q289 64 317 84.5Q345 105 345 136Q345 162 328.5 177Q312 192 266 206L196 228Q137 247 106 281.5Q75 316 75 364Q75 427 125 469.5Q175 512 257 512Q317 512 366 491Q415 470 464 418L403 355Q373 395 334 415.5Q295 436 251 436Q207 436 183 418.5Q159 401 159 372Q159 348 173 333.5Q187 319 227 306L305 281Q370 260 400.5 227.5Q431 195 431 147ZM213 11ZM273 500ZM211 1ZM332 587H231L157 730H232L286 647L355 730H430ZM273 500Z" glyph-name="scaron" horiz-adv-x="492" unicode="&#353;" /><glyph d="M120 -104 106 -79 177 -6Q125 4 80 29.5Q35 55 9 86L70 148Q104 108 148 86Q192 64 240 64Q289 64 317 84.5Q345 105 345 136Q345 162 328.5 177Q312 192 266 206L196 228Q136 247 105.5 281.5Q75 316 75 364Q75 427 125 469.5Q175 512 257 512Q317 512 366 491Q415 470 464 418L403 355Q373 395 334 415.5Q295 436 251 436Q207 436 183 418.5Q159 401 159 372Q159 348 173 333.5Q187 319 227 306L305 281Q370 261 400.5 228Q431 195 431 147Q431 76 377.5 32Q324 -12 242 -12Q240 -12 237.5 -12Q235 -12 232 -12L184 -59H191Q232 -59 254 -78Q276 -97 276 -129Q276 -172 243.5 -198Q211 -224 158 -224Q135 -224 112 -218Q89 -212 70 -201L78 -152Q100 -165 115.5 -169Q131 -173 150 -173Q176 -173 189.5 -162.5Q203 -152 203 -131Q203 -116 189 -107.5Q175 -99 152 -99Q144 -99 136 -100.5Q128 -102 120 -104Z" glyph-name="scedilla" horiz-adv-x="492" unicode="&#351;" /><glyph d="M431 147Q431 76 377.5 32Q324 -12 242 -12Q169 -12 106 16Q43 44 9 86L70 148Q104 108 148 86Q192 64 240 64Q289 64 317 84.5Q345 105 345 136Q345 162 328.5 177Q312 192 266 206L196 228Q137 247 106 281.5Q75 316 75 364Q75 427 125 469.5Q175 512 257 512Q317 512 366 491Q415 470 464 418L403 355Q373 395 334 415.5Q295 436 251 436Q207 436 183 418.5Q159 401 159 372Q159 348 173 333.5Q187 319 227 306L305 281Q370 260 400.5 227.5Q431 195 431 147ZM213 11ZM273 500ZM211 1ZM145 587 243 730H344L418 587H343L289 670L220 587ZM273 500Z" glyph-name="scircumflex" horiz-adv-x="492" unicode="&#349;" /><glyph d="M44 267Q44 315 70.5 356Q97 397 146 426Q136 445 131 465.5Q126 486 126 508Q126 595 193.5 653.5Q261 712 374 712Q444 712 506 694.5Q568 677 606 648L560 575Q526 599 475 614Q424 629 370 629Q299 629 259.5 598Q220 567 220 521Q220 482 244 456.5Q268 431 321 415L411 388Q486 365 526 323Q566 281 566 224Q566 174 538.5 130.5Q511 87 462 57Q473 40 478.5 19.5Q484 -1 484 -24Q484 -112 416.5 -171Q349 -230 236 -230Q167 -230 104.5 -211.5Q42 -193 4 -165L50 -92Q83 -116 134.5 -131.5Q186 -147 240 -147Q310 -147 350 -114.5Q390 -82 390 -36Q390 -1 365.5 23.5Q341 48 289 64L199 92Q124 115 84 160Q44 205 44 267ZM254 171 332 148Q355 141 376 131Q397 121 414 109Q441 126 456 152.5Q471 179 471 207Q471 243 444 267.5Q417 292 356 309L278 331Q254 338 232 348.5Q210 359 192 373Q167 357 153 332.5Q139 308 139 283Q139 242 166.5 215.5Q194 189 254 171Z" glyph-name="section" horiz-adv-x="613" unicode="&#167;" /><glyph d="M112 447Q112 420 131 401Q150 382 177 382Q204 382 223 401Q242 420 242 447Q242 474 223 493Q204 512 177 512Q150 512 131 493Q112 474 112 447ZM128 449ZM183 116H82L-5 -139H80Z" glyph-name="semicolon" horiz-adv-x="288" unicode=";" /><glyph d="M448 614H87L102 700H570L557 628L167 0H59Z" glyph-name="seven" horiz-adv-x="517" unicode="7" /><glyph d="M196 289H30L40 350H287L277 295L88 0H9Z" glyph-name="seven.denominator" horiz-adv-x="292" unicode="&#63068;" /><glyph d="M171 149H5L15 210H262L252 155L63 -140H-16Z" glyph-name="seven.inferior" horiz-adv-x="292" unicode="&#8327;" /><glyph d="M257 639H91L101 700H348L338 645L149 350H70Z" glyph-name="seven.numerator" horiz-adv-x="292" unicode="&#63080;" /><glyph d="M282 779H116L126 840H373L363 785L174 490H95Z" glyph-name="seven.superior" horiz-adv-x="292" unicode="&#8311;" /><glyph d="M489 614H128L143 700H611L598 628L208 0H100Z" glyph-name="seven.tab" horiz-adv-x="600" unicode="&#65303;" /><glyph d="M325 441Q415 441 472.5 385.5Q530 330 530 244Q530 134 457 61Q384 -12 272 -12Q173 -12 108.5 46Q44 104 44 193Q44 251 72 312.5Q100 374 160 447L366 700H481L261 438Q260 437 256 432.5Q252 428 252 428Q270 435 288 438Q306 441 325 441ZM294 363Q226 363 181 317.5Q136 272 136 204Q136 143 174 106Q212 69 275 69Q345 69 391.5 116.5Q438 164 438 236Q438 295 400 329Q362 363 294 363Z" glyph-name="six" horiz-adv-x="569" unicode="6" /><glyph d="M171 223Q216 223 243.5 196Q271 169 271 127Q271 70 231.5 32Q192 -6 132 -6Q78 -6 42.5 24.5Q7 55 7 101Q7 130 21 161.5Q35 193 63 227L165 350H251L142 219Q149 221 155.5 222Q162 223 171 223ZM199 118Q199 143 184 157Q169 171 142 171Q115 171 97 152Q79 133 79 105Q79 81 94 66Q109 51 134 51Q162 51 180.5 70Q199 89 199 118Z" glyph-name="six.denominator" horiz-adv-x="318" unicode="&#63067;" /><glyph d="M146 83Q191 83 218.5 56Q246 29 246 -13Q246 -70 206.5 -108Q167 -146 107 -146Q53 -146 17.5 -115.5Q-18 -85 -18 -39Q-18 -10 -4 21.5Q10 53 38 87L140 210H226L117 79Q124 81 130.5 82Q137 83 146 83ZM174 -22Q174 3 159 17Q144 31 117 31Q90 31 72 12Q54 -7 54 -35Q54 -59 69 -74Q84 -89 109 -89Q137 -89 155.5 -70Q174 -51 174 -22Z" glyph-name="six.inferior" horiz-adv-x="318" unicode="&#8326;" /><glyph d="M233 573Q278 573 305.5 546Q333 519 333 477Q333 420 293.5 382Q254 344 194 344Q140 344 104.5 374.5Q69 405 69 451Q69 480 83 511.5Q97 543 125 577L227 700H313L204 569Q211 571 217.5 572Q224 573 233 573ZM261 468Q261 493 246 507Q231 521 204 521Q177 521 159 502Q141 483 141 455Q141 431 156 416Q171 401 196 401Q224 401 242.5 420Q261 439 261 468Z" glyph-name="six.numerator" horiz-adv-x="318" unicode="&#63079;" /><glyph d="M257 713Q302 713 329.5 686Q357 659 357 617Q357 560 317.5 522Q278 484 218 484Q164 484 128.5 514.5Q93 545 93 591Q93 620 107 651.5Q121 683 149 717L251 840H337L228 709Q235 711 241.5 712Q248 713 257 713ZM285 608Q285 633 270 647Q255 661 228 661Q201 661 183 642Q165 623 165 595Q165 571 180 556Q195 541 220 541Q248 541 266.5 560Q285 579 285 608Z" glyph-name="six.superior" horiz-adv-x="318" unicode="&#8310;" /><glyph d="M340 441Q430 441 487.5 385.5Q545 330 545 244Q545 134 472 61Q399 -12 287 -12Q188 -12 123.5 46Q59 104 59 193Q59 251 87 312.5Q115 374 175 447L381 700H496L276 438Q275 437 271 432.5Q267 428 267 428Q285 435 303 438Q321 441 340 441ZM309 363Q241 363 196 317.5Q151 272 151 204Q151 143 189 106Q227 69 290 69Q360 69 406.5 116.5Q453 164 453 236Q453 295 415 329Q377 363 309 363Z" glyph-name="six.tab" horiz-adv-x="600" unicode="&#65302;" /><glyph d="M65 -132H-29L403 742H493Z" glyph-name="slash" horiz-adv-x="445" unicode="/" /><glyph glyph-name="space" horiz-adv-x="265" unicode=" " /><glyph d="M149 298H65L77 368H141L138 399Q136 416 135 434Q134 452 134 474Q134 581 195.5 646.5Q257 712 368 712Q462 712 521.5 656Q581 600 583 510L493 491Q489 562 456 597Q423 632 362 632Q296 632 260.5 588.5Q225 545 225 472Q225 455 226 439.5Q227 424 229 404L232 368H434L422 298H239L244 244Q249 193 235 155.5Q221 118 187 89H520L504 0H23L39 91Q97 102 129.5 137.5Q162 173 156 226Z" glyph-name="sterling" horiz-adv-x="589" unicode="&#163;" /><glyph d="M123 623 137 700H628L612 612H234L351 364L149 88H530L514 0H13L29 67L248 364Z" glyph-name="summation" horiz-adv-x="604" unicode="&#8721;" /><glyph d="M139 424H53L66 500H153L183 670L276 700L240 500H397L384 424H227L181 165Q171 111 187 88.5Q203 66 247 66Q265 66 284 71.5Q303 77 330 93L357 26Q328 7 298.5 -2.5Q269 -12 238 -12Q156 -12 117 32Q78 76 91 152ZM204 10ZM124 0ZM325 701Z" glyph-name="t" horiz-adv-x="403" unicode="t" /><glyph d="M33 264 47 340H130L145 424H59L72 500H159L189 670L282 700L246 500H403L390 424H233L218 340H366L352 264H205L187 165Q178 111 193.5 88.5Q209 66 253 66Q271 66 290 71.5Q309 77 336 93L363 26Q334 7 304.5 -2.5Q275 -12 244 -12Q161 -12 122 32Q83 76 97 152L117 264Z" glyph-name="tbar" horiz-adv-x="411" unicode="&#359;" /><glyph d="M139 424H53L66 500H153L183 670L276 700L240 500H397L384 424H227L181 165Q171 111 187 88.5Q203 66 247 66Q265 66 284 71.5Q303 77 330 93L357 26Q328 7 298.5 -2.5Q269 -12 238 -12Q156 -12 117 32Q78 76 91 152ZM204 10ZM124 0ZM325 701ZM463 731H368L322 568H394ZM325 701Z" glyph-name="tcaron" horiz-adv-x="403" unicode="&#357;" /><glyph d="M577 295Q577 163 504.5 75.5Q432 -12 320 -12Q260 -12 215 14Q170 40 146 88L92 -218H4L170 730H258L207 442Q240 476 281 494Q322 512 368 512Q462 512 519.5 451Q577 390 577 295ZM487 285Q487 352 449 392.5Q411 433 347 433Q271 433 220 373Q169 313 169 223Q169 153 208 109.5Q247 66 312 66Q387 66 437 129Q487 192 487 285Z" glyph-name="thorn" horiz-adv-x="623" unicode="&#254;" /><glyph d="M282 352Q267 352 249.5 349Q232 346 222 342L193 415L435 614H133L147 700H575L560 611L336 430Q423 418 469 367Q515 316 515 237Q515 128 446.5 58Q378 -12 267 -12Q171 -12 104.5 35Q38 82 17 163L109 202Q127 134 166 102.5Q205 71 268 71Q334 71 376 114.5Q418 158 418 233Q418 286 381.5 319Q345 352 282 352Z" glyph-name="three" horiz-adv-x="579" unicode="3" /><glyph d="M131 163Q123 163 115 161.5Q107 160 103 158L83 205L186 290H48L58 350H289L279 296L180 216Q218 207 239 182Q260 157 260 122Q260 65 224 29.5Q188 -6 128 -6Q76 -6 40.5 18.5Q5 43 -8 87L55 117Q65 84 82 68.5Q99 53 125 53Q152 53 168.5 70Q185 87 185 116Q185 139 171 151Q157 163 131 163Z" glyph-name="three.denominator" horiz-adv-x="319" unicode="&#63064;" /><glyph d="M106 23Q98 23 90 21.5Q82 20 78 18L58 65L161 150H23L33 210H264L254 156L155 76Q193 67 214 42Q235 17 235 -18Q235 -75 199 -110.5Q163 -146 103 -146Q51 -146 15.5 -121.5Q-20 -97 -33 -53L30 -23Q40 -56 57 -71.5Q74 -87 100 -87Q127 -87 143.5 -70Q160 -53 160 -24Q160 -1 146 11Q132 23 106 23Z" glyph-name="three.inferior" horiz-adv-x="319" unicode="&#8323;" /><glyph d="M193 513Q185 513 177 511.5Q169 510 165 508L145 555L248 640H110L120 700H351L341 646L242 566Q280 557 301 532Q322 507 322 472Q322 415 286 379.5Q250 344 190 344Q138 344 102.5 368.5Q67 393 54 437L117 467Q127 434 144 418.5Q161 403 187 403Q214 403 230.5 420Q247 437 247 466Q247 489 233 501Q219 513 193 513Z" glyph-name="three.numerator" horiz-adv-x="319" unicode="&#63076;" /><glyph d="M293 352Q278 352 260.5 349Q243 346 233 342L204 415L446 614H144L158 700H586L571 611L347 430Q434 418 480 367Q526 316 526 237Q526 128 457.5 58Q389 -12 278 -12Q182 -12 115.5 35Q49 82 28 163L120 202Q138 134 177 102.5Q216 71 279 71Q345 71 387 114.5Q429 158 429 233Q429 286 392.5 319Q356 352 293 352Z" glyph-name="three.tab" horiz-adv-x="600" unicode="&#65299;" /><glyph d="M207 512Q199 512 191 510.5Q183 509 179 507L159 554L262 639H124L134 699H365L355 645L256 565Q294 556 315 531Q336 506 336 471Q336 414 300 378.5Q264 343 204 343Q152 343 116.5 367.5Q81 392 68 436L131 466Q141 433 158 417.5Q175 402 201 402Q228 402 244.5 419Q261 436 261 465Q261 488 247 500Q233 512 207 512ZM236 0H160L567 700H643ZM582 134 594 197 670 222 654 134H701L691 74H644L631 0H559L572 74H387L396 127L586 350H674L490 134Z" glyph-name="threequarters" horiz-adv-x="755" unicode="&#190;" /><glyph d="M217 653Q209 653 201 651.5Q193 650 189 648L169 695L272 780H134L144 840H375L365 786L266 706Q304 697 325 672Q346 647 346 612Q346 555 310 519.5Q274 484 214 484Q162 484 126.5 508.5Q91 533 78 577L141 607Q151 574 168 558.5Q185 543 211 543Q238 543 254.5 560Q271 577 271 606Q271 629 257 641Q243 653 217 653Z" glyph-name="threesuperior" horiz-adv-x="319" unicode="&#179;" /><glyph d="M205 623Q230 610 243.5 605.5Q257 601 270 601Q304 601 324.5 627.5Q345 654 349 704H288Q286 687 280.5 680Q275 673 264 673Q256 673 245.5 676.5Q235 680 213 691Q184 706 169 710.5Q154 715 141 715Q103 715 79 688Q55 661 47 610H110Q114 628 122 636.5Q130 645 142 645Q154 645 167 641Q180 637 205 623ZM188 500Z" glyph-name="tilde" horiz-adv-x="395" unicode="&#732;" /><glyph d="M205 823Q230 810 243.5 805.5Q257 801 270 801Q304 801 324.5 827.5Q345 854 349 904H288Q286 887 280.5 880Q275 873 264 873Q256 873 245.5 876.5Q235 880 213 891Q184 906 169 910.5Q154 915 141 915Q103 915 79 888Q55 861 47 810H110Q114 828 122 836.5Q130 845 142 845Q154 845 167 841Q180 837 205 823ZM197 700Z" glyph-name="tilde.case" horiz-adv-x="395" /><glyph d="M429 350V700H520L617 448L713 700H805V350H738V595L643 348H589L494 589V350ZM111 638V700H392V638H288V350H215V638Z" glyph-name="trademark" horiz-adv-x="859" unicode="&#8482;" /><glyph d="M501 0H17L32 86L320 313Q403 379 436 427Q469 475 469 522Q469 573 438.5 600.5Q408 628 351 628Q294 628 251 592Q208 556 181 485L95 508Q125 603 196 657.5Q267 712 358 712Q452 712 509 660.5Q566 609 566 530Q566 460 522 393.5Q478 327 348 225L170 86H516Z" glyph-name="two" horiz-adv-x="589" unicode="2" /><glyph d="M255 0H-7L5 67L150 164Q182 185 198 207Q214 229 214 250Q214 271 201 283Q188 295 166 295Q141 295 123 280Q105 265 95 235L29 252Q45 302 82 329Q119 356 170 356Q223 356 255 327.5Q287 299 287 255Q287 213 262.5 178.5Q238 144 181 108L106 61H266Z" glyph-name="two.denominator" horiz-adv-x="331" unicode="&#63063;" /><glyph d="M231 -140H-31L-19 -73L126 24Q158 45 174 67Q190 89 190 110Q190 131 177 143Q164 155 142 155Q117 155 99 140Q81 125 71 95L5 112Q21 162 58 189Q95 216 146 216Q199 216 231 187.5Q263 159 263 115Q263 73 238.5 38.5Q214 4 157 -32L82 -79H242Z" glyph-name="two.inferior" horiz-adv-x="331" unicode="&#8322;" /><glyph d="M317 350H55L67 417L212 514Q244 535 260 557Q276 579 276 600Q276 621 263 633Q250 645 228 645Q203 645 185 630Q167 615 157 585L91 602Q107 652 144 679Q181 706 232 706Q285 706 317 677.5Q349 649 349 605Q349 563 324.5 528.5Q300 494 243 458L168 411H328Z" glyph-name="two.numerator" horiz-adv-x="331" unicode="&#63075;" /><glyph d="M507 0H23L38 86L326 313Q409 379 442 427Q475 475 475 522Q475 573 444.5 600.5Q414 628 357 628Q300 628 257 592Q214 556 187 485L101 508Q131 603 202 657.5Q273 712 364 712Q458 712 515 660.5Q572 609 572 530Q572 460 528 393.5Q484 327 354 225L176 86H522Z" glyph-name="two.tab" horiz-adv-x="600" unicode="&#65298;" /><glyph d="M342 490H80L92 557L237 654Q269 675 285 697Q301 719 301 740Q301 761 288 773Q275 785 253 785Q228 785 210 770Q192 755 182 725L116 742Q132 792 169 819Q206 846 257 846Q310 846 342 817.5Q374 789 374 745Q374 703 349.5 668.5Q325 634 268 598L193 551H353Z" glyph-name="twosuperior" horiz-adv-x="331" unicode="&#178;" /><glyph d="M555 500 466 0H382L395 76Q364 33 324 10.5Q284 -12 237 -12Q146 -12 99.5 50Q53 112 70 207L122 500H211L160 221Q146 147 170.5 108.5Q195 70 256 70Q320 70 363 118Q406 166 422 254L466 500ZM338 500ZM414 0Z" glyph-name="u" horiz-adv-x="596" unicode="u" /><glyph d="M555 500 466 0H382L395 76Q364 33 324 10.5Q284 -12 237 -12Q146 -12 99.5 50Q53 112 70 207L122 500H211L160 221Q146 147 170.5 108.5Q195 70 256 70Q320 70 363 118Q406 166 422 254L466 500ZM338 500ZM414 0ZM508 730H402L301 587H385ZM338 500Z" glyph-name="uacute" horiz-adv-x="596" unicode="&#250;" /><glyph d="M555 500 466 0H382L395 76Q364 33 324 10.5Q284 -12 237 -12Q146 -12 99.5 50Q53 112 70 207L122 500H211L160 221Q146 147 170.5 108.5Q195 70 256 70Q320 70 363 118Q406 166 422 254L466 500ZM338 500ZM414 0ZM352 646Q387 646 407 667.5Q427 689 429 730H493Q492 667 453.5 626Q415 585 349 585Q285 585 252 625.5Q219 666 223 730H287Q288 683 303 664.5Q318 646 352 646ZM338 500Z" glyph-name="ubreve" horiz-adv-x="596" unicode="&#365;" /><glyph d="M555 500 466 0H382L395 76Q364 33 324 10.5Q284 -12 237 -12Q146 -12 99.5 50Q53 112 70 207L122 500H211L160 221Q146 147 170.5 108.5Q195 70 256 70Q320 70 363 118Q406 166 422 254L466 500ZM338 500ZM414 0ZM210 587 308 730H409L483 587H408L354 670L285 587ZM338 500Z" glyph-name="ucircumflex" horiz-adv-x="596" unicode="&#251;" /><glyph d="M555 500 466 0H382L395 76Q364 33 324 10.5Q284 -12 237 -12Q146 -12 99.5 50Q53 112 70 207L122 500H211L160 221Q146 147 170.5 108.5Q195 70 256 70Q320 70 363 118Q406 166 422 254L466 500ZM338 500ZM414 0ZM216 658Q216 634 233 617Q250 600 274 600Q298 600 315.5 617Q333 634 333 658Q333 682 315.5 699.5Q298 717 274 717Q250 717 233 699.5Q216 682 216 658ZM383 658Q383 634 400 617Q417 600 441 600Q465 600 482.5 617Q500 634 500 658Q500 682 482.5 699.5Q465 717 441 717Q417 717 400 699.5Q383 682 383 658ZM338 500Z" glyph-name="udieresis" horiz-adv-x="596" unicode="&#252;" /><glyph d="M555 500 466 0H382L395 76Q364 33 324 10.5Q284 -12 237 -12Q146 -12 99.5 50Q53 112 70 207L122 500H211L160 221Q146 147 170.5 108.5Q195 70 256 70Q320 70 363 118Q406 166 422 254L466 500ZM338 500ZM414 0ZM379 587 302 730H198L297 587ZM338 500Z" glyph-name="ugrave" horiz-adv-x="596" unicode="&#249;" /><glyph d="M555 500 466 0H382L395 76Q364 33 324 10.5Q284 -12 237 -12Q146 -12 99.5 50Q53 112 70 207L122 500H211L160 221Q146 147 170.5 108.5Q195 70 256 70Q320 70 363 118Q406 166 422 254L466 500ZM338 500ZM414 0ZM421 730H326L235 587H306ZM578 730H475L352 587H429ZM338 500Z" glyph-name="uhungarumlaut" horiz-adv-x="596" unicode="&#369;" /><glyph d="M555 500 466 0H382L395 76Q364 33 324 10.5Q284 -12 237 -12Q146 -12 99.5 50Q53 112 70 207L122 500H211L160 221Q146 147 170.5 108.5Q195 70 256 70Q320 70 363 118Q406 166 422 254L466 500ZM338 500ZM414 0ZM474 623H228L242 692H488ZM338 500Z" glyph-name="umacron" horiz-adv-x="596" unicode="&#363;" /><glyph d="M11 -78 25 0H462L448 -78Z" glyph-name="underscore" horiz-adv-x="568" unicode="_" /><glyph glyph-name="uni00A0" horiz-adv-x="265" unicode="&#160;" /><glyph d="M66 220 80 302H345L331 220Z" glyph-name="uni00AD" horiz-adv-x="407" unicode="&#173;" /><glyph d="M421 270 436 357H717L654 0H572L587 89Q545 40 489 14Q433 -12 368 -12Q232 -12 151 73Q70 158 70 295Q70 378 95.5 452.5Q121 527 169 584Q221 645 292 678.5Q363 712 442 712Q553 712 630 658.5Q707 605 735 509L644 472Q620 547 568.5 585Q517 623 439 623Q383 623 330.5 595.5Q278 568 239 519Q204 475 185.5 419Q167 363 167 302Q167 199 226 138Q285 77 386 77Q471 77 534 127Q597 177 610 253L613 270ZM446 700ZM371 0ZM413 -66H313L255 -223H336ZM328 -210ZM371 0Z" glyph-name="uni0122" horiz-adv-x="762" /><glyph d="M262 11Q174 11 113.5 73Q53 135 53 222Q53 348 123.5 430Q194 512 303 512Q364 512 409.5 484.5Q455 457 479 407L497 500H581L494 0Q474 -114 410.5 -172Q347 -230 241 -230Q161 -230 92.5 -194.5Q24 -159 -13 -103L53 -46Q91 -99 138 -125.5Q185 -152 242 -152Q309 -152 350.5 -111Q392 -70 406 10L417 74Q386 43 346.5 27Q307 11 262 11ZM143 235Q143 169 181.5 129Q220 89 283 89Q356 89 404.5 145Q453 201 453 286Q453 352 414.5 392.5Q376 433 312 433Q240 433 191.5 376Q143 319 143 235ZM317 500ZM271 587H376L434 730H359ZM317 500Z" glyph-name="uni0123" horiz-adv-x="623" /><glyph d="M395 394 605 0H496L321 328L188 203L152 0H57L181 700H276L211 333L597 700H720ZM322 0ZM364 -66H264L206 -223H287ZM279 -210ZM322 0Z" glyph-name="uni0136" horiz-adv-x="661" /><glyph d="M338 311 494 0H397L269 258L159 167L130 0H42L170 730H258L179 277L444 500H566ZM261 0ZM303 -66H203L145 -223H226ZM218 -210ZM261 0Z" glyph-name="uni0137" horiz-adv-x="547" /><glyph d="M57 0 180 700H275L168 89H524L508 0ZM227 700ZM282 0ZM324 700ZM393 350ZM324 -66H224L166 -223H247ZM239 -210ZM282 0Z" glyph-name="uni013B" horiz-adv-x="574" unicode="&#315;" /><glyph d="M42 0 171 730H259L130 0ZM86 0ZM215 730ZM302 700ZM242 350ZM128 -66H28L-30 -223H51ZM43 -210ZM86 0Z" glyph-name="uni013C" horiz-adv-x="260" unicode="&#316;" /><glyph d="M57 0 180 700H274L555 157L650 700H740L617 0H539L247 567L147 0ZM462 700ZM342 0ZM384 -66H284L226 -223H307ZM299 -210ZM342 0Z" glyph-name="uni0145" horiz-adv-x="761" /><glyph d="M537 293 485 0H396L447 279Q460 352 434.5 391Q409 430 346 430Q280 430 235.5 382Q191 334 175 246L131 0H42L131 500H215L203 424Q235 467 277 489.5Q319 512 369 512Q459 512 506.5 449Q554 386 537 293ZM356 500ZM263 0ZM136 585ZM305 -66H205L147 -223H228ZM220 -210ZM263 0Z" glyph-name="uni0146" horiz-adv-x="608" /><glyph d="M57 0 181 700H453Q556 700 618.5 643Q681 586 681 499Q681 418 627.5 357Q574 296 483 269L593 0H487L383 254Q381 254 379.5 254Q378 254 376 254H197L152 0ZM584 494Q584 550 547 581.5Q510 613 441 613H261L212 340H397Q473 340 528.5 385.5Q584 431 584 494ZM413 700ZM316 0ZM358 -66H258L200 -223H281ZM273 -210ZM316 0Z" glyph-name="uni0156" horiz-adv-x="696" /><glyph d="M43 0 131 500H215L195 386Q225 445 268 474.5Q311 504 367 504Q377 504 386.5 503Q396 502 408 500L391 416Q382 417 371.5 418Q361 419 350 419Q285 419 234.5 361.5Q184 304 168 211L131 0ZM270 500ZM87 0ZM129 -66H29L-29 -223H52ZM44 -210ZM87 0Z" glyph-name="uni0157" horiz-adv-x="381" /><glyph d="M164 -105 150 -80 228 0H210L317 611H88L103 700H658L643 611H412L305 0H289L228 -60H235Q276 -60 298 -79Q320 -98 320 -130Q320 -173 287.5 -199Q255 -225 202 -225Q179 -225 156 -219Q133 -213 114 -202L122 -153Q144 -166 159.5 -170Q175 -174 194 -174Q220 -174 233.5 -163.5Q247 -153 247 -132Q247 -117 233 -108.5Q219 -100 196 -100Q188 -100 180 -101.5Q172 -103 164 -105Z" glyph-name="uni0162" horiz-adv-x="602" /><glyph d="M111 -105 97 -80 172 -3Q123 13 102 53.5Q81 94 91 152L139 424H53L66 500H153L183 670L276 700L240 500H397L384 424H227L181 165Q172 111 187.5 88.5Q203 66 247 66Q265 66 284 71.5Q303 77 330 93L357 26Q328 7 298.5 -2.5Q269 -12 238 -12Q235 -12 231.5 -12Q228 -12 224 -12L175 -60H182Q223 -60 245 -79Q267 -98 267 -130Q267 -173 234.5 -199Q202 -225 149 -225Q126 -225 103 -219Q80 -213 61 -202L69 -153Q91 -166 106.5 -170Q122 -174 141 -174Q167 -174 180.5 -163.5Q194 -153 194 -132Q194 -117 180 -108.5Q166 -100 143 -100Q135 -100 127 -101.5Q119 -103 111 -105Z" glyph-name="uni0163" horiz-adv-x="403" /><glyph d="M568 206Q568 110 499.5 49Q431 -12 323 -12Q229 -12 146.5 28.5Q64 69 18 130L92 198Q149 132 205 102.5Q261 73 322 73Q393 73 433 108Q473 143 473 199Q473 236 448 260.5Q423 285 365 304L268 336Q193 361 154 406Q115 451 115 513Q115 598 180.5 655Q246 712 352 712Q437 712 507.5 679Q578 646 624 586L550 517Q505 575 455.5 600.5Q406 626 347 626Q280 626 244 596.5Q208 567 208 519Q208 484 231 460.5Q254 437 310 418L416 382Q496 355 532 313Q568 271 568 206ZM313 10ZM365 700ZM313 0ZM355 -66H255L197 -223H278ZM270 -210ZM313 0Z" glyph-name="uni0218" horiz-adv-x="628" /><glyph d="M431 147Q431 76 377.5 32Q324 -12 242 -12Q169 -12 106 16Q43 44 9 86L70 148Q104 108 148 86Q192 64 240 64Q289 64 317 84.5Q345 105 345 136Q345 162 328.5 177Q312 192 266 206L196 228Q137 247 106 281.5Q75 316 75 364Q75 427 125 469.5Q175 512 257 512Q317 512 366 491Q415 470 464 418L403 355Q373 395 334 415.5Q295 436 251 436Q207 436 183 418.5Q159 401 159 372Q159 348 173 333.5Q187 319 227 306L305 281Q370 260 400.5 227.5Q431 195 431 147ZM213 11ZM273 500ZM211 1ZM253 -65H153L95 -222H176ZM168 -209ZM211 1Z" glyph-name="uni0219" horiz-adv-x="492" /><glyph d="M88 611 103 700H658L643 611H412L305 0H210L317 611ZM259 10ZM380 700ZM257 0ZM299 -66H199L141 -223H222ZM214 -210ZM257 0Z" glyph-name="uni021A" horiz-adv-x="602" unicode="&#538;" /><glyph d="M139 424H53L66 500H153L183 670L276 700L240 500H397L384 424H227L181 165Q171 111 187 88.5Q203 66 247 66Q265 66 284 71.5Q303 77 330 93L357 26Q328 7 298.5 -2.5Q269 -12 238 -12Q156 -12 117 32Q78 76 91 152ZM204 10ZM124 0ZM325 701ZM166 -66H66L8 -223H89ZM81 -210ZM124 0Z" glyph-name="uni021B" horiz-adv-x="403" unicode="&#539;" /><glyph d="M39 -42 134 500H222L126 -47Q109 -145 64.5 -187.5Q20 -230 -60 -230Q-77 -230 -96 -226.5Q-115 -223 -132 -217L-110 -143Q-80 -150 -71 -151Q-62 -152 -55 -152Q-15 -152 6.5 -128Q28 -104 39 -42ZM178 500Z" glyph-name="uni0237" horiz-adv-x="264" /><glyph d="M313 623H67L81 692H327ZM177 500Z" glyph-name="uni02C9" horiz-adv-x="392" unicode="&#713;" /><glyph d="M-8 0 6 70 371 700H468L610 70L596 0ZM400 580 117 86H506Z" glyph-name="uni0394" horiz-adv-x="679" unicode="&#916;" /><glyph d="M22 0 37 86H219Q154 129 120 194.5Q86 260 86 341Q86 500 182.5 606Q279 712 430 712Q566 712 647.5 632.5Q729 553 729 425Q729 314 677 225.5Q625 137 530 86H683L668 0H407L424 92Q521 137 577.5 222.5Q634 308 634 414Q634 508 578.5 565.5Q523 623 427 623Q319 623 250 539.5Q181 456 181 333Q181 261 209 203Q237 145 292 104L273 0Z" glyph-name="uni03A9" horiz-adv-x="778" unicode="&#937;" /><glyph d="M563 500 474 0H390L403 76Q372 33 332 10.5Q292 -12 245 -12Q209 -12 179.5 -1.5Q150 9 127 29L116 -78L91 -218H3L130 500H219L168 221Q154 147 178.5 108.5Q203 70 264 70Q328 70 371 118Q414 166 430 254L474 500Z" glyph-name="uni03BC" horiz-adv-x="604" unicode="&#956;" /><glyph d="M220 434 143 0H48L127 449Q149 572 230 642Q311 712 436 712Q520 712 588.5 680Q657 648 707 586L505 384L524 378Q600 354 638 311Q676 268 676 206Q676 108 610 48Q544 -12 437 -12Q388 -12 345.5 -4Q303 4 268 20L295 99Q332 85 366.5 77.5Q401 70 430 70Q500 70 539.5 105Q579 140 579 197Q579 236 553 263Q527 290 474 304L367 333L374 368L580 580Q548 603 511 614.5Q474 626 433 626Q346 626 291 575Q236 524 220 434Z" glyph-name="uni1E9E" horiz-adv-x="730" unicode="&#7838;" /><glyph d="M135 262 57 218 33 285 151 352 185 546Q200 632 240 672Q280 712 349 712Q404 712 440 679Q476 646 476 596Q476 521 430 455.5Q384 390 301 345L231 307L206 165Q196 109 212 87.5Q228 66 272 66Q290 66 307.5 71Q325 76 356 94L382 26Q354 7 325 -2.5Q296 -12 265 -12Q182 -12 143 33.5Q104 79 117 157ZM343 634Q315 634 298 612.5Q281 591 273 546L247 399L278 417Q337 451 363 490Q389 529 389 579Q389 605 377 619.5Q365 634 343 634Z" glyph-name="uni2113" horiz-adv-x="451" /><glyph d="M70 350 80 410H155L189 607Q172 597 148.5 592Q125 587 96 587L107 648Q145 648 173.5 661.5Q202 675 219 700H278L227 410H301L290 350ZM220 0H144L551 700H627ZM560 163Q552 163 544 161.5Q536 160 532 158L512 205L615 290H477L487 350H718L708 296L609 216Q647 207 668 182Q689 157 689 122Q689 65 653 29.5Q617 -6 557 -6Q505 -6 469.5 18.5Q434 43 421 87L484 117Q494 84 511 68.5Q528 53 554 53Q581 53 597.5 70Q614 87 614 116Q614 139 600 151Q586 163 560 163Z" glyph-name="uni2153" horiz-adv-x="752" unicode="&#8531;" /><glyph d="M254 0H178L585 700H661ZM594 163Q586 163 578 161.5Q570 160 566 158L546 205L649 290H511L521 350H752L742 296L643 216Q681 207 702 182Q723 157 723 122Q723 65 687 29.5Q651 -6 591 -6Q539 -6 503.5 18.5Q468 43 455 87L518 117Q528 84 545 68.5Q562 53 588 53Q615 53 631.5 70Q648 87 648 116Q648 139 634 151Q620 163 594 163ZM325 350H63L75 417L220 514Q252 535 268 557Q284 579 284 600Q284 621 271 633Q258 645 236 645Q211 645 193 630Q175 615 165 585L99 602Q115 652 152 679Q189 706 240 706Q293 706 325 677.5Q357 649 357 605Q357 563 332.5 528.5Q308 494 251 458L176 411H336Z" glyph-name="uni2154" horiz-adv-x="786" unicode="&#8532;" /><glyph d="M71 350 81 410H156L190 607Q173 597 149.5 592Q126 587 97 587L108 648Q146 648 174.5 661.5Q203 675 220 700H279L228 410H302L291 350ZM221 0H145L552 700H628ZM583 227Q632 227 662 199Q692 171 692 128Q692 69 654 31.5Q616 -6 555 -6Q505 -6 468 16.5Q431 39 418 79L478 110Q487 82 506 68Q525 54 554 54Q585 54 602 71.5Q619 89 619 122Q619 145 604.5 158Q590 171 564 171Q548 171 532.5 164.5Q517 158 505 147L453 173L508 350H707L696 289H553L528 214Q540 221 554 224Q568 227 583 227Z" glyph-name="uni2155" horiz-adv-x="752" unicode="&#8533;" /><glyph d="M617 227Q666 227 696 199Q726 171 726 128Q726 69 688 31.5Q650 -6 589 -6Q539 -6 502 16.5Q465 39 452 79L512 110Q521 82 540 68Q559 54 588 54Q619 54 636 71.5Q653 89 653 122Q653 145 638.5 158Q624 171 598 171Q582 171 566.5 164.5Q551 158 539 147L487 173L542 350H741L730 289H587L562 214Q574 221 588 224Q602 227 617 227ZM255 0H179L586 700H662ZM326 350H64L76 417L221 514Q253 535 269 557Q285 579 285 600Q285 621 272 633Q259 645 237 645Q212 645 194 630Q176 615 166 585L100 602Q116 652 153 679Q190 706 241 706Q294 706 326 677.5Q358 649 358 605Q358 563 333.5 528.5Q309 494 252 458L177 411H337Z" glyph-name="uni2156" horiz-adv-x="786" unicode="&#8534;" /><glyph d="M598 227Q647 227 677 199Q707 171 707 128Q707 69 669 31.5Q631 -6 570 -6Q520 -6 483 16.5Q446 39 433 79L493 110Q502 82 521 68Q540 54 569 54Q600 54 617 71.5Q634 89 634 122Q634 145 619.5 158Q605 171 579 171Q563 171 547.5 164.5Q532 158 520 147L468 173L523 350H722L711 289H568L543 214Q555 221 569 224Q583 227 598 227ZM236 0H160L567 700H643ZM206 513Q198 513 190 511.5Q182 510 178 508L158 555L261 640H123L133 700H364L354 646L255 566Q293 557 314 532Q335 507 335 472Q335 415 299 379.5Q263 344 203 344Q151 344 115.5 368.5Q80 393 67 437L130 467Q140 434 157 418.5Q174 403 200 403Q227 403 243.5 420Q260 437 260 466Q260 489 246 501Q232 513 206 513Z" glyph-name="uni2157" horiz-adv-x="770" unicode="&#8535;" /><glyph d="M629 227Q678 227 708 199Q738 171 738 128Q738 69 700 31.5Q662 -6 601 -6Q551 -6 514 16.5Q477 39 464 79L524 110Q533 82 552 68Q571 54 600 54Q631 54 648 71.5Q665 89 665 122Q665 145 650.5 158Q636 171 610 171Q594 171 578.5 164.5Q563 158 551 147L499 173L554 350H753L742 289H599L574 214Q586 221 600 224Q614 227 629 227ZM267 0H191L598 700H674ZM259 484 271 547 347 572 331 484H378L368 424H321L308 350H236L249 424H64L73 477L263 700H351L167 484Z" glyph-name="uni2158" horiz-adv-x="803" unicode="&#8536;" /><glyph d="M75 350 85 410H160L194 607Q177 597 153.5 592Q130 587 101 587L112 648Q150 648 178.5 661.5Q207 675 224 700H283L232 410H306L295 350ZM225 0H149L556 700H632ZM565 223Q610 223 637.5 196Q665 169 665 127Q665 70 625.5 32Q586 -6 526 -6Q472 -6 436.5 24.5Q401 55 401 101Q401 130 415 161.5Q429 193 457 227L559 350H645L536 219Q543 221 549.5 222Q556 223 565 223ZM593 118Q593 143 578 157Q563 171 536 171Q509 171 491 152Q473 133 473 105Q473 81 488 66Q503 51 528 51Q556 51 574.5 70Q593 89 593 118Z" glyph-name="uni2159" horiz-adv-x="723" unicode="&#8537;" /><glyph d="M231 577Q280 577 310 549Q340 521 340 478Q340 419 302 381.5Q264 344 203 344Q153 344 116 366.5Q79 389 66 429L126 460Q135 432 154 418Q173 404 202 404Q233 404 250 421.5Q267 439 267 472Q267 495 252.5 508Q238 521 212 521Q196 521 180.5 514.5Q165 508 153 497L101 523L156 700H355L344 639H201L176 564Q188 571 202 574Q216 577 231 577ZM238 0H162L569 700H645ZM578 223Q623 223 650.5 196Q678 169 678 127Q678 70 638.5 32Q599 -6 539 -6Q485 -6 449.5 24.5Q414 55 414 101Q414 130 428 161.5Q442 193 470 227L572 350H658L549 219Q556 221 562.5 222Q569 223 578 223ZM606 118Q606 143 591 157Q576 171 549 171Q522 171 504 152Q486 133 486 105Q486 81 501 66Q516 51 541 51Q569 51 587.5 70Q606 89 606 118Z" glyph-name="uni215A" horiz-adv-x="736" unicode="&#8538;" /><glyph d="M72 350 82 410H157L191 607Q174 597 150.5 592Q127 587 98 587L109 648Q147 648 175.5 661.5Q204 675 221 700H280L229 410H303L292 350ZM222 0H146L553 700H629ZM499 188Q481 200 472 217Q463 234 463 255Q463 299 497.5 327.5Q532 356 587 356Q642 356 676.5 330Q711 304 711 265Q711 235 694.5 210.5Q678 186 648 174Q669 161 679.5 143Q690 125 690 103Q690 55 653 24.5Q616 -6 558 -6Q499 -6 462.5 21Q426 48 426 90Q426 123 445.5 149.5Q465 176 499 188ZM587 301Q563 301 548 287Q533 273 533 249Q533 228 546.5 215.5Q560 203 583 203Q608 203 623 219.5Q638 236 638 259Q638 279 624.5 290Q611 301 587 301ZM560 153Q533 153 516.5 136.5Q500 120 500 96Q500 75 516 62.5Q532 50 558 50Q584 50 601 65Q618 80 618 105Q618 127 602.5 140Q587 153 560 153Z" glyph-name="uni215B" horiz-adv-x="754" unicode="&#8539;" /><glyph d="M236 0H160L567 700H643ZM513 188Q495 200 486 217Q477 234 477 255Q477 299 511.5 327.5Q546 356 601 356Q656 356 690.5 330Q725 304 725 265Q725 235 708.5 210.5Q692 186 662 174Q683 161 693.5 143Q704 125 704 103Q704 55 667 24.5Q630 -6 572 -6Q513 -6 476.5 21Q440 48 440 90Q440 123 459.5 149.5Q479 176 513 188ZM601 301Q577 301 562 287Q547 273 547 249Q547 228 560.5 215.5Q574 203 597 203Q622 203 637 219.5Q652 236 652 259Q652 279 638.5 290Q625 301 601 301ZM574 153Q547 153 530.5 136.5Q514 120 514 96Q514 75 530 62.5Q546 50 572 50Q598 50 615 65Q632 80 632 105Q632 127 616.5 140Q601 153 574 153ZM206 513Q198 513 190 511.5Q182 510 178 508L158 555L261 640H123L133 700H364L354 646L255 566Q293 557 314 532Q335 507 335 472Q335 415 299 379.5Q263 344 203 344Q151 344 115.5 368.5Q80 393 67 437L130 467Q140 434 157 418.5Q174 403 200 403Q227 403 243.5 420Q260 437 260 466Q260 489 246 501Q232 513 206 513Z" glyph-name="uni215C" horiz-adv-x="771" unicode="&#8540;" /><glyph d="M228 0H152L559 700H635ZM505 188Q487 200 478 217Q469 234 469 255Q469 299 503.5 327.5Q538 356 593 356Q648 356 682.5 330Q717 304 717 265Q717 235 700.5 210.5Q684 186 654 174Q675 161 685.5 143Q696 125 696 103Q696 55 659 24.5Q622 -6 564 -6Q505 -6 468.5 21Q432 48 432 90Q432 123 451.5 149.5Q471 176 505 188ZM593 301Q569 301 554 287Q539 273 539 249Q539 228 552.5 215.5Q566 203 589 203Q614 203 629 219.5Q644 236 644 259Q644 279 630.5 290Q617 301 593 301ZM566 153Q539 153 522.5 136.5Q506 120 506 96Q506 75 522 62.5Q538 50 564 50Q590 50 607 65Q624 80 624 105Q624 127 608.5 140Q593 153 566 153ZM230 577Q279 577 309 549Q339 521 339 478Q339 419 301 381.5Q263 344 202 344Q152 344 115 366.5Q78 389 65 429L125 460Q134 432 153 418Q172 404 201 404Q232 404 249 421.5Q266 439 266 472Q266 495 251.5 508Q237 521 211 521Q195 521 179.5 514.5Q164 508 152 497L100 523L155 700H354L343 639H200L175 564Q187 571 201 574Q215 577 230 577Z" glyph-name="uni215D" horiz-adv-x="762" unicode="&#8541;" /><glyph d="M165 0H89L496 700H572ZM442 188Q424 200 415 217Q406 234 406 255Q406 299 440.5 327.5Q475 356 530 356Q585 356 619.5 330Q654 304 654 265Q654 235 637.5 210.5Q621 186 591 174Q612 161 622.5 143Q633 125 633 103Q633 55 596 24.5Q559 -6 501 -6Q442 -6 405.5 21Q369 48 369 90Q369 123 388.5 149.5Q408 176 442 188ZM530 301Q506 301 491 287Q476 273 476 249Q476 228 489.5 215.5Q503 203 526 203Q551 203 566 219.5Q581 236 581 259Q581 279 567.5 290Q554 301 530 301ZM503 153Q476 153 459.5 136.5Q443 120 443 96Q443 75 459 62.5Q475 50 501 50Q527 50 544 65Q561 80 561 105Q561 127 545.5 140Q530 153 503 153ZM270 639H104L114 700H361L351 645L162 350H83Z" glyph-name="uni215E" horiz-adv-x="698" unicode="&#8542;" /><glyph d="M86 350 96 410H171L205 607Q188 597 164.5 592Q141 587 112 587L123 648Q161 648 189.5 661.5Q218 675 235 700H294L243 410H317L306 350ZM236 0H160L567 700H643Z" glyph-name="uni215F" horiz-adv-x="446" unicode="&#8543;" /><glyph d="M32 0H-44L363 700H439Z" glyph-name="uni2215" horiz-adv-x="361" unicode="&#8725;" /><glyph d="M122.5 350.5Q122.5 310 151 281.5Q179.5 253 220 253Q260.5 253 289 281.5Q317.5 310 317.5 350.5Q317.5 391 289 419.5Q260.5 448 220 448Q179.5 448 151 419.5Q122.5 391 122.5 350.5ZM146.5 353.5Z" glyph-name="uni2219" horiz-adv-x="410" /><glyph d="M1410 529H72V537H1410ZM1217 257Q1217 262 1217 287.5Q1217 313 1216 332L1187 330V334Q1187 344 1190 349Q1193 354 1199 354H1216L1213 384Q1232 390 1236.5 391Q1241 392 1245 392Q1250 392 1253 390Q1256 388 1256 384V355H1303V352Q1303 341 1300 336Q1297 331 1291 331H1256V241Q1256 233 1260 229.5Q1264 226 1272 226Q1278 226 1285 227Q1292 228 1306 231Q1326 235 1336.5 236Q1347 237 1357 237Q1379 237 1399 230.5Q1419 224 1419 213Q1419 200 1410.5 192.5Q1402 185 1392 185Q1390 185 1387 186Q1384 187 1376 192Q1357 202 1344.5 205.5Q1332 209 1321 209Q1317 209 1312 208.5Q1307 208 1295 206Q1277 203 1266 202Q1255 201 1245 201Q1228 201 1223 210.5Q1218 220 1217 257ZM1200 290Q1200 278 1194 270.5Q1188 263 1175 258Q1166 255 1156 253.5Q1146 252 1131 252Q1132 242 1139 236Q1146 230 1157 230Q1166 230 1173.5 232Q1181 234 1189 239Q1193 236 1195 232Q1197 228 1197 223Q1197 214 1184.5 207Q1172 200 1150 200Q1122 200 1106 214.5Q1090 229 1090 253Q1090 282 1109 301.5Q1128 321 1159 321Q1177 321 1188.5 312Q1200 303 1200 290ZM877 290Q877 278 871 270.5Q865 263 852 258Q843 255 833 253.5Q823 252 808 252Q809 242 816 236Q823 230 834 230Q843 230 850.5 232Q858 234 866 239Q870 236 872 232Q874 228 874 223Q874 214 861.5 207Q849 200 827 200Q799 200 783 214.5Q767 229 767 253Q767 282 786 301.5Q805 321 836 321Q854 321 865.5 312Q877 303 877 290ZM178 290Q178 278 172 270.5Q166 263 153 258Q144 255 134 253.5Q124 252 109 252Q110 242 117 236Q124 230 135 230Q144 230 151.5 232Q159 234 167 239Q171 236 173 232Q175 228 175 223Q175 214 162.5 207Q150 200 128 200Q100 200 84 214.5Q68 229 68 253Q68 282 87 301.5Q106 321 137 321Q155 321 166.5 312Q178 303 178 290ZM1045 321Q1059 321 1066.5 313Q1074 305 1074 289V240L1076 208Q1057 202 1052.5 201Q1048 200 1045 200Q1040 200 1037 202Q1034 204 1034 208V275Q1034 283 1032 286.5Q1030 290 1026 290Q1019 290 1009.5 272.5Q1000 255 1000 242L1003 208Q984 202 979.5 201Q975 200 971 200Q966 200 963 202Q960 204 960 208V277L957 313Q976 319 980.5 320Q985 321 989 321Q994 321 997 318.5Q1000 316 1000 312V272Q1009 296 1020 308.5Q1031 321 1045 321ZM355 321Q369 321 376 313Q383 305 383 289V240L386 208Q367 202 362.5 201Q358 200 355 200Q350 200 347 202Q344 204 344 208V274Q344 283 342 286.5Q340 290 336 290Q329 290 319.5 272.5Q310 255 310 242L312 208Q293 202 288.5 201Q284 200 281 200Q276 200 273 202Q270 204 270 208V274Q270 283 268 286.5Q266 290 262 290Q255 290 245.5 272.5Q236 255 236 242L239 208Q220 202 215.5 201Q211 200 207 200Q202 200 199 202Q196 204 196 208V277L193 313Q212 319 216.5 320Q221 321 225 321Q230 321 233 318.5Q236 316 236 312V272Q242 292 254 306.5Q266 321 281 321Q295 321 302.5 313Q310 305 310 289V272Q316 294 328 307.5Q340 321 355 321ZM831 298Q822 298 815.5 288.5Q809 279 807 264Q823 264 833.5 269.5Q844 275 844 285Q844 291 840.5 294.5Q837 298 831 298ZM1154 298Q1145 298 1138.5 288.5Q1132 279 1130 264Q1146 264 1156.5 269.5Q1167 275 1167 285Q1167 291 1163.5 294.5Q1160 298 1154 298ZM132 298Q123 298 116.5 288.5Q110 279 108 264Q124 264 134.5 269.5Q145 275 145 285Q145 291 141.5 294.5Q138 298 132 298ZM667 242V219Q690 222 701 235Q712 248 712 270Q712 280 708.5 285Q705 290 699 290Q687 290 677 272Q667 254 667 242ZM892 226Q892 236 899 243Q906 250 917 250Q928 250 935.5 243Q943 236 943 226Q943 216 935.5 209.5Q928 203 917 203Q906 203 899 209.5Q892 216 892 226ZM714 320Q732 320 743 306Q754 292 754 269Q754 236 731.5 218.5Q709 201 667 201V161L670 129Q651 123 646.5 122Q642 121 638 121Q633 121 630 123Q627 125 627 129V204L602 201V198Q602 160 584.5 139.5Q567 119 534 119Q515 119 504 128.5Q493 138 493 153Q493 171 509.5 184Q526 197 563 206V248Q555 225 543 212.5Q531 200 517 200Q503 200 496 207.5Q489 215 489 231V234Q479 217 466 209Q453 201 436 201Q423 201 415 209Q407 217 407 231V332L378 330V334Q378 344 381 349Q384 354 390 354H407L404 384Q423 390 427.5 391Q432 392 436 392Q441 392 444 390Q447 388 447 384V355H494V352Q494 341 491 336Q488 331 482 331H447V245Q447 237 450 233Q453 229 460 229Q470 229 479.5 237Q489 245 489 255V280L486 313Q505 319 509.5 320Q514 321 518 321Q523 321 526 318.5Q529 316 529 312V246Q529 238 530.5 234.5Q532 231 536 231Q543 231 552.5 248Q562 265 562 279L560 313Q579 319 583.5 320Q588 321 591 321Q596 321 599 318.5Q602 316 602 312V213L627 216V277L624 313Q643 319 647.5 320Q652 321 656 321Q661 321 664 318.5Q667 316 667 312V272Q675 295 687 307.5Q699 320 714 320ZM535 148Q547 148 554 159Q561 170 562 194Q543 190 532 181.5Q521 173 521 162Q521 155 525 151.5Q529 148 535 148ZM1410 0H72V8H1410Z" glyph-name="uniF8FF" horiz-adv-x="1487" unicode="&#63743;" /><glyph d="M466 500H555L466 0H453Q399 -33 374.5 -60.5Q350 -88 350 -117Q350 -142 365 -154Q380 -166 410 -166Q416 -166 422 -165.5Q428 -165 435 -163L425 -216Q416 -221 405.5 -223Q395 -225 382 -225Q331 -225 302 -201Q273 -177 273 -135Q273 -96 300.5 -62Q328 -28 382 0L395 76Q364 33 324 10.5Q284 -12 237 -12Q146 -12 99.5 50Q53 112 70 207L122 500H211L160 221Q146 147 170.5 108.5Q195 70 256 70Q320 70 363 118Q406 166 422 254Z" glyph-name="uogonek" horiz-adv-x="596" unicode="&#371;" /><glyph d="M555 500 466 0H382L395 76Q364 33 324 10.5Q284 -12 237 -12Q146 -12 99.5 50Q53 112 70 207L122 500H211L160 221Q146 147 170.5 108.5Q195 70 256 70Q320 70 363 118Q406 166 422 254L466 500ZM338 500ZM414 0ZM466 668Q466 712 434.5 744Q403 776 358 776Q313 776 282 744.5Q251 713 251 668Q251 623 282 592Q313 561 358 561Q403 561 434.5 592.5Q466 624 466 668ZM309 668Q309 688 323.5 703Q338 718 358 718Q378 718 393 703Q408 688 408 668Q408 649 393 634Q378 619 358 619Q338 619 323.5 634Q309 649 309 668ZM338 500Z" glyph-name="uring" horiz-adv-x="596" unicode="&#367;" /><glyph d="M555 500 466 0H382L395 76Q364 33 324 10.5Q284 -12 237 -12Q146 -12 99.5 50Q53 112 70 207L122 500H211L160 221Q146 147 170.5 108.5Q195 70 256 70Q320 70 363 118Q406 166 422 254L466 500ZM338 500ZM414 0ZM355 623Q380 610 393.5 605.5Q407 601 420 601Q454 601 474.5 627.5Q495 654 499 704H438Q436 687 430.5 680Q425 673 414 673Q406 673 395.5 676.5Q385 680 363 691Q334 706 319 710.5Q304 715 291 715Q253 715 229 688Q205 661 197 610H260Q264 628 272 636.5Q280 645 292 645Q304 645 317 641Q330 637 355 623ZM338 500Z" glyph-name="utilde" horiz-adv-x="596" unicode="&#361;" /><glyph d="M177 0 67 500H160L240 104L459 500H557L270 0Z" glyph-name="v" horiz-adv-x="536" unicode="v" /><glyph d="M139 0 70 500H158L202 112L381 500H470L513 110L691 500H784L538 0H452L406 381L226 0ZM425 500Z" glyph-name="w" horiz-adv-x="766" unicode="w" /><glyph d="M139 0 70 500H158L202 112L381 500H470L513 110L691 500H784L538 0H452L406 381L226 0ZM425 500ZM595 730H489L388 587H472ZM425 500Z" glyph-name="wacute" horiz-adv-x="766" unicode="&#7811;" /><glyph d="M139 0 70 500H158L202 112L381 500H470L513 110L691 500H784L538 0H452L406 381L226 0ZM425 500ZM297 587 395 730H496L570 587H495L441 670L372 587ZM425 500Z" glyph-name="wcircumflex" horiz-adv-x="766" unicode="&#373;" /><glyph d="M139 0 70 500H158L202 112L381 500H470L513 110L691 500H784L538 0H452L406 381L226 0ZM425 500ZM303 658Q303 634 320 617Q337 600 361 600Q385 600 402.5 617Q420 634 420 658Q420 682 402.5 699.5Q385 717 361 717Q337 717 320 699.5Q303 682 303 658ZM470 658Q470 634 487 617Q504 600 528 600Q552 600 569.5 617Q587 634 587 658Q587 682 569.5 699.5Q552 717 528 717Q504 717 487 699.5Q470 682 470 658ZM425 500Z" glyph-name="wdieresis" horiz-adv-x="766" unicode="&#7813;" /><glyph d="M139 0 70 500H158L202 112L381 500H470L513 110L691 500H784L538 0H452L406 381L226 0ZM425 500ZM466 587 389 730H285L384 587ZM425 500Z" glyph-name="wgrave" horiz-adv-x="766" unicode="&#7809;" /><glyph d="M214 257 70 500H165L273 312L446 500H551L314 249L464 0H369L255 193L75 0H-29Z" glyph-name="x" horiz-adv-x="527" unicode="x" /><glyph d="M176 -1 67 500H160L240 104L459 500H557L146 -218H50ZM310 500Z" glyph-name="y" horiz-adv-x="536" unicode="y" /><glyph d="M176 -1 67 500H160L240 104L459 500H557L146 -218H50ZM310 500ZM480 730H374L273 587H357ZM310 500Z" glyph-name="yacute" horiz-adv-x="536" unicode="&#253;" /><glyph d="M176 -1 67 500H160L240 104L459 500H557L146 -218H50ZM310 500ZM182 587 280 730H381L455 587H380L326 670L257 587ZM310 500Z" glyph-name="ycircumflex" horiz-adv-x="536" unicode="&#375;" /><glyph d="M176 -1 67 500H160L240 104L459 500H557L146 -218H50ZM310 500ZM188 658Q188 634 205 617Q222 600 246 600Q270 600 287.5 617Q305 634 305 658Q305 682 287.5 699.5Q270 717 246 717Q222 717 205 699.5Q188 682 188 658ZM355 658Q355 634 372 617Q389 600 413 600Q437 600 454.5 617Q472 634 472 658Q472 682 454.5 699.5Q437 717 413 717Q389 717 372 699.5Q355 682 355 658ZM310 500Z" glyph-name="ydieresis" horiz-adv-x="536" unicode="&#255;" /><glyph d="M229 182H58L70 248H240L249 296L242 318H82L94 384H220L115 700H208L303 384H308L518 700H619L402 384H531L519 318H357L345 301L335 248H507L495 182H324L291 0H196Z" glyph-name="yen" horiz-adv-x="580" unicode="&#165;" /><glyph d="M176 -1 67 500H160L240 104L459 500H557L146 -218H50ZM310 500ZM351 587 274 730H170L269 587ZM310 500Z" glyph-name="ygrave" horiz-adv-x="536" unicode="&#7923;" /><glyph d="M123 80H429L415 0H-8L3 67L365 420H83L97 500H495L483 431ZM296 500Z" glyph-name="z" horiz-adv-x="498" unicode="z" /><glyph d="M123 80H429L415 0H-8L3 67L365 420H83L97 500H495L483 431ZM296 500ZM466 730H360L259 587H343ZM296 500Z" glyph-name="zacute" horiz-adv-x="498" unicode="&#378;" /><glyph d="M123 80H429L415 0H-8L3 67L365 420H83L97 500H495L483 431ZM296 500ZM355 587H254L180 730H255L309 647L378 730H453ZM296 500Z" glyph-name="zcaron" horiz-adv-x="498" unicode="&#382;" /><glyph d="M123 80H429L415 0H-8L3 67L365 420H83L97 500H495L483 431ZM296 500ZM251 658Q251 631 270 612Q289 593 316 593Q343 593 362 612Q381 631 381 658Q381 685 362 704Q343 723 316 723Q289 723 270 704Q251 685 251 658ZM296 500Z" glyph-name="zdotaccent" horiz-adv-x="498" unicode="&#380;" /><glyph d="M301 -12Q436 -12 522.5 115.5Q609 243 609 438Q609 567 549.5 639.5Q490 712 379 712Q246 712 158.5 583.5Q71 455 71 262Q71 137 132 62.5Q193 -12 301 -12ZM512 446Q512 286 454.5 179Q397 72 308 72Q239 72 203.5 118.5Q168 165 168 254Q168 414 225.5 521Q283 628 372 628Q441 628 476.5 581.5Q512 535 512 446Z" glyph-name="zero" horiz-adv-x="645" unicode="0" /><glyph d="M317 213Q317 279 282 317.5Q247 356 186 356Q113 356 66.5 294.5Q20 233 20 137Q20 72 55 33Q90 -6 152 -6Q225 -6 271 55.5Q317 117 317 213ZM244 214Q244 146 218.5 100.5Q193 55 154 55Q125 55 109.5 76Q94 97 94 136Q94 204 119.5 249.5Q145 295 183 295Q212 295 228 274Q244 253 244 214Z" glyph-name="zero.denominator" horiz-adv-x="363" unicode="&#63061;" /><glyph d="M292 73Q292 139 257 177.5Q222 216 161 216Q88 216 41.5 154.5Q-5 93 -5 -3Q-5 -68 30 -107Q65 -146 127 -146Q200 -146 246 -84.5Q292 -23 292 73ZM219 74Q219 6 193.5 -39.5Q168 -85 129 -85Q100 -85 84.5 -64Q69 -43 69 -4Q69 64 94.5 109.5Q120 155 158 155Q187 155 203 134Q219 113 219 74Z" glyph-name="zero.inferior" horiz-adv-x="363" unicode="&#8320;" /><glyph d="M379 563Q379 629 344 667.5Q309 706 248 706Q175 706 128.5 644.5Q82 583 82 487Q82 422 117 383Q152 344 214 344Q287 344 333 405.5Q379 467 379 563ZM306 564Q306 496 280.5 450.5Q255 405 216 405Q187 405 171.5 426Q156 447 156 486Q156 554 181.5 599.5Q207 645 245 645Q274 645 290 624Q306 603 306 564Z" glyph-name="zero.numerator" horiz-adv-x="363" unicode="&#63073;" /><glyph d="M403 703Q403 769 368 807.5Q333 846 272 846Q199 846 152.5 784.5Q106 723 106 627Q106 562 141 523Q176 484 238 484Q311 484 357 545.5Q403 607 403 703ZM330 704Q330 636 304.5 590.5Q279 545 240 545Q211 545 195.5 566Q180 587 180 626Q180 694 205.5 739.5Q231 785 269 785Q298 785 314 764Q330 743 330 704Z" glyph-name="zero.superior" horiz-adv-x="363" unicode="&#8304;" /><glyph d="M278 -12Q413 -12 499.5 115.5Q586 243 586 438Q586 567 526.5 639.5Q467 712 356 712Q223 712 135.5 583.5Q48 455 48 262Q48 137 109 62.5Q170 -12 278 -12ZM489 446Q489 286 431.5 179Q374 72 285 72Q216 72 180.5 118.5Q145 165 145 254Q145 414 202.5 521Q260 628 349 628Q418 628 453.5 581.5Q489 535 489 446Z" glyph-name="zero.tab" horiz-adv-x="600" unicode="&#65296;" /></font>
</defs>
</svg>
