<?xml version="1.0" standalone="no"?><!DOCTYPE svg PUBLIC "-//W3C//DTD SVG 1.1//EN" "http://www.w3.org/Graphics/SVG/1.1/DTD/svg11.dtd" ><svg version="1.1" xmlns="http://www.w3.org/2000/svg"><defs><font horiz-adv-x="0" id="font"><font-face ascent="750" bbox="-140 -230 1420 983" cap-height="700" descent="-250" font-family="Web use ONLY | Copyright (C) Emtype Foundry" font-stretch="normal" font-weight="500" units-per-em="1000" x-height="504" /><missing-glyph d="M52 351Q52 501 157.5 606.5Q263 712 413 712Q563 712 668.5 606.5Q774 501 774 351Q774 201 668 94.5Q562 -12 413 -12Q264 -12 158 94.5Q52 201 52 351ZM306 565H229L375 346L229 127H307L414 287L520 127H598L452 346L598 565H521L414 404Z" horiz-adv-x="826" /><glyph d="M198 148 143 0H19L286 700H417L684 0H551L497 148ZM348 557 236 253H460ZM351 700ZM641 0Z" glyph-name="A" horiz-adv-x="703" unicode="A" /><glyph d="M221 148 133 0H1L419 700H961V593H603V412H931V309H603V107H972V0H481V148ZM481 593 281 253H481Z" glyph-name="AE" horiz-adv-x="1025" unicode="&#198;" /><glyph d="M198 148 143 0H19L286 700H417L684 0H551L497 148ZM348 557 236 253H460ZM351 700ZM641 0ZM513 933H391L301 787H403ZM351 700Z" glyph-name="Aacute" horiz-adv-x="703" unicode="&#193;" /><glyph d="M198 148 143 0H19L286 700H417L684 0H551L497 148ZM348 557 236 253H460ZM351 700ZM641 0ZM352 856Q381 856 395.5 873Q410 890 414 933H493Q492 865 455 825Q418 785 351 785Q285 785 248 825Q211 865 210 933H291Q294 891 308.5 873.5Q323 856 352 856ZM351 700Z" glyph-name="Abreve" horiz-adv-x="703" unicode="&#258;" /><glyph d="M198 148 143 0H19L286 700H417L684 0H551L497 148ZM348 557 236 253H460ZM351 700ZM641 0ZM195 787 287 933H416L508 787H412L351 867L289 787ZM352 700Z" glyph-name="Acircumflex" horiz-adv-x="703" unicode="&#194;" /><glyph d="M198 148 143 0H19L286 700H417L684 0H551L497 148ZM348 557 236 253H460ZM351 700ZM641 0ZM198 860Q198 833 217 814Q236 795 262 795Q289 795 308.5 814Q328 833 328 860Q328 886 308.5 905.5Q289 925 262 925Q236 925 217 905.5Q198 886 198 860ZM374 860Q374 833 393 814Q412 795 439 795Q466 795 485 814Q504 833 504 860Q504 886 484.5 905.5Q465 925 439 925Q412 925 393 906Q374 887 374 860ZM351 700Z" glyph-name="Adieresis" horiz-adv-x="703" unicode="&#196;" /><glyph d="M198 148 143 0H19L286 700H417L684 0H551L497 148ZM348 557 236 253H460ZM351 700ZM641 0ZM402 787 312 933H191L301 787ZM351 700Z" glyph-name="Agrave" horiz-adv-x="703" unicode="&#192;" /><glyph d="M198 148 143 0H19L286 700H417L684 0H551L497 148ZM348 557 236 253H460ZM351 700ZM641 0ZM474 820H228V899H474ZM351 700Z" glyph-name="Amacron" horiz-adv-x="703" unicode="&#256;" /><glyph d="M198 148 143 0H19L286 700H417L684 0H620Q587 -15 568 -42.5Q549 -70 549 -101Q549 -129 565.5 -145Q582 -161 609 -161Q618 -161 625.5 -159.5Q633 -158 641 -155V-215Q627 -222 611.5 -225.5Q596 -229 575 -229Q525 -229 494 -201Q463 -173 463 -126Q463 -87 487 -52.5Q511 -18 551 0L497 148ZM348 557 236 253H460Z" glyph-name="Aogonek" horiz-adv-x="703" unicode="&#260;" /><glyph d="M198 148 143 0H19L286 700H417L684 0H551L497 148ZM348 557 236 253H460ZM351 700ZM641 0ZM462 871Q462 917 429.5 950Q397 983 351 983Q304 983 272 950Q240 917 240 871Q240 825 272 793Q304 761 351 761Q398 761 430 793Q462 825 462 871ZM304 871Q304 890 318 904.5Q332 919 351 919Q370 919 384 904.5Q398 890 398 871Q398 853 384 839Q370 825 351 825Q332 825 318 839Q304 853 304 871ZM351 700Z" glyph-name="Aring" horiz-adv-x="703" unicode="&#197;" /><glyph d="M198 148 143 0H19L286 700H417L684 0H551L497 148ZM348 557 236 253H460ZM351 700ZM641 0ZM428 802Q470 802 490 834.5Q510 867 501 920H430Q431 902 426 895Q421 888 407 888Q399 888 389 890.5Q379 893 357 901Q330 911 315.5 914.5Q301 918 288 918Q243 918 219 885Q195 852 201 798H274Q275 817 283 825.5Q291 834 307 834Q317 834 329 831Q341 828 364 819Q389 808 402.5 805Q416 802 428 802ZM352 700Z" glyph-name="Atilde" horiz-adv-x="703" unicode="&#195;" /><glyph d="M92 0V700H402Q508 700 570 653Q632 606 632 527Q632 477 604 434.5Q576 392 526 367Q584 346 617 302Q650 258 650 201Q650 113 585.5 56.5Q521 0 417 0ZM510 512Q510 550 482 573Q454 596 406 596H214V412H398Q449 412 479.5 439.5Q510 467 510 512ZM526 214Q526 257 494.5 283.5Q463 310 410 310H214V104H420Q469 104 497.5 134Q526 164 526 214Z" glyph-name="B" horiz-adv-x="703" unicode="B" /><glyph d="M387 -12Q236 -12 142.5 89.5Q49 191 49 349Q49 505 144 608.5Q239 712 388 712Q489 712 565 665Q641 618 679 532L573 475Q540 539 494.5 570Q449 601 388 601Q295 601 234 529Q173 457 173 350Q173 241 234.5 169Q296 97 390 97Q456 97 502 131.5Q548 166 582 243L689 191Q648 93 570.5 40.5Q493 -12 387 -12ZM390 700ZM386 10Z" glyph-name="C" horiz-adv-x="718" unicode="C" /><glyph d="M387 -12Q236 -12 142.5 89.5Q49 191 49 349Q49 505 144 608.5Q239 712 388 712Q489 712 565 665Q641 618 679 532L573 475Q540 539 494.5 570Q449 601 388 601Q295 601 234 529Q173 457 173 350Q173 241 234.5 169Q296 97 390 97Q456 97 502 131.5Q548 166 582 243L689 191Q648 93 570.5 40.5Q493 -12 387 -12ZM390 700ZM386 10ZM552 933H430L340 787H442ZM390 700Z" glyph-name="Cacute" horiz-adv-x="718" unicode="&#262;" /><glyph d="M387 -12Q236 -12 142.5 89.5Q49 191 49 349Q49 505 144 608.5Q239 712 388 712Q489 712 565 665Q641 618 679 532L573 475Q540 539 494.5 570Q449 601 388 601Q295 601 234 529Q173 457 173 350Q173 241 234.5 169Q296 97 390 97Q456 97 502 131.5Q548 166 582 243L689 191Q648 93 570.5 40.5Q493 -12 387 -12ZM390 700ZM386 10ZM455 787H326L234 933H330L391 853L453 933H547ZM391 700Z" glyph-name="Ccaron" horiz-adv-x="718" unicode="&#268;" /><glyph d="M315 -112 295 -86 351 -10Q215 3 132.5 102.5Q50 202 50 349Q50 505 145 608.5Q240 712 389 712Q490 712 566 665Q642 618 680 532L574 475Q541 539 495.5 570Q450 601 389 601Q296 601 235 529Q174 457 174 350Q174 241 235.5 169Q297 97 391 97Q457 97 503 131.5Q549 166 583 243L690 191Q652 99 580.5 47Q509 -5 412 -11L378 -56Q381 -55 384 -55Q387 -55 392 -55Q434 -55 457.5 -76.5Q481 -98 481 -133Q481 -176 448 -202.5Q415 -229 360 -229Q340 -229 319.5 -225Q299 -221 280 -214V-158Q300 -166 314.5 -169Q329 -172 346 -172Q373 -172 386.5 -163Q400 -154 400 -136Q400 -121 387.5 -112.5Q375 -104 354 -104Q346 -104 335.5 -106Q325 -108 315 -112Z" glyph-name="Ccedilla" horiz-adv-x="719" unicode="&#199;" /><glyph d="M387 -12Q236 -12 142.5 89.5Q49 191 49 349Q49 505 144 608.5Q239 712 388 712Q489 712 565 665Q641 618 679 532L573 475Q540 539 494.5 570Q449 601 388 601Q295 601 234 529Q173 457 173 350Q173 241 234.5 169Q296 97 390 97Q456 97 502 131.5Q548 166 582 243L689 191Q648 93 570.5 40.5Q493 -12 387 -12ZM390 700ZM386 10ZM234 787 326 933H455L547 787H451L390 867L328 787ZM391 700Z" glyph-name="Ccircumflex" horiz-adv-x="718" unicode="&#264;" /><glyph d="M316 860Q316 830 338 808.5Q360 787 390 787Q421 787 443 808.5Q465 830 465 860Q465 890 443 911Q421 932 390 932Q360 932 338 911Q316 890 316 860ZM391 700ZM387 -12Q236 -12 142.5 89.5Q49 191 49 349Q49 505 144 608.5Q239 712 388 712Q489 712 565 665Q641 618 679 532L573 475Q540 539 494.5 570Q449 601 388 601Q295 601 234 529Q173 457 173 350Q173 241 234.5 169Q296 97 390 97Q456 97 502 131.5Q548 166 582 243L689 191Q648 93 570.5 40.5Q493 -12 387 -12ZM390 700ZM386 10Z" glyph-name="Cdotaccent" horiz-adv-x="718" unicode="&#266;" /><glyph d="M92 0V700H355Q512 700 611 604Q710 508 710 361Q710 206 610.5 103Q511 0 355 0ZM586 361Q586 462 522 527Q458 592 355 592H214V108H355Q458 108 522 179Q586 250 586 361ZM387 700Z" glyph-name="D" horiz-adv-x="759" unicode="D" /><glyph d="M92 0V700H355Q512 700 611 604Q710 508 710 361Q710 206 610.5 103Q511 0 355 0ZM586 361Q586 462 522 527Q458 592 355 592H214V108H355Q458 108 522 179Q586 250 586 361ZM387 700ZM432 787H303L211 933H307L368 853L430 933H524ZM368 700Z" glyph-name="Dcaron" horiz-adv-x="759" unicode="&#270;" /><glyph d="M18 306V394H115V700H378Q535 700 634 604Q733 508 733 361Q733 206 633.5 103Q534 0 378 0H115V306ZM609 361Q609 462 545 527Q481 592 378 592H237V394H426V306H237V108H378Q481 108 545 179Q609 250 609 361Z" glyph-name="Dcroat" horiz-adv-x="782" unicode="&#272;" /><glyph d="M34 0V90L281 700H412L658 90V0ZM343 562 163 104H521Z" glyph-name="Delta" horiz-adv-x="693" unicode="&#8710;" /><glyph d="M92 0V700H572V593H214V412H542V309H214V107H583V0ZM333 700ZM542 0Z" glyph-name="E" horiz-adv-x="637" unicode="E" /><glyph d="M92 0V700H572V593H214V412H542V309H214V107H583V0ZM333 700ZM542 0ZM495 933H373L283 787H385ZM333 700Z" glyph-name="Eacute" horiz-adv-x="637" unicode="&#201;" /><glyph d="M92 0V700H572V593H214V412H542V309H214V107H583V0ZM333 700ZM542 0ZM334 856Q363 856 377.5 873Q392 890 396 933H475Q474 865 437 825Q400 785 333 785Q267 785 230 825Q193 865 192 933H273Q276 891 290.5 873.5Q305 856 334 856ZM333 700Z" glyph-name="Ebreve" horiz-adv-x="637" unicode="&#276;" /><glyph d="M92 0V700H572V593H214V412H542V309H214V107H583V0ZM333 700ZM542 0ZM398 787H269L177 933H273L334 853L396 933H490ZM334 700Z" glyph-name="Ecaron" horiz-adv-x="637" unicode="&#282;" /><glyph d="M177 787 269 933H398L490 787H394L333 867L271 787ZM334 700ZM92 0V700H572V593H214V412H542V309H214V107H583V0ZM333 700ZM542 0Z" glyph-name="Ecircumflex" horiz-adv-x="637" unicode="&#202;" /><glyph d="M92 0V700H572V593H214V412H542V309H214V107H583V0ZM333 700ZM542 0ZM180 860Q180 833 199 814Q218 795 244 795Q271 795 290.5 814Q310 833 310 860Q310 886 290.5 905.5Q271 925 244 925Q218 925 199 905.5Q180 886 180 860ZM356 860Q356 833 375 814Q394 795 421 795Q448 795 467 814Q486 833 486 860Q486 886 466.5 905.5Q447 925 421 925Q394 925 375 906Q356 887 356 860ZM333 700Z" glyph-name="Edieresis" horiz-adv-x="637" unicode="&#203;" /><glyph d="M259 860Q259 830 281 808.5Q303 787 333 787Q364 787 386 808.5Q408 830 408 860Q408 890 386 911Q364 932 333 932Q303 932 281 911Q259 890 259 860ZM334 700ZM92 0V700H572V593H214V412H542V309H214V107H583V0ZM333 700ZM542 0Z" glyph-name="Edotaccent" horiz-adv-x="637" unicode="&#278;" /><glyph d="M384 787 294 933H173L283 787ZM333 700ZM92 0V700H572V593H214V412H542V309H214V107H583V0ZM333 700ZM542 0Z" glyph-name="Egrave" horiz-adv-x="637" unicode="&#200;" /><glyph d="M92 0V700H572V593H214V412H542V309H214V107H583V0ZM333 700ZM542 0ZM456 820H210V899H456ZM333 700Z" glyph-name="Emacron" horiz-adv-x="637" unicode="&#274;" /><glyph d="M214 309V107H583V0H562Q529 -15 510 -42.5Q491 -70 491 -101Q491 -129 507.5 -145Q524 -161 551 -161Q560 -161 567.5 -159.5Q575 -158 583 -155V-215Q569 -222 553.5 -225.5Q538 -229 517 -229Q467 -229 436 -201Q405 -173 405 -126Q405 -87 429 -52.5Q453 -18 493 0H92V700H572V593H214V412H542V309Z" glyph-name="Eogonek" horiz-adv-x="637" unicode="&#280;" /><glyph d="M18 306V394H115V700H378Q535 700 634 604Q733 508 733 361Q733 206 633.5 103Q534 0 378 0H115V306ZM609 361Q609 462 545 527Q481 592 378 592H237V394H426V306H237V108H378Q481 108 545 179Q609 250 609 361Z" glyph-name="Eth" horiz-adv-x="782" unicode="&#208;" /><glyph d="M118 239H40V315H109Q108 321 108 328Q108 335 108 349Q108 361 108 367Q108 373 109 378H40V454H118Q141 575 212.5 643.5Q284 712 391 712Q479 712 544.5 665Q610 618 641 532L535 481Q508 545 474 574.5Q440 604 393 604Q338 604 299 564.5Q260 525 243 454H412V378H233Q232 373 232 367.5Q232 362 232 350Q232 335 232 328Q232 321 233 315H412V239H244Q262 169 300.5 131.5Q339 94 395 94Q444 94 478.5 125.5Q513 157 546 241L650 192Q609 87 545.5 37.5Q482 -12 391 -12Q282 -12 211.5 53.5Q141 119 118 239Z" glyph-name="Euro" horiz-adv-x="690" unicode="&#8364;" /><glyph d="M92 0V700H589V593H214V394H559V288H214V0Z" glyph-name="F" horiz-adv-x="629" unicode="F" /><glyph d="M415 261V364H699V0H595V93Q559 42 503.5 15Q448 -12 380 -12Q232 -12 141 88Q50 188 50 347Q50 506 146.5 609Q243 712 395 712Q498 712 574 669Q650 626 690 546L591 482Q555 544 507.5 573Q460 602 394 602Q300 602 237 529.5Q174 457 174 349Q174 238 234 167.5Q294 97 391 97Q475 97 530 143.5Q585 190 585 260V261ZM395 700ZM380 0Z" glyph-name="G" horiz-adv-x="762" unicode="G" /><glyph d="M415 261V364H699V0H595V93Q559 42 503.5 15Q448 -12 380 -12Q232 -12 141 88Q50 188 50 347Q50 506 146.5 609Q243 712 395 712Q498 712 574 669Q650 626 690 546L591 482Q555 544 507.5 573Q460 602 394 602Q300 602 237 529.5Q174 457 174 349Q174 238 234 167.5Q294 97 391 97Q475 97 530 143.5Q585 190 585 260V261ZM395 700ZM380 0ZM395 856Q424 856 438.5 873Q453 890 457 933H536Q535 865 498 825Q461 785 394 785Q328 785 291 825Q254 865 253 933H334Q337 891 351.5 873.5Q366 856 395 856ZM394 700Z" glyph-name="Gbreve" horiz-adv-x="762" unicode="&#286;" /><glyph d="M238 787 330 933H459L551 787H455L394 867L332 787ZM395 700ZM415 261V364H699V0H595V93Q559 42 503.5 15Q448 -12 380 -12Q232 -12 141 88Q50 188 50 347Q50 506 146.5 609Q243 712 395 712Q498 712 574 669Q650 626 690 546L591 482Q555 544 507.5 573Q460 602 394 602Q300 602 237 529.5Q174 457 174 349Q174 238 234 167.5Q294 97 391 97Q475 97 530 143.5Q585 190 585 260V261ZM395 700ZM380 0Z" glyph-name="Gcircumflex" horiz-adv-x="762" unicode="&#284;" /><glyph d="M320 860Q320 830 342 808.5Q364 787 394 787Q425 787 447 808.5Q469 830 469 860Q469 890 447 911Q425 932 394 932Q364 932 342 911Q320 890 320 860ZM395 700ZM415 261V364H699V0H595V93Q559 42 503.5 15Q448 -12 380 -12Q232 -12 141 88Q50 188 50 347Q50 506 146.5 609Q243 712 395 712Q498 712 574 669Q650 626 690 546L591 482Q555 544 507.5 573Q460 602 394 602Q300 602 237 529.5Q174 457 174 349Q174 238 234 167.5Q294 97 391 97Q475 97 530 143.5Q585 190 585 260V261ZM395 700ZM380 0Z" glyph-name="Gdotaccent" horiz-adv-x="762" unicode="&#288;" /><glyph d="M92 0V700H214V415H547V700H669V0H547V306H214V0ZM381 700Z" glyph-name="H" horiz-adv-x="761" unicode="H" /><glyph d="M29 510V597H102V700H224V597H557V700H679V597H749V510H679V0H557V306H224V0H102V510ZM224 510V415H557V510Z" glyph-name="Hbar" horiz-adv-x="780" unicode="&#294;" /><glyph d="M92 0V700H214V415H547V700H669V0H547V306H214V0ZM381 700ZM224 787 316 933H445L537 787H441L380 867L318 787ZM381 700Z" glyph-name="Hcircumflex" horiz-adv-x="761" unicode="&#292;" /><glyph d="M92 0V700H214V0ZM153 700ZM172 0Z" glyph-name="I" horiz-adv-x="307" unicode="I" /><glyph d="M49 0V105H169V595H49V700H411V595H291V105H411V0ZM230 700ZM231 0Z" glyph-name="I.alt" horiz-adv-x="459" /><glyph d="M92 0V700H214V0ZM153 700ZM172 0ZM788 220V700H666V220Q666 156 641 125.5Q616 95 564 95Q515 95 484 125.5Q453 156 439 219L327 187Q343 92 406 40Q469 -12 566 -12Q672 -12 730 49Q788 110 788 220ZM726 700Z" glyph-name="IJ" horiz-adv-x="873" unicode="&#306;" /><glyph d="M49 0V105H169V595H49V700H411V595H291V105H411V0ZM630 594V700H946V220Q946 110 888 49Q830 -12 724 -12Q627 -12 564 40Q501 92 485 187L597 219Q611 156 642 125.5Q673 95 722 95Q774 95 799 125.5Q824 156 824 220V594Z" glyph-name="IJ.alt" horiz-adv-x="1032" /><glyph d="M92 0V700H214V0ZM153 700ZM172 0ZM315 933H193L103 787H205ZM153 700Z" glyph-name="Iacute" horiz-adv-x="307" unicode="&#205;" /><glyph d="M49 0V105H169V595H49V700H411V595H291V105H411V0ZM230 700ZM231 0ZM396 933H274L184 787H286ZM234 700Z" glyph-name="Iacute.alt" horiz-adv-x="459" /><glyph d="M92 0V700H214V0ZM153 700ZM172 0ZM-3 787 89 933H218L310 787H214L153 867L91 787ZM154 700Z" glyph-name="Icircumflex" horiz-adv-x="307" unicode="&#206;" /><glyph d="M49 0V105H169V595H49V700H411V595H291V105H411V0ZM230 700ZM231 0ZM73 787 165 933H294L386 787H290L229 867L167 787ZM230 700Z" glyph-name="Icircumflex.alt" horiz-adv-x="459" /><glyph d="M92 0V700H214V0ZM153 700ZM172 0ZM0 860Q0 833 19 814Q38 795 64 795Q91 795 110.5 814Q130 833 130 860Q130 886 110.5 905.5Q91 925 64 925Q38 925 19 905.5Q0 886 0 860ZM176 860Q176 833 195 814Q214 795 241 795Q268 795 287 814Q306 833 306 860Q306 886 286.5 905.5Q267 925 241 925Q214 925 195 906Q176 887 176 860ZM153 700Z" glyph-name="Idieresis" horiz-adv-x="307" unicode="&#207;" /><glyph d="M49 0V105H169V595H49V700H411V595H291V105H411V0ZM230 700ZM231 0ZM77 860Q77 833 96 814Q115 795 141 795Q168 795 187.5 814Q207 833 207 860Q207 886 187.5 905.5Q168 925 141 925Q115 925 96 905.5Q77 886 77 860ZM253 860Q253 833 272 814Q291 795 318 795Q345 795 364 814Q383 833 383 860Q383 886 363.5 905.5Q344 925 318 925Q291 925 272 906Q253 887 253 860ZM230 700Z" glyph-name="Idieresis.alt" horiz-adv-x="459" /><glyph d="M92 0V700H214V0ZM153 700ZM172 0ZM79 860Q79 830 101 808.5Q123 787 153 787Q184 787 206 808.5Q228 830 228 860Q228 890 206 911Q184 932 153 932Q123 932 101 911Q79 890 79 860ZM154 700Z" glyph-name="Idotaccent" horiz-adv-x="307" unicode="&#304;" /><glyph d="M156 860Q156 830 178 808.5Q200 787 230 787Q261 787 283 808.5Q305 830 305 860Q305 890 283 911Q261 932 230 932Q200 932 178 911Q156 890 156 860ZM231 700ZM49 0V105H169V595H49V700H411V595H291V105H411V0ZM230 700ZM231 0Z" glyph-name="Idotaccent.alt" horiz-adv-x="459" /><glyph d="M92 0V700H214V0ZM153 700ZM172 0ZM204 787 114 933H-7L103 787ZM153 700Z" glyph-name="Igrave" horiz-adv-x="307" unicode="&#204;" /><glyph d="M278 787 188 933H67L177 787ZM227 700ZM49 0V105H169V595H49V700H411V595H291V105H411V0ZM230 700ZM231 0Z" glyph-name="Igrave.alt" horiz-adv-x="459" /><glyph d="M92 0V700H214V0ZM153 700ZM172 0ZM276 820H30V899H276ZM153 700Z" glyph-name="Imacron" horiz-adv-x="307" unicode="&#298;" /><glyph d="M49 0V105H169V595H49V700H411V595H291V105H411V0ZM230 700ZM231 0ZM352 820H106V899H352ZM229 700Z" glyph-name="Imacron.alt" horiz-adv-x="459" /><glyph d="M92 700H214V0H161Q128 -15 109 -42.5Q90 -70 90 -101Q90 -129 106.5 -145Q123 -161 149 -161Q158 -161 166 -159.5Q174 -158 181 -155V-215Q168 -222 152.5 -225.5Q137 -229 116 -229Q66 -229 35 -201Q4 -173 4 -126Q4 -87 28 -52.5Q52 -18 92 0Z" glyph-name="Iogonek" horiz-adv-x="307" unicode="&#302;" /><glyph d="M49 0V105H169V595H49V700H411V595H291V105H411V0H391Q357 -15 338 -42.5Q319 -70 319 -101Q319 -129 335.5 -145Q352 -161 379 -161Q388 -161 395.5 -159.5Q403 -158 411 -155V-215Q397 -222 381.5 -225.5Q366 -229 345 -229Q295 -229 264.5 -201Q234 -173 234 -126Q234 -87 257.5 -52.5Q281 -18 322 0Z" glyph-name="Iogonek.alt" horiz-adv-x="459" /><glyph d="M92 0V700H214V0ZM153 700ZM172 0ZM229 802Q271 802 291 834.5Q311 867 302 920H231Q232 902 227 895Q222 888 208 888Q200 888 190 890.5Q180 893 158 901Q131 911 116.5 914.5Q102 918 89 918Q44 918 20 885Q-4 852 2 798H75Q76 817 84 825.5Q92 834 108 834Q118 834 130 831Q142 828 165 819Q190 808 203.5 805Q217 802 229 802ZM153 700Z" glyph-name="Itilde" horiz-adv-x="307" unicode="&#296;" /><glyph d="M49 0V105H169V595H49V700H411V595H291V105H411V0ZM230 700ZM231 0ZM307 802Q349 802 369 834.5Q389 867 380 920H309Q310 902 305 895Q300 888 286 888Q278 888 268 890.5Q258 893 236 901Q209 911 194.5 914.5Q180 918 167 918Q122 918 98 885Q74 852 80 798H153Q154 817 162 825.5Q170 834 186 834Q196 834 208 831Q220 828 243 819Q268 808 281.5 805Q295 802 307 802ZM231 700Z" glyph-name="Itilde.alt" horiz-adv-x="459" /><glyph d="M481 220V700H359V220Q359 156 334 125.5Q309 95 257 95Q208 95 177 125.5Q146 156 132 219L20 187Q36 92 99 40Q162 -12 259 -12Q365 -12 423 49Q481 110 481 220ZM419 700Z" glyph-name="J" horiz-adv-x="566" unicode="J" /><glyph d="M171 594V700H487V220Q487 110 429 49Q371 -12 265 -12Q168 -12 105 40Q42 92 26 187L138 219Q152 156 183 125.5Q214 95 263 95Q315 95 340 125.5Q365 156 365 220V594ZM332 700Z" glyph-name="J.alt" horiz-adv-x="573" /><glyph d="M481 220V700H359V220Q359 156 334 125.5Q309 95 257 95Q208 95 177 125.5Q146 156 132 219L20 187Q36 92 99 40Q162 -12 259 -12Q365 -12 423 49Q481 110 481 220ZM419 700ZM263 787 355 933H484L576 787H480L419 867L357 787ZM420 700Z" glyph-name="Jcircumflex" horiz-adv-x="566" unicode="&#308;" /><glyph d="M171 787 263 933H392L484 787H388L327 867L265 787ZM171 594V700H487V220Q487 110 429 49Q371 -12 265 -12Q168 -12 105 40Q42 92 26 187L138 219Q152 156 183 125.5Q214 95 263 95Q315 95 340 125.5Q365 156 365 220V594Z" glyph-name="Jcircumflex.alt" horiz-adv-x="573" /><glyph d="M391 398 664 0H518L307 308L214 204V0H92V700H214V358L512 700H655ZM365 0Z" glyph-name="K" horiz-adv-x="672" unicode="K" /><glyph d="M92 0V700H214V108H543V0ZM153 700ZM274 700ZM350 350ZM318 0Z" glyph-name="L" horiz-adv-x="567" unicode="L" /><glyph d="M314 933H192L102 787H204ZM152 700ZM92 0V700H214V108H543V0ZM153 700ZM274 700ZM350 350ZM318 0Z" glyph-name="Lacute" horiz-adv-x="567" unicode="&#313;" /><glyph d="M419 730H311L280 560H361ZM274 700ZM92 0V700H214V108H543V0ZM153 700ZM274 700ZM350 350ZM318 0Z" glyph-name="Lcaron" horiz-adv-x="568" unicode="&#317;" /><glyph d="M92 0V700H214V108H543V0ZM153 700ZM274 700ZM350 350ZM318 0ZM359 359Q359 327 381.5 305Q404 283 437 283Q470 283 492.5 305Q515 327 515 359Q515 391 492.5 413Q470 435 437 435Q404 435 381.5 413Q359 391 359 359ZM359 360Z" glyph-name="Ldot" horiz-adv-x="576" unicode="&#319;" /><glyph d="M92 0V700H214V108H543V0ZM153 700ZM274 700ZM350 350ZM318 0ZM659 0V700H781V108H1110V0ZM720 700ZM841 700ZM917 350ZM885 0ZM359 359Q359 327 381.5 305Q404 283 437 283Q470 283 492.5 305Q515 327 515 359Q515 391 492.5 413Q470 435 437 435Q404 435 381.5 413Q359 391 359 359ZM359 360Z" glyph-name="Lgeminada" horiz-adv-x="1135" /><glyph d="M74 241 29 318 127 376V700H249V448L344 504L388 426L249 344V108H578V0H127V272Z" glyph-name="Lslash" horiz-adv-x="603" unicode="&#321;" /><glyph d="M92 0V700H252L458 171L663 700H824V0H709V532L499 -3H412L203 527V0Z" glyph-name="M" horiz-adv-x="916" unicode="M" /><glyph d="M92 0V700H216L554 209V700H669V0H565L208 521V0ZM386 700ZM385 0Z" glyph-name="N" horiz-adv-x="761" unicode="N" /><glyph d="M548 933H426L336 787H438ZM386 700ZM92 0V700H216L554 209V700H669V0H565L208 521V0ZM386 700ZM385 0Z" glyph-name="Nacute" horiz-adv-x="761" unicode="&#323;" /><glyph d="M92 0V700H216L554 209V700H669V0H565L208 521V0ZM386 700ZM385 0ZM451 787H322L230 933H326L387 853L449 933H543ZM387 700Z" glyph-name="Ncaron" horiz-adv-x="761" unicode="&#327;" /><glyph d="M463 802Q505 802 525 834.5Q545 867 536 920H465Q466 902 461 895Q456 888 442 888Q434 888 424 890.5Q414 893 392 901Q365 911 350.5 914.5Q336 918 323 918Q278 918 254 885Q230 852 236 798H309Q310 817 318 825.5Q326 834 342 834Q352 834 364 831Q376 828 399 819Q424 808 437.5 805Q451 802 463 802ZM387 700ZM92 0V700H216L554 209V700H669V0H565L208 521V0ZM386 700ZM385 0Z" glyph-name="Ntilde" horiz-adv-x="761" unicode="&#209;" /><glyph d="M49 350Q49 193 146.5 90.5Q244 -12 397 -12Q550 -12 647.5 90.5Q745 193 745 350Q745 506 647.5 609Q550 712 397 712Q244 712 146.5 609Q49 506 49 350ZM621 350Q621 242 557 169Q493 96 397 96Q300 96 236.5 169Q173 242 173 350Q173 457 237 530.5Q301 604 397 604Q493 604 557 530.5Q621 457 621 350ZM397 700Z" glyph-name="O" horiz-adv-x="794" unicode="O" /><glyph d="M380 -12Q234 -12 141.5 90.5Q49 193 49 350Q49 506 142 609Q235 712 380 712Q455 712 516 686Q577 660 621 610V700H1101V593H743V412H1071V309H743V107H1112V0H621V91Q577 40 516 14Q455 -12 380 -12ZM174 350Q174 242 237.5 169Q301 96 397 96Q494 96 557.5 168.5Q621 241 621 350Q621 459 557.5 531.5Q494 604 397 604Q301 604 237.5 531Q174 458 174 350Z" glyph-name="OE" horiz-adv-x="1165" unicode="&#338;" /><glyph d="M559 933H437L347 787H449ZM397 700ZM49 350Q49 193 146.5 90.5Q244 -12 397 -12Q550 -12 647.5 90.5Q745 193 745 350Q745 506 647.5 609Q550 712 397 712Q244 712 146.5 609Q49 506 49 350ZM621 350Q621 242 557 169Q493 96 397 96Q300 96 236.5 169Q173 242 173 350Q173 457 237 530.5Q301 604 397 604Q493 604 557 530.5Q621 457 621 350ZM397 700Z" glyph-name="Oacute" horiz-adv-x="794" unicode="&#211;" /><glyph d="M49 350Q49 193 146.5 90.5Q244 -12 397 -12Q550 -12 647.5 90.5Q745 193 745 350Q745 506 647.5 609Q550 712 397 712Q244 712 146.5 609Q49 506 49 350ZM621 350Q621 242 557 169Q493 96 397 96Q300 96 236.5 169Q173 242 173 350Q173 457 237 530.5Q301 604 397 604Q493 604 557 530.5Q621 457 621 350ZM397 700ZM398 856Q427 856 441.5 873Q456 890 460 933H539Q538 865 501 825Q464 785 397 785Q331 785 294 825Q257 865 256 933H337Q340 891 354.5 873.5Q369 856 398 856ZM397 700Z" glyph-name="Obreve" horiz-adv-x="794" unicode="&#334;" /><glyph d="M241 787 333 933H462L554 787H458L397 867L335 787ZM398 700ZM49 350Q49 193 146.5 90.5Q244 -12 397 -12Q550 -12 647.5 90.5Q745 193 745 350Q745 506 647.5 609Q550 712 397 712Q244 712 146.5 609Q49 506 49 350ZM621 350Q621 242 557 169Q493 96 397 96Q300 96 236.5 169Q173 242 173 350Q173 457 237 530.5Q301 604 397 604Q493 604 557 530.5Q621 457 621 350ZM397 700Z" glyph-name="Ocircumflex" horiz-adv-x="794" unicode="&#212;" /><glyph d="M49 350Q49 193 146.5 90.5Q244 -12 397 -12Q550 -12 647.5 90.5Q745 193 745 350Q745 506 647.5 609Q550 712 397 712Q244 712 146.5 609Q49 506 49 350ZM621 350Q621 242 557 169Q493 96 397 96Q300 96 236.5 169Q173 242 173 350Q173 457 237 530.5Q301 604 397 604Q493 604 557 530.5Q621 457 621 350ZM397 700ZM244 860Q244 833 263 814Q282 795 308 795Q335 795 354.5 814Q374 833 374 860Q374 886 354.5 905.5Q335 925 308 925Q282 925 263 905.5Q244 886 244 860ZM420 860Q420 833 439 814Q458 795 485 795Q512 795 531 814Q550 833 550 860Q550 886 530.5 905.5Q511 925 485 925Q458 925 439 906Q420 887 420 860ZM397 700Z" glyph-name="Odieresis" horiz-adv-x="794" unicode="&#214;" /><glyph d="M448 787 358 933H237L347 787ZM397 700ZM49 350Q49 193 146.5 90.5Q244 -12 397 -12Q550 -12 647.5 90.5Q745 193 745 350Q745 506 647.5 609Q550 712 397 712Q244 712 146.5 609Q49 506 49 350ZM621 350Q621 242 557 169Q493 96 397 96Q300 96 236.5 169Q173 242 173 350Q173 457 237 530.5Q301 604 397 604Q493 604 557 530.5Q621 457 621 350ZM397 700Z" glyph-name="Ograve" horiz-adv-x="794" unicode="&#210;" /><glyph d="M466 933H354L269 787H360ZM638 933H520L405 787H501ZM398 700ZM49 350Q49 193 146.5 90.5Q244 -12 397 -12Q550 -12 647.5 90.5Q745 193 745 350Q745 506 647.5 609Q550 712 397 712Q244 712 146.5 609Q49 506 49 350ZM621 350Q621 242 557 169Q493 96 397 96Q300 96 236.5 169Q173 242 173 350Q173 457 237 530.5Q301 604 397 604Q493 604 557 530.5Q621 457 621 350ZM397 700Z" glyph-name="Ohungarumlaut" horiz-adv-x="794" unicode="&#336;" /><glyph d="M49 350Q49 193 146.5 90.5Q244 -12 397 -12Q550 -12 647.5 90.5Q745 193 745 350Q745 506 647.5 609Q550 712 397 712Q244 712 146.5 609Q49 506 49 350ZM621 350Q621 242 557 169Q493 96 397 96Q300 96 236.5 169Q173 242 173 350Q173 457 237 530.5Q301 604 397 604Q493 604 557 530.5Q621 457 621 350ZM397 700ZM520 820H274V899H520ZM397 700Z" glyph-name="Omacron" horiz-adv-x="794" unicode="&#332;" /><glyph d="M62 0V101H201Q134 149 98 223Q62 297 62 388Q62 530 152.5 621Q243 712 391 712Q540 712 630.5 621.5Q721 531 721 388Q721 297 685 223Q649 149 582 101H723V0H457V117Q524 155 561 224.5Q598 294 598 384Q598 481 541 542.5Q484 604 391 604Q299 604 242 542.5Q185 481 185 384Q185 294 221.5 225Q258 156 325 117V0Z" glyph-name="Omega" horiz-adv-x="784" unicode="&#8486;" /><glyph d="M234 25 154 -92H50L162 75Q108 125 78.5 196.5Q49 268 49 350Q49 506 146.5 609Q244 712 397 712Q443 712 486 701.5Q529 691 567 671L642 782H745L636 621Q688 571 716.5 500.5Q745 430 745 350Q745 193 647.5 90.5Q550 -12 397 -12Q352 -12 311 -2.5Q270 7 234 25ZM397 604Q301 604 237 530.5Q173 457 173 350Q173 299 189 253Q205 207 234 172L507 573Q482 588 454.5 596Q427 604 397 604ZM397 96Q493 96 557 169Q621 242 621 350Q621 399 606 443.5Q591 488 564 522L293 123Q317 110 343.5 103Q370 96 397 96Z" glyph-name="Oslash" horiz-adv-x="794" unicode="&#216;" /><glyph d="M49 350Q49 193 146.5 90.5Q244 -12 397 -12Q550 -12 647.5 90.5Q745 193 745 350Q745 506 647.5 609Q550 712 397 712Q244 712 146.5 609Q49 506 49 350ZM621 350Q621 242 557 169Q493 96 397 96Q300 96 236.5 169Q173 242 173 350Q173 457 237 530.5Q301 604 397 604Q493 604 557 530.5Q621 457 621 350ZM397 700ZM474 802Q516 802 536 834.5Q556 867 547 920H476Q477 902 472 895Q467 888 453 888Q445 888 435 890.5Q425 893 403 901Q376 911 361.5 914.5Q347 918 334 918Q289 918 265 885Q241 852 247 798H320Q321 817 329 825.5Q337 834 353 834Q363 834 375 831Q387 828 410 819Q435 808 448.5 805Q462 802 474 802ZM398 700Z" glyph-name="Otilde" horiz-adv-x="794" unicode="&#213;" /><glyph d="M92 0V700H385Q494 700 565 634Q636 568 636 470Q636 366 564 295Q492 224 384 224H214V0ZM512 469Q512 523 473 559Q434 595 374 595H214V329H374Q434 329 473 368.5Q512 408 512 469Z" glyph-name="P" horiz-adv-x="668" unicode="P" /><glyph d="M397 -12Q244 -12 146.5 90.5Q49 193 49 350Q49 506 146.5 609Q244 712 397 712Q550 712 647.5 609Q745 506 745 350Q745 275 720.5 208.5Q696 142 650 93L740 -9L656 -83L559 25Q524 7 483 -2.5Q442 -12 397 -12ZM173 350Q173 242 236.5 169Q300 96 397 96Q419 96 440 100.5Q461 105 480 113L389 215L475 289L569 184Q594 217 607.5 260Q621 303 621 350Q621 457 557 530.5Q493 604 397 604Q301 604 237 530.5Q173 457 173 350Z" glyph-name="Q" horiz-adv-x="797" unicode="Q" /><glyph d="M92 0V700H401Q510 700 581.5 638Q653 576 653 485Q653 410 611 350Q569 290 497 264L652 0H510L366 247H214V0ZM529 483Q529 532 490 564Q451 596 389 596H214V350H389Q451 350 490 387.5Q529 425 529 483ZM350 700ZM362 0Z" glyph-name="R" horiz-adv-x="705" unicode="R" /><glyph d="M92 0V700H401Q510 700 581.5 638Q653 576 653 485Q653 410 611 350Q569 290 497 264L652 0H510L366 247H214V0ZM529 483Q529 532 490 564Q451 596 389 596H214V350H389Q451 350 490 387.5Q529 425 529 483ZM350 700ZM362 0ZM511 933H389L299 787H401ZM349 700Z" glyph-name="Racute" horiz-adv-x="705" unicode="&#340;" /><glyph d="M92 0V700H401Q510 700 581.5 638Q653 576 653 485Q653 410 611 350Q569 290 497 264L652 0H510L366 247H214V0ZM529 483Q529 532 490 564Q451 596 389 596H214V350H389Q451 350 490 387.5Q529 425 529 483ZM350 700ZM362 0ZM414 787H285L193 933H289L350 853L412 933H506ZM350 700Z" glyph-name="Rcaron" horiz-adv-x="705" unicode="&#344;" /><glyph d="M581 208Q581 112 512.5 50Q444 -12 330 -12Q242 -12 164.5 18.5Q87 49 33 103L107 195Q151 147 208.5 120Q266 93 327 93Q389 93 423.5 121.5Q458 150 458 198Q458 234 434.5 254.5Q411 275 342 293L250 317Q151 343 107.5 390.5Q64 438 64 513Q64 598 131 655Q198 712 309 712Q385 712 453 684.5Q521 657 572 608L498 517Q453 561 404.5 583Q356 605 306 605Q248 605 216.5 581.5Q185 558 185 520Q185 484 206.5 463.5Q228 443 289 427L395 399Q492 373 536.5 327Q581 281 581 208ZM311 700ZM325 10ZM325 0Z" glyph-name="S" horiz-adv-x="629" unicode="S" /><glyph d="M581 208Q581 112 512.5 50Q444 -12 330 -12Q242 -12 164.5 18.5Q87 49 33 103L107 195Q151 147 208.5 120Q266 93 327 93Q389 93 423.5 121.5Q458 150 458 198Q458 234 434.5 254.5Q411 275 342 293L250 317Q151 343 107.5 390.5Q64 438 64 513Q64 598 131 655Q198 712 309 712Q385 712 453 684.5Q521 657 572 608L498 517Q453 561 404.5 583Q356 605 306 605Q248 605 216.5 581.5Q185 558 185 520Q185 484 206.5 463.5Q228 443 289 427L395 399Q492 373 536.5 327Q581 281 581 208ZM311 700ZM325 10ZM325 0ZM473 933H351L261 787H363ZM311 700Z" glyph-name="Sacute" horiz-adv-x="629" unicode="&#346;" /><glyph d="M581 208Q581 112 512.5 50Q444 -12 330 -12Q242 -12 164.5 18.5Q87 49 33 103L107 195Q151 147 208.5 120Q266 93 327 93Q389 93 423.5 121.5Q458 150 458 198Q458 234 434.5 254.5Q411 275 342 293L250 317Q151 343 107.5 390.5Q64 438 64 513Q64 598 131 655Q198 712 309 712Q385 712 453 684.5Q521 657 572 608L498 517Q453 561 404.5 583Q356 605 306 605Q248 605 216.5 581.5Q185 558 185 520Q185 484 206.5 463.5Q228 443 289 427L395 399Q492 373 536.5 327Q581 281 581 208ZM311 700ZM325 10ZM325 0ZM379 787H250L158 933H254L315 853L377 933H471ZM315 700Z" glyph-name="Scaron" horiz-adv-x="629" unicode="&#352;" /><glyph d="M257 -112 237 -86 292 -11Q216 -5 148 25.5Q80 56 33 103L107 195Q151 147 208.5 120Q266 93 327 93Q389 93 423.5 121.5Q458 150 458 198Q458 233 435 253.5Q412 274 342 293L250 317Q152 342 108 390Q64 438 64 513Q64 598 131 655Q198 712 309 712Q385 712 453 684.5Q521 657 572 608L498 517Q453 561 404.5 583Q356 605 306 605Q248 605 216.5 581.5Q185 558 185 520Q185 484 207 463.5Q229 443 289 427L395 399Q493 373 537 327Q581 281 581 208Q581 118 519 57Q457 -4 354 -11L320 -56Q323 -55 326 -55Q329 -55 334 -55Q376 -55 399.5 -76.5Q423 -98 423 -133Q423 -176 390 -202.5Q357 -229 302 -229Q282 -229 261.5 -225Q241 -221 222 -214V-158Q242 -166 256.5 -169Q271 -172 288 -172Q315 -172 328.5 -163Q342 -154 342 -136Q342 -121 329.5 -112.5Q317 -104 296 -104Q288 -104 277.5 -106Q267 -108 257 -112Z" glyph-name="Scedilla" horiz-adv-x="629" unicode="&#350;" /><glyph d="M581 208Q581 112 512.5 50Q444 -12 330 -12Q242 -12 164.5 18.5Q87 49 33 103L107 195Q151 147 208.5 120Q266 93 327 93Q389 93 423.5 121.5Q458 150 458 198Q458 234 434.5 254.5Q411 275 342 293L250 317Q151 343 107.5 390.5Q64 438 64 513Q64 598 131 655Q198 712 309 712Q385 712 453 684.5Q521 657 572 608L498 517Q453 561 404.5 583Q356 605 306 605Q248 605 216.5 581.5Q185 558 185 520Q185 484 206.5 463.5Q228 443 289 427L395 399Q492 373 536.5 327Q581 281 581 208ZM311 700ZM325 10ZM325 0ZM158 787 250 933H379L471 787H375L314 867L252 787ZM315 700Z" glyph-name="Scircumflex" horiz-adv-x="629" unicode="&#348;" /><glyph d="M23 592V700H582V592H364V0H242V592ZM302 700ZM302 10ZM302 0Z" glyph-name="T" horiz-adv-x="605" unicode="T" /><glyph d="M81 299V386H265V592H46V700H605V592H387V386H570V299H387V0H265V299Z" glyph-name="Tbar" horiz-adv-x="651" unicode="&#358;" /><glyph d="M23 592V700H582V592H364V0H242V592ZM302 700ZM302 10ZM302 0ZM367 787H238L146 933H242L303 853L365 933H459ZM303 700Z" glyph-name="Tcaron" horiz-adv-x="605" unicode="&#356;" /><glyph d="M92 0V700H214V588H385Q494 588 565 522.5Q636 457 636 359Q636 255 564 183.5Q492 112 384 112H214V0ZM512 358Q512 412 473 447.5Q434 483 374 483H214V218H374Q435 218 473.5 257.5Q512 297 512 358Z" glyph-name="Thorn" horiz-adv-x="679" unicode="&#222;" /><glyph d="M539 700H660V263Q660 138 580.5 63Q501 -12 373 -12Q244 -12 164 63Q84 138 84 263V700H206V267Q206 187 251.5 141.5Q297 96 373 96Q449 96 494 141.5Q539 187 539 267ZM372 700ZM441 0Z" glyph-name="U" horiz-adv-x="744" unicode="U" /><glyph d="M539 700H660V263Q660 138 580.5 63Q501 -12 373 -12Q244 -12 164 63Q84 138 84 263V700H206V267Q206 187 251.5 141.5Q297 96 373 96Q449 96 494 141.5Q539 187 539 267ZM372 700ZM441 0ZM534 933H412L322 787H424ZM372 700Z" glyph-name="Uacute" horiz-adv-x="744" unicode="&#218;" /><glyph d="M539 700H660V263Q660 138 580.5 63Q501 -12 373 -12Q244 -12 164 63Q84 138 84 263V700H206V267Q206 187 251.5 141.5Q297 96 373 96Q449 96 494 141.5Q539 187 539 267ZM372 700ZM441 0ZM373 856Q402 856 416.5 873Q431 890 435 933H514Q513 865 476 825Q439 785 372 785Q306 785 269 825Q232 865 231 933H312Q315 891 329.5 873.5Q344 856 373 856ZM372 700Z" glyph-name="Ubreve" horiz-adv-x="744" unicode="&#364;" /><glyph d="M216 787 308 933H437L529 787H433L372 867L310 787ZM373 700ZM539 700H660V263Q660 138 580.5 63Q501 -12 373 -12Q244 -12 164 63Q84 138 84 263V700H206V267Q206 187 251.5 141.5Q297 96 373 96Q449 96 494 141.5Q539 187 539 267ZM372 700ZM441 0Z" glyph-name="Ucircumflex" horiz-adv-x="744" unicode="&#219;" /><glyph d="M539 700H660V263Q660 138 580.5 63Q501 -12 373 -12Q244 -12 164 63Q84 138 84 263V700H206V267Q206 187 251.5 141.5Q297 96 373 96Q449 96 494 141.5Q539 187 539 267ZM372 700ZM441 0ZM219 860Q219 833 238 814Q257 795 283 795Q310 795 329.5 814Q349 833 349 860Q349 886 329.5 905.5Q310 925 283 925Q257 925 238 905.5Q219 886 219 860ZM395 860Q395 833 414 814Q433 795 460 795Q487 795 506 814Q525 833 525 860Q525 886 505.5 905.5Q486 925 460 925Q433 925 414 906Q395 887 395 860ZM372 700Z" glyph-name="Udieresis" horiz-adv-x="744" unicode="&#220;" /><glyph d="M423 787 333 933H212L322 787ZM372 700ZM539 700H660V263Q660 138 580.5 63Q501 -12 373 -12Q244 -12 164 63Q84 138 84 263V700H206V267Q206 187 251.5 141.5Q297 96 373 96Q449 96 494 141.5Q539 187 539 267ZM372 700ZM441 0Z" glyph-name="Ugrave" horiz-adv-x="744" unicode="&#217;" /><glyph d="M441 933H329L244 787H335ZM613 933H495L380 787H476ZM373 700ZM539 700H660V263Q660 138 580.5 63Q501 -12 373 -12Q244 -12 164 63Q84 138 84 263V700H206V267Q206 187 251.5 141.5Q297 96 373 96Q449 96 494 141.5Q539 187 539 267ZM372 700ZM441 0Z" glyph-name="Uhungarumlaut" horiz-adv-x="744" unicode="&#368;" /><glyph d="M539 700H660V263Q660 138 580.5 63Q501 -12 373 -12Q244 -12 164 63Q84 138 84 263V700H206V267Q206 187 251.5 141.5Q297 96 373 96Q449 96 494 141.5Q539 187 539 267ZM372 700ZM441 0ZM495 820H249V899H495ZM372 700Z" glyph-name="Umacron" horiz-adv-x="744" unicode="&#362;" /><glyph d="M539 700H660V263Q660 193 637 141Q614 89 561 46Q545 33 516 13.5Q487 -6 476 -15Q449 -35 437.5 -55.5Q426 -76 426 -100Q426 -129 444.5 -145Q463 -161 495 -161Q505 -161 513.5 -159.5Q522 -158 530 -155V-215Q517 -222 501 -225.5Q485 -229 464 -229Q409 -229 375 -199.5Q341 -170 341 -121Q341 -92 356 -64.5Q371 -37 400 -11Q395 -12 389.5 -12Q384 -12 373 -12Q244 -12 164 63Q84 138 84 263V700H206V267Q206 187 251.5 141.5Q297 96 373 96Q449 96 494 141.5Q539 187 539 267Z" glyph-name="Uogonek" horiz-adv-x="744" unicode="&#370;" /><glyph d="M483 871Q483 917 450.5 950Q418 983 372 983Q325 983 293 950Q261 917 261 871Q261 825 293 793Q325 761 372 761Q419 761 451 793Q483 825 483 871ZM325 871Q325 890 339 904.5Q353 919 372 919Q391 919 405 904.5Q419 890 419 871Q419 853 405 839Q391 825 372 825Q353 825 339 839Q325 853 325 871ZM372 700ZM539 700H660V263Q660 138 580.5 63Q501 -12 373 -12Q244 -12 164 63Q84 138 84 263V700H206V267Q206 187 251.5 141.5Q297 96 373 96Q449 96 494 141.5Q539 187 539 267ZM372 700ZM441 0Z" glyph-name="Uring" horiz-adv-x="744" unicode="&#366;" /><glyph d="M539 700H660V263Q660 138 580.5 63Q501 -12 373 -12Q244 -12 164 63Q84 138 84 263V700H206V267Q206 187 251.5 141.5Q297 96 373 96Q449 96 494 141.5Q539 187 539 267ZM372 700ZM441 0ZM449 802Q491 802 511 834.5Q531 867 522 920H451Q452 902 447 895Q442 888 428 888Q420 888 410 890.5Q400 893 378 901Q351 911 336.5 914.5Q322 918 309 918Q264 918 240 885Q216 852 222 798H295Q296 817 304 825.5Q312 834 328 834Q338 834 350 831Q362 828 385 819Q410 808 423.5 805Q437 802 449 802ZM373 700Z" glyph-name="Utilde" horiz-adv-x="744" unicode="&#360;" /><glyph d="M281 0 21 700H153L345 156L539 700H666L405 0Z" glyph-name="V" horiz-adv-x="686" unicode="V" /><glyph d="M231 0 25 700H149L294 165L438 700H559L704 168L846 700H969L763 0H645L497 516L348 0ZM498 700Z" glyph-name="W" horiz-adv-x="994" unicode="W" /><glyph d="M660 933H538L448 787H550ZM498 700ZM231 0 25 700H149L294 165L438 700H559L704 168L846 700H969L763 0H645L497 516L348 0ZM498 700Z" glyph-name="Wacute" horiz-adv-x="994" unicode="&#7810;" /><glyph d="M342 787 434 933H563L655 787H559L498 867L436 787ZM499 700ZM231 0 25 700H149L294 165L438 700H559L704 168L846 700H969L763 0H645L497 516L348 0ZM498 700Z" glyph-name="Wcircumflex" horiz-adv-x="994" unicode="&#372;" /><glyph d="M231 0 25 700H149L294 165L438 700H559L704 168L846 700H969L763 0H645L497 516L348 0ZM498 700ZM345 860Q345 833 364 814Q383 795 409 795Q436 795 455.5 814Q475 833 475 860Q475 886 455.5 905.5Q436 925 409 925Q383 925 364 905.5Q345 886 345 860ZM521 860Q521 833 540 814Q559 795 586 795Q613 795 632 814Q651 833 651 860Q651 886 631.5 905.5Q612 925 586 925Q559 925 540 906Q521 887 521 860ZM498 700Z" glyph-name="Wdieresis" horiz-adv-x="994" unicode="&#7812;" /><glyph d="M549 787 459 933H338L448 787ZM498 700ZM231 0 25 700H149L294 165L438 700H559L704 168L846 700H969L763 0H645L497 516L348 0ZM498 700Z" glyph-name="Wgrave" horiz-adv-x="994" unicode="&#7808;" /><glyph d="M250 350 19 700H157L319 445L484 700H618L386 351L621 0H483L318 254L155 0H19Z" glyph-name="X" horiz-adv-x="638" unicode="X" /><glyph d="M270 281 25 700H157L333 388L508 700H636L392 280V0H270ZM333 700Z" glyph-name="Y" horiz-adv-x="663" unicode="Y" /><glyph d="M270 281 25 700H157L333 388L508 700H636L392 280V0H270ZM333 700ZM494 933H372L282 787H384ZM332 700Z" glyph-name="Yacute" horiz-adv-x="663" unicode="&#221;" /><glyph d="M270 281 25 700H157L333 388L508 700H636L392 280V0H270ZM333 700ZM176 787 268 933H397L489 787H393L332 867L270 787ZM333 700Z" glyph-name="Ycircumflex" horiz-adv-x="663" unicode="&#374;" /><glyph d="M270 281 25 700H157L333 388L508 700H636L392 280V0H270ZM333 700ZM180 860Q180 833 199 814Q218 795 244 795Q271 795 290.5 814Q310 833 310 860Q310 886 290.5 905.5Q271 925 244 925Q218 925 199 905.5Q180 886 180 860ZM356 860Q356 833 375 814Q394 795 421 795Q448 795 467 814Q486 833 486 860Q486 886 466.5 905.5Q447 925 421 925Q394 925 375 906Q356 887 356 860ZM333 700Z" glyph-name="Ydieresis" horiz-adv-x="663" unicode="&#376;" /><glyph d="M270 281 25 700H157L333 388L508 700H636L392 280V0H270ZM333 700ZM384 787 294 933H173L283 787ZM333 700Z" glyph-name="Ygrave" horiz-adv-x="663" unicode="&#7922;" /><glyph d="M191 107H586V0H40V93L422 593H54V700H574V607ZM314 700Z" glyph-name="Z" horiz-adv-x="627" unicode="Z" /><glyph d="M191 107H586V0H40V93L422 593H54V700H574V607ZM314 700ZM476 933H354L264 787H366ZM314 700Z" glyph-name="Zacute" horiz-adv-x="627" unicode="&#377;" /><glyph d="M191 107H586V0H40V93L422 593H54V700H574V607ZM314 700ZM379 787H250L158 933H254L315 853L377 933H471ZM315 700Z" glyph-name="Zcaron" horiz-adv-x="627" unicode="&#381;" /><glyph d="M239 860Q239 830 261 808.5Q283 787 313 787Q344 787 366 808.5Q388 830 388 860Q388 890 366 911Q344 932 313 932Q283 932 261 911Q239 890 239 860ZM314 700ZM191 107H586V0H40V93L422 593H54V700H574V607ZM314 700Z" glyph-name="Zdotaccent" horiz-adv-x="627" unicode="&#379;" /><glyph d="M384 0V80Q356 35 312.5 11.5Q269 -12 213 -12Q138 -12 93 28.5Q48 69 48 133Q48 193 88 232Q128 271 209 291L378 333Q374 375 348 396.5Q322 418 274 418Q236 418 197.5 398.5Q159 379 115 335L48 401Q90 453 152.5 484.5Q215 516 282 516Q383 516 437 465Q491 414 491 323V0ZM163 143Q163 113 182.5 97Q202 81 239 81Q297 81 338 126.5Q379 172 379 241V247L241 214Q202 205 182.5 187Q163 169 163 143ZM276 504ZM448 0Z" glyph-name="a" horiz-adv-x="561" unicode="a" /><glyph d="M274 -12Q172 -12 107.5 60.5Q43 133 43 248Q43 365 107.5 440.5Q172 516 274 516Q327 516 369.5 494.5Q412 473 441 432V504H550V0H441V73Q412 31 369.5 9.5Q327 -12 274 -12ZM160 252Q160 178 198 131.5Q236 85 297 85Q360 85 398.5 131Q437 177 437 252Q437 326 397.5 372.5Q358 419 296 419Q235 419 197.5 373Q160 327 160 252ZM610 700Z" glyph-name="a.alt" horiz-adv-x="627" /><glyph d="M384 0V80Q356 35 312.5 11.5Q269 -12 213 -12Q138 -12 93 28.5Q48 69 48 133Q48 193 88 232Q128 271 209 291L378 333Q374 375 348 396.5Q322 418 274 418Q236 418 197.5 398.5Q159 379 115 335L48 401Q90 453 152.5 484.5Q215 516 282 516Q383 516 437 465Q491 414 491 323V0ZM163 143Q163 113 182.5 97Q202 81 239 81Q297 81 338 126.5Q379 172 379 241V247L241 214Q202 205 182.5 187Q163 169 163 143ZM276 504ZM448 0ZM438 733H316L226 587H328ZM276 504Z" glyph-name="aacute" horiz-adv-x="561" unicode="&#225;" /><glyph d="M470 733H348L258 587H360ZM308 504ZM274 -12Q172 -12 107.5 60.5Q43 133 43 248Q43 365 107.5 440.5Q172 516 274 516Q327 516 369.5 494.5Q412 473 441 432V504H550V0H441V73Q412 31 369.5 9.5Q327 -12 274 -12ZM160 252Q160 178 198 131.5Q236 85 297 85Q360 85 398.5 131Q437 177 437 252Q437 326 397.5 372.5Q358 419 296 419Q235 419 197.5 373Q160 327 160 252ZM610 700Z" glyph-name="aacute.alt" horiz-adv-x="627" /><glyph d="M384 0V80Q356 35 312.5 11.5Q269 -12 213 -12Q138 -12 93 28.5Q48 69 48 133Q48 193 88 232Q128 271 209 291L378 333Q374 375 348 396.5Q322 418 274 418Q236 418 197.5 398.5Q159 379 115 335L48 401Q90 453 152.5 484.5Q215 516 282 516Q383 516 437 465Q491 414 491 323V0ZM163 143Q163 113 182.5 97Q202 81 239 81Q297 81 338 126.5Q379 172 379 241V247L241 214Q202 205 182.5 187Q163 169 163 143ZM276 504ZM448 0ZM277 656Q306 656 320.5 673Q335 690 339 733H418Q417 665 380 625Q343 585 276 585Q210 585 173 625Q136 665 135 733H216Q219 691 233.5 673.5Q248 656 277 656ZM276 504Z" glyph-name="abreve" horiz-adv-x="561" unicode="&#259;" /><glyph d="M274 -12Q172 -12 107.5 60.5Q43 133 43 248Q43 365 107.5 440.5Q172 516 274 516Q327 516 369.5 494.5Q412 473 441 432V504H550V0H441V73Q412 31 369.5 9.5Q327 -12 274 -12ZM160 252Q160 178 198 131.5Q236 85 297 85Q360 85 398.5 131Q437 177 437 252Q437 326 397.5 372.5Q358 419 296 419Q235 419 197.5 373Q160 327 160 252ZM610 700ZM303 656Q332 656 346.5 673Q361 690 365 733H444Q443 665 406 625Q369 585 302 585Q236 585 199 625Q162 665 161 733H242Q245 691 259.5 673.5Q274 656 303 656ZM302 504Z" glyph-name="abreve.alt" horiz-adv-x="627" /><glyph d="M384 0V80Q356 35 312.5 11.5Q269 -12 213 -12Q138 -12 93 28.5Q48 69 48 133Q48 193 88 232Q128 271 209 291L378 333Q374 375 348 396.5Q322 418 274 418Q236 418 197.5 398.5Q159 379 115 335L48 401Q90 453 152.5 484.5Q215 516 282 516Q383 516 437 465Q491 414 491 323V0ZM163 143Q163 113 182.5 97Q202 81 239 81Q297 81 338 126.5Q379 172 379 241V247L241 214Q202 205 182.5 187Q163 169 163 143ZM276 504ZM448 0ZM120 587 212 733H341L433 587H337L276 667L214 587ZM276 504Z" glyph-name="acircumflex" horiz-adv-x="561" unicode="&#226;" /><glyph d="M152 587 244 733H373L465 587H369L308 667L246 587ZM308 504ZM274 -12Q172 -12 107.5 60.5Q43 133 43 248Q43 365 107.5 440.5Q172 516 274 516Q327 516 369.5 494.5Q412 473 441 432V504H550V0H441V73Q412 31 369.5 9.5Q327 -12 274 -12ZM160 252Q160 178 198 131.5Q236 85 297 85Q360 85 398.5 131Q437 177 437 252Q437 326 397.5 372.5Q358 419 296 419Q235 419 197.5 373Q160 327 160 252ZM610 700Z" glyph-name="acircumflex.alt" horiz-adv-x="627" /><glyph d="M302 733H180L90 587H192ZM140 504Z" glyph-name="acute" horiz-adv-x="394" unicode="&#180;" /><glyph d="M302 933H180L90 787H192ZM140 700Z" glyph-name="acute.case" horiz-adv-x="394" /><glyph d="M384 0V80Q356 35 312.5 11.5Q269 -12 213 -12Q138 -12 93 28.5Q48 69 48 133Q48 193 88 232Q128 271 209 291L378 333Q374 375 348 396.5Q322 418 274 418Q236 418 197.5 398.5Q159 379 115 335L48 401Q90 453 152.5 484.5Q215 516 282 516Q383 516 437 465Q491 414 491 323V0ZM163 143Q163 113 182.5 97Q202 81 239 81Q297 81 338 126.5Q379 172 379 241V247L241 214Q202 205 182.5 187Q163 169 163 143ZM276 504ZM448 0ZM124 660Q124 633 143 614Q162 595 188 595Q215 595 234.5 614Q254 633 254 660Q254 686 234.5 705.5Q215 725 188 725Q162 725 143 705.5Q124 686 124 660ZM300 660Q300 633 319 614Q338 595 365 595Q392 595 411 614Q430 633 430 660Q430 686 410.5 705.5Q391 725 365 725Q338 725 319 706Q300 687 300 660ZM276 504Z" glyph-name="adieresis" horiz-adv-x="561" unicode="&#228;" /><glyph d="M160 660Q160 633 179 614Q198 595 224 595Q251 595 270.5 614Q290 633 290 660Q290 686 270.5 705.5Q251 725 224 725Q198 725 179 705.5Q160 686 160 660ZM336 660Q336 633 355 614Q374 595 401 595Q428 595 447 614Q466 633 466 660Q466 686 446.5 705.5Q427 725 401 725Q374 725 355 706Q336 687 336 660ZM312 504ZM274 -12Q172 -12 107.5 60.5Q43 133 43 248Q43 365 107.5 440.5Q172 516 274 516Q327 516 369.5 494.5Q412 473 441 432V504H550V0H441V73Q412 31 369.5 9.5Q327 -12 274 -12ZM160 252Q160 178 198 131.5Q236 85 297 85Q360 85 398.5 131Q437 177 437 252Q437 326 397.5 372.5Q358 419 296 419Q235 419 197.5 373Q160 327 160 252ZM610 700Z" glyph-name="adieresis.alt" horiz-adv-x="627" /><glyph d="M777 158 847 91Q809 40 755.5 14Q702 -12 633 -12Q559 -12 502 19.5Q445 51 413 109Q387 50 338 19Q289 -12 222 -12Q143 -12 95 28.5Q47 69 47 131Q47 192 85 230Q123 268 209 291L376 335Q372 376 346 397Q320 418 273 418Q233 418 194.5 398.5Q156 379 115 337L47 403Q88 455 148.5 485.5Q209 516 277 516Q337 516 381 494.5Q425 473 450 431Q483 472 529.5 494Q576 516 630 516Q729 516 791 449.5Q853 383 853 275Q853 264 852 251.5Q851 239 849 224H491Q498 156 536.5 119Q575 82 639 82Q681 82 715 101Q749 120 777 158ZM625 426Q574 426 539.5 394.5Q505 363 495 306H739Q735 363 704.5 394.5Q674 426 625 426ZM163 142Q163 112 182.5 96.5Q202 81 239 81Q296 81 336.5 126Q377 171 377 239V246L241 212Q202 202 182.5 184.5Q163 167 163 142Z" glyph-name="ae" horiz-adv-x="897" unicode="&#230;" /><glyph d="M384 0V80Q356 35 312.5 11.5Q269 -12 213 -12Q138 -12 93 28.5Q48 69 48 133Q48 193 88 232Q128 271 209 291L378 333Q374 375 348 396.5Q322 418 274 418Q236 418 197.5 398.5Q159 379 115 335L48 401Q90 453 152.5 484.5Q215 516 282 516Q383 516 437 465Q491 414 491 323V0ZM163 143Q163 113 182.5 97Q202 81 239 81Q297 81 338 126.5Q379 172 379 241V247L241 214Q202 205 182.5 187Q163 169 163 143ZM276 504ZM448 0ZM327 587 237 733H116L226 587ZM276 504Z" glyph-name="agrave" horiz-adv-x="561" unicode="&#224;" /><glyph d="M274 -12Q172 -12 107.5 60.5Q43 133 43 248Q43 365 107.5 440.5Q172 516 274 516Q327 516 369.5 494.5Q412 473 441 432V504H550V0H441V73Q412 31 369.5 9.5Q327 -12 274 -12ZM160 252Q160 178 198 131.5Q236 85 297 85Q360 85 398.5 131Q437 177 437 252Q437 326 397.5 372.5Q358 419 296 419Q235 419 197.5 373Q160 327 160 252ZM610 700ZM366 587 276 733H155L265 587ZM315 504Z" glyph-name="agrave.alt" horiz-adv-x="627" /><glyph d="M384 0V80Q356 35 312.5 11.5Q269 -12 213 -12Q138 -12 93 28.5Q48 69 48 133Q48 193 88 232Q128 271 209 291L378 333Q374 375 348 396.5Q322 418 274 418Q236 418 197.5 398.5Q159 379 115 335L48 401Q90 453 152.5 484.5Q215 516 282 516Q383 516 437 465Q491 414 491 323V0ZM163 143Q163 113 182.5 97Q202 81 239 81Q297 81 338 126.5Q379 172 379 241V247L241 214Q202 205 182.5 187Q163 169 163 143ZM276 504ZM448 0ZM399 620H153V699H399ZM276 504Z" glyph-name="amacron" horiz-adv-x="561" unicode="&#257;" /><glyph d="M274 -12Q172 -12 107.5 60.5Q43 133 43 248Q43 365 107.5 440.5Q172 516 274 516Q327 516 369.5 494.5Q412 473 441 432V504H550V0H441V73Q412 31 369.5 9.5Q327 -12 274 -12ZM160 252Q160 178 198 131.5Q236 85 297 85Q360 85 398.5 131Q437 177 437 252Q437 326 397.5 372.5Q358 419 296 419Q235 419 197.5 373Q160 327 160 252ZM610 700ZM434 620H188V699H434ZM311 504Z" glyph-name="amacron.alt" horiz-adv-x="627" /><glyph d="M279 -12Q176 -12 112.5 39Q49 90 49 178Q49 239 85 286.5Q121 334 199 373Q169 409 153.5 448.5Q138 488 138 528Q138 611 192 661.5Q246 712 329 712Q408 712 456.5 668.5Q505 625 505 552Q505 497 470 450.5Q435 404 360 361L500 226Q507 237 513.5 248Q520 259 527 271L586 376H697V359L626 235Q612 211 599.5 191Q587 171 574 154L714 19V0H575L501 72Q453 29 399 8.5Q345 -12 279 -12ZM330 623Q291 623 268.5 599Q246 575 246 539Q246 508 259 479.5Q272 451 300 421Q353 453 378 484.5Q403 516 403 548Q403 582 383 602.5Q363 623 330 623ZM171 192Q171 143 204 114.5Q237 86 291 86Q335 86 368.5 99Q402 112 432 140L257 311Q212 285 191.5 256.5Q171 228 171 192Z" glyph-name="ampersand" horiz-adv-x="730" unicode="&amp;" /><glyph d="M473 -155V-215Q460 -222 444 -225.5Q428 -229 407 -229Q357 -229 326.5 -201Q296 -173 296 -126Q296 -87 319.5 -52.5Q343 -18 384 0V80Q356 35 312.5 11.5Q269 -12 213 -12Q138 -12 93 28.5Q48 69 48 133Q48 193 88 232Q128 271 209 291L378 333Q374 375 348 396.5Q322 418 274 418Q236 418 197.5 398.5Q159 379 115 335L48 401Q90 453 152.5 484.5Q215 516 282 516Q383 516 437 465Q491 414 491 323V0H453Q419 -15 400.5 -42Q382 -69 382 -101Q382 -129 398 -145Q414 -161 441 -161Q450 -161 457.5 -159.5Q465 -158 473 -155ZM163 143Q163 113 182.5 97Q202 81 239 81Q297 81 338 126.5Q379 172 379 241V247L241 214Q202 205 182.5 187Q163 169 163 143Z" glyph-name="aogonek" horiz-adv-x="561" unicode="&#261;" /><glyph d="M274 -12Q172 -12 107.5 60.5Q43 133 43 248Q43 365 107.5 440.5Q172 516 274 516Q327 516 369.5 494.5Q412 473 441 432V504H550V0H510Q477 -15 458 -42.5Q439 -70 439 -101Q439 -129 455.5 -145Q472 -161 498 -161Q507 -161 515 -159.5Q523 -158 530 -155V-215Q517 -222 501.5 -225.5Q486 -229 465 -229Q415 -229 384 -201Q353 -173 353 -126Q353 -87 377 -52.5Q401 -18 441 0V73Q412 31 369.5 9.5Q327 -12 274 -12ZM160 252Q160 178 198 131.5Q236 85 297 85Q360 85 398.5 131Q437 177 437 252Q437 326 397.5 372.5Q358 419 296 419Q235 419 197.5 373Q160 327 160 252Z" glyph-name="aogonek.alt" horiz-adv-x="627" /><glyph d="M300.9 216Q335.1 201.6 353.1 197.1Q371.1 192.6 386.4 192.6Q432.3 192.6 455.25 227.7Q478.2 262.8 472.8 324H400.8Q401.7 297.9 396.3 288.9Q390.9 279.9 376.5 279.9Q364.8 279.9 351.3 283.95Q337.8 288 309 300.6Q274.8 315.9 257.25 320.4Q239.7 324.9 224.4 324.9Q170.4 324.9 142.05 287.55Q113.7 250.2 117.3 187.2H190.2Q191.1 213.3 200.55 225.45Q210 237.6 228 237.6Q240.6 237.6 255.45 233.55Q270.3 229.5 300.9 216ZM300.9 396Q335.1 381.6 353.1 377.1Q371.1 372.6 386.4 372.6Q432.3 372.6 455.25 407.7Q478.2 442.8 472.8 504H400.8Q401.7 477.9 396.3 468.9Q390.9 459.9 376.5 459.9Q364.8 459.9 351.3 463.95Q337.8 468 309 480.6Q274.8 495.9 257.25 500.4Q239.7 504.9 224.4 504.9Q170.4 504.9 142.05 467.55Q113.7 430.2 117.3 367.2H190.2Q191.1 393.3 200.55 405.45Q210 417.6 228 417.6Q240.6 417.6 255.45 413.55Q270.3 409.5 300.9 396Z" glyph-name="approxequal" horiz-adv-x="588" unicode="&#8776;" /><glyph d="M384 0V80Q356 35 312.5 11.5Q269 -12 213 -12Q138 -12 93 28.5Q48 69 48 133Q48 193 88 232Q128 271 209 291L378 333Q374 375 348 396.5Q322 418 274 418Q236 418 197.5 398.5Q159 379 115 335L48 401Q90 453 152.5 484.5Q215 516 282 516Q383 516 437 465Q491 414 491 323V0ZM163 143Q163 113 182.5 97Q202 81 239 81Q297 81 338 126.5Q379 172 379 241V247L241 214Q202 205 182.5 187Q163 169 163 143ZM276 504ZM448 0ZM387 671Q387 717 354.5 750Q322 783 276 783Q229 783 197 750Q165 717 165 671Q165 625 197 593Q229 561 276 561Q323 561 355 593Q387 625 387 671ZM229 671Q229 690 243 704.5Q257 719 276 719Q295 719 309 704.5Q323 690 323 671Q323 653 309 639Q295 625 276 625Q257 625 243 639Q229 653 229 671ZM276 504Z" glyph-name="aring" horiz-adv-x="561" unicode="&#229;" /><glyph d="M417 671Q417 717 384.5 750Q352 783 306 783Q259 783 227 750Q195 717 195 671Q195 625 227 593Q259 561 306 561Q353 561 385 593Q417 625 417 671ZM259 671Q259 690 273 704.5Q287 719 306 719Q325 719 339 704.5Q353 690 353 671Q353 653 339 639Q325 625 306 625Q287 625 273 639Q259 653 259 671ZM306 504ZM274 -12Q172 -12 107.5 60.5Q43 133 43 248Q43 365 107.5 440.5Q172 516 274 516Q327 516 369.5 494.5Q412 473 441 432V504H550V0H441V73Q412 31 369.5 9.5Q327 -12 274 -12ZM160 252Q160 178 198 131.5Q236 85 297 85Q360 85 398.5 131Q437 177 437 252Q437 326 397.5 372.5Q358 419 296 419Q235 419 197.5 373Q160 327 160 252ZM610 700Z" glyph-name="aring.alt" horiz-adv-x="627" /><glyph d="M241 700H346L534 281H420L293 574L167 281H51Z" glyph-name="asciicircum" horiz-adv-x="587" unicode="^" /><glyph d="M301 310Q339 294 359 289Q379 284 396 284Q447 284 472.5 323Q498 362 492 430H412Q413 401 407 391Q401 381 385 381Q372 381 357 385.5Q342 390 310 404Q272 421 252.5 426Q233 431 216 431Q156 431 124.5 389.5Q93 348 97 278H178Q179 307 189.5 320.5Q200 334 220 334Q234 334 250.5 329.5Q267 325 301 310Z" glyph-name="asciitilde" horiz-adv-x="587" unicode="~" /><glyph d="M275 445 286 316H191L201 445L95 371L48 453L165 508L48 563L95 645L201 572L191 700H286L275 572L381 645L428 563L311 508L428 453L381 371Z" glyph-name="asterisk" horiz-adv-x="476" unicode="*" /><glyph d="M548 146Q519 102 481 78.5Q443 55 399 55Q330 55 287.5 102Q245 149 245 223Q245 344 304.5 425Q364 506 455 506Q499 506 531 487.5Q563 469 580 433L591 496H693L644 220Q637 178 647.5 156Q658 134 687 134Q733 134 767 191Q801 248 801 343Q801 406 778.5 464.5Q756 523 714 563Q674 601 617.5 620Q561 639 489 639Q324 639 228 536Q132 433 132 272Q132 102 217.5 10Q303 -82 463 -82Q527 -82 577.5 -69.5Q628 -57 696 -19L728 -80Q656 -121 593.5 -138Q531 -155 462 -155Q263 -155 153 -42Q43 71 43 269Q43 358 76 442.5Q109 527 169 588Q229 649 310 680.5Q391 712 489 712Q670 712 779.5 611Q889 510 889 346Q889 217 828 139Q767 61 676 61Q622 61 589.5 82.5Q557 104 548 146ZM351 228Q351 184 370.5 160.5Q390 137 428 137Q478 137 516 192.5Q554 248 554 324Q554 373 532 399Q510 425 468 425Q418 425 384.5 368.5Q351 312 351 228Z" glyph-name="at" horiz-adv-x="936" unicode="@" /><glyph d="M384 0V80Q356 35 312.5 11.5Q269 -12 213 -12Q138 -12 93 28.5Q48 69 48 133Q48 193 88 232Q128 271 209 291L378 333Q374 375 348 396.5Q322 418 274 418Q236 418 197.5 398.5Q159 379 115 335L48 401Q90 453 152.5 484.5Q215 516 282 516Q383 516 437 465Q491 414 491 323V0ZM163 143Q163 113 182.5 97Q202 81 239 81Q297 81 338 126.5Q379 172 379 241V247L241 214Q202 205 182.5 187Q163 169 163 143ZM276 504ZM448 0ZM353 602Q395 602 415 634.5Q435 667 426 720H355Q356 702 351 695Q346 688 332 688Q324 688 314 690.5Q304 693 282 701Q255 711 240.5 714.5Q226 718 213 718Q168 718 144 685Q120 652 126 598H199Q200 617 208 625.5Q216 634 232 634Q242 634 254 631Q266 628 289 619Q314 608 327.5 605Q341 602 353 602ZM273 504Z" glyph-name="atilde" horiz-adv-x="561" unicode="&#227;" /><glyph d="M274 -12Q172 -12 107.5 60.5Q43 133 43 248Q43 365 107.5 440.5Q172 516 274 516Q327 516 369.5 494.5Q412 473 441 432V504H550V0H441V73Q412 31 369.5 9.5Q327 -12 274 -12ZM160 252Q160 178 198 131.5Q236 85 297 85Q360 85 398.5 131Q437 177 437 252Q437 326 397.5 372.5Q358 419 296 419Q235 419 197.5 373Q160 327 160 252ZM610 700ZM382 602Q424 602 444 634.5Q464 667 455 720H384Q385 702 380 695Q375 688 361 688Q353 688 343 690.5Q333 693 311 701Q284 711 269.5 714.5Q255 718 242 718Q197 718 173 685Q149 652 155 598H228Q229 617 237 625.5Q245 634 261 634Q271 634 283 631Q295 628 318 619Q343 608 356.5 605Q370 602 382 602ZM302 504Z" glyph-name="atilde.alt" horiz-adv-x="627" /><glyph d="M355 516Q457 516 521.5 443.5Q586 371 586 256Q586 139 521.5 63.5Q457 -12 355 -12Q301 -12 258 10Q215 32 186 73V0H76V730H192V439Q221 477 262.5 496.5Q304 516 355 516ZM469 252Q469 326 431 372Q393 418 331 418Q268 418 229 372.5Q190 327 190 252Q190 178 229.5 131.5Q269 85 332 85Q394 85 431.5 131.5Q469 178 469 252Z" glyph-name="b" horiz-adv-x="629" unicode="b" /><glyph d="M129 742 480 -132H373L22 742Z" glyph-name="backslash" horiz-adv-x="503" unicode="\" /><glyph d="M188 742V-139H88V742Z" glyph-name="bar" horiz-adv-x="276" unicode="|" /><glyph d="M35 252V351H59Q93 351 110 365.5Q127 380 127 409Q127 422 125.5 438Q124 454 118 487Q111 530 109 553Q107 576 107 597Q107 664 151 703Q195 742 270 742H314V647H296Q262 647 243.5 632.5Q225 618 225 591Q225 577 226.5 559.5Q228 542 233 506Q238 466 239.5 445.5Q241 425 241 408Q241 370 223 345Q205 320 162 302Q205 284 223 259Q241 234 241 196Q241 179 239.5 158Q238 137 233 97Q228 61 226.5 43.5Q225 26 225 12Q225 -15 243.5 -29.5Q262 -44 296 -44H314V-139H270Q195 -139 151 -100Q107 -61 107 6Q107 27 109 50.5Q111 74 118 116Q124 150 125.5 165.5Q127 181 127 194Q127 223 110 237.5Q93 252 59 252Z" glyph-name="braceleft" horiz-adv-x="354" unicode="{" /><glyph d="M320 351V252H296Q262 252 245 237.5Q228 223 228 194Q228 181 229.5 165Q231 149 237 116Q244 73 246 50Q248 27 248 6Q248 -61 204 -100Q160 -139 85 -139H41V-44H59Q93 -44 111.5 -29.5Q130 -15 130 12Q130 26 128.5 43.5Q127 61 122 97Q117 137 115.5 157.5Q114 178 114 195Q114 233 132 258Q150 283 193 301Q150 319 132 344Q114 369 114 407Q114 424 115.5 445Q117 466 122 506Q127 542 128.5 559.5Q130 577 130 591Q130 618 111.5 632.5Q93 647 59 647H41V742H85Q160 742 204 703Q248 664 248 597Q248 576 246 552.5Q244 529 237 487Q231 453 229.5 437.5Q228 422 228 409Q228 380 245 365.5Q262 351 296 351Z" glyph-name="braceright" horiz-adv-x="354" unicode="}" /><glyph d="M342 -139H88V742H342V646H204V-43H342Z" glyph-name="bracketleft" horiz-adv-x="373" unicode="[" /><glyph d="M31 -139H285V742H31V646H169V-43H31Z" glyph-name="bracketright" horiz-adv-x="373" unicode="]" /><glyph d="M198 656Q227 656 241.5 673Q256 690 260 733H339Q338 665 301 625Q264 585 197 585Q131 585 94 625Q57 665 56 733H137Q140 691 154.5 673.5Q169 656 198 656ZM197 504Z" glyph-name="breve" horiz-adv-x="396" unicode="&#728;" /><glyph d="M198 856Q227 856 241.5 873Q256 890 260 933H339Q338 865 301 825Q264 785 197 785Q131 785 94 825Q57 865 56 933H137Q140 891 154.5 873.5Q169 856 198 856ZM197 700Z" glyph-name="breve.case" horiz-adv-x="396" /><glyph d="M188 742V405H88V742ZM188 205V-132H88V205Z" glyph-name="brokenbar" horiz-adv-x="276" unicode="&#166;" /><glyph d="M78.5 367Q78.5 319 112.25 286Q146 253 195.5 253Q245 253 278.75 286Q312.5 319 312.5 367Q312.5 415 278.75 448Q245 481 195.5 481Q146 481 112.25 448Q78.5 415 78.5 367ZM78.5 368.5Z" glyph-name="bullet" horiz-adv-x="391" unicode="&#8226;" /><glyph d="M293 -12Q179 -12 111 59Q43 130 43 249Q43 366 113 441Q183 516 294 516Q371 516 428.5 479Q486 442 515 373L416 325Q394 371 363.5 393.5Q333 416 294 416Q234 416 197 369.5Q160 323 160 249Q160 177 197.5 131.5Q235 86 295 86Q338 86 369 111Q400 136 423 189L519 142Q485 66 428 27Q371 -12 293 -12ZM293 504ZM294 10Z" glyph-name="c" horiz-adv-x="547" unicode="c" /><glyph d="M454 733H332L242 587H344ZM292 504ZM293 -12Q179 -12 111 59Q43 130 43 249Q43 366 113 441Q183 516 294 516Q371 516 428.5 479Q486 442 515 373L416 325Q394 371 363.5 393.5Q333 416 294 416Q234 416 197 369.5Q160 323 160 249Q160 177 197.5 131.5Q235 86 295 86Q338 86 369 111Q400 136 423 189L519 142Q485 66 428 27Q371 -12 293 -12ZM293 504ZM294 10Z" glyph-name="cacute" horiz-adv-x="547" unicode="&#263;" /><glyph d="M263 587H134L42 733H138L199 653L261 733H355ZM198 504Z" glyph-name="caron" horiz-adv-x="396" unicode="&#711;" /><glyph d="M263 787H134L42 933H138L199 853L261 933H355ZM199 700Z" glyph-name="caron.case" horiz-adv-x="396" /><glyph d="M150 730H42L11 560H92ZM5 700Z" glyph-name="caron.salt" horiz-adv-x="182" /><glyph d="M357 587H228L136 733H232L293 653L355 733H449ZM292 504ZM293 -12Q179 -12 111 59Q43 130 43 249Q43 366 113 441Q183 516 294 516Q371 516 428.5 479Q486 442 515 373L416 325Q394 371 363.5 393.5Q333 416 294 416Q234 416 197 369.5Q160 323 160 249Q160 177 197.5 131.5Q235 86 295 86Q338 86 369 111Q400 136 423 189L519 142Q485 66 428 27Q371 -12 293 -12ZM293 504ZM294 10Z" glyph-name="ccaron" horiz-adv-x="547" unicode="&#269;" /><glyph d="M222 -112 202 -86 258 -10Q159 1 101 70.5Q43 140 43 249Q43 366 113 441Q183 516 294 516Q371 516 428.5 479Q486 442 515 373L416 325Q394 371 363.5 393.5Q333 416 294 416Q234 416 197 369.5Q160 323 160 249Q160 177 197.5 131.5Q235 86 295 86Q338 86 369 111Q400 136 423 189L519 142Q488 73 438 34.5Q388 -4 320 -11L285 -56Q288 -55 291 -55Q294 -55 299 -55Q341 -55 364.5 -76.5Q388 -98 388 -133Q388 -176 355 -202.5Q322 -229 267 -229Q247 -229 226.5 -225Q206 -221 187 -214V-158Q207 -166 221.5 -169Q236 -172 253 -172Q280 -172 293.5 -163Q307 -154 307 -136Q307 -121 294.5 -112.5Q282 -104 261 -104Q253 -104 242.5 -106Q232 -108 222 -112Z" glyph-name="ccedilla" horiz-adv-x="547" unicode="&#231;" /><glyph d="M136 587 228 733H357L449 587H353L292 667L230 587ZM292 504ZM293 -12Q179 -12 111 59Q43 130 43 249Q43 366 113 441Q183 516 294 516Q371 516 428.5 479Q486 442 515 373L416 325Q394 371 363.5 393.5Q333 416 294 416Q234 416 197 369.5Q160 323 160 249Q160 177 197.5 131.5Q235 86 295 86Q338 86 369 111Q400 136 423 189L519 142Q485 66 428 27Q371 -12 293 -12ZM293 504ZM294 10Z" glyph-name="ccircumflex" horiz-adv-x="547" unicode="&#265;" /><glyph d="M293 -12Q179 -12 111 59Q43 130 43 249Q43 366 113 441Q183 516 294 516Q371 516 428.5 479Q486 442 515 373L416 325Q394 371 363.5 393.5Q333 416 294 416Q234 416 197 369.5Q160 323 160 249Q160 177 197.5 131.5Q235 86 295 86Q338 86 369 111Q400 136 423 189L519 142Q485 66 428 27Q371 -12 293 -12ZM293 504ZM294 10ZM218 660Q218 630 240 608.5Q262 587 292 587Q323 587 345 608.5Q367 630 367 660Q367 690 345 711Q323 732 292 732Q262 732 240 711Q218 690 218 660ZM292 504Z" glyph-name="cdotaccent" horiz-adv-x="547" unicode="&#267;" /><glyph d="M143 -112 123 -86 192 8H255L206 -56Q209 -55 212 -55Q215 -55 220 -55Q262 -55 285.5 -76.5Q309 -98 309 -133Q309 -176 276 -202.5Q243 -229 188 -229Q168 -229 147.5 -225Q127 -221 108 -214V-158Q128 -166 142.5 -169Q157 -172 174 -172Q201 -172 214.5 -163Q228 -154 228 -136Q228 -121 215.5 -112.5Q203 -104 182 -104Q174 -104 163.5 -106Q153 -108 143 -112ZM215 10Z" glyph-name="cedilla" horiz-adv-x="393" unicode="&#184;" /><glyph d="M199 -84H126L165 21Q109 53 79 112Q49 171 49 249Q49 366 119 441Q189 516 300 516Q314 516 325.5 515Q337 514 348 512L378 594H451L413 491Q449 473 476.5 443Q504 413 521 373L422 325Q411 347 399.5 362.5Q388 378 375 389L264 91Q274 88 283 87Q292 86 301 86Q344 86 375 111Q406 136 429 189L525 142Q491 66 434 27Q377 -12 299 -12Q281 -12 264 -10Q247 -8 229 -4ZM300 416Q240 416 203 369.5Q166 323 166 249Q166 213 176 182Q186 151 205 129L312 415Q310 416 307.5 416Q305 416 300 416Z" glyph-name="cent" horiz-adv-x="569" unicode="&#162;" /><glyph d="M42 587 134 733H263L355 587H259L198 667L136 587ZM198 504Z" glyph-name="circumflex" horiz-adv-x="396" unicode="&#710;" /><glyph d="M42 787 134 933H263L355 787H259L198 867L136 787ZM199 700Z" glyph-name="circumflex.case" horiz-adv-x="396" /><glyph d="M65 440Q65 408 87.5 386Q110 364 143 364Q176 364 198.5 386Q221 408 221 440Q221 472 198.5 494Q176 516 143 516Q110 516 87.5 494Q65 472 65 440ZM65 441ZM65 64Q65 32 87.5 10Q110 -12 143 -12Q176 -12 198.5 10Q221 32 221 64Q221 96 198.5 118Q176 140 143 140Q110 140 87.5 118Q65 96 65 64ZM65 65Z" glyph-name="colon" horiz-adv-x="287" unicode=":" /><glyph d="M206 134H82L22 -134H124Z" glyph-name="comma" horiz-adv-x="266" unicode="," /><glyph d="M171 -63H56L8 -227H105ZM114 0ZM86 -210Z" glyph-name="commaaccent" horiz-adv-x="199" unicode="&#63171;" /><glyph d="M27 587H145L191 733H102ZM81 504Z" glyph-name="commaaccent.salt" horiz-adv-x="199" /><glyph d="M769 351Q769 501 663.5 606.5Q558 712 408 712Q258 712 152.5 606.5Q47 501 47 351Q47 201 153 94.5Q259 -12 408 -12Q557 -12 663 94.5Q769 201 769 351ZM122 351Q122 472 206 557.5Q290 643 408 643Q527 643 611 557.5Q695 472 695 351Q695 230 610.5 144Q526 58 408 58Q290 58 206 144Q122 230 122 351ZM409 169Q331 169 283 219.5Q235 270 235 349Q235 427 284.5 479Q334 531 413 531Q463 531 501.5 508Q540 485 560 444L481 400Q467 425 450 436.5Q433 448 410 448Q374 448 351.5 420.5Q329 393 329 350Q329 307 351.5 279.5Q374 252 411 252Q436 252 453 265.5Q470 279 484 310L565 270Q543 221 503.5 195Q464 169 409 169Z" glyph-name="copyright" horiz-adv-x="816" unicode="&#169;" /><glyph d="M125 93 56 164 150 258Q138 279 132.5 301Q127 323 127 346Q127 370 133 391.5Q139 413 150 433L56 527L125 598L219 504Q238 517 261.5 523.5Q285 530 311 530Q336 530 360 523.5Q384 517 404 504L498 598L567 527L473 433Q484 413 490 391.5Q496 370 496 346Q496 322 490 300Q484 278 473 258L567 164L498 93L404 187Q383 175 359.5 168.5Q336 162 311 162Q287 162 263.5 168.5Q240 175 219 187ZM311 256Q349 256 375 282.5Q401 309 401 346Q401 383 374.5 409Q348 435 311 435Q274 435 248 409Q222 383 222 346Q222 308 248 282Q274 256 311 256Z" glyph-name="currency" horiz-adv-x="623" unicode="&#164;" /><glyph d="M275 -12Q172 -12 107.5 60.5Q43 133 43 248Q43 366 107.5 441Q172 516 275 516Q326 516 367.5 496.5Q409 477 438 439V730H553V0H444V73Q415 31 372 9.5Q329 -12 275 -12ZM160 252Q160 178 198 131.5Q236 85 298 85Q362 85 401 131Q440 177 440 252Q440 325 400.5 372Q361 419 298 419Q236 419 198 373Q160 327 160 252ZM613 700Z" glyph-name="d" horiz-adv-x="629" unicode="d" /><glyph d="M251 424 264 0H162L174 424L36 413V507L173 496L162 700H264L252 496L390 507V413Z" glyph-name="dagger" horiz-adv-x="425" unicode="&#8224;" /><glyph d="M280 0H178L189 204L52 193V287L187 277L178 350L187 423L52 413V507L189 496L178 700H280L268 496L406 507V413L271 423L280 350L271 277L406 287V193L268 204Z" glyph-name="daggerdbl" horiz-adv-x="457" unicode="&#8225;" /><glyph d="M758 730H650L619 560H700ZM613 700ZM275 -12Q172 -12 107.5 60.5Q43 133 43 248Q43 366 107.5 441Q172 516 275 516Q326 516 367.5 496.5Q409 477 438 439V730H553V0H444V73Q415 31 372 9.5Q329 -12 275 -12ZM160 252Q160 178 198 131.5Q236 85 298 85Q362 85 401 131Q440 177 440 252Q440 325 400.5 372Q361 419 298 419Q236 419 198 373Q160 327 160 252ZM613 700Z" glyph-name="dcaron" horiz-adv-x="649" unicode="&#271;" /><glyph d="M275 -12Q172 -12 107.5 60.5Q43 133 43 248Q43 366 107.5 441Q172 516 275 516Q326 516 367.5 496.5Q409 477 438 439V575H294V663H438V730H553V663H624V575H553V0H444V73Q415 31 372 9.5Q329 -12 275 -12ZM160 252Q160 178 198 131.5Q236 85 298 85Q362 85 401 131Q440 177 440 252Q440 325 400.5 372Q361 419 298 419Q236 419 198 373Q160 327 160 252Z" glyph-name="dcroat" horiz-adv-x="629" unicode="&#273;" /><glyph d="M339 565Q339 626 296.5 669Q254 712 193 712Q131 712 87.5 669Q44 626 44 565Q44 504 88 460.5Q132 417 193 417Q253 417 296 460.5Q339 504 339 565ZM122 565Q122 596 142 616.5Q162 637 193 637Q223 637 244 616Q265 595 265 565Q265 535 244 514.5Q223 494 193 494Q163 494 142.5 514.5Q122 535 122 565Z" glyph-name="degree" horiz-adv-x="383" unicode="&#176;" /><glyph d="M45 660Q45 633 64 614Q83 595 109 595Q136 595 155.5 614Q175 633 175 660Q175 686 155.5 705.5Q136 725 109 725Q83 725 64 705.5Q45 686 45 660ZM221 660Q221 633 240 614Q259 595 286 595Q313 595 332 614Q351 633 351 660Q351 686 331.5 705.5Q312 725 286 725Q259 725 240 706Q221 687 221 660ZM197 504Z" glyph-name="dieresis" horiz-adv-x="396" unicode="&#168;" /><glyph d="M45 860Q45 833 64 814Q83 795 109 795Q136 795 155.5 814Q175 833 175 860Q175 886 155.5 905.5Q136 925 109 925Q83 925 64 905.5Q45 886 45 860ZM221 860Q221 833 240 814Q259 795 286 795Q313 795 332 814Q351 833 351 860Q351 886 331.5 905.5Q312 925 286 925Q259 925 240 906Q221 887 221 860ZM198 700Z" glyph-name="dieresis.case" horiz-adv-x="396" /><glyph d="M65 302V399H522V302ZM223 152Q223 123 243.5 103Q264 83 293 83Q322 83 342.5 103Q363 123 363 152Q363 180 342.5 200Q322 220 293 220Q264 220 243.5 200Q223 180 223 152ZM223 549Q223 520 243.5 500Q264 480 293 480Q322 480 342.5 500Q363 520 363 549Q363 577 342.5 597Q322 617 293 617Q264 617 243.5 597Q223 577 223 549Z" glyph-name="divide" horiz-adv-x="587" unicode="&#247;" /><glyph d="M341 -11V-134H267V-9Q198 -1 137 28.5Q76 58 31 103L101 190Q136 153 179 128.5Q222 104 267 95V314L226 328Q141 356 102.5 402Q64 448 64 517Q64 594 119 648Q174 702 267 711V833H341V710Q402 703 457 677.5Q512 652 555 610L485 525Q451 556 414.5 576Q378 596 341 604V410L402 390Q482 363 520.5 318Q559 273 559 206Q559 116 499.5 55.5Q440 -5 341 -11ZM183 526Q183 494 200 473Q217 452 256 439L267 435V607Q227 602 205 580Q183 558 183 526ZM436 194Q436 228 416.5 249.5Q397 271 352 286L341 290V92Q386 98 411 125Q436 152 436 194Z" glyph-name="dollar" horiz-adv-x="602" unicode="$" /><glyph d="M121 660Q121 630 143 608.5Q165 587 195 587Q226 587 248 608.5Q270 630 270 660Q270 690 248 711Q226 732 195 732Q165 732 143 711Q121 690 121 660ZM195 504Z" glyph-name="dotaccent" horiz-adv-x="391" unicode="&#729;" /><glyph d="M121 860Q121 830 143 808.5Q165 787 195 787Q226 787 248 808.5Q270 830 270 860Q270 890 248 911Q226 932 195 932Q165 932 143 911Q121 890 121 860ZM196 700Z" glyph-name="dotaccent.case" horiz-adv-x="391" /><glyph d="M76 0V504H192V0ZM134 504Z" glyph-name="dotlessi" horiz-adv-x="268" unicode="&#305;" /><glyph d="M298 -12Q181 -12 111.5 59.5Q42 131 42 252Q42 367 112.5 441.5Q183 516 292 516Q393 516 456 450Q519 384 519 275Q519 264 518 251.5Q517 239 515 224H157Q163 156 202 119Q241 82 304 82Q344 82 379 101Q414 120 443 157L513 91Q476 40 421.5 14Q367 -12 298 -12ZM290 426Q239 426 205 394.5Q171 363 160 306H406Q402 363 371 394.5Q340 426 290 426ZM291 504ZM360 0Z" glyph-name="e" horiz-adv-x="563" unicode="e" /><glyph d="M452 733H330L240 587H342ZM290 504ZM298 -12Q181 -12 111.5 59.5Q42 131 42 252Q42 367 112.5 441.5Q183 516 292 516Q393 516 456 450Q519 384 519 275Q519 264 518 251.5Q517 239 515 224H157Q163 156 202 119Q241 82 304 82Q344 82 379 101Q414 120 443 157L513 91Q476 40 421.5 14Q367 -12 298 -12ZM290 426Q239 426 205 394.5Q171 363 160 306H406Q402 363 371 394.5Q340 426 290 426ZM291 504ZM360 0Z" glyph-name="eacute" horiz-adv-x="563" unicode="&#233;" /><glyph d="M298 -12Q181 -12 111.5 59.5Q42 131 42 252Q42 367 112.5 441.5Q183 516 292 516Q393 516 456 450Q519 384 519 275Q519 264 518 251.5Q517 239 515 224H157Q163 156 202 119Q241 82 304 82Q344 82 379 101Q414 120 443 157L513 91Q476 40 421.5 14Q367 -12 298 -12ZM290 426Q239 426 205 394.5Q171 363 160 306H406Q402 363 371 394.5Q340 426 290 426ZM291 504ZM360 0ZM291 656Q320 656 334.5 673Q349 690 353 733H432Q431 665 394 625Q357 585 290 585Q224 585 187 625Q150 665 149 733H230Q233 691 247.5 673.5Q262 656 291 656ZM290 504Z" glyph-name="ebreve" horiz-adv-x="563" unicode="&#277;" /><glyph d="M355 587H226L134 733H230L291 653L353 733H447ZM290 504ZM298 -12Q181 -12 111.5 59.5Q42 131 42 252Q42 367 112.5 441.5Q183 516 292 516Q393 516 456 450Q519 384 519 275Q519 264 518 251.5Q517 239 515 224H157Q163 156 202 119Q241 82 304 82Q344 82 379 101Q414 120 443 157L513 91Q476 40 421.5 14Q367 -12 298 -12ZM290 426Q239 426 205 394.5Q171 363 160 306H406Q402 363 371 394.5Q340 426 290 426ZM291 504ZM360 0Z" glyph-name="ecaron" horiz-adv-x="563" unicode="&#283;" /><glyph d="M134 587 226 733H355L447 587H351L290 667L228 587ZM290 504ZM298 -12Q181 -12 111.5 59.5Q42 131 42 252Q42 367 112.5 441.5Q183 516 292 516Q393 516 456 450Q519 384 519 275Q519 264 518 251.5Q517 239 515 224H157Q163 156 202 119Q241 82 304 82Q344 82 379 101Q414 120 443 157L513 91Q476 40 421.5 14Q367 -12 298 -12ZM290 426Q239 426 205 394.5Q171 363 160 306H406Q402 363 371 394.5Q340 426 290 426ZM291 504ZM360 0Z" glyph-name="ecircumflex" horiz-adv-x="563" unicode="&#234;" /><glyph d="M138 660Q138 633 157 614Q176 595 202 595Q229 595 248.5 614Q268 633 268 660Q268 686 248.5 705.5Q229 725 202 725Q176 725 157 705.5Q138 686 138 660ZM314 660Q314 633 333 614Q352 595 379 595Q406 595 425 614Q444 633 444 660Q444 686 424.5 705.5Q405 725 379 725Q352 725 333 706Q314 687 314 660ZM290 504ZM298 -12Q181 -12 111.5 59.5Q42 131 42 252Q42 367 112.5 441.5Q183 516 292 516Q393 516 456 450Q519 384 519 275Q519 264 518 251.5Q517 239 515 224H157Q163 156 202 119Q241 82 304 82Q344 82 379 101Q414 120 443 157L513 91Q476 40 421.5 14Q367 -12 298 -12ZM290 426Q239 426 205 394.5Q171 363 160 306H406Q402 363 371 394.5Q340 426 290 426ZM291 504ZM360 0Z" glyph-name="edieresis" horiz-adv-x="563" unicode="&#235;" /><glyph d="M298 -12Q181 -12 111.5 59.5Q42 131 42 252Q42 367 112.5 441.5Q183 516 292 516Q393 516 456 450Q519 384 519 275Q519 264 518 251.5Q517 239 515 224H157Q163 156 202 119Q241 82 304 82Q344 82 379 101Q414 120 443 157L513 91Q476 40 421.5 14Q367 -12 298 -12ZM290 426Q239 426 205 394.5Q171 363 160 306H406Q402 363 371 394.5Q340 426 290 426ZM291 504ZM360 0ZM216 660Q216 630 238 608.5Q260 587 290 587Q321 587 343 608.5Q365 630 365 660Q365 690 343 711Q321 732 290 732Q260 732 238 711Q216 690 216 660ZM290 504Z" glyph-name="edotaccent" horiz-adv-x="563" unicode="&#279;" /><glyph d="M298 -12Q181 -12 111.5 59.5Q42 131 42 252Q42 367 112.5 441.5Q183 516 292 516Q393 516 456 450Q519 384 519 275Q519 264 518 251.5Q517 239 515 224H157Q163 156 202 119Q241 82 304 82Q344 82 379 101Q414 120 443 157L513 91Q476 40 421.5 14Q367 -12 298 -12ZM290 426Q239 426 205 394.5Q171 363 160 306H406Q402 363 371 394.5Q340 426 290 426ZM291 504ZM360 0ZM341 587 251 733H130L240 587ZM290 504Z" glyph-name="egrave" horiz-adv-x="563" unicode="&#232;" /><glyph d="M454 363Q509 340 537.5 296Q566 252 566 192Q566 102 495 45Q424 -12 310 -12Q196 -12 125.5 45Q55 102 55 192Q55 249 84.5 293.5Q114 338 170 362Q121 385 95.5 427Q70 469 70 524Q70 605 137 658.5Q204 712 310 712Q417 712 484 658.5Q551 605 551 524Q551 469 526.5 427.5Q502 386 454 363ZM191 511Q191 465 223.5 434Q256 403 310 403Q364 403 396.5 434Q429 465 429 511Q429 560 397.5 587.5Q366 615 310 615Q255 615 223 587.5Q191 560 191 511ZM443 200Q443 248 407 280.5Q371 313 310 313Q249 313 213 280.5Q177 248 177 200Q177 146 212.5 116Q248 86 310 86Q372 86 407.5 116Q443 146 443 200Z" glyph-name="eight" horiz-adv-x="620" unicode="8" /><glyph d="M253 180Q279 168 293 146Q307 124 307 96Q307 51 269.5 22.5Q232 -6 170 -6Q108 -6 70 22Q32 50 32 96Q32 123 46.5 144.5Q61 166 88 179Q64 191 51.5 212Q39 233 39 260Q39 302 75.5 329Q112 356 170 356Q228 356 264 329Q300 302 300 260Q300 233 288 212.5Q276 192 253 180ZM127 248Q127 230 138.5 218Q150 206 170 206Q189 206 200.5 218Q212 230 212 248Q212 267 201 278Q190 289 170 289Q150 289 138.5 278Q127 267 127 248ZM217 105Q217 123 204 135.5Q191 148 170 148Q148 148 135 136Q122 124 122 105Q122 83 134.5 71.5Q147 60 170 60Q192 60 204.5 72Q217 84 217 105Z" glyph-name="eight.denominator" horiz-adv-x="339" unicode="&#63069;" /><glyph d="M253 40Q279 28 293 6Q307 -16 307 -44Q307 -89 269.5 -117.5Q232 -146 170 -146Q108 -146 70 -118Q32 -90 32 -44Q32 -17 46.5 4.5Q61 26 88 39Q64 51 51.5 72Q39 93 39 120Q39 162 75.5 189Q112 216 170 216Q228 216 264 189Q300 162 300 120Q300 93 288 72.5Q276 52 253 40ZM127 108Q127 90 138.5 78Q150 66 170 66Q189 66 200.5 78Q212 90 212 108Q212 127 201 138Q190 149 170 149Q150 149 138.5 138Q127 127 127 108ZM217 -35Q217 -17 204 -4.5Q191 8 170 8Q148 8 135 -4Q122 -16 122 -35Q122 -57 134.5 -68.5Q147 -80 170 -80Q192 -80 204.5 -68Q217 -56 217 -35Z" glyph-name="eight.inferior" horiz-adv-x="339" unicode="&#8328;" /><glyph d="M253 530Q279 518 293 496Q307 474 307 446Q307 401 269.5 372.5Q232 344 170 344Q108 344 70 372Q32 400 32 446Q32 473 46.5 494.5Q61 516 88 529Q64 541 51.5 562Q39 583 39 610Q39 652 75.5 679Q112 706 170 706Q228 706 264 679Q300 652 300 610Q300 583 288 562.5Q276 542 253 530ZM127 598Q127 580 138.5 568Q150 556 170 556Q189 556 200.5 568Q212 580 212 598Q212 617 201 628Q190 639 170 639Q150 639 138.5 628Q127 617 127 598ZM217 455Q217 473 204 485.5Q191 498 170 498Q148 498 135 486Q122 474 122 455Q122 433 134.5 421.5Q147 410 170 410Q192 410 204.5 422Q217 434 217 455Z" glyph-name="eight.numerator" horiz-adv-x="339" unicode="&#63081;" /><glyph d="M253 670Q279 658 293 636Q307 614 307 586Q307 541 269.5 512.5Q232 484 170 484Q108 484 70 512Q32 540 32 586Q32 613 46.5 634.5Q61 656 88 669Q64 681 51.5 702Q39 723 39 750Q39 792 75.5 819Q112 846 170 846Q228 846 264 819Q300 792 300 750Q300 723 288 702.5Q276 682 253 670ZM127 738Q127 720 138.5 708Q150 696 170 696Q189 696 200.5 708Q212 720 212 738Q212 757 201 768Q190 779 170 779Q150 779 138.5 768Q127 757 127 738ZM217 595Q217 613 204 625.5Q191 638 170 638Q148 638 135 626Q122 614 122 595Q122 573 134.5 561.5Q147 550 170 550Q192 550 204.5 562Q217 574 217 595Z" glyph-name="eight.superior" horiz-adv-x="339" unicode="&#8312;" /><glyph d="M451 363Q506 340 534.5 296Q563 252 563 192Q563 102 492 45Q421 -12 307 -12Q193 -12 122.5 45Q52 102 52 192Q52 249 81.5 293.5Q111 338 167 362Q118 385 92.5 427Q67 469 67 524Q67 605 134 658.5Q201 712 307 712Q414 712 481 658.5Q548 605 548 524Q548 469 523.5 427.5Q499 386 451 363ZM188 511Q188 465 220.5 434Q253 403 307 403Q361 403 393.5 434Q426 465 426 511Q426 560 394.5 587.5Q363 615 307 615Q252 615 220 587.5Q188 560 188 511ZM440 200Q440 248 404 280.5Q368 313 307 313Q246 313 210 280.5Q174 248 174 200Q174 146 209.5 116Q245 86 307 86Q369 86 404.5 116Q440 146 440 200Z" glyph-name="eight.tab" horiz-adv-x="614" unicode="&#65304;" /><glyph d="M53 64Q53 32 75.5 10Q98 -12 131 -12Q164 -12 186.5 10Q209 32 209 64Q209 96 186.5 118Q164 140 131 140Q98 140 75.5 118Q53 96 53 64ZM53 65ZM273 64Q273 32 295.5 10Q318 -12 351 -12Q384 -12 406.5 10Q429 32 429 64Q429 96 406.5 118Q384 140 351 140Q318 140 295.5 118Q273 96 273 64ZM273 65ZM492 64Q492 32 514.5 10Q537 -12 570 -12Q603 -12 625.5 10Q648 32 648 64Q648 96 625.5 118Q603 140 570 140Q537 140 514.5 118Q492 96 492 64ZM492 65Z" glyph-name="ellipsis" horiz-adv-x="702" unicode="&#8230;" /><glyph d="M298 -12Q181 -12 111.5 59.5Q42 131 42 252Q42 367 112.5 441.5Q183 516 292 516Q393 516 456 450Q519 384 519 275Q519 264 518 251.5Q517 239 515 224H157Q163 156 202 119Q241 82 304 82Q344 82 379 101Q414 120 443 157L513 91Q476 40 421.5 14Q367 -12 298 -12ZM290 426Q239 426 205 394.5Q171 363 160 306H406Q402 363 371 394.5Q340 426 290 426ZM291 504ZM360 0ZM413 620H167V699H413ZM290 504Z" glyph-name="emacron" horiz-adv-x="563" unicode="&#275;" /><glyph d="M67 211V308H864V211Z" glyph-name="emdash" horiz-adv-x="931" unicode="&#8212;" /><glyph d="M67 211V308H511V211Z" glyph-name="endash" horiz-adv-x="578" unicode="&#8211;" /><glyph d="M304 82Q345 82 378.5 100.5Q412 119 442 158L511 91Q497 71 477.5 53Q458 35 425 14Q384 -12 375 -18.5Q366 -25 359 -31Q342 -47 334 -63.5Q326 -80 326 -100Q326 -128 344.5 -144.5Q363 -161 394 -161Q405 -161 413.5 -159.5Q422 -158 430 -155V-215Q416 -222 400.5 -225.5Q385 -229 364 -229Q308 -229 274 -199.5Q240 -170 240 -121Q240 -91 256.5 -63.5Q273 -36 305 -12Q303 -12 301.5 -12Q300 -12 298 -12Q181 -12 111.5 59.5Q42 131 42 252Q42 367 112.5 441.5Q183 516 291 516Q392 516 454.5 450Q517 384 517 275Q517 261 516 247Q515 233 514 224H157Q163 156 201.5 119Q240 82 304 82ZM290 426Q239 426 205 394.5Q171 363 160 306H404Q400 364 369.5 395Q339 426 290 426Z" glyph-name="eogonek" horiz-adv-x="562" unicode="&#281;" /><glyph d="M65 191V288H522V191ZM65 412V509H522V412Z" glyph-name="equal" horiz-adv-x="587" unicode="=" /><glyph d="M410 48Q483 48 546.5 82.5Q610 117 653 179L701 139Q650 68 573 28Q496 -12 409 -12Q260 -12 154.5 94Q49 200 49 350Q49 500 154.5 606Q260 712 409 712Q565 712 667 604Q769 496 769 326H197V144Q238 98 293.5 73Q349 48 410 48ZM409 652Q348 652 293 628Q238 604 197 559V389H618V562Q578 605 524 628.5Q470 652 409 652Z" glyph-name="estimated" horiz-adv-x="803" unicode="&#8494;" /><glyph d="M43 252Q43 367 108 439Q173 511 277 511Q331 511 375 489.5Q419 468 448 427Q432 469 406 508.5Q380 548 346 584L296 537L247 585L295 632Q272 651 259.5 660Q247 669 235 676L309 747Q342 722 351 714.5Q360 707 368 701L414 744L463 695L419 653Q493 578 527.5 494.5Q562 411 562 291Q562 149 492.5 68.5Q423 -12 301 -12Q186 -12 114.5 61.5Q43 135 43 252ZM444 252Q444 326 404.5 371.5Q365 417 301 417Q238 417 199 371.5Q160 326 160 252Q160 179 199 132.5Q238 86 301 86Q365 86 404.5 132Q444 178 444 252Z" glyph-name="eth" horiz-adv-x="616" unicode="&#240;" /><glyph d="M104 204 76 700H212L184 204ZM67 63Q67 32 89.5 10Q112 -12 144 -12Q176 -12 198 10Q220 32 220 63Q220 94 198 116Q176 138 144 138Q112 138 89.5 116Q67 94 67 63Z" glyph-name="exclam" horiz-adv-x="287" unicode="!" /><glyph d="M97 300 69 -196H205L177 300ZM60 441Q60 472 82.5 494Q105 516 137 516Q169 516 191 494Q213 472 213 441Q213 410 191 388Q169 366 137 366Q105 366 82.5 388Q60 410 60 441Z" glyph-name="exclamdown" horiz-adv-x="274" unicode="&#161;" /><glyph d="M228 0H113V410H29V504H113V551Q113 638 160.5 690Q208 742 294 742Q318 742 341.5 738Q365 734 393 725L372 632Q349 638 335 640.5Q321 643 308 643Q267 643 247.5 620Q228 597 228 545V504H364V410H228Z" glyph-name="f" horiz-adv-x="382" unicode="f" /><glyph d="M228 0H113V410H29V504H113V551Q113 638 160.5 690Q208 742 294 742Q318 742 341.5 738Q365 734 393 725L372 632Q349 638 335 640.5Q321 643 308 643Q267 643 247.5 620Q228 597 228 545V504H364V410H228ZM610 0H495V410H411V504H495V551Q495 638 542.5 690Q590 742 676 742Q700 742 723.5 738Q747 734 775 725L754 632Q731 638 717 640.5Q703 643 690 643Q649 643 629.5 620Q610 597 610 545V504H746V410H610Z" glyph-name="f_f" horiz-adv-x="763" unicode="&#64256;" /><glyph d="M839 0V504H955V0ZM973 672Q973 702 951 723.5Q929 745 897 745Q866 745 844.5 723.5Q823 702 823 672Q823 641 844 620Q865 599 897 599Q930 599 951.5 620Q973 641 973 672ZM912 0ZM228 0H113V410H29V504H113V551Q113 638 160.5 690Q208 742 294 742Q318 742 341.5 738Q365 734 393 725L372 632Q349 638 335 640.5Q321 643 308 643Q267 643 247.5 620Q228 597 228 545V504H364V410H228ZM610 0H495V410H411V504H495V551Q495 638 542.5 690Q590 742 676 742Q700 742 723.5 738Q747 734 775 725L754 632Q731 638 717 640.5Q703 643 690 643Q649 643 629.5 620Q610 597 610 545V504H746V410H610Z" glyph-name="f_f_i" horiz-adv-x="1031" unicode="&#64259;" /><glyph d="M839 0V730H955V0ZM897 730ZM1015 700ZM988 350ZM897 0ZM228 0H113V410H29V504H113V551Q113 638 160.5 690Q208 742 294 742Q318 742 341.5 738Q365 734 393 725L372 632Q349 638 335 640.5Q321 643 308 643Q267 643 247.5 620Q228 597 228 545V504H364V410H228ZM610 0H495V410H411V504H495V551Q495 638 542.5 690Q590 742 676 742Q700 742 723.5 738Q747 734 775 725L754 632Q731 638 717 640.5Q703 643 690 643Q649 643 629.5 620Q610 597 610 545V504H746V410H610Z" glyph-name="f_f_l" horiz-adv-x="1031" unicode="&#64260;" /><glyph d="M458 0V504H574V0ZM592 672Q592 702 570 723.5Q548 745 516 745Q485 745 463.5 723.5Q442 702 442 672Q442 641 463 620Q484 599 516 599Q549 599 570.5 620Q592 641 592 672ZM531 0ZM228 0H113V410H29V504H113V551Q113 638 160.5 690Q208 742 294 742Q318 742 341.5 738Q365 734 393 725L372 632Q349 638 335 640.5Q321 643 308 643Q267 643 247.5 620Q228 597 228 545V504H364V410H228Z" glyph-name="fi" horiz-adv-x="650" unicode="&#64257;" /><glyph d="M326 451Q430 451 491.5 390.5Q553 330 553 234Q553 123 483.5 55.5Q414 -12 297 -12Q206 -12 137.5 26Q69 64 35 135L131 195Q162 140 200.5 115Q239 90 292 90Q357 90 393.5 126.5Q430 163 430 228Q430 286 396 318.5Q362 351 302 351Q261 351 227 335Q193 319 171 290L71 329L122 700H502V595H217L188 410Q219 431 253 441Q287 451 326 451Z" glyph-name="five" horiz-adv-x="595" unicode="5" /><glyph d="M185 229Q239 229 271 198Q303 167 303 120Q303 64 265.5 29Q228 -6 167 -6Q116 -6 79 13Q42 32 22 68L86 112Q99 89 117 78Q135 67 160 67Q185 67 199 80Q213 93 213 117Q213 139 199.5 151Q186 163 163 163Q147 163 134.5 157.5Q122 152 112 140L43 165L66 350H281V278H134L125 212Q138 220 153 224.5Q168 229 185 229Z" glyph-name="five.denominator" horiz-adv-x="331" unicode="&#63066;" /><glyph d="M185 89Q239 89 271 58Q303 27 303 -20Q303 -76 265.5 -111Q228 -146 167 -146Q116 -146 79 -127Q42 -108 22 -72L86 -28Q99 -51 117 -62Q135 -73 160 -73Q185 -73 199 -60Q213 -47 213 -23Q213 -1 199.5 11Q186 23 163 23Q147 23 134.5 17.5Q122 12 112 0L43 25L66 210H281V138H134L125 72Q138 80 153 84.5Q168 89 185 89Z" glyph-name="five.inferior" horiz-adv-x="331" unicode="&#8325;" /><glyph d="M185 579Q239 579 271 548Q303 517 303 470Q303 414 265.5 379Q228 344 167 344Q116 344 79 363Q42 382 22 418L86 462Q99 439 117 428Q135 417 160 417Q185 417 199 430Q213 443 213 467Q213 489 199.5 501Q186 513 163 513Q147 513 134.5 507.5Q122 502 112 490L43 515L66 700H281V628H134L125 562Q138 570 153 574.5Q168 579 185 579Z" glyph-name="five.numerator" horiz-adv-x="331" unicode="&#63078;" /><glyph d="M185 719Q239 719 271 688Q303 657 303 610Q303 554 265.5 519Q228 484 167 484Q116 484 79 503Q42 522 22 558L86 602Q99 579 117 568Q135 557 160 557Q185 557 199 570Q213 583 213 607Q213 629 199.5 641Q186 653 163 653Q147 653 134.5 647.5Q122 642 112 630L43 655L66 840H281V768H134L125 702Q138 710 153 714.5Q168 719 185 719Z" glyph-name="five.superior" horiz-adv-x="331" unicode="&#8309;" /><glyph d="M335 451Q439 451 500.5 390.5Q562 330 562 234Q562 123 492.5 55.5Q423 -12 306 -12Q215 -12 146.5 26Q78 64 44 135L140 195Q171 140 209.5 115Q248 90 301 90Q366 90 402.5 126.5Q439 163 439 228Q439 286 405 318.5Q371 351 311 351Q270 351 236 335Q202 319 180 290L80 329L131 700H511V595H226L197 410Q228 431 262 441Q296 451 335 451Z" glyph-name="five.tab" horiz-adv-x="614" unicode="&#65301;" /><glyph d="M458 0V730H574V0ZM516 730ZM634 700ZM607 350ZM516 0ZM228 0H113V410H29V504H113V551Q113 638 160.5 690Q208 742 294 742Q318 742 341.5 738Q365 734 393 725L372 632Q349 638 335 640.5Q321 643 308 643Q267 643 247.5 620Q228 597 228 545V504H364V410H228Z" glyph-name="fl" horiz-adv-x="650" unicode="&#64258;" /><glyph d="M278 346 232 -39Q220 -137 175 -183.5Q130 -230 50 -230Q26 -230 2.5 -226Q-21 -222 -49 -213L-28 -120Q-2 -127 11 -129Q24 -131 36 -131Q74 -131 92 -112Q110 -93 117 -33L162 346H53V434H173L187 551Q199 649 244 695.5Q289 742 369 742Q393 742 416 738Q439 734 467 725L447 632Q421 639 408 641Q395 643 383 643Q345 643 327 623.5Q309 604 302 545L289 434H411V346Z" glyph-name="florin" horiz-adv-x="477" /><glyph d="M381 260V398L504 440V260H596V156H504V0H381V156H26V244L331 700H472L176 260Z" glyph-name="four" horiz-adv-x="626" unicode="4" /><glyph d="M206 140V194L293 225V140H338V68H293V0H206V68H21V133L170 350H272L125 140Z" glyph-name="four.denominator" horiz-adv-x="360" unicode="&#63065;" /><glyph d="M206 0V54L293 85V0H338V-72H293V-140H206V-72H21V-7L170 210H272L125 0Z" glyph-name="four.inferior" horiz-adv-x="360" unicode="&#8324;" /><glyph d="M206 490V544L293 575V490H338V418H293V350H206V418H21V483L170 700H272L125 490Z" glyph-name="four.numerator" horiz-adv-x="360" unicode="&#63077;" /><glyph d="M206 630V684L293 715V630H338V558H293V490H206V558H21V623L170 840H272L125 630Z" glyph-name="four.superior" horiz-adv-x="360" unicode="&#8308;" /><glyph d="M375 260V398L498 440V260H590V156H498V0H375V156H20V244L325 700H466L170 260Z" glyph-name="four.tab" horiz-adv-x="614" unicode="&#65300;" /><glyph d="M-53 0H-140L210 700H297Z" glyph-name="fraction" horiz-adv-x="160" unicode="&#8260;" /><glyph d="M97 0V700H533V593H219V394H503V289H219V0ZM566 0V504H675V406Q697 456 731.5 482Q766 508 811 508Q822 508 833 507Q844 506 854 504L844 400Q834 402 826 402.5Q818 403 810 403Q749 403 715 353Q681 303 681 212V0Z" glyph-name="franc" horiz-adv-x="886" unicode="&#8355;" /><glyph d="M574 -46Q574 -130 494.5 -180Q415 -230 283 -230Q157 -230 88.5 -195Q20 -160 20 -95Q20 -60 43.5 -34Q67 -8 111 6Q84 21 69 44.5Q54 68 54 94Q54 128 75 153Q96 178 137 194Q102 219 82.5 255Q63 291 63 333Q63 411 125.5 463.5Q188 516 280 516Q329 516 371.5 500.5Q414 485 444 456Q466 483 498 496Q530 509 573 509V412Q545 412 523 407.5Q501 403 485 394Q492 378 495 363Q498 348 498 333Q498 255 435.5 203Q373 151 280 151Q260 151 239.5 154.5Q219 158 200 164Q180 158 169.5 147.5Q159 137 159 124Q159 105 171.5 96.5Q184 88 213 88H396Q482 88 528 53Q574 18 574 -46ZM386 334Q386 379 357 405.5Q328 432 280 432Q233 432 204 405.5Q175 379 175 334Q175 288 204 261Q233 234 280 234Q328 234 357 261Q386 288 386 334ZM126 -77Q126 -113 166 -130.5Q206 -148 287 -148Q371 -148 418.5 -126.5Q466 -105 466 -66Q466 -41 448 -28.5Q430 -16 394 -16H245Q186 -16 156 -31.5Q126 -47 126 -77ZM279 504Z" glyph-name="g" horiz-adv-x="589" unicode="g" /><glyph d="M574 -46Q574 -130 494.5 -180Q415 -230 283 -230Q157 -230 88.5 -195Q20 -160 20 -95Q20 -60 43.5 -34Q67 -8 111 6Q84 21 69 44.5Q54 68 54 94Q54 128 75 153Q96 178 137 194Q102 219 82.5 255Q63 291 63 333Q63 411 125.5 463.5Q188 516 280 516Q329 516 371.5 500.5Q414 485 444 456Q466 483 498 496Q530 509 573 509V412Q545 412 523 407.5Q501 403 485 394Q492 378 495 363Q498 348 498 333Q498 255 435.5 203Q373 151 280 151Q260 151 239.5 154.5Q219 158 200 164Q180 158 169.5 147.5Q159 137 159 124Q159 105 171.5 96.5Q184 88 213 88H396Q482 88 528 53Q574 18 574 -46ZM386 334Q386 379 357 405.5Q328 432 280 432Q233 432 204 405.5Q175 379 175 334Q175 288 204 261Q233 234 280 234Q328 234 357 261Q386 288 386 334ZM126 -77Q126 -113 166 -130.5Q206 -148 287 -148Q371 -148 418.5 -126.5Q466 -105 466 -66Q466 -41 448 -28.5Q430 -16 394 -16H245Q186 -16 156 -31.5Q126 -47 126 -77ZM279 504ZM279 656Q308 656 322.5 673Q337 690 341 733H420Q419 665 382 625Q345 585 278 585Q212 585 175 625Q138 665 137 733H218Q221 691 235.5 673.5Q250 656 279 656ZM278 504Z" glyph-name="gbreve" horiz-adv-x="589" unicode="&#287;" /><glyph d="M122 587 214 733H343L435 587H339L278 667L216 587ZM278 504ZM574 -46Q574 -130 494.5 -180Q415 -230 283 -230Q157 -230 88.5 -195Q20 -160 20 -95Q20 -60 43.5 -34Q67 -8 111 6Q84 21 69 44.5Q54 68 54 94Q54 128 75 153Q96 178 137 194Q102 219 82.5 255Q63 291 63 333Q63 411 125.5 463.5Q188 516 280 516Q329 516 371.5 500.5Q414 485 444 456Q466 483 498 496Q530 509 573 509V412Q545 412 523 407.5Q501 403 485 394Q492 378 495 363Q498 348 498 333Q498 255 435.5 203Q373 151 280 151Q260 151 239.5 154.5Q219 158 200 164Q180 158 169.5 147.5Q159 137 159 124Q159 105 171.5 96.5Q184 88 213 88H396Q482 88 528 53Q574 18 574 -46ZM386 334Q386 379 357 405.5Q328 432 280 432Q233 432 204 405.5Q175 379 175 334Q175 288 204 261Q233 234 280 234Q328 234 357 261Q386 288 386 334ZM126 -77Q126 -113 166 -130.5Q206 -148 287 -148Q371 -148 418.5 -126.5Q466 -105 466 -66Q466 -41 448 -28.5Q430 -16 394 -16H245Q186 -16 156 -31.5Q126 -47 126 -77ZM279 504Z" glyph-name="gcircumflex" horiz-adv-x="589" unicode="&#285;" /><glyph d="M574 -46Q574 -130 494.5 -180Q415 -230 283 -230Q157 -230 88.5 -195Q20 -160 20 -95Q20 -60 43.5 -34Q67 -8 111 6Q84 21 69 44.5Q54 68 54 94Q54 128 75 153Q96 178 137 194Q102 219 82.5 255Q63 291 63 333Q63 411 125.5 463.5Q188 516 280 516Q329 516 371.5 500.5Q414 485 444 456Q466 483 498 496Q530 509 573 509V412Q545 412 523 407.5Q501 403 485 394Q492 378 495 363Q498 348 498 333Q498 255 435.5 203Q373 151 280 151Q260 151 239.5 154.5Q219 158 200 164Q180 158 169.5 147.5Q159 137 159 124Q159 105 171.5 96.5Q184 88 213 88H396Q482 88 528 53Q574 18 574 -46ZM386 334Q386 379 357 405.5Q328 432 280 432Q233 432 204 405.5Q175 379 175 334Q175 288 204 261Q233 234 280 234Q328 234 357 261Q386 288 386 334ZM126 -77Q126 -113 166 -130.5Q206 -148 287 -148Q371 -148 418.5 -126.5Q466 -105 466 -66Q466 -41 448 -28.5Q430 -16 394 -16H245Q186 -16 156 -31.5Q126 -47 126 -77ZM279 504ZM204 660Q204 630 226 608.5Q248 587 278 587Q309 587 331 608.5Q353 630 353 660Q353 690 331 711Q309 732 278 732Q248 732 226 711Q204 690 204 660ZM278 504Z" glyph-name="gdotaccent" horiz-adv-x="589" unicode="&#289;" /><glyph d="M407 547Q407 591 379.5 617Q352 643 304 643Q250 643 221 609Q192 575 192 514V0H76V520Q76 619 138 680.5Q200 742 309 742Q407 742 465 692Q523 642 523 560Q523 509 496.5 465Q470 421 424 396Q485 377 521 329Q557 281 557 218Q557 122 491 61Q425 0 317 0H279V98H315Q372 98 405.5 133Q439 168 439 226Q439 275 406.5 304.5Q374 334 319 334H279V431H298Q348 431 377.5 463Q407 495 407 547Z" glyph-name="germandbls" horiz-adv-x="598" unicode="&#223;" /><glyph d="M305 587 215 733H94L204 587ZM254 504Z" glyph-name="grave" horiz-adv-x="394" unicode="`" /><glyph d="M305 787 215 933H94L204 787ZM254 700Z" glyph-name="grave.case" horiz-adv-x="394" /><glyph d="M539 388V295L89 91V204L401 340L89 476V592Z" glyph-name="greater" horiz-adv-x="587" unicode="&gt;" /><glyph d="M77 158 527 348V442L77 632V519L380 397L77 274ZM527 0V97H77V0Z" glyph-name="greaterequal" horiz-adv-x="587" unicode="&#8805;" /><glyph d="M45 292 265 463V338L136 244L265 153V29L45 199ZM269 292 489 463V338L360 244L489 153V29L269 199Z" glyph-name="guillemotleft" horiz-adv-x="554" /><glyph d="M285 298 65 469V344L194 250L65 159V35L285 205ZM509 298 289 469V344L418 250L289 159V35L509 205Z" glyph-name="guillemotright" horiz-adv-x="553" /><glyph d="M45 292 265 463V338L136 244L265 153V29L45 199Z" glyph-name="guilsinglleft" horiz-adv-x="330" unicode="&#8249;" /><glyph d="M284 200 64 29V154L193 248L64 339V463L284 293Z" glyph-name="guilsinglright" horiz-adv-x="329" unicode="&#8250;" /><glyph d="M533 322V0H418V296Q418 358 393 386.5Q368 415 317 415Q258 415 225 371Q192 327 192 251V0H76V730H192V436Q219 476 258 496Q297 516 348 516Q432 516 482.5 461Q533 406 533 322ZM134 730Z" glyph-name="h" horiz-adv-x="604" unicode="h" /><glyph d="M533 322V0H418V296Q418 358 393 386.5Q368 415 317 415Q258 415 225 371Q192 327 192 251V0H76V575H5V663H76V730H192V663H335V575H192V436Q219 476 258 496Q297 516 348 516Q432 516 482.5 461Q533 406 533 322Z" glyph-name="hbar" horiz-adv-x="604" unicode="&#295;" /><glyph d="M-22 813 70 959H199L291 813H195L134 893L72 813ZM134 730ZM533 322V0H418V296Q418 358 393 386.5Q368 415 317 415Q258 415 225 371Q192 327 192 251V0H76V730H192V436Q219 476 258 496Q297 516 348 516Q432 516 482.5 461Q533 406 533 322ZM134 730Z" glyph-name="hcircumflex" horiz-adv-x="604" unicode="&#293;" /><glyph d="M209 733H97L12 587H103ZM381 733H263L148 587H244ZM137 504Z" glyph-name="hungarumlaut" horiz-adv-x="410" unicode="&#733;" /><glyph d="M209 933H97L12 787H103ZM381 933H263L148 787H244ZM141 700Z" glyph-name="hungarumlaut.case" horiz-adv-x="410" /><glyph d="M67 209V309H335V209Z" glyph-name="hyphen" horiz-adv-x="402" unicode="-" /><glyph d="M76 0V504H192V0ZM210 672Q210 702 188 723.5Q166 745 134 745Q103 745 81.5 723.5Q60 702 60 672Q60 641 81 620Q102 599 134 599Q167 599 188.5 620Q210 641 210 672ZM149 0Z" glyph-name="i" horiz-adv-x="268" unicode="i" /><glyph d="M296 733H174L84 587H186ZM134 504ZM76 0V504H192V0ZM134 504Z" glyph-name="iacute" horiz-adv-x="268" unicode="&#237;" /><glyph d="M-22 587 70 733H199L291 587H195L134 667L72 587ZM134 504ZM76 0V504H192V0ZM134 504Z" glyph-name="icircumflex" horiz-adv-x="268" unicode="&#238;" /><glyph d="M-18 660Q-18 633 1 614Q20 595 46 595Q73 595 92.5 614Q112 633 112 660Q112 686 92.5 705.5Q73 725 46 725Q20 725 1 705.5Q-18 686 -18 660ZM158 660Q158 633 177 614Q196 595 223 595Q250 595 269 614Q288 633 288 660Q288 686 268.5 705.5Q249 725 223 725Q196 725 177 706Q158 687 158 660ZM134 504ZM76 0V504H192V0ZM134 504Z" glyph-name="idieresis" horiz-adv-x="268" unicode="&#239;" /><glyph d="M76 0V504H192V0ZM134 504ZM185 587 95 733H-26L84 587ZM134 504Z" glyph-name="igrave" horiz-adv-x="268" unicode="&#236;" /><glyph d="M76 0V504H192V0ZM210 672Q210 702 188 723.5Q166 745 134 745Q103 745 81.5 723.5Q60 702 60 672Q60 641 81 620Q102 599 134 599Q167 599 188.5 620Q210 641 210 672ZM149 0ZM482 672Q482 702 460 723.5Q438 745 406 745Q375 745 353.5 723.5Q332 702 332 672Q332 641 353 620Q374 599 406 599Q439 599 460.5 620Q482 641 482 672ZM348 504H464V-44Q464 -135 421.5 -182.5Q379 -230 296 -230Q271 -230 249.5 -227Q228 -224 211 -218L231 -121Q245 -125 258 -126.5Q271 -128 284 -128Q319 -128 333.5 -107.5Q348 -87 348 -34Z" glyph-name="ij" horiz-adv-x="540" unicode="&#307;" /><glyph d="M76 0V504H192V0ZM134 504ZM257 620H11V699H257ZM134 504Z" glyph-name="imacron" horiz-adv-x="268" unicode="&#299;" /><glyph d="M609 435Q683 435 729 386.5Q775 338 775 260Q775 182 729 133.5Q683 85 609 85Q561 85 514.5 111Q468 137 410 197Q356 136 311.5 110.5Q267 85 219 85Q145 85 99 133.5Q53 182 53 260Q53 338 99 386.5Q145 435 219 435Q269 435 316.5 408Q364 381 416 324Q470 383 515 409Q560 435 609 435ZM222 339Q189 339 169.5 317.5Q150 296 150 260Q150 224 169.5 202.5Q189 181 222 181Q252 181 283 198Q314 215 357 258Q317 301 285 320Q253 339 222 339ZM678 260Q678 296 658.5 317.5Q639 339 606 339Q575 339 543 321.5Q511 304 471 264Q507 222 540.5 201.5Q574 181 606 181Q639 181 658.5 202.5Q678 224 678 260Z" glyph-name="infinity" horiz-adv-x="828" unicode="&#8734;" /><glyph d="M271 545V-39Q271 -125 222.5 -177.5Q174 -230 88 -230Q64 -230 41 -226Q18 -222 -10 -213L10 -120Q36 -127 49 -129Q62 -131 74 -131Q116 -131 136 -108Q156 -85 156 -33V551Q156 638 203.5 690Q251 742 337 742Q361 742 384.5 738Q408 734 436 725L415 632Q389 639 376 641Q363 643 351 643Q310 643 290.5 620Q271 597 271 545Z" glyph-name="integral" horiz-adv-x="427" unicode="&#8747;" /><glyph d="M60 672Q60 702 81.5 723.5Q103 745 134 745Q166 745 188 723.5Q210 702 210 672Q210 641 188.5 620Q167 599 134 599Q102 599 81 620Q60 641 60 672ZM76 504H192V0H146Q112 -15 93 -42.5Q74 -70 74 -101Q74 -129 90.5 -145Q107 -161 134 -161Q143 -161 150.5 -159.5Q158 -158 166 -155V-215Q152 -222 136.5 -225.5Q121 -229 100 -229Q50 -229 19 -201Q-12 -173 -12 -126Q-12 -87 12 -52.5Q36 -18 76 0Z" glyph-name="iogonek" horiz-adv-x="268" unicode="&#303;" /><glyph d="M76 0V504H192V0ZM134 504ZM214 602Q256 602 276 634.5Q296 667 287 720H216Q217 702 212 695Q207 688 193 688Q185 688 175 690.5Q165 693 143 701Q116 711 101.5 714.5Q87 718 74 718Q29 718 5 685Q-19 652 -13 598H60Q61 617 69 625.5Q77 634 93 634Q103 634 115 631Q127 628 150 619Q175 608 188.5 605Q202 602 214 602ZM134 504Z" glyph-name="itilde" horiz-adv-x="268" unicode="&#297;" /><glyph d="M214 672Q214 702 192 723.5Q170 745 138 745Q107 745 85.5 723.5Q64 702 64 672Q64 641 85 620Q106 599 138 599Q171 599 192.5 620Q214 641 214 672ZM80 504H196V-44Q196 -135 153.5 -182.5Q111 -230 28 -230Q3 -230 -18.5 -227Q-40 -224 -57 -218L-37 -121Q-23 -125 -10 -126.5Q3 -128 16 -128Q51 -128 65.5 -107.5Q80 -87 80 -34Z" glyph-name="j" horiz-adv-x="272" unicode="j" /><glyph d="M-18 587 74 733H203L295 587H199L138 667L76 587ZM138 504ZM80 504H196V-44Q196 -135 153.5 -182.5Q111 -230 28 -230Q6 -230 -16 -227Q-38 -224 -57 -218L-37 -121Q-23 -125 -10 -126.5Q3 -128 16 -128Q51 -128 65.5 -107.5Q80 -87 80 -34ZM138 504Z" glyph-name="jcircumflex" horiz-adv-x="272" unicode="&#309;" /><glyph d="M347 311 554 0H417L262 237L192 166V0H76V730H192V298L395 504H541ZM302 0Z" glyph-name="k" horiz-adv-x="560" unicode="k" /><glyph d="M76 0V504H192V298L395 504H541L347 311L554 0H417L262 237L192 166V0Z" glyph-name="kgreenlandic" horiz-adv-x="560" /><glyph d="M76 0V730H192V0ZM134 730ZM252 700ZM225 350ZM134 0Z" glyph-name="l" horiz-adv-x="268" unicode="l" /><glyph d="M296 959H174L84 813H186ZM134 730ZM76 0V730H192V0ZM134 730ZM252 700ZM225 350ZM134 0Z" glyph-name="lacute" horiz-adv-x="268" unicode="&#314;" /><glyph d="M397 730H289L258 560H339ZM252 700ZM76 0V730H192V0ZM134 730ZM252 700ZM225 350ZM134 0Z" glyph-name="lcaron" horiz-adv-x="288" unicode="&#318;" /><glyph d="M76 0V730H192V0ZM134 730ZM252 700ZM225 350ZM134 0ZM232 359Q232 327 254.5 305Q277 283 310 283Q343 283 365.5 305Q388 327 388 359Q388 391 365.5 413Q343 435 310 435Q277 435 254.5 413Q232 391 232 359ZM232 360Z" glyph-name="ldot" horiz-adv-x="353" unicode="&#320;" /><glyph d="M48 295V388L498 592V479L186 343L498 207V91Z" glyph-name="less" horiz-adv-x="587" unicode="&lt;" /><glyph d="M510 158 60 348V442L510 632V519L207 397L510 274ZM60 0V97H510V0Z" glyph-name="lessequal" horiz-adv-x="587" unicode="&#8804;" /><glyph d="M76 0V730H192V0ZM134 730ZM252 700ZM225 350ZM134 0ZM429 0V730H545V0ZM487 730ZM605 700ZM578 350ZM487 0ZM232 359Q232 327 254.5 305Q277 283 310 283Q343 283 365.5 305Q388 327 388 359Q388 391 365.5 413Q343 435 310 435Q277 435 254.5 413Q232 391 232 359ZM232 360Z" glyph-name="lgeminada" horiz-adv-x="621" /><glyph d="M57 302V399H514V122H417V302Z" glyph-name="logicalnot" horiz-adv-x="587" unicode="&#172;" /><glyph d="M228 0H113V410H29V504H113V551Q113 638 160.5 690Q208 742 294 742Q318 742 341.5 738Q365 734 393 725L372 632Q349 638 335 640.5Q321 643 308 643Q267 643 247.5 620Q228 597 228 545Z" glyph-name="longs" horiz-adv-x="324" unicode="&#383;" /><glyph d="M228 0H113V410H29V504H113V551Q113 638 160.5 690Q208 742 294 742Q318 742 341.5 738Q365 734 393 725L372 632Q349 638 335 640.5Q321 643 308 643Q267 643 247.5 620Q228 597 228 545ZM432 410H348V504H432V661L547 700V504H695V410H547V164Q547 122 564.5 104.5Q582 87 620 87Q639 87 656 92.5Q673 98 700 114L734 29Q707 9 674 -1.5Q641 -12 605 -12Q519 -12 475.5 29Q432 70 432 149ZM605 713ZM582 10ZM505 0Z" glyph-name="longs_t" horiz-adv-x="744" unicode="&#64261;" /><glyph d="M235 0 35 364 239 700H330L533 364L334 0ZM285 581 154 362 285 119 414 362Z" glyph-name="lozenge" horiz-adv-x="568" unicode="&#9674;" /><glyph d="M61 241 16 318 133 387V730H249V456L331 504L375 426L249 352V0H133V283Z" glyph-name="lslash" horiz-adv-x="382" unicode="&#322;" /><glyph d="M513 252V0H397V296Q397 357 374.5 386Q352 415 306 415Q253 415 222.5 371Q192 327 192 252V0H76V504H186V432Q211 474 249.5 495Q288 516 338 516Q393 516 434 488.5Q475 461 495 411Q520 463 561.5 489.5Q603 516 659 516Q738 516 785.5 460.5Q833 405 833 322V0H718V296Q718 357 695.5 386Q673 415 627 415Q573 415 543 371.5Q513 328 513 252Z" glyph-name="m" horiz-adv-x="904" unicode="m" /><glyph d="M321 620H75V699H321ZM198 504Z" glyph-name="macron" horiz-adv-x="395" unicode="&#175;" /><glyph d="M321 820H75V899H321ZM198 700Z" glyph-name="macron.case" horiz-adv-x="395" /><glyph d="M65 302V399H522V302Z" glyph-name="minus" horiz-adv-x="587" unicode="&#8722;" /><glyph d="M83 -218V504H198V195Q198 140 222 114.5Q246 89 295 89Q351 89 383 132.5Q415 176 415 252V504H530V0H421V75Q395 32 355 10Q315 -12 264 -12Q243 -12 223.5 -7.5Q204 -3 188 6L198 -78V-218Z" glyph-name="mu" horiz-adv-x="614" unicode="&#181;" /><glyph d="M148 135 79 204 225 350 79 496 148 565 293 419 439 565 508 496 362 350 508 204 439 135 293 281Z" glyph-name="multiply" horiz-adv-x="587" unicode="&#215;" /><glyph d="M76 0V504H186V427Q213 471 254 493.5Q295 516 348 516Q432 516 482.5 461Q533 406 533 322V0H418V296Q418 358 393 386.5Q368 415 317 415Q258 415 225 371Q192 327 192 251V0ZM76 584ZM316 504ZM304 0Z" glyph-name="n" horiz-adv-x="604" unicode="n" /><glyph d="M478 733H356L266 587H368ZM316 504ZM76 0V504H186V427Q213 471 254 493.5Q295 516 348 516Q432 516 482.5 461Q533 406 533 322V0H418V296Q418 358 393 386.5Q368 415 317 415Q258 415 225 371Q192 327 192 251V0ZM76 584ZM316 504ZM304 0Z" glyph-name="nacute" horiz-adv-x="604" unicode="&#324;" /><glyph d="M161 731H46L-2 567H95ZM104 794ZM76 584ZM76 0V504H186V427Q213 471 254 493.5Q295 516 348 516Q432 516 482.5 461Q533 406 533 322V0H418V296Q418 358 393 386.5Q368 415 317 415Q258 415 225 371Q192 327 192 251V0ZM76 584ZM316 504ZM304 0Z" glyph-name="napostrophe" horiz-adv-x="604" unicode="&#329;" /><glyph d="M374 587H245L153 733H249L310 653L372 733H466ZM309 504ZM76 0V504H186V427Q213 471 254 493.5Q295 516 348 516Q432 516 482.5 461Q533 406 533 322V0H418V296Q418 358 393 386.5Q368 415 317 415Q258 415 225 371Q192 327 192 251V0ZM76 584ZM316 504ZM304 0Z" glyph-name="ncaron" horiz-adv-x="604" unicode="&#328;" /><glyph d="M251 254Q153 254 92 315.5Q31 377 31 476Q31 578 103 645Q175 712 285 712Q396 712 467 648Q538 584 538 483Q538 435 519.5 381Q501 327 464 265L304 0H166L322 252Q325 257 329 263.5Q333 270 333 271Q314 262 294 258Q274 254 251 254ZM286 348Q345 348 381.5 385Q418 422 418 482Q418 539 380.5 576Q343 613 285 613Q227 613 189.5 576Q152 539 152 482Q152 421 188.5 384.5Q225 348 286 348Z" glyph-name="nine" horiz-adv-x="584" unicode="9" /><glyph d="M131 123Q82 123 52 153.5Q22 184 22 233Q22 287 61 321.5Q100 356 162 356Q222 356 261 323.5Q300 291 300 240Q300 214 291.5 187Q283 160 265 131L185 0H84L163 127Q156 125 148.5 124Q141 123 131 123ZM162 186Q184 186 197 200.5Q210 215 210 238Q210 260 196.5 274Q183 288 162 288Q140 288 125.5 274Q111 260 111 238Q111 215 125 200.5Q139 186 162 186Z" glyph-name="nine.denominator" horiz-adv-x="329" unicode="&#63070;" /><glyph d="M131 -17Q82 -17 52 13.5Q22 44 22 93Q22 147 61 181.5Q100 216 162 216Q222 216 261 183.5Q300 151 300 100Q300 74 291.5 47Q283 20 265 -9L185 -140H84L163 -13Q156 -15 148.5 -16Q141 -17 131 -17ZM162 46Q184 46 197 60.5Q210 75 210 98Q210 120 196.5 134Q183 148 162 148Q140 148 125.5 134Q111 120 111 98Q111 75 125 60.5Q139 46 162 46Z" glyph-name="nine.inferior" horiz-adv-x="329" unicode="&#8329;" /><glyph d="M131 473Q82 473 52 503.5Q22 534 22 583Q22 637 61 671.5Q100 706 162 706Q222 706 261 673.5Q300 641 300 590Q300 564 291.5 537Q283 510 265 481L185 350H84L163 477Q156 475 148.5 474Q141 473 131 473ZM162 536Q184 536 197 550.5Q210 565 210 588Q210 610 196.5 624Q183 638 162 638Q140 638 125.5 624Q111 610 111 588Q111 565 125 550.5Q139 536 162 536Z" glyph-name="nine.numerator" horiz-adv-x="329" unicode="&#63082;" /><glyph d="M131 613Q82 613 52 643.5Q22 674 22 723Q22 777 61 811.5Q100 846 162 846Q222 846 261 813.5Q300 781 300 730Q300 704 291.5 677Q283 650 265 621L185 490H84L163 617Q156 615 148.5 614Q141 613 131 613ZM162 676Q184 676 197 690.5Q210 705 210 728Q210 750 196.5 764Q183 778 162 778Q140 778 125.5 764Q111 750 111 728Q111 705 125 690.5Q139 676 162 676Z" glyph-name="nine.superior" horiz-adv-x="329" unicode="&#8313;" /><glyph d="M266 254Q168 254 107 315.5Q46 377 46 476Q46 578 118 645Q190 712 300 712Q411 712 482 648Q553 584 553 483Q553 435 534.5 381Q516 327 479 265L319 0H181L337 252Q340 257 344 263.5Q348 270 348 271Q329 262 309 258Q289 254 266 254ZM301 348Q360 348 396.5 385Q433 422 433 482Q433 539 395.5 576Q358 613 300 613Q242 613 204.5 576Q167 539 167 482Q167 421 203.5 384.5Q240 348 301 348Z" glyph-name="nine.tab" horiz-adv-x="614" unicode="&#65305;" /><glyph d="M217 109H118L161 191H65V288H211L276 412H65V509H327L370 592H469L426 509H522V412H375L310 288H522V191H260Z" glyph-name="notequal" horiz-adv-x="587" unicode="&#8800;" /><glyph d="M76 0V504H186V427Q213 471 254 493.5Q295 516 348 516Q432 516 482.5 461Q533 406 533 322V0H418V296Q418 358 393 386.5Q368 415 317 415Q258 415 225 371Q192 327 192 251V0ZM76 584ZM316 504ZM304 0ZM396 602Q438 602 458 634.5Q478 667 469 720H398Q399 702 394 695Q389 688 375 688Q367 688 357 690.5Q347 693 325 701Q298 711 283.5 714.5Q269 718 256 718Q211 718 187 685Q163 652 169 598H242Q243 617 251 625.5Q259 634 275 634Q285 634 297 631Q309 628 332 619Q357 608 370.5 605Q384 602 396 602ZM316 504Z" glyph-name="ntilde" horiz-adv-x="604" unicode="&#241;" /><glyph d="M258 197V0H165V197H52V284H165V425H52V512H165V700H258V512H387V700H481V512H592V425H481V284H592V197H481V0H387V197ZM258 425V284H387V425Z" glyph-name="numbersign" horiz-adv-x="645" unicode="#" /><glyph d="M42 252Q42 369 114 442.5Q186 516 301 516Q416 516 488.5 442.5Q561 369 561 252Q561 135 488.5 61.5Q416 -12 301 -12Q186 -12 114 61.5Q42 135 42 252ZM444 252Q444 326 404.5 372Q365 418 301 418Q237 418 198 372Q159 326 159 252Q159 179 198.5 132.5Q238 86 301 86Q365 86 404.5 132Q444 178 444 252ZM301 504Z" glyph-name="o" horiz-adv-x="603" unicode="o" /><glyph d="M463 733H341L251 587H353ZM301 504ZM42 252Q42 369 114 442.5Q186 516 301 516Q416 516 488.5 442.5Q561 369 561 252Q561 135 488.5 61.5Q416 -12 301 -12Q186 -12 114 61.5Q42 135 42 252ZM444 252Q444 326 404.5 372Q365 418 301 418Q237 418 198 372Q159 326 159 252Q159 179 198.5 132.5Q238 86 301 86Q365 86 404.5 132Q444 178 444 252ZM301 504Z" glyph-name="oacute" horiz-adv-x="603" unicode="&#243;" /><glyph d="M42 252Q42 369 114 442.5Q186 516 301 516Q416 516 488.5 442.5Q561 369 561 252Q561 135 488.5 61.5Q416 -12 301 -12Q186 -12 114 61.5Q42 135 42 252ZM444 252Q444 326 404.5 372Q365 418 301 418Q237 418 198 372Q159 326 159 252Q159 179 198.5 132.5Q238 86 301 86Q365 86 404.5 132Q444 178 444 252ZM301 504ZM302 656Q331 656 345.5 673Q360 690 364 733H443Q442 665 405 625Q368 585 301 585Q235 585 198 625Q161 665 160 733H241Q244 691 258.5 673.5Q273 656 302 656ZM301 504Z" glyph-name="obreve" horiz-adv-x="603" unicode="&#335;" /><glyph d="M145 587 237 733H366L458 587H362L301 667L239 587ZM301 504ZM42 252Q42 369 114 442.5Q186 516 301 516Q416 516 488.5 442.5Q561 369 561 252Q561 135 488.5 61.5Q416 -12 301 -12Q186 -12 114 61.5Q42 135 42 252ZM444 252Q444 326 404.5 372Q365 418 301 418Q237 418 198 372Q159 326 159 252Q159 179 198.5 132.5Q238 86 301 86Q365 86 404.5 132Q444 178 444 252ZM301 504Z" glyph-name="ocircumflex" horiz-adv-x="603" unicode="&#244;" /><glyph d="M149 660Q149 633 168 614Q187 595 213 595Q240 595 259.5 614Q279 633 279 660Q279 686 259.5 705.5Q240 725 213 725Q187 725 168 705.5Q149 686 149 660ZM325 660Q325 633 344 614Q363 595 390 595Q417 595 436 614Q455 633 455 660Q455 686 435.5 705.5Q416 725 390 725Q363 725 344 706Q325 687 325 660ZM301 504ZM42 252Q42 369 114 442.5Q186 516 301 516Q416 516 488.5 442.5Q561 369 561 252Q561 135 488.5 61.5Q416 -12 301 -12Q186 -12 114 61.5Q42 135 42 252ZM444 252Q444 326 404.5 372Q365 418 301 418Q237 418 198 372Q159 326 159 252Q159 179 198.5 132.5Q238 86 301 86Q365 86 404.5 132Q444 178 444 252ZM301 504Z" glyph-name="odieresis" horiz-adv-x="603" unicode="&#246;" /><glyph d="M43 252Q43 369 113 442.5Q183 516 295 516Q363 516 418 485Q473 454 505 398Q536 454 588.5 485Q641 516 705 516Q803 516 863.5 450Q924 384 924 275Q924 264 923 251.5Q922 239 920 224H564Q570 156 608 119Q646 82 710 82Q752 82 786 101Q820 120 848 158L918 91Q881 40 829 14Q777 -12 711 -12Q641 -12 587.5 17.5Q534 47 503 103Q471 48 416.5 18Q362 -12 295 -12Q183 -12 113 61.5Q43 135 43 252ZM696 426Q645 426 611 394.5Q577 363 567 306H811Q807 363 776.5 394.5Q746 426 696 426ZM445 252Q445 326 405.5 372Q366 418 302 418Q238 418 199 372Q160 326 160 252Q160 179 199.5 132.5Q239 86 302 86Q365 86 405 132.5Q445 179 445 252Z" glyph-name="oe" horiz-adv-x="968" unicode="&#339;" /><glyph d="M236 -229Q186 -229 155.5 -201Q125 -173 125 -126Q125 -87 148.5 -52.5Q172 -18 213 0H282Q248 -15 229.5 -42Q211 -69 211 -101Q211 -129 227.5 -145Q244 -161 270 -161Q279 -161 286.5 -159.5Q294 -158 302 -155V-215Q290 -222 274.5 -225.5Q259 -229 236 -229ZM246 0Z" glyph-name="ogonek" horiz-adv-x="394" unicode="&#731;" /><glyph d="M42 252Q42 369 114 442.5Q186 516 301 516Q416 516 488.5 442.5Q561 369 561 252Q561 135 488.5 61.5Q416 -12 301 -12Q186 -12 114 61.5Q42 135 42 252ZM444 252Q444 326 404.5 372Q365 418 301 418Q237 418 198 372Q159 326 159 252Q159 179 198.5 132.5Q238 86 301 86Q365 86 404.5 132Q444 178 444 252ZM301 504ZM352 587 262 733H141L251 587ZM301 504Z" glyph-name="ograve" horiz-adv-x="603" unicode="&#242;" /><glyph d="M373 733H261L176 587H267ZM545 733H427L312 587H408ZM301 504ZM42 252Q42 369 114 442.5Q186 516 301 516Q416 516 488.5 442.5Q561 369 561 252Q561 135 488.5 61.5Q416 -12 301 -12Q186 -12 114 61.5Q42 135 42 252ZM444 252Q444 326 404.5 372Q365 418 301 418Q237 418 198 372Q159 326 159 252Q159 179 198.5 132.5Q238 86 301 86Q365 86 404.5 132Q444 178 444 252ZM301 504Z" glyph-name="ohungarumlaut" horiz-adv-x="603" unicode="&#337;" /><glyph d="M424 620H178V699H424ZM301 504ZM42 252Q42 369 114 442.5Q186 516 301 516Q416 516 488.5 442.5Q561 369 561 252Q561 135 488.5 61.5Q416 -12 301 -12Q186 -12 114 61.5Q42 135 42 252ZM444 252Q444 326 404.5 372Q365 418 301 418Q237 418 198 372Q159 326 159 252Q159 179 198.5 132.5Q238 86 301 86Q365 86 404.5 132Q444 178 444 252ZM301 504Z" glyph-name="omacron" horiz-adv-x="603" unicode="&#333;" /><glyph d="M78 0V104H225V535Q192 511 146.5 499Q101 487 46 487V593Q120 593 171.5 621Q223 649 246 700H347V104H495V0Z" glyph-name="one" horiz-adv-x="514" unicode="1" /><glyph d="M227 700H329V0H206V535Q173 511 127.5 499Q82 487 27 487V593Q101 593 153 621.5Q205 650 227 700Z" glyph-name="one.alt" horiz-adv-x="421" /><glyph d="M45 0V72H120V250Q102 239 79 233Q56 227 30 227V300Q68 300 96.5 314Q125 328 136 350H210V72H285V0Z" glyph-name="one.denominator" horiz-adv-x="304" unicode="&#63062;" /><glyph d="M45 -140V-68H120V110Q102 99 79 93Q56 87 30 87V160Q68 160 96.5 174Q125 188 136 210H210V-68H285V-140Z" glyph-name="one.inferior" horiz-adv-x="304" unicode="&#8321;" /><glyph d="M45 350V422H120V600Q102 589 79 583Q56 577 30 577V650Q68 650 96.5 664Q125 678 136 700H210V422H285V350Z" glyph-name="one.numerator" horiz-adv-x="304" unicode="&#63074;" /><glyph d="M128 0V104H275V535Q242 511 196.5 499Q151 487 96 487V593Q170 593 221.5 621Q273 649 296 700H397V104H545V0Z" glyph-name="one.tab" horiz-adv-x="614" unicode="&#65297;" /><glyph d="M747 0H470V76L599 178Q624 198 634.5 213Q645 228 645 244Q645 262 634 272Q623 282 604 282Q579 282 564.5 268Q550 254 544 225L462 238Q472 293 510.5 324.5Q549 356 606 356Q667 356 701.5 326.5Q736 297 736 247Q736 211 717.5 181.5Q699 152 653 119L590 74H747ZM54 350V422H129V600Q111 589 88 583Q65 577 39 577V650Q77 650 105.5 664Q134 678 145 700H219V422H294V350ZM259 0H172L522 700H609Z" glyph-name="onehalf" horiz-adv-x="781" unicode="&#189;" /><glyph d="M604 140V194L691 225V140H736V68H691V0H604V68H419V133L568 350H670L523 140ZM57 350V422H132V600Q114 589 91 583Q68 577 42 577V650Q80 650 108.5 664Q137 678 148 700H222V422H297V350ZM262 0H175L525 700H612Z" glyph-name="onequarter" horiz-adv-x="768" unicode="&#188;" /><glyph d="M45 490V562H120V740Q102 729 79 723Q56 717 30 717V790Q68 790 96.5 804Q125 818 136 840H210V562H285V490Z" glyph-name="onesuperior" horiz-adv-x="304" unicode="&#185;" /><glyph d="M292 599V444H216V477Q202 458 182 448Q162 438 137 438Q100 438 77 458Q54 478 54 509Q54 541 72.5 560.5Q91 580 137 592L209 612Q207 627 197 634Q187 641 168 641Q150 641 131 632Q112 623 96 607L54 651Q76 676 109 691Q142 706 179 706Q233 706 262.5 677Q292 648 292 599ZM135 520Q135 510 141.5 504.5Q148 499 161 499Q181 499 195.5 513.5Q210 528 210 550V556L164 544Q148 540 141.5 534.5Q135 529 135 520Z" glyph-name="ordfeminine" horiz-adv-x="358" unicode="&#170;" /><glyph d="M320 572Q320 632 282 669Q244 706 182 706Q121 706 83.5 669Q46 632 46 572Q46 512 83.5 475Q121 438 182 438Q244 438 282 475Q320 512 320 572ZM132 572Q132 601 145.5 618.5Q159 636 183 636Q207 636 220.5 618.5Q234 601 234 572Q234 543 220 526Q206 509 183 509Q160 509 146 526Q132 543 132 572Z" glyph-name="ordmasculine" horiz-adv-x="366" unicode="&#186;" /><glyph d="M198 6 138 -91H42L128 49Q87 84 64.5 137Q42 190 42 252Q42 369 114 442.5Q186 516 301 516Q329 516 355.5 511Q382 506 407 496L466 592H561L476 454Q517 418 539 366Q561 314 561 252Q561 135 488.5 61.5Q416 -12 301 -12Q273 -12 247 -7.5Q221 -3 198 6ZM301 418Q237 418 198 372Q159 326 159 252Q159 219 167.5 190.5Q176 162 192 141L357 407Q345 412 330.5 415Q316 418 301 418ZM301 86Q365 86 404.5 132Q444 178 444 252Q444 284 436 312Q428 340 412 363L247 96Q260 91 273.5 88.5Q287 86 301 86Z" glyph-name="oslash" horiz-adv-x="603" unicode="&#248;" /><glyph d="M42 252Q42 369 114 442.5Q186 516 301 516Q416 516 488.5 442.5Q561 369 561 252Q561 135 488.5 61.5Q416 -12 301 -12Q186 -12 114 61.5Q42 135 42 252ZM444 252Q444 326 404.5 372Q365 418 301 418Q237 418 198 372Q159 326 159 252Q159 179 198.5 132.5Q238 86 301 86Q365 86 404.5 132Q444 178 444 252ZM301 504ZM381 602Q423 602 443 634.5Q463 667 454 720H383Q384 702 379 695Q374 688 360 688Q352 688 342 690.5Q332 693 310 701Q283 711 268.5 714.5Q254 718 241 718Q196 718 172 685Q148 652 154 598H227Q228 617 236 625.5Q244 634 260 634Q270 634 282 631Q294 628 317 619Q342 608 355.5 605Q369 602 381 602ZM301 504Z" glyph-name="otilde" horiz-adv-x="603" unicode="&#245;" /><glyph d="M355 516Q457 516 521.5 443.5Q586 371 586 256Q586 139 521.5 63.5Q457 -12 355 -12Q304 -12 262.5 7.5Q221 27 192 65V-218H76V504H186V431Q214 472 257 494Q300 516 355 516ZM469 252Q469 326 431 372Q393 418 331 418Q268 418 229 372.5Q190 327 190 252Q190 179 229.5 132Q269 85 332 85Q394 85 431.5 131.5Q469 178 469 252Z" glyph-name="p" horiz-adv-x="629" unicode="p" /><glyph d="M273 700H569V-218H459V595H362V-218H252V227Q154 234 92 303Q30 372 30 469Q30 567 99 633.5Q168 700 273 700ZM144 468Q144 416 174 377.5Q204 339 252 332V594Q204 588 174 552Q144 516 144 468Z" glyph-name="paragraph" horiz-adv-x="669" unicode="&#182;" /><glyph d="M163 302Q163 187 205 84.5Q247 -18 329 -104L269 -154Q153 -54 98.5 57Q44 168 44 302Q44 436 98.5 547Q153 658 269 757L329 707Q247 621 205 518.5Q163 416 163 302Z" glyph-name="parenleft" horiz-adv-x="344" unicode="(" /><glyph d="M181 301Q181 416 139 518.5Q97 621 15 707L75 757Q191 657 245.5 546Q300 435 300 301Q300 167 245.5 56Q191 -55 75 -154L15 -104Q97 -18 139 84.5Q181 187 181 301Z" glyph-name="parenright" horiz-adv-x="344" unicode=")" /><glyph d="M266 -12Q161 -12 97 48Q33 108 33 205Q33 301 95.5 361.5Q158 422 257 422Q304 422 342.5 408.5Q381 395 409 368Q403 501 362.5 558.5Q322 616 240 616Q207 616 172 603Q137 590 99 563L52 643Q95 676 146 694Q197 712 250 712Q330 712 387.5 678Q445 644 479 577Q503 530 515 466Q527 402 527 303Q527 158 456 73Q385 -12 266 -12ZM278 324Q219 324 185.5 291Q152 258 152 203Q152 149 184 117.5Q216 86 270 86Q333 86 368.5 129.5Q404 173 409 255Q388 284 351 304Q314 324 278 324Z" glyph-name="partialdiff" horiz-adv-x="584" unicode="&#8706;" /><glyph d="M438 175Q438 92 479 43Q520 -6 592 -6Q665 -6 706.5 43Q748 92 748 175Q748 258 706.5 307Q665 356 592 356Q520 356 479 307Q438 258 438 175ZM658 175Q658 125 640.5 96.5Q623 68 592 68Q562 68 545 96.5Q528 125 528 175Q528 225 545 253.5Q562 282 592 282Q623 282 640.5 253.5Q658 225 658 175ZM34 525Q34 442 75 393Q116 344 188 344Q261 344 302.5 393Q344 442 344 525Q344 608 302.5 657Q261 706 188 706Q116 706 75 657Q34 608 34 525ZM254 525Q254 475 236.5 446.5Q219 418 188 418Q158 418 141 446.5Q124 475 124 525Q124 575 141 603.5Q158 632 188 632Q219 632 236.5 603.5Q254 575 254 525ZM260 0H173L523 700H610Z" glyph-name="percent" horiz-adv-x="782" unicode="%" /><glyph d="M53 64Q53 32 75.5 10Q98 -12 131 -12Q164 -12 186.5 10Q209 32 209 64Q209 96 186.5 118Q164 140 131 140Q98 140 75.5 118Q53 96 53 64ZM53 65Z" glyph-name="period" horiz-adv-x="263" unicode="." /><glyph d="M60 361Q60 329 82.5 307Q105 285 138 285Q171 285 193.5 307Q216 329 216 361Q216 393 193.5 415Q171 437 138 437Q105 437 82.5 415Q60 393 60 361ZM60 362Z" glyph-name="periodcentered" horiz-adv-x="275" unicode="&#183;" /><glyph d="M34 525Q34 442 75 393Q116 344 188 344Q261 344 302.5 393Q344 442 344 525Q344 608 302.5 657Q261 706 188 706Q116 706 75 657Q34 608 34 525ZM254 525Q254 475 236.5 446.5Q219 418 188 418Q158 418 141 446.5Q124 475 124 525Q124 575 141 603.5Q158 632 188 632Q219 632 236.5 603.5Q254 575 254 525ZM438 175Q438 92 479 43Q520 -6 592 -6Q665 -6 706.5 43Q748 92 748 175Q748 258 706.5 307Q665 356 592 356Q520 356 479 307Q438 258 438 175ZM658 175Q658 125 640.5 96.5Q623 68 592 68Q562 68 545 96.5Q528 125 528 175Q528 225 545 253.5Q562 282 592 282Q623 282 640.5 253.5Q658 225 658 175ZM796 175Q796 92 837 43Q878 -6 950 -6Q1023 -6 1064.5 43Q1106 92 1106 175Q1106 258 1064.5 307Q1023 356 950 356Q878 356 837 307Q796 258 796 175ZM1016 175Q1016 125 998.5 96.5Q981 68 950 68Q920 68 903 96.5Q886 125 886 175Q886 225 903 253.5Q920 282 950 282Q981 282 998.5 253.5Q1016 225 1016 175ZM260 0H173L523 700H610Z" glyph-name="perthousand" horiz-adv-x="1139" unicode="&#8240;" /><glyph d="M33 504H599V408H526V0H411V408H222V0H107V408H33Z" glyph-name="pi" horiz-adv-x="633" unicode="&#960;" /><glyph d="M342 122H245V302H65V399H245V578H342V399H522V302H342Z" glyph-name="plus" horiz-adv-x="587" unicode="+" /><glyph d="M342 172H245V338H65V435H245V602H342V435H522V338H342ZM65 0V97H522V0Z" glyph-name="plusminus" horiz-adv-x="587" unicode="&#177;" /><glyph d="M42 700H621V592H538V0H417V592H245V0H124V592H42Z" glyph-name="product" horiz-adv-x="662" unicode="&#8719;" /><glyph d="M275 -12Q172 -12 107.5 60.5Q43 133 43 248Q43 366 107.5 441Q172 516 275 516Q329 516 371.5 494.5Q414 473 444 431V504H553V-218H438V65Q408 27 367 7.5Q326 -12 275 -12ZM160 252Q160 178 198 131.5Q236 85 298 85Q362 85 401 131Q440 177 440 252Q440 325 400 371.5Q360 418 298 418Q236 418 198 372Q160 326 160 252Z" glyph-name="q" horiz-adv-x="629" unicode="q" /><glyph d="M293 241V204H193V251Q193 296 209.5 327.5Q226 359 295 421Q330 452 342 476Q354 500 354 532Q354 568 330.5 590Q307 612 268 612Q219 612 187.5 583.5Q156 555 135 489L30 517Q52 607 117 659.5Q182 712 274 712Q367 712 422 664.5Q477 617 477 543Q477 492 453 448.5Q429 405 348 335Q317 308 305 287.5Q293 267 293 241ZM168 63Q168 32 190.5 10Q213 -12 245 -12Q277 -12 299 10Q321 32 321 63Q321 94 299 116Q277 138 245 138Q213 138 190.5 116Q168 94 168 63Z" glyph-name="question" horiz-adv-x="515" unicode="?" /><glyph d="M220 263V300H320V253Q320 208 303.5 176.5Q287 145 218 83Q183 52 171 28Q159 4 159 -28Q159 -64 182.5 -86Q206 -108 245 -108Q294 -108 325.5 -79.5Q357 -51 378 15L483 -13Q461 -103 396 -155.5Q331 -208 239 -208Q146 -208 91 -160.5Q36 -113 36 -39Q36 12 60 55.5Q84 99 165 169Q196 196 208 216.5Q220 237 220 263ZM345 441Q345 472 322.5 494Q300 516 268 516Q236 516 214 494Q192 472 192 441Q192 410 214 388Q236 366 268 366Q300 366 322.5 388Q345 410 345 441Z" glyph-name="questiondown" horiz-adv-x="509" unicode="&#191;" /><glyph d="M337 700 324 451H234L220 700ZM177 700 164 451H74L60 700Z" glyph-name="quotedbl" horiz-adv-x="398" unicode="&quot;" /><glyph d="M206 134H82L22 -134H124ZM384 134H260L200 -134H302Z" glyph-name="quotedblbase" horiz-adv-x="444" unicode="&#8222;" /><glyph d="M122 700 46 451H166L221 700ZM300 700 224 451H344L399 700Z" glyph-name="quotedblleft" horiz-adv-x="439" unicode="&#8220;" /><glyph d="M329 451 405 700H284L229 451ZM151 451 227 700H106L51 451Z" glyph-name="quotedblright" horiz-adv-x="436" unicode="&#8221;" /><glyph d="M122 700 46 451H166L221 700Z" glyph-name="quoteleft" horiz-adv-x="261" unicode="&#8216;" /><glyph d="M228 700H106L51 451H152Z" glyph-name="quoteright" horiz-adv-x="259" unicode="&#8217;" /><glyph d="M206 134H82L22 -134H124Z" glyph-name="quotesinglbase" horiz-adv-x="266" unicode="&#8218;" /><glyph d="M177 700 164 451H74L60 700Z" glyph-name="quotesingle" horiz-adv-x="238" unicode="'" /><glyph d="M76 0V504H186V401Q208 453 245.5 480.5Q283 508 332 508Q344 508 356.5 507Q369 506 379 504L369 400Q356 402 348 402.5Q340 403 332 403Q266 403 229 353Q192 303 192 212V0ZM227 504ZM134 0Z" glyph-name="r" horiz-adv-x="390" unicode="r" /><glyph d="M389 733H267L177 587H279ZM227 504ZM76 0V504H186V401Q208 453 245.5 480.5Q283 508 332 508Q344 508 356.5 507Q369 506 379 504L369 400Q356 402 348 402.5Q340 403 332 403Q266 403 229 353Q192 303 192 212V0ZM227 504ZM134 0Z" glyph-name="racute" horiz-adv-x="390" unicode="&#341;" /><glyph d="M25 360V469H222L303 150L467 700H590L361 0H237L130 360Z" glyph-name="radical" horiz-adv-x="595" unicode="&#8730;" /><glyph d="M292 587H163L71 733H167L228 653L290 733H384ZM227 504ZM76 0V504H186V401Q208 453 245.5 480.5Q283 508 332 508Q344 508 356.5 507Q369 506 379 504L369 400Q356 402 348 402.5Q340 403 332 403Q266 403 229 353Q192 303 192 212V0ZM227 504ZM134 0Z" glyph-name="rcaron" horiz-adv-x="390" unicode="&#345;" /><glyph d="M47 351Q47 501 152.5 606.5Q258 712 408 712Q558 712 663.5 606.5Q769 501 769 351Q769 201 663 94.5Q557 -12 408 -12Q259 -12 153 94.5Q47 201 47 351ZM695 351Q695 472 611 557.5Q527 643 408 643Q290 643 206 557.5Q122 472 122 351Q122 230 206 144Q290 58 408 58Q526 58 610.5 144Q695 230 695 351ZM265 178V528H443Q497 528 533.5 496Q570 464 570 417Q570 379 550 349Q530 319 495 305L569 178H470L402 295H354V178ZM480 415Q480 435 464.5 447Q449 459 424 459H354V363H424Q449 363 464.5 377.5Q480 392 480 415Z" glyph-name="registered" horiz-adv-x="816" unicode="&#174;" /><glyph d="M320 671Q320 717 287.5 750Q255 783 209 783Q162 783 130 750Q98 717 98 671Q98 625 130 593Q162 561 209 561Q256 561 288 593Q320 625 320 671ZM162 671Q162 690 176 704.5Q190 719 209 719Q228 719 242 704.5Q256 690 256 671Q256 653 242 639Q228 625 209 625Q190 625 176 639Q162 653 162 671ZM209 504Z" glyph-name="ring" horiz-adv-x="394" unicode="&#730;" /><glyph d="M320 871Q320 917 287.5 950Q255 983 209 983Q162 983 130 950Q98 917 98 871Q98 825 130 793Q162 761 209 761Q256 761 288 793Q320 825 320 871ZM162 871Q162 890 176 904.5Q190 919 209 919Q228 919 242 904.5Q256 890 256 871Q256 853 242 839Q228 825 209 825Q190 825 176 839Q162 853 162 871ZM209 700Z" glyph-name="ring.case" horiz-adv-x="394" /><glyph d="M453 152Q453 79 399.5 33.5Q346 -12 255 -12Q189 -12 129.5 8Q70 28 30 62L87 144Q121 116 163.5 98.5Q206 81 247 81Q294 81 318.5 97.5Q343 114 343 143Q343 165 327 178Q311 191 270 200L198 216Q127 232 91 269.5Q55 307 55 365Q55 429 106.5 472.5Q158 516 243 516Q299 516 349 499Q399 482 447 446L388 361Q350 393 314 408Q278 423 242 423Q204 423 183.5 408.5Q163 394 163 369Q163 347 176.5 334.5Q190 322 224 314L307 295Q383 278 418 243Q453 208 453 152ZM246 504ZM253 10ZM253 0Z" glyph-name="s" horiz-adv-x="495" unicode="s" /><glyph d="M408 733H286L196 587H298ZM246 504ZM453 152Q453 79 399.5 33.5Q346 -12 255 -12Q189 -12 129.5 8Q70 28 30 62L87 144Q121 116 163.5 98.5Q206 81 247 81Q294 81 318.5 97.5Q343 114 343 143Q343 165 327 178Q311 191 270 200L198 216Q127 232 91 269.5Q55 307 55 365Q55 429 106.5 472.5Q158 516 243 516Q299 516 349 499Q399 482 447 446L388 361Q350 393 314 408Q278 423 242 423Q204 423 183.5 408.5Q163 394 163 369Q163 347 176.5 334.5Q190 322 224 314L307 295Q383 278 418 243Q453 208 453 152ZM246 504ZM253 10ZM253 0Z" glyph-name="sacute" horiz-adv-x="495" unicode="&#347;" /><glyph d="M315 587H186L94 733H190L251 653L313 733H407ZM250 504ZM453 152Q453 79 399.5 33.5Q346 -12 255 -12Q189 -12 129.5 8Q70 28 30 62L87 144Q121 116 163.5 98.5Q206 81 247 81Q294 81 318.5 97.5Q343 114 343 143Q343 165 327 178Q311 191 270 200L198 216Q127 232 91 269.5Q55 307 55 365Q55 429 106.5 472.5Q158 516 243 516Q299 516 349 499Q399 482 447 446L388 361Q350 393 314 408Q278 423 242 423Q204 423 183.5 408.5Q163 394 163 369Q163 347 176.5 334.5Q190 322 224 314L307 295Q383 278 418 243Q453 208 453 152ZM246 504ZM253 10ZM253 0Z" glyph-name="scaron" horiz-adv-x="495" unicode="&#353;" /><glyph d="M179 -112 159 -86 215 -10Q161 -5 112 14Q63 33 30 62L87 144Q121 116 163.5 98.5Q206 81 247 81Q294 81 318.5 97.5Q343 114 343 143Q343 165 327 178Q311 191 270 200L198 216Q127 231 91 268.5Q55 306 55 365Q55 429 106.5 472.5Q158 516 243 516Q299 516 349 499Q399 482 447 446L388 361Q350 393 314 408Q278 423 242 423Q204 423 183.5 408.5Q163 394 163 369Q163 347 176.5 334.5Q190 322 224 314L307 295Q383 277 418 242.5Q453 208 453 152Q453 84 405.5 39Q358 -6 276 -11L242 -56Q245 -55 248 -55Q251 -55 256 -55Q298 -55 321.5 -76.5Q345 -98 345 -133Q345 -176 312 -202.5Q279 -229 224 -229Q204 -229 183.5 -225Q163 -221 144 -214V-158Q164 -166 178.5 -169Q193 -172 210 -172Q237 -172 250.5 -163Q264 -154 264 -136Q264 -121 251.5 -112.5Q239 -104 218 -104Q210 -104 199.5 -106Q189 -108 179 -112Z" glyph-name="scedilla" horiz-adv-x="495" unicode="&#351;" /><glyph d="M94 587 186 733H315L407 587H311L250 667L188 587ZM250 504ZM453 152Q453 79 399.5 33.5Q346 -12 255 -12Q189 -12 129.5 8Q70 28 30 62L87 144Q121 116 163.5 98.5Q206 81 247 81Q294 81 318.5 97.5Q343 114 343 143Q343 165 327 178Q311 191 270 200L198 216Q127 232 91 269.5Q55 307 55 365Q55 429 106.5 472.5Q158 516 243 516Q299 516 349 499Q399 482 447 446L388 361Q350 393 314 408Q278 423 242 423Q204 423 183.5 408.5Q163 394 163 369Q163 347 176.5 334.5Q190 322 224 314L307 295Q383 278 418 243Q453 208 453 152ZM246 504ZM253 10ZM253 0Z" glyph-name="scircumflex" horiz-adv-x="495" unicode="&#349;" /><glyph d="M37 259Q37 300 56.5 336Q76 372 113 399Q95 422 85.5 450.5Q76 479 76 512Q76 598 144 655Q212 712 326 712Q387 712 441.5 697Q496 682 541 654L497 559Q456 583 412.5 596Q369 609 327 609Q265 609 231 584Q197 559 197 517Q197 482 221 461Q245 440 302 428L400 407Q492 387 540 340Q588 293 588 222Q588 181 569 144.5Q550 108 514 81Q531 59 540 31Q549 3 549 -29Q549 -116 482 -173Q415 -230 303 -230Q240 -230 183.5 -215Q127 -200 84 -172L128 -77Q164 -99 210.5 -113Q257 -127 302 -127Q362 -127 395 -102Q428 -77 428 -35Q428 0 403.5 21.5Q379 43 323 54L225 74Q133 93 85 140Q37 187 37 259ZM279 180 364 163Q383 159 400.5 153Q418 147 435 138Q451 152 459.5 170Q468 188 468 207Q468 244 441.5 265Q415 286 346 301L261 319Q239 324 221.5 330Q204 336 190 344Q174 330 165.5 312.5Q157 295 157 274Q157 236 184 215Q211 194 279 180Z" glyph-name="section" horiz-adv-x="625" unicode="&#167;" /><glyph d="M218 134H94L34 -134H136ZM77 440Q77 408 99.5 386Q122 364 155 364Q188 364 210.5 386Q233 408 233 440Q233 472 210.5 494Q188 516 155 516Q122 516 99.5 494Q77 472 77 440ZM77 441Z" glyph-name="semicolon" horiz-adv-x="296" unicode=";" /><glyph d="M378 594H26V700H507V607L231 0H99Z" glyph-name="seven" horiz-adv-x="532" unicode="7" /><glyph d="M183 276H22V350H278V282L143 0H49Z" glyph-name="seven.denominator" horiz-adv-x="300" unicode="&#63068;" /><glyph d="M183 136H22V210H278V142L143 -140H49Z" glyph-name="seven.inferior" horiz-adv-x="300" unicode="&#8327;" /><glyph d="M183 626H22V700H278V632L143 350H49Z" glyph-name="seven.numerator" horiz-adv-x="300" unicode="&#63080;" /><glyph d="M183 766H22V840H278V772L143 490H49Z" glyph-name="seven.superior" horiz-adv-x="300" unicode="&#8311;" /><glyph d="M419 594H67V700H548V607L272 0H140Z" glyph-name="seven.tab" horiz-adv-x="614" unicode="&#65303;" /><glyph d="M333 446Q431 446 492 384.5Q553 323 553 224Q553 122 481 55Q409 -12 299 -12Q188 -12 117 52Q46 116 46 217Q46 265 64.5 319Q83 373 120 435L280 700H418L262 448Q259 443 255 436.5Q251 430 251 429Q270 438 290 442Q310 446 333 446ZM298 352Q239 352 202.5 315Q166 278 166 218Q166 161 203.5 124Q241 87 299 87Q357 87 394.5 124Q432 161 432 218Q432 279 395.5 315.5Q359 352 298 352Z" glyph-name="six" horiz-adv-x="584" unicode="6" /><glyph d="M198 227Q247 227 277 196.5Q307 166 307 117Q307 63 268 28.5Q229 -6 167 -6Q107 -6 68 26.5Q29 59 29 110Q29 136 37.5 163Q46 190 64 219L144 350H245L166 223Q173 225 180.5 226Q188 227 198 227ZM167 164Q145 164 132 149.5Q119 135 119 112Q119 90 132.5 76Q146 62 167 62Q189 62 203.5 76Q218 90 218 112Q218 135 204 149.5Q190 164 167 164Z" glyph-name="six.denominator" horiz-adv-x="329" unicode="&#63067;" /><glyph d="M198 87Q247 87 277 56.5Q307 26 307 -23Q307 -77 268 -111.5Q229 -146 167 -146Q107 -146 68 -113.5Q29 -81 29 -30Q29 -4 37.5 23Q46 50 64 79L144 210H245L166 83Q173 85 180.5 86Q188 87 198 87ZM167 24Q145 24 132 9.5Q119 -5 119 -28Q119 -50 132.5 -64Q146 -78 167 -78Q189 -78 203.5 -64Q218 -50 218 -28Q218 -5 204 9.5Q190 24 167 24Z" glyph-name="six.inferior" horiz-adv-x="329" unicode="&#8326;" /><glyph d="M198 577Q247 577 277 546.5Q307 516 307 467Q307 413 268 378.5Q229 344 167 344Q107 344 68 376.5Q29 409 29 460Q29 486 37.5 513Q46 540 64 569L144 700H245L166 573Q173 575 180.5 576Q188 577 198 577ZM167 514Q145 514 132 499.5Q119 485 119 462Q119 440 132.5 426Q146 412 167 412Q189 412 203.5 426Q218 440 218 462Q218 485 204 499.5Q190 514 167 514Z" glyph-name="six.numerator" horiz-adv-x="329" unicode="&#63079;" /><glyph d="M198 717Q247 717 277 686.5Q307 656 307 607Q307 553 268 518.5Q229 484 167 484Q107 484 68 516.5Q29 549 29 600Q29 626 37.5 653Q46 680 64 709L144 840H245L166 713Q173 715 180.5 716Q188 717 198 717ZM167 654Q145 654 132 639.5Q119 625 119 602Q119 580 132.5 566Q146 552 167 552Q189 552 203.5 566Q218 580 218 602Q218 625 204 639.5Q190 654 167 654Z" glyph-name="six.superior" horiz-adv-x="329" unicode="&#8310;" /><glyph d="M348 446Q446 446 507 384.5Q568 323 568 224Q568 122 496 55Q424 -12 314 -12Q203 -12 132 52Q61 116 61 217Q61 265 79.5 319Q98 373 135 435L295 700H433L277 448Q274 443 270 436.5Q266 430 266 429Q285 438 305 442Q325 446 348 446ZM313 352Q254 352 217.5 315Q181 278 181 218Q181 161 218.5 124Q256 87 314 87Q372 87 409.5 124Q447 161 447 218Q447 279 410.5 315.5Q374 352 313 352Z" glyph-name="six.tab" horiz-adv-x="614" unicode="&#65302;" /><glyph d="M22 -132H128L480 742H378Z" glyph-name="slash" horiz-adv-x="502" unicode="/" /><glyph glyph-name="space" horiz-adv-x="252" unicode=" " /><glyph d="M139 287H51V371H114L111 383Q94 442 91 463.5Q88 485 88 508Q88 600 149.5 656Q211 712 319 712Q407 712 468 664.5Q529 617 549 534L439 498Q420 556 389.5 583.5Q359 611 313 611Q262 611 234 582.5Q206 554 206 508Q206 487 208.5 469.5Q211 452 225 404L234 371H412V287H258L266 260Q279 214 270.5 176Q262 138 233 108H560V0H65V98Q115 110 142 148Q169 186 154 235Z" glyph-name="sterling" horiz-adv-x="602" unicode="&#163;" /><glyph d="M569 0H55V79L231 361L54 609V700H559V593H203L360 364L208 107H569Z" glyph-name="summation" horiz-adv-x="614" unicode="&#8721;" /><glyph d="M108 410H24V504H108V661L223 700V504H371V410H223V164Q223 122 240.5 104.5Q258 87 296 87Q315 87 332 92.5Q349 98 376 114L410 29Q383 9 350 -1.5Q317 -12 281 -12Q195 -12 151.5 29Q108 70 108 149ZM281 713ZM258 10ZM181 0Z" glyph-name="t" horiz-adv-x="419" unicode="t" /><glyph d="M31 245V333H115V410H31V504H115V661L230 700V504H378V410H230V333H368V245H230V164Q230 122 247.5 104.5Q265 87 303 87Q322 87 339 92.5Q356 98 383 114L417 29Q390 9 357 -1.5Q324 -12 288 -12Q202 -12 158.5 29Q115 70 115 149V245Z" glyph-name="tbar" horiz-adv-x="428" unicode="&#359;" /><glyph d="M426 743H318L287 573H368ZM281 713ZM108 410H24V504H108V661L223 700V504H371V410H223V164Q223 122 240.5 104.5Q258 87 296 87Q315 87 332 92.5Q349 98 376 114L410 29Q383 9 350 -1.5Q317 -12 281 -12Q195 -12 151.5 29Q108 70 108 149ZM281 713ZM258 10ZM181 0Z" glyph-name="tcaron" horiz-adv-x="419" unicode="&#357;" /><glyph d="M355 516Q457 516 521.5 443.5Q586 371 586 256Q586 139 521.5 63.5Q457 -12 355 -12Q304 -12 262.5 7.5Q221 27 192 65V-218H76V730H192V439Q221 477 262.5 496.5Q304 516 355 516ZM469 252Q469 326 431 372Q393 418 331 418Q268 418 229 372.5Q190 327 190 252Q190 179 229.5 132Q269 85 332 85Q394 85 431.5 131.5Q469 178 469 252Z" glyph-name="thorn" horiz-adv-x="629" unicode="&#254;" /><glyph d="M367 596H71V700H514V602L330 433Q429 425 482.5 368.5Q536 312 536 219Q536 116 470 52Q404 -12 293 -12Q199 -12 131.5 28Q64 68 29 145L129 204Q158 146 196.5 118Q235 90 286 90Q345 90 378 123Q411 156 411 217Q411 273 378 304Q345 335 284 335Q265 335 244.5 330.5Q224 326 214 321L163 404Z" glyph-name="three" horiz-adv-x="590" unicode="3" /><glyph d="M178 278H41V350H285V292L204 217Q249 209 273 182Q297 155 297 114Q297 61 260.5 27.5Q224 -6 164 -6Q113 -6 77.5 14.5Q42 35 20 78L87 119Q101 91 118.5 78Q136 65 158 65Q181 65 193.5 77Q206 89 206 111Q206 132 194 143.5Q182 155 158 155Q150 155 141 153Q132 151 126 148L94 198Z" glyph-name="three.denominator" horiz-adv-x="328" unicode="&#63064;" /><glyph d="M178 138H41V210H285V152L204 77Q249 69 273 42Q297 15 297 -26Q297 -79 260.5 -112.5Q224 -146 164 -146Q113 -146 77.5 -125.5Q42 -105 20 -62L87 -21Q101 -49 118.5 -62Q136 -75 158 -75Q181 -75 193.5 -63Q206 -51 206 -29Q206 -8 194 3.5Q182 15 158 15Q150 15 141 13Q132 11 126 8L94 58Z" glyph-name="three.inferior" horiz-adv-x="328" unicode="&#8323;" /><glyph d="M178 628H41V700H285V642L204 567Q249 559 273 532Q297 505 297 464Q297 411 260.5 377.5Q224 344 164 344Q113 344 77.5 364.5Q42 385 20 428L87 469Q101 441 118.5 428Q136 415 158 415Q181 415 193.5 427Q206 439 206 461Q206 482 194 493.5Q182 505 158 505Q150 505 141 503Q132 501 126 498L94 548Z" glyph-name="three.numerator" horiz-adv-x="328" unicode="&#63076;" /><glyph d="M379 596H83V700H526V602L342 433Q441 425 494.5 368.5Q548 312 548 219Q548 116 482 52Q416 -12 305 -12Q211 -12 143.5 28Q76 68 41 145L141 204Q170 146 208.5 118Q247 90 298 90Q357 90 390 123Q423 156 423 217Q423 273 390 304Q357 335 296 335Q277 335 256.5 330.5Q236 326 226 321L175 404Z" glyph-name="three.tab" horiz-adv-x="614" unicode="&#65299;" /><glyph d="M595 140V194L682 225V140H727V68H682V0H595V68H410V133L559 350H661L514 140ZM254 0H167L517 700H604ZM191 627H54V699H298V641L217 566Q262 558 286 531Q310 504 310 463Q310 410 273.5 376.5Q237 343 177 343Q126 343 90.5 363.5Q55 384 33 427L100 468Q114 440 131.5 427Q149 414 171 414Q194 414 206.5 426Q219 438 219 460Q219 481 207 492.5Q195 504 171 504Q163 504 154 502Q145 500 139 497L107 547Z" glyph-name="threequarters" horiz-adv-x="759" unicode="&#190;" /><glyph d="M178 768H41V840H285V782L204 707Q249 699 273 672Q297 645 297 604Q297 551 260.5 517.5Q224 484 164 484Q113 484 77.5 504.5Q42 525 20 568L87 609Q101 581 118.5 568Q136 555 158 555Q181 555 193.5 567Q206 579 206 601Q206 622 194 633.5Q182 645 158 645Q150 645 141 643Q132 641 126 638L94 688Z" glyph-name="threesuperior" horiz-adv-x="328" unicode="&#179;" /><glyph d="M275 602Q317 602 337 634.5Q357 667 348 720H277Q278 702 273 695Q268 688 254 688Q246 688 236 690.5Q226 693 204 701Q177 711 162.5 714.5Q148 718 135 718Q90 718 66 685Q42 652 48 598H121Q122 617 130 625.5Q138 634 154 634Q164 634 176 631Q188 628 211 619Q236 608 249.5 605Q263 602 275 602ZM195 504Z" glyph-name="tilde" horiz-adv-x="397" unicode="&#732;" /><glyph d="M275 802Q317 802 337 834.5Q357 867 348 920H277Q278 902 273 895Q268 888 254 888Q246 888 236 890.5Q226 893 204 901Q177 911 162.5 914.5Q148 918 135 918Q90 918 66 885Q42 852 48 798H121Q122 817 130 825.5Q138 834 154 834Q164 834 176 831Q188 828 211 819Q236 808 249.5 805Q263 802 275 802ZM199 700Z" glyph-name="tilde.case" horiz-adv-x="397" /><glyph d="M362 350V700H471L555 475L638 700H748V350H665V567L582 348H526L441 563V350ZM36 626V700H320V626H224V350H134V626Z" glyph-name="trademark" horiz-adv-x="826" unicode="&#8482;" /><glyph d="M560 0H56V110L311 331Q366 378 391 419Q416 460 416 500Q416 550 386.5 578.5Q357 607 307 607Q248 607 211.5 571.5Q175 536 161 465L46 484Q63 590 134 651Q205 712 310 712Q416 712 478.5 654.5Q541 597 541 505Q541 435 505.5 375Q470 315 373 235L217 106H560Z" glyph-name="two" horiz-adv-x="608" unicode="2" /><glyph d="M313 0H36V76L165 178Q190 198 200.5 213Q211 228 211 244Q211 262 200 272Q189 282 170 282Q145 282 130.5 268Q116 254 110 225L28 238Q38 293 76.5 324.5Q115 356 172 356Q233 356 267.5 326.5Q302 297 302 247Q302 211 283.5 181.5Q265 152 219 119L156 74H313Z" glyph-name="two.denominator" horiz-adv-x="344" unicode="&#63063;" /><glyph d="M313 -140H36V-64L165 38Q190 58 200.5 73Q211 88 211 104Q211 122 200 132Q189 142 170 142Q145 142 130.5 128Q116 114 110 85L28 98Q38 153 76.5 184.5Q115 216 172 216Q233 216 267.5 186.5Q302 157 302 107Q302 71 283.5 41.5Q265 12 219 -21L156 -66H313Z" glyph-name="two.inferior" horiz-adv-x="344" unicode="&#8322;" /><glyph d="M313 350H36V426L165 528Q190 548 200.5 563Q211 578 211 594Q211 612 200 622Q189 632 170 632Q145 632 130.5 618Q116 604 110 575L28 588Q38 643 76.5 674.5Q115 706 172 706Q233 706 267.5 676.5Q302 647 302 597Q302 561 283.5 531.5Q265 502 219 469L156 424H313Z" glyph-name="two.numerator" horiz-adv-x="344" unicode="&#63075;" /><glyph d="M563 0H59V110L314 331Q369 378 394 419Q419 460 419 500Q419 550 389.5 578.5Q360 607 310 607Q251 607 214.5 571.5Q178 536 164 465L49 484Q66 590 137 651Q208 712 313 712Q419 712 481.5 654.5Q544 597 544 505Q544 435 508.5 375Q473 315 376 235L220 106H563Z" glyph-name="two.tab" horiz-adv-x="614" unicode="&#65298;" /><glyph d="M313 490H36V566L165 668Q190 688 200.5 703Q211 718 211 734Q211 752 200 762Q189 772 170 772Q145 772 130.5 758Q116 744 110 715L28 728Q38 783 76.5 814.5Q115 846 172 846Q233 846 267.5 816.5Q302 787 302 737Q302 701 283.5 671.5Q265 642 219 609L156 564H313Z" glyph-name="twosuperior" horiz-adv-x="344" unicode="&#178;" /><glyph d="M71 170V504H186V195Q186 140 209.5 114.5Q233 89 282 89Q339 89 371 133Q403 177 403 252V504H518V0H409V75Q381 32 341.5 10Q302 -12 251 -12Q169 -12 120 39.5Q71 91 71 170ZM294 504ZM476 0Z" glyph-name="u" horiz-adv-x="594" unicode="u" /><glyph d="M456 733H334L244 587H346ZM294 504ZM71 170V504H186V195Q186 140 209.5 114.5Q233 89 282 89Q339 89 371 133Q403 177 403 252V504H518V0H409V75Q381 32 341.5 10Q302 -12 251 -12Q169 -12 120 39.5Q71 91 71 170ZM294 504ZM476 0Z" glyph-name="uacute" horiz-adv-x="594" unicode="&#250;" /><glyph d="M71 170V504H186V195Q186 140 209.5 114.5Q233 89 282 89Q339 89 371 133Q403 177 403 252V504H518V0H409V75Q381 32 341.5 10Q302 -12 251 -12Q169 -12 120 39.5Q71 91 71 170ZM294 504ZM476 0ZM295 656Q324 656 338.5 673Q353 690 357 733H436Q435 665 398 625Q361 585 294 585Q228 585 191 625Q154 665 153 733H234Q237 691 251.5 673.5Q266 656 295 656ZM294 504Z" glyph-name="ubreve" horiz-adv-x="594" unicode="&#365;" /><glyph d="M138 587 230 733H359L451 587H355L294 667L232 587ZM294 504ZM71 170V504H186V195Q186 140 209.5 114.5Q233 89 282 89Q339 89 371 133Q403 177 403 252V504H518V0H409V75Q381 32 341.5 10Q302 -12 251 -12Q169 -12 120 39.5Q71 91 71 170ZM294 504ZM476 0Z" glyph-name="ucircumflex" horiz-adv-x="594" unicode="&#251;" /><glyph d="M142 660Q142 633 161 614Q180 595 206 595Q233 595 252.5 614Q272 633 272 660Q272 686 252.5 705.5Q233 725 206 725Q180 725 161 705.5Q142 686 142 660ZM318 660Q318 633 337 614Q356 595 383 595Q410 595 429 614Q448 633 448 660Q448 686 428.5 705.5Q409 725 383 725Q356 725 337 706Q318 687 318 660ZM294 504ZM71 170V504H186V195Q186 140 209.5 114.5Q233 89 282 89Q339 89 371 133Q403 177 403 252V504H518V0H409V75Q381 32 341.5 10Q302 -12 251 -12Q169 -12 120 39.5Q71 91 71 170ZM294 504ZM476 0Z" glyph-name="udieresis" horiz-adv-x="594" unicode="&#252;" /><glyph d="M71 170V504H186V195Q186 140 209.5 114.5Q233 89 282 89Q339 89 371 133Q403 177 403 252V504H518V0H409V75Q381 32 341.5 10Q302 -12 251 -12Q169 -12 120 39.5Q71 91 71 170ZM294 504ZM476 0ZM345 587 255 733H134L244 587ZM294 504Z" glyph-name="ugrave" horiz-adv-x="594" unicode="&#249;" /><glyph d="M71 170V504H186V195Q186 140 209.5 114.5Q233 89 282 89Q339 89 371 133Q403 177 403 252V504H518V0H409V75Q381 32 341.5 10Q302 -12 251 -12Q169 -12 120 39.5Q71 91 71 170ZM294 504ZM476 0ZM366 733H254L169 587H260ZM538 733H420L305 587H401ZM294 504Z" glyph-name="uhungarumlaut" horiz-adv-x="594" unicode="&#369;" /><glyph d="M71 170V504H186V195Q186 140 209.5 114.5Q233 89 282 89Q339 89 371 133Q403 177 403 252V504H518V0H409V75Q381 32 341.5 10Q302 -12 251 -12Q169 -12 120 39.5Q71 91 71 170ZM294 504ZM476 0ZM417 620H171V699H417ZM294 504Z" glyph-name="umacron" horiz-adv-x="594" unicode="&#363;" /><glyph d="M59 -92V0H503V-92Z" glyph-name="underscore" horiz-adv-x="562" unicode="_" /><glyph glyph-name="uni00A0" horiz-adv-x="252" unicode="&#160;" /><glyph d="M67 209V309H335V209Z" glyph-name="uni00AD" horiz-adv-x="402" unicode="&#173;" /><glyph d="M437 -63H322L274 -227H371ZM380 0ZM352 -210ZM415 261V364H699V0H595V93Q559 42 503.5 15Q448 -12 380 -12Q232 -12 141 88Q50 188 50 347Q50 506 146.5 609Q243 712 395 712Q498 712 574 669Q650 626 690 546L591 482Q555 544 507.5 573Q460 602 394 602Q300 602 237 529.5Q174 457 174 349Q174 238 234 167.5Q294 97 391 97Q475 97 530 143.5Q585 190 585 260V261ZM395 700ZM380 0Z" glyph-name="uni0122" horiz-adv-x="762" /><glyph d="M225 587H343L389 733H300ZM279 504ZM574 -46Q574 -130 494.5 -180Q415 -230 283 -230Q157 -230 88.5 -195Q20 -160 20 -95Q20 -60 43.5 -34Q67 -8 111 6Q84 21 69 44.5Q54 68 54 94Q54 128 75 153Q96 178 137 194Q102 219 82.5 255Q63 291 63 333Q63 411 125.5 463.5Q188 516 280 516Q329 516 371.5 500.5Q414 485 444 456Q466 483 498 496Q530 509 573 509V412Q545 412 523 407.5Q501 403 485 394Q492 378 495 363Q498 348 498 333Q498 255 435.5 203Q373 151 280 151Q260 151 239.5 154.5Q219 158 200 164Q180 158 169.5 147.5Q159 137 159 124Q159 105 171.5 96.5Q184 88 213 88H396Q482 88 528 53Q574 18 574 -46ZM386 334Q386 379 357 405.5Q328 432 280 432Q233 432 204 405.5Q175 379 175 334Q175 288 204 261Q233 234 280 234Q328 234 357 261Q386 288 386 334ZM126 -77Q126 -113 166 -130.5Q206 -148 287 -148Q371 -148 418.5 -126.5Q466 -105 466 -66Q466 -41 448 -28.5Q430 -16 394 -16H245Q186 -16 156 -31.5Q126 -47 126 -77ZM279 504Z" glyph-name="uni0123" horiz-adv-x="589" /><glyph d="M423 -63H308L260 -227H357ZM366 0ZM338 -210ZM391 398 664 0H518L307 308L214 204V0H92V700H214V358L512 700H655ZM365 0Z" glyph-name="uni0136" horiz-adv-x="672" /><glyph d="M360 -63H245L197 -227H294ZM303 0ZM275 -210ZM347 311 554 0H417L262 237L192 166V0H76V730H192V298L395 504H541ZM302 0Z" glyph-name="uni0137" horiz-adv-x="560" /><glyph d="M375 -63H260L212 -227H309ZM318 0ZM290 -210ZM92 0V700H214V108H543V0ZM153 700ZM274 700ZM350 350ZM318 0Z" glyph-name="uni013B" horiz-adv-x="567" unicode="&#315;" /><glyph d="M191 -63H76L28 -227H125ZM134 0ZM106 -210ZM76 0V730H192V0ZM134 730ZM252 700ZM225 350ZM134 0Z" glyph-name="uni013C" horiz-adv-x="268" unicode="&#316;" /><glyph d="M442 -63H327L279 -227H376ZM385 0ZM357 -210ZM92 0V700H216L554 209V700H669V0H565L208 521V0ZM386 700ZM385 0Z" glyph-name="uni0145" horiz-adv-x="761" /><glyph d="M362 -63H247L199 -227H296ZM305 0ZM277 -210ZM76 0V504H186V427Q213 471 254 493.5Q295 516 348 516Q432 516 482.5 461Q533 406 533 322V0H418V296Q418 358 393 386.5Q368 415 317 415Q258 415 225 371Q192 327 192 251V0ZM76 584ZM316 504ZM304 0Z" glyph-name="uni0146" horiz-adv-x="604" /><glyph d="M420 -63H305L257 -227H354ZM363 0ZM335 -210ZM92 0V700H401Q510 700 581.5 638Q653 576 653 485Q653 410 611 350Q569 290 497 264L652 0H510L366 247H214V0ZM529 483Q529 532 490 564Q451 596 389 596H214V350H389Q451 350 490 387.5Q529 425 529 483ZM350 700ZM362 0Z" glyph-name="uni0156" horiz-adv-x="705" /><glyph d="M191 -63H76L28 -227H125ZM134 0ZM106 -210ZM76 0V504H186V401Q208 453 245.5 480.5Q283 508 332 508Q344 508 356.5 507Q369 506 379 504L369 400Q356 402 348 402.5Q340 403 332 403Q266 403 229 353Q192 303 192 212V0ZM227 504ZM134 0Z" glyph-name="uni0157" horiz-adv-x="390" /><glyph d="M231 -112 211 -86 274 0H242V592H23V700H582V592H364V0H336L294 -56Q297 -55 300 -55Q303 -55 309 -55Q350 -55 373.5 -76.5Q397 -98 397 -133Q397 -176 364 -202.5Q331 -229 276 -229Q256 -229 235.5 -225Q215 -221 196 -214V-158Q216 -166 230.5 -169Q245 -172 262 -172Q289 -172 302.5 -163Q316 -154 316 -136Q316 -121 303.5 -112.5Q291 -104 270 -104Q262 -104 251.5 -106Q241 -108 231 -112Z" glyph-name="uni0162" horiz-adv-x="605" /><glyph d="M186 -112 166 -86 224 -7Q166 5 137 44.5Q108 84 108 149V410H24V504H108V661L223 700V504H371V410H223V164Q223 122 240.5 104.5Q258 87 296 87Q315 87 332 92.5Q349 98 376 114L410 29Q383 9 350.5 -1.5Q318 -12 283 -12L249 -56Q252 -55 255 -55Q258 -55 263 -55Q305 -55 328.5 -76.5Q352 -98 352 -133Q352 -176 319 -202.5Q286 -229 231 -229Q211 -229 190.5 -225Q170 -221 151 -214V-158Q171 -166 185.5 -169Q200 -172 217 -172Q244 -172 257.5 -163Q271 -154 271 -136Q271 -121 258.5 -112.5Q246 -104 225 -104Q217 -104 206.5 -106Q196 -108 186 -112Z" glyph-name="uni0163" horiz-adv-x="419" /><glyph d="M383 -63H268L220 -227H317ZM326 0ZM298 -210ZM581 208Q581 112 512.5 50Q444 -12 330 -12Q242 -12 164.5 18.5Q87 49 33 103L107 195Q151 147 208.5 120Q266 93 327 93Q389 93 423.5 121.5Q458 150 458 198Q458 234 434.5 254.5Q411 275 342 293L250 317Q151 343 107.5 390.5Q64 438 64 513Q64 598 131 655Q198 712 309 712Q385 712 453 684.5Q521 657 572 608L498 517Q453 561 404.5 583Q356 605 306 605Q248 605 216.5 581.5Q185 558 185 520Q185 484 206.5 463.5Q228 443 289 427L395 399Q492 373 536.5 327Q581 281 581 208ZM311 700ZM325 10ZM325 0Z" glyph-name="uni0218" horiz-adv-x="629" /><glyph d="M311 -63H196L148 -227H245ZM254 0ZM226 -210ZM453 152Q453 79 399.5 33.5Q346 -12 255 -12Q189 -12 129.5 8Q70 28 30 62L87 144Q121 116 163.5 98.5Q206 81 247 81Q294 81 318.5 97.5Q343 114 343 143Q343 165 327 178Q311 191 270 200L198 216Q127 232 91 269.5Q55 307 55 365Q55 429 106.5 472.5Q158 516 243 516Q299 516 349 499Q399 482 447 446L388 361Q350 393 314 408Q278 423 242 423Q204 423 183.5 408.5Q163 394 163 369Q163 347 176.5 334.5Q190 322 224 314L307 295Q383 278 418 243Q453 208 453 152ZM246 504ZM253 10ZM253 0Z" glyph-name="uni0219" horiz-adv-x="495" /><glyph d="M360 -63H245L197 -227H294ZM303 0ZM275 -210ZM23 592V700H582V592H364V0H242V592ZM302 700ZM302 10ZM302 0Z" glyph-name="uni021A" horiz-adv-x="605" unicode="&#538;" /><glyph d="M238 -63H123L75 -227H172ZM181 0ZM153 -210ZM108 410H24V504H108V661L223 700V504H371V410H223V164Q223 122 240.5 104.5Q258 87 296 87Q315 87 332 92.5Q349 98 376 114L410 29Q383 9 350 -1.5Q317 -12 281 -12Q195 -12 151.5 29Q108 70 108 149ZM281 713ZM258 10ZM181 0Z" glyph-name="uni021B" horiz-adv-x="419" unicode="&#539;" /><glyph d="M80 504H196V-44Q196 -135 153.5 -182.5Q111 -230 28 -230Q6 -230 -16 -227Q-38 -224 -57 -218L-37 -121Q-23 -125 -10 -126.5Q3 -128 16 -128Q51 -128 65.5 -107.5Q80 -87 80 -34ZM138 504Z" glyph-name="uni0237" horiz-adv-x="272" /><glyph d="M321 620H75V699H321ZM198 504Z" glyph-name="uni02C9" horiz-adv-x="395" unicode="&#713;" /><glyph d="M34 0V90L281 700H412L658 90V0ZM343 562 163 104H521Z" glyph-name="uni0394" horiz-adv-x="693" unicode="&#916;" /><glyph d="M62 0V101H201Q134 149 98 223Q62 297 62 388Q62 530 152.5 621Q243 712 391 712Q540 712 630.5 621.5Q721 531 721 388Q721 297 685 223Q649 149 582 101H723V0H457V117Q524 155 561 224.5Q598 294 598 384Q598 481 541 542.5Q484 604 391 604Q299 604 242 542.5Q185 481 185 384Q185 294 221.5 225Q258 156 325 117V0Z" glyph-name="uni03A9" horiz-adv-x="784" unicode="&#937;" /><glyph d="M83 -218V504H198V195Q198 140 222 114.5Q246 89 295 89Q351 89 383 132.5Q415 176 415 252V504H530V0H421V75Q395 32 355 10Q315 -12 264 -12Q243 -12 223.5 -7.5Q204 -3 188 6L198 -78V-218Z" glyph-name="uni03BC" horiz-adv-x="614" unicode="&#956;" /><glyph d="M206 0H84V416Q84 556 163.5 634Q243 712 390 712Q468 712 538 684.5Q608 657 660 608L509 396L521 392Q615 361 653 318Q691 275 691 206Q691 110 623 49Q555 -12 441 -12Q399 -12 361 -6Q323 0 288 13L316 113Q345 102 374.5 96.5Q404 91 433 91Q497 91 532 120Q567 149 567 196Q567 237 540.5 260Q514 283 448 297L354 317V359L503 578Q476 592 446.5 599Q417 606 387 606Q298 606 252 555.5Q206 505 206 411Z" glyph-name="uni1E9E" horiz-adv-x="736" unicode="&#7838;" /><glyph d="M128 239 69 203 25 284 128 347V543Q128 622 170 667Q212 712 286 712Q353 712 395 670Q437 628 437 561Q437 492 398.5 432.5Q360 373 286 327L243 300V164Q243 122 260 105Q277 88 316 88Q336 88 354 93.5Q372 99 396 114L429 29Q403 9 370.5 -1.5Q338 -12 301 -12Q215 -12 171.5 29Q128 70 128 149ZM331 562Q331 588 319 603Q307 618 287 618Q266 618 254.5 600.5Q243 583 243 549V416L261 428Q295 451 313 485Q331 519 331 562Z" glyph-name="uni2113" horiz-adv-x="464" /><glyph d="M54 350V422H129V600Q111 589 88 583Q65 577 39 577V650Q77 650 105.5 664Q134 678 145 700H219V422H294V350ZM259 0H172L522 700H609ZM624 278H487V350H731V292L650 217Q695 209 719 182Q743 155 743 114Q743 61 706.5 27.5Q670 -6 610 -6Q559 -6 523.5 14.5Q488 35 466 78L533 119Q547 91 564.5 78Q582 65 604 65Q627 65 639.5 77Q652 89 652 111Q652 132 640 143.5Q628 155 604 155Q596 155 587 153Q578 151 572 148L540 198Z" glyph-name="uni2153" horiz-adv-x="781" unicode="&#8531;" /><glyph d="M323 350H46V426L175 528Q200 548 210.5 563Q221 578 221 594Q221 612 210 622Q199 632 180 632Q155 632 140.5 618Q126 604 120 575L38 588Q48 643 86.5 674.5Q125 706 182 706Q243 706 277.5 676.5Q312 647 312 597Q312 561 293.5 531.5Q275 502 229 469L166 424H323ZM278 0H191L541 700H628ZM643 278H506V350H750V292L669 217Q714 209 738 182Q762 155 762 114Q762 61 725.5 27.5Q689 -6 629 -6Q578 -6 542.5 14.5Q507 35 485 78L552 119Q566 91 583.5 78Q601 65 623 65Q646 65 658.5 77Q671 89 671 111Q671 132 659 143.5Q647 155 623 155Q615 155 606 153Q597 151 591 148L559 198Z" glyph-name="uni2154" horiz-adv-x="801" unicode="&#8532;" /><glyph d="M259 0H172L522 700H609ZM54 350V422H129V600Q111 589 88 583Q65 577 39 577V650Q77 650 105.5 664Q134 678 145 700H219V422H294V350ZM617 229Q671 229 703 198Q735 167 735 120Q735 64 697.5 29Q660 -6 599 -6Q548 -6 511 13Q474 32 454 68L518 112Q531 89 549 78Q567 67 592 67Q617 67 631 80Q645 93 645 117Q645 139 631.5 151Q618 163 595 163Q579 163 566.5 157.5Q554 152 544 140L475 165L498 350H713V278H566L557 212Q570 220 585 224.5Q600 229 617 229Z" glyph-name="uni2155" horiz-adv-x="772" unicode="&#8533;" /><glyph d="M324 350H47V426L176 528Q201 548 211.5 563Q222 578 222 594Q222 612 211 622Q200 632 181 632Q156 632 141.5 618Q127 604 121 575L39 588Q49 643 87.5 674.5Q126 706 183 706Q244 706 278.5 676.5Q313 647 313 597Q313 561 294.5 531.5Q276 502 230 469L167 424H324ZM637 229Q691 229 723 198Q755 167 755 120Q755 64 717.5 29Q680 -6 619 -6Q568 -6 531 13Q494 32 474 68L538 112Q551 89 569 78Q587 67 612 67Q637 67 651 80Q665 93 665 117Q665 139 651.5 151Q638 163 615 163Q599 163 586.5 157.5Q574 152 564 140L495 165L518 350H733V278H586L577 212Q590 220 605 224.5Q620 229 637 229ZM279 0H192L542 700H629Z" glyph-name="uni2156" horiz-adv-x="791" unicode="&#8534;" /><glyph d="M612 229Q666 229 698 198Q730 167 730 120Q730 64 692.5 29Q655 -6 594 -6Q543 -6 506 13Q469 32 449 68L513 112Q526 89 544 78Q562 67 587 67Q612 67 626 80Q640 93 640 117Q640 139 626.5 151Q613 163 590 163Q574 163 561.5 157.5Q549 152 539 140L470 165L493 350H708V278H561L552 212Q565 220 580 224.5Q595 229 612 229ZM254 0H167L517 700H604ZM190 628H53V700H297V642L216 567Q261 559 285 532Q309 505 309 464Q309 411 272.5 377.5Q236 344 176 344Q125 344 89.5 364.5Q54 385 32 428L99 469Q113 441 130.5 428Q148 415 170 415Q193 415 205.5 427Q218 439 218 461Q218 482 206 493.5Q194 505 170 505Q162 505 153 503Q144 501 138 498L106 548Z" glyph-name="uni2157" horiz-adv-x="769" unicode="&#8535;" /><glyph d="M217 490V544L304 575V490H349V418H304V350H217V418H32V483L181 700H283L136 490ZM649 229Q703 229 735 198Q767 167 767 120Q767 64 729.5 29Q692 -6 631 -6Q580 -6 543 13Q506 32 486 68L550 112Q563 89 581 78Q599 67 624 67Q649 67 663 80Q677 93 677 117Q677 139 663.5 151Q650 163 627 163Q611 163 598.5 157.5Q586 152 576 140L507 165L530 350H745V278H598L589 212Q602 220 617 224.5Q632 229 649 229ZM291 0H204L554 700H641Z" glyph-name="uni2158" horiz-adv-x="809" unicode="&#8536;" /><glyph d="M598 227Q647 227 677 196.5Q707 166 707 117Q707 63 668 28.5Q629 -6 567 -6Q507 -6 468 26.5Q429 59 429 110Q429 136 437.5 163Q446 190 464 219L544 350H645L566 223Q573 225 580.5 226Q588 227 598 227ZM567 164Q545 164 532 149.5Q519 135 519 112Q519 90 532.5 76Q546 62 567 62Q589 62 603.5 76Q618 90 618 112Q618 135 604 149.5Q590 164 567 164ZM57 350V422H132V600Q114 589 91 583Q68 577 42 577V650Q80 650 108.5 664Q137 678 148 700H222V422H297V350ZM262 0H175L525 700H612Z" glyph-name="uni2159" horiz-adv-x="740" unicode="&#8537;" /><glyph d="M593 227Q642 227 672 196.5Q702 166 702 117Q702 63 663 28.5Q624 -6 562 -6Q502 -6 463 26.5Q424 59 424 110Q424 136 432.5 163Q441 190 459 219L539 350H640L561 223Q568 225 575.5 226Q583 227 593 227ZM562 164Q540 164 527 149.5Q514 135 514 112Q514 90 527.5 76Q541 62 562 62Q584 62 598.5 76Q613 90 613 112Q613 135 599 149.5Q585 164 562 164ZM194 579Q248 579 280 548Q312 517 312 470Q312 414 274.5 379Q237 344 176 344Q125 344 88 363Q51 382 31 418L95 462Q108 439 126 428Q144 417 169 417Q194 417 208 430Q222 443 222 467Q222 489 208.5 501Q195 513 172 513Q156 513 143.5 507.5Q131 502 121 490L52 515L75 700H290V628H143L134 562Q147 570 162 574.5Q177 579 194 579ZM256 0H169L519 700H606Z" glyph-name="uni215A" horiz-adv-x="735" unicode="&#8538;" /><glyph d="M259 0H172L522 700H609ZM54 350V422H129V600Q111 589 88 583Q65 577 39 577V650Q77 650 105.5 664Q134 678 145 700H219V422H294V350ZM682 180Q708 168 722 146Q736 124 736 96Q736 51 698.5 22.5Q661 -6 599 -6Q537 -6 499 22Q461 50 461 96Q461 123 475.5 144.5Q490 166 517 179Q493 191 480.5 212Q468 233 468 260Q468 302 504.5 329Q541 356 599 356Q657 356 693 329Q729 302 729 260Q729 233 717 212.5Q705 192 682 180ZM556 248Q556 230 567.5 218Q579 206 599 206Q618 206 629.5 218Q641 230 641 248Q641 267 630 278Q619 289 599 289Q579 289 567.5 278Q556 267 556 248ZM646 105Q646 123 633 135.5Q620 148 599 148Q577 148 564 136Q551 124 551 105Q551 83 563.5 71.5Q576 60 599 60Q621 60 633.5 72Q646 84 646 105Z" glyph-name="uni215B" horiz-adv-x="772" unicode="&#8539;" /><glyph d="M254 0H167L517 700H604ZM676 180Q702 168 716 146Q730 124 730 96Q730 51 692.5 22.5Q655 -6 593 -6Q531 -6 493 22Q455 50 455 96Q455 123 469.5 144.5Q484 166 511 179Q487 191 474.5 212Q462 233 462 260Q462 302 498.5 329Q535 356 593 356Q651 356 687 329Q723 302 723 260Q723 233 711 212.5Q699 192 676 180ZM550 248Q550 230 561.5 218Q573 206 593 206Q612 206 623.5 218Q635 230 635 248Q635 267 624 278Q613 289 593 289Q573 289 561.5 278Q550 267 550 248ZM640 105Q640 123 627 135.5Q614 148 593 148Q571 148 558 136Q545 124 545 105Q545 83 557.5 71.5Q570 60 593 60Q615 60 627.5 72Q640 84 640 105ZM190 628H53V700H297V642L216 567Q261 559 285 532Q309 505 309 464Q309 411 272.5 377.5Q236 344 176 344Q125 344 89.5 364.5Q54 385 32 428L99 469Q113 441 130.5 428Q148 415 170 415Q193 415 205.5 427Q218 439 218 461Q218 482 206 493.5Q194 505 170 505Q162 505 153 503Q144 501 138 498L106 548Z" glyph-name="uni215C" horiz-adv-x="769" unicode="&#8540;" /><glyph d="M250 0H163L513 700H600ZM673 180Q699 168 713 146Q727 124 727 96Q727 51 689.5 22.5Q652 -6 590 -6Q528 -6 490 22Q452 50 452 96Q452 123 466.5 144.5Q481 166 508 179Q484 191 471.5 212Q459 233 459 260Q459 302 495.5 329Q532 356 590 356Q648 356 684 329Q720 302 720 260Q720 233 708 212.5Q696 192 673 180ZM547 248Q547 230 558.5 218Q570 206 590 206Q609 206 620.5 218Q632 230 632 248Q632 267 621 278Q610 289 590 289Q570 289 558.5 278Q547 267 547 248ZM637 105Q637 123 624 135.5Q611 148 590 148Q568 148 555 136Q542 124 542 105Q542 83 554.5 71.5Q567 60 590 60Q612 60 624.5 72Q637 84 637 105ZM194 579Q248 579 280 548Q312 517 312 470Q312 414 274.5 379Q237 344 176 344Q125 344 88 363Q51 382 31 418L95 462Q108 439 126 428Q144 417 169 417Q194 417 208 430Q222 443 222 467Q222 489 208.5 501Q195 513 172 513Q156 513 143.5 507.5Q131 502 121 490L52 515L75 700H290V628H143L134 562Q147 570 162 574.5Q177 579 194 579Z" glyph-name="uni215D" horiz-adv-x="765" unicode="&#8541;" /><glyph d="M196 626H35V700H291V632L156 350H62ZM187 0H100L450 700H537ZM609 180Q635 168 649 146Q663 124 663 96Q663 51 625.5 22.5Q588 -6 526 -6Q464 -6 426 22Q388 50 388 96Q388 123 402.5 144.5Q417 166 444 179Q420 191 407.5 212Q395 233 395 260Q395 302 431.5 329Q468 356 526 356Q584 356 620 329Q656 302 656 260Q656 233 644 212.5Q632 192 609 180ZM483 248Q483 230 494.5 218Q506 206 526 206Q545 206 556.5 218Q568 230 568 248Q568 267 557 278Q546 289 526 289Q506 289 494.5 278Q483 267 483 248ZM573 105Q573 123 560 135.5Q547 148 526 148Q504 148 491 136Q478 124 478 105Q478 83 490.5 71.5Q503 60 526 60Q548 60 560.5 72Q573 84 573 105Z" glyph-name="uni215E" horiz-adv-x="700" unicode="&#8542;" /><glyph d="M70 350V422H145V600Q127 589 104 583Q81 577 55 577V650Q93 650 121.5 664Q150 678 161 700H235V422H310V350ZM275 0H188L538 700H625Z" glyph-name="uni215F" horiz-adv-x="457" unicode="&#8543;" /><glyph d="M72 0H-15L335 700H422Z" glyph-name="uni2215" horiz-adv-x="409" unicode="&#8725;" /><glyph d="M98.5 367Q98.5 319 132.25 286Q166 253 215.5 253Q265 253 298.75 286Q332.5 319 332.5 367Q332.5 415 298.75 448Q265 481 215.5 481Q166 481 132.25 448Q98.5 415 98.5 367ZM98.5 368.5Z" glyph-name="uni2219" horiz-adv-x="431" /><glyph d="M1411 529H73V537H1411ZM1218 257Q1218 262 1218 287.5Q1218 313 1217 332L1188 330V334Q1188 344 1191 349Q1194 354 1200 354H1217L1214 384Q1233 390 1237.5 391Q1242 392 1246 392Q1251 392 1254 390Q1257 388 1257 384V355H1304V352Q1304 341 1301 336Q1298 331 1292 331H1257V241Q1257 233 1261 229.5Q1265 226 1273 226Q1279 226 1286 227Q1293 228 1307 231Q1327 235 1337.5 236Q1348 237 1358 237Q1380 237 1400 230.5Q1420 224 1420 213Q1420 200 1411.5 192.5Q1403 185 1393 185Q1391 185 1388 186Q1385 187 1377 192Q1358 202 1345.5 205.5Q1333 209 1322 209Q1318 209 1313 208.5Q1308 208 1296 206Q1278 203 1267 202Q1256 201 1246 201Q1229 201 1224 210.5Q1219 220 1218 257ZM1201 290Q1201 278 1195 270.5Q1189 263 1176 258Q1167 255 1157 253.5Q1147 252 1132 252Q1133 242 1140 236Q1147 230 1158 230Q1167 230 1174.5 232Q1182 234 1190 239Q1194 236 1196 232Q1198 228 1198 223Q1198 214 1185.5 207Q1173 200 1151 200Q1123 200 1107 214.5Q1091 229 1091 253Q1091 282 1110 301.5Q1129 321 1160 321Q1178 321 1189.5 312Q1201 303 1201 290ZM878 290Q878 278 872 270.5Q866 263 853 258Q844 255 834 253.5Q824 252 809 252Q810 242 817 236Q824 230 835 230Q844 230 851.5 232Q859 234 867 239Q871 236 873 232Q875 228 875 223Q875 214 862.5 207Q850 200 828 200Q800 200 784 214.5Q768 229 768 253Q768 282 787 301.5Q806 321 837 321Q855 321 866.5 312Q878 303 878 290ZM179 290Q179 278 173 270.5Q167 263 154 258Q145 255 135 253.5Q125 252 110 252Q111 242 118 236Q125 230 136 230Q145 230 152.5 232Q160 234 168 239Q172 236 174 232Q176 228 176 223Q176 214 163.5 207Q151 200 129 200Q101 200 85 214.5Q69 229 69 253Q69 282 88 301.5Q107 321 138 321Q156 321 167.5 312Q179 303 179 290ZM1046 321Q1060 321 1067.5 313Q1075 305 1075 289V240L1077 208Q1058 202 1053.5 201Q1049 200 1046 200Q1041 200 1038 202Q1035 204 1035 208V275Q1035 283 1033 286.5Q1031 290 1027 290Q1020 290 1010.5 272.5Q1001 255 1001 242L1004 208Q985 202 980.5 201Q976 200 972 200Q967 200 964 202Q961 204 961 208V277L958 313Q977 319 981.5 320Q986 321 990 321Q995 321 998 318.5Q1001 316 1001 312V272Q1010 296 1021 308.5Q1032 321 1046 321ZM356 321Q370 321 377 313Q384 305 384 289V240L387 208Q368 202 363.5 201Q359 200 356 200Q351 200 348 202Q345 204 345 208V274Q345 283 343 286.5Q341 290 337 290Q330 290 320.5 272.5Q311 255 311 242L313 208Q294 202 289.5 201Q285 200 282 200Q277 200 274 202Q271 204 271 208V274Q271 283 269 286.5Q267 290 263 290Q256 290 246.5 272.5Q237 255 237 242L240 208Q221 202 216.5 201Q212 200 208 200Q203 200 200 202Q197 204 197 208V277L194 313Q213 319 217.5 320Q222 321 226 321Q231 321 234 318.5Q237 316 237 312V272Q243 292 255 306.5Q267 321 282 321Q296 321 303.5 313Q311 305 311 289V272Q317 294 329 307.5Q341 321 356 321ZM832 298Q823 298 816.5 288.5Q810 279 808 264Q824 264 834.5 269.5Q845 275 845 285Q845 291 841.5 294.5Q838 298 832 298ZM1155 298Q1146 298 1139.5 288.5Q1133 279 1131 264Q1147 264 1157.5 269.5Q1168 275 1168 285Q1168 291 1164.5 294.5Q1161 298 1155 298ZM133 298Q124 298 117.5 288.5Q111 279 109 264Q125 264 135.5 269.5Q146 275 146 285Q146 291 142.5 294.5Q139 298 133 298ZM668 242V219Q691 222 702 235Q713 248 713 270Q713 280 709.5 285Q706 290 700 290Q688 290 678 272Q668 254 668 242ZM893 226Q893 236 900 243Q907 250 918 250Q929 250 936.5 243Q944 236 944 226Q944 216 936.5 209.5Q929 203 918 203Q907 203 900 209.5Q893 216 893 226ZM715 320Q733 320 744 306Q755 292 755 269Q755 236 732.5 218.5Q710 201 668 201V161L671 129Q652 123 647.5 122Q643 121 639 121Q634 121 631 123Q628 125 628 129V204L603 201V198Q603 160 585.5 139.5Q568 119 535 119Q516 119 505 128.5Q494 138 494 153Q494 171 510.5 184Q527 197 564 206V248Q556 225 544 212.5Q532 200 518 200Q504 200 497 207.5Q490 215 490 231V234Q480 217 467 209Q454 201 437 201Q424 201 416 209Q408 217 408 231V332L379 330V334Q379 344 382 349Q385 354 391 354H408L405 384Q424 390 428.5 391Q433 392 437 392Q442 392 445 390Q448 388 448 384V355H495V352Q495 341 492 336Q489 331 483 331H448V245Q448 237 451 233Q454 229 461 229Q471 229 480.5 237Q490 245 490 255V280L487 313Q506 319 510.5 320Q515 321 519 321Q524 321 527 318.5Q530 316 530 312V246Q530 238 531.5 234.5Q533 231 537 231Q544 231 553.5 248Q563 265 563 279L561 313Q580 319 584.5 320Q589 321 592 321Q597 321 600 318.5Q603 316 603 312V213L628 216V277L625 313Q644 319 648.5 320Q653 321 657 321Q662 321 665 318.5Q668 316 668 312V272Q676 295 688 307.5Q700 320 715 320ZM536 148Q548 148 555 159Q562 170 563 194Q544 190 533 181.5Q522 173 522 162Q522 155 526 151.5Q530 148 536 148ZM1411 0H73V8H1411Z" glyph-name="uniF8FF" horiz-adv-x="1490" unicode="&#63743;" /><glyph d="M71 170V504H186V195Q186 140 209.5 114.5Q233 89 282 89Q339 89 371 133Q403 177 403 252V504H518V0H478Q444 -15 425.5 -42Q407 -69 407 -101Q407 -129 423 -145Q439 -161 466 -161Q475 -161 482.5 -159.5Q490 -158 498 -155V-215Q485 -222 469 -225.5Q453 -229 432 -229Q382 -229 351.5 -201Q321 -173 321 -126Q321 -87 344.5 -52.5Q368 -18 409 0V75Q381 32 341.5 10Q302 -12 251 -12Q169 -12 120 39.5Q71 91 71 170Z" glyph-name="uogonek" horiz-adv-x="594" unicode="&#371;" /><glyph d="M405 671Q405 717 372.5 750Q340 783 294 783Q247 783 215 750Q183 717 183 671Q183 625 215 593Q247 561 294 561Q341 561 373 593Q405 625 405 671ZM247 671Q247 690 261 704.5Q275 719 294 719Q313 719 327 704.5Q341 690 341 671Q341 653 327 639Q313 625 294 625Q275 625 261 639Q247 653 247 671ZM294 504ZM71 170V504H186V195Q186 140 209.5 114.5Q233 89 282 89Q339 89 371 133Q403 177 403 252V504H518V0H409V75Q381 32 341.5 10Q302 -12 251 -12Q169 -12 120 39.5Q71 91 71 170ZM294 504ZM476 0Z" glyph-name="uring" horiz-adv-x="594" unicode="&#367;" /><glyph d="M71 170V504H186V195Q186 140 209.5 114.5Q233 89 282 89Q339 89 371 133Q403 177 403 252V504H518V0H409V75Q381 32 341.5 10Q302 -12 251 -12Q169 -12 120 39.5Q71 91 71 170ZM294 504ZM476 0ZM374 602Q416 602 436 634.5Q456 667 447 720H376Q377 702 372 695Q367 688 353 688Q345 688 335 690.5Q325 693 303 701Q276 711 261.5 714.5Q247 718 234 718Q189 718 165 685Q141 652 147 598H220Q221 617 229 625.5Q237 634 253 634Q263 634 275 631Q287 628 310 619Q335 608 348.5 605Q362 602 374 602ZM294 504Z" glyph-name="utilde" horiz-adv-x="594" unicode="&#361;" /><glyph d="M214 0 20 504H145L277 132L410 504H530L334 0Z" glyph-name="v" horiz-adv-x="548" unicode="v" /><glyph d="M179 0 21 504H139L237 141L335 504H446L544 140L642 504H756L598 0H488L388 349L289 0ZM390 504Z" glyph-name="w" horiz-adv-x="777" unicode="w" /><glyph d="M552 733H430L340 587H442ZM390 504ZM179 0 21 504H139L237 141L335 504H446L544 140L642 504H756L598 0H488L388 349L289 0ZM390 504Z" glyph-name="wacute" horiz-adv-x="777" unicode="&#7811;" /><glyph d="M234 587 326 733H455L547 587H451L390 667L328 587ZM390 504ZM179 0 21 504H139L237 141L335 504H446L544 140L642 504H756L598 0H488L388 349L289 0ZM390 504Z" glyph-name="wcircumflex" horiz-adv-x="777" unicode="&#373;" /><glyph d="M238 660Q238 633 257 614Q276 595 302 595Q329 595 348.5 614Q368 633 368 660Q368 686 348.5 705.5Q329 725 302 725Q276 725 257 705.5Q238 686 238 660ZM414 660Q414 633 433 614Q452 595 479 595Q506 595 525 614Q544 633 544 660Q544 686 524.5 705.5Q505 725 479 725Q452 725 433 706Q414 687 414 660ZM390 504ZM179 0 21 504H139L237 141L335 504H446L544 140L642 504H756L598 0H488L388 349L289 0ZM390 504Z" glyph-name="wdieresis" horiz-adv-x="777" unicode="&#7813;" /><glyph d="M179 0 21 504H139L237 141L335 504H446L544 140L642 504H756L598 0H488L388 349L289 0ZM390 504ZM441 587 351 733H230L340 587ZM390 504Z" glyph-name="wgrave" horiz-adv-x="777" unicode="&#7809;" /><glyph d="M204 255 19 504H153L272 338L393 504H524L338 257L533 0H396L269 173L142 0H12Z" glyph-name="x" horiz-adv-x="544" unicode="x" /><glyph d="M217 -5 18 504H146L275 138L410 504H529L249 -218H131ZM276 504Z" glyph-name="y" horiz-adv-x="548" unicode="y" /><glyph d="M217 -5 18 504H146L275 138L410 504H529L249 -218H131ZM276 504ZM437 733H315L225 587H327ZM275 504Z" glyph-name="yacute" horiz-adv-x="548" unicode="&#253;" /><glyph d="M217 -5 18 504H146L275 138L410 504H529L249 -218H131ZM276 504ZM119 587 211 733H340L432 587H336L275 667L213 587ZM275 504Z" glyph-name="ycircumflex" horiz-adv-x="548" unicode="&#375;" /><glyph d="M217 -5 18 504H146L275 138L410 504H529L249 -218H131ZM276 504ZM124 660Q124 633 143 614Q162 595 188 595Q215 595 234.5 614Q254 633 254 660Q254 686 234.5 705.5Q215 725 188 725Q162 725 143 705.5Q124 686 124 660ZM300 660Q300 633 319 614Q338 595 365 595Q392 595 411 614Q430 633 430 660Q430 686 410.5 705.5Q391 725 365 725Q338 725 319 706Q300 687 300 660ZM276 504Z" glyph-name="ydieresis" horiz-adv-x="548" unicode="&#255;" /><glyph d="M245 165H76V241H245V289L237 304H76V381H198L33 700H163L308 397L453 700H578L415 381H537V304H375L367 288V241H537V165H367V0H245Z" glyph-name="yen" horiz-adv-x="613" unicode="&#165;" /><glyph d="M217 -5 18 504H146L275 138L410 504H529L249 -218H131ZM276 504ZM327 587 237 733H116L226 587ZM276 504Z" glyph-name="ygrave" horiz-adv-x="548" unicode="&#7923;" /><glyph d="M185 100H475V0H35L34 83L316 404H51V504H464V418ZM257 504Z" glyph-name="z" horiz-adv-x="512" unicode="z" /><glyph d="M419 733H297L207 587H309ZM257 504ZM185 100H475V0H35L34 83L316 404H51V504H464V418ZM257 504Z" glyph-name="zacute" horiz-adv-x="512" unicode="&#378;" /><glyph d="M322 587H193L101 733H197L258 653L320 733H414ZM257 504ZM185 100H475V0H35L34 83L316 404H51V504H464V418ZM257 504Z" glyph-name="zcaron" horiz-adv-x="512" unicode="&#382;" /><glyph d="M185 100H475V0H35L34 83L316 404H51V504H464V418ZM257 504ZM183 660Q183 630 205 608.5Q227 587 257 587Q288 587 310 608.5Q332 630 332 660Q332 690 310 711Q288 732 257 732Q227 732 205 711Q183 690 183 660ZM257 504Z" glyph-name="zdotaccent" horiz-adv-x="512" unicode="&#380;" /><glyph d="M54 350Q54 182 127.5 85Q201 -12 332 -12Q463 -12 537 85Q611 182 611 350Q611 517 537 614.5Q463 712 332 712Q202 712 128 614.5Q54 517 54 350ZM486 350Q486 225 446.5 159Q407 93 332 93Q257 93 217.5 159Q178 225 178 350Q178 474 217.5 540.5Q257 607 332 607Q407 607 446.5 540.5Q486 474 486 350Z" glyph-name="zero" horiz-adv-x="664" unicode="0" /><glyph d="M32 175Q32 92 73 43Q114 -6 186 -6Q259 -6 300.5 43Q342 92 342 175Q342 258 300.5 307Q259 356 186 356Q114 356 73 307Q32 258 32 175ZM252 175Q252 125 234.5 96.5Q217 68 186 68Q156 68 139 96.5Q122 125 122 175Q122 225 139 253.5Q156 282 186 282Q217 282 234.5 253.5Q252 225 252 175Z" glyph-name="zero.denominator" horiz-adv-x="374" unicode="&#63061;" /><glyph d="M32 35Q32 -48 73 -97Q114 -146 186 -146Q259 -146 300.5 -97Q342 -48 342 35Q342 118 300.5 167Q259 216 186 216Q114 216 73 167Q32 118 32 35ZM252 35Q252 -15 234.5 -43.5Q217 -72 186 -72Q156 -72 139 -43.5Q122 -15 122 35Q122 85 139 113.5Q156 142 186 142Q217 142 234.5 113.5Q252 85 252 35Z" glyph-name="zero.inferior" horiz-adv-x="374" unicode="&#8320;" /><glyph d="M32 525Q32 442 73 393Q114 344 186 344Q259 344 300.5 393Q342 442 342 525Q342 608 300.5 657Q259 706 186 706Q114 706 73 657Q32 608 32 525ZM252 525Q252 475 234.5 446.5Q217 418 186 418Q156 418 139 446.5Q122 475 122 525Q122 575 139 603.5Q156 632 186 632Q217 632 234.5 603.5Q252 575 252 525Z" glyph-name="zero.numerator" horiz-adv-x="374" unicode="&#63073;" /><glyph d="M32 665Q32 582 73 533Q114 484 186 484Q259 484 300.5 533Q342 582 342 665Q342 748 300.5 797Q259 846 186 846Q114 846 73 797Q32 748 32 665ZM252 665Q252 615 234.5 586.5Q217 558 186 558Q156 558 139 586.5Q122 615 122 665Q122 715 139 743.5Q156 772 186 772Q217 772 234.5 743.5Q252 715 252 665Z" glyph-name="zero.superior" horiz-adv-x="374" unicode="&#8304;" /><glyph d="M29 350Q29 182 102.5 85Q176 -12 307 -12Q438 -12 512 85Q586 182 586 350Q586 517 512 614.5Q438 712 307 712Q177 712 103 614.5Q29 517 29 350ZM461 350Q461 225 421.5 159Q382 93 307 93Q232 93 192.5 159Q153 225 153 350Q153 474 192.5 540.5Q232 607 307 607Q382 607 421.5 540.5Q461 474 461 350Z" glyph-name="zero.tab" horiz-adv-x="614" unicode="&#65296;" /></font>
</defs>
</svg>
