<?xml version="1.0" standalone="no"?><!DOCTYPE svg PUBLIC "-//W3C//DTD SVG 1.1//EN" "http://www.w3.org/Graphics/SVG/1.1/DTD/svg11.dtd" ><svg version="1.1" xmlns="http://www.w3.org/2000/svg"><defs><font horiz-adv-x="0" id="font"><font-face ascent="750" bbox="-155 -238 1423 997" cap-height="700" descent="-250" font-family="Web use ONLY | Copyright (C) Emtype Foundry" font-stretch="normal" font-weight="800" units-per-em="1000" x-height="512" /><missing-glyph d="M52 351Q52 501 157.5 606.5Q263 712 413 712Q563 712 668.5 606.5Q774 501 774 351Q774 201 668 94.5Q562 -12 413 -12Q264 -12 158 94.5Q52 201 52 351ZM306 565H229L375 346L229 127H307L414 287L520 127H598L452 346L598 565H521L414 404Z" horiz-adv-x="826" /><glyph d="M221 112 184 0H10L262 700H459L714 0H529L491 112ZM355 515 268 252H444ZM360 700ZM671 0Z" glyph-name="A" horiz-adv-x="722" unicode="A" /><glyph d="M227 112 170 0H-13L362 700H942V555H627V428H911V293H627V145H953V0H452V112ZM452 553 299 252H452Z" glyph-name="AE" horiz-adv-x="999" unicode="&#198;" /><glyph d="M221 112 184 0H10L262 700H459L714 0H529L491 112ZM355 515 268 252H444ZM360 700ZM671 0ZM538 940H383L292 787H429ZM360 700Z" glyph-name="Aacute" horiz-adv-x="722" unicode="&#193;" /><glyph d="M221 112 184 0H10L262 700H459L714 0H529L491 112ZM355 515 268 252H444ZM360 700ZM671 0ZM361 876Q382 876 391.5 890.5Q401 905 403 940H515Q514 869 473.5 827Q433 785 360 785Q287 785 246.5 827Q206 869 205 940H319Q321 905 330.5 890.5Q340 876 361 876ZM360 700Z" glyph-name="Abreve" horiz-adv-x="722" unicode="&#258;" /><glyph d="M221 112 184 0H10L262 700H459L714 0H529L491 112ZM355 515 268 252H444ZM360 700ZM671 0ZM164 787 270 940H451L557 787H422L359 861L297 787ZM361 700Z" glyph-name="Acircumflex" horiz-adv-x="722" unicode="&#194;" /><glyph d="M221 112 184 0H10L262 700H459L714 0H529L491 112ZM355 515 268 252H444ZM360 700ZM671 0ZM186 863Q186 831 208 808.5Q230 786 262 786Q294 786 317 808.5Q340 831 340 863Q340 895 317 918Q294 941 262 941Q231 941 208.5 918Q186 895 186 863ZM380 863Q380 831 402.5 808.5Q425 786 457 786Q489 786 511.5 808.5Q534 831 534 863Q534 895 511 918Q488 941 457 941Q425 941 402.5 918Q380 895 380 863ZM360 700Z" glyph-name="Adieresis" horiz-adv-x="722" unicode="&#196;" /><glyph d="M221 112 184 0H10L262 700H459L714 0H529L491 112ZM355 515 268 252H444ZM360 700ZM671 0ZM428 787 337 940H184L293 787ZM360 700Z" glyph-name="Agrave" horiz-adv-x="722" unicode="&#192;" /><glyph d="M221 112 184 0H10L262 700H459L714 0H529L491 112ZM355 515 268 252H444ZM360 700ZM671 0ZM483 813H237V912H483ZM360 700Z" glyph-name="Amacron" horiz-adv-x="722" unicode="&#256;" /><glyph d="M221 112 184 0H10L262 700H459L714 0H602Q576 -16 562 -41Q548 -66 548 -95Q548 -123 565 -139Q582 -155 612 -155Q620 -155 629 -154Q638 -153 648 -150V-224Q632 -231 614.5 -234.5Q597 -238 573 -238Q514 -238 478.5 -209.5Q443 -181 443 -130Q443 -90 465 -56Q487 -22 529 0L491 112ZM355 515 268 252H444Z" glyph-name="Aogonek" horiz-adv-x="722" unicode="&#260;" /><glyph d="M221 112 184 0H10L262 700H459L714 0H529L491 112ZM355 515 268 252H444ZM360 700ZM671 0ZM479 878Q479 927 444 962Q409 997 360 997Q310 997 276 962Q242 927 242 878Q242 829 276 794.5Q310 760 360 760Q410 760 444.5 794.5Q479 829 479 878ZM318 878Q318 895 331 908Q344 921 360 921Q377 921 390 908Q403 895 403 878Q403 862 390 849Q377 836 360 836Q344 836 331 849Q318 862 318 878ZM361 700Z" glyph-name="Aring" horiz-adv-x="722" unicode="&#197;" /><glyph d="M221 112 184 0H10L262 700H459L714 0H529L491 112ZM355 515 268 252H444ZM360 700ZM671 0ZM444 795Q495 795 517 833.5Q539 872 522 936H429Q431 920 426.5 913.5Q422 907 409 907Q401 907 390.5 909Q380 911 358 918Q330 927 315 930Q300 933 287 933Q233 933 207 891Q181 849 196 789H291Q292 806 300 814Q308 822 324 822Q334 822 345.5 819.5Q357 817 380 809Q405 800 418.5 797.5Q432 795 444 795ZM360 700Z" glyph-name="Atilde" horiz-adv-x="722" unicode="&#195;" /><glyph d="M75 0V700H396Q522 700 586.5 655.5Q651 611 651 523Q651 476 622.5 434.5Q594 393 544 368Q608 348 641 305.5Q674 263 674 202Q674 111 602.5 55.5Q531 0 410 0ZM481 503Q481 531 460 547Q439 563 402 563H248V428H402Q439 428 460 448.5Q481 469 481 503ZM499 220Q499 254 476 273.5Q453 293 413 293H248V137H413Q453 137 476 159.5Q499 182 499 220Z" glyph-name="B" horiz-adv-x="713" unicode="B" /><glyph d="M386 -12Q228 -12 133.5 87Q39 186 39 346Q39 505 139 608.5Q239 712 398 712Q497 712 575 667Q653 622 695 540L547 455Q515 508 477.5 532.5Q440 557 391 557Q313 557 265 499.5Q217 442 217 350Q217 254 264.5 196Q312 138 392 138Q445 138 483.5 166Q522 194 556 262L707 188Q664 92 581 40Q498 -12 386 -12ZM385 10ZM398 700Z" glyph-name="C" horiz-adv-x="724" unicode="C" /><glyph d="M386 -12Q228 -12 133.5 87Q39 186 39 346Q39 505 139 608.5Q239 712 398 712Q497 712 575 667Q653 622 695 540L547 455Q515 508 477.5 532.5Q440 557 391 557Q313 557 265 499.5Q217 442 217 350Q217 254 264.5 196Q312 138 392 138Q445 138 483.5 166Q522 194 556 262L707 188Q664 92 581 40Q498 -12 386 -12ZM385 10ZM398 700ZM576 940H421L330 787H467ZM398 700Z" glyph-name="Cacute" horiz-adv-x="724" unicode="&#262;" /><glyph d="M386 -12Q228 -12 133.5 87Q39 186 39 346Q39 505 139 608.5Q239 712 398 712Q497 712 575 667Q653 622 695 540L547 455Q515 508 477.5 532.5Q440 557 391 557Q313 557 265 499.5Q217 442 217 350Q217 254 264.5 196Q312 138 392 138Q445 138 483.5 166Q522 194 556 262L707 188Q664 92 581 40Q498 -12 386 -12ZM385 10ZM398 700ZM489 787H308L202 940H337L400 866L462 940H595ZM399 700Z" glyph-name="Ccaron" horiz-adv-x="724" unicode="&#268;" /><glyph d="M317 -118 294 -86 350 -11Q207 1 123 98.5Q39 196 39 346Q39 505 139 608.5Q239 712 398 712Q497 712 575 667Q653 622 695 540L547 455Q515 508 477.5 532.5Q440 557 391 557Q313 557 265 499.5Q217 442 217 350Q217 254 264.5 196Q312 138 392 138Q445 138 483.5 166Q522 194 556 262L707 188Q669 102 597 50.5Q525 -1 428 -10L398 -50Q443 -50 468 -71.5Q493 -93 493 -131Q493 -181 459 -209.5Q425 -238 366 -238Q344 -238 321.5 -234Q299 -230 279 -223V-151Q302 -159 317.5 -162Q333 -165 352 -165Q375 -165 386 -157.5Q397 -150 397 -136Q397 -124 387.5 -117.5Q378 -111 360 -111Q351 -111 339.5 -113Q328 -115 317 -118Z" glyph-name="Ccedilla" horiz-adv-x="724" unicode="&#199;" /><glyph d="M386 -12Q228 -12 133.5 87Q39 186 39 346Q39 505 139 608.5Q239 712 398 712Q497 712 575 667Q653 622 695 540L547 455Q515 508 477.5 532.5Q440 557 391 557Q313 557 265 499.5Q217 442 217 350Q217 254 264.5 196Q312 138 392 138Q445 138 483.5 166Q522 194 556 262L707 188Q664 92 581 40Q498 -12 386 -12ZM385 10ZM398 700ZM202 787 308 940H489L595 787H460L397 861L335 787ZM399 700Z" glyph-name="Ccircumflex" horiz-adv-x="724" unicode="&#264;" /><glyph d="M386 -12Q228 -12 133.5 87Q39 186 39 346Q39 505 139 608.5Q239 712 398 712Q497 712 575 667Q653 622 695 540L547 455Q515 508 477.5 532.5Q440 557 391 557Q313 557 265 499.5Q217 442 217 350Q217 254 264.5 196Q312 138 392 138Q445 138 483.5 166Q522 194 556 262L707 188Q664 92 581 40Q498 -12 386 -12ZM385 10ZM398 700ZM305 863Q305 826 332.5 800.5Q360 775 398 775Q437 775 464.5 800.5Q492 826 492 863Q492 899 464.5 924Q437 949 398 949Q360 949 332.5 924Q305 899 305 863ZM399 700Z" glyph-name="Cdotaccent" horiz-adv-x="724" unicode="&#266;" /><glyph d="M75 0V700H371Q528 700 628 602.5Q728 505 728 357Q728 206 626.5 103Q525 0 371 0ZM551 357Q551 446 501.5 500.5Q452 555 371 555H250V145H371Q452 145 501.5 204Q551 263 551 357ZM386 700Z" glyph-name="D" horiz-adv-x="766" unicode="D" /><glyph d="M75 0V700H371Q528 700 628 602.5Q728 505 728 357Q728 206 626.5 103Q525 0 371 0ZM551 357Q551 446 501.5 500.5Q452 555 371 555H250V145H371Q452 145 501.5 204Q551 263 551 357ZM386 700ZM457 787H276L170 940H305L368 866L430 940H563ZM367 700Z" glyph-name="Dcaron" horiz-adv-x="766" unicode="&#270;" /><glyph d="M17 295V405H101V700H397Q554 700 654 602.5Q754 505 754 357Q754 206 652.5 103Q551 0 397 0H101V295ZM577 357Q577 446 527.5 500.5Q478 555 397 555H276V405H425V295H276V145H397Q478 145 527.5 204Q577 263 577 357Z" glyph-name="Dcroat" horiz-adv-x="792" unicode="&#272;" /><glyph d="M27 0V130L259 700H456L690 130V0ZM352 528 205 140H501Z" glyph-name="Delta" horiz-adv-x="717" unicode="&#8710;" /><glyph d="M75 0V700H565V555H250V428H534V293H250V145H576V0ZM320 700ZM533 0Z" glyph-name="E" horiz-adv-x="622" unicode="E" /><glyph d="M75 0V700H565V555H250V428H534V293H250V145H576V0ZM320 700ZM533 0ZM498 940H343L252 787H389ZM320 700Z" glyph-name="Eacute" horiz-adv-x="622" unicode="&#201;" /><glyph d="M75 0V700H565V555H250V428H534V293H250V145H576V0ZM320 700ZM533 0ZM321 876Q342 876 351.5 890.5Q361 905 363 940H475Q474 869 433.5 827Q393 785 320 785Q247 785 206.5 827Q166 869 165 940H279Q281 905 290.5 890.5Q300 876 321 876ZM320 700Z" glyph-name="Ebreve" horiz-adv-x="622" unicode="&#276;" /><glyph d="M75 0V700H565V555H250V428H534V293H250V145H576V0ZM320 700ZM533 0ZM411 787H230L124 940H259L322 866L384 940H517ZM321 700Z" glyph-name="Ecaron" horiz-adv-x="622" unicode="&#282;" /><glyph d="M75 0V700H565V555H250V428H534V293H250V145H576V0ZM320 700ZM533 0ZM124 787 230 940H411L517 787H382L319 861L257 787ZM321 700Z" glyph-name="Ecircumflex" horiz-adv-x="622" unicode="&#202;" /><glyph d="M75 0V700H565V555H250V428H534V293H250V145H576V0ZM320 700ZM533 0ZM146 863Q146 831 168 808.5Q190 786 222 786Q254 786 277 808.5Q300 831 300 863Q300 895 277 918Q254 941 222 941Q191 941 168.5 918Q146 895 146 863ZM340 863Q340 831 362.5 808.5Q385 786 417 786Q449 786 471.5 808.5Q494 831 494 863Q494 895 471 918Q448 941 417 941Q385 941 362.5 918Q340 895 340 863ZM320 700Z" glyph-name="Edieresis" horiz-adv-x="622" unicode="&#203;" /><glyph d="M75 0V700H565V555H250V428H534V293H250V145H576V0ZM320 700ZM533 0ZM227 863Q227 826 254.5 800.5Q282 775 320 775Q359 775 386.5 800.5Q414 826 414 863Q414 899 386.5 924Q359 949 320 949Q282 949 254.5 924Q227 899 227 863ZM321 700Z" glyph-name="Edotaccent" horiz-adv-x="622" unicode="&#278;" /><glyph d="M75 0V700H565V555H250V428H534V293H250V145H576V0ZM320 700ZM533 0ZM388 787 297 940H144L253 787ZM320 700Z" glyph-name="Egrave" horiz-adv-x="622" unicode="&#200;" /><glyph d="M75 0V700H565V555H250V428H534V293H250V145H576V0ZM320 700ZM533 0ZM443 813H197V912H443ZM320 700Z" glyph-name="Emacron" horiz-adv-x="622" unicode="&#274;" /><glyph d="M250 293V145H576V0H530Q504 -16 490 -41Q476 -66 476 -95Q476 -123 493 -139Q510 -155 540 -155Q548 -155 557 -154Q566 -153 576 -150V-224Q560 -231 542.5 -234.5Q525 -238 501 -238Q442 -238 406.5 -209.5Q371 -181 371 -130Q371 -90 393 -56Q415 -22 457 0H75V700H565V555H250V428H534V293Z" glyph-name="Eogonek" horiz-adv-x="622" unicode="&#280;" /><glyph d="M17 295V405H101V700H397Q554 700 654 602.5Q754 505 754 357Q754 206 652.5 103Q551 0 397 0H101V295ZM577 357Q577 446 527.5 500.5Q478 555 397 555H276V405H425V295H276V145H397Q478 145 527.5 204Q577 263 577 357Z" glyph-name="Eth" horiz-adv-x="792" unicode="&#208;" /><glyph d="M116 222H35V318H102Q101 323 101 328.5Q101 334 101 346Q101 352 101 357.5Q101 363 101 368H35V464H115Q145 580 225 646Q305 712 419 712Q509 712 579 667Q649 622 687 540L542 463Q516 518 487.5 541Q459 564 419 564Q376 564 345 538.5Q314 513 296 464H437V368H279Q279 364 279 359.5Q279 355 279 350Q279 336 279 329.5Q279 323 280 318H437V222H301Q318 180 348.5 157.5Q379 135 420 135Q462 135 493 162.5Q524 190 554 261L699 188Q654 84 584 36Q514 -12 412 -12Q300 -12 222.5 49.5Q145 111 116 222Z" glyph-name="Euro" horiz-adv-x="731" unicode="&#8364;" /><glyph d="M75 0V700H576V555H250V398H546V258H250V0Z" glyph-name="F" horiz-adv-x="612" unicode="F" /><glyph d="M418 244V379H708V0H562V67Q527 28 478.5 8Q430 -12 371 -12Q224 -12 131.5 89Q39 190 39 346Q39 506 139 609Q239 712 402 712Q498 712 575 673.5Q652 635 696 567L567 466Q534 513 492.5 537Q451 561 401 561Q320 561 268.5 501Q217 441 217 350Q217 257 266 197Q315 137 394 137Q456 137 498.5 166Q541 195 541 242V244ZM400 700ZM370 0Z" glyph-name="G" horiz-adv-x="761" unicode="G" /><glyph d="M418 244V379H708V0H562V67Q527 28 478.5 8Q430 -12 371 -12Q224 -12 131.5 89Q39 190 39 346Q39 506 139 609Q239 712 402 712Q498 712 575 673.5Q652 635 696 567L567 466Q534 513 492.5 537Q451 561 401 561Q320 561 268.5 501Q217 441 217 350Q217 257 266 197Q315 137 394 137Q456 137 498.5 166Q541 195 541 242V244ZM400 700ZM370 0ZM401 876Q422 876 431.5 890.5Q441 905 443 940H555Q554 869 513.5 827Q473 785 400 785Q327 785 286.5 827Q246 869 245 940H359Q361 905 370.5 890.5Q380 876 401 876ZM400 700Z" glyph-name="Gbreve" horiz-adv-x="761" unicode="&#286;" /><glyph d="M418 244V379H708V0H562V67Q527 28 478.5 8Q430 -12 371 -12Q224 -12 131.5 89Q39 190 39 346Q39 506 139 609Q239 712 402 712Q498 712 575 673.5Q652 635 696 567L567 466Q534 513 492.5 537Q451 561 401 561Q320 561 268.5 501Q217 441 217 350Q217 257 266 197Q315 137 394 137Q456 137 498.5 166Q541 195 541 242V244ZM400 700ZM370 0ZM204 787 310 940H491L597 787H462L399 861L337 787ZM401 700Z" glyph-name="Gcircumflex" horiz-adv-x="761" unicode="&#284;" /><glyph d="M418 244V379H708V0H562V67Q527 28 478.5 8Q430 -12 371 -12Q224 -12 131.5 89Q39 190 39 346Q39 506 139 609Q239 712 402 712Q498 712 575 673.5Q652 635 696 567L567 466Q534 513 492.5 537Q451 561 401 561Q320 561 268.5 501Q217 441 217 350Q217 257 266 197Q315 137 394 137Q456 137 498.5 166Q541 195 541 242V244ZM400 700ZM370 0ZM307 863Q307 826 334.5 800.5Q362 775 400 775Q439 775 466.5 800.5Q494 826 494 863Q494 899 466.5 924Q439 949 400 949Q362 949 334.5 924Q307 899 307 863ZM401 700Z" glyph-name="Gdotaccent" horiz-adv-x="761" unicode="&#288;" /><glyph d="M75 0V700H250V433H510V700H685V0H510V288H250V0ZM380 700Z" glyph-name="H" horiz-adv-x="760" unicode="H" /><glyph d="M25 511V621H85V700H260V621H520V700H695V621H745V511H695V0H520V288H260V0H85V511ZM260 511V433H520V511Z" glyph-name="Hbar" horiz-adv-x="775" unicode="&#294;" /><glyph d="M75 0V700H250V433H510V700H685V0H510V288H250V0ZM380 700ZM184 787 290 940H471L577 787H442L379 861L317 787ZM381 700Z" glyph-name="Hcircumflex" horiz-adv-x="760" unicode="&#292;" /><glyph d="M75 0V700H250V0ZM162 700ZM207 0Z" glyph-name="I" horiz-adv-x="325" unicode="I" /><glyph d="M46 0V140H166V560H46V700H461V560H341V140H461V0ZM254 700ZM254 0Z" glyph-name="I.alt" horiz-adv-x="507" /><glyph d="M75 0V700H250V0ZM162 700ZM207 0ZM848 224V700H673V223Q673 176 655 155Q637 134 597 134Q559 134 533.5 160.5Q508 187 489 255L334 207Q354 100 422 44Q490 -12 600 -12Q718 -12 783 51Q848 114 848 224ZM760 700Z" glyph-name="IJ" horiz-adv-x="917" unicode="&#306;" /><glyph d="M46 0V140H166V560H46V700H461V560H341V140H461V0ZM658 560V700H1037V224Q1037 114 972 51Q907 -12 789 -12Q679 -12 611 44Q543 100 523 207L678 255Q697 187 722.5 160.5Q748 134 786 134Q826 134 844 155Q862 176 862 223V560Z" glyph-name="IJ.alt" horiz-adv-x="1106" /><glyph d="M75 0V700H250V0ZM162 700ZM207 0ZM340 940H185L94 787H231ZM162 700Z" glyph-name="Iacute" horiz-adv-x="325" unicode="&#205;" /><glyph d="M46 0V140H166V560H46V700H461V560H341V140H461V0ZM254 700ZM254 0ZM435 940H280L189 787H326ZM257 700Z" glyph-name="Iacute.alt" horiz-adv-x="507" /><glyph d="M75 0V700H250V0ZM162 700ZM207 0ZM-35 787 71 940H252L358 787H223L160 861L98 787ZM162 700Z" glyph-name="Icircumflex" horiz-adv-x="325" unicode="&#206;" /><glyph d="M46 0V140H166V560H46V700H461V560H341V140H461V0ZM254 700ZM254 0ZM55 787 161 940H342L448 787H313L250 861L188 787ZM252 700Z" glyph-name="Icircumflex.alt" horiz-adv-x="507" /><glyph d="M75 0V700H250V0ZM162 700ZM207 0ZM-12 863Q-12 831 10 808.5Q32 786 64 786Q96 786 119 808.5Q142 831 142 863Q142 895 119 918Q96 941 64 941Q33 941 10.5 918Q-12 895 -12 863ZM182 863Q182 831 204.5 808.5Q227 786 259 786Q291 786 313.5 808.5Q336 831 336 863Q336 895 313 918Q290 941 259 941Q227 941 204.5 918Q182 895 182 863ZM162 700Z" glyph-name="Idieresis" horiz-adv-x="325" unicode="&#207;" /><glyph d="M46 0V140H166V560H46V700H461V560H341V140H461V0ZM254 700ZM254 0ZM78 863Q78 831 100 808.5Q122 786 154 786Q186 786 209 808.5Q232 831 232 863Q232 895 209 918Q186 941 154 941Q123 941 100.5 918Q78 895 78 863ZM272 863Q272 831 294.5 808.5Q317 786 349 786Q381 786 403.5 808.5Q426 831 426 863Q426 895 403 918Q380 941 349 941Q317 941 294.5 918Q272 895 272 863ZM252 700Z" glyph-name="Idieresis.alt" horiz-adv-x="507" /><glyph d="M75 0V700H250V0ZM162 700ZM207 0ZM68 863Q68 826 95.5 800.5Q123 775 161 775Q200 775 227.5 800.5Q255 826 255 863Q255 899 227.5 924Q200 949 161 949Q123 949 95.5 924Q68 899 68 863ZM162 700Z" glyph-name="Idotaccent" horiz-adv-x="325" unicode="&#304;" /><glyph d="M46 0V140H166V560H46V700H461V560H341V140H461V0ZM254 700ZM254 0ZM158 863Q158 826 185.5 800.5Q213 775 251 775Q290 775 317.5 800.5Q345 826 345 863Q345 899 317.5 924Q290 949 251 949Q213 949 185.5 924Q158 899 158 863ZM252 700Z" glyph-name="Idotaccent.alt" horiz-adv-x="507" /><glyph d="M75 0V700H250V0ZM162 700ZM207 0ZM230 787 139 940H-14L95 787ZM162 700Z" glyph-name="Igrave" horiz-adv-x="325" unicode="&#204;" /><glyph d="M46 0V140H166V560H46V700H461V560H341V140H461V0ZM254 700ZM254 0ZM320 787 229 940H76L185 787ZM252 700Z" glyph-name="Igrave.alt" horiz-adv-x="507" /><glyph d="M75 0V700H250V0ZM162 700ZM207 0ZM285 813H39V912H285ZM162 700Z" glyph-name="Imacron" horiz-adv-x="325" unicode="&#298;" /><glyph d="M46 0V140H166V560H46V700H461V560H341V140H461V0ZM254 700ZM254 0ZM375 813H129V912H375ZM252 700Z" glyph-name="Imacron.alt" horiz-adv-x="507" /><glyph d="M75 700H250V0H148Q122 -16 108 -41Q94 -66 94 -95Q94 -123 111 -139Q128 -155 158 -155Q166 -155 175 -154Q184 -153 194 -150V-224Q178 -231 160.5 -234.5Q143 -238 119 -238Q60 -238 24.5 -209.5Q-11 -181 -11 -130Q-11 -90 11 -56Q33 -22 75 0Z" glyph-name="Iogonek" horiz-adv-x="325" unicode="&#302;" /><glyph d="M46 0V140H166V560H46V700H461V560H341V140H461V0H415Q389 -16 375 -41Q361 -66 361 -95Q361 -123 378 -139Q395 -155 425 -155Q433 -155 442 -154Q451 -153 461 -150V-224Q445 -231 427.5 -234.5Q410 -238 386 -238Q327 -238 291.5 -209.5Q256 -181 256 -130Q256 -90 278 -56Q300 -22 342 0Z" glyph-name="Iogonek.alt" horiz-adv-x="507" /><glyph d="M75 0V700H250V0ZM162 700ZM207 0ZM246 795Q297 795 319 833.5Q341 872 324 936H231Q233 920 228.5 913.5Q224 907 211 907Q203 907 192.5 909Q182 911 160 918Q132 927 117 930Q102 933 89 933Q35 933 9 891Q-17 849 -2 789H93Q94 806 102 814Q110 822 126 822Q136 822 147.5 819.5Q159 817 182 809Q207 800 220.5 797.5Q234 795 246 795ZM162 700Z" glyph-name="Itilde" horiz-adv-x="325" unicode="&#296;" /><glyph d="M46 0V140H166V560H46V700H461V560H341V140H461V0ZM254 700ZM254 0ZM339 795Q390 795 412 833.5Q434 872 417 936H324Q326 920 321.5 913.5Q317 907 304 907Q296 907 285.5 909Q275 911 253 918Q225 927 210 930Q195 933 182 933Q128 933 102 891Q76 849 91 789H186Q187 806 195 814Q203 822 219 822Q229 822 240.5 819.5Q252 817 275 809Q300 800 313.5 797.5Q327 795 339 795ZM255 700Z" glyph-name="Itilde.alt" horiz-adv-x="507" /><glyph d="M523 224V700H348V223Q348 176 330 155Q312 134 272 134Q234 134 208.5 160.5Q183 187 164 255L9 207Q29 100 97 44Q165 -12 275 -12Q393 -12 458 51Q523 114 523 224ZM435 700Z" glyph-name="J" horiz-adv-x="592" unicode="J" /><glyph d="M151 560V700H530V224Q530 114 465 51Q400 -12 282 -12Q172 -12 104 44Q36 100 16 207L171 255Q190 187 215.5 160.5Q241 134 279 134Q319 134 337 155Q355 176 355 223V560ZM343 700Z" glyph-name="J.alt" horiz-adv-x="599" /><glyph d="M523 224V700H348V223Q348 176 330 155Q312 134 272 134Q234 134 208.5 160.5Q183 187 164 255L9 207Q29 100 97 44Q165 -12 275 -12Q393 -12 458 51Q523 114 523 224ZM435 700ZM239 787 345 940H526L632 787H497L434 861L372 787ZM436 700Z" glyph-name="Jcircumflex" horiz-adv-x="592" unicode="&#308;" /><glyph d="M142 787 248 940H429L535 787H400L337 861L275 787ZM151 560V700H530V224Q530 114 465 51Q400 -12 282 -12Q172 -12 104 44Q36 100 16 207L171 255Q190 187 215.5 160.5Q241 134 279 134Q319 134 337 155Q355 176 355 223V560Z" glyph-name="Jcircumflex.alt" horiz-adv-x="599" /><glyph d="M433 407 693 0H486L312 277L250 205V0H75V700H250V415L486 700H684ZM368 0Z" glyph-name="K" horiz-adv-x="691" unicode="K" /><glyph d="M75 0V700H250V145H526V0ZM162 700ZM301 0ZM310 700ZM324 350Z" glyph-name="L" horiz-adv-x="545" unicode="L" /><glyph d="M75 0V700H250V145H526V0ZM162 700ZM301 0ZM310 700ZM324 350ZM340 940H185L94 787H231ZM162 700Z" glyph-name="Lacute" horiz-adv-x="545" unicode="&#313;" /><glyph d="M75 0V700H250V145H526V0ZM162 700ZM301 0ZM310 700ZM324 350ZM470 730H336L310 546H409ZM310 700Z" glyph-name="Lcaron" horiz-adv-x="548" unicode="&#317;" /><glyph d="M75 0V700H250V145H526V0ZM162 700ZM301 0ZM310 700ZM324 350ZM331 360Q331 319 361 290.5Q391 262 434 262Q477 262 507.5 290.5Q538 319 538 360Q538 401 508 428.5Q478 456 434 456Q391 456 361 428Q331 400 331 360ZM330 358Z" glyph-name="Ldot" horiz-adv-x="563" unicode="&#319;" /><glyph d="M75 0V700H250V145H526V0ZM162 700ZM301 0ZM310 700ZM324 350ZM331 360Q331 319 361 290.5Q391 262 434 262Q477 262 507.5 290.5Q538 319 538 360Q538 401 508 428.5Q478 456 434 456Q391 456 361 428Q331 400 331 360ZM330 358ZM620 0V700H795V145H1071V0ZM707 700ZM846 0ZM855 700ZM869 350Z" glyph-name="Lgeminada" horiz-adv-x="1090" /><glyph d="M78 208 19 307 116 367V700H291V474L353 512L411 413L291 339V145H567V0H116V231Z" glyph-name="Lslash" horiz-adv-x="586" unicode="&#321;" /><glyph d="M75 0V700H286L467 222L646 700H858V0H696V428L531 -3H398L231 421V0Z" glyph-name="M" horiz-adv-x="933" unicode="M" /><glyph d="M75 0V700H257L518 299V700H685V0H526L242 440V0ZM389 700ZM382 0Z" glyph-name="N" horiz-adv-x="760" unicode="N" /><glyph d="M75 0V700H257L518 299V700H685V0H526L242 440V0ZM389 700ZM382 0ZM567 940H412L321 787H458ZM389 700Z" glyph-name="Nacute" horiz-adv-x="760" unicode="&#323;" /><glyph d="M75 0V700H257L518 299V700H685V0H526L242 440V0ZM389 700ZM382 0ZM480 787H299L193 940H328L391 866L453 940H586ZM390 700Z" glyph-name="Ncaron" horiz-adv-x="760" unicode="&#327;" /><glyph d="M75 0V700H257L518 299V700H685V0H526L242 440V0ZM389 700ZM382 0ZM473 795Q524 795 546 833.5Q568 872 551 936H458Q460 920 455.5 913.5Q451 907 438 907Q430 907 419.5 909Q409 911 387 918Q359 927 344 930Q329 933 316 933Q262 933 236 891Q210 849 225 789H320Q321 806 329 814Q337 822 353 822Q363 822 374.5 819.5Q386 817 409 809Q434 800 447.5 797.5Q461 795 473 795ZM389 700Z" glyph-name="Ntilde" horiz-adv-x="760" unicode="&#209;" /><glyph d="M39 350Q39 191 138.5 89.5Q238 -12 400 -12Q561 -12 661 90Q761 192 761 350Q761 508 661 610Q561 712 400 712Q239 712 139 610Q39 508 39 350ZM583 350Q583 257 532 195.5Q481 134 400 134Q318 134 267.5 195Q217 256 217 350Q217 444 268 505Q319 566 400 566Q480 566 531.5 504.5Q583 443 583 350ZM400 700Z" glyph-name="O" horiz-adv-x="800" unicode="O" /><glyph d="M369 -12Q221 -12 130.5 89.5Q40 191 40 350Q40 508 131 610Q222 712 369 712Q438 712 492 692Q546 672 584 632V700H1074V555H759V428H1043V293H759V145H1085V0H584V71Q545 30 491 9Q437 -12 369 -12ZM218 350Q218 256 268.5 195Q319 134 401 134Q482 134 533 195.5Q584 257 584 350Q584 443 532.5 504.5Q481 566 401 566Q320 566 269 505Q218 444 218 350Z" glyph-name="OE" horiz-adv-x="1131" unicode="&#338;" /><glyph d="M39 350Q39 191 138.5 89.5Q238 -12 400 -12Q561 -12 661 90Q761 192 761 350Q761 508 661 610Q561 712 400 712Q239 712 139 610Q39 508 39 350ZM583 350Q583 257 532 195.5Q481 134 400 134Q318 134 267.5 195Q217 256 217 350Q217 444 268 505Q319 566 400 566Q480 566 531.5 504.5Q583 443 583 350ZM400 700ZM578 940H423L332 787H469ZM400 700Z" glyph-name="Oacute" horiz-adv-x="800" unicode="&#211;" /><glyph d="M39 350Q39 191 138.5 89.5Q238 -12 400 -12Q561 -12 661 90Q761 192 761 350Q761 508 661 610Q561 712 400 712Q239 712 139 610Q39 508 39 350ZM583 350Q583 257 532 195.5Q481 134 400 134Q318 134 267.5 195Q217 256 217 350Q217 444 268 505Q319 566 400 566Q480 566 531.5 504.5Q583 443 583 350ZM400 700ZM401 876Q422 876 431.5 890.5Q441 905 443 940H555Q554 869 513.5 827Q473 785 400 785Q327 785 286.5 827Q246 869 245 940H359Q361 905 370.5 890.5Q380 876 401 876ZM400 700Z" glyph-name="Obreve" horiz-adv-x="800" unicode="&#334;" /><glyph d="M39 350Q39 191 138.5 89.5Q238 -12 400 -12Q561 -12 661 90Q761 192 761 350Q761 508 661 610Q561 712 400 712Q239 712 139 610Q39 508 39 350ZM583 350Q583 257 532 195.5Q481 134 400 134Q318 134 267.5 195Q217 256 217 350Q217 444 268 505Q319 566 400 566Q480 566 531.5 504.5Q583 443 583 350ZM400 700ZM204 787 310 940H491L597 787H462L399 861L337 787ZM401 700Z" glyph-name="Ocircumflex" horiz-adv-x="800" unicode="&#212;" /><glyph d="M39 350Q39 191 138.5 89.5Q238 -12 400 -12Q561 -12 661 90Q761 192 761 350Q761 508 661 610Q561 712 400 712Q239 712 139 610Q39 508 39 350ZM583 350Q583 257 532 195.5Q481 134 400 134Q318 134 267.5 195Q217 256 217 350Q217 444 268 505Q319 566 400 566Q480 566 531.5 504.5Q583 443 583 350ZM400 700ZM226 863Q226 831 248 808.5Q270 786 302 786Q334 786 357 808.5Q380 831 380 863Q380 895 357 918Q334 941 302 941Q271 941 248.5 918Q226 895 226 863ZM420 863Q420 831 442.5 808.5Q465 786 497 786Q529 786 551.5 808.5Q574 831 574 863Q574 895 551 918Q528 941 497 941Q465 941 442.5 918Q420 895 420 863ZM400 700Z" glyph-name="Odieresis" horiz-adv-x="800" unicode="&#214;" /><glyph d="M39 350Q39 191 138.5 89.5Q238 -12 400 -12Q561 -12 661 90Q761 192 761 350Q761 508 661 610Q561 712 400 712Q239 712 139 610Q39 508 39 350ZM583 350Q583 257 532 195.5Q481 134 400 134Q318 134 267.5 195Q217 256 217 350Q217 444 268 505Q319 566 400 566Q480 566 531.5 504.5Q583 443 583 350ZM400 700ZM468 787 377 940H224L333 787ZM400 700Z" glyph-name="Ograve" horiz-adv-x="800" unicode="&#210;" /><glyph d="M39 350Q39 191 138.5 89.5Q238 -12 400 -12Q561 -12 661 90Q761 192 761 350Q761 508 661 610Q561 712 400 712Q239 712 139 610Q39 508 39 350ZM583 350Q583 257 532 195.5Q481 134 400 134Q318 134 267.5 195Q217 256 217 350Q217 444 268 505Q319 566 400 566Q480 566 531.5 504.5Q583 443 583 350ZM400 700ZM483 940H333L242 787H370ZM691 940H535L414 787H546ZM400 700Z" glyph-name="Ohungarumlaut" horiz-adv-x="800" unicode="&#336;" /><glyph d="M39 350Q39 191 138.5 89.5Q238 -12 400 -12Q561 -12 661 90Q761 192 761 350Q761 508 661 610Q561 712 400 712Q239 712 139 610Q39 508 39 350ZM583 350Q583 257 532 195.5Q481 134 400 134Q318 134 267.5 195Q217 256 217 350Q217 444 268 505Q319 566 400 566Q480 566 531.5 504.5Q583 443 583 350ZM400 700ZM523 813H277V912H523ZM400 700Z" glyph-name="Omacron" horiz-adv-x="800" unicode="&#332;" /><glyph d="M51 0V130H173Q114 176 82.5 245Q51 314 51 396Q51 535 147.5 623.5Q244 712 402 712Q559 712 656 623.5Q753 535 753 396Q753 315 721 245.5Q689 176 631 130H753V0H465V155Q516 178 545.5 240Q575 302 575 384Q575 468 528.5 517Q482 566 402 566Q321 566 275 517.5Q229 469 229 384Q229 303 258 242Q287 181 337 156V0Z" glyph-name="Omega" horiz-adv-x="804" unicode="&#8486;" /><glyph d="M246 17 172 -92H39L153 76Q98 125 68.5 196Q39 267 39 350Q39 508 139 610Q239 712 400 712Q444 712 484.5 703.5Q525 695 561 679L631 782H761L652 619Q704 570 732.5 500Q761 430 761 350Q761 192 661 90Q561 -12 400 -12Q357 -12 318.5 -5Q280 2 246 17ZM400 566Q319 566 268 505Q217 444 217 350Q217 310 227 274.5Q237 239 255 212L481 546Q464 556 443 561Q422 566 400 566ZM400 134Q481 134 532 195.5Q583 257 583 350Q583 386 574.5 419.5Q566 453 549 481L325 150Q343 142 361.5 138Q380 134 400 134Z" glyph-name="Oslash" horiz-adv-x="800" unicode="&#216;" /><glyph d="M39 350Q39 191 138.5 89.5Q238 -12 400 -12Q561 -12 661 90Q761 192 761 350Q761 508 661 610Q561 712 400 712Q239 712 139 610Q39 508 39 350ZM583 350Q583 257 532 195.5Q481 134 400 134Q318 134 267.5 195Q217 256 217 350Q217 444 268 505Q319 566 400 566Q480 566 531.5 504.5Q583 443 583 350ZM400 700ZM484 795Q535 795 557 833.5Q579 872 562 936H469Q471 920 466.5 913.5Q462 907 449 907Q441 907 430.5 909Q420 911 398 918Q370 927 355 930Q340 933 327 933Q273 933 247 891Q221 849 236 789H331Q332 806 340 814Q348 822 364 822Q374 822 385.5 819.5Q397 817 420 809Q445 800 458.5 797.5Q472 795 484 795ZM400 700Z" glyph-name="Otilde" horiz-adv-x="800" unicode="&#213;" /><glyph d="M75 0V700H405Q518 700 592.5 632.5Q667 565 667 467Q667 357 591.5 284Q516 211 401 211H250V0ZM490 464Q490 508 457.5 535Q425 562 371 562H250V351H371Q425 351 457.5 382Q490 413 490 464Z" glyph-name="P" horiz-adv-x="691" unicode="P" /><glyph d="M400 -12Q238 -12 138.5 89.5Q39 191 39 350Q39 508 139 610Q239 712 400 712Q561 712 661 610Q761 508 761 350Q761 279 739 216.5Q717 154 675 105L751 21L634 -82L547 14Q514 1 477.5 -5.5Q441 -12 400 -12ZM217 350Q217 256 267.5 195Q318 134 400 134Q409 134 418 135Q427 136 436 137L363 218L482 321L558 236Q570 261 576.5 290Q583 319 583 350Q583 443 531.5 504.5Q480 566 400 566Q319 566 268 505Q217 444 217 350Z" glyph-name="Q" horiz-adv-x="802" unicode="Q" /><glyph d="M75 0V700H428Q538 700 609.5 636.5Q681 573 682 478Q683 402 642.5 342Q602 282 531 254L681 0H484L349 234H250V0ZM505 474Q505 516 474 539.5Q443 563 390 563H250V370H390Q443 370 474 398Q505 426 505 474ZM359 700ZM367 0Z" glyph-name="R" horiz-adv-x="723" unicode="R" /><glyph d="M75 0V700H428Q538 700 609.5 636.5Q681 573 682 478Q683 402 642.5 342Q602 282 531 254L681 0H484L349 234H250V0ZM505 474Q505 516 474 539.5Q443 563 390 563H250V370H390Q443 370 474 398Q505 426 505 474ZM359 700ZM367 0ZM537 940H382L291 787H428ZM359 700Z" glyph-name="Racute" horiz-adv-x="723" unicode="&#340;" /><glyph d="M75 0V700H428Q538 700 609.5 636.5Q681 573 682 478Q683 402 642.5 342Q602 282 531 254L681 0H484L349 234H250V0ZM505 474Q505 516 474 539.5Q443 563 390 563H250V370H390Q443 370 474 398Q505 426 505 474ZM359 700ZM367 0ZM450 787H269L163 940H298L361 866L423 940H556ZM360 700Z" glyph-name="Rcaron" horiz-adv-x="723" unicode="&#344;" /><glyph d="M609 221Q609 117 535 52.5Q461 -12 337 -12Q243 -12 167.5 14.5Q92 41 21 100L117 227Q166 181 220.5 157Q275 133 330 133Q379 133 405.5 151Q432 169 432 203Q432 228 412.5 243Q393 258 337 271L247 292Q150 315 102.5 366.5Q55 418 55 500Q55 590 128 651Q201 712 320 712Q399 712 470 687Q541 662 604 609L509 483Q460 524 411 544Q362 564 313 564Q274 564 252.5 549.5Q231 535 231 510Q231 486 249 471Q267 456 314 445L413 421Q512 397 560.5 347.5Q609 298 609 221ZM330 10ZM321 700ZM330 0Z" glyph-name="S" horiz-adv-x="649" unicode="S" /><glyph d="M609 221Q609 117 535 52.5Q461 -12 337 -12Q243 -12 167.5 14.5Q92 41 21 100L117 227Q166 181 220.5 157Q275 133 330 133Q379 133 405.5 151Q432 169 432 203Q432 228 412.5 243Q393 258 337 271L247 292Q150 315 102.5 366.5Q55 418 55 500Q55 590 128 651Q201 712 320 712Q399 712 470 687Q541 662 604 609L509 483Q460 524 411 544Q362 564 313 564Q274 564 252.5 549.5Q231 535 231 510Q231 486 249 471Q267 456 314 445L413 421Q512 397 560.5 347.5Q609 298 609 221ZM330 10ZM321 700ZM330 0ZM499 940H344L253 787H390ZM321 700Z" glyph-name="Sacute" horiz-adv-x="649" unicode="&#346;" /><glyph d="M609 221Q609 117 535 52.5Q461 -12 337 -12Q243 -12 167.5 14.5Q92 41 21 100L117 227Q166 181 220.5 157Q275 133 330 133Q379 133 405.5 151Q432 169 432 203Q432 228 412.5 243Q393 258 337 271L247 292Q150 315 102.5 366.5Q55 418 55 500Q55 590 128 651Q201 712 320 712Q399 712 470 687Q541 662 604 609L509 483Q460 524 411 544Q362 564 313 564Q274 564 252.5 549.5Q231 535 231 510Q231 486 249 471Q267 456 314 445L413 421Q512 397 560.5 347.5Q609 298 609 221ZM330 10ZM321 700ZM330 0ZM412 787H231L125 940H260L323 866L385 940H518ZM322 700Z" glyph-name="Scaron" horiz-adv-x="649" unicode="&#352;" /><glyph d="M262 -118 239 -86 295 -11Q216 -5 150 21.5Q84 48 21 100L117 227Q166 181 220.5 157Q275 133 330 133Q379 133 405.5 151Q432 169 432 203Q432 229 412.5 243.5Q393 258 337 271L247 292Q150 315 102.5 367Q55 419 55 500Q55 590 128 651Q201 712 320 712Q399 712 470 687Q541 662 604 609L509 483Q460 524 411 544Q362 564 313 564Q274 564 252.5 549.5Q231 535 231 510Q231 486 249 471Q267 456 314 445L413 421Q513 397 561 347.5Q609 298 609 221Q609 125 545.5 62Q482 -1 373 -11L343 -50Q388 -50 413 -71.5Q438 -93 438 -131Q438 -181 404 -209.5Q370 -238 311 -238Q289 -238 266.5 -234Q244 -230 224 -223V-151Q247 -159 262.5 -162Q278 -165 297 -165Q320 -165 331 -157.5Q342 -150 342 -136Q342 -124 332.5 -117.5Q323 -111 305 -111Q296 -111 284.5 -113Q273 -115 262 -118Z" glyph-name="Scedilla" horiz-adv-x="649" unicode="&#350;" /><glyph d="M609 221Q609 117 535 52.5Q461 -12 337 -12Q243 -12 167.5 14.5Q92 41 21 100L117 227Q166 181 220.5 157Q275 133 330 133Q379 133 405.5 151Q432 169 432 203Q432 228 412.5 243Q393 258 337 271L247 292Q150 315 102.5 366.5Q55 418 55 500Q55 590 128 651Q201 712 320 712Q399 712 470 687Q541 662 604 609L509 483Q460 524 411 544Q362 564 313 564Q274 564 252.5 549.5Q231 535 231 510Q231 486 249 471Q267 456 314 445L413 421Q512 397 560.5 347.5Q609 298 609 221ZM330 10ZM321 700ZM330 0ZM125 787 231 940H412L518 787H383L320 861L258 787ZM322 700Z" glyph-name="Scircumflex" horiz-adv-x="649" unicode="&#348;" /><glyph d="M19 555V700H587V555H391V0H216V555ZM303 10ZM303 700ZM303 0Z" glyph-name="T" horiz-adv-x="606" unicode="T" /><glyph d="M74 273V383H234V555H37V700H605V555H409V383H569V273H409V0H234V273Z" glyph-name="Tbar" horiz-adv-x="642" unicode="&#358;" /><glyph d="M19 555V700H587V555H391V0H216V555ZM303 10ZM303 700ZM303 0ZM394 787H213L107 940H242L305 866L367 940H500ZM304 700Z" glyph-name="Tcaron" horiz-adv-x="606" unicode="&#356;" /><glyph d="M75 0V700H250V595H405Q518 595 592.5 527.5Q667 460 667 362Q667 252 591.5 179Q516 106 401 106H250V0ZM490 359Q490 403 457.5 430Q425 457 371 457H250V246H371Q425 246 457.5 277Q490 308 490 359Z" glyph-name="Thorn" horiz-adv-x="700" unicode="&#222;" /><glyph d="M503 700H678V254Q678 133 593.5 60.5Q509 -12 374 -12Q238 -12 153 60.5Q68 133 68 254V700H243V265Q243 203 278.5 168Q314 133 374 133Q434 133 468.5 168Q503 203 503 265ZM373 700ZM453 0Z" glyph-name="U" horiz-adv-x="746" unicode="U" /><glyph d="M503 700H678V254Q678 133 593.5 60.5Q509 -12 374 -12Q238 -12 153 60.5Q68 133 68 254V700H243V265Q243 203 278.5 168Q314 133 374 133Q434 133 468.5 168Q503 203 503 265ZM373 700ZM453 0ZM551 940H396L305 787H442ZM373 700Z" glyph-name="Uacute" horiz-adv-x="746" unicode="&#218;" /><glyph d="M503 700H678V254Q678 133 593.5 60.5Q509 -12 374 -12Q238 -12 153 60.5Q68 133 68 254V700H243V265Q243 203 278.5 168Q314 133 374 133Q434 133 468.5 168Q503 203 503 265ZM373 700ZM453 0ZM374 876Q395 876 404.5 890.5Q414 905 416 940H528Q527 869 486.5 827Q446 785 373 785Q300 785 259.5 827Q219 869 218 940H332Q334 905 343.5 890.5Q353 876 374 876ZM373 700Z" glyph-name="Ubreve" horiz-adv-x="746" unicode="&#364;" /><glyph d="M503 700H678V254Q678 133 593.5 60.5Q509 -12 374 -12Q238 -12 153 60.5Q68 133 68 254V700H243V265Q243 203 278.5 168Q314 133 374 133Q434 133 468.5 168Q503 203 503 265ZM373 700ZM453 0ZM177 787 283 940H464L570 787H435L372 861L310 787ZM374 700Z" glyph-name="Ucircumflex" horiz-adv-x="746" unicode="&#219;" /><glyph d="M503 700H678V254Q678 133 593.5 60.5Q509 -12 374 -12Q238 -12 153 60.5Q68 133 68 254V700H243V265Q243 203 278.5 168Q314 133 374 133Q434 133 468.5 168Q503 203 503 265ZM373 700ZM453 0ZM199 863Q199 831 221 808.5Q243 786 275 786Q307 786 330 808.5Q353 831 353 863Q353 895 330 918Q307 941 275 941Q244 941 221.5 918Q199 895 199 863ZM393 863Q393 831 415.5 808.5Q438 786 470 786Q502 786 524.5 808.5Q547 831 547 863Q547 895 524 918Q501 941 470 941Q438 941 415.5 918Q393 895 393 863ZM373 700Z" glyph-name="Udieresis" horiz-adv-x="746" unicode="&#220;" /><glyph d="M503 700H678V254Q678 133 593.5 60.5Q509 -12 374 -12Q238 -12 153 60.5Q68 133 68 254V700H243V265Q243 203 278.5 168Q314 133 374 133Q434 133 468.5 168Q503 203 503 265ZM373 700ZM453 0ZM441 787 350 940H197L306 787ZM373 700Z" glyph-name="Ugrave" horiz-adv-x="746" unicode="&#217;" /><glyph d="M503 700H678V254Q678 133 593.5 60.5Q509 -12 374 -12Q238 -12 153 60.5Q68 133 68 254V700H243V265Q243 203 278.5 168Q314 133 374 133Q434 133 468.5 168Q503 203 503 265ZM373 700ZM453 0ZM456 940H306L215 787H343ZM664 940H508L387 787H519ZM373 700Z" glyph-name="Uhungarumlaut" horiz-adv-x="746" unicode="&#368;" /><glyph d="M503 700H678V254Q678 133 593.5 60.5Q509 -12 374 -12Q238 -12 153 60.5Q68 133 68 254V700H243V265Q243 203 278.5 168Q314 133 374 133Q434 133 468.5 168Q503 203 503 265ZM373 700ZM453 0ZM496 813H250V912H496ZM373 700Z" glyph-name="Umacron" horiz-adv-x="746" unicode="&#362;" /><glyph d="M503 700H678V254Q678 185 652.5 134Q627 83 570 40Q556 30 528 11.5Q500 -7 487 -17Q462 -37 450.5 -56.5Q439 -76 439 -99Q439 -125 456.5 -140Q474 -155 502 -155Q512 -155 520.5 -154Q529 -153 536 -150V-224Q517 -232 501 -235Q485 -238 467 -238Q407 -238 370.5 -207.5Q334 -177 334 -124Q334 -93 351 -64Q368 -35 400 -11Q396 -12 390.5 -12Q385 -12 374 -12Q238 -12 153 60.5Q68 133 68 254V700H243V265Q243 203 278.5 168Q314 133 374 133Q434 133 468.5 168Q503 203 503 265Z" glyph-name="Uogonek" horiz-adv-x="746" unicode="&#370;" /><glyph d="M503 700H678V254Q678 133 593.5 60.5Q509 -12 374 -12Q238 -12 153 60.5Q68 133 68 254V700H243V265Q243 203 278.5 168Q314 133 374 133Q434 133 468.5 168Q503 203 503 265ZM373 700ZM453 0ZM492 878Q492 927 457 962Q422 997 373 997Q323 997 289 962Q255 927 255 878Q255 829 289 794.5Q323 760 373 760Q423 760 457.5 794.5Q492 829 492 878ZM331 878Q331 895 344 908Q357 921 373 921Q390 921 403 908Q416 895 416 878Q416 862 403 849Q390 836 373 836Q357 836 344 849Q331 862 331 878ZM374 700Z" glyph-name="Uring" horiz-adv-x="746" unicode="&#366;" /><glyph d="M503 700H678V254Q678 133 593.5 60.5Q509 -12 374 -12Q238 -12 153 60.5Q68 133 68 254V700H243V265Q243 203 278.5 168Q314 133 374 133Q434 133 468.5 168Q503 203 503 265ZM373 700ZM453 0ZM457 795Q508 795 530 833.5Q552 872 535 936H442Q444 920 439.5 913.5Q435 907 422 907Q414 907 403.5 909Q393 911 371 918Q343 927 328 930Q313 933 300 933Q246 933 220 891Q194 849 209 789H304Q305 806 313 814Q321 822 337 822Q347 822 358.5 819.5Q370 817 393 809Q418 800 431.5 797.5Q445 795 457 795ZM373 700Z" glyph-name="Utilde" horiz-adv-x="746" unicode="&#360;" /><glyph d="M263 0 8 700H193L353 226L513 700H692L440 0Z" glyph-name="V" horiz-adv-x="702" unicode="V" /><glyph d="M225 0 10 700H187L314 246L433 700H606L725 247L851 700H1024L809 0H639L516 437L393 0ZM520 700Z" glyph-name="W" horiz-adv-x="1034" unicode="W" /><glyph d="M225 0 10 700H187L314 246L433 700H606L725 247L851 700H1024L809 0H639L516 437L393 0ZM520 700ZM698 940H543L452 787H589ZM520 700Z" glyph-name="Wacute" horiz-adv-x="1034" unicode="&#7810;" /><glyph d="M225 0 10 700H187L314 246L433 700H606L725 247L851 700H1024L809 0H639L516 437L393 0ZM520 700ZM324 787 430 940H611L717 787H582L519 861L457 787ZM521 700Z" glyph-name="Wcircumflex" horiz-adv-x="1034" unicode="&#372;" /><glyph d="M225 0 10 700H187L314 246L433 700H606L725 247L851 700H1024L809 0H639L516 437L393 0ZM520 700ZM346 863Q346 831 368 808.5Q390 786 422 786Q454 786 477 808.5Q500 831 500 863Q500 895 477 918Q454 941 422 941Q391 941 368.5 918Q346 895 346 863ZM540 863Q540 831 562.5 808.5Q585 786 617 786Q649 786 671.5 808.5Q694 831 694 863Q694 895 671 918Q648 941 617 941Q585 941 562.5 918Q540 895 540 863ZM520 700Z" glyph-name="Wdieresis" horiz-adv-x="1034" unicode="&#7812;" /><glyph d="M225 0 10 700H187L314 246L433 700H606L725 247L851 700H1024L809 0H639L516 437L393 0ZM520 700ZM588 787 497 940H344L453 787ZM520 700Z" glyph-name="Wgrave" horiz-adv-x="1034" unicode="&#7808;" /><glyph d="M239 351 10 700H206L339 487L473 700H666L435 350L667 0H472L336 211L200 0H6Z" glyph-name="X" horiz-adv-x="674" unicode="X" /><glyph d="M255 276 10 700H193L347 419L497 700H674L430 262V0H255ZM344 700Z" glyph-name="Y" horiz-adv-x="687" unicode="Y" /><glyph d="M255 276 10 700H193L347 419L497 700H674L430 262V0H255ZM344 700ZM522 940H367L276 787H413ZM344 700Z" glyph-name="Yacute" horiz-adv-x="687" unicode="&#221;" /><glyph d="M255 276 10 700H193L347 419L497 700H674L430 262V0H255ZM344 700ZM148 787 254 940H435L541 787H406L343 861L281 787ZM345 700Z" glyph-name="Ycircumflex" horiz-adv-x="687" unicode="&#374;" /><glyph d="M255 276 10 700H193L347 419L497 700H674L430 262V0H255ZM344 700ZM170 863Q170 831 192 808.5Q214 786 246 786Q278 786 301 808.5Q324 831 324 863Q324 895 301 918Q278 941 246 941Q215 941 192.5 918Q170 895 170 863ZM364 863Q364 831 386.5 808.5Q409 786 441 786Q473 786 495.5 808.5Q518 831 518 863Q518 895 495 918Q472 941 441 941Q409 941 386.5 918Q364 895 364 863ZM344 700Z" glyph-name="Ydieresis" horiz-adv-x="687" unicode="&#376;" /><glyph d="M255 276 10 700H193L347 419L497 700H674L430 262V0H255ZM344 700ZM412 787 321 940H168L277 787ZM344 700Z" glyph-name="Ygrave" horiz-adv-x="687" unicode="&#7922;" /><glyph d="M251 145H595V0H35V119L369 555H51V700H585V581ZM318 700Z" glyph-name="Z" horiz-adv-x="633" unicode="Z" /><glyph d="M251 145H595V0H35V119L369 555H51V700H585V581ZM318 700ZM496 940H341L250 787H387ZM318 700Z" glyph-name="Zacute" horiz-adv-x="633" unicode="&#377;" /><glyph d="M251 145H595V0H35V119L369 555H51V700H585V581ZM318 700ZM409 787H228L122 940H257L320 866L382 940H515ZM319 700Z" glyph-name="Zcaron" horiz-adv-x="633" unicode="&#381;" /><glyph d="M251 145H595V0H35V119L369 555H51V700H585V581ZM318 700ZM225 863Q225 826 252.5 800.5Q280 775 318 775Q357 775 384.5 800.5Q412 826 412 863Q412 899 384.5 924Q357 949 318 949Q280 949 252.5 924Q225 899 225 863ZM319 700Z" glyph-name="Zdotaccent" horiz-adv-x="633" unicode="&#379;" /><glyph d="M356 0V62Q330 25 290.5 6.5Q251 -12 200 -12Q125 -12 80 29.5Q35 71 35 136Q35 198 77.5 239.5Q120 281 198 298L346 330Q341 359 321.5 373.5Q302 388 267 388Q233 388 194 370Q155 352 118 320L35 415Q85 466 150.5 495Q216 524 285 524Q392 524 451 468.5Q510 413 510 317V0ZM203 156Q203 135 214.5 125Q226 115 250 115Q290 115 318.5 141.5Q347 168 347 209V223L256 203Q229 197 216 185.5Q203 174 203 156ZM273 512ZM465 0Z" glyph-name="a" horiz-adv-x="563" unicode="a" /><glyph d="M263 -12Q163 -12 97.5 62.5Q32 137 32 253Q32 370 97.5 447Q163 524 263 524Q310 524 348 507Q386 490 414 457V512H572V0H414V55Q386 22 348 5Q310 -12 263 -12ZM202 256Q202 197 230 160Q258 123 302 123Q349 123 377.5 159Q406 195 406 256Q406 316 377 352.5Q348 389 301 389Q257 389 229.5 352.5Q202 316 202 256ZM632 700Z" glyph-name="a.alt" horiz-adv-x="630" /><glyph d="M356 0V62Q330 25 290.5 6.5Q251 -12 200 -12Q125 -12 80 29.5Q35 71 35 136Q35 198 77.5 239.5Q120 281 198 298L346 330Q341 359 321.5 373.5Q302 388 267 388Q233 388 194 370Q155 352 118 320L35 415Q85 466 150.5 495Q216 524 285 524Q392 524 451 468.5Q510 413 510 317V0ZM203 156Q203 135 214.5 125Q226 115 250 115Q290 115 318.5 141.5Q347 168 347 209V223L256 203Q229 197 216 185.5Q203 174 203 156ZM273 512ZM465 0ZM453 740H298L207 587H344ZM275 512Z" glyph-name="aacute" horiz-adv-x="563" unicode="&#225;" /><glyph d="M263 -12Q163 -12 97.5 62.5Q32 137 32 253Q32 370 97.5 447Q163 524 263 524Q310 524 348 507Q386 490 414 457V512H572V0H414V55Q386 22 348 5Q310 -12 263 -12ZM202 256Q202 197 230 160Q258 123 302 123Q349 123 377.5 159Q406 195 406 256Q406 316 377 352.5Q348 389 301 389Q257 389 229.5 352.5Q202 316 202 256ZM632 700ZM496 740H341L250 587H387ZM318 512Z" glyph-name="aacute.alt" horiz-adv-x="630" /><glyph d="M356 0V62Q330 25 290.5 6.5Q251 -12 200 -12Q125 -12 80 29.5Q35 71 35 136Q35 198 77.5 239.5Q120 281 198 298L346 330Q341 359 321.5 373.5Q302 388 267 388Q233 388 194 370Q155 352 118 320L35 415Q85 466 150.5 495Q216 524 285 524Q392 524 451 468.5Q510 413 510 317V0ZM203 156Q203 135 214.5 125Q226 115 250 115Q290 115 318.5 141.5Q347 168 347 209V223L256 203Q229 197 216 185.5Q203 174 203 156ZM273 512ZM465 0ZM276 676Q297 676 306.5 690.5Q316 705 318 740H430Q429 669 388.5 627Q348 585 275 585Q202 585 161.5 627Q121 669 120 740H234Q236 705 245.5 690.5Q255 676 276 676ZM275 512Z" glyph-name="abreve" horiz-adv-x="563" unicode="&#259;" /><glyph d="M263 -12Q163 -12 97.5 62.5Q32 137 32 253Q32 370 97.5 447Q163 524 263 524Q310 524 348 507Q386 490 414 457V512H572V0H414V55Q386 22 348 5Q310 -12 263 -12ZM202 256Q202 197 230 160Q258 123 302 123Q349 123 377.5 159Q406 195 406 256Q406 316 377 352.5Q348 389 301 389Q257 389 229.5 352.5Q202 316 202 256ZM632 700ZM310 676Q331 676 340.5 690.5Q350 705 352 740H464Q463 669 422.5 627Q382 585 309 585Q236 585 195.5 627Q155 669 154 740H268Q270 705 279.5 690.5Q289 676 310 676ZM309 512Z" glyph-name="abreve.alt" horiz-adv-x="630" /><glyph d="M356 0V62Q330 25 290.5 6.5Q251 -12 200 -12Q125 -12 80 29.5Q35 71 35 136Q35 198 77.5 239.5Q120 281 198 298L346 330Q341 359 321.5 373.5Q302 388 267 388Q233 388 194 370Q155 352 118 320L35 415Q85 466 150.5 495Q216 524 285 524Q392 524 451 468.5Q510 413 510 317V0ZM203 156Q203 135 214.5 125Q226 115 250 115Q290 115 318.5 141.5Q347 168 347 209V223L256 203Q229 197 216 185.5Q203 174 203 156ZM273 512ZM465 0ZM78 587 184 740H365L471 587H336L273 661L211 587ZM275 512Z" glyph-name="acircumflex" horiz-adv-x="563" unicode="&#226;" /><glyph d="M263 -12Q163 -12 97.5 62.5Q32 137 32 253Q32 370 97.5 447Q163 524 263 524Q310 524 348 507Q386 490 414 457V512H572V0H414V55Q386 22 348 5Q310 -12 263 -12ZM202 256Q202 197 230 160Q258 123 302 123Q349 123 377.5 159Q406 195 406 256Q406 316 377 352.5Q348 389 301 389Q257 389 229.5 352.5Q202 316 202 256ZM632 700ZM127 587 233 740H414L520 587H385L322 661L260 587ZM324 512Z" glyph-name="acircumflex.alt" horiz-adv-x="630" /><glyph d="M323 740H168L77 587H214ZM145 512Z" glyph-name="acute" horiz-adv-x="401" unicode="&#180;" /><glyph d="M323 940H168L77 787H214ZM145 700Z" glyph-name="acute.case" horiz-adv-x="401" /><glyph d="M356 0V62Q330 25 290.5 6.5Q251 -12 200 -12Q125 -12 80 29.5Q35 71 35 136Q35 198 77.5 239.5Q120 281 198 298L346 330Q341 359 321.5 373.5Q302 388 267 388Q233 388 194 370Q155 352 118 320L35 415Q85 466 150.5 495Q216 524 285 524Q392 524 451 468.5Q510 413 510 317V0ZM203 156Q203 135 214.5 125Q226 115 250 115Q290 115 318.5 141.5Q347 168 347 209V223L256 203Q229 197 216 185.5Q203 174 203 156ZM273 512ZM465 0ZM104 663Q104 631 126 608.5Q148 586 180 586Q212 586 235 608.5Q258 631 258 663Q258 695 235 718Q212 741 180 741Q149 741 126.5 718Q104 695 104 663ZM298 663Q298 631 320.5 608.5Q343 586 375 586Q407 586 429.5 608.5Q452 631 452 663Q452 695 429 718Q406 741 375 741Q343 741 320.5 718Q298 695 298 663ZM275 512Z" glyph-name="adieresis" horiz-adv-x="563" unicode="&#228;" /><glyph d="M263 -12Q163 -12 97.5 62.5Q32 137 32 253Q32 370 97.5 447Q163 524 263 524Q310 524 348 507Q386 490 414 457V512H572V0H414V55Q386 22 348 5Q310 -12 263 -12ZM202 256Q202 197 230 160Q258 123 302 123Q349 123 377.5 159Q406 195 406 256Q406 316 377 352.5Q348 389 301 389Q257 389 229.5 352.5Q202 316 202 256ZM632 700ZM153 663Q153 631 175 608.5Q197 586 229 586Q261 586 284 608.5Q307 631 307 663Q307 695 284 718Q261 741 229 741Q198 741 175.5 718Q153 695 153 663ZM347 663Q347 631 369.5 608.5Q392 586 424 586Q456 586 478.5 608.5Q501 631 501 663Q501 695 478 718Q455 741 424 741Q392 741 369.5 718Q347 695 347 663ZM324 512Z" glyph-name="adieresis.alt" horiz-adv-x="630" /><glyph d="M745 174 834 75Q794 30 739.5 9Q685 -12 609 -12Q537 -12 480.5 16.5Q424 45 392 98Q367 44 319.5 16Q272 -12 206 -12Q130 -12 82 29Q34 70 34 130Q34 195 70.5 234Q107 273 198 297L340 335Q334 362 315 375Q296 388 263 388Q227 388 192.5 372.5Q158 357 119 323L35 417Q80 467 145 495.5Q210 524 282 524Q333 524 372.5 507Q412 490 439 458Q472 490 514.5 507Q557 524 606 524Q713 524 778.5 457Q844 390 844 278Q844 260 843 244Q842 228 841 215H508Q516 166 544 142.5Q572 119 625 119Q658 119 690 133.5Q722 148 745 174ZM603 402Q567 402 543.5 380.5Q520 359 511 317H680Q679 359 659 380.5Q639 402 603 402ZM203 154Q203 134 214 124.5Q225 115 248 115Q287 115 315 141Q343 167 343 207V220L254 198Q228 191 215.5 180.5Q203 170 203 154Z" glyph-name="ae" horiz-adv-x="878" unicode="&#230;" /><glyph d="M356 0V62Q330 25 290.5 6.5Q251 -12 200 -12Q125 -12 80 29.5Q35 71 35 136Q35 198 77.5 239.5Q120 281 198 298L346 330Q341 359 321.5 373.5Q302 388 267 388Q233 388 194 370Q155 352 118 320L35 415Q85 466 150.5 495Q216 524 285 524Q392 524 451 468.5Q510 413 510 317V0ZM203 156Q203 135 214.5 125Q226 115 250 115Q290 115 318.5 141.5Q347 168 347 209V223L256 203Q229 197 216 185.5Q203 174 203 156ZM273 512ZM465 0ZM343 587 252 740H99L208 587ZM275 512Z" glyph-name="agrave" horiz-adv-x="563" unicode="&#224;" /><glyph d="M263 -12Q163 -12 97.5 62.5Q32 137 32 253Q32 370 97.5 447Q163 524 263 524Q310 524 348 507Q386 490 414 457V512H572V0H414V55Q386 22 348 5Q310 -12 263 -12ZM202 256Q202 197 230 160Q258 123 302 123Q349 123 377.5 159Q406 195 406 256Q406 316 377 352.5Q348 389 301 389Q257 389 229.5 352.5Q202 316 202 256ZM632 700ZM397 587 306 740H153L262 587ZM329 512Z" glyph-name="agrave.alt" horiz-adv-x="630" /><glyph d="M356 0V62Q330 25 290.5 6.5Q251 -12 200 -12Q125 -12 80 29.5Q35 71 35 136Q35 198 77.5 239.5Q120 281 198 298L346 330Q341 359 321.5 373.5Q302 388 267 388Q233 388 194 370Q155 352 118 320L35 415Q85 466 150.5 495Q216 524 285 524Q392 524 451 468.5Q510 413 510 317V0ZM203 156Q203 135 214.5 125Q226 115 250 115Q290 115 318.5 141.5Q347 168 347 209V223L256 203Q229 197 216 185.5Q203 174 203 156ZM273 512ZM465 0ZM398 613H152V712H398ZM275 512Z" glyph-name="amacron" horiz-adv-x="563" unicode="&#257;" /><glyph d="M263 -12Q163 -12 97.5 62.5Q32 137 32 253Q32 370 97.5 447Q163 524 263 524Q310 524 348 507Q386 490 414 457V512H572V0H414V55Q386 22 348 5Q310 -12 263 -12ZM202 256Q202 197 230 160Q258 123 302 123Q349 123 377.5 159Q406 195 406 256Q406 316 377 352.5Q348 389 301 389Q257 389 229.5 352.5Q202 316 202 256ZM632 700ZM456 613H210V712H456ZM333 512Z" glyph-name="amacron.alt" horiz-adv-x="630" /><glyph d="M286 -12Q176 -12 107 39Q38 90 38 177Q38 240 76 289Q114 338 192 376Q165 413 151 450.5Q137 488 137 525Q137 610 195 661Q253 712 347 712Q436 712 489 667.5Q542 623 542 547Q542 494 510.5 449.5Q479 405 413 364L510 272L577 376H741V359L626 187Q625 185 621.5 180Q618 175 616 172L756 39V0H569L508 59Q460 23 405 5.5Q350 -12 286 -12ZM349 591Q323 591 308.5 576.5Q294 562 294 538Q294 511 303.5 488.5Q313 466 335 441Q367 464 383 489.5Q399 515 399 543Q399 565 385.5 578Q372 591 349 591ZM224 205Q224 169 250.5 149Q277 129 322 129Q348 129 370 135Q392 141 412 154L272 291Q247 273 235.5 252Q224 231 224 205Z" glyph-name="ampersand" horiz-adv-x="765" unicode="&amp;" /><glyph d="M475 -150V-224Q459 -231 441.5 -234.5Q424 -238 400 -238Q341 -238 305.5 -209.5Q270 -181 270 -130Q270 -90 292 -56Q314 -22 356 0V62Q330 25 290.5 6.5Q251 -12 200 -12Q125 -12 80 29.5Q35 71 35 136Q35 198 77.5 239.5Q120 281 198 298L346 330Q341 359 321.5 373.5Q302 388 267 388Q233 388 194 370Q155 352 118 320L35 415Q85 466 150.5 495Q216 524 285 524Q392 524 451 468.5Q510 413 510 317V0H429Q403 -16 389 -41Q375 -66 375 -95Q375 -123 392 -139Q409 -155 439 -155Q447 -155 456 -154Q465 -153 475 -150ZM203 156Q203 135 214.5 125Q226 115 250 115Q290 115 318.5 141.5Q347 168 347 209V223L256 203Q229 197 216 185.5Q203 174 203 156Z" glyph-name="aogonek" horiz-adv-x="563" unicode="&#261;" /><glyph d="M263 -12Q163 -12 97.5 62.5Q32 137 32 253Q32 370 97.5 447Q163 524 263 524Q310 524 348 507Q386 490 414 457V512H572V0H487Q461 -16 447 -41Q433 -66 433 -95Q433 -123 450 -139Q467 -155 497 -155Q505 -155 514 -154Q523 -153 533 -150V-224Q517 -231 499.5 -234.5Q482 -238 458 -238Q399 -238 363.5 -209.5Q328 -181 328 -130Q328 -90 350 -56Q372 -22 414 0V55Q386 22 348 5Q310 -12 263 -12ZM202 256Q202 197 230 160Q258 123 302 123Q349 123 377.5 159Q406 195 406 256Q406 316 377 352.5Q348 389 301 389Q257 389 229.5 352.5Q202 316 202 256Z" glyph-name="aogonek.alt" horiz-adv-x="630" /><glyph d="M311.9 171Q348.8 156.6 368.15 151.65Q387.5 146.7 404.6 146.7Q450.5 146.7 473.9 189.45Q497.3 232.2 491.9 306H414.5Q415.4 284.4 409.55 275.85Q403.7 267.3 390.2 267.3Q377.6 267.3 362.75 271.35Q347.9 275.4 316.4 288Q280.4 303.3 261.5 308.25Q242.6 313.2 225.5 313.2Q168.8 313.2 139.1 267.75Q109.4 222.3 113 145.8H191.3Q192.2 170.1 202.1 181.8Q212 193.5 230.9 193.5Q244.4 193.5 261.05 189.45Q277.7 185.4 311.9 171ZM311.9 377Q348.8 362.6 368.15 357.65Q387.5 352.7 404.6 352.7Q450.5 352.7 473.9 395.45Q497.3 438.2 491.9 512H414.5Q415.4 490.4 409.55 481.85Q403.7 473.3 390.2 473.3Q377.6 473.3 362.75 477.35Q347.9 481.4 316.4 494Q280.4 509.3 261.5 514.25Q242.6 519.2 225.5 519.2Q168.8 519.2 139.1 473.75Q109.4 428.3 113 351.8H191.3Q192.2 376.1 202.1 387.8Q212 399.5 230.9 399.5Q244.4 399.5 261.05 395.45Q277.7 391.4 311.9 377Z" glyph-name="approxequal" horiz-adv-x="601" unicode="&#8776;" /><glyph d="M356 0V62Q330 25 290.5 6.5Q251 -12 200 -12Q125 -12 80 29.5Q35 71 35 136Q35 198 77.5 239.5Q120 281 198 298L346 330Q341 359 321.5 373.5Q302 388 267 388Q233 388 194 370Q155 352 118 320L35 415Q85 466 150.5 495Q216 524 285 524Q392 524 451 468.5Q510 413 510 317V0ZM203 156Q203 135 214.5 125Q226 115 250 115Q290 115 318.5 141.5Q347 168 347 209V223L256 203Q229 197 216 185.5Q203 174 203 156ZM273 512ZM465 0ZM394 678Q394 727 359 762Q324 797 275 797Q225 797 191 762Q157 727 157 678Q157 629 191 594.5Q225 560 275 560Q325 560 359.5 594.5Q394 629 394 678ZM233 678Q233 695 246 708Q259 721 275 721Q292 721 305 708Q318 695 318 678Q318 662 305 649Q292 636 275 636Q259 636 246 649Q233 662 233 678ZM276 512Z" glyph-name="aring" horiz-adv-x="563" unicode="&#229;" /><glyph d="M263 -12Q163 -12 97.5 62.5Q32 137 32 253Q32 370 97.5 447Q163 524 263 524Q310 524 348 507Q386 490 414 457V512H572V0H414V55Q386 22 348 5Q310 -12 263 -12ZM202 256Q202 197 230 160Q258 123 302 123Q349 123 377.5 159Q406 195 406 256Q406 316 377 352.5Q348 389 301 389Q257 389 229.5 352.5Q202 316 202 256ZM632 700ZM445 678Q445 727 410 762Q375 797 326 797Q276 797 242 762Q208 727 208 678Q208 629 242 594.5Q276 560 326 560Q376 560 410.5 594.5Q445 629 445 678ZM284 678Q284 695 297 708Q310 721 326 721Q343 721 356 708Q369 695 369 678Q369 662 356 649Q343 636 326 636Q310 636 297 649Q284 662 284 678ZM327 512Z" glyph-name="aring.alt" horiz-adv-x="630" /><glyph d="M215 700H386L574 281H408L300 531L192 281H25Z" glyph-name="asciicircum" horiz-adv-x="600" unicode="^" /><glyph d="M311 280Q352 264 373.5 258.5Q395 253 414 253Q465 253 491 300.5Q517 348 511 430H425Q426 406 419.5 396.5Q413 387 398 387Q384 387 367.5 391.5Q351 396 316 410Q276 427 255 432.5Q234 438 215 438Q152 438 119 387.5Q86 337 90 252H177Q178 279 189 292Q200 305 221 305Q236 305 254.5 300.5Q273 296 311 280Z" glyph-name="asciitilde" horiz-adv-x="601" unicode="~" /><glyph d="M290 415 308 290H180L198 415L98 337L34 448L151 495L34 542L98 653L198 575L180 700H308L290 575L390 653L454 542L337 495L454 448L390 337Z" glyph-name="asterisk" horiz-adv-x="488" unicode="*" /><glyph d="M516 128Q488 85 451 62Q414 39 372 39Q305 39 263 86Q221 133 221 207Q221 339 282 425.5Q343 512 438 512Q477 512 505 497Q533 482 548 453L556 502H695L643 205Q638 174 646.5 158.5Q655 143 677 143Q717 143 746.5 197.5Q776 252 776 343Q776 472 699 550.5Q622 629 479 629Q321 629 229 529Q137 429 137 272Q137 107 218.5 17.5Q300 -72 453 -72Q514 -72 562.5 -60Q611 -48 678 -10L718 -80Q646 -121 583.5 -138Q521 -155 452 -155Q253 -155 143 -42Q33 71 33 269Q33 358 66 442.5Q99 527 159 588Q219 649 300 680.5Q381 712 479 712Q660 712 769.5 611Q879 510 879 346Q879 210 815.5 127.5Q752 45 658 45Q599 45 563 66Q527 87 516 128ZM363 206Q363 181 377 167Q391 153 417 153Q454 153 484 203.5Q514 254 514 321Q514 360 500 379.5Q486 399 458 399Q420 399 391.5 341Q363 283 363 206Z" glyph-name="at" horiz-adv-x="916" unicode="@" /><glyph d="M356 0V62Q330 25 290.5 6.5Q251 -12 200 -12Q125 -12 80 29.5Q35 71 35 136Q35 198 77.5 239.5Q120 281 198 298L346 330Q341 359 321.5 373.5Q302 388 267 388Q233 388 194 370Q155 352 118 320L35 415Q85 466 150.5 495Q216 524 285 524Q392 524 451 468.5Q510 413 510 317V0ZM203 156Q203 135 214.5 125Q226 115 250 115Q290 115 318.5 141.5Q347 168 347 209V223L256 203Q229 197 216 185.5Q203 174 203 156ZM273 512ZM465 0ZM360 595Q411 595 433 633.5Q455 672 438 736H345Q347 720 342.5 713.5Q338 707 325 707Q317 707 306.5 709Q296 711 274 718Q246 727 231 730Q216 733 203 733Q149 733 123 691Q97 649 112 589H207Q208 606 216 614Q224 622 240 622Q250 622 261.5 619.5Q273 617 296 609Q321 600 334.5 597.5Q348 595 360 595ZM265 512Z" glyph-name="atilde" horiz-adv-x="563" unicode="&#227;" /><glyph d="M263 -12Q163 -12 97.5 62.5Q32 137 32 253Q32 370 97.5 447Q163 524 263 524Q310 524 348 507Q386 490 414 457V512H572V0H414V55Q386 22 348 5Q310 -12 263 -12ZM202 256Q202 197 230 160Q258 123 302 123Q349 123 377.5 159Q406 195 406 256Q406 316 377 352.5Q348 389 301 389Q257 389 229.5 352.5Q202 316 202 256ZM632 700ZM404 595Q455 595 477 633.5Q499 672 482 736H389Q391 720 386.5 713.5Q382 707 369 707Q361 707 350.5 709Q340 711 318 718Q290 727 275 730Q260 733 247 733Q193 733 167 691Q141 649 156 589H251Q252 606 260 614Q268 622 284 622Q294 622 305.5 619.5Q317 617 340 609Q365 600 378.5 597.5Q392 595 404 595ZM309 512Z" glyph-name="atilde.alt" horiz-adv-x="630" /><glyph d="M371 524Q474 524 540 449.5Q606 375 606 259Q606 141 539.5 64.5Q473 -12 371 -12Q323 -12 284 5.5Q245 23 216 57V0H58V730H226V467Q254 495 290 509.5Q326 524 371 524ZM436 257Q436 316 407 352.5Q378 389 332 389Q283 389 253.5 352.5Q224 316 224 256Q224 196 254 159.5Q284 123 333 123Q380 123 408 159.5Q436 196 436 257Z" glyph-name="b" horiz-adv-x="638" unicode="b" /><glyph d="M152 742 503 -132H369L18 742Z" glyph-name="backslash" horiz-adv-x="522" unicode="\" /><glyph d="M210 742V-152H70V742Z" glyph-name="bar" horiz-adv-x="280" unicode="|" /><glyph d="M28 226V364H52Q85 364 102.5 377.5Q120 391 120 416Q120 428 118.5 443Q117 458 111 491Q104 532 102 554.5Q100 577 100 597Q100 664 146 703Q192 742 270 742H327V614H309Q287 614 276 603Q265 592 265 571Q265 558 266.5 542Q268 526 273 492Q278 455 279.5 436Q281 417 281 401Q281 363 266 338Q251 313 215 295Q251 277 266 252Q281 227 281 189Q281 173 279.5 154Q278 135 273 98Q268 64 266.5 48Q265 32 265 19Q265 -2 276 -13Q287 -24 309 -24H327V-152H270Q192 -152 146 -113Q100 -74 100 -7Q100 13 102 35.5Q104 58 111 99Q117 132 118.5 147Q120 162 120 174Q120 199 102.5 212.5Q85 226 52 226Z" glyph-name="braceleft" horiz-adv-x="370" unicode="{" /><glyph d="M342 364V226H318Q285 226 267.5 212.5Q250 199 250 174Q250 162 251.5 147Q253 132 259 99Q266 58 268 35.5Q270 13 270 -7Q270 -74 224 -113Q178 -152 100 -152H43V-24H61Q83 -24 94 -13Q105 -2 105 19Q105 32 103.5 48Q102 64 97 98Q92 135 90.5 154Q89 173 89 189Q89 227 104 252Q119 277 155 295Q119 313 104 338Q89 363 89 401Q89 417 90.5 436Q92 455 97 492Q102 526 103.5 542Q105 558 105 571Q105 592 94 603Q83 614 61 614H43V742H100Q178 742 224 703Q270 664 270 597Q270 577 268 554.5Q266 532 259 491Q253 458 251.5 443Q250 428 250 416Q250 391 267.5 377.5Q285 364 318 364Z" glyph-name="braceright" horiz-adv-x="370" unicode="}" /><glyph d="M344 -152H70V742H344V612H230V-22H344Z" glyph-name="bracketleft" horiz-adv-x="372" unicode="[" /><glyph d="M29 -152H303V742H29V612H143V-22H29Z" glyph-name="bracketright" horiz-adv-x="372" unicode="]" /><glyph d="M201 676Q222 676 231.5 690.5Q241 705 243 740H355Q354 669 313.5 627Q273 585 200 585Q127 585 86.5 627Q46 669 45 740H159Q161 705 170.5 690.5Q180 676 201 676ZM200 512Z" glyph-name="breve" horiz-adv-x="400" unicode="&#728;" /><glyph d="M201 876Q222 876 231.5 890.5Q241 905 243 940H355Q354 869 313.5 827Q273 785 200 785Q127 785 86.5 827Q46 869 45 940H159Q161 905 170.5 890.5Q180 876 201 876ZM200 700Z" glyph-name="breve.case" horiz-adv-x="400" /><glyph d="M210 742V405H70V742ZM210 205V-132H70V205Z" glyph-name="brokenbar" horiz-adv-x="280" unicode="&#166;" /><glyph d="M60 400Q60 338.5 105 295.75Q150 253 214.5 253Q279 253 324.75 295.75Q370.5 338.5 370.5 400Q370.5 461.5 325.5 502.75Q280.5 544 214.5 544Q150 544 105 502Q60 460 60 400ZM58.5 397Z" glyph-name="bullet" horiz-adv-x="429" unicode="&#8226;" /><glyph d="M298 -12Q174 -12 103 58.5Q32 129 32 252Q32 372 106 448Q180 524 298 524Q380 524 442.5 484.5Q505 445 530 374L391 313Q376 347 353.5 364.5Q331 382 302 382Q255 382 228.5 347.5Q202 313 202 253Q202 195 229.5 159.5Q257 124 302 124Q334 124 357.5 144.5Q381 165 400 209L534 146Q500 68 440.5 28Q381 -12 298 -12ZM299 10ZM298 512Z" glyph-name="c" horiz-adv-x="550" unicode="c" /><glyph d="M298 -12Q174 -12 103 58.5Q32 129 32 252Q32 372 106 448Q180 524 298 524Q380 524 442.5 484.5Q505 445 530 374L391 313Q376 347 353.5 364.5Q331 382 302 382Q255 382 228.5 347.5Q202 313 202 253Q202 195 229.5 159.5Q257 124 302 124Q334 124 357.5 144.5Q381 165 400 209L534 146Q500 68 440.5 28Q381 -12 298 -12ZM299 10ZM298 512ZM476 740H321L230 587H367ZM298 512Z" glyph-name="cacute" horiz-adv-x="550" unicode="&#263;" /><glyph d="M291 587H110L4 740H139L202 666L264 740H397ZM201 512Z" glyph-name="caron" horiz-adv-x="401" unicode="&#711;" /><glyph d="M291 787H110L4 940H139L202 866L264 940H397ZM201 700Z" glyph-name="caron.case" horiz-adv-x="401" /><glyph d="M171 730H37L11 546H110ZM11 700Z" glyph-name="caron.salt" horiz-adv-x="190" /><glyph d="M298 -12Q174 -12 103 58.5Q32 129 32 252Q32 372 106 448Q180 524 298 524Q380 524 442.5 484.5Q505 445 530 374L391 313Q376 347 353.5 364.5Q331 382 302 382Q255 382 228.5 347.5Q202 313 202 253Q202 195 229.5 159.5Q257 124 302 124Q334 124 357.5 144.5Q381 165 400 209L534 146Q500 68 440.5 28Q381 -12 298 -12ZM299 10ZM298 512ZM388 587H207L101 740H236L299 666L361 740H494ZM298 512Z" glyph-name="ccaron" horiz-adv-x="550" unicode="&#269;" /><glyph d="M231 -118 208 -86 264 -11Q154 0 93 69Q32 138 32 252Q32 372 106 448Q180 524 298 524Q380 524 442.5 484.5Q505 445 530 374L391 313Q376 347 353.5 364.5Q331 382 302 382Q255 382 228.5 347.5Q202 313 202 253Q202 195 229.5 159.5Q257 124 302 124Q334 124 357.5 144.5Q381 165 400 209L534 146Q504 79 456 40Q408 1 343 -9L312 -50Q357 -50 382 -71.5Q407 -93 407 -131Q407 -181 373 -209.5Q339 -238 280 -238Q258 -238 235.5 -234Q213 -230 193 -223V-151Q216 -159 231.5 -162Q247 -165 266 -165Q289 -165 300 -157.5Q311 -150 311 -136Q311 -124 301.5 -117.5Q292 -111 274 -111Q265 -111 253.5 -113Q242 -115 231 -118Z" glyph-name="ccedilla" horiz-adv-x="550" unicode="&#231;" /><glyph d="M298 -12Q174 -12 103 58.5Q32 129 32 252Q32 372 106 448Q180 524 298 524Q380 524 442.5 484.5Q505 445 530 374L391 313Q376 347 353.5 364.5Q331 382 302 382Q255 382 228.5 347.5Q202 313 202 253Q202 195 229.5 159.5Q257 124 302 124Q334 124 357.5 144.5Q381 165 400 209L534 146Q500 68 440.5 28Q381 -12 298 -12ZM299 10ZM298 512ZM101 587 207 740H388L494 587H359L296 661L234 587ZM298 512Z" glyph-name="ccircumflex" horiz-adv-x="550" unicode="&#265;" /><glyph d="M298 -12Q174 -12 103 58.5Q32 129 32 252Q32 372 106 448Q180 524 298 524Q380 524 442.5 484.5Q505 445 530 374L391 313Q376 347 353.5 364.5Q331 382 302 382Q255 382 228.5 347.5Q202 313 202 253Q202 195 229.5 159.5Q257 124 302 124Q334 124 357.5 144.5Q381 165 400 209L534 146Q500 68 440.5 28Q381 -12 298 -12ZM299 10ZM298 512ZM205 663Q205 626 232.5 600.5Q260 575 298 575Q337 575 364.5 600.5Q392 626 392 663Q392 699 364.5 724Q337 749 298 749Q260 749 232.5 724Q205 699 205 663ZM298 512Z" glyph-name="cdotaccent" horiz-adv-x="550" unicode="&#267;" /><glyph d="M150 -118 127 -86 193 3H271L231 -50Q276 -50 301 -71.5Q326 -93 326 -131Q326 -181 292 -209.5Q258 -238 199 -238Q177 -238 154.5 -234Q132 -230 112 -223V-151Q135 -159 150.5 -162Q166 -165 185 -165Q208 -165 219 -157.5Q230 -150 230 -136Q230 -124 220.5 -117.5Q211 -111 193 -111Q184 -111 172.5 -113Q161 -115 150 -118ZM218 10Z" glyph-name="cedilla" horiz-adv-x="400" unicode="&#184;" /><glyph d="M209 -84H129L167 17Q104 49 71 109Q38 169 38 252Q38 372 112 448Q186 524 304 524Q318 524 330 523Q342 522 353 520L381 594H461L425 497Q465 478 493 447Q521 416 536 374L397 313Q392 324 385.5 334Q379 344 371 353L287 126Q296 125 300 124.5Q304 124 308 124Q340 124 363.5 144.5Q387 165 406 209L540 146Q506 68 446.5 28Q387 -12 304 -12Q287 -12 270.5 -10.5Q254 -9 238 -6ZM208 253Q208 231 212.5 211Q217 191 225 175L302 382Q258 380 233 345.5Q208 311 208 253Z" glyph-name="cent" horiz-adv-x="574" unicode="&#162;" /><glyph d="M4 587 110 740H291L397 587H262L199 661L137 587ZM201 512Z" glyph-name="circumflex" horiz-adv-x="401" unicode="&#710;" /><glyph d="M4 787 110 940H291L397 787H262L199 861L137 787ZM201 700Z" glyph-name="circumflex.case" horiz-adv-x="401" /><glyph d="M52 426Q52 385 82 356.5Q112 328 155 328Q198 328 228.5 356.5Q259 385 259 426Q259 467 229 494.5Q199 522 155 522Q112 522 82 494Q52 466 52 426ZM51 424ZM52 86Q52 45 82 16.5Q112 -12 155 -12Q198 -12 228.5 16.5Q259 45 259 86Q259 127 229 154.5Q199 182 155 182Q112 182 82 154Q52 126 52 86ZM51 84Z" glyph-name="colon" horiz-adv-x="311" unicode=":" /><glyph d="M245 170H70L23 -125H161Z" glyph-name="comma" horiz-adv-x="289" unicode="," /><glyph d="M188 -56H50L4 -236H127ZM86 -210ZM121 -1Z" glyph-name="commaaccent" horiz-adv-x="200" unicode="&#63171;" /><glyph d="M9 587H153L199 740H80ZM81 512Z" glyph-name="commaaccent.salt" horiz-adv-x="200" /><glyph d="M759 351Q759 501 653.5 606.5Q548 712 398 712Q248 712 142.5 606.5Q37 501 37 351Q37 201 143 94.5Q249 -12 398 -12Q547 -12 653 94.5Q759 201 759 351ZM112 351Q112 472 196 557.5Q280 643 398 643Q517 643 601 557.5Q685 472 685 351Q685 230 600.5 144Q516 58 398 58Q280 58 196 144Q112 230 112 351ZM400 168Q320 168 271 218Q222 268 222 347Q222 426 273 478Q324 530 406 530Q455 530 494.5 507Q534 484 554 444L452 385Q442 403 430 411Q418 419 401 419Q376 419 360 399.5Q344 380 344 349Q344 317 360 297.5Q376 278 402 278Q419 278 431.5 288.5Q444 299 454 321L560 268Q540 220 498.5 194Q457 168 400 168Z" glyph-name="copyright" horiz-adv-x="796" unicode="&#169;" /><glyph d="M134 69 42 159 136 254Q125 276 119.5 299Q114 322 114 346Q114 370 119.5 393Q125 416 136 438L42 532L134 622L226 530Q248 542 272.5 548Q297 554 322 554Q347 554 371 548Q395 542 417 530L509 622L601 532L508 438Q519 416 524.5 393Q530 370 530 346Q530 321 524 297.5Q518 274 507 253L601 159L509 69L417 161Q393 150 369.5 144Q346 138 322 138Q296 138 272 144Q248 150 226 161ZM322 270Q354 270 376 292Q398 314 398 346Q398 378 376 400Q354 422 322 422Q290 422 268 400Q246 378 246 346Q246 314 268 292Q290 270 322 270Z" glyph-name="currency" horiz-adv-x="643" unicode="&#164;" /><glyph d="M267 -12Q164 -12 98 62.5Q32 137 32 253Q32 371 98.5 447.5Q165 524 267 524Q312 524 348 509.5Q384 495 412 467V730H580V0H422V56Q394 23 354.5 5.5Q315 -12 267 -12ZM202 256Q202 197 231 160Q260 123 306 123Q355 123 384.5 159.5Q414 196 414 256Q414 316 384 352.5Q354 389 305 389Q259 389 230.5 352.5Q202 316 202 256ZM640 700Z" glyph-name="d" horiz-adv-x="638" unicode="d" /><glyph d="M266 415 284 0H156L174 415L30 400V520L172 505L156 700H284L268 505L410 520V400Z" glyph-name="dagger" horiz-adv-x="440" unicode="&#8224;" /><glyph d="M298 0H170L186 195L44 180V300L182 286L170 350L182 414L44 400V520L186 505L170 700H298L282 505L424 520V400L286 414L298 350L286 286L424 300V180L282 195Z" glyph-name="daggerdbl" horiz-adv-x="468" unicode="&#8225;" /><glyph d="M267 -12Q164 -12 98 62.5Q32 137 32 253Q32 371 98.5 447.5Q165 524 267 524Q312 524 348 509.5Q384 495 412 467V730H580V0H422V56Q394 23 354.5 5.5Q315 -12 267 -12ZM202 256Q202 197 231 160Q260 123 306 123Q355 123 384.5 159.5Q414 196 414 256Q414 316 384 352.5Q354 389 305 389Q259 389 230.5 352.5Q202 316 202 256ZM640 700ZM800 730H666L640 546H739ZM640 700Z" glyph-name="dcaron" horiz-adv-x="658" unicode="&#271;" /><glyph d="M267 -12Q164 -12 98 62.5Q32 137 32 253Q32 371 98.5 447.5Q165 524 267 524Q312 524 348 509.5Q384 495 412 467V562H289V672H412V730H580V672H637V562H580V0H422V56Q394 23 354.5 5.5Q315 -12 267 -12ZM202 256Q202 197 231 160Q260 123 306 123Q355 123 384.5 159.5Q414 196 414 256Q414 316 384 352.5Q354 389 305 389Q259 389 230.5 352.5Q202 316 202 256Z" glyph-name="dcroat" horiz-adv-x="638" unicode="&#273;" /><glyph d="M346 556Q346 621 300.5 666.5Q255 712 190 712Q124 712 78 666.5Q32 621 32 556Q32 491 78.5 445Q125 399 190 399Q255 399 300.5 445Q346 491 346 556ZM129 556Q129 582 146.5 600Q164 618 190 618Q216 618 234 600Q252 582 252 556Q252 530 234 512.5Q216 495 190 495Q164 495 146.5 512.5Q129 530 129 556Z" glyph-name="degree" horiz-adv-x="378" unicode="&#176;" /><glyph d="M26 663Q26 631 48 608.5Q70 586 102 586Q134 586 157 608.5Q180 631 180 663Q180 695 157 718Q134 741 102 741Q71 741 48.5 718Q26 695 26 663ZM220 663Q220 631 242.5 608.5Q265 586 297 586Q329 586 351.5 608.5Q374 631 374 663Q374 695 351 718Q328 741 297 741Q265 741 242.5 718Q220 695 220 663ZM197 512Z" glyph-name="dieresis" horiz-adv-x="400" unicode="&#168;" /><glyph d="M26 863Q26 831 48 808.5Q70 786 102 786Q134 786 157 808.5Q180 831 180 863Q180 895 157 918Q134 941 102 941Q71 941 48.5 918Q26 895 26 863ZM220 863Q220 831 242.5 808.5Q265 786 297 786Q329 786 351.5 808.5Q374 831 374 863Q374 895 351 918Q328 941 297 941Q265 941 242.5 918Q220 895 220 863ZM200 700Z" glyph-name="dieresis.case" horiz-adv-x="400" /><glyph d="M65 285V415H535V285ZM205 134Q205 97 232 71.5Q259 46 298 46Q337 46 364.5 71.5Q392 97 392 134Q392 171 364.5 196Q337 221 298 221Q259 221 232 196Q205 171 205 134ZM205 565Q205 528 232 502.5Q259 477 298 477Q337 477 364.5 502.5Q392 528 392 565Q392 602 364.5 627Q337 652 298 652Q259 652 232 627Q205 602 205 565Z" glyph-name="divide" horiz-adv-x="600" unicode="&#247;" /><glyph d="M383 -11V-134H289V-9Q214 -2 150 24Q86 50 27 100L116 221Q155 185 199 161.5Q243 138 289 129V289L260 296Q161 321 114 371Q67 421 67 498Q67 580 128 640Q189 700 289 710V833H383V709Q449 701 508 676Q567 651 619 607L534 492Q499 520 460.5 539.5Q422 559 383 568V431L429 420Q528 395 575 346.5Q622 298 622 220Q622 124 557.5 61Q493 -2 383 -11ZM237 511Q237 489 249 476Q261 463 289 455V572Q263 567 250 552Q237 537 237 511ZM445 201Q445 226 431.5 240.5Q418 255 383 265V128Q414 135 429.5 153.5Q445 172 445 201Z" glyph-name="dollar" horiz-adv-x="661" unicode="$" /><glyph d="M107 663Q107 626 134.5 600.5Q162 575 200 575Q239 575 266.5 600.5Q294 626 294 663Q294 699 266.5 724Q239 749 200 749Q162 749 134.5 724Q107 699 107 663ZM200 512Z" glyph-name="dotaccent" horiz-adv-x="400" unicode="&#729;" /><glyph d="M107 863Q107 826 134.5 800.5Q162 775 200 775Q239 775 266.5 800.5Q294 826 294 863Q294 899 266.5 924Q239 949 200 949Q162 949 134.5 924Q107 899 107 863ZM201 700Z" glyph-name="dotaccent.case" horiz-adv-x="400" /><glyph d="M58 0V512H226V0ZM142 512Z" glyph-name="dotlessi" horiz-adv-x="284" unicode="&#305;" /><glyph d="M297 -12Q175 -12 103 60.5Q31 133 31 256Q31 373 105 448.5Q179 524 294 524Q401 524 466.5 457Q532 390 532 278Q532 260 531 244Q530 228 529 215H196Q204 166 232 142.5Q260 119 313 119Q345 119 378 134Q411 149 434 173L522 75Q482 30 427.5 9Q373 -12 297 -12ZM291 402Q255 402 231.5 380.5Q208 359 199 317H368Q367 359 347 380.5Q327 402 291 402ZM292 512ZM380 0Z" glyph-name="e" horiz-adv-x="566" unicode="e" /><glyph d="M297 -12Q175 -12 103 60.5Q31 133 31 256Q31 373 105 448.5Q179 524 294 524Q401 524 466.5 457Q532 390 532 278Q532 260 531 244Q530 228 529 215H196Q204 166 232 142.5Q260 119 313 119Q345 119 378 134Q411 149 434 173L522 75Q482 30 427.5 9Q373 -12 297 -12ZM291 402Q255 402 231.5 380.5Q208 359 199 317H368Q367 359 347 380.5Q327 402 291 402ZM292 512ZM380 0ZM470 740H315L224 587H361ZM292 512Z" glyph-name="eacute" horiz-adv-x="566" unicode="&#233;" /><glyph d="M297 -12Q175 -12 103 60.5Q31 133 31 256Q31 373 105 448.5Q179 524 294 524Q401 524 466.5 457Q532 390 532 278Q532 260 531 244Q530 228 529 215H196Q204 166 232 142.5Q260 119 313 119Q345 119 378 134Q411 149 434 173L522 75Q482 30 427.5 9Q373 -12 297 -12ZM291 402Q255 402 231.5 380.5Q208 359 199 317H368Q367 359 347 380.5Q327 402 291 402ZM292 512ZM380 0ZM293 676Q314 676 323.5 690.5Q333 705 335 740H447Q446 669 405.5 627Q365 585 292 585Q219 585 178.5 627Q138 669 137 740H251Q253 705 262.5 690.5Q272 676 293 676ZM292 512Z" glyph-name="ebreve" horiz-adv-x="566" unicode="&#277;" /><glyph d="M297 -12Q175 -12 103 60.5Q31 133 31 256Q31 373 105 448.5Q179 524 294 524Q401 524 466.5 457Q532 390 532 278Q532 260 531 244Q530 228 529 215H196Q204 166 232 142.5Q260 119 313 119Q345 119 378 134Q411 149 434 173L522 75Q482 30 427.5 9Q373 -12 297 -12ZM291 402Q255 402 231.5 380.5Q208 359 199 317H368Q367 359 347 380.5Q327 402 291 402ZM292 512ZM380 0ZM382 587H201L95 740H230L293 666L355 740H488ZM292 512Z" glyph-name="ecaron" horiz-adv-x="566" unicode="&#283;" /><glyph d="M297 -12Q175 -12 103 60.5Q31 133 31 256Q31 373 105 448.5Q179 524 294 524Q401 524 466.5 457Q532 390 532 278Q532 260 531 244Q530 228 529 215H196Q204 166 232 142.5Q260 119 313 119Q345 119 378 134Q411 149 434 173L522 75Q482 30 427.5 9Q373 -12 297 -12ZM291 402Q255 402 231.5 380.5Q208 359 199 317H368Q367 359 347 380.5Q327 402 291 402ZM292 512ZM380 0ZM95 587 201 740H382L488 587H353L290 661L228 587ZM292 512Z" glyph-name="ecircumflex" horiz-adv-x="566" unicode="&#234;" /><glyph d="M297 -12Q175 -12 103 60.5Q31 133 31 256Q31 373 105 448.5Q179 524 294 524Q401 524 466.5 457Q532 390 532 278Q532 260 531 244Q530 228 529 215H196Q204 166 232 142.5Q260 119 313 119Q345 119 378 134Q411 149 434 173L522 75Q482 30 427.5 9Q373 -12 297 -12ZM291 402Q255 402 231.5 380.5Q208 359 199 317H368Q367 359 347 380.5Q327 402 291 402ZM292 512ZM380 0ZM121 663Q121 631 143 608.5Q165 586 197 586Q229 586 252 608.5Q275 631 275 663Q275 695 252 718Q229 741 197 741Q166 741 143.5 718Q121 695 121 663ZM315 663Q315 631 337.5 608.5Q360 586 392 586Q424 586 446.5 608.5Q469 631 469 663Q469 695 446 718Q423 741 392 741Q360 741 337.5 718Q315 695 315 663ZM292 512Z" glyph-name="edieresis" horiz-adv-x="566" unicode="&#235;" /><glyph d="M297 -12Q175 -12 103 60.5Q31 133 31 256Q31 373 105 448.5Q179 524 294 524Q401 524 466.5 457Q532 390 532 278Q532 260 531 244Q530 228 529 215H196Q204 166 232 142.5Q260 119 313 119Q345 119 378 134Q411 149 434 173L522 75Q482 30 427.5 9Q373 -12 297 -12ZM291 402Q255 402 231.5 380.5Q208 359 199 317H368Q367 359 347 380.5Q327 402 291 402ZM292 512ZM380 0ZM199 663Q199 626 226.5 600.5Q254 575 292 575Q331 575 358.5 600.5Q386 626 386 663Q386 699 358.5 724Q331 749 292 749Q254 749 226.5 724Q199 699 199 663ZM292 512Z" glyph-name="edotaccent" horiz-adv-x="566" unicode="&#279;" /><glyph d="M297 -12Q175 -12 103 60.5Q31 133 31 256Q31 373 105 448.5Q179 524 294 524Q401 524 466.5 457Q532 390 532 278Q532 260 531 244Q530 228 529 215H196Q204 166 232 142.5Q260 119 313 119Q345 119 378 134Q411 149 434 173L522 75Q482 30 427.5 9Q373 -12 297 -12ZM291 402Q255 402 231.5 380.5Q208 359 199 317H368Q367 359 347 380.5Q327 402 291 402ZM292 512ZM380 0ZM360 587 269 740H116L225 587ZM292 512Z" glyph-name="egrave" horiz-adv-x="566" unicode="&#232;" /><glyph d="M482 359Q536 335 564 291.5Q592 248 592 191Q592 101 516.5 44.5Q441 -12 318 -12Q196 -12 120 44.5Q44 101 44 191Q44 245 73.5 289Q103 333 157 358Q110 383 84.5 425.5Q59 468 59 521Q59 604 131 658Q203 712 318 712Q433 712 505 658Q577 604 577 521Q577 467 552.5 425.5Q528 384 482 359ZM233 494Q233 459 256 435.5Q279 412 318 412Q356 412 379.5 436Q403 460 403 494Q403 536 381 558.5Q359 581 318 581Q278 581 255.5 558Q233 535 233 494ZM415 212Q415 247 388.5 271Q362 295 318 295Q274 295 247.5 271Q221 247 221 212Q221 168 247 143Q273 118 318 118Q363 118 389 143Q415 168 415 212Z" glyph-name="eight" horiz-adv-x="636" unicode="8" /><glyph d="M270 177Q295 164 308.5 143Q322 122 322 96Q322 50 281.5 22Q241 -6 173 -6Q106 -6 65 22Q24 50 24 96Q24 121 38 142Q52 163 77 176Q55 189 43 210.5Q31 232 31 257Q31 301 70 328.5Q109 356 173 356Q237 356 276 328.5Q315 301 315 257Q315 232 303.5 211Q292 190 270 177ZM149 240Q149 227 155.5 219Q162 211 173 211Q184 211 190.5 219Q197 227 197 240Q197 253 190.5 261Q184 269 173 269Q162 269 155.5 261Q149 253 149 240ZM200 108Q200 122 193 129.5Q186 137 173 137Q160 137 153 129.5Q146 122 146 108Q146 94 153 86.5Q160 79 173 79Q186 79 193 86.5Q200 94 200 108Z" glyph-name="eight.denominator" horiz-adv-x="346" unicode="&#63069;" /><glyph d="M270 37Q295 24 308.5 3Q322 -18 322 -44Q322 -90 281.5 -118Q241 -146 173 -146Q106 -146 65 -118Q24 -90 24 -44Q24 -19 38 2Q52 23 77 36Q55 49 43 70.5Q31 92 31 117Q31 161 70 188.5Q109 216 173 216Q237 216 276 188.5Q315 161 315 117Q315 92 303.5 71Q292 50 270 37ZM149 100Q149 87 155.5 79Q162 71 173 71Q184 71 190.5 79Q197 87 197 100Q197 113 190.5 121Q184 129 173 129Q162 129 155.5 121Q149 113 149 100ZM200 -32Q200 -18 193 -10.5Q186 -3 173 -3Q160 -3 153 -10.5Q146 -18 146 -32Q146 -46 153 -53.5Q160 -61 173 -61Q186 -61 193 -53.5Q200 -46 200 -32Z" glyph-name="eight.inferior" horiz-adv-x="346" unicode="&#8328;" /><glyph d="M270 527Q295 514 308.5 493Q322 472 322 446Q322 400 281.5 372Q241 344 173 344Q106 344 65 372Q24 400 24 446Q24 471 38 492Q52 513 77 526Q55 539 43 560.5Q31 582 31 607Q31 651 70 678.5Q109 706 173 706Q237 706 276 678.5Q315 651 315 607Q315 582 303.5 561Q292 540 270 527ZM149 590Q149 577 155.5 569Q162 561 173 561Q184 561 190.5 569Q197 577 197 590Q197 603 190.5 611Q184 619 173 619Q162 619 155.5 611Q149 603 149 590ZM200 458Q200 472 193 479.5Q186 487 173 487Q160 487 153 479.5Q146 472 146 458Q146 444 153 436.5Q160 429 173 429Q186 429 193 436.5Q200 444 200 458Z" glyph-name="eight.numerator" horiz-adv-x="346" unicode="&#63081;" /><glyph d="M270 667Q295 654 308.5 633Q322 612 322 586Q322 540 281.5 512Q241 484 173 484Q106 484 65 512Q24 540 24 586Q24 611 38 632Q52 653 77 666Q55 679 43 700.5Q31 722 31 747Q31 791 70 818.5Q109 846 173 846Q237 846 276 818.5Q315 791 315 747Q315 722 303.5 701Q292 680 270 667ZM149 730Q149 717 155.5 709Q162 701 173 701Q184 701 190.5 709Q197 717 197 730Q197 743 190.5 751Q184 759 173 759Q162 759 155.5 751Q149 743 149 730ZM200 598Q200 612 193 619.5Q186 627 173 627Q160 627 153 619.5Q146 612 146 598Q146 584 153 576.5Q160 569 173 569Q186 569 193 576.5Q200 584 200 598Z" glyph-name="eight.superior" horiz-adv-x="346" unicode="&#8312;" /><glyph d="M484 359Q538 335 566 291.5Q594 248 594 191Q594 101 518.5 44.5Q443 -12 320 -12Q198 -12 122 44.5Q46 101 46 191Q46 245 75.5 289Q105 333 159 358Q112 383 86.5 425.5Q61 468 61 521Q61 604 133 658Q205 712 320 712Q435 712 507 658Q579 604 579 521Q579 467 554.5 425.5Q530 384 484 359ZM235 494Q235 459 258 435.5Q281 412 320 412Q358 412 381.5 436Q405 460 405 494Q405 536 383 558.5Q361 581 320 581Q280 581 257.5 558Q235 535 235 494ZM417 212Q417 247 390.5 271Q364 295 320 295Q276 295 249.5 271Q223 247 223 212Q223 168 249 143Q275 118 320 118Q365 118 391 143Q417 168 417 212Z" glyph-name="eight.tab" horiz-adv-x="640" unicode="&#65304;" /><glyph d="M38 86Q38 45 68 16.5Q98 -12 141 -12Q184 -12 214.5 16.5Q245 45 245 86Q245 127 215 154.5Q185 182 141 182Q98 182 68 154Q38 126 38 86ZM37 84ZM295 86Q295 45 325 16.5Q355 -12 398 -12Q441 -12 471.5 16.5Q502 45 502 86Q502 127 472 154.5Q442 182 398 182Q355 182 325 154Q295 126 295 86ZM294 84ZM552 86Q552 45 582 16.5Q612 -12 655 -12Q698 -12 728.5 16.5Q759 45 759 86Q759 127 729 154.5Q699 182 655 182Q612 182 582 154Q552 126 552 86ZM551 84Z" glyph-name="ellipsis" horiz-adv-x="797" unicode="&#8230;" /><glyph d="M297 -12Q175 -12 103 60.5Q31 133 31 256Q31 373 105 448.5Q179 524 294 524Q401 524 466.5 457Q532 390 532 278Q532 260 531 244Q530 228 529 215H196Q204 166 232 142.5Q260 119 313 119Q345 119 378 134Q411 149 434 173L522 75Q482 30 427.5 9Q373 -12 297 -12ZM291 402Q255 402 231.5 380.5Q208 359 199 317H368Q367 359 347 380.5Q327 402 291 402ZM292 512ZM380 0ZM415 613H169V712H415ZM292 512Z" glyph-name="emacron" horiz-adv-x="566" unicode="&#275;" /><glyph d="M57 192V322H854V192Z" glyph-name="emdash" horiz-adv-x="911" unicode="&#8212;" /><glyph d="M57 192V322H514V192Z" glyph-name="endash" horiz-adv-x="571" unicode="&#8211;" /><glyph d="M313 119Q346 119 378 133.5Q410 148 433 174L522 75Q505 58 484.5 42Q464 26 436 9Q396 -15 386.5 -21.5Q377 -28 370 -34Q352 -49 344 -64.5Q336 -80 336 -99Q336 -126 353 -141Q370 -156 399 -156Q407 -156 416 -154.5Q425 -153 433 -150V-224Q414 -232 398 -235Q382 -238 364 -238Q304 -238 267.5 -207.5Q231 -177 231 -124Q231 -90 250.5 -61.5Q270 -33 307 -12H297Q175 -12 103 60.5Q31 133 31 256Q31 373 105 448.5Q179 524 294 524Q401 524 466.5 457Q532 390 532 278Q532 260 531 244Q530 228 529 215H196Q204 166 232 142.5Q260 119 313 119ZM291 402Q255 402 231.5 380.5Q208 359 199 317H368Q367 359 347 380.5Q327 402 291 402Z" glyph-name="eogonek" horiz-adv-x="566" unicode="&#281;" /><glyph d="M65 165V295H535V165ZM65 405V535H535V405Z" glyph-name="equal" horiz-adv-x="600" unicode="=" /><glyph d="M404 65Q473 65 533 99Q593 133 633 194L694 139Q643 68 566 28Q489 -12 402 -12Q253 -12 147.5 94Q42 200 42 350Q42 500 147.5 606Q253 712 402 712Q564 712 663 603Q762 494 762 308H229V130Q267 98 312 81.5Q357 65 404 65ZM402 632Q354 632 309.5 616Q265 600 229 570V389H571V575Q536 603 493 617.5Q450 632 402 632Z" glyph-name="estimated" horiz-adv-x="792" unicode="&#8494;" /><glyph d="M32 255Q32 370 93 440Q154 510 255 510Q307 510 349.5 490.5Q392 471 422 434Q406 469 383 503.5Q360 538 331 571L283 533L232 592L275 627Q260 641 245 652.5Q230 664 214 675L313 758Q330 746 345 734Q360 722 373 710L421 749L474 690L431 655Q507 576 542.5 493Q578 410 578 295Q578 150 506.5 69Q435 -12 304 -12Q181 -12 106.5 61.5Q32 135 32 255ZM408 255Q408 316 381 350.5Q354 385 304 385Q256 385 229 350.5Q202 316 202 255Q202 196 229 161Q256 126 304 126Q353 126 380.5 160.5Q408 195 408 255Z" glyph-name="eth" horiz-adv-x="615" unicode="&#240;" /><glyph d="M87 230 57 700H242L212 230ZM51 82Q51 43 79.5 16Q108 -11 149 -11Q190 -11 219 15.5Q248 42 248 82Q248 120 219 146.5Q190 173 149 173Q108 173 79.5 146.5Q51 120 51 82Z" glyph-name="exclam" horiz-adv-x="298" unicode="!" /><glyph d="M79 283 49 -187H234L204 283ZM43 431Q43 470 71.5 497Q100 524 141 524Q182 524 211 497.5Q240 471 240 431Q240 393 211 366.5Q182 340 141 340Q100 340 71.5 366.5Q43 393 43 431Z" glyph-name="exclamdown" horiz-adv-x="283" unicode="&#161;" /><glyph d="M274 0H106V382H26V512H106V540Q106 631 158.5 686.5Q211 742 305 742Q339 742 369.5 736.5Q400 731 432 719L402 590Q381 596 365 599Q349 602 338 602Q304 602 289 586.5Q274 571 274 534V512H394V382H274Z" glyph-name="f" horiz-adv-x="408" unicode="f" /><glyph d="M274 0H106V382H26V512H106V540Q106 631 158.5 686.5Q211 742 305 742Q339 742 369.5 736.5Q400 731 432 719L402 590Q381 596 365 599Q349 602 338 602Q304 602 289 586.5Q274 571 274 534V512H394V382H274ZM682 0H514V382H434V512H514V540Q514 631 566.5 686.5Q619 742 713 742Q747 742 777.5 736.5Q808 731 840 719L810 590Q789 596 773 599Q757 602 746 602Q712 602 697 586.5Q682 571 682 534V512H802V382H682Z" glyph-name="f_f" horiz-adv-x="816" unicode="&#64256;" /><glyph d="M274 0H106V382H26V512H106V540Q106 631 158.5 686.5Q211 742 305 742Q339 742 369.5 736.5Q400 731 432 719L402 590Q381 596 365 599Q349 602 338 602Q304 602 289 586.5Q274 571 274 534V512H394V382H274ZM682 0H514V382H434V512H514V540Q514 631 566.5 686.5Q619 742 713 742Q747 742 777.5 736.5Q808 731 840 719L810 590Q789 596 773 599Q757 602 746 602Q712 602 697 586.5Q682 571 682 534V512H802V382H682ZM874 0V512H1042V0ZM1056 659Q1056 699 1028.5 725.5Q1001 752 958 752Q916 752 888.5 725.5Q861 699 861 659Q861 620 888.5 593.5Q916 567 958 567Q1001 567 1028.5 593.5Q1056 620 1056 659ZM999 0Z" glyph-name="f_f_i" horiz-adv-x="1100" unicode="&#64259;" /><glyph d="M274 0H106V382H26V512H106V540Q106 631 158.5 686.5Q211 742 305 742Q339 742 369.5 736.5Q400 731 432 719L402 590Q381 596 365 599Q349 602 338 602Q304 602 289 586.5Q274 571 274 534V512H394V382H274ZM682 0H514V382H434V512H514V540Q514 631 566.5 686.5Q619 742 713 742Q747 742 777.5 736.5Q808 731 840 719L810 590Q789 596 773 599Q757 602 746 602Q712 602 697 586.5Q682 571 682 534V512H802V382H682ZM874 0V730H1042V0ZM958 0ZM958 730ZM1102 700ZM1102 350Z" glyph-name="f_f_l" horiz-adv-x="1100" unicode="&#64260;" /><glyph d="M274 0H106V382H26V512H106V540Q106 631 158.5 686.5Q211 742 305 742Q339 742 369.5 736.5Q400 731 432 719L402 590Q381 596 365 599Q349 602 338 602Q304 602 289 586.5Q274 571 274 534V512H394V382H274ZM466 0V512H634V0ZM648 659Q648 699 620.5 725.5Q593 752 550 752Q508 752 480.5 725.5Q453 699 453 659Q453 620 480.5 593.5Q508 567 550 567Q593 567 620.5 593.5Q648 620 648 659ZM591 0Z" glyph-name="fi" horiz-adv-x="692" unicode="&#64257;" /><glyph d="M349 458Q456 458 520.5 396Q585 334 585 240Q585 129 510 58.5Q435 -12 314 -12Q213 -12 141 26Q69 64 28 139L158 226Q195 165 226 146.5Q257 128 302 128Q351 128 379.5 155.5Q408 183 408 233Q408 275 381 300Q354 325 308 325Q272 325 245 313.5Q218 302 201 279L66 328L114 700H538V555H246L228 427Q253 443 283.5 450.5Q314 458 349 458Z" glyph-name="five" horiz-adv-x="619" unicode="5" /><glyph d="M200 232Q255 232 289 200.5Q323 169 323 123Q323 66 282.5 30Q242 -6 176 -6Q122 -6 80 12.5Q38 31 15 67L96 127Q111 108 126.5 100Q142 92 163 92Q180 92 190 100Q200 108 200 122Q200 134 190.5 141.5Q181 149 164 149Q154 149 147 146Q140 143 132 135L40 166L61 350H303V256H152L147 219Q158 226 171.5 229Q185 232 200 232Z" glyph-name="five.denominator" horiz-adv-x="346" unicode="&#63066;" /><glyph d="M200 92Q255 92 289 60.5Q323 29 323 -17Q323 -74 282.5 -110Q242 -146 176 -146Q122 -146 80 -127.5Q38 -109 15 -73L96 -13Q111 -32 126.5 -40Q142 -48 163 -48Q180 -48 190 -40Q200 -32 200 -18Q200 -6 190.5 1.5Q181 9 164 9Q154 9 147 6Q140 3 132 -5L40 26L61 210H303V116H152L147 79Q158 86 171.5 89Q185 92 200 92Z" glyph-name="five.inferior" horiz-adv-x="346" unicode="&#8325;" /><glyph d="M200 582Q255 582 289 550.5Q323 519 323 473Q323 416 282.5 380Q242 344 176 344Q122 344 80 362.5Q38 381 15 417L96 477Q111 458 126.5 450Q142 442 163 442Q180 442 190 450Q200 458 200 472Q200 484 190.5 491.5Q181 499 164 499Q154 499 147 496Q140 493 132 485L40 516L61 700H303V606H152L147 569Q158 576 171.5 579Q185 582 200 582Z" glyph-name="five.numerator" horiz-adv-x="346" unicode="&#63078;" /><glyph d="M200 722Q255 722 289 690.5Q323 659 323 613Q323 556 282.5 520Q242 484 176 484Q122 484 80 502.5Q38 521 15 557L96 617Q111 598 126.5 590Q142 582 163 582Q180 582 190 590Q200 598 200 612Q200 624 190.5 631.5Q181 639 164 639Q154 639 147 636Q140 633 132 625L40 656L61 840H303V746H152L147 709Q158 716 171.5 719Q185 722 200 722Z" glyph-name="five.superior" horiz-adv-x="346" unicode="&#8309;" /><glyph d="M359 458Q466 458 530.5 396Q595 334 595 240Q595 129 520 58.5Q445 -12 324 -12Q223 -12 151 26Q79 64 38 139L168 226Q205 165 236 146.5Q267 128 312 128Q361 128 389.5 155.5Q418 183 418 233Q418 275 391 300Q364 325 318 325Q282 325 255 313.5Q228 302 211 279L76 328L124 700H548V555H256L238 427Q263 443 293.5 450.5Q324 458 359 458Z" glyph-name="five.tab" horiz-adv-x="640" unicode="&#65301;" /><glyph d="M274 0H106V382H26V512H106V540Q106 631 158.5 686.5Q211 742 305 742Q339 742 369.5 736.5Q400 731 432 719L402 590Q381 596 365 599Q349 602 338 602Q304 602 289 586.5Q274 571 274 534V512H394V382H274ZM466 0V730H634V0ZM550 0ZM550 730ZM694 700ZM694 350Z" glyph-name="fl" horiz-adv-x="692" unicode="&#64258;" /><glyph d="M321 312 279 -28Q266 -131 216.5 -180.5Q167 -230 80 -230Q46 -230 15.5 -224.5Q-15 -219 -47 -207L-17 -78Q4 -84 20 -87Q36 -90 47 -90Q77 -90 91.5 -77Q106 -64 111 -22L153 312H51V422H166L181 540Q194 643 243.5 692.5Q293 742 380 742Q414 742 444.5 736.5Q475 731 507 719L477 590Q456 596 440 599Q424 602 413 602Q383 602 368.5 589Q354 576 349 534L335 422H445V312Z" glyph-name="florin" horiz-adv-x="514" /><glyph d="M382 279V387L557 449V279H637V137H557V0H382V137H21V258L299 700H498L231 279Z" glyph-name="four" horiz-adv-x="662" unicode="4" /><glyph d="M203 152V189L319 231V152H358V56H319V0H203V56H16V149L151 350H288L152 152Z" glyph-name="four.denominator" horiz-adv-x="375" unicode="&#63065;" /><glyph d="M203 12V49L319 91V12H358V-84H319V-140H203V-84H16V9L151 210H288L152 12Z" glyph-name="four.inferior" horiz-adv-x="375" unicode="&#8324;" /><glyph d="M203 502V539L319 581V502H358V406H319V350H203V406H16V499L151 700H288L152 502Z" glyph-name="four.numerator" horiz-adv-x="375" unicode="&#63077;" /><glyph d="M203 642V679L319 721V642H358V546H319V490H203V546H16V639L151 840H288L152 642Z" glyph-name="four.superior" horiz-adv-x="375" unicode="&#8308;" /><glyph d="M371 279V387L546 449V279H626V137H546V0H371V137H10V258L288 700H487L220 279Z" glyph-name="four.tab" horiz-adv-x="640" unicode="&#65300;" /><glyph d="M-39 0H-155L196 700H312Z" glyph-name="fraction" horiz-adv-x="160" unicode="&#8260;" /><glyph d="M82 0V700H538V555H257V398H508V259H257V0ZM563 0V512H721V426Q744 471 776.5 494Q809 517 852 517Q863 517 874 515.5Q885 514 891 512L877 368Q869 370 862 371Q855 372 848 372Q790 372 760.5 331Q731 290 731 209V0Z" glyph-name="franc" horiz-adv-x="920" unicode="&#8355;" /><glyph d="M597 -36Q597 -127 513.5 -178.5Q430 -230 284 -230Q149 -230 76.5 -198Q4 -166 4 -106Q4 -73 29.5 -49Q55 -25 100 -16Q69 1 51.5 27Q34 53 34 82Q34 121 59.5 150Q85 179 134 196Q97 221 77 258Q57 295 57 339Q57 419 121.5 471.5Q186 524 288 524Q342 524 387 508.5Q432 493 464 463Q485 490 517 503Q549 516 595 516V388Q570 388 550 385.5Q530 383 514 378Q516 368 517.5 358Q519 348 519 339Q519 258 455 206Q391 154 288 154Q270 154 252 156Q234 158 216 162Q198 157 188.5 150Q179 143 179 133Q179 119 188.5 113.5Q198 108 220 108H417Q503 108 550 70Q597 32 597 -36ZM362 339Q362 375 343 394.5Q324 414 289 414Q254 414 234.5 394.5Q215 375 215 339Q215 304 235 283.5Q255 263 289 263Q323 263 342.5 283Q362 303 362 339ZM156 -78Q156 -100 188 -110.5Q220 -121 286 -121Q366 -121 405 -108Q444 -95 444 -69Q444 -55 432 -47Q420 -39 399 -39H251Q201 -39 178.5 -48Q156 -57 156 -78ZM288 512Z" glyph-name="g" horiz-adv-x="609" unicode="g" /><glyph d="M597 -36Q597 -127 513.5 -178.5Q430 -230 284 -230Q149 -230 76.5 -198Q4 -166 4 -106Q4 -73 29.5 -49Q55 -25 100 -16Q69 1 51.5 27Q34 53 34 82Q34 121 59.5 150Q85 179 134 196Q97 221 77 258Q57 295 57 339Q57 419 121.5 471.5Q186 524 288 524Q342 524 387 508.5Q432 493 464 463Q485 490 517 503Q549 516 595 516V388Q570 388 550 385.5Q530 383 514 378Q516 368 517.5 358Q519 348 519 339Q519 258 455 206Q391 154 288 154Q270 154 252 156Q234 158 216 162Q198 157 188.5 150Q179 143 179 133Q179 119 188.5 113.5Q198 108 220 108H417Q503 108 550 70Q597 32 597 -36ZM362 339Q362 375 343 394.5Q324 414 289 414Q254 414 234.5 394.5Q215 375 215 339Q215 304 235 283.5Q255 263 289 263Q323 263 342.5 283Q362 303 362 339ZM156 -78Q156 -100 188 -110.5Q220 -121 286 -121Q366 -121 405 -108Q444 -95 444 -69Q444 -55 432 -47Q420 -39 399 -39H251Q201 -39 178.5 -48Q156 -57 156 -78ZM288 512ZM289 676Q310 676 319.5 690.5Q329 705 331 740H443Q442 669 401.5 627Q361 585 288 585Q215 585 174.5 627Q134 669 133 740H247Q249 705 258.5 690.5Q268 676 289 676ZM288 512Z" glyph-name="gbreve" horiz-adv-x="609" unicode="&#287;" /><glyph d="M597 -36Q597 -127 513.5 -178.5Q430 -230 284 -230Q149 -230 76.5 -198Q4 -166 4 -106Q4 -73 29.5 -49Q55 -25 100 -16Q69 1 51.5 27Q34 53 34 82Q34 121 59.5 150Q85 179 134 196Q97 221 77 258Q57 295 57 339Q57 419 121.5 471.5Q186 524 288 524Q342 524 387 508.5Q432 493 464 463Q485 490 517 503Q549 516 595 516V388Q570 388 550 385.5Q530 383 514 378Q516 368 517.5 358Q519 348 519 339Q519 258 455 206Q391 154 288 154Q270 154 252 156Q234 158 216 162Q198 157 188.5 150Q179 143 179 133Q179 119 188.5 113.5Q198 108 220 108H417Q503 108 550 70Q597 32 597 -36ZM362 339Q362 375 343 394.5Q324 414 289 414Q254 414 234.5 394.5Q215 375 215 339Q215 304 235 283.5Q255 263 289 263Q323 263 342.5 283Q362 303 362 339ZM156 -78Q156 -100 188 -110.5Q220 -121 286 -121Q366 -121 405 -108Q444 -95 444 -69Q444 -55 432 -47Q420 -39 399 -39H251Q201 -39 178.5 -48Q156 -57 156 -78ZM288 512ZM91 587 197 740H378L484 587H349L286 661L224 587ZM288 512Z" glyph-name="gcircumflex" horiz-adv-x="609" unicode="&#285;" /><glyph d="M597 -36Q597 -127 513.5 -178.5Q430 -230 284 -230Q149 -230 76.5 -198Q4 -166 4 -106Q4 -73 29.5 -49Q55 -25 100 -16Q69 1 51.5 27Q34 53 34 82Q34 121 59.5 150Q85 179 134 196Q97 221 77 258Q57 295 57 339Q57 419 121.5 471.5Q186 524 288 524Q342 524 387 508.5Q432 493 464 463Q485 490 517 503Q549 516 595 516V388Q570 388 550 385.5Q530 383 514 378Q516 368 517.5 358Q519 348 519 339Q519 258 455 206Q391 154 288 154Q270 154 252 156Q234 158 216 162Q198 157 188.5 150Q179 143 179 133Q179 119 188.5 113.5Q198 108 220 108H417Q503 108 550 70Q597 32 597 -36ZM362 339Q362 375 343 394.5Q324 414 289 414Q254 414 234.5 394.5Q215 375 215 339Q215 304 235 283.5Q255 263 289 263Q323 263 342.5 283Q362 303 362 339ZM156 -78Q156 -100 188 -110.5Q220 -121 286 -121Q366 -121 405 -108Q444 -95 444 -69Q444 -55 432 -47Q420 -39 399 -39H251Q201 -39 178.5 -48Q156 -57 156 -78ZM288 512ZM195 663Q195 626 222.5 600.5Q250 575 288 575Q327 575 354.5 600.5Q382 626 382 663Q382 699 354.5 724Q327 749 288 749Q250 749 222.5 724Q195 699 195 663ZM288 512Z" glyph-name="gdotaccent" horiz-adv-x="609" unicode="&#289;" /><glyph d="M375 532Q375 565 357 584Q339 603 306 603Q267 603 246.5 578.5Q226 554 226 509V0H58V515Q58 618 125.5 680Q193 742 314 742Q418 742 479.5 692.5Q541 643 541 562Q541 511 516 468Q491 425 447 400Q507 381 542 332.5Q577 284 577 221Q577 120 507.5 60Q438 0 316 0H286V137H306Q353 137 380 163.5Q407 190 407 234Q407 273 384 294Q361 315 318 315H286V450H305Q339 450 357 471Q375 492 375 532Z" glyph-name="germandbls" horiz-adv-x="608" unicode="&#223;" /><glyph d="M324 587 233 740H80L189 587ZM256 512Z" glyph-name="grave" horiz-adv-x="401" unicode="`" /><glyph d="M324 787 233 940H80L189 787ZM256 700Z" glyph-name="grave.case" horiz-adv-x="401" /><glyph d="M542 395V255L92 45V211L335 321L92 431V605Z" glyph-name="greater" horiz-adv-x="600" unicode="&gt;" /><glyph d="M82 165 532 355V495L82 685V519L302 429L82 339ZM532 0V130H82V0Z" glyph-name="greaterequal" horiz-adv-x="600" unicode="&#8805;" /><glyph d="M37 312 264 483V329L144 243L264 162V9L37 179ZM274 312 501 483V329L381 243L501 162V9L274 179Z" glyph-name="guillemotleft" horiz-adv-x="554" /><glyph d="M280 318 53 489V335L173 249L53 168V15L280 185ZM517 318 290 489V335L410 249L290 168V15L517 185Z" glyph-name="guillemotright" horiz-adv-x="554" /><glyph d="M37 312 264 483V329L144 243L264 162V9L37 179Z" glyph-name="guilsinglleft" horiz-adv-x="317" unicode="&#8249;" /><glyph d="M280 180 53 9V163L173 249L53 330V483L280 313Z" glyph-name="guilsinglright" horiz-adv-x="317" unicode="&#8250;" /><glyph d="M549 338V0H381V304Q381 347 363.5 366Q346 385 309 385Q270 385 248 357.5Q226 330 226 283V0H58V730H226V462Q252 493 287.5 508.5Q323 524 368 524Q450 524 499.5 471Q549 418 549 338ZM142 730Z" glyph-name="h" horiz-adv-x="603" unicode="h" /><glyph d="M549 338V0H381V304Q381 347 363.5 366Q346 385 309 385Q270 385 248 357.5Q226 330 226 283V0H58V562H1V672H58V730H226V672H349V562H226V462Q252 493 287.5 508.5Q323 524 368 524Q450 524 499.5 471Q549 418 549 338Z" glyph-name="hbar" horiz-adv-x="603" unicode="&#295;" /><glyph d="M549 338V0H381V304Q381 347 363.5 366Q346 385 309 385Q270 385 248 357.5Q226 330 226 283V0H58V730H226V462Q252 493 287.5 508.5Q323 524 368 524Q450 524 499.5 471Q549 418 549 338ZM142 730ZM-55 805 51 958H232L338 805H203L140 879L78 805ZM142 730Z" glyph-name="hcircumflex" horiz-adv-x="603" unicode="&#293;" /><glyph d="M229 740H79L-12 587H116ZM437 740H281L160 587H292ZM136 512Z" glyph-name="hungarumlaut" horiz-adv-x="436" unicode="&#733;" /><glyph d="M229 940H79L-12 787H116ZM437 940H281L160 787H292ZM146 700Z" glyph-name="hungarumlaut.case" horiz-adv-x="436" /><glyph d="M56 189V324H331V189Z" glyph-name="hyphen" horiz-adv-x="387" unicode="-" /><glyph d="M58 0V512H226V0ZM240 659Q240 699 212.5 725.5Q185 752 142 752Q100 752 72.5 725.5Q45 699 45 659Q45 620 72.5 593.5Q100 567 142 567Q185 567 212.5 593.5Q240 620 240 659ZM183 0Z" glyph-name="i" horiz-adv-x="284" unicode="i" /><glyph d="M58 0V512H226V0ZM142 512ZM320 740H165L74 587H211ZM142 512Z" glyph-name="iacute" horiz-adv-x="284" unicode="&#237;" /><glyph d="M58 0V512H226V0ZM142 512ZM-55 587 51 740H232L338 587H203L140 661L78 587ZM142 512Z" glyph-name="icircumflex" horiz-adv-x="284" unicode="&#238;" /><glyph d="M58 0V512H226V0ZM142 512ZM-29 663Q-29 631 -7 608.5Q15 586 47 586Q79 586 102 608.5Q125 631 125 663Q125 695 102 718Q79 741 47 741Q16 741 -6.5 718Q-29 695 -29 663ZM165 663Q165 631 187.5 608.5Q210 586 242 586Q274 586 296.5 608.5Q319 631 319 663Q319 695 296 718Q273 741 242 741Q210 741 187.5 718Q165 695 165 663ZM142 512Z" glyph-name="idieresis" horiz-adv-x="284" unicode="&#239;" /><glyph d="M58 0V512H226V0ZM142 512ZM210 587 119 740H-34L75 587ZM142 512Z" glyph-name="igrave" horiz-adv-x="284" unicode="&#236;" /><glyph d="M58 0V512H226V0ZM240 659Q240 699 212.5 725.5Q185 752 142 752Q100 752 72.5 725.5Q45 699 45 659Q45 620 72.5 593.5Q100 567 142 567Q185 567 212.5 593.5Q240 620 240 659ZM183 0ZM528 659Q528 699 500.5 725.5Q473 752 430 752Q388 752 360.5 725.5Q333 699 333 659Q333 620 360.5 593.5Q388 567 430 567Q473 567 500.5 593.5Q528 620 528 659ZM346 512H514V-38Q514 -126 463 -178Q412 -230 319 -230Q291 -230 267 -227Q243 -224 221 -218L247 -75Q260 -79 272 -80.5Q284 -82 294 -82Q321 -82 333.5 -67.5Q346 -53 346 -19Z" glyph-name="ij" horiz-adv-x="572" unicode="&#307;" /><glyph d="M58 0V512H226V0ZM142 512ZM265 613H19V712H265ZM142 512Z" glyph-name="imacron" horiz-adv-x="284" unicode="&#299;" /><glyph d="M611 448Q691 448 740.5 396Q790 344 790 260Q790 176 740.5 124Q691 72 611 72Q562 72 515 97Q468 122 411 180Q359 122 314.5 97Q270 72 221 72Q141 72 91.5 124Q42 176 42 260Q42 344 91.5 396Q141 448 221 448Q271 448 319 422.5Q367 397 419 342Q472 398 517.5 423Q563 448 611 448ZM224 319Q197 319 181 303Q165 287 165 260Q165 233 181 217Q197 201 224 201Q252 201 280 214.5Q308 228 340 257Q308 289 279.5 304Q251 319 224 319ZM667 260Q667 287 651 303Q635 319 608 319Q580 319 551.5 305.5Q523 292 491 264Q522 232 551 216.5Q580 201 608 201Q635 201 651 217Q667 233 667 260Z" glyph-name="infinity" horiz-adv-x="832" unicode="&#8734;" /><glyph d="M311 534V-28Q311 -119 258.5 -174.5Q206 -230 112 -230Q78 -230 47.5 -224.5Q17 -219 -15 -207L15 -78Q36 -84 52 -87Q68 -90 79 -90Q113 -90 128 -74.5Q143 -59 143 -22V540Q143 631 195.5 686.5Q248 742 342 742Q376 742 406.5 736.5Q437 731 469 719L439 590Q418 596 402 599Q386 602 375 602Q341 602 326 586.5Q311 571 311 534Z" glyph-name="integral" horiz-adv-x="455" unicode="&#8747;" /><glyph d="M45 659Q45 699 72.5 725.5Q100 752 142 752Q185 752 212.5 725.5Q240 699 240 659Q240 620 212.5 593.5Q185 567 142 567Q100 567 72.5 593.5Q45 620 45 659ZM58 512H226V0H131Q105 -16 91 -41Q77 -66 77 -95Q77 -123 94 -139Q111 -155 141 -155Q149 -155 158 -154Q167 -153 177 -150V-224Q161 -231 143.5 -234.5Q126 -238 102 -238Q43 -238 7.5 -209.5Q-28 -181 -28 -130Q-28 -90 -6 -56Q16 -22 58 0Z" glyph-name="iogonek" horiz-adv-x="284" unicode="&#303;" /><glyph d="M58 0V512H226V0ZM142 512ZM237 595Q288 595 310 633.5Q332 672 315 736H222Q224 720 219.5 713.5Q215 707 202 707Q194 707 183.5 709Q173 711 151 718Q123 727 108 730Q93 733 80 733Q26 733 0 691Q-26 649 -11 589H84Q85 606 93 614Q101 622 117 622Q127 622 138.5 619.5Q150 617 173 609Q198 600 211.5 597.5Q225 595 237 595ZM142 512Z" glyph-name="itilde" horiz-adv-x="284" unicode="&#297;" /><glyph d="M244 659Q244 699 216.5 725.5Q189 752 146 752Q104 752 76.5 725.5Q49 699 49 659Q49 620 76.5 593.5Q104 567 146 567Q189 567 216.5 593.5Q244 620 244 659ZM62 512H230V-38Q230 -126 179 -178Q128 -230 35 -230Q7 -230 -17 -227Q-41 -224 -63 -218L-37 -75Q-24 -79 -12 -80.5Q0 -82 10 -82Q37 -82 49.5 -67.5Q62 -53 62 -19Z" glyph-name="j" horiz-adv-x="288" unicode="j" /><glyph d="M62 512H230V-38Q230 -126 179 -178Q128 -230 35 -230Q7 -230 -17 -227Q-41 -224 -63 -218L-37 -75Q-24 -79 -12 -80.5Q0 -82 10 -82Q37 -82 49.5 -67.5Q62 -53 62 -19ZM146 512ZM-51 587 55 740H236L342 587H207L144 661L82 587ZM146 512Z" glyph-name="jcircumflex" horiz-adv-x="288" unicode="&#309;" /><glyph d="M384 311 585 0H385L263 200L226 161V0H58V730H226V351L376 512H578ZM305 0Z" glyph-name="k" horiz-adv-x="582" unicode="k" /><glyph d="M58 0V512H226V352L375 512H578L384 311L585 0H385L263 200L226 161V0Z" glyph-name="kgreenlandic" horiz-adv-x="582" /><glyph d="M58 0V730H226V0ZM142 0ZM142 730ZM286 700ZM286 350Z" glyph-name="l" horiz-adv-x="284" unicode="l" /><glyph d="M58 0V730H226V0ZM142 0ZM142 730ZM286 700ZM286 350ZM320 958H165L74 805H211ZM142 730Z" glyph-name="lacute" horiz-adv-x="284" unicode="&#314;" /><glyph d="M58 0V730H226V0ZM142 0ZM142 730ZM286 700ZM286 350ZM446 730H312L286 546H385ZM286 700Z" glyph-name="lcaron" horiz-adv-x="304" unicode="&#318;" /><glyph d="M58 0V730H226V0ZM142 0ZM142 730ZM286 700ZM286 350ZM268 360Q268 319 298 290.5Q328 262 371 262Q414 262 444.5 290.5Q475 319 475 360Q475 401 445 428.5Q415 456 371 456Q328 456 298 428Q268 400 268 360ZM267 358Z" glyph-name="ldot" horiz-adv-x="459" unicode="&#320;" /><glyph d="M58 255V395L508 605V439L265 329L508 219V45Z" glyph-name="less" horiz-adv-x="600" unicode="&lt;" /><glyph d="M518 165 68 355V495L518 685V519L298 429L518 339ZM68 0V130H518V0Z" glyph-name="lessequal" horiz-adv-x="600" unicode="&#8804;" /><glyph d="M58 0V730H226V0ZM142 0ZM142 730ZM286 700ZM286 350ZM268 360Q268 319 298 290.5Q328 262 371 262Q414 262 444.5 290.5Q475 319 475 360Q475 401 445 428.5Q415 456 371 456Q328 456 298 428Q268 400 268 360ZM267 358ZM517 0V730H685V0ZM601 0ZM601 730ZM745 700ZM745 350Z" glyph-name="lgeminada" horiz-adv-x="743" /><glyph d="M57 285V415H527V115H397V285Z" glyph-name="logicalnot" horiz-adv-x="600" unicode="&#172;" /><glyph d="M274 0H106V382H26V512H106V540Q106 631 158.5 686.5Q211 742 305 742Q339 742 369.5 736.5Q400 731 432 719L402 590Q381 596 365 599Q349 602 338 602Q304 602 289 586.5Q274 571 274 534Z" glyph-name="longs" horiz-adv-x="352" unicode="&#383;" /><glyph d="M274 0H106V382H26V512H106V540Q106 631 158.5 686.5Q211 742 305 742Q339 742 369.5 736.5Q400 731 432 719L402 590Q381 596 365 599Q349 602 338 602Q304 602 289 586.5Q274 571 274 534ZM452 382H372V512H452V643L620 700V512H752V382H620V186Q620 154 633 141.5Q646 129 678 129Q696 129 715 135.5Q734 142 759 157L796 35Q766 12 726 0Q686 -12 642 -12Q548 -12 500 30.5Q452 73 452 157ZM625 10ZM551 0ZM675 739Z" glyph-name="longs_t" horiz-adv-x="801" unicode="&#64261;" /><glyph d="M257 0 31 364 261 700H372L602 364L376 0ZM317 526 205 363 317 182 428 363Z" glyph-name="lozenge" horiz-adv-x="633" unicode="&#9674;" /><glyph d="M74 208 15 307 122 373V730H290V476L349 512L407 413L290 341V0H122V238Z" glyph-name="lslash" horiz-adv-x="405" unicode="&#322;" /><glyph d="M535 283V0H367V304Q367 347 351 366Q335 385 302 385Q267 385 246.5 357.5Q226 330 226 283V0H58V512H216V449Q240 486 277 505Q314 524 361 524Q413 524 452 500Q491 476 513 432Q538 477 577.5 500.5Q617 524 670 524Q749 524 796.5 471Q844 418 844 338V0H676V304Q676 347 660 366Q644 385 611 385Q576 385 555.5 357.5Q535 330 535 283Z" glyph-name="m" horiz-adv-x="898" unicode="m" /><glyph d="M323 613H77V712H323ZM200 512Z" glyph-name="macron" horiz-adv-x="400" unicode="&#175;" /><glyph d="M323 813H77V912H323ZM200 700Z" glyph-name="macron.case" horiz-adv-x="400" /><glyph d="M65 285V415H535V285Z" glyph-name="minus" horiz-adv-x="600" unicode="&#8722;" /><glyph d="M64 -218V512H232V202Q232 161 248 144Q264 127 299 127Q336 127 356.5 154.5Q377 182 377 229V512H545V0H387V63Q362 26 324.5 7Q287 -12 240 -12Q229 -12 224 -12Q219 -12 215 -11L232 -78V-218Z" glyph-name="mu" horiz-adv-x="609" unicode="&#181;" /><glyph d="M166 124 74 216 208 350 74 484 166 576 300 442 434 576 526 484 392 350 526 216 434 124 300 258Z" glyph-name="multiply" horiz-adv-x="600" unicode="&#215;" /><glyph d="M58 0V512H216V449Q242 486 280 505Q318 524 368 524Q450 524 499.5 471Q549 418 549 338V0H381V304Q381 347 363.5 366Q346 385 309 385Q270 385 248 357.5Q226 330 226 283V0ZM309 512ZM304 0ZM58 582Z" glyph-name="n" horiz-adv-x="603" unicode="n" /><glyph d="M58 0V512H216V449Q242 486 280 505Q318 524 368 524Q450 524 499.5 471Q549 418 549 338V0H381V304Q381 347 363.5 366Q346 385 309 385Q270 385 248 357.5Q226 330 226 283V0ZM309 512ZM304 0ZM58 582ZM487 740H332L241 587H378ZM309 512Z" glyph-name="nacute" horiz-adv-x="603" unicode="&#324;" /><glyph d="M58 0V512H216V449Q242 486 280 505Q318 524 368 524Q450 524 499.5 471Q549 418 549 338V0H381V304Q381 347 363.5 366Q346 385 309 385Q270 385 248 357.5Q226 330 226 283V0ZM309 512ZM304 0ZM58 582ZM160 736H22L-24 556H99ZM58 582ZM93 791Z" glyph-name="napostrophe" horiz-adv-x="603" unicode="&#329;" /><glyph d="M58 0V512H216V449Q242 486 280 505Q318 524 368 524Q450 524 499.5 471Q549 418 549 338V0H381V304Q381 347 363.5 366Q346 385 309 385Q270 385 248 357.5Q226 330 226 283V0ZM309 512ZM304 0ZM58 582ZM399 587H218L112 740H247L310 666L372 740H505ZM309 512Z" glyph-name="ncaron" horiz-adv-x="603" unicode="&#328;" /><glyph d="M239 245Q143 245 83 305.5Q23 366 23 465Q23 572 101.5 642Q180 712 300 712Q420 712 497.5 646.5Q575 581 575 479Q575 428 557 373.5Q539 319 504 261L345 0H147L307 256Q291 251 273.5 248Q256 245 239 245ZM300 370Q345 370 372.5 400Q400 430 400 478Q400 523 371.5 551Q343 579 299 579Q255 579 226.5 550.5Q198 522 198 478Q198 431 226.5 400.5Q255 370 300 370Z" glyph-name="nine" horiz-adv-x="612" unicode="9" /><glyph d="M122 119Q74 119 44 149Q14 179 14 227Q14 284 56.5 320Q99 356 168 356Q234 356 277.5 322Q321 288 321 237Q321 209 313 182Q305 155 288 128L208 0H71L149 122Q143 120 137 119.5Q131 119 122 119ZM168 200Q181 200 189 209Q197 218 197 233Q197 248 189 257Q181 266 168 266Q154 266 146 257Q138 248 138 233Q138 218 146 209Q154 200 168 200Z" glyph-name="nine.denominator" horiz-adv-x="342" unicode="&#63070;" /><glyph d="M122 -21Q74 -21 44 9Q14 39 14 87Q14 144 56.5 180Q99 216 168 216Q234 216 277.5 182Q321 148 321 97Q321 69 313 42Q305 15 288 -12L208 -140H71L149 -18Q143 -20 137 -20.5Q131 -21 122 -21ZM168 60Q181 60 189 69Q197 78 197 93Q197 108 189 117Q181 126 168 126Q154 126 146 117Q138 108 138 93Q138 78 146 69Q154 60 168 60Z" glyph-name="nine.inferior" horiz-adv-x="342" unicode="&#8329;" /><glyph d="M122 469Q74 469 44 499Q14 529 14 577Q14 634 56.5 670Q99 706 168 706Q234 706 277.5 672Q321 638 321 587Q321 559 313 532Q305 505 288 478L208 350H71L149 472Q143 470 137 469.5Q131 469 122 469ZM168 550Q181 550 189 559Q197 568 197 583Q197 598 189 607Q181 616 168 616Q154 616 146 607Q138 598 138 583Q138 568 146 559Q154 550 168 550Z" glyph-name="nine.numerator" horiz-adv-x="342" unicode="&#63082;" /><glyph d="M122 609Q74 609 44 639Q14 669 14 717Q14 774 56.5 810Q99 846 168 846Q234 846 277.5 812Q321 778 321 727Q321 699 313 672Q305 645 288 618L208 490H71L149 612Q143 610 137 609.5Q131 609 122 609ZM168 690Q181 690 189 699Q197 708 197 723Q197 738 189 747Q181 756 168 756Q154 756 146 747Q138 738 138 723Q138 708 146 699Q154 690 168 690Z" glyph-name="nine.superior" horiz-adv-x="342" unicode="&#8313;" /><glyph d="M253 245Q157 245 97 305.5Q37 366 37 465Q37 572 115.5 642Q194 712 314 712Q434 712 511.5 646.5Q589 581 589 479Q589 428 571 373.5Q553 319 518 261L359 0H161L321 256Q305 251 287.5 248Q270 245 253 245ZM314 370Q359 370 386.5 400Q414 430 414 478Q414 523 385.5 551Q357 579 313 579Q269 579 240.5 550.5Q212 522 212 478Q212 431 240.5 400.5Q269 370 314 370Z" glyph-name="nine.tab" horiz-adv-x="640" unicode="&#65305;" /><glyph d="M230 76H118L159 165H65V295H219L269 405H65V535H329L370 625H482L441 535H535V405H381L331 295H535V165H271Z" glyph-name="notequal" horiz-adv-x="600" unicode="&#8800;" /><glyph d="M58 0V512H216V449Q242 486 280 505Q318 524 368 524Q450 524 499.5 471Q549 418 549 338V0H381V304Q381 347 363.5 366Q346 385 309 385Q270 385 248 357.5Q226 330 226 283V0ZM309 512ZM304 0ZM58 582ZM404 595Q455 595 477 633.5Q499 672 482 736H389Q391 720 386.5 713.5Q382 707 369 707Q361 707 350.5 709Q340 711 318 718Q290 727 275 730Q260 733 247 733Q193 733 167 691Q141 649 156 589H251Q252 606 260 614Q268 622 284 622Q294 622 305.5 619.5Q317 617 340 609Q365 600 378.5 597.5Q392 595 404 595ZM309 512Z" glyph-name="ntilde" horiz-adv-x="603" unicode="&#241;" /><glyph d="M270 190V0H153V190H47V306H153V418H47V534H153V700H270V534H365V700H482V534H587V418H482V306H587V190H482V0H365V190ZM270 418V306H365V418Z" glyph-name="numbersign" horiz-adv-x="634" unicode="#" /><glyph d="M31 256Q31 376 106 450Q181 524 303 524Q426 524 501.5 449.5Q577 375 577 256Q577 136 501.5 62Q426 -12 303 -12Q180 -12 105.5 62Q31 136 31 256ZM407 256Q407 318 380 352.5Q353 387 303 387Q255 387 228 352Q201 317 201 256Q201 196 228 161Q255 126 303 126Q352 126 379.5 161Q407 196 407 256ZM304 512Z" glyph-name="o" horiz-adv-x="608" unicode="o" /><glyph d="M31 256Q31 376 106 450Q181 524 303 524Q426 524 501.5 449.5Q577 375 577 256Q577 136 501.5 62Q426 -12 303 -12Q180 -12 105.5 62Q31 136 31 256ZM407 256Q407 318 380 352.5Q353 387 303 387Q255 387 228 352Q201 317 201 256Q201 196 228 161Q255 126 303 126Q352 126 379.5 161Q407 196 407 256ZM304 512ZM482 740H327L236 587H373ZM304 512Z" glyph-name="oacute" horiz-adv-x="608" unicode="&#243;" /><glyph d="M31 256Q31 376 106 450Q181 524 303 524Q426 524 501.5 449.5Q577 375 577 256Q577 136 501.5 62Q426 -12 303 -12Q180 -12 105.5 62Q31 136 31 256ZM407 256Q407 318 380 352.5Q353 387 303 387Q255 387 228 352Q201 317 201 256Q201 196 228 161Q255 126 303 126Q352 126 379.5 161Q407 196 407 256ZM304 512ZM305 676Q326 676 335.5 690.5Q345 705 347 740H459Q458 669 417.5 627Q377 585 304 585Q231 585 190.5 627Q150 669 149 740H263Q265 705 274.5 690.5Q284 676 305 676ZM304 512Z" glyph-name="obreve" horiz-adv-x="608" unicode="&#335;" /><glyph d="M31 256Q31 376 106 450Q181 524 303 524Q426 524 501.5 449.5Q577 375 577 256Q577 136 501.5 62Q426 -12 303 -12Q180 -12 105.5 62Q31 136 31 256ZM407 256Q407 318 380 352.5Q353 387 303 387Q255 387 228 352Q201 317 201 256Q201 196 228 161Q255 126 303 126Q352 126 379.5 161Q407 196 407 256ZM304 512ZM107 587 213 740H394L500 587H365L302 661L240 587ZM304 512Z" glyph-name="ocircumflex" horiz-adv-x="608" unicode="&#244;" /><glyph d="M31 256Q31 376 106 450Q181 524 303 524Q426 524 501.5 449.5Q577 375 577 256Q577 136 501.5 62Q426 -12 303 -12Q180 -12 105.5 62Q31 136 31 256ZM407 256Q407 318 380 352.5Q353 387 303 387Q255 387 228 352Q201 317 201 256Q201 196 228 161Q255 126 303 126Q352 126 379.5 161Q407 196 407 256ZM304 512ZM133 663Q133 631 155 608.5Q177 586 209 586Q241 586 264 608.5Q287 631 287 663Q287 695 264 718Q241 741 209 741Q178 741 155.5 718Q133 695 133 663ZM327 663Q327 631 349.5 608.5Q372 586 404 586Q436 586 458.5 608.5Q481 631 481 663Q481 695 458 718Q435 741 404 741Q372 741 349.5 718Q327 695 327 663ZM304 512Z" glyph-name="odieresis" horiz-adv-x="608" unicode="&#246;" /><glyph d="M31 256Q31 376 103 450Q175 524 293 524Q356 524 408 500Q460 476 495 430Q529 475 579 499.5Q629 524 688 524Q791 524 853.5 457Q916 390 916 278Q916 260 915 244Q914 228 913 215H580Q588 166 616 142.5Q644 119 697 119Q730 119 762 133.5Q794 148 817 174L906 75Q866 30 814 9Q762 -12 691 -12Q627 -12 576.5 11.5Q526 35 493 79Q458 35 406.5 11.5Q355 -12 293 -12Q175 -12 103 62Q31 136 31 256ZM675 402Q639 402 615.5 380.5Q592 359 583 317H752Q751 359 731 380.5Q711 402 675 402ZM407 256Q407 318 380 352.5Q353 387 303 387Q255 387 228 352Q201 317 201 256Q201 196 228 161Q255 126 303 126Q352 126 379.5 161Q407 196 407 256Z" glyph-name="oe" horiz-adv-x="950" unicode="&#339;" /><glyph d="M256 -238Q197 -238 161.5 -209.5Q126 -181 126 -130Q126 -90 148 -56Q170 -22 212 0H285Q259 -16 245 -41Q231 -66 231 -95Q231 -123 248 -139Q265 -155 295 -155Q303 -155 312 -154Q321 -153 331 -150V-224Q315 -231 297.5 -234.5Q280 -238 256 -238ZM249 0Z" glyph-name="ogonek" horiz-adv-x="401" unicode="&#731;" /><glyph d="M31 256Q31 376 106 450Q181 524 303 524Q426 524 501.5 449.5Q577 375 577 256Q577 136 501.5 62Q426 -12 303 -12Q180 -12 105.5 62Q31 136 31 256ZM407 256Q407 318 380 352.5Q353 387 303 387Q255 387 228 352Q201 317 201 256Q201 196 228 161Q255 126 303 126Q352 126 379.5 161Q407 196 407 256ZM304 512ZM372 587 281 740H128L237 587ZM304 512Z" glyph-name="ograve" horiz-adv-x="608" unicode="&#242;" /><glyph d="M31 256Q31 376 106 450Q181 524 303 524Q426 524 501.5 449.5Q577 375 577 256Q577 136 501.5 62Q426 -12 303 -12Q180 -12 105.5 62Q31 136 31 256ZM407 256Q407 318 380 352.5Q353 387 303 387Q255 387 228 352Q201 317 201 256Q201 196 228 161Q255 126 303 126Q352 126 379.5 161Q407 196 407 256ZM304 512ZM397 740H247L156 587H284ZM605 740H449L328 587H460ZM304 512Z" glyph-name="ohungarumlaut" horiz-adv-x="608" unicode="&#337;" /><glyph d="M31 256Q31 376 106 450Q181 524 303 524Q426 524 501.5 449.5Q577 375 577 256Q577 136 501.5 62Q426 -12 303 -12Q180 -12 105.5 62Q31 136 31 256ZM407 256Q407 318 380 352.5Q353 387 303 387Q255 387 228 352Q201 317 201 256Q201 196 228 161Q255 126 303 126Q352 126 379.5 161Q407 196 407 256ZM304 512ZM427 613H181V712H427ZM304 512Z" glyph-name="omacron" horiz-adv-x="608" unicode="&#333;" /><glyph d="M71 0V140H221V503Q185 480 138.5 468Q92 456 41 456V600Q117 600 173 627.5Q229 655 253 700H396V140H546V0Z" glyph-name="one" horiz-adv-x="563" unicode="1" /><glyph d="M235 700H378V0H203V503Q167 480 120.5 468Q74 456 23 456V600Q99 600 155 627.5Q211 655 235 700Z" glyph-name="one.alt" horiz-adv-x="453" /><glyph d="M38 0V94H115V230Q96 219 72.5 213Q49 207 25 207V304Q63 304 94.5 317.5Q126 331 139 350H238V94H315V0Z" glyph-name="one.denominator" horiz-adv-x="329" unicode="&#63062;" /><glyph d="M38 -140V-46H115V90Q96 79 72.5 73Q49 67 25 67V164Q63 164 94.5 177.5Q126 191 139 210H238V-46H315V-140Z" glyph-name="one.inferior" horiz-adv-x="329" unicode="&#8321;" /><glyph d="M38 350V444H115V580Q96 569 72.5 563Q49 557 25 557V654Q63 654 94.5 667.5Q126 681 139 700H238V444H315V350Z" glyph-name="one.numerator" horiz-adv-x="329" unicode="&#63074;" /><glyph d="M110 0V140H260V503Q224 480 177.5 468Q131 456 80 456V600Q156 600 212 627.5Q268 655 292 700H435V140H585V0Z" glyph-name="one.tab" horiz-adv-x="640" unicode="&#65297;" /><glyph d="M823 0H519V98L652 191Q671 204 680 214.5Q689 225 689 236Q689 246 682 251.5Q675 257 663 257Q645 257 634.5 247Q624 237 617 216L508 234Q520 291 562 323.5Q604 356 669 356Q738 356 776 325Q814 294 814 240Q814 202 794.5 174Q775 146 731 121L692 99H823ZM48 350V444H125V580Q106 569 82.5 563Q59 557 35 557V654Q73 654 104.5 667.5Q136 681 149 700H248V444H325V350ZM307 0H191L542 700H658Z" glyph-name="onehalf" horiz-adv-x="854" unicode="&#189;" /><glyph d="M51 350V444H128V580Q109 569 85.5 563Q62 557 38 557V654Q76 654 107.5 667.5Q139 681 152 700H251V444H328V350ZM310 0H194L545 700H661ZM649 152V189L765 231V152H804V56H765V0H649V56H462V149L597 350H734L598 152Z" glyph-name="onequarter" horiz-adv-x="833" unicode="&#188;" /><glyph d="M38 490V584H115V720Q96 709 72.5 703Q49 697 25 697V794Q63 794 94.5 807.5Q126 821 139 840H238V584H315V490Z" glyph-name="onesuperior" horiz-adv-x="329" unicode="&#185;" /><glyph d="M301 584V439H199V466Q186 450 167 441.5Q148 433 126 433Q89 433 66 453.5Q43 474 43 504Q43 537 61.5 557Q80 577 128 590L190 607Q188 616 180.5 619.5Q173 623 157 623Q142 623 125 616Q108 609 93 596L43 654Q66 679 101.5 692.5Q137 706 178 706Q237 706 269 673Q301 640 301 584ZM147 521Q147 515 151 511.5Q155 508 163 508Q175 508 183.5 514.5Q192 521 192 533V542L167 537Q156 535 151.5 531.5Q147 528 147 521ZM248 0Z" glyph-name="ordfeminine" horiz-adv-x="354" unicode="&#170;" /><glyph d="M326 570Q326 631 285.5 668.5Q245 706 179 706Q113 706 73.5 668.5Q34 631 34 570Q34 508 73 470.5Q112 433 179 433Q246 433 286 470.5Q326 508 326 570ZM150 570Q150 590 158 601Q166 612 180 612Q194 612 202 601Q210 590 210 570Q210 551 202 540Q194 529 180 529Q166 529 158 540Q150 551 150 570Z" glyph-name="ordmasculine" horiz-adv-x="360" unicode="&#186;" /><glyph d="M201 4 141 -92H28L118 51Q76 86 53.5 139Q31 192 31 256Q31 376 106 450Q181 524 303 524Q329 524 355.5 520Q382 516 406 508L466 603H576L488 462Q531 426 554 372.5Q577 319 577 256Q577 136 501.5 62Q426 -12 303 -12Q277 -12 251.5 -8Q226 -4 201 4ZM303 387Q255 387 228 352Q201 317 201 256Q201 237 204 219.5Q207 202 213 187L337 382Q329 384 320 385.5Q311 387 303 387ZM303 126Q352 126 379.5 161Q407 196 407 256Q407 277 403.5 295.5Q400 314 394 328L271 131Q278 129 286.5 127.5Q295 126 303 126Z" glyph-name="oslash" horiz-adv-x="608" unicode="&#248;" /><glyph d="M31 256Q31 376 106 450Q181 524 303 524Q426 524 501.5 449.5Q577 375 577 256Q577 136 501.5 62Q426 -12 303 -12Q180 -12 105.5 62Q31 136 31 256ZM407 256Q407 318 380 352.5Q353 387 303 387Q255 387 228 352Q201 317 201 256Q201 196 228 161Q255 126 303 126Q352 126 379.5 161Q407 196 407 256ZM304 512ZM399 595Q450 595 472 633.5Q494 672 477 736H384Q386 720 381.5 713.5Q377 707 364 707Q356 707 345.5 709Q335 711 313 718Q285 727 270 730Q255 733 242 733Q188 733 162 691Q136 649 151 589H246Q247 606 255 614Q263 622 279 622Q289 622 300.5 619.5Q312 617 335 609Q360 600 373.5 597.5Q387 595 399 595ZM304 512Z" glyph-name="otilde" horiz-adv-x="608" unicode="&#245;" /><glyph d="M371 524Q474 524 540 449.5Q606 375 606 259Q606 141 539.5 64.5Q473 -12 371 -12Q326 -12 290 2.5Q254 17 226 45V-218H58V512H216V456Q244 489 283.5 506.5Q323 524 371 524ZM436 256Q436 315 407 352Q378 389 332 389Q283 389 253.5 352.5Q224 316 224 256Q224 196 254 159.5Q284 123 333 123Q379 123 407.5 159.5Q436 196 436 256Z" glyph-name="p" horiz-adv-x="638" unicode="p" /><glyph d="M277 700H625V-218H475V562H405V-218H255V201Q155 209 91 281.5Q27 354 27 455Q27 559 98 629.5Q169 700 277 700ZM174 455Q174 410 196.5 377Q219 344 255 339V561Q219 556 196.5 526Q174 496 174 455Z" glyph-name="paragraph" horiz-adv-x="711" unicode="&#182;" /><glyph d="M197 295Q197 181 235 80Q273 -21 347 -105L261 -177Q144 -75 89 40.5Q34 156 34 295Q34 434 89 549Q144 664 261 767L347 695Q273 611 235 510Q197 409 197 295Z" glyph-name="parenleft" horiz-adv-x="355" unicode="(" /><glyph d="M158 295Q158 409 120 510Q82 611 8 695L94 767Q211 665 266 549.5Q321 434 321 295Q321 156 266 41Q211 -74 94 -177L8 -105Q82 -21 120 80Q158 181 158 295Z" glyph-name="parenright" horiz-adv-x="355" unicode=")" /><glyph d="M262 -12Q154 -12 88 48Q22 108 22 205Q22 301 84 361.5Q146 422 245 422Q283 422 314.5 412Q346 402 371 382Q364 484 328.5 529.5Q293 575 225 575Q194 575 161.5 564.5Q129 554 96 533L37 644Q87 678 140.5 695Q194 712 250 712Q391 712 467 606Q543 500 543 324Q543 169 467 78.5Q391 -12 262 -12ZM273 284Q235 284 214.5 262Q194 240 194 200Q194 162 215.5 140.5Q237 119 273 119Q314 119 338.5 148.5Q363 178 371 237Q357 256 328.5 270Q300 284 273 284Z" glyph-name="partialdiff" horiz-adv-x="582" unicode="&#8706;" /><glyph d="M306 0H190L541 700H657ZM469 175Q469 92 516 43Q563 -6 643 -6Q724 -6 771 43Q818 92 818 175Q818 258 771 307Q724 356 643 356Q563 356 516 307Q469 258 469 175ZM694 175Q694 138 680 116Q666 94 643 94Q620 94 606.5 116Q593 138 593 175Q593 212 606.5 234Q620 256 643 256Q666 256 680 234Q694 212 694 175ZM29 525Q29 442 76 393Q123 344 203 344Q284 344 331 393Q378 442 378 525Q378 608 331 657Q284 706 203 706Q123 706 76 657Q29 608 29 525ZM254 525Q254 488 240 466Q226 444 203 444Q180 444 166.5 466Q153 488 153 525Q153 562 166.5 584Q180 606 203 606Q226 606 240 584Q254 562 254 525Z" glyph-name="percent" horiz-adv-x="847" unicode="%" /><glyph d="M38 86Q38 45 68 16.5Q98 -12 141 -12Q184 -12 214.5 16.5Q245 45 245 86Q245 127 215 154.5Q185 182 141 182Q98 182 68 154Q38 126 38 86ZM37 84Z" glyph-name="period" horiz-adv-x="283" unicode="." /><glyph d="M41 383Q41 342 71 313.5Q101 285 144 285Q187 285 217.5 313.5Q248 342 248 383Q248 424 218 451.5Q188 479 144 479Q101 479 71 451Q41 423 41 383ZM40 381Z" glyph-name="periodcentered" horiz-adv-x="289" unicode="&#183;" /><glyph d="M29 525Q29 442 76 393Q123 344 203 344Q284 344 331 393Q378 442 378 525Q378 608 331 657Q284 706 203 706Q123 706 76 657Q29 608 29 525ZM254 525Q254 488 240 466Q226 444 203 444Q180 444 166.5 466Q153 488 153 525Q153 562 166.5 584Q180 606 203 606Q226 606 240 584Q254 562 254 525ZM306 0H190L541 700H657ZM469 175Q469 92 516 43Q563 -6 643 -6Q724 -6 771 43Q818 92 818 175Q818 258 771 307Q724 356 643 356Q563 356 516 307Q469 258 469 175ZM694 175Q694 138 680 116Q666 94 643 94Q620 94 606.5 116Q593 138 593 175Q593 212 606.5 234Q620 256 643 256Q666 256 680 234Q694 212 694 175ZM857 175Q857 92 904 43Q951 -6 1031 -6Q1112 -6 1159 43Q1206 92 1206 175Q1206 258 1159 307Q1112 356 1031 356Q951 356 904 307Q857 258 857 175ZM1082 175Q1082 138 1068 116Q1054 94 1031 94Q1008 94 994.5 116Q981 138 981 175Q981 212 994.5 234Q1008 256 1031 256Q1054 256 1068 234Q1082 212 1082 175Z" glyph-name="perthousand" horiz-adv-x="1235" unicode="&#8240;" /><glyph d="M32 512H633V382H573V0H405V382H260V0H92V382H32Z" glyph-name="pi" horiz-adv-x="665" unicode="&#960;" /><glyph d="M365 115H235V285H65V415H235V585H365V415H535V285H365Z" glyph-name="plus" horiz-adv-x="600" unicode="+" /><glyph d="M365 205H235V335H65V465H235V595H365V465H535V335H365ZM65 0V130H535V0Z" glyph-name="plusminus" horiz-adv-x="600" unicode="&#177;" /><glyph d="M42 700H657V555H597V0H422V555H277V0H102V555H42Z" glyph-name="product" horiz-adv-x="699" unicode="&#8719;" /><glyph d="M267 -12Q164 -12 98 62.5Q32 137 32 253Q32 371 98.5 447.5Q165 524 267 524Q315 524 354 506.5Q393 489 422 455V512H580V-218H412V45Q384 17 348 2.5Q312 -12 267 -12ZM202 256Q202 197 231 160Q260 123 306 123Q355 123 384.5 159.5Q414 196 414 256Q414 316 384 352.5Q354 389 305 389Q259 389 230.5 352.5Q202 316 202 256Z" glyph-name="q" horiz-adv-x="638" unicode="q" /><glyph d="M325 259V230H188V289Q188 318 196 339.5Q204 361 223 382Q234 395 260.5 419.5Q287 444 297 454Q314 470 321 485.5Q328 501 328 523Q328 546 312 560Q296 574 270 574Q233 574 211.5 551Q190 528 179 474L27 502Q39 595 109 653.5Q179 712 283 712Q384 712 444.5 664.5Q505 617 505 544Q505 521 500 500Q495 479 484 459Q476 442 462.5 425.5Q449 409 429 391Q416 378 393 358Q370 338 363 332Q341 313 333 297.5Q325 282 325 259ZM158 82Q158 43 186.5 16Q215 -11 256 -11Q297 -11 326 15.5Q355 42 355 82Q355 120 326 146.5Q297 173 256 173Q215 173 186.5 146.5Q158 120 158 82Z" glyph-name="question" horiz-adv-x="538" unicode="?" /><glyph d="M210 254V283H347V224Q347 195 339 173.5Q331 152 312 131Q301 118 274.5 93.5Q248 69 238 59Q221 43 214 27.5Q207 12 207 -10Q207 -33 223 -47Q239 -61 265 -61Q302 -61 323.5 -38Q345 -15 356 39L508 11Q496 -82 426 -140.5Q356 -199 252 -199Q151 -199 90.5 -151.5Q30 -104 30 -31Q30 -8 35 13Q40 34 51 54Q59 71 72.5 87.5Q86 104 106 122Q119 135 142 155Q165 175 172 181Q194 200 202 215.5Q210 231 210 254ZM377 431Q377 470 348.5 497Q320 524 279 524Q238 524 209 497.5Q180 471 180 431Q180 393 209 366.5Q238 340 279 340Q320 340 348.5 366.5Q377 393 377 431Z" glyph-name="questiondown" horiz-adv-x="532" unicode="&#191;" /><glyph d="M413 700 393 425H267L247 700ZM213 700 193 425H67L47 700Z" glyph-name="quotedbl" horiz-adv-x="460" unicode="&quot;" /><glyph d="M245 170H70L23 -125H161ZM455 170H280L233 -125H371Z" glyph-name="quotedblbase" horiz-adv-x="499" unicode="&#8222;" /><glyph d="M113 700 35 425H203L247 700ZM333 700 255 425H423L467 700Z" glyph-name="quotedblleft" horiz-adv-x="502" unicode="&#8220;" /><glyph d="M400 425 478 700H307L263 425ZM180 425 258 700H87L43 425Z" glyph-name="quotedblright" horiz-adv-x="499" unicode="&#8221;" /><glyph d="M113 700 35 425H203L247 700Z" glyph-name="quoteleft" horiz-adv-x="282" unicode="&#8216;" /><glyph d="M258 700H87L43 425H180Z" glyph-name="quoteright" horiz-adv-x="279" unicode="&#8217;" /><glyph d="M245 170H70L23 -125H161Z" glyph-name="quotesinglbase" horiz-adv-x="289" unicode="&#8218;" /><glyph d="M213 700 193 425H67L47 700Z" glyph-name="quotesingle" horiz-adv-x="260" unicode="'" /><glyph d="M58 0V512H216V421Q239 468 275 492.5Q311 517 358 517Q371 517 385 515.5Q399 514 407 512L393 368Q381 370 372 371Q363 372 354 372Q290 372 258 331Q226 290 226 209V0ZM232 512ZM142 0Z" glyph-name="r" horiz-adv-x="413" unicode="r" /><glyph d="M58 0V512H216V421Q239 468 275 492.5Q311 517 358 517Q371 517 385 515.5Q399 514 407 512L393 368Q381 370 372 371Q363 372 354 372Q290 372 258 331Q226 290 226 209V0ZM232 512ZM142 0ZM410 740H255L164 587H301ZM232 512Z" glyph-name="racute" horiz-adv-x="413" unicode="&#341;" /><glyph d="M20 363V512H231L314 186L469 700H638L396 0H219L111 363Z" glyph-name="radical" horiz-adv-x="630" unicode="&#8730;" /><glyph d="M58 0V512H216V421Q239 468 275 492.5Q311 517 358 517Q371 517 385 515.5Q399 514 407 512L393 368Q381 370 372 371Q363 372 354 372Q290 372 258 331Q226 290 226 209V0ZM232 512ZM142 0ZM322 587H141L35 740H170L233 666L295 740H428ZM232 512Z" glyph-name="rcaron" horiz-adv-x="413" unicode="&#345;" /><glyph d="M37 351Q37 501 142.5 606.5Q248 712 398 712Q548 712 653.5 606.5Q759 501 759 351Q759 201 653 94.5Q547 -12 398 -12Q249 -12 143 94.5Q37 201 37 351ZM685 351Q685 472 601 557.5Q517 643 398 643Q280 643 196 557.5Q112 472 112 351Q112 230 196 144Q280 58 398 58Q516 58 600.5 144Q685 230 685 351ZM242 180V530H448Q503 530 539.5 496.5Q576 463 576 415Q576 377 557 346.5Q538 316 505 300L576 180H442L381 288H363V180ZM454 412Q454 426 443 433.5Q432 441 413 441H363V376H413Q432 376 443 385.5Q454 395 454 412Z" glyph-name="registered" horiz-adv-x="796" unicode="&#174;" /><glyph d="M331 678Q331 727 296 762Q261 797 212 797Q162 797 128 762Q94 727 94 678Q94 629 128 594.5Q162 560 212 560Q262 560 296.5 594.5Q331 629 331 678ZM170 678Q170 695 183 708Q196 721 212 721Q229 721 242 708Q255 695 255 678Q255 662 242 649Q229 636 212 636Q196 636 183 649Q170 662 170 678ZM213 512Z" glyph-name="ring" horiz-adv-x="400" unicode="&#730;" /><glyph d="M331 878Q331 927 296 962Q261 997 212 997Q162 997 128 962Q94 927 94 878Q94 829 128 794.5Q162 760 212 760Q262 760 296.5 794.5Q331 829 331 878ZM170 878Q170 895 183 908Q196 921 212 921Q229 921 242 908Q255 895 255 878Q255 862 242 849Q229 836 212 836Q196 836 183 849Q170 862 170 878ZM213 700Z" glyph-name="ring.case" horiz-adv-x="400" /><glyph d="M473 165Q473 86 416.5 37Q360 -12 264 -12Q193 -12 131.5 6Q70 24 19 60L90 173Q128 144 170.5 128.5Q213 113 255 113Q284 113 300 123Q316 133 316 150Q316 164 304.5 172.5Q293 181 266 187L194 203Q122 219 84.5 259.5Q47 300 47 362Q47 430 104.5 477Q162 524 254 524Q315 524 367.5 509Q420 494 469 463L400 346Q357 374 323 385.5Q289 397 256 397Q230 397 216 389Q202 381 202 366Q202 355 211 347.5Q220 340 238 336L322 316Q398 298 435.5 260.5Q473 223 473 165ZM268 10ZM259 512ZM268 0Z" glyph-name="s" horiz-adv-x="507" unicode="s" /><glyph d="M473 165Q473 86 416.5 37Q360 -12 264 -12Q193 -12 131.5 6Q70 24 19 60L90 173Q128 144 170.5 128.5Q213 113 255 113Q284 113 300 123Q316 133 316 150Q316 164 304.5 172.5Q293 181 266 187L194 203Q122 219 84.5 259.5Q47 300 47 362Q47 430 104.5 477Q162 524 254 524Q315 524 367.5 509Q420 494 469 463L400 346Q357 374 323 385.5Q289 397 256 397Q230 397 216 389Q202 381 202 366Q202 355 211 347.5Q220 340 238 336L322 316Q398 298 435.5 260.5Q473 223 473 165ZM268 10ZM259 512ZM268 0ZM437 740H282L191 587H328ZM259 512Z" glyph-name="sacute" horiz-adv-x="507" unicode="&#347;" /><glyph d="M473 165Q473 86 416.5 37Q360 -12 264 -12Q193 -12 131.5 6Q70 24 19 60L90 173Q128 144 170.5 128.5Q213 113 255 113Q284 113 300 123Q316 133 316 150Q316 164 304.5 172.5Q293 181 266 187L194 203Q122 219 84.5 259.5Q47 300 47 362Q47 430 104.5 477Q162 524 254 524Q315 524 367.5 509Q420 494 469 463L400 346Q357 374 323 385.5Q289 397 256 397Q230 397 216 389Q202 381 202 366Q202 355 211 347.5Q220 340 238 336L322 316Q398 298 435.5 260.5Q473 223 473 165ZM268 10ZM259 512ZM268 0ZM349 587H168L62 740H197L260 666L322 740H455ZM259 512Z" glyph-name="scaron" horiz-adv-x="507" unicode="&#353;" /><glyph d="M180 -118 157 -86 214 -10Q158 -4 109.5 13.5Q61 31 19 60L90 173Q128 144 170.5 128.5Q213 113 255 113Q284 113 300 123Q316 133 316 150Q316 164 304.5 172.5Q293 181 266 187L194 203Q121 220 84 260Q47 300 47 362Q47 430 104.5 477Q162 524 254 524Q315 524 367.5 509Q420 494 469 463L400 346Q357 374 323 385.5Q289 397 256 397Q230 397 216 389Q202 381 202 366Q202 355 210.5 348Q219 341 238 336L322 316Q398 298 435.5 260.5Q473 223 473 165Q473 92 424 44Q375 -4 290 -11L261 -50Q306 -50 331 -71.5Q356 -93 356 -131Q356 -181 322 -209.5Q288 -238 229 -238Q207 -238 184.5 -234Q162 -230 142 -223V-151Q165 -159 180.5 -162Q196 -165 215 -165Q238 -165 249 -157.5Q260 -150 260 -136Q260 -124 250.5 -117.5Q241 -111 223 -111Q214 -111 202.5 -113Q191 -115 180 -118Z" glyph-name="scedilla" horiz-adv-x="507" unicode="&#351;" /><glyph d="M473 165Q473 86 416.5 37Q360 -12 264 -12Q193 -12 131.5 6Q70 24 19 60L90 173Q128 144 170.5 128.5Q213 113 255 113Q284 113 300 123Q316 133 316 150Q316 164 304.5 172.5Q293 181 266 187L194 203Q122 219 84.5 259.5Q47 300 47 362Q47 430 104.5 477Q162 524 254 524Q315 524 367.5 509Q420 494 469 463L400 346Q357 374 323 385.5Q289 397 256 397Q230 397 216 389Q202 381 202 366Q202 355 211 347.5Q220 340 238 336L322 316Q398 298 435.5 260.5Q473 223 473 165ZM268 10ZM259 512ZM268 0ZM62 587 168 740H349L455 587H320L257 661L195 587ZM259 512Z" glyph-name="scircumflex" horiz-adv-x="507" unicode="&#349;" /><glyph d="M32 244Q32 285 53 320Q74 355 114 379Q90 405 78.5 438Q67 471 67 511Q67 597 138 654.5Q209 712 325 712Q389 712 446 698Q503 684 550 657L490 523Q447 547 405 559Q363 571 322 571Q282 571 261 556.5Q240 542 240 516Q240 492 258 477Q276 462 320 452L424 428Q522 405 570 358Q618 311 618 238Q618 196 598 160.5Q578 125 540 100Q561 75 572 43.5Q583 12 583 -26Q583 -113 512 -171.5Q441 -230 325 -230Q261 -230 204 -216Q147 -202 100 -175L160 -41Q203 -65 245 -77Q287 -89 328 -89Q368 -89 389 -74.5Q410 -60 410 -34Q410 -10 392 5Q374 20 330 30L226 54Q128 77 80 124Q32 171 32 244ZM307 198 397 176Q402 175 409 172.5Q416 170 418 170Q431 179 438 191Q445 203 445 218Q445 241 426.5 254.5Q408 268 343 284L253 306Q248 307 241 309.5Q234 312 232 312Q219 304 212 291.5Q205 279 205 264Q205 241 223.5 227.5Q242 214 307 198Z" glyph-name="section" horiz-adv-x="650" unicode="&#167;" /><glyph d="M250 170H75L28 -125H166ZM59 426Q59 385 89 356.5Q119 328 162 328Q205 328 235.5 356.5Q266 385 266 426Q266 467 236 494.5Q206 522 162 522Q119 522 89 494Q59 466 59 426ZM58 424Z" glyph-name="semicolon" horiz-adv-x="311" unicode=";" /><glyph d="M348 555H25V700H533V567L263 0H75Z" glyph-name="seven" horiz-adv-x="556" unicode="7" /><glyph d="M161 251H19V350H291V256L159 0H31Z" glyph-name="seven.denominator" horiz-adv-x="308" unicode="&#63068;" /><glyph d="M161 111H19V210H291V116L159 -140H31Z" glyph-name="seven.inferior" horiz-adv-x="308" unicode="&#8327;" /><glyph d="M161 601H19V700H291V606L159 350H31Z" glyph-name="seven.numerator" horiz-adv-x="308" unicode="&#63080;" /><glyph d="M161 741H19V840H291V746L159 490H31Z" glyph-name="seven.superior" horiz-adv-x="308" unicode="&#8311;" /><glyph d="M390 555H67V700H575V567L305 0H117Z" glyph-name="seven.tab" horiz-adv-x="640" unicode="&#65303;" /><glyph d="M373 455Q469 455 529 394.5Q589 334 589 235Q589 128 510.5 58Q432 -12 312 -12Q192 -12 114.5 53.5Q37 119 37 221Q37 272 55 326.5Q73 381 108 439L267 700H465L305 444Q321 449 338.5 452Q356 455 373 455ZM312 330Q267 330 239.5 300Q212 270 212 222Q212 177 240.5 149Q269 121 313 121Q357 121 385.5 149.5Q414 178 414 222Q414 269 385.5 299.5Q357 330 312 330Z" glyph-name="six" horiz-adv-x="612" unicode="6" /><glyph d="M220 231Q268 231 298 201Q328 171 328 123Q328 66 285.5 30Q243 -6 174 -6Q108 -6 64.5 28Q21 62 21 113Q21 142 29 168.5Q37 195 54 222L134 350H271L193 228Q199 230 205 230.5Q211 231 220 231ZM174 150Q161 150 153 141Q145 132 145 117Q145 102 153 93Q161 84 174 84Q188 84 196 93Q204 102 204 117Q204 132 196 141Q188 150 174 150Z" glyph-name="six.denominator" horiz-adv-x="342" unicode="&#63067;" /><glyph d="M220 91Q268 91 298 61Q328 31 328 -17Q328 -74 285.5 -110Q243 -146 174 -146Q108 -146 64.5 -112Q21 -78 21 -27Q21 2 29 28.5Q37 55 54 82L134 210H271L193 88Q199 90 205 90.5Q211 91 220 91ZM174 10Q161 10 153 1Q145 -8 145 -23Q145 -38 153 -47Q161 -56 174 -56Q188 -56 196 -47Q204 -38 204 -23Q204 -8 196 1Q188 10 174 10Z" glyph-name="six.inferior" horiz-adv-x="342" unicode="&#8326;" /><glyph d="M220 581Q268 581 298 551Q328 521 328 473Q328 416 285.5 380Q243 344 174 344Q108 344 64.5 378Q21 412 21 463Q21 492 29 518.5Q37 545 54 572L134 700H271L193 578Q199 580 205 580.5Q211 581 220 581ZM174 500Q161 500 153 491Q145 482 145 467Q145 452 153 443Q161 434 174 434Q188 434 196 443Q204 452 204 467Q204 482 196 491Q188 500 174 500Z" glyph-name="six.numerator" horiz-adv-x="342" unicode="&#63079;" /><glyph d="M220 721Q268 721 298 691Q328 661 328 613Q328 556 285.5 520Q243 484 174 484Q108 484 64.5 518Q21 552 21 603Q21 632 29 658.5Q37 685 54 712L134 840H271L193 718Q199 720 205 720.5Q211 721 220 721ZM174 640Q161 640 153 631Q145 622 145 607Q145 592 153 583Q161 574 174 574Q188 574 196 583Q204 592 204 607Q204 622 196 631Q188 640 174 640Z" glyph-name="six.superior" horiz-adv-x="342" unicode="&#8310;" /><glyph d="M387 455Q483 455 543 394.5Q603 334 603 235Q603 128 524.5 58Q446 -12 326 -12Q206 -12 128.5 53.5Q51 119 51 221Q51 272 69 326.5Q87 381 122 439L281 700H479L319 444Q335 449 352.5 452Q370 455 387 455ZM326 330Q281 330 253.5 300Q226 270 226 222Q226 177 254.5 149Q283 121 327 121Q371 121 399.5 149.5Q428 178 428 222Q428 269 399.5 299.5Q371 330 326 330Z" glyph-name="six.tab" horiz-adv-x="640" unicode="&#65302;" /><glyph d="M19 -132H150L502 742H374Z" glyph-name="slash" horiz-adv-x="521" unicode="/" /><glyph glyph-name="space" horiz-adv-x="227" unicode=" " /><glyph d="M52 0V111L71 116Q119 132 140 164Q161 196 148 237L139 266H45V376H106L103 385Q91 423 86.5 450.5Q82 478 82 508Q82 598 148.5 655Q215 712 331 712Q425 712 487 667.5Q549 623 570 542L415 485Q396 532 376 550.5Q356 569 326 569Q291 569 271.5 551Q252 533 252 506Q252 490 255 474Q258 458 268 422L282 376H432V266H315L316 262Q327 228 323.5 198.5Q320 169 303 145H580V0Z" glyph-name="sterling" horiz-adv-x="615" unicode="&#163;" /><glyph d="M587 0H50V107L238 372L46 583V700H577V555H264L425 364L279 145H587Z" glyph-name="summation" horiz-adv-x="629" unicode="&#8721;" /><glyph d="M100 382H20V512H100V643L268 700V512H400V382H268V186Q268 154 281 141.5Q294 129 326 129Q344 129 363 135.5Q382 142 407 157L444 35Q414 12 374 0Q334 -12 290 -12Q196 -12 148 30.5Q100 73 100 157ZM273 10ZM199 0ZM323 739Z" glyph-name="t" horiz-adv-x="449" unicode="t" /><glyph d="M26 208V318H107V382H27V512H107V643L275 700V512H407V382H275V318H399V208H275V186Q275 154 288 141.5Q301 129 333 129Q351 129 370 135.5Q389 142 414 157L451 35Q421 12 381 0Q341 -12 297 -12Q203 -12 155 30.5Q107 73 107 157V208Z" glyph-name="tbar" horiz-adv-x="458" unicode="&#359;" /><glyph d="M100 382H20V512H100V643L268 700V512H400V382H268V186Q268 154 281 141.5Q294 129 326 129Q344 129 363 135.5Q382 142 407 157L444 35Q414 12 374 0Q334 -12 290 -12Q196 -12 148 30.5Q100 73 100 157ZM273 10ZM199 0ZM323 739ZM483 769H349L323 585H422ZM323 739Z" glyph-name="tcaron" horiz-adv-x="449" unicode="&#357;" /><glyph d="M371 524Q474 524 540 449.5Q606 375 606 259Q606 141 539.5 64.5Q473 -12 371 -12Q326 -12 290 2.5Q254 17 226 45V-218H58V730H226V467Q254 495 290 509.5Q326 524 371 524ZM436 256Q436 315 407 352Q378 389 332 389Q283 389 253.5 352.5Q224 316 224 256Q224 196 254 159.5Q284 123 333 123Q379 123 407.5 159.5Q436 196 436 256Z" glyph-name="thorn" horiz-adv-x="638" unicode="&#254;" /><glyph d="M333 560H62V700H545V585L386 438Q475 423 521.5 368Q568 313 568 225Q568 119 496.5 53.5Q425 -12 305 -12Q204 -12 133.5 29.5Q63 71 20 155L153 238Q184 178 218 152Q252 126 295 126Q340 126 364.5 151Q389 176 389 222Q389 263 364.5 286.5Q340 310 295 310Q276 310 259.5 305.5Q243 301 230 293L165 400Z" glyph-name="three" horiz-adv-x="612" unicode="3" /><glyph d="M162 256H34V350H302V281L233 216Q272 206 293.5 180Q315 154 315 116Q315 60 276.5 27Q238 -6 170 -6Q116 -6 77.5 16Q39 38 13 84L96 136Q113 109 128.5 98Q144 87 161 87Q175 87 183 94.5Q191 102 191 115Q191 129 183.5 135.5Q176 142 161 142Q154 142 147 140Q140 138 133 135L95 192Z" glyph-name="three.denominator" horiz-adv-x="339" unicode="&#63064;" /><glyph d="M162 116H34V210H302V141L233 76Q272 66 293.5 40Q315 14 315 -24Q315 -80 276.5 -113Q238 -146 170 -146Q116 -146 77.5 -124Q39 -102 13 -56L96 -4Q113 -31 128.5 -42Q144 -53 161 -53Q175 -53 183 -45.5Q191 -38 191 -25Q191 -11 183.5 -4.5Q176 2 161 2Q154 2 147 0Q140 -2 133 -5L95 52Z" glyph-name="three.inferior" horiz-adv-x="339" unicode="&#8323;" /><glyph d="M162 606H34V700H302V631L233 566Q272 556 293.5 530Q315 504 315 466Q315 410 276.5 377Q238 344 170 344Q116 344 77.5 366Q39 388 13 434L96 486Q113 459 128.5 448Q144 437 161 437Q175 437 183 444.5Q191 452 191 465Q191 479 183.5 485.5Q176 492 161 492Q154 492 147 490Q140 488 133 485L95 542Z" glyph-name="three.numerator" horiz-adv-x="339" unicode="&#63076;" /><glyph d="M347 560H76V700H559V585L400 438Q489 423 535.5 368Q582 313 582 225Q582 119 510.5 53.5Q439 -12 319 -12Q218 -12 147.5 29.5Q77 71 34 155L167 238Q198 178 232 152Q266 126 309 126Q354 126 378.5 151Q403 176 403 222Q403 263 378.5 286.5Q354 310 309 310Q290 310 273.5 305.5Q257 301 244 293L179 400Z" glyph-name="three.tab" horiz-adv-x="640" unicode="&#65299;" /><glyph d="M177 606H49V700H317V631L248 566Q287 556 308.5 530Q330 504 330 466Q330 410 291.5 377Q253 344 185 344Q131 344 92.5 366Q54 388 28 434L111 486Q128 459 143.5 448Q159 437 176 437Q190 437 198 444.5Q206 452 206 465Q206 479 198.5 485.5Q191 492 176 492Q169 492 162 490Q155 488 148 485L110 542ZM284 0H168L519 700H635ZM623 152V189L739 231V152H778V56H739V0H623V56H436V149L571 350H708L572 152Z" glyph-name="threequarters" horiz-adv-x="807" unicode="&#190;" /><glyph d="M162 746H34V840H302V771L233 706Q272 696 293.5 670Q315 644 315 606Q315 550 276.5 517Q238 484 170 484Q116 484 77.5 506Q39 528 13 574L96 626Q113 599 128.5 588Q144 577 161 577Q175 577 183 584.5Q191 592 191 605Q191 619 183.5 625.5Q176 632 161 632Q154 632 147 630Q140 628 133 625L95 682Z" glyph-name="threesuperior" horiz-adv-x="339" unicode="&#179;" /><glyph d="M285 595Q336 595 358 633.5Q380 672 363 736H270Q272 720 267.5 713.5Q263 707 250 707Q242 707 231.5 709Q221 711 199 718Q171 727 156 730Q141 733 128 733Q74 733 48 691Q22 649 37 589H132Q133 606 141 614Q149 622 165 622Q175 622 186.5 619.5Q198 617 221 609Q246 600 259.5 597.5Q273 595 285 595ZM190 512Z" glyph-name="tilde" horiz-adv-x="402" unicode="&#732;" /><glyph d="M285 795Q336 795 358 833.5Q380 872 363 936H270Q272 920 267.5 913.5Q263 907 250 907Q242 907 231.5 909Q221 911 199 918Q171 927 156 930Q141 933 128 933Q74 933 48 891Q22 849 37 789H132Q133 806 141 814Q149 822 165 822Q175 822 186.5 819.5Q198 817 221 809Q246 800 259.5 797.5Q273 795 285 795ZM201 700Z" glyph-name="tilde.case" horiz-adv-x="402" /><glyph d="M353 350V700H498L557 528L614 700H759V350H647V514L585 348H526L461 512V350ZM33 603V700H323V603H240V350H117V603Z" glyph-name="trademark" horiz-adv-x="827" unicode="&#8482;" /><glyph d="M606 0H51V157L311 356Q359 393 381 424.5Q403 456 403 489Q403 526 380.5 546.5Q358 567 319 567Q270 567 241 538Q212 509 202 450L36 477Q55 587 132.5 649.5Q210 712 327 712Q444 712 512.5 652Q581 592 581 494Q581 420 542.5 360Q504 300 415 238L280 145H606Z" glyph-name="two" horiz-adv-x="645" unicode="2" /><glyph d="M335 0H31V98L164 191Q183 204 192 214.5Q201 225 201 236Q201 246 194 251.5Q187 257 175 257Q157 257 146.5 247Q136 237 129 216L20 234Q32 291 74 323.5Q116 356 181 356Q250 356 288 325Q326 294 326 240Q326 202 306.5 174Q287 146 243 121L204 99H335Z" glyph-name="two.denominator" horiz-adv-x="362" unicode="&#63063;" /><glyph d="M335 -140H31V-42L164 51Q183 64 192 74.5Q201 85 201 96Q201 106 194 111.5Q187 117 175 117Q157 117 146.5 107Q136 97 129 76L20 94Q32 151 74 183.5Q116 216 181 216Q250 216 288 185Q326 154 326 100Q326 62 306.5 34Q287 6 243 -19L204 -41H335Z" glyph-name="two.inferior" horiz-adv-x="362" unicode="&#8322;" /><glyph d="M335 350H31V448L164 541Q183 554 192 564.5Q201 575 201 586Q201 596 194 601.5Q187 607 175 607Q157 607 146.5 597Q136 587 129 566L20 584Q32 641 74 673.5Q116 706 181 706Q250 706 288 675Q326 644 326 590Q326 552 306.5 524Q287 496 243 471L204 449H335Z" glyph-name="two.numerator" horiz-adv-x="362" unicode="&#63075;" /><glyph d="M603 0H48V157L308 356Q356 393 378 424.5Q400 456 400 489Q400 526 377.5 546.5Q355 567 316 567Q267 567 238 538Q209 509 199 450L33 477Q52 587 129.5 649.5Q207 712 324 712Q441 712 509.5 652Q578 592 578 494Q578 420 539.5 360Q501 300 412 238L277 145H603Z" glyph-name="two.tab" horiz-adv-x="640" unicode="&#65298;" /><glyph d="M335 490H31V588L164 681Q183 694 192 704.5Q201 715 201 726Q201 736 194 741.5Q187 747 175 747Q157 747 146.5 737Q136 727 129 706L20 724Q32 781 74 813.5Q116 846 181 846Q250 846 288 815Q326 784 326 730Q326 692 306.5 664Q287 636 243 611L204 589H335Z" glyph-name="twosuperior" horiz-adv-x="362" unicode="&#178;" /><glyph d="M54 168V512H222V202Q222 161 238 144Q254 127 289 127Q326 127 346.5 154.5Q367 182 367 229V512H535V0H377V63Q352 26 314.5 7Q277 -12 230 -12Q151 -12 102.5 39.5Q54 91 54 168ZM295 512ZM492 0Z" glyph-name="u" horiz-adv-x="593" unicode="u" /><glyph d="M54 168V512H222V202Q222 161 238 144Q254 127 289 127Q326 127 346.5 154.5Q367 182 367 229V512H535V0H377V63Q352 26 314.5 7Q277 -12 230 -12Q151 -12 102.5 39.5Q54 91 54 168ZM295 512ZM492 0ZM473 740H318L227 587H364ZM295 512Z" glyph-name="uacute" horiz-adv-x="593" unicode="&#250;" /><glyph d="M54 168V512H222V202Q222 161 238 144Q254 127 289 127Q326 127 346.5 154.5Q367 182 367 229V512H535V0H377V63Q352 26 314.5 7Q277 -12 230 -12Q151 -12 102.5 39.5Q54 91 54 168ZM295 512ZM492 0ZM296 676Q317 676 326.5 690.5Q336 705 338 740H450Q449 669 408.5 627Q368 585 295 585Q222 585 181.5 627Q141 669 140 740H254Q256 705 265.5 690.5Q275 676 296 676ZM295 512Z" glyph-name="ubreve" horiz-adv-x="593" unicode="&#365;" /><glyph d="M54 168V512H222V202Q222 161 238 144Q254 127 289 127Q326 127 346.5 154.5Q367 182 367 229V512H535V0H377V63Q352 26 314.5 7Q277 -12 230 -12Q151 -12 102.5 39.5Q54 91 54 168ZM295 512ZM492 0ZM98 587 204 740H385L491 587H356L293 661L231 587ZM295 512Z" glyph-name="ucircumflex" horiz-adv-x="593" unicode="&#251;" /><glyph d="M54 168V512H222V202Q222 161 238 144Q254 127 289 127Q326 127 346.5 154.5Q367 182 367 229V512H535V0H377V63Q352 26 314.5 7Q277 -12 230 -12Q151 -12 102.5 39.5Q54 91 54 168ZM295 512ZM492 0ZM124 663Q124 631 146 608.5Q168 586 200 586Q232 586 255 608.5Q278 631 278 663Q278 695 255 718Q232 741 200 741Q169 741 146.5 718Q124 695 124 663ZM318 663Q318 631 340.5 608.5Q363 586 395 586Q427 586 449.5 608.5Q472 631 472 663Q472 695 449 718Q426 741 395 741Q363 741 340.5 718Q318 695 318 663ZM295 512Z" glyph-name="udieresis" horiz-adv-x="593" unicode="&#252;" /><glyph d="M54 168V512H222V202Q222 161 238 144Q254 127 289 127Q326 127 346.5 154.5Q367 182 367 229V512H535V0H377V63Q352 26 314.5 7Q277 -12 230 -12Q151 -12 102.5 39.5Q54 91 54 168ZM295 512ZM492 0ZM363 587 272 740H119L228 587ZM295 512Z" glyph-name="ugrave" horiz-adv-x="593" unicode="&#249;" /><glyph d="M54 168V512H222V202Q222 161 238 144Q254 127 289 127Q326 127 346.5 154.5Q367 182 367 229V512H535V0H377V63Q352 26 314.5 7Q277 -12 230 -12Q151 -12 102.5 39.5Q54 91 54 168ZM295 512ZM492 0ZM388 740H238L147 587H275ZM596 740H440L319 587H451ZM295 512Z" glyph-name="uhungarumlaut" horiz-adv-x="593" unicode="&#369;" /><glyph d="M54 168V512H222V202Q222 161 238 144Q254 127 289 127Q326 127 346.5 154.5Q367 182 367 229V512H535V0H377V63Q352 26 314.5 7Q277 -12 230 -12Q151 -12 102.5 39.5Q54 91 54 168ZM295 512ZM492 0ZM418 613H172V712H418ZM295 512Z" glyph-name="umacron" horiz-adv-x="593" unicode="&#363;" /><glyph d="M44 -120V0H501V-120Z" glyph-name="underscore" horiz-adv-x="545" unicode="_" /><glyph glyph-name="uni00A0" horiz-adv-x="227" unicode="&#160;" /><glyph d="M56 189V324H331V189Z" glyph-name="uni00AD" horiz-adv-x="387" unicode="&#173;" /><glyph d="M418 244V379H708V0H562V67Q527 28 478.5 8Q430 -12 371 -12Q224 -12 131.5 89Q39 190 39 346Q39 506 139 609Q239 712 402 712Q498 712 575 673.5Q652 635 696 567L567 466Q534 513 492.5 537Q451 561 401 561Q320 561 268.5 501Q217 441 217 350Q217 257 266 197Q315 137 394 137Q456 137 498.5 166Q541 195 541 242V244ZM400 700ZM370 0ZM437 -55H299L253 -235H376ZM335 -209ZM370 0Z" glyph-name="uni0122" horiz-adv-x="761" /><glyph d="M597 -36Q597 -127 513.5 -178.5Q430 -230 284 -230Q149 -230 76.5 -198Q4 -166 4 -106Q4 -73 29.5 -49Q55 -25 100 -16Q69 1 51.5 27Q34 53 34 82Q34 121 59.5 150Q85 179 134 196Q97 221 77 258Q57 295 57 339Q57 419 121.5 471.5Q186 524 288 524Q342 524 387 508.5Q432 493 464 463Q485 490 517 503Q549 516 595 516V388Q570 388 550 385.5Q530 383 514 378Q516 368 517.5 358Q519 348 519 339Q519 258 455 206Q391 154 288 154Q270 154 252 156Q234 158 216 162Q198 157 188.5 150Q179 143 179 133Q179 119 188.5 113.5Q198 108 220 108H417Q503 108 550 70Q597 32 597 -36ZM362 339Q362 375 343 394.5Q324 414 289 414Q254 414 234.5 394.5Q215 375 215 339Q215 304 235 283.5Q255 263 289 263Q323 263 342.5 283Q362 303 362 339ZM156 -78Q156 -100 188 -110.5Q220 -121 286 -121Q366 -121 405 -108Q444 -95 444 -69Q444 -55 432 -47Q420 -39 399 -39H251Q201 -39 178.5 -48Q156 -57 156 -78ZM288 512ZM216 587H360L406 740H287ZM288 512Z" glyph-name="uni0123" horiz-adv-x="609" /><glyph d="M433 407 693 0H486L312 277L250 205V0H75V700H250V415L486 700H684ZM368 0ZM435 -55H297L251 -235H374ZM333 -209ZM368 0Z" glyph-name="uni0136" horiz-adv-x="691" /><glyph d="M384 311 585 0H385L263 200L226 161V0H58V730H226V351L376 512H578ZM305 0ZM372 -55H234L188 -235H311ZM270 -209ZM305 0Z" glyph-name="uni0137" horiz-adv-x="582" /><glyph d="M75 0V700H250V145H526V0ZM162 700ZM301 0ZM310 700ZM324 350ZM368 -55H230L184 -235H307ZM266 -209ZM301 0Z" glyph-name="uni013B" horiz-adv-x="545" unicode="&#315;" /><glyph d="M58 0V730H226V0ZM142 0ZM142 730ZM286 700ZM286 350ZM209 -55H71L25 -235H148ZM107 -209ZM142 0Z" glyph-name="uni013C" horiz-adv-x="284" unicode="&#316;" /><glyph d="M75 0V700H257L518 299V700H685V0H526L242 440V0ZM389 700ZM382 0ZM449 -55H311L265 -235H388ZM347 -209ZM382 0Z" glyph-name="uni0145" horiz-adv-x="760" /><glyph d="M58 0V512H216V449Q242 486 280 505Q318 524 368 524Q450 524 499.5 471Q549 418 549 338V0H381V304Q381 347 363.5 366Q346 385 309 385Q270 385 248 357.5Q226 330 226 283V0ZM309 512ZM304 0ZM58 582ZM371 -55H233L187 -235H310ZM269 -209ZM304 0Z" glyph-name="uni0146" horiz-adv-x="603" /><glyph d="M75 0V700H428Q538 700 609.5 636.5Q681 573 682 478Q683 402 642.5 342Q602 282 531 254L681 0H484L349 234H250V0ZM505 474Q505 516 474 539.5Q443 563 390 563H250V370H390Q443 370 474 398Q505 426 505 474ZM359 700ZM367 0ZM434 -55H296L250 -235H373ZM332 -209ZM367 0Z" glyph-name="uni0156" horiz-adv-x="723" /><glyph d="M58 0V512H216V421Q239 468 275 492.5Q311 517 358 517Q371 517 385 515.5Q399 514 407 512L393 368Q381 370 372 371Q363 372 354 372Q290 372 258 331Q226 290 226 209V0ZM232 512ZM142 0ZM209 -55H71L25 -235H148ZM107 -209ZM142 0Z" glyph-name="uni0157" horiz-adv-x="413" /><glyph d="M230 -118 207 -86 271 0H216V555H19V700H587V555H391V0H349L311 -50H312Q356 -50 381 -72Q406 -94 406 -131Q406 -181 372 -209.5Q338 -238 279 -238Q257 -238 234.5 -234Q212 -230 192 -223V-151Q215 -159 230.5 -162Q246 -165 265 -165Q288 -165 299 -157.5Q310 -150 310 -136Q310 -124 300.5 -117.5Q291 -111 273 -111Q264 -111 252.5 -113Q241 -115 230 -118Z" glyph-name="uni0162" horiz-adv-x="606" /><glyph d="M205 -118 182 -86 240 -8Q171 2 135.5 44Q100 86 100 157V382H20V512H100V643L268 700V512H400V382H268V186Q268 154 281 141.5Q294 129 326 129Q344 129 363 135.5Q382 142 407 157L444 35Q418 16 385 4Q352 -8 316 -11L286 -50Q331 -50 356 -71.5Q381 -93 381 -131Q381 -181 347 -209.5Q313 -238 254 -238Q232 -238 209.5 -234Q187 -230 167 -223V-151Q190 -159 205.5 -162Q221 -165 240 -165Q263 -165 274 -157.5Q285 -150 285 -136Q285 -124 275.5 -117.5Q266 -111 248 -111Q239 -111 227.5 -113Q216 -115 205 -118Z" glyph-name="uni0163" horiz-adv-x="449" /><glyph d="M609 221Q609 117 535 52.5Q461 -12 337 -12Q243 -12 167.5 14.5Q92 41 21 100L117 227Q166 181 220.5 157Q275 133 330 133Q379 133 405.5 151Q432 169 432 203Q432 228 412.5 243Q393 258 337 271L247 292Q150 315 102.5 366.5Q55 418 55 500Q55 590 128 651Q201 712 320 712Q399 712 470 687Q541 662 604 609L509 483Q460 524 411 544Q362 564 313 564Q274 564 252.5 549.5Q231 535 231 510Q231 486 249 471Q267 456 314 445L413 421Q512 397 560.5 347.5Q609 298 609 221ZM330 10ZM321 700ZM330 0ZM397 -55H259L213 -235H336ZM295 -209ZM330 0Z" glyph-name="uni0218" horiz-adv-x="649" /><glyph d="M473 165Q473 86 416.5 37Q360 -12 264 -12Q193 -12 131.5 6Q70 24 19 60L90 173Q128 144 170.5 128.5Q213 113 255 113Q284 113 300 123Q316 133 316 150Q316 164 304.5 172.5Q293 181 266 187L194 203Q122 219 84.5 259.5Q47 300 47 362Q47 430 104.5 477Q162 524 254 524Q315 524 367.5 509Q420 494 469 463L400 346Q357 374 323 385.5Q289 397 256 397Q230 397 216 389Q202 381 202 366Q202 355 211 347.5Q220 340 238 336L322 316Q398 298 435.5 260.5Q473 223 473 165ZM268 10ZM259 512ZM268 0ZM335 -55H197L151 -235H274ZM233 -209ZM268 0Z" glyph-name="uni0219" horiz-adv-x="507" /><glyph d="M19 555V700H587V555H391V0H216V555ZM303 10ZM303 700ZM303 0ZM370 -55H232L186 -235H309ZM268 -209ZM303 0Z" glyph-name="uni021A" horiz-adv-x="606" unicode="&#538;" /><glyph d="M100 382H20V512H100V643L268 700V512H400V382H268V186Q268 154 281 141.5Q294 129 326 129Q344 129 363 135.5Q382 142 407 157L444 35Q414 12 374 0Q334 -12 290 -12Q196 -12 148 30.5Q100 73 100 157ZM273 10ZM199 0ZM323 739ZM266 -55H128L82 -235H205ZM164 -209ZM199 0Z" glyph-name="uni021B" horiz-adv-x="449" unicode="&#539;" /><glyph d="M62 512H230V-38Q230 -126 179 -178Q128 -230 35 -230Q7 -230 -17 -227Q-41 -224 -63 -218L-37 -75Q-24 -79 -12 -80.5Q0 -82 10 -82Q37 -82 49.5 -67.5Q62 -53 62 -19ZM146 512Z" glyph-name="uni0237" horiz-adv-x="288" /><glyph d="M323 613H77V712H323ZM200 512Z" glyph-name="uni02C9" horiz-adv-x="400" unicode="&#713;" /><glyph d="M27 0V130L259 700H456L690 130V0ZM352 528 205 140H501Z" glyph-name="uni0394" horiz-adv-x="717" unicode="&#916;" /><glyph d="M51 0V130H173Q114 176 82.5 245Q51 314 51 396Q51 535 147.5 623.5Q244 712 402 712Q559 712 656 623.5Q753 535 753 396Q753 315 721 245.5Q689 176 631 130H753V0H465V155Q516 178 545.5 240Q575 302 575 384Q575 468 528.5 517Q482 566 402 566Q321 566 275 517.5Q229 469 229 384Q229 303 258 242Q287 181 337 156V0Z" glyph-name="uni03A9" horiz-adv-x="804" unicode="&#937;" /><glyph d="M64 -218V512H232V202Q232 161 248 144Q264 127 299 127Q336 127 356.5 154.5Q377 182 377 229V512H545V0H387V63Q362 26 324.5 7Q287 -12 240 -12Q229 -12 224 -12Q219 -12 215 -11L232 -78V-218Z" glyph-name="uni03BC" horiz-adv-x="609" unicode="&#956;" /><glyph d="M242 0H67V409Q67 557 148 634.5Q229 712 385 712Q469 712 546 685Q623 658 683 607L558 403L563 401Q634 372 670 327Q706 282 706 221Q706 117 634.5 52.5Q563 -12 442 -12Q401 -12 366.5 -7.5Q332 -3 299 6L334 143Q359 136 382 133Q405 130 426 130Q476 130 502 149Q528 168 528 203Q528 235 504.5 253.5Q481 272 422 284L358 297V351L474 550Q449 559 425 563Q401 567 378 567Q308 567 275 529Q242 491 242 406Z" glyph-name="uni1E9E" horiz-adv-x="745" unicode="&#7838;" /><glyph d="M117 193 80 173 22 284 117 338V536Q117 616 167.5 664Q218 712 302 712Q379 712 426.5 668Q474 624 474 554Q474 478 429 411.5Q384 345 293 288L285 283V186Q285 153 297.5 141.5Q310 130 342 130Q362 130 381 136.5Q400 143 424 157L461 35Q432 12 393 0Q354 -12 307 -12Q213 -12 165 30.5Q117 73 117 157ZM330 562Q330 574 324 580.5Q318 587 307 587Q297 587 291 579.5Q285 572 285 560V449L286 450Q307 471 318.5 500Q330 529 330 562Z" glyph-name="uni2113" horiz-adv-x="498" /><glyph d="M662 256H534V350H802V281L733 216Q772 206 793.5 180Q815 154 815 116Q815 60 776.5 27Q738 -6 670 -6Q616 -6 577.5 16Q539 38 513 84L596 136Q613 109 628.5 98Q644 87 661 87Q675 87 683 94.5Q691 102 691 115Q691 129 683.5 135.5Q676 142 661 142Q654 142 647 140Q640 138 633 135L595 192ZM47 350V444H124V580Q105 569 81.5 563Q58 557 34 557V654Q72 654 103.5 667.5Q135 681 148 700H247V444H324V350ZM306 0H190L541 700H657Z" glyph-name="uni2153" horiz-adv-x="846" unicode="&#8531;" /><glyph d="M346 350H42V448L175 541Q194 554 203 564.5Q212 575 212 586Q212 596 205 601.5Q198 607 186 607Q168 607 157.5 597Q147 587 140 566L31 584Q43 641 85 673.5Q127 706 192 706Q261 706 299 675Q337 644 337 590Q337 552 317.5 524Q298 496 254 471L215 449H346ZM676 256H548V350H816V281L747 216Q786 206 807.5 180Q829 154 829 116Q829 60 790.5 27Q752 -6 684 -6Q630 -6 591.5 16Q553 38 527 84L610 136Q627 109 642.5 98Q658 87 675 87Q689 87 697 94.5Q705 102 705 115Q705 129 697.5 135.5Q690 142 675 142Q668 142 661 140Q654 138 647 135L609 192ZM320 0H204L555 700H671Z" glyph-name="uni2154" horiz-adv-x="861" unicode="&#8532;" /><glyph d="M672 232Q727 232 761 200.5Q795 169 795 123Q795 66 754.5 30Q714 -6 648 -6Q594 -6 552 12.5Q510 31 487 67L568 127Q583 108 598.5 100Q614 92 635 92Q652 92 662 100Q672 108 672 122Q672 134 662.5 141.5Q653 149 636 149Q626 149 619 146Q612 143 604 135L512 166L533 350H775V256H624L619 219Q630 226 643.5 229Q657 232 672 232ZM48 350V444H125V580Q106 569 82.5 563Q59 557 35 557V654Q73 654 104.5 667.5Q136 681 149 700H248V444H325V350ZM307 0H191L542 700H658Z" glyph-name="uni2155" horiz-adv-x="827" unicode="&#8533;" /><glyph d="M347 350H43V448L176 541Q195 554 204 564.5Q213 575 213 586Q213 596 206 601.5Q199 607 187 607Q169 607 158.5 597Q148 587 141 566L32 584Q44 641 86 673.5Q128 706 193 706Q262 706 300 675Q338 644 338 590Q338 552 318.5 524Q299 496 255 471L216 449H347ZM686 232Q741 232 775 200.5Q809 169 809 123Q809 66 768.5 30Q728 -6 662 -6Q608 -6 566 12.5Q524 31 501 67L582 127Q597 108 612.5 100Q628 92 649 92Q666 92 676 100Q686 108 686 122Q686 134 676.5 141.5Q667 149 650 149Q640 149 633 146Q626 143 618 135L526 166L547 350H789V256H638L633 219Q644 226 657.5 229Q671 232 686 232ZM321 0H205L556 700H672Z" glyph-name="uni2156" horiz-adv-x="841" unicode="&#8534;" /><glyph d="M649 232Q704 232 738 200.5Q772 169 772 123Q772 66 731.5 30Q691 -6 625 -6Q571 -6 529 12.5Q487 31 464 67L545 127Q560 108 575.5 100Q591 92 612 92Q629 92 639 100Q649 108 649 122Q649 134 639.5 141.5Q630 149 613 149Q603 149 596 146Q589 143 581 135L489 166L510 350H752V256H601L596 219Q607 226 620.5 229Q634 232 649 232ZM177 606H49V700H317V631L248 566Q287 556 308.5 530Q330 504 330 466Q330 410 291.5 377Q253 344 185 344Q131 344 92.5 366Q54 388 28 434L111 486Q128 459 143.5 448Q159 437 176 437Q190 437 198 444.5Q206 452 206 465Q206 479 198.5 485.5Q191 492 176 492Q169 492 162 490Q155 488 148 485L110 542ZM284 0H168L519 700H635Z" glyph-name="uni2157" horiz-adv-x="807" unicode="&#8535;" /><glyph d="M215 502V539L331 581V502H370V406H331V350H215V406H28V499L163 700H300L164 502ZM700 232Q755 232 789 200.5Q823 169 823 123Q823 66 782.5 30Q742 -6 676 -6Q622 -6 580 12.5Q538 31 515 67L596 127Q611 108 626.5 100Q642 92 663 92Q680 92 690 100Q700 108 700 122Q700 134 690.5 141.5Q681 149 664 149Q654 149 647 146Q640 143 632 135L540 166L561 350H803V256H652L647 219Q658 226 671.5 229Q685 232 700 232ZM335 0H219L570 700H686Z" glyph-name="uni2158" horiz-adv-x="858" unicode="&#8536;" /><glyph d="M664 231Q712 231 742 201Q772 171 772 123Q772 66 729.5 30Q687 -6 618 -6Q552 -6 508.5 28Q465 62 465 113Q465 142 473 168.5Q481 195 498 222L578 350H715L637 228Q643 230 649 230.5Q655 231 664 231ZM618 150Q605 150 597 141Q589 132 589 117Q589 102 597 93Q605 84 618 84Q632 84 640 93Q648 102 648 117Q648 132 640 141Q632 150 618 150ZM51 350V444H128V580Q109 569 85.5 563Q62 557 38 557V654Q76 654 107.5 667.5Q139 681 152 700H251V444H328V350ZM310 0H194L545 700H661Z" glyph-name="uni2159" horiz-adv-x="801" unicode="&#8537;" /><glyph d="M212 582Q267 582 301 550.5Q335 519 335 473Q335 416 294.5 380Q254 344 188 344Q134 344 92 362.5Q50 381 27 417L108 477Q123 458 138.5 450Q154 442 175 442Q192 442 202 450Q212 458 212 472Q212 484 202.5 491.5Q193 499 176 499Q166 499 159 496Q152 493 144 485L52 516L73 700H315V606H164L159 569Q170 576 183.5 579Q197 582 212 582ZM642 231Q690 231 720 201Q750 171 750 123Q750 66 707.5 30Q665 -6 596 -6Q530 -6 486.5 28Q443 62 443 113Q443 142 451 168.5Q459 195 476 222L556 350H693L615 228Q621 230 627 230.5Q633 231 642 231ZM596 150Q583 150 575 141Q567 132 567 117Q567 102 575 93Q583 84 596 84Q610 84 618 93Q626 102 626 117Q626 132 618 141Q610 150 596 150ZM288 0H172L523 700H639Z" glyph-name="uni215A" horiz-adv-x="780" unicode="&#8538;" /><glyph d="M751 177Q776 164 789.5 143Q803 122 803 96Q803 50 762.5 22Q722 -6 654 -6Q587 -6 546 22Q505 50 505 96Q505 121 519 142Q533 163 558 176Q536 189 524 210.5Q512 232 512 257Q512 301 551 328.5Q590 356 654 356Q718 356 757 328.5Q796 301 796 257Q796 232 784.5 211Q773 190 751 177ZM630 240Q630 227 636.5 219Q643 211 654 211Q665 211 671.5 219Q678 227 678 240Q678 253 671.5 261Q665 269 654 269Q643 269 636.5 261Q630 253 630 240ZM681 108Q681 122 674 129.5Q667 137 654 137Q641 137 634 129.5Q627 122 627 108Q627 94 634 86.5Q641 79 654 79Q667 79 674 86.5Q681 94 681 108ZM48 350V444H125V580Q106 569 82.5 563Q59 557 35 557V654Q73 654 104.5 667.5Q136 681 149 700H248V444H325V350ZM307 0H191L542 700H658Z" glyph-name="uni215B" horiz-adv-x="834" unicode="&#8539;" /><glyph d="M728 177Q753 164 766.5 143Q780 122 780 96Q780 50 739.5 22Q699 -6 631 -6Q564 -6 523 22Q482 50 482 96Q482 121 496 142Q510 163 535 176Q513 189 501 210.5Q489 232 489 257Q489 301 528 328.5Q567 356 631 356Q695 356 734 328.5Q773 301 773 257Q773 232 761.5 211Q750 190 728 177ZM607 240Q607 227 613.5 219Q620 211 631 211Q642 211 648.5 219Q655 227 655 240Q655 253 648.5 261Q642 269 631 269Q620 269 613.5 261Q607 253 607 240ZM658 108Q658 122 651 129.5Q644 137 631 137Q618 137 611 129.5Q604 122 604 108Q604 94 611 86.5Q618 79 631 79Q644 79 651 86.5Q658 94 658 108ZM177 606H49V700H317V631L248 566Q287 556 308.5 530Q330 504 330 466Q330 410 291.5 377Q253 344 185 344Q131 344 92.5 366Q54 388 28 434L111 486Q128 459 143.5 448Q159 437 176 437Q190 437 198 444.5Q206 452 206 465Q206 479 198.5 485.5Q191 492 176 492Q169 492 162 490Q155 488 148 485L110 542ZM284 0H168L519 700H635Z" glyph-name="uni215C" horiz-adv-x="813" unicode="&#8540;" /><glyph d="M732 177Q757 164 770.5 143Q784 122 784 96Q784 50 743.5 22Q703 -6 635 -6Q568 -6 527 22Q486 50 486 96Q486 121 500 142Q514 163 539 176Q517 189 505 210.5Q493 232 493 257Q493 301 532 328.5Q571 356 635 356Q699 356 738 328.5Q777 301 777 257Q777 232 765.5 211Q754 190 732 177ZM611 240Q611 227 617.5 219Q624 211 635 211Q646 211 652.5 219Q659 227 659 240Q659 253 652.5 261Q646 269 635 269Q624 269 617.5 261Q611 253 611 240ZM662 108Q662 122 655 129.5Q648 137 635 137Q622 137 615 129.5Q608 122 608 108Q608 94 615 86.5Q622 79 635 79Q648 79 655 86.5Q662 94 662 108ZM212 582Q267 582 301 550.5Q335 519 335 473Q335 416 294.5 380Q254 344 188 344Q134 344 92 362.5Q50 381 27 417L108 477Q123 458 138.5 450Q154 442 175 442Q192 442 202 450Q212 458 212 472Q212 484 202.5 491.5Q193 499 176 499Q166 499 159 496Q152 493 144 485L52 516L73 700H315V606H164L159 569Q170 576 183.5 579Q197 582 212 582ZM288 0H172L523 700H639Z" glyph-name="uni215D" horiz-adv-x="818" unicode="&#8541;" /><glyph d="M177 601H35V700H307V606L175 350H47ZM670 177Q695 164 708.5 143Q722 122 722 96Q722 50 681.5 22Q641 -6 573 -6Q506 -6 465 22Q424 50 424 96Q424 121 438 142Q452 163 477 176Q455 189 443 210.5Q431 232 431 257Q431 301 470 328.5Q509 356 573 356Q637 356 676 328.5Q715 301 715 257Q715 232 703.5 211Q692 190 670 177ZM549 240Q549 227 555.5 219Q562 211 573 211Q584 211 590.5 219Q597 227 597 240Q597 253 590.5 261Q584 269 573 269Q562 269 555.5 261Q549 253 549 240ZM600 108Q600 122 593 129.5Q586 137 573 137Q560 137 553 129.5Q546 122 546 108Q546 94 553 86.5Q560 79 573 79Q586 79 593 86.5Q600 94 600 108ZM226 0H110L461 700H577Z" glyph-name="uni215E" horiz-adv-x="753" unicode="&#8542;" /><glyph d="M64 350V444H141V580Q122 569 98.5 563Q75 557 51 557V654Q89 654 120.5 667.5Q152 681 165 700H264V444H341V350ZM323 0H207L558 700H674Z" glyph-name="uni215F" horiz-adv-x="495" unicode="&#8543;" /><glyph d="M92 0H-24L327 700H443Z" glyph-name="uni2215" horiz-adv-x="421" unicode="&#8725;" /><glyph d="M80 400Q80 338.5 125 295.75Q170 253 234.5 253Q299 253 344.75 295.75Q390.5 338.5 390.5 400Q390.5 461.5 345.5 502.75Q300.5 544 234.5 544Q170 544 125 502Q80 460 80 400ZM78.5 397Z" glyph-name="uni2219" horiz-adv-x="469" /><glyph d="M1414 529H76V537H1414ZM1221 257Q1221 262 1221 287.5Q1221 313 1220 332L1191 330V334Q1191 344 1194 349Q1197 354 1203 354H1220L1217 384Q1236 390 1240.5 391Q1245 392 1249 392Q1254 392 1257 390Q1260 388 1260 384V355H1307V352Q1307 341 1304 336Q1301 331 1295 331H1260V241Q1260 233 1264 229.5Q1268 226 1276 226Q1282 226 1289 227Q1296 228 1310 231Q1330 235 1340.5 236Q1351 237 1361 237Q1383 237 1403 230.5Q1423 224 1423 213Q1423 200 1414.5 192.5Q1406 185 1396 185Q1394 185 1391 186Q1388 187 1380 192Q1361 202 1348.5 205.5Q1336 209 1325 209Q1321 209 1316 208.5Q1311 208 1299 206Q1281 203 1270 202Q1259 201 1249 201Q1232 201 1227 210.5Q1222 220 1221 257ZM1204 290Q1204 278 1198 270.5Q1192 263 1179 258Q1170 255 1160 253.5Q1150 252 1135 252Q1136 242 1143 236Q1150 230 1161 230Q1170 230 1177.5 232Q1185 234 1193 239Q1197 236 1199 232Q1201 228 1201 223Q1201 214 1188.5 207Q1176 200 1154 200Q1126 200 1110 214.5Q1094 229 1094 253Q1094 282 1113 301.5Q1132 321 1163 321Q1181 321 1192.5 312Q1204 303 1204 290ZM881 290Q881 278 875 270.5Q869 263 856 258Q847 255 837 253.5Q827 252 812 252Q813 242 820 236Q827 230 838 230Q847 230 854.5 232Q862 234 870 239Q874 236 876 232Q878 228 878 223Q878 214 865.5 207Q853 200 831 200Q803 200 787 214.5Q771 229 771 253Q771 282 790 301.5Q809 321 840 321Q858 321 869.5 312Q881 303 881 290ZM182 290Q182 278 176 270.5Q170 263 157 258Q148 255 138 253.5Q128 252 113 252Q114 242 121 236Q128 230 139 230Q148 230 155.5 232Q163 234 171 239Q175 236 177 232Q179 228 179 223Q179 214 166.5 207Q154 200 132 200Q104 200 88 214.5Q72 229 72 253Q72 282 91 301.5Q110 321 141 321Q159 321 170.5 312Q182 303 182 290ZM1049 321Q1063 321 1070.5 313Q1078 305 1078 289V240L1080 208Q1061 202 1056.5 201Q1052 200 1049 200Q1044 200 1041 202Q1038 204 1038 208V275Q1038 283 1036 286.5Q1034 290 1030 290Q1023 290 1013.5 272.5Q1004 255 1004 242L1007 208Q988 202 983.5 201Q979 200 975 200Q970 200 967 202Q964 204 964 208V277L961 313Q980 319 984.5 320Q989 321 993 321Q998 321 1001 318.5Q1004 316 1004 312V272Q1013 296 1024 308.5Q1035 321 1049 321ZM359 321Q373 321 380 313Q387 305 387 289V240L390 208Q371 202 366.5 201Q362 200 359 200Q354 200 351 202Q348 204 348 208V274Q348 283 346 286.5Q344 290 340 290Q333 290 323.5 272.5Q314 255 314 242L316 208Q297 202 292.5 201Q288 200 285 200Q280 200 277 202Q274 204 274 208V274Q274 283 272 286.5Q270 290 266 290Q259 290 249.5 272.5Q240 255 240 242L243 208Q224 202 219.5 201Q215 200 211 200Q206 200 203 202Q200 204 200 208V277L197 313Q216 319 220.5 320Q225 321 229 321Q234 321 237 318.5Q240 316 240 312V272Q246 292 258 306.5Q270 321 285 321Q299 321 306.5 313Q314 305 314 289V272Q320 294 332 307.5Q344 321 359 321ZM835 298Q826 298 819.5 288.5Q813 279 811 264Q827 264 837.5 269.5Q848 275 848 285Q848 291 844.5 294.5Q841 298 835 298ZM1158 298Q1149 298 1142.5 288.5Q1136 279 1134 264Q1150 264 1160.5 269.5Q1171 275 1171 285Q1171 291 1167.5 294.5Q1164 298 1158 298ZM136 298Q127 298 120.5 288.5Q114 279 112 264Q128 264 138.5 269.5Q149 275 149 285Q149 291 145.5 294.5Q142 298 136 298ZM671 242V219Q694 222 705 235Q716 248 716 270Q716 280 712.5 285Q709 290 703 290Q691 290 681 272Q671 254 671 242ZM896 226Q896 236 903 243Q910 250 921 250Q932 250 939.5 243Q947 236 947 226Q947 216 939.5 209.5Q932 203 921 203Q910 203 903 209.5Q896 216 896 226ZM718 320Q736 320 747 306Q758 292 758 269Q758 236 735.5 218.5Q713 201 671 201V161L674 129Q655 123 650.5 122Q646 121 642 121Q637 121 634 123Q631 125 631 129V204L606 201V198Q606 160 588.5 139.5Q571 119 538 119Q519 119 508 128.5Q497 138 497 153Q497 171 513.5 184Q530 197 567 206V248Q559 225 547 212.5Q535 200 521 200Q507 200 500 207.5Q493 215 493 231V234Q483 217 470 209Q457 201 440 201Q427 201 419 209Q411 217 411 231V332L382 330V334Q382 344 385 349Q388 354 394 354H411L408 384Q427 390 431.5 391Q436 392 440 392Q445 392 448 390Q451 388 451 384V355H498V352Q498 341 495 336Q492 331 486 331H451V245Q451 237 454 233Q457 229 464 229Q474 229 483.5 237Q493 245 493 255V280L490 313Q509 319 513.5 320Q518 321 522 321Q527 321 530 318.5Q533 316 533 312V246Q533 238 534.5 234.5Q536 231 540 231Q547 231 556.5 248Q566 265 566 279L564 313Q583 319 587.5 320Q592 321 595 321Q600 321 603 318.5Q606 316 606 312V213L631 216V277L628 313Q647 319 651.5 320Q656 321 660 321Q665 321 668 318.5Q671 316 671 312V272Q679 295 691 307.5Q703 320 718 320ZM539 148Q551 148 558 159Q565 170 566 194Q547 190 536 181.5Q525 173 525 162Q525 155 529 151.5Q533 148 539 148ZM1414 0H76V8H1414Z" glyph-name="uniF8FF" horiz-adv-x="1495" unicode="&#63743;" /><glyph d="M54 168V512H222V202Q222 161 238 144Q254 127 289 127Q326 127 346.5 154.5Q367 182 367 229V512H535V0H450Q424 -16 410 -41Q396 -66 396 -95Q396 -123 413 -139Q430 -155 460 -155Q468 -155 477 -154Q486 -153 496 -150V-224Q480 -231 462.5 -234.5Q445 -238 421 -238Q362 -238 326.5 -209.5Q291 -181 291 -130Q291 -90 313 -56Q335 -22 377 0V63Q352 26 314.5 7Q277 -12 230 -12Q151 -12 102.5 39.5Q54 91 54 168Z" glyph-name="uogonek" horiz-adv-x="593" unicode="&#371;" /><glyph d="M54 168V512H222V202Q222 161 238 144Q254 127 289 127Q326 127 346.5 154.5Q367 182 367 229V512H535V0H377V63Q352 26 314.5 7Q277 -12 230 -12Q151 -12 102.5 39.5Q54 91 54 168ZM295 512ZM492 0ZM413 678Q413 727 378 762Q343 797 294 797Q244 797 210 762Q176 727 176 678Q176 629 210 594.5Q244 560 294 560Q344 560 378.5 594.5Q413 629 413 678ZM252 678Q252 695 265 708Q278 721 294 721Q311 721 324 708Q337 695 337 678Q337 662 324 649Q311 636 294 636Q278 636 265 649Q252 662 252 678ZM295 512Z" glyph-name="uring" horiz-adv-x="593" unicode="&#367;" /><glyph d="M54 168V512H222V202Q222 161 238 144Q254 127 289 127Q326 127 346.5 154.5Q367 182 367 229V512H535V0H377V63Q352 26 314.5 7Q277 -12 230 -12Q151 -12 102.5 39.5Q54 91 54 168ZM295 512ZM492 0ZM390 595Q441 595 463 633.5Q485 672 468 736H375Q377 720 372.5 713.5Q368 707 355 707Q347 707 336.5 709Q326 711 304 718Q276 727 261 730Q246 733 233 733Q179 733 153 691Q127 649 142 589H237Q238 606 246 614Q254 622 270 622Q280 622 291.5 619.5Q303 617 326 609Q351 600 364.5 597.5Q378 595 390 595ZM295 512Z" glyph-name="utilde" horiz-adv-x="593" unicode="&#361;" /><glyph d="M197 0 9 512H188L286 198L386 512H558L369 0Z" glyph-name="v" horiz-adv-x="566" unicode="v" /><glyph d="M168 0 10 512H175L250 209L320 512H476L548 205L624 512H784L626 0H471L396 286L323 0ZM399 512Z" glyph-name="w" horiz-adv-x="794" unicode="w" /><glyph d="M168 0 10 512H175L250 209L320 512H476L548 205L624 512H784L626 0H471L396 286L323 0ZM399 512ZM577 740H422L331 587H468ZM399 512Z" glyph-name="wacute" horiz-adv-x="794" unicode="&#7811;" /><glyph d="M168 0 10 512H175L250 209L320 512H476L548 205L624 512H784L626 0H471L396 286L323 0ZM399 512ZM202 587 308 740H489L595 587H460L397 661L335 587ZM399 512Z" glyph-name="wcircumflex" horiz-adv-x="794" unicode="&#373;" /><glyph d="M168 0 10 512H175L250 209L320 512H476L548 205L624 512H784L626 0H471L396 286L323 0ZM399 512ZM228 663Q228 631 250 608.5Q272 586 304 586Q336 586 359 608.5Q382 631 382 663Q382 695 359 718Q336 741 304 741Q273 741 250.5 718Q228 695 228 663ZM422 663Q422 631 444.5 608.5Q467 586 499 586Q531 586 553.5 608.5Q576 631 576 663Q576 695 553 718Q530 741 499 741Q467 741 444.5 718Q422 695 422 663ZM399 512Z" glyph-name="wdieresis" horiz-adv-x="794" unicode="&#7813;" /><glyph d="M168 0 10 512H175L250 209L320 512H476L548 205L624 512H784L626 0H471L396 286L323 0ZM399 512ZM467 587 376 740H223L332 587ZM399 512Z" glyph-name="wgrave" horiz-adv-x="794" unicode="&#7809;" /><glyph d="M189 258 6 512H200L287 381L373 512H560L377 262L573 0H376L280 137L187 0H1Z" glyph-name="x" horiz-adv-x="570" unicode="x" /><glyph d="M203 -7 7 512H188L286 208L386 512H557L289 -218H120ZM285 512Z" glyph-name="y" horiz-adv-x="566" unicode="y" /><glyph d="M203 -7 7 512H188L286 208L386 512H557L289 -218H120ZM285 512ZM463 740H308L217 587H354ZM285 512Z" glyph-name="yacute" horiz-adv-x="566" unicode="&#253;" /><glyph d="M203 -7 7 512H188L286 208L386 512H557L289 -218H120ZM285 512ZM88 587 194 740H375L481 587H346L283 661L221 587ZM285 512Z" glyph-name="ycircumflex" horiz-adv-x="566" unicode="&#375;" /><glyph d="M203 -7 7 512H188L286 208L386 512H557L289 -218H120ZM285 512ZM114 663Q114 631 136 608.5Q158 586 190 586Q222 586 245 608.5Q268 631 268 663Q268 695 245 718Q222 741 190 741Q159 741 136.5 718Q114 695 114 663ZM308 663Q308 631 330.5 608.5Q353 586 385 586Q417 586 439.5 608.5Q462 631 462 663Q462 695 439 718Q416 741 385 741Q353 741 330.5 718Q308 695 308 663ZM285 512Z" glyph-name="ydieresis" horiz-adv-x="566" unicode="&#255;" /><glyph d="M253 132H87V228H253V277L252 278H87V374H201L28 700H214L344 429L471 700H652L485 374H594V278H436L428 262V228H594V132H428V0H253Z" glyph-name="yen" horiz-adv-x="680" unicode="&#165;" /><glyph d="M203 -7 7 512H188L286 208L386 512H557L289 -218H120ZM285 512ZM353 587 262 740H109L218 587ZM285 512Z" glyph-name="ygrave" horiz-adv-x="566" unicode="&#7923;" /><glyph d="M254 139H503V0H30V113L270 373H45V512H487V393ZM266 512Z" glyph-name="z" horiz-adv-x="533" unicode="z" /><glyph d="M254 139H503V0H30V113L270 373H45V512H487V393ZM266 512ZM444 740H289L198 587H335ZM266 512Z" glyph-name="zacute" horiz-adv-x="533" unicode="&#378;" /><glyph d="M254 139H503V0H30V113L270 373H45V512H487V393ZM266 512ZM356 587H175L69 740H204L267 666L329 740H462ZM266 512Z" glyph-name="zcaron" horiz-adv-x="533" unicode="&#382;" /><glyph d="M254 139H503V0H30V113L270 373H45V512H487V393ZM266 512ZM173 663Q173 626 200.5 600.5Q228 575 266 575Q305 575 332.5 600.5Q360 626 360 663Q360 699 332.5 724Q305 749 266 749Q228 749 200.5 724Q173 699 173 663ZM266 512Z" glyph-name="zdotaccent" horiz-adv-x="533" unicode="&#380;" /><glyph d="M43 350Q43 183 125 85.5Q207 -12 351 -12Q495 -12 577.5 85.5Q660 183 660 350Q660 516 577.5 614Q495 712 351 712Q207 712 125 614Q43 516 43 350ZM483 350Q483 249 448 191Q413 133 351 133Q289 133 254.5 191Q220 249 220 350Q220 450 255 508.5Q290 567 351 567Q413 567 448 509Q483 451 483 350Z" glyph-name="zero" horiz-adv-x="703" unicode="0" /><glyph d="M23 175Q23 92 70 43Q117 -6 197 -6Q278 -6 325 43Q372 92 372 175Q372 258 325 307Q278 356 197 356Q117 356 70 307Q23 258 23 175ZM248 175Q248 138 234 116Q220 94 197 94Q174 94 160.5 116Q147 138 147 175Q147 212 160.5 234Q174 256 197 256Q220 256 234 234Q248 212 248 175Z" glyph-name="zero.denominator" horiz-adv-x="395" unicode="&#63061;" /><glyph d="M23 35Q23 -48 70 -97Q117 -146 197 -146Q278 -146 325 -97Q372 -48 372 35Q372 118 325 167Q278 216 197 216Q117 216 70 167Q23 118 23 35ZM248 35Q248 -2 234 -24Q220 -46 197 -46Q174 -46 160.5 -24Q147 -2 147 35Q147 72 160.5 94Q174 116 197 116Q220 116 234 94Q248 72 248 35Z" glyph-name="zero.inferior" horiz-adv-x="395" unicode="&#8320;" /><glyph d="M23 525Q23 442 70 393Q117 344 197 344Q278 344 325 393Q372 442 372 525Q372 608 325 657Q278 706 197 706Q117 706 70 657Q23 608 23 525ZM248 525Q248 488 234 466Q220 444 197 444Q174 444 160.5 466Q147 488 147 525Q147 562 160.5 584Q174 606 197 606Q220 606 234 584Q248 562 248 525Z" glyph-name="zero.numerator" horiz-adv-x="395" unicode="&#63073;" /><glyph d="M23 665Q23 582 70 533Q117 484 197 484Q278 484 325 533Q372 582 372 665Q372 748 325 797Q278 846 197 846Q117 846 70 797Q23 748 23 665ZM248 665Q248 628 234 606Q220 584 197 584Q174 584 160.5 606Q147 628 147 665Q147 702 160.5 724Q174 746 197 746Q220 746 234 724Q248 702 248 665Z" glyph-name="zero.superior" horiz-adv-x="395" unicode="&#8304;" /><glyph d="M11 350Q11 183 93 85.5Q175 -12 319 -12Q463 -12 545.5 85.5Q628 183 628 350Q628 516 545.5 614Q463 712 319 712Q175 712 93 614Q11 516 11 350ZM451 350Q451 249 416 191Q381 133 319 133Q257 133 222.5 191Q188 249 188 350Q188 450 223 508.5Q258 567 319 567Q381 567 416 509Q451 451 451 350Z" glyph-name="zero.tab" horiz-adv-x="640" unicode="&#65296;" /></font>
</defs>
</svg>
