<?xml version="1.0" standalone="no"?><!DOCTYPE svg PUBLIC "-//W3C//DTD SVG 1.1//EN" "http://www.w3.org/Graphics/SVG/1.1/DTD/svg11.dtd" ><svg version="1.1" xmlns="http://www.w3.org/2000/svg"><defs><font horiz-adv-x="0" id="font"><font-face ascent="750" bbox="-102 -230 1415 962" cap-height="700" descent="-250" font-family="Web use ONLY | Copyright (C) Emtype Foundry" font-stretch="normal" font-weight="275" units-per-em="1000" x-height="489" /><missing-glyph d="M52 351Q52 501 157.5 606.5Q263 712 413 712Q563 712 668.5 606.5Q774 501 774 351Q774 201 668 94.5Q562 -12 413 -12Q264 -12 158 94.5Q52 201 52 351ZM306 565H229L375 346L229 127H307L414 287L520 127H598L452 346L598 565H521L414 404Z" horiz-adv-x="826" /><glyph d="M149 228 53 0H36L332 700H349L626 0H609L519 228ZM340 680 156 243H513ZM340 700ZM611 0Z" glyph-name="A" horiz-adv-x="671" unicode="A" /><glyph d="M212 239 41 0H23L524 700H994V685H548V368H965V353H548V15H1003V0H532V239ZM532 685 223 254H532Z" glyph-name="AE" horiz-adv-x="1063" unicode="&#198;" /><glyph d="M149 228 53 0H36L332 700H349L626 0H609L519 228ZM340 680 156 243H513ZM340 700ZM611 0ZM436 921H417L331 787H349ZM340 700Z" glyph-name="Aacute" horiz-adv-x="671" unicode="&#193;" /><glyph d="M149 228 53 0H36L332 700H349L626 0H609L519 228ZM340 680 156 243H513ZM340 700ZM611 0ZM340 800Q388 800 414.5 833Q441 866 441 921H457Q456 859 425.5 822Q395 785 340 785Q285 785 254.5 822Q224 859 223 921H239Q239 867 265.5 833.5Q292 800 340 800ZM340 700Z" glyph-name="Abreve" horiz-adv-x="671" unicode="&#258;" /><glyph d="M149 228 53 0H36L332 700H349L626 0H609L519 228ZM340 680 156 243H513ZM340 700ZM611 0ZM257 787 332 921H347L422 787H404L339 902L274 787ZM340 700Z" glyph-name="Acircumflex" horiz-adv-x="671" unicode="&#194;" /><glyph d="M149 228 53 0H36L332 700H349L626 0H609L519 228ZM340 680 156 243H513ZM340 700ZM611 0ZM264 854Q264 845 270 839Q276 833 285 833Q294 833 300 839Q306 845 306 854Q306 863 300 869Q294 875 285 875Q276 875 270 869Q264 863 264 854ZM376 854Q376 845 382 839Q388 833 397 833Q406 833 412 839Q418 845 418 854Q418 863 412 869Q406 875 397 875Q388 875 382 869Q376 863 376 854ZM340 700Z" glyph-name="Adieresis" horiz-adv-x="671" unicode="&#196;" /><glyph d="M149 228 53 0H36L332 700H349L626 0H609L519 228ZM340 680 156 243H513ZM340 700ZM611 0ZM349 787 263 921H244L331 787ZM340 700Z" glyph-name="Agrave" horiz-adv-x="671" unicode="&#192;" /><glyph d="M149 228 53 0H36L332 700H349L626 0H609L519 228ZM340 680 156 243H513ZM340 700ZM611 0ZM463 846H217V861H463ZM340 700Z" glyph-name="Amacron" horiz-adv-x="671" unicode="&#256;" /><glyph d="M149 228 53 0H36L332 700H349L626 0Q613 0 601 -3Q589 -6 578 -11Q571 -16 564 -20.5Q557 -25 551 -29Q529 -49 515.5 -77.5Q502 -106 502 -132Q502 -163 521.5 -180.5Q541 -198 574 -198Q587 -198 599 -195Q611 -192 622 -187V-203Q612 -208 600 -210.5Q588 -213 571 -213Q532 -213 509 -190.5Q486 -168 486 -134Q486 -107 502.5 -80Q519 -53 551 -29Q557 -24 564 -19.5Q571 -15 578 -11Q579 -10 589.5 -4Q600 2 607 5L519 228ZM340 680 156 243H513Z" glyph-name="Aogonek" horiz-adv-x="671" unicode="&#260;" /><glyph d="M149 228 53 0H36L332 700H349L626 0H609L519 228ZM340 680 156 243H513ZM340 700ZM611 0ZM438 854Q438 894 409.5 923Q381 952 340 952Q298 952 270 923.5Q242 895 242 854Q242 813 270 785Q298 757 340 757Q381 757 409.5 785.5Q438 814 438 854ZM258 854Q258 889 282 913Q306 937 340 937Q374 937 398 912.5Q422 888 422 854Q422 820 398 796Q374 772 340 772Q305 772 281.5 796Q258 820 258 854ZM340 700Z" glyph-name="Aring" horiz-adv-x="671" unicode="&#197;" /><glyph d="M149 228 53 0H36L332 700H349L626 0H609L519 228ZM340 680 156 243H513ZM340 700ZM611 0ZM403 816Q433 816 448.5 834.5Q464 853 465 890H449Q448 861 436.5 846Q425 831 403 831Q392 831 380.5 836.5Q369 842 348 859Q323 880 308 886.5Q293 893 278 893Q248 893 232 873Q216 853 215 814H231Q231 845 243 861.5Q255 878 278 878Q292 878 305.5 872Q319 866 341 847Q363 828 376 822Q389 816 403 816ZM340 700Z" glyph-name="Atilde" horiz-adv-x="671" unicode="&#195;" /><glyph d="M125 0V700H392Q487 700 543 654Q599 608 599 538Q599 475 564.5 429.5Q530 384 471 367Q532 351 572 302.5Q612 254 612 196Q612 108 558 54Q504 0 413 0ZM583 538Q583 602 531.5 643.5Q480 685 392 685H141V373H406Q485 373 534 418.5Q583 464 583 538ZM596 196Q596 260 544.5 309Q493 358 420 358H141V15H413Q497 15 546.5 64.5Q596 114 596 196Z" glyph-name="B" horiz-adv-x="695" unicode="B" /><glyph d="M380 -12Q247 -12 159 90.5Q71 193 71 349Q71 505 159.5 608.5Q248 712 383 712Q487 712 556.5 661.5Q626 611 655 516L640 511Q612 601 545.5 649Q479 697 383 697Q256 697 171.5 597Q87 497 87 349Q87 202 170.5 102.5Q254 3 380 3Q476 3 540.5 49.5Q605 96 640 189L655 183Q619 85 550.5 36.5Q482 -12 380 -12ZM379 700ZM391 10Z" glyph-name="C" horiz-adv-x="712" unicode="C" /><glyph d="M380 -12Q247 -12 159 90.5Q71 193 71 349Q71 505 159.5 608.5Q248 712 383 712Q487 712 556.5 661.5Q626 611 655 516L640 511Q612 601 545.5 649Q479 697 383 697Q256 697 171.5 597Q87 497 87 349Q87 202 170.5 102.5Q254 3 380 3Q476 3 540.5 49.5Q605 96 640 189L655 183Q619 85 550.5 36.5Q482 -12 380 -12ZM379 700ZM391 10ZM475 921H456L370 787H388ZM379 700Z" glyph-name="Cacute" horiz-adv-x="712" unicode="&#262;" /><glyph d="M380 -12Q247 -12 159 90.5Q71 193 71 349Q71 505 159.5 608.5Q248 712 383 712Q487 712 556.5 661.5Q626 611 655 516L640 511Q612 601 545.5 649Q479 697 383 697Q256 697 171.5 597Q87 497 87 349Q87 202 170.5 102.5Q254 3 380 3Q476 3 540.5 49.5Q605 96 640 189L655 183Q619 85 550.5 36.5Q482 -12 380 -12ZM379 700ZM391 10ZM386 787H371L296 921H314L379 806L444 921H461ZM379 700Z" glyph-name="Ccaron" horiz-adv-x="712" unicode="&#268;" /><glyph d="M329 -101 317 -86 371 -12Q241 -8 156 94Q71 196 71 349Q71 505 159.5 608.5Q248 712 383 712Q487 712 556.5 661.5Q626 611 655 516L640 511Q612 601 545.5 649Q479 697 383 697Q256 697 171.5 597Q87 497 87 349Q87 202 170.5 102.5Q254 3 380 3Q476 3 540.5 49.5Q605 96 640 189L655 183Q620 88 554 39.5Q488 -9 390 -12L340 -80Q355 -72 370 -68.5Q385 -65 401 -65Q437 -65 457 -82.5Q477 -100 477 -133Q477 -169 450 -190.5Q423 -212 380 -212Q355 -212 336 -208.5Q317 -205 301 -198L308 -185Q322 -191 339 -194Q356 -197 381 -197Q417 -197 439 -179.5Q461 -162 461 -133Q461 -107 445.5 -93.5Q430 -80 401 -80Q382 -80 364.5 -85Q347 -90 329 -101Z" glyph-name="Ccedilla" horiz-adv-x="712" unicode="&#199;" /><glyph d="M380 -12Q247 -12 159 90.5Q71 193 71 349Q71 505 159.5 608.5Q248 712 383 712Q487 712 556.5 661.5Q626 611 655 516L640 511Q612 601 545.5 649Q479 697 383 697Q256 697 171.5 597Q87 497 87 349Q87 202 170.5 102.5Q254 3 380 3Q476 3 540.5 49.5Q605 96 640 189L655 183Q619 85 550.5 36.5Q482 -12 380 -12ZM379 700ZM391 10ZM296 787 371 921H386L461 787H443L378 902L313 787ZM379 700Z" glyph-name="Ccircumflex" horiz-adv-x="712" unicode="&#264;" /><glyph d="M380 -12Q247 -12 159 90.5Q71 193 71 349Q71 505 159.5 608.5Q248 712 383 712Q487 712 556.5 661.5Q626 611 655 516L640 511Q612 601 545.5 649Q479 697 383 697Q256 697 171.5 597Q87 497 87 349Q87 202 170.5 102.5Q254 3 380 3Q476 3 540.5 49.5Q605 96 640 189L655 183Q619 85 550.5 36.5Q482 -12 380 -12ZM379 700ZM391 10ZM356 854Q356 843 364 835Q372 827 383 827Q394 827 402 835Q410 843 410 854Q410 865 402 873.5Q394 882 383 882Q372 882 364 873.5Q356 865 356 854ZM379 700Z" glyph-name="Cdotaccent" horiz-adv-x="712" unicode="&#266;" /><glyph d="M125 0V700H346Q505 700 602 607.5Q699 515 699 368Q699 206 602 103Q505 0 346 0ZM683 368Q683 508 590.5 596.5Q498 685 346 685H141V15H346Q498 15 590.5 113.5Q683 212 683 368ZM408 700Z" glyph-name="D" horiz-adv-x="770" unicode="D" /><glyph d="M125 0V700H346Q505 700 602 607.5Q699 515 699 368Q699 206 602 103Q505 0 346 0ZM683 368Q683 508 590.5 596.5Q498 685 346 685H141V15H346Q498 15 590.5 113.5Q683 212 683 368ZM408 700ZM386 787H371L296 921H314L379 806L444 921H461ZM379 700Z" glyph-name="Dcaron" horiz-adv-x="770" unicode="&#270;" /><glyph d="M17 343V358H138V700H359Q518 700 615 607.5Q712 515 712 368Q712 206 615 103Q518 0 359 0H138V343ZM696 368Q696 508 603.5 596.5Q511 685 359 685H154V358H425V343H154V15H359Q511 15 603.5 113.5Q696 212 696 368Z" glyph-name="Dcroat" horiz-adv-x="783" unicode="&#272;" /><glyph d="M47 0V15L319 700H336L598 15V0ZM327 679 64 15H581Z" glyph-name="Delta" horiz-adv-x="646" unicode="&#8710;" /><glyph d="M125 0V700H587V685H141V368H558V353H141V15H596V0ZM358 700ZM586 0Z" glyph-name="E" horiz-adv-x="656" unicode="E" /><glyph d="M125 0V700H587V685H141V368H558V353H141V15H596V0ZM358 700ZM586 0ZM454 921H435L349 787H367ZM358 700Z" glyph-name="Eacute" horiz-adv-x="656" unicode="&#201;" /><glyph d="M125 0V700H587V685H141V368H558V353H141V15H596V0ZM358 700ZM586 0ZM358 800Q406 800 432.5 833Q459 866 459 921H475Q474 859 443.5 822Q413 785 358 785Q303 785 272.5 822Q242 859 241 921H257Q257 867 283.5 833.5Q310 800 358 800ZM358 700Z" glyph-name="Ebreve" horiz-adv-x="656" unicode="&#276;" /><glyph d="M125 0V700H587V685H141V368H558V353H141V15H596V0ZM358 700ZM586 0ZM365 787H350L275 921H293L358 806L423 921H440ZM358 700Z" glyph-name="Ecaron" horiz-adv-x="656" unicode="&#282;" /><glyph d="M125 0V700H587V685H141V368H558V353H141V15H596V0ZM358 700ZM586 0ZM275 787 350 921H365L440 787H422L357 902L292 787ZM358 700Z" glyph-name="Ecircumflex" horiz-adv-x="656" unicode="&#202;" /><glyph d="M125 0V700H587V685H141V368H558V353H141V15H596V0ZM358 700ZM586 0ZM282 854Q282 845 288 839Q294 833 303 833Q312 833 318 839Q324 845 324 854Q324 863 318 869Q312 875 303 875Q294 875 288 869Q282 863 282 854ZM394 854Q394 845 400 839Q406 833 415 833Q424 833 430 839Q436 845 436 854Q436 863 430 869Q424 875 415 875Q406 875 400 869Q394 863 394 854ZM358 700Z" glyph-name="Edieresis" horiz-adv-x="656" unicode="&#203;" /><glyph d="M125 0V700H587V685H141V368H558V353H141V15H596V0ZM358 700ZM586 0ZM335 854Q335 843 343 835Q351 827 362 827Q373 827 381 835Q389 843 389 854Q389 865 381 873.5Q373 882 362 882Q351 882 343 873.5Q335 865 335 854ZM358 700Z" glyph-name="Edotaccent" horiz-adv-x="656" unicode="&#278;" /><glyph d="M125 0V700H587V685H141V368H558V353H141V15H596V0ZM358 700ZM586 0ZM367 787 281 921H262L349 787ZM358 700Z" glyph-name="Egrave" horiz-adv-x="656" unicode="&#200;" /><glyph d="M125 0V700H587V685H141V368H558V353H141V15H596V0ZM358 700ZM586 0ZM481 846H235V861H481ZM358 700Z" glyph-name="Emacron" horiz-adv-x="656" unicode="&#274;" /><glyph d="M141 353V15H596V0Q536 -30 504 -64Q472 -98 472 -132Q472 -163 491.5 -180.5Q511 -198 544 -198Q557 -198 569 -195Q581 -192 592 -187V-203Q582 -208 570 -210.5Q558 -213 541 -213Q502 -213 479 -190.5Q456 -168 456 -134Q456 -97 485 -62.5Q514 -28 567 0H125V700H587V685H141V368H558V353Z" glyph-name="Eogonek" horiz-adv-x="656" unicode="&#280;" /><glyph d="M17 343V358H138V700H359Q518 700 615 607.5Q712 515 712 368Q712 206 615 103Q518 0 359 0H138V343ZM696 368Q696 508 603.5 596.5Q511 685 359 685H154V358H425V343H154V15H359Q511 15 603.5 113.5Q696 212 696 368Z" glyph-name="Eth" horiz-adv-x="783" unicode="&#208;" /><glyph d="M125 291H50V306H124Q123 313 123 322Q123 331 123 349Q123 366 123 375Q123 384 124 391H50V406H125Q135 549 196 630.5Q257 712 355 712Q435 712 481.5 665Q528 618 547 516L532 511Q514 608 471 652.5Q428 697 355 697Q264 697 207.5 619.5Q151 542 140 406H366V391H139Q138 384 138 375Q138 366 138 349Q138 331 138 322Q138 313 139 306H366V291H140Q151 156 206.5 79.5Q262 3 352 3Q424 3 465.5 45Q507 87 532 189L547 184Q521 78 475.5 33Q430 -12 352 -12Q255 -12 195 68.5Q135 149 125 291Z" glyph-name="Euro" horiz-adv-x="616" unicode="&#8364;" /><glyph d="M125 0V700H619V685H141V353H589V338H141V0Z" glyph-name="F" horiz-adv-x="657" unicode="F" /><glyph d="M413 322V337H686V0H671V170Q643 86 570 37Q497 -12 399 -12Q248 -12 159.5 86.5Q71 185 71 350Q71 506 165 609Q259 712 394 712Q501 712 573 666Q645 620 687 524L672 518Q632 609 564 653Q496 697 394 697Q265 697 176 598Q87 499 87 350Q87 192 171 97.5Q255 3 399 3Q518 3 594 75.5Q670 148 670 257V322ZM387 700ZM401 0Z" glyph-name="G" horiz-adv-x="771" unicode="G" /><glyph d="M413 322V337H686V0H671V170Q643 86 570 37Q497 -12 399 -12Q248 -12 159.5 86.5Q71 185 71 350Q71 506 165 609Q259 712 394 712Q501 712 573 666Q645 620 687 524L672 518Q632 609 564 653Q496 697 394 697Q265 697 176 598Q87 499 87 350Q87 192 171 97.5Q255 3 399 3Q518 3 594 75.5Q670 148 670 257V322ZM387 700ZM401 0ZM387 800Q435 800 461.5 833Q488 866 488 921H504Q503 859 472.5 822Q442 785 387 785Q332 785 301.5 822Q271 859 270 921H286Q286 867 312.5 833.5Q339 800 387 800ZM387 700Z" glyph-name="Gbreve" horiz-adv-x="771" unicode="&#286;" /><glyph d="M413 322V337H686V0H671V170Q643 86 570 37Q497 -12 399 -12Q248 -12 159.5 86.5Q71 185 71 350Q71 506 165 609Q259 712 394 712Q501 712 573 666Q645 620 687 524L672 518Q632 609 564 653Q496 697 394 697Q265 697 176 598Q87 499 87 350Q87 192 171 97.5Q255 3 399 3Q518 3 594 75.5Q670 148 670 257V322ZM387 700ZM401 0ZM304 787 379 921H394L469 787H451L386 902L321 787ZM387 700Z" glyph-name="Gcircumflex" horiz-adv-x="771" unicode="&#284;" /><glyph d="M413 322V337H686V0H671V170Q643 86 570 37Q497 -12 399 -12Q248 -12 159.5 86.5Q71 185 71 350Q71 506 165 609Q259 712 394 712Q501 712 573 666Q645 620 687 524L672 518Q632 609 564 653Q496 697 394 697Q265 697 176 598Q87 499 87 350Q87 192 171 97.5Q255 3 399 3Q518 3 594 75.5Q670 148 670 257V322ZM387 700ZM401 0ZM364 854Q364 843 372 835Q380 827 391 827Q402 827 410 835Q418 843 418 854Q418 865 410 873.5Q402 882 391 882Q380 882 372 873.5Q364 865 364 854ZM387 700Z" glyph-name="Gdotaccent" horiz-adv-x="771" unicode="&#288;" /><glyph d="M125 0V700H141V373H624V700H640V0H624V358H141V0ZM382 700Z" glyph-name="H" horiz-adv-x="765" unicode="H" /><glyph d="M32 523V538H129V700H145V538H628V700H644V538H752V523H644V0H628V358H145V0H129V523ZM145 523V373H628V523Z" glyph-name="Hbar" horiz-adv-x="776" unicode="&#294;" /><glyph d="M125 0V700H141V373H624V700H640V0H624V358H141V0ZM382 700ZM300 787 375 921H390L465 787H447L382 902L317 787ZM383 700Z" glyph-name="Hcircumflex" horiz-adv-x="765" unicode="&#292;" /><glyph d="M125 0V700H141V0ZM133 700ZM126 0Z" glyph-name="I" horiz-adv-x="266" unicode="I" /><glyph d="M45 0V15H169V685H45V700H308V685H185V15H308V0ZM177 700ZM179 0Z" glyph-name="I.alt" horiz-adv-x="353" /><glyph d="M125 0V700H141V0ZM133 700ZM126 0ZM698 206V700H682V206Q682 109 634 56Q586 3 502 3Q424 3 376 49Q328 95 322 176L307 175Q311 91 364 39.5Q417 -12 502 -12Q595 -12 646.5 44.5Q698 101 698 206ZM691 700Z" glyph-name="IJ" horiz-adv-x="814" unicode="&#306;" /><glyph d="M45 0V15H169V685H45V700H308V685H185V15H308V0ZM587 685V700H786V206Q786 101 734.5 44.5Q683 -12 590 -12Q505 -12 452 39.5Q399 91 395 175L410 176Q416 95 464 49Q512 3 590 3Q674 3 722 56Q770 109 770 206V685Z" glyph-name="IJ.alt" horiz-adv-x="902" /><glyph d="M125 0V700H141V0ZM133 700ZM126 0ZM229 921H210L124 787H142ZM133 700Z" glyph-name="Iacute" horiz-adv-x="266" unicode="&#205;" /><glyph d="M45 0V15H169V685H45V700H308V685H185V15H308V0ZM177 700ZM179 0ZM274 921H255L169 787H187ZM178 700Z" glyph-name="Iacute.alt" horiz-adv-x="353" /><glyph d="M125 0V700H141V0ZM133 700ZM126 0ZM47 787 122 921H137L212 787H194L129 902L64 787ZM130 700Z" glyph-name="Icircumflex" horiz-adv-x="266" unicode="&#206;" /><glyph d="M45 0V15H169V685H45V700H308V685H185V15H308V0ZM177 700ZM179 0ZM94 787 169 921H184L259 787H241L176 902L111 787ZM177 700Z" glyph-name="Icircumflex.alt" horiz-adv-x="353" /><glyph d="M125 0V700H141V0ZM133 700ZM126 0ZM54 854Q54 845 60 839Q66 833 75 833Q84 833 90 839Q96 845 96 854Q96 863 90 869Q84 875 75 875Q66 875 60 869Q54 863 54 854ZM166 854Q166 845 172 839Q178 833 187 833Q196 833 202 839Q208 845 208 854Q208 863 202 869Q196 875 187 875Q178 875 172 869Q166 863 166 854ZM130 700Z" glyph-name="Idieresis" horiz-adv-x="266" unicode="&#207;" /><glyph d="M45 0V15H169V685H45V700H308V685H185V15H308V0ZM177 700ZM179 0ZM100 854Q100 845 106 839Q112 833 121 833Q130 833 136 839Q142 845 142 854Q142 863 136 869Q130 875 121 875Q112 875 106 869Q100 863 100 854ZM212 854Q212 845 218 839Q224 833 233 833Q242 833 248 839Q254 845 254 854Q254 863 248 869Q242 875 233 875Q224 875 218 869Q212 863 212 854ZM176 700Z" glyph-name="Idieresis.alt" horiz-adv-x="353" /><glyph d="M125 0V700H141V0ZM133 700ZM126 0ZM107 854Q107 843 115 835Q123 827 134 827Q145 827 153 835Q161 843 161 854Q161 865 153 873.5Q145 882 134 882Q123 882 115 873.5Q107 865 107 854ZM130 700Z" glyph-name="Idotaccent" horiz-adv-x="266" unicode="&#304;" /><glyph d="M45 0V15H169V685H45V700H308V685H185V15H308V0ZM177 700ZM179 0ZM147 854Q147 843 155 835Q163 827 174 827Q185 827 193 835Q201 843 201 854Q201 865 193 873.5Q185 882 174 882Q163 882 155 873.5Q147 865 147 854ZM170 700Z" glyph-name="Idotaccent.alt" horiz-adv-x="353" /><glyph d="M125 0V700H141V0ZM133 700ZM126 0ZM142 787 56 921H37L124 787ZM133 700Z" glyph-name="Igrave" horiz-adv-x="266" unicode="&#204;" /><glyph d="M45 0V15H169V685H45V700H308V685H185V15H308V0ZM177 700ZM179 0ZM182 787 96 921H77L164 787ZM173 700Z" glyph-name="Igrave.alt" horiz-adv-x="353" /><glyph d="M125 0V700H141V0ZM133 700ZM126 0ZM253 846H7V861H253ZM130 700Z" glyph-name="Imacron" horiz-adv-x="266" unicode="&#298;" /><glyph d="M45 0V15H169V685H45V700H308V685H185V15H308V0ZM177 700ZM179 0ZM300 846H54V861H300ZM177 700Z" glyph-name="Imacron.alt" horiz-adv-x="353" /><glyph d="M126 700H142V0Q82 -30 50 -64Q18 -98 18 -132Q18 -163 37.5 -180.5Q57 -198 90 -198Q103 -198 115 -195Q127 -192 138 -187V-203Q128 -208 116 -210.5Q104 -213 87 -213Q48 -213 25 -190.5Q2 -168 2 -134Q2 -95 34.5 -58.5Q67 -22 126 6Z" glyph-name="Iogonek" horiz-adv-x="267" unicode="&#302;" /><glyph d="M45 0V15H169V685H45V700H308V685H185V15H308V0Q248 -30 216 -64Q184 -98 184 -132Q184 -163 203.5 -180.5Q223 -198 256 -198Q269 -198 281 -195Q293 -192 304 -187V-203Q294 -208 282 -210.5Q270 -213 253 -213Q214 -213 191 -190.5Q168 -168 168 -134Q168 -97 197 -62.5Q226 -28 279 0Z" glyph-name="Iogonek.alt" horiz-adv-x="353" /><glyph d="M125 0V700H141V0ZM133 700ZM126 0ZM193 816Q223 816 238.5 834.5Q254 853 255 890H239Q238 861 226.5 846Q215 831 193 831Q182 831 170.5 836.5Q159 842 138 859Q113 880 98 886.5Q83 893 68 893Q38 893 22 873Q6 853 5 814H21Q21 845 33 861.5Q45 878 68 878Q82 878 95.5 872Q109 866 131 847Q153 828 166 822Q179 816 193 816ZM130 700Z" glyph-name="Itilde" horiz-adv-x="266" unicode="&#296;" /><glyph d="M45 0V15H169V685H45V700H308V685H185V15H308V0ZM177 700ZM179 0ZM239 816Q269 816 284.5 834.5Q300 853 301 890H285Q284 861 272.5 846Q261 831 239 831Q228 831 216.5 836.5Q205 842 184 859Q159 880 144 886.5Q129 893 114 893Q84 893 68 873Q52 853 51 814H67Q67 845 79 861.5Q91 878 114 878Q128 878 141.5 872Q155 866 177 847Q199 828 212 822Q225 816 239 816ZM176 700Z" glyph-name="Itilde.alt" horiz-adv-x="353" /><glyph d="M432 206V700H416V206Q416 109 368 56Q320 3 236 3Q158 3 110 49Q62 95 56 176L41 175Q45 91 98 39.5Q151 -12 236 -12Q329 -12 380.5 44.5Q432 101 432 206ZM425 700Z" glyph-name="J" horiz-adv-x="548" unicode="J" /><glyph d="M234 685V700H433V206Q433 101 381.5 44.5Q330 -12 237 -12Q152 -12 99 39.5Q46 91 42 175L57 176Q63 95 111 49Q159 3 237 3Q321 3 369 56Q417 109 417 206V685ZM337 700Z" glyph-name="J.alt" horiz-adv-x="549" /><glyph d="M432 206V700H416V206Q416 109 368 56Q320 3 236 3Q158 3 110 49Q62 95 56 176L41 175Q45 91 98 39.5Q151 -12 236 -12Q329 -12 380.5 44.5Q432 101 432 206ZM425 700ZM342 787 417 921H432L507 787H489L424 902L359 787ZM425 700Z" glyph-name="Jcircumflex" horiz-adv-x="548" unicode="&#308;" /><glyph d="M252 787 327 921H342L417 787H399L334 902L269 787ZM234 685V700H433V206Q433 101 381.5 44.5Q330 -12 237 -12Q152 -12 99 39.5Q46 91 42 175L57 176Q63 95 111 49Q159 3 237 3Q321 3 369 56Q417 109 417 206V685Z" glyph-name="Jcircumflex.alt" horiz-adv-x="549" /><glyph d="M310 399 620 0H599L299 387L141 219V0H125V700H141V241L571 700H592ZM366 0Z" glyph-name="K" horiz-adv-x="640" unicode="K" /><glyph d="M125 0V700H141V15H561V0ZM133 700ZM216 700ZM400 350ZM351 0Z" glyph-name="L" horiz-adv-x="591" unicode="L" /><glyph d="M125 0V700H141V15H561V0ZM133 700ZM216 700ZM400 350ZM351 0ZM229 921H210L124 787H142ZM133 700Z" glyph-name="Lacute" horiz-adv-x="591" unicode="&#313;" /><glyph d="M125 0V700H141V15H561V0ZM133 700ZM216 700ZM400 350ZM351 0ZM312 730H294L250 616H263ZM216 700Z" glyph-name="Lcaron" horiz-adv-x="591" unicode="&#317;" /><glyph d="M125 0V700H141V15H561V0ZM133 700ZM216 700ZM400 350ZM351 0ZM406 348Q406 339 412.5 332.5Q419 326 428 326Q437 326 443.5 332.5Q450 339 450 348Q450 357 443.5 363.5Q437 370 428 370Q419 370 412.5 363.5Q406 357 406 348ZM406 350Z" glyph-name="Ldot" horiz-adv-x="592" unicode="&#319;" /><glyph d="M125 0V700H141V15H561V0ZM133 700ZM216 700ZM400 350ZM351 0ZM406 348Q406 339 412.5 332.5Q419 326 428 326Q437 326 443.5 332.5Q450 339 450 348Q450 357 443.5 363.5Q437 370 428 370Q419 370 412.5 363.5Q406 357 406 348ZM406 350ZM716 0V700H732V15H1152V0ZM724 700ZM807 700ZM991 350ZM942 0Z" glyph-name="Lgeminada" horiz-adv-x="1182" /><glyph d="M54 303 47 316 136 364V700H152V372L326 465L332 451L152 355V15H572V0H136V347Z" glyph-name="Lslash" horiz-adv-x="602" unicode="&#321;" /><glyph d="M125 0V700H141L442 19L737 700H755V0H739V667L449 -3H435L140 664V0Z" glyph-name="M" horiz-adv-x="880" unicode="M" /><glyph d="M125 0V700H142L623 24V700H638V0H621L140 676V0ZM381 700ZM389 0Z" glyph-name="N" horiz-adv-x="763" unicode="N" /><glyph d="M125 0V700H142L623 24V700H638V0H621L140 676V0ZM381 700ZM389 0ZM477 921H458L372 787H390ZM381 700Z" glyph-name="Nacute" horiz-adv-x="763" unicode="&#323;" /><glyph d="M125 0V700H142L623 24V700H638V0H621L140 676V0ZM381 700ZM389 0ZM388 787H373L298 921H316L381 806L446 921H463ZM381 700Z" glyph-name="Ncaron" horiz-adv-x="763" unicode="&#327;" /><glyph d="M125 0V700H142L623 24V700H638V0H621L140 676V0ZM381 700ZM389 0ZM444 816Q474 816 489.5 834.5Q505 853 506 890H490Q489 861 477.5 846Q466 831 444 831Q433 831 421.5 836.5Q410 842 389 859Q364 880 349 886.5Q334 893 319 893Q289 893 273 873Q257 853 256 814H272Q272 845 284 861.5Q296 878 319 878Q333 878 346.5 872Q360 866 382 847Q404 828 417 822Q430 816 444 816ZM381 700Z" glyph-name="Ntilde" horiz-adv-x="763" unicode="&#209;" /><glyph d="M70 350Q70 198 163.5 93Q257 -12 394 -12Q533 -12 626.5 92.5Q720 197 720 350Q720 502 626.5 607Q533 712 394 712Q257 712 163.5 607Q70 502 70 350ZM704 350Q704 203 615.5 103Q527 3 394 3Q263 3 174.5 103.5Q86 204 86 350Q86 496 174.5 596.5Q263 697 394 697Q526 697 615 596.5Q704 496 704 350ZM396 700Z" glyph-name="O" horiz-adv-x="790" unicode="O" /><glyph d="M394 -12Q257 -12 163.5 93Q70 198 70 350Q70 502 163.5 607Q257 712 394 712Q503 712 587.5 644Q672 576 704 464V700H1166V685H720V368H1137V353H720V15H1175V0H704V235Q672 123 587.5 55.5Q503 -12 394 -12ZM86 350Q86 204 174.5 103.5Q263 3 394 3Q527 3 615.5 103Q704 203 704 350Q704 496 615 596.5Q526 697 394 697Q263 697 174.5 596.5Q86 496 86 350Z" glyph-name="OE" horiz-adv-x="1235" unicode="&#338;" /><glyph d="M70 350Q70 198 163.5 93Q257 -12 394 -12Q533 -12 626.5 92.5Q720 197 720 350Q720 502 626.5 607Q533 712 394 712Q257 712 163.5 607Q70 502 70 350ZM704 350Q704 203 615.5 103Q527 3 394 3Q263 3 174.5 103.5Q86 204 86 350Q86 496 174.5 596.5Q263 697 394 697Q526 697 615 596.5Q704 496 704 350ZM396 700ZM487 921H468L382 787H400ZM391 700Z" glyph-name="Oacute" horiz-adv-x="790" unicode="&#211;" /><glyph d="M70 350Q70 198 163.5 93Q257 -12 394 -12Q533 -12 626.5 92.5Q720 197 720 350Q720 502 626.5 607Q533 712 394 712Q257 712 163.5 607Q70 502 70 350ZM704 350Q704 203 615.5 103Q527 3 394 3Q263 3 174.5 103.5Q86 204 86 350Q86 496 174.5 596.5Q263 697 394 697Q526 697 615 596.5Q704 496 704 350ZM396 700ZM391 800Q439 800 465.5 833Q492 866 492 921H508Q507 859 476.5 822Q446 785 391 785Q336 785 305.5 822Q275 859 274 921H290Q290 867 316.5 833.5Q343 800 391 800ZM391 700Z" glyph-name="Obreve" horiz-adv-x="790" unicode="&#334;" /><glyph d="M70 350Q70 198 163.5 93Q257 -12 394 -12Q533 -12 626.5 92.5Q720 197 720 350Q720 502 626.5 607Q533 712 394 712Q257 712 163.5 607Q70 502 70 350ZM704 350Q704 203 615.5 103Q527 3 394 3Q263 3 174.5 103.5Q86 204 86 350Q86 496 174.5 596.5Q263 697 394 697Q526 697 615 596.5Q704 496 704 350ZM396 700ZM308 787 383 921H398L473 787H455L390 902L325 787ZM391 700Z" glyph-name="Ocircumflex" horiz-adv-x="790" unicode="&#212;" /><glyph d="M70 350Q70 198 163.5 93Q257 -12 394 -12Q533 -12 626.5 92.5Q720 197 720 350Q720 502 626.5 607Q533 712 394 712Q257 712 163.5 607Q70 502 70 350ZM704 350Q704 203 615.5 103Q527 3 394 3Q263 3 174.5 103.5Q86 204 86 350Q86 496 174.5 596.5Q263 697 394 697Q526 697 615 596.5Q704 496 704 350ZM396 700ZM315 854Q315 845 321 839Q327 833 336 833Q345 833 351 839Q357 845 357 854Q357 863 351 869Q345 875 336 875Q327 875 321 869Q315 863 315 854ZM427 854Q427 845 433 839Q439 833 448 833Q457 833 463 839Q469 845 469 854Q469 863 463 869Q457 875 448 875Q439 875 433 869Q427 863 427 854ZM391 700Z" glyph-name="Odieresis" horiz-adv-x="790" unicode="&#214;" /><glyph d="M70 350Q70 198 163.5 93Q257 -12 394 -12Q533 -12 626.5 92.5Q720 197 720 350Q720 502 626.5 607Q533 712 394 712Q257 712 163.5 607Q70 502 70 350ZM704 350Q704 203 615.5 103Q527 3 394 3Q263 3 174.5 103.5Q86 204 86 350Q86 496 174.5 596.5Q263 697 394 697Q526 697 615 596.5Q704 496 704 350ZM396 700ZM400 787 314 921H295L382 787ZM391 700Z" glyph-name="Ograve" horiz-adv-x="790" unicode="&#210;" /><glyph d="M70 350Q70 198 163.5 93Q257 -12 394 -12Q533 -12 626.5 92.5Q720 197 720 350Q720 502 626.5 607Q533 712 394 712Q257 712 163.5 607Q70 502 70 350ZM704 350Q704 203 615.5 103Q527 3 394 3Q263 3 174.5 103.5Q86 204 86 350Q86 496 174.5 596.5Q263 697 394 697Q526 697 615 596.5Q704 496 704 350ZM396 700ZM454 921H435L339 787H357ZM532 921H513L417 787H435ZM391 700Z" glyph-name="Ohungarumlaut" horiz-adv-x="790" unicode="&#336;" /><glyph d="M70 350Q70 198 163.5 93Q257 -12 394 -12Q533 -12 626.5 92.5Q720 197 720 350Q720 502 626.5 607Q533 712 394 712Q257 712 163.5 607Q70 502 70 350ZM704 350Q704 203 615.5 103Q527 3 394 3Q263 3 174.5 103.5Q86 204 86 350Q86 496 174.5 596.5Q263 697 394 697Q526 697 615 596.5Q704 496 704 350ZM396 700ZM514 846H268V861H514ZM391 700Z" glyph-name="Omacron" horiz-adv-x="790" unicode="&#332;" /><glyph d="M77 0V15H273Q175 71 126 156.5Q77 242 77 356Q77 514 156 613Q235 712 367 712Q500 712 579 613Q658 514 658 356Q658 243 609.5 157.5Q561 72 464 15H661V0H433V14Q537 68 589.5 154Q642 240 642 356Q642 507 567 602Q492 697 367 697Q243 697 168 602Q93 507 93 356Q93 239 146 153Q199 67 304 14V0Z" glyph-name="Omega" horiz-adv-x="734" unicode="&#8486;" /><glyph d="M194 63 82 -92H65L184 72Q130 123 100 195.5Q70 268 70 350Q70 502 163.5 607Q257 712 394 712Q450 712 501 693.5Q552 675 594 639L698 782H715L604 629Q659 578 689.5 505Q720 432 720 350Q720 197 626.5 92.5Q533 -12 394 -12Q338 -12 287 7Q236 26 194 63ZM394 697Q263 697 174.5 596.5Q86 496 86 350Q86 272 114 202.5Q142 133 193 85L585 626Q546 661 497 679Q448 697 394 697ZM394 3Q527 3 615.5 103Q704 203 704 350Q704 428 676 498Q648 568 596 617L203 75Q243 40 292 21.5Q341 3 394 3Z" glyph-name="Oslash" horiz-adv-x="790" unicode="&#216;" /><glyph d="M70 350Q70 198 163.5 93Q257 -12 394 -12Q533 -12 626.5 92.5Q720 197 720 350Q720 502 626.5 607Q533 712 394 712Q257 712 163.5 607Q70 502 70 350ZM704 350Q704 203 615.5 103Q527 3 394 3Q263 3 174.5 103.5Q86 204 86 350Q86 496 174.5 596.5Q263 697 394 697Q526 697 615 596.5Q704 496 704 350ZM396 700ZM454 816Q484 816 499.5 834.5Q515 853 516 890H500Q499 861 487.5 846Q476 831 454 831Q443 831 431.5 836.5Q420 842 399 859Q374 880 359 886.5Q344 893 329 893Q299 893 283 873Q267 853 266 814H282Q282 845 294 861.5Q306 878 329 878Q343 878 356.5 872Q370 866 392 847Q414 828 427 822Q440 816 454 816ZM391 700Z" glyph-name="Otilde" horiz-adv-x="790" unicode="&#213;" /><glyph d="M125 0V700H358Q459 700 523.5 637.5Q588 575 588 477Q588 383 522.5 315Q457 247 362 247H141V0ZM572 477Q572 568 512 626.5Q452 685 358 685H141V262H362Q450 262 511 325.5Q572 389 572 477Z" glyph-name="P" horiz-adv-x="638" unicode="P" /><glyph d="M394 -12Q257 -12 163.5 93Q70 198 70 350Q70 502 163.5 607Q257 712 394 712Q533 712 626.5 607Q720 502 720 350Q720 264 687.5 188.5Q655 113 596 63L711 -70L699 -80L584 53Q542 21 494 4.5Q446 -12 394 -12ZM86 350Q86 204 174.5 103.5Q263 3 394 3Q443 3 488.5 18.5Q534 34 574 64L444 214L456 224L586 74Q642 123 673 195.5Q704 268 704 350Q704 496 615 596.5Q526 697 394 697Q263 697 174.5 596.5Q86 496 86 350Z" glyph-name="Q" horiz-adv-x="790" unicode="Q" /><glyph d="M125 0V700H371Q477 700 542.5 642.5Q608 585 608 497Q608 408 555 347.5Q502 287 411 275L607 0H588L394 273Q389 272 383.5 272Q378 272 367 272H141V0ZM592 497Q592 578 531 631.5Q470 685 371 685H141V287H367Q469 287 530.5 345.5Q592 404 592 497ZM343 700ZM364 0Z" glyph-name="R" horiz-adv-x="680" unicode="R" /><glyph d="M125 0V700H371Q477 700 542.5 642.5Q608 585 608 497Q608 408 555 347.5Q502 287 411 275L607 0H588L394 273Q389 272 383.5 272Q378 272 367 272H141V0ZM592 497Q592 578 531 631.5Q470 685 371 685H141V287H367Q469 287 530.5 345.5Q592 404 592 497ZM343 700ZM364 0ZM439 921H420L334 787H352ZM343 700Z" glyph-name="Racute" horiz-adv-x="680" unicode="&#340;" /><glyph d="M125 0V700H371Q477 700 542.5 642.5Q608 585 608 497Q608 408 555 347.5Q502 287 411 275L607 0H588L394 273Q389 272 383.5 272Q378 272 367 272H141V0ZM592 497Q592 578 531 631.5Q470 685 371 685H141V287H367Q469 287 530.5 345.5Q592 404 592 497ZM343 700ZM364 0ZM350 787H335L260 921H278L343 806L408 921H425ZM343 700Z" glyph-name="Rcaron" horiz-adv-x="680" unicode="&#344;" /><glyph d="M547 179Q547 97 488.5 42.5Q430 -12 327 -12Q244 -12 174.5 20Q105 52 54 113L66 123Q110 66 177.5 34.5Q245 3 327 3Q422 3 476.5 53.5Q531 104 531 179Q531 243 491.5 283Q452 323 362 346L255 373Q168 395 127 437.5Q86 480 86 546Q86 619 141.5 665.5Q197 712 293 712Q363 712 423 683Q483 654 528 598L516 587Q474 641 417 669Q360 697 293 697Q205 697 153.5 654.5Q102 612 102 546Q102 486 140 446.5Q178 407 258 388L365 362Q461 339 504 295Q547 251 547 179ZM303 700ZM327 10ZM327 0Z" glyph-name="S" horiz-adv-x="612" unicode="S" /><glyph d="M547 179Q547 97 488.5 42.5Q430 -12 327 -12Q244 -12 174.5 20Q105 52 54 113L66 123Q110 66 177.5 34.5Q245 3 327 3Q422 3 476.5 53.5Q531 104 531 179Q531 243 491.5 283Q452 323 362 346L255 373Q168 395 127 437.5Q86 480 86 546Q86 619 141.5 665.5Q197 712 293 712Q363 712 423 683Q483 654 528 598L516 587Q474 641 417 669Q360 697 293 697Q205 697 153.5 654.5Q102 612 102 546Q102 486 140 446.5Q178 407 258 388L365 362Q461 339 504 295Q547 251 547 179ZM303 700ZM327 10ZM327 0ZM399 921H380L294 787H312ZM303 700Z" glyph-name="Sacute" horiz-adv-x="612" unicode="&#346;" /><glyph d="M547 179Q547 97 488.5 42.5Q430 -12 327 -12Q244 -12 174.5 20Q105 52 54 113L66 123Q110 66 177.5 34.5Q245 3 327 3Q422 3 476.5 53.5Q531 104 531 179Q531 243 491.5 283Q452 323 362 346L255 373Q168 395 127 437.5Q86 480 86 546Q86 619 141.5 665.5Q197 712 293 712Q363 712 423 683Q483 654 528 598L516 587Q474 641 417 669Q360 697 293 697Q205 697 153.5 654.5Q102 612 102 546Q102 486 140 446.5Q178 407 258 388L365 362Q461 339 504 295Q547 251 547 179ZM303 700ZM327 10ZM327 0ZM310 787H295L220 921H238L303 806L368 921H385ZM303 700Z" glyph-name="Scaron" horiz-adv-x="612" unicode="&#352;" /><glyph d="M265 -101 253 -86 307 -12Q230 -8 165.5 24Q101 56 54 113L66 123Q110 66 177.5 34.5Q245 3 327 3Q422 3 476.5 53.5Q531 104 531 179Q531 243 491.5 283Q452 323 362 346L255 373Q168 395 127 437.5Q86 480 86 546Q86 619 141.5 665.5Q197 712 293 712Q363 712 423 683Q483 654 528 598L516 587Q474 641 417 669Q360 697 293 697Q205 697 153.5 654.5Q102 612 102 546Q102 486 140.5 446.5Q179 407 258 388L365 362Q461 339 504 295Q547 251 547 179Q547 97 488.5 42.5Q430 -12 327 -12H326L276 -80Q291 -72 306 -68.5Q321 -65 337 -65Q373 -65 393 -82.5Q413 -100 413 -133Q413 -169 386 -190.5Q359 -212 316 -212Q291 -212 272 -208.5Q253 -205 237 -198L244 -185Q258 -191 275 -194Q292 -197 317 -197Q353 -197 375 -179.5Q397 -162 397 -133Q397 -107 381.5 -93.5Q366 -80 337 -80Q318 -80 300.5 -85Q283 -90 265 -101Z" glyph-name="Scedilla" horiz-adv-x="612" unicode="&#350;" /><glyph d="M547 179Q547 97 488.5 42.5Q430 -12 327 -12Q244 -12 174.5 20Q105 52 54 113L66 123Q110 66 177.5 34.5Q245 3 327 3Q422 3 476.5 53.5Q531 104 531 179Q531 243 491.5 283Q452 323 362 346L255 373Q168 395 127 437.5Q86 480 86 546Q86 619 141.5 665.5Q197 712 293 712Q363 712 423 683Q483 654 528 598L516 587Q474 641 417 669Q360 697 293 697Q205 697 153.5 654.5Q102 612 102 546Q102 486 140 446.5Q178 407 258 388L365 362Q461 339 504 295Q547 251 547 179ZM303 700ZM327 10ZM327 0ZM220 787 295 921H310L385 787H367L302 902L237 787ZM303 700Z" glyph-name="Scircumflex" horiz-adv-x="612" unicode="&#348;" /><glyph d="M30 685V700H553V685H299V0H283V685ZM290 700ZM290 10ZM290 0Z" glyph-name="T" horiz-adv-x="583" unicode="T" /><glyph d="M90 363V378H310V685H57V700H580V685H326V378H566V363H326V0H310V363Z" glyph-name="Tbar" horiz-adv-x="646" unicode="&#358;" /><glyph d="M30 685V700H553V685H299V0H283V685ZM290 700ZM290 10ZM290 0ZM298 787H283L208 921H226L291 806L356 921H373ZM291 700Z" glyph-name="Tcaron" horiz-adv-x="583" unicode="&#356;" /><glyph d="M125 0V700H141V577H358Q459 577 523.5 514.5Q588 452 588 354Q588 260 522.5 192Q457 124 362 124H141V0ZM572 354Q572 445 512 503.5Q452 562 358 562H141V139H362Q450 139 511 202.5Q572 266 572 354Z" glyph-name="Thorn" horiz-adv-x="653" unicode="&#222;" /><glyph d="M615 700H631V267Q631 139 560 63.5Q489 -12 372 -12Q257 -12 185.5 63.5Q114 139 114 267V700H130V267Q130 147 197.5 75Q265 3 372 3Q480 3 547.5 74.5Q615 146 615 267ZM373 700ZM441 0Z" glyph-name="U" horiz-adv-x="745" unicode="U" /><glyph d="M615 700H631V267Q631 139 560 63.5Q489 -12 372 -12Q257 -12 185.5 63.5Q114 139 114 267V700H130V267Q130 147 197.5 75Q265 3 372 3Q480 3 547.5 74.5Q615 146 615 267ZM373 700ZM441 0ZM469 921H450L364 787H382ZM373 700Z" glyph-name="Uacute" horiz-adv-x="745" unicode="&#218;" /><glyph d="M615 700H631V267Q631 139 560 63.5Q489 -12 372 -12Q257 -12 185.5 63.5Q114 139 114 267V700H130V267Q130 147 197.5 75Q265 3 372 3Q480 3 547.5 74.5Q615 146 615 267ZM373 700ZM441 0ZM373 800Q421 800 447.5 833Q474 866 474 921H490Q489 859 458.5 822Q428 785 373 785Q318 785 287.5 822Q257 859 256 921H272Q272 867 298.5 833.5Q325 800 373 800ZM373 700Z" glyph-name="Ubreve" horiz-adv-x="745" unicode="&#364;" /><glyph d="M615 700H631V267Q631 139 560 63.5Q489 -12 372 -12Q257 -12 185.5 63.5Q114 139 114 267V700H130V267Q130 147 197.5 75Q265 3 372 3Q480 3 547.5 74.5Q615 146 615 267ZM373 700ZM441 0ZM290 787 365 921H380L455 787H437L372 902L307 787ZM373 700Z" glyph-name="Ucircumflex" horiz-adv-x="745" unicode="&#219;" /><glyph d="M615 700H631V267Q631 139 560 63.5Q489 -12 372 -12Q257 -12 185.5 63.5Q114 139 114 267V700H130V267Q130 147 197.5 75Q265 3 372 3Q480 3 547.5 74.5Q615 146 615 267ZM373 700ZM441 0ZM297 854Q297 845 303 839Q309 833 318 833Q327 833 333 839Q339 845 339 854Q339 863 333 869Q327 875 318 875Q309 875 303 869Q297 863 297 854ZM409 854Q409 845 415 839Q421 833 430 833Q439 833 445 839Q451 845 451 854Q451 863 445 869Q439 875 430 875Q421 875 415 869Q409 863 409 854ZM373 700Z" glyph-name="Udieresis" horiz-adv-x="745" unicode="&#220;" /><glyph d="M615 700H631V267Q631 139 560 63.5Q489 -12 372 -12Q257 -12 185.5 63.5Q114 139 114 267V700H130V267Q130 147 197.5 75Q265 3 372 3Q480 3 547.5 74.5Q615 146 615 267ZM373 700ZM441 0ZM382 787 296 921H277L364 787ZM373 700Z" glyph-name="Ugrave" horiz-adv-x="745" unicode="&#217;" /><glyph d="M615 700H631V267Q631 139 560 63.5Q489 -12 372 -12Q257 -12 185.5 63.5Q114 139 114 267V700H130V267Q130 147 197.5 75Q265 3 372 3Q480 3 547.5 74.5Q615 146 615 267ZM373 700ZM441 0ZM436 921H417L321 787H339ZM514 921H495L399 787H417ZM373 700Z" glyph-name="Uhungarumlaut" horiz-adv-x="745" unicode="&#368;" /><glyph d="M615 700H631V267Q631 139 560 63.5Q489 -12 372 -12Q257 -12 185.5 63.5Q114 139 114 267V700H130V267Q130 147 197.5 75Q265 3 372 3Q480 3 547.5 74.5Q615 146 615 267ZM373 700ZM441 0ZM496 846H250V861H496ZM373 700Z" glyph-name="Umacron" horiz-adv-x="745" unicode="&#362;" /><glyph d="M615 700H631V267Q631 191 608.5 136.5Q586 82 533 39Q521 29 490.5 7Q460 -15 446 -29Q423 -51 412.5 -74Q402 -97 402 -126Q402 -160 423.5 -179Q445 -198 480 -198Q495 -198 508.5 -195Q522 -192 532 -187V-203Q522 -208 510 -210.5Q498 -213 481 -213Q437 -213 411.5 -189Q386 -165 386 -128Q386 -86 405.5 -54Q425 -22 465 3Q445 -5 424 -8.5Q403 -12 372 -12Q257 -12 185.5 63.5Q114 139 114 267V700H130V267Q130 147 197.5 75Q265 3 372 3Q480 3 547.5 74.5Q615 146 615 267Z" glyph-name="Uogonek" horiz-adv-x="745" unicode="&#370;" /><glyph d="M615 700H631V267Q631 139 560 63.5Q489 -12 372 -12Q257 -12 185.5 63.5Q114 139 114 267V700H130V267Q130 147 197.5 75Q265 3 372 3Q480 3 547.5 74.5Q615 146 615 267ZM373 700ZM441 0ZM471 854Q471 894 442.5 923Q414 952 373 952Q331 952 303 923.5Q275 895 275 854Q275 813 303 785Q331 757 373 757Q414 757 442.5 785.5Q471 814 471 854ZM291 854Q291 889 315 913Q339 937 373 937Q407 937 431 912.5Q455 888 455 854Q455 820 431 796Q407 772 373 772Q338 772 314.5 796Q291 820 291 854ZM373 700Z" glyph-name="Uring" horiz-adv-x="745" unicode="&#366;" /><glyph d="M615 700H631V267Q631 139 560 63.5Q489 -12 372 -12Q257 -12 185.5 63.5Q114 139 114 267V700H130V267Q130 147 197.5 75Q265 3 372 3Q480 3 547.5 74.5Q615 146 615 267ZM373 700ZM441 0ZM436 816Q466 816 481.5 834.5Q497 853 498 890H482Q481 861 469.5 846Q458 831 436 831Q425 831 413.5 836.5Q402 842 381 859Q356 880 341 886.5Q326 893 311 893Q281 893 265 873Q249 853 248 814H264Q264 845 276 861.5Q288 878 311 878Q325 878 338.5 872Q352 866 374 847Q396 828 409 822Q422 816 436 816ZM373 700Z" glyph-name="Utilde" horiz-adv-x="745" unicode="&#360;" /><glyph d="M319 0 45 700H62L327 24L596 700H612L333 0Z" glyph-name="V" horiz-adv-x="654" unicode="V" /><glyph d="M251 0 51 700H68L259 33L452 700H469L661 33L852 700H868L668 0H654L460 672L265 0ZM460 700Z" glyph-name="W" horiz-adv-x="919" unicode="W" /><glyph d="M251 0 51 700H68L259 33L452 700H469L661 33L852 700H868L668 0H654L460 672L265 0ZM460 700ZM556 921H537L451 787H469ZM460 700Z" glyph-name="Wacute" horiz-adv-x="919" unicode="&#7810;" /><glyph d="M251 0 51 700H68L259 33L452 700H469L661 33L852 700H868L668 0H654L460 672L265 0ZM460 700ZM378 787 453 921H468L543 787H525L460 902L395 787ZM461 700Z" glyph-name="Wcircumflex" horiz-adv-x="919" unicode="&#372;" /><glyph d="M251 0 51 700H68L259 33L452 700H469L661 33L852 700H868L668 0H654L460 672L265 0ZM460 700ZM383 854Q383 845 389 839Q395 833 404 833Q413 833 419 839Q425 845 425 854Q425 863 419 869Q413 875 404 875Q395 875 389 869Q383 863 383 854ZM495 854Q495 845 501 839Q507 833 516 833Q525 833 531 839Q537 845 537 854Q537 863 531 869Q525 875 516 875Q507 875 501 869Q495 863 495 854ZM459 700Z" glyph-name="Wdieresis" horiz-adv-x="919" unicode="&#7812;" /><glyph d="M251 0 51 700H68L259 33L452 700H469L661 33L852 700H868L668 0H654L460 672L265 0ZM460 700ZM469 787 383 921H364L451 787ZM460 700Z" glyph-name="Wgrave" horiz-adv-x="919" unicode="&#7808;" /><glyph d="M282 349 38 700H57L292 363L522 700H540L301 351L545 0H526L291 336L61 0H43Z" glyph-name="X" horiz-adv-x="583" unicode="X" /><glyph d="M307 304 53 700H72L315 319L557 700H575L323 305V0H307ZM316 700Z" glyph-name="Y" horiz-adv-x="630" unicode="Y" /><glyph d="M307 304 53 700H72L315 319L557 700H575L323 305V0H307ZM316 700ZM412 921H393L307 787H325ZM316 700Z" glyph-name="Yacute" horiz-adv-x="630" unicode="&#221;" /><glyph d="M307 304 53 700H72L315 319L557 700H575L323 305V0H307ZM316 700ZM233 787 308 921H323L398 787H380L315 902L250 787ZM316 700Z" glyph-name="Ycircumflex" horiz-adv-x="630" unicode="&#374;" /><glyph d="M307 304 53 700H72L315 319L557 700H575L323 305V0H307ZM316 700ZM240 854Q240 845 246 839Q252 833 261 833Q270 833 276 839Q282 845 282 854Q282 863 276 869Q270 875 261 875Q252 875 246 869Q240 863 240 854ZM352 854Q352 845 358 839Q364 833 373 833Q382 833 388 839Q394 845 394 854Q394 863 388 869Q382 875 373 875Q364 875 358 869Q352 863 352 854ZM316 700Z" glyph-name="Ydieresis" horiz-adv-x="630" unicode="&#376;" /><glyph d="M307 304 53 700H72L315 319L557 700H575L323 305V0H307ZM316 700ZM325 787 239 921H220L307 787ZM316 700Z" glyph-name="Ygrave" horiz-adv-x="630" unicode="&#7922;" /><glyph d="M58 15H561V0H39V15L526 685H49V700H545V685ZM297 700Z" glyph-name="Z" horiz-adv-x="597" unicode="Z" /><glyph d="M58 15H561V0H39V15L526 685H49V700H545V685ZM297 700ZM393 921H374L288 787H306ZM297 700Z" glyph-name="Zacute" horiz-adv-x="597" unicode="&#377;" /><glyph d="M58 15H561V0H39V15L526 685H49V700H545V685ZM297 700ZM304 787H289L214 921H232L297 806L362 921H379ZM297 700Z" glyph-name="Zcaron" horiz-adv-x="597" unicode="&#381;" /><glyph d="M58 15H561V0H39V15L526 685H49V700H545V685ZM297 700ZM274 854Q274 843 282 835Q290 827 301 827Q312 827 320 835Q328 843 328 854Q328 865 320 873.5Q312 882 301 882Q290 882 282 873.5Q274 865 274 854ZM297 700Z" glyph-name="Zdotaccent" horiz-adv-x="597" unicode="&#379;" /><glyph d="M435 0V151Q412 73 357 30.5Q302 -12 224 -12Q154 -12 113 23Q72 58 72 117Q72 171 109.5 207.5Q147 244 221 264L434 321V340Q434 408 395 447Q356 486 286 486Q226 486 178.5 459Q131 432 85 370L72 378Q116 440 169 470.5Q222 501 286 501Q364 501 407 458Q450 415 450 340V0ZM88 117Q88 65 125 34Q162 3 224 3Q321 3 377.5 71.5Q434 140 434 258V306L225 250Q155 231 121.5 198.5Q88 166 88 117ZM274 489ZM439 0Z" glyph-name="a" horiz-adv-x="553" unicode="a" /><glyph d="M282 -12Q184 -12 125 58.5Q66 129 66 243Q66 360 125.5 430.5Q185 501 285 501Q357 501 410 459Q463 417 486 343V489H502V0H487V150Q464 75 410 31.5Q356 -12 282 -12ZM82 243Q82 136 136.5 69.5Q191 3 282 3Q374 3 430.5 72Q487 141 487 246Q487 347 431 416.5Q375 486 285 486Q192 486 137 419.5Q82 353 82 243ZM570 700Z" glyph-name="a.alt" horiz-adv-x="614" /><glyph d="M435 0V151Q412 73 357 30.5Q302 -12 224 -12Q154 -12 113 23Q72 58 72 117Q72 171 109.5 207.5Q147 244 221 264L434 321V340Q434 408 395 447Q356 486 286 486Q226 486 178.5 459Q131 432 85 370L72 378Q116 440 169 470.5Q222 501 286 501Q364 501 407 458Q450 415 450 340V0ZM88 117Q88 65 125 34Q162 3 224 3Q321 3 377.5 71.5Q434 140 434 258V306L225 250Q155 231 121.5 198.5Q88 166 88 117ZM274 489ZM439 0ZM370 721H351L265 587H283ZM274 489Z" glyph-name="aacute" horiz-adv-x="553" unicode="&#225;" /><glyph d="M282 -12Q184 -12 125 58.5Q66 129 66 243Q66 360 125.5 430.5Q185 501 285 501Q357 501 410 459Q463 417 486 343V489H502V0H487V150Q464 75 410 31.5Q356 -12 282 -12ZM82 243Q82 136 136.5 69.5Q191 3 282 3Q374 3 430.5 72Q487 141 487 246Q487 347 431 416.5Q375 486 285 486Q192 486 137 419.5Q82 353 82 243ZM570 700ZM391 721H372L286 587H304ZM295 489Z" glyph-name="aacute.alt" horiz-adv-x="614" /><glyph d="M435 0V151Q412 73 357 30.5Q302 -12 224 -12Q154 -12 113 23Q72 58 72 117Q72 171 109.5 207.5Q147 244 221 264L434 321V340Q434 408 395 447Q356 486 286 486Q226 486 178.5 459Q131 432 85 370L72 378Q116 440 169 470.5Q222 501 286 501Q364 501 407 458Q450 415 450 340V0ZM88 117Q88 65 125 34Q162 3 224 3Q321 3 377.5 71.5Q434 140 434 258V306L225 250Q155 231 121.5 198.5Q88 166 88 117ZM274 489ZM439 0ZM274 600Q322 600 348.5 633Q375 666 375 721H391Q390 659 359.5 622Q329 585 274 585Q219 585 188.5 622Q158 659 157 721H173Q173 667 199.5 633.5Q226 600 274 600ZM274 489Z" glyph-name="abreve" horiz-adv-x="553" unicode="&#259;" /><glyph d="M282 -12Q184 -12 125 58.5Q66 129 66 243Q66 360 125.5 430.5Q185 501 285 501Q357 501 410 459Q463 417 486 343V489H502V0H487V150Q464 75 410 31.5Q356 -12 282 -12ZM82 243Q82 136 136.5 69.5Q191 3 282 3Q374 3 430.5 72Q487 141 487 246Q487 347 431 416.5Q375 486 285 486Q192 486 137 419.5Q82 353 82 243ZM570 700ZM288 600Q336 600 362.5 633Q389 666 389 721H405Q404 659 373.5 622Q343 585 288 585Q233 585 202.5 622Q172 659 171 721H187Q187 667 213.5 633.5Q240 600 288 600ZM288 489Z" glyph-name="abreve.alt" horiz-adv-x="614" /><glyph d="M435 0V151Q412 73 357 30.5Q302 -12 224 -12Q154 -12 113 23Q72 58 72 117Q72 171 109.5 207.5Q147 244 221 264L434 321V340Q434 408 395 447Q356 486 286 486Q226 486 178.5 459Q131 432 85 370L72 378Q116 440 169 470.5Q222 501 286 501Q364 501 407 458Q450 415 450 340V0ZM88 117Q88 65 125 34Q162 3 224 3Q321 3 377.5 71.5Q434 140 434 258V306L225 250Q155 231 121.5 198.5Q88 166 88 117ZM274 489ZM439 0ZM193 587 268 721H283L358 587H340L275 702L210 587ZM274 489Z" glyph-name="acircumflex" horiz-adv-x="553" unicode="&#226;" /><glyph d="M282 -12Q184 -12 125 58.5Q66 129 66 243Q66 360 125.5 430.5Q185 501 285 501Q357 501 410 459Q463 417 486 343V489H502V0H487V150Q464 75 410 31.5Q356 -12 282 -12ZM82 243Q82 136 136.5 69.5Q191 3 282 3Q374 3 430.5 72Q487 141 487 246Q487 347 431 416.5Q375 486 285 486Q192 486 137 419.5Q82 353 82 243ZM570 700ZM202 587 277 721H292L367 587H349L284 702L219 587ZM283 489Z" glyph-name="acircumflex.alt" horiz-adv-x="614" /><glyph d="M232 721H213L127 587H145ZM136 489Z" glyph-name="acute" horiz-adv-x="380" unicode="&#180;" /><glyph d="M232 921H213L127 787H145ZM136 700Z" glyph-name="acute.case" horiz-adv-x="380" /><glyph d="M435 0V151Q412 73 357 30.5Q302 -12 224 -12Q154 -12 113 23Q72 58 72 117Q72 171 109.5 207.5Q147 244 221 264L434 321V340Q434 408 395 447Q356 486 286 486Q226 486 178.5 459Q131 432 85 370L72 378Q116 440 169 470.5Q222 501 286 501Q364 501 407 458Q450 415 450 340V0ZM88 117Q88 65 125 34Q162 3 224 3Q321 3 377.5 71.5Q434 140 434 258V306L225 250Q155 231 121.5 198.5Q88 166 88 117ZM274 489ZM439 0ZM197 654Q197 645 203 639Q209 633 218 633Q227 633 233 639Q239 645 239 654Q239 663 233 669Q227 675 218 675Q209 675 203 669Q197 663 197 654ZM309 654Q309 645 315 639Q321 633 330 633Q339 633 345 639Q351 645 351 654Q351 663 345 669Q339 675 330 675Q321 675 315 669Q309 663 309 654ZM274 489Z" glyph-name="adieresis" horiz-adv-x="553" unicode="&#228;" /><glyph d="M282 -12Q184 -12 125 58.5Q66 129 66 243Q66 360 125.5 430.5Q185 501 285 501Q357 501 410 459Q463 417 486 343V489H502V0H487V150Q464 75 410 31.5Q356 -12 282 -12ZM82 243Q82 136 136.5 69.5Q191 3 282 3Q374 3 430.5 72Q487 141 487 246Q487 347 431 416.5Q375 486 285 486Q192 486 137 419.5Q82 353 82 243ZM570 700ZM207 654Q207 645 213 639Q219 633 228 633Q237 633 243 639Q249 645 249 654Q249 663 243 669Q237 675 228 675Q219 675 213 669Q207 663 207 654ZM319 654Q319 645 325 639Q331 633 340 633Q349 633 355 639Q361 645 361 654Q361 663 355 669Q349 675 340 675Q331 675 325 669Q319 663 319 654ZM284 489Z" glyph-name="adieresis.alt" horiz-adv-x="614" /><glyph d="M848 124 862 117Q833 57 781.5 22.5Q730 -12 669 -12Q580 -12 519 37Q458 86 441 172Q422 86 366 37Q310 -12 230 -12Q156 -12 114 21.5Q72 55 72 114Q72 168 108.5 205.5Q145 243 218 263L434 321V340Q434 408 395 447Q356 486 286 486Q227 486 179 458.5Q131 431 85 370L72 378Q116 439 169.5 470Q223 501 286 501Q364 501 407 458Q450 415 450 340Q473 414 529 457.5Q585 501 658 501Q747 501 804.5 438Q862 375 862 275Q862 269 861 258Q860 247 859 245H450Q450 133 509 68Q568 3 669 3Q726 3 773.5 35Q821 67 848 124ZM658 486Q572 486 513.5 423Q455 360 450 260H845Q851 358 797.5 422Q744 486 658 486ZM88 114Q88 62 126 32.5Q164 3 230 3Q323 3 378.5 71Q434 139 434 254V306L222 249Q155 231 121.5 197.5Q88 164 88 114Z" glyph-name="ae" horiz-adv-x="927" unicode="&#230;" /><glyph d="M435 0V151Q412 73 357 30.5Q302 -12 224 -12Q154 -12 113 23Q72 58 72 117Q72 171 109.5 207.5Q147 244 221 264L434 321V340Q434 408 395 447Q356 486 286 486Q226 486 178.5 459Q131 432 85 370L72 378Q116 440 169 470.5Q222 501 286 501Q364 501 407 458Q450 415 450 340V0ZM88 117Q88 65 125 34Q162 3 224 3Q321 3 377.5 71.5Q434 140 434 258V306L225 250Q155 231 121.5 198.5Q88 166 88 117ZM274 489ZM439 0ZM283 587 197 721H178L265 587ZM274 489Z" glyph-name="agrave" horiz-adv-x="553" unicode="&#224;" /><glyph d="M282 -12Q184 -12 125 58.5Q66 129 66 243Q66 360 125.5 430.5Q185 501 285 501Q357 501 410 459Q463 417 486 343V489H502V0H487V150Q464 75 410 31.5Q356 -12 282 -12ZM82 243Q82 136 136.5 69.5Q191 3 282 3Q374 3 430.5 72Q487 141 487 246Q487 347 431 416.5Q375 486 285 486Q192 486 137 419.5Q82 353 82 243ZM570 700ZM295 587 209 721H190L277 587ZM286 489Z" glyph-name="agrave.alt" horiz-adv-x="614" /><glyph d="M435 0V151Q412 73 357 30.5Q302 -12 224 -12Q154 -12 113 23Q72 58 72 117Q72 171 109.5 207.5Q147 244 221 264L434 321V340Q434 408 395 447Q356 486 286 486Q226 486 178.5 459Q131 432 85 370L72 378Q116 440 169 470.5Q222 501 286 501Q364 501 407 458Q450 415 450 340V0ZM88 117Q88 65 125 34Q162 3 224 3Q321 3 377.5 71.5Q434 140 434 258V306L225 250Q155 231 121.5 198.5Q88 166 88 117ZM274 489ZM439 0ZM397 646H151V661H397ZM274 489Z" glyph-name="amacron" horiz-adv-x="553" unicode="&#257;" /><glyph d="M282 -12Q184 -12 125 58.5Q66 129 66 243Q66 360 125.5 430.5Q185 501 285 501Q357 501 410 459Q463 417 486 343V489H502V0H487V150Q464 75 410 31.5Q356 -12 282 -12ZM82 243Q82 136 136.5 69.5Q191 3 282 3Q374 3 430.5 72Q487 141 487 246Q487 347 431 416.5Q375 486 285 486Q192 486 137 419.5Q82 353 82 243ZM570 700ZM421 646H175V661H421ZM298 489Z" glyph-name="amacron.alt" horiz-adv-x="614" /><glyph d="M276 -12Q182 -12 125 34Q68 80 68 160Q68 223 106 273Q144 323 229 365Q187 411 166.5 454Q146 497 146 539Q146 614 191.5 663Q237 712 299 712Q358 712 398 672Q438 632 438 567Q438 506 393.5 455Q349 404 256 360Q259 357 262.5 353.5Q266 350 269 347L497 120Q522 152 544.5 191.5Q567 231 588 278L610 327H626V325L602 272Q579 222 555.5 181Q532 140 508 109L615 2V0H595L498 97Q451 42 396 15Q341 -12 276 -12ZM299 697Q244 697 203 652Q162 607 162 539Q162 498 182 457Q202 416 245 372Q333 410 377.5 459Q422 508 422 567Q422 625 386.5 661Q351 697 299 697ZM241 353Q157 314 120.5 267Q84 220 84 160Q84 87 137 45Q190 3 276 3Q338 3 390 29Q442 55 487 108L262 332Q257 337 251.5 342.5Q246 348 241 353Z" glyph-name="ampersand" horiz-adv-x="665" unicode="&amp;" /><glyph d="M446 -187V-203Q436 -208 424 -210.5Q412 -213 395 -213Q356 -213 333 -190.5Q310 -168 310 -134Q310 -95 342.5 -58.5Q375 -22 435 7V151Q412 73 357 30.5Q302 -12 224 -12Q154 -12 113 23Q72 58 72 117Q72 171 109.5 207.5Q147 244 221 264L434 321V340Q434 408 395 447Q356 486 286 486Q226 486 178.5 459Q131 432 85 370L72 378Q116 440 169 470.5Q222 501 286 501Q364 501 407 458Q450 415 450 340V0Q390 -30 358 -64Q326 -98 326 -132Q326 -163 345.5 -180.5Q365 -198 398 -198Q411 -198 423 -195Q435 -192 446 -187ZM88 117Q88 65 125 34Q162 3 224 3Q321 3 377.5 71.5Q434 140 434 258V306L225 250Q155 231 121.5 198.5Q88 166 88 117Z" glyph-name="aogonek" horiz-adv-x="553" unicode="&#261;" /><glyph d="M282 -12Q184 -12 125 58.5Q66 129 66 243Q66 360 125.5 430.5Q185 501 285 501Q357 501 410 459Q463 417 486 343V489H502V0Q442 -30 410 -64Q378 -98 378 -132Q378 -163 397.5 -180.5Q417 -198 450 -198Q463 -198 475 -195Q487 -192 498 -187V-203Q488 -208 476 -210.5Q464 -213 447 -213Q408 -213 385 -190.5Q362 -168 362 -134Q362 -95 394.5 -58.5Q427 -22 487 7V150Q464 75 410 31.5Q356 -12 282 -12ZM82 243Q82 136 136.5 69.5Q191 3 282 3Q374 3 430.5 72Q487 141 487 246Q487 347 431 416.5Q375 486 285 486Q192 486 137 419.5Q82 353 82 243Z" glyph-name="aogonek.alt" horiz-adv-x="614" /><glyph d="M289.1 306.6Q316.1 288.6 331.4 283.2Q346.7 277.8 362 277.8Q396.2 277.8 413.75 297.6Q431.3 317.4 431.3 357H416.9Q416.9 324.6 402.95 307.95Q389 291.3 362 291.3Q349.4 291.3 336.35 296.25Q323.3 301.2 298.1 317.4Q270.2 335.4 254 341.25Q237.8 347.1 222.5 347.1Q188.3 347.1 170.75 326.4Q153.2 305.7 153.2 265.2H167.6Q167.6 298.5 181.55 316.05Q195.5 333.6 222.5 333.6Q236.9 333.6 250.4 328.65Q263.9 323.7 289.1 306.6ZM289.1 438.6Q316.1 420.6 331.4 415.2Q346.7 409.8 362 409.8Q396.2 409.8 413.75 429.6Q431.3 449.4 431.3 489H416.9Q416.9 456.6 402.95 439.95Q389 423.3 362 423.3Q349.4 423.3 336.35 428.25Q323.3 433.2 298.1 449.4Q270.2 467.4 254 473.25Q237.8 479.1 222.5 479.1Q188.3 479.1 170.75 458.4Q153.2 437.7 153.2 397.2H167.6Q167.6 430.5 181.55 448.05Q195.5 465.6 222.5 465.6Q236.9 465.6 250.4 460.65Q263.9 455.7 289.1 438.6Z" glyph-name="approxequal" horiz-adv-x="580" unicode="&#8776;" /><glyph d="M435 0V151Q412 73 357 30.5Q302 -12 224 -12Q154 -12 113 23Q72 58 72 117Q72 171 109.5 207.5Q147 244 221 264L434 321V340Q434 408 395 447Q356 486 286 486Q226 486 178.5 459Q131 432 85 370L72 378Q116 440 169 470.5Q222 501 286 501Q364 501 407 458Q450 415 450 340V0ZM88 117Q88 65 125 34Q162 3 224 3Q321 3 377.5 71.5Q434 140 434 258V306L225 250Q155 231 121.5 198.5Q88 166 88 117ZM274 489ZM439 0ZM373 654Q373 694 344.5 723Q316 752 275 752Q233 752 205 723.5Q177 695 177 654Q177 613 205 585Q233 557 275 557Q316 557 344.5 585.5Q373 614 373 654ZM193 654Q193 689 217 713Q241 737 275 737Q309 737 333 712.5Q357 688 357 654Q357 620 333 596Q309 572 275 572Q240 572 216.5 596Q193 620 193 654ZM274 489Z" glyph-name="aring" horiz-adv-x="553" unicode="&#229;" /><glyph d="M282 -12Q184 -12 125 58.5Q66 129 66 243Q66 360 125.5 430.5Q185 501 285 501Q357 501 410 459Q463 417 486 343V489H502V0H487V150Q464 75 410 31.5Q356 -12 282 -12ZM82 243Q82 136 136.5 69.5Q191 3 282 3Q374 3 430.5 72Q487 141 487 246Q487 347 431 416.5Q375 486 285 486Q192 486 137 419.5Q82 353 82 243ZM570 700ZM393 654Q393 694 364.5 723Q336 752 295 752Q253 752 225 723.5Q197 695 197 654Q197 613 225 585Q253 557 295 557Q336 557 364.5 585.5Q393 614 393 654ZM213 654Q213 689 237 713Q261 737 295 737Q329 737 353 712.5Q377 688 377 654Q377 620 353 596Q329 572 295 572Q260 572 236.5 596Q213 620 213 654ZM294 489Z" glyph-name="aring.alt" horiz-adv-x="614" /><glyph d="M282 700H297L470 281H453L289 679L126 281H110Z" glyph-name="asciicircum" horiz-adv-x="580" unicode="^" /><glyph d="M289 374Q319 354 336 348Q353 342 370 342Q408 342 427.5 364Q447 386 447 430H431Q431 394 415.5 375.5Q400 357 370 357Q356 357 341.5 362.5Q327 368 299 386Q268 406 250 412.5Q232 419 215 419Q177 419 157.5 396Q138 373 138 328H154Q154 365 169.5 384.5Q185 404 215 404Q231 404 246 398.5Q261 393 289 374Z" glyph-name="asciitilde" horiz-adv-x="580" unicode="~" /><glyph d="M236 519V366H220V519L87 442L80 456L213 533L80 610L87 624L220 547V700H236V546L369 624L376 610L244 533L376 456L369 442Z" glyph-name="asterisk" horiz-adv-x="456" unicode="*" /><glyph d="M607 183Q580 133 539 106.5Q498 80 449 80Q376 80 332 125.5Q288 171 288 248Q288 344 343 417Q398 490 484 490Q545 490 586 455Q627 420 638 359L661 480H676L625 195Q617 151 639.5 127Q662 103 709 103Q788 103 841.5 169.5Q895 236 895 345Q895 500 788 598Q681 696 511 696Q416 696 338 665.5Q260 635 203 576Q145 517 113 436Q81 355 81 269Q81 87 189 -26Q297 -139 484 -139Q550 -139 609.5 -123Q669 -107 741 -67L749 -80Q676 -122 614.5 -138.5Q553 -155 484 -155Q289 -155 177 -38Q65 79 65 269Q65 358 98 442.5Q131 527 191 588Q251 649 332 680.5Q413 712 511 712Q688 712 799.5 609Q911 506 911 345Q911 229 853 158.5Q795 88 709 88Q662 88 631.5 114Q601 140 607 183ZM304 249Q304 176 342 135.5Q380 95 448 95Q525 95 576.5 162Q628 229 628 314Q628 388 589 431.5Q550 475 484 475Q404 475 354 407.5Q304 340 304 249Z" glyph-name="at" horiz-adv-x="981" unicode="@" /><glyph d="M435 0V151Q412 73 357 30.5Q302 -12 224 -12Q154 -12 113 23Q72 58 72 117Q72 171 109.5 207.5Q147 244 221 264L434 321V340Q434 408 395 447Q356 486 286 486Q226 486 178.5 459Q131 432 85 370L72 378Q116 440 169 470.5Q222 501 286 501Q364 501 407 458Q450 415 450 340V0ZM88 117Q88 65 125 34Q162 3 224 3Q321 3 377.5 71.5Q434 140 434 258V306L225 250Q155 231 121.5 198.5Q88 166 88 117ZM274 489ZM439 0ZM326 616Q356 616 371.5 634.5Q387 653 388 690H372Q371 661 359.5 646Q348 631 326 631Q315 631 303.5 636.5Q292 642 271 659Q246 680 231 686.5Q216 693 201 693Q171 693 155 673Q139 653 138 614H154Q154 645 166 661.5Q178 678 201 678Q215 678 228.5 672Q242 666 264 647Q286 628 299 622Q312 616 326 616ZM274 489Z" glyph-name="atilde" horiz-adv-x="553" unicode="&#227;" /><glyph d="M282 -12Q184 -12 125 58.5Q66 129 66 243Q66 360 125.5 430.5Q185 501 285 501Q357 501 410 459Q463 417 486 343V489H502V0H487V150Q464 75 410 31.5Q356 -12 282 -12ZM82 243Q82 136 136.5 69.5Q191 3 282 3Q374 3 430.5 72Q487 141 487 246Q487 347 431 416.5Q375 486 285 486Q192 486 137 419.5Q82 353 82 243ZM570 700ZM359 616Q389 616 404.5 634.5Q420 653 421 690H405Q404 661 392.5 646Q381 631 359 631Q348 631 336.5 636.5Q325 642 304 659Q279 680 264 686.5Q249 693 234 693Q204 693 188 673Q172 653 171 614H187Q187 645 199 661.5Q211 678 234 678Q248 678 261.5 672Q275 666 297 647Q319 628 332 622Q345 616 359 616ZM307 489Z" glyph-name="atilde.alt" horiz-adv-x="614" /><glyph d="M333 501Q431 501 490.5 430.5Q550 360 550 246Q550 130 490 59Q430 -12 330 -12Q257 -12 204 31Q151 74 127 149V0H112V730H128V342Q152 416 206 458.5Q260 501 333 501ZM534 246Q534 353 479 419.5Q424 486 333 486Q241 486 184 417Q127 348 127 243Q127 141 183.5 72Q240 3 330 3Q423 3 478.5 69.5Q534 136 534 246Z" glyph-name="b" horiz-adv-x="616" unicode="b" /><glyph d="M54 742 405 -132H388L37 742Z" glyph-name="backslash" horiz-adv-x="443" unicode="\" /><glyph d="M139 742V-114H123V742Z" glyph-name="bar" horiz-adv-x="262" unicode="|" /><glyph d="M43 305V320H69Q102 320 118.5 339Q135 358 135 395Q135 408 133.5 424Q132 440 126 476Q119 521 117 545.5Q115 570 115 592Q115 661 155.5 701.5Q196 742 264 742H285V726H264Q203 726 167 689.5Q131 653 131 592Q131 570 133 545.5Q135 521 142 476Q147 440 148.5 424Q150 408 150 395Q150 363 138 342.5Q126 322 102 313Q126 304 138 284Q150 264 150 233Q150 220 148.5 204Q147 188 142 152Q135 107 133 82.5Q131 58 131 36Q131 -25 167 -61.5Q203 -98 264 -98H285V-114H264Q196 -114 155.5 -73.5Q115 -33 115 36Q115 58 117 82.5Q119 107 126 152Q132 188 133.5 204Q135 220 135 233Q135 268 118 286.5Q101 305 69 305Z" glyph-name="braceleft" horiz-adv-x="318" unicode="{" /><glyph d="M275 323V308H249Q216 308 199.5 289Q183 270 183 233Q183 220 184.5 204Q186 188 192 152Q199 107 201 82.5Q203 58 203 36Q203 -33 162.5 -73.5Q122 -114 54 -114H33V-98H54Q115 -98 151 -61.5Q187 -25 187 36Q187 58 185 82.5Q183 107 176 152Q171 188 169.5 204Q168 220 168 233Q168 265 180 285.5Q192 306 216 315Q192 324 180 344Q168 364 168 395Q168 408 169.5 424Q171 440 176 476Q183 521 185 545.5Q187 570 187 592Q187 653 151 689.5Q115 726 54 726H33V742H54Q122 742 162.5 701.5Q203 661 203 592Q203 570 201 545.5Q199 521 192 476Q186 440 184.5 424Q183 408 183 395Q183 360 200 341.5Q217 323 249 323Z" glyph-name="braceright" horiz-adv-x="318" unicode="}" /><glyph d="M340 -114H123V742H340V727H139V-99H340Z" glyph-name="bracketleft" horiz-adv-x="371" unicode="[" /><glyph d="M31 -114H248V742H31V727H232V-99H31Z" glyph-name="bracketright" horiz-adv-x="371" unicode="]" /><glyph d="M192 600Q240 600 266.5 633Q293 666 293 721H309Q308 659 277.5 622Q247 585 192 585Q137 585 106.5 622Q76 659 75 721H91Q91 667 117.5 633.5Q144 600 192 600ZM192 489Z" glyph-name="breve" horiz-adv-x="389" unicode="&#728;" /><glyph d="M192 800Q240 800 266.5 833Q293 866 293 921H309Q308 859 277.5 822Q247 785 192 785Q137 785 106.5 822Q76 859 75 921H91Q91 867 117.5 833.5Q144 800 192 800ZM192 700Z" glyph-name="breve.case" horiz-adv-x="389" /><glyph d="M139 742V405H123V742ZM139 205V-132H123V205Z" glyph-name="brokenbar" horiz-adv-x="262" unicode="&#166;" /><glyph d="M110 286Q110 272.5 119.75 262.75Q129.5 253 143 253Q156.5 253 166.25 262.75Q176 272.5 176 286Q176 299.5 166.25 309.25Q156.5 319 143 319Q129.5 319 119.75 309.25Q110 299.5 110 286ZM110 289Z" glyph-name="bullet" horiz-adv-x="288" unicode="&#8226;" /><glyph d="M287 -12Q191 -12 128 59Q65 130 65 243Q65 356 128.5 428.5Q192 501 289 501Q359 501 407.5 468.5Q456 436 486 368L472 361Q443 425 398.5 455.5Q354 486 289 486Q199 486 140 418Q81 350 81 243Q81 137 139 70Q197 3 287 3Q354 3 402.5 39Q451 75 475 143L491 137Q465 65 411.5 26.5Q358 -12 287 -12ZM286 489ZM287 10Z" glyph-name="c" horiz-adv-x="543" unicode="c" /><glyph d="M287 -12Q191 -12 128 59Q65 130 65 243Q65 356 128.5 428.5Q192 501 289 501Q359 501 407.5 468.5Q456 436 486 368L472 361Q443 425 398.5 455.5Q354 486 289 486Q199 486 140 418Q81 350 81 243Q81 137 139 70Q197 3 287 3Q354 3 402.5 39Q451 75 475 143L491 137Q465 65 411.5 26.5Q358 -12 287 -12ZM286 489ZM287 10ZM382 721H363L277 587H295ZM286 489Z" glyph-name="cacute" horiz-adv-x="543" unicode="&#263;" /><glyph d="M202 587H187L112 721H130L195 606L260 721H277ZM193 489Z" glyph-name="caron" horiz-adv-x="388" unicode="&#711;" /><glyph d="M202 787H187L112 921H130L195 806L260 921H277ZM195 700Z" glyph-name="caron.case" horiz-adv-x="388" /><glyph d="M90 730H72L28 616H41ZM-6 700Z" glyph-name="caron.salt" horiz-adv-x="167" /><glyph d="M287 -12Q191 -12 128 59Q65 130 65 243Q65 356 128.5 428.5Q192 501 289 501Q359 501 407.5 468.5Q456 436 486 368L472 361Q443 425 398.5 455.5Q354 486 289 486Q199 486 140 418Q81 350 81 243Q81 137 139 70Q197 3 287 3Q354 3 402.5 39Q451 75 475 143L491 137Q465 65 411.5 26.5Q358 -12 287 -12ZM286 489ZM287 10ZM295 587H280L205 721H223L288 606L353 721H370ZM286 489Z" glyph-name="ccaron" horiz-adv-x="543" unicode="&#269;" /><glyph d="M225 -101 213 -86 268 -11Q178 -4 121.5 66Q65 136 65 243Q65 356 128.5 428.5Q192 501 289 501Q359 501 407.5 468.5Q456 436 486 368L472 361Q443 425 398.5 455.5Q354 486 289 486Q199 486 140 418Q81 350 81 243Q81 137 139 70Q197 3 287 3Q354 3 402.5 39Q451 75 475 143L491 137Q465 65 411.5 26.5Q358 -12 287 -12H286L236 -80Q251 -72 266 -68.5Q281 -65 297 -65Q333 -65 353 -82.5Q373 -100 373 -133Q373 -169 346 -190.5Q319 -212 276 -212Q251 -212 232 -208.5Q213 -205 197 -198L204 -185Q218 -191 235 -194Q252 -197 277 -197Q313 -197 335 -179.5Q357 -162 357 -133Q357 -107 341.5 -93.5Q326 -80 297 -80Q278 -80 260.5 -85Q243 -90 225 -101Z" glyph-name="ccedilla" horiz-adv-x="543" unicode="&#231;" /><glyph d="M287 -12Q191 -12 128 59Q65 130 65 243Q65 356 128.5 428.5Q192 501 289 501Q359 501 407.5 468.5Q456 436 486 368L472 361Q443 425 398.5 455.5Q354 486 289 486Q199 486 140 418Q81 350 81 243Q81 137 139 70Q197 3 287 3Q354 3 402.5 39Q451 75 475 143L491 137Q465 65 411.5 26.5Q358 -12 287 -12ZM286 489ZM287 10ZM205 587 280 721H295L370 587H352L287 702L222 587ZM286 489Z" glyph-name="ccircumflex" horiz-adv-x="543" unicode="&#265;" /><glyph d="M287 -12Q191 -12 128 59Q65 130 65 243Q65 356 128.5 428.5Q192 501 289 501Q359 501 407.5 468.5Q456 436 486 368L472 361Q443 425 398.5 455.5Q354 486 289 486Q199 486 140 418Q81 350 81 243Q81 137 139 70Q197 3 287 3Q354 3 402.5 39Q451 75 475 143L491 137Q465 65 411.5 26.5Q358 -12 287 -12ZM286 489ZM287 10ZM258 654Q258 643 266 635Q274 627 285 627Q296 627 304 635Q312 643 312 654Q312 665 304 673.5Q296 682 285 682Q274 682 266 673.5Q258 665 258 654ZM286 489Z" glyph-name="cdotaccent" horiz-adv-x="543" unicode="&#267;" /><glyph d="M129 -101 117 -86 182 3H201L140 -80Q155 -72 170 -68.5Q185 -65 201 -65Q237 -65 257 -82.5Q277 -100 277 -133Q277 -169 250 -190.5Q223 -212 180 -212Q155 -212 136 -208.5Q117 -205 101 -198L108 -185Q122 -191 139 -194Q156 -197 181 -197Q217 -197 239 -179.5Q261 -162 261 -133Q261 -107 245.5 -93.5Q230 -80 201 -80Q182 -80 164.5 -85Q147 -90 129 -101ZM191 10Z" glyph-name="cedilla" horiz-adv-x="379" unicode="&#184;" /><glyph d="M160 -84H143L181 19Q128 51 99 109.5Q70 168 70 243Q70 356 133.5 428.5Q197 501 294 501Q310 501 326 499Q342 497 358 493L395 594H412L373 488Q412 474 441 444.5Q470 415 491 368L477 361Q456 406 429 433.5Q402 461 367 474L201 25Q222 14 245 8.5Q268 3 292 3Q359 3 407.5 39Q456 75 480 143L496 137Q470 65 416.5 26.5Q363 -12 292 -12Q267 -12 242.5 -6Q218 0 195 11ZM294 486Q204 486 145 418Q86 350 86 243Q86 174 112.5 119Q139 64 187 33L352 479Q339 483 325 484.5Q311 486 294 486Z" glyph-name="cent" horiz-adv-x="564" unicode="&#162;" /><glyph d="M112 587 187 721H202L277 587H259L194 702L129 587ZM193 489Z" glyph-name="circumflex" horiz-adv-x="388" unicode="&#710;" /><glyph d="M112 787 187 921H202L277 787H259L194 902L129 787ZM195 700Z" glyph-name="circumflex.case" horiz-adv-x="388" /><glyph d="M88 453Q88 444 94.5 437.5Q101 431 110 431Q119 431 125.5 437.5Q132 444 132 453Q132 462 125.5 468.5Q119 475 110 475Q101 475 94.5 468.5Q88 462 88 453ZM88 455ZM88 10Q88 1 94.5 -5.5Q101 -12 110 -12Q119 -12 125.5 -5.5Q132 1 132 10Q132 19 125.5 25.5Q119 32 110 32Q101 32 94.5 25.5Q88 19 88 10ZM88 12Z" glyph-name="colon" horiz-adv-x="220" unicode=":" /><glyph d="M110 29H91L25 -190H41Z" glyph-name="comma" horiz-adv-x="176" unicode="," /><glyph d="M106 -75H88L36 -210H49ZM102 1ZM86 -210Z" glyph-name="commaaccent" horiz-adv-x="196" unicode="&#63171;" /><glyph d="M88 587H106L158 721H145ZM97 489Z" glyph-name="commaaccent.salt" horiz-adv-x="196" /><glyph d="M791 351Q791 501 685.5 606.5Q580 712 430 712Q280 712 174.5 606.5Q69 501 69 351Q69 201 175 94.5Q281 -12 430 -12Q579 -12 685 94.5Q791 201 791 351ZM85 351Q85 495 186 596Q287 697 430 697Q573 697 674 596Q775 495 775 351Q775 207 674 105Q573 3 430 3Q287 3 186 105Q85 207 85 351ZM431 163Q361 163 315 215Q269 267 269 349Q269 432 315 484.5Q361 537 432 537Q483 537 518 513.5Q553 490 575 441L561 435Q541 480 510 501Q479 522 432 522Q368 522 326.5 473.5Q285 425 285 349Q285 273 326.5 225.5Q368 178 431 178Q479 178 513 203Q547 228 564 276L579 271Q560 219 521.5 191Q483 163 431 163Z" glyph-name="copyright" horiz-adv-x="860" unicode="&#169;" /><glyph d="M87 158 77 168 168 260Q153 278 145.5 300.5Q138 323 138 346Q138 371 146 393.5Q154 416 170 435L77 530L87 540L181 447Q201 466 226 476Q251 486 278 486Q306 486 331 475.5Q356 465 375 446L470 540L480 530L386 434Q401 415 409 392.5Q417 370 417 346Q417 324 410 302Q403 280 389 261L480 168L470 158L378 249Q358 229 332 217.5Q306 206 278 206Q250 206 224 217Q198 228 178 248ZM278 221Q330 221 366 257.5Q402 294 402 346Q402 398 366 434.5Q330 471 278 471Q227 471 190 434Q153 397 153 346Q153 295 189.5 258Q226 221 278 221Z" glyph-name="currency" horiz-adv-x="557" unicode="&#164;" /><glyph d="M283 -12Q185 -12 125.5 58.5Q66 129 66 243Q66 359 126 430Q186 501 286 501Q358 501 411 459Q464 417 488 343V730H504V0H489V151Q466 75 411.5 31.5Q357 -12 283 -12ZM82 243Q82 136 137 69.5Q192 3 283 3Q375 3 432 72Q489 141 489 246Q489 348 432.5 417Q376 486 286 486Q193 486 137.5 419.5Q82 353 82 243ZM579 700Z" glyph-name="d" horiz-adv-x="616" unicode="d" /><glyph d="M211 453V0H195V453H51V468H195V700H211V468H355V453Z" glyph-name="dagger" horiz-adv-x="406" unicode="&#8224;" /><glyph d="M225 0H209V232H65V247H209V351V453H65V468H209V700H225V468H369V453H225V351V247H369V232H225Z" glyph-name="daggerdbl" horiz-adv-x="434" unicode="&#8225;" /><glyph d="M283 -12Q185 -12 125.5 58.5Q66 129 66 243Q66 359 126 430Q186 501 286 501Q358 501 411 459Q464 417 488 343V730H504V0H489V151Q466 75 411.5 31.5Q357 -12 283 -12ZM82 243Q82 136 137 69.5Q192 3 283 3Q375 3 432 72Q489 141 489 246Q489 348 432.5 417Q376 486 286 486Q193 486 137.5 419.5Q82 353 82 243ZM579 700ZM676 730H658L614 616H627ZM580 700Z" glyph-name="dcaron" horiz-adv-x="656" unicode="&#271;" /><glyph d="M283 -12Q185 -12 125.5 58.5Q66 129 66 243Q66 359 126 430Q186 501 286 501Q358 501 411 459Q464 417 488 343V617H307V632H488V730H504V632H604V617H504V0H489V151Q466 75 411.5 31.5Q357 -12 283 -12ZM82 243Q82 136 137 69.5Q192 3 283 3Q375 3 432 72Q489 141 489 246Q489 348 432.5 417Q376 486 286 486Q193 486 137.5 419.5Q82 353 82 243Z" glyph-name="dcroat" horiz-adv-x="616" unicode="&#273;" /><glyph d="M329 583Q329 637 291.5 674.5Q254 712 200 712Q146 712 107 674Q68 636 68 583Q68 529 107 490.5Q146 452 200 452Q254 452 291.5 490.5Q329 529 329 583ZM84 583Q84 630 118 663.5Q152 697 200 697Q247 697 280 663.5Q313 630 313 583Q313 535 280 501Q247 467 200 467Q152 467 118 501Q84 535 84 583Z" glyph-name="degree" horiz-adv-x="397" unicode="&#176;" /><glyph d="M95 654Q95 645 101 639Q107 633 116 633Q125 633 131 639Q137 645 137 654Q137 663 131 669Q125 675 116 675Q107 675 101 669Q95 663 95 654ZM207 654Q207 645 213 639Q219 633 228 633Q237 633 243 639Q249 645 249 654Q249 663 243 669Q237 675 228 675Q219 675 213 669Q207 663 207 654ZM172 489Z" glyph-name="dieresis" horiz-adv-x="344" unicode="&#168;" /><glyph d="M95 854Q95 845 101 839Q107 833 116 833Q125 833 131 839Q137 845 137 854Q137 863 131 869Q125 875 116 875Q107 875 101 869Q95 863 95 854ZM207 854Q207 845 213 839Q219 833 228 833Q237 833 243 839Q249 845 249 854Q249 863 243 869Q237 875 228 875Q219 875 213 869Q207 863 207 854ZM171 700Z" glyph-name="dieresis.case" horiz-adv-x="389" /><glyph d="M74 343V359H506V343ZM271 195Q271 187 276.5 181Q282 175 290 175Q299 175 304.5 181Q310 187 310 195Q310 203 304.5 209Q299 215 290 215Q282 215 276.5 209Q271 203 271 195ZM271 507Q271 499 276.5 493Q282 487 290 487Q298 487 304 493Q310 499 310 507Q310 515 304.5 521Q299 527 290 527Q282 527 276.5 521Q271 515 271 507Z" glyph-name="divide" horiz-adv-x="580" unicode="&#247;" /><glyph d="M262 -12V-134H246V-12Q191 -9 141 17.5Q91 44 51 89L63 98Q100 56 147 31Q194 6 246 3V362L227 369Q143 403 102 447.5Q61 492 61 548Q61 618 110.5 663.5Q160 709 246 712V833H262V712Q313 711 358 687.5Q403 664 446 617L434 607Q394 652 352 674Q310 696 262 697V372L301 357Q389 324 424.5 281Q460 238 460 170Q460 90 408 39Q356 -12 262 -12ZM77 548Q77 496 116.5 454Q156 412 230 384L246 378V697Q168 694 122.5 652.5Q77 611 77 548ZM444 170Q444 232 412 270.5Q380 309 298 341L262 355V3Q349 4 396.5 50Q444 96 444 170Z" glyph-name="dollar" horiz-adv-x="514" unicode="$" /><glyph d="M90 654Q90 643 98 635Q106 627 117 627Q128 627 136 635Q144 643 144 654Q144 665 136 673.5Q128 682 117 682Q106 682 98 673.5Q90 665 90 654ZM118 489Z" glyph-name="dotaccent" horiz-adv-x="235" unicode="&#729;" /><glyph d="M163 854Q163 843 171 835Q179 827 190 827Q201 827 209 835Q217 843 217 854Q217 865 209 873.5Q201 882 190 882Q179 882 171 873.5Q163 865 163 854ZM186 700Z" glyph-name="dotaccent.case" horiz-adv-x="373" /><glyph d="M112 0V489H128V0ZM120 489Z" glyph-name="dotlessi" horiz-adv-x="240" unicode="&#305;" /><glyph d="M303 -12Q194 -12 129.5 57.5Q65 127 65 245Q65 357 128.5 429Q192 501 289 501Q378 501 435.5 438Q493 375 493 275Q493 269 492 258Q491 247 490 245H81Q81 133 141 68Q201 3 303 3Q361 3 409.5 35.5Q458 68 485 124L499 117Q470 58 417.5 23Q365 -12 303 -12ZM289 486Q203 486 144.5 423Q86 360 81 260H476Q482 358 428.5 422Q375 486 289 486ZM292 489ZM359 0Z" glyph-name="e" horiz-adv-x="564" unicode="e" /><glyph d="M303 -12Q194 -12 129.5 57.5Q65 127 65 245Q65 357 128.5 429Q192 501 289 501Q378 501 435.5 438Q493 375 493 275Q493 269 492 258Q491 247 490 245H81Q81 133 141 68Q201 3 303 3Q361 3 409.5 35.5Q458 68 485 124L499 117Q470 58 417.5 23Q365 -12 303 -12ZM289 486Q203 486 144.5 423Q86 360 81 260H476Q482 358 428.5 422Q375 486 289 486ZM292 489ZM359 0ZM385 721H366L280 587H298ZM289 489Z" glyph-name="eacute" horiz-adv-x="564" unicode="&#233;" /><glyph d="M303 -12Q194 -12 129.5 57.5Q65 127 65 245Q65 357 128.5 429Q192 501 289 501Q378 501 435.5 438Q493 375 493 275Q493 269 492 258Q491 247 490 245H81Q81 133 141 68Q201 3 303 3Q361 3 409.5 35.5Q458 68 485 124L499 117Q470 58 417.5 23Q365 -12 303 -12ZM289 486Q203 486 144.5 423Q86 360 81 260H476Q482 358 428.5 422Q375 486 289 486ZM292 489ZM359 0ZM289 600Q337 600 363.5 633Q390 666 390 721H406Q405 659 374.5 622Q344 585 289 585Q234 585 203.5 622Q173 659 172 721H188Q188 667 214.5 633.5Q241 600 289 600ZM289 489Z" glyph-name="ebreve" horiz-adv-x="564" unicode="&#277;" /><glyph d="M303 -12Q194 -12 129.5 57.5Q65 127 65 245Q65 357 128.5 429Q192 501 289 501Q378 501 435.5 438Q493 375 493 275Q493 269 492 258Q491 247 490 245H81Q81 133 141 68Q201 3 303 3Q361 3 409.5 35.5Q458 68 485 124L499 117Q470 58 417.5 23Q365 -12 303 -12ZM289 486Q203 486 144.5 423Q86 360 81 260H476Q482 358 428.5 422Q375 486 289 486ZM292 489ZM359 0ZM298 587H283L208 721H226L291 606L356 721H373ZM289 489Z" glyph-name="ecaron" horiz-adv-x="564" unicode="&#283;" /><glyph d="M303 -12Q194 -12 129.5 57.5Q65 127 65 245Q65 357 128.5 429Q192 501 289 501Q378 501 435.5 438Q493 375 493 275Q493 269 492 258Q491 247 490 245H81Q81 133 141 68Q201 3 303 3Q361 3 409.5 35.5Q458 68 485 124L499 117Q470 58 417.5 23Q365 -12 303 -12ZM289 486Q203 486 144.5 423Q86 360 81 260H476Q482 358 428.5 422Q375 486 289 486ZM292 489ZM359 0ZM208 587 283 721H298L373 587H355L290 702L225 587ZM289 489Z" glyph-name="ecircumflex" horiz-adv-x="564" unicode="&#234;" /><glyph d="M303 -12Q194 -12 129.5 57.5Q65 127 65 245Q65 357 128.5 429Q192 501 289 501Q378 501 435.5 438Q493 375 493 275Q493 269 492 258Q491 247 490 245H81Q81 133 141 68Q201 3 303 3Q361 3 409.5 35.5Q458 68 485 124L499 117Q470 58 417.5 23Q365 -12 303 -12ZM289 486Q203 486 144.5 423Q86 360 81 260H476Q482 358 428.5 422Q375 486 289 486ZM292 489ZM359 0ZM212 654Q212 645 218 639Q224 633 233 633Q242 633 248 639Q254 645 254 654Q254 663 248 669Q242 675 233 675Q224 675 218 669Q212 663 212 654ZM324 654Q324 645 330 639Q336 633 345 633Q354 633 360 639Q366 645 366 654Q366 663 360 669Q354 675 345 675Q336 675 330 669Q324 663 324 654ZM289 489Z" glyph-name="edieresis" horiz-adv-x="564" unicode="&#235;" /><glyph d="M303 -12Q194 -12 129.5 57.5Q65 127 65 245Q65 357 128.5 429Q192 501 289 501Q378 501 435.5 438Q493 375 493 275Q493 269 492 258Q491 247 490 245H81Q81 133 141 68Q201 3 303 3Q361 3 409.5 35.5Q458 68 485 124L499 117Q470 58 417.5 23Q365 -12 303 -12ZM289 486Q203 486 144.5 423Q86 360 81 260H476Q482 358 428.5 422Q375 486 289 486ZM292 489ZM359 0ZM261 654Q261 643 269 635Q277 627 288 627Q299 627 307 635Q315 643 315 654Q315 665 307 673.5Q299 682 288 682Q277 682 269 673.5Q261 665 261 654ZM289 489Z" glyph-name="edotaccent" horiz-adv-x="564" unicode="&#279;" /><glyph d="M303 -12Q194 -12 129.5 57.5Q65 127 65 245Q65 357 128.5 429Q192 501 289 501Q378 501 435.5 438Q493 375 493 275Q493 269 492 258Q491 247 490 245H81Q81 133 141 68Q201 3 303 3Q361 3 409.5 35.5Q458 68 485 124L499 117Q470 58 417.5 23Q365 -12 303 -12ZM289 486Q203 486 144.5 423Q86 360 81 260H476Q482 358 428.5 422Q375 486 289 486ZM292 489ZM359 0ZM298 587 212 721H193L280 587ZM289 489Z" glyph-name="egrave" horiz-adv-x="564" unicode="&#232;" /><glyph d="M358 370Q438 357 480.5 307.5Q523 258 523 180Q523 97 460.5 42.5Q398 -12 299 -12Q200 -12 138 42.5Q76 97 76 180Q76 253 120 304Q164 355 242 369Q169 381 130 424.5Q91 468 91 534Q91 610 149.5 661Q208 712 299 712Q391 712 449.5 661Q508 610 508 534Q508 467 469.5 424.5Q431 382 358 370ZM107 534Q107 462 157 419.5Q207 377 299 377Q392 377 442 419Q492 461 492 534Q492 603 437.5 650Q383 697 299 697Q215 697 161 650Q107 603 107 534ZM507 180Q507 265 453 313.5Q399 362 299 362Q202 362 147 311.5Q92 261 92 180Q92 103 149.5 53Q207 3 299 3Q391 3 449 53Q507 103 507 180Z" glyph-name="eight" horiz-adv-x="599" unicode="8" /><glyph d="M206 183Q241 174 261 150Q281 126 281 94Q281 51 248.5 22.5Q216 -6 166 -6Q114 -6 81.5 22.5Q49 51 49 94Q49 125 69.5 149Q90 173 126 182Q93 191 74.5 212.5Q56 234 56 263Q56 303 87 329.5Q118 356 166 356Q213 356 243.5 329Q274 302 274 263Q274 234 256 212.5Q238 191 206 183ZM69 263Q69 231 95.5 210Q122 189 166 189Q209 189 235 210Q261 231 261 263Q261 297 234 320Q207 343 166 343Q124 343 96.5 320Q69 297 69 263ZM267 94Q267 129 239.5 152.5Q212 176 166 176Q120 176 91.5 152Q63 128 63 94Q63 56 91.5 31.5Q120 7 166 7Q210 7 238.5 32Q267 57 267 94Z" glyph-name="eight.denominator" horiz-adv-x="330" unicode="&#63069;" /><glyph d="M206 43Q241 34 261 10Q281 -14 281 -46Q281 -89 248.5 -117.5Q216 -146 166 -146Q114 -146 81.5 -117.5Q49 -89 49 -46Q49 -15 69.5 9Q90 33 126 42Q93 51 74.5 72.5Q56 94 56 123Q56 163 87 189.5Q118 216 166 216Q213 216 243.5 189Q274 162 274 123Q274 94 256 72.5Q238 51 206 43ZM69 123Q69 91 95.5 70Q122 49 166 49Q209 49 235 70Q261 91 261 123Q261 157 234 180Q207 203 166 203Q124 203 96.5 180Q69 157 69 123ZM267 -46Q267 -11 239.5 12.5Q212 36 166 36Q120 36 91.5 12Q63 -12 63 -46Q63 -84 91.5 -108.5Q120 -133 166 -133Q210 -133 238.5 -108Q267 -83 267 -46Z" glyph-name="eight.inferior" horiz-adv-x="330" unicode="&#8328;" /><glyph d="M206 533Q241 524 261 500Q281 476 281 444Q281 401 248.5 372.5Q216 344 166 344Q114 344 81.5 372.5Q49 401 49 444Q49 475 69.5 499Q90 523 126 532Q93 541 74.5 562.5Q56 584 56 613Q56 653 87 679.5Q118 706 166 706Q213 706 243.5 679Q274 652 274 613Q274 584 256 562.5Q238 541 206 533ZM69 613Q69 581 95.5 560Q122 539 166 539Q209 539 235 560Q261 581 261 613Q261 647 234 670Q207 693 166 693Q124 693 96.5 670Q69 647 69 613ZM267 444Q267 479 239.5 502.5Q212 526 166 526Q120 526 91.5 502Q63 478 63 444Q63 406 91.5 381.5Q120 357 166 357Q210 357 238.5 382Q267 407 267 444Z" glyph-name="eight.numerator" horiz-adv-x="330" unicode="&#63081;" /><glyph d="M206 673Q241 664 261 640Q281 616 281 584Q281 541 248.5 512.5Q216 484 166 484Q114 484 81.5 512.5Q49 541 49 584Q49 615 69.5 639Q90 663 126 672Q93 681 74.5 702.5Q56 724 56 753Q56 793 87 819.5Q118 846 166 846Q213 846 243.5 819Q274 792 274 753Q274 724 256 702.5Q238 681 206 673ZM69 753Q69 721 95.5 700Q122 679 166 679Q209 679 235 700Q261 721 261 753Q261 787 234 810Q207 833 166 833Q124 833 96.5 810Q69 787 69 753ZM267 584Q267 619 239.5 642.5Q212 666 166 666Q120 666 91.5 642Q63 618 63 584Q63 546 91.5 521.5Q120 497 166 497Q210 497 238.5 522Q267 547 267 584Z" glyph-name="eight.superior" horiz-adv-x="330" unicode="&#8312;" /><glyph d="M338 370Q418 357 460.5 307.5Q503 258 503 180Q503 97 440.5 42.5Q378 -12 279 -12Q180 -12 118 42.5Q56 97 56 180Q56 253 100 304Q144 355 222 369Q149 381 110 424.5Q71 468 71 534Q71 610 129.5 661Q188 712 279 712Q371 712 429.5 661Q488 610 488 534Q488 467 449.5 424.5Q411 382 338 370ZM87 534Q87 462 137 419.5Q187 377 279 377Q372 377 422 419Q472 461 472 534Q472 603 417.5 650Q363 697 279 697Q195 697 141 650Q87 603 87 534ZM487 180Q487 265 433 313.5Q379 362 279 362Q182 362 127 311.5Q72 261 72 180Q72 103 129.5 53Q187 3 279 3Q371 3 429 53Q487 103 487 180Z" glyph-name="eight.tab" horiz-adv-x="560" unicode="&#65304;" /><glyph d="M84 10Q84 1 90.5 -5.5Q97 -12 106 -12Q115 -12 121.5 -5.5Q128 1 128 10Q128 19 121.5 25.5Q115 32 106 32Q97 32 90.5 25.5Q84 19 84 10ZM84 12ZM235 10Q235 1 241.5 -5.5Q248 -12 257 -12Q266 -12 272.5 -5.5Q279 1 279 10Q279 19 272.5 25.5Q266 32 257 32Q248 32 241.5 25.5Q235 19 235 10ZM235 12ZM383 10Q383 1 389.5 -5.5Q396 -12 405 -12Q414 -12 420.5 -5.5Q427 1 427 10Q427 19 420.5 25.5Q414 32 405 32Q396 32 389.5 25.5Q383 19 383 10ZM383 12Z" glyph-name="ellipsis" horiz-adv-x="511" unicode="&#8230;" /><glyph d="M303 -12Q194 -12 129.5 57.5Q65 127 65 245Q65 357 128.5 429Q192 501 289 501Q378 501 435.5 438Q493 375 493 275Q493 269 492 258Q491 247 490 245H81Q81 133 141 68Q201 3 303 3Q361 3 409.5 35.5Q458 68 485 124L499 117Q470 58 417.5 23Q365 -12 303 -12ZM289 486Q203 486 144.5 423Q86 360 81 260H476Q482 358 428.5 422Q375 486 289 486ZM292 489ZM359 0ZM412 646H166V661H412ZM289 489Z" glyph-name="emacron" horiz-adv-x="564" unicode="&#275;" /><glyph d="M88 257V272H885V257Z" glyph-name="emdash" horiz-adv-x="973" unicode="&#8212;" /><glyph d="M88 257V272H507V257Z" glyph-name="endash" horiz-adv-x="595" unicode="&#8211;" /><glyph d="M300 3Q357 3 404.5 35Q452 67 479 124L493 117Q482 95 467 75.5Q452 56 433 38Q413 20 380 -2.5Q347 -25 342 -29Q312 -51 299.5 -72.5Q287 -94 287 -122Q287 -158 308.5 -178Q330 -198 365 -198Q380 -198 393 -195Q406 -192 417 -187V-203Q407 -208 395 -210.5Q383 -213 366 -213Q322 -213 296.5 -187.5Q271 -162 271 -124Q271 -87 291 -58.5Q311 -30 356 -4Q344 -8 330.5 -10Q317 -12 300 -12Q192 -12 128.5 57.5Q65 127 65 245Q65 357 128.5 429Q192 501 289 501Q378 501 435.5 438Q493 375 493 275Q493 269 492 258Q491 247 490 245H81Q81 133 140 68Q199 3 300 3ZM289 486Q203 486 144.5 423Q86 360 81 260H476Q482 358 428.5 422Q375 486 289 486Z" glyph-name="eogonek" horiz-adv-x="558" unicode="&#281;" /><glyph d="M74 251V267H506V251ZM74 433V449H506V433Z" glyph-name="equal" horiz-adv-x="580" unicode="=" /><glyph d="M429 4Q512 4 586 42Q660 80 708 148L721 139Q670 68 593 28Q516 -12 429 -12Q280 -12 174.5 94Q69 200 69 350Q69 500 174.5 606Q280 712 429 712Q498 712 563 684.5Q628 657 679 607Q731 556 760 491Q789 426 789 359H112V215Q152 119 238.5 61.5Q325 4 429 4ZM429 696Q325 696 238.5 638.5Q152 581 112 485V374H746V484Q704 579 617 637.5Q530 696 429 696Z" glyph-name="estimated" horiz-adv-x="837" unicode="&#8494;" /><glyph d="M64 245Q64 356 131 428.5Q198 501 299 501Q374 501 433.5 456Q493 411 517 336Q507 440 467 518.5Q427 597 353 661L291 588L279 597L342 671Q327 683 309.5 695.5Q292 708 271 722L281 734Q301 721 318 708.5Q335 696 350 683L409 752L422 744L362 673Q450 595 492 498.5Q534 402 534 248Q534 137 467 62.5Q400 -12 299 -12Q198 -12 131 61Q64 134 64 245ZM518 247Q518 351 455.5 418.5Q393 486 299 486Q204 486 142 418Q80 350 80 245Q80 140 142.5 71.5Q205 3 299 3Q393 3 455.5 72.5Q518 142 518 247Z" glyph-name="eth" horiz-adv-x="619" unicode="&#240;" /><glyph d="M122 154V700H138V154ZM108 10Q108 1 114.5 -6Q121 -13 131 -13Q140 -13 147 -6Q154 1 154 10Q154 20 147 26.5Q140 33 131 33Q121 33 114.5 26.5Q108 20 108 10Z" glyph-name="exclam" horiz-adv-x="260" unicode="!" /><glyph d="M108 334V-212H124V334ZM94 478Q94 487 100.5 494Q107 501 117 501Q126 501 133 494Q140 487 140 478Q140 468 133 461.5Q126 455 117 455Q107 455 100.5 461.5Q94 468 94 478Z" glyph-name="exclamdown" horiz-adv-x="233" unicode="&#161;" /><glyph d="M139 0H123V474H29V489H123V603Q123 671 154.5 706.5Q186 742 248 742Q265 742 281.5 738.5Q298 735 313 729L308 715Q295 721 280 724Q265 727 248 727Q194 727 166.5 696Q139 665 139 603V489H304V474H139Z" glyph-name="f" horiz-adv-x="322" unicode="f" /><glyph d="M139 0H123V474H29V489H123V603Q123 671 154.5 706.5Q186 742 248 742Q265 742 281.5 738.5Q298 735 313 729L308 715Q295 721 280 724Q265 727 248 727Q194 727 166.5 696Q139 665 139 603V489H304V474H139ZM461 0H445V474H351V489H445V603Q445 671 476.5 706.5Q508 742 570 742Q587 742 603.5 738.5Q620 735 635 729L630 715Q617 721 602 724Q587 727 570 727Q516 727 488.5 696Q461 665 461 603V489H626V474H461Z" glyph-name="f_f" horiz-adv-x="644" unicode="&#64256;" /><glyph d="M139 0H123V474H29V489H123V603Q123 671 154.5 706.5Q186 742 248 742Q265 742 281.5 738.5Q298 735 313 729L308 715Q295 721 280 724Q265 727 248 727Q194 727 166.5 696Q139 665 139 603V489H304V474H139ZM461 0H445V474H351V489H445V603Q445 671 476.5 706.5Q508 742 570 742Q587 742 603.5 738.5Q620 735 635 729L630 715Q617 721 602 724Q587 727 570 727Q516 727 488.5 696Q461 665 461 603V489H626V474H461ZM756 0V489H772V0ZM785 691Q785 700 779 706Q773 712 764 712Q755 712 749 706Q743 700 743 691Q743 682 749 676Q755 670 764 670Q773 670 779 676Q785 682 785 691ZM757 0Z" glyph-name="f_f_i" horiz-adv-x="884" unicode="&#64259;" /><glyph d="M139 0H123V474H29V489H123V603Q123 671 154.5 706.5Q186 742 248 742Q265 742 281.5 738.5Q298 735 313 729L308 715Q295 721 280 724Q265 727 248 727Q194 727 166.5 696Q139 665 139 603V489H304V474H139ZM461 0H445V474H351V489H445V603Q445 671 476.5 706.5Q508 742 570 742Q587 742 603.5 738.5Q620 735 635 729L630 715Q617 721 602 724Q587 727 570 727Q516 727 488.5 696Q461 665 461 603V489H626V474H461ZM756 0V730H772V0ZM764 730ZM847 700ZM826 350ZM764 0Z" glyph-name="f_f_l" horiz-adv-x="884" unicode="&#64260;" /><glyph d="M139 0H123V474H29V489H123V603Q123 671 154.5 706.5Q186 742 248 742Q265 742 281.5 738.5Q298 735 313 729L308 715Q295 721 280 724Q265 727 248 727Q194 727 166.5 696Q139 665 139 603V489H304V474H139ZM434 0V489H450V0ZM463 691Q463 700 457 706Q451 712 442 712Q433 712 427 706Q421 700 421 691Q421 682 427 676Q433 670 442 670Q451 670 457 676Q463 682 463 691ZM435 0Z" glyph-name="fi" horiz-adv-x="562" unicode="&#64257;" /><glyph d="M293 429Q390 429 445.5 374Q501 319 501 223Q501 116 440 52Q379 -12 274 -12Q191 -12 132 28Q73 68 56 129L71 133Q86 77 141.5 40Q197 3 274 3Q371 3 428 63Q485 123 485 223Q485 311 434 362.5Q383 414 293 414Q235 414 187.5 390Q140 366 101 317L87 325L156 700H462V685H168L106 346Q144 387 191 408Q238 429 293 429Z" glyph-name="five" horiz-adv-x="563" unicode="5" /><glyph d="M159 214Q207 214 235 186.5Q263 159 263 111Q263 56 233.5 25Q204 -6 149 -6Q108 -6 78.5 14Q49 34 40 64L53 68Q61 42 87 24.5Q113 7 149 7Q197 7 223 34Q249 61 249 111Q249 152 225 176.5Q201 201 159 201Q131 201 107.5 189.5Q84 178 67 156L53 163L84 350H243V337H96L70 177Q88 195 110 204.5Q132 214 159 214Z" glyph-name="five.denominator" horiz-adv-x="305" unicode="&#63066;" /><glyph d="M159 74Q207 74 235 46.5Q263 19 263 -29Q263 -84 233.5 -115Q204 -146 149 -146Q108 -146 78.5 -126Q49 -106 40 -76L53 -72Q61 -98 87 -115.5Q113 -133 149 -133Q197 -133 223 -106Q249 -79 249 -29Q249 12 225 36.5Q201 61 159 61Q131 61 107.5 49.5Q84 38 67 16L53 23L84 210H243V197H96L70 37Q88 55 110 64.5Q132 74 159 74Z" glyph-name="five.inferior" horiz-adv-x="305" unicode="&#8325;" /><glyph d="M159 564Q207 564 235 536.5Q263 509 263 461Q263 406 233.5 375Q204 344 149 344Q108 344 78.5 364Q49 384 40 414L53 418Q61 392 87 374.5Q113 357 149 357Q197 357 223 384Q249 411 249 461Q249 502 225 526.5Q201 551 159 551Q131 551 107.5 539.5Q84 528 67 506L53 513L84 700H243V687H96L70 527Q88 545 110 554.5Q132 564 159 564Z" glyph-name="five.numerator" horiz-adv-x="305" unicode="&#63078;" /><glyph d="M158 704Q206 704 234 676.5Q262 649 262 601Q262 546 232.5 515Q203 484 148 484Q107 484 77.5 504Q48 524 39 554L52 558Q60 532 86 514.5Q112 497 148 497Q196 497 222 524Q248 551 248 601Q248 642 224 666.5Q200 691 158 691Q130 691 106.5 679.5Q83 668 66 646L52 653L83 840H242V827H95L69 667Q87 685 109 694.5Q131 704 158 704Z" glyph-name="five.superior" horiz-adv-x="305" unicode="&#8309;" /><glyph d="M291 429Q388 429 443.5 374Q499 319 499 223Q499 116 438 52Q377 -12 272 -12Q189 -12 130 28Q71 68 54 129L69 133Q84 77 139.5 40Q195 3 272 3Q369 3 426 63Q483 123 483 223Q483 311 432 362.5Q381 414 291 414Q233 414 185.5 390Q138 366 99 317L85 325L154 700H460V685H166L104 346Q142 387 189 408Q236 429 291 429Z" glyph-name="five.tab" horiz-adv-x="560" unicode="&#65301;" /><glyph d="M139 0H123V474H29V489H123V603Q123 671 154.5 706.5Q186 742 248 742Q265 742 281.5 738.5Q298 735 313 729L308 715Q295 721 280 724Q265 727 248 727Q194 727 166.5 696Q139 665 139 603V489H304V474H139ZM434 0V730H450V0ZM442 730ZM525 700ZM504 350ZM442 0Z" glyph-name="fl" horiz-adv-x="562" unicode="&#64258;" /><glyph d="M207 424 145 -91Q137 -160 105.5 -195Q74 -230 20 -230Q3 -230 -13.5 -226.5Q-30 -223 -45 -217L-40 -203Q-27 -209 -12 -212Q3 -215 20 -215Q67 -215 94.5 -184Q122 -153 129 -91L191 424H55V439H193L213 603Q221 672 252.5 707Q284 742 338 742Q355 742 371.5 738.5Q388 735 403 729L398 715Q385 721 370 724Q355 727 338 727Q291 727 264 696Q237 665 229 603L209 439H356V424Z" glyph-name="florin" horiz-adv-x="416" /><glyph d="M412 207V415L428 421V207H547V192H428V0H412V192H34V207L392 700H411L53 207Z" glyph-name="four" horiz-adv-x="585" unicode="4" /><glyph d="M221 110V209L235 214V110H297V97H235V0H221V97H30V112L208 350H225L46 110Z" glyph-name="four.denominator" horiz-adv-x="328" unicode="&#63065;" /><glyph d="M221 -30V69L235 74V-30H297V-43H235V-140H221V-43H30V-28L208 210H225L46 -30Z" glyph-name="four.inferior" horiz-adv-x="328" unicode="&#8324;" /><glyph d="M221 460V559L235 564V460H297V447H235V350H221V447H30V462L208 700H225L46 460Z" glyph-name="four.numerator" horiz-adv-x="328" unicode="&#63077;" /><glyph d="M221 600V699L235 704V600H297V587H235V490H221V587H30V602L208 840H225L46 600Z" glyph-name="four.superior" horiz-adv-x="328" unicode="&#8308;" /><glyph d="M399 207V415L415 421V207H534V192H415V0H399V192H21V207L379 700H398L40 207Z" glyph-name="four.tab" horiz-adv-x="560" unicode="&#65300;" /><glyph d="M-85 0H-102L243 700H260Z" glyph-name="fraction" horiz-adv-x="160" unicode="&#8260;" /><glyph d="M128 0V700H577V685H143V373H547V358H143V0ZM670 0V489H685V358Q703 423 741 458.5Q779 494 830 494Q843 494 852 493Q861 492 868 490L866 476Q860 478 851 478.5Q842 479 830 479Q764 479 725 415Q686 351 686 245V0Z" glyph-name="franc" horiz-adv-x="904" unicode="&#8355;" /><glyph d="M537 -73Q537 -145 467.5 -187.5Q398 -230 289 -230Q181 -230 116 -194Q51 -158 51 -94Q51 -52 82.5 -18.5Q114 15 169 30Q133 31 112 51Q91 71 91 102Q91 128 108.5 150.5Q126 173 157 186Q125 210 107.5 245.5Q90 281 90 322Q90 398 145 449.5Q200 501 280 501Q318 501 352.5 488.5Q387 476 413 452Q430 475 461.5 486.5Q493 498 538 498V483Q496 483 467.5 472.5Q439 462 424 442Q447 418 459.5 387Q472 356 472 322Q472 247 416.5 196.5Q361 146 280 146Q251 146 224 153.5Q197 161 172 175Q140 164 123.5 145.5Q107 127 107 103Q107 76 125.5 60.5Q144 45 176 45H375Q456 45 496.5 15.5Q537 -14 537 -73ZM456 322Q456 392 405 439Q354 486 280 486Q206 486 156 439Q106 392 106 322Q106 253 156 207Q206 161 280 161Q354 161 405 207Q456 253 456 322ZM67 -93Q67 -151 128 -183Q189 -215 289 -215Q392 -215 456.5 -176.5Q521 -138 521 -73Q521 -22 484 4Q447 30 375 30H262Q176 30 121.5 -5.5Q67 -41 67 -93ZM285 489Z" glyph-name="g" horiz-adv-x="567" unicode="g" /><glyph d="M537 -73Q537 -145 467.5 -187.5Q398 -230 289 -230Q181 -230 116 -194Q51 -158 51 -94Q51 -52 82.5 -18.5Q114 15 169 30Q133 31 112 51Q91 71 91 102Q91 128 108.5 150.5Q126 173 157 186Q125 210 107.5 245.5Q90 281 90 322Q90 398 145 449.5Q200 501 280 501Q318 501 352.5 488.5Q387 476 413 452Q430 475 461.5 486.5Q493 498 538 498V483Q496 483 467.5 472.5Q439 462 424 442Q447 418 459.5 387Q472 356 472 322Q472 247 416.5 196.5Q361 146 280 146Q251 146 224 153.5Q197 161 172 175Q140 164 123.5 145.5Q107 127 107 103Q107 76 125.5 60.5Q144 45 176 45H375Q456 45 496.5 15.5Q537 -14 537 -73ZM456 322Q456 392 405 439Q354 486 280 486Q206 486 156 439Q106 392 106 322Q106 253 156 207Q206 161 280 161Q354 161 405 207Q456 253 456 322ZM67 -93Q67 -151 128 -183Q189 -215 289 -215Q392 -215 456.5 -176.5Q521 -138 521 -73Q521 -22 484 4Q447 30 375 30H262Q176 30 121.5 -5.5Q67 -41 67 -93ZM285 489ZM285 600Q333 600 359.5 633Q386 666 386 721H402Q401 659 370.5 622Q340 585 285 585Q230 585 199.5 622Q169 659 168 721H184Q184 667 210.5 633.5Q237 600 285 600ZM285 489Z" glyph-name="gbreve" horiz-adv-x="567" unicode="&#287;" /><glyph d="M537 -73Q537 -145 467.5 -187.5Q398 -230 289 -230Q181 -230 116 -194Q51 -158 51 -94Q51 -52 82.5 -18.5Q114 15 169 30Q133 31 112 51Q91 71 91 102Q91 128 108.5 150.5Q126 173 157 186Q125 210 107.5 245.5Q90 281 90 322Q90 398 145 449.5Q200 501 280 501Q318 501 352.5 488.5Q387 476 413 452Q430 475 461.5 486.5Q493 498 538 498V483Q496 483 467.5 472.5Q439 462 424 442Q447 418 459.5 387Q472 356 472 322Q472 247 416.5 196.5Q361 146 280 146Q251 146 224 153.5Q197 161 172 175Q140 164 123.5 145.5Q107 127 107 103Q107 76 125.5 60.5Q144 45 176 45H375Q456 45 496.5 15.5Q537 -14 537 -73ZM456 322Q456 392 405 439Q354 486 280 486Q206 486 156 439Q106 392 106 322Q106 253 156 207Q206 161 280 161Q354 161 405 207Q456 253 456 322ZM67 -93Q67 -151 128 -183Q189 -215 289 -215Q392 -215 456.5 -176.5Q521 -138 521 -73Q521 -22 484 4Q447 30 375 30H262Q176 30 121.5 -5.5Q67 -41 67 -93ZM285 489ZM204 587 279 721H294L369 587H351L286 702L221 587ZM285 489Z" glyph-name="gcircumflex" horiz-adv-x="567" unicode="&#285;" /><glyph d="M537 -73Q537 -145 467.5 -187.5Q398 -230 289 -230Q181 -230 116 -194Q51 -158 51 -94Q51 -52 82.5 -18.5Q114 15 169 30Q133 31 112 51Q91 71 91 102Q91 128 108.5 150.5Q126 173 157 186Q125 210 107.5 245.5Q90 281 90 322Q90 398 145 449.5Q200 501 280 501Q318 501 352.5 488.5Q387 476 413 452Q430 475 461.5 486.5Q493 498 538 498V483Q496 483 467.5 472.5Q439 462 424 442Q447 418 459.5 387Q472 356 472 322Q472 247 416.5 196.5Q361 146 280 146Q251 146 224 153.5Q197 161 172 175Q140 164 123.5 145.5Q107 127 107 103Q107 76 125.5 60.5Q144 45 176 45H375Q456 45 496.5 15.5Q537 -14 537 -73ZM456 322Q456 392 405 439Q354 486 280 486Q206 486 156 439Q106 392 106 322Q106 253 156 207Q206 161 280 161Q354 161 405 207Q456 253 456 322ZM67 -93Q67 -151 128 -183Q189 -215 289 -215Q392 -215 456.5 -176.5Q521 -138 521 -73Q521 -22 484 4Q447 30 375 30H262Q176 30 121.5 -5.5Q67 -41 67 -93ZM285 489ZM257 654Q257 643 265 635Q273 627 284 627Q295 627 303 635Q311 643 311 654Q311 665 303 673.5Q295 682 284 682Q273 682 265 673.5Q257 665 257 654ZM285 489Z" glyph-name="gdotaccent" horiz-adv-x="567" unicode="&#289;" /><glyph d="M478 567Q478 639 432.5 682.5Q387 726 309 726Q225 726 176.5 670.5Q128 615 128 527V0H112V527Q112 621 165 681.5Q218 742 309 742Q394 742 443.5 694Q493 646 493 567Q493 502 447 449.5Q401 397 331 388Q413 384 466 331Q519 278 519 206Q519 116 463.5 58Q408 0 319 0H268V16H319Q402 16 452.5 69Q503 122 503 206Q503 281 447 329.5Q391 378 301 378H268V393H280Q365 393 421.5 443.5Q478 494 478 567Z" glyph-name="germandbls" horiz-adv-x="582" unicode="&#223;" /><glyph d="M256 587 170 721H151L238 587ZM247 489Z" glyph-name="grave" horiz-adv-x="380" unicode="`" /><glyph d="M256 787 170 921H151L238 787ZM247 700Z" glyph-name="grave.case" horiz-adv-x="380" /><glyph d="M539 380V365L89 176V193L517 372L89 552V569Z" glyph-name="greater" horiz-adv-x="580" unicode="&gt;" /><glyph d="M68 141 518 330V345L68 534V517L496 338L68 158ZM518 0V15H68V0Z" glyph-name="greaterequal" horiz-adv-x="580" unicode="&#8805;" /><glyph d="M53 250 261 423V403L70 244L261 86V66L53 238ZM253 250 461 423V403L270 244L461 86V66L253 238Z" glyph-name="guillemotleft" horiz-adv-x="542" /><glyph d="M289 256 81 429V409L272 250L81 92V72L289 244ZM488 256 280 429V409L471 250L280 92V72L488 244Z" glyph-name="guillemotright" horiz-adv-x="541" /><glyph d="M54 250 262 423V403L71 244L262 86V66L54 238Z" glyph-name="guilsinglleft" horiz-adv-x="344" unicode="&#8249;" /><glyph d="M290 242 82 69V89L273 248L82 406V426L290 254Z" glyph-name="guilsinglright" horiz-adv-x="344" unicode="&#8250;" /><glyph d="M507 309V0H491V309Q491 385 443 435.5Q395 486 315 486Q227 486 177.5 428.5Q128 371 128 274V0H112V730H128V370Q150 433 198 467Q246 501 315 501Q402 501 454.5 446Q507 391 507 309ZM120 730Z" glyph-name="h" horiz-adv-x="609" unicode="h" /><glyph d="M507 309V0H491V309Q491 385 443 435.5Q395 486 315 486Q227 486 177.5 428.5Q128 371 128 274V0H112V617H14V632H112V730H128V632H311V617H128V370Q150 433 198 467Q246 501 315 501Q402 501 454.5 446Q507 391 507 309Z" glyph-name="hbar" horiz-adv-x="609" unicode="&#295;" /><glyph d="M507 309V0H491V309Q491 385 443 435.5Q395 486 315 486Q227 486 177.5 428.5Q128 371 128 274V0H112V730H128V370Q150 433 198 467Q246 501 315 501Q402 501 454.5 446Q507 391 507 309ZM120 730ZM39 828 114 962H129L204 828H186L121 943L56 828ZM120 730Z" glyph-name="hcircumflex" horiz-adv-x="609" unicode="&#293;" /><glyph d="M194 721H175L79 587H97ZM272 721H253L157 587H175ZM140 489Z" glyph-name="hungarumlaut" horiz-adv-x="360" unicode="&#733;" /><glyph d="M194 921H175L79 787H97ZM272 921H253L157 787H175ZM131 700Z" glyph-name="hungarumlaut.case" horiz-adv-x="360" /><glyph d="M88 258V273H344V258Z" glyph-name="hyphen" horiz-adv-x="432" unicode="-" /><glyph d="M112 0V489H128V0ZM141 691Q141 700 135 706Q129 712 120 712Q111 712 105 706Q99 700 99 691Q99 682 105 676Q111 670 120 670Q129 670 135 676Q141 682 141 691ZM113 0Z" glyph-name="i" horiz-adv-x="240" unicode="i" /><glyph d="M112 0V489H128V0ZM120 489ZM216 721H197L111 587H129ZM120 489Z" glyph-name="iacute" horiz-adv-x="240" unicode="&#237;" /><glyph d="M112 0V489H128V0ZM120 489ZM39 587 114 721H129L204 587H186L121 702L56 587ZM120 489Z" glyph-name="icircumflex" horiz-adv-x="240" unicode="&#238;" /><glyph d="M112 0V489H128V0ZM120 489ZM43 654Q43 645 49 639Q55 633 64 633Q73 633 79 639Q85 645 85 654Q85 663 79 669Q73 675 64 675Q55 675 49 669Q43 663 43 654ZM155 654Q155 645 161 639Q167 633 176 633Q185 633 191 639Q197 645 197 654Q197 663 191 669Q185 675 176 675Q167 675 161 669Q155 663 155 654ZM120 489Z" glyph-name="idieresis" horiz-adv-x="240" unicode="&#239;" /><glyph d="M112 0V489H128V0ZM120 489ZM129 587 43 721H24L111 587ZM120 489Z" glyph-name="igrave" horiz-adv-x="240" unicode="&#236;" /><glyph d="M112 0V489H128V0ZM141 691Q141 700 135 706Q129 712 120 712Q111 712 105 706Q99 700 99 691Q99 682 105 676Q111 670 120 670Q129 670 135 676Q141 682 141 691ZM113 0ZM385 691Q385 700 379 706Q373 712 364 712Q355 712 349 706Q343 700 343 691Q343 682 349 676Q355 670 364 670Q373 670 379 676Q385 682 385 691ZM356 489H372V-91Q372 -159 340.5 -194.5Q309 -230 247 -230Q231 -230 217 -227.5Q203 -225 189 -220L194 -206Q205 -211 218 -213Q231 -215 247 -215Q301 -215 328.5 -184Q356 -153 356 -91Z" glyph-name="ij" horiz-adv-x="484" unicode="&#307;" /><glyph d="M112 0V489H128V0ZM120 489ZM243 646H-3V661H243ZM120 489Z" glyph-name="imacron" horiz-adv-x="240" unicode="&#299;" /><glyph d="M604 410Q661 410 697.5 368.5Q734 327 734 260Q734 193 697.5 151.5Q661 110 604 110Q575 110 547.5 122Q520 134 490 160Q478 170 464 184.5Q450 199 403 252Q357 197 344 183Q331 169 320 158Q293 132 267 121Q241 110 210 110Q152 110 116 151.5Q80 193 80 260Q80 327 116 368.5Q152 410 210 410Q255 410 293.5 386Q332 362 403 277Q477 362 516.5 386Q556 410 604 410ZM210 395Q159 395 127.5 358Q96 321 96 260Q96 199 127.5 162Q159 125 210 125Q240 125 264.5 136Q289 147 315 173Q323 181 342.5 204Q362 227 393 265Q321 351 286 373Q251 395 210 395ZM718 260Q718 320 686.5 357.5Q655 395 604 395Q573 395 547 385Q521 375 495 352Q481 341 465.5 324.5Q450 308 413 264Q485 179 525.5 152Q566 125 604 125Q655 125 686.5 162.5Q718 200 718 260Z" glyph-name="infinity" horiz-adv-x="814" unicode="&#8734;" /><glyph d="M189 603V-91Q189 -159 157.5 -194.5Q126 -230 64 -230Q47 -230 30.5 -226.5Q14 -223 -1 -217L4 -203Q17 -209 32 -212Q47 -215 64 -215Q118 -215 145.5 -184Q173 -153 173 -91V603Q173 671 204.5 706.5Q236 742 298 742Q315 742 331.5 738.5Q348 735 363 729L358 715Q345 721 330 724Q315 727 298 727Q244 727 216.5 696Q189 665 189 603Z" glyph-name="integral" horiz-adv-x="360" unicode="&#8747;" /><glyph d="M99 691Q99 700 105 706Q111 712 120 712Q129 712 135 706Q141 700 141 691Q141 682 135 676Q129 670 120 670Q111 670 105 676Q99 682 99 691ZM112 489H128V0Q68 -30 36 -64Q4 -98 4 -132Q4 -163 23.5 -180.5Q43 -198 76 -198Q89 -198 101 -195Q113 -192 124 -187V-203Q114 -208 102 -210.5Q90 -213 73 -213Q34 -213 11 -190.5Q-12 -168 -12 -134Q-12 -95 20.5 -58.5Q53 -22 112 6Z" glyph-name="iogonek" horiz-adv-x="240" unicode="&#303;" /><glyph d="M112 0V489H128V0ZM120 489ZM172 616Q202 616 217.5 634.5Q233 653 234 690H218Q217 661 205.5 646Q194 631 172 631Q161 631 149.5 636.5Q138 642 117 659Q92 680 77 686.5Q62 693 47 693Q17 693 1 673Q-15 653 -16 614H0Q0 645 12 661.5Q24 678 47 678Q61 678 74.5 672Q88 666 110 647Q132 628 145 622Q158 616 172 616ZM120 489Z" glyph-name="itilde" horiz-adv-x="240" unicode="&#297;" /><glyph d="M145 691Q145 700 139 706Q133 712 124 712Q115 712 109 706Q103 700 103 691Q103 682 109 676Q115 670 124 670Q133 670 139 676Q145 682 145 691ZM116 489H132V-91Q132 -159 100.5 -194.5Q69 -230 7 -230Q-9 -230 -23 -227.5Q-37 -225 -51 -220L-46 -206Q-35 -211 -22 -213Q-9 -215 7 -215Q61 -215 88.5 -184Q116 -153 116 -91Z" glyph-name="j" horiz-adv-x="244" unicode="j" /><glyph d="M116 489H132V-91Q132 -159 100.5 -194.5Q69 -230 7 -230Q-9 -230 -23 -227.5Q-37 -225 -51 -220L-46 -206Q-35 -211 -22 -213Q-9 -215 7 -215Q61 -215 88.5 -184Q116 -153 116 -91ZM124 489ZM43 587 118 721H133L208 587H190L125 702L60 587ZM124 489Z" glyph-name="jcircumflex" horiz-adv-x="244" unicode="&#309;" /><glyph d="M280 311 507 0H487L268 300L128 180V0H112V730H128V199L461 489H483ZM304 0Z" glyph-name="k" horiz-adv-x="532" unicode="k" /><glyph d="M112 0V489H128V199L461 489H483L280 311L507 0H487L268 300L128 180V0Z" glyph-name="kgreenlandic" horiz-adv-x="532" /><glyph d="M112 0V730H128V0ZM120 730ZM203 700ZM182 350ZM120 0Z" glyph-name="l" horiz-adv-x="240" unicode="l" /><glyph d="M112 0V730H128V0ZM120 730ZM203 700ZM182 350ZM120 0ZM216 962H197L111 828H129ZM120 730Z" glyph-name="lacute" horiz-adv-x="240" unicode="&#314;" /><glyph d="M112 0V730H128V0ZM120 730ZM203 700ZM182 350ZM120 0ZM299 730H281L237 616H250ZM203 700Z" glyph-name="lcaron" horiz-adv-x="280" unicode="&#318;" /><glyph d="M112 0V730H128V0ZM120 730ZM203 700ZM182 350ZM120 0ZM218 348Q218 339 224.5 332.5Q231 326 240 326Q249 326 255.5 332.5Q262 339 262 348Q262 357 255.5 363.5Q249 370 240 370Q231 370 224.5 363.5Q218 357 218 348ZM218 350Z" glyph-name="ldot" horiz-adv-x="232" unicode="&#320;" /><glyph d="M41 365V380L491 569V552L63 373L491 193V176Z" glyph-name="less" horiz-adv-x="580" unicode="&lt;" /><glyph d="M512 141 62 330V345L512 534V517L84 338L512 158ZM62 0V15H512V0Z" glyph-name="lessequal" horiz-adv-x="580" unicode="&#8804;" /><glyph d="M112 0V730H128V0ZM120 730ZM203 700ZM182 350ZM120 0ZM352 0V730H368V0ZM360 730ZM443 700ZM422 350ZM360 0ZM218 348Q218 339 224.5 332.5Q231 326 240 326Q249 326 255.5 332.5Q262 339 262 348Q262 357 255.5 363.5Q249 370 240 370Q231 370 224.5 363.5Q218 357 218 348ZM218 350Z" glyph-name="lgeminada" horiz-adv-x="480" /><glyph d="M67 353V368H499V134H483V353Z" glyph-name="logicalnot" horiz-adv-x="580" unicode="&#172;" /><glyph d="M139 0H123V474H29V489H123V603Q123 671 154.5 706.5Q186 742 248 742Q265 742 281.5 738.5Q298 735 313 729L308 715Q295 721 280 724Q265 727 248 727Q194 727 166.5 696Q139 665 139 603Z" glyph-name="longs" horiz-adv-x="271" unicode="&#383;" /><glyph d="M139 0H123V474H29V489H123V603Q123 671 154.5 706.5Q186 742 248 742Q265 742 281.5 738.5Q298 735 313 729L308 715Q295 721 280 724Q265 727 248 727Q194 727 166.5 696Q139 665 139 603ZM390 474H300V489H390V694L406 700V489H577V474H406V119Q406 61 433.5 32Q461 3 515 3Q535 3 555 9Q575 15 593 27L600 14Q580 1 559 -5.5Q538 -12 515 -12Q453 -12 421.5 21Q390 54 390 119ZM497 10ZM415 0ZM481 700Z" glyph-name="longs_t" horiz-adv-x="615" unicode="&#64261;" /><glyph d="M233 0 53 350 233 700H255L435 350L255 0ZM244 688 71 350 244 12 417 350Z" glyph-name="lozenge" horiz-adv-x="488" unicode="&#9674;" /><glyph d="M41 315 34 328 165 398V730H181V407L313 477L319 463L181 390V0H165V381Z" glyph-name="lslash" horiz-adv-x="341" unicode="&#322;" /><glyph d="M472 274V0H456V309Q456 385 412.5 435.5Q369 486 297 486Q217 486 172.5 428.5Q128 371 128 274V0H112V489H127V372Q147 435 190.5 468Q234 501 297 501Q363 501 408 462Q453 423 467 358Q485 427 529.5 464Q574 501 640 501Q719 501 767 446.5Q815 392 815 309V0H799V309Q799 385 755.5 435.5Q712 486 640 486Q561 486 516.5 428.5Q472 371 472 274ZM112 588ZM331 489ZM308 0Z" glyph-name="m" horiz-adv-x="917" unicode="m" /><glyph d="M317 646H71V661H317ZM194 489Z" glyph-name="macron" horiz-adv-x="385" unicode="&#175;" /><glyph d="M317 846H71V861H317ZM194 700Z" glyph-name="macron.case" horiz-adv-x="385" /><glyph d="M74 343V359H506V343Z" glyph-name="minus" horiz-adv-x="580" unicode="&#8722;" /><glyph d="M116 -218V489H132V180Q132 101 177.5 52Q223 3 302 3Q388 3 436 60.5Q484 118 484 215V489H500V0H485V120Q464 56 417 22Q370 -12 302 -12Q240 -12 195.5 17Q151 46 130 99L132 -78V-218Z" glyph-name="mu" horiz-adv-x="616" unicode="&#181;" /><glyph d="M114 164 103 175 278 350 103 525 114 536 290 361 465 536 476 525 301 350 476 175 465 164 290 339Z" glyph-name="multiply" horiz-adv-x="580" unicode="&#215;" /><glyph d="M112 0V489H127V367Q148 432 196.5 466.5Q245 501 315 501Q402 501 454.5 446Q507 391 507 309V0H491V309Q491 385 443 435.5Q395 486 315 486Q227 486 177.5 428.5Q128 371 128 274V0ZM112 588ZM310 489ZM308 0Z" glyph-name="n" horiz-adv-x="609" unicode="n" /><glyph d="M112 0V489H127V367Q148 432 196.5 466.5Q245 501 315 501Q402 501 454.5 446Q507 391 507 309V0H491V309Q491 385 443 435.5Q395 486 315 486Q227 486 177.5 428.5Q128 371 128 274V0ZM112 588ZM310 489ZM308 0ZM408 721H389L303 587H321ZM312 489Z" glyph-name="nacute" horiz-adv-x="609" unicode="&#324;" /><glyph d="M112 0V489H127V367Q148 432 196.5 466.5Q245 501 315 501Q402 501 454.5 446Q507 391 507 309V0H491V309Q491 385 443 435.5Q395 486 315 486Q227 486 177.5 428.5Q128 371 128 274V0ZM112 588ZM310 489ZM308 0ZM134 723H116L64 588H77ZM130 799ZM114 588Z" glyph-name="napostrophe" horiz-adv-x="609" unicode="&#329;" /><glyph d="M112 0V489H127V367Q148 432 196.5 466.5Q245 501 315 501Q402 501 454.5 446Q507 391 507 309V0H491V309Q491 385 443 435.5Q395 486 315 486Q227 486 177.5 428.5Q128 371 128 274V0ZM112 588ZM310 489ZM308 0ZM311 587H296L221 721H239L304 606L369 721H386ZM302 489Z" glyph-name="ncaron" horiz-adv-x="609" unicode="&#328;" /><glyph d="M256 290Q162 290 106 345Q50 400 50 494Q50 589 110 650.5Q170 712 261 712Q355 712 413 650.5Q471 589 471 490Q471 444 453.5 394Q436 344 393 272L232 0H215L381 283Q407 327 412.5 338.5Q418 350 423 360Q394 326 351.5 308Q309 290 256 290ZM263 305Q349 305 402 357Q455 409 455 492Q455 582 401.5 639.5Q348 697 262 697Q177 697 121.5 638Q66 579 66 489Q66 404 118.5 354.5Q171 305 263 305Z" glyph-name="nine" horiz-adv-x="538" unicode="9" /><glyph d="M141 145Q94 145 66 172.5Q38 200 38 247Q38 294 67.5 325Q97 356 143 356Q190 356 219 325.5Q248 295 248 245Q248 222 239.5 197Q231 172 209 136L129 0H113L214 172Q200 158 182 151.5Q164 145 141 145ZM144 158Q183 158 208.5 182Q234 206 234 246Q234 289 209 316Q184 343 144 343Q104 343 78 315.5Q52 288 52 245Q52 205 77 181.5Q102 158 144 158Z" glyph-name="nine.denominator" horiz-adv-x="293" unicode="&#63070;" /><glyph d="M141 5Q94 5 66 32.5Q38 60 38 107Q38 154 67.5 185Q97 216 143 216Q190 216 219 185.5Q248 155 248 105Q248 82 239.5 57Q231 32 209 -4L129 -140H113L214 32Q200 18 182 11.5Q164 5 141 5ZM144 18Q183 18 208.5 42Q234 66 234 106Q234 149 209 176Q184 203 144 203Q104 203 78 175.5Q52 148 52 105Q52 65 77 41.5Q102 18 144 18Z" glyph-name="nine.inferior" horiz-adv-x="293" unicode="&#8329;" /><glyph d="M141 495Q94 495 66 522.5Q38 550 38 597Q38 644 67.5 675Q97 706 143 706Q190 706 219 675.5Q248 645 248 595Q248 572 239.5 547Q231 522 209 486L129 350H113L214 522Q200 508 182 501.5Q164 495 141 495ZM144 508Q183 508 208.5 532Q234 556 234 596Q234 639 209 666Q184 693 144 693Q104 693 78 665.5Q52 638 52 595Q52 555 77 531.5Q102 508 144 508Z" glyph-name="nine.numerator" horiz-adv-x="293" unicode="&#63082;" /><glyph d="M141 635Q94 635 66 662.5Q38 690 38 737Q38 784 67.5 815Q97 846 143 846Q190 846 219 815.5Q248 785 248 735Q248 712 239.5 687Q231 662 209 626L129 490H113L214 662Q200 648 182 641.5Q164 635 141 635ZM144 648Q183 648 208.5 672Q234 696 234 736Q234 779 209 806Q184 833 144 833Q104 833 78 805.5Q52 778 52 735Q52 695 77 671.5Q102 648 144 648Z" glyph-name="nine.superior" horiz-adv-x="293" unicode="&#8313;" /><glyph d="M267 290Q173 290 117 345Q61 400 61 494Q61 589 121 650.5Q181 712 272 712Q366 712 424 650.5Q482 589 482 490Q482 444 464.5 394Q447 344 404 272L243 0H226L392 283Q418 327 423.5 338.5Q429 350 434 360Q405 326 362.5 308Q320 290 267 290ZM274 305Q360 305 413 357Q466 409 466 492Q466 582 412.5 639.5Q359 697 273 697Q188 697 132.5 638Q77 579 77 489Q77 404 129.5 354.5Q182 305 274 305Z" glyph-name="nine.tab" horiz-adv-x="560" unicode="&#65305;" /><glyph d="M168 171H149L205 251H74V267H216L333 433H74V449H344L401 530H420L363 449H506V433H352L235 267H506V251H224Z" glyph-name="notequal" horiz-adv-x="580" unicode="&#8800;" /><glyph d="M112 0V489H127V367Q148 432 196.5 466.5Q245 501 315 501Q402 501 454.5 446Q507 391 507 309V0H491V309Q491 385 443 435.5Q395 486 315 486Q227 486 177.5 428.5Q128 371 128 274V0ZM112 588ZM310 489ZM308 0ZM364 616Q394 616 409.5 634.5Q425 653 426 690H410Q409 661 397.5 646Q386 631 364 631Q353 631 341.5 636.5Q330 642 309 659Q284 680 269 686.5Q254 693 239 693Q209 693 193 673Q177 653 176 614H192Q192 645 204 661.5Q216 678 239 678Q253 678 266.5 672Q280 666 302 647Q324 628 337 622Q350 616 364 616ZM312 489Z" glyph-name="ntilde" horiz-adv-x="609" unicode="&#241;" /><glyph d="M222 218V0H206V218H65V233H206V446H65V461H206V700H222V461H448V700H464V461H605V446H464V233H605V218H464V0H448V218ZM222 446V233H448V446Z" glyph-name="numbersign" horiz-adv-x="670" unicode="#" /><glyph d="M64 245Q64 356 131 428.5Q198 501 299 501Q400 501 467 428.5Q534 356 534 245Q534 134 466.5 61Q399 -12 299 -12Q198 -12 131 61Q64 134 64 245ZM518 245Q518 349 455.5 417.5Q393 486 299 486Q204 486 142 418Q80 350 80 245Q80 140 142.5 71.5Q205 3 299 3Q393 3 455.5 71.5Q518 140 518 245ZM298 489Z" glyph-name="o" horiz-adv-x="598" unicode="o" /><glyph d="M64 245Q64 356 131 428.5Q198 501 299 501Q400 501 467 428.5Q534 356 534 245Q534 134 466.5 61Q399 -12 299 -12Q198 -12 131 61Q64 134 64 245ZM518 245Q518 349 455.5 417.5Q393 486 299 486Q204 486 142 418Q80 350 80 245Q80 140 142.5 71.5Q205 3 299 3Q393 3 455.5 71.5Q518 140 518 245ZM298 489ZM395 721H376L290 587H308ZM299 489Z" glyph-name="oacute" horiz-adv-x="598" unicode="&#243;" /><glyph d="M64 245Q64 356 131 428.5Q198 501 299 501Q400 501 467 428.5Q534 356 534 245Q534 134 466.5 61Q399 -12 299 -12Q198 -12 131 61Q64 134 64 245ZM518 245Q518 349 455.5 417.5Q393 486 299 486Q204 486 142 418Q80 350 80 245Q80 140 142.5 71.5Q205 3 299 3Q393 3 455.5 71.5Q518 140 518 245ZM298 489ZM299 600Q347 600 373.5 633Q400 666 400 721H416Q415 659 384.5 622Q354 585 299 585Q244 585 213.5 622Q183 659 182 721H198Q198 667 224.5 633.5Q251 600 299 600ZM299 489Z" glyph-name="obreve" horiz-adv-x="598" unicode="&#335;" /><glyph d="M64 245Q64 356 131 428.5Q198 501 299 501Q400 501 467 428.5Q534 356 534 245Q534 134 466.5 61Q399 -12 299 -12Q198 -12 131 61Q64 134 64 245ZM518 245Q518 349 455.5 417.5Q393 486 299 486Q204 486 142 418Q80 350 80 245Q80 140 142.5 71.5Q205 3 299 3Q393 3 455.5 71.5Q518 140 518 245ZM298 489ZM218 587 293 721H308L383 587H365L300 702L235 587ZM299 489Z" glyph-name="ocircumflex" horiz-adv-x="598" unicode="&#244;" /><glyph d="M64 245Q64 356 131 428.5Q198 501 299 501Q400 501 467 428.5Q534 356 534 245Q534 134 466.5 61Q399 -12 299 -12Q198 -12 131 61Q64 134 64 245ZM518 245Q518 349 455.5 417.5Q393 486 299 486Q204 486 142 418Q80 350 80 245Q80 140 142.5 71.5Q205 3 299 3Q393 3 455.5 71.5Q518 140 518 245ZM298 489ZM222 654Q222 645 228 639Q234 633 243 633Q252 633 258 639Q264 645 264 654Q264 663 258 669Q252 675 243 675Q234 675 228 669Q222 663 222 654ZM334 654Q334 645 340 639Q346 633 355 633Q364 633 370 639Q376 645 376 654Q376 663 370 669Q364 675 355 675Q346 675 340 669Q334 663 334 654ZM299 489Z" glyph-name="odieresis" horiz-adv-x="598" unicode="&#246;" /><glyph d="M64 245Q64 356 131 428.5Q198 501 299 501Q383 501 445.5 447.5Q508 394 526 307Q542 395 601.5 448Q661 501 742 501Q831 501 888.5 438Q946 375 946 275Q946 269 945 258Q944 247 943 245H534Q534 133 593 68Q652 3 753 3Q810 3 857.5 35Q905 67 932 124L946 117Q917 57 865.5 22.5Q814 -12 753 -12Q662 -12 602 39Q542 90 525 181Q507 94 444.5 41Q382 -12 299 -12Q198 -12 131 61Q64 134 64 245ZM742 486Q656 486 597.5 423Q539 360 534 260H929Q935 358 881.5 422Q828 486 742 486ZM518 245Q518 349 455.5 417.5Q393 486 299 486Q204 486 142 418Q80 350 80 245Q80 140 142.5 71.5Q205 3 299 3Q393 3 455.5 71.5Q518 140 518 245Z" glyph-name="oe" horiz-adv-x="1011" unicode="&#339;" /><glyph d="M183 -213Q144 -213 121 -190.5Q98 -168 98 -134Q98 -94 133 -56Q168 -18 232 11L238 0Q178 -30 146 -64Q114 -98 114 -132Q114 -163 133.5 -180.5Q153 -198 186 -198Q199 -198 211 -195Q223 -192 234 -187V-203Q224 -208 212 -210.5Q200 -213 183 -213ZM223 0Z" glyph-name="ogonek" horiz-adv-x="382" unicode="&#731;" /><glyph d="M64 245Q64 356 131 428.5Q198 501 299 501Q400 501 467 428.5Q534 356 534 245Q534 134 466.5 61Q399 -12 299 -12Q198 -12 131 61Q64 134 64 245ZM518 245Q518 349 455.5 417.5Q393 486 299 486Q204 486 142 418Q80 350 80 245Q80 140 142.5 71.5Q205 3 299 3Q393 3 455.5 71.5Q518 140 518 245ZM298 489ZM308 587 222 721H203L290 587ZM299 489Z" glyph-name="ograve" horiz-adv-x="598" unicode="&#242;" /><glyph d="M64 245Q64 356 131 428.5Q198 501 299 501Q400 501 467 428.5Q534 356 534 245Q534 134 466.5 61Q399 -12 299 -12Q198 -12 131 61Q64 134 64 245ZM518 245Q518 349 455.5 417.5Q393 486 299 486Q204 486 142 418Q80 350 80 245Q80 140 142.5 71.5Q205 3 299 3Q393 3 455.5 71.5Q518 140 518 245ZM298 489ZM353 721H334L238 587H256ZM431 721H412L316 587H334ZM299 489Z" glyph-name="ohungarumlaut" horiz-adv-x="598" unicode="&#337;" /><glyph d="M64 245Q64 356 131 428.5Q198 501 299 501Q400 501 467 428.5Q534 356 534 245Q534 134 466.5 61Q399 -12 299 -12Q198 -12 131 61Q64 134 64 245ZM518 245Q518 349 455.5 417.5Q393 486 299 486Q204 486 142 418Q80 350 80 245Q80 140 142.5 71.5Q205 3 299 3Q393 3 455.5 71.5Q518 140 518 245ZM298 489ZM422 646H176V661H422ZM299 489Z" glyph-name="omacron" horiz-adv-x="598" unicode="&#333;" /><glyph d="M87 0V15H233V660Q204 610 161 588Q118 566 52 566V581Q121 581 164 607.5Q207 634 235 700H249V15H395V0Z" glyph-name="one" horiz-adv-x="416" unicode="1" /><glyph d="M220 700H234V0H218V660Q189 610 146 588Q103 566 37 566V581Q106 581 149 607.5Q192 634 220 700Z" glyph-name="one.alt" horiz-adv-x="358" /><glyph d="M54 0V13H133V319Q117 296 92.5 284Q68 272 37 272V285Q72 285 96.5 301.5Q121 318 134 350H147V13H225V0Z" glyph-name="one.denominator" horiz-adv-x="250" unicode="&#63062;" /><glyph d="M54 -140V-127H133V179Q117 156 92.5 144Q68 132 37 132V145Q72 145 96.5 161.5Q121 178 134 210H147V-127H225V-140Z" glyph-name="one.inferior" horiz-adv-x="250" unicode="&#8321;" /><glyph d="M54 350V363H133V669Q117 646 92.5 634Q68 622 37 622V635Q72 635 96.5 651.5Q121 668 134 700H147V363H225V350Z" glyph-name="one.numerator" horiz-adv-x="250" unicode="&#63074;" /><glyph d="M159 0V15H305V660Q276 610 233 588Q190 566 124 566V581Q193 581 236 607.5Q279 634 307 700H321V15H467V0Z" glyph-name="one.tab" horiz-adv-x="560" unicode="&#65297;" /><glyph d="M589 0H367V16L483 137Q486 140 506 160Q526 180 536 193Q550 211 556.5 228Q563 245 563 263Q563 299 540 321Q517 343 478 343Q439 343 412 319Q385 295 378 252L365 254Q374 302 404 329Q434 356 478 356Q523 356 550 330Q577 304 577 263Q577 243 569.5 224Q562 205 546 185Q536 171 514 149.5Q492 128 488 123L384 13H589ZM71 350V363H150V669Q134 646 109.5 634Q85 622 54 622V635Q89 635 113.5 651.5Q138 668 151 700H164V363H242V350ZM160 0H143L488 700H505Z" glyph-name="onehalf" horiz-adv-x="639" unicode="&#189;" /><glyph d="M513 110V209L527 214V110H589V97H527V0H513V97H322V112L500 350H517L338 110ZM71 350V363H150V669Q134 646 109.5 634Q85 622 54 622V635Q89 635 113.5 651.5Q138 668 151 700H164V363H242V350ZM160 0H143L488 700H505Z" glyph-name="onequarter" horiz-adv-x="628" unicode="&#188;" /><glyph d="M53 490V503H132V809Q116 786 91.5 774Q67 762 36 762V775Q71 775 95.5 791.5Q120 808 133 840H146V503H224V490Z" glyph-name="onesuperior" horiz-adv-x="250" unicode="&#185;" /><glyph d="M280 623V452H267V515Q254 482 226.5 464Q199 446 160 446Q121 446 99.5 463Q78 480 78 509Q78 537 95.5 554.5Q113 572 149 581L266 610V623Q266 657 246.5 675Q227 693 190 693Q161 693 135.5 677.5Q110 662 92 634L81 642Q101 672 129 689Q157 706 190 706Q234 706 257 684.5Q280 663 280 623ZM92 509Q92 486 110 472.5Q128 459 160 459Q209 459 237.5 491Q266 523 266 577V596L151 568Q121 561 106.5 546.5Q92 532 92 509Z" glyph-name="ordfeminine" horiz-adv-x="371" unicode="&#170;" /><glyph d="M314 576Q314 633 280 669.5Q246 706 193 706Q140 706 105.5 669.5Q71 633 71 576Q71 519 105.5 482.5Q140 446 193 446Q246 446 280 482.5Q314 519 314 576ZM85 576Q85 628 115.5 660.5Q146 693 193 693Q240 693 270 660.5Q300 628 300 576Q300 525 270 492Q240 459 193 459Q146 459 115.5 492Q85 525 85 576Z" glyph-name="ordmasculine" horiz-adv-x="385" unicode="&#186;" /><glyph d="M165 31 84 -88H67L154 40Q111 75 87.5 128.5Q64 182 64 245Q64 356 131 428.5Q198 501 299 501Q337 501 372.5 489Q408 477 438 454L518 571H535L449 446Q490 410 512 358Q534 306 534 245Q534 134 466.5 61Q399 -12 299 -12Q262 -12 228 -1Q194 10 165 31ZM299 486Q204 486 142 418Q80 350 80 245Q80 186 101.5 136Q123 86 163 52L429 442Q401 463 368 474.5Q335 486 299 486ZM299 3Q393 3 455.5 71.5Q518 140 518 245Q518 302 497.5 350.5Q477 399 440 433L174 43Q200 23 232 13Q264 3 299 3Z" glyph-name="oslash" horiz-adv-x="598" unicode="&#248;" /><glyph d="M64 245Q64 356 131 428.5Q198 501 299 501Q400 501 467 428.5Q534 356 534 245Q534 134 466.5 61Q399 -12 299 -12Q198 -12 131 61Q64 134 64 245ZM518 245Q518 349 455.5 417.5Q393 486 299 486Q204 486 142 418Q80 350 80 245Q80 140 142.5 71.5Q205 3 299 3Q393 3 455.5 71.5Q518 140 518 245ZM298 489ZM351 616Q381 616 396.5 634.5Q412 653 413 690H397Q396 661 384.5 646Q373 631 351 631Q340 631 328.5 636.5Q317 642 296 659Q271 680 256 686.5Q241 693 226 693Q196 693 180 673Q164 653 163 614H179Q179 645 191 661.5Q203 678 226 678Q240 678 253.5 672Q267 666 289 647Q311 628 324 622Q337 616 351 616ZM299 489Z" glyph-name="otilde" horiz-adv-x="598" unicode="&#245;" /><glyph d="M333 501Q431 501 490.5 430.5Q550 360 550 246Q550 130 490 59Q430 -12 330 -12Q258 -12 205 30Q152 72 128 146V-218H112V489H127V338Q150 414 204.5 457.5Q259 501 333 501ZM534 246Q534 353 479 419.5Q424 486 333 486Q241 486 184 417Q127 348 127 243Q127 141 183.5 72Q240 3 330 3Q423 3 478.5 69.5Q534 136 534 246Z" glyph-name="p" horiz-adv-x="616" unicode="p" /><glyph d="M267 700H465V-218H449V685H311V-218H295V276H267Q167 276 101.5 338.5Q36 401 36 493Q36 584 99.5 642Q163 700 267 700ZM52 493Q52 406 114 348.5Q176 291 272 291H295V685H256Q168 685 110 630Q52 575 52 493Z" glyph-name="paragraph" horiz-adv-x="592" unicode="&#182;" /><glyph d="M82 314Q82 194 133 94.5Q184 -5 297 -99L287 -111Q170 -13 118 88.5Q66 190 66 314Q66 438 118.5 540Q171 642 287 739L297 727Q184 633 133 533.5Q82 434 82 314Z" glyph-name="parenleft" horiz-adv-x="323" unicode="(" /><glyph d="M241 314Q241 434 190 533.5Q139 633 26 727L36 739Q153 641 205 539.5Q257 438 257 314Q257 190 204.5 88Q152 -14 36 -111L26 -99Q139 -5 190 94.5Q241 194 241 314Z" glyph-name="parenright" horiz-adv-x="323" unicode=")" /><glyph d="M290 -12Q189 -12 127.5 48.5Q66 109 66 208Q66 305 126.5 366.5Q187 428 283 428Q361 428 417 394Q473 360 501 297Q501 301 501.5 338.5Q502 376 501 403Q500 433 497 459.5Q494 486 489 509Q483 538 473.5 562.5Q464 587 451 607Q435 631 415.5 648Q396 665 371 677Q349 687 323 692Q297 697 267 697Q223 697 182.5 680Q142 663 111 632L100 643Q131 675 175 693.5Q219 712 267 712Q321 712 363.5 696Q406 680 437 648Q464 619 482.5 577.5Q501 536 509 481Q513 458 515 432Q517 406 517 295Q517 149 457 68.5Q397 -12 290 -12ZM283 413Q194 413 138 355.5Q82 298 82 208Q82 115 139 59Q196 3 290 3Q383 3 437.5 69.5Q492 136 500 259Q478 334 422.5 373.5Q367 413 283 413Z" glyph-name="partialdiff" horiz-adv-x="606" unicode="&#8706;" /><glyph d="M374 175Q374 91 405.5 42.5Q437 -6 493 -6Q550 -6 581.5 42Q613 90 613 175Q613 260 581.5 308Q550 356 493 356Q437 356 405.5 307.5Q374 259 374 175ZM599 175Q599 96 571.5 51.5Q544 7 493 7Q443 7 415.5 51.5Q388 96 388 175Q388 254 415.5 298.5Q443 343 493 343Q544 343 571.5 298.5Q599 254 599 175ZM55 525Q55 441 86.5 392.5Q118 344 174 344Q231 344 262.5 392Q294 440 294 525Q294 610 262.5 658Q231 706 174 706Q118 706 86.5 657.5Q55 609 55 525ZM280 525Q280 446 252.5 401.5Q225 357 174 357Q124 357 96.5 401.5Q69 446 69 525Q69 604 96.5 648.5Q124 693 174 693Q225 693 252.5 648.5Q280 604 280 525ZM170 0H153L498 700H515Z" glyph-name="percent" horiz-adv-x="668" unicode="%" /><glyph d="M84 10Q84 1 90.5 -5.5Q97 -12 106 -12Q115 -12 121.5 -5.5Q128 1 128 10Q128 19 121.5 25.5Q115 32 106 32Q97 32 90.5 25.5Q84 19 84 10ZM84 12Z" glyph-name="period" horiz-adv-x="212" unicode="." /><glyph d="M87 307Q87 298 93.5 291.5Q100 285 109 285Q118 285 124.5 291.5Q131 298 131 307Q131 316 124.5 322.5Q118 329 109 329Q100 329 93.5 322.5Q87 316 87 307ZM87 309Z" glyph-name="periodcentered" horiz-adv-x="218" unicode="&#183;" /><glyph d="M55 525Q55 441 86.5 392.5Q118 344 174 344Q231 344 262.5 392Q294 440 294 525Q294 610 262.5 658Q231 706 174 706Q118 706 86.5 657.5Q55 609 55 525ZM280 525Q280 446 252.5 401.5Q225 357 174 357Q124 357 96.5 401.5Q69 446 69 525Q69 604 96.5 648.5Q124 693 174 693Q225 693 252.5 648.5Q280 604 280 525ZM170 0H153L498 700H515ZM374 175Q374 91 405.5 42.5Q437 -6 493 -6Q550 -6 581.5 42Q613 90 613 175Q613 260 581.5 308Q550 356 493 356Q437 356 405.5 307.5Q374 259 374 175ZM599 175Q599 96 571.5 51.5Q544 7 493 7Q443 7 415.5 51.5Q388 96 388 175Q388 254 415.5 298.5Q443 343 493 343Q544 343 571.5 298.5Q599 254 599 175ZM675 175Q675 91 706.5 42.5Q738 -6 794 -6Q851 -6 882.5 42Q914 90 914 175Q914 260 882.5 308Q851 356 794 356Q738 356 706.5 307.5Q675 259 675 175ZM900 175Q900 96 872.5 51.5Q845 7 794 7Q744 7 716.5 51.5Q689 96 689 175Q689 254 716.5 298.5Q744 343 794 343Q845 343 872.5 298.5Q900 254 900 175Z" glyph-name="perthousand" horiz-adv-x="963" unicode="&#8240;" /><glyph d="M26 489H526V474H428V0H412V474H140V0H124V474H26Z" glyph-name="pi" horiz-adv-x="552" unicode="&#960;" /><glyph d="M298 134H283V343H74V359H283V566H298V359H506V343H298Z" glyph-name="plus" horiz-adv-x="580" unicode="+" /><glyph d="M298 134H283V343H74V359H283V566H298V359H506V343H298ZM74 10V26H506V10Z" glyph-name="plusminus" horiz-adv-x="580" unicode="&#177;" /><glyph d="M34 700H545V685H418V0H402V685H175V0H159V685H34Z" glyph-name="product" horiz-adv-x="578" unicode="&#8719;" /><glyph d="M283 -12Q185 -12 125.5 58.5Q66 129 66 243Q66 359 126 430Q186 501 286 501Q359 501 412 458Q465 415 489 340V489H504V-218H488V147Q464 73 410 30.5Q356 -12 283 -12ZM82 243Q82 136 137 69.5Q192 3 283 3Q375 3 432 72Q489 141 489 246Q489 348 432.5 417Q376 486 286 486Q193 486 137.5 419.5Q82 353 82 243Z" glyph-name="q" horiz-adv-x="616" unicode="q" /><glyph d="M220 201V154H204V201Q204 246 225.5 286Q247 326 292 362Q351 410 377 454Q403 498 403 546Q403 612 359.5 654Q316 696 241 696Q174 696 127.5 658.5Q81 621 53 545L39 550Q69 632 119.5 672Q170 712 241 712Q323 712 371 665.5Q419 619 419 546Q419 496 392 449.5Q365 403 302 350Q260 315 240 278.5Q220 242 220 201ZM190 10Q190 1 196.5 -5.5Q203 -12 212 -12Q221 -12 227.5 -5.5Q234 1 234 10Q234 19 227.5 25.5Q221 32 212 32Q203 32 196.5 25.5Q190 19 190 10Z" glyph-name="question" horiz-adv-x="470" unicode="?" /><glyph d="M246 287V334H262V287Q262 242 240.5 202Q219 162 174 126Q115 78 89 34Q63 -10 63 -58Q63 -124 106.5 -166Q150 -208 225 -208Q292 -208 338.5 -170.5Q385 -133 413 -57L427 -62Q397 -144 346.5 -184Q296 -224 225 -224Q143 -224 95 -177.5Q47 -131 47 -58Q47 -8 74 38.5Q101 85 164 138Q206 173 226 209.5Q246 246 246 287ZM276 478Q276 487 269.5 493.5Q263 500 254 500Q245 500 238.5 493.5Q232 487 232 478Q232 469 238.5 462.5Q245 456 254 456Q263 456 269.5 462.5Q276 469 276 478Z" glyph-name="questiondown" horiz-adv-x="464" unicode="&#191;" /><glyph d="M193 700V481H177V700ZM107 700V481H91V700Z" glyph-name="quotedbl" horiz-adv-x="284" unicode="&quot;" /><glyph d="M110 29H91L25 -190H41ZM227 29H208L142 -190H158Z" glyph-name="quotedblbase" horiz-adv-x="293" unicode="&#8222;" /><glyph d="M142 700 73 481H91L157 700ZM248 700 179 481H197L263 700Z" glyph-name="quotedblleft" horiz-adv-x="321" unicode="&#8220;" /><glyph d="M194 481 263 700H245L179 481ZM88 481 157 700H139L73 481Z" glyph-name="quotedblright" horiz-adv-x="319" unicode="&#8221;" /><glyph d="M142 700 73 481H91L157 700Z" glyph-name="quoteleft" horiz-adv-x="215" unicode="&#8216;" /><glyph d="M157 700H139L73 481H88Z" glyph-name="quoteright" horiz-adv-x="213" unicode="&#8217;" /><glyph d="M110 29H91L25 -190H41Z" glyph-name="quotesinglbase" horiz-adv-x="176" unicode="&#8218;" /><glyph d="M107 700V481H91V700Z" glyph-name="quotesingle" horiz-adv-x="198" unicode="'" /><glyph d="M112 0V489H127V352Q146 420 188.5 457Q231 494 290 494Q302 494 311 493Q320 492 330 490L328 476Q319 478 310.5 478.5Q302 479 290 479Q215 479 171.5 415.5Q128 352 128 245V0ZM220 489ZM120 0Z" glyph-name="r" horiz-adv-x="353" unicode="r" /><glyph d="M112 0V489H127V352Q146 420 188.5 457Q231 494 290 494Q302 494 311 493Q320 492 330 490L328 476Q319 478 310.5 478.5Q302 479 290 479Q215 479 171.5 415.5Q128 352 128 245V0ZM220 489ZM120 0ZM306 721H287L201 587H219ZM210 489Z" glyph-name="racute" horiz-adv-x="353" unicode="&#341;" /><glyph d="M31 374V389H170L281 24L482 700H497L289 0H272L159 374Z" glyph-name="radical" horiz-adv-x="529" unicode="&#8730;" /><glyph d="M112 0V489H127V352Q146 420 188.5 457Q231 494 290 494Q302 494 311 493Q320 492 330 490L328 476Q319 478 310.5 478.5Q302 479 290 479Q215 479 171.5 415.5Q128 352 128 245V0ZM220 489ZM120 0ZM219 587H204L129 721H147L212 606L277 721H294ZM210 489Z" glyph-name="rcaron" horiz-adv-x="353" unicode="&#345;" /><glyph d="M69 351Q69 501 174.5 606.5Q280 712 430 712Q580 712 685.5 606.5Q791 501 791 351Q791 201 685 94.5Q579 -12 430 -12Q281 -12 175 94.5Q69 201 69 351ZM775 351Q775 495 674 596Q573 697 430 697Q287 697 186 596Q85 495 85 351Q85 207 186 105Q287 3 430 3Q573 3 674 105Q775 207 775 351ZM324 174V524H442Q495 524 528 495.5Q561 467 561 423Q561 383 539 354Q517 325 479 315L561 174H543L462 311Q458 310 453.5 310Q449 310 440 310H340V174ZM545 423Q545 460 516.5 484.5Q488 509 442 509H340V325H440Q488 325 516.5 352Q545 379 545 423Z" glyph-name="registered" horiz-adv-x="860" unicode="&#174;" /><glyph d="M301 654Q301 694 272.5 723Q244 752 203 752Q161 752 133 723.5Q105 695 105 654Q105 613 133 585Q161 557 203 557Q244 557 272.5 585.5Q301 614 301 654ZM121 654Q121 689 145 713Q169 737 203 737Q237 737 261 712.5Q285 688 285 654Q285 620 261 596Q237 572 203 572Q168 572 144.5 596Q121 620 121 654ZM202 489Z" glyph-name="ring" horiz-adv-x="383" unicode="&#730;" /><glyph d="M301 854Q301 894 272.5 923Q244 952 203 952Q161 952 133 923.5Q105 895 105 854Q105 813 133 785Q161 757 203 757Q244 757 272.5 785.5Q301 814 301 854ZM121 854Q121 889 145 913Q169 937 203 937Q237 937 261 912.5Q285 888 285 854Q285 820 261 796Q237 772 203 772Q168 772 144.5 796Q121 820 121 854ZM203 700Z" glyph-name="ring.case" horiz-adv-x="383" /><glyph d="M421 128Q421 65 374 26.5Q327 -12 247 -12Q187 -12 135.5 8Q84 28 51 62L61 74Q93 41 141.5 22Q190 3 247 3Q319 3 362 37Q405 71 405 128Q405 172 375 199.5Q345 227 281 240L207 255Q140 269 108.5 299.5Q77 330 77 381Q77 433 117 467Q157 501 228 501Q285 501 331.5 481.5Q378 462 413 423L402 411Q366 450 323.5 468Q281 486 228 486Q165 486 129 456Q93 426 93 381Q93 336 121.5 309Q150 282 210 270L284 255Q357 240 389 209.5Q421 179 421 128ZM229 489ZM232 10ZM232 0Z" glyph-name="s" horiz-adv-x="483" unicode="s" /><glyph d="M421 128Q421 65 374 26.5Q327 -12 247 -12Q187 -12 135.5 8Q84 28 51 62L61 74Q93 41 141.5 22Q190 3 247 3Q319 3 362 37Q405 71 405 128Q405 172 375 199.5Q345 227 281 240L207 255Q140 269 108.5 299.5Q77 330 77 381Q77 433 117 467Q157 501 228 501Q285 501 331.5 481.5Q378 462 413 423L402 411Q366 450 323.5 468Q281 486 228 486Q165 486 129 456Q93 426 93 381Q93 336 121.5 309Q150 282 210 270L284 255Q357 240 389 209.5Q421 179 421 128ZM229 489ZM232 10ZM232 0ZM325 721H306L220 587H238ZM229 489Z" glyph-name="sacute" horiz-adv-x="483" unicode="&#347;" /><glyph d="M421 128Q421 65 374 26.5Q327 -12 247 -12Q187 -12 135.5 8Q84 28 51 62L61 74Q93 41 141.5 22Q190 3 247 3Q319 3 362 37Q405 71 405 128Q405 172 375 199.5Q345 227 281 240L207 255Q140 269 108.5 299.5Q77 330 77 381Q77 433 117 467Q157 501 228 501Q285 501 331.5 481.5Q378 462 413 423L402 411Q366 450 323.5 468Q281 486 228 486Q165 486 129 456Q93 426 93 381Q93 336 121.5 309Q150 282 210 270L284 255Q357 240 389 209.5Q421 179 421 128ZM229 489ZM232 10ZM232 0ZM238 587H223L148 721H166L231 606L296 721H313ZM229 489Z" glyph-name="scaron" horiz-adv-x="483" unicode="&#353;" /><glyph d="M179 -101 167 -86 222 -11Q169 -7 124 12.5Q79 32 51 62L61 74Q93 41 141.5 22Q190 3 247 3Q319 3 362 37Q405 71 405 128Q405 173 375 200Q345 227 281 240L207 255Q140 269 108.5 299.5Q77 330 77 381Q77 433 117 467Q157 501 228 501Q285 501 331.5 481.5Q378 462 413 423L402 411Q366 450 323.5 468Q281 486 228 486Q165 486 129 456Q93 426 93 381Q93 337 121 309.5Q149 282 210 270L284 255Q357 240 389 209.5Q421 179 421 128Q421 65 374 26.5Q327 -12 247 -12Q245 -12 243.5 -12Q242 -12 240 -12L190 -80Q205 -72 220 -68.5Q235 -65 251 -65Q287 -65 307 -82.5Q327 -100 327 -133Q327 -169 300 -190.5Q273 -212 230 -212Q205 -212 186 -208.5Q167 -205 151 -198L158 -185Q172 -191 189 -194Q206 -197 231 -197Q267 -197 289 -179.5Q311 -162 311 -133Q311 -107 295.5 -93.5Q280 -80 251 -80Q232 -80 214.5 -85Q197 -90 179 -101Z" glyph-name="scedilla" horiz-adv-x="483" unicode="&#351;" /><glyph d="M421 128Q421 65 374 26.5Q327 -12 247 -12Q187 -12 135.5 8Q84 28 51 62L61 74Q93 41 141.5 22Q190 3 247 3Q319 3 362 37Q405 71 405 128Q405 172 375 199.5Q345 227 281 240L207 255Q140 269 108.5 299.5Q77 330 77 381Q77 433 117 467Q157 501 228 501Q285 501 331.5 481.5Q378 462 413 423L402 411Q366 450 323.5 468Q281 486 228 486Q165 486 129 456Q93 426 93 381Q93 336 121.5 309Q150 282 210 270L284 255Q357 240 389 209.5Q421 179 421 128ZM229 489ZM232 10ZM232 0ZM156 587 231 721H246L321 587H303L238 702L173 587ZM237 489Z" glyph-name="scircumflex" horiz-adv-x="483" unicode="&#349;" /><glyph d="M68 298Q68 331 85.5 366Q103 401 134 428Q111 448 99.5 475Q88 502 88 535Q88 614 139.5 663Q191 712 282 712Q329 712 373 699Q417 686 454 662L446 649Q411 672 368.5 684Q326 696 282 696Q198 696 150.5 651.5Q103 607 103 535Q103 482 137 446Q171 410 264 381L327 361Q420 332 459.5 290.5Q499 249 499 184Q499 146 483.5 110Q468 74 440 47Q460 27 469.5 2.5Q479 -22 479 -53Q479 -132 428.5 -181Q378 -230 289 -230Q233 -230 182 -213Q131 -196 72 -155L81 -142Q139 -181 187.5 -197.5Q236 -214 289 -214Q371 -214 417.5 -169.5Q464 -125 464 -53Q464 0 430 36Q396 72 303 101L240 121Q147 150 107.5 191.5Q68 233 68 298ZM242 137 305 117Q355 101 383 87.5Q411 74 430 57Q456 81 470 114.5Q484 148 484 184Q484 242 447.5 280Q411 318 325 345L262 365Q215 380 190 392Q165 404 146 418Q116 393 99.5 361Q83 329 83 298Q83 240 119.5 202Q156 164 242 137Z" glyph-name="section" horiz-adv-x="557" unicode="&#167;" /><glyph d="M178 29H159L93 -190H109ZM144 453Q144 444 150.5 437.5Q157 431 166 431Q175 431 181.5 437.5Q188 444 188 453Q188 462 181.5 468.5Q175 475 166 475Q157 475 150.5 468.5Q144 462 144 453ZM144 455Z" glyph-name="semicolon" horiz-adv-x="309" unicode=";" /><glyph d="M439 685H24V700H456V685L160 0H143Z" glyph-name="seven" horiz-adv-x="484" unicode="7" /><glyph d="M236 337H27V350H251V337L100 0H85Z" glyph-name="seven.denominator" horiz-adv-x="282" unicode="&#63068;" /><glyph d="M237 197H28V210H252V197L101 -140H86Z" glyph-name="seven.inferior" horiz-adv-x="282" unicode="&#8327;" /><glyph d="M237 687H28V700H252V687L101 350H86Z" glyph-name="seven.numerator" horiz-adv-x="282" unicode="&#63080;" /><glyph d="M236 827H27V840H251V827L100 490H85Z" glyph-name="seven.superior" horiz-adv-x="282" unicode="&#8311;" /><glyph d="M477 685H62V700H494V685L198 0H181Z" glyph-name="seven.tab" horiz-adv-x="560" unicode="&#65303;" /><glyph d="M282 410Q376 410 432 355Q488 300 488 206Q488 111 428 49.5Q368 -12 277 -12Q183 -12 125 49.5Q67 111 67 210Q67 256 84.5 306Q102 356 145 428L306 700H323L157 417Q131 373 125.5 361.5Q120 350 115 340Q144 374 186.5 392Q229 410 282 410ZM275 395Q189 395 136 343Q83 291 83 208Q83 118 136.5 60.5Q190 3 276 3Q361 3 416.5 62Q472 121 472 211Q472 296 419.5 345.5Q367 395 275 395Z" glyph-name="six" horiz-adv-x="538" unicode="6" /><glyph d="M152 205Q199 205 227 177.5Q255 150 255 103Q255 56 225.5 25Q196 -6 150 -6Q103 -6 74 24.5Q45 55 45 105Q45 128 53.5 152.5Q62 177 84 214L164 350H180L79 178Q93 192 111 198.5Q129 205 152 205ZM149 192Q110 192 84.5 168Q59 144 59 104Q59 61 84 34Q109 7 149 7Q189 7 215 34.5Q241 62 241 105Q241 145 216 168.5Q191 192 149 192Z" glyph-name="six.denominator" horiz-adv-x="292" unicode="&#63067;" /><glyph d="M152 65Q199 65 227 37.5Q255 10 255 -37Q255 -84 225.5 -115Q196 -146 150 -146Q103 -146 74 -115.5Q45 -85 45 -35Q45 -12 53.5 12.5Q62 37 84 74L164 210H180L79 38Q93 52 111 58.5Q129 65 152 65ZM149 52Q110 52 84.5 28Q59 4 59 -36Q59 -79 84 -106Q109 -133 149 -133Q189 -133 215 -105.5Q241 -78 241 -35Q241 5 216 28.5Q191 52 149 52Z" glyph-name="six.inferior" horiz-adv-x="292" unicode="&#8326;" /><glyph d="M152 555Q199 555 227 527.5Q255 500 255 453Q255 406 225.5 375Q196 344 150 344Q103 344 74 374.5Q45 405 45 455Q45 478 53.5 502.5Q62 527 84 564L164 700H180L79 528Q93 542 111 548.5Q129 555 152 555ZM149 542Q110 542 84.5 518Q59 494 59 454Q59 411 84 384Q109 357 149 357Q189 357 215 384.5Q241 412 241 455Q241 495 216 518.5Q191 542 149 542Z" glyph-name="six.numerator" horiz-adv-x="292" unicode="&#63079;" /><glyph d="M152 695Q199 695 227 667.5Q255 640 255 593Q255 546 225.5 515Q196 484 150 484Q103 484 74 514.5Q45 545 45 595Q45 618 53.5 642.5Q62 667 84 704L164 840H180L79 668Q93 682 111 688.5Q129 695 152 695ZM149 682Q110 682 84.5 658Q59 634 59 594Q59 551 84 524Q109 497 149 497Q189 497 215 524.5Q241 552 241 595Q241 635 216 658.5Q191 682 149 682Z" glyph-name="six.superior" horiz-adv-x="292" unicode="&#8310;" /><glyph d="M293 410Q387 410 443 355Q499 300 499 206Q499 111 439 49.5Q379 -12 288 -12Q194 -12 136 49.5Q78 111 78 210Q78 256 95.5 306Q113 356 156 428L317 700H334L168 417Q142 373 136.5 361.5Q131 350 126 340Q155 374 197.5 392Q240 410 293 410ZM286 395Q200 395 147 343Q94 291 94 208Q94 118 147.5 60.5Q201 3 287 3Q372 3 427.5 62Q483 121 483 211Q483 296 430.5 345.5Q378 395 286 395Z" glyph-name="six.tab" horiz-adv-x="560" unicode="&#65302;" /><glyph d="M38 -132H57L409 742H395Z" glyph-name="slash" horiz-adv-x="446" unicode="/" /><glyph glyph-name="space" horiz-adv-x="301" unicode=" " /><glyph d="M133 336H59V351H129L122 377Q120 385 113.5 408Q107 431 104 445Q100 463 98 480.5Q96 498 96 515Q96 605 147.5 658.5Q199 712 292 712Q371 712 425 662.5Q479 613 490 527L475 524Q464 604 414.5 650Q365 696 292 696Q206 696 158.5 647Q111 598 111 515Q111 498 113 481.5Q115 465 119 447Q122 433 128.5 411Q135 389 137 381L145 351H370V336H149L175 237Q195 163 183 102Q171 41 134 15H508V0H85V15Q137 15 160.5 79Q184 143 160 233Z" glyph-name="sterling" horiz-adv-x="557" unicode="&#163;" /><glyph d="M533 0H65V15L214 361L68 685V700H523V685H86L231 363L80 15H533Z" glyph-name="summation" horiz-adv-x="574" unicode="&#8721;" /><glyph d="M119 474H29V489H119V694L135 700V489H306V474H135V119Q135 61 162.5 32Q190 3 244 3Q264 3 284 9Q304 15 322 27L329 14Q309 1 288 -5.5Q267 -12 244 -12Q182 -12 150.5 21Q119 54 119 119ZM226 10ZM144 0ZM210 700Z" glyph-name="t" horiz-adv-x="344" unicode="t" /><glyph d="M37 328V343H128V474H38V489H128V694L144 700V489H315V474H144V343H308V328H144V119Q144 61 171.5 32Q199 3 253 3Q273 3 293 9Q313 15 331 27L338 14Q318 1 297 -5.5Q276 -12 253 -12Q191 -12 159.5 21Q128 54 128 119V328Z" glyph-name="tbar" horiz-adv-x="356" unicode="&#359;" /><glyph d="M119 474H29V489H119V694L135 700V489H306V474H135V119Q135 61 162.5 32Q190 3 244 3Q264 3 284 9Q304 15 322 27L329 14Q309 1 288 -5.5Q267 -12 244 -12Q182 -12 150.5 21Q119 54 119 119ZM226 10ZM144 0ZM210 700ZM306 730H288L244 616H257ZM210 700Z" glyph-name="tcaron" horiz-adv-x="344" unicode="&#357;" /><glyph d="M333 501Q432 501 491.5 432Q551 363 551 250Q551 133 491.5 60.5Q432 -12 333 -12Q260 -12 206 30.5Q152 73 128 147V-218H112V730H128V342Q153 416 206.5 458.5Q260 501 333 501ZM536 250Q536 357 481 421.5Q426 486 333 486Q242 486 185 416.5Q128 347 128 246Q128 141 184.5 72Q241 3 333 3Q425 3 480.5 71Q536 139 536 250Z" glyph-name="thorn" horiz-adv-x="617" unicode="&#254;" /><glyph d="M442 685H82V700H461V684L215 401Q233 405 251.5 407.5Q270 410 284 410Q378 410 432.5 354Q487 298 487 217Q487 117 426 52.5Q365 -12 267 -12Q189 -12 130.5 26.5Q72 65 49 129L64 134Q85 74 139.5 38.5Q194 3 267 3Q358 3 414.5 63Q471 123 471 217Q471 291 420.5 343Q370 395 284 395Q262 395 239 391Q216 387 195 379L188 393Z" glyph-name="three" horiz-adv-x="550" unicode="3" /><glyph d="M235 337H56V350H254V337L129 208Q137 210 143 210.5Q149 211 155 211Q207 211 235 183Q263 155 263 109Q263 59 231.5 26.5Q200 -6 150 -6Q109 -6 77.5 13.5Q46 33 34 65L47 71Q59 41 86 24Q113 7 150 7Q194 7 221.5 35.5Q249 64 249 109Q249 150 224.5 174Q200 198 155 198Q142 198 130 195.5Q118 193 105 187L100 197Z" glyph-name="three.denominator" horiz-adv-x="309" unicode="&#63064;" /><glyph d="M235 197H56V210H254V197L129 68Q137 70 143 70.5Q149 71 155 71Q207 71 235 43Q263 15 263 -31Q263 -81 231.5 -113.5Q200 -146 150 -146Q109 -146 77.5 -126.5Q46 -107 34 -75L47 -69Q59 -99 86 -116Q113 -133 150 -133Q194 -133 221.5 -104.5Q249 -76 249 -31Q249 10 224.5 34Q200 58 155 58Q142 58 130 55.5Q118 53 105 47L100 57Z" glyph-name="three.inferior" horiz-adv-x="309" unicode="&#8323;" /><glyph d="M235 687H56V700H254V687L129 558Q137 560 143 560.5Q149 561 155 561Q207 561 235 533Q263 505 263 459Q263 409 231.5 376.5Q200 344 150 344Q109 344 77.5 363.5Q46 383 34 415L47 421Q59 391 86 374Q113 357 150 357Q194 357 221.5 385.5Q249 414 249 459Q249 500 224.5 524Q200 548 155 548Q142 548 130 545.5Q118 543 105 537L100 547Z" glyph-name="three.numerator" horiz-adv-x="309" unicode="&#63076;" /><glyph d="M447 685H87V700H466V684L220 401Q238 405 256.5 407.5Q275 410 289 410Q383 410 437.5 354Q492 298 492 217Q492 117 431 52.5Q370 -12 272 -12Q194 -12 135.5 26.5Q77 65 54 129L69 134Q90 74 144.5 38.5Q199 3 272 3Q363 3 419.5 63Q476 123 476 217Q476 291 425.5 343Q375 395 289 395Q267 395 244 391Q221 387 200 379L193 393Z" glyph-name="three.tab" horiz-adv-x="560" unicode="&#65299;" /><glyph d="M538 110V209L552 214V110H614V97H552V0H538V97H347V112L525 350H542L363 110ZM185 0H168L513 700H530ZM247 685H68V698H266V685L141 556Q149 558 155 558.5Q161 559 167 559Q219 559 247 531Q275 503 275 457Q275 407 243.5 374.5Q212 342 162 342Q121 342 89.5 361.5Q58 381 46 413L59 419Q71 389 98 372Q125 355 162 355Q206 355 233.5 383.5Q261 412 261 457Q261 498 236.5 522Q212 546 167 546Q154 546 142 543.5Q130 541 117 535L112 545Z" glyph-name="threequarters" horiz-adv-x="653" unicode="&#190;" /><glyph d="M236 827H57V840H255V827L130 698Q138 700 144 700.5Q150 701 156 701Q208 701 236 673Q264 645 264 599Q264 549 232.5 516.5Q201 484 151 484Q110 484 78.5 503.5Q47 523 35 555L48 561Q60 531 87 514Q114 497 151 497Q195 497 222.5 525.5Q250 554 250 599Q250 640 225.5 664Q201 688 156 688Q143 688 131 685.5Q119 683 106 677L101 687Z" glyph-name="threesuperior" horiz-adv-x="309" unicode="&#179;" /><glyph d="M257 616Q287 616 302.5 634.5Q318 653 319 690H303Q302 661 290.5 646Q279 631 257 631Q246 631 234.5 636.5Q223 642 202 659Q177 680 162 686.5Q147 693 132 693Q102 693 86 673Q70 653 69 614H85Q85 645 97 661.5Q109 678 132 678Q146 678 159.5 672Q173 666 195 647Q217 628 230 622Q243 616 257 616ZM205 489Z" glyph-name="tilde" horiz-adv-x="389" unicode="&#732;" /><glyph d="M257 816Q287 816 302.5 834.5Q318 853 319 890H303Q302 861 290.5 846Q279 831 257 831Q246 831 234.5 836.5Q223 842 202 859Q177 880 162 886.5Q147 893 132 893Q102 893 86 873Q70 853 69 814H85Q85 845 97 861.5Q109 878 132 878Q146 878 159.5 872Q173 866 195 847Q217 828 230 822Q243 816 257 816ZM194 700Z" glyph-name="tilde.case" horiz-adv-x="389" /><glyph d="M352 351V700H372L508 369L643 700H663V351H647V668L516 350H500L368 670V351ZM38 685V700H309V685H181V350H165V685Z" glyph-name="trademark" horiz-adv-x="763" unicode="&#8482;" /><glyph d="M487 0H60V15L289 256Q359 330 372.5 346Q386 362 396 376Q423 414 436 450.5Q449 487 449 526Q449 602 402.5 649.5Q356 697 278 697Q200 697 147 646.5Q94 596 79 506L64 508Q79 605 136.5 658.5Q194 712 278 712Q363 712 414 660Q465 608 465 526Q465 486 452 448Q439 410 411 371Q399 354 383.5 335.5Q368 317 300 245L82 15H487Z" glyph-name="two" horiz-adv-x="544" unicode="2" /><glyph d="M266 0H44V16L160 137Q163 140 183 160Q203 180 213 193Q227 211 233.5 228Q240 245 240 263Q240 299 217 321Q194 343 155 343Q116 343 89 319Q62 295 55 252L42 254Q51 302 81 329Q111 356 155 356Q200 356 227 330Q254 304 254 263Q254 243 246.5 224Q239 205 223 185Q213 171 191 149.5Q169 128 165 123L61 13H266Z" glyph-name="two.denominator" horiz-adv-x="307" unicode="&#63063;" /><glyph d="M267 -140H45V-124L161 -3Q164 0 184 20Q204 40 214 53Q228 71 234.5 88Q241 105 241 123Q241 159 218 181Q195 203 156 203Q117 203 90 179Q63 155 56 112L43 114Q52 162 82 189Q112 216 156 216Q201 216 228 190Q255 164 255 123Q255 103 247.5 84Q240 65 224 45Q214 31 192 9.5Q170 -12 166 -17L62 -127H267Z" glyph-name="two.inferior" horiz-adv-x="307" unicode="&#8322;" /><glyph d="M266 350H44V366L160 487Q163 490 183 510Q203 530 213 543Q227 561 233.5 578Q240 595 240 613Q240 649 217 671Q194 693 155 693Q116 693 89 669Q62 645 55 602L42 604Q51 652 81 679Q111 706 155 706Q200 706 227 680Q254 654 254 613Q254 593 246.5 574Q239 555 223 535Q213 521 191 499.5Q169 478 165 473L61 363H266Z" glyph-name="two.numerator" horiz-adv-x="307" unicode="&#63075;" /><glyph d="M495 0H68V15L297 256Q367 330 380.5 346Q394 362 404 376Q431 414 444 450.5Q457 487 457 526Q457 602 410.5 649.5Q364 697 286 697Q208 697 155 646.5Q102 596 87 506L72 508Q87 605 144.5 658.5Q202 712 286 712Q371 712 422 660Q473 608 473 526Q473 486 460 448Q447 410 419 371Q407 354 391.5 335.5Q376 317 308 245L90 15H495Z" glyph-name="two.tab" horiz-adv-x="560" unicode="&#65298;" /><glyph d="M267 490H45V506L161 627Q164 630 184 650Q204 670 214 683Q228 701 234.5 718Q241 735 241 753Q241 789 218 811Q195 833 156 833Q117 833 90 809Q63 785 56 742L43 744Q52 792 82 819Q112 846 156 846Q201 846 228 820Q255 794 255 753Q255 733 247.5 714Q240 695 224 675Q214 661 192 639.5Q170 618 166 613L62 503H267Z" glyph-name="twosuperior" horiz-adv-x="307" unicode="&#178;" /><glyph d="M102 180V489H118V180Q118 101 163.5 52Q209 3 288 3Q374 3 422 60.5Q470 118 470 215V489H486V0H471V120Q450 56 403 22Q356 -12 288 -12Q202 -12 152 41Q102 94 102 180ZM294 489ZM471 0Z" glyph-name="u" horiz-adv-x="598" unicode="u" /><glyph d="M102 180V489H118V180Q118 101 163.5 52Q209 3 288 3Q374 3 422 60.5Q470 118 470 215V489H486V0H471V120Q450 56 403 22Q356 -12 288 -12Q202 -12 152 41Q102 94 102 180ZM294 489ZM471 0ZM390 721H371L285 587H303ZM294 489Z" glyph-name="uacute" horiz-adv-x="598" unicode="&#250;" /><glyph d="M102 180V489H118V180Q118 101 163.5 52Q209 3 288 3Q374 3 422 60.5Q470 118 470 215V489H486V0H471V120Q450 56 403 22Q356 -12 288 -12Q202 -12 152 41Q102 94 102 180ZM294 489ZM471 0ZM294 600Q342 600 368.5 633Q395 666 395 721H411Q410 659 379.5 622Q349 585 294 585Q239 585 208.5 622Q178 659 177 721H193Q193 667 219.5 633.5Q246 600 294 600ZM294 489Z" glyph-name="ubreve" horiz-adv-x="598" unicode="&#365;" /><glyph d="M102 180V489H118V180Q118 101 163.5 52Q209 3 288 3Q374 3 422 60.5Q470 118 470 215V489H486V0H471V120Q450 56 403 22Q356 -12 288 -12Q202 -12 152 41Q102 94 102 180ZM294 489ZM471 0ZM213 587 288 721H303L378 587H360L295 702L230 587ZM294 489Z" glyph-name="ucircumflex" horiz-adv-x="598" unicode="&#251;" /><glyph d="M102 180V489H118V180Q118 101 163.5 52Q209 3 288 3Q374 3 422 60.5Q470 118 470 215V489H486V0H471V120Q450 56 403 22Q356 -12 288 -12Q202 -12 152 41Q102 94 102 180ZM294 489ZM471 0ZM217 654Q217 645 223 639Q229 633 238 633Q247 633 253 639Q259 645 259 654Q259 663 253 669Q247 675 238 675Q229 675 223 669Q217 663 217 654ZM329 654Q329 645 335 639Q341 633 350 633Q359 633 365 639Q371 645 371 654Q371 663 365 669Q359 675 350 675Q341 675 335 669Q329 663 329 654ZM294 489Z" glyph-name="udieresis" horiz-adv-x="598" unicode="&#252;" /><glyph d="M102 180V489H118V180Q118 101 163.5 52Q209 3 288 3Q374 3 422 60.5Q470 118 470 215V489H486V0H471V120Q450 56 403 22Q356 -12 288 -12Q202 -12 152 41Q102 94 102 180ZM294 489ZM471 0ZM303 587 217 721H198L285 587ZM294 489Z" glyph-name="ugrave" horiz-adv-x="598" unicode="&#249;" /><glyph d="M102 180V489H118V180Q118 101 163.5 52Q209 3 288 3Q374 3 422 60.5Q470 118 470 215V489H486V0H471V120Q450 56 403 22Q356 -12 288 -12Q202 -12 152 41Q102 94 102 180ZM294 489ZM471 0ZM348 721H329L233 587H251ZM426 721H407L311 587H329ZM294 489Z" glyph-name="uhungarumlaut" horiz-adv-x="598" unicode="&#369;" /><glyph d="M102 180V489H118V180Q118 101 163.5 52Q209 3 288 3Q374 3 422 60.5Q470 118 470 215V489H486V0H471V120Q450 56 403 22Q356 -12 288 -12Q202 -12 152 41Q102 94 102 180ZM294 489ZM471 0ZM417 646H171V661H417ZM294 489Z" glyph-name="umacron" horiz-adv-x="598" unicode="&#363;" /><glyph d="M57 -15V0H476V-15Z" glyph-name="underscore" horiz-adv-x="533" unicode="_" /><glyph glyph-name="uni00A0" horiz-adv-x="301" unicode="&#160;" /><glyph d="M88 258V273H344V258Z" glyph-name="uni00AD" horiz-adv-x="432" unicode="&#173;" /><glyph d="M413 322V337H686V0H671V170Q643 86 570 37Q497 -12 399 -12Q248 -12 159.5 86.5Q71 185 71 350Q71 506 165 609Q259 712 394 712Q501 712 573 666Q645 620 687 524L672 518Q632 609 564 653Q496 697 394 697Q265 697 176 598Q87 499 87 350Q87 192 171 97.5Q255 3 399 3Q518 3 594 75.5Q670 148 670 257V322ZM387 700ZM401 0ZM405 -76H387L335 -211H348ZM401 0ZM385 -211Z" glyph-name="uni0122" horiz-adv-x="771" /><glyph d="M537 -73Q537 -145 467.5 -187.5Q398 -230 289 -230Q181 -230 116 -194Q51 -158 51 -94Q51 -52 82.5 -18.5Q114 15 169 30Q133 31 112 51Q91 71 91 102Q91 128 108.5 150.5Q126 173 157 186Q125 210 107.5 245.5Q90 281 90 322Q90 398 145 449.5Q200 501 280 501Q318 501 352.5 488.5Q387 476 413 452Q430 475 461.5 486.5Q493 498 538 498V483Q496 483 467.5 472.5Q439 462 424 442Q447 418 459.5 387Q472 356 472 322Q472 247 416.5 196.5Q361 146 280 146Q251 146 224 153.5Q197 161 172 175Q140 164 123.5 145.5Q107 127 107 103Q107 76 125.5 60.5Q144 45 176 45H375Q456 45 496.5 15.5Q537 -14 537 -73ZM456 322Q456 392 405 439Q354 486 280 486Q206 486 156 439Q106 392 106 322Q106 253 156 207Q206 161 280 161Q354 161 405 207Q456 253 456 322ZM67 -93Q67 -151 128 -183Q189 -215 289 -215Q392 -215 456.5 -176.5Q521 -138 521 -73Q521 -22 484 4Q447 30 375 30H262Q176 30 121.5 -5.5Q67 -41 67 -93ZM285 489ZM276 587H294L346 721H333ZM285 489Z" glyph-name="uni0123" horiz-adv-x="567" /><glyph d="M310 399 620 0H599L299 387L141 219V0H125V700H141V241L571 700H592ZM366 0ZM365 -76H347L295 -211H308ZM361 0ZM345 -211Z" glyph-name="uni0136" horiz-adv-x="640" /><glyph d="M280 311 507 0H487L268 300L128 180V0H112V730H128V199L461 489H483ZM304 0ZM303 -76H285L233 -211H246ZM299 0ZM283 -211Z" glyph-name="uni0137" horiz-adv-x="532" /><glyph d="M125 0V700H141V15H561V0ZM133 700ZM216 700ZM400 350ZM351 0ZM355 -76H337L285 -211H298ZM351 0ZM335 -211Z" glyph-name="uni013B" horiz-adv-x="591" unicode="&#315;" /><glyph d="M112 0V730H128V0ZM120 730ZM203 700ZM182 350ZM120 0ZM124 -76H106L54 -211H67ZM120 0ZM104 -211Z" glyph-name="uni013C" horiz-adv-x="240" unicode="&#316;" /><glyph d="M125 0V700H142L623 24V700H638V0H621L140 676V0ZM381 700ZM389 0ZM393 -76H375L323 -211H336ZM389 0ZM373 -211Z" glyph-name="uni0145" horiz-adv-x="763" /><glyph d="M112 0V489H127V367Q148 432 196.5 466.5Q245 501 315 501Q402 501 454.5 446Q507 391 507 309V0H491V309Q491 385 443 435.5Q395 486 315 486Q227 486 177.5 428.5Q128 371 128 274V0ZM112 588ZM310 489ZM308 0ZM314 -76H296L244 -211H257ZM310 0ZM294 -211Z" glyph-name="uni0146" horiz-adv-x="609" /><glyph d="M125 0V700H371Q477 700 542.5 642.5Q608 585 608 497Q608 408 555 347.5Q502 287 411 275L607 0H588L394 273Q389 272 383.5 272Q378 272 367 272H141V0ZM592 497Q592 578 531 631.5Q470 685 371 685H141V287H367Q469 287 530.5 345.5Q592 404 592 497ZM343 700ZM364 0ZM368 -76H350L298 -211H311ZM364 0ZM348 -211Z" glyph-name="uni0156" horiz-adv-x="680" /><glyph d="M112 0V489H127V352Q146 420 188.5 457Q231 494 290 494Q302 494 311 493Q320 492 330 490L328 476Q319 478 310.5 478.5Q302 479 290 479Q215 479 171.5 415.5Q128 352 128 245V0ZM220 489ZM120 0ZM124 -76H106L54 -211H67ZM120 0ZM104 -211Z" glyph-name="uni0157" horiz-adv-x="353" /><glyph d="M229 -101 217 -86 283 4V685H30V700H553V685H299V0L240 -80Q255 -72 270 -68.5Q285 -65 301 -65Q337 -65 357 -82.5Q377 -100 377 -133Q377 -169 350 -190.5Q323 -212 280 -212Q255 -212 236 -208.5Q217 -205 201 -198L208 -185Q222 -191 239 -194Q256 -197 281 -197Q317 -197 339 -179.5Q361 -162 361 -133Q361 -107 345.5 -93.5Q330 -80 301 -80Q282 -80 264.5 -85Q247 -90 229 -101Z" glyph-name="uni0162" horiz-adv-x="583" /><glyph d="M164 -101 152 -86 208 -9Q164 0 141.5 32.5Q119 65 119 119V474H29V489H119V694L135 700V489H306V474H135V119Q135 61 162.5 32Q190 3 244 3Q264 3 284 9Q304 15 322 27L329 14Q309 1 288 -5.5Q267 -12 244 -12Q236 -12 232.5 -12Q229 -12 226 -11L175 -80Q190 -72 205 -68.5Q220 -65 236 -65Q272 -65 292 -82.5Q312 -100 312 -133Q312 -169 285 -190.5Q258 -212 215 -212Q190 -212 171 -208.5Q152 -205 136 -198L143 -185Q157 -191 174 -194Q191 -197 216 -197Q252 -197 274 -179.5Q296 -162 296 -133Q296 -107 280.5 -93.5Q265 -80 236 -80Q217 -80 199.5 -85Q182 -90 164 -101Z" glyph-name="uni0163" horiz-adv-x="344" /><glyph d="M547 179Q547 97 488.5 42.5Q430 -12 327 -12Q244 -12 174.5 20Q105 52 54 113L66 123Q110 66 177.5 34.5Q245 3 327 3Q422 3 476.5 53.5Q531 104 531 179Q531 243 491.5 283Q452 323 362 346L255 373Q168 395 127 437.5Q86 480 86 546Q86 619 141.5 665.5Q197 712 293 712Q363 712 423 683Q483 654 528 598L516 587Q474 641 417 669Q360 697 293 697Q205 697 153.5 654.5Q102 612 102 546Q102 486 140 446.5Q178 407 258 388L365 362Q461 339 504 295Q547 251 547 179ZM303 700ZM327 10ZM327 0ZM331 -76H313L261 -211H274ZM327 0ZM311 -211Z" glyph-name="uni0218" horiz-adv-x="612" /><glyph d="M421 128Q421 65 374 26.5Q327 -12 247 -12Q187 -12 135.5 8Q84 28 51 62L61 74Q93 41 141.5 22Q190 3 247 3Q319 3 362 37Q405 71 405 128Q405 172 375 199.5Q345 227 281 240L207 255Q140 269 108.5 299.5Q77 330 77 381Q77 433 117 467Q157 501 228 501Q285 501 331.5 481.5Q378 462 413 423L402 411Q366 450 323.5 468Q281 486 228 486Q165 486 129 456Q93 426 93 381Q93 336 121.5 309Q150 282 210 270L284 255Q357 240 389 209.5Q421 179 421 128ZM229 489ZM232 10ZM232 0ZM245 -76H227L175 -211H188ZM241 0ZM225 -211Z" glyph-name="uni0219" horiz-adv-x="483" /><glyph d="M30 685V700H553V685H299V0H283V685ZM290 700ZM290 10ZM290 0ZM300 -76H282L230 -211H243ZM296 0ZM280 -211Z" glyph-name="uni021A" horiz-adv-x="583" unicode="&#538;" /><glyph d="M119 474H29V489H119V694L135 700V489H306V474H135V119Q135 61 162.5 32Q190 3 244 3Q264 3 284 9Q304 15 322 27L329 14Q309 1 288 -5.5Q267 -12 244 -12Q182 -12 150.5 21Q119 54 119 119ZM226 10ZM144 0ZM210 700ZM148 -76H130L78 -211H91ZM144 0ZM128 -211Z" glyph-name="uni021B" horiz-adv-x="344" unicode="&#539;" /><glyph d="M116 489H132V-91Q132 -159 100.5 -194.5Q69 -230 7 -230Q-9 -230 -23 -227.5Q-37 -225 -51 -220L-46 -206Q-35 -211 -22 -213Q-9 -215 7 -215Q61 -215 88.5 -184Q116 -153 116 -91ZM124 489Z" glyph-name="uni0237" horiz-adv-x="244" /><glyph d="M317 646H71V661H317ZM194 489Z" glyph-name="uni02C9" horiz-adv-x="385" unicode="&#713;" /><glyph d="M47 0V15L319 700H336L598 15V0ZM327 679 64 15H581Z" glyph-name="uni0394" horiz-adv-x="646" unicode="&#916;" /><glyph d="M77 0V15H273Q175 71 126 156.5Q77 242 77 356Q77 514 156 613Q235 712 367 712Q500 712 579 613Q658 514 658 356Q658 243 609.5 157.5Q561 72 464 15H661V0H433V14Q537 68 589.5 154Q642 240 642 356Q642 507 567 602Q492 697 367 697Q243 697 168 602Q93 507 93 356Q93 239 146 153Q199 67 304 14V0Z" glyph-name="uni03A9" horiz-adv-x="734" unicode="&#937;" /><glyph d="M116 -218V489H132V180Q132 101 177.5 52Q223 3 302 3Q388 3 436 60.5Q484 118 484 215V489H500V0H485V120Q464 56 417 22Q370 -12 302 -12Q240 -12 195.5 17Q151 46 130 99L132 -78V-218Z" glyph-name="uni03BC" horiz-adv-x="616" unicode="&#956;" /><glyph d="M129 0H113V402Q113 540 188.5 626Q264 712 387 712Q453 712 511 685Q569 658 613 607L424 372L492 351Q580 324 620.5 282.5Q661 241 661 180Q661 95 603.5 41.5Q546 -12 441 -12Q393 -12 349.5 -1.5Q306 9 270 29L277 42Q312 23 354 13Q396 3 441 3Q538 3 591.5 52.5Q645 102 645 180Q645 235 608.5 272.5Q572 310 489 336L408 362V376L593 607Q551 651 498.5 674Q446 697 387 697Q271 697 200 615Q129 533 129 400Z" glyph-name="uni1E9E" horiz-adv-x="717" unicode="&#7838;" /><glyph d="M144 317 49 252 41 265 144 336V554Q144 635 172 673.5Q200 712 259 712Q309 712 336.5 679Q364 646 364 587Q364 526 333.5 473.5Q303 421 246 383L160 326V119Q160 61 187.5 32Q215 3 269 3Q289 3 309 9Q329 15 347 27L354 14Q334 1 313 -5.5Q292 -12 269 -12Q207 -12 175.5 21Q144 54 144 119ZM348 587Q348 639 325 667.5Q302 696 259 696Q208 696 184 662Q160 628 160 554V344L238 396Q290 430 319 480.5Q348 531 348 587Z" glyph-name="uni2113" horiz-adv-x="406" /><glyph d="M71 350V363H150V669Q134 646 109.5 634Q85 622 54 622V635Q89 635 113.5 651.5Q138 668 151 700H164V363H242V350ZM160 0H143L488 700H505ZM565 337H386V350H584V337L459 208Q467 210 473 210.5Q479 211 485 211Q537 211 565 183Q593 155 593 109Q593 59 561.5 26.5Q530 -6 480 -6Q439 -6 407.5 13.5Q376 33 364 65L377 71Q389 41 416 24Q443 7 480 7Q524 7 551.5 35.5Q579 64 579 109Q579 150 554.5 174Q530 198 485 198Q472 198 460 195.5Q448 193 435 187L430 197Z" glyph-name="uni2153" horiz-adv-x="654" unicode="&#8531;" /><glyph d="M283 350H61V366L177 487Q180 490 200 510Q220 530 230 543Q244 561 250.5 578Q257 595 257 613Q257 649 234 671Q211 693 172 693Q133 693 106 669Q79 645 72 602L59 604Q68 652 98 679Q128 706 172 706Q217 706 244 680Q271 654 271 613Q271 593 263.5 574Q256 555 240 535Q230 521 208 499.5Q186 478 182 473L78 363H283ZM190 0H173L518 700H535ZM595 337H416V350H614V337L489 208Q497 210 503 210.5Q509 211 515 211Q567 211 595 183Q623 155 623 109Q623 59 591.5 26.5Q560 -6 510 -6Q469 -6 437.5 13.5Q406 33 394 65L407 71Q419 41 446 24Q473 7 510 7Q554 7 581.5 35.5Q609 64 609 109Q609 150 584.5 174Q560 198 515 198Q502 198 490 195.5Q478 193 465 187L460 197Z" glyph-name="uni2154" horiz-adv-x="684" unicode="&#8532;" /><glyph d="M160 0H143L488 700H505ZM71 350V363H150V669Q134 646 109.5 634Q85 622 54 622V635Q89 635 113.5 651.5Q138 668 151 700H164V363H242V350ZM509 214Q557 214 585 186.5Q613 159 613 111Q613 56 583.5 25Q554 -6 499 -6Q458 -6 428.5 14Q399 34 390 64L403 68Q411 42 437 24.5Q463 7 499 7Q547 7 573 34Q599 61 599 111Q599 152 575 176.5Q551 201 509 201Q481 201 457.5 189.5Q434 178 417 156L403 163L434 350H593V337H446L420 177Q438 195 460 204.5Q482 214 509 214Z" glyph-name="uni2155" horiz-adv-x="669" unicode="&#8533;" /><glyph d="M283 350H61V366L177 487Q180 490 200 510Q220 530 230 543Q244 561 250.5 578Q257 595 257 613Q257 649 234 671Q211 693 172 693Q133 693 106 669Q79 645 72 602L59 604Q68 652 98 679Q128 706 172 706Q217 706 244 680Q271 654 271 613Q271 593 263.5 574Q256 555 240 535Q230 521 208 499.5Q186 478 182 473L78 363H283ZM538 214Q586 214 614 186.5Q642 159 642 111Q642 56 612.5 25Q583 -6 528 -6Q487 -6 457.5 14Q428 34 419 64L432 68Q440 42 466 24.5Q492 7 528 7Q576 7 602 34Q628 61 628 111Q628 152 604 176.5Q580 201 538 201Q510 201 486.5 189.5Q463 178 446 156L432 163L463 350H622V337H475L449 177Q467 195 489 204.5Q511 214 538 214ZM190 0H173L518 700H535Z" glyph-name="uni2156" horiz-adv-x="699" unicode="&#8534;" /><glyph d="M534 214Q582 214 610 186.5Q638 159 638 111Q638 56 608.5 25Q579 -6 524 -6Q483 -6 453.5 14Q424 34 415 64L428 68Q436 42 462 24.5Q488 7 524 7Q572 7 598 34Q624 61 624 111Q624 152 600 176.5Q576 201 534 201Q506 201 482.5 189.5Q459 178 442 156L428 163L459 350H618V337H471L445 177Q463 195 485 204.5Q507 214 534 214ZM186 0H169L514 700H531ZM246 687H67V700H265V687L140 558Q148 560 154 560.5Q160 561 166 561Q218 561 246 533Q274 505 274 459Q274 409 242.5 376.5Q211 344 161 344Q120 344 88.5 363.5Q57 383 45 415L58 421Q70 391 97 374Q124 357 161 357Q205 357 232.5 385.5Q260 414 260 459Q260 500 235.5 524Q211 548 166 548Q153 548 141 545.5Q129 543 116 537L111 547Z" glyph-name="uni2157" horiz-adv-x="695" unicode="&#8535;" /><glyph d="M227 460V559L241 564V460H303V447H241V350H227V447H36V462L214 700H231L52 460ZM540 214Q588 214 616 186.5Q644 159 644 111Q644 56 614.5 25Q585 -6 530 -6Q489 -6 459.5 14Q430 34 421 64L434 68Q442 42 468 24.5Q494 7 530 7Q578 7 604 34Q630 61 630 111Q630 152 606 176.5Q582 201 540 201Q512 201 488.5 189.5Q465 178 448 156L434 163L465 350H624V337H477L451 177Q469 195 491 204.5Q513 214 540 214ZM192 0H175L520 700H537Z" glyph-name="uni2158" horiz-adv-x="703" unicode="&#8536;" /><glyph d="M467 205Q514 205 542 177.5Q570 150 570 103Q570 56 540.5 25Q511 -6 465 -6Q418 -6 389 24.5Q360 55 360 105Q360 128 368.5 152.5Q377 177 399 214L479 350H495L394 178Q408 192 426 198.5Q444 205 467 205ZM464 192Q425 192 399.5 168Q374 144 374 104Q374 61 399 34Q424 7 464 7Q504 7 530 34.5Q556 62 556 105Q556 145 531 168.5Q506 192 464 192ZM71 350V363H150V669Q134 646 109.5 634Q85 622 54 622V635Q89 635 113.5 651.5Q138 668 151 700H164V363H242V350ZM160 0H143L488 700H505Z" glyph-name="uni2159" horiz-adv-x="618" unicode="&#8537;" /><glyph d="M490 205Q537 205 565 177.5Q593 150 593 103Q593 56 563.5 25Q534 -6 488 -6Q441 -6 412 24.5Q383 55 383 105Q383 128 391.5 152.5Q400 177 422 214L502 350H518L417 178Q431 192 449 198.5Q467 205 490 205ZM487 192Q448 192 422.5 168Q397 144 397 104Q397 61 422 34Q447 7 487 7Q527 7 553 34.5Q579 62 579 105Q579 145 554 168.5Q529 192 487 192ZM169 564Q217 564 245 536.5Q273 509 273 461Q273 406 243.5 375Q214 344 159 344Q118 344 88.5 364Q59 384 50 414L63 418Q71 392 97 374.5Q123 357 159 357Q207 357 233 384Q259 411 259 461Q259 502 235 526.5Q211 551 169 551Q141 551 117.5 539.5Q94 528 77 506L63 513L94 700H253V687H106L80 527Q98 545 120 554.5Q142 564 169 564ZM183 0H166L511 700H528Z" glyph-name="uni215A" horiz-adv-x="641" unicode="&#8538;" /><glyph d="M160 0H143L488 700H505ZM71 350V363H150V669Q134 646 109.5 634Q85 622 54 622V635Q89 635 113.5 651.5Q138 668 151 700H164V363H242V350ZM523 183Q558 174 578 150Q598 126 598 94Q598 51 565.5 22.5Q533 -6 483 -6Q431 -6 398.5 22.5Q366 51 366 94Q366 125 386.5 149Q407 173 443 182Q410 191 391.5 212.5Q373 234 373 263Q373 303 404 329.5Q435 356 483 356Q530 356 560.5 329Q591 302 591 263Q591 234 573 212.5Q555 191 523 183ZM386 263Q386 231 412.5 210Q439 189 483 189Q526 189 552 210Q578 231 578 263Q578 297 551 320Q524 343 483 343Q441 343 413.5 320Q386 297 386 263ZM584 94Q584 129 556.5 152.5Q529 176 483 176Q437 176 408.5 152Q380 128 380 94Q380 56 408.5 31.5Q437 7 483 7Q527 7 555.5 32Q584 57 584 94Z" glyph-name="uni215B" horiz-adv-x="655" unicode="&#8539;" /><glyph d="M186 0H169L514 700H531ZM548 183Q583 174 603 150Q623 126 623 94Q623 51 590.5 22.5Q558 -6 508 -6Q456 -6 423.5 22.5Q391 51 391 94Q391 125 411.5 149Q432 173 468 182Q435 191 416.5 212.5Q398 234 398 263Q398 303 429 329.5Q460 356 508 356Q555 356 585.5 329Q616 302 616 263Q616 234 598 212.5Q580 191 548 183ZM411 263Q411 231 437.5 210Q464 189 508 189Q551 189 577 210Q603 231 603 263Q603 297 576 320Q549 343 508 343Q466 343 438.5 320Q411 297 411 263ZM609 94Q609 129 581.5 152.5Q554 176 508 176Q462 176 433.5 152Q405 128 405 94Q405 56 433.5 31.5Q462 7 508 7Q552 7 580.5 32Q609 57 609 94ZM246 687H67V700H265V687L140 558Q148 560 154 560.5Q160 561 166 561Q218 561 246 533Q274 505 274 459Q274 409 242.5 376.5Q211 344 161 344Q120 344 88.5 363.5Q57 383 45 415L58 421Q70 391 97 374Q124 357 161 357Q205 357 232.5 385.5Q260 414 260 459Q260 500 235.5 524Q211 548 166 548Q153 548 141 545.5Q129 543 116 537L111 547Z" glyph-name="uni215C" horiz-adv-x="681" unicode="&#8540;" /><glyph d="M168 0H151L496 700H513ZM531 183Q566 174 586 150Q606 126 606 94Q606 51 573.5 22.5Q541 -6 491 -6Q439 -6 406.5 22.5Q374 51 374 94Q374 125 394.5 149Q415 173 451 182Q418 191 399.5 212.5Q381 234 381 263Q381 303 412 329.5Q443 356 491 356Q538 356 568.5 329Q599 302 599 263Q599 234 581 212.5Q563 191 531 183ZM394 263Q394 231 420.5 210Q447 189 491 189Q534 189 560 210Q586 231 586 263Q586 297 559 320Q532 343 491 343Q449 343 421.5 320Q394 297 394 263ZM592 94Q592 129 564.5 152.5Q537 176 491 176Q445 176 416.5 152Q388 128 388 94Q388 56 416.5 31.5Q445 7 491 7Q535 7 563.5 32Q592 57 592 94ZM171 564Q219 564 247 536.5Q275 509 275 461Q275 406 245.5 375Q216 344 161 344Q120 344 90.5 364Q61 384 52 414L65 418Q73 392 99 374.5Q125 357 161 357Q209 357 235 384Q261 411 261 461Q261 502 237 526.5Q213 551 171 551Q143 551 119.5 539.5Q96 528 79 506L65 513L96 700H255V687H108L82 527Q100 545 122 554.5Q144 564 171 564Z" glyph-name="uni215D" horiz-adv-x="663" unicode="&#8541;" /><glyph d="M250 687H41V700H265V687L114 350H99ZM102 0H85L430 700H447ZM464 183Q499 174 519 150Q539 126 539 94Q539 51 506.5 22.5Q474 -6 424 -6Q372 -6 339.5 22.5Q307 51 307 94Q307 125 327.5 149Q348 173 384 182Q351 191 332.5 212.5Q314 234 314 263Q314 303 345 329.5Q376 356 424 356Q471 356 501.5 329Q532 302 532 263Q532 234 514 212.5Q496 191 464 183ZM327 263Q327 231 353.5 210Q380 189 424 189Q467 189 493 210Q519 231 519 263Q519 297 492 320Q465 343 424 343Q382 343 354.5 320Q327 297 327 263ZM525 94Q525 129 497.5 152.5Q470 176 424 176Q378 176 349.5 152Q321 128 321 94Q321 56 349.5 31.5Q378 7 424 7Q468 7 496.5 32Q525 57 525 94Z" glyph-name="uni215E" horiz-adv-x="597" unicode="&#8542;" /><glyph d="M82 350V363H161V669Q145 646 120.5 634Q96 622 65 622V635Q100 635 124.5 651.5Q149 668 162 700H175V363H253V350ZM171 0H154L499 700H516Z" glyph-name="uni215F" horiz-adv-x="360" unicode="&#8543;" /><glyph d="M24 0H7L352 700H369Z" glyph-name="uni2215" horiz-adv-x="378" unicode="&#8725;" /><glyph d="M131 286Q131 272.5 140.75 262.75Q150.5 253 164 253Q177.5 253 187.25 262.75Q197 272.5 197 286Q197 299.5 187.25 309.25Q177.5 319 164 319Q150.5 319 140.75 309.25Q131 299.5 131 286ZM131 289Z" glyph-name="uni2219" horiz-adv-x="328" /><glyph d="M1406 529H68V537H1406ZM1213 257Q1213 262 1213 287.5Q1213 313 1212 332L1183 330V334Q1183 344 1186 349Q1189 354 1195 354H1212L1209 384Q1228 390 1232.5 391Q1237 392 1241 392Q1246 392 1249 390Q1252 388 1252 384V355H1299V352Q1299 341 1296 336Q1293 331 1287 331H1252V241Q1252 233 1256 229.5Q1260 226 1268 226Q1274 226 1281 227Q1288 228 1302 231Q1322 235 1332.5 236Q1343 237 1353 237Q1375 237 1395 230.5Q1415 224 1415 213Q1415 200 1406.5 192.5Q1398 185 1388 185Q1386 185 1383 186Q1380 187 1372 192Q1353 202 1340.5 205.5Q1328 209 1317 209Q1313 209 1308 208.5Q1303 208 1291 206Q1273 203 1262 202Q1251 201 1241 201Q1224 201 1219 210.5Q1214 220 1213 257ZM1196 290Q1196 278 1190 270.5Q1184 263 1171 258Q1162 255 1152 253.5Q1142 252 1127 252Q1128 242 1135 236Q1142 230 1153 230Q1162 230 1169.5 232Q1177 234 1185 239Q1189 236 1191 232Q1193 228 1193 223Q1193 214 1180.5 207Q1168 200 1146 200Q1118 200 1102 214.5Q1086 229 1086 253Q1086 282 1105 301.5Q1124 321 1155 321Q1173 321 1184.5 312Q1196 303 1196 290ZM873 290Q873 278 867 270.5Q861 263 848 258Q839 255 829 253.5Q819 252 804 252Q805 242 812 236Q819 230 830 230Q839 230 846.5 232Q854 234 862 239Q866 236 868 232Q870 228 870 223Q870 214 857.5 207Q845 200 823 200Q795 200 779 214.5Q763 229 763 253Q763 282 782 301.5Q801 321 832 321Q850 321 861.5 312Q873 303 873 290ZM174 290Q174 278 168 270.5Q162 263 149 258Q140 255 130 253.5Q120 252 105 252Q106 242 113 236Q120 230 131 230Q140 230 147.5 232Q155 234 163 239Q167 236 169 232Q171 228 171 223Q171 214 158.5 207Q146 200 124 200Q96 200 80 214.5Q64 229 64 253Q64 282 83 301.5Q102 321 133 321Q151 321 162.5 312Q174 303 174 290ZM1041 321Q1055 321 1062.5 313Q1070 305 1070 289V240L1072 208Q1053 202 1048.5 201Q1044 200 1041 200Q1036 200 1033 202Q1030 204 1030 208V275Q1030 283 1028 286.5Q1026 290 1022 290Q1015 290 1005.5 272.5Q996 255 996 242L999 208Q980 202 975.5 201Q971 200 967 200Q962 200 959 202Q956 204 956 208V277L953 313Q972 319 976.5 320Q981 321 985 321Q990 321 993 318.5Q996 316 996 312V272Q1005 296 1016 308.5Q1027 321 1041 321ZM351 321Q365 321 372 313Q379 305 379 289V240L382 208Q363 202 358.5 201Q354 200 351 200Q346 200 343 202Q340 204 340 208V274Q340 283 338 286.5Q336 290 332 290Q325 290 315.5 272.5Q306 255 306 242L308 208Q289 202 284.5 201Q280 200 277 200Q272 200 269 202Q266 204 266 208V274Q266 283 264 286.5Q262 290 258 290Q251 290 241.5 272.5Q232 255 232 242L235 208Q216 202 211.5 201Q207 200 203 200Q198 200 195 202Q192 204 192 208V277L189 313Q208 319 212.5 320Q217 321 221 321Q226 321 229 318.5Q232 316 232 312V272Q238 292 250 306.5Q262 321 277 321Q291 321 298.5 313Q306 305 306 289V272Q312 294 324 307.5Q336 321 351 321ZM827 298Q818 298 811.5 288.5Q805 279 803 264Q819 264 829.5 269.5Q840 275 840 285Q840 291 836.5 294.5Q833 298 827 298ZM1150 298Q1141 298 1134.5 288.5Q1128 279 1126 264Q1142 264 1152.5 269.5Q1163 275 1163 285Q1163 291 1159.5 294.5Q1156 298 1150 298ZM128 298Q119 298 112.5 288.5Q106 279 104 264Q120 264 130.5 269.5Q141 275 141 285Q141 291 137.5 294.5Q134 298 128 298ZM663 242V219Q686 222 697 235Q708 248 708 270Q708 280 704.5 285Q701 290 695 290Q683 290 673 272Q663 254 663 242ZM888 226Q888 236 895 243Q902 250 913 250Q924 250 931.5 243Q939 236 939 226Q939 216 931.5 209.5Q924 203 913 203Q902 203 895 209.5Q888 216 888 226ZM710 320Q728 320 739 306Q750 292 750 269Q750 236 727.5 218.5Q705 201 663 201V161L666 129Q647 123 642.5 122Q638 121 634 121Q629 121 626 123Q623 125 623 129V204L598 201V198Q598 160 580.5 139.5Q563 119 530 119Q511 119 500 128.5Q489 138 489 153Q489 171 505.5 184Q522 197 559 206V248Q551 225 539 212.5Q527 200 513 200Q499 200 492 207.5Q485 215 485 231V234Q475 217 462 209Q449 201 432 201Q419 201 411 209Q403 217 403 231V332L374 330V334Q374 344 377 349Q380 354 386 354H403L400 384Q419 390 423.5 391Q428 392 432 392Q437 392 440 390Q443 388 443 384V355H490V352Q490 341 487 336Q484 331 478 331H443V245Q443 237 446 233Q449 229 456 229Q466 229 475.5 237Q485 245 485 255V280L482 313Q501 319 505.5 320Q510 321 514 321Q519 321 522 318.5Q525 316 525 312V246Q525 238 526.5 234.5Q528 231 532 231Q539 231 548.5 248Q558 265 558 279L556 313Q575 319 579.5 320Q584 321 587 321Q592 321 595 318.5Q598 316 598 312V213L623 216V277L620 313Q639 319 643.5 320Q648 321 652 321Q657 321 660 318.5Q663 316 663 312V272Q671 295 683 307.5Q695 320 710 320ZM531 148Q543 148 550 159Q557 170 558 194Q539 190 528 181.5Q517 173 517 162Q517 155 521 151.5Q525 148 531 148ZM1406 0H68V8H1406Z" glyph-name="uniF8FF" horiz-adv-x="1480" unicode="&#63743;" /><glyph d="M102 180V489H118V180Q118 101 163.5 52Q209 3 288 3Q374 3 422 60.5Q470 118 470 215V489H486V0Q473 0 461 -2.5Q449 -5 437 -11Q426 -18 420.5 -22Q415 -26 411 -29Q389 -49 375.5 -77.5Q362 -106 362 -132Q362 -163 381.5 -180.5Q401 -198 434 -198Q447 -198 459 -195Q471 -192 482 -187V-203Q472 -208 460 -210.5Q448 -213 431 -213Q392 -213 369 -190.5Q346 -168 346 -134Q346 -107 362.5 -80Q379 -53 411 -29Q417 -24 423.5 -19.5Q430 -15 437 -11Q451 -4 458 0Q465 4 471 7V120Q450 56 403 22Q356 -12 288 -12Q202 -12 152 41Q102 94 102 180Z" glyph-name="uogonek" horiz-adv-x="598" unicode="&#371;" /><glyph d="M102 180V489H118V180Q118 101 163.5 52Q209 3 288 3Q374 3 422 60.5Q470 118 470 215V489H486V0H471V120Q450 56 403 22Q356 -12 288 -12Q202 -12 152 41Q102 94 102 180ZM294 489ZM471 0ZM393 654Q393 694 364.5 723Q336 752 295 752Q253 752 225 723.5Q197 695 197 654Q197 613 225 585Q253 557 295 557Q336 557 364.5 585.5Q393 614 393 654ZM213 654Q213 689 237 713Q261 737 295 737Q329 737 353 712.5Q377 688 377 654Q377 620 353 596Q329 572 295 572Q260 572 236.5 596Q213 620 213 654ZM294 489Z" glyph-name="uring" horiz-adv-x="598" unicode="&#367;" /><glyph d="M102 180V489H118V180Q118 101 163.5 52Q209 3 288 3Q374 3 422 60.5Q470 118 470 215V489H486V0H471V120Q450 56 403 22Q356 -12 288 -12Q202 -12 152 41Q102 94 102 180ZM294 489ZM471 0ZM346 616Q376 616 391.5 634.5Q407 653 408 690H392Q391 661 379.5 646Q368 631 346 631Q335 631 323.5 636.5Q312 642 291 659Q266 680 251 686.5Q236 693 221 693Q191 693 175 673Q159 653 158 614H174Q174 645 186 661.5Q198 678 221 678Q235 678 248.5 672Q262 666 284 647Q306 628 319 622Q332 616 346 616ZM294 489Z" glyph-name="utilde" horiz-adv-x="598" unicode="&#361;" /><glyph d="M249 0 39 489H56L256 22L457 489H473L263 0Z" glyph-name="v" horiz-adv-x="512" unicode="v" /><glyph d="M204 0 43 489H59L211 26L362 489H379L530 26L682 489H697L536 0H522L370 467L218 0ZM370 489Z" glyph-name="w" horiz-adv-x="740" unicode="w" /><glyph d="M204 0 43 489H59L211 26L362 489H379L530 26L682 489H697L536 0H522L370 467L218 0ZM370 489ZM468 721H449L363 587H381ZM372 489Z" glyph-name="wacute" horiz-adv-x="740" unicode="&#7811;" /><glyph d="M204 0 43 489H59L211 26L362 489H379L530 26L682 489H697L536 0H522L370 467L218 0ZM370 489ZM288 587 363 721H378L453 587H435L370 702L305 587ZM369 489Z" glyph-name="wcircumflex" horiz-adv-x="740" unicode="&#373;" /><glyph d="M204 0 43 489H59L211 26L362 489H379L530 26L682 489H697L536 0H522L370 467L218 0ZM370 489ZM293 654Q293 645 299 639Q305 633 314 633Q323 633 329 639Q335 645 335 654Q335 663 329 669Q323 675 314 675Q305 675 299 669Q293 663 293 654ZM405 654Q405 645 411 639Q417 633 426 633Q435 633 441 639Q447 645 447 654Q447 663 441 669Q435 675 426 675Q417 675 411 669Q405 663 405 654ZM370 489Z" glyph-name="wdieresis" horiz-adv-x="740" unicode="&#7813;" /><glyph d="M204 0 43 489H59L211 26L362 489H379L530 26L682 489H697L536 0H522L370 467L218 0ZM370 489ZM374 587 288 721H269L356 587ZM365 489Z" glyph-name="wgrave" horiz-adv-x="740" unicode="&#7809;" /><glyph d="M239 247 43 489H63L249 259L440 489H459L259 247L459 0H439L248 235L54 0H35Z" glyph-name="x" horiz-adv-x="498" unicode="x" /><glyph d="M245 -16 41 489H58L253 5L460 489H477L176 -218H159ZM260 489Z" glyph-name="y" horiz-adv-x="517" unicode="y" /><glyph d="M245 -16 41 489H58L253 5L460 489H477L176 -218H159ZM260 489ZM356 721H337L251 587H269ZM260 489Z" glyph-name="yacute" horiz-adv-x="517" unicode="&#253;" /><glyph d="M245 -16 41 489H58L253 5L460 489H477L176 -218H159ZM260 489ZM179 587 254 721H269L344 587H326L261 702L196 587ZM260 489Z" glyph-name="ycircumflex" horiz-adv-x="517" unicode="&#375;" /><glyph d="M245 -16 41 489H58L253 5L460 489H477L176 -218H159ZM260 489ZM183 654Q183 645 189 639Q195 633 204 633Q213 633 219 639Q225 645 225 654Q225 663 219 669Q213 675 204 675Q195 675 189 669Q183 663 183 654ZM295 654Q295 645 301 639Q307 633 316 633Q325 633 331 639Q337 645 337 654Q337 663 331 669Q325 675 316 675Q307 675 301 669Q295 663 295 654ZM260 489Z" glyph-name="ydieresis" horiz-adv-x="517" unicode="&#255;" /><glyph d="M289 215H112V230H289V314L288 315H112V330H278L35 700H54L297 330H299L539 700H557L315 330H486V315H306L305 314V230H486V215H305V0H289Z" glyph-name="yen" horiz-adv-x="594" unicode="&#165;" /><glyph d="M245 -16 41 489H58L253 5L460 489H477L176 -218H159ZM260 489ZM269 587 183 721H164L251 587ZM260 489Z" glyph-name="ygrave" horiz-adv-x="517" unicode="&#7923;" /><glyph d="M55 15H415V0H36V15L395 474H55V489H414V474ZM235 489Z" glyph-name="z" horiz-adv-x="459" unicode="z" /><glyph d="M55 15H415V0H36V15L395 474H55V489H414V474ZM235 489ZM331 721H312L226 587H244ZM235 489Z" glyph-name="zacute" horiz-adv-x="459" unicode="&#378;" /><glyph d="M55 15H415V0H36V15L395 474H55V489H414V474ZM235 489ZM244 587H229L154 721H172L237 606L302 721H319ZM235 489Z" glyph-name="zcaron" horiz-adv-x="459" unicode="&#382;" /><glyph d="M55 15H415V0H36V15L395 474H55V489H414V474ZM235 489ZM207 654Q207 643 215 635Q223 627 234 627Q245 627 253 635Q261 643 261 654Q261 665 253 673.5Q245 682 234 682Q223 682 215 673.5Q207 665 207 654ZM235 489Z" glyph-name="zdotaccent" horiz-adv-x="459" unicode="&#380;" /><glyph d="M77 350Q77 179 135.5 83.5Q194 -12 300 -12Q407 -12 466 84Q525 180 525 350Q525 519 466 615.5Q407 712 300 712Q194 712 135.5 616Q77 520 77 350ZM509 350Q509 187 454.5 95Q400 3 300 3Q201 3 147 94.5Q93 186 93 350Q93 514 147 605.5Q201 697 300 697Q399 697 454 605Q509 513 509 350Z" glyph-name="zero" horiz-adv-x="602" unicode="0" /><glyph d="M49 175Q49 91 80.5 42.5Q112 -6 168 -6Q225 -6 256.5 42Q288 90 288 175Q288 260 256.5 308Q225 356 168 356Q112 356 80.5 307.5Q49 259 49 175ZM274 175Q274 96 246.5 51.5Q219 7 168 7Q118 7 90.5 51.5Q63 96 63 175Q63 254 90.5 298.5Q118 343 168 343Q219 343 246.5 298.5Q274 254 274 175Z" glyph-name="zero.denominator" horiz-adv-x="338" unicode="&#63061;" /><glyph d="M49 35Q49 -49 80.5 -97.5Q112 -146 168 -146Q225 -146 256.5 -98Q288 -50 288 35Q288 120 256.5 168Q225 216 168 216Q112 216 80.5 167.5Q49 119 49 35ZM274 35Q274 -44 246.5 -88.5Q219 -133 168 -133Q118 -133 90.5 -88.5Q63 -44 63 35Q63 114 90.5 158.5Q118 203 168 203Q219 203 246.5 158.5Q274 114 274 35Z" glyph-name="zero.inferior" horiz-adv-x="338" unicode="&#8320;" /><glyph d="M49 525Q49 441 80.5 392.5Q112 344 168 344Q225 344 256.5 392Q288 440 288 525Q288 610 256.5 658Q225 706 168 706Q112 706 80.5 657.5Q49 609 49 525ZM274 525Q274 446 246.5 401.5Q219 357 168 357Q118 357 90.5 401.5Q63 446 63 525Q63 604 90.5 648.5Q118 693 168 693Q219 693 246.5 648.5Q274 604 274 525Z" glyph-name="zero.numerator" horiz-adv-x="338" unicode="&#63073;" /><glyph d="M49 665Q49 581 80.5 532.5Q112 484 168 484Q225 484 256.5 532Q288 580 288 665Q288 750 256.5 798Q225 846 168 846Q112 846 80.5 797.5Q49 749 49 665ZM274 665Q274 586 246.5 541.5Q219 497 168 497Q118 497 90.5 541.5Q63 586 63 665Q63 744 90.5 788.5Q118 833 168 833Q219 833 246.5 788.5Q274 744 274 665Z" glyph-name="zero.superior" horiz-adv-x="338" unicode="&#8304;" /><glyph d="M56 350Q56 179 114.5 83.5Q173 -12 279 -12Q386 -12 445 84Q504 180 504 350Q504 519 445 615.5Q386 712 279 712Q173 712 114.5 616Q56 520 56 350ZM488 350Q488 187 433.5 95Q379 3 279 3Q180 3 126 94.5Q72 186 72 350Q72 514 126 605.5Q180 697 279 697Q378 697 433 605Q488 513 488 350Z" glyph-name="zero.tab" horiz-adv-x="560" unicode="&#65296;" /></font>
</defs>
</svg>
