
<svg version="1.1" id="target" xmlns="http://www.w3.org/2000/svg" xmlns:xlink="http://www.w3.org/1999/xlink" x="0px" y="0px"
	 viewBox="0 0 24 24" style="enable-background:new 0 0 24 24;" xml:space="preserve">
<title>advertising-megaphone</title>
<g>
	<path d="M7.434,23.393c-0.699-0.047-1.338-0.364-1.799-0.894c-0.074-0.086-0.143-0.174-0.204-0.268l-0.665-1l-2.043,0.611
		c0.108,0.222,0.038,0.496-0.174,0.636c-0.082,0.054-0.177,0.083-0.276,0.083c-0.167,0-0.323-0.083-0.417-0.223L0.177,19.81
		c-0.152-0.231-0.089-0.542,0.141-0.694c0.079-0.054,0.176-0.084,0.275-0.084c0.146,0,0.282,0.063,0.377,0.171L9.593,8.738
		L9.462,8.542C9.31,8.312,9.373,8.001,9.602,7.849C9.686,7.794,9.78,7.766,9.878,7.766c0.167,0,0.323,0.083,0.417,0.222l6.381,9.614
		c0.152,0.229,0.09,0.54-0.139,0.692c-0.084,0.056-0.18,0.084-0.277,0.084c-0.168,0-0.324-0.083-0.416-0.224l-0.132-0.197
		l-5.723,1.712c0.19,0.402,0.274,0.841,0.244,1.284c-0.048,0.701-0.366,1.34-0.895,1.8c-0.477,0.417-1.088,0.646-1.721,0.646
		C7.556,23.399,7.495,23.397,7.434,23.393z M6.265,21.679c0.039,0.061,0.082,0.114,0.126,0.167c0.284,0.324,0.68,0.521,1.112,0.551
		l0.108,0.003c0.395,0,0.775-0.142,1.07-0.4c0.327-0.285,0.524-0.681,0.554-1.114c0.022-0.324-0.054-0.64-0.223-0.924l-3.244,0.97
		L6.265,21.679z M2.149,20.97l12.986-3.883L10.171,9.61l-8.62,10.459L2.149,20.97z"/>
	<path d="M13.097,22.22c-0.256,0-0.5-0.097-0.686-0.272l-0.361-0.341c-0.2-0.189-0.209-0.506-0.021-0.707
		c0.094-0.1,0.226-0.156,0.364-0.156c0.129,0,0.251,0.049,0.345,0.138l0.36,0.34l1.898-1.8c0.095-0.089,0.216-0.138,0.342-0.138
		h0.031l0.09,0.016L18,19.897l0.748-2.507c0.047-0.163,0.173-0.289,0.338-0.337l2.507-0.746l-0.605-2.546
		c-0.039-0.163,0.007-0.335,0.122-0.458l1.802-1.901L21.11,9.504c-0.116-0.123-0.162-0.294-0.123-0.459l0.597-2.534l-2.509-0.753
		c-0.164-0.05-0.29-0.176-0.337-0.339l-0.746-2.506l-2.574,0.606l-0.089,0.007c-0.127,0-0.249-0.049-0.342-0.138l-1.9-1.799
		l-1.898,1.8c-0.093,0.088-0.215,0.136-0.344,0.136h-0.029l-0.085-0.013L8.185,2.907L7.449,5.418C7.4,5.581,7.274,5.707,7.113,5.755
		L4.604,6.502l0.6,2.546C5.242,9.212,5.196,9.383,5.08,9.506l-1.8,1.9l0.671,0.71c0.091,0.097,0.14,0.224,0.136,0.357
		c-0.004,0.134-0.06,0.258-0.157,0.35c-0.092,0.087-0.214,0.136-0.343,0.136c-0.137,0-0.27-0.058-0.364-0.158l-0.67-0.71
		c-0.364-0.385-0.364-0.987,0-1.372l1.614-1.705L3.631,6.731C3.508,6.217,3.81,5.695,4.318,5.543l2.249-0.67l0.669-2.248
		C7.361,2.204,7.757,1.91,8.199,1.91c0.069,0,0.138,0.007,0.206,0.021l2.293,0.545l1.704-1.614c0.188-0.176,0.431-0.272,0.687-0.272
		c0.257,0,0.5,0.097,0.687,0.272l1.705,1.615l2.282-0.538c0.076-0.018,0.153-0.027,0.229-0.027c0.44,0,0.834,0.294,0.959,0.716
		l0.67,2.247l2.248,0.67c0.516,0.152,0.817,0.679,0.687,1.2l-0.532,2.266l1.615,1.705c0.363,0.385,0.363,0.988,0,1.373l-1.615,1.705
		l0.543,2.282c0.122,0.515-0.179,1.036-0.686,1.188l-2.251,0.671l-0.67,2.248c-0.125,0.42-0.52,0.714-0.959,0.714l0,0
		c-0.077,0-0.155-0.009-0.231-0.027l-2.28-0.537l-1.704,1.614C13.597,22.123,13.353,22.22,13.097,22.22z"/>
</g>
</svg>
