
<svg version="1.1" id="target" xmlns="http://www.w3.org/2000/svg" xmlns:xlink="http://www.w3.org/1999/xlink" x="0px" y="0px"
	 viewBox="0 0 24 24" style="enable-background:new 0 0 24 24;" xml:space="preserve">
<title>business-shark-1</title>
<g>
	<path d="M15,7.223c-0.159,0-0.31-0.077-0.403-0.205c-1.326-1.801-3.361-2.984-5.584-3.245L9,6.723c0,0.276-0.224,0.5-0.5,0.5
		S8,6.999,8,6.723V3.777C7.998,3.514,8.099,3.263,8.286,3.072c0.187-0.191,0.438-0.298,0.705-0.3c0.049,0,0.101,0.003,0.15,0.01
		c2.489,0.292,4.774,1.621,6.262,3.646c0.079,0.107,0.112,0.239,0.092,0.372c-0.02,0.132-0.09,0.248-0.198,0.327
		C15.211,7.189,15.107,7.223,15,7.223z"/>
	<path d="M9,11.221c-0.432,0-0.858-0.142-1.2-0.399L6.6,9.923C6.43,9.795,6.216,9.725,6,9.725S5.57,9.795,5.4,9.923l-1.2,0.9
		C3.858,11.08,3.432,11.221,3,11.221l0,0c-0.432,0-0.858-0.142-1.2-0.399L0.6,9.923C0.38,9.757,0.335,9.444,0.5,9.223
		c0.095-0.125,0.245-0.2,0.401-0.2c0.109,0,0.212,0.035,0.299,0.1l1.2,0.899c0.171,0.128,0.384,0.199,0.6,0.199
		s0.429-0.071,0.6-0.199l1.2-0.9C5.142,8.867,5.568,8.726,6,8.726s0.858,0.141,1.2,0.397l1.2,0.9c0.171,0.128,0.384,0.199,0.6,0.199
		s0.429-0.071,0.6-0.199l1.2-0.9c0.342-0.256,0.768-0.397,1.2-0.397s0.858,0.141,1.199,0.397l1.201,0.9
		c0.17,0.128,0.383,0.199,0.6,0.199s0.43-0.071,0.6-0.199l1.199-0.9c0.344-0.256,0.771-0.397,1.202-0.397s0.857,0.141,1.199,0.397
		l1.2,0.899c0.17,0.128,0.383,0.199,0.6,0.199s0.43-0.071,0.6-0.199l1.199-0.9c0.089-0.065,0.192-0.099,0.301-0.099
		c0.157,0,0.303,0.072,0.399,0.198c0.166,0.221,0.122,0.536-0.099,0.701l-1.199,0.9c-0.343,0.256-0.77,0.397-1.201,0.397
		s-0.858-0.141-1.2-0.397l-1.2-0.9c-0.173-0.13-0.38-0.199-0.6-0.199s-0.428,0.069-0.602,0.199l-1.197,0.899
		c-0.343,0.257-0.77,0.398-1.201,0.398s-0.858-0.141-1.2-0.397l-1.2-0.9C12.429,9.795,12.216,9.725,12,9.725S11.57,9.795,11.4,9.923
		l-1.201,0.9C9.854,11.083,9.438,11.221,9,11.221L9,11.221z"/>
	<path d="M9,16.221c-0.431,0-0.857-0.142-1.2-0.397l-1.2-0.899c-0.171-0.129-0.384-0.199-0.6-0.199s-0.429,0.07-0.6,0.199
		L4.2,15.823c-0.342,0.256-0.768,0.397-1.2,0.397s-0.858-0.142-1.2-0.397l-1.2-0.899c-0.22-0.165-0.265-0.479-0.101-0.699
		c0.097-0.128,0.242-0.2,0.401-0.2c0.108,0,0.211,0.033,0.297,0.097L2.4,15.022c0.171,0.129,0.384,0.199,0.6,0.199
		s0.429-0.07,0.6-0.199L4.8,14.123c0.342-0.256,0.768-0.396,1.2-0.396s0.858,0.141,1.2,0.396l1.2,0.899
		c0.171,0.129,0.384,0.199,0.6,0.199s0.429-0.07,0.6-0.199l1.201-0.899c0.342-0.256,0.768-0.396,1.2-0.396s0.858,0.141,1.199,0.396
		l1.201,0.899c0.17,0.129,0.384,0.199,0.6,0.199s0.43-0.07,0.6-0.199l1.199-0.899c0.343-0.256,0.77-0.396,1.201-0.396
		s0.858,0.141,1.2,0.396l1.2,0.899c0.17,0.129,0.384,0.199,0.6,0.199s0.43-0.07,0.6-0.199l1.199-0.899
		c0.092-0.065,0.194-0.099,0.302-0.099c0.16,0,0.306,0.072,0.399,0.199c0.165,0.221,0.12,0.534-0.1,0.7l-1.199,0.899
		c-0.343,0.256-0.77,0.397-1.201,0.397s-0.858-0.142-1.2-0.397l-1.2-0.899c-0.17-0.129-0.384-0.199-0.6-0.199s-0.43,0.07-0.6,0.199
		l-1.199,0.899c-0.343,0.256-0.77,0.397-1.201,0.397s-0.858-0.142-1.2-0.397l-1.2-0.899c-0.171-0.129-0.384-0.199-0.6-0.199
		s-0.429,0.07-0.6,0.199L10.2,15.823C9.857,16.079,9.431,16.221,9,16.221z"/>
	<path d="M9,21.221c-0.431,0-0.857-0.142-1.2-0.397l-1.2-0.899c-0.171-0.129-0.384-0.199-0.6-0.199s-0.429,0.07-0.6,0.199
		L4.2,20.823c-0.342,0.256-0.768,0.397-1.2,0.397s-0.858-0.142-1.2-0.397l-1.2-0.899c-0.22-0.165-0.265-0.479-0.101-0.699
		c0.097-0.128,0.242-0.2,0.401-0.2c0.108,0,0.211,0.033,0.297,0.097L2.4,20.022c0.171,0.129,0.384,0.199,0.6,0.199
		s0.429-0.07,0.6-0.199L4.8,19.123c0.342-0.256,0.768-0.396,1.2-0.396s0.858,0.141,1.2,0.396l1.2,0.899
		c0.171,0.129,0.384,0.199,0.6,0.199s0.429-0.07,0.6-0.199l1.201-0.899c0.342-0.256,0.768-0.396,1.2-0.396s0.858,0.141,1.199,0.396
		l1.201,0.899c0.17,0.129,0.384,0.199,0.6,0.199s0.43-0.07,0.6-0.199l1.199-0.899c0.343-0.256,0.77-0.396,1.201-0.396
		s0.858,0.141,1.2,0.396l1.2,0.899c0.17,0.129,0.384,0.199,0.6,0.199s0.43-0.07,0.6-0.199l1.199-0.899
		c0.092-0.065,0.194-0.099,0.302-0.099c0.16,0,0.306,0.072,0.399,0.199c0.165,0.221,0.12,0.534-0.1,0.7l-1.199,0.899
		c-0.343,0.256-0.77,0.397-1.201,0.397s-0.858-0.142-1.2-0.397l-1.2-0.899c-0.17-0.129-0.384-0.199-0.6-0.199s-0.43,0.07-0.6,0.199
		l-1.199,0.899c-0.343,0.256-0.77,0.397-1.201,0.397s-0.858-0.142-1.2-0.397l-1.2-0.899c-0.171-0.129-0.384-0.199-0.6-0.199
		s-0.429,0.07-0.6,0.199L10.2,20.823C9.857,21.079,9.431,21.221,9,21.221z"/>
</g>
</svg>
