
<svg version="1.1" id="target" xmlns="http://www.w3.org/2000/svg" xmlns:xlink="http://www.w3.org/1999/xlink" x="0px" y="0px"
	 viewBox="0 0 24 24" style="enable-background:new 0 0 24 24;" xml:space="preserve">
<title>business-climb-top</title>
<g>
	<path d="M0.75,24c-0.183,0-0.351-0.1-0.438-0.26s-0.082-0.355,0.017-0.509l3.5-5.499C4.194,17.271,4.688,17.019,5.233,17
		c0.564,0.018,1.07,0.269,1.406,0.688l0.304,0.596l5.383-8.55c0.247-0.326,0.561-0.545,0.923-0.651V0.5c0-0.276,0.225-0.5,0.5-0.5
		h6.96c0.269,0,0.52,0.105,0.708,0.295c0.189,0.189,0.292,0.44,0.291,0.708c0,0.226-0.078,0.448-0.221,0.624L20.391,3l1.1,1.375
		c0.166,0.208,0.242,0.469,0.214,0.734c-0.03,0.267-0.162,0.504-0.37,0.671C21.157,5.922,20.936,6,20.71,6h-6.46v3.083
		c0.21,0.06,0.4,0.156,0.569,0.285c0.12,0.091,0.231,0.202,0.328,0.328l8.526,13.538c0.096,0.153,0.102,0.348,0.014,0.507
		C23.599,23.901,23.432,24,23.25,24H0.75z M22.344,23l-3.665-5.82l-1.904,1.609c-0.271,0.229-0.615,0.355-0.968,0.355
		c-0.399,0-0.776-0.157-1.062-0.442l-0.642-0.642c-0.095-0.095-0.22-0.146-0.354-0.146s-0.259,0.052-0.354,0.146l-0.642,0.642
		c-0.286,0.286-0.663,0.443-1.061,0.443c-0.352,0-0.695-0.127-0.968-0.356l-1.904-1.612L5.155,23H22.344z M3.974,23l2.351-3.732
		l-0.522-1.045C5.703,18.115,5.472,18.01,5.242,18c-0.228,0.01-0.453,0.126-0.603,0.312L1.66,23H3.974z M13.749,16.914
		c0.401,0,0.778,0.156,1.062,0.439l0.642,0.642c0.097,0.097,0.223,0.149,0.354,0.149c0.119,0,0.23-0.041,0.322-0.12l2.012-1.7
		l-3.814-6.058c-0.01-0.011-0.057-0.061-0.112-0.102c-0.137-0.105-0.296-0.159-0.461-0.159c-0.033,0-0.067,0.002-0.102,0.007
		c-0.202,0.027-0.381,0.13-0.504,0.292l-3.788,6.019l2.012,1.703c0.092,0.077,0.203,0.118,0.322,0.118
		c0.133,0,0.259-0.053,0.354-0.148l0.642-0.642C12.972,17.07,13.348,16.914,13.749,16.914z M20.71,5l-1.101-1.375
		c-0.293-0.368-0.293-0.881,0-1.248L20.709,1L14.25,1v4H20.71z"/>
</g>
</svg>
