
<svg version="1.1" id="target" xmlns="http://www.w3.org/2000/svg" xmlns:xlink="http://www.w3.org/1999/xlink" x="0px" y="0px"
	 viewBox="0 0 24 24" style="enable-background:new 0 0 24 24;" xml:space="preserve">
<title>business-team-goal</title>
<g>
	<path d="M14.25,23.5c-0.275,0-0.5-0.225-0.5-0.5v-1.406c0-0.275,0.225-0.5,0.5-0.5s0.5,0.225,0.5,0.5V23
		C14.75,23.275,14.525,23.5,14.25,23.5z"/>
	<path d="M19.25,24c-0.275,0-0.5-0.225-0.5-0.5c0-2.481-2.019-4.5-4.5-4.5s-4.5,2.019-4.5,4.5c0,0.275-0.224,0.5-0.5,0.5
		s-0.5-0.225-0.5-0.5c0-3.032,2.467-5.5,5.5-5.5c3.032,0,5.5,2.468,5.5,5.5C19.75,23.775,19.525,24,19.25,24z"/>
	<path d="M2.75,24c-0.08,0-0.161-0.02-0.233-0.058c-0.246-0.132-0.338-0.435-0.208-0.678c0.828-1.551,2.438-2.514,4.202-2.514
		c0.675,0,1.33,0.142,1.947,0.421c0.122,0.055,0.214,0.153,0.262,0.279c0.047,0.125,0.043,0.26-0.012,0.382
		c-0.08,0.179-0.259,0.294-0.455,0.294l0,0c-0.072,0-0.142-0.015-0.208-0.045c-0.485-0.22-1.001-0.331-1.534-0.331
		c-1.395,0-2.667,0.761-3.32,1.984C3.103,23.899,2.934,24,2.75,24z"/>
	<path d="M6.5,20.475c-1.916,0-3.475-1.559-3.475-3.475c0-0.598,0.158-1.175,0.471-1.718l0.01-0.02
		c0.413-0.694,1.025-1.216,1.739-1.494c0.043-0.017,0.089-0.03,0.136-0.044c0.228-0.071,0.392-0.116,0.563-0.145l0.132-0.029
		l0.105-0.005l0.062,0.251l0.044-0.251c0.114-0.015,0.163-0.021,0.212-0.021l0.114,0.262l0.008-0.25
		c0.127,0.004,0.25,0.019,0.375,0.038c0.104,0.015,0.209,0.029,0.313,0.055c0.111,0.027,0.219,0.063,0.327,0.101
		c0.11,0.039,0.213,0.076,0.312,0.121c0.102,0.047,0.195,0.102,0.29,0.157c0.104,0.061,0.199,0.117,0.29,0.183
		c0.074,0.053,0.141,0.111,0.208,0.17c0.12,0.104,0.211,0.185,0.295,0.275c0.05,0.055,0.096,0.111,0.141,0.169
		c0.115,0.145,0.199,0.255,0.272,0.373c0.029,0.048,0.054,0.095,0.079,0.143c0.098,0.183,0.17,0.334,0.229,0.494l0.034,0.109
		c0.063,0.191,0.11,0.39,0.139,0.595l0.013,0.1C9.958,16.744,9.975,16.87,9.975,17C9.975,18.916,8.416,20.475,6.5,20.475z
		 M4.127,16.307C4.06,16.534,4.025,16.767,4.025,17c0,1.364,1.11,2.475,2.475,2.475c1.271,0,2.322-0.964,2.46-2.198
		C8.453,17.427,7.969,17.5,7.492,17.5C6.279,17.5,5.098,17.079,4.127,16.307z M4.6,15.43c0.799,0.683,1.839,1.07,2.889,1.07
		c0.468,0,0.927-0.073,1.369-0.217c-0.099-0.328-0.273-0.64-0.51-0.91L8.446,15.1l-0.181,0.173
		c-0.032-0.033-0.068-0.062-0.104-0.091l-0.12-0.103c-0.044-0.038-0.088-0.077-0.137-0.111l-0.146-0.085
		c-0.098-0.059-0.18-0.107-0.268-0.146l-0.136-0.049c-0.103-0.038-0.207-0.074-0.316-0.099l-0.146-0.022
		c-0.108-0.018-0.218-0.031-0.332-0.034l-0.012-0.25v0.25l-0.147,0.006c-0.123,0.006-0.213,0.014-0.301,0.028
		C6,14.583,5.903,14.609,5.807,14.638c-0.089,0.025-0.134,0.038-0.178,0.055c-0.118,0.045-0.23,0.102-0.34,0.164l-0.228-0.161
		l0.134,0.211C4.966,15.052,4.766,15.228,4.6,15.43z"/>
	<path d="M21.25,24c-0.275,0-0.5-0.225-0.5-0.5V6h-4v0.5c0,0.827-0.673,1.5-1.5,1.5h-7.5C7.547,8,7.366,7.879,7.288,7.691
		S7.253,7.29,7.396,7.146L9.543,5L7.396,2.854C7.253,2.71,7.21,2.496,7.288,2.309S7.547,2,7.75,2h6V1.5c0-0.827,0.673-1.5,1.5-1.5h6
		c0.275,0,0.5,0.224,0.5,0.5v23C21.75,23.775,21.525,24,21.25,24z M15.25,7c0.275,0,0.5-0.224,0.5-0.5V6h-0.5
		c-0.827,0-1.5-0.673-1.5-1.5V3H8.957l1.646,1.646c0.195,0.195,0.195,0.512,0,0.707L8.957,7H15.25z M15.25,1
		c-0.275,0-0.5,0.224-0.5,0.5v3c0,0.276,0.225,0.5,0.5,0.5h5.5V1H15.25z"/>
	<path d="M14.25,17.5c-2.206,0-4-1.794-4-4c0-0.858,0.28-1.685,0.811-2.391l0.051-0.054l0.03-0.021l-0.007-0.009
		C11.869,10.07,13.018,9.5,14.25,9.5c1.751,0,3.31,1.17,3.815,2.856l0.007,0.005l0.04,0.09l0.021,0.065l-0.016,0.095
		c0.089,0.271,0.132,0.583,0.132,0.888C18.25,15.706,16.456,17.5,14.25,17.5z M11.581,12.146c-0.217,0.422-0.331,0.886-0.331,1.354
		c0,1.654,1.346,3,3,3s3-1.346,3-3c0-0.089-0.005-0.176-0.015-0.263c-0.653,0.175-1.295,0.263-1.909,0.263
		C13.958,13.47,12.649,12.991,11.581,12.146z M12.18,11.349c0.9,0.719,2.003,1.125,3.132,1.151l0.152,0.002
		c0.484,0,0.981-0.071,1.515-0.216C16.5,11.208,15.434,10.5,14.25,10.5C13.482,10.5,12.741,10.807,12.18,11.349z"/>
</g>
</svg>
