<?xml version="1.0" standalone="no"?><!DOCTYPE svg PUBLIC "-//W3C//DTD SVG 1.1//EN" "http://www.w3.org/Graphics/SVG/1.1/DTD/svg11.dtd" ><svg version="1.1" xmlns="http://www.w3.org/2000/svg"><defs><font horiz-adv-x="0" id="font"><font-face ascent="750" bbox="-131 -230 1415 962" cap-height="700" descent="-250" font-family="Web use ONLY | Copyright (C) Emtype Foundry" font-stretch="normal" font-weight="275" units-per-em="1000" x-height="489" /><missing-glyph d="M52 351Q52 501 157.5 606.5Q263 712 413 712Q563 712 668.5 606.5Q774 501 774 351Q774 201 668 94.5Q562 -12 413 -12Q264 -12 158 94.5Q52 201 52 351ZM306 565H229L375 346L229 127H307L414 287L520 127H598L452 346L598 565H521L414 404Z" horiz-adv-x="826" /><glyph d="M148 228 11 0H-7L413 700H430L583 0H567L517 228ZM418 680 157 243H514ZM421 700ZM536 0Z" glyph-name="A" horiz-adv-x="672" unicode="A" /><glyph d="M215 239 3 0H-17L604 700H1075L1073 685H626L571 368H988L985 353H568L509 15H965L962 0H490L532 239ZM610 684 228 254H535Z" glyph-name="AE" horiz-adv-x="1063" unicode="&#198;" /><glyph d="M148 228 11 0H-7L413 700H430L583 0H567L517 228ZM418 680 157 243H514ZM421 700ZM536 0ZM551 921H532L434 787H452ZM421 700Z" glyph-name="Aacute" horiz-adv-x="672" unicode="&#193;" /><glyph d="M148 228 11 0H-7L413 700H430L583 0H567L517 228ZM418 680 157 243H514ZM421 700ZM536 0ZM438 800Q483 800 511 830.5Q539 861 550 921H565Q553 851 522 818Q491 785 438 785Q382 785 353.5 821.5Q325 858 331 921H346Q340 868 365 834Q390 800 438 800ZM421 700Z" glyph-name="Abreve" horiz-adv-x="672" unicode="&#258;" /><glyph d="M148 228 11 0H-7L413 700H430L583 0H567L517 228ZM418 680 157 243H514ZM421 700ZM536 0ZM353 787 440 921H455L518 787H500L445 902L370 787ZM421 700Z" glyph-name="Acircumflex" horiz-adv-x="672" unicode="&#194;" /><glyph d="M148 228 11 0H-7L413 700H430L583 0H567L517 228ZM418 680 157 243H514ZM421 700ZM536 0ZM362 854Q362 845 368 839Q374 833 383 833Q392 833 398 839Q404 845 404 854Q404 863 398 869Q392 875 383 875Q374 875 368 869Q362 863 362 854ZM474 854Q474 845 480 839Q486 833 495 833Q504 833 510 839Q516 845 516 854Q516 863 510 869Q504 875 495 875Q486 875 480 869Q474 863 474 854ZM421 700Z" glyph-name="Adieresis" horiz-adv-x="672" unicode="&#196;" /><glyph d="M148 228 11 0H-7L413 700H430L583 0H567L517 228ZM418 680 157 243H514ZM421 700ZM536 0ZM427 787 353 921H334L409 787ZM421 700Z" glyph-name="Agrave" horiz-adv-x="672" unicode="&#192;" /><glyph d="M148 228 11 0H-7L413 700H430L583 0H567L517 228ZM418 680 157 243H514ZM421 700ZM536 0ZM550 846H304L306 861H552ZM421 700Z" glyph-name="Amacron" horiz-adv-x="672" unicode="&#256;" /><glyph d="M148 228 11 0H-7L413 700H430L583 0Q512 -27 473.5 -63.5Q435 -100 435 -142Q435 -169 454.5 -184.5Q474 -200 505 -200Q515 -200 525.5 -198Q536 -196 545 -192L543 -208Q535 -212 526 -213.5Q517 -215 506 -215Q465 -215 442 -195.5Q419 -176 419 -142Q419 -98 458.5 -58Q498 -18 565 7L517 228ZM418 680 157 243H514Z" glyph-name="Aogonek" horiz-adv-x="672" unicode="&#260;" /><glyph d="M148 228 11 0H-7L413 700H430L583 0H567L517 228ZM418 680 157 243H514ZM421 700ZM536 0ZM538 854Q538 894 509.5 923Q481 952 440 952Q398 952 370 923.5Q342 895 342 854Q342 813 370 785Q398 757 440 757Q481 757 509.5 785.5Q538 814 538 854ZM358 854Q358 889 382 913Q406 937 440 937Q474 937 498 912.5Q522 888 522 854Q522 820 498 796Q474 772 440 772Q405 772 381.5 796Q358 820 358 854ZM421 700Z" glyph-name="Aring" horiz-adv-x="672" unicode="&#197;" /><glyph d="M148 228 11 0H-7L413 700H430L583 0H567L517 228ZM418 680 157 243H514ZM421 700ZM536 0ZM431 846Q452 824 465 817Q478 810 494 810Q521 810 538.5 828.5Q556 847 559 879H543Q542 854 528.5 839.5Q515 825 494 825Q482 825 471 831Q460 837 440 858Q416 882 400.5 890Q385 898 367 898Q340 898 323 879Q306 860 299 824H315Q320 852 333 867.5Q346 883 366 883Q382 883 396 876Q410 869 431 846ZM421 700Z" glyph-name="Atilde" horiz-adv-x="672" unicode="&#195;" /><glyph d="M82 0 205 700H466Q551 700 601 655Q651 610 651 542Q651 477 604.5 426Q558 375 488 362Q540 344 570.5 298Q601 252 601 197Q601 114 540.5 57Q480 0 391 0ZM635 541Q635 604 589 644.5Q543 685 463 685H218L164 373H451Q526 373 580.5 422.5Q635 472 635 541ZM585 196Q585 265 538.5 311.5Q492 358 415 358H161L101 16H392Q473 16 529 68Q585 120 585 196Z" glyph-name="B" horiz-adv-x="693" unicode="B" /><glyph d="M193 567Q150 511 126.5 441.5Q103 372 103 298Q103 167 177 85Q251 3 371 3Q454 3 518.5 44Q583 85 629 167L642 161Q594 74 527 31Q460 -12 371 -12Q243 -12 165 73Q87 158 87 296Q87 375 111 447.5Q135 520 180 578Q230 642 298 677Q366 712 439 712Q551 712 619.5 653.5Q688 595 700 492L685 488Q672 586 607.5 641.5Q543 697 439 697Q370 697 305.5 663Q241 629 193 567ZM440 700ZM378 10Z" glyph-name="C" horiz-adv-x="713" unicode="C" /><glyph d="M193 567Q150 511 126.5 441.5Q103 372 103 298Q103 167 177 85Q251 3 371 3Q454 3 518.5 44Q583 85 629 167L642 161Q594 74 527 31Q460 -12 371 -12Q243 -12 165 73Q87 158 87 296Q87 375 111 447.5Q135 520 180 578Q230 642 298 677Q366 712 439 712Q551 712 619.5 653.5Q688 595 700 492L685 488Q672 586 607.5 641.5Q543 697 439 697Q370 697 305.5 663Q241 629 193 567ZM440 700ZM378 10ZM570 921H551L453 787H471ZM440 700Z" glyph-name="Cacute" horiz-adv-x="713" unicode="&#262;" /><glyph d="M193 567Q150 511 126.5 441.5Q103 372 103 298Q103 167 177 85Q251 3 371 3Q454 3 518.5 44Q583 85 629 167L642 161Q594 74 527 31Q460 -12 371 -12Q243 -12 165 73Q87 158 87 296Q87 375 111 447.5Q135 520 180 578Q230 642 298 677Q366 712 439 712Q551 712 619.5 653.5Q688 595 700 492L685 488Q672 586 607.5 641.5Q543 697 439 697Q370 697 305.5 663Q241 629 193 567ZM440 700ZM378 10ZM457 787H442L379 921H397L452 806L527 921H544ZM440 700Z" glyph-name="Ccaron" horiz-adv-x="713" unicode="&#268;" /><glyph d="M289 -96 279 -80 345 -11Q228 -2 157.5 82Q87 166 87 296Q87 375 111 447.5Q135 520 180 578Q230 642 298 677Q366 712 439 712Q551 712 619.5 653.5Q688 595 700 492L685 488Q672 586 607.5 641.5Q543 697 439 697Q370 697 305.5 663Q241 629 193 567Q150 511 126.5 441.5Q103 372 103 298Q103 167 177 85Q251 3 371 3Q454 3 518.5 44Q583 85 629 167L642 161Q594 74 527 31Q460 -12 371 -12Q369 -12 367.5 -12Q366 -12 364 -12L304 -76Q316 -71 328 -68.5Q340 -66 354 -66Q389 -66 409.5 -81.5Q430 -97 430 -126Q430 -164 400.5 -188Q371 -212 325 -212Q304 -212 283 -206.5Q262 -201 245 -191L253 -178Q269 -187 288.5 -192Q308 -197 327 -197Q366 -197 390 -177.5Q414 -158 414 -126Q414 -104 398 -92.5Q382 -81 352 -81Q335 -81 320 -84.5Q305 -88 289 -96Z" glyph-name="Ccedilla" horiz-adv-x="713" unicode="&#199;" /><glyph d="M193 567Q150 511 126.5 441.5Q103 372 103 298Q103 167 177 85Q251 3 371 3Q454 3 518.5 44Q583 85 629 167L642 161Q594 74 527 31Q460 -12 371 -12Q243 -12 165 73Q87 158 87 296Q87 375 111 447.5Q135 520 180 578Q230 642 298 677Q366 712 439 712Q551 712 619.5 653.5Q688 595 700 492L685 488Q672 586 607.5 641.5Q543 697 439 697Q370 697 305.5 663Q241 629 193 567ZM440 700ZM378 10ZM372 787 459 921H474L537 787H519L464 902L389 787ZM440 700Z" glyph-name="Ccircumflex" horiz-adv-x="713" unicode="&#264;" /><glyph d="M193 567Q150 511 126.5 441.5Q103 372 103 298Q103 167 177 85Q251 3 371 3Q454 3 518.5 44Q583 85 629 167L642 161Q594 74 527 31Q460 -12 371 -12Q243 -12 165 73Q87 158 87 296Q87 375 111 447.5Q135 520 180 578Q230 642 298 677Q366 712 439 712Q551 712 619.5 653.5Q688 595 700 492L685 488Q672 586 607.5 641.5Q543 697 439 697Q370 697 305.5 663Q241 629 193 567ZM440 700ZM378 10ZM434 854Q434 843 442 835Q450 827 461 827Q472 827 480 835Q488 843 488 854Q488 865 480 873.5Q472 882 461 882Q450 882 442 873.5Q434 865 434 854ZM440 700Z" glyph-name="Cdotaccent" horiz-adv-x="713" unicode="&#266;" /><glyph d="M82 0 205 700H424Q561 700 644 616.5Q727 533 727 403Q727 233 617.5 116.5Q508 0 345 0ZM710 400Q710 526 632 605.5Q554 685 422 685H218L101 15H346Q500 15 605 127.5Q710 240 710 400ZM469 700Z" glyph-name="D" horiz-adv-x="775" unicode="D" /><glyph d="M82 0 205 700H424Q561 700 644 616.5Q727 533 727 403Q727 233 617.5 116.5Q508 0 345 0ZM710 400Q710 526 632 605.5Q554 685 422 685H218L101 15H346Q500 15 605 127.5Q710 240 710 400ZM469 700ZM486 787H471L408 921H426L481 806L556 921H573ZM469 700Z" glyph-name="Dcaron" horiz-adv-x="776" unicode="&#270;" /><glyph d="M32 343 36 358H157L217 700H436Q573 700 656 616.5Q739 533 739 403Q739 233 629.5 116.5Q520 0 357 0H94L154 343ZM722 400Q722 526 644 605.5Q566 685 434 685H230L173 358H444L440 343H170L113 15H358Q512 15 617 127.5Q722 240 722 400Z" glyph-name="Dcroat" horiz-adv-x="787" unicode="&#272;" /><glyph d="M2 0 6 15 398 700H415L557 15L553 0ZM403 679 24 15H541Z" glyph-name="Delta" horiz-adv-x="645" unicode="&#8710;" /><glyph d="M82 0 205 700H667L665 685H218L163 368H580L577 353H160L101 15H557L554 0ZM438 700ZM510 0Z" glyph-name="E" horiz-adv-x="655" unicode="E" /><glyph d="M82 0 205 700H667L665 685H218L163 368H580L577 353H160L101 15H557L554 0ZM438 700ZM510 0ZM568 921H549L451 787H469ZM438 700Z" glyph-name="Eacute" horiz-adv-x="655" unicode="&#201;" /><glyph d="M82 0 205 700H667L665 685H218L163 368H580L577 353H160L101 15H557L554 0ZM438 700ZM510 0ZM455 800Q500 800 528 830.5Q556 861 567 921H582Q570 851 539 818Q508 785 455 785Q399 785 370.5 821.5Q342 858 348 921H363Q357 868 382 834Q407 800 455 800ZM438 700Z" glyph-name="Ebreve" horiz-adv-x="655" unicode="&#276;" /><glyph d="M82 0 205 700H667L665 685H218L163 368H580L577 353H160L101 15H557L554 0ZM438 700ZM510 0ZM455 787H440L377 921H395L450 806L525 921H542ZM438 700Z" glyph-name="Ecaron" horiz-adv-x="655" unicode="&#282;" /><glyph d="M82 0 205 700H667L665 685H218L163 368H580L577 353H160L101 15H557L554 0ZM438 700ZM510 0ZM370 787 457 921H472L535 787H517L462 902L387 787ZM438 700Z" glyph-name="Ecircumflex" horiz-adv-x="655" unicode="&#202;" /><glyph d="M82 0 205 700H667L665 685H218L163 368H580L577 353H160L101 15H557L554 0ZM438 700ZM510 0ZM379 854Q379 845 385 839Q391 833 400 833Q409 833 415 839Q421 845 421 854Q421 863 415 869Q409 875 400 875Q391 875 385 869Q379 863 379 854ZM491 854Q491 845 497 839Q503 833 512 833Q521 833 527 839Q533 845 533 854Q533 863 527 869Q521 875 512 875Q503 875 497 869Q491 863 491 854ZM438 700Z" glyph-name="Edieresis" horiz-adv-x="655" unicode="&#203;" /><glyph d="M82 0 205 700H667L665 685H218L163 368H580L577 353H160L101 15H557L554 0ZM438 700ZM510 0ZM432 854Q432 843 440 835Q448 827 459 827Q470 827 478 835Q486 843 486 854Q486 865 478 873.5Q470 882 459 882Q448 882 440 873.5Q432 865 432 854ZM438 700Z" glyph-name="Edotaccent" horiz-adv-x="655" unicode="&#278;" /><glyph d="M82 0 205 700H667L665 685H218L163 368H580L577 353H160L101 15H557L554 0ZM438 700ZM510 0ZM444 787 370 921H351L426 787ZM438 700Z" glyph-name="Egrave" horiz-adv-x="655" unicode="&#200;" /><glyph d="M82 0 205 700H667L665 685H218L163 368H580L577 353H160L101 15H557L554 0ZM438 700ZM510 0ZM567 846H321L323 861H569ZM438 700Z" glyph-name="Emacron" horiz-adv-x="655" unicode="&#274;" /><glyph d="M160 353 101 15H557L554 0Q483 -27 444.5 -63.5Q406 -100 406 -142Q406 -169 425.5 -184.5Q445 -200 476 -200Q486 -200 496.5 -198Q507 -196 516 -192L514 -208Q506 -212 497 -213.5Q488 -215 477 -215Q436 -215 413 -195.5Q390 -176 390 -142Q390 -102 424.5 -64Q459 -26 518 0H82L205 700H667L665 685H218L163 368H580L577 353Z" glyph-name="Eogonek" horiz-adv-x="655" unicode="&#280;" /><glyph d="M32 343 36 358H157L217 700H436Q573 700 656 616.5Q739 533 739 403Q739 233 629.5 116.5Q520 0 357 0H94L154 343ZM722 400Q722 526 644 605.5Q566 685 434 685H230L173 358H444L440 343H170L113 15H358Q512 15 617 127.5Q722 240 722 400Z" glyph-name="Eth" horiz-adv-x="787" unicode="&#208;" /><glyph d="M150 249Q150 131 197 67Q244 3 331 3Q391 3 439 45.5Q487 88 522 172L536 166Q499 77 447.5 32.5Q396 -12 330 -12Q235 -12 184.5 55Q134 122 134 246Q134 265 134 274Q134 283 135 291H58L60 306H136Q137 326 140 347.5Q143 369 147 391H76L78 406H150Q180 547 251.5 629.5Q323 712 418 712Q506 712 549 659.5Q592 607 594 497L578 496Q576 600 537 648.5Q498 697 417 697Q329 697 262 618Q195 539 166 406H394L392 391H163Q159 367 156 346Q153 325 152 306H376L374 291H151Q150 284 150 275Q150 266 150 249Z" glyph-name="Euro" horiz-adv-x="617" unicode="&#8364;" /><glyph d="M82 0 206 700H700L696 685H219L161 353H608L606 338H158L98 0Z" glyph-name="F" horiz-adv-x="659" unicode="F" /><glyph d="M428 322 432 337H705L645 0H630L657 154Q617 76 546 32Q475 -12 387 -12Q248 -12 167.5 70Q87 152 87 290Q87 476 191 594Q295 712 453 712Q561 712 632 658Q703 604 734 498L719 494Q689 595 621.5 646Q554 697 451 697Q302 697 202 583Q102 469 102 293Q102 160 178.5 81.5Q255 3 388 3Q495 3 575 72Q655 141 673 247L686 322ZM448 700ZM380 0Z" glyph-name="G" horiz-adv-x="770" unicode="G" /><glyph d="M428 322 432 337H705L645 0H630L657 154Q617 76 546 32Q475 -12 387 -12Q248 -12 167.5 70Q87 152 87 290Q87 476 191 594Q295 712 453 712Q561 712 632 658Q703 604 734 498L719 494Q689 595 621.5 646Q554 697 451 697Q302 697 202 583Q102 469 102 293Q102 160 178.5 81.5Q255 3 388 3Q495 3 575 72Q655 141 673 247L686 322ZM448 700ZM380 0ZM465 800Q510 800 538 830.5Q566 861 577 921H592Q580 851 549 818Q518 785 465 785Q409 785 380.5 821.5Q352 858 358 921H373Q367 868 392 834Q417 800 465 800ZM448 700Z" glyph-name="Gbreve" horiz-adv-x="770" unicode="&#286;" /><glyph d="M428 322 432 337H705L645 0H630L657 154Q617 76 546 32Q475 -12 387 -12Q248 -12 167.5 70Q87 152 87 290Q87 476 191 594Q295 712 453 712Q561 712 632 658Q703 604 734 498L719 494Q689 595 621.5 646Q554 697 451 697Q302 697 202 583Q102 469 102 293Q102 160 178.5 81.5Q255 3 388 3Q495 3 575 72Q655 141 673 247L686 322ZM448 700ZM380 0ZM380 787 467 921H482L545 787H527L472 902L397 787ZM448 700Z" glyph-name="Gcircumflex" horiz-adv-x="770" unicode="&#284;" /><glyph d="M428 322 432 337H705L645 0H630L657 154Q617 76 546 32Q475 -12 387 -12Q248 -12 167.5 70Q87 152 87 290Q87 476 191 594Q295 712 453 712Q561 712 632 658Q703 604 734 498L719 494Q689 595 621.5 646Q554 697 451 697Q302 697 202 583Q102 469 102 293Q102 160 178.5 81.5Q255 3 388 3Q495 3 575 72Q655 141 673 247L686 322ZM448 700ZM380 0ZM442 854Q442 843 450 835Q458 827 469 827Q480 827 488 835Q496 843 496 854Q496 865 488 873.5Q480 882 469 882Q458 882 450 873.5Q442 865 442 854ZM448 700Z" glyph-name="Gdotaccent" horiz-adv-x="770" unicode="&#288;" /><glyph d="M82 0 205 700H221L164 373H647L704 700H720L597 0H581L644 358H161L98 0ZM462 700Z" glyph-name="H" horiz-adv-x="765" unicode="H" /><glyph d="M73 523 77 538H183L211 700H227L199 538H682L710 700H726L698 538H797L793 523H695L603 0H587L650 358H167L104 0H88L180 523ZM196 523 170 373H653L679 523Z" glyph-name="Hbar" horiz-adv-x="774" unicode="&#294;" /><glyph d="M82 0 205 700H221L164 373H647L704 700H720L597 0H581L644 358H161L98 0ZM462 700ZM394 787 481 921H496L559 787H541L486 902L411 787ZM462 700Z" glyph-name="Hcircumflex" horiz-adv-x="765" unicode="&#292;" /><glyph d="M82 0 205 700H221L98 0ZM213 700ZM67 0Z" glyph-name="I" horiz-adv-x="266" unicode="I" /><glyph d="M2 0 5 15H123L240 685H121L124 700H387L384 685H256L139 15H268L265 0ZM251 700ZM105 0Z" glyph-name="I.alt" horiz-adv-x="350" /><glyph d="M82 0 205 700H221L98 0ZM213 700ZM67 0ZM687 190 776 700H760L671 191Q655 100 604.5 51.5Q554 3 478 3Q392 3 346.5 54.5Q301 106 311 191L296 193Q284 102 334.5 45Q385 -12 476 -12Q560 -12 615 40Q670 92 687 190ZM768 700Z" glyph-name="IJ" horiz-adv-x="812" unicode="&#306;" /><glyph d="M2 0 5 15H123L240 685H121L124 700H387L384 685H256L139 15H268L265 0ZM659 685 661 700H861L772 190Q755 92 700 40Q645 -12 561 -12Q470 -12 419.5 45Q369 102 381 193L396 191Q386 106 431.5 54.5Q477 3 563 3Q639 3 689.5 51.5Q740 100 756 191L842 685Z" glyph-name="IJ.alt" horiz-adv-x="897" /><glyph d="M82 0 205 700H221L98 0ZM213 700ZM67 0ZM343 921H324L226 787H244ZM213 700Z" glyph-name="Iacute" horiz-adv-x="266" unicode="&#205;" /><glyph d="M2 0 5 15H123L240 685H121L124 700H387L384 685H256L139 15H268L265 0ZM251 700ZM105 0ZM377 921H358L260 787H278ZM247 700Z" glyph-name="Iacute.alt" horiz-adv-x="350" /><glyph d="M82 0 205 700H221L98 0ZM213 700ZM67 0ZM145 787 232 921H247L310 787H292L237 902L162 787ZM213 700Z" glyph-name="Icircumflex" horiz-adv-x="266" unicode="&#206;" /><glyph d="M2 0 5 15H123L240 685H121L124 700H387L384 685H256L139 15H268L265 0ZM251 700ZM105 0ZM182 787 269 921H284L347 787H329L274 902L199 787ZM250 700Z" glyph-name="Icircumflex.alt" horiz-adv-x="350" /><glyph d="M82 0 205 700H221L98 0ZM213 700ZM67 0ZM154 854Q154 845 160 839Q166 833 175 833Q184 833 190 839Q196 845 196 854Q196 863 190 869Q184 875 175 875Q166 875 160 869Q154 863 154 854ZM266 854Q266 845 272 839Q278 833 287 833Q296 833 302 839Q308 845 308 854Q308 863 302 869Q296 875 287 875Q278 875 272 869Q266 863 266 854ZM213 700Z" glyph-name="Idieresis" horiz-adv-x="266" unicode="&#207;" /><glyph d="M2 0 5 15H123L240 685H121L124 700H387L384 685H256L139 15H268L265 0ZM251 700ZM105 0ZM193 854Q193 845 199 839Q205 833 214 833Q223 833 229 839Q235 845 235 854Q235 863 229 869Q223 875 214 875Q205 875 199 869Q193 863 193 854ZM305 854Q305 845 311 839Q317 833 326 833Q335 833 341 839Q347 845 347 854Q347 863 341 869Q335 875 326 875Q317 875 311 869Q305 863 305 854ZM252 700Z" glyph-name="Idieresis.alt" horiz-adv-x="350" /><glyph d="M82 0 205 700H221L98 0ZM213 700ZM67 0ZM207 854Q207 843 215 835Q223 827 234 827Q245 827 253 835Q261 843 261 854Q261 865 253 873.5Q245 882 234 882Q223 882 215 873.5Q207 865 207 854ZM213 700Z" glyph-name="Idotaccent" horiz-adv-x="266" unicode="&#304;" /><glyph d="M2 0 5 15H123L240 685H121L124 700H387L384 685H256L139 15H268L265 0ZM251 700ZM105 0ZM244 854Q244 843 252 835Q260 827 271 827Q282 827 290 835Q298 843 298 854Q298 865 290 873.5Q282 882 271 882Q260 882 252 873.5Q244 865 244 854ZM250 700Z" glyph-name="Idotaccent.alt" horiz-adv-x="350" /><glyph d="M82 0 205 700H221L98 0ZM213 700ZM67 0ZM219 787 145 921H126L201 787ZM213 700Z" glyph-name="Igrave" horiz-adv-x="266" unicode="&#204;" /><glyph d="M2 0 5 15H123L240 685H121L124 700H387L384 685H256L139 15H268L265 0ZM251 700ZM105 0ZM266 787 192 921H173L248 787ZM260 700Z" glyph-name="Igrave.alt" horiz-adv-x="350" /><glyph d="M82 0 205 700H221L98 0ZM213 700ZM67 0ZM342 846H96L98 861H344ZM213 700Z" glyph-name="Imacron" horiz-adv-x="266" unicode="&#298;" /><glyph d="M2 0 5 15H123L240 685H121L124 700H387L384 685H256L139 15H268L265 0ZM251 700ZM105 0ZM395 846H149L151 861H397ZM266 700Z" glyph-name="Imacron.alt" horiz-adv-x="350" /><glyph d="M84 8 206 700H222L99 0Q28 -27 -10.5 -63.5Q-49 -100 -49 -142Q-49 -169 -29.5 -184.5Q-10 -200 21 -200Q31 -200 41.5 -198Q52 -196 61 -192L59 -208Q51 -212 42 -213.5Q33 -215 22 -215Q-19 -215 -42 -195.5Q-65 -176 -65 -142Q-65 -98 -24.5 -57Q16 -16 84 8Z" glyph-name="Iogonek" horiz-adv-x="267" unicode="&#302;" /><glyph d="M2 0 5 15H123L240 685H121L124 700H387L384 685H256L139 15H268L265 0Q194 -27 155.5 -63.5Q117 -100 117 -142Q117 -169 136.5 -184.5Q156 -200 187 -200Q197 -200 207.5 -198Q218 -196 227 -192L225 -208Q217 -212 208 -213.5Q199 -215 188 -215Q147 -215 124 -195.5Q101 -176 101 -142Q101 -102 135.5 -64Q170 -26 229 0Z" glyph-name="Iogonek.alt" horiz-adv-x="350" /><glyph d="M82 0 205 700H221L98 0ZM213 700ZM67 0ZM223 846Q244 824 257 817Q270 810 286 810Q313 810 330.5 828.5Q348 847 351 879H335Q334 854 320.5 839.5Q307 825 286 825Q274 825 263 831Q252 837 232 858Q208 882 192.5 890Q177 898 159 898Q132 898 115 879Q98 860 91 824H107Q112 852 125 867.5Q138 883 158 883Q174 883 188 876Q202 869 223 846ZM213 700Z" glyph-name="Itilde" horiz-adv-x="266" unicode="&#296;" /><glyph d="M2 0 5 15H123L240 685H121L124 700H387L384 685H256L139 15H268L265 0ZM251 700ZM105 0ZM272 846Q293 824 306 817Q319 810 335 810Q362 810 379.5 828.5Q397 847 400 879H384Q383 854 369.5 839.5Q356 825 335 825Q323 825 312 831Q301 837 281 858Q257 882 241.5 890Q226 898 208 898Q181 898 164 879Q147 860 140 824H156Q161 852 174 867.5Q187 883 207 883Q223 883 237 876Q251 869 272 846ZM262 700Z" glyph-name="Itilde.alt" horiz-adv-x="350" /><glyph d="M421 190 510 700H494L405 191Q389 100 338.5 51.5Q288 3 212 3Q126 3 80.5 54.5Q35 106 45 191L30 193Q18 102 68.5 45Q119 -12 210 -12Q294 -12 349 40Q404 92 421 190ZM502 700Z" glyph-name="J" horiz-adv-x="546" unicode="J" /><glyph d="M309 685 311 700H511L422 190Q405 92 350 40Q295 -12 211 -12Q120 -12 69.5 45Q19 102 31 193L46 191Q36 106 81.5 54.5Q127 3 213 3Q289 3 339.5 51.5Q390 100 406 191L492 685ZM305 700Z" glyph-name="J.alt" horiz-adv-x="547" /><glyph d="M421 190 510 700H494L405 191Q389 100 338.5 51.5Q288 3 212 3Q126 3 80.5 54.5Q35 106 45 191L30 193Q18 102 68.5 45Q119 -12 210 -12Q294 -12 349 40Q404 92 421 190ZM502 700ZM434 787 521 921H536L599 787H581L526 902L451 787ZM502 700Z" glyph-name="Jcircumflex" horiz-adv-x="546" unicode="&#308;" /><glyph d="M336 787 423 921H438L501 787H483L428 902L353 787ZM309 685 311 700H511L422 190Q405 92 350 40Q295 -12 211 -12Q120 -12 69.5 45Q19 102 31 193L46 191Q36 106 81.5 54.5Q127 3 213 3Q289 3 339.5 51.5Q390 100 406 191L492 685Z" glyph-name="Jcircumflex.alt" horiz-adv-x="547" /><glyph d="M337 398 577 0H558L325 388L137 220L98 0H82L206 700H222L141 243L650 700H673ZM327 0Z" glyph-name="K" horiz-adv-x="638" unicode="K" /><glyph d="M82 0 205 700H221L101 15H520L518 0ZM212 700ZM292 700ZM417 350ZM308 0Z" glyph-name="L" horiz-adv-x="581" unicode="L" /><glyph d="M82 0 205 700H221L101 15H520L518 0ZM212 700ZM292 700ZM417 350ZM308 0ZM342 921H323L225 787H243ZM212 700Z" glyph-name="Lacute" horiz-adv-x="581" unicode="&#313;" /><glyph d="M82 0 205 700H221L101 15H520L518 0ZM212 700ZM292 700ZM417 350ZM308 0ZM388 730H370L316 616H329ZM292 700Z" glyph-name="Lcaron" horiz-adv-x="581" unicode="&#317;" /><glyph d="M82 0 205 700H221L101 15H520L518 0ZM212 700ZM292 700ZM417 350ZM308 0ZM417 331Q417 322 423.5 315.5Q430 309 439 309Q448 309 454.5 315.5Q461 322 461 331Q461 340 454.5 346.5Q448 353 439 353Q430 353 423.5 346.5Q417 340 417 331ZM416 350Z" glyph-name="Ldot" horiz-adv-x="582" unicode="&#319;" /><glyph d="M82 0 205 700H221L101 15H520L518 0ZM212 700ZM292 700ZM417 350ZM308 0ZM417 331Q417 322 423.5 315.5Q430 309 439 309Q448 309 454.5 315.5Q461 322 461 331Q461 340 454.5 346.5Q448 353 439 353Q430 353 423.5 346.5Q417 340 417 331ZM416 350ZM663 0 786 700H802L682 15H1101L1099 0ZM793 700ZM873 700ZM998 350ZM889 0Z" glyph-name="Lgeminada" horiz-adv-x="1162" /><glyph d="M55 303 48 316 151 371 209 700H225L169 381L327 465L333 451L166 362L105 15H524L522 0H86L148 352Z" glyph-name="Lslash" horiz-adv-x="585" unicode="&#321;" /><glyph d="M82 0 206 700H224L404 20L816 700H836L712 0H696L815 670L407 -3H393L216 670L97 0Z" glyph-name="M" horiz-adv-x="881" unicode="M" /><glyph d="M82 0 206 700H223L584 22L704 700H719L595 0H578L216 679L97 0ZM460 700ZM348 0Z" glyph-name="N" horiz-adv-x="763" unicode="N" /><glyph d="M82 0 206 700H223L584 22L704 700H719L595 0H578L216 679L97 0ZM460 700ZM348 0ZM590 921H571L473 787H491ZM460 700Z" glyph-name="Nacute" horiz-adv-x="763" unicode="&#323;" /><glyph d="M82 0 206 700H223L584 22L704 700H719L595 0H578L216 679L97 0ZM460 700ZM348 0ZM477 787H462L399 921H417L472 806L547 921H564ZM460 700Z" glyph-name="Ncaron" horiz-adv-x="763" unicode="&#327;" /><glyph d="M82 0 206 700H223L584 22L704 700H719L595 0H578L216 679L97 0ZM460 700ZM348 0ZM470 846Q491 824 504 817Q517 810 533 810Q560 810 577.5 828.5Q595 847 598 879H582Q581 854 567.5 839.5Q554 825 533 825Q521 825 510 831Q499 837 479 858Q455 882 439.5 890Q424 898 406 898Q379 898 362 879Q345 860 338 824H354Q359 852 372 867.5Q385 883 405 883Q421 883 435 876Q449 869 470 846ZM460 700Z" glyph-name="Ntilde" horiz-adv-x="763" unicode="&#209;" /><glyph d="M743 394Q743 531 661 621.5Q579 712 451 712Q378 712 309.5 678.5Q241 645 189 584Q140 527 113.5 455Q87 383 87 306Q87 172 168 80Q249 -12 377 -12Q452 -12 520.5 21Q589 54 641 115Q690 172 716.5 244Q743 316 743 394ZM630 126Q580 67 514.5 35Q449 3 379 3Q258 3 180.5 89.5Q103 176 103 307Q103 380 128 449Q153 518 200 573Q250 632 315 664.5Q380 697 449 697Q572 697 649.5 611Q727 525 727 393Q727 319 702 250Q677 181 630 126ZM450 700Z" glyph-name="O" horiz-adv-x="792" unicode="O" /><glyph d="M189 584Q241 645 309.5 678.5Q378 712 451 712Q569 712 648.5 634.5Q728 557 741 433L788 700H1250L1248 685H801L746 368H1163L1160 353H743L684 15H1140L1137 0H665L702 209Q654 108 566.5 48Q479 -12 377 -12Q249 -12 168 80Q87 172 87 306Q87 383 113.5 455Q140 527 189 584ZM103 307Q103 176 180.5 89.5Q258 3 379 3Q449 3 514.5 35Q580 67 630 126Q677 181 702 250Q727 319 727 393Q727 525 649.5 611Q572 697 449 697Q380 697 315 664.5Q250 632 200 573Q153 518 128 449Q103 380 103 307Z" glyph-name="OE" horiz-adv-x="1238" unicode="&#338;" /><glyph d="M743 394Q743 531 661 621.5Q579 712 451 712Q378 712 309.5 678.5Q241 645 189 584Q140 527 113.5 455Q87 383 87 306Q87 172 168 80Q249 -12 377 -12Q452 -12 520.5 21Q589 54 641 115Q690 172 716.5 244Q743 316 743 394ZM630 126Q580 67 514.5 35Q449 3 379 3Q258 3 180.5 89.5Q103 176 103 307Q103 380 128 449Q153 518 200 573Q250 632 315 664.5Q380 697 449 697Q572 697 649.5 611Q727 525 727 393Q727 319 702 250Q677 181 630 126ZM450 700ZM580 921H561L463 787H481ZM450 700Z" glyph-name="Oacute" horiz-adv-x="792" unicode="&#211;" /><glyph d="M743 394Q743 531 661 621.5Q579 712 451 712Q378 712 309.5 678.5Q241 645 189 584Q140 527 113.5 455Q87 383 87 306Q87 172 168 80Q249 -12 377 -12Q452 -12 520.5 21Q589 54 641 115Q690 172 716.5 244Q743 316 743 394ZM630 126Q580 67 514.5 35Q449 3 379 3Q258 3 180.5 89.5Q103 176 103 307Q103 380 128 449Q153 518 200 573Q250 632 315 664.5Q380 697 449 697Q572 697 649.5 611Q727 525 727 393Q727 319 702 250Q677 181 630 126ZM450 700ZM467 800Q512 800 540 830.5Q568 861 579 921H594Q582 851 551 818Q520 785 467 785Q411 785 382.5 821.5Q354 858 360 921H375Q369 868 394 834Q419 800 467 800ZM450 700Z" glyph-name="Obreve" horiz-adv-x="792" unicode="&#334;" /><glyph d="M743 394Q743 531 661 621.5Q579 712 451 712Q378 712 309.5 678.5Q241 645 189 584Q140 527 113.5 455Q87 383 87 306Q87 172 168 80Q249 -12 377 -12Q452 -12 520.5 21Q589 54 641 115Q690 172 716.5 244Q743 316 743 394ZM630 126Q580 67 514.5 35Q449 3 379 3Q258 3 180.5 89.5Q103 176 103 307Q103 380 128 449Q153 518 200 573Q250 632 315 664.5Q380 697 449 697Q572 697 649.5 611Q727 525 727 393Q727 319 702 250Q677 181 630 126ZM450 700ZM382 787 469 921H484L547 787H529L474 902L399 787ZM450 700Z" glyph-name="Ocircumflex" horiz-adv-x="792" unicode="&#212;" /><glyph d="M743 394Q743 531 661 621.5Q579 712 451 712Q378 712 309.5 678.5Q241 645 189 584Q140 527 113.5 455Q87 383 87 306Q87 172 168 80Q249 -12 377 -12Q452 -12 520.5 21Q589 54 641 115Q690 172 716.5 244Q743 316 743 394ZM630 126Q580 67 514.5 35Q449 3 379 3Q258 3 180.5 89.5Q103 176 103 307Q103 380 128 449Q153 518 200 573Q250 632 315 664.5Q380 697 449 697Q572 697 649.5 611Q727 525 727 393Q727 319 702 250Q677 181 630 126ZM450 700ZM391 854Q391 845 397 839Q403 833 412 833Q421 833 427 839Q433 845 433 854Q433 863 427 869Q421 875 412 875Q403 875 397 869Q391 863 391 854ZM503 854Q503 845 509 839Q515 833 524 833Q533 833 539 839Q545 845 545 854Q545 863 539 869Q533 875 524 875Q515 875 509 869Q503 863 503 854ZM450 700Z" glyph-name="Odieresis" horiz-adv-x="792" unicode="&#214;" /><glyph d="M743 394Q743 531 661 621.5Q579 712 451 712Q378 712 309.5 678.5Q241 645 189 584Q140 527 113.5 455Q87 383 87 306Q87 172 168 80Q249 -12 377 -12Q452 -12 520.5 21Q589 54 641 115Q690 172 716.5 244Q743 316 743 394ZM630 126Q580 67 514.5 35Q449 3 379 3Q258 3 180.5 89.5Q103 176 103 307Q103 380 128 449Q153 518 200 573Q250 632 315 664.5Q380 697 449 697Q572 697 649.5 611Q727 525 727 393Q727 319 702 250Q677 181 630 126ZM450 700ZM456 787 382 921H363L438 787ZM450 700Z" glyph-name="Ograve" horiz-adv-x="792" unicode="&#210;" /><glyph d="M743 394Q743 531 661 621.5Q579 712 451 712Q378 712 309.5 678.5Q241 645 189 584Q140 527 113.5 455Q87 383 87 306Q87 172 168 80Q249 -12 377 -12Q452 -12 520.5 21Q589 54 641 115Q690 172 716.5 244Q743 316 743 394ZM630 126Q580 67 514.5 35Q449 3 379 3Q258 3 180.5 89.5Q103 176 103 307Q103 380 128 449Q153 518 200 573Q250 632 315 664.5Q380 697 449 697Q572 697 649.5 611Q727 525 727 393Q727 319 702 250Q677 181 630 126ZM450 700ZM535 921H516L408 787H426ZM613 921H594L486 787H504ZM450 700Z" glyph-name="Ohungarumlaut" horiz-adv-x="792" unicode="&#336;" /><glyph d="M743 394Q743 531 661 621.5Q579 712 451 712Q378 712 309.5 678.5Q241 645 189 584Q140 527 113.5 455Q87 383 87 306Q87 172 168 80Q249 -12 377 -12Q452 -12 520.5 21Q589 54 641 115Q690 172 716.5 244Q743 316 743 394ZM630 126Q580 67 514.5 35Q449 3 379 3Q258 3 180.5 89.5Q103 176 103 307Q103 380 128 449Q153 518 200 573Q250 632 315 664.5Q380 697 449 697Q572 697 649.5 611Q727 525 727 393Q727 319 702 250Q677 181 630 126ZM450 700ZM579 846H333L335 861H581ZM450 700Z" glyph-name="Omacron" horiz-adv-x="792" unicode="&#332;" /><glyph d="M42 0 44 15H235Q164 68 128 140Q92 212 92 300Q92 471 187 591.5Q282 712 422 712Q542 712 612 632.5Q682 553 682 421Q682 280 617 176.5Q552 73 427 15H606L604 0H388L390 14Q523 66 594.5 169.5Q666 273 666 419Q666 546 600.5 621.5Q535 697 421 697Q289 697 198.5 581Q108 465 108 301Q108 210 146.5 137.5Q185 65 261 14L259 0Z" glyph-name="Omega" horiz-adv-x="741" unicode="&#8486;" /><glyph d="M205 45 105 -92H88L195 53Q144 97 115.5 164Q87 231 87 306Q87 383 113.5 455Q140 527 189 584Q241 645 309.5 678.5Q378 712 451 712Q502 712 547.5 696Q593 680 630 650L726 782H743L640 642Q690 598 716.5 533.5Q743 469 743 394Q743 316 716.5 244Q690 172 641 115Q589 54 520.5 21Q452 -12 377 -12Q328 -12 284.5 2.5Q241 17 205 45ZM200 573Q153 518 128 449Q103 380 103 307Q103 234 129.5 171Q156 108 204 66L621 638Q586 667 542.5 682Q499 697 449 697Q380 697 315 664.5Q250 632 200 573ZM379 3Q449 3 514.5 35Q580 67 630 126Q677 181 702 250Q727 319 727 393Q727 464 702 525.5Q677 587 632 629L214 57Q250 30 291.5 16.5Q333 3 379 3Z" glyph-name="Oslash" horiz-adv-x="792" unicode="&#216;" /><glyph d="M743 394Q743 531 661 621.5Q579 712 451 712Q378 712 309.5 678.5Q241 645 189 584Q140 527 113.5 455Q87 383 87 306Q87 172 168 80Q249 -12 377 -12Q452 -12 520.5 21Q589 54 641 115Q690 172 716.5 244Q743 316 743 394ZM630 126Q580 67 514.5 35Q449 3 379 3Q258 3 180.5 89.5Q103 176 103 307Q103 380 128 449Q153 518 200 573Q250 632 315 664.5Q380 697 449 697Q572 697 649.5 611Q727 525 727 393Q727 319 702 250Q677 181 630 126ZM450 700ZM460 846Q481 824 494 817Q507 810 523 810Q550 810 567.5 828.5Q585 847 588 879H572Q571 854 557.5 839.5Q544 825 523 825Q511 825 500 831Q489 837 469 858Q445 882 429.5 890Q414 898 396 898Q369 898 352 879Q335 860 328 824H344Q349 852 362 867.5Q375 883 395 883Q411 883 425 876Q439 869 460 846ZM450 700Z" glyph-name="Otilde" horiz-adv-x="792" unicode="&#213;" /><glyph d="M82 0 205 700H426Q517 700 575 643.5Q633 587 633 501Q633 399 561 323Q489 247 387 247H141L98 0ZM617 501Q617 580 562.5 632.5Q508 685 423 685H218L144 262H390Q483 262 550 334Q617 406 617 501Z" glyph-name="P" horiz-adv-x="642" unicode="P" /><glyph d="M189 584Q241 645 309.5 678.5Q378 712 451 712Q579 712 661 621.5Q743 531 743 394Q743 289 696.5 197.5Q650 106 569 50L674 -70L663 -80L557 41Q515 15 469.5 1.5Q424 -12 377 -12Q249 -12 168 80Q87 172 87 306Q87 383 113.5 455Q140 527 189 584ZM103 307Q103 176 180.5 89.5Q258 3 379 3Q423 3 465 15.5Q507 28 546 53L407 212L418 222L559 61Q637 115 682 204Q727 293 727 393Q727 525 649.5 611Q572 697 449 697Q380 697 315 664.5Q250 632 200 573Q153 518 128 449Q103 380 103 307Z" glyph-name="Q" horiz-adv-x="792" unicode="Q" /><glyph d="M82 0 205 700H444Q537 700 596 647.5Q655 595 655 514Q655 420 587.5 349.5Q520 279 419 273L567 0H550L403 272H146L98 0ZM638 514Q638 589 583.5 637.5Q529 686 441 686H219L148 287H406Q502 287 570 355.5Q638 424 638 514ZM402 700ZM305 0Z" glyph-name="R" horiz-adv-x="681" unicode="R" /><glyph d="M82 0 205 700H444Q537 700 596 647.5Q655 595 655 514Q655 420 587.5 349.5Q520 279 419 273L567 0H550L403 272H146L98 0ZM638 514Q638 589 583.5 637.5Q529 686 441 686H219L148 287H406Q502 287 570 355.5Q638 424 638 514ZM402 700ZM305 0ZM532 921H513L415 787H433ZM402 700Z" glyph-name="Racute" horiz-adv-x="681" unicode="&#340;" /><glyph d="M82 0 205 700H444Q537 700 596 647.5Q655 595 655 514Q655 420 587.5 349.5Q520 279 419 273L567 0H550L403 272H146L98 0ZM638 514Q638 589 583.5 637.5Q529 686 441 686H219L148 287H406Q502 287 570 355.5Q638 424 638 514ZM402 700ZM305 0ZM419 787H404L341 921H359L414 806L489 921H506ZM402 700Z" glyph-name="Rcaron" horiz-adv-x="681" unicode="&#344;" /><glyph d="M523 185Q523 96 464 42Q405 -12 308 -12Q227 -12 154 23Q81 58 42 110L55 120Q88 72 158.5 37.5Q229 3 307 3Q351 3 386 14Q421 25 447 47Q475 72 491 108.5Q507 145 507 179Q507 239 476 277.5Q445 316 378 339L262 379Q195 402 160 443.5Q125 485 125 543Q125 614 183.5 663Q242 712 338 712Q412 712 472.5 685Q533 658 574 606L561 597Q522 646 465 671.5Q408 697 338 697Q249 697 195 652.5Q141 608 141 544Q141 491 173 453Q205 415 267 394L383 355Q451 332 487 288.5Q523 245 523 185ZM347 700ZM293 10ZM293 0Z" glyph-name="S" horiz-adv-x="598" unicode="S" /><glyph d="M523 185Q523 96 464 42Q405 -12 308 -12Q227 -12 154 23Q81 58 42 110L55 120Q88 72 158.5 37.5Q229 3 307 3Q351 3 386 14Q421 25 447 47Q475 72 491 108.5Q507 145 507 179Q507 239 476 277.5Q445 316 378 339L262 379Q195 402 160 443.5Q125 485 125 543Q125 614 183.5 663Q242 712 338 712Q412 712 472.5 685Q533 658 574 606L561 597Q522 646 465 671.5Q408 697 338 697Q249 697 195 652.5Q141 608 141 544Q141 491 173 453Q205 415 267 394L383 355Q451 332 487 288.5Q523 245 523 185ZM347 700ZM293 10ZM293 0ZM477 921H458L360 787H378ZM347 700Z" glyph-name="Sacute" horiz-adv-x="598" unicode="&#346;" /><glyph d="M523 185Q523 96 464 42Q405 -12 308 -12Q227 -12 154 23Q81 58 42 110L55 120Q88 72 158.5 37.5Q229 3 307 3Q351 3 386 14Q421 25 447 47Q475 72 491 108.5Q507 145 507 179Q507 239 476 277.5Q445 316 378 339L262 379Q195 402 160 443.5Q125 485 125 543Q125 614 183.5 663Q242 712 338 712Q412 712 472.5 685Q533 658 574 606L561 597Q522 646 465 671.5Q408 697 338 697Q249 697 195 652.5Q141 608 141 544Q141 491 173 453Q205 415 267 394L383 355Q451 332 487 288.5Q523 245 523 185ZM347 700ZM293 10ZM293 0ZM364 787H349L286 921H304L359 806L434 921H451ZM347 700Z" glyph-name="Scaron" horiz-adv-x="598" unicode="&#352;" /><glyph d="M204 -96 194 -80 262 -9Q194 0 134 33Q74 66 42 110L55 120Q88 72 158.5 37.5Q229 3 307 3Q351 3 386 14Q421 25 447 47Q475 72 491 108.5Q507 145 507 179Q507 238 476 277Q445 316 378 339L262 379Q194 403 159.5 444Q125 485 125 543Q125 614 183.5 663Q242 712 338 712Q412 712 472.5 685Q533 658 574 606L561 597Q522 646 465 671.5Q408 697 338 697Q249 697 195 652.5Q141 608 141 544Q141 491 172.5 453Q204 415 267 394L383 355Q451 332 487 288.5Q523 245 523 185Q523 96 464 42Q405 -12 308 -12Q296 -12 290.5 -12Q285 -12 280 -11L219 -76Q231 -71 243 -68.5Q255 -66 269 -66Q304 -66 324.5 -81.5Q345 -97 345 -126Q345 -164 315.5 -188Q286 -212 240 -212Q219 -212 198 -206.5Q177 -201 160 -191L168 -178Q184 -187 203.5 -192Q223 -197 242 -197Q281 -197 305 -177.5Q329 -158 329 -126Q329 -104 313 -92.5Q297 -81 267 -81Q250 -81 235 -84.5Q220 -88 204 -96Z" glyph-name="Scedilla" horiz-adv-x="598" unicode="&#350;" /><glyph d="M523 185Q523 96 464 42Q405 -12 308 -12Q227 -12 154 23Q81 58 42 110L55 120Q88 72 158.5 37.5Q229 3 307 3Q351 3 386 14Q421 25 447 47Q475 72 491 108.5Q507 145 507 179Q507 239 476 277.5Q445 316 378 339L262 379Q195 402 160 443.5Q125 485 125 543Q125 614 183.5 663Q242 712 338 712Q412 712 472.5 685Q533 658 574 606L561 597Q522 646 465 671.5Q408 697 338 697Q249 697 195 652.5Q141 608 141 544Q141 491 173 453Q205 415 267 394L383 355Q451 332 487 288.5Q523 245 523 185ZM347 700ZM293 10ZM293 0ZM279 787 366 921H381L444 787H426L371 902L296 787ZM347 700Z" glyph-name="Scircumflex" horiz-adv-x="598" unicode="&#348;" /><glyph d="M104 685 106 700H629L626 685H372L253 0H237L356 685ZM366 700ZM248 10ZM244 0Z" glyph-name="T" horiz-adv-x="574" unicode="T" /><glyph d="M106 363 110 378H340L393 685H141L143 700H666L663 685H409L356 378H586L582 363H353L290 0H274L337 363Z" glyph-name="Tbar" horiz-adv-x="643" unicode="&#358;" /><glyph d="M104 685 106 700H629L626 685H372L253 0H237L356 685ZM366 700ZM248 10ZM244 0ZM383 787H368L305 921H323L378 806L453 921H470ZM366 700Z" glyph-name="Tcaron" horiz-adv-x="574" unicode="&#356;" /><glyph d="M82 0 205 700H221L199 577H419Q503 577 557 520Q611 463 611 378Q611 276 539 200Q467 124 365 124H120L98 0ZM595 378Q595 457 545 509.5Q495 562 416 562H197L122 139H368Q461 139 528 211Q595 283 595 378Z" glyph-name="Thorn" horiz-adv-x="655" unicode="&#222;" /><glyph d="M695 700H712L632 245Q611 125 536 56.5Q461 -12 354 -12Q227 -12 162.5 73.5Q98 159 121 290L193 700H209L137 288Q115 164 175.5 83.5Q236 3 353 3Q454 3 525 68Q596 133 616 246ZM418 0ZM445 700Z" glyph-name="U" horiz-adv-x="746" unicode="U" /><glyph d="M695 700H712L632 245Q611 125 536 56.5Q461 -12 354 -12Q227 -12 162.5 73.5Q98 159 121 290L193 700H209L137 288Q115 164 175.5 83.5Q236 3 353 3Q454 3 525 68Q596 133 616 246ZM418 0ZM445 700ZM575 921H556L458 787H476ZM445 700Z" glyph-name="Uacute" horiz-adv-x="746" unicode="&#218;" /><glyph d="M695 700H712L632 245Q611 125 536 56.5Q461 -12 354 -12Q227 -12 162.5 73.5Q98 159 121 290L193 700H209L137 288Q115 164 175.5 83.5Q236 3 353 3Q454 3 525 68Q596 133 616 246ZM418 0ZM445 700ZM462 800Q507 800 535 830.5Q563 861 574 921H589Q577 851 546 818Q515 785 462 785Q406 785 377.5 821.5Q349 858 355 921H370Q364 868 389 834Q414 800 462 800ZM445 700Z" glyph-name="Ubreve" horiz-adv-x="746" unicode="&#364;" /><glyph d="M695 700H712L632 245Q611 125 536 56.5Q461 -12 354 -12Q227 -12 162.5 73.5Q98 159 121 290L193 700H209L137 288Q115 164 175.5 83.5Q236 3 353 3Q454 3 525 68Q596 133 616 246ZM418 0ZM445 700ZM377 787 464 921H479L542 787H524L469 902L394 787ZM445 700Z" glyph-name="Ucircumflex" horiz-adv-x="746" unicode="&#219;" /><glyph d="M695 700H712L632 245Q611 125 536 56.5Q461 -12 354 -12Q227 -12 162.5 73.5Q98 159 121 290L193 700H209L137 288Q115 164 175.5 83.5Q236 3 353 3Q454 3 525 68Q596 133 616 246ZM418 0ZM445 700ZM386 854Q386 845 392 839Q398 833 407 833Q416 833 422 839Q428 845 428 854Q428 863 422 869Q416 875 407 875Q398 875 392 869Q386 863 386 854ZM498 854Q498 845 504 839Q510 833 519 833Q528 833 534 839Q540 845 540 854Q540 863 534 869Q528 875 519 875Q510 875 504 869Q498 863 498 854ZM445 700Z" glyph-name="Udieresis" horiz-adv-x="746" unicode="&#220;" /><glyph d="M695 700H712L632 245Q611 125 536 56.5Q461 -12 354 -12Q227 -12 162.5 73.5Q98 159 121 290L193 700H209L137 288Q115 164 175.5 83.5Q236 3 353 3Q454 3 525 68Q596 133 616 246ZM418 0ZM445 700ZM451 787 377 921H358L433 787ZM445 700Z" glyph-name="Ugrave" horiz-adv-x="746" unicode="&#217;" /><glyph d="M695 700H712L632 245Q611 125 536 56.5Q461 -12 354 -12Q227 -12 162.5 73.5Q98 159 121 290L193 700H209L137 288Q115 164 175.5 83.5Q236 3 353 3Q454 3 525 68Q596 133 616 246ZM418 0ZM445 700ZM530 921H511L403 787H421ZM608 921H589L481 787H499ZM445 700Z" glyph-name="Uhungarumlaut" horiz-adv-x="746" unicode="&#368;" /><glyph d="M695 700H712L632 245Q611 125 536 56.5Q461 -12 354 -12Q227 -12 162.5 73.5Q98 159 121 290L193 700H209L137 288Q115 164 175.5 83.5Q236 3 353 3Q454 3 525 68Q596 133 616 246ZM418 0ZM445 700ZM574 846H328L330 861H576ZM445 700Z" glyph-name="Umacron" horiz-adv-x="746" unicode="&#362;" /><glyph d="M695 700H712L632 245Q621 185 598 139Q575 93 537 57Q515 36 478.5 11Q442 -14 434 -20Q402 -45 388.5 -70Q375 -95 375 -127Q375 -161 397.5 -180.5Q420 -200 455 -200Q465 -200 475.5 -198Q486 -196 495 -192L493 -208Q485 -212 476 -213.5Q467 -215 456 -215Q410 -215 384.5 -192Q359 -169 359 -129Q359 -89 380 -56.5Q401 -24 443 2Q419 -5 397 -8.5Q375 -12 354 -12Q227 -12 162.5 73.5Q98 159 121 290L193 700H209L137 288Q115 164 175.5 83.5Q236 3 353 3Q454 3 525 68Q596 133 616 246Z" glyph-name="Uogonek" horiz-adv-x="746" unicode="&#370;" /><glyph d="M695 700H712L632 245Q611 125 536 56.5Q461 -12 354 -12Q227 -12 162.5 73.5Q98 159 121 290L193 700H209L137 288Q115 164 175.5 83.5Q236 3 353 3Q454 3 525 68Q596 133 616 246ZM418 0ZM445 700ZM562 854Q562 894 533.5 923Q505 952 464 952Q422 952 394 923.5Q366 895 366 854Q366 813 394 785Q422 757 464 757Q505 757 533.5 785.5Q562 814 562 854ZM382 854Q382 889 406 913Q430 937 464 937Q498 937 522 912.5Q546 888 546 854Q546 820 522 796Q498 772 464 772Q429 772 405.5 796Q382 820 382 854ZM445 700Z" glyph-name="Uring" horiz-adv-x="746" unicode="&#366;" /><glyph d="M695 700H712L632 245Q611 125 536 56.5Q461 -12 354 -12Q227 -12 162.5 73.5Q98 159 121 290L193 700H209L137 288Q115 164 175.5 83.5Q236 3 353 3Q454 3 525 68Q596 133 616 246ZM418 0ZM445 700ZM455 846Q476 824 489 817Q502 810 518 810Q545 810 562.5 828.5Q580 847 583 879H567Q566 854 552.5 839.5Q539 825 518 825Q506 825 495 831Q484 837 464 858Q440 882 424.5 890Q409 898 391 898Q364 898 347 879Q330 860 323 824H339Q344 852 357 867.5Q370 883 390 883Q406 883 420 876Q434 869 455 846ZM445 700Z" glyph-name="Utilde" horiz-adv-x="746" unicode="&#360;" /><glyph d="M275 0 125 700H141L286 23L675 700H692L289 0Z" glyph-name="V" horiz-adv-x="653" unicode="V" /><glyph d="M207 0 131 700H147L219 29L532 700H549L623 31L932 700H948L624 0H610L536 674L221 0ZM540 700Z" glyph-name="W" horiz-adv-x="917" unicode="W" /><glyph d="M207 0 131 700H147L219 29L532 700H549L623 31L932 700H948L624 0H610L536 674L221 0ZM540 700ZM670 921H651L553 787H571ZM540 700Z" glyph-name="Wacute" horiz-adv-x="917" unicode="&#7810;" /><glyph d="M207 0 131 700H147L219 29L532 700H549L623 31L932 700H948L624 0H610L536 674L221 0ZM540 700ZM472 787 559 921H574L637 787H619L564 902L489 787ZM540 700Z" glyph-name="Wcircumflex" horiz-adv-x="917" unicode="&#372;" /><glyph d="M207 0 131 700H147L219 29L532 700H549L623 31L932 700H948L624 0H610L536 674L221 0ZM540 700ZM481 854Q481 845 487 839Q493 833 502 833Q511 833 517 839Q523 845 523 854Q523 863 517 869Q511 875 502 875Q493 875 487 869Q481 863 481 854ZM593 854Q593 845 599 839Q605 833 614 833Q623 833 629 839Q635 845 635 854Q635 863 629 869Q623 875 614 875Q605 875 599 869Q593 863 593 854ZM540 700Z" glyph-name="Wdieresis" horiz-adv-x="917" unicode="&#7812;" /><glyph d="M207 0 131 700H147L219 29L532 700H549L623 31L932 700H948L624 0H610L536 674L221 0ZM540 700ZM546 787 472 921H453L528 787ZM540 700Z" glyph-name="Wgrave" horiz-adv-x="917" unicode="&#7808;" /><glyph d="M300 352 118 700H136L311 364L600 700H620L319 349L501 0H483L308 338L18 0H-2Z" glyph-name="X" horiz-adv-x="581" unicode="X" /><glyph d="M316 304 132 700H149L326 318L635 700H654L332 303L279 0H263ZM391 700Z" glyph-name="Y" horiz-adv-x="627" unicode="Y" /><glyph d="M316 304 132 700H149L326 318L635 700H654L332 303L279 0H263ZM391 700ZM521 921H502L404 787H422ZM391 700Z" glyph-name="Yacute" horiz-adv-x="627" unicode="&#221;" /><glyph d="M316 304 132 700H149L326 318L635 700H654L332 303L279 0H263ZM391 700ZM323 787 410 921H425L488 787H470L415 902L340 787ZM391 700Z" glyph-name="Ycircumflex" horiz-adv-x="627" unicode="&#374;" /><glyph d="M316 304 132 700H149L326 318L635 700H654L332 303L279 0H263ZM391 700ZM332 854Q332 845 338 839Q344 833 353 833Q362 833 368 839Q374 845 374 854Q374 863 368 869Q362 875 353 875Q344 875 338 869Q332 863 332 854ZM444 854Q444 845 450 839Q456 833 465 833Q474 833 480 839Q486 845 486 854Q486 863 480 869Q474 875 465 875Q456 875 450 869Q444 863 444 854ZM391 700Z" glyph-name="Ydieresis" horiz-adv-x="627" unicode="&#376;" /><glyph d="M316 304 132 700H149L326 318L635 700H654L332 303L279 0H263ZM391 700ZM397 787 323 921H304L379 787ZM391 700Z" glyph-name="Ygrave" horiz-adv-x="627" unicode="&#7922;" /><glyph d="M17 15H519L515 0H-7L-3 15L599 685H123L127 700H623L619 685ZM375 700Z" glyph-name="Z" horiz-adv-x="591" unicode="Z" /><glyph d="M17 15H519L515 0H-7L-3 15L599 685H123L127 700H623L619 685ZM375 700ZM505 921H486L388 787H406ZM375 700Z" glyph-name="Zacute" horiz-adv-x="591" unicode="&#377;" /><glyph d="M17 15H519L515 0H-7L-3 15L599 685H123L127 700H623L619 685ZM375 700ZM392 787H377L314 921H332L387 806L462 921H479ZM375 700Z" glyph-name="Zcaron" horiz-adv-x="591" unicode="&#381;" /><glyph d="M17 15H519L515 0H-7L-3 15L599 685H123L127 700H623L619 685ZM375 700ZM369 854Q369 843 377 835Q385 827 396 827Q407 827 415 835Q423 843 423 854Q423 865 415 873.5Q407 882 396 882Q385 882 377 873.5Q369 865 369 854ZM375 700Z" glyph-name="Zdotaccent" horiz-adv-x="591" unicode="&#379;" /><glyph d="M453 0H438L459 129Q426 63 372 25.5Q318 -12 253 -12Q166 -12 114.5 46Q63 104 63 199Q63 328 131 414.5Q199 501 302 501Q382 501 433 453Q484 405 495 322L523 489H539ZM79 203Q79 112 126 57.5Q173 3 253 3Q349 3 416 88Q483 173 483 282Q483 374 433.5 430Q384 486 299 486Q206 486 142.5 404Q79 322 79 203ZM311 489ZM425 0Z" glyph-name="a" horiz-adv-x="608" unicode="a" /><glyph d="M467 321 411 0H396L423 151Q388 72 333 30Q278 -12 207 -12Q136 -12 94 21.5Q52 55 52 110Q52 172 92.5 209.5Q133 247 223 268L451 320Q464 401 428 443.5Q392 486 313 486Q257 486 206 461Q155 436 112 387L99 396Q146 449 199 475Q252 501 312 501Q401 501 441.5 453.5Q482 406 467 321ZM68 113Q68 62 105.5 32.5Q143 3 209 3Q297 3 359 74.5Q421 146 442 270L448 305L224 253Q142 234 105 200.5Q68 167 68 113ZM317 498ZM392 -14Z" glyph-name="a.alt" horiz-adv-x="556" /><glyph d="M453 0H438L459 129Q426 63 372 25.5Q318 -12 253 -12Q166 -12 114.5 46Q63 104 63 199Q63 328 131 414.5Q199 501 302 501Q382 501 433 453Q484 405 495 322L523 489H539ZM79 203Q79 112 126 57.5Q173 3 253 3Q349 3 416 88Q483 173 483 282Q483 374 433.5 430Q384 486 299 486Q206 486 142.5 404Q79 322 79 203ZM311 489ZM425 0ZM437 721H418L320 587H338ZM311 489Z" glyph-name="aacute" horiz-adv-x="608" unicode="&#225;" /><glyph d="M467 321 411 0H396L423 151Q388 72 333 30Q278 -12 207 -12Q136 -12 94 21.5Q52 55 52 110Q52 172 92.5 209.5Q133 247 223 268L451 320Q464 401 428 443.5Q392 486 313 486Q257 486 206 461Q155 436 112 387L99 396Q146 449 199 475Q252 501 312 501Q401 501 441.5 453.5Q482 406 467 321ZM68 113Q68 62 105.5 32.5Q143 3 209 3Q297 3 359 74.5Q421 146 442 270L448 305L224 253Q142 234 105 200.5Q68 167 68 113ZM317 498ZM392 -14ZM420 721H401L303 587H321ZM294 489Z" glyph-name="aacute.alt" horiz-adv-x="556" /><glyph d="M453 0H438L459 129Q426 63 372 25.5Q318 -12 253 -12Q166 -12 114.5 46Q63 104 63 199Q63 328 131 414.5Q199 501 302 501Q382 501 433 453Q484 405 495 322L523 489H539ZM79 203Q79 112 126 57.5Q173 3 253 3Q349 3 416 88Q483 173 483 282Q483 374 433.5 430Q384 486 299 486Q206 486 142.5 404Q79 322 79 203ZM311 489ZM425 0ZM321 600Q366 600 394 630.5Q422 661 433 721H448Q436 651 405 618Q374 585 321 585Q265 585 236.5 621.5Q208 658 214 721H229Q223 668 248 634Q273 600 321 600ZM311 489Z" glyph-name="abreve" horiz-adv-x="608" unicode="&#259;" /><glyph d="M467 321 411 0H396L423 151Q388 72 333 30Q278 -12 207 -12Q136 -12 94 21.5Q52 55 52 110Q52 172 92.5 209.5Q133 247 223 268L451 320Q464 401 428 443.5Q392 486 313 486Q257 486 206 461Q155 436 112 387L99 396Q146 449 199 475Q252 501 312 501Q401 501 441.5 453.5Q482 406 467 321ZM68 113Q68 62 105.5 32.5Q143 3 209 3Q297 3 359 74.5Q421 146 442 270L448 305L224 253Q142 234 105 200.5Q68 167 68 113ZM317 498ZM392 -14ZM315 600Q360 600 388 630.5Q416 661 427 721H442Q430 651 399 618Q368 585 315 585Q259 585 230.5 621.5Q202 658 208 721H223Q217 668 242 634Q267 600 315 600ZM305 489Z" glyph-name="abreve.alt" horiz-adv-x="556" /><glyph d="M453 0H438L459 129Q426 63 372 25.5Q318 -12 253 -12Q166 -12 114.5 46Q63 104 63 199Q63 328 131 414.5Q199 501 302 501Q382 501 433 453Q484 405 495 322L523 489H539ZM79 203Q79 112 126 57.5Q173 3 253 3Q349 3 416 88Q483 173 483 282Q483 374 433.5 430Q384 486 299 486Q206 486 142.5 404Q79 322 79 203ZM311 489ZM425 0ZM238 587 325 721H340L403 587H385L330 702L255 587ZM311 489Z" glyph-name="acircumflex" horiz-adv-x="608" unicode="&#226;" /><glyph d="M467 321 411 0H396L423 151Q388 72 333 30Q278 -12 207 -12Q136 -12 94 21.5Q52 55 52 110Q52 172 92.5 209.5Q133 247 223 268L451 320Q464 401 428 443.5Q392 486 313 486Q257 486 206 461Q155 436 112 387L99 396Q146 449 199 475Q252 501 312 501Q401 501 441.5 453.5Q482 406 467 321ZM68 113Q68 62 105.5 32.5Q143 3 209 3Q297 3 359 74.5Q421 146 442 270L448 305L224 253Q142 234 105 200.5Q68 167 68 113ZM317 498ZM392 -14ZM237 587 324 721H339L402 587H384L329 702L254 587ZM310 489Z" glyph-name="acircumflex.alt" horiz-adv-x="556" /><glyph d="M238 721H219L121 587H139ZM112 489Z" glyph-name="acute" horiz-adv-x="380" unicode="&#180;" /><glyph d="M238 921H219L121 787H139ZM108 700Z" glyph-name="acute.case" horiz-adv-x="380" /><glyph d="M453 0H438L459 129Q426 63 372 25.5Q318 -12 253 -12Q166 -12 114.5 46Q63 104 63 199Q63 328 131 414.5Q199 501 302 501Q382 501 433 453Q484 405 495 322L523 489H539ZM79 203Q79 112 126 57.5Q173 3 253 3Q349 3 416 88Q483 173 483 282Q483 374 433.5 430Q384 486 299 486Q206 486 142.5 404Q79 322 79 203ZM311 489ZM425 0ZM250 654Q250 645 256 639Q262 633 271 633Q280 633 286 639Q292 645 292 654Q292 663 286 669Q280 675 271 675Q262 675 256 669Q250 663 250 654ZM362 654Q362 645 368 639Q374 633 383 633Q392 633 398 639Q404 645 404 654Q404 663 398 669Q392 675 383 675Q374 675 368 669Q362 663 362 654ZM311 489Z" glyph-name="adieresis" horiz-adv-x="608" unicode="&#228;" /><glyph d="M467 321 411 0H396L423 151Q388 72 333 30Q278 -12 207 -12Q136 -12 94 21.5Q52 55 52 110Q52 172 92.5 209.5Q133 247 223 268L451 320Q464 401 428 443.5Q392 486 313 486Q257 486 206 461Q155 436 112 387L99 396Q146 449 199 475Q252 501 312 501Q401 501 441.5 453.5Q482 406 467 321ZM68 113Q68 62 105.5 32.5Q143 3 209 3Q297 3 359 74.5Q421 146 442 270L448 305L224 253Q142 234 105 200.5Q68 167 68 113ZM317 498ZM392 -14ZM248 654Q248 645 254 639Q260 633 269 633Q278 633 284 639Q290 645 290 654Q290 663 284 669Q278 675 269 675Q260 675 254 669Q248 663 248 654ZM360 654Q360 645 366 639Q372 633 381 633Q390 633 396 639Q402 645 402 654Q402 663 396 669Q390 675 381 675Q372 675 366 669Q360 663 360 654ZM309 489Z" glyph-name="adieresis.alt" horiz-adv-x="556" /><glyph d="M831 108 843 100Q807 47 756 17.5Q705 -12 647 -12Q555 -12 498 43Q441 98 437 189Q405 93 346 40.5Q287 -12 209 -12Q137 -12 94.5 21.5Q52 55 52 110Q52 172 92.5 209.5Q133 247 223 268L451 320V323Q464 401 428 443.5Q392 486 313 486Q254 486 202.5 460.5Q151 435 112 387L99 396Q142 448 196 474.5Q250 501 312 501Q394 501 435 462.5Q476 424 471 352Q503 421 561.5 461Q620 501 688 501Q771 501 823 447Q875 393 875 305Q875 291 873 274Q871 257 867 245H454Q453 228 452.5 219Q452 210 452 203Q452 113 506 58Q560 3 649 3Q702 3 749.5 30.5Q797 58 831 108ZM859 304Q859 386 812 436Q765 486 688 486Q604 486 538.5 422.5Q473 359 457 260H854Q857 271 858 281Q859 291 859 304ZM68 113Q68 62 106 32.5Q144 3 211 3Q299 3 360 74.5Q421 146 442 270L448 305L224 253Q142 234 105 200Q68 166 68 113Z" glyph-name="ae" horiz-adv-x="930" unicode="&#230;" /><glyph d="M453 0H438L459 129Q426 63 372 25.5Q318 -12 253 -12Q166 -12 114.5 46Q63 104 63 199Q63 328 131 414.5Q199 501 302 501Q382 501 433 453Q484 405 495 322L523 489H539ZM79 203Q79 112 126 57.5Q173 3 253 3Q349 3 416 88Q483 173 483 282Q483 374 433.5 430Q384 486 299 486Q206 486 142.5 404Q79 322 79 203ZM311 489ZM425 0ZM316 587 242 721H223L298 587ZM311 489Z" glyph-name="agrave" horiz-adv-x="608" unicode="&#224;" /><glyph d="M467 321 411 0H396L423 151Q388 72 333 30Q278 -12 207 -12Q136 -12 94 21.5Q52 55 52 110Q52 172 92.5 209.5Q133 247 223 268L451 320Q464 401 428 443.5Q392 486 313 486Q257 486 206 461Q155 436 112 387L99 396Q146 449 199 475Q252 501 312 501Q401 501 441.5 453.5Q482 406 467 321ZM68 113Q68 62 105.5 32.5Q143 3 209 3Q297 3 359 74.5Q421 146 442 270L448 305L224 253Q142 234 105 200.5Q68 167 68 113ZM317 498ZM392 -14ZM312 587 238 721H219L294 587ZM307 489Z" glyph-name="agrave.alt" horiz-adv-x="556" /><glyph d="M453 0H438L459 129Q426 63 372 25.5Q318 -12 253 -12Q166 -12 114.5 46Q63 104 63 199Q63 328 131 414.5Q199 501 302 501Q382 501 433 453Q484 405 495 322L523 489H539ZM79 203Q79 112 126 57.5Q173 3 253 3Q349 3 416 88Q483 173 483 282Q483 374 433.5 430Q384 486 299 486Q206 486 142.5 404Q79 322 79 203ZM311 489ZM425 0ZM451 646H205L207 661H453ZM311 489Z" glyph-name="amacron" horiz-adv-x="608" unicode="&#257;" /><glyph d="M467 321 411 0H396L423 151Q388 72 333 30Q278 -12 207 -12Q136 -12 94 21.5Q52 55 52 110Q52 172 92.5 209.5Q133 247 223 268L451 320Q464 401 428 443.5Q392 486 313 486Q257 486 206 461Q155 436 112 387L99 396Q146 449 199 475Q252 501 312 501Q401 501 441.5 453.5Q482 406 467 321ZM68 113Q68 62 105.5 32.5Q143 3 209 3Q297 3 359 74.5Q421 146 442 270L448 305L224 253Q142 234 105 200.5Q68 167 68 113ZM317 498ZM392 -14ZM452 646H206L208 661H454ZM312 489Z" glyph-name="amacron.alt" horiz-adv-x="556" /><glyph d="M260 -12Q169 -12 112 31.5Q55 75 55 148Q55 222 99.5 276Q144 330 250 372Q224 411 210.5 448.5Q197 486 197 523Q197 609 244 660.5Q291 712 363 712Q423 712 460 677.5Q497 643 497 586Q497 513 442 457.5Q387 402 276 363Q282 355 283.5 353.5Q285 352 287 350L492 122Q516 147 540 179Q564 211 592 254L622 301H638V299L605 247Q575 200 550.5 167.5Q526 135 503 110L600 2V0H581L492 99Q437 43 380 15.5Q323 -12 260 -12ZM362 697Q296 697 254.5 649Q213 601 213 521Q213 485 226.5 448.5Q240 412 266 377Q372 411 426.5 463Q481 515 481 583Q481 635 448 666Q415 697 362 697ZM260 359Q163 325 117 273.5Q71 222 71 150Q71 83 123.5 43Q176 3 261 3Q318 3 373 29.5Q428 56 482 110L279 336Q276 339 273 342.5Q270 346 260 359Z" glyph-name="ampersand" horiz-adv-x="669" unicode="&amp;" /><glyph d="M523 489H539L453 0Q382 -27 343.5 -63.5Q305 -100 305 -142Q305 -169 324.5 -184.5Q344 -200 375 -200Q385 -200 395.5 -198Q406 -196 415 -192L413 -208Q405 -212 396 -213.5Q387 -215 376 -215Q335 -215 312 -195.5Q289 -176 289 -142Q289 -98 329.5 -57Q370 -16 439 9L459 129Q426 63 372 25.5Q318 -12 253 -12Q166 -12 114.5 46Q63 104 63 199Q63 328 131 414.5Q199 501 302 501Q382 501 433 453Q484 405 495 322ZM79 203Q79 112 126 57.5Q173 3 253 3Q349 3 416 88Q483 173 483 282Q483 374 433.5 430Q384 486 299 486Q206 486 142.5 404Q79 322 79 203Z" glyph-name="aogonek" horiz-adv-x="608" unicode="&#261;" /><glyph d="M312 501Q401 501 441.5 453.5Q482 406 467 321L411 0Q340 -27 301.5 -63.5Q263 -100 263 -142Q263 -169 282.5 -184.5Q302 -200 333 -200Q343 -200 353.5 -198Q364 -196 373 -192L371 -208Q363 -212 354 -213.5Q345 -215 334 -215Q293 -215 270 -195.5Q247 -176 247 -142Q247 -97 288 -56.5Q329 -16 398 9L423 151Q388 72 333 30Q278 -12 207 -12Q136 -12 94 21.5Q52 55 52 110Q52 172 92.5 209.5Q133 247 223 268L451 320Q464 401 428 443.5Q392 486 313 486Q257 486 206 461Q155 436 112 387L99 396Q146 449 199 475Q252 501 312 501ZM68 113Q68 62 105.5 32.5Q143 3 209 3Q297 3 359 74.5Q421 146 442 270L448 305L224 253Q142 234 105 200.5Q68 167 68 113Z" glyph-name="aogonek.alt" horiz-adv-x="556" /><glyph d="M309.1 306.6Q336.1 288.6 351.4 283.2Q366.7 277.8 382 277.8Q416.2 277.8 433.75 297.6Q451.3 317.4 451.3 357H436.9Q436.9 324.6 422.95 307.95Q409 291.3 382 291.3Q369.4 291.3 356.35 296.25Q343.3 301.2 318.1 317.4Q290.2 335.4 274 341.25Q257.8 347.1 242.5 347.1Q208.3 347.1 190.75 326.4Q173.2 305.7 173.2 265.2H187.6Q187.6 298.5 201.55 316.05Q215.5 333.6 242.5 333.6Q256.9 333.6 270.4 328.65Q283.9 323.7 309.1 306.6ZM309.1 438.6Q336.1 420.6 351.4 415.2Q366.7 409.8 382 409.8Q416.2 409.8 433.75 429.6Q451.3 449.4 451.3 489H436.9Q436.9 456.6 422.95 439.95Q409 423.3 382 423.3Q369.4 423.3 356.35 428.25Q343.3 433.2 318.1 449.4Q290.2 467.4 274 473.25Q257.8 479.1 242.5 479.1Q208.3 479.1 190.75 458.4Q173.2 437.7 173.2 397.2H187.6Q187.6 430.5 201.55 448.05Q215.5 465.6 242.5 465.6Q256.9 465.6 270.4 460.65Q283.9 455.7 309.1 438.6Z" glyph-name="approxequal" horiz-adv-x="580" unicode="&#8776;" /><glyph d="M453 0H438L459 129Q426 63 372 25.5Q318 -12 253 -12Q166 -12 114.5 46Q63 104 63 199Q63 328 131 414.5Q199 501 302 501Q382 501 433 453Q484 405 495 322L523 489H539ZM79 203Q79 112 126 57.5Q173 3 253 3Q349 3 416 88Q483 173 483 282Q483 374 433.5 430Q384 486 299 486Q206 486 142.5 404Q79 322 79 203ZM311 489ZM425 0ZM430 654Q430 694 401.5 723Q373 752 332 752Q290 752 262 723.5Q234 695 234 654Q234 613 262 585Q290 557 332 557Q373 557 401.5 585.5Q430 614 430 654ZM250 654Q250 689 274 713Q298 737 332 737Q366 737 390 712.5Q414 688 414 654Q414 620 390 596Q366 572 332 572Q297 572 273.5 596Q250 620 250 654ZM311 489Z" glyph-name="aring" horiz-adv-x="608" unicode="&#229;" /><glyph d="M467 321 411 0H396L423 151Q388 72 333 30Q278 -12 207 -12Q136 -12 94 21.5Q52 55 52 110Q52 172 92.5 209.5Q133 247 223 268L451 320Q464 401 428 443.5Q392 486 313 486Q257 486 206 461Q155 436 112 387L99 396Q146 449 199 475Q252 501 312 501Q401 501 441.5 453.5Q482 406 467 321ZM68 113Q68 62 105.5 32.5Q143 3 209 3Q297 3 359 74.5Q421 146 442 270L448 305L224 253Q142 234 105 200.5Q68 167 68 113ZM317 498ZM392 -14ZM417 654Q417 694 388.5 723Q360 752 319 752Q277 752 249 723.5Q221 695 221 654Q221 613 249 585Q277 557 319 557Q360 557 388.5 585.5Q417 614 417 654ZM237 654Q237 689 261 713Q285 737 319 737Q353 737 377 712.5Q401 688 401 654Q401 620 377 596Q353 572 319 572Q284 572 260.5 596Q237 620 237 654ZM298 489Z" glyph-name="aring.alt" horiz-adv-x="556" /><glyph d="M302 700H317L490 281H473L309 679L146 281H130Z" glyph-name="asciicircum" horiz-adv-x="580" unicode="^" /><glyph d="M309 374Q339 354 356 348Q373 342 390 342Q428 342 447.5 364Q467 386 467 430H451Q451 394 435.5 375.5Q420 357 390 357Q376 357 361.5 362.5Q347 368 319 386Q288 406 270 412.5Q252 419 235 419Q197 419 177.5 396Q158 373 158 328H174Q174 365 189.5 384.5Q205 404 235 404Q251 404 266 398.5Q281 393 309 374Z" glyph-name="asciitilde" horiz-adv-x="580" unicode="~" /><glyph d="M281 520 253 366H237L264 519L118 442L113 457L260 533L141 611L150 624L269 547L297 700H313L285 547L432 625L437 610L291 533L409 456L400 443Z" glyph-name="asterisk" horiz-adv-x="467" unicode="*" /><glyph d="M615 183Q588 133 547 106.5Q506 80 457 80Q384 80 340 125.5Q296 171 296 248Q296 344 351 417Q406 490 492 490Q553 490 594.5 455Q636 420 647 358L669 480H684L633 195Q625 151 647.5 127Q670 103 717 103Q796 103 849.5 172.5Q903 242 903 355Q903 505 796 600.5Q689 696 519 696Q424 696 345.5 664.5Q267 633 209 572Q152 512 120.5 429.5Q89 347 89 260Q89 82 197 -28.5Q305 -139 492 -139Q558 -139 617.5 -123Q677 -107 749 -67L757 -80Q684 -122 622.5 -138.5Q561 -155 492 -155Q297 -155 185 -40Q73 75 73 260Q73 350 105.5 435.5Q138 521 198 584Q258 647 339 679.5Q420 712 519 712Q696 712 807.5 612Q919 512 919 355Q919 234 861 161Q803 88 717 88Q670 88 639.5 114Q609 140 615 183ZM312 249Q312 176 350 135.5Q388 95 456 95Q533 95 584.5 162Q636 229 636 314Q636 388 597 431.5Q558 475 492 475Q412 475 362 407.5Q312 340 312 249Z" glyph-name="at" horiz-adv-x="973" unicode="@" /><glyph d="M453 0H438L459 129Q426 63 372 25.5Q318 -12 253 -12Q166 -12 114.5 46Q63 104 63 199Q63 328 131 414.5Q199 501 302 501Q382 501 433 453Q484 405 495 322L523 489H539ZM79 203Q79 112 126 57.5Q173 3 253 3Q349 3 416 88Q483 173 483 282Q483 374 433.5 430Q384 486 299 486Q206 486 142.5 404Q79 322 79 203ZM311 489ZM425 0ZM331 646Q352 624 365 617Q378 610 394 610Q421 610 438.5 628.5Q456 647 459 679H443Q442 654 428.5 639.5Q415 625 394 625Q382 625 371 631Q360 637 340 658Q316 682 300.5 690Q285 698 267 698Q240 698 223 679Q206 660 199 624H215Q220 652 233 667.5Q246 683 266 683Q282 683 296 676Q310 669 331 646ZM311 489Z" glyph-name="atilde" horiz-adv-x="608" unicode="&#227;" /><glyph d="M467 321 411 0H396L423 151Q388 72 333 30Q278 -12 207 -12Q136 -12 94 21.5Q52 55 52 110Q52 172 92.5 209.5Q133 247 223 268L451 320Q464 401 428 443.5Q392 486 313 486Q257 486 206 461Q155 436 112 387L99 396Q146 449 199 475Q252 501 312 501Q401 501 441.5 453.5Q482 406 467 321ZM68 113Q68 62 105.5 32.5Q143 3 209 3Q297 3 359 74.5Q421 146 442 270L448 305L224 253Q142 234 105 200.5Q68 167 68 113ZM317 498ZM392 -14ZM334 646Q355 624 368 617Q381 610 397 610Q424 610 441.5 628.5Q459 647 462 679H446Q445 654 431.5 639.5Q418 625 397 625Q385 625 374 631Q363 637 343 658Q319 682 303.5 690Q288 698 270 698Q243 698 226 679Q209 660 202 624H218Q223 652 236 667.5Q249 683 269 683Q285 683 299 676Q313 669 334 646ZM314 489Z" glyph-name="atilde.alt" horiz-adv-x="556" /><glyph d="M359 501Q449 501 502 442Q555 383 555 285Q555 156 485.5 72Q416 -12 310 -12Q228 -12 176 36Q124 84 114 167L84 0H69L197 730H213L148 361Q182 427 237.5 464Q293 501 359 501ZM539 284Q539 377 490.5 431.5Q442 486 357 486Q259 486 192 402.5Q125 319 125 207Q125 116 175 59.5Q225 3 310 3Q410 3 474.5 82.5Q539 162 539 284Z" glyph-name="b" horiz-adv-x="618" unicode="b" /><glyph d="M132 742 407 -132H391L116 742Z" glyph-name="backslash" horiz-adv-x="502" unicode="\" /><glyph d="M159 742V-114H143V742Z" glyph-name="bar" horiz-adv-x="278" unicode="|" /><glyph d="M54 322 58 337H91Q120 337 136.5 351.5Q153 366 159 398Q162 410 163.5 425.5Q165 441 166 502Q167 536 169 560Q171 584 175 604Q186 669 228 705.5Q270 742 333 742H354L352 726H331Q276 726 238.5 693Q201 660 191 603Q187 581 185 556Q183 531 181 485Q180 444 178 426Q176 408 173 395Q167 366 152.5 349.5Q138 333 114 327Q132 319 141 303.5Q150 288 150 265Q150 251 145.5 233Q141 215 127 173Q106 113 99 80Q92 47 92 17Q92 -34 122.5 -66Q153 -98 203 -98H219L217 -114H199Q145 -114 110.5 -77.5Q76 -41 76 16Q76 46 83 78.5Q90 111 111 170Q126 212 130.5 231Q135 250 135 265Q135 292 120.5 307Q106 322 80 322Z" glyph-name="braceleft" horiz-adv-x="305" unicode="{" /><glyph d="M276 306 272 291H239Q210 291 193.5 276.5Q177 262 171 230Q168 218 166.5 202.5Q165 187 164 126Q163 92 161 68Q159 44 155 24Q144 -41 102 -77.5Q60 -114 -3 -114H-24L-22 -98H-1Q54 -98 91.5 -65Q129 -32 139 25Q143 47 145 72Q147 97 149 143Q150 184 152 202Q154 220 157 233Q163 262 177.5 278.5Q192 295 216 301Q198 309 189 324.5Q180 340 180 363Q180 377 184.5 395Q189 413 203 455Q224 515 231 548Q238 581 238 611Q238 662 207.5 694Q177 726 127 726H111L113 742H131Q185 742 219.5 705.5Q254 669 254 612Q254 582 247 549.5Q240 517 219 458Q204 416 199.5 397Q195 378 195 363Q195 336 209.5 321Q224 306 250 306Z" glyph-name="braceright" horiz-adv-x="306" unicode="}" /><glyph d="M278 -114H61L209 742H426L424 727H223L79 -99H280Z" glyph-name="bracketleft" horiz-adv-x="367" unicode="[" /><glyph d="M113 742H330L182 -114H-35L-33 -99H168L312 727H111Z" glyph-name="bracketright" horiz-adv-x="367" unicode="]" /><glyph d="M193 600Q238 600 266 630.5Q294 661 305 721H320Q308 651 277 618Q246 585 193 585Q137 585 108.5 621.5Q80 658 86 721H101Q95 668 120 634Q145 600 193 600ZM183 489Z" glyph-name="breve" horiz-adv-x="389" unicode="&#728;" /><glyph d="M193 800Q238 800 266 830.5Q294 861 305 921H320Q308 851 277 818Q246 785 193 785Q137 785 108.5 821.5Q80 858 86 921H101Q95 868 120 834Q145 800 193 800ZM176 700Z" glyph-name="breve.case" horiz-adv-x="389" /><glyph d="M159 742V405H143V742ZM159 205V-132H143V205Z" glyph-name="brokenbar" horiz-adv-x="278" unicode="&#166;" /><glyph d="M119 286Q119 272.5 128.75 262.75Q138.5 253 152 253Q165.5 253 175.25 262.75Q185 272.5 185 286Q185 299.5 175.25 309.25Q165.5 319 152 319Q138.5 319 128.75 309.25Q119 299.5 119 286ZM117.5 314.5Z" glyph-name="bullet" horiz-adv-x="290" unicode="&#8226;" /><glyph d="M265 -12Q176 -12 119 47.5Q62 107 62 203Q62 330 136.5 415.5Q211 501 314 501Q391 501 438.5 463.5Q486 426 506 350L491 345Q473 416 429 451Q385 486 314 486Q217 486 148 405Q79 324 79 204Q79 114 131 58.5Q183 3 265 3Q325 3 374 35Q423 67 456 127L471 120Q435 56 381.5 22Q328 -12 265 -12ZM314 489ZM268 10Z" glyph-name="c" horiz-adv-x="543" unicode="c" /><glyph d="M265 -12Q176 -12 119 47.5Q62 107 62 203Q62 330 136.5 415.5Q211 501 314 501Q391 501 438.5 463.5Q486 426 506 350L491 345Q473 416 429 451Q385 486 314 486Q217 486 148 405Q79 324 79 204Q79 114 131 58.5Q183 3 265 3Q325 3 374 35Q423 67 456 127L471 120Q435 56 381.5 22Q328 -12 265 -12ZM314 489ZM268 10ZM440 721H421L323 587H341ZM314 489Z" glyph-name="cacute" horiz-adv-x="543" unicode="&#263;" /><glyph d="M196 587H181L118 721H136L191 606L266 721H283ZM179 489Z" glyph-name="caron" horiz-adv-x="388" unicode="&#711;" /><glyph d="M196 787H181L118 921H136L191 806L266 921H283ZM179 700Z" glyph-name="caron.case" horiz-adv-x="388" /><glyph d="M95 730H77L23 616H36ZM-1 700Z" glyph-name="caron.salt" horiz-adv-x="167" /><glyph d="M265 -12Q176 -12 119 47.5Q62 107 62 203Q62 330 136.5 415.5Q211 501 314 501Q391 501 438.5 463.5Q486 426 506 350L491 345Q473 416 429 451Q385 486 314 486Q217 486 148 405Q79 324 79 204Q79 114 131 58.5Q183 3 265 3Q325 3 374 35Q423 67 456 127L471 120Q435 56 381.5 22Q328 -12 265 -12ZM314 489ZM268 10ZM331 587H316L253 721H271L326 606L401 721H418ZM314 489Z" glyph-name="ccaron" horiz-adv-x="543" unicode="&#269;" /><glyph d="M179 -96 169 -80 236 -10Q158 -1 110 57Q62 115 62 203Q62 330 136.5 415.5Q211 501 314 501Q391 501 438.5 463.5Q486 426 506 350L491 345Q473 416 429 451Q385 486 314 486Q217 486 148 405Q79 324 79 204Q79 114 131 58.5Q183 3 265 3Q325 3 374 35Q423 67 456 127L471 120Q435 56 381.5 22Q328 -12 265 -12Q262 -12 259.5 -12Q257 -12 254 -12L194 -76Q206 -71 218 -68.5Q230 -66 244 -66Q279 -66 299.5 -81.5Q320 -97 320 -126Q320 -164 290.5 -188Q261 -212 215 -212Q194 -212 173 -206.5Q152 -201 135 -191L143 -178Q159 -187 178.5 -192Q198 -197 217 -197Q256 -197 280 -177.5Q304 -158 304 -126Q304 -104 288 -92.5Q272 -81 242 -81Q225 -81 210 -84.5Q195 -88 179 -96Z" glyph-name="ccedilla" horiz-adv-x="543" unicode="&#231;" /><glyph d="M265 -12Q176 -12 119 47.5Q62 107 62 203Q62 330 136.5 415.5Q211 501 314 501Q391 501 438.5 463.5Q486 426 506 350L491 345Q473 416 429 451Q385 486 314 486Q217 486 148 405Q79 324 79 204Q79 114 131 58.5Q183 3 265 3Q325 3 374 35Q423 67 456 127L471 120Q435 56 381.5 22Q328 -12 265 -12ZM314 489ZM268 10ZM241 587 328 721H343L406 587H388L333 702L258 587ZM314 489Z" glyph-name="ccircumflex" horiz-adv-x="543" unicode="&#265;" /><glyph d="M265 -12Q176 -12 119 47.5Q62 107 62 203Q62 330 136.5 415.5Q211 501 314 501Q391 501 438.5 463.5Q486 426 506 350L491 345Q473 416 429 451Q385 486 314 486Q217 486 148 405Q79 324 79 204Q79 114 131 58.5Q183 3 265 3Q325 3 374 35Q423 67 456 127L471 120Q435 56 381.5 22Q328 -12 265 -12ZM314 489ZM268 10ZM307 654Q307 643 315 635Q323 627 334 627Q345 627 353 635Q361 643 361 654Q361 665 353 673.5Q345 682 334 682Q323 682 315 673.5Q307 665 307 654ZM314 489Z" glyph-name="cdotaccent" horiz-adv-x="543" unicode="&#267;" /><glyph d="M121 -96 111 -80 190 2H209L136 -76Q148 -71 160 -68.5Q172 -66 186 -66Q221 -66 241.5 -81.5Q262 -97 262 -126Q262 -164 232.5 -188Q203 -212 157 -212Q136 -212 115 -206.5Q94 -201 77 -191L85 -178Q101 -187 120.5 -192Q140 -197 159 -197Q198 -197 222 -177.5Q246 -158 246 -126Q246 -104 230 -92.5Q214 -81 184 -81Q167 -81 152 -84.5Q137 -88 121 -96ZM210 10Z" glyph-name="cedilla" horiz-adv-x="379" unicode="&#184;" /><glyph d="M104 -84H87L148 27Q109 55 88 100.5Q67 146 67 203Q67 330 141.5 415.5Q216 501 319 501Q341 501 361.5 497.5Q382 494 401 487L459 594H476L414 482Q450 464 474 431Q498 398 511 350L496 345Q485 390 462.5 420.5Q440 451 407 468L168 32Q189 18 215 10.5Q241 3 270 3Q330 3 379 35Q428 67 461 127L476 120Q440 56 386.5 22Q333 -12 270 -12Q240 -12 212.5 -4.5Q185 3 160 18ZM319 486Q222 486 153 405Q84 324 84 204Q84 152 102.5 109.5Q121 67 155 41L393 474Q377 480 358.5 483Q340 486 319 486Z" glyph-name="cent" horiz-adv-x="562" unicode="&#162;" /><glyph d="M106 587 193 721H208L271 587H253L198 702L123 587ZM179 489Z" glyph-name="circumflex" horiz-adv-x="388" unicode="&#710;" /><glyph d="M106 787 193 921H208L271 787H253L198 902L123 787ZM174 700Z" glyph-name="circumflex.case" horiz-adv-x="388" /><glyph d="M124 453Q124 444 130.5 437.5Q137 431 146 431Q155 431 161.5 437.5Q168 444 168 453Q168 462 161.5 468.5Q155 475 146 475Q137 475 130.5 468.5Q124 462 124 453ZM123 472ZM47 10Q47 1 53.5 -5.5Q60 -12 69 -12Q78 -12 84.5 -5.5Q91 1 91 10Q91 19 84.5 25.5Q78 32 69 32Q60 32 53.5 25.5Q47 19 47 10ZM46 29Z" glyph-name="colon" horiz-adv-x="220" unicode=":" /><glyph d="M79 29H60L-26 -190H-10Z" glyph-name="comma" horiz-adv-x="172" unicode="," /><glyph d="M112 -75H94L30 -210H43ZM117 1ZM80 -210Z" glyph-name="commaaccent" horiz-adv-x="196" unicode="&#63171;" /><glyph d="M82 587H100L164 721H151ZM91 489Z" glyph-name="commaaccent.salt" horiz-adv-x="196" /><glyph d="M813 351Q813 501 707.5 606.5Q602 712 452 712Q302 712 196.5 606.5Q91 501 91 351Q91 201 197 94.5Q303 -12 452 -12Q601 -12 707 94.5Q813 201 813 351ZM107 351Q107 495 208 596Q309 697 452 697Q595 697 696 596Q797 495 797 351Q797 207 696 105Q595 3 452 3Q309 3 208 105Q107 207 107 351ZM453 163Q383 163 337 215Q291 267 291 349Q291 432 337 484.5Q383 537 454 537Q505 537 540 513.5Q575 490 597 441L583 435Q563 480 532 501Q501 522 454 522Q390 522 348.5 473.5Q307 425 307 349Q307 273 348.5 225.5Q390 178 453 178Q501 178 535 203Q569 228 586 276L601 271Q582 219 543.5 191Q505 163 453 163Z" glyph-name="copyright" horiz-adv-x="866" unicode="&#169;" /><glyph d="M70 158 61 169 174 266Q165 281 160 298Q155 315 155 333Q155 364 166.5 391.5Q178 419 200 440L127 530L138 540L212 451Q232 468 256 477Q280 486 306 486Q335 486 360.5 475Q386 464 404 443L520 541L529 530L413 430Q423 415 428.5 397.5Q434 380 434 360Q434 331 423.5 304.5Q413 278 394 256L465 168L454 158L383 245Q362 226 336.5 216Q311 206 284 206Q253 206 227 218.5Q201 231 183 253ZM284 221Q338 221 378.5 261.5Q419 302 419 357Q419 405 387 438Q355 471 307 471Q252 471 211 431Q170 391 170 335Q170 287 203.5 254Q237 221 284 221Z" glyph-name="currency" horiz-adv-x="555" unicode="&#164;" /><glyph d="M63 204Q63 333 132.5 417Q202 501 308 501Q390 501 441.5 453.5Q493 406 504 323L576 730H592L464 0H449L470 129Q437 63 381.5 25.5Q326 -12 259 -12Q169 -12 116 47Q63 106 63 204ZM79 205Q79 112 127.5 57.5Q176 3 261 3Q359 3 426 86.5Q493 170 493 282Q493 373 443 429.5Q393 486 308 486Q208 486 143.5 406.5Q79 327 79 205ZM658 700Z" glyph-name="d" horiz-adv-x="619" unicode="d" /><glyph d="M250 453 169 0H153L234 453H89L91 468H236L277 700H293L252 468H395L393 453Z" glyph-name="dagger" horiz-adv-x="408" unicode="&#8224;" /><glyph d="M179 0H163L205 232H61L63 247H208L225 351L244 453H99L101 468H246L287 700H303L262 468H405L403 453H260L241 349L222 247H367L365 232H220Z" glyph-name="daggerdbl" horiz-adv-x="429" unicode="&#8225;" /><glyph d="M63 204Q63 333 132.5 417Q202 501 308 501Q390 501 441.5 453.5Q493 406 504 323L576 730H592L464 0H449L470 129Q437 63 381.5 25.5Q326 -12 259 -12Q169 -12 116 47Q63 106 63 204ZM79 205Q79 112 127.5 57.5Q176 3 261 3Q359 3 426 86.5Q493 170 493 282Q493 373 443 429.5Q393 486 308 486Q208 486 143.5 406.5Q79 327 79 205ZM658 700ZM754 730H736L682 616H695ZM658 700Z" glyph-name="dcaron" horiz-adv-x="659" unicode="&#271;" /><glyph d="M63 204Q63 333 132.5 417Q202 501 308 501Q390 501 441.5 453.5Q493 406 504 323L556 617H373L377 632H559L576 730H592L575 632H674L670 617H572L464 0H449L470 129Q437 63 381.5 25.5Q326 -12 259 -12Q169 -12 116 47Q63 106 63 204ZM79 205Q79 112 127.5 57.5Q176 3 261 3Q359 3 426 86.5Q493 170 493 282Q493 373 443 429.5Q393 486 308 486Q208 486 143.5 406.5Q79 327 79 205Z" glyph-name="dcroat" horiz-adv-x="619" unicode="&#273;" /><glyph d="M384 583Q384 637 346.5 674.5Q309 712 255 712Q201 712 162 674Q123 636 123 583Q123 529 162 490.5Q201 452 255 452Q309 452 346.5 490.5Q384 529 384 583ZM139 583Q139 630 173 663.5Q207 697 255 697Q302 697 335 663.5Q368 630 368 583Q368 535 335 501Q302 467 255 467Q207 467 173 501Q139 535 139 583Z" glyph-name="degree" horiz-adv-x="396" unicode="&#176;" /><glyph d="M115 654Q115 645 121 639Q127 633 136 633Q145 633 151 639Q157 645 157 654Q157 663 151 669Q145 675 136 675Q127 675 121 669Q115 663 115 654ZM227 654Q227 645 233 639Q239 633 248 633Q257 633 263 639Q269 645 269 654Q269 663 263 669Q257 675 248 675Q239 675 233 669Q227 663 227 654ZM176 489Z" glyph-name="dieresis" horiz-adv-x="389" unicode="&#168;" /><glyph d="M115 854Q115 845 121 839Q127 833 136 833Q145 833 151 839Q157 845 157 854Q157 863 151 869Q145 875 136 875Q127 875 121 869Q115 863 115 854ZM227 854Q227 845 233 839Q239 833 248 833Q257 833 263 839Q269 845 269 854Q269 863 263 869Q257 875 248 875Q239 875 233 869Q227 863 227 854ZM174 700Z" glyph-name="dieresis.case" horiz-adv-x="389" /><glyph d="M91 343V359H523V343ZM288 195Q288 187 293.5 181Q299 175 307 175Q316 175 321.5 181Q327 187 327 195Q327 203 321.5 209Q316 215 307 215Q299 215 293.5 209Q288 203 288 195ZM288 507Q288 499 293.5 493Q299 487 307 487Q315 487 321 493Q327 499 327 507Q327 515 321.5 521Q316 527 307 527Q299 527 293.5 521Q288 515 288 507Z" glyph-name="divide" horiz-adv-x="580" unicode="&#247;" /><glyph d="M222 -11 201 -134H185L207 -9Q151 -1 106.5 29Q62 59 31 108L47 117Q72 73 114.5 43.5Q157 14 209 6L271 362L254 371Q187 406 152.5 448Q118 490 118 538Q118 612 172 662Q226 712 317 712Q321 712 324.5 712Q328 712 332 712L353 833H369L348 710Q399 704 439.5 676.5Q480 649 513 599L498 590Q467 638 429.5 663.5Q392 689 345 695L289 371L324 353Q395 316 424 279.5Q453 243 453 193Q453 100 397 44Q341 -12 247 -12Q237 -12 231.5 -12Q226 -12 222 -11ZM134 540Q134 495 166 456Q198 417 259 386L274 378L329 697Q326 697 322.5 697Q319 697 316 697Q235 697 184.5 651Q134 605 134 540ZM437 189Q437 235 410.5 269Q384 303 319 337L286 354L225 4Q229 3 233.5 3Q238 3 248 3Q291 3 325 16Q359 29 383 54Q409 80 423 118Q437 156 437 189Z" glyph-name="dollar" horiz-adv-x="522" unicode="$" /><glyph d="M160 654Q160 643 168 635Q176 627 187 627Q198 627 206 635Q214 643 214 654Q214 665 206 673.5Q198 682 187 682Q176 682 168 673.5Q160 665 160 654ZM167 489Z" glyph-name="dotaccent" horiz-adv-x="373" unicode="&#729;" /><glyph d="M160 854Q160 843 168 835Q176 827 187 827Q198 827 206 835Q214 843 214 854Q214 865 206 873.5Q198 882 187 882Q176 882 168 873.5Q160 865 160 854ZM166 700Z" glyph-name="dotaccent.case" horiz-adv-x="373" /><glyph d="M71 0 154 489H170L87 0ZM162 489Z" glyph-name="dotlessi" horiz-adv-x="240" unicode="&#305;" /><glyph d="M272 -12Q177 -12 119.5 46.5Q62 105 62 201Q62 329 135 415Q208 501 313 501Q396 501 448 447Q500 393 500 305Q500 291 498 274Q496 257 492 245H79Q78 228 77.5 219Q77 210 77 203Q77 113 131 58Q185 3 274 3Q327 3 374.5 30.5Q422 58 456 108L468 100Q432 47 381 17.5Q330 -12 272 -12ZM484 304Q484 386 437 436Q390 486 313 486Q229 486 163.5 422.5Q98 359 82 260H479Q482 272 483 281.5Q484 291 484 304ZM313 489ZM318 0Z" glyph-name="e" horiz-adv-x="555" unicode="e" /><glyph d="M272 -12Q177 -12 119.5 46.5Q62 105 62 201Q62 329 135 415Q208 501 313 501Q396 501 448 447Q500 393 500 305Q500 291 498 274Q496 257 492 245H79Q78 228 77.5 219Q77 210 77 203Q77 113 131 58Q185 3 274 3Q327 3 374.5 30.5Q422 58 456 108L468 100Q432 47 381 17.5Q330 -12 272 -12ZM484 304Q484 386 437 436Q390 486 313 486Q229 486 163.5 422.5Q98 359 82 260H479Q482 272 483 281.5Q484 291 484 304ZM313 489ZM318 0ZM439 721H420L322 587H340ZM313 489Z" glyph-name="eacute" horiz-adv-x="555" unicode="&#233;" /><glyph d="M272 -12Q177 -12 119.5 46.5Q62 105 62 201Q62 329 135 415Q208 501 313 501Q396 501 448 447Q500 393 500 305Q500 291 498 274Q496 257 492 245H79Q78 228 77.5 219Q77 210 77 203Q77 113 131 58Q185 3 274 3Q327 3 374.5 30.5Q422 58 456 108L468 100Q432 47 381 17.5Q330 -12 272 -12ZM484 304Q484 386 437 436Q390 486 313 486Q229 486 163.5 422.5Q98 359 82 260H479Q482 272 483 281.5Q484 291 484 304ZM313 489ZM318 0ZM323 600Q368 600 396 630.5Q424 661 435 721H450Q438 651 407 618Q376 585 323 585Q267 585 238.5 621.5Q210 658 216 721H231Q225 668 250 634Q275 600 323 600ZM313 489Z" glyph-name="ebreve" horiz-adv-x="555" unicode="&#277;" /><glyph d="M272 -12Q177 -12 119.5 46.5Q62 105 62 201Q62 329 135 415Q208 501 313 501Q396 501 448 447Q500 393 500 305Q500 291 498 274Q496 257 492 245H79Q78 228 77.5 219Q77 210 77 203Q77 113 131 58Q185 3 274 3Q327 3 374.5 30.5Q422 58 456 108L468 100Q432 47 381 17.5Q330 -12 272 -12ZM484 304Q484 386 437 436Q390 486 313 486Q229 486 163.5 422.5Q98 359 82 260H479Q482 272 483 281.5Q484 291 484 304ZM313 489ZM318 0ZM330 587H315L252 721H270L325 606L400 721H417ZM313 489Z" glyph-name="ecaron" horiz-adv-x="555" unicode="&#283;" /><glyph d="M272 -12Q177 -12 119.5 46.5Q62 105 62 201Q62 329 135 415Q208 501 313 501Q396 501 448 447Q500 393 500 305Q500 291 498 274Q496 257 492 245H79Q78 228 77.5 219Q77 210 77 203Q77 113 131 58Q185 3 274 3Q327 3 374.5 30.5Q422 58 456 108L468 100Q432 47 381 17.5Q330 -12 272 -12ZM484 304Q484 386 437 436Q390 486 313 486Q229 486 163.5 422.5Q98 359 82 260H479Q482 272 483 281.5Q484 291 484 304ZM313 489ZM318 0ZM240 587 327 721H342L405 587H387L332 702L257 587ZM313 489Z" glyph-name="ecircumflex" horiz-adv-x="555" unicode="&#234;" /><glyph d="M272 -12Q177 -12 119.5 46.5Q62 105 62 201Q62 329 135 415Q208 501 313 501Q396 501 448 447Q500 393 500 305Q500 291 498 274Q496 257 492 245H79Q78 228 77.5 219Q77 210 77 203Q77 113 131 58Q185 3 274 3Q327 3 374.5 30.5Q422 58 456 108L468 100Q432 47 381 17.5Q330 -12 272 -12ZM484 304Q484 386 437 436Q390 486 313 486Q229 486 163.5 422.5Q98 359 82 260H479Q482 272 483 281.5Q484 291 484 304ZM313 489ZM318 0ZM252 654Q252 645 258 639Q264 633 273 633Q282 633 288 639Q294 645 294 654Q294 663 288 669Q282 675 273 675Q264 675 258 669Q252 663 252 654ZM364 654Q364 645 370 639Q376 633 385 633Q394 633 400 639Q406 645 406 654Q406 663 400 669Q394 675 385 675Q376 675 370 669Q364 663 364 654ZM313 489Z" glyph-name="edieresis" horiz-adv-x="555" unicode="&#235;" /><glyph d="M272 -12Q177 -12 119.5 46.5Q62 105 62 201Q62 329 135 415Q208 501 313 501Q396 501 448 447Q500 393 500 305Q500 291 498 274Q496 257 492 245H79Q78 228 77.5 219Q77 210 77 203Q77 113 131 58Q185 3 274 3Q327 3 374.5 30.5Q422 58 456 108L468 100Q432 47 381 17.5Q330 -12 272 -12ZM484 304Q484 386 437 436Q390 486 313 486Q229 486 163.5 422.5Q98 359 82 260H479Q482 272 483 281.5Q484 291 484 304ZM313 489ZM318 0ZM306 654Q306 643 314 635Q322 627 333 627Q344 627 352 635Q360 643 360 654Q360 665 352 673.5Q344 682 333 682Q322 682 314 673.5Q306 665 306 654ZM313 489Z" glyph-name="edotaccent" horiz-adv-x="555" unicode="&#279;" /><glyph d="M272 -12Q177 -12 119.5 46.5Q62 105 62 201Q62 329 135 415Q208 501 313 501Q396 501 448 447Q500 393 500 305Q500 291 498 274Q496 257 492 245H79Q78 228 77.5 219Q77 210 77 203Q77 113 131 58Q185 3 274 3Q327 3 374.5 30.5Q422 58 456 108L468 100Q432 47 381 17.5Q330 -12 272 -12ZM484 304Q484 386 437 436Q390 486 313 486Q229 486 163.5 422.5Q98 359 82 260H479Q482 272 483 281.5Q484 291 484 304ZM313 489ZM318 0ZM318 587 244 721H225L300 587ZM313 489Z" glyph-name="egrave" horiz-adv-x="555" unicode="&#232;" /><glyph d="M516 202Q516 109 451 48.5Q386 -12 284 -12Q185 -12 124.5 38.5Q64 89 64 168Q64 247 117.5 306.5Q171 366 260 375Q202 392 171.5 428Q141 464 141 517Q141 599 201.5 655.5Q262 712 356 712Q448 712 504.5 664Q561 616 561 543Q561 470 515.5 420.5Q470 371 388 363Q450 346 483 305Q516 264 516 202ZM157 520Q157 451 210.5 413Q264 375 355 375Q444 375 494.5 422Q545 469 545 543Q545 610 492.5 653.5Q440 697 355 697Q270 697 213.5 645Q157 593 157 520ZM291 363Q197 363 138.5 306Q80 249 80 169Q80 97 136 50Q192 3 284 3Q379 3 439.5 59Q500 115 500 201Q500 278 444.5 320.5Q389 363 291 363Z" glyph-name="eight" horiz-adv-x="601" unicode="8" /><glyph d="M114 186Q86 195 71.5 214Q57 233 57 259Q57 299 89 327Q121 355 168 355Q216 355 245.5 331Q275 307 275 269Q275 235 253.5 210Q232 185 195 179Q223 169 237.5 148.5Q252 128 252 100Q252 54 218.5 24Q185 -6 133 -6Q83 -6 52 20.5Q21 47 21 87Q21 122 47 150.5Q73 179 114 186ZM168 342Q128 342 99.5 318Q71 294 71 260Q71 227 96.5 207.5Q122 188 168 188Q212 188 236.5 210Q261 232 261 267Q261 299 235 320.5Q209 342 168 342ZM139 176Q93 176 64 150Q35 124 35 87Q35 52 63 29.5Q91 7 135 7Q178 7 208 33.5Q238 60 238 99Q238 136 212.5 156Q187 176 139 176Z" glyph-name="eight.denominator" horiz-adv-x="327" unicode="&#63069;" /><glyph d="M90 46Q62 55 47.5 74Q33 93 33 119Q33 159 65 187Q97 215 144 215Q192 215 221.5 191Q251 167 251 129Q251 95 229.5 70Q208 45 171 39Q199 29 213.5 8.5Q228 -12 228 -40Q228 -86 194.5 -116Q161 -146 109 -146Q59 -146 28 -119.5Q-3 -93 -3 -53Q-3 -18 23 10.5Q49 39 90 46ZM144 202Q104 202 75.5 178Q47 154 47 120Q47 87 72.5 67.5Q98 48 144 48Q188 48 212.5 70Q237 92 237 127Q237 159 211 180.5Q185 202 144 202ZM115 36Q69 36 40 10Q11 -16 11 -53Q11 -88 39 -110.5Q67 -133 111 -133Q154 -133 184 -106.5Q214 -80 214 -41Q214 -4 188.5 16Q163 36 115 36Z" glyph-name="eight.inferior" horiz-adv-x="327" unicode="&#8328;" /><glyph d="M176 536Q148 545 133.5 564Q119 583 119 609Q119 649 151 677Q183 705 230 705Q278 705 307.5 681Q337 657 337 619Q337 585 315.5 560Q294 535 257 529Q285 519 299.5 498.5Q314 478 314 450Q314 404 280.5 374Q247 344 195 344Q145 344 114 370.5Q83 397 83 437Q83 472 109 500.5Q135 529 176 536ZM230 692Q190 692 161.5 668Q133 644 133 610Q133 577 158.5 557.5Q184 538 230 538Q274 538 298.5 560Q323 582 323 617Q323 649 297 670.5Q271 692 230 692ZM201 526Q155 526 126 500Q97 474 97 437Q97 402 125 379.5Q153 357 197 357Q240 357 270 383.5Q300 410 300 449Q300 486 274.5 506Q249 526 201 526Z" glyph-name="eight.numerator" horiz-adv-x="327" unicode="&#63081;" /><glyph d="M201 676Q173 685 158.5 704Q144 723 144 749Q144 789 176 817Q208 845 255 845Q303 845 332.5 821Q362 797 362 759Q362 725 340.5 700Q319 675 282 669Q310 659 324.5 638.5Q339 618 339 590Q339 544 305.5 514Q272 484 220 484Q170 484 139 510.5Q108 537 108 577Q108 612 134 640.5Q160 669 201 676ZM255 832Q215 832 186.5 808Q158 784 158 750Q158 717 183.5 697.5Q209 678 255 678Q299 678 323.5 700Q348 722 348 757Q348 789 322 810.5Q296 832 255 832ZM226 666Q180 666 151 640Q122 614 122 577Q122 542 150 519.5Q178 497 222 497Q265 497 295 523.5Q325 550 325 589Q325 626 299.5 646Q274 666 226 666Z" glyph-name="eight.superior" horiz-adv-x="327" unicode="&#8312;" /><glyph d="M495 202Q495 109 430 48.5Q365 -12 263 -12Q164 -12 103.5 38.5Q43 89 43 168Q43 247 96.5 306.5Q150 366 239 375Q181 392 150.5 428Q120 464 120 517Q120 599 180.5 655.5Q241 712 335 712Q427 712 483.5 664Q540 616 540 543Q540 470 494.5 420.5Q449 371 367 363Q429 346 462 305Q495 264 495 202ZM136 520Q136 451 189.5 413Q243 375 334 375Q423 375 473.5 422Q524 469 524 543Q524 610 471.5 653.5Q419 697 334 697Q249 697 192.5 645Q136 593 136 520ZM270 363Q176 363 117.5 306Q59 249 59 169Q59 97 115 50Q171 3 263 3Q358 3 418.5 59Q479 115 479 201Q479 278 423.5 320.5Q368 363 270 363Z" glyph-name="eight.tab" horiz-adv-x="560" unicode="&#65304;" /><glyph d="M54 10Q54 1 60.5 -5.5Q67 -12 76 -12Q85 -12 91.5 -5.5Q98 1 98 10Q98 19 91.5 25.5Q85 32 76 32Q67 32 60.5 25.5Q54 19 54 10ZM53 29ZM207 10Q207 1 213.5 -5.5Q220 -12 229 -12Q238 -12 244.5 -5.5Q251 1 251 10Q251 19 244.5 25.5Q238 32 229 32Q220 32 213.5 25.5Q207 19 207 10ZM206 29ZM355 10Q355 1 361.5 -5.5Q368 -12 377 -12Q386 -12 392.5 -5.5Q399 1 399 10Q399 19 392.5 25.5Q386 32 377 32Q368 32 361.5 25.5Q355 19 355 10ZM354 29Z" glyph-name="ellipsis" horiz-adv-x="508" unicode="&#8230;" /><glyph d="M272 -12Q177 -12 119.5 46.5Q62 105 62 201Q62 329 135 415Q208 501 313 501Q396 501 448 447Q500 393 500 305Q500 291 498 274Q496 257 492 245H79Q78 228 77.5 219Q77 210 77 203Q77 113 131 58Q185 3 274 3Q327 3 374.5 30.5Q422 58 456 108L468 100Q432 47 381 17.5Q330 -12 272 -12ZM484 304Q484 386 437 436Q390 486 313 486Q229 486 163.5 422.5Q98 359 82 260H479Q482 272 483 281.5Q484 291 484 304ZM313 489ZM318 0ZM453 646H207L209 661H455ZM313 489Z" glyph-name="emacron" horiz-adv-x="555" unicode="&#275;" /><glyph d="M90 257 92 272H889L887 257Z" glyph-name="emdash" horiz-adv-x="972" unicode="&#8212;" /><glyph d="M90 257 92 272H511L509 257Z" glyph-name="endash" horiz-adv-x="594" unicode="&#8211;" /><glyph d="M77 203Q77 113 131 58Q185 3 274 3Q327 3 374.5 30.5Q422 58 456 108L468 100Q454 78 434.5 58.5Q415 39 385 19Q377 14 345.5 -5.5Q314 -25 298 -39Q276 -58 265.5 -80Q255 -102 255 -129Q255 -162 277 -181Q299 -200 335 -200Q345 -200 355.5 -198Q366 -196 375 -192L373 -208Q365 -212 356 -213.5Q347 -215 336 -215Q290 -215 264.5 -192.5Q239 -170 239 -130Q239 -91 258.5 -61Q278 -31 321 -6Q309 -9 298 -10.5Q287 -12 272 -12Q177 -12 119.5 46.5Q62 105 62 201Q62 329 135 415Q208 501 313 501Q396 501 448 447Q500 393 500 305Q500 291 498 274Q496 257 492 245H79Q78 228 77.5 219Q77 210 77 203ZM484 304Q484 386 437 436Q390 486 313 486Q229 486 163.5 422.5Q98 359 82 260H479Q482 272 483 281.5Q484 291 484 304Z" glyph-name="eogonek" horiz-adv-x="555" unicode="&#281;" /><glyph d="M87 251V267H519V251ZM87 433V449H519V433Z" glyph-name="equal" horiz-adv-x="580" unicode="=" /><glyph d="M451 4Q534 4 608 42Q682 80 730 148L743 139Q692 68 615 28Q538 -12 451 -12Q302 -12 196.5 94Q91 200 91 350Q91 500 196.5 606Q302 712 451 712Q520 712 585 684.5Q650 657 701 607Q753 556 782 491Q811 426 811 359H134V215Q174 119 260.5 61.5Q347 4 451 4ZM451 696Q347 696 260.5 638.5Q174 581 134 485V374H768V484Q726 579 639 637.5Q552 696 451 696Z" glyph-name="estimated" horiz-adv-x="839" unicode="&#8494;" /><glyph d="M351 588 341 598 415 667Q404 680 389.5 693.5Q375 707 355 723L367 734Q385 719 399.5 704.5Q414 690 426 677L496 741L508 732L436 666Q494 596 520.5 526.5Q547 457 547 362Q547 191 473.5 89.5Q400 -12 275 -12Q182 -12 122 51Q62 114 62 212Q62 334 139 417.5Q216 501 323 501Q408 501 464.5 448Q521 395 531 310Q538 422 512 504Q486 586 425 656ZM322 486Q221 486 149.5 407Q78 328 78 212Q78 120 134.5 61.5Q191 3 279 3Q379 3 449.5 83Q520 163 520 281Q520 371 464.5 428.5Q409 486 322 486Z" glyph-name="eth" horiz-adv-x="619" unicode="&#240;" /><glyph d="M106 154 202 700H218L122 154ZM74 10Q74 1 81 -6Q88 -13 97 -13Q107 -13 113.5 -6Q120 1 120 10Q120 20 113.5 26.5Q107 33 97 33Q88 33 81 26.5Q74 20 74 10Z" glyph-name="exclam" horiz-adv-x="261" unicode="!" /><glyph d="M141 334 45 -212H29L125 334ZM173 478Q173 487 166 494Q159 501 150 501Q140 501 133.5 494Q127 487 127 478Q127 468 133.5 461.5Q140 455 150 455Q159 455 166 461.5Q173 468 173 478Z" glyph-name="exclamdown" horiz-adv-x="233" unicode="&#161;" /><glyph d="M70 474 72 489H165L184 595Q198 671 234 706.5Q270 742 332 742Q345 742 364 738.5Q383 735 396 729L390 715Q374 721 358 724Q342 727 328 727Q275 727 243.5 695Q212 663 200 595L181 489H347L345 474H179L96 0H80L163 474Z" glyph-name="f" horiz-adv-x="324" unicode="f" /><glyph d="M70 474 72 489H165L184 595Q198 671 234 706.5Q270 742 332 742Q345 742 364 738.5Q383 735 396 729L390 715Q374 721 358 724Q342 727 328 727Q275 727 243.5 695Q212 663 200 595L181 489H347L345 474H179L96 0H80L163 474ZM394 474 396 489H489L508 595Q522 671 558 706.5Q594 742 656 742Q669 742 688 738.5Q707 735 720 729L714 715Q698 721 682 724Q666 727 652 727Q599 727 567.5 695Q536 663 524 595L505 489H671L669 474H503L420 0H404L487 474Z" glyph-name="f_f" horiz-adv-x="648" unicode="&#64256;" /><glyph d="M70 474 72 489H165L184 595Q198 671 234 706.5Q270 742 332 742Q345 742 364 738.5Q383 735 396 729L390 715Q374 721 358 724Q342 727 328 727Q275 727 243.5 695Q212 663 200 595L181 489H347L345 474H179L96 0H80L163 474ZM394 474 396 489H489L508 595Q522 671 558 706.5Q594 742 656 742Q669 742 688 738.5Q707 735 720 729L714 715Q698 721 682 724Q666 727 652 727Q599 727 567.5 695Q536 663 524 595L505 489H671L669 474H503L420 0H404L487 474ZM719 0 802 489H818L735 0ZM865 691Q865 700 859 706Q853 712 844 712Q835 712 829 706Q823 700 823 691Q823 682 829 676Q835 670 844 670Q853 670 859 676Q865 682 865 691ZM706 0Z" glyph-name="f_f_i" horiz-adv-x="888" unicode="&#64259;" /><glyph d="M70 474 72 489H165L184 595Q198 671 234 706.5Q270 742 332 742Q345 742 364 738.5Q383 735 396 729L390 715Q374 721 358 724Q342 727 328 727Q275 727 243.5 695Q212 663 200 595L181 489H347L345 474H179L96 0H80L163 474ZM394 474 396 489H489L508 595Q522 671 558 706.5Q594 742 656 742Q669 742 688 738.5Q707 735 720 729L714 715Q698 721 682 724Q666 727 652 727Q599 727 567.5 695Q536 663 524 595L505 489H671L669 474H503L420 0H404L487 474ZM717 0 847 730H863L733 0ZM855 730ZM928 700ZM831 350ZM725 0Z" glyph-name="f_f_l" horiz-adv-x="888" unicode="&#64260;" /><glyph d="M70 474 72 489H165L184 595Q198 671 234 706.5Q270 742 332 742Q345 742 364 738.5Q383 735 396 729L390 715Q374 721 358 724Q342 727 328 727Q275 727 243.5 695Q212 663 200 595L181 489H347L345 474H179L96 0H80L163 474ZM395 0 478 489H494L411 0ZM541 691Q541 700 535 706Q529 712 520 712Q511 712 505 706Q499 700 499 691Q499 682 505 676Q511 670 520 670Q529 670 535 676Q541 682 541 691ZM382 0Z" glyph-name="fi" horiz-adv-x="564" unicode="&#64257;" /><glyph d="M307 426Q394 426 447.5 378Q501 330 501 252Q501 134 435 61Q369 -12 258 -12Q165 -12 104.5 35Q44 82 38 150L53 152Q59 90 115 46.5Q171 3 258 3Q361 3 423 71Q485 139 485 249Q485 320 436 365.5Q387 411 308 411Q254 411 205 391Q156 371 115 331L103 339L231 700H537L533 685H241L125 358Q168 393 212.5 409.5Q257 426 307 426Z" glyph-name="five" horiz-adv-x="566" unicode="5" /><glyph d="M141 213Q187 213 213.5 189Q240 165 240 125Q240 67 207.5 30.5Q175 -6 120 -6Q73 -6 43 16.5Q13 39 9 74L23 77Q26 47 53 27Q80 7 121 7Q168 7 197 39.5Q226 72 226 124Q226 159 202.5 179.5Q179 200 138 200Q112 200 90 192Q68 184 53 169L40 176L95 350H254L250 337H105L59 189Q76 200 97.5 206.5Q119 213 141 213Z" glyph-name="five.denominator" horiz-adv-x="304" unicode="&#63066;" /><glyph d="M116 73Q162 73 188.5 49Q215 25 215 -15Q215 -73 182.5 -109.5Q150 -146 95 -146Q48 -146 18 -123.5Q-12 -101 -16 -66L-2 -63Q1 -93 28 -113Q55 -133 96 -133Q143 -133 172 -100.5Q201 -68 201 -16Q201 19 177.5 39.5Q154 60 113 60Q87 60 65 52Q43 44 28 29L15 36L70 210H229L225 197H80L34 49Q51 60 72.5 66.5Q94 73 116 73Z" glyph-name="five.inferior" horiz-adv-x="304" unicode="&#8325;" /><glyph d="M204 563Q250 563 276.5 539Q303 515 303 475Q303 417 270.5 380.5Q238 344 183 344Q136 344 106 366.5Q76 389 72 424L86 427Q89 397 116 377Q143 357 184 357Q231 357 260 389.5Q289 422 289 474Q289 509 265.5 529.5Q242 550 201 550Q175 550 153 542Q131 534 116 519L103 526L158 700H317L313 687H168L122 539Q139 550 160.5 556.5Q182 563 204 563Z" glyph-name="five.numerator" horiz-adv-x="304" unicode="&#63078;" /><glyph d="M228 703Q274 703 300.5 679Q327 655 327 615Q327 557 294.5 520.5Q262 484 207 484Q160 484 130 506.5Q100 529 96 564L110 567Q113 537 140 517Q167 497 208 497Q255 497 284 529.5Q313 562 313 614Q313 649 289.5 669.5Q266 690 225 690Q199 690 177 682Q155 674 140 659L127 666L182 840H341L337 827H192L146 679Q163 690 184.5 696.5Q206 703 228 703Z" glyph-name="five.superior" horiz-adv-x="304" unicode="&#8309;" /><glyph d="M305 426Q392 426 445.5 378Q499 330 499 252Q499 134 433 61Q367 -12 256 -12Q163 -12 102.5 35Q42 82 36 150L51 152Q57 90 113 46.5Q169 3 256 3Q359 3 421 71Q483 139 483 249Q483 320 434 365.5Q385 411 306 411Q252 411 203 391Q154 371 113 331L101 339L229 700H535L531 685H239L123 358Q166 393 210.5 409.5Q255 426 305 426Z" glyph-name="five.tab" horiz-adv-x="560" unicode="&#65301;" /><glyph d="M70 474 72 489H165L184 595Q198 671 234 706.5Q270 742 332 742Q345 742 364 738.5Q383 735 396 729L390 715Q374 721 358 724Q342 727 328 727Q275 727 243.5 695Q212 663 200 595L181 489H347L345 474H179L96 0H80L163 474ZM393 0 523 730H539L409 0ZM531 730ZM604 700ZM507 350ZM401 0Z" glyph-name="fl" horiz-adv-x="564" unicode="&#64258;" /><glyph d="M232 434 142 -83Q129 -159 92.5 -194.5Q56 -230 -6 -230Q-19 -230 -38 -226.5Q-57 -223 -70 -217L-64 -203Q-48 -209 -32 -212Q-16 -215 -2 -215Q51 -215 82.5 -182.5Q114 -150 126 -83L216 434H75L76 449H219L244 595Q257 671 293 706.5Q329 742 392 742Q405 742 424 738.5Q443 735 456 729L450 715Q434 721 418 724Q402 727 388 727Q335 727 303 694.5Q271 662 260 595L235 449H377L376 434Z" glyph-name="florin" horiz-adv-x="391" /><glyph d="M405 207 442 415 459 421 421 207H540L538 192H419L385 0H369L403 192H25L27 207L472 700H493L47 207Z" glyph-name="four" horiz-adv-x="583" unicode="4" /><glyph d="M197 110 214 208 229 214 212 110H272L270 97H209L193 0H178L195 97H3L5 112L225 350H243L22 110Z" glyph-name="four.denominator" horiz-adv-x="324" unicode="&#63065;" /><glyph d="M172 -30 189 68 204 74 187 -30H247L245 -43H184L168 -140H153L170 -43H-22L-20 -28L200 210H218L-3 -30Z" glyph-name="four.inferior" horiz-adv-x="324" unicode="&#8324;" /><glyph d="M258 460 275 558 290 564 273 460H333L331 447H270L254 350H239L256 447H64L66 462L286 700H304L83 460Z" glyph-name="four.numerator" horiz-adv-x="324" unicode="&#63077;" /><glyph d="M283 600 300 698 315 704 298 600H358L356 587H295L279 490H264L281 587H89L91 602L311 840H329L108 600Z" glyph-name="four.superior" horiz-adv-x="324" unicode="&#8308;" /><glyph d="M393 207 430 415 447 421 409 207H528L526 192H407L373 0H357L391 192H13L15 207L460 700H481L35 207Z" glyph-name="four.tab" horiz-adv-x="560" unicode="&#65300;" /><glyph d="M-97 0H-114L293 700H310Z" glyph-name="fraction" horiz-adv-x="160" unicode="&#8260;" /><glyph d="M86 0 210 700H659L655 685H222L167 373H571L569 358H164L101 0ZM630 0 714 489H729L708 358Q735 423 778 458.5Q821 494 872 494Q884 494 892 493Q900 492 908 490L906 475Q897 477 890.5 478Q884 479 870 479Q805 479 756.5 416Q708 353 689 246L646 0Z" glyph-name="franc" horiz-adv-x="904" unicode="&#8355;" /><glyph d="M257 -12Q170 -12 119 46Q68 104 68 198Q68 328 136 414.5Q204 501 306 501Q385 501 435.5 453Q486 405 497 322L526 489H542L451 -30Q434 -128 377 -179Q320 -230 226 -230Q161 -230 105.5 -202Q50 -174 18 -128L30 -118Q66 -165 116.5 -190Q167 -215 227 -215Q315 -215 368 -167Q421 -119 436 -30L462 128Q428 62 374.5 25Q321 -12 257 -12ZM84 202Q84 111 130.5 57Q177 3 257 3Q353 3 419.5 88Q486 173 486 282Q486 374 437 430Q388 486 303 486Q211 486 147.5 403.5Q84 321 84 202ZM314 489Z" glyph-name="g" horiz-adv-x="611" unicode="g" /><glyph d="M257 -12Q170 -12 119 46Q68 104 68 198Q68 328 136 414.5Q204 501 306 501Q385 501 435.5 453Q486 405 497 322L526 489H542L451 -30Q434 -128 377 -179Q320 -230 226 -230Q161 -230 105.5 -202Q50 -174 18 -128L30 -118Q66 -165 116.5 -190Q167 -215 227 -215Q315 -215 368 -167Q421 -119 436 -30L462 128Q428 62 374.5 25Q321 -12 257 -12ZM84 202Q84 111 130.5 57Q177 3 257 3Q353 3 419.5 88Q486 173 486 282Q486 374 437 430Q388 486 303 486Q211 486 147.5 403.5Q84 321 84 202ZM314 489ZM324 600Q369 600 397 630.5Q425 661 436 721H451Q439 651 408 618Q377 585 324 585Q268 585 239.5 621.5Q211 658 217 721H232Q226 668 251 634Q276 600 324 600ZM314 489Z" glyph-name="gbreve" horiz-adv-x="611" unicode="&#287;" /><glyph d="M257 -12Q170 -12 119 46Q68 104 68 198Q68 328 136 414.5Q204 501 306 501Q385 501 435.5 453Q486 405 497 322L526 489H542L451 -30Q434 -128 377 -179Q320 -230 226 -230Q161 -230 105.5 -202Q50 -174 18 -128L30 -118Q66 -165 116.5 -190Q167 -215 227 -215Q315 -215 368 -167Q421 -119 436 -30L462 128Q428 62 374.5 25Q321 -12 257 -12ZM84 202Q84 111 130.5 57Q177 3 257 3Q353 3 419.5 88Q486 173 486 282Q486 374 437 430Q388 486 303 486Q211 486 147.5 403.5Q84 321 84 202ZM314 489ZM241 587 328 721H343L406 587H388L333 702L258 587ZM314 489Z" glyph-name="gcircumflex" horiz-adv-x="611" unicode="&#285;" /><glyph d="M257 -12Q170 -12 119 46Q68 104 68 198Q68 328 136 414.5Q204 501 306 501Q385 501 435.5 453Q486 405 497 322L526 489H542L451 -30Q434 -128 377 -179Q320 -230 226 -230Q161 -230 105.5 -202Q50 -174 18 -128L30 -118Q66 -165 116.5 -190Q167 -215 227 -215Q315 -215 368 -167Q421 -119 436 -30L462 128Q428 62 374.5 25Q321 -12 257 -12ZM84 202Q84 111 130.5 57Q177 3 257 3Q353 3 419.5 88Q486 173 486 282Q486 374 437 430Q388 486 303 486Q211 486 147.5 403.5Q84 321 84 202ZM314 489ZM307 654Q307 643 315 635Q323 627 334 627Q345 627 353 635Q361 643 361 654Q361 665 353 673.5Q345 682 334 682Q323 682 315 673.5Q307 665 307 654ZM314 489Z" glyph-name="gdotaccent" horiz-adv-x="611" unicode="&#289;" /><glyph d="M85 0H69L164 543Q181 638 236.5 690Q292 742 380 742Q458 742 503.5 698.5Q549 655 549 584Q549 512 498 453Q447 394 369 386Q432 377 471.5 328.5Q511 280 511 218Q511 128 448 64Q385 0 297 0H227L230 15H297Q379 15 437 75Q495 135 495 219Q495 288 447.5 333.5Q400 379 324 379H293L296 394H327Q416 394 474.5 448.5Q533 503 533 582Q533 649 491.5 688Q450 727 378 727Q298 727 246.5 678.5Q195 630 180 542Z" glyph-name="germandbls" horiz-adv-x="581" unicode="&#223;" /><glyph d="M250 587 176 721H157L232 587ZM245 489Z" glyph-name="grave" horiz-adv-x="380" unicode="`" /><glyph d="M250 787 176 921H157L232 787ZM244 700Z" glyph-name="grave.case" horiz-adv-x="380" /><glyph d="M565 380V365L115 176V193L543 372L115 552V569Z" glyph-name="greater" horiz-adv-x="580" unicode="&gt;" /><glyph d="M518 330V345L68 534V517L496 338L68 158V141ZM518 0V15H68V0Z" glyph-name="greaterequal" horiz-adv-x="580" unicode="&#8805;" /><glyph d="M54 253 292 426 288 404 68 244 233 84 229 66 51 238ZM253 253 491 426 487 404 267 244 432 84 428 66 250 238Z" glyph-name="guillemotleft" horiz-adv-x="538" /><glyph d="M484 239 246 66 250 88 470 248 305 408 309 426 487 254ZM285 239 47 66 51 88 271 248 106 408 110 426 288 254Z" glyph-name="guillemotright" horiz-adv-x="537" /><glyph d="M57 253 295 426 291 404 71 244 236 84 232 66 54 238Z" glyph-name="guilsinglleft" horiz-adv-x="344" unicode="&#8249;" /><glyph d="M287 239 49 66 53 88 273 248 108 408 112 426 290 254Z" glyph-name="guilsinglright" horiz-adv-x="343" unicode="&#8250;" /><glyph d="M515 292 464 0H447L499 294Q514 381 468.5 433.5Q423 486 333 486Q257 486 204.5 433Q152 380 136 289L84 0H68L199 730H215L153 385Q183 442 229 471.5Q275 501 334 501Q428 501 479.5 443Q531 385 515 292ZM207 730Z" glyph-name="h" horiz-adv-x="608" unicode="h" /><glyph d="M515 292 464 0H447L499 294Q514 381 468 433.5Q422 486 333 486Q257 486 205 433Q153 380 136 289L84 0H68L179 617H77L81 632H181L199 730H215L197 632H378L374 617H195L153 385Q183 442 229 471.5Q275 501 334 501Q429 501 480 443Q531 385 515 292Z" glyph-name="hbar" horiz-adv-x="608" unicode="&#295;" /><glyph d="M515 292 464 0H447L499 294Q514 381 468.5 433.5Q423 486 333 486Q257 486 204.5 433Q152 380 136 289L84 0H68L199 730H215L153 385Q183 442 229 471.5Q275 501 334 501Q428 501 479.5 443Q531 385 515 292ZM207 730ZM134 828 221 962H236L299 828H281L226 943L151 828ZM207 730Z" glyph-name="hcircumflex" horiz-adv-x="608" unicode="&#293;" /><glyph d="M200 721H181L73 587H91ZM278 721H259L151 587H169ZM126 489Z" glyph-name="hungarumlaut" horiz-adv-x="360" unicode="&#733;" /><glyph d="M200 921H181L73 787H91ZM278 921H259L151 787H169ZM115 700Z" glyph-name="hungarumlaut.case" horiz-adv-x="360" /><glyph d="M90 258 92 273H348L346 258Z" glyph-name="hyphen" horiz-adv-x="431" unicode="-" /><glyph d="M71 0 154 489H170L87 0ZM217 691Q217 700 211 706Q205 712 196 712Q187 712 181 706Q175 700 175 691Q175 682 181 676Q187 670 196 670Q205 670 211 676Q217 682 217 691ZM58 0Z" glyph-name="i" horiz-adv-x="240" unicode="i" /><glyph d="M71 0 154 489H170L87 0ZM162 489ZM288 721H269L171 587H189ZM162 489Z" glyph-name="iacute" horiz-adv-x="240" unicode="&#237;" /><glyph d="M71 0 154 489H170L87 0ZM162 489ZM89 587 176 721H191L254 587H236L181 702L106 587ZM162 489Z" glyph-name="icircumflex" horiz-adv-x="240" unicode="&#238;" /><glyph d="M71 0 154 489H170L87 0ZM162 489ZM101 654Q101 645 107 639Q113 633 122 633Q131 633 137 639Q143 645 143 654Q143 663 137 669Q131 675 122 675Q113 675 107 669Q101 663 101 654ZM213 654Q213 645 219 639Q225 633 234 633Q243 633 249 639Q255 645 255 654Q255 663 249 669Q243 675 234 675Q225 675 219 669Q213 663 213 654ZM162 489Z" glyph-name="idieresis" horiz-adv-x="240" unicode="&#239;" /><glyph d="M71 0 154 489H170L87 0ZM162 489ZM167 587 93 721H74L149 587ZM162 489Z" glyph-name="igrave" horiz-adv-x="240" unicode="&#236;" /><glyph d="M71 0 154 489H170L87 0ZM217 691Q217 700 211 706Q205 712 196 712Q187 712 181 706Q175 700 175 691Q175 682 181 676Q187 670 196 670Q205 670 211 676Q217 682 217 691ZM58 0ZM462 691Q462 700 456 706Q450 712 441 712Q432 712 426 706Q420 700 420 691Q420 682 426 676Q432 670 441 670Q450 670 456 676Q462 682 462 691ZM399 489H415L314 -91Q302 -162 265 -196Q228 -230 165 -230Q150 -230 136 -227.5Q122 -225 109 -220L116 -206Q127 -211 138.5 -213Q150 -215 166 -215Q221 -215 254 -183.5Q287 -152 298 -91Z" glyph-name="ij" horiz-adv-x="484" unicode="&#307;" /><glyph d="M71 0 154 489H170L87 0ZM162 489ZM302 646H56L58 661H304ZM162 489Z" glyph-name="imacron" horiz-adv-x="240" unicode="&#299;" /><glyph d="M606 410Q663 410 699.5 368.5Q736 327 736 260Q736 193 699.5 151.5Q663 110 606 110Q577 110 549.5 122Q522 134 492 160Q480 170 466 184.5Q452 199 405 252Q359 197 346 183Q333 169 322 158Q295 132 269 121Q243 110 212 110Q154 110 118 151.5Q82 193 82 260Q82 327 118 368.5Q154 410 212 410Q257 410 295.5 386Q334 362 405 277Q479 362 518.5 386Q558 410 606 410ZM720 260Q720 320 688.5 357.5Q657 395 606 395Q575 395 549 385Q523 375 497 352Q483 341 467.5 324.5Q452 308 415 264Q487 179 527.5 152Q568 125 606 125Q657 125 688.5 162.5Q720 200 720 260ZM212 395Q161 395 129.5 358Q98 321 98 260Q98 199 129.5 162Q161 125 212 125Q242 125 266.5 136Q291 147 317 173Q325 181 344.5 204Q364 227 395 265Q323 351 288 373Q253 395 212 395Z" glyph-name="infinity" horiz-adv-x="813" unicode="&#8734;" /><glyph d="M161 603V-91Q161 -159 129.5 -194.5Q98 -230 36 -230Q19 -230 2.5 -226.5Q-14 -223 -29 -217L-24 -203Q-11 -209 4 -212Q19 -215 36 -215Q90 -215 117.5 -184Q145 -153 145 -91V603Q145 671 176.5 706.5Q208 742 270 742Q287 742 303.5 738.5Q320 735 335 729L330 715Q317 721 302 724Q287 727 270 727Q216 727 188.5 696Q161 665 161 603Z" glyph-name="integral" horiz-adv-x="301" unicode="&#8747;" /><glyph d="M175 691Q175 700 181 706Q187 712 196 712Q205 712 211 706Q217 700 217 691Q217 682 211 676Q205 670 196 670Q187 670 181 676Q175 682 175 691ZM154 489H170L87 0Q16 -27 -22.5 -63.5Q-61 -100 -61 -142Q-61 -169 -41.5 -184.5Q-22 -200 9 -200Q19 -200 29.5 -198Q40 -196 49 -192L47 -208Q39 -212 30 -213.5Q21 -215 10 -215Q-31 -215 -54 -195.5Q-77 -176 -77 -142Q-77 -98 -36.5 -57Q4 -16 72 8Z" glyph-name="iogonek" horiz-adv-x="240" unicode="&#303;" /><glyph d="M71 0 154 489H170L87 0ZM162 489ZM182 646Q203 624 216 617Q229 610 245 610Q272 610 289.5 628.5Q307 647 310 679H294Q293 654 279.5 639.5Q266 625 245 625Q233 625 222 631Q211 637 191 658Q167 682 151.5 690Q136 698 118 698Q91 698 74 679Q57 660 50 624H66Q71 652 84 667.5Q97 683 117 683Q133 683 147 676Q161 669 182 646ZM162 489Z" glyph-name="itilde" horiz-adv-x="240" unicode="&#297;" /><glyph d="M222 691Q222 700 216 706Q210 712 201 712Q192 712 186 706Q180 700 180 691Q180 682 186 676Q192 670 201 670Q210 670 216 676Q222 682 222 691ZM159 489H175L74 -91Q62 -162 25 -196Q-12 -230 -75 -230Q-90 -230 -104 -227.5Q-118 -225 -131 -220L-124 -206Q-113 -211 -101.5 -213Q-90 -215 -74 -215Q-19 -215 14 -183.5Q47 -152 58 -91Z" glyph-name="j" horiz-adv-x="244" unicode="j" /><glyph d="M58 -91 159 489H175L74 -91Q62 -162 25 -196Q-12 -230 -75 -230Q-90 -230 -104 -227.5Q-118 -225 -131 -220L-124 -206Q-113 -211 -101.5 -213Q-90 -215 -74 -215Q-19 -215 14 -183.5Q47 -152 58 -91ZM167 489ZM95 587 182 721H197L260 587H242L187 702L112 587ZM168 489Z" glyph-name="jcircumflex" horiz-adv-x="244" unicode="&#309;" /><glyph d="M289 309 464 0H446L276 300L116 179L85 0H69L197 730H213L120 201L502 489H526ZM266 0Z" glyph-name="k" horiz-adv-x="529" unicode="k" /><glyph d="M69 0 155 489H171L120 201L502 489H526L289 309L464 0H446L276 300L116 179L85 0Z" glyph-name="kgreenlandic" horiz-adv-x="530" /><glyph d="M69 0 199 730H215L85 0ZM207 730ZM280 700ZM183 350ZM77 0Z" glyph-name="l" horiz-adv-x="240" unicode="l" /><glyph d="M69 0 199 730H215L85 0ZM207 730ZM280 700ZM183 350ZM77 0ZM333 962H314L216 828H234ZM207 730Z" glyph-name="lacute" horiz-adv-x="240" unicode="&#314;" /><glyph d="M69 0 199 730H215L85 0ZM207 730ZM280 700ZM183 350ZM77 0ZM376 730H358L304 616H317ZM280 700Z" glyph-name="lcaron" horiz-adv-x="280" unicode="&#318;" /><glyph d="M69 0 199 730H215L85 0ZM207 730ZM280 700ZM183 350ZM77 0ZM237 348Q237 339 243.5 332.5Q250 326 259 326Q268 326 274.5 332.5Q281 339 281 348Q281 357 274.5 363.5Q268 370 259 370Q250 370 243.5 363.5Q237 357 237 348ZM236 367Z" glyph-name="ldot" horiz-adv-x="230" unicode="&#320;" /><glyph d="M59 365V380L509 569V552L81 373L509 193V176Z" glyph-name="less" horiz-adv-x="580" unicode="&lt;" /><glyph d="M59 330V345L509 534V517L81 338L509 158V141ZM59 0V15H509V0Z" glyph-name="lessequal" horiz-adv-x="580" unicode="&#8804;" /><glyph d="M69 0 199 730H215L85 0ZM207 730ZM280 700ZM183 350ZM77 0ZM309 0 439 730H455L325 0ZM447 730ZM520 700ZM423 350ZM317 0ZM237 348Q237 339 243.5 332.5Q250 326 259 326Q268 326 274.5 332.5Q281 339 281 348Q281 357 274.5 363.5Q268 370 259 370Q250 370 243.5 363.5Q237 357 237 348ZM236 367Z" glyph-name="lgeminada" horiz-adv-x="480" /><glyph d="M504 134H488V353H72V368H504Z" glyph-name="logicalnot" horiz-adv-x="580" unicode="&#172;" /><glyph d="M70 474 72 489H165L184 595Q198 671 234 706.5Q270 742 332 742Q345 742 364 738.5Q383 735 396 729L390 715Q374 721 358 724Q342 727 328 727Q275 727 243.5 694.5Q212 662 200 595L96 0H80L163 474Z" glyph-name="longs" horiz-adv-x="271" unicode="&#383;" /><glyph d="M70 474 72 489H165L184 595Q198 671 234 706.5Q270 742 332 742Q345 742 364 738.5Q383 735 396 729L390 715Q374 721 358 724Q342 727 328 727Q275 727 243.5 694.5Q212 662 200 595L96 0H80L163 474ZM428 474H339L341 489H431L467 694L485 700L448 489H618L616 474H445L382 117Q373 63 396.5 33Q420 3 473 3Q494 3 515 10Q536 17 557 30L563 16Q541 2 517.5 -5Q494 -12 472 -12Q412 -12 384 22.5Q356 57 366 117ZM453 10ZM366 0ZM556 700Z" glyph-name="longs_t" horiz-adv-x="614" unicode="&#64261;" /><glyph d="M252 0 72 350 252 700H274L454 350L274 0ZM263 688 90 350 263 12 436 350Z" glyph-name="lozenge" horiz-adv-x="489" unicode="&#9674;" /><glyph d="M55 315 48 328 177 397 236 730H252L194 406L327 477L333 463L191 387L122 0H106L173 378Z" glyph-name="lslash" horiz-adv-x="317" unicode="&#322;" /><glyph d="M481 287 431 0H414L466 294Q481 376 440.5 431Q400 486 322 486Q251 486 201.5 433Q152 380 136 290L86 0H70L154 489H169L152 386Q180 442 224 471.5Q268 501 323 501Q391 501 434.5 462Q478 423 485 357Q511 425 559 463Q607 501 669 501Q755 501 799.5 442Q844 383 828 293L777 0H760L812 294Q827 376 786.5 431Q746 486 668 486Q596 486 546.5 432.5Q497 379 481 287Z" glyph-name="m" horiz-adv-x="921" unicode="m" /><glyph d="M316 646H70L72 661H318ZM176 489Z" glyph-name="macron" horiz-adv-x="385" unicode="&#175;" /><glyph d="M316 846H70L72 861H318ZM187 700Z" glyph-name="macron.case" horiz-adv-x="385" /><glyph d="M90 343V359H522V343Z" glyph-name="minus" horiz-adv-x="580" unicode="&#8722;" /><glyph d="M539 489 455 0H440L458 104Q428 48 380 18Q332 -12 270 -12Q204 -12 160 21Q116 54 104 112L72 -78L47 -218H31L155 489H171L120 196Q105 111 147 57Q189 3 271 3Q351 3 404 56Q457 109 473 200L523 489Z" glyph-name="mu" horiz-adv-x="609" unicode="&#181;" /><glyph d="M125 164 114 175 289 350 114 525 125 536 301 361 476 536 487 525 312 350 487 175 476 164 301 339Z" glyph-name="multiply" horiz-adv-x="580" unicode="&#215;" /><glyph d="M515 292 464 0H447L499 294Q514 381 468.5 433.5Q423 486 333 486Q257 486 205 434Q153 382 137 292L84 0H68L156 489H171L153 384Q182 441 228.5 471Q275 501 334 501Q428 501 479.5 443Q531 385 515 292ZM155 589ZM337 489ZM266 0Z" glyph-name="n" horiz-adv-x="608" unicode="n" /><glyph d="M515 292 464 0H447L499 294Q514 381 468.5 433.5Q423 486 333 486Q257 486 205 434Q153 382 137 292L84 0H68L156 489H171L153 384Q182 441 228.5 471Q275 501 334 501Q428 501 479.5 443Q531 385 515 292ZM155 589ZM337 489ZM266 0ZM463 721H444L346 587H364ZM337 489Z" glyph-name="nacute" horiz-adv-x="608" unicode="&#324;" /><glyph d="M515 292 464 0H447L499 294Q514 381 468.5 433.5Q423 486 333 486Q257 486 205 434Q153 382 137 292L84 0H68L156 489H171L153 384Q182 441 228.5 471Q275 501 334 501Q428 501 479.5 443Q531 385 515 292ZM155 589ZM337 489ZM266 0ZM187 724H169L105 589H118ZM192 800ZM155 589Z" glyph-name="napostrophe" horiz-adv-x="608" unicode="&#329;" /><glyph d="M515 292 464 0H447L499 294Q514 381 468.5 433.5Q423 486 333 486Q257 486 205 434Q153 382 137 292L84 0H68L156 489H171L153 384Q182 441 228.5 471Q275 501 334 501Q428 501 479.5 443Q531 385 515 292ZM155 589ZM337 489ZM266 0ZM354 587H339L276 721H294L349 606L424 721H441ZM337 489Z" glyph-name="ncaron" horiz-adv-x="608" unicode="&#328;" /><glyph d="M282 291Q196 291 143.5 339Q91 387 91 467Q91 568 158 640Q225 712 323 712Q411 712 464.5 658.5Q518 605 518 518Q518 459 491 400.5Q464 342 398 262L182 0H162L388 274Q409 300 421 316Q433 332 443 348Q412 320 371 305.5Q330 291 282 291ZM287 306Q381 306 441.5 365Q502 424 502 518Q502 598 453 647.5Q404 697 323 697Q234 697 170.5 630Q107 563 107 466Q107 394 156 350Q205 306 287 306Z" glyph-name="nine" horiz-adv-x="539" unicode="9" /><glyph d="M128 145Q86 145 60.5 169Q35 193 35 234Q35 283 68 319.5Q101 356 149 356Q194 356 220.5 330Q247 304 247 261Q247 231 233.5 201.5Q220 172 187 130L83 0H67L200 168Q185 156 167 150.5Q149 145 128 145ZM49 236Q49 200 70.5 179Q92 158 130 158Q176 158 204.5 186Q233 214 233 259Q233 297 210.5 320Q188 343 149 343Q109 343 79 311.5Q49 280 49 236Z" glyph-name="nine.denominator" horiz-adv-x="290" unicode="&#63070;" /><glyph d="M103 5Q61 5 35.5 29Q10 53 10 94Q10 143 43 179.5Q76 216 124 216Q169 216 195.5 190Q222 164 222 121Q222 91 208.5 61.5Q195 32 162 -10L58 -140H42L175 28Q160 16 142 10.5Q124 5 103 5ZM24 96Q24 60 45.5 39Q67 18 105 18Q151 18 179.5 46Q208 74 208 119Q208 157 185.5 180Q163 203 124 203Q84 203 54 171.5Q24 140 24 96Z" glyph-name="nine.inferior" horiz-adv-x="290" unicode="&#8329;" /><glyph d="M190 495Q148 495 122.5 519Q97 543 97 584Q97 633 130 669.5Q163 706 211 706Q256 706 282.5 680Q309 654 309 611Q309 581 295.5 551.5Q282 522 249 480L145 350H129L262 518Q247 506 229 500.5Q211 495 190 495ZM111 586Q111 550 132.5 529Q154 508 192 508Q238 508 266.5 536Q295 564 295 609Q295 647 272.5 670Q250 693 211 693Q171 693 141 661.5Q111 630 111 586Z" glyph-name="nine.numerator" horiz-adv-x="290" unicode="&#63082;" /><glyph d="M215 635Q173 635 147.5 659Q122 683 122 724Q122 773 155 809.5Q188 846 236 846Q281 846 307.5 820Q334 794 334 751Q334 721 320.5 691.5Q307 662 274 620L170 490H154L287 658Q272 646 254 640.5Q236 635 215 635ZM136 726Q136 690 157.5 669Q179 648 217 648Q263 648 291.5 676Q320 704 320 749Q320 787 297.5 810Q275 833 236 833Q196 833 166 801.5Q136 770 136 726Z" glyph-name="nine.superior" horiz-adv-x="290" unicode="&#8313;" /><glyph d="M292 291Q206 291 153.5 339Q101 387 101 467Q101 568 168 640Q235 712 333 712Q421 712 474.5 658.5Q528 605 528 518Q528 459 501 400.5Q474 342 408 262L192 0H172L398 274Q419 300 431 316Q443 332 453 348Q422 320 381 305.5Q340 291 292 291ZM297 306Q391 306 451.5 365Q512 424 512 518Q512 598 463 647.5Q414 697 333 697Q244 697 180.5 630Q117 563 117 466Q117 394 166 350Q215 306 297 306Z" glyph-name="nine.tab" horiz-adv-x="560" unicode="&#65305;" /><glyph d="M182 171H163L219 251H88V267H230L347 433H88V449H358L415 530H434L377 449H520V433H366L249 267H520V251H238Z" glyph-name="notequal" horiz-adv-x="580" unicode="&#8800;" /><glyph d="M515 292 464 0H447L499 294Q514 381 468.5 433.5Q423 486 333 486Q257 486 205 434Q153 382 137 292L84 0H68L156 489H171L153 384Q182 441 228.5 471Q275 501 334 501Q428 501 479.5 443Q531 385 515 292ZM155 589ZM337 489ZM266 0ZM357 646Q378 624 391 617Q404 610 420 610Q447 610 464.5 628.5Q482 647 485 679H469Q468 654 454.5 639.5Q441 625 420 625Q408 625 397 631Q386 637 366 658Q342 682 326.5 690Q311 698 293 698Q266 698 249 679Q232 660 225 624H241Q246 652 259 667.5Q272 683 292 683Q308 683 322 676Q336 669 357 646ZM337 489Z" glyph-name="ntilde" horiz-adv-x="608" unicode="&#241;" /><glyph d="M216 218 177 0H161L200 218H58L62 233H202L240 446H98L102 461H243L285 700H301L259 461H485L527 700H543L501 461H642L638 446H498L460 233H602L598 218H458L419 0H403L442 218ZM256 446 218 233H444L482 446Z" glyph-name="numbersign" horiz-adv-x="666" unicode="#" /><glyph d="M324 501Q416 501 476.5 438Q537 375 537 279Q537 156 460 72Q383 -12 276 -12Q183 -12 122.5 51Q62 114 62 211Q62 334 139 417.5Q216 501 324 501ZM521 278Q521 368 465.5 427Q410 486 322 486Q222 486 150 407Q78 328 78 213Q78 120 133.5 61.5Q189 3 278 3Q378 3 449.5 82.5Q521 162 521 278ZM324 489Z" glyph-name="o" horiz-adv-x="599" unicode="o" /><glyph d="M324 501Q416 501 476.5 438Q537 375 537 279Q537 156 460 72Q383 -12 276 -12Q183 -12 122.5 51Q62 114 62 211Q62 334 139 417.5Q216 501 324 501ZM521 278Q521 368 465.5 427Q410 486 322 486Q222 486 150 407Q78 328 78 213Q78 120 133.5 61.5Q189 3 278 3Q378 3 449.5 82.5Q521 162 521 278ZM324 489ZM450 721H431L333 587H351ZM324 489Z" glyph-name="oacute" horiz-adv-x="599" unicode="&#243;" /><glyph d="M324 501Q416 501 476.5 438Q537 375 537 279Q537 156 460 72Q383 -12 276 -12Q183 -12 122.5 51Q62 114 62 211Q62 334 139 417.5Q216 501 324 501ZM521 278Q521 368 465.5 427Q410 486 322 486Q222 486 150 407Q78 328 78 213Q78 120 133.5 61.5Q189 3 278 3Q378 3 449.5 82.5Q521 162 521 278ZM324 489ZM334 600Q379 600 407 630.5Q435 661 446 721H461Q449 651 418 618Q387 585 334 585Q278 585 249.5 621.5Q221 658 227 721H242Q236 668 261 634Q286 600 334 600ZM324 489Z" glyph-name="obreve" horiz-adv-x="599" unicode="&#335;" /><glyph d="M324 501Q416 501 476.5 438Q537 375 537 279Q537 156 460 72Q383 -12 276 -12Q183 -12 122.5 51Q62 114 62 211Q62 334 139 417.5Q216 501 324 501ZM521 278Q521 368 465.5 427Q410 486 322 486Q222 486 150 407Q78 328 78 213Q78 120 133.5 61.5Q189 3 278 3Q378 3 449.5 82.5Q521 162 521 278ZM324 489ZM251 587 338 721H353L416 587H398L343 702L268 587ZM324 489Z" glyph-name="ocircumflex" horiz-adv-x="599" unicode="&#244;" /><glyph d="M324 501Q416 501 476.5 438Q537 375 537 279Q537 156 460 72Q383 -12 276 -12Q183 -12 122.5 51Q62 114 62 211Q62 334 139 417.5Q216 501 324 501ZM521 278Q521 368 465.5 427Q410 486 322 486Q222 486 150 407Q78 328 78 213Q78 120 133.5 61.5Q189 3 278 3Q378 3 449.5 82.5Q521 162 521 278ZM324 489ZM263 654Q263 645 269 639Q275 633 284 633Q293 633 299 639Q305 645 305 654Q305 663 299 669Q293 675 284 675Q275 675 269 669Q263 663 263 654ZM375 654Q375 645 381 639Q387 633 396 633Q405 633 411 639Q417 645 417 654Q417 663 411 669Q405 675 396 675Q387 675 381 669Q375 663 375 654ZM324 489Z" glyph-name="odieresis" horiz-adv-x="599" unicode="&#246;" /><glyph d="M726 -12Q639 -12 583 39.5Q527 91 519 177Q491 92 424 40Q357 -12 276 -12Q183 -12 122.5 51Q62 114 62 211Q62 334 139 417.5Q216 501 324 501Q407 501 465.5 447Q524 393 533 308Q560 395 624 448Q688 501 767 501Q850 501 902 447Q954 393 954 305Q954 291 952 274Q950 257 946 245H533Q532 228 531.5 219Q531 210 531 203Q531 113 585 58Q639 3 728 3Q781 3 828.5 30.5Q876 58 910 108L922 100Q886 47 835 17.5Q784 -12 726 -12ZM938 304Q938 386 891 436Q844 486 767 486Q683 486 617.5 422.5Q552 359 536 260H933Q936 271 937 281Q938 291 938 304ZM521 278Q521 368 465.5 427Q410 486 322 486Q222 486 150 407Q78 328 78 213Q78 120 133.5 61.5Q189 3 278 3Q378 3 449.5 82.5Q521 162 521 278Z" glyph-name="oe" horiz-adv-x="1009" unicode="&#339;" /><glyph d="M189 -215Q148 -215 125 -195.5Q102 -176 102 -142Q102 -96 145.5 -54Q189 -12 262 12L266 0Q195 -27 156.5 -63.5Q118 -100 118 -142Q118 -169 137.5 -184.5Q157 -200 188 -200Q198 -200 208.5 -198Q219 -196 228 -192L226 -208Q218 -212 209 -213.5Q200 -215 189 -215ZM241 0Z" glyph-name="ogonek" horiz-adv-x="382" unicode="&#731;" /><glyph d="M324 501Q416 501 476.5 438Q537 375 537 279Q537 156 460 72Q383 -12 276 -12Q183 -12 122.5 51Q62 114 62 211Q62 334 139 417.5Q216 501 324 501ZM521 278Q521 368 465.5 427Q410 486 322 486Q222 486 150 407Q78 328 78 213Q78 120 133.5 61.5Q189 3 278 3Q378 3 449.5 82.5Q521 162 521 278ZM324 489ZM329 587 255 721H236L311 587ZM324 489Z" glyph-name="ograve" horiz-adv-x="599" unicode="&#242;" /><glyph d="M324 501Q416 501 476.5 438Q537 375 537 279Q537 156 460 72Q383 -12 276 -12Q183 -12 122.5 51Q62 114 62 211Q62 334 139 417.5Q216 501 324 501ZM521 278Q521 368 465.5 427Q410 486 322 486Q222 486 150 407Q78 328 78 213Q78 120 133.5 61.5Q189 3 278 3Q378 3 449.5 82.5Q521 162 521 278ZM324 489ZM398 721H379L271 587H289ZM476 721H457L349 587H367ZM324 489Z" glyph-name="ohungarumlaut" horiz-adv-x="599" unicode="&#337;" /><glyph d="M324 501Q416 501 476.5 438Q537 375 537 279Q537 156 460 72Q383 -12 276 -12Q183 -12 122.5 51Q62 114 62 211Q62 334 139 417.5Q216 501 324 501ZM521 278Q521 368 465.5 427Q410 486 322 486Q222 486 150 407Q78 328 78 213Q78 120 133.5 61.5Q189 3 278 3Q378 3 449.5 82.5Q521 162 521 278ZM324 489ZM464 646H218L220 661H466ZM324 489Z" glyph-name="omacron" horiz-adv-x="599" unicode="&#333;" /><glyph d="M42 0 46 15H191L305 662Q268 611 220.5 588.5Q173 566 107 566L109 581Q179 581 226.5 607.5Q274 634 314 700H328L207 15H354L350 0Z" glyph-name="one" horiz-adv-x="408" unicode="1" /><glyph d="M186 0H170L287 662Q250 611 202.5 588.5Q155 566 89 566L91 581Q161 581 208.5 607.5Q256 634 296 700H310Z" glyph-name="one.alt" horiz-adv-x="354" /><glyph d="M10 0 12 13H91L145 322Q124 297 98 284.5Q72 272 39 272L43 285Q78 285 104.5 301Q131 317 150 350H163L105 13H183L181 0Z" glyph-name="one.denominator" horiz-adv-x="245" unicode="&#63062;" /><glyph d="M-16 -140 -14 -127H65L119 182Q98 157 72 144.5Q46 132 13 132L17 145Q52 145 78.5 161Q105 177 124 210H137L79 -127H157L155 -140Z" glyph-name="one.inferior" horiz-adv-x="245" unicode="&#8321;" /><glyph d="M71 350 73 363H152L206 672Q185 647 159 634.5Q133 622 100 622L104 635Q139 635 165.5 651Q192 667 211 700H224L166 363H244L242 350Z" glyph-name="one.numerator" horiz-adv-x="245" unicode="&#63074;" /><glyph d="M119 0 123 15H268L382 662Q345 611 297.5 588.5Q250 566 184 566L186 581Q256 581 303.5 607.5Q351 634 391 700H405L284 15H431L427 0Z" glyph-name="one.tab" horiz-adv-x="560" unicode="&#65297;" /><glyph d="M573 0H351L355 16L481 128Q486 133 511 154Q536 175 549 189Q566 208 574.5 228Q583 248 583 270Q583 302 561 322Q539 342 502 342Q466 342 438 320.5Q410 299 397 260L385 263Q400 307 431 331Q462 355 503 355Q546 355 571.5 331.5Q597 308 597 271Q597 247 587.5 225Q578 203 558 181Q544 165 516 141.5Q488 118 483 113L371 13H577ZM88 350 90 363H169L223 672Q202 647 176 634.5Q150 622 117 622L121 635Q156 635 182.5 651Q209 667 228 700H241L183 363H261L259 350ZM137 0H120L527 700H544Z" glyph-name="onehalf" horiz-adv-x="655" unicode="&#189;" /><glyph d="M503 110 520 208 535 214 518 110H578L576 97H515L499 0H484L501 97H309L311 112L531 350H549L328 110ZM88 350 90 363H169L223 672Q202 647 176 634.5Q150 622 117 622L121 635Q156 635 182.5 651Q209 667 228 700H241L183 363H261L259 350ZM137 0H120L527 700H544Z" glyph-name="onequarter" horiz-adv-x="639" unicode="&#188;" /><glyph d="M95 490 97 503H176L230 812Q209 787 183 774.5Q157 762 124 762L128 775Q163 775 189.5 791Q216 807 235 840H248L190 503H268L266 490Z" glyph-name="onesuperior" horiz-adv-x="245" unicode="&#185;" /><glyph d="M324 452H310L320 505Q302 477 277 461.5Q252 446 223 446Q178 446 152 475Q126 504 126 552Q126 618 161 662Q196 706 248 706Q284 706 308.5 686Q333 666 342 630L354 700H368ZM141 554Q141 512 163.5 486Q186 460 223 460Q269 460 301 501Q333 542 333 595Q333 639 309.5 665.5Q286 692 246 692Q202 692 171.5 652Q141 612 141 554Z" glyph-name="ordfeminine" horiz-adv-x="381" unicode="&#170;" /><glyph d="M140 560Q140 615 175 653.5Q210 692 257 692Q298 692 324.5 663.5Q351 635 351 593Q351 537 316.5 498.5Q282 460 234 460Q193 460 166.5 488Q140 516 140 560ZM233 446Q287 446 326.5 489Q366 532 366 594Q366 642 335 674Q304 706 258 706Q203 706 164 664Q125 622 125 559Q125 510 155.5 478Q186 446 233 446Z" glyph-name="ordmasculine" horiz-adv-x="379" unicode="&#186;" /><glyph d="M156 22 80 -88H63L145 31Q105 61 83.5 108Q62 155 62 211Q62 334 139 417.5Q216 501 324 501Q358 501 388.5 491.5Q419 482 445 464L519 571H536L456 456Q495 425 516 379Q537 333 537 279Q537 156 460 72Q383 -12 276 -12Q243 -12 212.5 -3.5Q182 5 156 22ZM322 486Q222 486 150 407Q78 328 78 213Q78 159 97.5 115Q117 71 154 43L436 452Q412 469 383 477.5Q354 486 322 486ZM278 3Q378 3 449.5 82.5Q521 162 521 278Q521 328 502 371.5Q483 415 448 443L165 35Q188 19 217 11Q246 3 278 3Z" glyph-name="oslash" horiz-adv-x="599" unicode="&#248;" /><glyph d="M324 501Q416 501 476.5 438Q537 375 537 279Q537 156 460 72Q383 -12 276 -12Q183 -12 122.5 51Q62 114 62 211Q62 334 139 417.5Q216 501 324 501ZM521 278Q521 368 465.5 427Q410 486 322 486Q222 486 150 407Q78 328 78 213Q78 120 133.5 61.5Q189 3 278 3Q378 3 449.5 82.5Q521 162 521 278ZM324 489ZM344 646Q365 624 378 617Q391 610 407 610Q434 610 451.5 628.5Q469 647 472 679H456Q455 654 441.5 639.5Q428 625 407 625Q395 625 384 631Q373 637 353 658Q329 682 313.5 690Q298 698 280 698Q253 698 236 679Q219 660 212 624H228Q233 652 246 667.5Q259 683 279 683Q295 683 309 676Q323 669 344 646ZM324 489Z" glyph-name="otilde" horiz-adv-x="599" unicode="&#245;" /><glyph d="M555 285Q555 156 485.5 72Q416 -12 310 -12Q229 -12 177.5 35Q126 82 114 163L47 -218H31L155 489H170L149 363Q183 428 238 464.5Q293 501 359 501Q449 501 502 442Q555 383 555 285ZM539 284Q539 377 490.5 431.5Q442 486 357 486Q259 486 192 402.5Q125 319 125 207Q125 116 175 59.5Q225 3 310 3Q410 3 474.5 82.5Q539 162 539 284Z" glyph-name="p" horiz-adv-x="618" unicode="p" /><glyph d="M320 700H547L387 -218H371L528 685H390L233 -218H217L303 276Q203 276 141.5 332.5Q80 389 80 474Q80 571 148 635.5Q216 700 320 700ZM97 475Q97 396 154 343.5Q211 291 301 291H306L374 685H314Q223 685 160 624Q97 563 97 475Z" glyph-name="paragraph" horiz-adv-x="597" unicode="&#182;" /><glyph d="M88 240Q88 149 124.5 67.5Q161 -14 239 -98L227 -109Q145 -21 108.5 61Q72 143 72 235Q72 386 145.5 508Q219 630 375 732L382 719Q235 621 161.5 501.5Q88 382 88 240Z" glyph-name="parenleft" horiz-adv-x="323" unicode="(" /><glyph d="M260 388Q260 479 223.5 560.5Q187 642 109 726L121 737Q203 649 239.5 567Q276 485 276 393Q276 242 202.5 120Q129 -2 -27 -104L-34 -91Q113 7 186.5 126.5Q260 246 260 388Z" glyph-name="parenright" horiz-adv-x="323" unicode=")" /><glyph d="M269 -12Q173 -12 115 41.5Q57 95 57 182Q57 284 126.5 356.5Q196 429 297 429Q386 429 441.5 387Q497 345 513 268Q522 312 527 362Q532 412 532 468Q532 579 481.5 638Q431 697 334 697Q292 697 250 683Q208 669 180 647L171 659Q201 683 245 697.5Q289 712 334 712Q439 712 493.5 650.5Q548 589 548 472Q548 381 535 304.5Q522 228 497 169Q460 82 399.5 35Q339 -12 269 -12ZM299 414Q205 414 139 348Q73 282 73 184Q73 103 126 53Q179 3 267 3Q346 3 410 64Q474 125 505 236Q496 321 442.5 367.5Q389 414 299 414Z" glyph-name="partialdiff" horiz-adv-x="611" unicode="&#8706;" /><glyph d="M597 224Q597 287 570.5 321Q544 355 494 355Q433 355 391.5 289.5Q350 224 350 126Q350 68 377.5 31Q405 -6 452 -6Q515 -6 556 59.5Q597 125 597 224ZM583 224Q583 133 546 70Q509 7 453 7Q411 7 387 39.5Q363 72 363 125Q363 216 400 279Q437 342 493 342Q537 342 560 311.5Q583 281 583 224ZM342 574Q342 637 315.5 671Q289 705 239 705Q178 705 136.5 639.5Q95 574 95 476Q95 418 122.5 381Q150 344 197 344Q260 344 301 409.5Q342 475 342 574ZM328 574Q328 483 291 420Q254 357 198 357Q156 357 132 389.5Q108 422 108 475Q108 566 145 629Q182 692 238 692Q282 692 305 661.5Q328 631 328 574ZM151 0H134L541 700H558Z" glyph-name="percent" horiz-adv-x="655" unicode="%" /><glyph d="M54 10Q54 1 60.5 -5.5Q67 -12 76 -12Q85 -12 91.5 -5.5Q98 1 98 10Q98 19 91.5 25.5Q85 32 76 32Q67 32 60.5 25.5Q54 19 54 10ZM53 29Z" glyph-name="period" horiz-adv-x="207" unicode="." /><glyph d="M99 307Q99 298 105.5 291.5Q112 285 121 285Q130 285 136.5 291.5Q143 298 143 307Q143 316 136.5 322.5Q130 329 121 329Q112 329 105.5 322.5Q99 316 99 307ZM98 326Z" glyph-name="periodcentered" horiz-adv-x="222" unicode="&#183;" /><glyph d="M597 224Q597 287 570.5 321Q544 355 494 355Q433 355 391.5 289.5Q350 224 350 126Q350 68 377.5 31Q405 -6 452 -6Q515 -6 556 59.5Q597 125 597 224ZM583 224Q583 133 546 70Q509 7 453 7Q411 7 387 39.5Q363 72 363 125Q363 216 400 279Q437 342 493 342Q537 342 560 311.5Q583 281 583 224ZM342 574Q342 637 315.5 671Q289 705 239 705Q178 705 136.5 639.5Q95 574 95 476Q95 418 122.5 381Q150 344 197 344Q260 344 301 409.5Q342 475 342 574ZM328 574Q328 483 291 420Q254 357 198 357Q156 357 132 389.5Q108 422 108 475Q108 566 145 629Q182 692 238 692Q282 692 305 661.5Q328 631 328 574ZM887 224Q887 287 860.5 321Q834 355 784 355Q723 355 681.5 289.5Q640 224 640 126Q640 68 667.5 31Q695 -6 742 -6Q805 -6 846 59.5Q887 125 887 224ZM873 224Q873 133 836 70Q799 7 743 7Q701 7 677 39.5Q653 72 653 125Q653 216 690 279Q727 342 783 342Q827 342 850 311.5Q873 281 873 224ZM151 0H134L541 700H558Z" glyph-name="perthousand" horiz-adv-x="942" unicode="&#8240;" /><glyph d="M67 489H568L565 474H467L383 0H367L451 474H178L95 0H79L162 474H64Z" glyph-name="pi" horiz-adv-x="553" unicode="&#960;" /><glyph d="M316 134H301V343H92V359H301V566H316V359H524V343H316Z" glyph-name="plus" horiz-adv-x="580" unicode="+" /><glyph d="M294 134H279V343H70V359H279V566H294V359H502V343H294ZM70 10V26H502V10Z" glyph-name="plusminus" horiz-adv-x="580" unicode="&#177;" /><glyph d="M114 700H625L621 685H495L374 0H358L479 685H252L131 0H115L236 685H110Z" glyph-name="product" horiz-adv-x="583" unicode="&#8719;" /><glyph d="M63 204Q63 333 132.5 417Q202 501 308 501Q390 501 441.5 453Q493 405 504 322L534 489H549L425 -218H409L470 128Q436 62 380.5 25Q325 -12 259 -12Q169 -12 116 47Q63 106 63 204ZM79 205Q79 112 127.5 57.5Q176 3 261 3Q359 3 426 86.5Q493 170 493 282Q493 373 443 429.5Q393 486 308 486Q208 486 143.5 406.5Q79 327 79 205Z" glyph-name="q" horiz-adv-x="618" unicode="q" /><glyph d="M204 204 195 157H179L188 205Q197 252 225 289.5Q253 327 303 358Q378 405 412 454Q446 503 446 559Q446 621 404.5 658.5Q363 696 290 696Q234 696 192 670Q150 644 117 589L104 597Q138 656 184 684Q230 712 293 712Q372 712 417.5 670.5Q463 629 463 562Q463 502 427.5 450Q392 398 310 345Q264 316 238 281Q212 246 204 204ZM150 10Q150 1 157 -6Q164 -13 173 -13Q183 -13 189.5 -6Q196 1 196 10Q196 20 189.5 26.5Q183 33 173 33Q164 33 157 26.5Q150 20 150 10Z" glyph-name="question" horiz-adv-x="465" unicode="?" /><glyph d="M258 284 267 331H283L274 283Q265 236 237 198.5Q209 161 159 130Q84 83 50 34Q16 -15 16 -71Q16 -133 57.5 -170.5Q99 -208 172 -208Q228 -208 270 -182Q312 -156 345 -101L358 -109Q324 -168 278 -196Q232 -224 169 -224Q90 -224 44.5 -182.5Q-1 -141 -1 -74Q-1 -14 34.5 38Q70 90 152 143Q198 172 224 207Q250 242 258 284ZM312 478Q312 487 305 494Q298 501 289 501Q279 501 272.5 494Q266 487 266 478Q266 468 272.5 461.5Q279 455 289 455Q298 455 305 461.5Q312 468 312 478Z" glyph-name="questiondown" horiz-adv-x="459" unicode="&#191;" /><glyph d="M271 700 232 481H216L255 700ZM185 700 146 481H130L169 700Z" glyph-name="quotedbl" horiz-adv-x="282" unicode="&quot;" /><glyph d="M79 29H60L-26 -190H-10ZM196 29H177L91 -190H107Z" glyph-name="quotedblbase" horiz-adv-x="289" unicode="&#8222;" /><glyph d="M206 700 117 481H135L221 700ZM312 700 223 481H241L327 700Z" glyph-name="quotedblleft" horiz-adv-x="315" unicode="&#8220;" /><glyph d="M222 700H204L118 481H133ZM328 700H310L224 481H239Z" glyph-name="quotedblright" horiz-adv-x="315" unicode="&#8221;" /><glyph d="M206 700 117 481H135L221 700Z" glyph-name="quoteleft" horiz-adv-x="209" unicode="&#8216;" /><glyph d="M222 700H204L118 481H133Z" glyph-name="quoteright" horiz-adv-x="209" unicode="&#8217;" /><glyph d="M79 29H60L-26 -190H-10Z" glyph-name="quotesinglbase" horiz-adv-x="172" unicode="&#8218;" /><glyph d="M185 700 146 481H130L169 700Z" glyph-name="quotesingle" horiz-adv-x="196" unicode="'" /><glyph d="M70 0 154 489H169L146 351Q177 419 225 456.5Q273 494 330 494Q339 494 348.5 493Q358 492 368 490L366 475Q354 477 346.5 478Q339 479 328 479Q256 479 201.5 415Q147 351 129 246L86 0ZM251 489ZM76 0Z" glyph-name="r" horiz-adv-x="350" unicode="r" /><glyph d="M70 0 154 489H169L146 351Q177 419 225 456.5Q273 494 330 494Q339 494 348.5 493Q358 492 368 490L366 475Q354 477 346.5 478Q339 479 328 479Q256 479 201.5 415Q147 351 129 246L86 0ZM251 489ZM76 0ZM377 721H358L260 587H278ZM251 489Z" glyph-name="racute" horiz-adv-x="350" unicode="&#341;" /><glyph d="M52 374V389H191L302 24L503 700H518L310 0H293L180 374Z" glyph-name="radical" horiz-adv-x="522" unicode="&#8730;" /><glyph d="M70 0 154 489H169L146 351Q177 419 225 456.5Q273 494 330 494Q339 494 348.5 493Q358 492 368 490L366 475Q354 477 346.5 478Q339 479 328 479Q256 479 201.5 415Q147 351 129 246L86 0ZM251 489ZM76 0ZM268 587H253L190 721H208L263 606L338 721H355ZM251 489Z" glyph-name="rcaron" horiz-adv-x="350" unicode="&#345;" /><glyph d="M91 351Q91 501 196.5 606.5Q302 712 452 712Q602 712 707.5 606.5Q813 501 813 351Q813 201 707 94.5Q601 -12 452 -12Q303 -12 197 94.5Q91 201 91 351ZM797 351Q797 495 696 596Q595 697 452 697Q309 697 208 596Q107 495 107 351Q107 207 208 105Q309 3 452 3Q595 3 696 105Q797 207 797 351ZM346 174V524H464Q517 524 550 495.5Q583 467 583 423Q583 383 561 354Q539 325 501 315L583 174H565L484 311Q480 310 475.5 310Q471 310 462 310H362V174ZM567 423Q567 460 538.5 484.5Q510 509 464 509H362V325H462Q510 325 538.5 352Q567 379 567 423Z" glyph-name="registered" horiz-adv-x="866" unicode="&#174;" /><glyph d="M301 654Q301 694 272.5 723Q244 752 203 752Q161 752 133 723.5Q105 695 105 654Q105 613 133 585Q161 557 203 557Q244 557 272.5 585.5Q301 614 301 654ZM121 654Q121 689 145 713Q169 737 203 737Q237 737 261 712.5Q285 688 285 654Q285 620 261 596Q237 572 203 572Q168 572 144.5 596Q121 620 121 654ZM182 489Z" glyph-name="ring" horiz-adv-x="383" unicode="&#730;" /><glyph d="M301 854Q301 894 272.5 923Q244 952 203 952Q161 952 133 923.5Q105 895 105 854Q105 813 133 785Q161 757 203 757Q244 757 272.5 785.5Q301 814 301 854ZM121 854Q121 889 145 913Q169 937 203 937Q237 937 261 912.5Q285 888 285 854Q285 820 261 796Q237 772 203 772Q168 772 144.5 796Q121 820 121 854ZM184 700Z" glyph-name="ring.case" horiz-adv-x="383" /><glyph d="M391 130Q391 62 350 25Q309 -12 236 -12Q177 -12 122 11.5Q67 35 30 74L42 86Q78 48 130 25Q182 2 237 3Q303 4 339 36.5Q375 69 375 127Q375 166 349.5 192.5Q324 219 266 238L210 256Q148 276 120 307Q92 338 92 385Q92 435 133 468Q174 501 247 501Q301 501 351 478Q401 455 429 421L418 410Q391 442 343.5 464Q296 486 246 486Q182 486 145 457.5Q108 429 108 387Q108 344 133.5 315.5Q159 287 215 270L271 253Q332 235 361.5 204.5Q391 174 391 130ZM265 489ZM197 12ZM194 2Z" glyph-name="s" horiz-adv-x="472" unicode="s" /><glyph d="M391 130Q391 62 350 25Q309 -12 236 -12Q177 -12 122 11.5Q67 35 30 74L42 86Q78 48 130 25Q182 2 237 3Q303 4 339 36.5Q375 69 375 127Q375 166 349.5 192.5Q324 219 266 238L210 256Q148 276 120 307Q92 338 92 385Q92 435 133 468Q174 501 247 501Q301 501 351 478Q401 455 429 421L418 410Q391 442 343.5 464Q296 486 246 486Q182 486 145 457.5Q108 429 108 387Q108 344 133.5 315.5Q159 287 215 270L271 253Q332 235 361.5 204.5Q391 174 391 130ZM265 489ZM197 12ZM194 2ZM386 721H367L269 587H287ZM260 489Z" glyph-name="sacute" horiz-adv-x="472" unicode="&#347;" /><glyph d="M391 130Q391 62 350 25Q309 -12 236 -12Q177 -12 122 11.5Q67 35 30 74L42 86Q78 48 130 25Q182 2 237 3Q303 4 339 36.5Q375 69 375 127Q375 166 349.5 192.5Q324 219 266 238L210 256Q148 276 120 307Q92 338 92 385Q92 435 133 468Q174 501 247 501Q301 501 351 478Q401 455 429 421L418 410Q391 442 343.5 464Q296 486 246 486Q182 486 145 457.5Q108 429 108 387Q108 344 133.5 315.5Q159 287 215 270L271 253Q332 235 361.5 204.5Q391 174 391 130ZM265 489ZM197 12ZM194 2ZM277 587H262L199 721H217L272 606L347 721H364ZM260 489Z" glyph-name="scaron" horiz-adv-x="472" unicode="&#353;" /><glyph d="M123 -94 113 -78 182 -7Q137 2 97 23.5Q57 45 30 74L42 86Q78 48 130 25Q182 2 237 3Q303 4 339 36.5Q375 69 375 127Q375 166 349 193Q323 220 266 238L210 256Q147 277 119.5 307.5Q92 338 92 385Q92 435 133 468Q174 501 247 501Q301 501 351 478Q401 455 429 421L418 410Q391 442 343.5 464Q296 486 246 486Q182 486 145 457.5Q108 429 108 387Q108 344 133.5 315.5Q159 287 215 270L271 253Q332 234 361.5 203.5Q391 173 391 130Q391 62 350 25Q309 -12 236 -12Q229 -12 220.5 -11.5Q212 -11 198 -10L138 -74Q150 -69 162 -66.5Q174 -64 188 -64Q223 -64 243.5 -79.5Q264 -95 264 -124Q264 -162 234.5 -186Q205 -210 159 -210Q138 -210 117 -204.5Q96 -199 79 -189L87 -176Q103 -185 122.5 -190Q142 -195 161 -195Q200 -195 224 -175.5Q248 -156 248 -124Q248 -102 232 -90.5Q216 -79 186 -79Q169 -79 154 -82.5Q139 -86 123 -94Z" glyph-name="scedilla" horiz-adv-x="472" unicode="&#351;" /><glyph d="M391 130Q391 62 350 25Q309 -12 236 -12Q177 -12 122 11.5Q67 35 30 74L42 86Q78 48 130 25Q182 2 237 3Q303 4 339 36.5Q375 69 375 127Q375 166 349.5 192.5Q324 219 266 238L210 256Q148 276 120 307Q92 338 92 385Q92 435 133 468Q174 501 247 501Q301 501 351 478Q401 455 429 421L418 410Q391 442 343.5 464Q296 486 246 486Q182 486 145 457.5Q108 429 108 387Q108 344 133.5 315.5Q159 287 215 270L271 253Q332 235 361.5 204.5Q391 174 391 130ZM265 489ZM197 12ZM194 2ZM187 587 274 721H289L352 587H334L279 702L204 587ZM260 489Z" glyph-name="scircumflex" horiz-adv-x="472" unicode="&#349;" /><glyph d="M71 286Q71 330 95 372Q119 414 162 446Q146 466 137.5 491Q129 516 129 545Q129 617 182.5 664.5Q236 712 325 712Q381 712 430.5 696Q480 680 512 652L502 640Q469 666 422.5 681Q376 696 324 696Q243 696 194 653.5Q145 611 145 547Q145 493 176.5 453Q208 413 279 383L338 358Q412 327 446.5 287.5Q481 248 481 195Q481 150 457 108.5Q433 67 390 36Q407 14 415 -10.5Q423 -35 423 -64Q423 -135 369.5 -182.5Q316 -230 227 -230Q170 -230 118 -212Q66 -194 30 -162L40 -150Q79 -181 127.5 -197.5Q176 -214 228 -214Q309 -214 358 -171.5Q407 -129 407 -66Q407 -11 375 29Q343 69 273 99L214 124Q140 155 105.5 194.5Q71 234 71 286ZM218 140 277 115Q312 100 337.5 83.5Q363 67 381 47Q419 76 442 117Q465 158 465 192Q465 240 433 276.5Q401 313 334 342L275 367Q240 382 214.5 398.5Q189 415 171 434Q133 406 110 365Q87 324 87 289Q87 241 119 205Q151 169 218 140Z" glyph-name="section" horiz-adv-x="550" unicode="&#167;" /><glyph d="M115 29H96L10 -190H26ZM142 453Q142 444 148.5 437.5Q155 431 164 431Q173 431 179.5 437.5Q186 444 186 453Q186 462 179.5 468.5Q173 475 164 475Q155 475 148.5 468.5Q142 462 142 453ZM141 472Z" glyph-name="semicolon" horiz-adv-x="262" unicode=";" /><glyph d="M508 685H94L98 700H530L526 685L110 0H92Z" glyph-name="seven" horiz-adv-x="480" unicode="7" /><glyph d="M249 337H40L42 350H266L264 337L55 0H39Z" glyph-name="seven.denominator" horiz-adv-x="278" unicode="&#63068;" /><glyph d="M224 197H15L17 210H241L239 197L30 -140H14Z" glyph-name="seven.inferior" horiz-adv-x="278" unicode="&#8327;" /><glyph d="M311 687H102L104 700H328L326 687L117 350H101Z" glyph-name="seven.numerator" horiz-adv-x="278" unicode="&#63080;" /><glyph d="M335 827H126L128 840H352L350 827L141 490H125Z" glyph-name="seven.superior" horiz-adv-x="278" unicode="&#8311;" /><glyph d="M548 685H134L138 700H570L566 685L150 0H132Z" glyph-name="seven.tab" horiz-adv-x="560" unicode="&#65303;" /><glyph d="M295 409Q381 409 433.5 361Q486 313 486 233Q486 132 419 60Q352 -12 254 -12Q166 -12 112.5 41.5Q59 95 59 182Q59 241 86 299.5Q113 358 179 438L395 700H415L189 426Q168 400 156 384Q144 368 134 352Q165 380 206 394.5Q247 409 295 409ZM290 394Q196 394 135.5 335Q75 276 75 182Q75 102 124 52.5Q173 3 254 3Q343 3 406.5 70Q470 137 470 234Q470 306 421 350Q372 394 290 394Z" glyph-name="six" horiz-adv-x="539" unicode="6" /><glyph d="M138 205Q180 205 205.5 181Q231 157 231 116Q231 67 198 30.5Q165 -6 117 -6Q72 -6 45.5 20Q19 46 19 89Q19 119 32.5 148.5Q46 178 79 220L183 350H199L66 182Q81 194 99 199.5Q117 205 138 205ZM217 114Q217 150 195.5 171Q174 192 136 192Q90 192 61.5 164Q33 136 33 91Q33 53 55.5 30Q78 7 117 7Q157 7 187 38.5Q217 70 217 114Z" glyph-name="six.denominator" horiz-adv-x="290" unicode="&#63067;" /><glyph d="M113 65Q155 65 180.5 41Q206 17 206 -24Q206 -73 173 -109.5Q140 -146 92 -146Q47 -146 20.5 -120Q-6 -94 -6 -51Q-6 -21 7.5 8.5Q21 38 54 80L158 210H174L41 42Q56 54 74 59.5Q92 65 113 65ZM192 -26Q192 10 170.5 31Q149 52 111 52Q65 52 36.5 24Q8 -4 8 -49Q8 -87 30.5 -110Q53 -133 92 -133Q132 -133 162 -101.5Q192 -70 192 -26Z" glyph-name="six.inferior" horiz-adv-x="290" unicode="&#8326;" /><glyph d="M199 555Q241 555 266.5 531Q292 507 292 466Q292 417 259 380.5Q226 344 178 344Q133 344 106.5 370Q80 396 80 439Q80 469 93.5 498.5Q107 528 140 570L244 700H260L127 532Q142 544 160 549.5Q178 555 199 555ZM278 464Q278 500 256.5 521Q235 542 197 542Q151 542 122.5 514Q94 486 94 441Q94 403 116.5 380Q139 357 178 357Q218 357 248 388.5Q278 420 278 464Z" glyph-name="six.numerator" horiz-adv-x="290" unicode="&#63079;" /><glyph d="M224 695Q266 695 291.5 671Q317 647 317 606Q317 557 284 520.5Q251 484 203 484Q158 484 131.5 510Q105 536 105 579Q105 609 118.5 638.5Q132 668 165 710L269 840H285L152 672Q167 684 185 689.5Q203 695 224 695ZM303 604Q303 640 281.5 661Q260 682 222 682Q176 682 147.5 654Q119 626 119 581Q119 543 141.5 520Q164 497 203 497Q243 497 273 528.5Q303 560 303 604Z" glyph-name="six.superior" horiz-adv-x="290" unicode="&#8310;" /><glyph d="M305 409Q391 409 443.5 361Q496 313 496 233Q496 132 429 60Q362 -12 264 -12Q176 -12 122.5 41.5Q69 95 69 182Q69 241 96 299.5Q123 358 189 438L405 700H425L199 426Q178 400 166 384Q154 368 144 352Q175 380 216 394.5Q257 409 305 409ZM300 394Q206 394 145.5 335Q85 276 85 182Q85 102 134 52.5Q183 3 264 3Q353 3 416.5 70Q480 137 480 234Q480 306 431 350Q382 394 300 394Z" glyph-name="six.tab" horiz-adv-x="560" unicode="&#65302;" /><glyph d="M0 -132H-17L415 742H432Z" glyph-name="slash" horiz-adv-x="393" unicode="/" /><glyph glyph-name="space" horiz-adv-x="303" unicode=" " /><glyph d="M153 336H77L81 351H152L148 393Q144 433 143 452.5Q142 472 142 488Q142 589 196 650.5Q250 712 348 712Q437 712 487.5 659.5Q538 607 538 511L523 509Q523 598 477 647.5Q431 697 347 697Q258 697 208 639Q158 581 158 489Q158 474 159.5 451.5Q161 429 164 396L167 351H392L388 336H169L176 239Q182 156 160 98Q138 40 91 15H470L468 0H45L47 15Q106 26 137 85.5Q168 145 161 237Z" glyph-name="sterling" horiz-adv-x="553" unicode="&#163;" /><glyph d="M144 685 148 700H603L599 685H160L251 360L43 15H493L489 0H21L25 15L234 362Z" glyph-name="summation" horiz-adv-x="571" unicode="&#8721;" /><glyph d="M157 474H68L70 489H160L196 694L214 700L177 489H347L345 474H174L111 117Q102 63 125.5 33Q149 3 202 3Q223 3 244 10Q265 17 286 30L292 16Q270 2 246.5 -5Q223 -12 201 -12Q141 -12 113 22.5Q85 57 95 117ZM182 10ZM95 0ZM285 700Z" glyph-name="t" horiz-adv-x="343" unicode="t" /><glyph d="M50 328 52 343H140L163 474H74L76 489H166L202 694L220 700L183 489H353L351 474H180L157 343H320L318 328H154L117 117Q108 63 131.5 33Q155 3 208 3Q229 3 250 10Q271 17 292 30L298 16Q276 2 252.5 -5Q229 -12 207 -12Q147 -12 119 22.5Q91 57 101 117L138 328Z" glyph-name="tbar" horiz-adv-x="352" unicode="&#359;" /><glyph d="M157 474H68L70 489H160L196 694L214 700L177 489H347L345 474H174L111 117Q102 63 125.5 33Q149 3 202 3Q223 3 244 10Q265 17 286 30L292 16Q270 2 246.5 -5Q223 -12 201 -12Q141 -12 113 22.5Q85 57 95 117ZM182 10ZM95 0ZM285 700ZM381 730H363L309 616H322ZM285 700Z" glyph-name="tcaron" horiz-adv-x="343" unicode="&#357;" /><glyph d="M555 292Q555 162 484.5 75Q414 -12 308 -12Q229 -12 177.5 35Q126 82 114 163L47 -218H31L197 730H213L150 361Q184 427 238.5 464Q293 501 357 501Q448 501 501.5 443.5Q555 386 555 292ZM539 288Q539 378 490 432Q441 486 357 486Q260 486 192.5 401Q125 316 125 207Q125 114 174.5 58.5Q224 3 311 3Q407 3 473 85.5Q539 168 539 288Z" glyph-name="thorn" horiz-adv-x="617" unicode="&#254;" /><glyph d="M283 394Q266 394 249 391.5Q232 389 214 385L208 399L513 685H154L156 700H535L533 684L234 404Q246 406 259.5 407.5Q273 409 286 409Q375 409 426 359Q477 309 477 232Q477 127 410 57.5Q343 -12 240 -12Q155 -12 96.5 32.5Q38 77 26 148L41 152Q53 86 107.5 44.5Q162 3 240 3Q335 3 398 67.5Q461 132 461 228Q461 302 414 348Q367 394 283 394Z" glyph-name="three" horiz-adv-x="546" unicode="3" /><glyph d="M130 197Q123 197 118.5 196.5Q114 196 108 195L104 207L257 337H79L83 350H280L276 337L126 210Q128 210 130.5 210Q133 210 135 210Q182 210 208.5 184Q235 158 235 117Q235 65 199.5 29Q164 -7 113 -7Q68 -7 37 16Q6 39 -1 75L13 80Q19 47 46.5 26.5Q74 6 114 6Q159 6 190 38Q221 70 221 117Q221 154 197.5 175.5Q174 197 130 197Z" glyph-name="three.denominator" horiz-adv-x="307" unicode="&#63064;" /><glyph d="M106 57Q99 57 94.5 56.5Q90 56 84 55L80 67L233 197H55L59 210H256L252 197L102 70Q104 70 106.5 70Q109 70 111 70Q158 70 184.5 44Q211 18 211 -23Q211 -75 175.5 -111Q140 -147 89 -147Q44 -147 13 -124Q-18 -101 -25 -65L-11 -60Q-5 -93 22.5 -113.5Q50 -134 90 -134Q135 -134 166 -102Q197 -70 197 -23Q197 14 173.5 35.5Q150 57 106 57Z" glyph-name="three.inferior" horiz-adv-x="307" unicode="&#8323;" /><glyph d="M193 547Q186 547 181.5 546.5Q177 546 171 545L167 557L320 687H142L146 700H343L339 687L189 560Q191 560 193.5 560Q196 560 198 560Q245 560 271.5 534Q298 508 298 467Q298 415 262.5 379Q227 343 176 343Q131 343 100 366Q69 389 62 425L76 430Q82 397 109.5 376.5Q137 356 177 356Q222 356 253 388Q284 420 284 467Q284 504 260.5 525.5Q237 547 193 547Z" glyph-name="three.numerator" horiz-adv-x="307" unicode="&#63076;" /><glyph d="M290 394Q273 394 256 391.5Q239 389 221 385L215 399L520 685H161L163 700H542L540 684L241 404Q253 406 266.5 407.5Q280 409 293 409Q382 409 433 359Q484 309 484 232Q484 127 417 57.5Q350 -12 247 -12Q162 -12 103.5 32.5Q45 77 33 148L48 152Q60 86 114.5 44.5Q169 3 247 3Q342 3 405 67.5Q468 132 468 228Q468 302 421 348Q374 394 290 394Z" glyph-name="three.tab" horiz-adv-x="560" unicode="&#65299;" /><glyph d="M538 110 555 208 570 214 553 110H613L611 97H550L534 0H519L536 97H344L346 112L566 350H584L363 110ZM171 0H154L561 700H578ZM201 545Q194 545 189.5 544.5Q185 544 179 543L175 555L328 685H150L154 698H351L347 685L197 558Q199 558 201.5 558Q204 558 206 558Q253 558 279.5 532Q306 506 306 465Q306 413 270.5 377Q235 341 184 341Q139 341 108 364Q77 387 70 423L84 428Q90 395 117.5 374.5Q145 354 185 354Q230 354 261 386Q292 418 292 465Q292 502 268.5 523.5Q245 545 201 545Z" glyph-name="threequarters" horiz-adv-x="674" unicode="&#190;" /><glyph d="M217 687Q210 687 205.5 686.5Q201 686 195 685L191 697L344 827H166L170 840H367L363 827L213 700Q215 700 217.5 700Q220 700 222 700Q269 700 295.5 674Q322 648 322 607Q322 555 286.5 519Q251 483 200 483Q155 483 124 506Q93 529 86 565L100 570Q106 537 133.5 516.5Q161 496 201 496Q246 496 277 528Q308 560 308 607Q308 644 284.5 665.5Q261 687 217 687Z" glyph-name="threesuperior" horiz-adv-x="307" unicode="&#179;" /><glyph d="M196 646Q217 624 230 617Q243 610 259 610Q286 610 303.5 628.5Q321 647 324 679H308Q307 654 293.5 639.5Q280 625 259 625Q247 625 236 631Q225 637 205 658Q181 682 165.5 690Q150 698 132 698Q105 698 88 679Q71 660 64 624H80Q85 652 98 667.5Q111 683 131 683Q147 683 161 676Q175 669 196 646ZM176 489Z" glyph-name="tilde" horiz-adv-x="389" unicode="&#732;" /><glyph d="M196 846Q217 824 230 817Q243 810 259 810Q286 810 303.5 828.5Q321 847 324 879H308Q307 854 293.5 839.5Q280 825 259 825Q247 825 236 831Q225 837 205 858Q181 882 165.5 890Q150 898 132 898Q105 898 88 879Q71 860 64 824H80Q85 852 98 867.5Q111 883 131 883Q147 883 161 876Q175 869 196 846ZM186 700Z" glyph-name="tilde.case" horiz-adv-x="389" /><glyph d="M428 351V700H448L584 369L719 700H739V351H723V668L592 350H576L444 670V351ZM114 685V700H385V685H257V350H241V685Z" glyph-name="trademark" horiz-adv-x="809" unicode="&#8482;" /><glyph d="M445 0H18L20 15L291 256Q292 257 346 304Q400 351 428 382Q465 424 482 464.5Q499 505 499 549Q499 615 455.5 655.5Q412 696 337 697Q266 698 211 653Q156 608 128 524L113 527Q143 616 202 664Q261 712 338 712Q419 712 467 667Q515 622 515 549Q515 502 497.5 460Q480 418 442 375Q414 343 358.5 295Q303 247 300 244L43 15H447Z" glyph-name="two" horiz-adv-x="538" unicode="2" /><glyph d="M228 0H6L10 16L136 128Q141 133 166 154Q191 175 204 189Q221 208 229.5 228Q238 248 238 270Q238 302 216 322Q194 342 157 342Q121 342 93 320.5Q65 299 52 260L40 263Q55 307 86 331Q117 355 158 355Q201 355 226.5 331.5Q252 308 252 271Q252 247 242.5 225Q233 203 213 181Q199 165 171 141.5Q143 118 138 113L26 13H232Z" glyph-name="two.denominator" horiz-adv-x="305" unicode="&#63063;" /><glyph d="M204 -140H-18L-14 -124L112 -12Q117 -7 142 14Q167 35 180 49Q197 68 205.5 88Q214 108 214 130Q214 162 192 182Q170 202 133 202Q97 202 69 180.5Q41 159 28 120L16 123Q31 167 62 191Q93 215 134 215Q177 215 202.5 191.5Q228 168 228 131Q228 107 218.5 85Q209 63 189 41Q175 25 147 1.5Q119 -22 114 -27L2 -127H208Z" glyph-name="two.inferior" horiz-adv-x="305" unicode="&#8322;" /><glyph d="M290 350H68L72 366L198 478Q203 483 228 504Q253 525 266 539Q283 558 291.5 578Q300 598 300 620Q300 652 278 672Q256 692 219 692Q183 692 155 670.5Q127 649 114 610L102 613Q117 657 148 681Q179 705 220 705Q263 705 288.5 681.5Q314 658 314 621Q314 597 304.5 575Q295 553 275 531Q261 515 233 491.5Q205 468 200 463L88 363H294Z" glyph-name="two.numerator" horiz-adv-x="305" unicode="&#63075;" /><glyph d="M456 0H29L31 15L302 256Q303 257 357 304Q411 351 439 382Q476 424 493 464.5Q510 505 510 549Q510 615 466.5 655.5Q423 696 348 697Q277 698 222 653Q167 608 139 524L124 527Q154 616 213 664Q272 712 349 712Q430 712 478 667Q526 622 526 549Q526 502 508.5 460Q491 418 453 375Q425 343 369.5 295Q314 247 311 244L54 15H458Z" glyph-name="two.tab" horiz-adv-x="560" unicode="&#65298;" /><glyph d="M315 490H93L97 506L223 618Q228 623 253 644Q278 665 291 679Q308 698 316.5 718Q325 738 325 760Q325 792 303 812Q281 832 244 832Q208 832 180 810.5Q152 789 139 750L127 753Q142 797 173 821Q204 845 245 845Q288 845 313.5 821.5Q339 798 339 761Q339 737 329.5 715Q320 693 300 671Q286 655 258 631.5Q230 608 225 603L113 503H319Z" glyph-name="twosuperior" horiz-adv-x="305" unicode="&#178;" /><glyph d="M528 489 444 0H429L447 104Q417 48 369 18Q321 -12 259 -12Q170 -12 123.5 46.5Q77 105 93 197L144 489H160L109 196Q94 111 136 57Q178 3 260 3Q340 3 393 56Q446 109 462 200L512 489ZM335 489ZM413 0Z" glyph-name="u" horiz-adv-x="598" unicode="u" /><glyph d="M528 489 444 0H429L447 104Q417 48 369 18Q321 -12 259 -12Q170 -12 123.5 46.5Q77 105 93 197L144 489H160L109 196Q94 111 136 57Q178 3 260 3Q340 3 393 56Q446 109 462 200L512 489ZM335 489ZM413 0ZM461 721H442L344 587H362ZM335 489Z" glyph-name="uacute" horiz-adv-x="598" unicode="&#250;" /><glyph d="M528 489 444 0H429L447 104Q417 48 369 18Q321 -12 259 -12Q170 -12 123.5 46.5Q77 105 93 197L144 489H160L109 196Q94 111 136 57Q178 3 260 3Q340 3 393 56Q446 109 462 200L512 489ZM335 489ZM413 0ZM345 600Q390 600 418 630.5Q446 661 457 721H472Q460 651 429 618Q398 585 345 585Q289 585 260.5 621.5Q232 658 238 721H253Q247 668 272 634Q297 600 345 600ZM335 489Z" glyph-name="ubreve" horiz-adv-x="598" unicode="&#365;" /><glyph d="M528 489 444 0H429L447 104Q417 48 369 18Q321 -12 259 -12Q170 -12 123.5 46.5Q77 105 93 197L144 489H160L109 196Q94 111 136 57Q178 3 260 3Q340 3 393 56Q446 109 462 200L512 489ZM335 489ZM413 0ZM262 587 349 721H364L427 587H409L354 702L279 587ZM335 489Z" glyph-name="ucircumflex" horiz-adv-x="598" unicode="&#251;" /><glyph d="M528 489 444 0H429L447 104Q417 48 369 18Q321 -12 259 -12Q170 -12 123.5 46.5Q77 105 93 197L144 489H160L109 196Q94 111 136 57Q178 3 260 3Q340 3 393 56Q446 109 462 200L512 489ZM335 489ZM413 0ZM274 654Q274 645 280 639Q286 633 295 633Q304 633 310 639Q316 645 316 654Q316 663 310 669Q304 675 295 675Q286 675 280 669Q274 663 274 654ZM386 654Q386 645 392 639Q398 633 407 633Q416 633 422 639Q428 645 428 654Q428 663 422 669Q416 675 407 675Q398 675 392 669Q386 663 386 654ZM335 489Z" glyph-name="udieresis" horiz-adv-x="598" unicode="&#252;" /><glyph d="M528 489 444 0H429L447 104Q417 48 369 18Q321 -12 259 -12Q170 -12 123.5 46.5Q77 105 93 197L144 489H160L109 196Q94 111 136 57Q178 3 260 3Q340 3 393 56Q446 109 462 200L512 489ZM335 489ZM413 0ZM340 587 266 721H247L322 587ZM335 489Z" glyph-name="ugrave" horiz-adv-x="598" unicode="&#249;" /><glyph d="M528 489 444 0H429L447 104Q417 48 369 18Q321 -12 259 -12Q170 -12 123.5 46.5Q77 105 93 197L144 489H160L109 196Q94 111 136 57Q178 3 260 3Q340 3 393 56Q446 109 462 200L512 489ZM335 489ZM413 0ZM409 721H390L282 587H300ZM487 721H468L360 587H378ZM335 489Z" glyph-name="uhungarumlaut" horiz-adv-x="598" unicode="&#369;" /><glyph d="M528 489 444 0H429L447 104Q417 48 369 18Q321 -12 259 -12Q170 -12 123.5 46.5Q77 105 93 197L144 489H160L109 196Q94 111 136 57Q178 3 260 3Q340 3 393 56Q446 109 462 200L512 489ZM335 489ZM413 0ZM475 646H229L231 661H477ZM335 489Z" glyph-name="umacron" horiz-adv-x="598" unicode="&#363;" /><glyph d="M16 -15 19 0H438L435 -15Z" glyph-name="underscore" horiz-adv-x="527" unicode="_" /><glyph glyph-name="uni00A0" horiz-adv-x="303" unicode="&#160;" /><glyph d="M90 258 92 273H348L346 258Z" glyph-name="uni00AD" horiz-adv-x="431" unicode="&#173;" /><glyph d="M428 322 432 337H705L645 0H630L657 154Q617 76 546 32Q475 -12 387 -12Q248 -12 167.5 70Q87 152 87 290Q87 476 191 594Q295 712 453 712Q561 712 632 658Q703 604 734 498L719 494Q689 595 621.5 646Q554 697 451 697Q302 697 202 583Q102 469 102 293Q102 160 178.5 81.5Q255 3 388 3Q495 3 575 72Q655 141 673 247L686 322ZM448 700ZM380 0ZM375 -76H357L293 -211H306ZM380 0ZM343 -211Z" glyph-name="uni0122" horiz-adv-x="770" /><glyph d="M257 -12Q170 -12 119 46Q68 104 68 198Q68 328 136 414.5Q204 501 306 501Q385 501 435.5 453Q486 405 497 322L526 489H542L451 -30Q434 -128 377 -179Q320 -230 226 -230Q161 -230 105.5 -202Q50 -174 18 -128L30 -118Q66 -165 116.5 -190Q167 -215 227 -215Q315 -215 368 -167Q421 -119 436 -30L462 128Q428 62 374.5 25Q321 -12 257 -12ZM84 202Q84 111 130.5 57Q177 3 257 3Q353 3 419.5 88Q486 173 486 282Q486 374 437 430Q388 486 303 486Q211 486 147.5 403.5Q84 321 84 202ZM314 489ZM305 587H323L387 721H374ZM314 489Z" glyph-name="uni0123" horiz-adv-x="611" /><glyph d="M337 398 577 0H558L325 388L137 220L98 0H82L206 700H222L141 243L650 700H673ZM327 0ZM317 -76H299L235 -211H248ZM322 0ZM285 -211Z" glyph-name="uni0136" horiz-adv-x="638" /><glyph d="M289 309 464 0H446L276 300L116 179L85 0H69L197 730H213L120 201L502 489H526ZM266 0ZM256 -76H238L174 -211H187ZM261 0ZM224 -211Z" glyph-name="uni0137" horiz-adv-x="529" /><glyph d="M82 0 205 700H221L101 15H520L518 0ZM212 700ZM292 700ZM417 350ZM308 0ZM303 -76H285L221 -211H234ZM308 0ZM271 -211Z" glyph-name="uni013B" horiz-adv-x="581" unicode="&#315;" /><glyph d="M69 0 199 730H215L85 0ZM207 730ZM280 700ZM183 350ZM77 0ZM72 -76H54L-10 -211H3ZM77 0ZM40 -211Z" glyph-name="uni013C" horiz-adv-x="240" unicode="&#316;" /><glyph d="M82 0 206 700H223L584 22L704 700H719L595 0H578L216 679L97 0ZM460 700ZM348 0ZM343 -76H325L261 -211H274ZM348 0ZM311 -211Z" glyph-name="uni0145" horiz-adv-x="763" /><glyph d="M515 292 464 0H447L499 294Q514 381 468.5 433.5Q423 486 333 486Q257 486 205 434Q153 382 137 292L84 0H68L156 489H171L153 384Q182 441 228.5 471Q275 501 334 501Q428 501 479.5 443Q531 385 515 292ZM155 589ZM337 489ZM266 0ZM261 -76H243L179 -211H192ZM266 0ZM229 -211Z" glyph-name="uni0146" horiz-adv-x="608" /><glyph d="M82 0 205 700H444Q537 700 596 647.5Q655 595 655 514Q655 420 587.5 349.5Q520 279 419 273L567 0H550L403 272H146L98 0ZM638 514Q638 589 583.5 637.5Q529 686 441 686H219L148 287H406Q502 287 570 355.5Q638 424 638 514ZM402 700ZM305 0ZM300 -76H282L218 -211H231ZM305 0ZM268 -211Z" glyph-name="uni0156" horiz-adv-x="681" /><glyph d="M70 0 154 489H169L146 351Q177 419 225 456.5Q273 494 330 494Q339 494 348.5 493Q358 492 368 490L366 475Q354 477 346.5 478Q339 479 328 479Q256 479 201.5 415Q147 351 129 246L86 0ZM251 489ZM76 0ZM71 -76H53L-11 -211H2ZM76 0ZM39 -211Z" glyph-name="uni0157" horiz-adv-x="350" /><glyph d="M167 -96 157 -80 238 5 356 685H104L106 700H629L626 685H372L253 0L182 -76Q194 -71 206 -68.5Q218 -66 232 -66Q267 -66 287.5 -81.5Q308 -97 308 -126Q308 -164 278.5 -188Q249 -212 203 -212Q182 -212 161 -206.5Q140 -201 123 -191L131 -178Q147 -187 166.5 -192Q186 -197 205 -197Q244 -197 268 -177.5Q292 -158 292 -126Q292 -104 276 -92.5Q260 -81 230 -81Q213 -81 198 -84.5Q183 -88 167 -96Z" glyph-name="uni0162" horiz-adv-x="574" /><glyph d="M93 -96 83 -80 155 -5Q118 6 102.5 38Q87 70 95 117L157 474H68L70 489H160L196 694L214 700L177 489H347L345 474H174L111 117Q102 63 125.5 33Q149 3 202 3Q223 3 244 10Q265 17 286 30L292 16Q270 2 246.5 -5Q223 -12 201 -12Q193 -12 185.5 -11.5Q178 -11 170 -9L108 -76Q120 -71 132 -68.5Q144 -66 158 -66Q193 -66 213.5 -81.5Q234 -97 234 -126Q234 -164 204.5 -188Q175 -212 129 -212Q108 -212 87 -206.5Q66 -201 49 -191L57 -178Q73 -187 92.5 -192Q112 -197 131 -197Q170 -197 194 -177.5Q218 -158 218 -126Q218 -104 202 -92.5Q186 -81 156 -81Q139 -81 124 -84.5Q109 -88 93 -96Z" glyph-name="uni0163" horiz-adv-x="343" /><glyph d="M523 185Q523 96 464 42Q405 -12 308 -12Q227 -12 154 23Q81 58 42 110L55 120Q88 72 158.5 37.5Q229 3 307 3Q351 3 386 14Q421 25 447 47Q475 72 491 108.5Q507 145 507 179Q507 239 476 277.5Q445 316 378 339L262 379Q195 402 160 443.5Q125 485 125 543Q125 614 183.5 663Q242 712 338 712Q412 712 472.5 685Q533 658 574 606L561 597Q522 646 465 671.5Q408 697 338 697Q249 697 195 652.5Q141 608 141 544Q141 491 173 453Q205 415 267 394L383 355Q451 332 487 288.5Q523 245 523 185ZM347 700ZM293 10ZM293 0ZM288 -76H270L206 -211H219ZM293 0ZM256 -211Z" glyph-name="uni0218" horiz-adv-x="598" /><glyph d="M391 130Q391 62 350 25Q309 -12 236 -12Q177 -12 122 11.5Q67 35 30 74L42 86Q78 48 130 25Q182 2 237 3Q303 4 339 36.5Q375 69 375 127Q375 166 349.5 192.5Q324 219 266 238L210 256Q148 276 120 307Q92 338 92 385Q92 435 133 468Q174 501 247 501Q301 501 351 478Q401 455 429 421L418 410Q391 442 343.5 464Q296 486 246 486Q182 486 145 457.5Q108 429 108 387Q108 344 133.5 315.5Q159 287 215 270L271 253Q332 235 361.5 204.5Q391 174 391 130ZM265 489ZM197 12ZM194 2ZM184 -74H166L102 -209H115ZM189 2ZM152 -209Z" glyph-name="uni0219" horiz-adv-x="472" /><glyph d="M104 685 106 700H629L626 685H372L253 0H237L356 685ZM366 700ZM248 10ZM244 0ZM239 -76H221L157 -211H170ZM244 0ZM207 -211Z" glyph-name="uni021A" horiz-adv-x="574" unicode="&#538;" /><glyph d="M157 474H68L70 489H160L196 694L214 700L177 489H347L345 474H174L111 117Q102 63 125.5 33Q149 3 202 3Q223 3 244 10Q265 17 286 30L292 16Q270 2 246.5 -5Q223 -12 201 -12Q141 -12 113 22.5Q85 57 95 117ZM182 10ZM95 0ZM285 700ZM90 -76H72L8 -211H21ZM95 0ZM58 -211Z" glyph-name="uni021B" horiz-adv-x="343" unicode="&#539;" /><glyph d="M58 -91 159 489H175L74 -91Q62 -162 25 -196Q-12 -230 -75 -230Q-90 -230 -104 -227.5Q-118 -225 -131 -220L-124 -206Q-113 -211 -101.5 -213Q-90 -215 -74 -215Q-19 -215 14 -183.5Q47 -152 58 -91ZM167 489Z" glyph-name="uni0237" horiz-adv-x="244" /><glyph d="M316 646H70L72 661H318ZM176 489Z" glyph-name="uni02C9" horiz-adv-x="385" unicode="&#713;" /><glyph d="M2 0 6 15 398 700H415L557 15L553 0ZM403 679 24 15H541Z" glyph-name="uni0394" horiz-adv-x="645" unicode="&#916;" /><glyph d="M42 0 44 15H235Q164 68 128 140Q92 212 92 300Q92 471 187 591.5Q282 712 422 712Q542 712 612 632.5Q682 553 682 421Q682 280 617 176.5Q552 73 427 15H606L604 0H388L390 14Q523 66 594.5 169.5Q666 273 666 419Q666 546 600.5 621.5Q535 697 421 697Q289 697 198.5 581Q108 465 108 301Q108 210 146.5 137.5Q185 65 261 14L259 0Z" glyph-name="uni03A9" horiz-adv-x="741" unicode="&#937;" /><glyph d="M539 489 455 0H440L458 104Q428 48 380 18Q332 -12 270 -12Q204 -12 160 21Q116 54 104 112L72 -78L47 -218H31L155 489H171L120 196Q105 111 147 57Q189 3 271 3Q351 3 404 56Q457 109 473 200L523 489Z" glyph-name="uni03BC" horiz-adv-x="609" unicode="&#956;" /><glyph d="M161 422 87 0H71L145 426Q168 557 249 634.5Q330 712 444 712Q516 712 576.5 679Q637 646 675 586L444 374L512 343Q584 310 617 271.5Q650 233 650 182Q650 95 590 41.5Q530 -12 433 -12Q387 -12 342 -1Q297 10 260 29L267 43Q303 24 345.5 13.5Q388 3 434 3Q477 3 511.5 14.5Q546 26 572 49Q601 73 617.5 109.5Q634 146 634 179Q634 225 604 260.5Q574 296 505 329L429 365L431 380L655 589Q618 641 562.5 669Q507 697 441 697Q336 697 259.5 622Q183 547 161 422Z" glyph-name="uni1E9E" horiz-adv-x="717" unicode="&#7838;" /><glyph d="M157 317 51 252 45 265 161 336 199 554Q213 635 246 673.5Q279 712 335 712Q379 712 403.5 688.5Q428 665 428 623Q428 555 385 490.5Q342 426 270 383L175 326L138 117Q128 63 152 33Q176 3 229 3Q250 3 271 10Q292 17 313 30L319 16Q297 2 273.5 -5Q250 -12 228 -12Q168 -12 140 22.5Q112 57 122 117ZM334 696Q286 696 257 661.5Q228 627 215 554L178 345L264 396Q330 435 371 496.5Q412 558 412 621Q412 657 392 676.5Q372 696 334 696Z" glyph-name="uni2113" horiz-adv-x="407" /><glyph d="M85 350 87 363H166L220 672Q199 647 173 634.5Q147 622 114 622L118 635Q153 635 179.5 651Q206 667 225 700H238L180 363H258L256 350ZM134 0H117L524 700H541ZM466 197Q459 197 454.5 196.5Q450 196 444 195L440 207L593 337H415L419 350H616L612 337L462 210Q464 210 466.5 210Q469 210 471 210Q518 210 544.5 184Q571 158 571 117Q571 65 535.5 29Q500 -7 449 -7Q404 -7 373 16Q342 39 335 75L349 80Q355 47 382.5 26.5Q410 6 450 6Q495 6 526 38Q557 70 557 117Q557 154 533.5 175.5Q510 197 466 197Z" glyph-name="uni2153" horiz-adv-x="655" unicode="&#8531;" /><glyph d="M303 350H81L85 366L211 478Q216 483 241 504Q266 525 279 539Q296 558 304.5 578Q313 598 313 620Q313 652 291 672Q269 692 232 692Q196 692 168 670.5Q140 649 127 610L115 613Q130 657 161 681Q192 705 233 705Q276 705 301.5 681.5Q327 658 327 621Q327 597 317.5 575Q308 553 288 531Q274 515 246 491.5Q218 468 213 463L101 363H307ZM162 0H145L552 700H569ZM494 197Q487 197 482.5 196.5Q478 196 472 195L468 207L621 337H443L447 350H644L640 337L490 210Q492 210 494.5 210Q497 210 499 210Q546 210 572.5 184Q599 158 599 117Q599 65 563.5 29Q528 -7 477 -7Q432 -7 401 16Q370 39 363 75L377 80Q383 47 410.5 26.5Q438 6 478 6Q523 6 554 38Q585 70 585 117Q585 154 561.5 175.5Q538 197 494 197Z" glyph-name="uni2154" horiz-adv-x="683" unicode="&#8532;" /><glyph d="M134 0H117L524 700H541ZM85 350 87 363H166L220 672Q199 647 173 634.5Q147 622 114 622L118 635Q153 635 179.5 651Q206 667 225 700H238L180 363H258L256 350ZM498 213Q544 213 570.5 189Q597 165 597 125Q597 67 564.5 30.5Q532 -6 477 -6Q430 -6 400 16.5Q370 39 366 74L380 77Q383 47 410 27Q437 7 478 7Q525 7 554 39.5Q583 72 583 124Q583 159 559.5 179.5Q536 200 495 200Q469 200 447 192Q425 184 410 169L397 176L452 350H611L607 337H462L416 189Q433 200 454.5 206.5Q476 213 498 213Z" glyph-name="uni2155" horiz-adv-x="668" unicode="&#8533;" /><glyph d="M303 350H81L85 366L211 478Q216 483 241 504Q266 525 279 539Q296 558 304.5 578Q313 598 313 620Q313 652 291 672Q269 692 232 692Q196 692 168 670.5Q140 649 127 610L115 613Q130 657 161 681Q192 705 233 705Q276 705 301.5 681.5Q327 658 327 621Q327 597 317.5 575Q308 553 288 531Q274 515 246 491.5Q218 468 213 463L101 363H307ZM526 213Q572 213 598.5 189Q625 165 625 125Q625 67 592.5 30.5Q560 -6 505 -6Q458 -6 428 16.5Q398 39 394 74L408 77Q411 47 438 27Q465 7 506 7Q553 7 582 39.5Q611 72 611 124Q611 159 587.5 179.5Q564 200 523 200Q497 200 475 192Q453 184 438 169L425 176L480 350H639L635 337H490L444 189Q461 200 482.5 206.5Q504 213 526 213ZM161 0H144L551 700H568Z" glyph-name="uni2156" horiz-adv-x="696" unicode="&#8534;" /><glyph d="M538 213Q584 213 610.5 189Q637 165 637 125Q637 67 604.5 30.5Q572 -6 517 -6Q470 -6 440 16.5Q410 39 406 74L420 77Q423 47 450 27Q477 7 518 7Q565 7 594 39.5Q623 72 623 124Q623 159 599.5 179.5Q576 200 535 200Q509 200 487 192Q465 184 450 169L437 176L492 350H651L647 337H502L456 189Q473 200 494.5 206.5Q516 213 538 213ZM173 0H156L563 700H580ZM201 547Q194 547 189.5 546.5Q185 546 179 545L175 557L328 687H150L154 700H351L347 687L197 560Q199 560 201.5 560Q204 560 206 560Q253 560 279.5 534Q306 508 306 467Q306 415 270.5 379Q235 343 184 343Q139 343 108 366Q77 389 70 425L84 430Q90 397 117.5 376.5Q145 356 185 356Q230 356 261 388Q292 420 292 467Q292 504 268.5 525.5Q245 547 201 547Z" glyph-name="uni2157" horiz-adv-x="710" unicode="&#8535;" /><glyph d="M266 460 283 558 298 564 281 460H341L339 447H278L262 350H247L264 447H72L74 462L294 700H312L91 460ZM542 213Q588 213 614.5 189Q641 165 641 125Q641 67 608.5 30.5Q576 -6 521 -6Q474 -6 444 16.5Q414 39 410 74L424 77Q427 47 454 27Q481 7 522 7Q569 7 598 39.5Q627 72 627 124Q627 159 603.5 179.5Q580 200 539 200Q513 200 491 192Q469 184 454 169L441 176L496 350H655L651 337H506L460 189Q477 200 498.5 206.5Q520 213 542 213ZM177 0H160L567 700H584Z" glyph-name="uni2158" horiz-adv-x="716" unicode="&#8536;" /><glyph d="M453 205Q495 205 520.5 181Q546 157 546 116Q546 67 513 30.5Q480 -6 432 -6Q387 -6 360.5 20Q334 46 334 89Q334 119 347.5 148.5Q361 178 394 220L498 350H514L381 182Q396 194 414 199.5Q432 205 453 205ZM532 114Q532 150 510.5 171Q489 192 451 192Q405 192 376.5 164Q348 136 348 91Q348 53 370.5 30Q393 7 432 7Q472 7 502 38.5Q532 70 532 114ZM85 350 87 363H166L220 672Q199 647 173 634.5Q147 622 114 622L118 635Q153 635 179.5 651Q206 667 225 700H238L180 363H258L256 350ZM134 0H117L524 700H541Z" glyph-name="uni2159" horiz-adv-x="609" unicode="&#8537;" /><glyph d="M478 205Q520 205 545.5 181Q571 157 571 116Q571 67 538 30.5Q505 -6 457 -6Q412 -6 385.5 20Q359 46 359 89Q359 119 372.5 148.5Q386 178 419 220L523 350H539L406 182Q421 194 439 199.5Q457 205 478 205ZM557 114Q557 150 535.5 171Q514 192 476 192Q430 192 401.5 164Q373 136 373 91Q373 53 395.5 30Q418 7 457 7Q497 7 527 38.5Q557 70 557 114ZM210 563Q256 563 282.5 539Q309 515 309 475Q309 417 276.5 380.5Q244 344 189 344Q142 344 112 366.5Q82 389 78 424L92 427Q95 397 122 377Q149 357 190 357Q237 357 266 389.5Q295 422 295 474Q295 509 271.5 529.5Q248 550 207 550Q181 550 159 542Q137 534 122 519L109 526L164 700H323L319 687H174L128 539Q145 550 166.5 556.5Q188 563 210 563ZM159 0H142L549 700H566Z" glyph-name="uni215A" horiz-adv-x="635" unicode="&#8538;" /><glyph d="M134 0H117L524 700H541ZM85 350 87 363H166L220 672Q199 647 173 634.5Q147 622 114 622L118 635Q153 635 179.5 651Q206 667 225 700H238L180 363H258L256 350ZM444 186Q416 195 401.5 214Q387 233 387 259Q387 299 419 327Q451 355 498 355Q546 355 575.5 331Q605 307 605 269Q605 235 583.5 210Q562 185 525 179Q553 169 567.5 148.5Q582 128 582 100Q582 54 548.5 24Q515 -6 463 -6Q413 -6 382 20.5Q351 47 351 87Q351 122 377 150.5Q403 179 444 186ZM498 342Q458 342 429.5 318Q401 294 401 260Q401 227 426.5 207.5Q452 188 498 188Q542 188 566.5 210Q591 232 591 267Q591 299 565 320.5Q539 342 498 342ZM469 176Q423 176 394 150Q365 124 365 87Q365 52 393 29.5Q421 7 465 7Q508 7 538 33.5Q568 60 568 99Q568 136 542.5 156Q517 176 469 176Z" glyph-name="uni215B" horiz-adv-x="659" unicode="&#8539;" /><glyph d="M173 0H156L563 700H580ZM484 186Q456 195 441.5 214Q427 233 427 259Q427 299 459 327Q491 355 538 355Q586 355 615.5 331Q645 307 645 269Q645 235 623.5 210Q602 185 565 179Q593 169 607.5 148.5Q622 128 622 100Q622 54 588.5 24Q555 -6 503 -6Q453 -6 422 20.5Q391 47 391 87Q391 122 417 150.5Q443 179 484 186ZM538 342Q498 342 469.5 318Q441 294 441 260Q441 227 466.5 207.5Q492 188 538 188Q582 188 606.5 210Q631 232 631 267Q631 299 605 320.5Q579 342 538 342ZM509 176Q463 176 434 150Q405 124 405 87Q405 52 433 29.5Q461 7 505 7Q548 7 578 33.5Q608 60 608 99Q608 136 582.5 156Q557 176 509 176ZM201 547Q194 547 189.5 546.5Q185 546 179 545L175 557L328 687H150L154 700H351L347 687L197 560Q199 560 201.5 560Q204 560 206 560Q253 560 279.5 534Q306 508 306 467Q306 415 270.5 379Q235 343 184 343Q139 343 108 366Q77 389 70 425L84 430Q90 397 117.5 376.5Q145 356 185 356Q230 356 261 388Q292 420 292 467Q292 504 268.5 525.5Q245 547 201 547Z" glyph-name="uni215C" horiz-adv-x="701" unicode="&#8540;" /><glyph d="M143 0H126L533 700H550ZM453 186Q425 195 410.5 214Q396 233 396 259Q396 299 428 327Q460 355 507 355Q555 355 584.5 331Q614 307 614 269Q614 235 592.5 210Q571 185 534 179Q562 169 576.5 148.5Q591 128 591 100Q591 54 557.5 24Q524 -6 472 -6Q422 -6 391 20.5Q360 47 360 87Q360 122 386 150.5Q412 179 453 186ZM507 342Q467 342 438.5 318Q410 294 410 260Q410 227 435.5 207.5Q461 188 507 188Q551 188 575.5 210Q600 232 600 267Q600 299 574 320.5Q548 342 507 342ZM478 176Q432 176 403 150Q374 124 374 87Q374 52 402 29.5Q430 7 474 7Q517 7 547 33.5Q577 60 577 99Q577 136 551.5 156Q526 176 478 176ZM211 563Q257 563 283.5 539Q310 515 310 475Q310 417 277.5 380.5Q245 344 190 344Q143 344 113 366.5Q83 389 79 424L93 427Q96 397 123 377Q150 357 191 357Q238 357 267 389.5Q296 422 296 474Q296 509 272.5 529.5Q249 550 208 550Q182 550 160 542Q138 534 123 519L110 526L165 700H324L320 687H175L129 539Q146 550 167.5 556.5Q189 563 211 563Z" glyph-name="uni215D" horiz-adv-x="668" unicode="&#8541;" /><glyph d="M324 687H115L117 700H341L339 687L130 350H114ZM88 0H71L478 700H495ZM398 186Q370 195 355.5 214Q341 233 341 259Q341 299 373 327Q405 355 452 355Q500 355 529.5 331Q559 307 559 269Q559 235 537.5 210Q516 185 479 179Q507 169 521.5 148.5Q536 128 536 100Q536 54 502.5 24Q469 -6 417 -6Q367 -6 336 20.5Q305 47 305 87Q305 122 331 150.5Q357 179 398 186ZM452 342Q412 342 383.5 318Q355 294 355 260Q355 227 380.5 207.5Q406 188 452 188Q496 188 520.5 210Q545 232 545 267Q545 299 519 320.5Q493 342 452 342ZM423 176Q377 176 348 150Q319 124 319 87Q319 52 347 29.5Q375 7 419 7Q462 7 492 33.5Q522 60 522 99Q522 136 496.5 156Q471 176 423 176Z" glyph-name="uni215E" horiz-adv-x="617" unicode="&#8542;" /><glyph d="M96 350 98 363H177L231 672Q210 647 184 634.5Q158 622 125 622L129 635Q164 635 190.5 651Q217 667 236 700H249L191 363H269L267 350ZM145 0H128L535 700H552Z" glyph-name="uni215F" horiz-adv-x="369" unicode="&#8543;" /><glyph d="M-11 0H-28L379 700H396Z" glyph-name="uni2215" horiz-adv-x="332" unicode="&#8725;" /><glyph d="M139 286Q139 272.5 148.75 262.75Q158.5 253 172 253Q185.5 253 195.25 262.75Q205 272.5 205 286Q205 299.5 195.25 309.25Q185.5 319 172 319Q158.5 319 148.75 309.25Q139 299.5 139 286ZM137.5 314.5Z" glyph-name="uni2219" horiz-adv-x="330" /><glyph d="M1406 529H68V537H1406ZM1213 257Q1213 262 1213 287.5Q1213 313 1212 332L1183 330V334Q1183 344 1186 349Q1189 354 1195 354H1212L1209 384Q1228 390 1232.5 391Q1237 392 1241 392Q1246 392 1249 390Q1252 388 1252 384V355H1299V352Q1299 341 1296 336Q1293 331 1287 331H1252V241Q1252 233 1256 229.5Q1260 226 1268 226Q1274 226 1281 227Q1288 228 1302 231Q1322 235 1332.5 236Q1343 237 1353 237Q1375 237 1395 230.5Q1415 224 1415 213Q1415 200 1406.5 192.5Q1398 185 1388 185Q1386 185 1383 186Q1380 187 1372 192Q1353 202 1340.5 205.5Q1328 209 1317 209Q1313 209 1308 208.5Q1303 208 1291 206Q1273 203 1262 202Q1251 201 1241 201Q1224 201 1219 210.5Q1214 220 1213 257ZM1196 290Q1196 278 1190 270.5Q1184 263 1171 258Q1162 255 1152 253.5Q1142 252 1127 252Q1128 242 1135 236Q1142 230 1153 230Q1162 230 1169.5 232Q1177 234 1185 239Q1189 236 1191 232Q1193 228 1193 223Q1193 214 1180.5 207Q1168 200 1146 200Q1118 200 1102 214.5Q1086 229 1086 253Q1086 282 1105 301.5Q1124 321 1155 321Q1173 321 1184.5 312Q1196 303 1196 290ZM873 290Q873 278 867 270.5Q861 263 848 258Q839 255 829 253.5Q819 252 804 252Q805 242 812 236Q819 230 830 230Q839 230 846.5 232Q854 234 862 239Q866 236 868 232Q870 228 870 223Q870 214 857.5 207Q845 200 823 200Q795 200 779 214.5Q763 229 763 253Q763 282 782 301.5Q801 321 832 321Q850 321 861.5 312Q873 303 873 290ZM174 290Q174 278 168 270.5Q162 263 149 258Q140 255 130 253.5Q120 252 105 252Q106 242 113 236Q120 230 131 230Q140 230 147.5 232Q155 234 163 239Q167 236 169 232Q171 228 171 223Q171 214 158.5 207Q146 200 124 200Q96 200 80 214.5Q64 229 64 253Q64 282 83 301.5Q102 321 133 321Q151 321 162.5 312Q174 303 174 290ZM1041 321Q1055 321 1062.5 313Q1070 305 1070 289V240L1072 208Q1053 202 1048.5 201Q1044 200 1041 200Q1036 200 1033 202Q1030 204 1030 208V275Q1030 283 1028 286.5Q1026 290 1022 290Q1015 290 1005.5 272.5Q996 255 996 242L999 208Q980 202 975.5 201Q971 200 967 200Q962 200 959 202Q956 204 956 208V277L953 313Q972 319 976.5 320Q981 321 985 321Q990 321 993 318.5Q996 316 996 312V272Q1005 296 1016 308.5Q1027 321 1041 321ZM351 321Q365 321 372 313Q379 305 379 289V240L382 208Q363 202 358.5 201Q354 200 351 200Q346 200 343 202Q340 204 340 208V274Q340 283 338 286.5Q336 290 332 290Q325 290 315.5 272.5Q306 255 306 242L308 208Q289 202 284.5 201Q280 200 277 200Q272 200 269 202Q266 204 266 208V274Q266 283 264 286.5Q262 290 258 290Q251 290 241.5 272.5Q232 255 232 242L235 208Q216 202 211.5 201Q207 200 203 200Q198 200 195 202Q192 204 192 208V277L189 313Q208 319 212.5 320Q217 321 221 321Q226 321 229 318.5Q232 316 232 312V272Q238 292 250 306.5Q262 321 277 321Q291 321 298.5 313Q306 305 306 289V272Q312 294 324 307.5Q336 321 351 321ZM827 298Q818 298 811.5 288.5Q805 279 803 264Q819 264 829.5 269.5Q840 275 840 285Q840 291 836.5 294.5Q833 298 827 298ZM1150 298Q1141 298 1134.5 288.5Q1128 279 1126 264Q1142 264 1152.5 269.5Q1163 275 1163 285Q1163 291 1159.5 294.5Q1156 298 1150 298ZM128 298Q119 298 112.5 288.5Q106 279 104 264Q120 264 130.5 269.5Q141 275 141 285Q141 291 137.5 294.5Q134 298 128 298ZM663 242V219Q686 222 697 235Q708 248 708 270Q708 280 704.5 285Q701 290 695 290Q683 290 673 272Q663 254 663 242ZM888 226Q888 236 895 243Q902 250 913 250Q924 250 931.5 243Q939 236 939 226Q939 216 931.5 209.5Q924 203 913 203Q902 203 895 209.5Q888 216 888 226ZM710 320Q728 320 739 306Q750 292 750 269Q750 236 727.5 218.5Q705 201 663 201V161L666 129Q647 123 642.5 122Q638 121 634 121Q629 121 626 123Q623 125 623 129V204L598 201V198Q598 160 580.5 139.5Q563 119 530 119Q511 119 500 128.5Q489 138 489 153Q489 171 505.5 184Q522 197 559 206V248Q551 225 539 212.5Q527 200 513 200Q499 200 492 207.5Q485 215 485 231V234Q475 217 462 209Q449 201 432 201Q419 201 411 209Q403 217 403 231V332L374 330V334Q374 344 377 349Q380 354 386 354H403L400 384Q419 390 423.5 391Q428 392 432 392Q437 392 440 390Q443 388 443 384V355H490V352Q490 341 487 336Q484 331 478 331H443V245Q443 237 446 233Q449 229 456 229Q466 229 475.5 237Q485 245 485 255V280L482 313Q501 319 505.5 320Q510 321 514 321Q519 321 522 318.5Q525 316 525 312V246Q525 238 526.5 234.5Q528 231 532 231Q539 231 548.5 248Q558 265 558 279L556 313Q575 319 579.5 320Q584 321 587 321Q592 321 595 318.5Q598 316 598 312V213L623 216V277L620 313Q639 319 643.5 320Q648 321 652 321Q657 321 660 318.5Q663 316 663 312V272Q671 295 683 307.5Q695 320 710 320ZM531 148Q543 148 550 159Q557 170 558 194Q539 190 528 181.5Q517 173 517 162Q517 155 521 151.5Q525 148 531 148ZM1406 0H68V8H1406Z" glyph-name="uniF8FF" horiz-adv-x="1480" unicode="&#63743;" /><glyph d="M512 489H528L444 0Q373 -27 334.5 -63.5Q296 -100 296 -142Q296 -169 315.5 -184.5Q335 -200 366 -200Q376 -200 386.5 -198Q397 -196 406 -192L404 -208Q396 -212 387 -213.5Q378 -215 367 -215Q326 -215 303 -195.5Q280 -176 280 -142Q280 -97 321 -56.5Q362 -16 431 9L447 104Q417 48 369 18Q321 -12 259 -12Q170 -12 123.5 46.5Q77 105 93 197L144 489H160L109 196Q94 111 136 57Q178 3 260 3Q340 3 393 56Q446 109 462 200Z" glyph-name="uogonek" horiz-adv-x="598" unicode="&#371;" /><glyph d="M528 489 444 0H429L447 104Q417 48 369 18Q321 -12 259 -12Q170 -12 123.5 46.5Q77 105 93 197L144 489H160L109 196Q94 111 136 57Q178 3 260 3Q340 3 393 56Q446 109 462 200L512 489ZM335 489ZM413 0ZM454 654Q454 694 425.5 723Q397 752 356 752Q314 752 286 723.5Q258 695 258 654Q258 613 286 585Q314 557 356 557Q397 557 425.5 585.5Q454 614 454 654ZM274 654Q274 689 298 713Q322 737 356 737Q390 737 414 712.5Q438 688 438 654Q438 620 414 596Q390 572 356 572Q321 572 297.5 596Q274 620 274 654ZM335 489Z" glyph-name="uring" horiz-adv-x="598" unicode="&#367;" /><glyph d="M528 489 444 0H429L447 104Q417 48 369 18Q321 -12 259 -12Q170 -12 123.5 46.5Q77 105 93 197L144 489H160L109 196Q94 111 136 57Q178 3 260 3Q340 3 393 56Q446 109 462 200L512 489ZM335 489ZM413 0ZM355 646Q376 624 389 617Q402 610 418 610Q445 610 462.5 628.5Q480 647 483 679H467Q466 654 452.5 639.5Q439 625 418 625Q406 625 395 631Q384 637 364 658Q340 682 324.5 690Q309 698 291 698Q264 698 247 679Q230 660 223 624H239Q244 652 257 667.5Q270 683 290 683Q306 683 320 676Q334 669 355 646ZM335 489Z" glyph-name="utilde" horiz-adv-x="598" unicode="&#361;" /><glyph d="M206 0 80 489H96L216 21L497 489H514L220 0Z" glyph-name="v" horiz-adv-x="510" unicode="v" /><glyph d="M161 0 84 489H99L171 26L403 489H420L491 27L722 489H738L493 0H479L407 467L175 0ZM412 489Z" glyph-name="w" horiz-adv-x="738" unicode="w" /><glyph d="M161 0 84 489H99L171 26L403 489H420L491 27L722 489H738L493 0H479L407 467L175 0ZM412 489ZM538 721H519L421 587H439ZM412 489Z" glyph-name="wacute" horiz-adv-x="738" unicode="&#7811;" /><glyph d="M161 0 84 489H99L171 26L403 489H420L491 27L722 489H738L493 0H479L407 467L175 0ZM412 489ZM339 587 426 721H441L504 587H486L431 702L356 587ZM412 489Z" glyph-name="wcircumflex" horiz-adv-x="738" unicode="&#373;" /><glyph d="M161 0 84 489H99L171 26L403 489H420L491 27L722 489H738L493 0H479L407 467L175 0ZM412 489ZM351 654Q351 645 357 639Q363 633 372 633Q381 633 387 639Q393 645 393 654Q393 663 387 669Q381 675 372 675Q363 675 357 669Q351 663 351 654ZM463 654Q463 645 469 639Q475 633 484 633Q493 633 499 639Q505 645 505 654Q505 663 499 669Q493 675 484 675Q475 675 469 669Q463 663 463 654ZM412 489Z" glyph-name="wdieresis" horiz-adv-x="738" unicode="&#7813;" /><glyph d="M161 0 84 489H99L171 26L403 489H420L491 27L722 489H738L493 0H479L407 467L175 0ZM412 489ZM417 587 343 721H324L399 587ZM412 489Z" glyph-name="wgrave" horiz-adv-x="738" unicode="&#7809;" /><glyph d="M238 248 84 489H103L250 259L479 489H500L258 247L415 0H396L247 236L11 0H-10Z" glyph-name="x" horiz-adv-x="494" unicode="x" /><glyph d="M197 -17 82 489H98L208 3L501 489H518L93 -218H76ZM296 489Z" glyph-name="y" horiz-adv-x="513" unicode="y" /><glyph d="M197 -17 82 489H98L208 3L501 489H518L93 -218H76ZM296 489ZM422 721H403L305 587H323ZM296 489Z" glyph-name="yacute" horiz-adv-x="513" unicode="&#253;" /><glyph d="M197 -17 82 489H98L208 3L501 489H518L93 -218H76ZM296 489ZM223 587 310 721H325L388 587H370L315 702L240 587ZM296 489Z" glyph-name="ycircumflex" horiz-adv-x="513" unicode="&#375;" /><glyph d="M197 -17 82 489H98L208 3L501 489H518L93 -218H76ZM296 489ZM235 654Q235 645 241 639Q247 633 256 633Q265 633 271 639Q277 645 277 654Q277 663 271 669Q265 675 256 675Q247 675 241 669Q235 663 235 654ZM347 654Q347 645 353 639Q359 633 368 633Q377 633 383 639Q389 645 389 654Q389 663 383 669Q377 675 368 675Q359 675 353 669Q347 663 347 654ZM296 489Z" glyph-name="ydieresis" horiz-adv-x="513" unicode="&#255;" /><glyph d="M283 215H106L108 230H285L300 315H124L126 330H293L114 700H131L310 330L617 700H636L329 330H500L498 315H317L316 314L301 230H482L480 215H299L261 0H245Z" glyph-name="yen" horiz-adv-x="596" unicode="&#165;" /><glyph d="M197 -17 82 489H98L208 3L501 489H518L93 -218H76ZM296 489ZM301 587 227 721H208L283 587ZM296 489Z" glyph-name="ygrave" horiz-adv-x="513" unicode="&#7923;" /><glyph d="M14 15H373L371 0H-8L-6 15L432 474H93L95 489H454L452 474ZM275 489Z" glyph-name="z" horiz-adv-x="454" unicode="z" /><glyph d="M14 15H373L371 0H-8L-6 15L432 474H93L95 489H454L452 474ZM275 489ZM401 721H382L284 587H302ZM275 489Z" glyph-name="zacute" horiz-adv-x="454" unicode="&#378;" /><glyph d="M14 15H373L371 0H-8L-6 15L432 474H93L95 489H454L452 474ZM275 489ZM292 587H277L214 721H232L287 606L362 721H379ZM275 489Z" glyph-name="zcaron" horiz-adv-x="454" unicode="&#382;" /><glyph d="M14 15H373L371 0H-8L-6 15L432 474H93L95 489H454L452 474ZM275 489ZM268 654Q268 643 276 635Q284 627 295 627Q306 627 314 635Q322 643 322 654Q322 665 314 673.5Q306 682 295 682Q284 682 276 673.5Q268 665 268 654ZM275 489Z" glyph-name="zdotaccent" horiz-adv-x="454" unicode="&#380;" /><glyph d="M275 -12Q394 -12 474 123Q554 258 554 459Q554 579 504.5 645.5Q455 712 365 712Q246 712 166.5 576.5Q87 441 87 239Q87 121 135.5 54.5Q184 -12 275 -12ZM538 459Q538 268 463 135.5Q388 3 276 3Q193 3 148 65.5Q103 128 103 239Q103 431 178 564Q253 697 364 697Q448 697 493 634.5Q538 572 538 459Z" glyph-name="zero" horiz-adv-x="604" unicode="0" /><glyph d="M280 224Q280 287 253.5 321Q227 355 177 355Q116 355 74.5 289.5Q33 224 33 126Q33 68 60.5 31Q88 -6 135 -6Q198 -6 239 59.5Q280 125 280 224ZM266 224Q266 133 229 70Q192 7 136 7Q94 7 70 39.5Q46 72 46 125Q46 216 83 279Q120 342 176 342Q220 342 243 311.5Q266 281 266 224Z" glyph-name="zero.denominator" horiz-adv-x="337" unicode="&#63061;" /><glyph d="M255 84Q255 147 228.5 181Q202 215 152 215Q91 215 49.5 149.5Q8 84 8 -14Q8 -72 35.5 -109Q63 -146 110 -146Q173 -146 214 -80.5Q255 -15 255 84ZM241 84Q241 -7 204 -70Q167 -133 111 -133Q69 -133 45 -100.5Q21 -68 21 -15Q21 76 58 139Q95 202 151 202Q195 202 218 171.5Q241 141 241 84Z" glyph-name="zero.inferior" horiz-adv-x="337" unicode="&#8320;" /><glyph d="M341 574Q341 637 314.5 671Q288 705 238 705Q177 705 135.5 639.5Q94 574 94 476Q94 418 121.5 381Q149 344 196 344Q259 344 300 409.5Q341 475 341 574ZM327 574Q327 483 290 420Q253 357 197 357Q155 357 131 389.5Q107 422 107 475Q107 566 144 629Q181 692 237 692Q281 692 304 661.5Q327 631 327 574Z" glyph-name="zero.numerator" horiz-adv-x="337" unicode="&#63073;" /><glyph d="M366 714Q366 777 339.5 811Q313 845 263 845Q202 845 160.5 779.5Q119 714 119 616Q119 558 146.5 521Q174 484 221 484Q284 484 325 549.5Q366 615 366 714ZM352 714Q352 623 315 560Q278 497 222 497Q180 497 156 529.5Q132 562 132 615Q132 706 169 769Q206 832 262 832Q306 832 329 801.5Q352 771 352 714Z" glyph-name="zero.superior" horiz-adv-x="337" unicode="&#8304;" /><glyph d="M253 -12Q372 -12 452 123Q532 258 532 459Q532 579 482.5 645.5Q433 712 343 712Q224 712 144.5 576.5Q65 441 65 239Q65 121 113.5 54.5Q162 -12 253 -12ZM516 459Q516 268 441 135.5Q366 3 254 3Q171 3 126 65.5Q81 128 81 239Q81 431 156 564Q231 697 342 697Q426 697 471 634.5Q516 572 516 459Z" glyph-name="zero.tab" horiz-adv-x="560" unicode="&#65296;" /></font>
</defs>
</svg>
