<?xml version="1.0" standalone="no"?><!DOCTYPE svg PUBLIC "-//W3C//DTD SVG 1.1//EN" "http://www.w3.org/Graphics/SVG/1.1/DTD/svg11.dtd" ><svg version="1.1" xmlns="http://www.w3.org/2000/svg"><defs><font horiz-adv-x="0" id="font"><font-face ascent="750" bbox="-136 -230 1418 969" cap-height="700" descent="-250" font-family="Web use ONLY | Copyright (C) Emtype Foundry" font-stretch="normal" font-weight="300" units-per-em="1000" x-height="497" /><missing-glyph d="M52 351Q52 501 157.5 606.5Q263 712 413 712Q563 712 668.5 606.5Q774 501 774 351Q774 201 668 94.5Q562 -12 413 -12Q264 -12 158 94.5Q52 201 52 351ZM306 565H229L375 346L229 127H307L414 287L520 127H598L452 346L598 565H521L414 404Z" horiz-adv-x="826" /><glyph d="M168 185 61 0H-16L389 700H462L612 0H538L499 185ZM411 611 204 250H486ZM425 700ZM561 0Z" glyph-name="A" horiz-adv-x="687" unicode="A" /><glyph d="M212 189 57 0H-28L547 700H1060L1049 634H648L606 393H976L965 328H595L548 66H959L947 0H466L499 189ZM576 634 264 253H510L577 634Z" glyph-name="AE" horiz-adv-x="1047" unicode="&#198;" /><glyph d="M168 185 61 0H-16L389 700H462L612 0H538L499 185ZM411 611 204 250H486ZM425 700ZM561 0ZM584 927H504L404 787H468ZM425 700Z" glyph-name="Aacute" horiz-adv-x="687" unicode="&#193;" /><glyph d="M168 185 61 0H-16L389 700H462L612 0H538L499 185ZM411 611 204 250H486ZM425 700ZM561 0ZM439 832Q477 832 499.5 856.5Q522 881 527 927H576Q572 862 535.5 823.5Q499 785 437 785Q375 785 343 824.5Q311 864 317 927H366Q365 878 383 855Q401 832 439 832ZM425 700Z" glyph-name="Abreve" horiz-adv-x="687" unicode="&#258;" /><glyph d="M168 185 61 0H-16L389 700H462L612 0H538L499 185ZM411 611 204 250H486ZM425 700ZM561 0ZM320 787 415 927H490L561 787H503L449 880L378 787ZM425 700Z" glyph-name="Acircumflex" horiz-adv-x="687" unicode="&#194;" /><glyph d="M168 185 61 0H-16L389 700H462L612 0H538L499 185ZM411 611 204 250H486ZM425 700ZM561 0ZM321 857Q321 838 335 824Q349 810 368 810Q388 810 402 824Q416 838 416 857Q416 876 402 890Q388 904 368 904Q349 904 335 890.5Q321 877 321 857ZM472 857Q472 837 485.5 823.5Q499 810 518 810Q538 810 552 824Q566 838 566 857Q566 876 552 890Q538 904 518 904Q499 904 485.5 890.5Q472 877 472 857ZM424 700Z" glyph-name="Adieresis" horiz-adv-x="687" unicode="&#196;" /><glyph d="M168 185 61 0H-16L389 700H462L612 0H538L499 185ZM411 611 204 250H486ZM425 700ZM561 0ZM455 787 379 927H301L392 787ZM425 700Z" glyph-name="Agrave" horiz-adv-x="687" unicode="&#192;" /><glyph d="M168 185 61 0H-16L389 700H462L612 0H538L499 185ZM411 611 204 250H486ZM425 700ZM561 0ZM557 830H311L321 883H567ZM424 700Z" glyph-name="Amacron" horiz-adv-x="687" unicode="&#256;" /><glyph d="M168 185 61 0H-16L389 700H462L612 0H592Q537 -29 510 -60Q483 -91 483 -125Q483 -150 498.5 -163Q514 -176 544 -176Q554 -176 562.5 -175Q571 -174 578 -172L570 -214Q561 -218 550 -220Q539 -222 524 -222Q477 -222 450.5 -199Q424 -176 424 -137Q424 -97 453 -60.5Q482 -24 537 2L499 185ZM411 611 204 250H486Z" glyph-name="Aogonek" horiz-adv-x="687" unicode="&#260;" /><glyph d="M168 185 61 0H-16L389 700H462L612 0H538L499 185ZM411 611 204 250H486ZM425 700ZM561 0ZM549 864Q549 907 518 938Q487 969 444 969Q400 969 370 938.5Q340 908 340 864Q340 820 369.5 790Q399 760 444 760Q488 760 518.5 790.5Q549 821 549 864ZM385 864Q385 888 402.5 906Q420 924 444 924Q468 924 485.5 906Q503 888 503 864Q503 840 485.5 822.5Q468 805 444 805Q420 805 402.5 822.5Q385 840 385 864ZM425 700Z" glyph-name="Aring" horiz-adv-x="687" unicode="&#197;" /><glyph d="M168 185 61 0H-16L389 700H462L612 0H538L499 185ZM411 611 204 250H486ZM425 700ZM561 0ZM438 830Q462 814 475.5 809Q489 804 503 804Q535 804 554.5 828.5Q574 853 578 897H530Q528 877 520.5 868Q513 859 499 859Q490 859 479 863.5Q468 868 446 882Q419 899 403.5 904.5Q388 910 374 910Q339 910 317.5 885.5Q296 861 288 814H337Q342 836 351 846Q360 856 375 856Q388 856 401.5 851Q415 846 438 830ZM430 700Z" glyph-name="Atilde" horiz-adv-x="687" unicode="&#195;" /><glyph d="M65 0 188 700H469Q560 700 613 655Q666 610 666 539Q666 476 626.5 428Q587 380 520 359Q567 339 594.5 297Q622 255 622 206Q622 117 552 58.5Q482 0 383 0ZM594 530Q594 577 558.5 606Q523 635 461 635H248L205 394H434Q500 394 547 433Q594 472 594 530ZM549 211Q549 264 512.5 297Q476 330 413 330H194L147 65H394Q458 65 503.5 108Q549 151 549 211Z" glyph-name="B" horiz-adv-x="698" unicode="B" /><glyph d="M435 645Q317 645 232.5 545.5Q148 446 148 308Q148 193 211 123.5Q274 54 380 54Q448 54 502 90.5Q556 127 601 203L661 165Q611 78 538 33Q465 -12 375 -12Q240 -12 157.5 75Q75 162 75 301Q75 380 100 453Q125 526 173 583Q224 645 292 678.5Q360 712 435 712Q545 712 617 656Q689 600 711 500L644 474Q620 560 568 602.5Q516 645 435 645ZM439 700ZM379 10Z" glyph-name="C" horiz-adv-x="714" unicode="C" /><glyph d="M435 645Q317 645 232.5 545.5Q148 446 148 308Q148 193 211 123.5Q274 54 380 54Q448 54 502 90.5Q556 127 601 203L661 165Q611 78 538 33Q465 -12 375 -12Q240 -12 157.5 75Q75 162 75 301Q75 380 100 453Q125 526 173 583Q224 645 292 678.5Q360 712 435 712Q545 712 617 656Q689 600 711 500L644 474Q620 560 568 602.5Q516 645 435 645ZM439 700ZM379 10ZM598 927H518L418 787H482ZM439 700Z" glyph-name="Cacute" horiz-adv-x="714" unicode="&#262;" /><glyph d="M435 645Q317 645 232.5 545.5Q148 446 148 308Q148 193 211 123.5Q274 54 380 54Q448 54 502 90.5Q556 127 601 203L661 165Q611 78 538 33Q465 -12 375 -12Q240 -12 157.5 75Q75 162 75 301Q75 380 100 453Q125 526 173 583Q224 645 292 678.5Q360 712 435 712Q545 712 617 656Q689 600 711 500L644 474Q620 560 568 602.5Q516 645 435 645ZM439 700ZM379 10ZM484 787H409L338 927H396L451 835L521 927H579ZM439 700Z" glyph-name="Ccaron" horiz-adv-x="714" unicode="&#268;" /><glyph d="M287 -102 275 -80 342 -11Q220 1 147.5 86.5Q75 172 75 301Q75 380 100 453Q125 526 173 583Q224 645 292 678.5Q360 712 435 712Q545 712 617 656Q689 600 711 500L644 474Q620 560 568 602.5Q516 645 435 645Q317 645 232.5 545.5Q148 446 148 308Q148 193 211 123.5Q274 54 380 54Q448 54 502 90.5Q556 127 601 203L661 165Q613 82 543.5 37Q474 -8 388 -12L338 -63Q342 -62 346 -62Q350 -62 357 -62Q396 -62 417.5 -80Q439 -98 439 -129Q439 -170 407.5 -195.5Q376 -221 325 -221Q304 -221 281 -215Q258 -209 239 -199L247 -161Q267 -172 283.5 -176.5Q300 -181 320 -181Q349 -181 366 -167.5Q383 -154 383 -130Q383 -113 368.5 -103.5Q354 -94 329 -94Q320 -94 309.5 -96Q299 -98 287 -102Z" glyph-name="Ccedilla" horiz-adv-x="714" unicode="&#199;" /><glyph d="M435 645Q317 645 232.5 545.5Q148 446 148 308Q148 193 211 123.5Q274 54 380 54Q448 54 502 90.5Q556 127 601 203L661 165Q611 78 538 33Q465 -12 375 -12Q240 -12 157.5 75Q75 162 75 301Q75 380 100 453Q125 526 173 583Q224 645 292 678.5Q360 712 435 712Q545 712 617 656Q689 600 711 500L644 474Q620 560 568 602.5Q516 645 435 645ZM439 700ZM379 10ZM334 787 429 927H504L575 787H517L463 880L392 787ZM439 700Z" glyph-name="Ccircumflex" horiz-adv-x="714" unicode="&#264;" /><glyph d="M406 857Q406 835 421.5 819Q437 803 459 803Q482 803 497.5 819Q513 835 513 857Q513 880 497.5 895.5Q482 911 459 911Q437 911 421.5 895Q406 879 406 857ZM439 700ZM435 645Q317 645 232.5 545.5Q148 446 148 308Q148 193 211 123.5Q274 54 380 54Q448 54 502 90.5Q556 127 601 203L661 165Q611 78 538 33Q465 -12 375 -12Q240 -12 157.5 75Q75 162 75 301Q75 380 100 453Q125 526 173 583Q224 645 292 678.5Q360 712 435 712Q545 712 617 656Q689 600 711 500L644 474Q620 560 568 602.5Q516 645 435 645ZM439 700ZM379 10Z" glyph-name="Cdotaccent" horiz-adv-x="714" unicode="&#266;" /><glyph d="M65 0 188 700H414Q554 700 640.5 613.5Q727 527 727 397Q727 226 609.5 113Q492 0 319 0ZM654 391Q654 497 585 565Q516 633 402 633H247L148 67H330Q466 67 560 161.5Q654 256 654 391ZM452 700Z" glyph-name="D" horiz-adv-x="765" unicode="D" /><glyph d="M65 0 188 700H414Q554 700 640.5 613.5Q727 527 727 397Q727 226 609.5 113Q492 0 319 0ZM654 391Q654 497 585 565Q516 633 402 633H247L148 67H330Q466 67 560 161.5Q654 256 654 391ZM452 700ZM498 787H423L352 927H410L465 835L535 927H593ZM453 700Z" glyph-name="Dcaron" horiz-adv-x="765" unicode="&#270;" /><glyph d="M29 321 40 379H150L206 700H432Q572 700 658.5 613.5Q745 527 745 397Q745 226 627.5 113Q510 0 337 0H83L139 321ZM672 391Q672 497 603 565Q534 633 420 633H265L221 379H448L437 321H210L166 67H348Q484 67 578 161.5Q672 256 672 391Z" glyph-name="Dcroat" horiz-adv-x="783" unicode="&#272;" /><glyph d="M-5 0 6 54 379 700H452L594 54L583 0ZM401 610 89 65H517Z" glyph-name="Delta" horiz-adv-x="669" unicode="&#8710;" /><glyph d="M65 0 188 700H659L648 634H247L205 393H575L564 328H194L147 66H558L546 0ZM425 700ZM498 0Z" glyph-name="E" horiz-adv-x="646" unicode="E" /><glyph d="M65 0 188 700H659L648 634H247L205 393H575L564 328H194L147 66H558L546 0ZM425 700ZM498 0ZM584 927H504L404 787H468ZM425 700Z" glyph-name="Eacute" horiz-adv-x="646" unicode="&#201;" /><glyph d="M65 0 188 700H659L648 634H247L205 393H575L564 328H194L147 66H558L546 0ZM425 700ZM498 0ZM439 832Q477 832 499.5 856.5Q522 881 527 927H576Q572 862 535.5 823.5Q499 785 437 785Q375 785 343 824.5Q311 864 317 927H366Q365 878 383 855Q401 832 439 832ZM425 700Z" glyph-name="Ebreve" horiz-adv-x="646" unicode="&#276;" /><glyph d="M65 0 188 700H659L648 634H247L205 393H575L564 328H194L147 66H558L546 0ZM425 700ZM498 0ZM470 787H395L324 927H382L437 835L507 927H565ZM425 700Z" glyph-name="Ecaron" horiz-adv-x="646" unicode="&#282;" /><glyph d="M320 787 415 927H490L561 787H503L449 880L378 787ZM425 700ZM65 0 188 700H659L648 634H247L205 393H575L564 328H194L147 66H558L546 0ZM425 700ZM498 0Z" glyph-name="Ecircumflex" horiz-adv-x="646" unicode="&#202;" /><glyph d="M65 0 188 700H659L648 634H247L205 393H575L564 328H194L147 66H558L546 0ZM425 700ZM498 0ZM322 857Q322 838 336 824Q350 810 369 810Q389 810 403 824Q417 838 417 857Q417 876 403 890Q389 904 369 904Q350 904 336 890.5Q322 877 322 857ZM473 857Q473 837 486.5 823.5Q500 810 519 810Q539 810 553 824Q567 838 567 857Q567 876 553 890Q539 904 519 904Q500 904 486.5 890.5Q473 877 473 857ZM425 700Z" glyph-name="Edieresis" horiz-adv-x="646" unicode="&#203;" /><glyph d="M392 857Q392 835 407.5 819Q423 803 445 803Q468 803 483.5 819Q499 835 499 857Q499 880 483.5 895.5Q468 911 445 911Q423 911 407.5 895Q392 879 392 857ZM425 700ZM65 0 188 700H659L648 634H247L205 393H575L564 328H194L147 66H558L546 0ZM425 700ZM498 0Z" glyph-name="Edotaccent" horiz-adv-x="646" unicode="&#278;" /><glyph d="M455 787 379 927H301L392 787ZM425 700ZM65 0 188 700H659L648 634H247L205 393H575L564 328H194L147 66H558L546 0ZM425 700ZM498 0Z" glyph-name="Egrave" horiz-adv-x="646" unicode="&#200;" /><glyph d="M65 0 188 700H659L648 634H247L205 393H575L564 328H194L147 66H558L546 0ZM425 700ZM498 0ZM557 830H311L321 883H567ZM424 700Z" glyph-name="Emacron" horiz-adv-x="646" unicode="&#274;" /><glyph d="M194 328 147 66H558L546 0H528Q473 -29 446 -60Q419 -91 419 -125Q419 -150 434.5 -163Q450 -176 480 -176Q490 -176 498.5 -175Q507 -174 514 -172L506 -214Q497 -218 486 -220Q475 -222 460 -222Q413 -222 386.5 -199Q360 -176 360 -137Q360 -97 388 -61Q416 -25 468 0H65L188 700H659L648 634H247L205 393H575L564 328Z" glyph-name="Eogonek" horiz-adv-x="646" unicode="&#280;" /><glyph d="M29 321 40 379H150L206 700H432Q572 700 658.5 613.5Q745 527 745 397Q745 226 627.5 113Q510 0 337 0H83L139 321ZM672 391Q672 497 603 565Q534 633 420 633H265L221 379H448L437 321H210L166 67H348Q484 67 578 161.5Q672 256 672 391Z" glyph-name="Eth" horiz-adv-x="783" unicode="&#208;" /><glyph d="M124 260H46L54 311H126Q128 330 130 348.5Q132 367 135 385H68L77 436H147Q182 564 256.5 638Q331 712 426 712Q520 712 576 658Q632 604 641 504L572 488Q564 569 528 608Q492 647 426 647Q360 647 305 590Q250 533 222 436H421L413 385H209Q206 369 203.5 350.5Q201 332 199 311H399L391 260H197Q198 159 238 105.5Q278 52 354 52Q406 52 448.5 89.5Q491 127 526 204L588 171Q545 80 485 34Q425 -12 348 -12Q241 -12 182.5 59Q124 130 124 256Z" glyph-name="Euro" horiz-adv-x="653" unicode="&#8364;" /><glyph d="M65 0 188 700H683L671 634H248L203 380H596L585 314H191L136 0Z" glyph-name="F" horiz-adv-x="644" unicode="F" /><glyph d="M423 286 435 351H713L651 0H589L608 109Q567 51 506 19.5Q445 -12 374 -12Q237 -12 156 72.5Q75 157 75 294Q75 378 100 452Q125 526 173 583Q224 645 294.5 678.5Q365 712 445 712Q555 712 630.5 658.5Q706 605 735 506L667 479Q641 562 585 603.5Q529 645 443 645Q321 645 234.5 545.5Q148 446 148 299Q148 188 212.5 121.5Q277 55 387 55Q479 55 547 111Q615 167 629 251L635 286ZM447 700ZM374 0Z" glyph-name="G" horiz-adv-x="764" unicode="G" /><glyph d="M423 286 435 351H713L651 0H589L608 109Q567 51 506 19.5Q445 -12 374 -12Q237 -12 156 72.5Q75 157 75 294Q75 378 100 452Q125 526 173 583Q224 645 294.5 678.5Q365 712 445 712Q555 712 630.5 658.5Q706 605 735 506L667 479Q641 562 585 603.5Q529 645 443 645Q321 645 234.5 545.5Q148 446 148 299Q148 188 212.5 121.5Q277 55 387 55Q479 55 547 111Q615 167 629 251L635 286ZM447 700ZM374 0ZM461 832Q499 832 521.5 856.5Q544 881 549 927H598Q594 862 557.5 823.5Q521 785 459 785Q397 785 365 824.5Q333 864 339 927H388Q387 878 405 855Q423 832 461 832ZM447 700Z" glyph-name="Gbreve" horiz-adv-x="764" unicode="&#286;" /><glyph d="M342 787 437 927H512L583 787H525L471 880L400 787ZM447 700ZM423 286 435 351H713L651 0H589L608 109Q567 51 506 19.5Q445 -12 374 -12Q237 -12 156 72.5Q75 157 75 294Q75 378 100 452Q125 526 173 583Q224 645 294.5 678.5Q365 712 445 712Q555 712 630.5 658.5Q706 605 735 506L667 479Q641 562 585 603.5Q529 645 443 645Q321 645 234.5 545.5Q148 446 148 299Q148 188 212.5 121.5Q277 55 387 55Q479 55 547 111Q615 167 629 251L635 286ZM447 700ZM374 0Z" glyph-name="Gcircumflex" horiz-adv-x="764" unicode="&#284;" /><glyph d="M414 857Q414 835 429.5 819Q445 803 467 803Q490 803 505.5 819Q521 835 521 857Q521 880 505.5 895.5Q490 911 467 911Q445 911 429.5 895Q414 879 414 857ZM447 700ZM423 286 435 351H713L651 0H589L608 109Q567 51 506 19.5Q445 -12 374 -12Q237 -12 156 72.5Q75 157 75 294Q75 378 100 452Q125 526 173 583Q224 645 294.5 678.5Q365 712 445 712Q555 712 630.5 658.5Q706 605 735 506L667 479Q641 562 585 603.5Q529 645 443 645Q321 645 234.5 545.5Q148 446 148 299Q148 188 212.5 121.5Q277 55 387 55Q479 55 547 111Q615 167 629 251L635 286ZM447 700ZM374 0Z" glyph-name="Gdotaccent" horiz-adv-x="764" unicode="&#288;" /><glyph d="M65 0 188 700H259L205 395H609L663 700H734L611 0H540L598 329H194L136 0ZM461 700Z" glyph-name="H" horiz-adv-x="762" unicode="H" /><glyph d="M75 513 86 571H174L197 700H268L245 571H649L672 700H743L720 571H807L796 513H710L620 0H549L607 329H203L145 0H74L164 513ZM235 513 214 395H618L639 513Z" glyph-name="Hbar" horiz-adv-x="780" unicode="&#294;" /><glyph d="M65 0 188 700H259L205 395H609L663 700H734L611 0H540L598 329H194L136 0ZM461 700ZM356 787 451 927H526L597 787H539L485 880L414 787ZM461 700Z" glyph-name="Hcircumflex" horiz-adv-x="762" unicode="&#292;" /><glyph d="M65 0 188 700H259L136 0ZM223 700ZM90 0Z" glyph-name="I" horiz-adv-x="287" unicode="I" /><glyph d="M4 0 16 65H135L235 635H115L127 700H440L429 635H306L206 65H329L318 0ZM283 700ZM153 0Z" glyph-name="I.alt" horiz-adv-x="407" /><glyph d="M65 0 188 700H259L136 0ZM223 700ZM90 0ZM726 194 814 700H744L656 199Q643 126 607 89.5Q571 53 512 53Q444 53 408 92Q372 131 374 203L304 192Q300 100 357 44Q414 -12 510 -12Q599 -12 653.5 40Q708 92 726 194ZM779 700Z" glyph-name="IJ" horiz-adv-x="836" unicode="&#306;" /><glyph d="M4 0 16 65H135L235 635H115L127 700H440L429 635H306L206 65H329L318 0ZM670 633 681 700H939L851 194Q834 92 779 40Q724 -12 635 -12Q539 -12 482 44Q425 100 429 192L499 203Q497 131 533 92Q569 53 637 53Q696 53 732 89.5Q768 126 781 199L857 633Z" glyph-name="IJ.alt" horiz-adv-x="961" /><glyph d="M65 0 188 700H259L136 0ZM223 700ZM90 0ZM382 927H302L202 787H266ZM223 700Z" glyph-name="Iacute" horiz-adv-x="287" unicode="&#205;" /><glyph d="M4 0 16 65H135L235 635H115L127 700H440L429 635H306L206 65H329L318 0ZM283 700ZM153 0ZM441 927H361L261 787H325ZM282 700Z" glyph-name="Iacute.alt" horiz-adv-x="407" /><glyph d="M65 0 188 700H259L136 0ZM223 700ZM90 0ZM118 787 213 927H288L359 787H301L247 880L176 787ZM223 700Z" glyph-name="Icircumflex" horiz-adv-x="287" unicode="&#206;" /><glyph d="M4 0 16 65H135L235 635H115L127 700H440L429 635H306L206 65H329L318 0ZM283 700ZM153 0ZM175 787 270 927H345L416 787H358L304 880L233 787ZM280 700Z" glyph-name="Icircumflex.alt" horiz-adv-x="407" /><glyph d="M65 0 188 700H259L136 0ZM223 700ZM90 0ZM120 857Q120 838 134 824Q148 810 167 810Q187 810 201 824Q215 838 215 857Q215 876 201 890Q187 904 167 904Q148 904 134 890.5Q120 877 120 857ZM271 857Q271 837 284.5 823.5Q298 810 317 810Q337 810 351 824Q365 838 365 857Q365 876 351 890Q337 904 317 904Q298 904 284.5 890.5Q271 877 271 857ZM223 700Z" glyph-name="Idieresis" horiz-adv-x="287" unicode="&#207;" /><glyph d="M4 0 16 65H135L235 635H115L127 700H440L429 635H306L206 65H329L318 0ZM283 700ZM153 0ZM178 857Q178 838 192 824Q206 810 225 810Q245 810 259 824Q273 838 273 857Q273 876 259 890Q245 904 225 904Q206 904 192 890.5Q178 877 178 857ZM329 857Q329 837 342.5 823.5Q356 810 375 810Q395 810 409 824Q423 838 423 857Q423 876 409 890Q395 904 375 904Q356 904 342.5 890.5Q329 877 329 857ZM281 700Z" glyph-name="Idieresis.alt" horiz-adv-x="407" /><glyph d="M65 0 188 700H259L136 0ZM223 700ZM90 0ZM190 857Q190 835 205.5 819Q221 803 243 803Q266 803 281.5 819Q297 835 297 857Q297 880 281.5 895.5Q266 911 243 911Q221 911 205.5 895Q190 879 190 857ZM223 700Z" glyph-name="Idotaccent" horiz-adv-x="287" unicode="&#304;" /><glyph d="M247 857Q247 835 262.5 819Q278 803 300 803Q323 803 338.5 819Q354 835 354 857Q354 880 338.5 895.5Q323 911 300 911Q278 911 262.5 895Q247 879 247 857ZM280 700ZM4 0 16 65H135L235 635H115L127 700H440L429 635H306L206 65H329L318 0ZM283 700ZM153 0Z" glyph-name="Idotaccent.alt" horiz-adv-x="407" /><glyph d="M65 0 188 700H259L136 0ZM223 700ZM90 0ZM253 787 177 927H99L190 787ZM223 700Z" glyph-name="Igrave" horiz-adv-x="287" unicode="&#204;" /><glyph d="M313 787 237 927H159L250 787ZM283 700ZM4 0 16 65H135L235 635H115L127 700H440L429 635H306L206 65H329L318 0ZM283 700ZM153 0Z" glyph-name="Igrave.alt" horiz-adv-x="407" /><glyph d="M65 0 188 700H259L136 0ZM223 700ZM90 0ZM355 830H109L119 883H365ZM222 700Z" glyph-name="Imacron" horiz-adv-x="287" unicode="&#298;" /><glyph d="M4 0 16 65H135L235 635H115L127 700H440L429 635H306L206 65H329L318 0ZM283 700ZM153 0ZM422 830H176L186 883H432ZM289 700Z" glyph-name="Imacron.alt" horiz-adv-x="407" /><glyph d="M65 2 188 700H259L136 0H119Q64 -29 37 -60Q10 -91 10 -125Q10 -150 25.5 -163Q41 -176 71 -176Q81 -176 89 -175Q97 -174 105 -172L98 -214Q88 -218 77.5 -220Q67 -222 51 -222Q4 -222 -22.5 -199Q-49 -176 -49 -137Q-49 -97 -19.5 -60Q10 -23 65 2Z" glyph-name="Iogonek" horiz-adv-x="287" unicode="&#302;" /><glyph d="M4 0 16 65H135L235 635H115L127 700H440L429 635H306L206 65H329L318 0H300Q245 -29 218 -60Q191 -91 191 -125Q191 -150 206.5 -163Q222 -176 251 -176Q261 -176 270 -175Q279 -174 286 -172L278 -214Q269 -218 258 -220Q247 -222 232 -222Q185 -222 158.5 -199Q132 -176 132 -137Q132 -97 160 -61Q188 -25 240 0Z" glyph-name="Iogonek.alt" horiz-adv-x="407" /><glyph d="M65 0 188 700H259L136 0ZM223 700ZM90 0ZM238 830Q262 814 275.5 809Q289 804 303 804Q335 804 354.5 828.5Q374 853 378 897H330Q328 877 320.5 868Q313 859 299 859Q290 859 279 863.5Q268 868 246 882Q219 899 203.5 904.5Q188 910 174 910Q139 910 117.5 885.5Q96 861 88 814H137Q142 836 151 846Q160 856 175 856Q188 856 201.5 851Q215 846 238 830ZM230 700Z" glyph-name="Itilde" horiz-adv-x="287" unicode="&#296;" /><glyph d="M4 0 16 65H135L235 635H115L127 700H440L429 635H306L206 65H329L318 0ZM283 700ZM153 0ZM302 830Q326 814 339.5 809Q353 804 367 804Q399 804 418.5 828.5Q438 853 442 897H394Q392 877 384.5 868Q377 859 363 859Q354 859 343 863.5Q332 868 310 882Q283 899 267.5 904.5Q252 910 238 910Q203 910 181.5 885.5Q160 861 152 814H201Q206 836 215 846Q224 856 239 856Q252 856 265.5 851Q279 846 302 830ZM294 700Z" glyph-name="Itilde.alt" horiz-adv-x="407" /><glyph d="M439 194 527 700H457L369 199Q356 126 320 89.5Q284 53 225 53Q157 53 121 92Q85 131 87 203L17 192Q13 100 70 44Q127 -12 223 -12Q312 -12 366.5 40Q421 92 439 194ZM492 700Z" glyph-name="J" horiz-adv-x="549" unicode="J" /><glyph d="M263 633 274 700H532L444 194Q427 92 372 40Q317 -12 228 -12Q132 -12 75 44Q18 100 22 192L92 203Q90 131 126 92Q162 53 230 53Q289 53 325 89.5Q361 126 374 199L450 633ZM374 700Z" glyph-name="J.alt" horiz-adv-x="553" /><glyph d="M439 194 527 700H457L369 199Q356 126 320 89.5Q284 53 225 53Q157 53 121 92Q85 131 87 203L17 192Q13 100 70 44Q127 -12 223 -12Q312 -12 366.5 40Q421 92 439 194ZM492 700ZM387 787 482 927H557L628 787H570L516 880L445 787ZM492 700Z" glyph-name="Jcircumflex" horiz-adv-x="549" unicode="&#308;" /><glyph d="M294 787 389 927H464L535 787H477L423 880L352 787ZM263 633 274 700H532L444 194Q427 92 372 40Q317 -12 228 -12Q132 -12 75 44Q18 100 22 192L92 203Q90 131 126 92Q162 53 230 53Q289 53 325 89.5Q361 126 374 199L450 633Z" glyph-name="Jcircumflex.alt" horiz-adv-x="553" /><glyph d="M378 395 597 0H515L322 346L173 208L136 0H65L189 700H260L190 306L613 700H706ZM324 0Z" glyph-name="K" horiz-adv-x="654" unicode="K" /><glyph d="M65 0 188 700H259L148 67H523L511 0ZM223 700ZM314 700ZM400 350ZM290 0Z" glyph-name="L" horiz-adv-x="576" unicode="L" /><glyph d="M382 927H302L202 787H266ZM223 700ZM65 0 188 700H259L148 67H523L511 0ZM223 700ZM314 700ZM400 350ZM290 0Z" glyph-name="Lacute" horiz-adv-x="576" unicode="&#313;" /><glyph d="M440 730H368L319 582H374ZM314 700ZM65 0 188 700H259L148 67H523L511 0ZM223 700ZM314 700ZM400 350ZM290 0Z" glyph-name="Lcaron" horiz-adv-x="576" unicode="&#317;" /><glyph d="M65 0 188 700H259L148 67H523L511 0ZM223 700ZM314 700ZM400 350ZM290 0ZM398 351Q398 329 413 314Q428 299 450 299Q472 299 487 314Q502 329 502 351Q502 373 487 388Q472 403 450 403Q428 403 413 388Q398 373 398 351ZM409 358Z" glyph-name="Ldot" horiz-adv-x="579" unicode="&#319;" /><glyph d="M65 0 188 700H259L148 67H523L511 0ZM223 700ZM314 700ZM400 350ZM290 0ZM641 0 764 700H835L724 67H1099L1087 0ZM799 700ZM890 700ZM976 350ZM866 0ZM398 351Q398 329 413 314Q428 299 450 299Q472 299 487 314Q502 329 502 351Q502 373 487 388Q472 403 450 403Q428 403 413 388Q398 373 398 351ZM409 358Z" glyph-name="Lgeminada" horiz-adv-x="1152" /><glyph d="M62 272 33 322 149 387 204 700H275L228 432L331 490L358 438L215 358L164 67H539L527 0H81L136 314Z" glyph-name="Lslash" horiz-adv-x="592" unicode="&#321;" /><glyph d="M65 0 188 700H284L422 106L766 700H870L747 0H680L788 613L428 -3H380L237 612L129 0Z" glyph-name="M" horiz-adv-x="899" unicode="M" /><glyph d="M65 0 188 700H259L564 117L666 700H734L610 0H551L238 601L132 0ZM461 700ZM344 0Z" glyph-name="N" horiz-adv-x="762" unicode="N" /><glyph d="M621 927H541L441 787H505ZM462 700ZM65 0 188 700H259L564 117L666 700H734L610 0H551L238 601L132 0ZM461 700ZM344 0Z" glyph-name="Nacute" horiz-adv-x="762" unicode="&#323;" /><glyph d="M65 0 188 700H259L564 117L666 700H734L610 0H551L238 601L132 0ZM461 700ZM344 0ZM507 787H432L361 927H419L474 835L544 927H602ZM462 700Z" glyph-name="Ncaron" horiz-adv-x="762" unicode="&#327;" /><glyph d="M469 830Q493 814 506.5 809Q520 804 534 804Q566 804 585.5 828.5Q605 853 609 897H561Q559 877 551.5 868Q544 859 530 859Q521 859 510 863.5Q499 868 477 882Q450 899 434.5 904.5Q419 910 405 910Q370 910 348.5 885.5Q327 861 319 814H368Q373 836 382 846Q391 856 406 856Q419 856 432.5 851Q446 846 469 830ZM461 700ZM65 0 188 700H259L564 117L666 700H734L610 0H551L238 601L132 0ZM461 700ZM344 0Z" glyph-name="Ntilde" horiz-adv-x="762" unicode="&#209;" /><glyph d="M754 394Q754 532 668 622Q582 712 446 712Q370 712 300.5 679.5Q231 647 178 587Q129 530 102 457.5Q75 385 75 307Q75 169 160 78.5Q245 -12 381 -12Q458 -12 528 20.5Q598 53 650 112Q700 169 727 242Q754 315 754 394ZM681 387Q681 252 592.5 153.5Q504 55 384 55Q280 55 214 128.5Q148 202 148 313Q148 448 236 546.5Q324 645 444 645Q549 645 615 572Q681 499 681 387ZM450 700Z" glyph-name="O" horiz-adv-x="792" unicode="O" /><glyph d="M177 586Q229 647 297.5 679.5Q366 712 442 712Q535 712 606.5 666.5Q678 621 714 540L742 700H1213L1202 634H801L759 393H1129L1118 328H748L701 66H1112L1100 0H619L639 114Q588 53 520 20.5Q452 -12 377 -12Q243 -12 159 78.5Q75 169 75 307Q75 385 101.5 457.5Q128 530 177 586ZM148 313Q148 202 214 128.5Q280 55 384 55Q505 55 593 153Q681 251 681 387Q681 498 614.5 571.5Q548 645 444 645Q324 645 236 546.5Q148 448 148 313Z" glyph-name="OE" horiz-adv-x="1200" unicode="&#338;" /><glyph d="M609 927H529L429 787H493ZM450 700ZM754 394Q754 532 668 622Q582 712 446 712Q370 712 300.5 679.5Q231 647 178 587Q129 530 102 457.5Q75 385 75 307Q75 169 160 78.5Q245 -12 381 -12Q458 -12 528 20.5Q598 53 650 112Q700 169 727 242Q754 315 754 394ZM681 387Q681 252 592.5 153.5Q504 55 384 55Q280 55 214 128.5Q148 202 148 313Q148 448 236 546.5Q324 645 444 645Q549 645 615 572Q681 499 681 387ZM450 700Z" glyph-name="Oacute" horiz-adv-x="792" unicode="&#211;" /><glyph d="M754 394Q754 532 668 622Q582 712 446 712Q370 712 300.5 679.5Q231 647 178 587Q129 530 102 457.5Q75 385 75 307Q75 169 160 78.5Q245 -12 381 -12Q458 -12 528 20.5Q598 53 650 112Q700 169 727 242Q754 315 754 394ZM681 387Q681 252 592.5 153.5Q504 55 384 55Q280 55 214 128.5Q148 202 148 313Q148 448 236 546.5Q324 645 444 645Q549 645 615 572Q681 499 681 387ZM450 700ZM464 832Q502 832 524.5 856.5Q547 881 552 927H601Q597 862 560.5 823.5Q524 785 462 785Q400 785 368 824.5Q336 864 342 927H391Q390 878 408 855Q426 832 464 832ZM450 700Z" glyph-name="Obreve" horiz-adv-x="792" unicode="&#334;" /><glyph d="M345 787 440 927H515L586 787H528L474 880L403 787ZM450 700ZM754 394Q754 532 668 622Q582 712 446 712Q370 712 300.5 679.5Q231 647 178 587Q129 530 102 457.5Q75 385 75 307Q75 169 160 78.5Q245 -12 381 -12Q458 -12 528 20.5Q598 53 650 112Q700 169 727 242Q754 315 754 394ZM681 387Q681 252 592.5 153.5Q504 55 384 55Q280 55 214 128.5Q148 202 148 313Q148 448 236 546.5Q324 645 444 645Q549 645 615 572Q681 499 681 387ZM450 700Z" glyph-name="Ocircumflex" horiz-adv-x="792" unicode="&#212;" /><glyph d="M754 394Q754 532 668 622Q582 712 446 712Q370 712 300.5 679.5Q231 647 178 587Q129 530 102 457.5Q75 385 75 307Q75 169 160 78.5Q245 -12 381 -12Q458 -12 528 20.5Q598 53 650 112Q700 169 727 242Q754 315 754 394ZM681 387Q681 252 592.5 153.5Q504 55 384 55Q280 55 214 128.5Q148 202 148 313Q148 448 236 546.5Q324 645 444 645Q549 645 615 572Q681 499 681 387ZM450 700ZM347 857Q347 838 361 824Q375 810 394 810Q414 810 428 824Q442 838 442 857Q442 876 428 890Q414 904 394 904Q375 904 361 890.5Q347 877 347 857ZM498 857Q498 837 511.5 823.5Q525 810 544 810Q564 810 578 824Q592 838 592 857Q592 876 578 890Q564 904 544 904Q525 904 511.5 890.5Q498 877 498 857ZM450 700Z" glyph-name="Odieresis" horiz-adv-x="792" unicode="&#214;" /><glyph d="M480 787 404 927H326L417 787ZM450 700ZM754 394Q754 532 668 622Q582 712 446 712Q370 712 300.5 679.5Q231 647 178 587Q129 530 102 457.5Q75 385 75 307Q75 169 160 78.5Q245 -12 381 -12Q458 -12 528 20.5Q598 53 650 112Q700 169 727 242Q754 315 754 394ZM681 387Q681 252 592.5 153.5Q504 55 384 55Q280 55 214 128.5Q148 202 148 313Q148 448 236 546.5Q324 645 444 645Q549 645 615 572Q681 499 681 387ZM450 700Z" glyph-name="Ograve" horiz-adv-x="792" unicode="&#210;" /><glyph d="M532 927H460L364 787H419ZM665 927H588L469 787H528ZM450 700ZM754 394Q754 532 668 622Q582 712 446 712Q370 712 300.5 679.5Q231 647 178 587Q129 530 102 457.5Q75 385 75 307Q75 169 160 78.5Q245 -12 381 -12Q458 -12 528 20.5Q598 53 650 112Q700 169 727 242Q754 315 754 394ZM681 387Q681 252 592.5 153.5Q504 55 384 55Q280 55 214 128.5Q148 202 148 313Q148 448 236 546.5Q324 645 444 645Q549 645 615 572Q681 499 681 387ZM450 700Z" glyph-name="Ohungarumlaut" horiz-adv-x="792" unicode="&#336;" /><glyph d="M754 394Q754 532 668 622Q582 712 446 712Q370 712 300.5 679.5Q231 647 178 587Q129 530 102 457.5Q75 385 75 307Q75 169 160 78.5Q245 -12 381 -12Q458 -12 528 20.5Q598 53 650 112Q700 169 727 242Q754 315 754 394ZM681 387Q681 252 592.5 153.5Q504 55 384 55Q280 55 214 128.5Q148 202 148 313Q148 448 236 546.5Q324 645 444 645Q549 645 615 572Q681 499 681 387ZM450 700ZM583 830H337L347 883H593ZM450 700Z" glyph-name="Omacron" horiz-adv-x="792" unicode="&#332;" /><glyph d="M28 0 39 65H224Q158 110 123 178Q88 246 88 329Q88 492 184 602Q280 712 428 712Q559 712 637 632.5Q715 553 715 424Q715 304 659 211Q603 118 499 65H660L649 0H401L414 69Q521 115 582.5 206.5Q644 298 644 416Q644 520 585.5 582.5Q527 645 425 645Q310 645 234.5 552Q159 459 159 323Q159 245 190.5 183Q222 121 283 77L269 0Z" glyph-name="Omega" horiz-adv-x="767" unicode="&#8486;" /><glyph d="M226 27 144 -92H75L181 59Q130 103 102.5 167.5Q75 232 75 307Q75 385 102 457.5Q129 530 178 587Q231 647 300.5 679.5Q370 712 446 712Q491 712 531.5 701.5Q572 691 607 670L685 782H754L653 637Q702 593 728 530Q754 467 754 394Q754 315 727 242Q700 169 650 112Q598 53 528 20.5Q458 -12 381 -12Q338 -12 299 -2Q260 8 226 27ZM444 645Q324 645 236 546.5Q148 448 148 313Q148 254 168 203.5Q188 153 225 117L569 610Q541 627 509.5 636Q478 645 444 645ZM384 55Q504 55 592.5 153.5Q681 252 681 387Q681 444 662 494Q643 544 608 579L264 87Q291 71 321.5 63Q352 55 384 55Z" glyph-name="Oslash" horiz-adv-x="792" unicode="&#216;" /><glyph d="M754 394Q754 532 668 622Q582 712 446 712Q370 712 300.5 679.5Q231 647 178 587Q129 530 102 457.5Q75 385 75 307Q75 169 160 78.5Q245 -12 381 -12Q458 -12 528 20.5Q598 53 650 112Q700 169 727 242Q754 315 754 394ZM681 387Q681 252 592.5 153.5Q504 55 384 55Q280 55 214 128.5Q148 202 148 313Q148 448 236 546.5Q324 645 444 645Q549 645 615 572Q681 499 681 387ZM450 700ZM458 830Q482 814 495.5 809Q509 804 523 804Q555 804 574.5 828.5Q594 853 598 897H550Q548 877 540.5 868Q533 859 519 859Q510 859 499 863.5Q488 868 466 882Q439 899 423.5 904.5Q408 910 394 910Q359 910 337.5 885.5Q316 861 308 814H357Q362 836 371 846Q380 856 395 856Q408 856 421.5 851Q435 846 458 830ZM450 700Z" glyph-name="Otilde" horiz-adv-x="792" unicode="&#213;" /><glyph d="M65 0 188 700H436Q534 700 594.5 642Q655 584 655 494Q655 381 574 308Q493 235 374 235H177L136 0ZM582 489Q582 555 539.5 594.5Q497 634 425 634H247L189 301H384Q467 301 524.5 355.5Q582 410 582 489Z" glyph-name="P" horiz-adv-x="657" unicode="P" /><glyph d="M178 587Q231 647 300.5 679.5Q370 712 446 712Q582 712 668 622Q754 532 754 394Q754 297 715 212Q676 127 606 69L701 -38L650 -82L550 31Q510 10 467.5 -1Q425 -12 381 -12Q245 -12 160 78.5Q75 169 75 307Q75 385 102 457.5Q129 530 178 587ZM148 313Q148 202 214 128.5Q280 55 384 55Q415 55 445 62.5Q475 70 503 84L389 213L440 257L560 122Q617 169 649 239Q681 309 681 387Q681 499 615 572Q549 645 444 645Q324 645 236 546.5Q148 448 148 313Z" glyph-name="Q" horiz-adv-x="796" unicode="Q" /><glyph d="M65 0 188 700H450Q550 700 611.5 644.5Q673 589 673 504Q673 420 615 356Q557 292 464 269L585 0H506L390 259H384H182L136 0ZM600 500Q600 562 558 598.5Q516 635 441 635H248L193 324H400Q481 324 540.5 376.5Q600 429 600 500ZM410 700ZM313 0Z" glyph-name="R" horiz-adv-x="692" unicode="R" /><glyph d="M65 0 188 700H450Q550 700 611.5 644.5Q673 589 673 504Q673 420 615 356Q557 292 464 269L585 0H506L390 259H384H182L136 0ZM600 500Q600 562 558 598.5Q516 635 441 635H248L193 324H400Q481 324 540.5 376.5Q600 429 600 500ZM410 700ZM313 0ZM569 927H489L389 787H453ZM410 700Z" glyph-name="Racute" horiz-adv-x="692" unicode="&#340;" /><glyph d="M65 0 188 700H450Q550 700 611.5 644.5Q673 589 673 504Q673 420 615 356Q557 292 464 269L585 0H506L390 259H384H182L136 0ZM600 500Q600 562 558 598.5Q516 635 441 635H248L193 324H400Q481 324 540.5 376.5Q600 429 600 500ZM410 700ZM313 0ZM455 787H380L309 927H367L422 835L492 927H550ZM410 700Z" glyph-name="Rcaron" horiz-adv-x="692" unicode="&#344;" /><glyph d="M555 200Q555 106 489 47Q423 -12 319 -12Q229 -12 148.5 27Q68 66 25 124L81 175Q127 118 188.5 85Q250 52 318 52Q396 52 439.5 92Q483 132 483 193Q483 237 456 266Q429 295 369 315L266 349Q194 373 156 417Q118 461 118 522Q118 603 181 657.5Q244 712 348 712Q430 712 497.5 680.5Q565 649 609 592L553 541Q512 594 459.5 620.5Q407 647 344 647Q271 647 229.5 612.5Q188 578 188 527Q188 486 213.5 458.5Q239 431 297 411L406 374Q482 348 518.5 305.5Q555 263 555 200ZM360 700ZM307 10ZM307 0Z" glyph-name="S" horiz-adv-x="619" unicode="S" /><glyph d="M555 200Q555 106 489 47Q423 -12 319 -12Q229 -12 148.5 27Q68 66 25 124L81 175Q127 118 188.5 85Q250 52 318 52Q396 52 439.5 92Q483 132 483 193Q483 237 456 266Q429 295 369 315L266 349Q194 373 156 417Q118 461 118 522Q118 603 181 657.5Q244 712 348 712Q430 712 497.5 680.5Q565 649 609 592L553 541Q512 594 459.5 620.5Q407 647 344 647Q271 647 229.5 612.5Q188 578 188 527Q188 486 213.5 458.5Q239 431 297 411L406 374Q482 348 518.5 305.5Q555 263 555 200ZM360 700ZM307 10ZM307 0ZM519 927H439L339 787H403ZM360 700Z" glyph-name="Sacute" horiz-adv-x="619" unicode="&#346;" /><glyph d="M555 200Q555 106 489 47Q423 -12 319 -12Q229 -12 148.5 27Q68 66 25 124L81 175Q127 118 188.5 85Q250 52 318 52Q396 52 439.5 92Q483 132 483 193Q483 237 456 266Q429 295 369 315L266 349Q194 373 156 417Q118 461 118 522Q118 603 181 657.5Q244 712 348 712Q430 712 497.5 680.5Q565 649 609 592L553 541Q512 594 459.5 620.5Q407 647 344 647Q271 647 229.5 612.5Q188 578 188 527Q188 486 213.5 458.5Q239 431 297 411L406 374Q482 348 518.5 305.5Q555 263 555 200ZM360 700ZM307 10ZM307 0ZM405 787H330L259 927H317L372 835L442 927H500ZM360 700Z" glyph-name="Scaron" horiz-adv-x="619" unicode="&#352;" /><glyph d="M215 -102 203 -80 271 -9Q195 0 128 37.5Q61 75 25 124L81 175Q127 118 188.5 85Q250 52 318 52Q396 52 439.5 92Q483 132 483 193Q483 237 456 266Q429 295 369 315L266 349Q194 373 156 417Q118 461 118 522Q118 603 181 657.5Q244 712 348 712Q430 712 497.5 680.5Q565 649 609 592L553 541Q512 594 459.5 620.5Q407 647 344 647Q271 647 229.5 612.5Q188 578 188 527Q188 486 213.5 458.5Q239 431 297 411L406 374Q482 348 518.5 305.5Q555 263 555 200Q555 106 489 47Q423 -12 319 -12Q318 -12 317.5 -12Q317 -12 316 -12L266 -63Q270 -62 274 -62Q278 -62 285 -62Q324 -62 345.5 -80Q367 -98 367 -129Q367 -170 335.5 -195.5Q304 -221 253 -221Q232 -221 209 -215Q186 -209 167 -199L175 -161Q195 -172 211.5 -176.5Q228 -181 248 -181Q277 -181 294 -167.5Q311 -154 311 -130Q311 -113 296.5 -103.5Q282 -94 257 -94Q248 -94 237.5 -96Q227 -98 215 -102Z" glyph-name="Scedilla" horiz-adv-x="619" unicode="&#350;" /><glyph d="M555 200Q555 106 489 47Q423 -12 319 -12Q229 -12 148.5 27Q68 66 25 124L81 175Q127 118 188.5 85Q250 52 318 52Q396 52 439.5 92Q483 132 483 193Q483 237 456 266Q429 295 369 315L266 349Q194 373 156 417Q118 461 118 522Q118 603 181 657.5Q244 712 348 712Q430 712 497.5 680.5Q565 649 609 592L553 541Q512 594 459.5 620.5Q407 647 344 647Q271 647 229.5 612.5Q188 578 188 527Q188 486 213.5 458.5Q239 431 297 411L406 374Q482 348 518.5 305.5Q555 263 555 200ZM360 700ZM307 10ZM307 0ZM255 787 350 927H425L496 787H438L384 880L313 787ZM360 700Z" glyph-name="Scircumflex" horiz-adv-x="619" unicode="&#348;" /><glyph d="M93 633 104 700H649L638 633H400L289 0H218L329 633ZM376 700ZM256 10ZM253 0Z" glyph-name="T" horiz-adv-x="594" unicode="T" /><glyph d="M98 327 109 385H315L358 633H122L133 700H678L667 633H429L386 385H592L581 327H375L318 0H247L304 327Z" glyph-name="Tbar" horiz-adv-x="650" unicode="&#358;" /><glyph d="M93 633 104 700H649L638 633H400L289 0H218L329 633ZM376 700ZM256 10ZM253 0ZM421 787H346L275 927H333L388 835L458 927H516ZM376 700Z" glyph-name="Tcaron" horiz-adv-x="594" unicode="&#356;" /><glyph d="M65 0 188 700H260L239 583H420Q517 583 576 525.5Q635 468 635 377Q635 265 552 191.5Q469 118 351 118H156L136 0ZM561 372Q561 437 520 477Q479 517 409 517H227L168 184H363Q446 184 503.5 238.5Q561 293 561 372Z" glyph-name="Thorn" horiz-adv-x="668" unicode="&#222;" /><glyph d="M654 700H725L645 244Q624 124 546 56Q468 -12 355 -12Q222 -12 151.5 74Q81 160 105 292L178 700H249L176 285Q158 182 209 118.5Q260 55 360 55Q443 55 501 107Q559 159 575 250ZM449 700ZM409 0Z" glyph-name="U" horiz-adv-x="744" unicode="U" /><glyph d="M654 700H725L645 244Q624 124 546 56Q468 -12 355 -12Q222 -12 151.5 74Q81 160 105 292L178 700H249L176 285Q158 182 209 118.5Q260 55 360 55Q443 55 501 107Q559 159 575 250ZM449 700ZM409 0ZM609 927H529L429 787H493ZM450 700Z" glyph-name="Uacute" horiz-adv-x="744" unicode="&#218;" /><glyph d="M654 700H725L645 244Q624 124 546 56Q468 -12 355 -12Q222 -12 151.5 74Q81 160 105 292L178 700H249L176 285Q158 182 209 118.5Q260 55 360 55Q443 55 501 107Q559 159 575 250ZM449 700ZM409 0ZM463 832Q501 832 523.5 856.5Q546 881 551 927H600Q596 862 559.5 823.5Q523 785 461 785Q399 785 367 824.5Q335 864 341 927H390Q389 878 407 855Q425 832 463 832ZM449 700Z" glyph-name="Ubreve" horiz-adv-x="744" unicode="&#364;" /><glyph d="M345 787 440 927H515L586 787H528L474 880L403 787ZM450 700ZM654 700H725L645 244Q624 124 546 56Q468 -12 355 -12Q222 -12 151.5 74Q81 160 105 292L178 700H249L176 285Q158 182 209 118.5Q260 55 360 55Q443 55 501 107Q559 159 575 250ZM449 700ZM409 0Z" glyph-name="Ucircumflex" horiz-adv-x="744" unicode="&#219;" /><glyph d="M654 700H725L645 244Q624 124 546 56Q468 -12 355 -12Q222 -12 151.5 74Q81 160 105 292L178 700H249L176 285Q158 182 209 118.5Q260 55 360 55Q443 55 501 107Q559 159 575 250ZM449 700ZM409 0ZM346 857Q346 838 360 824Q374 810 393 810Q413 810 427 824Q441 838 441 857Q441 876 427 890Q413 904 393 904Q374 904 360 890.5Q346 877 346 857ZM497 857Q497 837 510.5 823.5Q524 810 543 810Q563 810 577 824Q591 838 591 857Q591 876 577 890Q563 904 543 904Q524 904 510.5 890.5Q497 877 497 857ZM449 700Z" glyph-name="Udieresis" horiz-adv-x="744" unicode="&#220;" /><glyph d="M480 787 404 927H326L417 787ZM450 700ZM654 700H725L645 244Q624 124 546 56Q468 -12 355 -12Q222 -12 151.5 74Q81 160 105 292L178 700H249L176 285Q158 182 209 118.5Q260 55 360 55Q443 55 501 107Q559 159 575 250ZM449 700ZM409 0Z" glyph-name="Ugrave" horiz-adv-x="744" unicode="&#217;" /><glyph d="M531 927H459L363 787H418ZM664 927H587L468 787H527ZM449 700ZM654 700H725L645 244Q624 124 546 56Q468 -12 355 -12Q222 -12 151.5 74Q81 160 105 292L178 700H249L176 285Q158 182 209 118.5Q260 55 360 55Q443 55 501 107Q559 159 575 250ZM449 700ZM409 0Z" glyph-name="Uhungarumlaut" horiz-adv-x="744" unicode="&#368;" /><glyph d="M654 700H725L645 244Q624 124 546 56Q468 -12 355 -12Q222 -12 151.5 74Q81 160 105 292L178 700H249L176 285Q158 182 209 118.5Q260 55 360 55Q443 55 501 107Q559 159 575 250ZM449 700ZM409 0ZM582 830H336L346 883H592ZM449 700Z" glyph-name="Umacron" horiz-adv-x="744" unicode="&#362;" /><glyph d="M654 700H725L645 244Q634 181 607 133Q580 85 533 46Q515 31 483.5 10Q452 -11 442 -19Q413 -41 401 -63Q389 -85 389 -113Q389 -144 408 -160Q427 -176 463 -176Q469 -176 476.5 -175Q484 -174 499 -172L492 -214Q476 -219 465 -220.5Q454 -222 443 -222Q390 -222 360 -196Q330 -170 330 -126Q330 -93 348 -63Q366 -33 402 -7Q389 -10 378.5 -11Q368 -12 355 -12Q222 -12 151.5 74Q81 160 105 292L178 700H249L176 285Q158 182 209 118.5Q260 55 360 55Q443 55 501 107Q559 159 575 250Z" glyph-name="Uogonek" horiz-adv-x="744" unicode="&#370;" /><glyph d="M573 864Q573 907 542 938Q511 969 468 969Q424 969 394 938.5Q364 908 364 864Q364 820 393.5 790Q423 760 468 760Q512 760 542.5 790.5Q573 821 573 864ZM409 864Q409 888 426.5 906Q444 924 468 924Q492 924 509.5 906Q527 888 527 864Q527 840 509.5 822.5Q492 805 468 805Q444 805 426.5 822.5Q409 840 409 864ZM449 700ZM654 700H725L645 244Q624 124 546 56Q468 -12 355 -12Q222 -12 151.5 74Q81 160 105 292L178 700H249L176 285Q158 182 209 118.5Q260 55 360 55Q443 55 501 107Q559 159 575 250ZM449 700ZM409 0Z" glyph-name="Uring" horiz-adv-x="744" unicode="&#366;" /><glyph d="M654 700H725L645 244Q624 124 546 56Q468 -12 355 -12Q222 -12 151.5 74Q81 160 105 292L178 700H249L176 285Q158 182 209 118.5Q260 55 360 55Q443 55 501 107Q559 159 575 250ZM449 700ZM409 0ZM457 830Q481 814 494.5 809Q508 804 522 804Q554 804 573.5 828.5Q593 853 597 897H549Q547 877 539.5 868Q532 859 518 859Q509 859 498 863.5Q487 868 465 882Q438 899 422.5 904.5Q407 910 393 910Q358 910 336.5 885.5Q315 861 307 814H356Q361 836 370 846Q379 856 394 856Q407 856 420.5 851Q434 846 457 830ZM449 700Z" glyph-name="Utilde" horiz-adv-x="744" unicode="&#360;" /><glyph d="M254 0 112 700H185L305 91L641 700H719L326 0Z" glyph-name="V" horiz-adv-x="669" unicode="V" /><glyph d="M195 0 117 700H190L250 105L520 700H592L656 107L923 700H998L674 0H603L537 580L266 0ZM557 700Z" glyph-name="W" horiz-adv-x="956" unicode="W" /><glyph d="M716 927H636L536 787H600ZM557 700ZM195 0 117 700H190L250 105L520 700H592L656 107L923 700H998L674 0H603L537 580L266 0ZM557 700Z" glyph-name="Wacute" horiz-adv-x="956" unicode="&#7810;" /><glyph d="M452 787 547 927H622L693 787H635L581 880L510 787ZM557 700ZM195 0 117 700H190L250 105L520 700H592L656 107L923 700H998L674 0H603L537 580L266 0ZM557 700Z" glyph-name="Wcircumflex" horiz-adv-x="956" unicode="&#372;" /><glyph d="M195 0 117 700H190L250 105L520 700H592L656 107L923 700H998L674 0H603L537 580L266 0ZM557 700ZM454 857Q454 838 468 824Q482 810 501 810Q521 810 535 824Q549 838 549 857Q549 876 535 890Q521 904 501 904Q482 904 468 890.5Q454 877 454 857ZM605 857Q605 837 618.5 823.5Q632 810 651 810Q671 810 685 824Q699 838 699 857Q699 876 685 890Q671 904 651 904Q632 904 618.5 890.5Q605 877 605 857ZM557 700Z" glyph-name="Wdieresis" horiz-adv-x="956" unicode="&#7812;" /><glyph d="M587 787 511 927H433L524 787ZM557 700ZM195 0 117 700H190L250 105L520 700H592L656 107L923 700H998L674 0H603L537 580L266 0ZM557 700Z" glyph-name="Wgrave" horiz-adv-x="956" unicode="&#7808;" /><glyph d="M281 355 109 700H183L328 403L575 700H659L358 345L535 0H461L313 294L68 0H-16Z" glyph-name="X" horiz-adv-x="606" unicode="X" /><glyph d="M294 291 118 700H191L336 352L602 700H683L366 294L314 0H243ZM399 700Z" glyph-name="Y" horiz-adv-x="642" unicode="Y" /><glyph d="M294 291 118 700H191L336 352L602 700H683L366 294L314 0H243ZM399 700ZM558 927H478L378 787H442ZM399 700Z" glyph-name="Yacute" horiz-adv-x="642" unicode="&#221;" /><glyph d="M294 291 118 700H191L336 352L602 700H683L366 294L314 0H243ZM399 700ZM294 787 389 927H464L535 787H477L423 880L352 787ZM399 700Z" glyph-name="Ycircumflex" horiz-adv-x="642" unicode="&#374;" /><glyph d="M294 291 118 700H191L336 352L602 700H683L366 294L314 0H243ZM399 700ZM296 857Q296 838 310 824Q324 810 343 810Q363 810 377 824Q391 838 391 857Q391 876 377 890Q363 904 343 904Q324 904 310 890.5Q296 877 296 857ZM447 857Q447 837 460.5 823.5Q474 810 493 810Q513 810 527 824Q541 838 541 857Q541 876 527 890Q513 904 493 904Q474 904 460.5 890.5Q447 877 447 857ZM399 700Z" glyph-name="Ydieresis" horiz-adv-x="642" unicode="&#376;" /><glyph d="M294 291 118 700H191L336 352L602 700H683L366 294L314 0H243ZM399 700ZM429 787 353 927H275L366 787ZM399 700Z" glyph-name="Ygrave" horiz-adv-x="642" unicode="&#7922;" /><glyph d="M101 65H542L530 0H-4L7 60L535 635H120L131 700H640L629 640ZM386 700Z" glyph-name="Z" horiz-adv-x="612" unicode="Z" /><glyph d="M101 65H542L530 0H-4L7 60L535 635H120L131 700H640L629 640ZM386 700ZM545 927H465L365 787H429ZM386 700Z" glyph-name="Zacute" horiz-adv-x="612" unicode="&#377;" /><glyph d="M101 65H542L530 0H-4L7 60L535 635H120L131 700H640L629 640ZM386 700ZM431 787H356L285 927H343L398 835L468 927H526ZM386 700Z" glyph-name="Zcaron" horiz-adv-x="612" unicode="&#381;" /><glyph d="M353 857Q353 835 368.5 819Q384 803 406 803Q429 803 444.5 819Q460 835 460 857Q460 880 444.5 895.5Q429 911 406 911Q384 911 368.5 895Q353 879 353 857ZM386 700ZM101 65H542L530 0H-4L7 60L535 635H120L131 700H640L629 640ZM386 700Z" glyph-name="Zdotaccent" horiz-adv-x="612" unicode="&#379;" /><glyph d="M475 0H414L428 84Q394 38 349 13Q304 -12 252 -12Q162 -12 106 48.5Q50 109 50 203Q50 333 121.5 421Q193 509 299 509Q365 509 411.5 475.5Q458 442 478 381L499 497H563ZM118 213Q118 137 157.5 92Q197 47 266 47Q345 47 401 115Q457 183 457 278Q457 354 415.5 402Q374 450 305 450Q226 450 172 381.5Q118 313 118 213ZM314 497ZM431 0Z" glyph-name="a" horiz-adv-x="613" unicode="a" /><glyph d="M487 311 431 0H369L387 101Q353 46 305.5 17Q258 -12 201 -12Q129 -12 85.5 24Q42 60 42 118Q42 183 85.5 223.5Q129 264 228 286L423 330Q430 389 400.5 419.5Q371 450 307 450Q261 450 210 424.5Q159 399 123 359L84 402Q127 451 188 480Q249 509 312 509Q409 509 456 453.5Q503 398 487 311ZM109 123Q109 84 135.5 64Q162 44 213 44Q284 44 339.5 101Q395 158 410 249L414 273L235 233Q167 218 138 192.5Q109 167 109 123ZM313 498ZM396 -14Z" glyph-name="a.alt" horiz-adv-x="561" /><glyph d="M475 0H414L428 84Q394 38 349 13Q304 -12 252 -12Q162 -12 106 48.5Q50 109 50 203Q50 333 121.5 421Q193 509 299 509Q365 509 411.5 475.5Q458 442 478 381L499 497H563ZM118 213Q118 137 157.5 92Q197 47 266 47Q345 47 401 115Q457 183 457 278Q457 354 415.5 402Q374 450 305 450Q226 450 172 381.5Q118 313 118 213ZM314 497ZM431 0ZM471 727H391L291 587H355ZM314 497Z" glyph-name="aacute" horiz-adv-x="613" unicode="&#225;" /><glyph d="M463 726H383L283 586H347ZM306 496ZM487 311 431 0H369L387 101Q353 46 305.5 17Q258 -12 201 -12Q129 -12 85.5 24Q42 60 42 118Q42 183 85.5 223.5Q129 264 228 286L423 330Q430 389 400.5 419.5Q371 450 307 450Q261 450 210 424.5Q159 399 123 359L84 402Q127 451 188 480Q249 509 312 509Q409 509 456 453.5Q503 398 487 311ZM109 123Q109 84 135.5 64Q162 44 213 44Q284 44 339.5 101Q395 158 410 249L414 273L235 233Q167 218 138 192.5Q109 167 109 123ZM313 498ZM396 -14Z" glyph-name="aacute.alt" horiz-adv-x="561" /><glyph d="M475 0H414L428 84Q394 38 349 13Q304 -12 252 -12Q162 -12 106 48.5Q50 109 50 203Q50 333 121.5 421Q193 509 299 509Q365 509 411.5 475.5Q458 442 478 381L499 497H563ZM118 213Q118 137 157.5 92Q197 47 266 47Q345 47 401 115Q457 183 457 278Q457 354 415.5 402Q374 450 305 450Q226 450 172 381.5Q118 313 118 213ZM314 497ZM431 0ZM326 632Q364 632 386.5 656.5Q409 681 414 727H463Q459 662 422.5 623.5Q386 585 324 585Q262 585 230 624.5Q198 664 204 727H253Q252 678 270 655Q288 632 326 632ZM313 497Z" glyph-name="abreve" horiz-adv-x="613" unicode="&#259;" /><glyph d="M487 311 431 0H369L387 101Q353 46 305.5 17Q258 -12 201 -12Q129 -12 85.5 24Q42 60 42 118Q42 183 85.5 223.5Q129 264 228 286L423 330Q430 389 400.5 419.5Q371 450 307 450Q261 450 210 424.5Q159 399 123 359L84 402Q127 451 188 480Q249 509 312 509Q409 509 456 453.5Q503 398 487 311ZM109 123Q109 84 135.5 64Q162 44 213 44Q284 44 339.5 101Q395 158 410 249L414 273L235 233Q167 218 138 192.5Q109 167 109 123ZM313 498ZM396 -14ZM329 632Q367 632 389.5 656.5Q412 681 417 727H466Q462 662 425.5 623.5Q389 585 327 585Q265 585 233 624.5Q201 664 207 727H256Q255 678 273 655Q291 632 329 632ZM316 497Z" glyph-name="abreve.alt" horiz-adv-x="561" /><glyph d="M475 0H414L428 84Q394 38 349 13Q304 -12 252 -12Q162 -12 106 48.5Q50 109 50 203Q50 333 121.5 421Q193 509 299 509Q365 509 411.5 475.5Q458 442 478 381L499 497H563ZM118 213Q118 137 157.5 92Q197 47 266 47Q345 47 401 115Q457 183 457 278Q457 354 415.5 402Q374 450 305 450Q226 450 172 381.5Q118 313 118 213ZM314 497ZM431 0ZM202 587 297 727H372L443 587H385L331 680L260 587ZM314 497Z" glyph-name="acircumflex" horiz-adv-x="613" unicode="&#226;" /><glyph d="M204 587 299 727H374L445 587H387L333 680L262 587ZM316 497ZM487 311 431 0H369L387 101Q353 46 305.5 17Q258 -12 201 -12Q129 -12 85.5 24Q42 60 42 118Q42 183 85.5 223.5Q129 264 228 286L423 330Q430 389 400.5 419.5Q371 450 307 450Q261 450 210 424.5Q159 399 123 359L84 402Q127 451 188 480Q249 509 312 509Q409 509 456 453.5Q503 398 487 311ZM109 123Q109 84 135.5 64Q162 44 213 44Q284 44 339.5 101Q395 158 410 249L414 273L235 233Q167 218 138 192.5Q109 167 109 123ZM313 498ZM396 -14Z" glyph-name="acircumflex.alt" horiz-adv-x="561" /><glyph d="M280 727H200L100 587H164ZM123 497Z" glyph-name="acute" horiz-adv-x="387" unicode="&#180;" /><glyph d="M280 927H200L100 787H164ZM121 700Z" glyph-name="acute.case" horiz-adv-x="387" /><glyph d="M475 0H414L428 84Q394 38 349 13Q304 -12 252 -12Q162 -12 106 48.5Q50 109 50 203Q50 333 121.5 421Q193 509 299 509Q365 509 411.5 475.5Q458 442 478 381L499 497H563ZM118 213Q118 137 157.5 92Q197 47 266 47Q345 47 401 115Q457 183 457 278Q457 354 415.5 402Q374 450 305 450Q226 450 172 381.5Q118 313 118 213ZM314 497ZM431 0ZM210 657Q210 638 224 624Q238 610 257 610Q277 610 291 624Q305 638 305 657Q305 676 291 690Q277 704 257 704Q238 704 224 690.5Q210 677 210 657ZM361 657Q361 637 374.5 623.5Q388 610 407 610Q427 610 441 624Q455 638 455 657Q455 676 441 690Q427 704 407 704Q388 704 374.5 690.5Q361 677 361 657ZM314 497Z" glyph-name="adieresis" horiz-adv-x="613" unicode="&#228;" /><glyph d="M211 657Q211 638 225 624Q239 610 258 610Q278 610 292 624Q306 638 306 657Q306 676 292 690Q278 704 258 704Q239 704 225 690.5Q211 677 211 657ZM362 657Q362 637 375.5 623.5Q389 610 408 610Q428 610 442 624Q456 638 456 657Q456 676 442 690Q428 704 408 704Q389 704 375.5 690.5Q362 677 362 657ZM315 497ZM487 311 431 0H369L387 101Q353 46 305.5 17Q258 -12 201 -12Q129 -12 85.5 24Q42 60 42 118Q42 183 85.5 223.5Q129 264 228 286L423 330Q430 389 400.5 419.5Q371 450 307 450Q261 450 210 424.5Q159 399 123 359L84 402Q127 451 188 480Q249 509 312 509Q409 509 456 453.5Q503 398 487 311ZM109 123Q109 84 135.5 64Q162 44 213 44Q284 44 339.5 101Q395 158 410 249L414 273L235 233Q167 218 138 192.5Q109 167 109 123ZM313 498ZM396 -14Z" glyph-name="adieresis.alt" horiz-adv-x="561" /><glyph d="M790 131 833 87Q796 39 745 13.5Q694 -12 634 -12Q555 -12 498 26.5Q441 65 419 132Q385 63 330 25.5Q275 -12 207 -12Q132 -12 87 24Q42 60 42 118Q42 183 86 223.5Q130 264 228 286L423 330Q429 389 399.5 419.5Q370 450 307 450Q260 450 209.5 424.5Q159 399 123 359L84 402Q126 450 187 479.5Q248 509 312 509Q376 509 417.5 481Q459 453 474 400Q509 451 561.5 480Q614 509 671 509Q760 509 815 454Q870 399 870 310Q870 291 866.5 268.5Q863 246 859 234H477Q476 229 476 224Q476 219 476 210Q476 134 520 89.5Q564 45 639 45Q681 45 718.5 66.5Q756 88 790 131ZM805 312Q805 377 767 415Q729 453 667 453Q603 453 553 408Q503 363 485 288H804Q805 292 805 297Q805 302 805 312ZM109 123Q109 85 135.5 64.5Q162 44 213 44Q282 44 337 97.5Q392 151 407 235L414 273L235 233Q167 218 138 192.5Q109 167 109 123Z" glyph-name="ae" horiz-adv-x="915" unicode="&#230;" /><glyph d="M475 0H414L428 84Q394 38 349 13Q304 -12 252 -12Q162 -12 106 48.5Q50 109 50 203Q50 333 121.5 421Q193 509 299 509Q365 509 411.5 475.5Q458 442 478 381L499 497H563ZM118 213Q118 137 157.5 92Q197 47 266 47Q345 47 401 115Q457 183 457 278Q457 354 415.5 402Q374 450 305 450Q226 450 172 381.5Q118 313 118 213ZM314 497ZM431 0ZM344 587 268 727H190L281 587ZM314 497Z" glyph-name="agrave" horiz-adv-x="613" unicode="&#224;" /><glyph d="M487 311 431 0H369L387 101Q353 46 305.5 17Q258 -12 201 -12Q129 -12 85.5 24Q42 60 42 118Q42 183 85.5 223.5Q129 264 228 286L423 330Q430 389 400.5 419.5Q371 450 307 450Q261 450 210 424.5Q159 399 123 359L84 402Q127 451 188 480Q249 509 312 509Q409 509 456 453.5Q503 398 487 311ZM109 123Q109 84 135.5 64Q162 44 213 44Q284 44 339.5 101Q395 158 410 249L414 273L235 233Q167 218 138 192.5Q109 167 109 123ZM313 498ZM396 -14ZM340 586 264 726H186L277 586ZM310 496Z" glyph-name="agrave.alt" horiz-adv-x="561" /><glyph d="M475 0H414L428 84Q394 38 349 13Q304 -12 252 -12Q162 -12 106 48.5Q50 109 50 203Q50 333 121.5 421Q193 509 299 509Q365 509 411.5 475.5Q458 442 478 381L499 497H563ZM118 213Q118 137 157.5 92Q197 47 266 47Q345 47 401 115Q457 183 457 278Q457 354 415.5 402Q374 450 305 450Q226 450 172 381.5Q118 313 118 213ZM314 497ZM431 0ZM451 630H205L215 683H461ZM313 497Z" glyph-name="amacron" horiz-adv-x="613" unicode="&#257;" /><glyph d="M487 311 431 0H369L387 101Q353 46 305.5 17Q258 -12 201 -12Q129 -12 85.5 24Q42 60 42 118Q42 183 85.5 223.5Q129 264 228 286L423 330Q430 389 400.5 419.5Q371 450 307 450Q261 450 210 424.5Q159 399 123 359L84 402Q127 451 188 480Q249 509 312 509Q409 509 456 453.5Q503 398 487 311ZM109 123Q109 84 135.5 64Q162 44 213 44Q284 44 339.5 101Q395 158 410 249L414 273L235 233Q167 218 138 192.5Q109 167 109 123ZM313 498ZM396 -14ZM451 630H205L215 683H461ZM313 497Z" glyph-name="amacron.alt" horiz-adv-x="561" /><glyph d="M266 -12Q167 -12 107 34Q47 80 47 159Q47 233 93 288Q139 343 236 381Q212 415 200 449.5Q188 484 188 517Q188 604 241.5 658Q295 712 374 712Q439 712 482 674.5Q525 637 525 576Q525 508 478.5 455.5Q432 403 332 362L493 181Q514 208 528 226.5Q542 245 554 263L618 354H682L679 338L610 237Q591 209 571.5 183.5Q552 158 533 136L646 8L645 0H571L490 91Q435 39 380 13.5Q325 -12 266 -12ZM370 656Q317 656 284 617.5Q251 579 251 526Q251 495 262.5 464.5Q274 434 298 403Q384 440 424 480.5Q464 521 464 569Q464 609 438.5 632.5Q413 656 370 656ZM270 339Q190 310 152.5 267.5Q115 225 115 167Q115 109 157 77Q199 45 272 45Q320 45 363 66.5Q406 88 451 134L274 334Q274 335 272.5 336.5Q271 338 270 339Z" glyph-name="ampersand" horiz-adv-x="701" unicode="&amp;" /><glyph d="M499 497H563L475 0H468Q408 -32 379.5 -62Q351 -92 351 -125Q351 -150 367 -163Q383 -176 414 -176Q423 -176 430 -175Q437 -174 444 -172L436 -214Q426 -218 416 -220Q406 -222 395 -222Q347 -222 320 -199.5Q293 -177 293 -137Q293 -97 324 -61Q355 -25 414 3L428 84Q394 38 349 13Q304 -12 252 -12Q162 -12 106 48.5Q50 109 50 203Q50 333 121.5 421Q193 509 299 509Q365 509 411.5 475.5Q458 442 478 381ZM118 213Q118 137 157.5 92Q197 47 266 47Q345 47 401 115Q457 183 457 278Q457 354 415.5 402Q374 450 305 450Q226 450 172 381.5Q118 313 118 213Z" glyph-name="aogonek" horiz-adv-x="613" unicode="&#261;" /><glyph d="M312 509Q409 509 456 453.5Q503 398 487 311L431 0H424Q364 -32 335.5 -62Q307 -92 307 -125Q307 -150 323 -163Q339 -176 370 -176Q379 -176 386 -175Q393 -174 400 -172L392 -214Q382 -218 372 -220Q362 -222 351 -222Q302 -222 275 -199Q248 -176 248 -137Q248 -98 279.5 -61.5Q311 -25 370 3L387 101Q353 46 305.5 17Q258 -12 201 -12Q129 -12 85.5 24Q42 60 42 118Q42 183 85.5 223.5Q129 264 228 286L423 330Q430 389 400.5 419.5Q371 450 307 450Q261 450 210 424.5Q159 399 123 359L84 402Q127 451 188 480Q249 509 312 509ZM109 123Q109 84 135.5 64Q162 44 213 44Q285 44 340 101Q395 158 410 249L414 273L235 233Q167 218 138 192.5Q109 167 109 123Z" glyph-name="aogonek.alt" horiz-adv-x="561" /><glyph d="M311.7 259.9Q342.3 244.6 358.5 239.65Q374.7 234.7 389.1 234.7Q431.4 234.7 452.55 262.15Q473.7 289.6 470.1 340H417.9Q418.8 311.2 411.15 299.5Q403.5 287.8 384.6 287.8Q372.9 287.8 359.4 291.85Q345.9 295.9 318.9 310.3Q288.3 325.6 272.1 330.55Q255.9 335.5 240.6 335.5Q193.8 335.5 169.5 306.25Q145.2 277 147 225.7H200.1Q200.1 253.6 210.9 268Q221.7 282.4 242.4 282.4Q255 282.4 269.4 277.9Q283.8 273.4 311.7 259.9ZM311.7 416.9Q342.3 401.6 358.5 396.65Q374.7 391.7 389.1 391.7Q431.4 391.7 452.55 419.15Q473.7 446.6 470.1 497H417.9Q418.8 468.2 411.15 456.5Q403.5 444.8 384.6 444.8Q372.9 444.8 359.4 448.85Q345.9 452.9 318.9 467.3Q288.3 482.6 272.1 487.55Q255.9 492.5 240.6 492.5Q193.8 492.5 169.5 463.25Q145.2 434 147 382.7H200.1Q200.1 410.6 210.9 425Q221.7 439.4 242.4 439.4Q255 439.4 269.4 434.9Q283.8 430.4 311.7 416.9Z" glyph-name="approxequal" horiz-adv-x="581" unicode="&#8776;" /><glyph d="M475 0H414L428 84Q394 38 349 13Q304 -12 252 -12Q162 -12 106 48.5Q50 109 50 203Q50 333 121.5 421Q193 509 299 509Q365 509 411.5 475.5Q458 442 478 381L499 497H563ZM118 213Q118 137 157.5 92Q197 47 266 47Q345 47 401 115Q457 183 457 278Q457 354 415.5 402Q374 450 305 450Q226 450 172 381.5Q118 313 118 213ZM314 497ZM431 0ZM439 664Q439 707 408 738Q377 769 334 769Q290 769 260 738.5Q230 708 230 664Q230 620 259.5 590Q289 560 334 560Q378 560 408.5 590.5Q439 621 439 664ZM275 664Q275 688 292.5 706Q310 724 334 724Q358 724 375.5 706Q393 688 393 664Q393 640 375.5 622.5Q358 605 334 605Q310 605 292.5 622.5Q275 640 275 664ZM314 497Z" glyph-name="aring" horiz-adv-x="613" unicode="&#229;" /><glyph d="M431 664Q431 707 400 738Q369 769 326 769Q282 769 252 738.5Q222 708 222 664Q222 620 251.5 590Q281 560 326 560Q370 560 400.5 590.5Q431 621 431 664ZM267 664Q267 688 284.5 706Q302 724 326 724Q350 724 367.5 706Q385 688 385 664Q385 640 367.5 622.5Q350 605 326 605Q302 605 284.5 622.5Q267 640 267 664ZM306 497ZM487 311 431 0H369L387 101Q353 46 305.5 17Q258 -12 201 -12Q129 -12 85.5 24Q42 60 42 118Q42 183 85.5 223.5Q129 264 228 286L423 330Q430 389 400.5 419.5Q371 450 307 450Q261 450 210 424.5Q159 399 123 359L84 402Q127 451 188 480Q249 509 312 509Q409 509 456 453.5Q503 398 487 311ZM109 123Q109 84 135.5 64Q162 44 213 44Q284 44 339.5 101Q395 158 410 249L414 273L235 233Q167 218 138 192.5Q109 167 109 123ZM313 498ZM396 -14Z" glyph-name="aring.alt" horiz-adv-x="561" /><glyph d="M281 700H335L519 281H453L308 624L162 281H96Z" glyph-name="asciicircum" horiz-adv-x="580" unicode="^" /><glyph d="M313 341Q347 324 365 318.5Q383 313 399 313Q446 313 469.5 343.5Q493 374 489 430H431Q432 398 423.5 385Q415 372 394 372Q381 372 366 376.5Q351 381 321 397Q287 414 269 419.5Q251 425 234 425Q182 425 155 392.5Q128 360 130 303H189Q189 334 201 350Q213 366 236 366Q250 366 266 361Q282 356 313 341Z" glyph-name="asciitilde" horiz-adv-x="580" unicode="~" /><glyph d="M299 478 279 341H220L249 476L123 405L98 456L233 520L123 585L156 635L263 561L284 700H343L313 562L441 636L466 585L329 519L436 455L403 405Z" glyph-name="asterisk" horiz-adv-x="471" unicode="*" /><glyph d="M585 163Q558 117 518.5 92.5Q479 68 433 68Q362 68 318.5 114.5Q275 161 275 236Q275 346 333 422.5Q391 499 479 499Q530 499 566 474.5Q602 450 618 404L633 489H696L647 218Q639 172 654.5 147Q670 122 706 122Q764 122 805.5 183.5Q847 245 847 347Q847 412 821 474Q795 536 748 579Q704 619 643.5 639.5Q583 660 508 660Q421 660 350.5 632Q280 604 229 550Q178 497 150.5 423Q123 349 123 268Q123 94 217 -4.5Q311 -103 482 -103Q547 -103 600 -89.5Q653 -76 725 -37L747 -80Q675 -121 612.5 -138Q550 -155 481 -155Q283 -155 172.5 -41.5Q62 72 62 266Q62 355 95 440Q128 525 188 587Q248 648 329 680Q410 712 508 712Q688 712 798 611.5Q908 511 908 349Q908 225 848.5 150Q789 75 701 75Q652 75 620.5 98Q589 121 585 163ZM341 243Q341 183 368 151Q395 119 447 119Q503 119 546.5 169.5Q590 220 597 292Q605 366 575 407.5Q545 449 485 449Q422 449 381.5 390Q341 331 341 243Z" glyph-name="at" horiz-adv-x="952" unicode="@" /><glyph d="M475 0H414L428 84Q394 38 349 13Q304 -12 252 -12Q162 -12 106 48.5Q50 109 50 203Q50 333 121.5 421Q193 509 299 509Q365 509 411.5 475.5Q458 442 478 381L499 497H563ZM118 213Q118 137 157.5 92Q197 47 266 47Q345 47 401 115Q457 183 457 278Q457 354 415.5 402Q374 450 305 450Q226 450 172 381.5Q118 313 118 213ZM314 497ZM431 0ZM331 630Q355 614 368.5 609Q382 604 396 604Q428 604 447.5 628.5Q467 653 471 697H423Q421 677 413.5 668Q406 659 392 659Q383 659 372 663.5Q361 668 339 682Q312 699 296.5 704.5Q281 710 267 710Q232 710 210.5 685.5Q189 661 181 614H230Q235 636 244 646Q253 656 268 656Q281 656 294.5 651Q308 646 331 630ZM313 497Z" glyph-name="atilde" horiz-adv-x="613" unicode="&#227;" /><glyph d="M487 311 431 0H369L387 101Q353 46 305.5 17Q258 -12 201 -12Q129 -12 85.5 24Q42 60 42 118Q42 183 85.5 223.5Q129 264 228 286L423 330Q430 389 400.5 419.5Q371 450 307 450Q261 450 210 424.5Q159 399 123 359L84 402Q127 451 188 480Q249 509 312 509Q409 509 456 453.5Q503 398 487 311ZM109 123Q109 84 135.5 64Q162 44 213 44Q284 44 339.5 101Q395 158 410 249L414 273L235 233Q167 218 138 192.5Q109 167 109 123ZM313 498ZM396 -14ZM336 630Q360 614 373.5 609Q387 604 401 604Q433 604 452.5 628.5Q472 653 476 697H428Q426 677 418.5 668Q411 659 397 659Q388 659 377 663.5Q366 668 344 682Q317 699 301.5 704.5Q286 710 272 710Q237 710 215.5 685.5Q194 661 186 614H235Q240 636 249 646Q258 656 273 656Q286 656 299.5 651Q313 646 336 630ZM318 497Z" glyph-name="atilde.alt" horiz-adv-x="561" /><glyph d="M366 509Q458 509 514 448.5Q570 388 570 292Q570 161 498.5 74.5Q427 -12 318 -12Q249 -12 202 21.5Q155 55 134 117L113 0H50L178 730H245L189 417Q224 462 269 485.5Q314 509 366 509ZM503 285Q503 359 462 404Q421 449 351 449Q269 449 213 382Q157 315 157 218Q157 142 199 94.5Q241 47 312 47Q394 47 448.5 115Q503 183 503 285Z" glyph-name="b" horiz-adv-x="622" unicode="b" /><glyph d="M177 742 452 -132H383L108 742Z" glyph-name="backslash" horiz-adv-x="541" unicode="\" /><glyph d="M190 742V-127H129V742Z" glyph-name="bar" horiz-adv-x="298" unicode="|" /><glyph d="M46 298 57 356 87 355Q125 354 143 376Q161 398 163 460Q163 460 165 517Q167 574 173 611Q184 676 226.5 709Q269 742 342 742H381L370 683H352Q304 683 277 664Q250 645 244 608Q241 592 239.5 572Q238 552 236 512Q233 468 231 447Q229 426 226 409Q220 374 198.5 353Q177 332 135 320Q166 305 181 284.5Q196 264 196 237Q196 219 191 196Q186 173 169 127Q151 77 145.5 52.5Q140 28 140 7Q140 -29 161.5 -48Q183 -67 225 -67H243L232 -127H202Q143 -127 106.5 -90.5Q70 -54 70 4Q70 30 76.5 60Q83 90 103 146Q118 189 122.5 208.5Q127 228 127 243Q127 268 113 282Q99 296 74 297Z" glyph-name="braceleft" horiz-adv-x="332" unicode="{" /><glyph d="M307 317 296 259 266 260Q228 261 210 239Q192 217 190 155Q190 155 188 98Q186 41 180 4Q169 -61 126.5 -94Q84 -127 11 -127H-28L-17 -68H1Q49 -68 76 -49Q103 -30 109 7Q112 23 113.5 43Q115 63 117 103Q120 147 122 168Q124 189 127 206Q133 241 154.5 262Q176 283 218 295Q187 310 172 330.5Q157 351 157 378Q157 396 162 419Q167 442 184 488Q202 538 207.5 562.5Q213 587 213 608Q213 644 191.5 663Q170 682 128 682H110L121 742H151Q210 742 246.5 705.5Q283 669 283 611Q283 585 276.5 555Q270 525 250 469Q235 426 230.5 406.5Q226 387 226 372Q226 347 240 333Q254 319 279 318Z" glyph-name="braceright" horiz-adv-x="332" unicode="}" /><glyph d="M275 -127H39L192 742H427L417 683H251L120 -68H286Z" glyph-name="bracketleft" horiz-adv-x="371" unicode="[" /><glyph d="M116 742H352L199 -127H-36L-26 -68H140L271 683H105Z" glyph-name="bracketright" horiz-adv-x="370" unicode="]" /><glyph d="M195 632Q233 632 255.5 656.5Q278 681 283 727H332Q328 662 291.5 623.5Q255 585 193 585Q131 585 99 624.5Q67 664 73 727H122Q121 678 139 655Q157 632 195 632ZM182 497Z" glyph-name="breve" horiz-adv-x="393" unicode="&#728;" /><glyph d="M195 832Q233 832 255.5 856.5Q278 881 283 927H332Q328 862 291.5 823.5Q255 785 193 785Q131 785 99 824.5Q67 864 73 927H122Q121 878 139 855Q157 832 195 832ZM181 700Z" glyph-name="breve.case" horiz-adv-x="393" /><glyph d="M190 742V405H129V742ZM190 205V-132H129V205Z" glyph-name="brokenbar" horiz-adv-x="298" unicode="&#166;" /><glyph d="M107.5 331Q107.5 298 130 275.5Q152.5 253 185.5 253Q218.5 253 241 275.5Q263.5 298 263.5 331Q263.5 364 241 386.5Q218.5 409 185.5 409Q152.5 409 130 386.5Q107.5 364 107.5 331ZM124 341.5Z" glyph-name="bullet" horiz-adv-x="346" unicode="&#8226;" /><glyph d="M269 -12Q170 -12 110 48Q50 108 50 207Q50 336 127 422.5Q204 509 315 509Q391 509 443.5 468.5Q496 428 517 352L456 327Q437 389 401.5 419Q366 449 310 449Q232 449 175 381Q118 313 118 214Q118 137 159.5 92Q201 47 271 47Q318 47 357 74Q396 101 429 155L484 121Q445 55 390.5 21.5Q336 -12 269 -12ZM313 497ZM272 10Z" glyph-name="c" horiz-adv-x="543" unicode="c" /><glyph d="M470 727H390L290 587H354ZM313 497ZM269 -12Q170 -12 110 48Q50 108 50 207Q50 336 127 422.5Q204 509 315 509Q391 509 443.5 468.5Q496 428 517 352L456 327Q437 389 401.5 419Q366 449 310 449Q232 449 175 381Q118 313 118 214Q118 137 159.5 92Q201 47 271 47Q318 47 357 74Q396 101 429 155L484 121Q445 55 390.5 21.5Q336 -12 269 -12ZM313 497ZM272 10Z" glyph-name="cacute" horiz-adv-x="543" unicode="&#263;" /><glyph d="M228 587H153L82 727H140L195 635L265 727H323ZM182 497Z" glyph-name="caron" horiz-adv-x="392" unicode="&#711;" /><glyph d="M228 787H153L82 927H140L195 835L265 927H323ZM183 700Z" glyph-name="caron.case" horiz-adv-x="392" /><glyph d="M131 730H59L10 582H65ZM5 700Z" glyph-name="caron.salt" horiz-adv-x="175" /><glyph d="M360 587H285L214 727H272L327 635L397 727H455ZM314 497ZM269 -12Q170 -12 110 48Q50 108 50 207Q50 336 127 422.5Q204 509 315 509Q391 509 443.5 468.5Q496 428 517 352L456 327Q437 389 401.5 419Q366 449 310 449Q232 449 175 381Q118 313 118 214Q118 137 159.5 92Q201 47 271 47Q318 47 357 74Q396 101 429 155L484 121Q445 55 390.5 21.5Q336 -12 269 -12ZM313 497ZM272 10Z" glyph-name="ccaron" horiz-adv-x="543" unicode="&#269;" /><glyph d="M179 -102 167 -80 235 -10Q150 1 100 59Q50 117 50 207Q50 336 127 422.5Q204 509 315 509Q391 509 443.5 468.5Q496 428 517 352L456 327Q437 389 401.5 419Q366 449 310 449Q232 449 175 381Q118 313 118 214Q118 137 159.5 92Q201 47 271 47Q318 47 357 74Q396 101 429 155L484 121Q446 58 394.5 24.5Q343 -9 280 -12L230 -63Q234 -62 238 -62Q242 -62 249 -62Q288 -62 309.5 -80Q331 -98 331 -129Q331 -170 299.5 -195.5Q268 -221 217 -221Q196 -221 173 -215Q150 -209 131 -199L139 -161Q159 -172 175.5 -176.5Q192 -181 212 -181Q241 -181 258 -167.5Q275 -154 275 -130Q275 -113 260.5 -103.5Q246 -94 221 -94Q212 -94 201.5 -96Q191 -98 179 -102Z" glyph-name="ccedilla" horiz-adv-x="543" unicode="&#231;" /><glyph d="M202 587 297 727H372L443 587H385L331 680L260 587ZM314 497ZM269 -12Q170 -12 110 48Q50 108 50 207Q50 336 127 422.5Q204 509 315 509Q391 509 443.5 468.5Q496 428 517 352L456 327Q437 389 401.5 419Q366 449 310 449Q232 449 175 381Q118 313 118 214Q118 137 159.5 92Q201 47 271 47Q318 47 357 74Q396 101 429 155L484 121Q445 55 390.5 21.5Q336 -12 269 -12ZM313 497ZM272 10Z" glyph-name="ccircumflex" horiz-adv-x="543" unicode="&#265;" /><glyph d="M269 -12Q170 -12 110 48Q50 108 50 207Q50 336 127 422.5Q204 509 315 509Q391 509 443.5 468.5Q496 428 517 352L456 327Q437 389 401.5 419Q366 449 310 449Q232 449 175 381Q118 313 118 214Q118 137 159.5 92Q201 47 271 47Q318 47 357 74Q396 101 429 155L484 121Q445 55 390.5 21.5Q336 -12 269 -12ZM313 497ZM272 10ZM280 657Q280 635 295.5 619Q311 603 333 603Q356 603 371.5 619Q387 635 387 657Q387 680 371.5 695.5Q356 711 333 711Q311 711 295.5 695Q280 679 280 657ZM313 497Z" glyph-name="cdotaccent" horiz-adv-x="543" unicode="&#267;" /><glyph d="M127 -102 115 -80 195 3H243L178 -63Q182 -62 186 -62Q190 -62 197 -62Q236 -62 257.5 -80Q279 -98 279 -129Q279 -170 247.5 -195.5Q216 -221 165 -221Q144 -221 121 -215Q98 -209 79 -199L87 -161Q107 -172 123.5 -176.5Q140 -181 160 -181Q189 -181 206 -167.5Q223 -154 223 -130Q223 -113 208.5 -103.5Q194 -94 169 -94Q160 -94 149.5 -96Q139 -98 127 -102ZM219 10Z" glyph-name="cedilla" horiz-adv-x="386" unicode="&#184;" /><glyph d="M148 -84H93L145 23Q102 52 78.5 99.5Q55 147 55 207Q55 336 132 422.5Q209 509 320 509Q336 509 350.5 507Q365 505 378 502L423 594H478L424 484Q459 465 484 431.5Q509 398 522 352L461 327Q450 363 434 387.5Q418 412 396 427L217 57Q230 52 244.5 49.5Q259 47 276 47Q323 47 362 74Q401 101 434 155L489 121Q450 55 395.5 21.5Q341 -12 274 -12Q251 -12 230 -8.5Q209 -5 190 2ZM315 449Q237 449 180 381Q123 313 123 214Q123 172 136 138.5Q149 105 174 82L351 446Q343 448 334 448.5Q325 449 315 449Z" glyph-name="cent" horiz-adv-x="562" unicode="&#162;" /><glyph d="M70 587 165 727H240L311 587H253L199 680L128 587ZM182 497Z" glyph-name="circumflex" horiz-adv-x="392" unicode="&#710;" /><glyph d="M70 787 165 927H240L311 787H253L199 880L128 787ZM175 700Z" glyph-name="circumflex.case" horiz-adv-x="392" /><glyph d="M113 449Q113 427 128 412Q143 397 165 397Q187 397 202 412Q217 427 217 449Q217 471 202 486Q187 501 165 501Q143 501 128 486Q113 471 113 449ZM124 456ZM42 40Q42 18 57 3Q72 -12 94 -12Q116 -12 131 3Q146 18 146 40Q146 62 131 77Q116 92 94 92Q72 92 57 77Q42 62 42 40ZM53 47Z" glyph-name="colon" horiz-adv-x="259" unicode=":" /><glyph d="M141 90H65L-22 -154H43Z" glyph-name="comma" horiz-adv-x="228" unicode="," /><glyph d="M149 -69H74L14 -219H75ZM121 0ZM80 -210Z" glyph-name="commaaccent" horiz-adv-x="197" unicode="&#63171;" /><glyph d="M46 587H125L185 727H129ZM81 497Z" glyph-name="commaaccent.salt" horiz-adv-x="197" /><glyph d="M801 351Q801 501 695.5 606.5Q590 712 440 712Q290 712 184.5 606.5Q79 501 79 351Q79 201 185 94.5Q291 -12 440 -12Q589 -12 695 94.5Q801 201 801 351ZM136 351Q136 478 225 568.5Q314 659 440 659Q566 659 655.5 568.5Q745 478 745 351Q745 223 655.5 132.5Q566 42 440 42Q315 42 225.5 133Q136 224 136 351ZM440 168Q366 168 319 219Q272 270 272 350Q272 430 320 482Q368 534 443 534Q493 534 530.5 510.5Q568 487 589 443L538 415Q520 450 497 465.5Q474 481 441 481Q393 481 362.5 444Q332 407 332 350Q332 293 363 256.5Q394 220 442 220Q476 220 500.5 238.5Q525 257 541 296L593 271Q572 221 533 194.5Q494 168 440 168Z" glyph-name="copyright" horiz-adv-x="844" unicode="&#169;" /><glyph d="M94 122 58 167 167 260Q156 279 150.5 299.5Q145 320 145 342Q145 369 153.5 394.5Q162 420 178 441L109 527L160 572L230 486Q247 497 268 502.5Q289 508 310 508Q337 508 361.5 499.5Q386 491 405 475L519 572L556 527L446 433Q457 415 463 394Q469 373 469 350Q469 325 461.5 301Q454 277 439 257L513 167L462 122L389 209Q370 197 348.5 190.5Q327 184 304 184Q277 184 252 193Q227 202 208 218ZM304 241Q348 241 379.5 272.5Q411 304 411 349Q411 391 382 421Q353 451 311 451Q266 451 234 419.5Q202 388 202 343Q202 300 231.5 270.5Q261 241 304 241Z" glyph-name="currency" horiz-adv-x="584" unicode="&#164;" /><glyph d="M50 205Q50 335 122.5 422Q195 509 304 509Q371 509 417.5 477Q464 445 485 385L546 730H612L484 0H421L434 83Q401 37 355 12.5Q309 -12 256 -12Q163 -12 106.5 48.5Q50 109 50 205ZM118 213Q118 138 159 92.5Q200 47 271 47Q353 47 409.5 114Q466 181 466 278Q466 354 423.5 402Q381 450 310 450Q228 450 173 382Q118 314 118 213ZM663 700Z" glyph-name="d" horiz-adv-x="622" unicode="d" /><glyph d="M268 436 198 0H131L215 436L76 430L86 490L223 485L255 700H322L277 485L415 490L405 430Z" glyph-name="dagger" horiz-adv-x="416" unicode="&#8224;" /><glyph d="M211 0H144L189 215L51 210L61 270L197 265L206 350L227 436L89 430L99 490L236 485L268 700H335L290 485L428 490L418 430L282 436L273 350L252 265L390 270L380 210L243 215Z" glyph-name="daggerdbl" horiz-adv-x="443" unicode="&#8225;" /><glyph d="M789 730H717L668 582H723ZM663 700ZM50 205Q50 335 122.5 422Q195 509 304 509Q371 509 417.5 477Q464 445 485 385L546 730H612L484 0H421L434 83Q401 37 355 12.5Q309 -12 256 -12Q163 -12 106.5 48.5Q50 109 50 205ZM118 213Q118 138 159 92.5Q200 47 271 47Q353 47 409.5 114Q466 181 466 278Q466 354 423.5 402Q381 450 310 450Q228 450 173 382Q118 314 118 213ZM663 700Z" glyph-name="dcaron" horiz-adv-x="648" unicode="&#271;" /><glyph d="M50 205Q50 335 122.5 422Q195 509 304 509Q371 509 417.5 477Q464 445 485 385L522 593H359L370 650H532L546 730H612L598 650H684L673 593H588L484 0H421L434 83Q401 37 355 12.5Q309 -12 256 -12Q163 -12 106.5 48.5Q50 109 50 205ZM118 213Q118 138 159 92.5Q200 47 271 47Q353 47 409.5 114Q466 181 466 278Q466 354 423.5 402Q381 450 310 450Q228 450 173 382Q118 314 118 213Z" glyph-name="dcroat" horiz-adv-x="622" unicode="&#273;" /><glyph d="M387 574Q387 632 347 672Q307 712 249 712Q191 712 149.5 671.5Q108 631 108 574Q108 517 149.5 476Q191 435 249 435Q307 435 347 475.5Q387 516 387 574ZM161 574Q161 611 186.5 636.5Q212 662 249 662Q286 662 311.5 636.5Q337 611 337 574Q337 537 311.5 511.5Q286 486 249 486Q212 486 186.5 511.5Q161 537 161 574Z" glyph-name="degree" horiz-adv-x="388" unicode="&#176;" /><glyph d="M73 657Q73 638 87 624Q101 610 120 610Q140 610 154 624Q168 638 168 657Q168 676 154 690Q140 704 120 704Q101 704 87 690.5Q73 677 73 657ZM224 657Q224 637 237.5 623.5Q251 610 270 610Q290 610 304 624Q318 638 318 657Q318 676 304 690Q290 704 270 704Q251 704 237.5 690.5Q224 677 224 657ZM177 497Z" glyph-name="dieresis" horiz-adv-x="393" unicode="&#168;" /><glyph d="M73 857Q73 838 87 824Q101 810 120 810Q140 810 154 824Q168 838 168 857Q168 876 154 890Q140 904 120 904Q101 904 87 890.5Q73 877 73 857ZM224 857Q224 837 237.5 823.5Q251 810 270 810Q290 810 304 824Q318 838 318 857Q318 876 304 890Q290 904 270 904Q251 904 237.5 890.5Q224 877 224 857ZM176 700Z" glyph-name="dieresis.case" horiz-adv-x="393" /><glyph d="M85 320V381H530V320ZM261 171Q261 151 274.5 137.5Q288 124 308 124Q327 124 341 137.5Q355 151 355 171Q355 191 341 204.5Q327 218 308 218Q288 218 274.5 204.5Q261 191 261 171ZM261 531Q261 511 274.5 497.5Q288 484 308 484Q327 484 341 497.5Q355 511 355 531Q355 551 341 564.5Q327 578 308 578Q288 578 274.5 564.5Q261 551 261 531Z" glyph-name="divide" horiz-adv-x="580" unicode="&#247;" /><glyph d="M258 -12 236 -134H186L209 -5Q150 7 101 39.5Q52 72 17 121L72 170Q103 126 140.5 98.5Q178 71 220 59L270 341L235 358Q174 388 143 430Q112 472 112 525Q112 604 171 658Q230 712 328 712Q330 712 332 712Q334 712 336 712L357 833H406L384 707Q437 698 481 669.5Q525 641 561 593L506 546Q476 585 442.5 609Q409 633 372 642L328 389L383 361Q442 331 470 292.5Q498 254 498 204Q498 108 436 48Q374 -12 275 -12Q271 -12 266.5 -12Q262 -12 258 -12ZM182 534Q182 498 202.5 470Q223 442 264 421L282 412L324 647Q257 646 219.5 614Q182 582 182 534ZM427 193Q427 228 407 255Q387 282 346 303L315 318L269 52Q271 52 273 52Q275 52 277 52Q347 52 387 92.5Q427 133 427 193Z" glyph-name="dollar" horiz-adv-x="559" unicode="$" /><glyph d="M138 657Q138 635 153.5 619Q169 603 191 603Q214 603 229.5 619Q245 635 245 657Q245 680 229.5 695.5Q214 711 191 711Q169 711 153.5 695Q138 679 138 657ZM171 497Z" glyph-name="dotaccent" horiz-adv-x="382" unicode="&#729;" /><glyph d="M138 857Q138 835 153.5 819Q169 803 191 803Q214 803 229.5 819Q245 835 245 857Q245 880 229.5 895.5Q214 911 191 911Q169 911 153.5 895Q138 879 138 857ZM171 700Z" glyph-name="dotaccent.case" horiz-adv-x="382" /><glyph d="M51 0 137 497H203L118 0ZM170 497Z" glyph-name="dotlessi" horiz-adv-x="254" unicode="&#305;" /><glyph d="M277 -12Q176 -12 113.5 49Q51 110 51 207Q51 338 127 423.5Q203 509 314 509Q403 509 458 454Q513 399 513 310Q513 292 509.5 269Q506 246 502 234H119Q118 227 118 222.5Q118 218 118 210Q118 134 162.5 89.5Q207 45 282 45Q323 45 360 65.5Q397 86 434 130L476 87Q439 39 387.5 13.5Q336 -12 277 -12ZM448 312Q448 377 410 415Q372 453 310 453Q246 453 195.5 408Q145 363 128 288H445Q447 296 447.5 301Q448 306 448 312ZM312 497ZM319 0Z" glyph-name="e" horiz-adv-x="557" unicode="e" /><glyph d="M469 727H389L289 587H353ZM312 497ZM277 -12Q176 -12 113.5 49Q51 110 51 207Q51 338 127 423.5Q203 509 314 509Q403 509 458 454Q513 399 513 310Q513 292 509.5 269Q506 246 502 234H119Q118 227 118 222.5Q118 218 118 210Q118 134 162.5 89.5Q207 45 282 45Q323 45 360 65.5Q397 86 434 130L476 87Q439 39 387.5 13.5Q336 -12 277 -12ZM448 312Q448 377 410 415Q372 453 310 453Q246 453 195.5 408Q145 363 128 288H445Q447 296 447.5 301Q448 306 448 312ZM312 497ZM319 0Z" glyph-name="eacute" horiz-adv-x="557" unicode="&#233;" /><glyph d="M277 -12Q176 -12 113.5 49Q51 110 51 207Q51 338 127 423.5Q203 509 314 509Q403 509 458 454Q513 399 513 310Q513 292 509.5 269Q506 246 502 234H119Q118 227 118 222.5Q118 218 118 210Q118 134 162.5 89.5Q207 45 282 45Q323 45 360 65.5Q397 86 434 130L476 87Q439 39 387.5 13.5Q336 -12 277 -12ZM448 312Q448 377 410 415Q372 453 310 453Q246 453 195.5 408Q145 363 128 288H445Q447 296 447.5 301Q448 306 448 312ZM312 497ZM319 0ZM325 632Q363 632 385.5 656.5Q408 681 413 727H462Q458 662 421.5 623.5Q385 585 323 585Q261 585 229 624.5Q197 664 203 727H252Q251 678 269 655Q287 632 325 632ZM312 497Z" glyph-name="ebreve" horiz-adv-x="557" unicode="&#277;" /><glyph d="M359 587H284L213 727H271L326 635L396 727H454ZM313 497ZM277 -12Q176 -12 113.5 49Q51 110 51 207Q51 338 127 423.5Q203 509 314 509Q403 509 458 454Q513 399 513 310Q513 292 509.5 269Q506 246 502 234H119Q118 227 118 222.5Q118 218 118 210Q118 134 162.5 89.5Q207 45 282 45Q323 45 360 65.5Q397 86 434 130L476 87Q439 39 387.5 13.5Q336 -12 277 -12ZM448 312Q448 377 410 415Q372 453 310 453Q246 453 195.5 408Q145 363 128 288H445Q447 296 447.5 301Q448 306 448 312ZM312 497ZM319 0Z" glyph-name="ecaron" horiz-adv-x="557" unicode="&#283;" /><glyph d="M201 587 296 727H371L442 587H384L330 680L259 587ZM313 497ZM277 -12Q176 -12 113.5 49Q51 110 51 207Q51 338 127 423.5Q203 509 314 509Q403 509 458 454Q513 399 513 310Q513 292 509.5 269Q506 246 502 234H119Q118 227 118 222.5Q118 218 118 210Q118 134 162.5 89.5Q207 45 282 45Q323 45 360 65.5Q397 86 434 130L476 87Q439 39 387.5 13.5Q336 -12 277 -12ZM448 312Q448 377 410 415Q372 453 310 453Q246 453 195.5 408Q145 363 128 288H445Q447 296 447.5 301Q448 306 448 312ZM312 497ZM319 0Z" glyph-name="ecircumflex" horiz-adv-x="557" unicode="&#234;" /><glyph d="M209 657Q209 638 223 624Q237 610 256 610Q276 610 290 624Q304 638 304 657Q304 676 290 690Q276 704 256 704Q237 704 223 690.5Q209 677 209 657ZM360 657Q360 637 373.5 623.5Q387 610 406 610Q426 610 440 624Q454 638 454 657Q454 676 440 690Q426 704 406 704Q387 704 373.5 690.5Q360 677 360 657ZM313 497ZM277 -12Q176 -12 113.5 49Q51 110 51 207Q51 338 127 423.5Q203 509 314 509Q403 509 458 454Q513 399 513 310Q513 292 509.5 269Q506 246 502 234H119Q118 227 118 222.5Q118 218 118 210Q118 134 162.5 89.5Q207 45 282 45Q323 45 360 65.5Q397 86 434 130L476 87Q439 39 387.5 13.5Q336 -12 277 -12ZM448 312Q448 377 410 415Q372 453 310 453Q246 453 195.5 408Q145 363 128 288H445Q447 296 447.5 301Q448 306 448 312ZM312 497ZM319 0Z" glyph-name="edieresis" horiz-adv-x="557" unicode="&#235;" /><glyph d="M277 -12Q176 -12 113.5 49Q51 110 51 207Q51 338 127 423.5Q203 509 314 509Q403 509 458 454Q513 399 513 310Q513 292 509.5 269Q506 246 502 234H119Q118 227 118 222.5Q118 218 118 210Q118 134 162.5 89.5Q207 45 282 45Q323 45 360 65.5Q397 86 434 130L476 87Q439 39 387.5 13.5Q336 -12 277 -12ZM448 312Q448 377 410 415Q372 453 310 453Q246 453 195.5 408Q145 363 128 288H445Q447 296 447.5 301Q448 306 448 312ZM312 497ZM319 0ZM279 657Q279 635 294.5 619Q310 603 332 603Q355 603 370.5 619Q386 635 386 657Q386 680 370.5 695.5Q355 711 332 711Q310 711 294.5 695Q279 679 279 657ZM312 497Z" glyph-name="edotaccent" horiz-adv-x="557" unicode="&#279;" /><glyph d="M277 -12Q176 -12 113.5 49Q51 110 51 207Q51 338 127 423.5Q203 509 314 509Q403 509 458 454Q513 399 513 310Q513 292 509.5 269Q506 246 502 234H119Q118 227 118 222.5Q118 218 118 210Q118 134 162.5 89.5Q207 45 282 45Q323 45 360 65.5Q397 86 434 130L476 87Q439 39 387.5 13.5Q336 -12 277 -12ZM448 312Q448 377 410 415Q372 453 310 453Q246 453 195.5 408Q145 363 128 288H445Q447 296 447.5 301Q448 306 448 312ZM312 497ZM319 0ZM342 587 266 727H188L279 587ZM312 497Z" glyph-name="egrave" horiz-adv-x="557" unicode="&#232;" /><glyph d="M534 207Q534 111 465.5 49.5Q397 -12 288 -12Q184 -12 119 40.5Q54 93 54 174Q54 246 98 302Q142 358 217 375Q173 396 150.5 430.5Q128 465 128 511Q128 596 192.5 654Q257 712 357 712Q456 712 517 662.5Q578 613 578 537Q578 472 540 422.5Q502 373 435 356Q484 334 509 296.5Q534 259 534 207ZM198 513Q198 456 239.5 423Q281 390 351 390Q421 390 464 432.5Q507 475 507 534Q507 587 464.5 619.5Q422 652 353 652Q285 652 241.5 613.5Q198 575 198 513ZM295 334Q218 334 171.5 288Q125 242 125 177Q125 119 170.5 84Q216 49 291 49Q366 49 414.5 90.5Q463 132 463 200Q463 263 418 298.5Q373 334 295 334Z" glyph-name="eight" horiz-adv-x="608" unicode="8" /><glyph d="M91 187Q70 199 59.5 216.5Q49 234 49 256Q49 299 82.5 327.5Q116 356 169 356Q222 356 255 330.5Q288 305 288 266Q288 236 270 211Q252 186 220 176Q242 164 254 145Q266 126 266 102Q266 55 230 24.5Q194 -6 138 -6Q82 -6 47 21Q12 48 12 89Q12 123 33.5 150Q55 177 91 187ZM169 313Q140 313 121 296Q102 279 102 252Q102 228 119 213.5Q136 199 166 199Q196 199 214 217Q232 235 232 261Q232 285 215 299Q198 313 169 313ZM141 160Q108 160 88 140.5Q68 121 68 93Q68 68 87.5 52.5Q107 37 139 37Q170 37 190.5 55.5Q211 74 211 103Q211 130 192.5 145Q174 160 141 160Z" glyph-name="eight.denominator" horiz-adv-x="332" unicode="&#63069;" /><glyph d="M66 47Q45 59 34.5 76.5Q24 94 24 116Q24 159 57.5 187.5Q91 216 144 216Q197 216 230 190.5Q263 165 263 126Q263 96 245 71Q227 46 195 36Q217 24 229 5Q241 -14 241 -38Q241 -85 205 -115.5Q169 -146 113 -146Q57 -146 22 -119Q-13 -92 -13 -51Q-13 -17 8.5 10Q30 37 66 47ZM144 173Q115 173 96 156Q77 139 77 112Q77 88 94 73.5Q111 59 141 59Q171 59 189 77Q207 95 207 121Q207 145 190 159Q173 173 144 173ZM116 20Q83 20 63 0.5Q43 -19 43 -47Q43 -72 62.5 -87.5Q82 -103 114 -103Q145 -103 165.5 -84.5Q186 -66 186 -37Q186 -10 167.5 5Q149 20 116 20Z" glyph-name="eight.inferior" horiz-adv-x="332" unicode="&#8328;" /><glyph d="M153 537Q132 549 121.5 566.5Q111 584 111 606Q111 649 144.5 677.5Q178 706 231 706Q284 706 317 680.5Q350 655 350 616Q350 586 332 561Q314 536 282 526Q304 514 316 495Q328 476 328 452Q328 405 292 374.5Q256 344 200 344Q144 344 109 371Q74 398 74 439Q74 473 95.5 500Q117 527 153 537ZM231 663Q202 663 183 646Q164 629 164 602Q164 578 181 563.5Q198 549 228 549Q258 549 276 567Q294 585 294 611Q294 635 277 649Q260 663 231 663ZM203 510Q170 510 150 490.5Q130 471 130 443Q130 418 149.5 402.5Q169 387 201 387Q232 387 252.5 405.5Q273 424 273 453Q273 480 254.5 495Q236 510 203 510Z" glyph-name="eight.numerator" horiz-adv-x="332" unicode="&#63081;" /><glyph d="M177 677Q156 689 145.5 706.5Q135 724 135 746Q135 789 168.5 817.5Q202 846 255 846Q308 846 341 820.5Q374 795 374 756Q374 726 356 701Q338 676 306 666Q328 654 340 635Q352 616 352 592Q352 545 316 514.5Q280 484 224 484Q168 484 133 511Q98 538 98 579Q98 613 119.5 640Q141 667 177 677ZM255 803Q226 803 207 786Q188 769 188 742Q188 718 205 703.5Q222 689 252 689Q282 689 300 707Q318 725 318 751Q318 775 301 789Q284 803 255 803ZM227 650Q194 650 174 630.5Q154 611 154 583Q154 558 173.5 542.5Q193 527 225 527Q256 527 276.5 545.5Q297 564 297 593Q297 620 278.5 635Q260 650 227 650Z" glyph-name="eight.superior" horiz-adv-x="332" unicode="&#8312;" /><glyph d="M523 207Q523 111 454.5 49.5Q386 -12 277 -12Q173 -12 108 40.5Q43 93 43 174Q43 246 87 302Q131 358 206 375Q162 396 139.5 430.5Q117 465 117 511Q117 596 181.5 654Q246 712 346 712Q445 712 506 662.5Q567 613 567 537Q567 472 529 422.5Q491 373 424 356Q473 334 498 296.5Q523 259 523 207ZM187 513Q187 456 228.5 423Q270 390 340 390Q410 390 453 432.5Q496 475 496 534Q496 587 453.5 619.5Q411 652 342 652Q274 652 230.5 613.5Q187 575 187 513ZM284 334Q207 334 160.5 288Q114 242 114 177Q114 119 159.5 84Q205 49 280 49Q355 49 403.5 90.5Q452 132 452 200Q452 263 407 298.5Q362 334 284 334Z" glyph-name="eight.tab" horiz-adv-x="588" unicode="&#65304;" /><glyph d="M41 40Q41 18 56 3Q71 -12 93 -12Q115 -12 130 3Q145 18 145 40Q145 62 130 77Q115 92 93 92Q71 92 56 77Q41 62 41 40ZM52 47ZM228 40Q228 18 243 3Q258 -12 280 -12Q302 -12 317 3Q332 18 332 40Q332 62 317 77Q302 92 280 92Q258 92 243 77Q228 62 228 40ZM239 47ZM413 40Q413 18 428 3Q443 -12 465 -12Q487 -12 502 3Q517 18 517 40Q517 62 502 77Q487 92 465 92Q443 92 428 77Q413 62 413 40ZM424 47Z" glyph-name="ellipsis" horiz-adv-x="608" unicode="&#8230;" /><glyph d="M277 -12Q176 -12 113.5 49Q51 110 51 207Q51 338 127 423.5Q203 509 314 509Q403 509 458 454Q513 399 513 310Q513 292 509.5 269Q506 246 502 234H119Q118 227 118 222.5Q118 218 118 210Q118 134 162.5 89.5Q207 45 282 45Q323 45 360 65.5Q397 86 434 130L476 87Q439 39 387.5 13.5Q336 -12 277 -12ZM448 312Q448 377 410 415Q372 453 310 453Q246 453 195.5 408Q145 363 128 288H445Q447 296 447.5 301Q448 306 448 312ZM312 497ZM319 0ZM450 630H204L214 683H460ZM312 497Z" glyph-name="emacron" horiz-adv-x="557" unicode="&#275;" /><glyph d="M73 232 84 292H881L870 232Z" glyph-name="emdash" horiz-adv-x="949" unicode="&#8212;" /><glyph d="M73 232 84 292H515L505 232Z" glyph-name="endash" horiz-adv-x="584" unicode="&#8211;" /><glyph d="M118 210Q118 134 162.5 89.5Q207 45 282 45Q323 45 360 65.5Q397 86 434 130L476 87Q464 70 447.5 54.5Q431 39 400 19Q397 17 367.5 -2Q338 -21 323 -34Q302 -52 292 -71.5Q282 -91 282 -114Q282 -144 299.5 -160Q317 -176 349 -176Q356 -176 363.5 -175Q371 -174 386 -172L378 -214Q364 -218 352.5 -220Q341 -222 330 -222Q280 -222 252 -196Q224 -170 224 -126Q224 -94 242 -64.5Q260 -35 296 -10Q293 -11 288.5 -11.5Q284 -12 277 -12Q176 -12 113.5 49Q51 110 51 207Q51 338 127 423.5Q203 509 314 509Q403 509 458 454Q513 399 513 310Q513 292 509.5 269Q506 246 502 234H119Q118 228 118 223.5Q118 219 118 210ZM448 312Q448 377 410 415Q372 453 310 453Q246 453 195.5 408Q145 363 128 288H445Q447 296 447.5 301Q448 306 448 312Z" glyph-name="eogonek" horiz-adv-x="557" unicode="&#281;" /><glyph d="M81 219V280H526V219ZM81 420V481H526V420Z" glyph-name="equal" horiz-adv-x="580" unicode="=" /><glyph d="M441 29Q518 29 586 65Q654 101 700 165L733 139Q682 68 605 28Q528 -12 441 -12Q292 -12 186.5 94Q81 200 81 350Q81 500 186.5 606Q292 712 441 712Q591 712 696 604.5Q801 497 801 342H182V170Q225 104 293.5 66.5Q362 29 441 29ZM441 672Q362 672 293.5 635Q225 598 182 533V385H696V534Q654 598 586.5 635Q519 672 441 672Z" glyph-name="estimated" horiz-adv-x="823" unicode="&#8494;" /><glyph d="M359 554 328 590 391 642Q379 655 364.5 669.5Q350 684 332 699L386 739Q401 726 414.5 711.5Q428 697 441 682L497 731L528 694L470 644Q516 580 538 511Q560 442 560 362Q560 192 482.5 90Q405 -12 279 -12Q178 -12 115 51Q52 114 52 215Q52 340 128.5 424.5Q205 509 314 509Q381 509 430 474Q479 439 499 377Q495 446 476 501Q457 556 421 604ZM319 449Q237 449 178 382.5Q119 316 119 220Q119 142 163.5 94.5Q208 47 282 47Q365 47 423.5 113.5Q482 180 482 278Q482 352 435.5 400.5Q389 449 319 449Z" glyph-name="eth" horiz-adv-x="612" unicode="&#240;" /><glyph d="M101 179 175 700H256L146 179ZM57 41Q57 18 72 3Q87 -12 109 -12Q131 -12 146.5 3Q162 18 162 41Q162 63 146.5 78Q131 93 109 93Q87 93 72 78Q57 63 57 41Z" glyph-name="exclam" horiz-adv-x="276" unicode="!" /><glyph d="M166 317 92 -204H11L121 317ZM210 455Q210 478 195 493Q180 508 158 508Q136 508 120.5 493Q105 478 105 455Q105 433 120.5 418Q136 403 158 403Q180 403 195 418Q210 433 210 455Z" glyph-name="exclamdown" horiz-adv-x="258" unicode="&#161;" /><glyph d="M62 439 72 497H159L174 575Q190 660 233.5 701Q277 742 350 742Q370 742 391 738Q412 734 433 727L415 670Q400 676 383 679.5Q366 683 350 683Q304 683 276.5 656Q249 629 239 571L226 497H378L367 439H216L139 0H73L150 439Z" glyph-name="f" horiz-adv-x="353" unicode="f" /><glyph d="M62 439 72 497H159L174 575Q190 660 233.5 701Q277 742 350 742Q370 742 391 738Q412 734 433 727L415 670Q400 676 383 679.5Q366 683 350 683Q304 683 276.5 656Q249 629 239 571L226 497H378L367 439H216L139 0H73L150 439ZM415 439 425 497H512L527 575Q543 660 586.5 701Q630 742 703 742Q723 742 744 738Q765 734 786 727L768 670Q753 676 736 679.5Q719 683 703 683Q657 683 629.5 656Q602 629 592 571L579 497H731L720 439H569L492 0H426L503 439Z" glyph-name="f_f" horiz-adv-x="705" unicode="&#64256;" /><glyph d="M756 0 842 497H908L823 0ZM956 682Q956 703 941 718Q926 733 905 733Q884 733 869.5 718Q855 703 855 682Q855 661 869.5 646.5Q884 632 905 632Q927 632 941.5 646.5Q956 661 956 682ZM778 0ZM62 439 72 497H159L174 575Q190 660 233.5 701Q277 742 350 742Q370 742 391 738Q412 734 433 727L415 670Q400 676 383 679.5Q366 683 350 683Q304 683 276.5 656Q249 629 239 571L226 497H378L367 439H216L139 0H73L150 439ZM415 439 425 497H512L527 575Q543 660 586.5 701Q630 742 703 742Q723 742 744 738Q765 734 786 727L768 670Q753 676 736 679.5Q719 683 703 683Q657 683 629.5 656Q602 629 592 571L579 497H731L720 439H569L492 0H426L503 439Z" glyph-name="f_f_i" horiz-adv-x="959" unicode="&#64259;" /><glyph d="M755 0 884 730H951L822 0ZM918 730ZM1000 700ZM929 350ZM788 0ZM62 439 72 497H159L174 575Q190 660 233.5 701Q277 742 350 742Q370 742 391 738Q412 734 433 727L415 670Q400 676 383 679.5Q366 683 350 683Q304 683 276.5 656Q249 629 239 571L226 497H378L367 439H216L139 0H73L150 439ZM415 439 425 497H512L527 575Q543 660 586.5 701Q630 742 703 742Q723 742 744 738Q765 734 786 727L768 670Q753 676 736 679.5Q719 683 703 683Q657 683 629.5 656Q602 629 592 571L579 497H731L720 439H569L492 0H426L503 439Z" glyph-name="f_f_l" horiz-adv-x="959" unicode="&#64260;" /><glyph d="M404 0 490 497H556L471 0ZM604 682Q604 703 589 718Q574 733 553 733Q532 733 517.5 718Q503 703 503 682Q503 661 517.5 646.5Q532 632 553 632Q575 632 589.5 646.5Q604 661 604 682ZM426 0ZM62 439 72 497H159L174 575Q190 660 233.5 701Q277 742 350 742Q370 742 391 738Q412 734 433 727L415 670Q400 676 383 679.5Q366 683 350 683Q304 683 276.5 656Q249 629 239 571L226 497H378L367 439H216L139 0H73L150 439Z" glyph-name="fi" horiz-adv-x="607" unicode="&#64257;" /><glyph d="M320 439Q412 439 468 386.5Q524 334 524 251Q524 134 454.5 61Q385 -12 269 -12Q176 -12 109.5 34Q43 80 26 153L91 180Q106 120 153 85.5Q200 51 271 51Q352 51 402.5 104.5Q453 158 453 245Q453 306 413 341.5Q373 377 305 377Q262 377 222 360.5Q182 344 152 314L95 345L212 700H554L542 637H259L178 396Q209 418 244.5 428.5Q280 439 320 439Z" glyph-name="five" horiz-adv-x="579" unicode="5" /><glyph d="M154 223Q202 223 231 196Q260 169 260 127Q260 69 223.5 31.5Q187 -6 128 -6Q80 -6 45 17Q10 40 -1 78L45 100Q53 71 74.5 55.5Q96 40 128 40Q163 40 184 62Q205 84 205 123Q205 149 187.5 164.5Q170 180 140 180Q122 180 104.5 173Q87 166 73 154L33 174L88 350H275L266 303H123L91 207Q106 215 122 219Q138 223 154 223Z" glyph-name="five.denominator" horiz-adv-x="316" unicode="&#63066;" /><glyph d="M129 83Q177 83 206 56Q235 29 235 -13Q235 -71 198.5 -108.5Q162 -146 103 -146Q55 -146 20 -123Q-15 -100 -26 -62L20 -40Q28 -69 49.5 -84.5Q71 -100 103 -100Q138 -100 159 -78Q180 -56 180 -17Q180 9 162.5 24.5Q145 40 115 40Q97 40 79.5 33Q62 26 48 14L8 34L63 210H250L241 163H98L66 67Q81 75 97 79Q113 83 129 83Z" glyph-name="five.inferior" horiz-adv-x="316" unicode="&#8325;" /><glyph d="M216 573Q264 573 293 546Q322 519 322 477Q322 419 285.5 381.5Q249 344 190 344Q142 344 107 367Q72 390 61 428L107 450Q115 421 136.5 405.5Q158 390 190 390Q225 390 246 412Q267 434 267 473Q267 499 249.5 514.5Q232 530 202 530Q184 530 166.5 523Q149 516 135 504L95 524L150 700H337L328 653H185L153 557Q168 565 184 569Q200 573 216 573Z" glyph-name="five.numerator" horiz-adv-x="316" unicode="&#63078;" /><glyph d="M240 713Q288 713 317 686Q346 659 346 617Q346 559 309.5 521.5Q273 484 214 484Q166 484 131 507Q96 530 85 568L131 590Q139 561 160.5 545.5Q182 530 214 530Q249 530 270 552Q291 574 291 613Q291 639 273.5 654.5Q256 670 226 670Q208 670 190.5 663Q173 656 159 644L119 664L174 840H361L352 793H209L177 697Q192 705 208 709Q224 713 240 713Z" glyph-name="five.superior" horiz-adv-x="316" unicode="&#8309;" /><glyph d="M325 439Q417 439 473 386.5Q529 334 529 251Q529 134 459.5 61Q390 -12 274 -12Q181 -12 114.5 34Q48 80 31 153L96 180Q111 120 158 85.5Q205 51 276 51Q357 51 407.5 104.5Q458 158 458 245Q458 306 418 341.5Q378 377 310 377Q267 377 227 360.5Q187 344 157 314L100 345L217 700H559L547 637H264L183 396Q214 418 249.5 428.5Q285 439 325 439Z" glyph-name="five.tab" horiz-adv-x="588" unicode="&#65301;" /><glyph d="M403 0 532 730H599L470 0ZM566 730ZM648 700ZM577 350ZM436 0ZM62 439 72 497H159L174 575Q190 660 233.5 701Q277 742 350 742Q370 742 391 738Q412 734 433 727L415 670Q400 676 383 679.5Q366 683 350 683Q304 683 276.5 656Q249 629 239 571L226 497H378L367 439H216L139 0H73L150 439Z" glyph-name="fl" horiz-adv-x="607" unicode="&#64258;" /><glyph d="M247 385 169 -63Q155 -145 110 -187.5Q65 -230 -8 -230Q-28 -230 -48.5 -226.5Q-69 -223 -90 -215L-72 -158Q-56 -165 -40 -168Q-24 -171 -7 -171Q40 -171 67 -144Q94 -117 104 -59L181 385H63L73 443H192L215 575Q229 657 274 699.5Q319 742 392 742Q412 742 432.5 738.5Q453 735 474 727L456 670Q440 676 424 679.5Q408 683 391 683Q344 683 317 656Q290 629 280 571L258 443H396L386 385Z" glyph-name="florin" horiz-adv-x="411" /><glyph d="M388 237 418 407 493 431 459 237H564L553 174H448L417 0H346L377 174H17L26 228L441 700H527L121 237Z" glyph-name="four" horiz-adv-x="598" unicode="4" /><glyph d="M190 127 204 200 261 220 245 127H296L288 81H237L223 0H168L182 81H-5L2 123L201 350H268L73 127Z" glyph-name="four.denominator" horiz-adv-x="342" unicode="&#63065;" /><glyph d="M165 -13 179 60 236 80 220 -13H271L263 -59H212L198 -140H143L157 -59H-30L-23 -17L176 210H243L48 -13Z" glyph-name="four.inferior" horiz-adv-x="342" unicode="&#8324;" /><glyph d="M251 477 265 550 322 570 306 477H357L349 431H298L284 350H229L243 431H56L63 473L262 700H329L134 477Z" glyph-name="four.numerator" horiz-adv-x="342" unicode="&#63077;" /><glyph d="M276 617 290 690 347 710 331 617H382L374 571H323L309 490H254L268 571H81L88 613L287 840H354L159 617Z" glyph-name="four.superior" horiz-adv-x="342" unicode="&#8308;" /><glyph d="M382 237 412 407 487 431 453 237H558L547 174H442L411 0H340L371 174H11L20 228L435 700H521L115 237Z" glyph-name="four.tab" horiz-adv-x="588" unicode="&#65300;" /><glyph d="M-77 0H-136L271 700H330Z" glyph-name="fraction" horiz-adv-x="160" unicode="&#8260;" /><glyph d="M69 0 193 700H625L613 634H252L208 386H540L528 320H197L140 0ZM556 0 643 497H706L686 380Q715 440 755.5 470.5Q796 501 848 501Q860 501 869.5 500Q879 499 888 497L875 434Q868 436 858.5 436.5Q849 437 836 437Q773 437 725.5 377.5Q678 318 660 217L622 0Z" glyph-name="franc" horiz-adv-x="881" unicode="&#8355;" /><glyph d="M261 4Q173 4 115.5 65Q58 126 58 215Q58 342 127.5 425.5Q197 509 304 509Q370 509 417 475.5Q464 442 484 382L506 497H569L481 -9Q462 -118 400.5 -174Q339 -230 237 -230Q161 -230 96.5 -197Q32 -164 -4 -111L46 -68Q84 -119 132.5 -145Q181 -171 238 -171Q311 -171 356 -128Q401 -85 415 -2L431 90Q398 48 354.5 26Q311 4 261 4ZM125 225Q125 152 166 107.5Q207 63 275 63Q354 63 408.5 128Q463 193 463 285Q463 358 421 403.5Q379 449 309 449Q231 449 178 384.5Q125 320 125 225ZM316 497Z" glyph-name="g" horiz-adv-x="619" unicode="g" /><glyph d="M261 4Q173 4 115.5 65Q58 126 58 215Q58 342 127.5 425.5Q197 509 304 509Q370 509 417 475.5Q464 442 484 382L506 497H569L481 -9Q462 -118 400.5 -174Q339 -230 237 -230Q161 -230 96.5 -197Q32 -164 -4 -111L46 -68Q84 -119 132.5 -145Q181 -171 238 -171Q311 -171 356 -128Q401 -85 415 -2L431 90Q398 48 354.5 26Q311 4 261 4ZM125 225Q125 152 166 107.5Q207 63 275 63Q354 63 408.5 128Q463 193 463 285Q463 358 421 403.5Q379 449 309 449Q231 449 178 384.5Q125 320 125 225ZM316 497ZM329 632Q367 632 389.5 656.5Q412 681 417 727H466Q462 662 425.5 623.5Q389 585 327 585Q265 585 233 624.5Q201 664 207 727H256Q255 678 273 655Q291 632 329 632ZM316 497Z" glyph-name="gbreve" horiz-adv-x="619" unicode="&#287;" /><glyph d="M204 587 299 727H374L445 587H387L333 680L262 587ZM316 497ZM261 4Q173 4 115.5 65Q58 126 58 215Q58 342 127.5 425.5Q197 509 304 509Q370 509 417 475.5Q464 442 484 382L506 497H569L481 -9Q462 -118 400.5 -174Q339 -230 237 -230Q161 -230 96.5 -197Q32 -164 -4 -111L46 -68Q84 -119 132.5 -145Q181 -171 238 -171Q311 -171 356 -128Q401 -85 415 -2L431 90Q398 48 354.5 26Q311 4 261 4ZM125 225Q125 152 166 107.5Q207 63 275 63Q354 63 408.5 128Q463 193 463 285Q463 358 421 403.5Q379 449 309 449Q231 449 178 384.5Q125 320 125 225ZM316 497Z" glyph-name="gcircumflex" horiz-adv-x="619" unicode="&#285;" /><glyph d="M261 4Q173 4 115.5 65Q58 126 58 215Q58 342 127.5 425.5Q197 509 304 509Q370 509 417 475.5Q464 442 484 382L506 497H569L481 -9Q462 -118 400.5 -174Q339 -230 237 -230Q161 -230 96.5 -197Q32 -164 -4 -111L46 -68Q84 -119 132.5 -145Q181 -171 238 -171Q311 -171 356 -128Q401 -85 415 -2L431 90Q398 48 354.5 26Q311 4 261 4ZM125 225Q125 152 166 107.5Q207 63 275 63Q354 63 408.5 128Q463 193 463 285Q463 358 421 403.5Q379 449 309 449Q231 449 178 384.5Q125 320 125 225ZM316 497ZM283 657Q283 635 298.5 619Q314 603 336 603Q359 603 374.5 619Q390 635 390 657Q390 680 374.5 695.5Q359 711 336 711Q314 711 298.5 695Q283 679 283 657ZM316 497Z" glyph-name="gdotaccent" horiz-adv-x="619" unicode="&#289;" /><glyph d="M117 0H50L144 534Q161 630 221 686Q281 742 372 742Q460 742 511.5 696.5Q563 651 563 578Q563 507 524 455Q485 403 418 385Q470 369 501.5 325.5Q533 282 533 229Q533 130 459.5 65Q386 0 275 0H232L243 59H285Q364 59 414.5 107Q465 155 465 230Q465 287 428 321.5Q391 356 327 356H294L304 413H330Q404 413 449.5 456.5Q495 500 495 571Q495 624 461.5 653.5Q428 683 369 683Q306 683 264 640.5Q222 598 209 525Z" glyph-name="germandbls" horiz-adv-x="591" unicode="&#223;" /><glyph d="M275 587 199 727H121L212 587ZM245 497Z" glyph-name="grave" horiz-adv-x="387" unicode="`" /><glyph d="M275 787 199 927H121L212 787ZM245 700Z" glyph-name="grave.case" horiz-adv-x="387" /><glyph d="M560 384V330L110 134V199L482 357L110 515V581Z" glyph-name="greater" horiz-adv-x="580" unicode="&gt;" /><glyph d="M528 341V394L78 584V518L448 367L78 216V151ZM528 0V61H78V0Z" glyph-name="greaterequal" horiz-adv-x="580" unicode="&#8805;" /><glyph d="M54 273 298 445 283 358 110 241 242 126 229 47 44 218ZM266 273 510 445 495 358 322 241 454 126 441 47 256 218Z" glyph-name="guillemotleft" horiz-adv-x="546" /><glyph d="M492 219 248 47 263 134 436 251 304 366 317 445 502 274ZM280 219 36 47 51 134 224 251 92 366 105 445 290 274Z" glyph-name="guillemotright" horiz-adv-x="547" /><glyph d="M55 273 299 445 284 358 111 241 243 126 230 47 45 218Z" glyph-name="guilsinglleft" horiz-adv-x="336" unicode="&#8249;" /><glyph d="M281 219 37 47 52 134 225 251 93 366 106 445 291 274Z" glyph-name="guilsinglright" horiz-adv-x="337" unicode="&#8250;" /><glyph d="M529 293 477 0H410L461 284Q474 359 442.5 403Q411 447 341 447Q273 447 225.5 398Q178 349 163 265L116 0H50L179 730H245L191 421Q222 464 263.5 486.5Q305 509 354 509Q447 509 496.5 447.5Q546 386 529 293ZM212 730Z" glyph-name="h" horiz-adv-x="607" unicode="h" /><glyph d="M529 293 477 0H410L461 284Q475 359 443.5 403Q412 447 341 447Q273 447 225.5 398Q178 349 163 265L116 0H50L155 593H69L80 650H165L179 730H245L231 650H393L382 593H221L191 421Q222 464 263.5 486.5Q305 509 354 509Q447 509 496 447.5Q545 386 529 293Z" glyph-name="hbar" horiz-adv-x="606" unicode="&#295;" /><glyph d="M100 820 195 960H270L341 820H283L229 913L158 820ZM212 730ZM529 293 477 0H410L461 284Q474 359 442.5 403Q411 447 341 447Q273 447 225.5 398Q178 349 163 265L116 0H50L179 730H245L191 421Q222 464 263.5 486.5Q305 509 354 509Q447 509 496.5 447.5Q546 386 529 293ZM212 730Z" glyph-name="hcircumflex" horiz-adv-x="607" unicode="&#293;" /><glyph d="M202 727H130L34 587H89ZM335 727H258L139 587H198ZM122 497Z" glyph-name="hungarumlaut" horiz-adv-x="385" unicode="&#733;" /><glyph d="M202 927H130L34 787H89ZM335 927H258L139 787H198ZM120 700Z" glyph-name="hungarumlaut.case" horiz-adv-x="385" /><glyph d="M73 231 84 293H346L336 231Z" glyph-name="hyphen" horiz-adv-x="414" unicode="-" /><glyph d="M51 0 137 497H203L118 0ZM251 682Q251 703 236 718Q221 733 200 733Q179 733 164.5 718Q150 703 150 682Q150 661 164.5 646.5Q179 632 200 632Q222 632 236.5 646.5Q251 661 251 682ZM73 0Z" glyph-name="i" horiz-adv-x="254" unicode="i" /><glyph d="M327 727H247L147 587H211ZM170 497ZM51 0 137 497H203L118 0ZM170 497Z" glyph-name="iacute" horiz-adv-x="254" unicode="&#237;" /><glyph d="M58 587 153 727H228L299 587H241L187 680L116 587ZM170 497ZM51 0 137 497H203L118 0ZM170 497Z" glyph-name="icircumflex" horiz-adv-x="254" unicode="&#238;" /><glyph d="M66 657Q66 638 80 624Q94 610 113 610Q133 610 147 624Q161 638 161 657Q161 676 147 690Q133 704 113 704Q94 704 80 690.5Q66 677 66 657ZM217 657Q217 637 230.5 623.5Q244 610 263 610Q283 610 297 624Q311 638 311 657Q311 676 297 690Q283 704 263 704Q244 704 230.5 690.5Q217 677 217 657ZM170 497ZM51 0 137 497H203L118 0ZM170 497Z" glyph-name="idieresis" horiz-adv-x="254" unicode="&#239;" /><glyph d="M51 0 137 497H203L118 0ZM170 497ZM200 587 124 727H46L137 587ZM170 497Z" glyph-name="igrave" horiz-adv-x="254" unicode="&#236;" /><glyph d="M51 0 137 497H203L118 0ZM251 682Q251 703 236 718Q221 733 200 733Q179 733 164.5 718Q150 703 150 682Q150 661 164.5 646.5Q179 632 200 632Q222 632 236.5 646.5Q251 661 251 682ZM73 0ZM510 682Q510 703 495 718Q480 733 459 733Q438 733 423.5 718Q409 703 409 682Q409 661 423.5 646.5Q438 632 459 632Q481 632 495.5 646.5Q510 661 510 682ZM396 497H462L364 -60Q348 -150 306 -190Q264 -230 189 -230Q174 -230 156.5 -227Q139 -224 122 -218L140 -162Q156 -167 169 -169Q182 -171 193 -171Q238 -171 263 -144.5Q288 -118 299 -57Z" glyph-name="ij" horiz-adv-x="512" unicode="&#307;" /><glyph d="M51 0 137 497H203L118 0ZM170 497ZM307 630H61L71 683H317ZM169 497Z" glyph-name="imacron" horiz-adv-x="254" unicode="&#299;" /><glyph d="M609 423Q675 423 717 378Q759 333 759 260Q759 187 717 142Q675 97 609 97Q564 97 520 123Q476 149 409 220Q349 149 307 123Q265 97 218 97Q151 97 109 142Q67 187 67 260Q67 333 109 378Q151 423 218 423Q266 423 311 396Q356 369 413 304Q473 371 517 397Q561 423 609 423ZM696 260Q696 307 671.5 335Q647 363 607 363Q570 363 535 342.5Q500 322 448 264Q496 206 533.5 181.5Q571 157 607 157Q647 157 671.5 185.5Q696 214 696 260ZM220 363Q179 363 154.5 335Q130 307 130 260Q130 213 155 185Q180 157 220 157Q255 157 287.5 177.5Q320 198 375 260Q324 320 289.5 341.5Q255 363 220 363Z" glyph-name="infinity" horiz-adv-x="823" unicode="&#8734;" /><glyph d="M201 567V-59Q201 -138 159.5 -184Q118 -230 42 -230Q23 -230 5 -227Q-13 -224 -37 -216L-24 -160Q-7 -166 8.5 -168.5Q24 -171 39 -171Q88 -171 111.5 -143Q135 -115 135 -55V571Q135 650 176.5 696Q218 742 293 742Q312 742 330 739Q348 736 371 728L359 672Q339 678 324.5 680.5Q310 683 296 683Q248 683 224.5 655Q201 627 201 567Z" glyph-name="integral" horiz-adv-x="332" unicode="&#8747;" /><glyph d="M150 682Q150 703 164.5 718Q179 733 200 733Q221 733 236 718Q251 703 251 682Q251 661 236.5 646.5Q222 632 200 632Q179 632 164.5 646.5Q150 661 150 682ZM137 497H203L118 0H106Q46 -32 17.5 -62Q-11 -92 -11 -125Q-11 -150 5 -163Q21 -176 52 -176Q61 -176 68 -175Q75 -174 82 -172L74 -214Q65 -218 55 -220Q45 -222 33 -222Q-15 -222 -42 -199.5Q-69 -177 -69 -137Q-69 -97 -38 -61Q-7 -25 52 2Z" glyph-name="iogonek" horiz-adv-x="254" unicode="&#303;" /><glyph d="M51 0 137 497H203L118 0ZM170 497ZM187 630Q211 614 224.5 609Q238 604 252 604Q284 604 303.5 628.5Q323 653 327 697H279Q277 677 269.5 668Q262 659 248 659Q239 659 228 663.5Q217 668 195 682Q168 699 152.5 704.5Q137 710 123 710Q88 710 66.5 685.5Q45 661 37 614H86Q91 636 100 646Q109 656 124 656Q137 656 150.5 651Q164 646 187 630ZM169 497Z" glyph-name="itilde" horiz-adv-x="254" unicode="&#297;" /><glyph d="M256 682Q256 703 241 718Q226 733 205 733Q184 733 169.5 718Q155 703 155 682Q155 661 169.5 646.5Q184 632 205 632Q227 632 241.5 646.5Q256 661 256 682ZM142 497H208L110 -60Q94 -150 52 -190Q10 -230 -65 -230Q-80 -230 -97.5 -227Q-115 -224 -132 -218L-114 -162Q-98 -167 -85 -169Q-72 -171 -61 -171Q-16 -171 9 -144.5Q34 -118 45 -57Z" glyph-name="j" horiz-adv-x="258" unicode="j" /><glyph d="M63 587 158 727H233L304 587H246L192 680L121 587ZM175 497ZM45 -57 142 497H208L110 -60Q94 -150 52 -190Q10 -230 -65 -230Q-82 -230 -99.5 -227Q-117 -224 -132 -218L-114 -162Q-98 -167 -85 -169Q-72 -171 -61 -171Q-16 -171 9 -144.5Q34 -118 45 -57ZM175 497Z" glyph-name="jcircumflex" horiz-adv-x="258" unicode="&#309;" /><glyph d="M323 310 485 0H412L271 271L146 171L117 0H50L178 730H245L161 254L461 497H554ZM263 0Z" glyph-name="k" horiz-adv-x="542" unicode="k" /><glyph d="M50 0 138 497H204L161 254L461 497H554L323 310L485 0H412L271 271L146 171L117 0Z" glyph-name="kgreenlandic" horiz-adv-x="542" /><glyph d="M50 0 179 730H246L117 0ZM213 730ZM295 700ZM224 350ZM83 0Z" glyph-name="l" horiz-adv-x="254" unicode="l" /><glyph d="M370 960H290L190 820H254ZM213 730ZM50 0 179 730H246L117 0ZM213 730ZM295 700ZM224 350ZM83 0Z" glyph-name="lacute" horiz-adv-x="254" unicode="&#314;" /><glyph d="M421 730H349L300 582H355ZM295 700ZM50 0 179 730H246L117 0ZM213 730ZM295 700ZM224 350ZM83 0Z" glyph-name="lcaron" horiz-adv-x="280" unicode="&#318;" /><glyph d="M50 0 179 730H246L117 0ZM213 730ZM295 700ZM224 350ZM83 0ZM235 356Q235 334 250 319Q265 304 287 304Q309 304 324 319Q339 334 339 356Q339 378 324 393Q309 408 287 408Q265 408 250 393Q235 378 235 356ZM246 363Z" glyph-name="ldot" horiz-adv-x="278" unicode="&#320;" /><glyph d="M58 330V384L508 580V515L136 357L508 199V133Z" glyph-name="less" horiz-adv-x="580" unicode="&lt;" /><glyph d="M60 341V394L510 584V518L140 367L510 216V151ZM60 0V61H510V0Z" glyph-name="lessequal" horiz-adv-x="580" unicode="&#8804;" /><glyph d="M50 0 179 730H246L117 0ZM213 730ZM295 700ZM224 350ZM83 0ZM331 0 460 730H527L398 0ZM494 730ZM576 700ZM505 350ZM364 0ZM235 356Q235 334 250 319Q265 304 287 304Q309 304 324 319Q339 334 339 356Q339 378 324 393Q309 408 287 408Q265 408 250 393Q235 378 235 356ZM246 363Z" glyph-name="lgeminada" horiz-adv-x="535" /><glyph d="M508 128H447V323H64V383H508Z" glyph-name="logicalnot" horiz-adv-x="580" unicode="&#172;" /><glyph d="M62 439 72 497H159L174 575Q190 658 234.5 700Q279 742 351 742Q371 742 391.5 738.5Q412 735 433 727L415 670Q399 676 383 679.5Q367 683 350 683Q303 683 276 656Q249 629 239 571L139 0H73L150 439Z" glyph-name="longs" horiz-adv-x="297" unicode="&#383;" /><glyph d="M62 439 72 497H159L174 575Q190 658 234.5 700Q279 742 351 742Q371 742 391.5 738.5Q412 735 433 727L415 670Q399 676 383 679.5Q367 683 350 683Q303 683 276 656Q249 629 239 571L139 0H73L150 439ZM441 439H355L364 497H452L484 677L554 700L518 497H679L669 439H508L457 151Q447 97 465.5 72Q484 47 531 47Q549 47 568 53Q587 59 614 74L635 23Q608 6 580 -3Q552 -12 524 -12Q448 -12 412.5 29.5Q377 71 389 142ZM610 701ZM494 10ZM412 0Z" glyph-name="longs_t" horiz-adv-x="682" unicode="&#64261;" /><glyph d="M246 0 62 360 249 700H312L499 360L315 0ZM281 632 131 358 281 67 430 358Z" glyph-name="lozenge" horiz-adv-x="522" unicode="&#9674;" /><glyph d="M63 275 34 325 162 398 221 730H288L237 440L331 493L359 442L224 366L159 0H92L149 324Z" glyph-name="lslash" horiz-adv-x="339" unicode="&#322;" /><glyph d="M495 256 451 0H384L435 288Q448 362 421 404.5Q394 447 330 447Q266 447 222 397.5Q178 348 163 259L118 0H50L138 497H201L187 413Q217 460 257.5 484.5Q298 509 346 509Q406 509 446.5 477.5Q487 446 500 391Q531 448 576.5 478.5Q622 509 678 509Q763 509 806.5 449.5Q850 390 834 298L783 0H716L767 288Q780 362 753 404.5Q726 447 662 447Q598 447 554 396.5Q510 346 495 256Z" glyph-name="m" horiz-adv-x="912" unicode="m" /><glyph d="M314 630H68L78 683H324ZM176 497Z" glyph-name="macron" horiz-adv-x="390" unicode="&#175;" /><glyph d="M314 830H68L78 883H324ZM181 700Z" glyph-name="macron.case" horiz-adv-x="390" /><glyph d="M84 320V381H528V320Z" glyph-name="minus" horiz-adv-x="580" unicode="&#8722;" /><glyph d="M556 497 468 0H405L420 84Q389 37 346.5 12.5Q304 -12 253 -12Q208 -12 173.5 5Q139 22 120 54L103 -78L78 -218H11L138 497H205L154 214Q140 138 169.5 94Q199 50 266 50Q335 50 381 99Q427 148 443 238L489 497Z" glyph-name="mu" horiz-adv-x="606" unicode="&#181;" /><glyph d="M145 148 101 191 260 350 101 509 145 552 304 393 463 552 505 509 346 350 505 191 463 148 304 307Z" glyph-name="multiply" horiz-adv-x="580" unicode="&#215;" /><glyph d="M530 293 479 0H411L463 284Q477 358 445 402.5Q413 447 342 447Q273 447 226.5 398Q180 349 164 260L117 0H50L139 497H202L188 412Q220 460 263.5 484.5Q307 509 359 509Q450 509 498 447.5Q546 386 530 293ZM142 586ZM350 497ZM264 0Z" glyph-name="n" horiz-adv-x="608" unicode="n" /><glyph d="M507 727H427L327 587H391ZM350 497ZM530 293 479 0H411L463 284Q477 358 445 402.5Q413 447 342 447Q273 447 226.5 398Q180 349 164 260L117 0H50L139 497H202L188 412Q220 460 263.5 484.5Q307 509 359 509Q450 509 498 447.5Q546 386 530 293ZM142 586ZM350 497ZM264 0Z" glyph-name="nacute" horiz-adv-x="608" unicode="&#324;" /><glyph d="M211 727H136L76 577H137ZM183 796ZM142 586ZM530 293 479 0H411L463 284Q477 358 445 402.5Q413 447 342 447Q273 447 226.5 398Q180 349 164 260L117 0H50L139 497H202L188 412Q220 460 263.5 484.5Q307 509 359 509Q450 509 498 447.5Q546 386 530 293ZM142 586ZM350 497ZM264 0Z" glyph-name="napostrophe" horiz-adv-x="608" unicode="&#329;" /><glyph d="M397 587H322L251 727H309L364 635L434 727H492ZM351 497ZM530 293 479 0H411L463 284Q477 358 445 402.5Q413 447 342 447Q273 447 226.5 398Q180 349 164 260L117 0H50L139 497H202L188 412Q220 460 263.5 484.5Q307 509 359 509Q450 509 498 447.5Q546 386 530 293ZM142 586ZM350 497ZM264 0Z" glyph-name="ncaron" horiz-adv-x="608" unicode="&#328;" /><glyph d="M280 269Q191 269 135 322Q79 375 79 459Q79 566 150.5 639Q222 712 329 712Q425 712 486 655Q547 598 547 510Q547 451 519 390.5Q491 330 430 256L221 0H135L357 266Q364 274 369.5 281.5Q375 289 379 295Q357 282 332 275.5Q307 269 280 269ZM303 328Q379 328 428.5 377.5Q478 427 478 503Q478 570 436.5 610.5Q395 651 327 651Q252 651 200 597.5Q148 544 148 465Q148 402 189.5 365Q231 328 303 328Z" glyph-name="nine" horiz-adv-x="559" unicode="9" /><glyph d="M123 132Q79 132 52 158Q25 184 25 226Q25 281 62.5 318.5Q100 356 156 356Q208 356 240.5 327Q273 298 273 253Q273 223 259 191.5Q245 160 216 125L114 0H49L165 142Q154 137 143.5 134.5Q133 132 123 132ZM80 233Q80 205 97 189Q114 173 144 173Q176 173 197.5 194.5Q219 216 219 249Q219 278 201.5 295Q184 312 155 312Q123 312 101.5 289.5Q80 267 80 233Z" glyph-name="nine.denominator" horiz-adv-x="310" unicode="&#63070;" /><glyph d="M99 -8Q55 -8 28 18Q1 44 1 86Q1 141 38.5 178.5Q76 216 132 216Q184 216 216.5 187Q249 158 249 113Q249 83 235 51.5Q221 20 192 -15L90 -140H25L141 2Q130 -3 119.5 -5.5Q109 -8 99 -8ZM56 93Q56 65 73 49Q90 33 120 33Q152 33 173.5 54.5Q195 76 195 109Q195 138 177.5 155Q160 172 131 172Q99 172 77.5 149.5Q56 127 56 93Z" glyph-name="nine.inferior" horiz-adv-x="310" unicode="&#8329;" /><glyph d="M185 482Q141 482 114 508Q87 534 87 576Q87 631 124.5 668.5Q162 706 218 706Q270 706 302.5 677Q335 648 335 603Q335 573 321 541.5Q307 510 278 475L176 350H111L227 492Q216 487 205.5 484.5Q195 482 185 482ZM142 583Q142 555 159 539Q176 523 206 523Q238 523 259.5 544.5Q281 566 281 599Q281 628 263.5 645Q246 662 217 662Q185 662 163.5 639.5Q142 617 142 583Z" glyph-name="nine.numerator" horiz-adv-x="310" unicode="&#63082;" /><glyph d="M210 622Q166 622 139 648Q112 674 112 716Q112 771 149.5 808.5Q187 846 243 846Q295 846 327.5 817Q360 788 360 743Q360 713 346 681.5Q332 650 303 615L201 490H136L252 632Q241 627 230.5 624.5Q220 622 210 622ZM167 723Q167 695 184 679Q201 663 231 663Q263 663 284.5 684.5Q306 706 306 739Q306 768 288.5 785Q271 802 242 802Q210 802 188.5 779.5Q167 757 167 723Z" glyph-name="nine.superior" horiz-adv-x="310" unicode="&#8313;" /><glyph d="M294 269Q205 269 149 322Q93 375 93 459Q93 566 164.5 639Q236 712 343 712Q439 712 500 655Q561 598 561 510Q561 451 533 390.5Q505 330 444 256L235 0H149L371 266Q378 274 383.5 281.5Q389 289 393 295Q371 282 346 275.5Q321 269 294 269ZM317 328Q393 328 442.5 377.5Q492 427 492 503Q492 570 450.5 610.5Q409 651 341 651Q266 651 214 597.5Q162 544 162 465Q162 402 203.5 365Q245 328 317 328Z" glyph-name="nine.tab" horiz-adv-x="588" unicode="&#65305;" /><glyph d="M210 140H140L187 219H80V280H224L307 420H80V481H344L392 562H462L414 481H525V420H377L294 280H525V219H257Z" glyph-name="notequal" horiz-adv-x="580" unicode="&#8800;" /><glyph d="M530 293 479 0H411L463 284Q477 358 445 402.5Q413 447 342 447Q273 447 226.5 398Q180 349 164 260L117 0H50L139 497H202L188 412Q220 460 263.5 484.5Q307 509 359 509Q450 509 498 447.5Q546 386 530 293ZM142 586ZM350 497ZM264 0ZM368 630Q392 614 405.5 609Q419 604 433 604Q465 604 484.5 628.5Q504 653 508 697H460Q458 677 450.5 668Q443 659 429 659Q420 659 409 663.5Q398 668 376 682Q349 699 333.5 704.5Q318 710 304 710Q269 710 247.5 685.5Q226 661 218 614H267Q272 636 281 646Q290 656 305 656Q318 656 331.5 651Q345 646 368 630ZM350 497Z" glyph-name="ntilde" horiz-adv-x="608" unicode="&#241;" /><glyph d="M234 205 197 0H136L172 205H49L59 260H182L213 433H89L99 488H223L260 700H321L284 488H455L492 700H554L516 488H639L629 433H506L475 260H599L589 205H466L430 0H368L404 205ZM274 433 243 260H414L445 433Z" glyph-name="numbersign" horiz-adv-x="653" unicode="#" /><glyph d="M321 509Q422 509 485.5 444.5Q549 380 549 280Q549 154 472 71Q395 -12 280 -12Q179 -12 115.5 52Q52 116 52 217Q52 344 129 426.5Q206 509 321 509ZM481 275Q481 352 436.5 401Q392 450 321 450Q234 450 176.5 386.5Q119 323 119 222Q119 144 164 95.5Q209 47 282 47Q367 47 424 111Q481 175 481 275ZM324 497Z" glyph-name="o" horiz-adv-x="600" unicode="o" /><glyph d="M481 727H401L301 587H365ZM324 497ZM321 509Q422 509 485.5 444.5Q549 380 549 280Q549 154 472 71Q395 -12 280 -12Q179 -12 115.5 52Q52 116 52 217Q52 344 129 426.5Q206 509 321 509ZM481 275Q481 352 436.5 401Q392 450 321 450Q234 450 176.5 386.5Q119 323 119 222Q119 144 164 95.5Q209 47 282 47Q367 47 424 111Q481 175 481 275ZM324 497Z" glyph-name="oacute" horiz-adv-x="600" unicode="&#243;" /><glyph d="M321 509Q422 509 485.5 444.5Q549 380 549 280Q549 154 472 71Q395 -12 280 -12Q179 -12 115.5 52Q52 116 52 217Q52 344 129 426.5Q206 509 321 509ZM481 275Q481 352 436.5 401Q392 450 321 450Q234 450 176.5 386.5Q119 323 119 222Q119 144 164 95.5Q209 47 282 47Q367 47 424 111Q481 175 481 275ZM324 497ZM337 632Q375 632 397.5 656.5Q420 681 425 727H474Q470 662 433.5 623.5Q397 585 335 585Q273 585 241 624.5Q209 664 215 727H264Q263 678 281 655Q299 632 337 632ZM324 497Z" glyph-name="obreve" horiz-adv-x="600" unicode="&#335;" /><glyph d="M212 587 307 727H382L453 587H395L341 680L270 587ZM324 497ZM321 509Q422 509 485.5 444.5Q549 380 549 280Q549 154 472 71Q395 -12 280 -12Q179 -12 115.5 52Q52 116 52 217Q52 344 129 426.5Q206 509 321 509ZM481 275Q481 352 436.5 401Q392 450 321 450Q234 450 176.5 386.5Q119 323 119 222Q119 144 164 95.5Q209 47 282 47Q367 47 424 111Q481 175 481 275ZM324 497Z" glyph-name="ocircumflex" horiz-adv-x="600" unicode="&#244;" /><glyph d="M220 657Q220 638 234 624Q248 610 267 610Q287 610 301 624Q315 638 315 657Q315 676 301 690Q287 704 267 704Q248 704 234 690.5Q220 677 220 657ZM371 657Q371 637 384.5 623.5Q398 610 417 610Q437 610 451 624Q465 638 465 657Q465 676 451 690Q437 704 417 704Q398 704 384.5 690.5Q371 677 371 657ZM324 497ZM321 509Q422 509 485.5 444.5Q549 380 549 280Q549 154 472 71Q395 -12 280 -12Q179 -12 115.5 52Q52 116 52 217Q52 344 129 426.5Q206 509 321 509ZM481 275Q481 352 436.5 401Q392 450 321 450Q234 450 176.5 386.5Q119 323 119 222Q119 144 164 95.5Q209 47 282 47Q367 47 424 111Q481 175 481 275ZM324 497Z" glyph-name="odieresis" horiz-adv-x="600" unicode="&#246;" /><glyph d="M707 -12Q631 -12 576.5 25.5Q522 63 502 128Q471 63 410.5 25.5Q350 -12 276 -12Q177 -12 114.5 52Q52 116 52 217Q52 343 128 426Q204 509 318 509Q392 509 447.5 469.5Q503 430 523 363Q555 431 614.5 470Q674 509 744 509Q831 509 885 454.5Q939 400 939 310Q939 291 936 268Q933 245 929 234H546Q545 229 545 224Q545 219 545 210Q545 134 589 89.5Q633 45 708 45Q750 45 787.5 66Q825 87 860 131L902 87Q865 39 815 13.5Q765 -12 707 -12ZM874 312Q874 377 836 415Q798 453 736 453Q672 453 622 408Q572 363 554 288H872Q873 293 873.5 298Q874 303 874 312ZM481 275Q481 352 436.5 401Q392 450 321 450Q233 450 176 386.5Q119 323 119 222Q119 145 164 96Q209 47 282 47Q367 47 424 111Q481 175 481 275Z" glyph-name="oe" horiz-adv-x="984" unicode="&#339;" /><glyph d="M216 -222Q169 -222 142.5 -199Q116 -176 116 -137Q116 -96 146.5 -59Q177 -22 233 4L284 0Q229 -29 202 -60Q175 -91 175 -125Q175 -150 190.5 -163Q206 -176 236 -176Q246 -176 254 -175Q262 -174 270 -172L262 -214Q253 -218 242.5 -220Q232 -222 216 -222ZM244 0Z" glyph-name="ogonek" horiz-adv-x="388" unicode="&#731;" /><glyph d="M321 509Q422 509 485.5 444.5Q549 380 549 280Q549 154 472 71Q395 -12 280 -12Q179 -12 115.5 52Q52 116 52 217Q52 344 129 426.5Q206 509 321 509ZM481 275Q481 352 436.5 401Q392 450 321 450Q234 450 176.5 386.5Q119 323 119 222Q119 144 164 95.5Q209 47 282 47Q367 47 424 111Q481 175 481 275ZM324 497ZM354 587 278 727H200L291 587ZM324 497Z" glyph-name="ograve" horiz-adv-x="600" unicode="&#242;" /><glyph d="M404 727H332L236 587H291ZM537 727H460L341 587H400ZM324 497ZM321 509Q422 509 485.5 444.5Q549 380 549 280Q549 154 472 71Q395 -12 280 -12Q179 -12 115.5 52Q52 116 52 217Q52 344 129 426.5Q206 509 321 509ZM481 275Q481 352 436.5 401Q392 450 321 450Q234 450 176.5 386.5Q119 323 119 222Q119 144 164 95.5Q209 47 282 47Q367 47 424 111Q481 175 481 275ZM324 497Z" glyph-name="ohungarumlaut" horiz-adv-x="600" unicode="&#337;" /><glyph d="M462 630H216L226 683H472ZM324 497ZM321 509Q422 509 485.5 444.5Q549 380 549 280Q549 154 472 71Q395 -12 280 -12Q179 -12 115.5 52Q52 116 52 217Q52 344 129 426.5Q206 509 321 509ZM481 275Q481 352 436.5 401Q392 450 321 450Q234 450 176.5 386.5Q119 323 119 222Q119 144 164 95.5Q209 47 282 47Q367 47 424 111Q481 175 481 275ZM324 497Z" glyph-name="omacron" horiz-adv-x="600" unicode="&#333;" /><glyph d="M37 0 49 65H195L286 584Q250 553 203 537.5Q156 522 96 522L107 587Q180 587 232 614Q284 641 318 700H378L266 65H412L400 0Z" glyph-name="one" horiz-adv-x="461" unicode="1" /><glyph d="M235 0H164L267 584Q230 553 183 537.5Q136 522 76 522L88 587Q161 587 212 614Q263 641 299 700H359Z" glyph-name="one.alt" horiz-adv-x="387" /><glyph d="M5 0 13 46H89L129 277Q111 263 86.5 255.5Q62 248 32 248L41 294Q78 294 106 308.5Q134 323 151 350H197L144 46H219L210 0Z" glyph-name="one.denominator" horiz-adv-x="274" unicode="&#63062;" /><glyph d="M-21 -140 -13 -94H63L103 137Q85 123 60.5 115.5Q36 108 6 108L15 154Q52 154 80 168.5Q108 183 125 210H171L118 -94H193L184 -140Z" glyph-name="one.inferior" horiz-adv-x="274" unicode="&#8321;" /><glyph d="M67 350 75 396H151L191 627Q173 613 148.5 605.5Q124 598 94 598L103 644Q140 644 168 658.5Q196 673 213 700H259L206 396H281L272 350Z" glyph-name="one.numerator" horiz-adv-x="274" unicode="&#63074;" /><glyph d="M101 0 113 65H259L350 584Q314 553 267 537.5Q220 522 160 522L171 587Q244 587 296 614Q348 641 382 700H442L330 65H476L464 0Z" glyph-name="one.tab" horiz-adv-x="588" unicode="&#65297;" /><glyph d="M642 0H392L402 52L541 153Q582 183 599 207Q616 231 616 256Q616 280 600.5 294.5Q585 309 558 309Q530 309 509.5 292Q489 275 477 243L427 255Q443 303 478 329.5Q513 356 561 356Q611 356 641.5 329Q672 302 672 260Q672 223 651 191Q630 159 563 110L477 47H651ZM77 350 85 396H161L201 627Q183 613 158.5 605.5Q134 598 104 598L113 644Q150 644 178 658.5Q206 673 223 700H269L216 396H291L282 350ZM198 0H139L546 700H605Z" glyph-name="onehalf" horiz-adv-x="722" unicode="&#189;" /><glyph d="M551 127 565 200 622 220 606 127H657L649 81H598L584 0H529L543 81H356L363 123L562 350H629L434 127ZM80 350 88 396H164L204 627Q186 613 161.5 605.5Q137 598 107 598L116 644Q153 644 181 658.5Q209 673 226 700H272L219 396H294L285 350ZM200 0H141L548 700H607Z" glyph-name="onequarter" horiz-adv-x="713" unicode="&#188;" /><glyph d="M91 490 99 536H175L215 767Q197 753 172.5 745.5Q148 738 118 738L127 784Q164 784 192 798.5Q220 813 237 840H283L230 536H305L296 490Z" glyph-name="onesuperior" horiz-adv-x="274" unicode="&#185;" /><glyph d="M337 448H289L296 485Q279 464 258 453Q237 442 213 442Q166 442 138.5 472.5Q111 503 111 551Q111 618 147 662Q183 706 238 706Q268 706 290 691.5Q312 677 323 650L332 700H381ZM164 557Q164 524 181 504.5Q198 485 227 485Q261 485 285 515Q309 545 309 587Q309 620 291 640.5Q273 661 244 661Q210 661 187 631Q164 601 164 557Z" glyph-name="ordfeminine" horiz-adv-x="384" unicode="&#170;" /><glyph d="M164 561Q164 605 187.5 633Q211 661 247 661Q278 661 297 640.5Q316 620 316 587Q316 543 292.5 514.5Q269 486 233 486Q202 486 183 507Q164 528 164 561ZM234 442Q292 442 330.5 483Q369 524 369 586Q369 639 335 672.5Q301 706 247 706Q189 706 149.5 665Q110 624 110 562Q110 509 144.5 475.5Q179 442 234 442Z" glyph-name="ordmasculine" horiz-adv-x="370" unicode="&#186;" /><glyph d="M181 8 118 -89H52L132 37Q94 68 73 115Q52 162 52 217Q52 344 129 426.5Q206 509 321 509Q350 509 375.5 504Q401 499 423 488L483 582H549L470 459Q508 428 528.5 381.5Q549 335 549 280Q549 154 472 71Q395 -12 280 -12Q253 -12 228 -7Q203 -2 181 8ZM321 450Q234 450 176.5 386.5Q119 323 119 222Q119 181 132 147Q145 113 170 90L392 434Q375 442 357.5 446Q340 450 321 450ZM282 47Q367 47 424 111Q481 175 481 275Q481 314 468.5 348Q456 382 432 406L211 62Q227 55 244.5 51Q262 47 282 47Z" glyph-name="oslash" horiz-adv-x="600" unicode="&#248;" /><glyph d="M321 509Q422 509 485.5 444.5Q549 380 549 280Q549 154 472 71Q395 -12 280 -12Q179 -12 115.5 52Q52 116 52 217Q52 344 129 426.5Q206 509 321 509ZM481 275Q481 352 436.5 401Q392 450 321 450Q234 450 176.5 386.5Q119 323 119 222Q119 144 164 95.5Q209 47 282 47Q367 47 424 111Q481 175 481 275ZM324 497ZM342 630Q366 614 379.5 609Q393 604 407 604Q439 604 458.5 628.5Q478 653 482 697H434Q432 677 424.5 668Q417 659 403 659Q394 659 383 663.5Q372 668 350 682Q323 699 307.5 704.5Q292 710 278 710Q243 710 221.5 685.5Q200 661 192 614H241Q246 636 255 646Q264 656 279 656Q292 656 305.5 651Q319 646 342 630ZM324 497Z" glyph-name="otilde" horiz-adv-x="600" unicode="&#245;" /><glyph d="M570 292Q570 161 498.5 74.5Q427 -12 317 -12Q251 -12 204.5 20Q158 52 136 111L79 -218H12L138 497H201L188 416Q221 461 267 485Q313 509 365 509Q458 509 514 448.5Q570 388 570 292ZM503 285Q503 360 462 404.5Q421 449 350 449Q268 449 212 382Q156 315 156 218Q156 142 198 94.5Q240 47 311 47Q394 47 448.5 115Q503 183 503 285Z" glyph-name="p" horiz-adv-x="622" unicode="p" /><glyph d="M342 700H601L440 -218H372L522 634H403L254 -218H186L269 253Q183 260 128.5 319.5Q74 379 74 459Q74 565 150 632.5Q226 700 342 700ZM147 463Q147 405 184 363.5Q221 322 280 318L335 634H329Q250 634 198.5 584.5Q147 535 147 463Z" glyph-name="paragraph" horiz-adv-x="637" unicode="&#182;" /><glyph d="M131 224Q131 136 161.5 54.5Q192 -27 254 -103L214 -131Q135 -45 97 43Q59 131 59 227Q59 386 133.5 513Q208 640 367 745L396 711Q265 612 198 489Q131 366 131 224Z" glyph-name="parenleft" horiz-adv-x="334" unicode="(" /><glyph d="M224 391Q224 479 193.5 560.5Q163 642 101 718L141 746Q220 660 258 572Q296 484 296 388Q296 229 221.5 102Q147 -25 -12 -130L-41 -96Q90 3 157 126Q224 249 224 391Z" glyph-name="parenright" horiz-adv-x="334" unicode=")" /><glyph d="M259 -12Q162 -12 102.5 42.5Q43 97 43 184Q43 287 111 356.5Q179 426 283 426Q350 426 399.5 399Q449 372 474 321Q479 357 481.5 390.5Q484 424 484 456Q484 556 441.5 606Q399 656 313 656Q278 656 239.5 643Q201 630 172 610L148 658Q184 683 229 697.5Q274 712 319 712Q432 712 492 644.5Q552 577 552 455Q552 249 472.5 118.5Q393 -12 259 -12ZM291 366Q213 366 162.5 316Q112 266 112 188Q112 124 152.5 86.5Q193 49 264 49Q331 49 382 100Q433 151 460 246Q443 300 397 333Q351 366 291 366Z" glyph-name="partialdiff" horiz-adv-x="600" unicode="&#8706;" /><glyph d="M690 216Q690 281 657.5 318.5Q625 356 567 356Q498 356 453 293Q408 230 408 134Q408 71 441 32.5Q474 -6 531 -6Q601 -6 645.5 56.5Q690 119 690 216ZM635 217Q635 143 606 92Q577 41 533 41Q500 41 482 65Q464 89 464 133Q464 207 493 258Q522 309 565 309Q599 309 617 285Q635 261 635 217ZM368 566Q368 631 335.5 668.5Q303 706 245 706Q176 706 131 643Q86 580 86 484Q86 421 119 382.5Q152 344 209 344Q279 344 323.5 406.5Q368 469 368 566ZM313 567Q313 493 284 442Q255 391 211 391Q178 391 160 415Q142 439 142 483Q142 557 171 608Q200 659 243 659Q277 659 295 635Q313 611 313 567ZM214 0H155L562 700H621Z" glyph-name="percent" horiz-adv-x="740" unicode="%" /><glyph d="M41 40Q41 18 56 3Q71 -12 93 -12Q115 -12 130 3Q145 18 145 40Q145 62 130 77Q115 92 93 92Q71 92 56 77Q41 62 41 40ZM52 47Z" glyph-name="period" horiz-adv-x="236" unicode="." /><glyph d="M88 337Q88 315 103 300Q118 285 140 285Q162 285 177 300Q192 315 192 337Q192 359 177 374Q162 389 140 389Q118 389 103 374Q88 359 88 337ZM99 344Z" glyph-name="periodcentered" horiz-adv-x="253" unicode="&#183;" /><glyph d="M690 216Q690 281 657.5 318.5Q625 356 567 356Q498 356 453 293Q408 230 408 134Q408 71 441 32.5Q474 -6 531 -6Q601 -6 645.5 56.5Q690 119 690 216ZM635 217Q635 143 606 92Q577 41 533 41Q500 41 482 65Q464 89 464 133Q464 207 493 258Q522 309 565 309Q599 309 617 285Q635 261 635 217ZM368 566Q368 631 335.5 668.5Q303 706 245 706Q176 706 131 643Q86 580 86 484Q86 421 119 382.5Q152 344 209 344Q279 344 323.5 406.5Q368 469 368 566ZM313 567Q313 493 284 442Q255 391 211 391Q178 391 160 415Q142 439 142 483Q142 557 171 608Q200 659 243 659Q277 659 295 635Q313 611 313 567ZM1013 216Q1013 281 980.5 318.5Q948 356 890 356Q821 356 776 293Q731 230 731 134Q731 71 764 32.5Q797 -6 854 -6Q924 -6 968.5 56.5Q1013 119 1013 216ZM958 217Q958 143 929 92Q900 41 856 41Q823 41 805 65Q787 89 787 133Q787 207 816 258Q845 309 888 309Q922 309 940 285Q958 261 958 217ZM214 0H155L562 700H621Z" glyph-name="perthousand" horiz-adv-x="1062" unicode="&#8240;" /><glyph d="M74 497H608L597 437H512L435 0H368L445 437H215L138 0H72L149 437H63Z" glyph-name="pi" horiz-adv-x="596" unicode="&#960;" /><glyph d="M338 128H278V320H86V381H278V572H338V381H530V320H338Z" glyph-name="plus" horiz-adv-x="580" unicode="+" /><glyph d="M319 149H259V341H67V402H259V593H319V402H511V341H319ZM67 3V64H511V3Z" glyph-name="plusminus" horiz-adv-x="580" unicode="&#177;" /><glyph d="M119 700H664L652 633H548L436 0H366L478 633H280L168 0H98L210 633H107Z" glyph-name="product" horiz-adv-x="624" unicode="&#8719;" /><glyph d="M50 205Q50 335 122.5 422Q195 509 304 509Q373 509 420 475Q467 441 487 379L508 497H571L446 -218H380L432 80Q399 36 353.5 12Q308 -12 256 -12Q163 -12 106.5 48.5Q50 109 50 205ZM118 213Q118 138 159 92.5Q200 47 271 47Q353 47 409.5 114Q466 181 466 278Q466 354 423.5 401.5Q381 449 310 449Q228 449 173 381.5Q118 314 118 213Z" glyph-name="q" horiz-adv-x="622" unicode="q" /><glyph d="M254 224 247 180H185L192 229Q199 275 224 309Q249 343 316 389Q380 433 403.5 469.5Q427 506 427 551Q427 597 397 624Q367 651 313 651Q262 651 221 621.5Q180 592 144 530L89 558Q128 634 185 673Q242 712 317 712Q400 712 449.5 668Q499 624 499 556Q499 497 467 447.5Q435 398 349 339Q296 303 277.5 279Q259 255 254 224ZM154 41Q154 18 169 3Q184 -12 206 -12Q228 -12 243.5 3Q259 18 259 41Q259 63 243.5 78Q228 93 206 93Q184 93 169 78Q154 63 154 41Z" glyph-name="question" horiz-adv-x="495" unicode="?" /><glyph d="M237 272 244 316H306L299 267Q292 221 267 187Q242 153 175 107Q111 63 87.5 26.5Q64 -10 64 -55Q64 -101 94 -128Q124 -155 178 -155Q229 -155 270 -125.5Q311 -96 347 -34L402 -62Q363 -138 306 -177Q249 -216 174 -216Q91 -216 41.5 -172Q-8 -128 -8 -60Q-8 -1 24 48.5Q56 98 142 157Q195 193 213.5 217Q232 241 237 272ZM337 455Q337 478 322 493Q307 508 285 508Q263 508 247.5 493Q232 478 232 455Q232 433 247.5 418Q263 403 285 403Q307 403 322 418Q337 433 337 455Z" glyph-name="questiondown" horiz-adv-x="486" unicode="&#191;" /><glyph d="M345 700 297 470H241L276 700ZM221 700 173 470H117L152 700Z" glyph-name="quotedbl" horiz-adv-x="339" unicode="&quot;" /><glyph d="M141 90H65L-22 -154H43ZM289 90H213L126 -154H191Z" glyph-name="quotedblbase" horiz-adv-x="376" unicode="&#8222;" /><glyph d="M193 700 100 470H173L255 700ZM334 700 241 470H314L396 700Z" glyph-name="quotedblleft" horiz-adv-x="375" unicode="&#8220;" /><glyph d="M259 700H186L103 470H166ZM400 700H327L244 470H307Z" glyph-name="quotedblright" horiz-adv-x="374" unicode="&#8221;" /><glyph d="M193 700 100 470H173L255 700Z" glyph-name="quoteleft" horiz-adv-x="234" unicode="&#8216;" /><glyph d="M259 700H186L103 470H166Z" glyph-name="quoteright" horiz-adv-x="233" unicode="&#8217;" /><glyph d="M141 90H65L-22 -154H43Z" glyph-name="quotesinglbase" horiz-adv-x="228" unicode="&#8218;" /><glyph d="M221 700 173 470H117L152 700Z" glyph-name="quotesingle" horiz-adv-x="216" unicode="'" /><glyph d="M51 0 138 497H201L180 376Q211 438 255.5 469.5Q300 501 356 501Q364 501 373 500Q382 499 396 497L384 434Q363 436 356.5 436.5Q350 437 343 437Q276 437 224 377.5Q172 318 156 222L118 0ZM264 497ZM84 0Z" glyph-name="r" horiz-adv-x="372" unicode="r" /><glyph d="M421 727H341L241 587H305ZM264 497ZM51 0 138 497H201L180 376Q211 438 255.5 469.5Q300 501 356 501Q364 501 373 500Q382 499 396 497L384 434Q363 436 356.5 436.5Q350 437 343 437Q276 437 224 377.5Q172 318 156 222L118 0ZM264 497ZM84 0Z" glyph-name="racute" horiz-adv-x="372" unicode="&#341;" /><glyph d="M51 363V430H226L315 100L493 700H567L349 0H276L168 363Z" glyph-name="radical" horiz-adv-x="551" unicode="&#8730;" /><glyph d="M311 587H236L165 727H223L278 635L348 727H406ZM265 497ZM51 0 138 497H201L180 376Q211 438 255.5 469.5Q300 501 356 501Q364 501 373 500Q382 499 396 497L384 434Q363 436 356.5 436.5Q350 437 343 437Q276 437 224 377.5Q172 318 156 222L118 0ZM264 497ZM84 0Z" glyph-name="rcaron" horiz-adv-x="372" unicode="&#345;" /><glyph d="M79 351Q79 501 184.5 606.5Q290 712 440 712Q590 712 695.5 606.5Q801 501 801 351Q801 201 695 94.5Q589 -12 440 -12Q291 -12 185 94.5Q79 201 79 351ZM745 351Q745 478 655.5 568.5Q566 659 440 659Q314 659 225 568.5Q136 478 136 351Q136 224 225.5 133Q315 42 440 42Q566 42 655.5 132.5Q745 223 745 351ZM313 176V526H463Q517 526 552 495.5Q587 465 587 420Q587 381 566 351.5Q545 322 509 310L587 176H524L451 302H368V176ZM531 419Q531 446 510 463Q489 480 455 480H368V347H454Q489 347 510 367Q531 387 531 419Z" glyph-name="registered" horiz-adv-x="844" unicode="&#174;" /><glyph d="M311 664Q311 707 280 738Q249 769 206 769Q162 769 132 738.5Q102 708 102 664Q102 620 131.5 590Q161 560 206 560Q250 560 280.5 590.5Q311 621 311 664ZM147 664Q147 688 164.5 706Q182 724 206 724Q230 724 247.5 706Q265 688 265 664Q265 640 247.5 622.5Q230 605 206 605Q182 605 164.5 622.5Q147 640 147 664ZM186 497Z" glyph-name="ring" horiz-adv-x="389" unicode="&#730;" /><glyph d="M311 864Q311 907 280 938Q249 969 206 969Q162 969 132 938.5Q102 908 102 864Q102 820 131.5 790Q161 760 206 760Q250 760 280.5 790.5Q311 821 311 864ZM147 864Q147 888 164.5 906Q182 924 206 924Q230 924 247.5 906Q265 888 265 864Q265 840 247.5 822.5Q230 805 206 805Q182 805 164.5 822.5Q147 840 147 864ZM187 700Z" glyph-name="ring.case" horiz-adv-x="389" /><glyph d="M419 142Q419 72 369 30Q319 -12 240 -12Q173 -12 112.5 14Q52 40 15 82L62 129Q97 90 143.5 68Q190 46 239 46Q293 46 323.5 70Q354 94 354 133Q354 164 334.5 182.5Q315 201 266 216L200 236Q141 254 110.5 288Q80 322 80 370Q80 429 127 469Q174 509 254 509Q313 509 363 486.5Q413 464 454 419L408 372Q377 410 336 430.5Q295 451 250 451Q199 451 171.5 430.5Q144 410 144 377Q144 346 162 327Q180 308 223 295L295 273Q358 254 388.5 221.5Q419 189 419 142ZM271 497ZM208 11ZM206 1Z" glyph-name="s" horiz-adv-x="486" unicode="s" /><glyph d="M426 727H346L246 587H310ZM269 497ZM419 142Q419 72 369 30Q319 -12 240 -12Q173 -12 112.5 14Q52 40 15 82L62 129Q97 90 143.5 68Q190 46 239 46Q293 46 323.5 70Q354 94 354 133Q354 164 334.5 182.5Q315 201 266 216L200 236Q141 254 110.5 288Q80 322 80 370Q80 429 127 469Q174 509 254 509Q313 509 363 486.5Q413 464 454 419L408 372Q377 410 336 430.5Q295 451 250 451Q199 451 171.5 430.5Q144 410 144 377Q144 346 162 327Q180 308 223 295L295 273Q358 254 388.5 221.5Q419 189 419 142ZM271 497ZM208 11ZM206 1Z" glyph-name="sacute" horiz-adv-x="486" unicode="&#347;" /><glyph d="M315 587H240L169 727H227L282 635L352 727H410ZM269 497ZM419 142Q419 72 369 30Q319 -12 240 -12Q173 -12 112.5 14Q52 40 15 82L62 129Q97 90 143.5 68Q190 46 239 46Q293 46 323.5 70Q354 94 354 133Q354 164 334.5 182.5Q315 201 266 216L200 236Q141 254 110.5 288Q80 322 80 370Q80 429 127 469Q174 509 254 509Q313 509 363 486.5Q413 464 454 419L408 372Q377 410 336 430.5Q295 451 250 451Q199 451 171.5 430.5Q144 410 144 377Q144 346 162 327Q180 308 223 295L295 273Q358 254 388.5 221.5Q419 189 419 142ZM271 497ZM208 11ZM206 1Z" glyph-name="scaron" horiz-adv-x="486" unicode="&#353;" /><glyph d="M121 -101 109 -79 179 -6Q130 3 86.5 26.5Q43 50 15 82L62 129Q98 89 144 67Q190 45 239 46Q293 46 323.5 70Q354 94 354 133Q354 164 334.5 182.5Q315 201 266 216L200 236Q141 253 110.5 287Q80 321 80 370Q80 429 127 469Q174 509 254 509Q313 509 363 486.5Q413 464 454 419L408 372Q377 410 336 430.5Q295 451 250 451Q199 451 171.5 430.5Q144 410 144 377Q144 346 162 327Q180 308 223 295L295 273Q357 254 388 221.5Q419 189 419 142Q419 72 369 30Q319 -12 240 -12Q233 -12 229.5 -12Q226 -12 222 -11L172 -62Q176 -61 180 -61Q184 -61 191 -61Q230 -61 251.5 -79Q273 -97 273 -128Q273 -169 241.5 -194.5Q210 -220 159 -220Q138 -220 115 -214Q92 -208 73 -198L81 -160Q101 -171 117.5 -175.5Q134 -180 154 -180Q183 -180 200 -166.5Q217 -153 217 -129Q217 -112 202.5 -102.5Q188 -93 163 -93Q154 -93 143.5 -95Q133 -97 121 -101Z" glyph-name="scedilla" horiz-adv-x="486" unicode="&#351;" /><glyph d="M157 587 252 727H327L398 587H340L286 680L215 587ZM269 497ZM419 142Q419 72 369 30Q319 -12 240 -12Q173 -12 112.5 14Q52 40 15 82L62 129Q97 90 143.5 68Q190 46 239 46Q293 46 323.5 70Q354 94 354 133Q354 164 334.5 182.5Q315 201 266 216L200 236Q141 254 110.5 288Q80 322 80 370Q80 429 127 469Q174 509 254 509Q313 509 363 486.5Q413 464 454 419L408 372Q377 410 336 430.5Q295 451 250 451Q199 451 171.5 430.5Q144 410 144 377Q144 346 162 327Q180 308 223 295L295 273Q358 254 388.5 221.5Q419 189 419 142ZM271 497ZM208 11ZM206 1Z" glyph-name="scircumflex" horiz-adv-x="486" unicode="&#349;" /><glyph d="M52 273Q52 320 78 361Q104 402 151 432Q139 451 133 472.5Q127 494 127 519Q127 602 190.5 657Q254 712 359 712Q425 712 483.5 694.5Q542 677 578 649L543 595Q509 619 459 634Q409 649 356 649Q282 649 240 614.5Q198 580 198 529Q198 484 225 453.5Q252 423 308 405L389 379Q464 355 502.5 313.5Q541 272 541 215Q541 167 514.5 123.5Q488 80 440 51Q453 32 459.5 10.5Q466 -11 466 -36Q466 -119 402.5 -174.5Q339 -230 233 -230Q167 -230 108 -212Q49 -194 12 -164L47 -109Q81 -135 131.5 -151Q182 -167 236 -167Q309 -167 352 -131.5Q395 -96 395 -45Q395 -3 368 26.5Q341 56 284 75L204 102Q129 127 90.5 170.5Q52 214 52 273ZM243 162 316 138Q342 129 364.5 117Q387 105 404 90Q434 110 451.5 141.5Q469 173 469 203Q469 243 440 271Q411 299 349 319L277 342Q251 350 227.5 363Q204 376 186 391Q157 372 140 342.5Q123 313 123 285Q123 242 152 212.5Q181 183 243 162Z" glyph-name="section" horiz-adv-x="594" unicode="&#167;" /><glyph d="M162 90H86L-1 -154H64ZM121 449Q121 427 136 412Q151 397 173 397Q195 397 210 412Q225 427 225 449Q225 471 210 486Q195 501 173 501Q151 501 136 486Q121 471 121 449ZM132 456Z" glyph-name="semicolon" horiz-adv-x="280" unicode=";" /><glyph d="M466 635H89L101 700H558L548 645L150 0H69Z" glyph-name="seven" horiz-adv-x="506" unicode="7" /><glyph d="M212 303H33L41 350H281L273 308L78 0H18Z" glyph-name="seven.denominator" horiz-adv-x="288" unicode="&#63068;" /><glyph d="M187 163H8L16 210H256L248 168L53 -140H-7Z" glyph-name="seven.inferior" horiz-adv-x="288" unicode="&#8327;" /><glyph d="M273 653H94L102 700H342L334 658L139 350H79Z" glyph-name="seven.numerator" horiz-adv-x="288" unicode="&#63080;" /><glyph d="M298 793H119L127 840H367L359 798L164 490H104Z" glyph-name="seven.superior" horiz-adv-x="288" unicode="&#8311;" /><glyph d="M507 635H130L142 700H599L589 645L191 0H110Z" glyph-name="seven.tab" horiz-adv-x="588" unicode="&#65303;" /><glyph d="M316 431Q405 431 461 378Q517 325 517 241Q517 134 445.5 61Q374 -12 267 -12Q171 -12 110 45Q49 102 49 190Q49 249 77 309.5Q105 370 166 444L375 700H461L239 434Q232 426 226.5 418.5Q221 411 217 405Q239 418 264 424.5Q289 431 316 431ZM293 372Q217 372 167.5 322.5Q118 273 118 197Q118 130 159.5 89.5Q201 49 269 49Q344 49 396 102.5Q448 156 448 235Q448 298 406.5 335Q365 372 293 372Z" glyph-name="six" horiz-adv-x="560" unicode="6" /><glyph d="M161 218Q205 218 232 192Q259 166 259 124Q259 69 221.5 31.5Q184 -6 128 -6Q76 -6 43.5 23Q11 52 11 97Q11 127 25 158.5Q39 190 68 225L170 350H235L119 208Q130 213 140.5 215.5Q151 218 161 218ZM204 117Q204 145 187 161Q170 177 140 177Q108 177 86.5 155.5Q65 134 65 101Q65 72 82.5 55Q100 38 129 38Q161 38 182.5 60.5Q204 83 204 117Z" glyph-name="six.denominator" horiz-adv-x="310" unicode="&#63067;" /><glyph d="M136 78Q180 78 207 52Q234 26 234 -16Q234 -71 196.5 -108.5Q159 -146 103 -146Q51 -146 18.5 -117Q-14 -88 -14 -43Q-14 -13 0 18.5Q14 50 43 85L145 210H210L94 68Q105 73 115.5 75.5Q126 78 136 78ZM179 -23Q179 5 162 21Q145 37 115 37Q83 37 61.5 15.5Q40 -6 40 -39Q40 -68 57.5 -85Q75 -102 104 -102Q136 -102 157.5 -79.5Q179 -57 179 -23Z" glyph-name="six.inferior" horiz-adv-x="310" unicode="&#8326;" /><glyph d="M223 568Q267 568 294 542Q321 516 321 474Q321 419 283.5 381.5Q246 344 190 344Q138 344 105.5 373Q73 402 73 447Q73 477 87 508.5Q101 540 130 575L232 700H297L181 558Q192 563 202.5 565.5Q213 568 223 568ZM266 467Q266 495 249 511Q232 527 202 527Q170 527 148.5 505.5Q127 484 127 451Q127 422 144.5 405Q162 388 191 388Q223 388 244.5 410.5Q266 433 266 467Z" glyph-name="six.numerator" horiz-adv-x="310" unicode="&#63079;" /><glyph d="M247 708Q291 708 318 682Q345 656 345 614Q345 559 307.5 521.5Q270 484 214 484Q162 484 129.5 513Q97 542 97 587Q97 617 111 648.5Q125 680 154 715L256 840H321L205 698Q216 703 226.5 705.5Q237 708 247 708ZM290 607Q290 635 273 651Q256 667 226 667Q194 667 172.5 645.5Q151 624 151 591Q151 562 168.5 545Q186 528 215 528Q247 528 268.5 550.5Q290 573 290 607Z" glyph-name="six.superior" horiz-adv-x="310" unicode="&#8310;" /><glyph d="M330 431Q419 431 475 378Q531 325 531 241Q531 134 459.5 61Q388 -12 281 -12Q185 -12 124 45Q63 102 63 190Q63 249 91 309.5Q119 370 180 444L389 700H475L253 434Q246 426 240.5 418.5Q235 411 231 405Q253 418 278 424.5Q303 431 330 431ZM307 372Q231 372 181.5 322.5Q132 273 132 197Q132 130 173.5 89.5Q215 49 283 49Q358 49 410 102.5Q462 156 462 235Q462 298 420.5 335Q379 372 307 372Z" glyph-name="six.tab" horiz-adv-x="588" unicode="&#65302;" /><glyph d="M46 -132H-25L407 742H475Z" glyph-name="slash" horiz-adv-x="429" unicode="/" /><glyph glyph-name="space" horiz-adv-x="276" unicode=" " /><glyph d="M150 309H69L78 363H144L141 397Q138 420 137 440Q136 460 136 478Q136 583 195.5 647.5Q255 712 362 712Q454 712 511 657.5Q568 603 570 510L502 496Q499 572 462.5 612Q426 652 358 652Q285 652 245 603Q205 554 205 477Q205 461 207.5 432.5Q210 404 210 402L213 363H421L412 309H218L224 243Q229 184 213 140Q197 96 159 67H505L493 0H30L41 68Q98 78 131.5 121.5Q165 165 158 229Z" glyph-name="sterling" horiz-adv-x="578" unicode="&#163;" /><glyph d="M129 642 140 700H621L608 634H212L321 363L117 66H519L507 0H15L28 51L244 363Z" glyph-name="summation" horiz-adv-x="594" unicode="&#8721;" /><glyph d="M144 439H58L67 497H155L187 677L257 700L221 497H382L372 439H211L160 151Q150 97 168.5 72Q187 47 234 47Q252 47 271 53Q290 59 317 74L338 23Q311 6 283 -3Q255 -12 227 -12Q151 -12 115.5 29.5Q80 71 92 142ZM313 701ZM197 10ZM115 0Z" glyph-name="t" horiz-adv-x="385" unicode="t" /><glyph d="M38 283 49 341H133L150 439H64L73 497H161L193 677L263 700L227 497H388L378 439H217L200 341H352L342 283H189L166 151Q156 97 174.5 72Q193 47 240 47Q258 47 277 53Q296 59 323 74L344 23Q317 6 289 -3Q261 -12 233 -12Q157 -12 121.5 29.5Q86 71 98 142L123 283Z" glyph-name="tbar" horiz-adv-x="393" unicode="&#359;" /><glyph d="M439 731H367L318 583H373ZM313 701ZM144 439H58L67 497H155L187 677L257 700L221 497H382L372 439H211L160 151Q150 97 168.5 72Q187 47 234 47Q252 47 271 53Q290 59 317 74L338 23Q311 6 283 -3Q255 -12 227 -12Q151 -12 115.5 29.5Q80 71 92 142ZM313 701ZM197 10ZM115 0Z" glyph-name="tcaron" horiz-adv-x="385" unicode="&#357;" /><glyph d="M570 294Q570 162 498 75Q426 -12 316 -12Q251 -12 204 20Q157 52 136 111L79 -218H12L178 730H245L190 418Q223 462 268 485.5Q313 509 365 509Q458 509 514 449Q570 389 570 294ZM503 286Q503 360 461.5 404.5Q420 449 350 449Q268 449 212 381.5Q156 314 156 218Q156 142 198.5 94.5Q241 47 312 47Q393 47 448 116Q503 185 503 286Z" glyph-name="thorn" horiz-adv-x="621" unicode="&#254;" /><glyph d="M282 365Q269 365 253 362.5Q237 360 220 355L198 410L458 635H139L150 700H563L552 633L308 425Q402 419 453 368.5Q504 318 504 236Q504 128 436 58Q368 -12 259 -12Q166 -12 102 34.5Q38 81 20 159L89 187Q105 121 148.5 86Q192 51 260 51Q334 51 382.5 101Q431 151 431 232Q431 291 391.5 328Q352 365 282 365Z" glyph-name="three" horiz-adv-x="569" unicode="3" /><glyph d="M131 173Q124 173 117.5 172Q111 171 105 169L89 206L207 304H57L66 350H286L278 308L164 215Q205 209 229 183Q253 157 253 121Q253 66 217 30Q181 -6 124 -6Q74 -6 39.5 18Q5 42 -6 83L42 106Q51 73 71.5 56Q92 39 122 39Q154 39 175 60.5Q196 82 196 116Q196 143 179.5 158Q163 173 131 173Z" glyph-name="three.denominator" horiz-adv-x="315" unicode="&#63064;" /><glyph d="M106 33Q99 33 92.5 32Q86 31 80 29L64 66L182 164H32L41 210H261L253 168L139 75Q180 69 204 43Q228 17 228 -19Q228 -74 192 -110Q156 -146 99 -146Q49 -146 14.5 -122Q-20 -98 -31 -57L17 -34Q26 -67 46.5 -84Q67 -101 97 -101Q129 -101 150 -79.5Q171 -58 171 -24Q171 3 154.5 18Q138 33 106 33Z" glyph-name="three.inferior" horiz-adv-x="315" unicode="&#8323;" /><glyph d="M193 523Q186 523 179.5 522Q173 521 167 519L151 556L269 654H119L128 700H348L340 658L226 565Q267 559 291 533Q315 507 315 471Q315 416 279 380Q243 344 186 344Q136 344 101.5 368Q67 392 56 433L104 456Q113 423 133.5 406Q154 389 184 389Q216 389 237 410.5Q258 432 258 466Q258 493 241.5 508Q225 523 193 523Z" glyph-name="three.numerator" horiz-adv-x="315" unicode="&#63076;" /><glyph d="M292 365Q279 365 263 362.5Q247 360 230 355L208 410L468 635H149L160 700H573L562 633L318 425Q412 419 463 368.5Q514 318 514 236Q514 128 446 58Q378 -12 269 -12Q176 -12 112 34.5Q48 81 30 159L99 187Q115 121 158.5 86Q202 51 270 51Q344 51 392.5 101Q441 151 441 232Q441 291 401.5 328Q362 365 292 365Z" glyph-name="three.tab" horiz-adv-x="588" unicode="&#65299;" /><glyph d="M569 127 583 200 640 220 624 127H675L667 81H616L602 0H547L561 81H374L381 123L580 350H647L452 127ZM217 0H158L565 700H624ZM206 522Q199 522 192.5 521Q186 520 180 518L164 555L282 653H132L141 699H361L353 657L239 564Q280 558 304 532Q328 506 328 470Q328 415 292 379Q256 343 199 343Q149 343 114.5 367Q80 391 69 432L117 455Q126 422 146.5 405Q167 388 197 388Q229 388 250 409.5Q271 431 271 465Q271 492 254.5 507Q238 522 206 522Z" glyph-name="threequarters" horiz-adv-x="731" unicode="&#190;" /><glyph d="M217 663Q210 663 203.5 662Q197 661 191 659L175 696L293 794H143L152 840H372L364 798L250 705Q291 699 315 673Q339 647 339 611Q339 556 303 520Q267 484 210 484Q160 484 125.5 508Q91 532 80 573L128 596Q137 563 157.5 546Q178 529 208 529Q240 529 261 550.5Q282 572 282 606Q282 633 265.5 648Q249 663 217 663Z" glyph-name="threesuperior" horiz-adv-x="315" unicode="&#179;" /><glyph d="M202 630Q226 614 239.5 609Q253 604 267 604Q299 604 318.5 628.5Q338 653 342 697H294Q292 677 284.5 668Q277 659 263 659Q254 659 243 663.5Q232 668 210 682Q183 699 167.5 704.5Q152 710 138 710Q103 710 81.5 685.5Q60 661 52 614H101Q106 636 115 646Q124 656 139 656Q152 656 165.5 651Q179 646 202 630ZM184 497Z" glyph-name="tilde" horiz-adv-x="393" unicode="&#732;" /><glyph d="M202 830Q226 814 239.5 809Q253 804 267 804Q299 804 318.5 828.5Q338 853 342 897H294Q292 877 284.5 868Q277 859 263 859Q254 859 243 863.5Q232 868 210 882Q183 899 167.5 904.5Q152 910 138 910Q103 910 81.5 885.5Q60 861 52 814H101Q106 836 115 846Q124 856 139 856Q152 856 165.5 851Q179 846 202 830ZM194 700Z" glyph-name="tilde.case" horiz-adv-x="393" /><glyph d="M429 350V700H498L607 424L715 700H785V350H734V617L628 349H585L479 613V350ZM112 652V700H390V652H279V350H223V652Z" glyph-name="trademark" horiz-adv-x="844" unicode="&#8482;" /><glyph d="M484 0H17L28 65L311 296Q413 380 445.5 429.5Q478 479 478 530Q478 586 443 617.5Q408 649 347 649Q286 649 239.5 610.5Q193 572 165 497L100 514Q131 607 198 659.5Q265 712 352 712Q443 712 497 662.5Q551 613 551 536Q551 490 533 447Q515 404 478 361Q459 340 434 316.5Q409 293 334 231L132 65H495Z" glyph-name="two" horiz-adv-x="574" unicode="2" /><glyph d="M247 0H-3L7 52L146 153Q187 183 204 207Q221 231 221 256Q221 280 205.5 294.5Q190 309 163 309Q135 309 114.5 292Q94 275 82 243L32 255Q48 303 83 329.5Q118 356 166 356Q216 356 246.5 329Q277 302 277 260Q277 223 256 191Q235 159 168 110L82 47H256Z" glyph-name="two.denominator" horiz-adv-x="323" unicode="&#63063;" /><glyph d="M223 -140H-27L-17 -88L122 13Q163 43 180 67Q197 91 197 116Q197 140 181.5 154.5Q166 169 139 169Q111 169 90.5 152Q70 135 58 103L8 115Q24 163 59 189.5Q94 216 142 216Q192 216 222.5 189Q253 162 253 120Q253 83 232 51Q211 19 144 -30L58 -93H232Z" glyph-name="two.inferior" horiz-adv-x="323" unicode="&#8322;" /><glyph d="M309 350H59L69 402L208 503Q249 533 266 557Q283 581 283 606Q283 630 267.5 644.5Q252 659 225 659Q197 659 176.5 642Q156 625 144 593L94 605Q110 653 145 679.5Q180 706 228 706Q278 706 308.5 679Q339 652 339 610Q339 573 318 541Q297 509 230 460L144 397H318Z" glyph-name="two.numerator" horiz-adv-x="323" unicode="&#63075;" /><glyph d="M492 0H25L36 65L319 296Q421 380 453.5 429.5Q486 479 486 530Q486 586 451 617.5Q416 649 355 649Q294 649 247.5 610.5Q201 572 173 497L108 514Q139 607 206 659.5Q273 712 360 712Q451 712 505 662.5Q559 613 559 536Q559 490 541 447Q523 404 486 361Q467 340 442 316.5Q417 293 342 231L140 65H503Z" glyph-name="two.tab" horiz-adv-x="588" unicode="&#65298;" /><glyph d="M334 490H84L94 542L233 643Q274 673 291 697Q308 721 308 746Q308 770 292.5 784.5Q277 799 250 799Q222 799 201.5 782Q181 765 169 733L119 745Q135 793 170 819.5Q205 846 253 846Q303 846 333.5 819Q364 792 364 750Q364 713 343 681Q322 649 255 600L169 537H343Z" glyph-name="twosuperior" horiz-adv-x="323" unicode="&#178;" /><glyph d="M547 497 459 0H396L411 84Q379 37 337 12.5Q295 -12 244 -12Q154 -12 107 49Q60 110 77 204L129 497H196L145 214Q131 138 160.5 94Q190 50 257 50Q326 50 372 99Q418 148 434 238L480 497ZM337 497ZM414 0Z" glyph-name="u" horiz-adv-x="597" unicode="u" /><glyph d="M494 727H414L314 587H378ZM337 497ZM547 497 459 0H396L411 84Q379 37 337 12.5Q295 -12 244 -12Q154 -12 107 49Q60 110 77 204L129 497H196L145 214Q131 138 160.5 94Q190 50 257 50Q326 50 372 99Q418 148 434 238L480 497ZM337 497ZM414 0Z" glyph-name="uacute" horiz-adv-x="597" unicode="&#250;" /><glyph d="M547 497 459 0H396L411 84Q379 37 337 12.5Q295 -12 244 -12Q154 -12 107 49Q60 110 77 204L129 497H196L145 214Q131 138 160.5 94Q190 50 257 50Q326 50 372 99Q418 148 434 238L480 497ZM337 497ZM414 0ZM350 632Q388 632 410.5 656.5Q433 681 438 727H487Q483 662 446.5 623.5Q410 585 348 585Q286 585 254 624.5Q222 664 228 727H277Q276 678 294 655Q312 632 350 632ZM337 497Z" glyph-name="ubreve" horiz-adv-x="597" unicode="&#365;" /><glyph d="M225 587 320 727H395L466 587H408L354 680L283 587ZM337 497ZM547 497 459 0H396L411 84Q379 37 337 12.5Q295 -12 244 -12Q154 -12 107 49Q60 110 77 204L129 497H196L145 214Q131 138 160.5 94Q190 50 257 50Q326 50 372 99Q418 148 434 238L480 497ZM337 497ZM414 0Z" glyph-name="ucircumflex" horiz-adv-x="597" unicode="&#251;" /><glyph d="M233 657Q233 638 247 624Q261 610 280 610Q300 610 314 624Q328 638 328 657Q328 676 314 690Q300 704 280 704Q261 704 247 690.5Q233 677 233 657ZM384 657Q384 637 397.5 623.5Q411 610 430 610Q450 610 464 624Q478 638 478 657Q478 676 464 690Q450 704 430 704Q411 704 397.5 690.5Q384 677 384 657ZM337 497ZM547 497 459 0H396L411 84Q379 37 337 12.5Q295 -12 244 -12Q154 -12 107 49Q60 110 77 204L129 497H196L145 214Q131 138 160.5 94Q190 50 257 50Q326 50 372 99Q418 148 434 238L480 497ZM337 497ZM414 0Z" glyph-name="udieresis" horiz-adv-x="597" unicode="&#252;" /><glyph d="M547 497 459 0H396L411 84Q379 37 337 12.5Q295 -12 244 -12Q154 -12 107 49Q60 110 77 204L129 497H196L145 214Q131 138 160.5 94Q190 50 257 50Q326 50 372 99Q418 148 434 238L480 497ZM337 497ZM414 0ZM367 587 291 727H213L304 587ZM337 497Z" glyph-name="ugrave" horiz-adv-x="597" unicode="&#249;" /><glyph d="M547 497 459 0H396L411 84Q379 37 337 12.5Q295 -12 244 -12Q154 -12 107 49Q60 110 77 204L129 497H196L145 214Q131 138 160.5 94Q190 50 257 50Q326 50 372 99Q418 148 434 238L480 497ZM337 497ZM414 0ZM417 727H345L249 587H304ZM550 727H473L354 587H413ZM337 497Z" glyph-name="uhungarumlaut" horiz-adv-x="597" unicode="&#369;" /><glyph d="M547 497 459 0H396L411 84Q379 37 337 12.5Q295 -12 244 -12Q154 -12 107 49Q60 110 77 204L129 497H196L145 214Q131 138 160.5 94Q190 50 257 50Q326 50 372 99Q418 148 434 238L480 497ZM337 497ZM414 0ZM475 630H229L239 683H485ZM337 497Z" glyph-name="umacron" horiz-adv-x="597" unicode="&#363;" /><glyph d="M13 -59 23 0H455L444 -59Z" glyph-name="underscore" horiz-adv-x="556" unicode="_" /><glyph glyph-name="uni00A0" horiz-adv-x="276" unicode="&#160;" /><glyph d="M73 231 84 293H346L336 231Z" glyph-name="uni00AD" horiz-adv-x="414" unicode="&#173;" /><glyph d="M401 -69H326L266 -219H327ZM373 0ZM332 -210ZM423 286 435 351H713L651 0H589L608 109Q567 51 506 19.5Q445 -12 374 -12Q237 -12 156 72.5Q75 157 75 294Q75 378 100 452Q125 526 173 583Q224 645 294.5 678.5Q365 712 445 712Q555 712 630.5 658.5Q706 605 735 506L667 479Q641 562 585 603.5Q529 645 443 645Q321 645 234.5 545.5Q148 446 148 299Q148 188 212.5 121.5Q277 55 387 55Q479 55 547 111Q615 167 629 251L635 286ZM447 700ZM374 0Z" glyph-name="uni0122" horiz-adv-x="764" /><glyph d="M281 587H360L420 727H364ZM316 497ZM261 4Q173 4 115.5 65Q58 126 58 215Q58 342 127.5 425.5Q197 509 304 509Q370 509 417 475.5Q464 442 484 382L506 497H569L481 -9Q462 -118 400.5 -174Q339 -230 237 -230Q161 -230 96.5 -197Q32 -164 -4 -111L46 -68Q84 -119 132.5 -145Q181 -171 238 -171Q311 -171 356 -128Q401 -85 415 -2L431 90Q398 48 354.5 26Q311 4 261 4ZM125 225Q125 152 166 107.5Q207 63 275 63Q354 63 408.5 128Q463 193 463 285Q463 358 421 403.5Q379 449 309 449Q231 449 178 384.5Q125 320 125 225ZM316 497Z" glyph-name="uni0123" horiz-adv-x="619" /><glyph d="M350 -69H275L215 -219H276ZM322 0ZM281 -210ZM378 395 597 0H515L322 346L173 208L136 0H65L189 700H260L190 306L613 700H706ZM324 0Z" glyph-name="uni0136" horiz-adv-x="654" /><glyph d="M289 -69H214L154 -219H215ZM261 0ZM220 -210ZM323 310 485 0H412L271 271L146 171L117 0H50L178 730H245L161 254L461 497H554ZM263 0Z" glyph-name="uni0137" horiz-adv-x="542" /><glyph d="M318 -69H243L183 -219H244ZM290 0ZM249 -210ZM65 0 188 700H259L148 67H523L511 0ZM223 700ZM314 700ZM400 350ZM290 0Z" glyph-name="uni013B" horiz-adv-x="576" unicode="&#315;" /><glyph d="M111 -69H36L-24 -219H37ZM83 0ZM42 -210ZM50 0 179 730H246L117 0ZM213 730ZM295 700ZM224 350ZM83 0Z" glyph-name="uni013C" horiz-adv-x="254" unicode="&#316;" /><glyph d="M372 -69H297L237 -219H298ZM344 0ZM303 -210ZM65 0 188 700H259L564 117L666 700H734L610 0H551L238 601L132 0ZM461 700ZM344 0Z" glyph-name="uni0145" horiz-adv-x="762" /><glyph d="M292 -69H217L157 -219H218ZM264 0ZM223 -210ZM530 293 479 0H411L463 284Q477 358 445 402.5Q413 447 342 447Q273 447 226.5 398Q180 349 164 260L117 0H50L139 497H202L188 412Q220 460 263.5 484.5Q307 509 359 509Q450 509 498 447.5Q546 386 530 293ZM142 586ZM350 497ZM264 0Z" glyph-name="uni0146" horiz-adv-x="608" /><glyph d="M340 -69H265L205 -219H266ZM312 0ZM271 -210ZM65 0 188 700H450Q550 700 611.5 644.5Q673 589 673 504Q673 420 615 356Q557 292 464 269L585 0H506L390 259H384H182L136 0ZM600 500Q600 562 558 598.5Q516 635 441 635H248L193 324H400Q481 324 540.5 376.5Q600 429 600 500ZM410 700ZM313 0Z" glyph-name="uni0156" horiz-adv-x="692" /><glyph d="M111 -69H36L-24 -219H37ZM83 0ZM42 -210ZM51 0 138 497H201L180 376Q211 438 255.5 469.5Q300 501 356 501Q364 501 373 500Q382 499 396 497L384 434Q363 436 356.5 436.5Q350 437 343 437Q276 437 224 377.5Q172 318 156 222L118 0ZM264 497ZM84 0Z" glyph-name="uni0157" horiz-adv-x="372" /><glyph d="M165 -102 152 -80 229 0H218L329 633H93L104 700H649L638 633H400L289 0H278L214 -65Q218 -63 222.5 -62.5Q227 -62 234 -62Q273 -62 294.5 -80Q316 -98 316 -129Q316 -170 284.5 -195.5Q253 -221 202 -221Q180 -221 157.5 -215Q135 -209 117 -199L125 -161Q143 -172 160 -176.5Q177 -181 197 -181Q226 -181 243.5 -167.5Q261 -154 261 -130Q261 -113 246 -103.5Q231 -94 206 -94Q197 -94 186.5 -96Q176 -98 165 -102Z" glyph-name="uni0162" horiz-adv-x="594" /><glyph d="M105 -102 93 -80 167 -3Q122 11 102.5 49.5Q83 88 92 142L144 439H58L67 497H155L187 677L257 700L221 497H382L372 439H211L160 151Q150 97 168.5 72Q187 47 234 47Q252 47 271 53Q290 59 317 74L338 23Q311 6 283 -3Q255 -12 227 -12Q218 -12 214 -12Q210 -12 207 -11L156 -63Q160 -62 164 -62Q168 -62 175 -62Q214 -62 235.5 -80Q257 -98 257 -129Q257 -170 225.5 -195.5Q194 -221 143 -221Q122 -221 99 -215Q76 -209 57 -199L65 -161Q85 -172 101.5 -176.5Q118 -181 138 -181Q167 -181 184 -167.5Q201 -154 201 -130Q201 -113 186.5 -103.5Q172 -94 147 -94Q138 -94 127.5 -96Q117 -98 105 -102Z" glyph-name="uni0163" horiz-adv-x="385" /><glyph d="M335 -69H260L200 -219H261ZM307 0ZM266 -210ZM555 200Q555 106 489 47Q423 -12 319 -12Q229 -12 148.5 27Q68 66 25 124L81 175Q127 118 188.5 85Q250 52 318 52Q396 52 439.5 92Q483 132 483 193Q483 237 456 266Q429 295 369 315L266 349Q194 373 156 417Q118 461 118 522Q118 603 181 657.5Q244 712 348 712Q430 712 497.5 680.5Q565 649 609 592L553 541Q512 594 459.5 620.5Q407 647 344 647Q271 647 229.5 612.5Q188 578 188 527Q188 486 213.5 458.5Q239 431 297 411L406 374Q482 348 518.5 305.5Q555 263 555 200ZM360 700ZM307 10ZM307 0Z" glyph-name="uni0218" horiz-adv-x="619" /><glyph d="M232 -68H157L97 -218H158ZM204 1ZM163 -209ZM419 142Q419 72 369 30Q319 -12 240 -12Q173 -12 112.5 14Q52 40 15 82L62 129Q97 90 143.5 68Q190 46 239 46Q293 46 323.5 70Q354 94 354 133Q354 164 334.5 182.5Q315 201 266 216L200 236Q141 254 110.5 288Q80 322 80 370Q80 429 127 469Q174 509 254 509Q313 509 363 486.5Q413 464 454 419L408 372Q377 410 336 430.5Q295 451 250 451Q199 451 171.5 430.5Q144 410 144 377Q144 346 162 327Q180 308 223 295L295 273Q358 254 388.5 221.5Q419 189 419 142ZM271 497ZM208 11ZM206 1Z" glyph-name="uni0219" horiz-adv-x="486" /><glyph d="M281 -69H206L146 -219H207ZM253 0ZM212 -210ZM93 633 104 700H649L638 633H400L289 0H218L329 633ZM376 700ZM256 10ZM253 0Z" glyph-name="uni021A" horiz-adv-x="594" unicode="&#538;" /><glyph d="M143 -69H68L8 -219H69ZM115 0ZM74 -210ZM144 439H58L67 497H155L187 677L257 700L221 497H382L372 439H211L160 151Q150 97 168.5 72Q187 47 234 47Q252 47 271 53Q290 59 317 74L338 23Q311 6 283 -3Q255 -12 227 -12Q151 -12 115.5 29.5Q80 71 92 142ZM313 701ZM197 10ZM115 0Z" glyph-name="uni021B" horiz-adv-x="385" unicode="&#539;" /><glyph d="M45 -57 142 497H208L110 -60Q94 -150 52 -190Q10 -230 -65 -230Q-82 -230 -99.5 -227Q-117 -224 -132 -218L-114 -162Q-98 -167 -85 -169Q-72 -171 -61 -171Q-16 -171 9 -144.5Q34 -118 45 -57ZM175 497Z" glyph-name="uni0237" horiz-adv-x="258" /><glyph d="M314 630H68L78 683H324ZM176 497Z" glyph-name="uni02C9" horiz-adv-x="390" unicode="&#713;" /><glyph d="M-5 0 6 54 379 700H452L594 54L583 0ZM401 610 89 65H517Z" glyph-name="uni0394" horiz-adv-x="669" unicode="&#916;" /><glyph d="M28 0 39 65H224Q158 110 123 178Q88 246 88 329Q88 492 184 602Q280 712 428 712Q559 712 637 632.5Q715 553 715 424Q715 304 659 211Q603 118 499 65H660L649 0H401L414 69Q521 115 582.5 206.5Q644 298 644 416Q644 520 585.5 582.5Q527 645 425 645Q310 645 234.5 552Q159 459 159 323Q159 245 190.5 183Q222 121 283 77L269 0Z" glyph-name="uni03A9" horiz-adv-x="767" unicode="&#937;" /><glyph d="M556 497 468 0H405L420 84Q389 37 346.5 12.5Q304 -12 253 -12Q208 -12 173.5 5Q139 22 120 54L103 -78L78 -218H11L138 497H205L154 214Q140 138 169.5 94Q199 50 266 50Q335 50 381 99Q427 148 443 238L489 497Z" glyph-name="uni03BC" horiz-adv-x="606" unicode="&#956;" /><glyph d="M202 430 126 0H55L132 442Q154 567 235 639.5Q316 712 438 712Q519 712 585.5 679.5Q652 647 697 586L487 381L520 368Q598 338 633 297.5Q668 257 668 199Q668 104 603.5 46Q539 -12 436 -12Q388 -12 344.5 -3Q301 6 266 23L287 82Q321 67 358.5 58.5Q396 50 431 50Q508 50 552 90.5Q596 131 596 192Q596 233 567.5 263.5Q539 294 483 312L386 343L391 372L603 583Q570 614 527 630.5Q484 647 435 647Q342 647 281 588.5Q220 530 202 430Z" glyph-name="uni1E9E" horiz-adv-x="726" unicode="&#7838;" /><glyph d="M142 279 55 228 37 279 154 347 189 548Q204 633 242 672.5Q280 712 345 712Q397 712 429.5 682Q462 652 462 604Q462 531 416.5 465Q371 399 292 356L214 313L186 151Q176 96 194 71.5Q212 47 259 47Q280 47 299.5 53.5Q319 60 343 75L363 23Q337 6 309.5 -3Q282 -12 254 -12Q178 -12 142.5 30Q107 72 119 145ZM340 653Q307 653 286.5 627.5Q266 602 256 548L226 383L274 411Q334 446 365 492Q396 538 396 592Q396 621 381.5 637Q367 653 340 653Z" glyph-name="uni2113" horiz-adv-x="438" /><glyph d="M74 350 82 396H158L198 627Q180 613 155.5 605.5Q131 598 101 598L110 644Q147 644 175 658.5Q203 673 220 700H266L213 396H288L279 350ZM195 0H136L543 700H602ZM532 173Q525 173 518.5 172Q512 171 506 169L490 206L608 304H458L467 350H687L679 308L565 215Q606 209 630 183Q654 157 654 121Q654 66 618 30Q582 -6 525 -6Q475 -6 440.5 18Q406 42 395 83L443 106Q452 73 472.5 56Q493 39 523 39Q555 39 576 60.5Q597 82 597 116Q597 143 580.5 158Q564 173 532 173Z" glyph-name="uni2153" horiz-adv-x="723" unicode="&#8531;" /><glyph d="M319 350H69L79 402L218 503Q259 533 276 557Q293 581 293 606Q293 630 277.5 644.5Q262 659 235 659Q207 659 186.5 642Q166 625 154 593L104 605Q120 653 155 679.5Q190 706 238 706Q288 706 318.5 679Q349 652 349 610Q349 573 328 541Q307 509 240 460L154 397H328ZM227 0H168L575 700H634ZM564 173Q557 173 550.5 172Q544 171 538 169L522 206L640 304H490L499 350H719L711 308L597 215Q638 209 662 183Q686 157 686 121Q686 66 650 30Q614 -6 557 -6Q507 -6 472.5 18Q438 42 427 83L475 106Q484 73 504.5 56Q525 39 555 39Q587 39 608 60.5Q629 82 629 116Q629 143 612.5 158Q596 173 564 173Z" glyph-name="uni2154" horiz-adv-x="755" unicode="&#8532;" /><glyph d="M195 0H136L543 700H602ZM75 350 83 396H159L199 627Q181 613 156.5 605.5Q132 598 102 598L111 644Q148 644 176 658.5Q204 673 221 700H267L214 396H289L280 350ZM557 223Q605 223 634 196Q663 169 663 127Q663 69 626.5 31.5Q590 -6 531 -6Q483 -6 448 17Q413 40 402 78L448 100Q456 71 477.5 55.5Q499 40 531 40Q566 40 587 62Q608 84 608 123Q608 149 590.5 164.5Q573 180 543 180Q525 180 507.5 173Q490 166 476 154L436 174L491 350H678L669 303H526L494 207Q509 215 525 219Q541 223 557 223Z" glyph-name="uni2155" horiz-adv-x="727" unicode="&#8533;" /><glyph d="M319 350H69L79 402L218 503Q259 533 276 557Q293 581 293 606Q293 630 277.5 644.5Q262 659 235 659Q207 659 186.5 642Q166 625 154 593L104 605Q120 653 155 679.5Q190 706 238 706Q288 706 318.5 679Q349 652 349 610Q349 573 328 541Q307 509 240 460L154 397H328ZM589 223Q637 223 666 196Q695 169 695 127Q695 69 658.5 31.5Q622 -6 563 -6Q515 -6 480 17Q445 40 434 78L480 100Q488 71 509.5 55.5Q531 40 563 40Q598 40 619 62Q640 84 640 123Q640 149 622.5 164.5Q605 180 575 180Q557 180 539.5 173Q522 166 508 154L468 174L523 350H710L701 303H558L526 207Q541 215 557 219Q573 223 589 223ZM227 0H168L575 700H634Z" glyph-name="uni2156" horiz-adv-x="759" unicode="&#8534;" /><glyph d="M580 223Q628 223 657 196Q686 169 686 127Q686 69 649.5 31.5Q613 -6 554 -6Q506 -6 471 17Q436 40 425 78L471 100Q479 71 500.5 55.5Q522 40 554 40Q589 40 610 62Q631 84 631 123Q631 149 613.5 164.5Q596 180 566 180Q548 180 530.5 173Q513 166 499 154L459 174L514 350H701L692 303H549L517 207Q532 215 548 219Q564 223 580 223ZM218 0H159L566 700H625ZM205 523Q198 523 191.5 522Q185 521 179 519L163 556L281 654H131L140 700H360L352 658L238 565Q279 559 303 533Q327 507 327 471Q327 416 291 380Q255 344 198 344Q148 344 113.5 368Q79 392 68 433L116 456Q125 423 145.5 406Q166 389 196 389Q228 389 249 410.5Q270 432 270 466Q270 493 253.5 508Q237 523 205 523Z" glyph-name="uni2157" horiz-adv-x="752" unicode="&#8535;" /><glyph d="M261 477 275 550 332 570 316 477H367L359 431H308L294 350H239L253 431H66L73 473L272 700H339L144 477ZM603 223Q651 223 680 196Q709 169 709 127Q709 69 672.5 31.5Q636 -6 577 -6Q529 -6 494 17Q459 40 448 78L494 100Q502 71 523.5 55.5Q545 40 577 40Q612 40 633 62Q654 84 654 123Q654 149 636.5 164.5Q619 180 589 180Q571 180 553.5 173Q536 166 522 154L482 174L537 350H724L715 303H572L540 207Q555 215 571 219Q587 223 603 223ZM240 0H181L588 700H647Z" glyph-name="uni2158" horiz-adv-x="777" unicode="&#8536;" /><glyph d="M531 218Q575 218 602 192Q629 166 629 124Q629 69 591.5 31.5Q554 -6 498 -6Q446 -6 413.5 23Q381 52 381 97Q381 127 395 158.5Q409 190 438 225L540 350H605L489 208Q500 213 510.5 215.5Q521 218 531 218ZM574 117Q574 145 557 161Q540 177 510 177Q478 177 456.5 155.5Q435 134 435 101Q435 72 452.5 55Q470 38 499 38Q531 38 552.5 60.5Q574 83 574 117ZM78 350 86 396H162L202 627Q184 613 159.5 605.5Q135 598 105 598L114 644Q151 644 179 658.5Q207 673 224 700H270L217 396H292L283 350ZM198 0H139L546 700H605Z" glyph-name="uni2159" horiz-adv-x="689" unicode="&#8537;" /><glyph d="M548 218Q592 218 619 192Q646 166 646 124Q646 69 608.5 31.5Q571 -6 515 -6Q463 -6 430.5 23Q398 52 398 97Q398 127 412 158.5Q426 190 455 225L557 350H622L506 208Q517 213 527.5 215.5Q538 218 548 218ZM591 117Q591 145 574 161Q557 177 527 177Q495 177 473.5 155.5Q452 134 452 101Q452 72 469.5 55Q487 38 516 38Q548 38 569.5 60.5Q591 83 591 117ZM224 573Q272 573 301 546Q330 519 330 477Q330 419 293.5 381.5Q257 344 198 344Q150 344 115 367Q80 390 69 428L115 450Q123 421 144.5 405.5Q166 390 198 390Q233 390 254 412Q275 434 275 473Q275 499 257.5 514.5Q240 530 210 530Q192 530 174.5 523Q157 516 143 504L103 524L158 700H345L336 653H193L161 557Q176 565 192 569Q208 573 224 573ZM215 0H156L563 700H622Z" glyph-name="uni215A" horiz-adv-x="706" unicode="&#8538;" /><glyph d="M196 0H137L544 700H603ZM76 350 84 396H160L200 627Q182 613 157.5 605.5Q133 598 103 598L112 644Q149 644 177 658.5Q205 673 222 700H268L215 396H290L281 350ZM483 187Q462 199 451.5 216.5Q441 234 441 256Q441 299 474.5 327.5Q508 356 561 356Q614 356 647 330.5Q680 305 680 266Q680 236 662 211Q644 186 612 176Q634 164 646 145Q658 126 658 102Q658 55 622 24.5Q586 -6 530 -6Q474 -6 439 21Q404 48 404 89Q404 123 425.5 150Q447 177 483 187ZM561 313Q532 313 513 296Q494 279 494 252Q494 228 511 213.5Q528 199 558 199Q588 199 606 217Q624 235 624 261Q624 285 607 299Q590 313 561 313ZM533 160Q500 160 480 140.5Q460 121 460 93Q460 68 479.5 52.5Q499 37 531 37Q562 37 582.5 55.5Q603 74 603 103Q603 130 584.5 145Q566 160 533 160Z" glyph-name="uni215B" horiz-adv-x="726" unicode="&#8539;" /><glyph d="M218 0H159L566 700H625ZM504 187Q483 199 472.5 216.5Q462 234 462 256Q462 299 495.5 327.5Q529 356 582 356Q635 356 668 330.5Q701 305 701 266Q701 236 683 211Q665 186 633 176Q655 164 667 145Q679 126 679 102Q679 55 643 24.5Q607 -6 551 -6Q495 -6 460 21Q425 48 425 89Q425 123 446.5 150Q468 177 504 187ZM582 313Q553 313 534 296Q515 279 515 252Q515 228 532 213.5Q549 199 579 199Q609 199 627 217Q645 235 645 261Q645 285 628 299Q611 313 582 313ZM554 160Q521 160 501 140.5Q481 121 481 93Q481 68 500.5 52.5Q520 37 552 37Q583 37 603.5 55.5Q624 74 624 103Q624 130 605.5 145Q587 160 554 160ZM205 523Q198 523 191.5 522Q185 521 179 519L163 556L281 654H131L140 700H360L352 658L238 565Q279 559 303 533Q327 507 327 471Q327 416 291 380Q255 344 198 344Q148 344 113.5 368Q79 392 68 433L116 456Q125 423 145.5 406Q166 389 196 389Q228 389 249 410.5Q270 432 270 466Q270 493 253.5 508Q237 523 205 523Z" glyph-name="uni215C" horiz-adv-x="750" unicode="&#8540;" /><glyph d="M203 0H144L551 700H610ZM490 187Q469 199 458.5 216.5Q448 234 448 256Q448 299 481.5 327.5Q515 356 568 356Q621 356 654 330.5Q687 305 687 266Q687 236 669 211Q651 186 619 176Q641 164 653 145Q665 126 665 102Q665 55 629 24.5Q593 -6 537 -6Q481 -6 446 21Q411 48 411 89Q411 123 432.5 150Q454 177 490 187ZM568 313Q539 313 520 296Q501 279 501 252Q501 228 518 213.5Q535 199 565 199Q595 199 613 217Q631 235 631 261Q631 285 614 299Q597 313 568 313ZM540 160Q507 160 487 140.5Q467 121 467 93Q467 68 486.5 52.5Q506 37 538 37Q569 37 589.5 55.5Q610 74 610 103Q610 130 591.5 145Q573 160 540 160ZM224 573Q272 573 301 546Q330 519 330 477Q330 419 293.5 381.5Q257 344 198 344Q150 344 115 367Q80 390 69 428L115 450Q123 421 144.5 405.5Q166 390 198 390Q233 390 254 412Q275 434 275 473Q275 499 257.5 514.5Q240 530 210 530Q192 530 174.5 523Q157 516 143 504L103 524L158 700H345L336 653H193L161 557Q176 565 192 569Q208 573 224 573Z" glyph-name="uni215D" horiz-adv-x="734" unicode="&#8541;" /><glyph d="M286 653H107L115 700H355L347 658L152 350H92ZM142 0H83L490 700H549ZM429 187Q408 199 397.5 216.5Q387 234 387 256Q387 299 420.5 327.5Q454 356 507 356Q560 356 593 330.5Q626 305 626 266Q626 236 608 211Q590 186 558 176Q580 164 592 145Q604 126 604 102Q604 55 568 24.5Q532 -6 476 -6Q420 -6 385 21Q350 48 350 89Q350 123 371.5 150Q393 177 429 187ZM507 313Q478 313 459 296Q440 279 440 252Q440 228 457 213.5Q474 199 504 199Q534 199 552 217Q570 235 570 261Q570 285 553 299Q536 313 507 313ZM479 160Q446 160 426 140.5Q406 121 406 93Q406 68 425.5 52.5Q445 37 477 37Q508 37 528.5 55.5Q549 74 549 103Q549 130 530.5 145Q512 160 479 160Z" glyph-name="uni215E" horiz-adv-x="674" unicode="&#8542;" /><glyph d="M89 350 97 396H173L213 627Q195 613 170.5 605.5Q146 598 116 598L125 644Q162 644 190 658.5Q218 673 235 700H281L228 396H303L294 350ZM209 0H150L557 700H616Z" glyph-name="uni215F" horiz-adv-x="423" unicode="&#8543;" /><glyph d="M20 0H-39L368 700H427Z" glyph-name="uni2215" horiz-adv-x="352" unicode="&#8725;" /><glyph d="M127.5 331Q127.5 298 150 275.5Q172.5 253 205.5 253Q238.5 253 261 275.5Q283.5 298 283.5 331Q283.5 364 261 386.5Q238.5 409 205.5 409Q172.5 409 150 386.5Q127.5 364 127.5 331ZM144 341.5Z" glyph-name="uni2219" horiz-adv-x="386" /><glyph d="M1409 529H71V537H1409ZM1216 257Q1216 262 1216 287.5Q1216 313 1215 332L1186 330V334Q1186 344 1189 349Q1192 354 1198 354H1215L1212 384Q1231 390 1235.5 391Q1240 392 1244 392Q1249 392 1252 390Q1255 388 1255 384V355H1302V352Q1302 341 1299 336Q1296 331 1290 331H1255V241Q1255 233 1259 229.5Q1263 226 1271 226Q1277 226 1284 227Q1291 228 1305 231Q1325 235 1335.5 236Q1346 237 1356 237Q1378 237 1398 230.5Q1418 224 1418 213Q1418 200 1409.5 192.5Q1401 185 1391 185Q1389 185 1386 186Q1383 187 1375 192Q1356 202 1343.5 205.5Q1331 209 1320 209Q1316 209 1311 208.5Q1306 208 1294 206Q1276 203 1265 202Q1254 201 1244 201Q1227 201 1222 210.5Q1217 220 1216 257ZM1199 290Q1199 278 1193 270.5Q1187 263 1174 258Q1165 255 1155 253.5Q1145 252 1130 252Q1131 242 1138 236Q1145 230 1156 230Q1165 230 1172.5 232Q1180 234 1188 239Q1192 236 1194 232Q1196 228 1196 223Q1196 214 1183.5 207Q1171 200 1149 200Q1121 200 1105 214.5Q1089 229 1089 253Q1089 282 1108 301.5Q1127 321 1158 321Q1176 321 1187.5 312Q1199 303 1199 290ZM876 290Q876 278 870 270.5Q864 263 851 258Q842 255 832 253.5Q822 252 807 252Q808 242 815 236Q822 230 833 230Q842 230 849.5 232Q857 234 865 239Q869 236 871 232Q873 228 873 223Q873 214 860.5 207Q848 200 826 200Q798 200 782 214.5Q766 229 766 253Q766 282 785 301.5Q804 321 835 321Q853 321 864.5 312Q876 303 876 290ZM177 290Q177 278 171 270.5Q165 263 152 258Q143 255 133 253.5Q123 252 108 252Q109 242 116 236Q123 230 134 230Q143 230 150.5 232Q158 234 166 239Q170 236 172 232Q174 228 174 223Q174 214 161.5 207Q149 200 127 200Q99 200 83 214.5Q67 229 67 253Q67 282 86 301.5Q105 321 136 321Q154 321 165.5 312Q177 303 177 290ZM1044 321Q1058 321 1065.5 313Q1073 305 1073 289V240L1075 208Q1056 202 1051.5 201Q1047 200 1044 200Q1039 200 1036 202Q1033 204 1033 208V275Q1033 283 1031 286.5Q1029 290 1025 290Q1018 290 1008.5 272.5Q999 255 999 242L1002 208Q983 202 978.5 201Q974 200 970 200Q965 200 962 202Q959 204 959 208V277L956 313Q975 319 979.5 320Q984 321 988 321Q993 321 996 318.5Q999 316 999 312V272Q1008 296 1019 308.5Q1030 321 1044 321ZM354 321Q368 321 375 313Q382 305 382 289V240L385 208Q366 202 361.5 201Q357 200 354 200Q349 200 346 202Q343 204 343 208V274Q343 283 341 286.5Q339 290 335 290Q328 290 318.5 272.5Q309 255 309 242L311 208Q292 202 287.5 201Q283 200 280 200Q275 200 272 202Q269 204 269 208V274Q269 283 267 286.5Q265 290 261 290Q254 290 244.5 272.5Q235 255 235 242L238 208Q219 202 214.5 201Q210 200 206 200Q201 200 198 202Q195 204 195 208V277L192 313Q211 319 215.5 320Q220 321 224 321Q229 321 232 318.5Q235 316 235 312V272Q241 292 253 306.5Q265 321 280 321Q294 321 301.5 313Q309 305 309 289V272Q315 294 327 307.5Q339 321 354 321ZM830 298Q821 298 814.5 288.5Q808 279 806 264Q822 264 832.5 269.5Q843 275 843 285Q843 291 839.5 294.5Q836 298 830 298ZM1153 298Q1144 298 1137.5 288.5Q1131 279 1129 264Q1145 264 1155.5 269.5Q1166 275 1166 285Q1166 291 1162.5 294.5Q1159 298 1153 298ZM131 298Q122 298 115.5 288.5Q109 279 107 264Q123 264 133.5 269.5Q144 275 144 285Q144 291 140.5 294.5Q137 298 131 298ZM666 242V219Q689 222 700 235Q711 248 711 270Q711 280 707.5 285Q704 290 698 290Q686 290 676 272Q666 254 666 242ZM891 226Q891 236 898 243Q905 250 916 250Q927 250 934.5 243Q942 236 942 226Q942 216 934.5 209.5Q927 203 916 203Q905 203 898 209.5Q891 216 891 226ZM713 320Q731 320 742 306Q753 292 753 269Q753 236 730.5 218.5Q708 201 666 201V161L669 129Q650 123 645.5 122Q641 121 637 121Q632 121 629 123Q626 125 626 129V204L601 201V198Q601 160 583.5 139.5Q566 119 533 119Q514 119 503 128.5Q492 138 492 153Q492 171 508.5 184Q525 197 562 206V248Q554 225 542 212.5Q530 200 516 200Q502 200 495 207.5Q488 215 488 231V234Q478 217 465 209Q452 201 435 201Q422 201 414 209Q406 217 406 231V332L377 330V334Q377 344 380 349Q383 354 389 354H406L403 384Q422 390 426.5 391Q431 392 435 392Q440 392 443 390Q446 388 446 384V355H493V352Q493 341 490 336Q487 331 481 331H446V245Q446 237 449 233Q452 229 459 229Q469 229 478.5 237Q488 245 488 255V280L485 313Q504 319 508.5 320Q513 321 517 321Q522 321 525 318.5Q528 316 528 312V246Q528 238 529.5 234.5Q531 231 535 231Q542 231 551.5 248Q561 265 561 279L559 313Q578 319 582.5 320Q587 321 590 321Q595 321 598 318.5Q601 316 601 312V213L626 216V277L623 313Q642 319 646.5 320Q651 321 655 321Q660 321 663 318.5Q666 316 666 312V272Q674 295 686 307.5Q698 320 713 320ZM534 148Q546 148 553 159Q560 170 561 194Q542 190 531 181.5Q520 173 520 162Q520 155 524 151.5Q528 148 534 148ZM1409 0H71V8H1409Z" glyph-name="uniF8FF" horiz-adv-x="1485" unicode="&#63743;" /><glyph d="M480 497H547L459 0H450Q390 -32 362 -62Q334 -92 334 -125Q334 -150 350 -163Q366 -176 397 -176Q405 -176 412 -175Q419 -174 426 -172L419 -214Q409 -218 399 -220Q389 -222 378 -222Q329 -222 302 -199Q275 -176 275 -137Q275 -98 306.5 -61.5Q338 -25 397 3L411 84Q379 37 337 12.5Q295 -12 244 -12Q154 -12 107 49Q60 110 77 204L129 497H196L145 214Q131 138 160.5 94Q190 50 257 50Q326 50 372 99Q418 148 434 238Z" glyph-name="uogonek" horiz-adv-x="597" unicode="&#371;" /><glyph d="M463 664Q463 707 432 738Q401 769 358 769Q314 769 284 738.5Q254 708 254 664Q254 620 283.5 590Q313 560 358 560Q402 560 432.5 590.5Q463 621 463 664ZM299 664Q299 688 316.5 706Q334 724 358 724Q382 724 399.5 706Q417 688 417 664Q417 640 399.5 622.5Q382 605 358 605Q334 605 316.5 622.5Q299 640 299 664ZM338 497ZM547 497 459 0H396L411 84Q379 37 337 12.5Q295 -12 244 -12Q154 -12 107 49Q60 110 77 204L129 497H196L145 214Q131 138 160.5 94Q190 50 257 50Q326 50 372 99Q418 148 434 238L480 497ZM337 497ZM414 0Z" glyph-name="uring" horiz-adv-x="597" unicode="&#367;" /><glyph d="M547 497 459 0H396L411 84Q379 37 337 12.5Q295 -12 244 -12Q154 -12 107 49Q60 110 77 204L129 497H196L145 214Q131 138 160.5 94Q190 50 257 50Q326 50 372 99Q418 148 434 238L480 497ZM337 497ZM414 0ZM355 630Q379 614 392.5 609Q406 604 420 604Q452 604 471.5 628.5Q491 653 495 697H447Q445 677 437.5 668Q430 659 416 659Q407 659 396 663.5Q385 668 363 682Q336 699 320.5 704.5Q305 710 291 710Q256 710 234.5 685.5Q213 661 205 614H254Q259 636 268 646Q277 656 292 656Q305 656 318.5 651Q332 646 355 630ZM337 497Z" glyph-name="utilde" horiz-adv-x="597" unicode="&#361;" /><glyph d="M186 0 71 497H141L233 79L470 497H544L255 0Z" glyph-name="v" horiz-adv-x="528" unicode="v" /><glyph d="M146 0 74 497H140L193 86L388 497H455L506 85L700 497H770L525 0H460L406 407L211 0ZM421 497Z" glyph-name="w" horiz-adv-x="758" unicode="w" /><glyph d="M578 727H498L398 587H462ZM421 497ZM146 0 74 497H140L193 86L388 497H455L506 85L700 497H770L525 0H460L406 407L211 0ZM421 497Z" glyph-name="wacute" horiz-adv-x="758" unicode="&#7811;" /><glyph d="M309 587 404 727H479L550 587H492L438 680L367 587ZM421 497ZM146 0 74 497H140L193 86L388 497H455L506 85L700 497H770L525 0H460L406 407L211 0ZM421 497Z" glyph-name="wcircumflex" horiz-adv-x="758" unicode="&#373;" /><glyph d="M317 657Q317 638 331 624Q345 610 364 610Q384 610 398 624Q412 638 412 657Q412 676 398 690Q384 704 364 704Q345 704 331 690.5Q317 677 317 657ZM468 657Q468 637 481.5 623.5Q495 610 514 610Q534 610 548 624Q562 638 562 657Q562 676 548 690Q534 704 514 704Q495 704 481.5 690.5Q468 677 468 657ZM421 497ZM146 0 74 497H140L193 86L388 497H455L506 85L700 497H770L525 0H460L406 407L211 0ZM421 497Z" glyph-name="wdieresis" horiz-adv-x="758" unicode="&#7813;" /><glyph d="M146 0 74 497H140L193 86L388 497H455L506 85L700 497H770L525 0H460L406 407L211 0ZM421 497ZM451 587 375 727H297L388 587ZM421 497Z" glyph-name="wgrave" horiz-adv-x="758" unicode="&#7809;" /><glyph d="M221 254 74 497H146L266 296L456 497H536L297 248L449 0H377L253 206L56 0H-23Z" glyph-name="x" horiz-adv-x="517" unicode="x" /><glyph d="M182 -6 72 497H141L230 74L472 497H545L130 -218H58ZM306 497Z" glyph-name="y" horiz-adv-x="529" unicode="y" /><glyph d="M182 -6 72 497H141L230 74L472 497H545L130 -218H58ZM306 497ZM463 727H383L283 587H347ZM306 497Z" glyph-name="yacute" horiz-adv-x="529" unicode="&#253;" /><glyph d="M182 -6 72 497H141L230 74L472 497H545L130 -218H58ZM306 497ZM194 587 289 727H364L435 587H377L323 680L252 587ZM306 497Z" glyph-name="ycircumflex" horiz-adv-x="529" unicode="&#375;" /><glyph d="M182 -6 72 497H141L230 74L472 497H545L130 -218H58ZM306 497ZM202 657Q202 638 216 624Q230 610 249 610Q269 610 283 624Q297 638 297 657Q297 676 283 690Q269 704 249 704Q230 704 216 690.5Q202 677 202 657ZM353 657Q353 637 366.5 623.5Q380 610 399 610Q419 610 433 624Q447 638 447 657Q447 676 433 690Q419 704 399 704Q380 704 366.5 690.5Q353 677 353 657ZM306 497Z" glyph-name="ydieresis" horiz-adv-x="529" unicode="&#255;" /><glyph d="M245 192H72L81 243H254L264 302L258 317H95L104 368H239L115 700H185L306 368H310L548 700H624L382 368H522L513 317H345L336 305L325 243H500L491 192H316L282 0H211Z" glyph-name="yen" horiz-adv-x="585" unicode="&#165;" /><glyph d="M182 -6 72 497H141L230 74L472 497H545L130 -218H58ZM306 497ZM336 587 260 727H182L273 587ZM306 497Z" glyph-name="ygrave" horiz-adv-x="529" unicode="&#7923;" /><glyph d="M90 61H412L402 0H-8L0 51L385 436H86L96 497H483L474 444ZM290 497Z" glyph-name="z" horiz-adv-x="485" unicode="z" /><glyph d="M447 727H367L267 587H331ZM290 497ZM90 61H412L402 0H-8L0 51L385 436H86L96 497H483L474 444ZM290 497Z" glyph-name="zacute" horiz-adv-x="485" unicode="&#378;" /><glyph d="M336 587H261L190 727H248L303 635L373 727H431ZM290 497ZM90 61H412L402 0H-8L0 51L385 436H86L96 497H483L474 444ZM290 497Z" glyph-name="zcaron" horiz-adv-x="485" unicode="&#382;" /><glyph d="M90 61H412L402 0H-8L0 51L385 436H86L96 497H483L474 444ZM290 497ZM257 657Q257 635 272.5 619Q288 603 310 603Q333 603 348.5 619Q364 635 364 657Q364 680 348.5 695.5Q333 711 310 711Q288 711 272.5 695Q257 679 257 657ZM290 497Z" glyph-name="zdotaccent" horiz-adv-x="485" unicode="&#380;" /><glyph d="M293 -12Q423 -12 508 118Q593 248 593 444Q593 570 536.5 641Q480 712 375 712Q246 712 161 581.5Q76 451 76 255Q76 133 133 60.5Q190 -12 293 -12ZM520 450Q520 280 457 165.5Q394 51 298 51Q225 51 187 102.5Q149 154 149 250Q149 419 211.5 534Q274 649 370 649Q443 649 481.5 597.5Q520 546 520 450Z" glyph-name="zero" horiz-adv-x="633" unicode="0" /><glyph d="M306 216Q306 281 273.5 318.5Q241 356 183 356Q114 356 69 293Q24 230 24 134Q24 71 57 32.5Q90 -6 147 -6Q217 -6 261.5 56.5Q306 119 306 216ZM251 217Q251 143 222 92Q193 41 149 41Q116 41 98 65Q80 89 80 133Q80 207 109 258Q138 309 181 309Q215 309 233 285Q251 261 251 217Z" glyph-name="zero.denominator" horiz-adv-x="355" unicode="&#63061;" /><glyph d="M281 76Q281 141 248.5 178.5Q216 216 158 216Q89 216 44 153Q-1 90 -1 -6Q-1 -69 32 -107.5Q65 -146 122 -146Q192 -146 236.5 -83.5Q281 -21 281 76ZM226 77Q226 3 197 -48Q168 -99 124 -99Q91 -99 73 -75Q55 -51 55 -7Q55 67 84 118Q113 169 156 169Q190 169 208 145Q226 121 226 77Z" glyph-name="zero.inferior" horiz-adv-x="355" unicode="&#8320;" /><glyph d="M368 566Q368 631 335.5 668.5Q303 706 245 706Q176 706 131 643Q86 580 86 484Q86 421 119 382.5Q152 344 209 344Q279 344 323.5 406.5Q368 469 368 566ZM313 567Q313 493 284 442Q255 391 211 391Q178 391 160 415Q142 439 142 483Q142 557 171 608Q200 659 243 659Q277 659 295 635Q313 611 313 567Z" glyph-name="zero.numerator" horiz-adv-x="355" unicode="&#63073;" /><glyph d="M392 706Q392 771 359.5 808.5Q327 846 269 846Q200 846 155 783Q110 720 110 624Q110 561 143 522.5Q176 484 233 484Q303 484 347.5 546.5Q392 609 392 706ZM337 707Q337 633 308 582Q279 531 235 531Q202 531 184 555Q166 579 166 623Q166 697 195 748Q224 799 267 799Q301 799 319 775Q337 751 337 707Z" glyph-name="zero.superior" horiz-adv-x="355" unicode="&#8304;" /><glyph d="M270 -12Q400 -12 485 118Q570 248 570 444Q570 570 513.5 641Q457 712 352 712Q223 712 138 581.5Q53 451 53 255Q53 133 110 60.5Q167 -12 270 -12ZM497 450Q497 280 434 165.5Q371 51 275 51Q202 51 164 102.5Q126 154 126 250Q126 419 188.5 534Q251 649 347 649Q420 649 458.5 597.5Q497 546 497 450Z" glyph-name="zero.tab" horiz-adv-x="588" unicode="&#65296;" /></font>
</defs>
</svg>
