<?xml version="1.0" standalone="no"?><!DOCTYPE svg PUBLIC "-//W3C//DTD SVG 1.1//EN" "http://www.w3.org/Graphics/SVG/1.1/DTD/svg11.dtd" ><svg version="1.1" xmlns="http://www.w3.org/2000/svg"><defs><font horiz-adv-x="0" id="font"><font-face ascent="750" bbox="-132 -230 1417 964" cap-height="700" descent="-250" font-family="Web use ONLY | Copyright (C) Emtype Foundry" font-stretch="normal" font-weight="290" units-per-em="1000" x-height="495" /><missing-glyph d="M52 351Q52 501 157.5 606.5Q263 712 413 712Q563 712 668.5 606.5Q774 501 774 351Q774 201 668 94.5Q562 -12 413 -12Q264 -12 158 94.5Q52 201 52 351ZM306 565H229L375 346L229 127H307L414 287L520 127H598L452 346L598 565H521L414 404Z" horiz-adv-x="826" /><glyph d="M162 198 47 0H-14L396 700H453L604 0H546L504 198ZM413 631 191 248H494ZM424 700ZM554 0Z" glyph-name="A" horiz-adv-x="683" unicode="A" /><glyph d="M213 203 42 0H-25L563 700H1064L1056 649H642L596 386H980L971 335H587L537 52H961L951 0H473L509 203ZM586 649 254 254H518L587 649Z" glyph-name="AE" horiz-adv-x="1052" unicode="&#198;" /><glyph d="M162 198 47 0H-14L396 700H453L604 0H546L504 198ZM413 631 191 248H494ZM424 700ZM554 0ZM575 926H513L413 787H464ZM424 700Z" glyph-name="Aacute" horiz-adv-x="683" unicode="&#193;" /><glyph d="M162 198 47 0H-14L396 700H453L604 0H546L504 198ZM413 631 191 248H494ZM424 700ZM554 0ZM439 823Q479 823 503 849.5Q527 876 533 926H573Q567 859 532 822Q497 785 437 785Q377 785 346 824Q315 863 321 926H360Q357 876 377.5 849.5Q398 823 439 823ZM424 700Z" glyph-name="Abreve" horiz-adv-x="683" unicode="&#258;" /><glyph d="M162 198 47 0H-14L396 700H453L604 0H546L504 198ZM413 631 191 248H494ZM424 700ZM554 0ZM330 787 422 926H480L549 787H502L448 886L376 787ZM424 700Z" glyph-name="Acircumflex" horiz-adv-x="683" unicode="&#194;" /><glyph d="M162 198 47 0H-14L396 700H453L604 0H546L504 198ZM413 631 191 248H494ZM424 700ZM554 0ZM333 856Q333 840 344.5 828.5Q356 817 373 817Q390 817 401.5 828.5Q413 840 413 856Q413 873 401.5 884.5Q390 896 373 896Q357 896 345 884.5Q333 873 333 856ZM473 856Q473 840 484.5 828.5Q496 817 512 817Q529 817 540.5 828.5Q552 840 552 856Q552 873 540.5 884.5Q529 896 512 896Q496 896 484.5 884.5Q473 873 473 856ZM424 700Z" glyph-name="Adieresis" horiz-adv-x="683" unicode="&#196;" /><glyph d="M162 198 47 0H-14L396 700H453L604 0H546L504 198ZM413 631 191 248H494ZM424 700ZM554 0ZM447 787 372 926H310L397 787ZM424 700Z" glyph-name="Agrave" horiz-adv-x="683" unicode="&#192;" /><glyph d="M162 198 47 0H-14L396 700H453L604 0H546L504 198ZM413 631 191 248H494ZM424 700ZM554 0ZM556 835H310L318 877H564ZM424 700Z" glyph-name="Amacron" horiz-adv-x="683" unicode="&#256;" /><glyph d="M162 198 47 0H-14L396 700H453L604 0H590Q530 -28 499.5 -61Q469 -94 469 -130Q469 -155 486 -169Q503 -183 533 -183Q541 -183 550 -182Q559 -181 569 -178L563 -212Q554 -216 543.5 -218Q533 -220 519 -220Q474 -220 448.5 -198Q423 -176 423 -139Q423 -98 455 -60Q487 -22 545 4L504 198ZM413 631 191 248H494Z" glyph-name="Aogonek" horiz-adv-x="683" unicode="&#260;" /><glyph d="M162 198 47 0H-14L396 700H453L604 0H546L504 198ZM413 631 191 248H494ZM424 700ZM554 0ZM546 861Q546 904 516 934Q486 964 443 964Q400 964 370.5 934Q341 904 341 861Q341 819 370.5 789Q400 759 443 759Q486 759 516 789Q546 819 546 861ZM378 861Q378 889 397 908.5Q416 928 443 928Q470 928 489.5 908Q509 888 509 861Q509 834 489.5 815Q470 796 443 796Q416 796 397 815Q378 834 378 861ZM424 700Z" glyph-name="Aring" horiz-adv-x="683" unicode="&#197;" /><glyph d="M162 198 47 0H-14L396 700H453L604 0H546L504 198ZM413 631 191 248H494ZM424 700ZM554 0ZM436 835Q460 817 473.5 811.5Q487 806 501 806Q531 806 550 828.5Q569 851 573 892H534Q532 871 523 860Q514 849 498 849Q488 849 477 854Q466 859 444 875Q418 895 403 901Q388 907 373 907Q340 907 319.5 884Q299 861 292 817H331Q335 840 346 852Q357 864 373 864Q387 864 400 858.5Q413 853 436 835ZM428 700Z" glyph-name="Atilde" horiz-adv-x="683" unicode="&#195;" /><glyph d="M70 0 193 700H468Q557 700 609.5 655Q662 610 662 540Q662 476 620.5 427.5Q579 379 511 360Q559 340 587.5 297Q616 254 616 204Q616 116 549 58Q482 0 385 0ZM606 533Q606 585 567.5 617Q529 649 462 649H240L194 388H439Q508 388 557 430Q606 472 606 533ZM560 207Q560 264 520.5 301Q481 338 414 338H185L134 51H394Q463 51 511.5 96.5Q560 142 560 207Z" glyph-name="B" horiz-adv-x="697" unicode="B" /><glyph d="M436 660Q313 660 224 555Q135 450 135 305Q135 186 201.5 113Q268 40 378 40Q450 40 506.5 77.5Q563 115 609 193L656 164Q607 77 535.5 32.5Q464 -12 374 -12Q241 -12 160 74.5Q79 161 79 300Q79 379 103.5 451.5Q128 524 175 581Q225 644 293 678Q361 712 436 712Q546 712 617 655.5Q688 599 708 498L656 478Q635 568 579.5 614Q524 660 436 660ZM439 700ZM379 10Z" glyph-name="C" horiz-adv-x="714" unicode="C" /><glyph d="M436 660Q313 660 224 555Q135 450 135 305Q135 186 201.5 113Q268 40 378 40Q450 40 506.5 77.5Q563 115 609 193L656 164Q607 77 535.5 32.5Q464 -12 374 -12Q241 -12 160 74.5Q79 161 79 300Q79 379 103.5 451.5Q128 524 175 581Q225 644 293 678Q361 712 436 712Q546 712 617 655.5Q688 599 708 498L656 478Q635 568 579.5 614Q524 660 436 660ZM439 700ZM379 10ZM590 926H528L428 787H479ZM439 700Z" glyph-name="Cacute" horiz-adv-x="714" unicode="&#262;" /><glyph d="M436 660Q313 660 224 555Q135 450 135 305Q135 186 201.5 113Q268 40 378 40Q450 40 506.5 77.5Q563 115 609 193L656 164Q607 77 535.5 32.5Q464 -12 374 -12Q241 -12 160 74.5Q79 161 79 300Q79 379 103.5 451.5Q128 524 175 581Q225 644 293 678Q361 712 436 712Q546 712 617 655.5Q688 599 708 498L656 478Q635 568 579.5 614Q524 660 436 660ZM439 700ZM379 10ZM477 787H419L351 926H397L452 827L524 926H570ZM440 700Z" glyph-name="Ccaron" horiz-adv-x="714" unicode="&#268;" /><glyph d="M288 -101 276 -80 343 -11Q223 0 151 85Q79 170 79 300Q79 379 103.5 451.5Q128 524 175 581Q225 644 293 678Q361 712 436 712Q546 712 617 655.5Q688 599 708 498L656 478Q635 568 579.5 614Q524 660 436 660Q313 660 224 555Q135 450 135 305Q135 186 201.5 113Q268 40 378 40Q450 40 506.5 77.5Q563 115 609 193L656 164Q608 79 538.5 34.5Q469 -10 382 -12L330 -65Q335 -64 340.5 -63.5Q346 -63 356 -63Q393 -63 414.5 -80.5Q436 -98 436 -128Q436 -168 405 -193.5Q374 -219 325 -219Q303 -219 281 -213Q259 -207 241 -197L249 -166Q267 -176 284.5 -181Q302 -186 322 -186Q354 -186 373 -171Q392 -156 392 -129Q392 -111 377 -101Q362 -91 335 -91Q322 -91 310.5 -93.5Q299 -96 288 -101Z" glyph-name="Ccedilla" horiz-adv-x="714" unicode="&#199;" /><glyph d="M436 660Q313 660 224 555Q135 450 135 305Q135 186 201.5 113Q268 40 378 40Q450 40 506.5 77.5Q563 115 609 193L656 164Q607 77 535.5 32.5Q464 -12 374 -12Q241 -12 160 74.5Q79 161 79 300Q79 379 103.5 451.5Q128 524 175 581Q225 644 293 678Q361 712 436 712Q546 712 617 655.5Q688 599 708 498L656 478Q635 568 579.5 614Q524 660 436 660ZM439 700ZM379 10ZM346 787 438 926H496L565 787H518L464 886L392 787ZM440 700Z" glyph-name="Ccircumflex" horiz-adv-x="714" unicode="&#264;" /><glyph d="M414 856Q414 837 427.5 823.5Q441 810 460 810Q479 810 492.5 823.5Q506 837 506 856Q506 876 492.5 889.5Q479 903 460 903Q441 903 427.5 889Q414 875 414 856ZM440 700ZM436 660Q313 660 224 555Q135 450 135 305Q135 186 201.5 113Q268 40 378 40Q450 40 506.5 77.5Q563 115 609 193L656 164Q607 77 535.5 32.5Q464 -12 374 -12Q241 -12 160 74.5Q79 161 79 300Q79 379 103.5 451.5Q128 524 175 581Q225 644 293 678Q361 712 436 712Q546 712 617 655.5Q688 599 708 498L656 478Q635 568 579.5 614Q524 660 436 660ZM439 700ZM379 10Z" glyph-name="Cdotaccent" horiz-adv-x="714" unicode="&#266;" /><glyph d="M70 0 193 700H417Q556 700 641.5 614.5Q727 529 727 399Q727 228 612 114Q497 0 327 0ZM670 394Q670 506 598.5 577Q527 648 408 648H239L135 52H335Q476 52 573 152Q670 252 670 394ZM457 700Z" glyph-name="D" horiz-adv-x="768" unicode="D" /><glyph d="M70 0 193 700H417Q556 700 641.5 614.5Q727 529 727 399Q727 228 612 114Q497 0 327 0ZM670 394Q670 506 598.5 577Q527 648 408 648H239L135 52H335Q476 52 573 152Q670 252 670 394ZM457 700ZM495 787H437L369 926H415L470 827L542 926H588ZM458 700Z" glyph-name="Dcaron" horiz-adv-x="768" unicode="&#270;" /><glyph d="M30 328 39 373H152L209 700H433Q572 700 657.5 614.5Q743 529 743 399Q743 228 628 114Q513 0 343 0H86L144 328ZM686 394Q686 506 614.5 577Q543 648 424 648H255L207 373H447L438 328H199L151 52H351Q492 52 589 152Q686 252 686 394Z" glyph-name="Dcroat" horiz-adv-x="784" unicode="&#272;" /><glyph d="M-3 0 6 43 385 700H442L584 43L575 0ZM402 630 71 51H524Z" glyph-name="Delta" horiz-adv-x="662" unicode="&#8710;" /><glyph d="M70 0 193 700H661L653 649H239L193 386H577L568 335H184L134 52H558L548 0ZM429 700ZM502 0Z" glyph-name="E" horiz-adv-x="649" unicode="E" /><glyph d="M70 0 193 700H661L653 649H239L193 386H577L568 335H184L134 52H558L548 0ZM429 700ZM502 0ZM580 926H518L418 787H469ZM429 700Z" glyph-name="Eacute" horiz-adv-x="649" unicode="&#201;" /><glyph d="M70 0 193 700H661L653 649H239L193 386H577L568 335H184L134 52H558L548 0ZM429 700ZM502 0ZM444 823Q484 823 508 849.5Q532 876 538 926H578Q572 859 537 822Q502 785 442 785Q382 785 351 824Q320 863 326 926H365Q362 876 382.5 849.5Q403 823 444 823ZM429 700Z" glyph-name="Ebreve" horiz-adv-x="649" unicode="&#276;" /><glyph d="M70 0 193 700H661L653 649H239L193 386H577L568 335H184L134 52H558L548 0ZM429 700ZM502 0ZM466 787H408L340 926H386L441 827L513 926H559ZM429 700Z" glyph-name="Ecaron" horiz-adv-x="649" unicode="&#282;" /><glyph d="M335 787 427 926H485L554 787H507L453 886L381 787ZM429 700ZM70 0 193 700H661L653 649H239L193 386H577L568 335H184L134 52H558L548 0ZM429 700ZM502 0Z" glyph-name="Ecircumflex" horiz-adv-x="649" unicode="&#202;" /><glyph d="M70 0 193 700H661L653 649H239L193 386H577L568 335H184L134 52H558L548 0ZM429 700ZM502 0ZM338 856Q338 840 349.5 828.5Q361 817 378 817Q395 817 406.5 828.5Q418 840 418 856Q418 873 406.5 884.5Q395 896 378 896Q362 896 350 884.5Q338 873 338 856ZM478 856Q478 840 489.5 828.5Q501 817 517 817Q534 817 545.5 828.5Q557 840 557 856Q557 873 545.5 884.5Q534 896 517 896Q501 896 489.5 884.5Q478 873 478 856ZM429 700Z" glyph-name="Edieresis" horiz-adv-x="649" unicode="&#203;" /><glyph d="M403 856Q403 837 416.5 823.5Q430 810 449 810Q468 810 481.5 823.5Q495 837 495 856Q495 876 481.5 889.5Q468 903 449 903Q430 903 416.5 889Q403 875 403 856ZM429 700ZM70 0 193 700H661L653 649H239L193 386H577L568 335H184L134 52H558L548 0ZM429 700ZM502 0Z" glyph-name="Edotaccent" horiz-adv-x="649" unicode="&#278;" /><glyph d="M452 787 377 926H315L402 787ZM429 700ZM70 0 193 700H661L653 649H239L193 386H577L568 335H184L134 52H558L548 0ZM429 700ZM502 0Z" glyph-name="Egrave" horiz-adv-x="649" unicode="&#200;" /><glyph d="M70 0 193 700H661L653 649H239L193 386H577L568 335H184L134 52H558L548 0ZM429 700ZM502 0ZM561 835H315L323 877H569ZM429 700Z" glyph-name="Emacron" horiz-adv-x="649" unicode="&#274;" /><glyph d="M184 335 134 52H558L548 0H536Q476 -28 445.5 -61Q415 -94 415 -130Q415 -155 432 -169Q449 -183 479 -183Q487 -183 496 -182Q505 -181 515 -178L509 -212Q500 -216 489.5 -218Q479 -220 465 -220Q420 -220 394.5 -198Q369 -176 369 -139Q369 -99 398.5 -62.5Q428 -26 482 0H70L193 700H661L653 649H239L193 386H577L568 335Z" glyph-name="Eogonek" horiz-adv-x="649" unicode="&#280;" /><glyph d="M30 328 39 373H152L209 700H433Q572 700 657.5 614.5Q743 529 743 399Q743 228 628 114Q513 0 343 0H86L144 328ZM686 394Q686 506 614.5 577Q543 648 424 648H255L207 373H447L438 328H199L151 52H351Q492 52 589 152Q686 252 686 394Z" glyph-name="Eth" horiz-adv-x="784" unicode="&#208;" /><glyph d="M127 269H50L56 310H129Q131 332 133.5 351Q136 370 139 387H71L77 428H148Q181 559 255 635.5Q329 712 424 712Q516 712 568 658.5Q620 605 628 502L574 490Q567 577 530.5 619Q494 661 424 661Q351 661 293 598.5Q235 536 206 428H414L407 387H196Q193 370 190.5 351Q188 332 186 310H393L386 269H184Q184 267 184 264.5Q184 262 184 260Q184 153 226.5 95.5Q269 38 348 38Q402 38 446 77.5Q490 117 525 195L573 170Q532 79 474.5 33.5Q417 -12 343 -12Q240 -12 183.5 58Q127 128 127 253Q127 257 127 261Q127 265 127 269Z" glyph-name="Euro" horiz-adv-x="643" unicode="&#8364;" /><glyph d="M70 0 193 700H688L678 649H240L191 373H600L591 321H182L125 0Z" glyph-name="F" horiz-adv-x="649" unicode="F" /><glyph d="M425 296 434 347H711L650 0H601L622 122Q581 58 517.5 23Q454 -12 378 -12Q241 -12 160 71.5Q79 155 79 293Q79 475 184.5 593.5Q290 712 448 712Q558 712 632 658.5Q706 605 735 504L682 483Q655 571 595.5 615.5Q536 660 445 660Q315 660 225 556.5Q135 453 135 298Q135 180 203 110Q271 40 387 40Q483 40 554.5 100Q626 160 642 250L650 296ZM447 700ZM376 0Z" glyph-name="G" horiz-adv-x="766" unicode="G" /><glyph d="M425 296 434 347H711L650 0H601L622 122Q581 58 517.5 23Q454 -12 378 -12Q241 -12 160 71.5Q79 155 79 293Q79 475 184.5 593.5Q290 712 448 712Q558 712 632 658.5Q706 605 735 504L682 483Q655 571 595.5 615.5Q536 660 445 660Q315 660 225 556.5Q135 453 135 298Q135 180 203 110Q271 40 387 40Q483 40 554.5 100Q626 160 642 250L650 296ZM447 700ZM376 0ZM463 823Q503 823 527 849.5Q551 876 557 926H597Q591 859 556 822Q521 785 461 785Q401 785 370 824Q339 863 345 926H384Q381 876 401.5 849.5Q422 823 463 823ZM448 700Z" glyph-name="Gbreve" horiz-adv-x="766" unicode="&#286;" /><glyph d="M354 787 446 926H504L573 787H526L472 886L400 787ZM448 700ZM425 296 434 347H711L650 0H601L622 122Q581 58 517.5 23Q454 -12 378 -12Q241 -12 160 71.5Q79 155 79 293Q79 475 184.5 593.5Q290 712 448 712Q558 712 632 658.5Q706 605 735 504L682 483Q655 571 595.5 615.5Q536 660 445 660Q315 660 225 556.5Q135 453 135 298Q135 180 203 110Q271 40 387 40Q483 40 554.5 100Q626 160 642 250L650 296ZM447 700ZM376 0Z" glyph-name="Gcircumflex" horiz-adv-x="766" unicode="&#284;" /><glyph d="M422 856Q422 837 435.5 823.5Q449 810 468 810Q487 810 500.5 823.5Q514 837 514 856Q514 876 500.5 889.5Q487 903 468 903Q449 903 435.5 889Q422 875 422 856ZM448 700ZM425 296 434 347H711L650 0H601L622 122Q581 58 517.5 23Q454 -12 378 -12Q241 -12 160 71.5Q79 155 79 293Q79 475 184.5 593.5Q290 712 448 712Q558 712 632 658.5Q706 605 735 504L682 483Q655 571 595.5 615.5Q536 660 445 660Q315 660 225 556.5Q135 453 135 298Q135 180 203 110Q271 40 387 40Q483 40 554.5 100Q626 160 642 250L650 296ZM447 700ZM376 0Z" glyph-name="Gdotaccent" horiz-adv-x="766" unicode="&#288;" /><glyph d="M70 0 193 700H248L194 389H620L675 700H730L607 0H552L611 337H185L125 0ZM461 700Z" glyph-name="H" horiz-adv-x="763" unicode="H" /><glyph d="M75 516 84 562H177L201 700H256L232 562H659L683 700H738L714 562H804L795 516H706L615 0H560L619 337H193L133 0H78L169 516ZM224 516 202 389H628L650 516Z" glyph-name="Hbar" horiz-adv-x="778" unicode="&#294;" /><glyph d="M70 0 193 700H248L194 389H620L675 700H730L607 0H552L611 337H185L125 0ZM461 700ZM368 787 460 926H518L587 787H540L486 886L414 787ZM462 700Z" glyph-name="Hcircumflex" horiz-adv-x="763" unicode="&#292;" /><glyph d="M70 0 193 700H248L125 0ZM220 700ZM84 0Z" glyph-name="I" horiz-adv-x="281" unicode="I" /><glyph d="M4 0 13 51H132L237 649H117L126 700H425L416 649H292L187 51H312L303 0ZM274 700ZM140 0Z" glyph-name="I.alt" horiz-adv-x="391" /><glyph d="M70 0 193 700H248L125 0ZM220 700ZM84 0ZM715 193 803 700H749L661 197Q647 120 606.5 79.5Q566 39 503 39Q429 39 390.5 81.5Q352 124 356 200L302 192Q295 100 350.5 44Q406 -12 501 -12Q588 -12 642.5 40Q697 92 715 193ZM776 700Z" glyph-name="IJ" horiz-adv-x="829" unicode="&#306;" /><glyph d="M4 0 13 51H132L237 649H117L126 700H425L416 649H292L187 51H312L303 0ZM667 648 676 700H917L829 193Q811 92 756.5 40Q702 -12 615 -12Q520 -12 464.5 44Q409 100 416 192L470 200Q466 124 504.5 81.5Q543 39 617 39Q680 39 720.5 79Q761 119 775 197L854 648Z" glyph-name="IJ.alt" horiz-adv-x="943" /><glyph d="M70 0 193 700H248L125 0ZM220 700ZM84 0ZM371 926H309L209 787H260ZM220 700Z" glyph-name="Iacute" horiz-adv-x="281" unicode="&#205;" /><glyph d="M4 0 13 51H132L237 649H117L126 700H425L416 649H292L187 51H312L303 0ZM274 700ZM140 0ZM423 926H361L261 787H312ZM272 700Z" glyph-name="Iacute.alt" horiz-adv-x="391" /><glyph d="M70 0 193 700H248L125 0ZM220 700ZM84 0ZM127 787 219 926H277L346 787H299L245 886L173 787ZM221 700Z" glyph-name="Icircumflex" horiz-adv-x="281" unicode="&#206;" /><glyph d="M4 0 13 51H132L237 649H117L126 700H425L416 649H292L187 51H312L303 0ZM274 700ZM140 0ZM178 787 270 926H328L397 787H350L296 886L224 787ZM272 700Z" glyph-name="Icircumflex.alt" horiz-adv-x="391" /><glyph d="M70 0 193 700H248L125 0ZM220 700ZM84 0ZM130 856Q130 840 141.5 828.5Q153 817 170 817Q187 817 198.5 828.5Q210 840 210 856Q210 873 198.5 884.5Q187 896 170 896Q154 896 142 884.5Q130 873 130 856ZM270 856Q270 840 281.5 828.5Q293 817 309 817Q326 817 337.5 828.5Q349 840 349 856Q349 873 337.5 884.5Q326 896 309 896Q293 896 281.5 884.5Q270 873 270 856ZM221 700Z" glyph-name="Idieresis" horiz-adv-x="281" unicode="&#207;" /><glyph d="M4 0 13 51H132L237 649H117L126 700H425L416 649H292L187 51H312L303 0ZM274 700ZM140 0ZM182 856Q182 840 193.5 828.5Q205 817 222 817Q239 817 250.5 828.5Q262 840 262 856Q262 873 250.5 884.5Q239 896 222 896Q206 896 194 884.5Q182 873 182 856ZM322 856Q322 840 333.5 828.5Q345 817 361 817Q378 817 389.5 828.5Q401 840 401 856Q401 873 389.5 884.5Q378 896 361 896Q345 896 333.5 884.5Q322 873 322 856ZM273 700Z" glyph-name="Idieresis.alt" horiz-adv-x="391" /><glyph d="M70 0 193 700H248L125 0ZM220 700ZM84 0ZM195 856Q195 837 208.5 823.5Q222 810 241 810Q260 810 273.5 823.5Q287 837 287 856Q287 876 273.5 889.5Q260 903 241 903Q222 903 208.5 889Q195 875 195 856ZM221 700Z" glyph-name="Idotaccent" horiz-adv-x="281" unicode="&#304;" /><glyph d="M246 856Q246 837 259.5 823.5Q273 810 292 810Q311 810 324.5 823.5Q338 837 338 856Q338 876 324.5 889.5Q311 903 292 903Q273 903 259.5 889Q246 875 246 856ZM272 700ZM4 0 13 51H132L237 649H117L126 700H425L416 649H292L187 51H312L303 0ZM274 700ZM140 0Z" glyph-name="Idotaccent.alt" horiz-adv-x="391" /><glyph d="M70 0 193 700H248L125 0ZM220 700ZM84 0ZM243 787 168 926H106L193 787ZM220 700Z" glyph-name="Igrave" horiz-adv-x="281" unicode="&#204;" /><glyph d="M300 787 225 926H163L250 787ZM277 700ZM4 0 13 51H132L237 649H117L126 700H425L416 649H292L187 51H312L303 0ZM274 700ZM140 0Z" glyph-name="Igrave.alt" horiz-adv-x="391" /><glyph d="M70 0 193 700H248L125 0ZM220 700ZM84 0ZM352 835H106L114 877H360ZM220 700Z" glyph-name="Imacron" horiz-adv-x="281" unicode="&#298;" /><glyph d="M4 0 13 51H132L237 649H117L126 700H425L416 649H292L187 51H312L303 0ZM274 700ZM140 0ZM415 835H169L177 877H423ZM283 700Z" glyph-name="Imacron.alt" horiz-adv-x="391" /><glyph d="M71 4 193 700H249L126 0H114Q54 -28 23.5 -61Q-7 -94 -7 -130Q-7 -155 10 -169Q27 -183 57 -183Q65 -183 74 -182Q83 -181 93 -178L87 -212Q78 -216 67.5 -218Q57 -220 43 -220Q-3 -220 -28.5 -198Q-54 -176 -54 -139Q-54 -98 -21 -59.5Q12 -21 71 4Z" glyph-name="Iogonek" horiz-adv-x="282" unicode="&#302;" /><glyph d="M4 0 13 51H132L237 649H117L126 700H425L416 649H292L187 51H312L303 0H290Q231 -28 200.5 -61Q170 -94 170 -130Q170 -155 186.5 -169Q203 -183 233 -183Q242 -183 251 -182Q260 -181 269 -178L263 -212Q255 -216 244.5 -218Q234 -220 220 -220Q174 -220 148.5 -198Q123 -176 123 -139Q123 -99 152.5 -62.5Q182 -26 237 0Z" glyph-name="Iogonek.alt" horiz-adv-x="391" /><glyph d="M70 0 193 700H248L125 0ZM220 700ZM84 0ZM234 835Q258 817 271.5 811.5Q285 806 299 806Q329 806 348 828.5Q367 851 371 892H332Q330 871 321 860Q312 849 296 849Q286 849 275 854Q264 859 242 875Q216 895 201 901Q186 907 171 907Q138 907 117.5 884Q97 861 90 817H129Q133 840 144 852Q155 864 171 864Q185 864 198 858.5Q211 853 234 835ZM226 700Z" glyph-name="Itilde" horiz-adv-x="281" unicode="&#296;" /><glyph d="M4 0 13 51H132L237 649H117L126 700H425L416 649H292L187 51H312L303 0ZM274 700ZM140 0ZM293 835Q317 817 330.5 811.5Q344 806 358 806Q388 806 407 828.5Q426 851 430 892H391Q389 871 380 860Q371 849 355 849Q345 849 334 854Q323 859 301 875Q275 895 260 901Q245 907 230 907Q197 907 176.5 884Q156 861 149 817H188Q192 840 203 852Q214 864 230 864Q244 864 257 858.5Q270 853 293 835ZM285 700Z" glyph-name="Itilde.alt" horiz-adv-x="391" /><glyph d="M434 193 522 700H468L380 197Q366 120 325.5 79.5Q285 39 222 39Q148 39 109.5 81.5Q71 124 75 200L21 192Q14 100 69.5 44Q125 -12 220 -12Q307 -12 361.5 40Q416 92 434 193ZM495 700Z" glyph-name="J" horiz-adv-x="548" unicode="J" /><glyph d="M276 648 285 700H526L438 193Q420 92 365.5 40Q311 -12 224 -12Q129 -12 73.5 44Q18 100 25 192L79 200Q75 124 113.5 81.5Q152 39 226 39Q289 39 329.5 79Q370 119 384 197L463 648ZM354 700Z" glyph-name="J.alt" horiz-adv-x="552" /><glyph d="M434 193 522 700H468L380 197Q366 120 325.5 79.5Q285 39 222 39Q148 39 109.5 81.5Q71 124 75 200L21 192Q14 100 69.5 44Q125 -12 220 -12Q307 -12 361.5 40Q416 92 434 193ZM495 700ZM401 787 493 926H551L620 787H573L519 886L447 787ZM495 700Z" glyph-name="Jcircumflex" horiz-adv-x="548" unicode="&#308;" /><glyph d="M307 787 399 926H457L526 787H479L425 886L353 787ZM276 648 285 700H526L438 193Q420 92 365.5 40Q311 -12 224 -12Q129 -12 73.5 44Q18 100 25 192L79 200Q75 124 113.5 81.5Q152 39 226 39Q289 39 329.5 79Q370 119 384 197L463 648Z" glyph-name="Jcircumflex.alt" horiz-adv-x="552" /><glyph d="M366 396 591 0H527L323 358L163 212L125 0H70L194 700H249L176 288L624 700H697ZM325 0Z" glyph-name="K" horiz-adv-x="650" unicode="K" /><glyph d="M70 0 193 700H248L135 52H522L513 0ZM220 700ZM308 700ZM405 350ZM295 0Z" glyph-name="L" horiz-adv-x="578" unicode="L" /><glyph d="M371 926H309L209 787H260ZM220 700ZM70 0 193 700H248L135 52H522L513 0ZM220 700ZM308 700ZM405 350ZM295 0Z" glyph-name="Lacute" horiz-adv-x="578" unicode="&#313;" /><glyph d="M426 730H369L319 592H362ZM308 700ZM70 0 193 700H248L135 52H522L513 0ZM220 700ZM308 700ZM405 350ZM295 0Z" glyph-name="Lcaron" horiz-adv-x="578" unicode="&#317;" /><glyph d="M70 0 193 700H248L135 52H522L513 0ZM220 700ZM308 700ZM405 350ZM295 0ZM404 346Q404 328 416.5 315Q429 302 447 302Q465 302 478 315Q491 328 491 346Q491 364 478 376.5Q465 389 447 389Q429 389 416.5 376.5Q404 364 404 346ZM411 356Z" glyph-name="Ldot" horiz-adv-x="580" unicode="&#319;" /><glyph d="M70 0 193 700H248L135 52H522L513 0ZM220 700ZM308 700ZM405 350ZM295 0ZM648 0 771 700H826L713 52H1100L1091 0ZM798 700ZM886 700ZM983 350ZM873 0ZM404 346Q404 328 416.5 315Q429 302 447 302Q465 302 478 315Q491 328 491 346Q491 364 478 376.5Q465 389 447 389Q429 389 416.5 376.5Q404 364 404 346ZM411 356Z" glyph-name="Lgeminada" horiz-adv-x="1155" /><glyph d="M60 281 38 320 150 383 206 700H261L212 417L330 483L351 442L202 359L148 52H535L526 0H83L140 325Z" glyph-name="Lslash" horiz-adv-x="590" unicode="&#321;" /><glyph d="M70 0 193 700H267L417 82L780 700H861L737 0H685L796 630L422 -3H384L231 629L120 0Z" glyph-name="M" horiz-adv-x="894" unicode="M" /><glyph d="M70 0 193 700H249L570 90L677 700H730L606 0H559L232 623L122 0ZM461 700ZM345 0Z" glyph-name="N" horiz-adv-x="762" unicode="N" /><glyph d="M612 926H550L450 787H501ZM461 700ZM70 0 193 700H249L570 90L677 700H730L606 0H559L232 623L122 0ZM461 700ZM345 0Z" glyph-name="Nacute" horiz-adv-x="762" unicode="&#323;" /><glyph d="M70 0 193 700H249L570 90L677 700H730L606 0H559L232 623L122 0ZM461 700ZM345 0ZM499 787H441L373 926H419L474 827L546 926H592ZM462 700Z" glyph-name="Ncaron" horiz-adv-x="762" unicode="&#327;" /><glyph d="M469 835Q493 817 506.5 811.5Q520 806 534 806Q564 806 583 828.5Q602 851 606 892H567Q565 871 556 860Q547 849 531 849Q521 849 510 854Q499 859 477 875Q451 895 436 901Q421 907 406 907Q373 907 352.5 884Q332 861 325 817H364Q368 840 379 852Q390 864 406 864Q420 864 433 858.5Q446 853 469 835ZM461 700ZM70 0 193 700H249L570 90L677 700H730L606 0H559L232 623L122 0ZM461 700ZM345 0Z" glyph-name="Ntilde" horiz-adv-x="762" unicode="&#209;" /><glyph d="M751 394Q751 532 666.5 622Q582 712 448 712Q373 712 304 679.5Q235 647 182 586Q132 529 105.5 457Q79 385 79 307Q79 170 163 79Q247 -12 380 -12Q457 -12 526 20.5Q595 53 648 113Q698 170 724.5 242.5Q751 315 751 394ZM608 150Q563 98 504.5 69Q446 40 383 40Q274 40 204.5 117.5Q135 195 135 312Q135 377 157.5 439Q180 501 222 550Q267 602 325.5 631Q384 660 446 660Q555 660 624.5 583Q694 506 694 389Q694 323 671.5 261Q649 199 608 150ZM450 700Z" glyph-name="O" horiz-adv-x="792" unicode="O" /><glyph d="M181 586Q233 646 301.5 679Q370 712 445 712Q544 712 618 659Q692 606 723 515L756 700H1224L1216 649H802L756 386H1140L1131 335H747L697 52H1121L1111 0H633L657 136Q605 65 531.5 26.5Q458 -12 377 -12Q245 -12 162 79Q79 170 79 307Q79 385 105.5 457Q132 529 181 586ZM135 312Q135 195 204.5 117.5Q274 40 383 40Q446 40 504.5 69Q563 98 608 150Q649 199 671.5 261Q694 323 694 389Q694 506 624.5 583Q555 660 446 660Q384 660 325.5 631Q267 602 222 550Q180 501 157.5 439Q135 377 135 312Z" glyph-name="OE" horiz-adv-x="1211" unicode="&#338;" /><glyph d="M601 926H539L439 787H490ZM450 700ZM751 394Q751 532 666.5 622Q582 712 448 712Q373 712 304 679.5Q235 647 182 586Q132 529 105.5 457Q79 385 79 307Q79 170 163 79Q247 -12 380 -12Q457 -12 526 20.5Q595 53 648 113Q698 170 724.5 242.5Q751 315 751 394ZM608 150Q563 98 504.5 69Q446 40 383 40Q274 40 204.5 117.5Q135 195 135 312Q135 377 157.5 439Q180 501 222 550Q267 602 325.5 631Q384 660 446 660Q555 660 624.5 583Q694 506 694 389Q694 323 671.5 261Q649 199 608 150ZM450 700Z" glyph-name="Oacute" horiz-adv-x="792" unicode="&#211;" /><glyph d="M751 394Q751 532 666.5 622Q582 712 448 712Q373 712 304 679.5Q235 647 182 586Q132 529 105.5 457Q79 385 79 307Q79 170 163 79Q247 -12 380 -12Q457 -12 526 20.5Q595 53 648 113Q698 170 724.5 242.5Q751 315 751 394ZM608 150Q563 98 504.5 69Q446 40 383 40Q274 40 204.5 117.5Q135 195 135 312Q135 377 157.5 439Q180 501 222 550Q267 602 325.5 631Q384 660 446 660Q555 660 624.5 583Q694 506 694 389Q694 323 671.5 261Q649 199 608 150ZM450 700ZM466 823Q506 823 530 849.5Q554 876 560 926H600Q594 859 559 822Q524 785 464 785Q404 785 373 824Q342 863 348 926H387Q384 876 404.5 849.5Q425 823 466 823ZM451 700Z" glyph-name="Obreve" horiz-adv-x="792" unicode="&#334;" /><glyph d="M357 787 449 926H507L576 787H529L475 886L403 787ZM451 700ZM751 394Q751 532 666.5 622Q582 712 448 712Q373 712 304 679.5Q235 647 182 586Q132 529 105.5 457Q79 385 79 307Q79 170 163 79Q247 -12 380 -12Q457 -12 526 20.5Q595 53 648 113Q698 170 724.5 242.5Q751 315 751 394ZM608 150Q563 98 504.5 69Q446 40 383 40Q274 40 204.5 117.5Q135 195 135 312Q135 377 157.5 439Q180 501 222 550Q267 602 325.5 631Q384 660 446 660Q555 660 624.5 583Q694 506 694 389Q694 323 671.5 261Q649 199 608 150ZM450 700Z" glyph-name="Ocircumflex" horiz-adv-x="792" unicode="&#212;" /><glyph d="M751 394Q751 532 666.5 622Q582 712 448 712Q373 712 304 679.5Q235 647 182 586Q132 529 105.5 457Q79 385 79 307Q79 170 163 79Q247 -12 380 -12Q457 -12 526 20.5Q595 53 648 113Q698 170 724.5 242.5Q751 315 751 394ZM608 150Q563 98 504.5 69Q446 40 383 40Q274 40 204.5 117.5Q135 195 135 312Q135 377 157.5 439Q180 501 222 550Q267 602 325.5 631Q384 660 446 660Q555 660 624.5 583Q694 506 694 389Q694 323 671.5 261Q649 199 608 150ZM450 700ZM360 856Q360 840 371.5 828.5Q383 817 400 817Q417 817 428.5 828.5Q440 840 440 856Q440 873 428.5 884.5Q417 896 400 896Q384 896 372 884.5Q360 873 360 856ZM500 856Q500 840 511.5 828.5Q523 817 539 817Q556 817 567.5 828.5Q579 840 579 856Q579 873 567.5 884.5Q556 896 539 896Q523 896 511.5 884.5Q500 873 500 856ZM451 700Z" glyph-name="Odieresis" horiz-adv-x="792" unicode="&#214;" /><glyph d="M474 787 399 926H337L424 787ZM451 700ZM751 394Q751 532 666.5 622Q582 712 448 712Q373 712 304 679.5Q235 647 182 586Q132 529 105.5 457Q79 385 79 307Q79 170 163 79Q247 -12 380 -12Q457 -12 526 20.5Q595 53 648 113Q698 170 724.5 242.5Q751 315 751 394ZM608 150Q563 98 504.5 69Q446 40 383 40Q274 40 204.5 117.5Q135 195 135 312Q135 377 157.5 439Q180 501 222 550Q267 602 325.5 631Q384 660 446 660Q555 660 624.5 583Q694 506 694 389Q694 323 671.5 261Q649 199 608 150ZM450 700Z" glyph-name="Ograve" horiz-adv-x="792" unicode="&#210;" /><glyph d="M534 926H477L377 787H422ZM651 926H590L475 787H522ZM451 700ZM751 394Q751 532 666.5 622Q582 712 448 712Q373 712 304 679.5Q235 647 182 586Q132 529 105.5 457Q79 385 79 307Q79 170 163 79Q247 -12 380 -12Q457 -12 526 20.5Q595 53 648 113Q698 170 724.5 242.5Q751 315 751 394ZM608 150Q563 98 504.5 69Q446 40 383 40Q274 40 204.5 117.5Q135 195 135 312Q135 377 157.5 439Q180 501 222 550Q267 602 325.5 631Q384 660 446 660Q555 660 624.5 583Q694 506 694 389Q694 323 671.5 261Q649 199 608 150ZM450 700Z" glyph-name="Ohungarumlaut" horiz-adv-x="792" unicode="&#336;" /><glyph d="M751 394Q751 532 666.5 622Q582 712 448 712Q373 712 304 679.5Q235 647 182 586Q132 529 105.5 457Q79 385 79 307Q79 170 163 79Q247 -12 380 -12Q457 -12 526 20.5Q595 53 648 113Q698 170 724.5 242.5Q751 315 751 394ZM608 150Q563 98 504.5 69Q446 40 383 40Q274 40 204.5 117.5Q135 195 135 312Q135 377 157.5 439Q180 501 222 550Q267 602 325.5 631Q384 660 446 660Q555 660 624.5 583Q694 506 694 389Q694 323 671.5 261Q649 199 608 150ZM450 700ZM582 835H336L344 877H590ZM450 700Z" glyph-name="Omacron" horiz-adv-x="792" unicode="&#332;" /><glyph d="M32 0 41 51H227Q159 99 124 167.5Q89 236 89 321Q89 486 185 599Q281 712 426 712Q554 712 630 632.5Q706 553 706 423Q706 297 647.5 201.5Q589 106 479 51H645L636 0H398L407 53Q522 102 586 196.5Q650 291 650 417Q650 528 589.5 594Q529 660 424 660Q304 660 224.5 560.5Q145 461 145 317Q145 235 178.5 170Q212 105 277 59L266 0Z" glyph-name="Omega" horiz-adv-x="760" unicode="&#8486;" /><glyph d="M220 31 133 -92H79L185 58Q134 101 106.5 166.5Q79 232 79 307Q79 385 105.5 457Q132 529 182 586Q235 647 304 679.5Q373 712 448 712Q495 712 537 700Q579 688 615 665L697 782H751L649 639Q698 595 724.5 531Q751 467 751 394Q751 315 724.5 242.5Q698 170 648 113Q595 53 526 20.5Q457 -12 380 -12Q336 -12 295.5 -1Q255 10 220 31ZM222 550Q180 501 157.5 439Q135 377 135 312Q135 249 157 194.5Q179 140 219 103L584 619Q554 639 519.5 649.5Q485 660 446 660Q384 660 325.5 631Q267 602 222 550ZM383 40Q446 40 504.5 69Q563 98 608 150Q649 199 671.5 261Q694 323 694 389Q694 450 673.5 503Q653 556 615 593L250 78Q279 59 312.5 49.5Q346 40 383 40Z" glyph-name="Oslash" horiz-adv-x="792" unicode="&#216;" /><glyph d="M751 394Q751 532 666.5 622Q582 712 448 712Q373 712 304 679.5Q235 647 182 586Q132 529 105.5 457Q79 385 79 307Q79 170 163 79Q247 -12 380 -12Q457 -12 526 20.5Q595 53 648 113Q698 170 724.5 242.5Q751 315 751 394ZM608 150Q563 98 504.5 69Q446 40 383 40Q274 40 204.5 117.5Q135 195 135 312Q135 377 157.5 439Q180 501 222 550Q267 602 325.5 631Q384 660 446 660Q555 660 624.5 583Q694 506 694 389Q694 323 671.5 261Q649 199 608 150ZM450 700ZM458 835Q482 817 495.5 811.5Q509 806 523 806Q553 806 572 828.5Q591 851 595 892H556Q554 871 545 860Q536 849 520 849Q510 849 499 854Q488 859 466 875Q440 895 425 901Q410 907 395 907Q362 907 341.5 884Q321 861 314 817H353Q357 840 368 852Q379 864 395 864Q409 864 422 858.5Q435 853 458 835ZM450 700Z" glyph-name="Otilde" horiz-adv-x="792" unicode="&#213;" /><glyph d="M70 0 193 700H433Q529 700 589 642.5Q649 585 649 496Q649 387 570.5 313Q492 239 378 239H167L125 0ZM592 493Q592 562 546.5 605.5Q501 649 425 649H239L176 290H386Q472 290 532 349.5Q592 409 592 493Z" glyph-name="P" horiz-adv-x="652" unicode="P" /><glyph d="M182 586Q235 647 304 679.5Q373 712 448 712Q582 712 666.5 622Q751 532 751 394Q751 296 710 208.5Q669 121 596 64L693 -47L654 -82L552 34Q512 11 468.5 -0.5Q425 -12 380 -12Q247 -12 163 79Q79 170 79 307Q79 385 105.5 457Q132 529 182 586ZM135 312Q135 195 204.5 117.5Q274 40 383 40Q418 40 451.5 49Q485 58 516 75L394 213L434 247L560 104Q623 153 658.5 229Q694 305 694 389Q694 506 624.5 583Q555 660 446 660Q384 660 325.5 631Q267 602 222 550Q180 501 157.5 439Q135 377 135 312Z" glyph-name="Q" horiz-adv-x="795" unicode="Q" /><glyph d="M70 0 193 700H449Q547 700 607.5 645.5Q668 591 668 507Q668 421 607.5 355Q547 289 452 269L580 0H518L393 263H172L125 0ZM611 504Q611 570 565.5 610Q520 650 441 650H240L180 314H402Q487 314 549 371Q611 428 611 504ZM408 700ZM311 0Z" glyph-name="R" horiz-adv-x="689" unicode="R" /><glyph d="M70 0 193 700H449Q547 700 607.5 645.5Q668 591 668 507Q668 421 607.5 355Q547 289 452 269L580 0H518L393 263H172L125 0ZM611 504Q611 570 565.5 610Q520 650 441 650H240L180 314H402Q487 314 549 371Q611 428 611 504ZM408 700ZM311 0ZM559 926H497L397 787H448ZM408 700Z" glyph-name="Racute" horiz-adv-x="689" unicode="&#340;" /><glyph d="M70 0 193 700H449Q547 700 607.5 645.5Q668 591 668 507Q668 421 607.5 355Q547 289 452 269L580 0H518L393 263H172L125 0ZM611 504Q611 570 565.5 610Q520 650 441 650H240L180 314H402Q487 314 549 371Q611 428 611 504ZM408 700ZM311 0ZM445 787H387L319 926H365L420 827L492 926H538ZM408 700Z" glyph-name="Rcaron" horiz-adv-x="689" unicode="&#344;" /><glyph d="M546 196Q546 103 482 45.5Q418 -12 316 -12Q228 -12 150 26Q72 64 30 120L74 159Q115 105 179.5 71.5Q244 38 315 38Q397 38 443.5 81.5Q490 125 490 189Q490 238 462 269.5Q434 301 372 322L265 358Q194 382 157 425Q120 468 120 528Q120 606 181.5 659Q243 712 345 712Q424 712 489.5 681.5Q555 651 599 596L556 557Q516 608 461.5 635Q407 662 343 662Q265 662 220 624.5Q175 587 175 532Q175 487 202.5 456.5Q230 426 289 406L400 369Q473 345 509.5 302Q546 259 546 196ZM356 700ZM303 10ZM303 0Z" glyph-name="S" horiz-adv-x="613" unicode="S" /><glyph d="M546 196Q546 103 482 45.5Q418 -12 316 -12Q228 -12 150 26Q72 64 30 120L74 159Q115 105 179.5 71.5Q244 38 315 38Q397 38 443.5 81.5Q490 125 490 189Q490 238 462 269.5Q434 301 372 322L265 358Q194 382 157 425Q120 468 120 528Q120 606 181.5 659Q243 712 345 712Q424 712 489.5 681.5Q555 651 599 596L556 557Q516 608 461.5 635Q407 662 343 662Q265 662 220 624.5Q175 587 175 532Q175 487 202.5 456.5Q230 426 289 406L400 369Q473 345 509.5 302Q546 259 546 196ZM356 700ZM303 10ZM303 0ZM507 926H445L345 787H396ZM356 700Z" glyph-name="Sacute" horiz-adv-x="613" unicode="&#346;" /><glyph d="M546 196Q546 103 482 45.5Q418 -12 316 -12Q228 -12 150 26Q72 64 30 120L74 159Q115 105 179.5 71.5Q244 38 315 38Q397 38 443.5 81.5Q490 125 490 189Q490 238 462 269.5Q434 301 372 322L265 358Q194 382 157 425Q120 468 120 528Q120 606 181.5 659Q243 712 345 712Q424 712 489.5 681.5Q555 651 599 596L556 557Q516 608 461.5 635Q407 662 343 662Q265 662 220 624.5Q175 587 175 532Q175 487 202.5 456.5Q230 426 289 406L400 369Q473 345 509.5 302Q546 259 546 196ZM356 700ZM303 10ZM303 0ZM394 787H336L268 926H314L369 827L441 926H487ZM357 700Z" glyph-name="Scaron" horiz-adv-x="613" unicode="&#352;" /><glyph d="M213 -101 201 -80 269 -9Q195 0 130 36.5Q65 73 30 120L74 159Q115 105 179.5 71.5Q244 38 315 38Q397 38 443.5 81.5Q490 125 490 189Q490 238 462 269.5Q434 301 372 322L265 358Q193 382 156.5 425Q120 468 120 528Q120 606 181.5 659Q243 712 345 712Q424 712 489.5 681.5Q555 651 599 596L556 557Q516 608 461.5 635Q407 662 343 662Q265 662 220 624.5Q175 587 175 532Q175 487 202.5 456.5Q230 426 289 406L400 369Q473 345 509.5 302Q546 259 546 196Q546 103 482 45.5Q418 -12 316 -12Q314 -12 311.5 -12Q309 -12 307 -12L255 -65Q260 -64 265.5 -63.5Q271 -63 281 -63Q318 -63 339.5 -80.5Q361 -98 361 -128Q361 -168 330 -193.5Q299 -219 250 -219Q228 -219 206 -213Q184 -207 166 -197L174 -166Q192 -176 209.5 -181Q227 -186 247 -186Q279 -186 298 -171Q317 -156 317 -129Q317 -111 302 -101Q287 -91 260 -91Q247 -91 235.5 -93.5Q224 -96 213 -101Z" glyph-name="Scedilla" horiz-adv-x="613" unicode="&#350;" /><glyph d="M546 196Q546 103 482 45.5Q418 -12 316 -12Q228 -12 150 26Q72 64 30 120L74 159Q115 105 179.5 71.5Q244 38 315 38Q397 38 443.5 81.5Q490 125 490 189Q490 238 462 269.5Q434 301 372 322L265 358Q194 382 157 425Q120 468 120 528Q120 606 181.5 659Q243 712 345 712Q424 712 489.5 681.5Q555 651 599 596L556 557Q516 608 461.5 635Q407 662 343 662Q265 662 220 624.5Q175 587 175 532Q175 487 202.5 456.5Q230 426 289 406L400 369Q473 345 509.5 302Q546 259 546 196ZM356 700ZM303 10ZM303 0ZM263 787 355 926H413L482 787H435L381 886L309 787ZM357 700Z" glyph-name="Scircumflex" horiz-adv-x="613" unicode="&#348;" /><glyph d="M96 648 105 700H644L635 648H392L279 0H224L337 648ZM373 700ZM254 10ZM251 0Z" glyph-name="T" horiz-adv-x="588" unicode="T" /><glyph d="M101 338 110 383H323L369 648H128L137 700H676L667 648H424L378 383H591L582 338H370L311 0H256L315 338Z" glyph-name="Tbar" horiz-adv-x="648" unicode="&#358;" /><glyph d="M96 648 105 700H644L635 648H392L279 0H224L337 648ZM373 700ZM254 10ZM251 0ZM411 787H353L285 926H331L386 827L458 926H504ZM374 700Z" glyph-name="Tcaron" horiz-adv-x="588" unicode="&#356;" /><glyph d="M70 0 193 700H249L228 581H420Q514 581 571 524Q628 467 628 377Q628 268 548 194Q468 120 355 120H146L125 0ZM571 374Q571 443 527.5 486.5Q484 530 411 530H219L155 171H365Q451 171 511 230.5Q571 290 571 374Z" glyph-name="Thorn" horiz-adv-x="665" unicode="&#222;" /><glyph d="M666 700H721L641 245Q620 125 543 56.5Q466 -12 355 -12Q224 -12 155.5 74Q87 160 110 292L182 700H238L165 286Q146 177 199.5 108.5Q253 40 358 40Q446 40 508 96Q570 152 587 249ZM448 700ZM412 0Z" glyph-name="U" horiz-adv-x="745" unicode="U" /><glyph d="M666 700H721L641 245Q620 125 543 56.5Q466 -12 355 -12Q224 -12 155.5 74Q87 160 110 292L182 700H238L165 286Q146 177 199.5 108.5Q253 40 358 40Q446 40 508 96Q570 152 587 249ZM448 700ZM412 0ZM599 926H537L437 787H488ZM448 700Z" glyph-name="Uacute" horiz-adv-x="745" unicode="&#218;" /><glyph d="M666 700H721L641 245Q620 125 543 56.5Q466 -12 355 -12Q224 -12 155.5 74Q87 160 110 292L182 700H238L165 286Q146 177 199.5 108.5Q253 40 358 40Q446 40 508 96Q570 152 587 249ZM448 700ZM412 0ZM464 823Q504 823 528 849.5Q552 876 558 926H598Q592 859 557 822Q522 785 462 785Q402 785 371 824Q340 863 346 926H385Q382 876 402.5 849.5Q423 823 464 823ZM449 700Z" glyph-name="Ubreve" horiz-adv-x="745" unicode="&#364;" /><glyph d="M355 787 447 926H505L574 787H527L473 886L401 787ZM449 700ZM666 700H721L641 245Q620 125 543 56.5Q466 -12 355 -12Q224 -12 155.5 74Q87 160 110 292L182 700H238L165 286Q146 177 199.5 108.5Q253 40 358 40Q446 40 508 96Q570 152 587 249ZM448 700ZM412 0Z" glyph-name="Ucircumflex" horiz-adv-x="745" unicode="&#219;" /><glyph d="M666 700H721L641 245Q620 125 543 56.5Q466 -12 355 -12Q224 -12 155.5 74Q87 160 110 292L182 700H238L165 286Q146 177 199.5 108.5Q253 40 358 40Q446 40 508 96Q570 152 587 249ZM448 700ZM412 0ZM358 856Q358 840 369.5 828.5Q381 817 398 817Q415 817 426.5 828.5Q438 840 438 856Q438 873 426.5 884.5Q415 896 398 896Q382 896 370 884.5Q358 873 358 856ZM498 856Q498 840 509.5 828.5Q521 817 537 817Q554 817 565.5 828.5Q577 840 577 856Q577 873 565.5 884.5Q554 896 537 896Q521 896 509.5 884.5Q498 873 498 856ZM449 700Z" glyph-name="Udieresis" horiz-adv-x="745" unicode="&#220;" /><glyph d="M472 787 397 926H335L422 787ZM449 700ZM666 700H721L641 245Q620 125 543 56.5Q466 -12 355 -12Q224 -12 155.5 74Q87 160 110 292L182 700H238L165 286Q146 177 199.5 108.5Q253 40 358 40Q446 40 508 96Q570 152 587 249ZM448 700ZM412 0Z" glyph-name="Ugrave" horiz-adv-x="745" unicode="&#217;" /><glyph d="M532 926H475L375 787H420ZM649 926H588L473 787H520ZM449 700ZM666 700H721L641 245Q620 125 543 56.5Q466 -12 355 -12Q224 -12 155.5 74Q87 160 110 292L182 700H238L165 286Q146 177 199.5 108.5Q253 40 358 40Q446 40 508 96Q570 152 587 249ZM448 700ZM412 0Z" glyph-name="Uhungarumlaut" horiz-adv-x="745" unicode="&#368;" /><glyph d="M666 700H721L641 245Q620 125 543 56.5Q466 -12 355 -12Q224 -12 155.5 74Q87 160 110 292L182 700H238L165 286Q146 177 199.5 108.5Q253 40 358 40Q446 40 508 96Q570 152 587 249ZM448 700ZM412 0ZM580 835H334L342 877H588ZM448 700Z" glyph-name="Umacron" horiz-adv-x="745" unicode="&#362;" /><glyph d="M666 700H721L641 245Q630 182 604 134.5Q578 87 534 49Q515 33 482 10.5Q449 -12 439 -20Q410 -42 397.5 -65Q385 -88 385 -117Q385 -149 405 -166Q425 -183 461 -183Q469 -183 478.5 -181.5Q488 -180 498 -178L492 -212Q481 -216 470 -218Q459 -220 447 -220Q396 -220 367.5 -195Q339 -170 339 -127Q339 -91 357.5 -61Q376 -31 414 -5Q396 -9 383 -10.5Q370 -12 355 -12Q224 -12 155.5 74Q87 160 110 292L182 700H238L165 286Q146 177 199.5 108.5Q253 40 358 40Q446 40 508 95.5Q570 151 587 249Z" glyph-name="Uogonek" horiz-adv-x="745" unicode="&#370;" /><glyph d="M570 861Q570 904 540 934Q510 964 467 964Q424 964 394.5 934Q365 904 365 861Q365 819 394.5 789Q424 759 467 759Q510 759 540 789Q570 819 570 861ZM402 861Q402 889 421 908.5Q440 928 467 928Q494 928 513.5 908Q533 888 533 861Q533 834 513.5 815Q494 796 467 796Q440 796 421 815Q402 834 402 861ZM448 700ZM666 700H721L641 245Q620 125 543 56.5Q466 -12 355 -12Q224 -12 155.5 74Q87 160 110 292L182 700H238L165 286Q146 177 199.5 108.5Q253 40 358 40Q446 40 508 96Q570 152 587 249ZM448 700ZM412 0Z" glyph-name="Uring" horiz-adv-x="745" unicode="&#366;" /><glyph d="M666 700H721L641 245Q620 125 543 56.5Q466 -12 355 -12Q224 -12 155.5 74Q87 160 110 292L182 700H238L165 286Q146 177 199.5 108.5Q253 40 358 40Q446 40 508 96Q570 152 587 249ZM448 700ZM412 0ZM456 835Q480 817 493.5 811.5Q507 806 521 806Q551 806 570 828.5Q589 851 593 892H554Q552 871 543 860Q534 849 518 849Q508 849 497 854Q486 859 464 875Q438 895 423 901Q408 907 393 907Q360 907 339.5 884Q319 861 312 817H351Q355 840 366 852Q377 864 393 864Q407 864 420 858.5Q433 853 456 835ZM448 700Z" glyph-name="Utilde" horiz-adv-x="745" unicode="&#360;" /><glyph d="M260 0 116 700H173L300 72L651 700H711L316 0Z" glyph-name="V" horiz-adv-x="665" unicode="V" /><glyph d="M199 0 121 700H178L241 83L524 700H580L647 85L926 700H984L660 0H605L537 607L253 0ZM552 700Z" glyph-name="W" horiz-adv-x="945" unicode="W" /><glyph d="M703 926H641L541 787H592ZM552 700ZM199 0 121 700H178L241 83L524 700H580L647 85L926 700H984L660 0H605L537 607L253 0ZM552 700Z" glyph-name="Wacute" horiz-adv-x="945" unicode="&#7810;" /><glyph d="M459 787 551 926H609L678 787H631L577 886L505 787ZM553 700ZM199 0 121 700H178L241 83L524 700H580L647 85L926 700H984L660 0H605L537 607L253 0ZM552 700Z" glyph-name="Wcircumflex" horiz-adv-x="945" unicode="&#372;" /><glyph d="M199 0 121 700H178L241 83L524 700H580L647 85L926 700H984L660 0H605L537 607L253 0ZM552 700ZM462 856Q462 840 473.5 828.5Q485 817 502 817Q519 817 530.5 828.5Q542 840 542 856Q542 873 530.5 884.5Q519 896 502 896Q486 896 474 884.5Q462 873 462 856ZM602 856Q602 840 613.5 828.5Q625 817 641 817Q658 817 669.5 828.5Q681 840 681 856Q681 873 669.5 884.5Q658 896 641 896Q625 896 613.5 884.5Q602 873 602 856ZM553 700Z" glyph-name="Wdieresis" horiz-adv-x="945" unicode="&#7812;" /><glyph d="M576 787 501 926H439L526 787ZM553 700ZM199 0 121 700H178L241 83L524 700H580L647 85L926 700H984L660 0H605L537 607L253 0ZM552 700Z" glyph-name="Wgrave" horiz-adv-x="945" unicode="&#7808;" /><glyph d="M287 354 112 700H170L323 392L582 700H648L347 346L525 0H467L312 307L54 0H-12Z" glyph-name="X" horiz-adv-x="599" unicode="X" /><glyph d="M300 295 122 700H179L333 343L612 700H675L356 297L304 0H249ZM397 700Z" glyph-name="Y" horiz-adv-x="638" unicode="Y" /><glyph d="M300 295 122 700H179L333 343L612 700H675L356 297L304 0H249ZM397 700ZM548 926H486L386 787H437ZM397 700Z" glyph-name="Yacute" horiz-adv-x="638" unicode="&#221;" /><glyph d="M300 295 122 700H179L333 343L612 700H675L356 297L304 0H249ZM397 700ZM303 787 395 926H453L522 787H475L421 886L349 787ZM397 700Z" glyph-name="Ycircumflex" horiz-adv-x="638" unicode="&#374;" /><glyph d="M300 295 122 700H179L333 343L612 700H675L356 297L304 0H249ZM397 700ZM306 856Q306 840 317.5 828.5Q329 817 346 817Q363 817 374.5 828.5Q386 840 386 856Q386 873 374.5 884.5Q363 896 346 896Q330 896 318 884.5Q306 873 306 856ZM446 856Q446 840 457.5 828.5Q469 817 485 817Q502 817 513.5 828.5Q525 840 525 856Q525 873 513.5 884.5Q502 896 485 896Q469 896 457.5 884.5Q446 873 446 856ZM397 700Z" glyph-name="Ydieresis" horiz-adv-x="638" unicode="&#376;" /><glyph d="M300 295 122 700H179L333 343L612 700H675L356 297L304 0H249ZM397 700ZM420 787 345 926H283L370 787ZM397 700Z" glyph-name="Ygrave" horiz-adv-x="638" unicode="&#7922;" /><glyph d="M77 51H536L526 0H-5L4 47L553 649H121L130 700H635L626 653ZM383 700Z" glyph-name="Z" horiz-adv-x="606" unicode="Z" /><glyph d="M77 51H536L526 0H-5L4 47L553 649H121L130 700H635L626 653ZM383 700ZM534 926H472L372 787H423ZM383 700Z" glyph-name="Zacute" horiz-adv-x="606" unicode="&#377;" /><glyph d="M77 51H536L526 0H-5L4 47L553 649H121L130 700H635L626 653ZM383 700ZM420 787H362L294 926H340L395 827L467 926H513ZM383 700Z" glyph-name="Zcaron" horiz-adv-x="606" unicode="&#381;" /><glyph d="M357 856Q357 837 370.5 823.5Q384 810 403 810Q422 810 435.5 823.5Q449 837 449 856Q449 876 435.5 889.5Q422 903 403 903Q384 903 370.5 889Q357 875 357 856ZM383 700ZM77 51H536L526 0H-5L4 47L553 649H121L130 700H635L626 653ZM383 700Z" glyph-name="Zdotaccent" horiz-adv-x="606" unicode="&#379;" /><glyph d="M469 0H421L437 97Q403 44 355 16Q307 -12 252 -12Q163 -12 108.5 48Q54 108 54 202Q54 332 124.5 419.5Q195 507 300 507Q370 507 418 469Q466 431 483 364L506 495H556ZM107 210Q107 130 148.5 82.5Q190 35 262 35Q346 35 405.5 107.5Q465 180 465 279Q465 360 421 410Q377 460 303 460Q220 460 163.5 388Q107 316 107 210ZM313 495ZM430 0Z" glyph-name="a" horiz-adv-x="612" unicode="a" /><glyph d="M481 314 426 0H377L398 116Q364 54 314 21Q264 -12 203 -12Q131 -12 88 23.5Q45 59 45 116Q45 180 88 219.5Q131 259 227 281L431 327Q439 392 408 426Q377 460 309 460Q259 460 208.5 434.5Q158 409 120 367L89 401Q132 450 191 478.5Q250 507 312 507Q407 507 451.5 454Q496 401 481 314ZM97 120Q97 79 127 56Q157 33 212 33Q287 33 344 92.5Q401 152 418 249L424 282L232 239Q160 223 128.5 195Q97 167 97 120ZM314 498ZM395 -14Z" glyph-name="a.alt" horiz-adv-x="560" /><glyph d="M469 0H421L437 97Q403 44 355 16Q307 -12 252 -12Q163 -12 108.5 48Q54 108 54 202Q54 332 124.5 419.5Q195 507 300 507Q370 507 418 469Q466 431 483 364L506 495H556ZM107 210Q107 130 148.5 82.5Q190 35 262 35Q346 35 405.5 107.5Q465 180 465 279Q465 360 421 410Q377 460 303 460Q220 460 163.5 388Q107 316 107 210ZM313 495ZM430 0ZM461 726H399L299 587H350ZM313 495Z" glyph-name="aacute" horiz-adv-x="612" unicode="&#225;" /><glyph d="M451 725H389L289 586H340ZM303 494ZM481 314 426 0H377L398 116Q364 54 314 21Q264 -12 203 -12Q131 -12 88 23.5Q45 59 45 116Q45 180 88 219.5Q131 259 227 281L431 327Q439 392 408 426Q377 460 309 460Q259 460 208.5 434.5Q158 409 120 367L89 401Q132 450 191 478.5Q250 507 312 507Q407 507 451.5 454Q496 401 481 314ZM97 120Q97 79 127 56Q157 33 212 33Q287 33 344 92.5Q401 152 418 249L424 282L232 239Q160 223 128.5 195Q97 167 97 120ZM314 498ZM395 -14Z" glyph-name="aacute.alt" horiz-adv-x="560" /><glyph d="M469 0H421L437 97Q403 44 355 16Q307 -12 252 -12Q163 -12 108.5 48Q54 108 54 202Q54 332 124.5 419.5Q195 507 300 507Q370 507 418 469Q466 431 483 364L506 495H556ZM107 210Q107 130 148.5 82.5Q190 35 262 35Q346 35 405.5 107.5Q465 180 465 279Q465 360 421 410Q377 460 303 460Q220 460 163.5 388Q107 316 107 210ZM313 495ZM430 0ZM325 623Q365 623 389 649.5Q413 676 419 726H459Q453 659 418 622Q383 585 323 585Q263 585 232 624Q201 663 207 726H246Q243 676 263.5 649.5Q284 623 325 623ZM313 495Z" glyph-name="abreve" horiz-adv-x="612" unicode="&#259;" /><glyph d="M481 314 426 0H377L398 116Q364 54 314 21Q264 -12 203 -12Q131 -12 88 23.5Q45 59 45 116Q45 180 88 219.5Q131 259 227 281L431 327Q439 392 408 426Q377 460 309 460Q259 460 208.5 434.5Q158 409 120 367L89 401Q132 450 191 478.5Q250 507 312 507Q407 507 451.5 454Q496 401 481 314ZM97 120Q97 79 127 56Q157 33 212 33Q287 33 344 92.5Q401 152 418 249L424 282L232 239Q160 223 128.5 195Q97 167 97 120ZM314 498ZM395 -14ZM326 623Q366 623 390 649.5Q414 676 420 726H460Q454 659 419 622Q384 585 324 585Q264 585 233 624Q202 663 208 726H247Q244 676 264.5 649.5Q285 623 326 623ZM314 495Z" glyph-name="abreve.alt" horiz-adv-x="560" /><glyph d="M469 0H421L437 97Q403 44 355 16Q307 -12 252 -12Q163 -12 108.5 48Q54 108 54 202Q54 332 124.5 419.5Q195 507 300 507Q370 507 418 469Q466 431 483 364L506 495H556ZM107 210Q107 130 148.5 82.5Q190 35 262 35Q346 35 405.5 107.5Q465 180 465 279Q465 360 421 410Q377 460 303 460Q220 460 163.5 388Q107 316 107 210ZM313 495ZM430 0ZM213 587 305 726H363L432 587H385L331 686L259 587ZM313 495Z" glyph-name="acircumflex" horiz-adv-x="612" unicode="&#226;" /><glyph d="M214 587 306 726H364L433 587H386L332 686L260 587ZM314 495ZM481 314 426 0H377L398 116Q364 54 314 21Q264 -12 203 -12Q131 -12 88 23.5Q45 59 45 116Q45 180 88 219.5Q131 259 227 281L431 327Q439 392 408 426Q377 460 309 460Q259 460 208.5 434.5Q158 409 120 367L89 401Q132 450 191 478.5Q250 507 312 507Q407 507 451.5 454Q496 401 481 314ZM97 120Q97 79 127 56Q157 33 212 33Q287 33 344 92.5Q401 152 418 249L424 282L232 239Q160 223 128.5 195Q97 167 97 120ZM314 498ZM395 -14Z" glyph-name="acircumflex.alt" horiz-adv-x="560" /><glyph d="M268 726H206L106 587H157ZM120 495Z" glyph-name="acute" horiz-adv-x="385" unicode="&#180;" /><glyph d="M268 926H206L106 787H157ZM117 700Z" glyph-name="acute.case" horiz-adv-x="385" /><glyph d="M469 0H421L437 97Q403 44 355 16Q307 -12 252 -12Q163 -12 108.5 48Q54 108 54 202Q54 332 124.5 419.5Q195 507 300 507Q370 507 418 469Q466 431 483 364L506 495H556ZM107 210Q107 130 148.5 82.5Q190 35 262 35Q346 35 405.5 107.5Q465 180 465 279Q465 360 421 410Q377 460 303 460Q220 460 163.5 388Q107 316 107 210ZM313 495ZM430 0ZM222 656Q222 640 233.5 628.5Q245 617 262 617Q279 617 290.5 628.5Q302 640 302 656Q302 673 290.5 684.5Q279 696 262 696Q246 696 234 684.5Q222 673 222 656ZM362 656Q362 640 373.5 628.5Q385 617 401 617Q418 617 429.5 628.5Q441 640 441 656Q441 673 429.5 684.5Q418 696 401 696Q385 696 373.5 684.5Q362 673 362 656ZM314 495Z" glyph-name="adieresis" horiz-adv-x="612" unicode="&#228;" /><glyph d="M222 656Q222 640 233.5 628.5Q245 617 262 617Q279 617 290.5 628.5Q302 640 302 656Q302 673 290.5 684.5Q279 696 262 696Q246 696 234 684.5Q222 673 222 656ZM362 656Q362 640 373.5 628.5Q385 617 401 617Q418 617 429.5 628.5Q441 640 441 656Q441 673 429.5 684.5Q418 696 401 696Q385 696 373.5 684.5Q362 673 362 656ZM314 495ZM481 314 426 0H377L398 116Q364 54 314 21Q264 -12 203 -12Q131 -12 88 23.5Q45 59 45 116Q45 180 88 219.5Q131 259 227 281L431 327Q439 392 408 426Q377 460 309 460Q259 460 208.5 434.5Q158 409 120 367L89 401Q132 450 191 478.5Q250 507 312 507Q407 507 451.5 454Q496 401 481 314ZM97 120Q97 79 127 56Q157 33 212 33Q287 33 344 92.5Q401 152 418 249L424 282L232 239Q160 223 128.5 195Q97 167 97 120ZM314 498ZM395 -14Z" glyph-name="adieresis.alt" horiz-adv-x="560" /><glyph d="M802 125 836 91Q800 42 748.5 15Q697 -12 638 -12Q556 -12 499 30Q442 72 424 145Q390 70 334 29Q278 -12 208 -12Q134 -12 89.5 23.5Q45 59 45 116Q45 180 88.5 220Q132 260 227 281L432 327Q440 392 408.5 426Q377 460 309 460Q258 460 207 434.5Q156 409 120 367L89 401Q131 450 189.5 478.5Q248 507 312 507Q379 507 421.5 477Q464 447 475 392Q510 446 563 476.5Q616 507 676 507Q763 507 817.5 452.5Q872 398 872 309Q872 293 869 272.5Q866 252 862 237H470Q469 232 469 226Q469 220 469 208Q469 128 516 80.5Q563 33 642 33Q687 33 727 56Q767 79 802 125ZM821 310Q821 380 780.5 421.5Q740 463 673 463Q604 463 549 412.5Q494 362 476 280H819Q820 292 820.5 298.5Q821 305 821 310ZM97 120Q97 78 127 55.5Q157 33 213 33Q288 33 343.5 91Q399 149 417 245L424 282L232 239Q160 223 128.5 195Q97 167 97 120Z" glyph-name="ae" horiz-adv-x="919" unicode="&#230;" /><glyph d="M469 0H421L437 97Q403 44 355 16Q307 -12 252 -12Q163 -12 108.5 48Q54 108 54 202Q54 332 124.5 419.5Q195 507 300 507Q370 507 418 469Q466 431 483 364L506 495H556ZM107 210Q107 130 148.5 82.5Q190 35 262 35Q346 35 405.5 107.5Q465 180 465 279Q465 360 421 410Q377 460 303 460Q220 460 163.5 388Q107 316 107 210ZM313 495ZM430 0ZM336 587 261 726H199L286 587ZM313 495Z" glyph-name="agrave" horiz-adv-x="612" unicode="&#224;" /><glyph d="M481 314 426 0H377L398 116Q364 54 314 21Q264 -12 203 -12Q131 -12 88 23.5Q45 59 45 116Q45 180 88 219.5Q131 259 227 281L431 327Q439 392 408 426Q377 460 309 460Q259 460 208.5 434.5Q158 409 120 367L89 401Q132 450 191 478.5Q250 507 312 507Q407 507 451.5 454Q496 401 481 314ZM97 120Q97 79 127 56Q157 33 212 33Q287 33 344 92.5Q401 152 418 249L424 282L232 239Q160 223 128.5 195Q97 167 97 120ZM314 498ZM395 -14ZM332 586 257 725H195L282 586ZM309 494Z" glyph-name="agrave.alt" horiz-adv-x="560" /><glyph d="M469 0H421L437 97Q403 44 355 16Q307 -12 252 -12Q163 -12 108.5 48Q54 108 54 202Q54 332 124.5 419.5Q195 507 300 507Q370 507 418 469Q466 431 483 364L506 495H556ZM107 210Q107 130 148.5 82.5Q190 35 262 35Q346 35 405.5 107.5Q465 180 465 279Q465 360 421 410Q377 460 303 460Q220 460 163.5 388Q107 316 107 210ZM313 495ZM430 0ZM452 635H206L214 677H460ZM313 495Z" glyph-name="amacron" horiz-adv-x="612" unicode="&#257;" /><glyph d="M481 314 426 0H377L398 116Q364 54 314 21Q264 -12 203 -12Q131 -12 88 23.5Q45 59 45 116Q45 180 88 219.5Q131 259 227 281L431 327Q439 392 408 426Q377 460 309 460Q259 460 208.5 434.5Q158 409 120 367L89 401Q132 450 191 478.5Q250 507 312 507Q407 507 451.5 454Q496 401 481 314ZM97 120Q97 79 127 56Q157 33 212 33Q287 33 344 92.5Q401 152 418 249L424 282L232 239Q160 223 128.5 195Q97 167 97 120ZM314 498ZM395 -14ZM452 635H206L214 677H460ZM313 495Z" glyph-name="amacron.alt" horiz-adv-x="560" /><glyph d="M264 -12Q168 -12 108.5 33.5Q49 79 49 156Q49 230 94.5 284.5Q140 339 241 379Q216 415 203.5 450Q191 485 191 519Q191 606 242.5 659Q294 712 371 712Q434 712 475.5 675Q517 638 517 579Q517 510 468 456.5Q419 403 316 362L492 164Q510 185 528 209Q546 233 565 261L619 339H670L668 327L609 240Q586 207 565 179.5Q544 152 524 129L633 7L632 0H574L490 94Q436 41 380 14.5Q324 -12 264 -12ZM368 668Q312 668 276 626.5Q240 585 240 525Q240 494 252 462Q264 430 288 395Q380 431 424.5 475Q469 519 469 573Q469 616 441.5 642Q414 668 368 668ZM267 345Q181 312 142 267.5Q103 223 103 162Q103 101 148 67Q193 33 269 33Q320 33 366.5 56Q413 79 460 128L276 335Q275 337 272 340.5Q269 344 267 345Z" glyph-name="ampersand" horiz-adv-x="692" unicode="&amp;" /><glyph d="M506 495H556L469 0H464Q400 -31 369 -63Q338 -95 338 -130Q338 -155 355 -169Q372 -183 403 -183Q411 -183 418.5 -182Q426 -181 436 -178L430 -212Q422 -216 412.5 -218Q403 -220 390 -220Q344 -220 318 -198Q292 -176 292 -139Q292 -99 325.5 -61Q359 -23 421 5L437 97Q403 44 355 16Q307 -12 252 -12Q163 -12 108.5 48Q54 108 54 202Q54 332 124.5 419.5Q195 507 300 507Q370 507 418 469Q466 431 483 364ZM107 210Q107 130 148.5 82.5Q190 35 262 35Q346 35 405.5 107.5Q465 180 465 279Q465 360 421 410Q377 460 303 460Q220 460 163.5 388Q107 316 107 210Z" glyph-name="aogonek" horiz-adv-x="612" unicode="&#261;" /><glyph d="M312 507Q407 507 451.5 454Q496 401 481 314L426 0H420Q357 -31 326 -63Q295 -95 295 -130Q295 -155 312 -169Q329 -183 360 -183Q368 -183 376 -181.5Q384 -180 392 -178L386 -212Q378 -216 369 -218Q360 -220 346 -220Q300 -220 274 -198Q248 -176 248 -139Q248 -99 282 -60.5Q316 -22 378 5L398 116Q364 54 314 21Q264 -12 203 -12Q131 -12 88 23.5Q45 59 45 116Q45 180 88 219.5Q131 259 227 281L431 327Q439 392 408 426Q377 460 309 460Q259 460 208.5 434.5Q158 409 120 367L89 401Q132 450 191 478.5Q250 507 312 507ZM97 120Q97 79 127 56Q157 33 212 33Q288 33 344 93Q400 153 419 255L424 282L232 239Q160 223 128.5 195Q97 167 97 120Z" glyph-name="aogonek.alt" horiz-adv-x="560" /><glyph d="M310.8 273Q339.6 256.8 355.8 251.85Q372 246.9 387.3 246.9Q426.9 246.9 447.15 272.55Q467.4 298.2 464.7 345H423.3Q424.2 315.3 414.75 302.25Q405.3 289.2 383.7 289.2Q372 289.2 358.5 293.7Q345 298.2 318.9 312.6Q288.3 328.8 272.1 334.2Q255.9 339.6 240.6 339.6Q197.4 339.6 174.9 312.6Q152.4 285.6 154.2 237H196.5Q196.5 266.7 208.2 282Q219.9 297.3 242.4 297.3Q255 297.3 269.4 292.8Q283.8 288.3 310.8 273ZM310.8 423Q339.6 406.8 355.8 401.85Q372 396.9 387.3 396.9Q426.9 396.9 447.15 422.55Q467.4 448.2 464.7 495H423.3Q424.2 465.3 414.75 452.25Q405.3 439.2 383.7 439.2Q372 439.2 358.5 443.7Q345 448.2 318.9 462.6Q288.3 478.8 272.1 484.2Q255.9 489.6 240.6 489.6Q197.4 489.6 174.9 462.6Q152.4 435.6 154.2 387H196.5Q196.5 416.7 208.2 432Q219.9 447.3 242.4 447.3Q255 447.3 269.4 442.8Q283.8 438.3 310.8 423Z" glyph-name="approxequal" horiz-adv-x="580" unicode="&#8776;" /><glyph d="M469 0H421L437 97Q403 44 355 16Q307 -12 252 -12Q163 -12 108.5 48Q54 108 54 202Q54 332 124.5 419.5Q195 507 300 507Q370 507 418 469Q466 431 483 364L506 495H556ZM107 210Q107 130 148.5 82.5Q190 35 262 35Q346 35 405.5 107.5Q465 180 465 279Q465 360 421 410Q377 460 303 460Q220 460 163.5 388Q107 316 107 210ZM313 495ZM430 0ZM437 661Q437 704 407 734Q377 764 334 764Q291 764 261.5 734Q232 704 232 661Q232 619 261.5 589Q291 559 334 559Q377 559 407 589Q437 619 437 661ZM269 661Q269 689 288 708.5Q307 728 334 728Q361 728 380.5 708Q400 688 400 661Q400 634 380.5 615Q361 596 334 596Q307 596 288 615Q269 634 269 661ZM314 495Z" glyph-name="aring" horiz-adv-x="612" unicode="&#229;" /><glyph d="M427 661Q427 704 397 734Q367 764 324 764Q281 764 251.5 734Q222 704 222 661Q222 619 251.5 589Q281 559 324 559Q367 559 397 589Q427 619 427 661ZM259 661Q259 689 278 708.5Q297 728 324 728Q351 728 370.5 708Q390 688 390 661Q390 634 370.5 615Q351 596 324 596Q297 596 278 615Q259 634 259 661ZM304 495ZM481 314 426 0H377L398 116Q364 54 314 21Q264 -12 203 -12Q131 -12 88 23.5Q45 59 45 116Q45 180 88 219.5Q131 259 227 281L431 327Q439 392 408 426Q377 460 309 460Q259 460 208.5 434.5Q158 409 120 367L89 401Q132 450 191 478.5Q250 507 312 507Q407 507 451.5 454Q496 401 481 314ZM97 120Q97 79 127 56Q157 33 212 33Q287 33 344 92.5Q401 152 418 249L424 282L232 239Q160 223 128.5 195Q97 167 97 120ZM314 498ZM395 -14Z" glyph-name="aring.alt" horiz-adv-x="560" /><glyph d="M287 700H330L511 281H459L308 640L158 281H106Z" glyph-name="asciicircum" horiz-adv-x="580" unicode="^" /><glyph d="M312 350Q344 332 362 326.5Q380 321 397 321Q441 321 463.5 349.5Q486 378 483 430H437Q438 397 427.5 382.5Q417 368 393 368Q380 368 365 373Q350 378 321 394Q287 412 269 418Q251 424 234 424Q186 424 161 394Q136 364 138 310H185Q185 343 198 360Q211 377 236 377Q250 377 266 372Q282 367 312 350Z" glyph-name="asciitilde" horiz-adv-x="580" unicode="~" /><glyph d="M294 490 272 348H225L253 489L122 416L103 456L241 524L128 593L155 632L265 557L288 700H335L305 558L439 633L458 592L318 523L429 456L402 416Z" glyph-name="asterisk" horiz-adv-x="470" unicode="*" /><glyph d="M594 169Q566 122 526.5 97Q487 72 440 72Q369 72 325 118Q281 164 281 240Q281 345 338.5 421Q396 497 483 497Q537 497 574.5 469Q612 441 627 391L644 487H693L643 212Q635 167 652.5 142Q670 117 709 117Q773 117 818 180.5Q863 244 863 349Q863 417 836 479.5Q809 542 760 586Q713 628 650.5 649Q588 670 511 670Q422 670 349 641Q276 612 223 556Q171 501 142.5 425Q114 349 114 266Q114 91 212 -11Q310 -113 485 -113Q549 -113 604 -99Q659 -85 732 -46L750 -80Q678 -121 615.5 -138Q553 -155 484 -155Q287 -155 176 -41Q65 73 65 265Q65 354 98 439Q131 524 191 586Q251 648 332 680Q413 712 511 712Q690 712 800.5 611.5Q911 511 911 351Q911 228 852 153.5Q793 79 706 79Q657 79 626 103Q595 127 594 169ZM333 245Q333 181 363.5 146.5Q394 112 450 112Q512 112 557 167Q602 222 608 299Q613 372 581 414.5Q549 457 487 457Q419 457 376 395.5Q333 334 333 245Z" glyph-name="at" horiz-adv-x="958" unicode="@" /><glyph d="M469 0H421L437 97Q403 44 355 16Q307 -12 252 -12Q163 -12 108.5 48Q54 108 54 202Q54 332 124.5 419.5Q195 507 300 507Q370 507 418 469Q466 431 483 364L506 495H556ZM107 210Q107 130 148.5 82.5Q190 35 262 35Q346 35 405.5 107.5Q465 180 465 279Q465 360 421 410Q377 460 303 460Q220 460 163.5 388Q107 316 107 210ZM313 495ZM430 0ZM331 635Q355 617 368.5 611.5Q382 606 396 606Q426 606 445 628.5Q464 651 468 692H429Q427 671 418 660Q409 649 393 649Q383 649 372 654Q361 659 339 675Q313 695 298 701Q283 707 268 707Q235 707 214.5 684Q194 661 187 617H226Q230 640 241 652Q252 664 268 664Q282 664 295 658.5Q308 653 331 635ZM313 495Z" glyph-name="atilde" horiz-adv-x="612" unicode="&#227;" /><glyph d="M481 314 426 0H377L398 116Q364 54 314 21Q264 -12 203 -12Q131 -12 88 23.5Q45 59 45 116Q45 180 88 219.5Q131 259 227 281L431 327Q439 392 408 426Q377 460 309 460Q259 460 208.5 434.5Q158 409 120 367L89 401Q132 450 191 478.5Q250 507 312 507Q407 507 451.5 454Q496 401 481 314ZM97 120Q97 79 127 56Q157 33 212 33Q287 33 344 92.5Q401 152 418 249L424 282L232 239Q160 223 128.5 195Q97 167 97 120ZM314 498ZM395 -14ZM335 635Q359 617 372.5 611.5Q386 606 400 606Q430 606 449 628.5Q468 651 472 692H433Q431 671 422 660Q413 649 397 649Q387 649 376 654Q365 659 343 675Q317 695 302 701Q287 707 272 707Q239 707 218.5 684Q198 661 191 617H230Q234 640 245 652Q256 664 272 664Q286 664 299 658.5Q312 653 335 635ZM317 495Z" glyph-name="atilde.alt" horiz-adv-x="560" /><glyph d="M364 507Q456 507 511 446.5Q566 386 566 290Q566 159 495.5 73.5Q425 -12 316 -12Q244 -12 195.5 25.5Q147 63 129 131L105 0H56L184 730H236L178 401Q211 452 259.5 479.5Q308 507 364 507ZM513 285Q513 365 470 412.5Q427 460 353 460Q266 460 207 388Q148 316 148 215Q148 135 192.5 85Q237 35 312 35Q399 35 456 106Q513 177 513 285Z" glyph-name="b" horiz-adv-x="621" unicode="b" /><glyph d="M164 742 439 -132H386L111 742Z" glyph-name="backslash" horiz-adv-x="530" unicode="\" /><glyph d="M181 742V-123H133V742Z" glyph-name="bar" horiz-adv-x="293" unicode="|" /><glyph d="M49 305 58 351 88 350Q118 349 134.5 362.5Q151 376 158 406Q161 418 162.5 433.5Q164 449 165 508Q166 542 168.5 565.5Q171 589 174 609Q185 674 227.5 708Q270 742 340 742H373L365 695H346Q296 695 266 672.5Q236 650 229 607Q226 589 224 567.5Q222 546 220 503Q218 461 216 441Q214 421 211 405Q205 372 185 352Q165 332 129 322Q156 309 169.5 290Q183 271 183 245Q183 228 178 207Q173 186 157 140Q139 87 133 60Q127 33 127 10Q127 -31 151 -53.5Q175 -76 219 -76H236L228 -123H201Q143 -123 107.5 -86.5Q72 -50 72 8Q72 35 78.5 66Q85 97 106 154Q121 196 125.5 215Q130 234 130 249Q130 274 116 288.5Q102 303 76 304Z" glyph-name="braceleft" horiz-adv-x="324" unicode="{" /><glyph d="M298 314 289 268 259 269Q229 270 212.5 256.5Q196 243 189 213Q186 201 184.5 185.5Q183 170 182 111Q181 77 178.5 53.5Q176 30 173 10Q162 -55 119.5 -89Q77 -123 7 -123H-26L-18 -76H1Q51 -76 81 -53.5Q111 -31 118 12Q121 30 123 51.5Q125 73 127 116Q129 158 131 178Q133 198 136 214Q142 247 162 267Q182 287 218 297Q191 310 177.5 329Q164 348 164 374Q164 391 169 412Q174 433 190 479Q208 532 214 559Q220 586 220 609Q220 650 196 672.5Q172 695 128 695H111L119 742H146Q204 742 239.5 705.5Q275 669 275 611Q275 584 268.5 553Q262 522 241 465Q226 423 221.5 404Q217 385 217 370Q217 345 231 330.5Q245 316 271 315Z" glyph-name="braceright" horiz-adv-x="325" unicode="}" /><glyph d="M276 -123H46L197 742H427L419 696H243L108 -77H284Z" glyph-name="bracketleft" horiz-adv-x="370" unicode="[" /><glyph d="M115 742H345L194 -123H-36L-28 -77H148L283 696H107Z" glyph-name="bracketright" horiz-adv-x="369" unicode="]" /><glyph d="M195 623Q235 623 259 649.5Q283 676 289 726H329Q323 659 288 622Q253 585 193 585Q133 585 102 624Q71 663 77 726H116Q113 676 133.5 649.5Q154 623 195 623ZM183 495Z" glyph-name="breve" horiz-adv-x="392" unicode="&#728;" /><glyph d="M195 823Q235 823 259 849.5Q283 876 289 926H329Q323 859 288 822Q253 785 193 785Q133 785 102 824Q71 863 77 926H116Q113 876 133.5 849.5Q154 823 195 823ZM180 700Z" glyph-name="breve.case" horiz-adv-x="392" /><glyph d="M181 742V405H133V742ZM181 205V-132H133V205Z" glyph-name="brokenbar" horiz-adv-x="293" unicode="&#166;" /><glyph d="M111.5 319Q111.5 292 130.25 272.5Q149 253 176 253Q203 253 222.5 272.5Q242 292 242 319Q242 346 222.5 364.75Q203 383.5 176 383.5Q149 383.5 130.25 364.75Q111.5 346 111.5 319ZM122 334Z" glyph-name="bullet" horiz-adv-x="330" unicode="&#8226;" /><glyph d="M268 -12Q172 -12 113 48Q54 108 54 206Q54 334 130 420.5Q206 507 315 507Q391 507 442 467.5Q493 428 514 352L466 332Q448 397 409.5 428.5Q371 460 311 460Q227 460 167 388Q107 316 107 211Q107 130 151 82.5Q195 35 269 35Q320 35 362.5 63.5Q405 92 437 147L481 121Q442 56 387.5 22Q333 -12 268 -12ZM314 495ZM271 10Z" glyph-name="c" horiz-adv-x="543" unicode="c" /><glyph d="M462 726H400L300 587H351ZM314 495ZM268 -12Q172 -12 113 48Q54 108 54 206Q54 334 130 420.5Q206 507 315 507Q391 507 442 467.5Q493 428 514 352L466 332Q448 397 409.5 428.5Q371 460 311 460Q227 460 167 388Q107 316 107 211Q107 130 151 82.5Q195 35 269 35Q320 35 362.5 63.5Q405 92 437 147L481 121Q442 56 387.5 22Q333 -12 268 -12ZM314 495ZM271 10Z" glyph-name="cacute" horiz-adv-x="543" unicode="&#263;" /><glyph d="M219 587H161L93 726H139L194 627L266 726H312ZM181 495Z" glyph-name="caron" horiz-adv-x="391" unicode="&#711;" /><glyph d="M219 787H161L93 926H139L194 827L266 926H312ZM182 700Z" glyph-name="caron.case" horiz-adv-x="391" /><glyph d="M121 730H64L14 592H57ZM3 700Z" glyph-name="caron.salt" horiz-adv-x="173" /><glyph d="M352 587H294L226 726H272L327 627L399 726H445ZM314 495ZM268 -12Q172 -12 113 48Q54 108 54 206Q54 334 130 420.5Q206 507 315 507Q391 507 442 467.5Q493 428 514 352L466 332Q448 397 409.5 428.5Q371 460 311 460Q227 460 167 388Q107 316 107 211Q107 130 151 82.5Q195 35 269 35Q320 35 362.5 63.5Q405 92 437 147L481 121Q442 56 387.5 22Q333 -12 268 -12ZM314 495ZM271 10Z" glyph-name="ccaron" horiz-adv-x="543" unicode="&#269;" /><glyph d="M180 -101 168 -80 235 -10Q152 0 103 58.5Q54 117 54 206Q54 334 130 420.5Q206 507 315 507Q391 507 442 467.5Q493 428 514 352L466 332Q448 397 409.5 428.5Q371 460 311 460Q227 460 167 388Q107 316 107 211Q107 130 151 82.5Q195 35 269 35Q320 35 362.5 63.5Q405 92 437 147L481 121Q443 57 390 23.5Q337 -10 274 -12L222 -65Q227 -64 232.5 -63.5Q238 -63 248 -63Q285 -63 306.5 -80.5Q328 -98 328 -128Q328 -168 297 -193.5Q266 -219 217 -219Q195 -219 173 -213Q151 -207 133 -197L141 -166Q159 -176 176.5 -181Q194 -186 214 -186Q246 -186 265 -171Q284 -156 284 -129Q284 -111 269 -101Q254 -91 227 -91Q214 -91 202.5 -93.5Q191 -96 180 -101Z" glyph-name="ccedilla" horiz-adv-x="543" unicode="&#231;" /><glyph d="M214 587 306 726H364L433 587H386L332 686L260 587ZM314 495ZM268 -12Q172 -12 113 48Q54 108 54 206Q54 334 130 420.5Q206 507 315 507Q391 507 442 467.5Q493 428 514 352L466 332Q448 397 409.5 428.5Q371 460 311 460Q227 460 167 388Q107 316 107 211Q107 130 151 82.5Q195 35 269 35Q320 35 362.5 63.5Q405 92 437 147L481 121Q442 56 387.5 22Q333 -12 268 -12ZM314 495ZM271 10Z" glyph-name="ccircumflex" horiz-adv-x="543" unicode="&#265;" /><glyph d="M268 -12Q172 -12 113 48Q54 108 54 206Q54 334 130 420.5Q206 507 315 507Q391 507 442 467.5Q493 428 514 352L466 332Q448 397 409.5 428.5Q371 460 311 460Q227 460 167 388Q107 316 107 211Q107 130 151 82.5Q195 35 269 35Q320 35 362.5 63.5Q405 92 437 147L481 121Q442 56 387.5 22Q333 -12 268 -12ZM314 495ZM271 10ZM288 656Q288 637 301.5 623.5Q315 610 334 610Q353 610 366.5 623.5Q380 637 380 656Q380 676 366.5 689.5Q353 703 334 703Q315 703 301.5 689Q288 675 288 656ZM314 495Z" glyph-name="cdotaccent" horiz-adv-x="543" unicode="&#267;" /><glyph d="M126 -101 114 -80 194 3H234L168 -65Q173 -64 178.5 -63.5Q184 -63 194 -63Q231 -63 252.5 -80.5Q274 -98 274 -128Q274 -168 243 -193.5Q212 -219 163 -219Q141 -219 119 -213Q97 -207 79 -197L87 -166Q105 -176 122.5 -181Q140 -186 160 -186Q192 -186 211 -171Q230 -156 230 -129Q230 -111 215 -101Q200 -91 173 -91Q160 -91 148.5 -93.5Q137 -96 126 -101ZM217 10Z" glyph-name="cedilla" horiz-adv-x="384" unicode="&#184;" /><glyph d="M136 -84H91L146 25Q104 54 81.5 100.5Q59 147 59 206Q59 334 135 420.5Q211 507 320 507Q337 507 353.5 504.5Q370 502 385 498L433 594H478L422 483Q457 465 481.5 432Q506 399 519 352L471 332Q461 370 443 397Q425 424 400 439L203 49Q219 42 237 38.5Q255 35 274 35Q325 35 367.5 63.5Q410 92 442 147L486 121Q447 56 392.5 22Q338 -12 273 -12Q247 -12 224 -7.5Q201 -3 181 6ZM316 460Q232 460 172 388Q112 316 112 211Q112 165 126.5 129Q141 93 169 71L363 454Q352 457 340 458.5Q328 460 316 460Z" glyph-name="cent" horiz-adv-x="562" unicode="&#162;" /><glyph d="M81 587 173 726H231L300 587H253L199 686L127 587ZM181 495Z" glyph-name="circumflex" horiz-adv-x="391" unicode="&#710;" /><glyph d="M81 787 173 926H231L300 787H253L199 886L127 787ZM175 700Z" glyph-name="circumflex.case" horiz-adv-x="391" /><glyph d="M117 451Q117 433 129.5 420Q142 407 160 407Q178 407 191 420Q204 433 204 451Q204 469 191 481.5Q178 494 160 494Q142 494 129.5 481.5Q117 469 117 451ZM124 461ZM43 32Q43 14 55.5 1Q68 -12 86 -12Q104 -12 117 1Q130 14 130 32Q130 50 117 62.5Q104 75 86 75Q68 75 55.5 62.5Q43 50 43 32ZM50 42Z" glyph-name="colon" horiz-adv-x="248" unicode=":" /><glyph d="M124 73H64L-23 -165H28Z" glyph-name="comma" horiz-adv-x="212" unicode="," /><glyph d="M139 -71H80L19 -217H66ZM120 1ZM80 -210Z" glyph-name="commaaccent" horiz-adv-x="197" unicode="&#63171;" /><glyph d="M57 587H118L179 726H135ZM84 495Z" glyph-name="commaaccent.salt" horiz-adv-x="197" /><glyph d="M805 351Q805 501 699.5 606.5Q594 712 444 712Q294 712 188.5 606.5Q83 501 83 351Q83 201 189 94.5Q295 -12 444 -12Q593 -12 699 94.5Q805 201 805 351ZM128 351Q128 483 220.5 576.5Q313 670 444 670Q575 670 667.5 576.5Q760 483 760 351Q760 219 667 125Q574 31 444 31Q314 31 221 125Q128 219 128 351ZM444 167Q371 167 324.5 218Q278 269 278 350Q278 430 325.5 482.5Q373 535 446 535Q497 535 533.5 511.5Q570 488 591 443L551 421Q532 459 507 476Q482 493 445 493Q392 493 358.5 453Q325 413 325 350Q325 288 359 248Q393 208 445 208Q484 208 511 228.5Q538 249 554 290L596 271Q575 221 536 194Q497 167 444 167Z" glyph-name="copyright" horiz-adv-x="850" unicode="&#169;" /><glyph d="M87 132 59 168 169 262Q159 281 153.5 300.5Q148 320 148 340Q148 368 157.5 394Q167 420 185 441L114 528L154 563L225 476Q243 489 264.5 495.5Q286 502 309 502Q336 502 360.5 493Q385 484 405 466L520 563L548 528L437 432Q448 414 453.5 394Q459 374 459 353Q459 327 450.5 302.5Q442 278 426 257L499 167L460 132L388 220Q368 205 345 197.5Q322 190 298 190Q271 190 246 200Q221 210 201 228ZM298 235Q345 235 379.5 269.5Q414 304 414 352Q414 396 383.5 426.5Q353 457 310 457Q262 457 227.5 423Q193 389 193 341Q193 296 223.5 265.5Q254 235 298 235Z" glyph-name="currency" horiz-adv-x="576" unicode="&#164;" /><glyph d="M54 205Q54 335 125.5 421Q197 507 305 507Q376 507 424 470.5Q472 434 491 367L555 730H607L479 0H429L445 96Q412 45 363 16.5Q314 -12 257 -12Q165 -12 109.5 48.5Q54 109 54 205ZM107 211Q107 131 150 83Q193 35 268 35Q354 35 414 106.5Q474 178 474 279Q474 359 429.5 409.5Q385 460 310 460Q223 460 165 389Q107 318 107 211ZM662 700Z" glyph-name="d" horiz-adv-x="621" unicode="d" /><glyph d="M263 441 190 0H138L221 441L80 437L88 484L227 480L262 700H314L270 480L410 484L402 437Z" glyph-name="dagger" horiz-adv-x="414" unicode="&#8224;" /><glyph d="M202 0H150L194 220L54 216L62 264L200 260L212 351L232 441L92 437L100 484L239 480L274 700H326L282 480L422 484L414 437L276 441L264 350L244 260L384 264L376 216L237 220Z" glyph-name="daggerdbl" horiz-adv-x="439" unicode="&#8225;" /><glyph d="M779 730H722L672 592H715ZM661 700ZM54 205Q54 335 125.5 421Q197 507 305 507Q376 507 424 470.5Q472 434 491 367L555 730H607L479 0H429L445 96Q412 45 363 16.5Q314 -12 257 -12Q165 -12 109.5 48.5Q54 109 54 205ZM107 211Q107 131 150 83Q193 35 268 35Q354 35 414 106.5Q474 178 474 279Q474 359 429.5 409.5Q385 460 310 460Q223 460 165 389Q107 318 107 211ZM662 700Z" glyph-name="dcaron" horiz-adv-x="651" unicode="&#271;" /><glyph d="M54 205Q54 335 125.5 421Q197 507 305 507Q376 507 424 470.5Q472 434 491 367L532 600H363L372 645H540L555 730H607L592 645H681L672 600H584L479 0H429L445 96Q412 45 363 16.5Q314 -12 257 -12Q165 -12 109.5 48.5Q54 109 54 205ZM107 211Q107 131 150 83Q193 35 268 35Q354 35 414 106.5Q474 178 474 279Q474 359 429.5 409.5Q385 460 310 460Q223 460 165 389Q107 318 107 211Z" glyph-name="dcroat" horiz-adv-x="621" unicode="&#273;" /><glyph d="M386 577Q386 633 346.5 672.5Q307 712 251 712Q194 712 153.5 672.5Q113 633 113 577Q113 520 153.5 480Q194 440 251 440Q307 440 346.5 480Q386 520 386 577ZM155 577Q155 617 183 644.5Q211 672 251 672Q291 672 318.5 644.5Q346 617 346 577Q346 537 318.5 509Q291 481 251 481Q211 481 183 509Q155 537 155 577Z" glyph-name="degree" horiz-adv-x="391" unicode="&#176;" /><glyph d="M85 656Q85 640 96.5 628.5Q108 617 125 617Q142 617 153.5 628.5Q165 640 165 656Q165 673 153.5 684.5Q142 696 125 696Q109 696 97 684.5Q85 673 85 656ZM225 656Q225 640 236.5 628.5Q248 617 264 617Q281 617 292.5 628.5Q304 640 304 656Q304 673 292.5 684.5Q281 696 264 696Q248 696 236.5 684.5Q225 673 225 656ZM177 495Z" glyph-name="dieresis" horiz-adv-x="392" unicode="&#168;" /><glyph d="M85 856Q85 840 96.5 828.5Q108 817 125 817Q142 817 153.5 828.5Q165 840 165 856Q165 873 153.5 884.5Q142 896 125 896Q109 896 97 884.5Q85 873 85 856ZM225 856Q225 840 236.5 828.5Q248 817 264 817Q281 817 292.5 828.5Q304 840 304 856Q304 873 292.5 884.5Q281 896 264 896Q248 896 236.5 884.5Q225 873 225 856ZM176 700Z" glyph-name="dieresis.case" horiz-adv-x="392" /><glyph d="M87 327V375H528V327ZM269 179Q269 162 280 150.5Q291 139 307 139Q323 139 335 151Q347 163 347 179Q347 195 335.5 206.5Q324 218 307 218Q291 218 280 206.5Q269 195 269 179ZM269 525Q269 508 280 496.5Q291 485 307 485Q323 485 335 497Q347 509 347 525Q347 541 335.5 552.5Q324 564 307 564Q291 564 280 552.5Q269 541 269 525Z" glyph-name="divide" horiz-adv-x="580" unicode="&#247;" /><glyph d="M248 -11 226 -134H186L208 -7Q150 4 101.5 37.5Q53 71 21 118L65 155Q92 114 131.5 84.5Q171 55 217 44L271 347L241 362Q177 394 145.5 435.5Q114 477 114 529Q114 606 171.5 659Q229 712 325 712Q328 712 330.5 712Q333 712 335 712L356 833H396L374 708Q427 699 470 671Q513 643 547 595L504 559Q473 601 439 625.5Q405 650 365 658L317 384L366 359Q428 328 456.5 290Q485 252 485 201Q485 106 425 47Q365 -12 267 -12Q259 -12 255 -12Q251 -12 248 -11ZM168 536Q168 498 191.5 466.5Q215 435 263 411L280 402L326 662H323Q251 662 209.5 625.5Q168 589 168 536ZM430 192Q430 231 408 260Q386 289 339 313L307 329L256 38Q259 38 262.5 38Q266 38 269 38Q345 38 387.5 83Q430 128 430 192Z" glyph-name="dollar" horiz-adv-x="549" unicode="$" /><glyph d="M144 656Q144 637 157.5 623.5Q171 610 190 610Q209 610 222.5 623.5Q236 637 236 656Q236 676 222.5 689.5Q209 703 190 703Q171 703 157.5 689Q144 675 144 656ZM170 495Z" glyph-name="dotaccent" horiz-adv-x="380" unicode="&#729;" /><glyph d="M144 856Q144 837 157.5 823.5Q171 810 190 810Q209 810 222.5 823.5Q236 837 236 856Q236 876 222.5 889.5Q209 903 190 903Q171 903 157.5 889Q144 875 144 856ZM170 700Z" glyph-name="dotaccent.case" horiz-adv-x="380" /><glyph d="M57 0 142 495H194L109 0ZM168 495Z" glyph-name="dotlessi" horiz-adv-x="250" unicode="&#305;" /><glyph d="M276 -12Q176 -12 115 48.5Q54 109 54 206Q54 336 129 421.5Q204 507 314 507Q401 507 455 452.5Q509 398 509 309Q509 292 506 270.5Q503 249 499 237H108Q107 232 107 226Q107 220 107 208Q107 128 154 80.5Q201 33 280 33Q325 33 365 56Q405 79 440 124L474 91Q437 41 385.5 14.5Q334 -12 276 -12ZM458 310Q458 380 417.5 421.5Q377 463 311 463Q241 463 186.5 412.5Q132 362 115 280H455Q457 289 457.5 296Q458 303 458 310ZM313 495ZM319 0Z" glyph-name="e" horiz-adv-x="557" unicode="e" /><glyph d="M461 726H399L299 587H350ZM313 495ZM276 -12Q176 -12 115 48.5Q54 109 54 206Q54 336 129 421.5Q204 507 314 507Q401 507 455 452.5Q509 398 509 309Q509 292 506 270.5Q503 249 499 237H108Q107 232 107 226Q107 220 107 208Q107 128 154 80.5Q201 33 280 33Q325 33 365 56Q405 79 440 124L474 91Q437 41 385.5 14.5Q334 -12 276 -12ZM458 310Q458 380 417.5 421.5Q377 463 311 463Q241 463 186.5 412.5Q132 362 115 280H455Q457 289 457.5 296Q458 303 458 310ZM313 495ZM319 0Z" glyph-name="eacute" horiz-adv-x="557" unicode="&#233;" /><glyph d="M276 -12Q176 -12 115 48.5Q54 109 54 206Q54 336 129 421.5Q204 507 314 507Q401 507 455 452.5Q509 398 509 309Q509 292 506 270.5Q503 249 499 237H108Q107 232 107 226Q107 220 107 208Q107 128 154 80.5Q201 33 280 33Q325 33 365 56Q405 79 440 124L474 91Q437 41 385.5 14.5Q334 -12 276 -12ZM458 310Q458 380 417.5 421.5Q377 463 311 463Q241 463 186.5 412.5Q132 362 115 280H455Q457 289 457.5 296Q458 303 458 310ZM313 495ZM319 0ZM325 623Q365 623 389 649.5Q413 676 419 726H459Q453 659 418 622Q383 585 323 585Q263 585 232 624Q201 663 207 726H246Q243 676 263.5 649.5Q284 623 325 623ZM313 495Z" glyph-name="ebreve" horiz-adv-x="557" unicode="&#277;" /><glyph d="M351 587H293L225 726H271L326 627L398 726H444ZM313 495ZM276 -12Q176 -12 115 48.5Q54 109 54 206Q54 336 129 421.5Q204 507 314 507Q401 507 455 452.5Q509 398 509 309Q509 292 506 270.5Q503 249 499 237H108Q107 232 107 226Q107 220 107 208Q107 128 154 80.5Q201 33 280 33Q325 33 365 56Q405 79 440 124L474 91Q437 41 385.5 14.5Q334 -12 276 -12ZM458 310Q458 380 417.5 421.5Q377 463 311 463Q241 463 186.5 412.5Q132 362 115 280H455Q457 289 457.5 296Q458 303 458 310ZM313 495ZM319 0Z" glyph-name="ecaron" horiz-adv-x="557" unicode="&#283;" /><glyph d="M213 587 305 726H363L432 587H385L331 686L259 587ZM313 495ZM276 -12Q176 -12 115 48.5Q54 109 54 206Q54 336 129 421.5Q204 507 314 507Q401 507 455 452.5Q509 398 509 309Q509 292 506 270.5Q503 249 499 237H108Q107 232 107 226Q107 220 107 208Q107 128 154 80.5Q201 33 280 33Q325 33 365 56Q405 79 440 124L474 91Q437 41 385.5 14.5Q334 -12 276 -12ZM458 310Q458 380 417.5 421.5Q377 463 311 463Q241 463 186.5 412.5Q132 362 115 280H455Q457 289 457.5 296Q458 303 458 310ZM313 495ZM319 0Z" glyph-name="ecircumflex" horiz-adv-x="557" unicode="&#234;" /><glyph d="M221 656Q221 640 232.5 628.5Q244 617 261 617Q278 617 289.5 628.5Q301 640 301 656Q301 673 289.5 684.5Q278 696 261 696Q245 696 233 684.5Q221 673 221 656ZM361 656Q361 640 372.5 628.5Q384 617 400 617Q417 617 428.5 628.5Q440 640 440 656Q440 673 428.5 684.5Q417 696 400 696Q384 696 372.5 684.5Q361 673 361 656ZM313 495ZM276 -12Q176 -12 115 48.5Q54 109 54 206Q54 336 129 421.5Q204 507 314 507Q401 507 455 452.5Q509 398 509 309Q509 292 506 270.5Q503 249 499 237H108Q107 232 107 226Q107 220 107 208Q107 128 154 80.5Q201 33 280 33Q325 33 365 56Q405 79 440 124L474 91Q437 41 385.5 14.5Q334 -12 276 -12ZM458 310Q458 380 417.5 421.5Q377 463 311 463Q241 463 186.5 412.5Q132 362 115 280H455Q457 289 457.5 296Q458 303 458 310ZM313 495ZM319 0Z" glyph-name="edieresis" horiz-adv-x="557" unicode="&#235;" /><glyph d="M276 -12Q176 -12 115 48.5Q54 109 54 206Q54 336 129 421.5Q204 507 314 507Q401 507 455 452.5Q509 398 509 309Q509 292 506 270.5Q503 249 499 237H108Q107 232 107 226Q107 220 107 208Q107 128 154 80.5Q201 33 280 33Q325 33 365 56Q405 79 440 124L474 91Q437 41 385.5 14.5Q334 -12 276 -12ZM458 310Q458 380 417.5 421.5Q377 463 311 463Q241 463 186.5 412.5Q132 362 115 280H455Q457 289 457.5 296Q458 303 458 310ZM313 495ZM319 0ZM287 656Q287 637 300.5 623.5Q314 610 333 610Q352 610 365.5 623.5Q379 637 379 656Q379 676 365.5 689.5Q352 703 333 703Q314 703 300.5 689Q287 675 287 656ZM313 495Z" glyph-name="edotaccent" horiz-adv-x="557" unicode="&#279;" /><glyph d="M276 -12Q176 -12 115 48.5Q54 109 54 206Q54 336 129 421.5Q204 507 314 507Q401 507 455 452.5Q509 398 509 309Q509 292 506 270.5Q503 249 499 237H108Q107 232 107 226Q107 220 107 208Q107 128 154 80.5Q201 33 280 33Q325 33 365 56Q405 79 440 124L474 91Q437 41 385.5 14.5Q334 -12 276 -12ZM458 310Q458 380 417.5 421.5Q377 463 311 463Q241 463 186.5 412.5Q132 362 115 280H455Q457 289 457.5 296Q458 303 458 310ZM313 495ZM319 0ZM336 587 261 726H199L286 587ZM313 495Z" glyph-name="egrave" horiz-adv-x="557" unicode="&#232;" /><glyph d="M529 206Q529 111 461.5 49.5Q394 -12 287 -12Q185 -12 121 40.5Q57 93 57 173Q57 247 103.5 303.5Q150 360 229 375Q181 395 156.5 430Q132 465 132 513Q132 598 195.5 655Q259 712 357 712Q454 712 513.5 663Q573 614 573 539Q573 472 533 422Q493 372 422 358Q475 338 502 299.5Q529 261 529 206ZM187 515Q187 455 231.5 420.5Q276 386 352 386Q428 386 473 429.5Q518 473 518 537Q518 594 472.5 629.5Q427 665 354 665Q281 665 234 622.5Q187 580 187 515ZM294 343Q213 343 162.5 293.5Q112 244 112 175Q112 113 161 74.5Q210 36 289 36Q370 36 422 81.5Q474 127 474 200Q474 267 426 305Q378 343 294 343Z" glyph-name="eight" horiz-adv-x="606" unicode="8" /><glyph d="M98 187Q75 198 63 216Q51 234 51 257Q51 299 84.5 327.5Q118 356 169 356Q220 356 252 331Q284 306 284 267Q284 235 265 210.5Q246 186 213 177Q237 165 249.5 146Q262 127 262 102Q262 55 227 24.5Q192 -6 137 -6Q83 -6 49 21Q15 48 15 89Q15 123 37.5 150.5Q60 178 98 187ZM169 322Q137 322 115 303Q93 284 93 255Q93 228 112.5 212Q132 196 167 196Q201 196 221 215Q241 234 241 263Q241 289 221 305.5Q201 322 169 322ZM141 165Q104 165 81.5 143.5Q59 122 59 92Q59 64 81 46.5Q103 29 138 29Q172 29 195.5 49.5Q219 70 219 102Q219 132 198.5 148.5Q178 165 141 165Z" glyph-name="eight.denominator" horiz-adv-x="331" unicode="&#63069;" /><glyph d="M73 47Q50 58 38 76Q26 94 26 117Q26 159 59.5 187.5Q93 216 144 216Q195 216 227 191Q259 166 259 127Q259 95 240 70.5Q221 46 188 37Q212 25 224.5 6Q237 -13 237 -38Q237 -85 202 -115.5Q167 -146 112 -146Q58 -146 24 -119Q-10 -92 -10 -51Q-10 -17 12.5 10.5Q35 38 73 47ZM144 182Q112 182 90 163Q68 144 68 115Q68 88 87.5 72Q107 56 142 56Q176 56 196 75Q216 94 216 123Q216 149 196 165.5Q176 182 144 182ZM116 25Q79 25 56.5 3.5Q34 -18 34 -48Q34 -76 56 -93.5Q78 -111 113 -111Q147 -111 170.5 -90.5Q194 -70 194 -38Q194 -8 173.5 8.5Q153 25 116 25Z" glyph-name="eight.inferior" horiz-adv-x="331" unicode="&#8328;" /><glyph d="M160 537Q137 548 125 566Q113 584 113 607Q113 649 146.5 677.5Q180 706 231 706Q282 706 314 681Q346 656 346 617Q346 585 327 560.5Q308 536 275 527Q299 515 311.5 496Q324 477 324 452Q324 405 289 374.5Q254 344 199 344Q145 344 111 371Q77 398 77 439Q77 473 99.5 500.5Q122 528 160 537ZM231 672Q199 672 177 653Q155 634 155 605Q155 578 174.5 562Q194 546 229 546Q263 546 283 565Q303 584 303 613Q303 639 283 655.5Q263 672 231 672ZM203 515Q166 515 143.5 493.5Q121 472 121 442Q121 414 143 396.5Q165 379 200 379Q234 379 257.5 399.5Q281 420 281 452Q281 482 260.5 498.5Q240 515 203 515Z" glyph-name="eight.numerator" horiz-adv-x="331" unicode="&#63081;" /><glyph d="M185 677Q162 688 150 706Q138 724 138 747Q138 789 171.5 817.5Q205 846 256 846Q307 846 339 821Q371 796 371 757Q371 725 352 700.5Q333 676 300 667Q324 655 336.5 636Q349 617 349 592Q349 545 314 514.5Q279 484 224 484Q170 484 136 511Q102 538 102 579Q102 613 124.5 640.5Q147 668 185 677ZM256 812Q224 812 202 793Q180 774 180 745Q180 718 199.5 702Q219 686 254 686Q288 686 308 705Q328 724 328 753Q328 779 308 795.5Q288 812 256 812ZM228 655Q191 655 168.5 633.5Q146 612 146 582Q146 554 168 536.5Q190 519 225 519Q259 519 282.5 539.5Q306 560 306 592Q306 622 285.5 638.5Q265 655 228 655Z" glyph-name="eight.superior" horiz-adv-x="331" unicode="&#8312;" /><glyph d="M515 206Q515 111 447.5 49.5Q380 -12 273 -12Q171 -12 107 40.5Q43 93 43 173Q43 247 89.5 303.5Q136 360 215 375Q167 395 142.5 430Q118 465 118 513Q118 598 181.5 655Q245 712 343 712Q440 712 499.5 663Q559 614 559 539Q559 472 519 422Q479 372 408 358Q461 338 488 299.5Q515 261 515 206ZM173 515Q173 455 217.5 420.5Q262 386 338 386Q414 386 459 429.5Q504 473 504 537Q504 594 458.5 629.5Q413 665 340 665Q267 665 220 622.5Q173 580 173 515ZM280 343Q199 343 148.5 293.5Q98 244 98 175Q98 113 147 74.5Q196 36 275 36Q356 36 408 81.5Q460 127 460 200Q460 267 412 305Q364 343 280 343Z" glyph-name="eight.tab" horiz-adv-x="580" unicode="&#65304;" /><glyph d="M45 32Q45 14 57.5 1Q70 -12 88 -12Q106 -12 119 1Q132 14 132 32Q132 50 119 62.5Q106 75 88 75Q70 75 57.5 62.5Q45 50 45 32ZM52 42ZM223 32Q223 14 235.5 1Q248 -12 266 -12Q284 -12 297 1Q310 14 310 32Q310 50 297 62.5Q284 75 266 75Q248 75 235.5 62.5Q223 50 223 32ZM230 42ZM397 32Q397 14 409.5 1Q422 -12 440 -12Q458 -12 471 1Q484 14 484 32Q484 50 471 62.5Q458 75 440 75Q422 75 409.5 62.5Q397 50 397 32ZM404 42Z" glyph-name="ellipsis" horiz-adv-x="580" unicode="&#8230;" /><glyph d="M276 -12Q176 -12 115 48.5Q54 109 54 206Q54 336 129 421.5Q204 507 314 507Q401 507 455 452.5Q509 398 509 309Q509 292 506 270.5Q503 249 499 237H108Q107 232 107 226Q107 220 107 208Q107 128 154 80.5Q201 33 280 33Q325 33 365 56Q405 79 440 124L474 91Q437 41 385.5 14.5Q334 -12 276 -12ZM458 310Q458 380 417.5 421.5Q377 463 311 463Q241 463 186.5 412.5Q132 362 115 280H455Q457 289 457.5 296Q458 303 458 310ZM313 495ZM319 0ZM451 635H205L213 677H459ZM312 495Z" glyph-name="emacron" horiz-adv-x="557" unicode="&#275;" /><glyph d="M78 239 86 287H883L875 239Z" glyph-name="emdash" horiz-adv-x="956" unicode="&#8212;" /><glyph d="M78 239 86 287H514L506 239Z" glyph-name="endash" horiz-adv-x="587" unicode="&#8211;" /><glyph d="M107 208Q107 128 154 80.5Q201 33 280 33Q325 33 365 56Q405 79 440 124L474 91Q461 72 443.5 55.5Q426 39 396 19Q391 16 361 -3.5Q331 -23 316 -36Q295 -55 285 -75Q275 -95 275 -119Q275 -150 293.5 -166.5Q312 -183 345 -183Q354 -183 363.5 -181.5Q373 -180 383 -178L377 -212Q366 -216 355 -218Q344 -220 332 -220Q283 -220 255.5 -195Q228 -170 228 -127Q228 -93 246.5 -63.5Q265 -34 303 -9Q298 -11 292.5 -11.5Q287 -12 276 -12Q176 -12 115 48.5Q54 109 54 206Q54 336 129 421.5Q204 507 314 507Q401 507 455 452.5Q509 398 509 309Q509 292 506 270.5Q503 249 499 237H108Q107 232 107 226Q107 220 107 208ZM458 310Q458 380 417.5 421.5Q377 463 311 463Q241 463 186.5 412.5Q132 362 115 280H455Q457 289 457.5 296Q458 303 458 310Z" glyph-name="eogonek" horiz-adv-x="557" unicode="&#281;" /><glyph d="M83 228V276H524V228ZM83 424V472H524V424Z" glyph-name="equal" horiz-adv-x="580" unicode="=" /><glyph d="M444 22Q523 22 592.5 58.5Q662 95 709 160L736 139Q685 68 608 28Q531 -12 444 -12Q295 -12 189.5 94Q84 200 84 350Q84 500 189.5 606Q295 712 444 712Q593 712 698.5 604.5Q804 497 804 347H169V183Q211 108 284.5 65Q358 22 444 22ZM444 679Q357 679 284 636Q211 593 169 519V382H717V520Q674 593 601 636Q528 679 444 679Z" glyph-name="estimated" horiz-adv-x="828" unicode="&#8494;" /><glyph d="M357 564 332 592 398 649Q386 662 371.5 676.5Q357 691 339 706L381 738Q398 723 412 708.5Q426 694 437 681L497 734L523 705L460 651Q509 585 532.5 516Q556 447 556 362Q556 192 479.5 90Q403 -12 278 -12Q179 -12 117 51Q55 114 55 214Q55 339 131.5 423Q208 507 317 507Q389 507 440 466.5Q491 426 508 358Q508 438 487 501Q466 564 422 619ZM320 460Q233 460 170 390Q107 320 107 218Q107 136 155 85.5Q203 35 281 35Q369 35 431 105Q493 175 493 279Q493 358 444 409Q395 460 320 460Z" glyph-name="eth" horiz-adv-x="614" unicode="&#240;" /><glyph d="M103 172 183 700H245L139 172ZM62 33Q62 14 75 1Q88 -12 106 -12Q124 -12 137.5 1Q151 14 151 33Q151 51 138 64Q125 77 106 77Q88 77 75 64Q62 51 62 33Z" glyph-name="exclam" horiz-adv-x="272" unicode="!" /><glyph d="M158 322 78 -206H16L122 322ZM199 461Q199 480 186 493Q173 506 155 506Q137 506 123.5 493Q110 480 110 461Q110 443 123 430Q136 417 155 417Q173 417 186 430Q199 443 199 461Z" glyph-name="exclamdown" horiz-adv-x="251" unicode="&#161;" /><glyph d="M64 449 72 495H161L177 581Q192 663 233.5 702.5Q275 742 345 742Q363 742 383.5 738.5Q404 735 423 728L408 683Q391 690 375 693Q359 696 344 696Q296 696 267.5 667.5Q239 639 228 578L213 495H369L361 449H206L127 0H75L154 449Z" glyph-name="f" horiz-adv-x="345" unicode="f" /><glyph d="M64 449 72 495H161L177 581Q192 663 233.5 702.5Q275 742 345 742Q363 742 383.5 738.5Q404 735 423 728L408 683Q391 690 375 693Q359 696 344 696Q296 696 267.5 667.5Q239 639 228 578L213 495H369L361 449H206L127 0H75L154 449ZM409 449 417 495H506L522 581Q537 663 578.5 702.5Q620 742 690 742Q708 742 728.5 738.5Q749 735 768 728L753 683Q736 690 720 693Q704 696 689 696Q641 696 612.5 667.5Q584 639 573 578L558 495H714L706 449H551L472 0H420L499 449Z" glyph-name="f_f" horiz-adv-x="689" unicode="&#64256;" /><glyph d="M746 0 831 495H883L798 0ZM931 685Q931 702 918.5 714.5Q906 727 888 727Q871 727 858.5 714.5Q846 702 846 685Q846 667 858 655Q870 643 888 643Q906 643 918.5 655Q931 667 931 685ZM758 0ZM64 449 72 495H161L177 581Q192 663 233.5 702.5Q275 742 345 742Q363 742 383.5 738.5Q404 735 423 728L408 683Q391 690 375 693Q359 696 344 696Q296 696 267.5 667.5Q239 639 228 578L213 495H369L361 449H206L127 0H75L154 449ZM409 449 417 495H506L522 581Q537 663 578.5 702.5Q620 742 690 742Q708 742 728.5 738.5Q749 735 768 728L753 683Q736 690 720 693Q704 696 689 696Q641 696 612.5 667.5Q584 639 573 578L558 495H714L706 449H551L472 0H420L499 449Z" glyph-name="f_f_i" horiz-adv-x="939" unicode="&#64259;" /><glyph d="M745 0 874 730H926L797 0ZM900 730ZM980 700ZM902 350ZM771 0ZM64 449 72 495H161L177 581Q192 663 233.5 702.5Q275 742 345 742Q363 742 383.5 738.5Q404 735 423 728L408 683Q391 690 375 693Q359 696 344 696Q296 696 267.5 667.5Q239 639 228 578L213 495H369L361 449H206L127 0H75L154 449ZM409 449 417 495H506L522 581Q537 663 578.5 702.5Q620 742 690 742Q708 742 728.5 738.5Q749 735 768 728L753 683Q736 690 720 693Q704 696 689 696Q641 696 612.5 667.5Q584 639 573 578L558 495H714L706 449H551L472 0H420L499 449Z" glyph-name="f_f_l" horiz-adv-x="939" unicode="&#64260;" /><glyph d="M402 0 487 495H539L454 0ZM587 685Q587 702 574.5 714.5Q562 727 544 727Q527 727 514.5 714.5Q502 702 502 685Q502 667 514 655Q526 643 544 643Q562 643 574.5 655Q587 667 587 685ZM414 0ZM64 449 72 495H161L177 581Q192 663 233.5 702.5Q275 742 345 742Q363 742 383.5 738.5Q404 735 423 728L408 683Q391 690 375 693Q359 696 344 696Q296 696 267.5 667.5Q239 639 228 578L213 495H369L361 449H206L127 0H75L154 449Z" glyph-name="fi" horiz-adv-x="595" unicode="&#64257;" /><glyph d="M316 436Q407 436 462.5 384.5Q518 333 518 252Q518 134 449.5 61Q381 -12 266 -12Q174 -12 109 34.5Q44 81 30 152L80 172Q93 111 142.5 74Q192 37 267 37Q354 37 408 94.5Q462 152 462 246Q462 310 419.5 348.5Q377 387 306 387Q259 387 217 369.5Q175 352 142 319L97 343L218 700H549L540 651H254L163 385Q198 411 235.5 423.5Q273 436 316 436Z" glyph-name="five" horiz-adv-x="575" unicode="5" /><glyph d="M151 220Q199 220 227 194Q255 168 255 127Q255 68 219.5 31Q184 -6 126 -6Q79 -6 45 17Q11 40 2 77L39 94Q45 65 68 48Q91 31 126 31Q165 31 188 56Q211 81 211 123Q211 152 192 169Q173 186 140 186Q119 186 100 178.5Q81 171 68 158L35 175L90 350H269L262 313H118L82 202Q96 211 114 215.5Q132 220 151 220Z" glyph-name="five.denominator" horiz-adv-x="313" unicode="&#63066;" /><glyph d="M126 80Q174 80 202 54Q230 28 230 -13Q230 -72 194.5 -109Q159 -146 101 -146Q54 -146 20 -123Q-14 -100 -23 -63L14 -46Q20 -75 43 -92Q66 -109 101 -109Q140 -109 163 -84Q186 -59 186 -17Q186 12 167 29Q148 46 115 46Q94 46 75 38.5Q56 31 43 18L10 35L65 210H244L237 173H93L57 62Q71 71 89 75.5Q107 80 126 80Z" glyph-name="five.inferior" horiz-adv-x="313" unicode="&#8325;" /><glyph d="M213 570Q261 570 289 544Q317 518 317 477Q317 418 281.5 381Q246 344 188 344Q141 344 107 367Q73 390 64 427L101 444Q107 415 130 398Q153 381 188 381Q227 381 250 406Q273 431 273 473Q273 502 254 519Q235 536 202 536Q181 536 162 528.5Q143 521 130 508L97 525L152 700H331L324 663H180L144 552Q158 561 176 565.5Q194 570 213 570Z" glyph-name="five.numerator" horiz-adv-x="313" unicode="&#63078;" /><glyph d="M238 710Q286 710 314 684Q342 658 342 617Q342 558 306.5 521Q271 484 213 484Q166 484 132 507Q98 530 89 567L126 584Q132 555 155 538Q178 521 213 521Q252 521 275 546Q298 571 298 613Q298 642 279 659Q260 676 227 676Q206 676 187 668.5Q168 661 155 648L122 665L177 840H356L349 803H205L169 692Q183 701 201 705.5Q219 710 238 710Z" glyph-name="five.superior" horiz-adv-x="313" unicode="&#8309;" /><glyph d="M319 436Q410 436 465.5 384.5Q521 333 521 252Q521 134 452.5 61Q384 -12 269 -12Q177 -12 112 34.5Q47 81 33 152L83 172Q96 111 145.5 74Q195 37 270 37Q357 37 411 94.5Q465 152 465 246Q465 310 422.5 348.5Q380 387 309 387Q262 387 220 369.5Q178 352 145 319L100 343L221 700H552L543 651H257L166 385Q201 411 238.5 423.5Q276 436 319 436Z" glyph-name="five.tab" horiz-adv-x="580" unicode="&#65301;" /><glyph d="M401 0 530 730H582L453 0ZM556 730ZM636 700ZM558 350ZM427 0ZM64 449 72 495H161L177 581Q192 663 233.5 702.5Q275 742 345 742Q363 742 383.5 738.5Q404 735 423 728L408 683Q391 690 375 693Q359 696 344 696Q296 696 267.5 667.5Q239 639 228 578L213 495H369L361 449H206L127 0H75L154 449Z" glyph-name="fl" horiz-adv-x="595" unicode="&#64258;" /><glyph d="M243 399 162 -69Q148 -149 105.5 -189.5Q63 -230 -8 -230Q-26 -230 -45.5 -226.5Q-65 -223 -85 -216L-70 -171Q-53 -178 -37.5 -181Q-22 -184 -6 -184Q43 -184 71 -155.5Q99 -127 110 -66L191 399H67L74 445H200L223 581Q236 660 279 701Q322 742 392 742Q410 742 430 738.5Q450 735 469 728L455 683Q438 690 422 693Q406 696 390 696Q342 696 314 667.5Q286 639 275 578L252 445H391L383 399Z" glyph-name="florin" horiz-adv-x="406" /><glyph d="M393 229 425 409 484 428 448 229H557L549 179H440L408 0H353L385 179H19L26 222L450 700H518L100 229Z" glyph-name="four" horiz-adv-x="594" unicode="4" /><glyph d="M192 122 207 203 252 218 236 122H289L283 86H229L215 0H171L186 86H-3L3 120L208 350H261L59 122Z" glyph-name="four.denominator" horiz-adv-x="337" unicode="&#63065;" /><glyph d="M167 -18 182 63 227 78 211 -18H264L258 -54H204L190 -140H146L161 -54H-28L-22 -20L183 210H236L34 -18Z" glyph-name="four.inferior" horiz-adv-x="337" unicode="&#8324;" /><glyph d="M253 472 268 553 313 568 297 472H350L344 436H290L276 350H232L247 436H58L64 470L269 700H322L120 472Z" glyph-name="four.numerator" horiz-adv-x="337" unicode="&#63077;" /><glyph d="M278 612 293 693 338 708 322 612H375L369 576H315L301 490H257L272 576H83L89 610L294 840H347L145 612Z" glyph-name="four.superior" horiz-adv-x="337" unicode="&#8308;" /><glyph d="M385 229 417 409 476 428 440 229H549L541 179H432L400 0H345L377 179H11L18 222L442 700H510L92 229Z" glyph-name="four.tab" horiz-adv-x="580" unicode="&#65300;" /><glyph d="M-83 0H-130L278 700H324Z" glyph-name="fraction" horiz-adv-x="160" unicode="&#8260;" /><glyph d="M74 0 198 700H635L625 649H244L197 383H549L540 331H188L129 0ZM577 0 663 495H713L692 374Q720 435 761.5 467Q803 499 855 499Q866 499 875 498Q884 497 894 495L884 446Q875 448 866.5 448.5Q858 449 846 449Q783 449 735 388.5Q687 328 669 226L629 0Z" glyph-name="franc" horiz-adv-x="888" unicode="&#8355;" /><glyph d="M260 -1Q173 -1 117 59.5Q61 120 61 210Q61 338 130 422.5Q199 507 305 507Q374 507 422.5 469Q471 431 488 365L512 495H562L473 -15Q454 -121 394 -175.5Q334 -230 234 -230Q162 -230 100 -198.5Q38 -167 3 -116L42 -82Q79 -132 128 -158Q177 -184 235 -184Q312 -184 359 -139.5Q406 -95 421 -10L440 101Q407 52 360.5 25.5Q314 -1 260 -1ZM114 219Q114 141 156.5 93.5Q199 46 270 46Q354 46 412 116.5Q470 187 470 284Q470 363 426 411.5Q382 460 308 460Q226 460 170 390.5Q114 321 114 219ZM316 495Z" glyph-name="g" horiz-adv-x="617" unicode="g" /><glyph d="M260 -1Q173 -1 117 59.5Q61 120 61 210Q61 338 130 422.5Q199 507 305 507Q374 507 422.5 469Q471 431 488 365L512 495H562L473 -15Q454 -121 394 -175.5Q334 -230 234 -230Q162 -230 100 -198.5Q38 -167 3 -116L42 -82Q79 -132 128 -158Q177 -184 235 -184Q312 -184 359 -139.5Q406 -95 421 -10L440 101Q407 52 360.5 25.5Q314 -1 260 -1ZM114 219Q114 141 156.5 93.5Q199 46 270 46Q354 46 412 116.5Q470 187 470 284Q470 363 426 411.5Q382 460 308 460Q226 460 170 390.5Q114 321 114 219ZM316 495ZM328 623Q368 623 392 649.5Q416 676 422 726H462Q456 659 421 622Q386 585 326 585Q266 585 235 624Q204 663 210 726H249Q246 676 266.5 649.5Q287 623 328 623ZM316 495Z" glyph-name="gbreve" horiz-adv-x="617" unicode="&#287;" /><glyph d="M216 587 308 726H366L435 587H388L334 686L262 587ZM316 495ZM260 -1Q173 -1 117 59.5Q61 120 61 210Q61 338 130 422.5Q199 507 305 507Q374 507 422.5 469Q471 431 488 365L512 495H562L473 -15Q454 -121 394 -175.5Q334 -230 234 -230Q162 -230 100 -198.5Q38 -167 3 -116L42 -82Q79 -132 128 -158Q177 -184 235 -184Q312 -184 359 -139.5Q406 -95 421 -10L440 101Q407 52 360.5 25.5Q314 -1 260 -1ZM114 219Q114 141 156.5 93.5Q199 46 270 46Q354 46 412 116.5Q470 187 470 284Q470 363 426 411.5Q382 460 308 460Q226 460 170 390.5Q114 321 114 219ZM316 495Z" glyph-name="gcircumflex" horiz-adv-x="617" unicode="&#285;" /><glyph d="M260 -1Q173 -1 117 59.5Q61 120 61 210Q61 338 130 422.5Q199 507 305 507Q374 507 422.5 469Q471 431 488 365L512 495H562L473 -15Q454 -121 394 -175.5Q334 -230 234 -230Q162 -230 100 -198.5Q38 -167 3 -116L42 -82Q79 -132 128 -158Q177 -184 235 -184Q312 -184 359 -139.5Q406 -95 421 -10L440 101Q407 52 360.5 25.5Q314 -1 260 -1ZM114 219Q114 141 156.5 93.5Q199 46 270 46Q354 46 412 116.5Q470 187 470 284Q470 363 426 411.5Q382 460 308 460Q226 460 170 390.5Q114 321 114 219ZM316 495ZM290 656Q290 637 303.5 623.5Q317 610 336 610Q355 610 368.5 623.5Q382 637 382 656Q382 676 368.5 689.5Q355 703 336 703Q317 703 303.5 689Q290 675 290 656ZM316 495Z" glyph-name="gdotaccent" horiz-adv-x="617" unicode="&#289;" /><glyph d="M108 0H56L150 537Q167 632 225.5 687Q284 742 374 742Q459 742 509 697.5Q559 653 559 580Q559 509 516 454.5Q473 400 404 385Q459 371 493 326.5Q527 282 527 226Q527 129 456.5 64.5Q386 0 281 0H231L239 47H289Q369 47 421.5 98.5Q474 150 474 227Q474 288 434 325.5Q394 363 326 363H294L302 408H329Q407 408 456.5 454.5Q506 501 506 574Q506 631 470.5 663.5Q435 696 372 696Q304 696 259 651.5Q214 607 201 530Z" glyph-name="germandbls" horiz-adv-x="588" unicode="&#223;" /><glyph d="M268 587 193 726H131L218 587ZM245 495Z" glyph-name="grave" horiz-adv-x="385" unicode="`" /><glyph d="M268 787 193 926H131L218 787ZM245 700Z" glyph-name="grave.case" horiz-adv-x="385" /><glyph d="M561 383V340L111 146V197L499 361L111 526V577Z" glyph-name="greater" horiz-adv-x="580" unicode="&gt;" /><glyph d="M525 338V380L75 570V518L462 359L75 200V148ZM525 0V48H75V0Z" glyph-name="greaterequal" horiz-adv-x="580" unicode="&#8805;" /><glyph d="M54 267 296 439 284 371 98 242 240 114 229 52 46 223ZM262 267 504 439 492 371 306 242 448 114 437 52 254 223Z" glyph-name="guillemotleft" horiz-adv-x="544" /><glyph d="M490 225 248 53 260 121 446 250 304 378 315 440 498 269ZM282 225 40 53 52 121 238 250 96 378 107 440 290 269Z" glyph-name="guillemotright" horiz-adv-x="544" /><glyph d="M55 267 297 439 285 371 99 242 241 114 230 52 47 223Z" glyph-name="guilsinglleft" horiz-adv-x="339" unicode="&#8249;" /><glyph d="M283 225 41 53 53 121 239 250 97 378 108 440 291 269Z" glyph-name="guilsinglright" horiz-adv-x="339" unicode="&#8250;" /><glyph d="M525 293 474 0H421L472 287Q486 365 450.5 411.5Q415 458 339 458Q268 458 220 408Q172 358 156 272L107 0H55L185 730H237L180 411Q212 458 254.5 482.5Q297 507 349 507Q442 507 491.5 446.5Q541 386 525 293ZM211 730Z" glyph-name="h" horiz-adv-x="607" unicode="h" /><glyph d="M525 293 474 0H421L472 287Q486 365 450.5 411.5Q415 458 339 458Q269 458 220.5 408Q172 358 156 272L107 0H55L162 600H71L80 645H170L185 730H237L222 645H389L380 600H214L180 411Q212 458 254.5 482.5Q297 507 349 507Q441 507 491 446.5Q541 386 525 293Z" glyph-name="hbar" horiz-adv-x="607" unicode="&#295;" /><glyph d="M111 823 203 962H261L330 823H283L229 922L157 823ZM211 731ZM525 293 474 0H421L472 287Q486 365 450.5 411.5Q415 458 339 458Q268 458 220 408Q172 358 156 272L107 0H55L185 730H237L180 411Q212 458 254.5 482.5Q297 507 349 507Q442 507 491.5 446.5Q541 386 525 293ZM211 730Z" glyph-name="hcircumflex" horiz-adv-x="607" unicode="&#293;" /><glyph d="M202 726H145L45 587H90ZM319 726H258L143 587H190ZM123 495Z" glyph-name="hungarumlaut" horiz-adv-x="378" unicode="&#733;" /><glyph d="M202 926H145L45 787H90ZM319 926H258L143 787H190ZM119 700Z" glyph-name="hungarumlaut.case" horiz-adv-x="378" /><glyph d="M78 239 86 288H347L339 239Z" glyph-name="hyphen" horiz-adv-x="419" unicode="-" /><glyph d="M57 0 142 495H194L109 0ZM242 685Q242 702 229.5 714.5Q217 727 199 727Q182 727 169.5 714.5Q157 702 157 685Q157 667 169 655Q181 643 199 643Q217 643 229.5 655Q242 667 242 685ZM69 0Z" glyph-name="i" horiz-adv-x="250" unicode="i" /><glyph d="M316 726H254L154 587H205ZM168 495ZM57 0 142 495H194L109 0ZM168 495Z" glyph-name="iacute" horiz-adv-x="250" unicode="&#237;" /><glyph d="M68 587 160 726H218L287 587H240L186 686L114 587ZM168 495ZM57 0 142 495H194L109 0ZM168 495Z" glyph-name="icircumflex" horiz-adv-x="250" unicode="&#238;" /><glyph d="M76 656Q76 640 87.5 628.5Q99 617 116 617Q133 617 144.5 628.5Q156 640 156 656Q156 673 144.5 684.5Q133 696 116 696Q100 696 88 684.5Q76 673 76 656ZM216 656Q216 640 227.5 628.5Q239 617 255 617Q272 617 283.5 628.5Q295 640 295 656Q295 673 283.5 684.5Q272 696 255 696Q239 696 227.5 684.5Q216 673 216 656ZM168 495ZM57 0 142 495H194L109 0ZM168 495Z" glyph-name="idieresis" horiz-adv-x="250" unicode="&#239;" /><glyph d="M57 0 142 495H194L109 0ZM168 495ZM191 587 116 726H54L141 587ZM168 495Z" glyph-name="igrave" horiz-adv-x="250" unicode="&#236;" /><glyph d="M57 0 142 495H194L109 0ZM242 685Q242 702 229.5 714.5Q217 727 199 727Q182 727 169.5 714.5Q157 702 157 685Q157 667 169 655Q181 643 199 643Q217 643 229.5 655Q242 667 242 685ZM69 0ZM497 685Q497 702 484.5 714.5Q472 727 454 727Q437 727 424.5 714.5Q412 702 412 685Q412 667 424 655Q436 643 454 643Q472 643 484.5 655Q497 667 497 685ZM397 495H449L350 -69Q335 -154 294.5 -192Q254 -230 182 -230Q166 -230 149.5 -227Q133 -224 118 -219L133 -175Q149 -180 161.5 -182Q174 -184 185 -184Q233 -184 260.5 -156Q288 -128 299 -67Z" glyph-name="ij" horiz-adv-x="504" unicode="&#307;" /><glyph d="M57 0 142 495H194L109 0ZM168 495ZM306 635H60L68 677H314ZM167 495Z" glyph-name="imacron" horiz-adv-x="250" unicode="&#299;" /><glyph d="M608 419Q672 419 712.5 375Q753 331 753 260Q753 189 712.5 145Q672 101 608 101Q565 101 522.5 126.5Q480 152 408 229Q343 152 303 126.5Q263 101 216 101Q152 101 112 145Q72 189 72 260Q72 331 112 375Q152 419 216 419Q264 419 307 392.5Q350 366 411 296Q475 368 517.5 393.5Q560 419 608 419ZM703 260Q703 311 676.5 341.5Q650 372 607 372Q568 372 533 351Q498 330 439 264Q493 199 532 173.5Q571 148 607 148Q650 148 676.5 179Q703 210 703 260ZM218 372Q174 372 147.5 341.5Q121 311 121 260Q121 210 148 179Q175 148 218 148Q253 148 284.5 167.5Q316 187 381 262Q326 328 291 350Q256 372 218 372Z" glyph-name="infinity" horiz-adv-x="820" unicode="&#8734;" /><glyph d="M190 577V-68Q190 -144 151 -187Q112 -230 40 -230Q21 -230 3 -227Q-15 -224 -35 -217L-24 -172Q-11 -178 5 -181Q21 -184 38 -184Q89 -184 113.5 -155Q138 -126 138 -65V580Q138 656 176.5 699Q215 742 287 742Q307 742 324.5 739Q342 736 361 729L351 684Q337 690 321 693Q305 696 289 696Q239 696 214.5 667Q190 638 190 577Z" glyph-name="integral" horiz-adv-x="323" unicode="&#8747;" /><glyph d="M157 685Q157 702 169.5 714.5Q182 727 199 727Q217 727 229.5 714.5Q242 702 242 685Q242 667 229.5 655Q217 643 199 643Q181 643 169 655Q157 667 157 685ZM142 495H194L109 0H101Q37 -31 6 -63Q-25 -95 -25 -130Q-25 -155 -8 -169Q9 -183 40 -183Q48 -183 55.5 -182Q63 -181 73 -178L67 -212Q59 -216 49.5 -218Q40 -220 27 -220Q-20 -220 -46 -198Q-72 -176 -72 -139Q-72 -99 -38 -61Q-4 -23 58 4Z" glyph-name="iogonek" horiz-adv-x="250" unicode="&#303;" /><glyph d="M57 0 142 495H194L109 0ZM168 495ZM185 635Q209 617 222.5 611.5Q236 606 250 606Q280 606 299 628.5Q318 651 322 692H283Q281 671 272 660Q263 649 247 649Q237 649 226 654Q215 659 193 675Q167 695 152 701Q137 707 122 707Q89 707 68.5 684Q48 661 41 617H80Q84 640 95 652Q106 664 122 664Q136 664 149 658.5Q162 653 185 635ZM167 495Z" glyph-name="itilde" horiz-adv-x="250" unicode="&#297;" /><glyph d="M247 685Q247 702 234.5 714.5Q222 727 204 727Q187 727 174.5 714.5Q162 702 162 685Q162 667 174 655Q186 643 204 643Q222 643 234.5 655Q247 667 247 685ZM147 495H199L100 -69Q85 -154 44.5 -192Q4 -230 -68 -230Q-84 -230 -100.5 -227Q-117 -224 -132 -219L-117 -175Q-101 -180 -88.5 -182Q-76 -184 -65 -184Q-17 -184 10.5 -156Q38 -128 49 -67Z" glyph-name="j" horiz-adv-x="254" unicode="j" /><glyph d="M73 587 165 726H223L292 587H245L191 686L119 587ZM173 495ZM49 -67 147 495H199L100 -69Q85 -154 44.5 -192Q4 -230 -68 -230Q-84 -230 -100.5 -227Q-117 -224 -132 -219L-117 -175Q-101 -180 -88.5 -182Q-76 -184 -65 -184Q-17 -184 10.5 -156Q38 -128 49 -67ZM173 495Z" glyph-name="jcircumflex" horiz-adv-x="254" unicode="&#309;" /><glyph d="M314 310 479 0H422L273 279L138 173L108 0H56L184 730H236L150 239L473 495H546ZM264 0Z" glyph-name="k" horiz-adv-x="538" unicode="k" /><glyph d="M56 0 143 495H195L150 239L473 495H546L314 310L479 0H422L273 279L138 173L108 0Z" glyph-name="kgreenlandic" horiz-adv-x="539" /><glyph d="M56 0 185 730H237L108 0ZM211 730ZM291 700ZM213 350ZM82 0Z" glyph-name="l" horiz-adv-x="250" unicode="l" /><glyph d="M359 962H297L197 823H248ZM211 731ZM56 0 185 730H237L108 0ZM211 730ZM291 700ZM213 350ZM82 0Z" glyph-name="lacute" horiz-adv-x="250" unicode="&#314;" /><glyph d="M409 730H352L302 592H345ZM291 700ZM56 0 185 730H237L108 0ZM211 730ZM291 700ZM213 350ZM82 0Z" glyph-name="lcaron" horiz-adv-x="280" unicode="&#318;" /><glyph d="M56 0 185 730H237L108 0ZM211 730ZM291 700ZM213 350ZM82 0ZM236 354Q236 336 248.5 323Q261 310 279 310Q297 310 310 323Q323 336 323 354Q323 372 310 384.5Q297 397 279 397Q261 397 248.5 384.5Q236 372 236 354ZM243 364Z" glyph-name="ldot" horiz-adv-x="264" unicode="&#320;" /><glyph d="M59 340V383L509 577V526L121 362L509 197V146Z" glyph-name="less" horiz-adv-x="580" unicode="&lt;" /><glyph d="M60 338V380L510 570V518L123 359L510 200V148ZM60 0V48H510V0Z" glyph-name="lessequal" horiz-adv-x="580" unicode="&#8804;" /><glyph d="M56 0 185 730H237L108 0ZM211 730ZM291 700ZM213 350ZM82 0ZM325 0 454 730H506L377 0ZM480 730ZM560 700ZM482 350ZM351 0ZM236 354Q236 336 248.5 323Q261 310 279 310Q297 310 310 323Q323 336 323 354Q323 372 310 384.5Q297 397 279 397Q261 397 248.5 384.5Q236 372 236 354ZM243 364Z" glyph-name="lgeminada" horiz-adv-x="519" /><glyph d="M507 130H459V332H66V379H507Z" glyph-name="logicalnot" horiz-adv-x="580" unicode="&#172;" /><glyph d="M64 449 72 495H161L177 581Q192 661 234.5 701.5Q277 742 346 742Q364 742 383.5 738.5Q403 735 423 728L408 683Q391 690 375.5 693Q360 696 344 696Q295 696 267 667.5Q239 639 228 578L127 0H75L154 449Z" glyph-name="longs" horiz-adv-x="290" unicode="&#383;" /><glyph d="M64 449 72 495H161L177 581Q192 661 234.5 701.5Q277 742 346 742Q364 742 383.5 738.5Q403 735 423 728L408 683Q391 690 375.5 693Q360 696 344 696Q295 696 267 667.5Q239 639 228 578L127 0H75L154 449ZM438 449H351L358 495H447L480 682L535 700L499 495H662L655 449H491L436 141Q427 89 446.5 62Q466 35 515 35Q536 35 556.5 41.5Q577 48 598 62L615 21Q590 5 563.5 -3.5Q537 -12 510 -12Q438 -12 404.5 27.5Q371 67 383 135ZM595 701ZM483 10ZM400 0Z" glyph-name="longs_t" horiz-adv-x="663" unicode="&#64261;" /><glyph d="M248 0 65 357 250 700H301L486 357L303 0ZM276 648 119 356 276 51 432 356Z" glyph-name="lozenge" horiz-adv-x="513" unicode="&#9674;" /><glyph d="M61 287 38 326 167 398 226 730H278L225 430L330 489L352 448L215 372L149 0H97L157 340Z" glyph-name="lslash" horiz-adv-x="333" unicode="&#322;" /><glyph d="M491 265 446 0H393L444 290Q457 366 426.5 412Q396 458 328 458Q262 458 217 408Q172 358 156 268L109 0H56L143 495H192L177 406Q206 455 248 481Q290 507 340 507Q402 507 443.5 473.5Q485 440 496 382Q526 442 572.5 474.5Q619 507 676 507Q761 507 805 447.5Q849 388 833 297L782 0H729L780 290Q793 366 762.5 412Q732 458 664 458Q598 458 552 406.5Q506 355 491 265Z" glyph-name="m" horiz-adv-x="914" unicode="m" /><glyph d="M315 635H69L77 677H323ZM176 495Z" glyph-name="macron" horiz-adv-x="389" unicode="&#175;" /><glyph d="M315 835H69L77 877H323ZM183 700Z" glyph-name="macron.case" horiz-adv-x="389" /><glyph d="M86 327V375H527V327Z" glyph-name="minus" horiz-adv-x="580" unicode="&#8722;" /><glyph d="M551 495 465 0H415L431 90Q400 40 356 14Q312 -12 258 -12Q207 -12 170 9.5Q133 31 116 71L94 -78L69 -218H17L143 495H195L144 209Q130 131 163 84Q196 37 268 37Q340 37 388 87.5Q436 138 452 227L499 495Z" glyph-name="mu" horiz-adv-x="607" unicode="&#181;" /><glyph d="M139 153 105 187 269 350 105 514 139 548 303 384 467 548 500 514 337 350 500 187 467 153 303 316Z" glyph-name="multiply" horiz-adv-x="580" unicode="&#215;" /><glyph d="M526 293 475 0H422L473 287Q487 365 451.5 411.5Q416 458 340 458Q268 458 220 408Q172 358 156 269L108 0H55L144 495H193L178 404Q210 455 254 481Q298 507 352 507Q444 507 493 446.5Q542 386 526 293ZM146 587ZM347 495ZM265 0Z" glyph-name="n" horiz-adv-x="608" unicode="n" /><glyph d="M495 726H433L333 587H384ZM347 495ZM526 293 475 0H422L473 287Q487 365 451.5 411.5Q416 458 340 458Q268 458 220 408Q172 358 156 269L108 0H55L144 495H193L178 404Q210 455 254 481Q298 507 352 507Q444 507 493 446.5Q542 386 526 293ZM146 587ZM347 495ZM265 0Z" glyph-name="nacute" horiz-adv-x="608" unicode="&#324;" /><glyph d="M205 726H146L85 580H132ZM186 798ZM146 587ZM526 293 475 0H422L473 287Q487 365 451.5 411.5Q416 458 340 458Q268 458 220 408Q172 358 156 269L108 0H55L144 495H193L178 404Q210 455 254 481Q298 507 352 507Q444 507 493 446.5Q542 386 526 293ZM146 587ZM347 495ZM265 0Z" glyph-name="napostrophe" horiz-adv-x="608" unicode="&#329;" /><glyph d="M385 587H327L259 726H305L360 627L432 726H478ZM347 495ZM526 293 475 0H422L473 287Q487 365 451.5 411.5Q416 458 340 458Q268 458 220 408Q172 358 156 269L108 0H55L144 495H193L178 404Q210 455 254 481Q298 507 352 507Q444 507 493 446.5Q542 386 526 293ZM146 587ZM347 495ZM265 0Z" glyph-name="ncaron" horiz-adv-x="608" unicode="&#328;" /><glyph d="M281 275Q193 275 138 326.5Q83 378 83 461Q83 567 153 639.5Q223 712 328 712Q421 712 480 656Q539 600 539 512Q539 453 511 393Q483 333 421 257L210 0H143L366 268Q377 281 384 290Q391 299 398 310Q374 293 344.5 284Q315 275 281 275ZM299 321Q380 321 432.5 373.5Q485 426 485 507Q485 578 441.5 621Q398 664 326 664Q247 664 192 606.5Q137 549 137 465Q137 399 180.5 360Q224 321 299 321Z" glyph-name="nine" horiz-adv-x="554" unicode="9" /><glyph d="M124 136Q81 136 54.5 161.5Q28 187 28 228Q28 281 64.5 318.5Q101 356 154 356Q204 356 235 328Q266 300 266 255Q266 225 252 193.5Q238 162 208 126L105 0H54L175 149Q163 142 151 139Q139 136 124 136ZM71 234Q71 203 89.5 185.5Q108 168 140 168Q176 168 199.5 191.5Q223 215 223 252Q223 283 204 302Q185 321 153 321Q119 321 95 296Q71 271 71 234Z" glyph-name="nine.denominator" horiz-adv-x="305" unicode="&#63070;" /><glyph d="M100 -4Q57 -4 30.5 21.5Q4 47 4 88Q4 141 40.5 178.5Q77 216 130 216Q180 216 211 188Q242 160 242 115Q242 85 228 53.5Q214 22 184 -14L81 -140H30L151 9Q139 2 127 -1Q115 -4 100 -4ZM47 94Q47 63 65.5 45.5Q84 28 116 28Q152 28 175.5 51.5Q199 75 199 112Q199 143 180 162Q161 181 129 181Q95 181 71 156Q47 131 47 94Z" glyph-name="nine.inferior" horiz-adv-x="305" unicode="&#8329;" /><glyph d="M186 486Q143 486 116.5 511.5Q90 537 90 578Q90 631 126.5 668.5Q163 706 216 706Q266 706 297 678Q328 650 328 605Q328 575 314 543.5Q300 512 270 476L167 350H116L237 499Q225 492 213 489Q201 486 186 486ZM133 584Q133 553 151.5 535.5Q170 518 202 518Q238 518 261.5 541.5Q285 565 285 602Q285 633 266 652Q247 671 215 671Q181 671 157 646Q133 621 133 584Z" glyph-name="nine.numerator" horiz-adv-x="305" unicode="&#63082;" /><glyph d="M211 626Q168 626 141.5 651.5Q115 677 115 718Q115 771 151.5 808.5Q188 846 241 846Q291 846 322 818Q353 790 353 745Q353 715 339 683.5Q325 652 295 616L192 490H141L262 639Q250 632 238 629Q226 626 211 626ZM158 724Q158 693 176.5 675.5Q195 658 227 658Q263 658 286.5 681.5Q310 705 310 742Q310 773 291 792Q272 811 240 811Q206 811 182 786Q158 761 158 724Z" glyph-name="nine.superior" horiz-adv-x="305" unicode="&#8313;" /><glyph d="M294 275Q206 275 151 326.5Q96 378 96 461Q96 567 166 639.5Q236 712 341 712Q434 712 493 656Q552 600 552 512Q552 453 524 393Q496 333 434 257L223 0H156L379 268Q390 281 397 290Q404 299 411 310Q387 293 357.5 284Q328 275 294 275ZM312 321Q393 321 445.5 373.5Q498 426 498 507Q498 578 454.5 621Q411 664 339 664Q260 664 205 606.5Q150 549 150 465Q150 399 193.5 360Q237 321 312 321Z" glyph-name="nine.tab" horiz-adv-x="580" unicode="&#65305;" /><glyph d="M202 149H147L196 228H82V276H226L319 424H82V472H348L399 553H454L403 472H523V424H374L281 276H523V228H251Z" glyph-name="notequal" horiz-adv-x="580" unicode="&#8800;" /><glyph d="M526 293 475 0H422L473 287Q487 365 451.5 411.5Q416 458 340 458Q268 458 220 408Q172 358 156 269L108 0H55L144 495H193L178 404Q210 455 254 481Q298 507 352 507Q444 507 493 446.5Q542 386 526 293ZM146 587ZM347 495ZM265 0ZM365 635Q389 617 402.5 611.5Q416 606 430 606Q460 606 479 628.5Q498 651 502 692H463Q461 671 452 660Q443 649 427 649Q417 649 406 654Q395 659 373 675Q347 695 332 701Q317 707 302 707Q269 707 248.5 684Q228 661 221 617H260Q264 640 275 652Q286 664 302 664Q316 664 329 658.5Q342 653 365 635ZM347 495Z" glyph-name="ntilde" horiz-adv-x="608" unicode="&#241;" /><glyph d="M229 209 192 0H143L180 209H52L60 253H188L221 437H92L100 481H229L267 700H316L277 481H464L502 700H551L512 481H640L632 437H504L471 253H600L592 209H464L427 0H378L415 209ZM269 437 236 253H423L456 437Z" glyph-name="numbersign" horiz-adv-x="657" unicode="#" /><glyph d="M322 507Q420 507 483 443Q546 379 546 280Q546 155 469 71.5Q392 -12 279 -12Q180 -12 117.5 51.5Q55 115 55 215Q55 341 132 424Q209 507 322 507ZM493 276Q493 356 445 408Q397 460 321 460Q231 460 169.5 392Q108 324 108 220Q108 137 155.5 86Q203 35 281 35Q371 35 432 103Q493 171 493 276ZM324 495Z" glyph-name="o" horiz-adv-x="600" unicode="o" /><glyph d="M472 726H410L310 587H361ZM324 495ZM322 507Q420 507 483 443Q546 379 546 280Q546 155 469 71.5Q392 -12 279 -12Q180 -12 117.5 51.5Q55 115 55 215Q55 341 132 424Q209 507 322 507ZM493 276Q493 356 445 408Q397 460 321 460Q231 460 169.5 392Q108 324 108 220Q108 137 155.5 86Q203 35 281 35Q371 35 432 103Q493 171 493 276ZM324 495Z" glyph-name="oacute" horiz-adv-x="600" unicode="&#243;" /><glyph d="M322 507Q420 507 483 443Q546 379 546 280Q546 155 469 71.5Q392 -12 279 -12Q180 -12 117.5 51.5Q55 115 55 215Q55 341 132 424Q209 507 322 507ZM493 276Q493 356 445 408Q397 460 321 460Q231 460 169.5 392Q108 324 108 220Q108 137 155.5 86Q203 35 281 35Q371 35 432 103Q493 171 493 276ZM324 495ZM336 623Q376 623 400 649.5Q424 676 430 726H470Q464 659 429 622Q394 585 334 585Q274 585 243 624Q212 663 218 726H257Q254 676 274.5 649.5Q295 623 336 623ZM324 495Z" glyph-name="obreve" horiz-adv-x="600" unicode="&#335;" /><glyph d="M224 587 316 726H374L443 587H396L342 686L270 587ZM324 495ZM322 507Q420 507 483 443Q546 379 546 280Q546 155 469 71.5Q392 -12 279 -12Q180 -12 117.5 51.5Q55 115 55 215Q55 341 132 424Q209 507 322 507ZM493 276Q493 356 445 408Q397 460 321 460Q231 460 169.5 392Q108 324 108 220Q108 137 155.5 86Q203 35 281 35Q371 35 432 103Q493 171 493 276ZM324 495Z" glyph-name="ocircumflex" horiz-adv-x="600" unicode="&#244;" /><glyph d="M233 656Q233 640 244.5 628.5Q256 617 273 617Q290 617 301.5 628.5Q313 640 313 656Q313 673 301.5 684.5Q290 696 273 696Q257 696 245 684.5Q233 673 233 656ZM373 656Q373 640 384.5 628.5Q396 617 412 617Q429 617 440.5 628.5Q452 640 452 656Q452 673 440.5 684.5Q429 696 412 696Q396 696 384.5 684.5Q373 673 373 656ZM325 495ZM322 507Q420 507 483 443Q546 379 546 280Q546 155 469 71.5Q392 -12 279 -12Q180 -12 117.5 51.5Q55 115 55 215Q55 341 132 424Q209 507 322 507ZM493 276Q493 356 445 408Q397 460 321 460Q231 460 169.5 392Q108 324 108 220Q108 137 155.5 86Q203 35 281 35Q371 35 432 103Q493 171 493 276ZM324 495Z" glyph-name="odieresis" horiz-adv-x="600" unicode="&#246;" /><glyph d="M713 -12Q633 -12 578 29.5Q523 71 507 142Q476 71 414 29.5Q352 -12 276 -12Q178 -12 116.5 51.5Q55 115 55 215Q55 341 131.5 424Q208 507 320 507Q396 507 452.5 463Q509 419 526 348Q556 421 617 464Q678 507 751 507Q837 507 890.5 452.5Q944 398 944 309Q944 292 941 270.5Q938 249 934 237H542Q541 231 541 225.5Q541 220 541 208Q541 128 588 80.5Q635 33 714 33Q759 33 799 56Q839 79 874 125L908 91Q872 42 821.5 15Q771 -12 713 -12ZM893 310Q893 380 852.5 421.5Q812 463 745 463Q676 463 621 412.5Q566 362 549 280H890Q892 289 892.5 296Q893 303 893 310ZM493 276Q493 357 445 408.5Q397 460 321 460Q230 460 169 392.5Q108 325 108 220Q108 138 156 86.5Q204 35 281 35Q370 35 431.5 103.5Q493 172 493 276Z" glyph-name="oe" horiz-adv-x="991" unicode="&#339;" /><glyph d="M209 -220Q163 -220 137.5 -198Q112 -176 112 -139Q112 -97 146 -58Q180 -19 242 6L279 0Q220 -28 189.5 -61Q159 -94 159 -130Q159 -155 175.5 -169Q192 -183 222 -183Q231 -183 240 -182Q249 -181 258 -178L252 -212Q244 -216 233.5 -218Q223 -220 209 -220ZM243 0Z" glyph-name="ogonek" horiz-adv-x="387" unicode="&#731;" /><glyph d="M322 507Q420 507 483 443Q546 379 546 280Q546 155 469 71.5Q392 -12 279 -12Q180 -12 117.5 51.5Q55 115 55 215Q55 341 132 424Q209 507 322 507ZM493 276Q493 356 445 408Q397 460 321 460Q231 460 169.5 392Q108 324 108 220Q108 137 155.5 86Q203 35 281 35Q371 35 432 103Q493 171 493 276ZM324 495ZM347 587 272 726H210L297 587ZM324 495Z" glyph-name="ograve" horiz-adv-x="600" unicode="&#242;" /><glyph d="M403 726H346L246 587H291ZM520 726H459L344 587H391ZM324 495ZM322 507Q420 507 483 443Q546 379 546 280Q546 155 469 71.5Q392 -12 279 -12Q180 -12 117.5 51.5Q55 115 55 215Q55 341 132 424Q209 507 322 507ZM493 276Q493 356 445 408Q397 460 321 460Q231 460 169.5 392Q108 324 108 220Q108 137 155.5 86Q203 35 281 35Q371 35 432 103Q493 171 493 276ZM324 495Z" glyph-name="ohungarumlaut" horiz-adv-x="600" unicode="&#337;" /><glyph d="M463 635H217L225 677H471ZM324 495ZM322 507Q420 507 483 443Q546 379 546 280Q546 155 469 71.5Q392 -12 279 -12Q180 -12 117.5 51.5Q55 115 55 215Q55 341 132 424Q209 507 322 507ZM493 276Q493 356 445 408Q397 460 321 460Q231 460 169.5 392Q108 324 108 220Q108 137 155.5 86Q203 35 281 35Q371 35 432 103Q493 171 493 276ZM324 495Z" glyph-name="omacron" horiz-adv-x="600" unicode="&#333;" /><glyph d="M39 0 48 51H194L292 607Q255 570 208 552.5Q161 535 99 535L108 586Q180 586 230.5 613Q281 640 317 700H364L249 51H396L386 0Z" glyph-name="one" horiz-adv-x="446" unicode="1" /><glyph d="M221 0H166L273 607Q236 570 189 552.5Q142 535 80 535L89 586Q161 586 211.5 613Q262 640 298 700H345Z" glyph-name="one.alt" horiz-adv-x="378" /><glyph d="M7 0 13 37H90L134 290Q114 273 89 264Q64 255 34 255L42 292Q79 292 106.5 307Q134 322 151 350H187L133 37H209L202 0Z" glyph-name="one.denominator" horiz-adv-x="266" unicode="&#63062;" /><glyph d="M-19 -140 -13 -103H64L108 150Q88 133 63 124Q38 115 8 115L16 152Q53 152 80.5 167Q108 182 125 210H161L107 -103H183L176 -140Z" glyph-name="one.inferior" horiz-adv-x="266" unicode="&#8321;" /><glyph d="M69 350 75 387H152L196 640Q176 623 151 614Q126 605 96 605L104 642Q141 642 168.5 657Q196 672 213 700H249L195 387H271L264 350Z" glyph-name="one.numerator" horiz-adv-x="266" unicode="&#63074;" /><glyph d="M107 0 116 51H262L360 607Q323 570 276 552.5Q229 535 167 535L176 586Q248 586 298.5 613Q349 640 385 700H432L317 51H464L454 0Z" glyph-name="one.tab" horiz-adv-x="580" unicode="&#65297;" /><glyph d="M623 0H380L389 42L524 146Q574 184 590.5 208.5Q607 233 607 260Q607 287 589.5 303Q572 319 543 319Q512 319 489 300.5Q466 282 455 248L416 258Q431 305 465 330.5Q499 356 545 356Q593 356 622 330Q651 304 651 263Q651 239 642 217.5Q633 196 615 175Q606 165 594.5 154.5Q583 144 541 111L447 37H630ZM81 350 87 387H164L208 640Q188 623 163 614Q138 605 108 605L116 642Q153 642 180.5 657Q208 672 225 700H261L207 387H283L276 350ZM180 0H133L541 700H587Z" glyph-name="onehalf" horiz-adv-x="703" unicode="&#189;" /><glyph d="M538 122 553 203 598 218 582 122H635L629 86H575L561 0H517L532 86H343L349 120L554 350H607L405 122ZM83 350 89 387H166L210 640Q190 623 165 614Q140 605 110 605L118 642Q155 642 182.5 657Q210 672 227 700H263L209 387H285L278 350ZM182 0H135L543 700H589Z" glyph-name="onequarter" horiz-adv-x="692" unicode="&#188;" /><glyph d="M93 490 99 527H176L220 780Q200 763 175 754Q150 745 120 745L128 782Q165 782 192.5 797Q220 812 237 840H273L219 527H295L288 490Z" glyph-name="onesuperior" horiz-adv-x="266" unicode="&#185;" /><glyph d="M333 449H295L303 491Q285 467 263 455Q241 443 216 443Q170 443 143 473Q116 503 116 552Q116 618 151.5 662Q187 706 241 706Q273 706 296 690Q319 674 329 644L339 700H378ZM158 556Q158 520 176 499Q194 478 226 478Q263 478 289.5 511.5Q316 545 316 590Q316 626 296.5 648Q277 670 245 670Q208 670 183 637.5Q158 605 158 556Z" glyph-name="ordfeminine" horiz-adv-x="383" unicode="&#170;" /><glyph d="M157 561Q157 608 184 639Q211 670 250 670Q284 670 305 647.5Q326 625 326 589Q326 542 299 510.5Q272 479 233 479Q199 479 178 502Q157 525 157 561ZM234 443Q290 443 329 484.5Q368 526 368 588Q368 640 335 673Q302 706 250 706Q193 706 154 665Q115 624 115 561Q115 509 148 476Q181 443 234 443Z" glyph-name="ordmasculine" horiz-adv-x="373" unicode="&#186;" /><glyph d="M173 11 107 -89H55L136 35Q97 66 76 112.5Q55 159 55 215Q55 341 132 424Q209 507 322 507Q351 507 378.5 500.5Q406 494 430 482L493 579H545L466 458Q504 427 525 381Q546 335 546 280Q546 155 469 71.5Q392 -12 279 -12Q250 -12 223.5 -6Q197 0 173 11ZM321 460Q231 460 169.5 392Q108 324 108 220Q108 176 122.5 139Q137 102 165 77L405 439Q387 450 366 455Q345 460 321 460ZM281 35Q371 35 432 103Q493 171 493 276Q493 318 478.5 354.5Q464 391 437 416L198 54Q217 45 238 40Q259 35 281 35Z" glyph-name="oslash" horiz-adv-x="600" unicode="&#248;" /><glyph d="M322 507Q420 507 483 443Q546 379 546 280Q546 155 469 71.5Q392 -12 279 -12Q180 -12 117.5 51.5Q55 115 55 215Q55 341 132 424Q209 507 322 507ZM493 276Q493 356 445 408Q397 460 321 460Q231 460 169.5 392Q108 324 108 220Q108 137 155.5 86Q203 35 281 35Q371 35 432 103Q493 171 493 276ZM324 495ZM342 635Q366 617 379.5 611.5Q393 606 407 606Q437 606 456 628.5Q475 651 479 692H440Q438 671 429 660Q420 649 404 649Q394 649 383 654Q372 659 350 675Q324 695 309 701Q294 707 279 707Q246 707 225.5 684Q205 661 198 617H237Q241 640 252 652Q263 664 279 664Q293 664 306 658.5Q319 653 342 635ZM324 495Z" glyph-name="otilde" horiz-adv-x="600" unicode="&#245;" /><glyph d="M566 290Q566 159 495 73.5Q424 -12 315 -12Q245 -12 196.5 24.5Q148 61 130 126L70 -218H18L143 495H192L177 401Q210 452 259 479.5Q308 507 364 507Q456 507 511 446.5Q566 386 566 290ZM513 285Q513 365 470 412.5Q427 460 352 460Q266 460 206.5 388Q147 316 147 215Q147 135 191.5 85Q236 35 311 35Q398 35 455.5 106Q513 177 513 285Z" glyph-name="p" horiz-adv-x="621" unicode="p" /><glyph d="M336 700H586L425 -218H372L524 649H400L248 -218H195L279 260Q189 265 132.5 323.5Q76 382 76 464Q76 567 150 633.5Q224 700 336 700ZM133 467Q133 403 176.5 358Q220 313 288 310L347 649H325Q243 649 188 596Q133 543 133 467Z" glyph-name="paragraph" horiz-adv-x="626" unicode="&#182;" /><glyph d="M119 229Q119 140 151 58.5Q183 -23 250 -102L218 -125Q138 -39 100.5 47.5Q63 134 63 230Q63 387 137.5 512.5Q212 638 370 742L392 714Q257 615 188 493Q119 371 119 229Z" glyph-name="parenleft" horiz-adv-x="331" unicode="(" /><glyph d="M234 390Q234 479 202 560.5Q170 642 103 721L135 744Q215 658 252.5 571.5Q290 485 290 389Q290 232 215.5 106.5Q141 -19 -17 -123L-39 -95Q96 4 165 126Q234 248 234 390Z" glyph-name="parenright" horiz-adv-x="331" unicode=")" /><glyph d="M262 -12Q165 -12 106 42.5Q47 97 47 184Q47 287 115.5 357Q184 427 287 427Q361 427 412 396Q463 365 485 306Q492 344 495 382.5Q498 421 498 460Q498 563 453 615.5Q408 668 319 668Q282 668 242.5 655Q203 642 175 621L155 659Q188 683 233 697.5Q278 712 324 712Q435 712 493 646.5Q551 581 551 460Q551 248 471.5 118Q392 -12 262 -12ZM294 380Q211 380 156 325Q101 270 101 187Q101 118 145 77Q189 36 265 36Q335 36 390 90.5Q445 145 473 243Q458 306 410 343Q362 380 294 380Z" glyph-name="partialdiff" horiz-adv-x="603" unicode="&#8706;" /><glyph d="M664 219Q664 283 633.5 319.5Q603 356 547 356Q480 356 436 292.5Q392 229 392 132Q392 70 423.5 32Q455 -6 509 -6Q577 -6 620.5 57.5Q664 121 664 219ZM620 219Q620 140 588.5 85.5Q557 31 510 31Q474 31 454.5 57.5Q435 84 435 131Q435 210 466.5 264.5Q498 319 545 319Q581 319 600.5 293Q620 267 620 219ZM361 569Q361 633 330.5 669.5Q300 706 244 706Q177 706 133 642.5Q89 579 89 482Q89 420 120.5 382Q152 344 206 344Q274 344 317.5 407.5Q361 471 361 569ZM317 569Q317 490 285.5 435.5Q254 381 207 381Q171 381 151.5 407.5Q132 434 132 481Q132 560 163.5 614.5Q195 669 242 669Q278 669 297.5 643Q317 617 317 569ZM196 0H149L557 700H603Z" glyph-name="percent" horiz-adv-x="716" unicode="%" /><glyph d="M45 32Q45 14 57.5 1Q70 -12 88 -12Q106 -12 119 1Q132 14 132 32Q132 50 119 62.5Q106 75 88 75Q70 75 57.5 62.5Q45 50 45 32ZM52 42Z" glyph-name="period" horiz-adv-x="228" unicode="." /><glyph d="M92 329Q92 311 104.5 298Q117 285 135 285Q153 285 166 298Q179 311 179 329Q179 347 166 359.5Q153 372 135 372Q117 372 104.5 359.5Q92 347 92 329ZM99 339Z" glyph-name="periodcentered" horiz-adv-x="244" unicode="&#183;" /><glyph d="M664 219Q664 283 633.5 319.5Q603 356 547 356Q480 356 436 292.5Q392 229 392 132Q392 70 423.5 32Q455 -6 509 -6Q577 -6 620.5 57.5Q664 121 664 219ZM620 219Q620 140 588.5 85.5Q557 31 510 31Q474 31 454.5 57.5Q435 84 435 131Q435 210 466.5 264.5Q498 319 545 319Q581 319 600.5 293Q620 267 620 219ZM361 569Q361 633 330.5 669.5Q300 706 244 706Q177 706 133 642.5Q89 579 89 482Q89 420 120.5 382Q152 344 206 344Q274 344 317.5 407.5Q361 471 361 569ZM317 569Q317 490 285.5 435.5Q254 381 207 381Q171 381 151.5 407.5Q132 434 132 481Q132 560 163.5 614.5Q195 669 242 669Q278 669 297.5 643Q317 617 317 569ZM978 219Q978 283 947.5 319.5Q917 356 861 356Q794 356 750 292.5Q706 229 706 132Q706 70 737.5 32Q769 -6 823 -6Q891 -6 934.5 57.5Q978 121 978 219ZM934 219Q934 140 902.5 85.5Q871 31 824 31Q788 31 768.5 57.5Q749 84 749 131Q749 210 780.5 264.5Q812 319 859 319Q895 319 914.5 293Q934 267 934 219ZM196 0H149L557 700H603Z" glyph-name="perthousand" horiz-adv-x="1028" unicode="&#8240;" /><glyph d="M72 495H597L588 448H499L420 0H368L447 448H205L126 0H74L153 448H64Z" glyph-name="pi" horiz-adv-x="584" unicode="&#960;" /><glyph d="M332 130H285V327H88V375H285V571H332V375H529V327H332Z" glyph-name="plus" horiz-adv-x="580" unicode="+" /><glyph d="M312 145H265V342H68V390H265V586H312V390H509V342H312ZM68 5V53H509V5Z" glyph-name="plusminus" horiz-adv-x="580" unicode="&#177;" /><glyph d="M118 700H653L643 648H533L418 0H364L478 648H272L158 0H103L218 648H108Z" glyph-name="product" horiz-adv-x="613" unicode="&#8719;" /><glyph d="M54 205Q54 335 125.5 421Q197 507 305 507Q377 507 425.5 469Q474 431 492 363L516 495H565L440 -218H388L443 94Q410 43 361.5 15.5Q313 -12 257 -12Q165 -12 109.5 48.5Q54 109 54 205ZM107 211Q107 131 150 83Q193 35 268 35Q354 35 414 106.5Q474 178 474 279Q474 359 429.5 409.5Q385 460 310 460Q223 460 165 389Q107 318 107 211Z" glyph-name="q" horiz-adv-x="621" unicode="q" /><glyph d="M240 218 232 174H183L191 222Q199 270 225.5 305.5Q252 341 312 380Q380 425 406.5 465Q433 505 433 553Q433 604 400 634Q367 664 307 664Q254 664 212.5 635.5Q171 607 137 547L94 569Q131 640 185 676Q239 712 310 712Q392 712 440.5 669Q489 626 489 558Q489 499 456.5 449Q424 399 338 341Q289 308 267.5 280.5Q246 253 240 218ZM153 33Q153 14 166 1Q179 -12 197 -12Q215 -12 228.5 1Q242 14 242 33Q242 51 229 64Q216 77 197 77Q179 77 166 64Q153 51 153 33Z" glyph-name="question" horiz-adv-x="487" unicode="?" /><glyph d="M243 276 251 320H300L292 272Q284 224 257.5 188.5Q231 153 171 114Q103 69 76.5 29Q50 -11 50 -59Q50 -110 83 -140Q116 -170 176 -170Q229 -170 270.5 -141.5Q312 -113 346 -53L389 -75Q352 -146 298 -182Q244 -218 173 -218Q91 -218 42.5 -175Q-6 -132 -6 -64Q-6 -5 26.5 45Q59 95 145 153Q194 186 215.5 213.5Q237 241 243 276ZM330 461Q330 480 317 493Q304 506 286 506Q268 506 254.5 493Q241 480 241 461Q241 443 254 430Q267 417 286 417Q304 417 317 430Q330 443 330 461Z" glyph-name="questiondown" horiz-adv-x="479" unicode="&#191;" /><glyph d="M324 700 278 473H234L270 700ZM211 700 165 473H121L157 700Z" glyph-name="quotedbl" horiz-adv-x="323" unicode="&quot;" /><glyph d="M124 73H64L-23 -165H28ZM263 73H203L116 -165H167Z" glyph-name="quotedblbase" horiz-adv-x="351" unicode="&#8222;" /><glyph d="M197 700 105 473H162L246 700ZM328 700 236 473H293L377 700Z" glyph-name="quotedblleft" horiz-adv-x="358" unicode="&#8220;" /><glyph d="M249 700H191L108 473H157ZM380 700H322L239 473H288Z" glyph-name="quotedblright" horiz-adv-x="357" unicode="&#8221;" /><glyph d="M197 700 105 473H162L246 700Z" glyph-name="quoteleft" horiz-adv-x="227" unicode="&#8216;" /><glyph d="M249 700H191L108 473H157Z" glyph-name="quoteright" horiz-adv-x="226" unicode="&#8217;" /><glyph d="M124 73H64L-23 -165H28Z" glyph-name="quotesinglbase" horiz-adv-x="212" unicode="&#8218;" /><glyph d="M211 700 165 473H121L157 700Z" glyph-name="quotesingle" horiz-adv-x="210" unicode="'" /><glyph d="M57 0 143 495H192L171 369Q202 433 247 466Q292 499 349 499Q360 499 369.5 498Q379 497 388 495L379 446Q370 448 361 448.5Q352 449 339 449Q271 449 218.5 388.5Q166 328 149 229L109 0ZM261 495ZM82 0Z" glyph-name="r" horiz-adv-x="366" unicode="r" /><glyph d="M409 726H347L247 587H298ZM261 495ZM57 0 143 495H192L171 369Q202 433 247 466Q292 499 349 499Q360 499 369.5 498Q379 497 388 495L379 446Q370 448 361 448.5Q352 449 339 449Q271 449 218.5 388.5Q166 328 149 229L109 0ZM261 495ZM82 0Z" glyph-name="racute" horiz-adv-x="366" unicode="&#341;" /><glyph d="M51 366V418H216L311 78L496 700H553L338 0H281L172 366Z" glyph-name="radical" horiz-adv-x="543" unicode="&#8730;" /><glyph d="M299 587H241L173 726H219L274 627L346 726H392ZM261 495ZM57 0 143 495H192L171 369Q202 433 247 466Q292 499 349 499Q360 499 369.5 498Q379 497 388 495L379 446Q370 448 361 448.5Q352 449 339 449Q271 449 218.5 388.5Q166 328 149 229L109 0ZM261 495ZM82 0Z" glyph-name="rcaron" horiz-adv-x="366" unicode="&#345;" /><glyph d="M83 351Q83 501 188.5 606.5Q294 712 444 712Q594 712 699.5 606.5Q805 501 805 351Q805 201 699 94.5Q593 -12 444 -12Q295 -12 189 94.5Q83 201 83 351ZM760 351Q760 483 667.5 576.5Q575 670 444 670Q313 670 220.5 576.5Q128 483 128 351Q128 219 221 125Q314 31 444 31Q574 31 667 125Q760 219 760 351ZM323 176V526H463Q517 526 551.5 496Q586 466 586 421Q586 382 565 352.5Q544 323 507 311L586 176H536L461 304H367V176ZM542 420Q542 450 518.5 469.5Q495 489 458 489H367V341H457Q495 341 518.5 363Q542 385 542 420Z" glyph-name="registered" horiz-adv-x="850" unicode="&#174;" /><glyph d="M308 661Q308 704 278 734Q248 764 205 764Q162 764 132.5 734Q103 704 103 661Q103 619 132.5 589Q162 559 205 559Q248 559 278 589Q308 619 308 661ZM140 661Q140 689 159 708.5Q178 728 205 728Q232 728 251.5 708Q271 688 271 661Q271 634 251.5 615Q232 596 205 596Q178 596 159 615Q140 634 140 661ZM185 495Z" glyph-name="ring" horiz-adv-x="387" unicode="&#730;" /><glyph d="M308 861Q308 904 278 934Q248 964 205 964Q162 964 132.5 934Q103 904 103 861Q103 819 132.5 789Q162 759 205 759Q248 759 278 789Q308 819 308 861ZM140 861Q140 889 159 908.5Q178 928 205 928Q232 928 251.5 908Q271 888 271 861Q271 834 251.5 815Q232 796 205 796Q178 796 159 815Q140 834 140 861ZM186 700Z" glyph-name="ring.case" horiz-adv-x="387" /><glyph d="M411 139Q411 69 363.5 28.5Q316 -12 239 -12Q173 -12 114 14Q55 40 20 80L56 117Q91 79 139.5 56.5Q188 34 239 34Q296 34 328 60.5Q360 87 360 132Q360 164 339 185Q318 206 266 222L203 242Q142 261 113 294Q84 327 84 375Q84 431 129 469Q174 507 252 507Q309 507 359 484.5Q409 462 447 420L411 383Q382 418 339 439.5Q296 461 249 461Q194 461 164 438Q134 415 134 380Q134 346 153.5 324.5Q173 303 221 288L288 267Q351 247 381 215.5Q411 184 411 139ZM269 495ZM205 12ZM203 2Z" glyph-name="s" horiz-adv-x="482" unicode="s" /><glyph d="M415 726H353L253 587H304ZM267 495ZM411 139Q411 69 363.5 28.5Q316 -12 239 -12Q173 -12 114 14Q55 40 20 80L56 117Q91 79 139.5 56.5Q188 34 239 34Q296 34 328 60.5Q360 87 360 132Q360 164 339 185Q318 206 266 222L203 242Q142 261 113 294Q84 327 84 375Q84 431 129 469Q174 507 252 507Q309 507 359 484.5Q409 462 447 420L411 383Q382 418 339 439.5Q296 461 249 461Q194 461 164 438Q134 415 134 380Q134 346 153.5 324.5Q173 303 221 288L288 267Q351 247 381 215.5Q411 184 411 139ZM269 495ZM205 12ZM203 2Z" glyph-name="sacute" horiz-adv-x="482" unicode="&#347;" /><glyph d="M305 587H247L179 726H225L280 627L352 726H398ZM267 495ZM411 139Q411 69 363.5 28.5Q316 -12 239 -12Q173 -12 114 14Q55 40 20 80L56 117Q91 79 139.5 56.5Q188 34 239 34Q296 34 328 60.5Q360 87 360 132Q360 164 339 185Q318 206 266 222L203 242Q142 261 113 294Q84 327 84 375Q84 431 129 469Q174 507 252 507Q309 507 359 484.5Q409 462 447 420L411 383Q382 418 339 439.5Q296 461 249 461Q194 461 164 438Q134 415 134 380Q134 346 153.5 324.5Q173 303 221 288L288 267Q351 247 381 215.5Q411 184 411 139ZM269 495ZM205 12ZM203 2Z" glyph-name="scaron" horiz-adv-x="482" unicode="&#353;" /><glyph d="M122 -99 110 -78 179 -6Q131 3 88.5 26.5Q46 50 20 80L56 117Q91 78 139.5 55.5Q188 33 239 34Q296 34 328 60.5Q360 87 360 132Q360 164 339 184.5Q318 205 266 222L203 242Q142 261 113 294Q84 327 84 375Q84 431 129 469Q174 507 252 507Q309 507 359 484.5Q409 462 447 420L411 383Q382 418 339 439.5Q296 461 249 461Q194 461 164 438Q134 415 134 380Q134 346 153.5 324.5Q173 303 221 288L288 267Q352 247 381.5 215.5Q411 184 411 139Q411 69 363.5 28.5Q316 -12 239 -12Q229 -12 223.5 -12Q218 -12 214 -11L164 -63Q169 -62 174.5 -61.5Q180 -61 190 -61Q227 -61 248.5 -78.5Q270 -96 270 -126Q270 -166 239 -191.5Q208 -217 159 -217Q137 -217 115 -211Q93 -205 75 -195L83 -164Q101 -174 118.5 -179Q136 -184 156 -184Q188 -184 207 -169Q226 -154 226 -127Q226 -109 211 -99Q196 -89 169 -89Q156 -89 144.5 -91.5Q133 -94 122 -99Z" glyph-name="scedilla" horiz-adv-x="482" unicode="&#351;" /><glyph d="M167 587 259 726H317L386 587H339L285 686L213 587ZM267 495ZM411 139Q411 69 363.5 28.5Q316 -12 239 -12Q173 -12 114 14Q55 40 20 80L56 117Q91 79 139.5 56.5Q188 34 239 34Q296 34 328 60.5Q360 87 360 132Q360 164 339 185Q318 206 266 222L203 242Q142 261 113 294Q84 327 84 375Q84 431 129 469Q174 507 252 507Q309 507 359 484.5Q409 462 447 420L411 383Q382 418 339 439.5Q296 461 249 461Q194 461 164 438Q134 415 134 380Q134 346 153.5 324.5Q173 303 221 288L288 267Q351 247 381 215.5Q411 184 411 139ZM269 495ZM205 12ZM203 2Z" glyph-name="scircumflex" horiz-adv-x="482" unicode="&#349;" /><glyph d="M58 277Q58 323 83 364Q108 405 154 436Q141 455 134.5 478Q128 501 128 527Q128 606 188.5 659Q249 712 350 712Q414 712 469.5 695Q525 678 559 650L531 608Q498 633 449 648Q400 663 347 663Q271 663 227 626Q183 589 183 534Q183 487 212 453Q241 419 300 399L375 373Q449 347 486.5 306.5Q524 266 524 210Q524 163 498.5 120Q473 77 426 47Q440 27 447 4.5Q454 -18 454 -44Q454 -124 393.5 -177Q333 -230 232 -230Q169 -230 111.5 -212Q54 -194 17 -164L45 -121Q81 -149 131 -165Q181 -181 234 -181Q310 -181 354.5 -143.5Q399 -106 399 -51Q399 -5 370 28Q341 61 281 82L207 108Q133 134 95.5 176.5Q58 219 58 277ZM236 156 305 132Q332 123 356 109Q380 95 398 78Q430 101 449 135Q468 169 468 200Q468 243 438 274Q408 305 345 326L277 349Q250 358 225.5 372Q201 386 182 404Q150 382 131.5 349Q113 316 113 286Q113 241 143 209.5Q173 178 236 156Z" glyph-name="section" horiz-adv-x="582" unicode="&#167;" /><glyph d="M150 73H90L3 -165H54ZM128 451Q128 433 140.5 420Q153 407 171 407Q189 407 202 420Q215 433 215 451Q215 469 202 481.5Q189 494 171 494Q153 494 140.5 481.5Q128 469 128 451ZM135 461Z" glyph-name="semicolon" horiz-adv-x="275" unicode=";" /><glyph d="M478 650H91L100 700H550L542 657L139 0H76Z" glyph-name="seven" horiz-adv-x="499" unicode="7" /><glyph d="M223 313H35L41 350H277L271 316L72 0H24Z" glyph-name="seven.denominator" horiz-adv-x="285" unicode="&#63068;" /><glyph d="M198 173H10L16 210H252L246 176L47 -140H-1Z" glyph-name="seven.inferior" horiz-adv-x="285" unicode="&#8327;" /><glyph d="M285 663H97L103 700H339L333 666L134 350H86Z" glyph-name="seven.numerator" horiz-adv-x="285" unicode="&#63080;" /><glyph d="M309 803H121L127 840H363L357 806L158 490H110Z" glyph-name="seven.superior" horiz-adv-x="285" unicode="&#8311;" /><glyph d="M519 650H132L141 700H591L583 657L180 0H117Z" glyph-name="seven.tab" horiz-adv-x="580" unicode="&#65303;" /><glyph d="M310 425Q398 425 453 373.5Q508 322 508 239Q508 133 438 60.5Q368 -12 263 -12Q170 -12 111 44Q52 100 52 188Q52 247 80 307Q108 367 170 443L381 700H448L225 432Q214 419 207 410Q200 401 193 390Q217 407 246.5 416Q276 425 310 425ZM292 379Q211 379 158.5 326.5Q106 274 106 193Q106 122 149.5 79Q193 36 265 36Q344 36 399 93.5Q454 151 454 235Q454 301 410.5 340Q367 379 292 379Z" glyph-name="six" horiz-adv-x="554" unicode="6" /><glyph d="M155 214Q198 214 224.5 188.5Q251 163 251 122Q251 69 214.5 31.5Q178 -6 125 -6Q75 -6 44 22Q13 50 13 95Q13 125 27 156.5Q41 188 71 224L174 350H225L104 201Q116 208 128 211Q140 214 155 214ZM208 116Q208 147 189.5 164.5Q171 182 139 182Q103 182 79.5 158.5Q56 135 56 98Q56 67 75 48Q94 29 126 29Q160 29 184 54Q208 79 208 116Z" glyph-name="six.denominator" horiz-adv-x="304" unicode="&#63067;" /><glyph d="M130 74Q173 74 199.5 48.5Q226 23 226 -18Q226 -71 189.5 -108.5Q153 -146 100 -146Q50 -146 19 -118Q-12 -90 -12 -45Q-12 -15 2 16.5Q16 48 46 84L149 210H200L79 61Q91 68 103 71Q115 74 130 74ZM183 -24Q183 7 164.5 24.5Q146 42 114 42Q78 42 54.5 18.5Q31 -5 31 -42Q31 -73 50 -92Q69 -111 101 -111Q135 -111 159 -86Q183 -61 183 -24Z" glyph-name="six.inferior" horiz-adv-x="304" unicode="&#8326;" /><glyph d="M217 564Q260 564 286.5 538.5Q313 513 313 472Q313 419 276.5 381.5Q240 344 187 344Q137 344 106 372Q75 400 75 445Q75 475 89 506.5Q103 538 133 574L236 700H287L166 551Q178 558 190 561Q202 564 217 564ZM270 466Q270 497 251.5 514.5Q233 532 201 532Q165 532 141.5 508.5Q118 485 118 448Q118 417 137 398Q156 379 188 379Q222 379 246 404Q270 429 270 466Z" glyph-name="six.numerator" horiz-adv-x="304" unicode="&#63079;" /><glyph d="M241 704Q284 704 310.5 678.5Q337 653 337 612Q337 559 300.5 521.5Q264 484 211 484Q161 484 130 512Q99 540 99 585Q99 615 113 646.5Q127 678 157 714L260 840H311L190 691Q202 698 214 701Q226 704 241 704ZM294 606Q294 637 275.5 654.5Q257 672 225 672Q189 672 165.5 648.5Q142 625 142 588Q142 557 161 538Q180 519 212 519Q246 519 270 544Q294 569 294 606Z" glyph-name="six.superior" horiz-adv-x="304" unicode="&#8310;" /><glyph d="M323 425Q411 425 466 373.5Q521 322 521 239Q521 133 451 60.5Q381 -12 276 -12Q183 -12 124 44Q65 100 65 188Q65 247 93 307Q121 367 183 443L394 700H461L238 432Q227 419 220 410Q213 401 206 390Q230 407 259.5 416Q289 425 323 425ZM305 379Q224 379 171.5 326.5Q119 274 119 193Q119 122 162.5 79Q206 36 278 36Q357 36 412 93.5Q467 151 467 235Q467 301 423.5 340Q380 379 305 379Z" glyph-name="six.tab" horiz-adv-x="580" unicode="&#65302;" /><glyph d="M33 -132H-23L409 742H463Z" glyph-name="slash" horiz-adv-x="419" unicode="/" /><glyph glyph-name="space" horiz-adv-x="284" unicode=" " /><glyph d="M151 317H71L79 360H147L143 396Q140 421 139 441.5Q138 462 138 481Q138 585 196 648.5Q254 712 358 712Q449 712 504.5 658Q560 604 561 511L508 500Q506 579 467 622Q428 665 355 665Q277 665 234.5 613.5Q192 562 192 481Q192 472 192.5 460.5Q193 449 197 400L200 360H413L405 317H204L210 242Q215 177 197.5 129Q180 81 140 52H495L486 0H34L43 53Q100 64 133 112Q166 160 159 232Z" glyph-name="sterling" horiz-adv-x="571" unicode="&#163;" /><glyph d="M134 654 143 700H616L606 649H197L301 362L96 52H512L502 0H17L27 41L241 363Z" glyph-name="summation" horiz-adv-x="588" unicode="&#8721;" /><glyph d="M148 449H61L68 495H157L190 682L245 700L209 495H372L365 449H201L146 141Q137 89 156.5 62Q176 35 225 35Q246 35 266.5 41.5Q287 48 308 62L325 21Q300 5 273.5 -3.5Q247 -12 220 -12Q148 -12 114.5 27.5Q81 67 93 135ZM305 701ZM193 10ZM110 0Z" glyph-name="t" horiz-adv-x="373" unicode="t" /><glyph d="M42 296 50 342H135L154 449H67L74 495H163L196 682L251 700L215 495H378L371 449H207L188 342H343L335 296H180L152 141Q143 88 162.5 61.5Q182 35 231 35Q252 35 272.5 41.5Q293 48 314 62L331 21Q306 5 279.5 -3.5Q253 -12 226 -12Q154 -12 120.5 27.5Q87 67 99 135L127 296Z" glyph-name="tbar" horiz-adv-x="382" unicode="&#359;" /><glyph d="M423 731H366L316 593H359ZM305 701ZM148 449H61L68 495H157L190 682L245 700L209 495H372L365 449H201L146 141Q137 89 156.5 62Q176 35 225 35Q246 35 266.5 41.5Q287 48 308 62L325 21Q300 5 273.5 -3.5Q247 -12 220 -12Q148 -12 114.5 27.5Q81 67 93 135ZM305 701ZM193 10ZM110 0Z" glyph-name="tcaron" horiz-adv-x="373" unicode="&#357;" /><glyph d="M566 294Q566 163 494.5 75.5Q423 -12 314 -12Q245 -12 197 24.5Q149 61 130 126L70 -218H18L184 730H236L179 402Q213 453 260.5 480Q308 507 363 507Q455 507 510.5 447.5Q566 388 566 294ZM513 287Q513 366 469.5 413Q426 460 352 460Q266 460 206.5 387.5Q147 315 147 215Q147 134 191.5 84.5Q236 35 312 35Q397 35 455 107.5Q513 180 513 287Z" glyph-name="thorn" horiz-adv-x="620" unicode="&#254;" /><glyph d="M283 373Q268 373 250.5 370.5Q233 368 218 364L201 407L474 650H144L152 700H555L547 648L289 421Q388 420 442 369Q496 318 496 235Q496 128 428.5 58Q361 -12 254 -12Q163 -12 100.5 34Q38 80 22 156L75 177Q91 110 137 73.5Q183 37 254 37Q334 37 387 91.5Q440 146 440 231Q440 294 398.5 333.5Q357 373 283 373Z" glyph-name="three" horiz-adv-x="563" unicode="3" /><glyph d="M131 180Q124 180 117.5 179.5Q111 179 106 177L94 206L222 314H64L71 350H285L278 317L154 214Q198 210 223 184Q248 158 248 120Q248 65 212 29Q176 -7 121 -7Q73 -7 39.5 16.5Q6 40 -5 81L34 99Q42 66 64 48Q86 30 120 30Q156 30 179.5 54.5Q203 79 203 117Q203 147 184.5 163.5Q166 180 131 180Z" glyph-name="three.denominator" horiz-adv-x="313" unicode="&#63064;" /><glyph d="M106 40Q99 40 92.5 39.5Q86 39 81 37L69 66L197 174H39L46 210H260L253 177L129 74Q173 70 198 44Q223 18 223 -20Q223 -75 187 -111Q151 -147 96 -147Q48 -147 14.5 -123.5Q-19 -100 -30 -59L9 -41Q17 -74 39 -92Q61 -110 95 -110Q131 -110 154.5 -85.5Q178 -61 178 -23Q178 7 159.5 23.5Q141 40 106 40Z" glyph-name="three.inferior" horiz-adv-x="313" unicode="&#8323;" /><glyph d="M194 530Q187 530 180.5 529.5Q174 529 169 527L157 556L285 664H127L134 700H348L341 667L217 564Q261 560 286 534Q311 508 311 470Q311 415 275 379Q239 343 184 343Q136 343 102.5 366.5Q69 390 58 431L97 449Q105 416 127 398Q149 380 183 380Q219 380 242.5 404.5Q266 429 266 467Q266 497 247.5 513.5Q229 530 194 530Z" glyph-name="three.numerator" horiz-adv-x="313" unicode="&#63076;" /><glyph d="M292 373Q277 373 259.5 370.5Q242 368 227 364L210 407L483 650H153L161 700H564L556 648L298 421Q397 420 451 369Q505 318 505 235Q505 128 437.5 58Q370 -12 263 -12Q172 -12 109.5 34Q47 80 31 156L84 177Q100 110 146 73.5Q192 37 263 37Q343 37 396 91.5Q449 146 449 231Q449 294 407.5 333.5Q366 373 292 373Z" glyph-name="three.tab" horiz-adv-x="580" unicode="&#65299;" /><glyph d="M560 122 575 203 620 218 604 122H657L651 86H597L583 0H539L554 86H365L371 120L576 350H629L427 122ZM204 0H157L565 700H611ZM205 529Q198 529 191.5 528.5Q185 528 180 526L168 555L296 663H138L145 699H359L352 666L228 563Q272 559 297 533Q322 507 322 469Q322 414 286 378Q250 342 195 342Q147 342 113.5 365.5Q80 389 69 430L108 448Q116 415 138 397Q160 379 194 379Q230 379 253.5 403.5Q277 428 277 466Q277 496 258.5 512.5Q240 529 205 529Z" glyph-name="threequarters" horiz-adv-x="715" unicode="&#190;" /><glyph d="M218 670Q211 670 204.5 669.5Q198 669 193 667L181 696L309 804H151L158 840H372L365 807L241 704Q285 700 310 674Q335 648 335 610Q335 555 299 519Q263 483 208 483Q160 483 126.5 506.5Q93 530 82 571L121 589Q129 556 151 538Q173 520 207 520Q243 520 266.5 544.5Q290 569 290 607Q290 637 271.5 653.5Q253 670 218 670Z" glyph-name="threesuperior" horiz-adv-x="313" unicode="&#179;" /><glyph d="M200 635Q224 617 237.5 611.5Q251 606 265 606Q295 606 314 628.5Q333 651 337 692H298Q296 671 287 660Q278 649 262 649Q252 649 241 654Q230 659 208 675Q182 695 167 701Q152 707 137 707Q104 707 83.5 684Q63 661 56 617H95Q99 640 110 652Q121 664 137 664Q151 664 164 658.5Q177 653 200 635ZM182 495Z" glyph-name="tilde" horiz-adv-x="392" unicode="&#732;" /><glyph d="M200 835Q224 817 237.5 811.5Q251 806 265 806Q295 806 314 828.5Q333 851 337 892H298Q296 871 287 860Q278 849 262 849Q252 849 241 854Q230 859 208 875Q182 895 167 901Q152 907 137 907Q104 907 83.5 884Q63 861 56 817H95Q99 840 110 852Q121 864 137 864Q151 864 164 858.5Q177 853 200 835ZM192 700Z" glyph-name="tilde.case" horiz-adv-x="392" /><glyph d="M429 351V700H484L601 409L716 700H772V351H731V632L618 349H583L469 630V351ZM113 662V700H389V662H273V350H228V662Z" glyph-name="trademark" horiz-adv-x="834" unicode="&#8482;" /><glyph d="M473 0H18L26 51L306 285Q367 336 387.5 355.5Q408 375 423 393Q454 429 469 464Q484 499 484 536Q484 595 446.5 629Q409 663 344 663Q280 663 231 622Q182 581 155 505L104 518Q135 610 199.5 661Q264 712 348 712Q436 712 488.5 664Q541 616 541 540Q541 494 523 451.5Q505 409 468 366Q453 349 434 330.5Q415 312 324 235L107 51H482Z" glyph-name="two" horiz-adv-x="564" unicode="2" /><glyph d="M242 0H-1L8 42L143 146Q193 184 209.5 208.5Q226 233 226 260Q226 287 208.5 303Q191 319 162 319Q131 319 108 300.5Q85 282 74 248L35 258Q50 305 84 330.5Q118 356 164 356Q212 356 241 330Q270 304 270 263Q270 239 261 217.5Q252 196 234 175Q225 165 213.5 154.5Q202 144 160 111L66 37H249Z" glyph-name="two.denominator" horiz-adv-x="318" unicode="&#63063;" /><glyph d="M218 -140H-25L-16 -98L119 6Q169 44 185.5 68.5Q202 93 202 120Q202 147 184.5 163Q167 179 138 179Q107 179 84 160.5Q61 142 50 108L11 118Q26 165 60 190.5Q94 216 140 216Q188 216 217 190Q246 164 246 123Q246 99 237 77.5Q228 56 210 35Q201 25 189.5 14.5Q178 4 136 -29L42 -103H225Z" glyph-name="two.inferior" horiz-adv-x="318" unicode="&#8322;" /><glyph d="M304 350H61L70 392L205 496Q255 534 271.5 558.5Q288 583 288 610Q288 637 270.5 653Q253 669 224 669Q193 669 170 650.5Q147 632 136 598L97 608Q112 655 146 680.5Q180 706 226 706Q274 706 303 680Q332 654 332 613Q332 589 323 567.5Q314 546 296 525Q287 515 275.5 504.5Q264 494 222 461L128 387H311Z" glyph-name="two.numerator" horiz-adv-x="318" unicode="&#63075;" /><glyph d="M482 0H27L35 51L315 285Q376 336 396.5 355.5Q417 375 432 393Q463 429 478 464Q493 499 493 536Q493 595 455.5 629Q418 663 353 663Q289 663 240 622Q191 581 164 505L113 518Q144 610 208.5 661Q273 712 357 712Q445 712 497.5 664Q550 616 550 540Q550 494 532 451.5Q514 409 477 366Q462 349 443 330.5Q424 312 333 235L116 51H491Z" glyph-name="two.tab" horiz-adv-x="580" unicode="&#65298;" /><glyph d="M329 490H86L95 532L230 636Q280 674 296.5 698.5Q313 723 313 750Q313 777 295.5 793Q278 809 249 809Q218 809 195 790.5Q172 772 161 738L122 748Q137 795 171 820.5Q205 846 251 846Q299 846 328 820Q357 794 357 753Q357 729 348 707.5Q339 686 321 665Q312 655 300.5 644.5Q289 634 247 601L153 527H336Z" glyph-name="twosuperior" horiz-adv-x="318" unicode="&#178;" /><glyph d="M542 495 455 0H406L421 90Q390 40 346 14Q302 -12 248 -12Q158 -12 112 48Q66 108 82 202L133 495H186L135 209Q121 130 153.5 83.5Q186 37 258 37Q330 37 378 87Q426 137 442 227L489 495ZM337 495ZM414 0Z" glyph-name="u" horiz-adv-x="597" unicode="u" /><glyph d="M485 726H423L323 587H374ZM337 495ZM542 495 455 0H406L421 90Q390 40 346 14Q302 -12 248 -12Q158 -12 112 48Q66 108 82 202L133 495H186L135 209Q121 130 153.5 83.5Q186 37 258 37Q330 37 378 87Q426 137 442 227L489 495ZM337 495ZM414 0Z" glyph-name="uacute" horiz-adv-x="597" unicode="&#250;" /><glyph d="M542 495 455 0H406L421 90Q390 40 346 14Q302 -12 248 -12Q158 -12 112 48Q66 108 82 202L133 495H186L135 209Q121 130 153.5 83.5Q186 37 258 37Q330 37 378 87Q426 137 442 227L489 495ZM337 495ZM414 0ZM349 623Q389 623 413 649.5Q437 676 443 726H483Q477 659 442 622Q407 585 347 585Q287 585 256 624Q225 663 231 726H270Q267 676 287.5 649.5Q308 623 349 623ZM337 495Z" glyph-name="ubreve" horiz-adv-x="597" unicode="&#365;" /><glyph d="M237 587 329 726H387L456 587H409L355 686L283 587ZM337 495ZM542 495 455 0H406L421 90Q390 40 346 14Q302 -12 248 -12Q158 -12 112 48Q66 108 82 202L133 495H186L135 209Q121 130 153.5 83.5Q186 37 258 37Q330 37 378 87Q426 137 442 227L489 495ZM337 495ZM414 0Z" glyph-name="ucircumflex" horiz-adv-x="597" unicode="&#251;" /><glyph d="M245 656Q245 640 256.5 628.5Q268 617 285 617Q302 617 313.5 628.5Q325 640 325 656Q325 673 313.5 684.5Q302 696 285 696Q269 696 257 684.5Q245 673 245 656ZM385 656Q385 640 396.5 628.5Q408 617 424 617Q441 617 452.5 628.5Q464 640 464 656Q464 673 452.5 684.5Q441 696 424 696Q408 696 396.5 684.5Q385 673 385 656ZM337 495ZM542 495 455 0H406L421 90Q390 40 346 14Q302 -12 248 -12Q158 -12 112 48Q66 108 82 202L133 495H186L135 209Q121 130 153.5 83.5Q186 37 258 37Q330 37 378 87Q426 137 442 227L489 495ZM337 495ZM414 0Z" glyph-name="udieresis" horiz-adv-x="597" unicode="&#252;" /><glyph d="M542 495 455 0H406L421 90Q390 40 346 14Q302 -12 248 -12Q158 -12 112 48Q66 108 82 202L133 495H186L135 209Q121 130 153.5 83.5Q186 37 258 37Q330 37 378 87Q426 137 442 227L489 495ZM337 495ZM414 0ZM360 587 285 726H223L310 587ZM337 495Z" glyph-name="ugrave" horiz-adv-x="597" unicode="&#249;" /><glyph d="M542 495 455 0H406L421 90Q390 40 346 14Q302 -12 248 -12Q158 -12 112 48Q66 108 82 202L133 495H186L135 209Q121 130 153.5 83.5Q186 37 258 37Q330 37 378 87Q426 137 442 227L489 495ZM337 495ZM414 0ZM416 726H359L259 587H304ZM533 726H472L357 587H404ZM337 495Z" glyph-name="uhungarumlaut" horiz-adv-x="597" unicode="&#369;" /><glyph d="M542 495 455 0H406L421 90Q390 40 346 14Q302 -12 248 -12Q158 -12 112 48Q66 108 82 202L133 495H186L135 209Q121 130 153.5 83.5Q186 37 258 37Q330 37 378 87Q426 137 442 227L489 495ZM337 495ZM414 0ZM475 635H229L237 677H483ZM336 495Z" glyph-name="umacron" horiz-adv-x="597" unicode="&#363;" /><glyph d="M14 -47 22 0H450L442 -47Z" glyph-name="underscore" horiz-adv-x="548" unicode="_" /><glyph glyph-name="uni00A0" horiz-adv-x="284" unicode="&#160;" /><glyph d="M78 239 86 288H347L339 239Z" glyph-name="uni00AD" horiz-adv-x="419" unicode="&#173;" /><glyph d="M394 -72H335L274 -218H321ZM375 0ZM335 -211ZM425 296 434 347H711L650 0H601L622 122Q581 58 517.5 23Q454 -12 378 -12Q241 -12 160 71.5Q79 155 79 293Q79 475 184.5 593.5Q290 712 448 712Q558 712 632 658.5Q706 605 735 504L682 483Q655 571 595.5 615.5Q536 660 445 660Q315 660 225 556.5Q135 453 135 298Q135 180 203 110Q271 40 387 40Q483 40 554.5 100Q626 160 642 250L650 296ZM447 700ZM376 0Z" glyph-name="uni0122" horiz-adv-x="766" /><glyph d="M288 587H349L410 726H366ZM315 495ZM260 -1Q173 -1 117 59.5Q61 120 61 210Q61 338 130 422.5Q199 507 305 507Q374 507 422.5 469Q471 431 488 365L512 495H562L473 -15Q454 -121 394 -175.5Q334 -230 234 -230Q162 -230 100 -198.5Q38 -167 3 -116L42 -82Q79 -132 128 -158Q177 -184 235 -184Q312 -184 359 -139.5Q406 -95 421 -10L440 101Q407 52 360.5 25.5Q314 -1 260 -1ZM114 219Q114 141 156.5 93.5Q199 46 270 46Q354 46 412 116.5Q470 187 470 284Q470 363 426 411.5Q382 460 308 460Q226 460 170 390.5Q114 321 114 219ZM316 495Z" glyph-name="uni0123" horiz-adv-x="617" /><glyph d="M341 -72H282L221 -218H268ZM322 0ZM282 -211ZM366 396 591 0H527L323 358L163 212L125 0H70L194 700H249L176 288L624 700H697ZM325 0Z" glyph-name="uni0136" horiz-adv-x="650" /><glyph d="M280 -72H221L160 -218H207ZM261 0ZM221 -211ZM314 310 479 0H422L273 279L138 173L108 0H56L184 730H236L150 239L473 495H546ZM264 0Z" glyph-name="uni0137" horiz-adv-x="538" /><glyph d="M314 -72H255L194 -218H241ZM295 0ZM255 -211ZM70 0 193 700H248L135 52H522L513 0ZM220 700ZM308 700ZM405 350ZM295 0Z" glyph-name="uni013B" horiz-adv-x="578" unicode="&#315;" /><glyph d="M100 -72H41L-20 -218H27ZM81 0ZM41 -211ZM56 0 185 730H237L108 0ZM211 730ZM291 700ZM213 350ZM82 0Z" glyph-name="uni013C" horiz-adv-x="250" unicode="&#316;" /><glyph d="M364 -72H305L244 -218H291ZM345 0ZM305 -211ZM70 0 193 700H249L570 90L677 700H730L606 0H559L232 623L122 0ZM461 700ZM345 0Z" glyph-name="uni0145" horiz-adv-x="762" /><glyph d="M283 -72H224L163 -218H210ZM264 0ZM224 -211ZM526 293 475 0H422L473 287Q487 365 451.5 411.5Q416 458 340 458Q268 458 220 408Q172 358 156 269L108 0H55L144 495H193L178 404Q210 455 254 481Q298 507 352 507Q444 507 493 446.5Q542 386 526 293ZM146 587ZM347 495ZM265 0Z" glyph-name="uni0146" horiz-adv-x="608" /><glyph d="M329 -72H270L209 -218H256ZM310 0ZM270 -211ZM70 0 193 700H449Q547 700 607.5 645.5Q668 591 668 507Q668 421 607.5 355Q547 289 452 269L580 0H518L393 263H172L125 0ZM611 504Q611 570 565.5 610Q520 650 441 650H240L180 314H402Q487 314 549 371Q611 428 611 504ZM408 700ZM311 0Z" glyph-name="uni0156" horiz-adv-x="689" /><glyph d="M100 -72H41L-20 -218H27ZM81 0ZM41 -211ZM57 0 143 495H192L171 369Q202 433 247 466Q292 499 349 499Q360 499 369.5 498Q379 497 388 495L379 446Q370 448 361 448.5Q352 449 339 449Q271 449 218.5 388.5Q166 328 149 229L109 0ZM261 495ZM82 0Z" glyph-name="uni0157" horiz-adv-x="366" /><glyph d="M166 -101 154 -80 231 0H224L337 648H96L105 700H644L635 648H392L279 0H271L205 -68Q212 -66 219.5 -64.5Q227 -63 234 -63Q271 -63 292.5 -80.5Q314 -98 314 -128Q314 -168 283 -193.5Q252 -219 203 -219Q182 -219 160 -213Q138 -207 119 -197L127 -166Q145 -176 162.5 -181Q180 -186 200 -186Q232 -186 251 -171Q270 -156 270 -129Q270 -111 255 -101Q240 -91 213 -91Q200 -91 188.5 -93.5Q177 -96 166 -101Z" glyph-name="uni0162" horiz-adv-x="588" /><glyph d="M102 -101 90 -80 163 -4Q120 10 102 47Q84 84 93 135L148 449H61L68 495H157L190 682L245 700L209 495H372L365 449H201L146 141Q137 88 156.5 61.5Q176 35 225 35Q246 35 266.5 41.5Q287 48 308 62L325 21Q300 5 273.5 -3.5Q247 -12 220 -12Q210 -12 205.5 -12Q201 -12 197 -11L144 -65Q149 -64 154.5 -63.5Q160 -63 170 -63Q207 -63 228.5 -80.5Q250 -98 250 -128Q250 -168 219 -193.5Q188 -219 139 -219Q117 -219 95 -213Q73 -207 55 -197L63 -166Q81 -176 98.5 -181Q116 -186 136 -186Q168 -186 187 -171Q206 -156 206 -129Q206 -111 191 -101Q176 -91 149 -91Q136 -91 124.5 -93.5Q113 -96 102 -101Z" glyph-name="uni0163" horiz-adv-x="373" /><glyph d="M322 -72H263L202 -218H249ZM303 0ZM263 -211ZM546 196Q546 103 482 45.5Q418 -12 316 -12Q228 -12 150 26Q72 64 30 120L74 159Q115 105 179.5 71.5Q244 38 315 38Q397 38 443.5 81.5Q490 125 490 189Q490 238 462 269.5Q434 301 372 322L265 358Q194 382 157 425Q120 468 120 528Q120 606 181.5 659Q243 712 345 712Q424 712 489.5 681.5Q555 651 599 596L556 557Q516 608 461.5 635Q407 662 343 662Q265 662 220 624.5Q175 587 175 532Q175 487 202.5 456.5Q230 426 289 406L400 369Q473 345 509.5 302Q546 259 546 196ZM356 700ZM303 10ZM303 0Z" glyph-name="uni0218" horiz-adv-x="613" /><glyph d="M219 -70H160L99 -216H146ZM200 2ZM160 -209ZM411 139Q411 69 363.5 28.5Q316 -12 239 -12Q173 -12 114 14Q55 40 20 80L56 117Q91 79 139.5 56.5Q188 34 239 34Q296 34 328 60.5Q360 87 360 132Q360 164 339 185Q318 206 266 222L203 242Q142 261 113 294Q84 327 84 375Q84 431 129 469Q174 507 252 507Q309 507 359 484.5Q409 462 447 420L411 383Q382 418 339 439.5Q296 461 249 461Q194 461 164 438Q134 415 134 380Q134 346 153.5 324.5Q173 303 221 288L288 267Q351 247 381 215.5Q411 184 411 139ZM269 495ZM205 12ZM203 2Z" glyph-name="uni0219" horiz-adv-x="482" /><glyph d="M269 -72H210L149 -218H196ZM250 0ZM210 -211ZM96 648 105 700H644L635 648H392L279 0H224L337 648ZM373 700ZM254 10ZM251 0Z" glyph-name="uni021A" horiz-adv-x="588" unicode="&#538;" /><glyph d="M128 -72H69L8 -218H55ZM109 0ZM69 -211ZM148 449H61L68 495H157L190 682L245 700L209 495H372L365 449H201L146 141Q137 89 156.5 62Q176 35 225 35Q246 35 266.5 41.5Q287 48 308 62L325 21Q300 5 273.5 -3.5Q247 -12 220 -12Q148 -12 114.5 27.5Q81 67 93 135ZM305 701ZM193 10ZM110 0Z" glyph-name="uni021B" horiz-adv-x="373" unicode="&#539;" /><glyph d="M49 -67 147 495H199L100 -69Q85 -154 44.5 -192Q4 -230 -68 -230Q-84 -230 -100.5 -227Q-117 -224 -132 -219L-117 -175Q-101 -180 -88.5 -182Q-76 -184 -65 -184Q-17 -184 10.5 -156Q38 -128 49 -67ZM173 495Z" glyph-name="uni0237" horiz-adv-x="254" /><glyph d="M315 635H69L77 677H323ZM176 495Z" glyph-name="uni02C9" horiz-adv-x="389" unicode="&#713;" /><glyph d="M-3 0 6 43 385 700H442L584 43L575 0ZM402 630 71 51H524Z" glyph-name="uni0394" horiz-adv-x="662" unicode="&#916;" /><glyph d="M32 0 41 51H227Q159 99 124 167.5Q89 236 89 321Q89 486 185 599Q281 712 426 712Q554 712 630 632.5Q706 553 706 423Q706 297 647.5 201.5Q589 106 479 51H645L636 0H398L407 53Q522 102 586 196.5Q650 291 650 417Q650 528 589.5 594Q529 660 424 660Q304 660 224.5 560.5Q145 461 145 317Q145 235 178.5 170Q212 105 277 59L266 0Z" glyph-name="uni03A9" horiz-adv-x="760" unicode="&#937;" /><glyph d="M551 495 465 0H415L431 90Q400 40 356 14Q312 -12 258 -12Q207 -12 170 9.5Q133 31 116 71L94 -78L69 -218H17L143 495H195L144 209Q130 131 163 84Q196 37 268 37Q340 37 388 87.5Q436 138 452 227L499 495Z" glyph-name="uni03BC" horiz-adv-x="607" unicode="&#956;" /><glyph d="M191 428 115 0H60L136 438Q158 564 239 638Q320 712 440 712Q519 712 584 679Q649 646 691 586L475 379L518 361Q595 328 629 289Q663 250 663 194Q663 102 600 45Q537 -12 435 -12Q388 -12 344 -2.5Q300 7 264 25L281 71Q315 55 354.5 46Q394 37 432 37Q513 37 560 80.5Q607 124 607 188Q607 232 577 264.5Q547 297 490 317L398 349L403 374L618 585Q584 623 537.5 642.5Q491 662 437 662Q341 662 275.5 598.5Q210 535 191 428Z" glyph-name="uni1E9E" horiz-adv-x="724" unicode="&#7838;" /><glyph d="M146 290 54 235 39 275 156 344 192 550Q207 633 243.5 672.5Q280 712 342 712Q391 712 421.5 684Q452 656 452 610Q452 538 407.5 472.5Q363 407 286 364L203 317L172 141Q163 87 182.5 61Q202 35 251 35Q271 35 290.5 41Q310 47 335 62L351 21Q327 5 300.5 -3.5Q274 -12 247 -12Q175 -12 141.5 28Q108 68 120 137ZM339 665Q301 665 277.5 637Q254 609 244 550L213 372L271 407Q334 445 367.5 494.5Q401 544 401 600Q401 631 385 648Q369 665 339 665Z" glyph-name="uni2113" horiz-adv-x="429" /><glyph d="M78 350 84 387H161L205 640Q185 623 160 614Q135 605 105 605L113 642Q150 642 177.5 657Q205 672 222 700H258L204 387H280L273 350ZM177 0H130L538 700H584ZM514 180Q507 180 500.5 179.5Q494 179 489 177L477 206L605 314H447L454 350H668L661 317L537 214Q581 210 606 184Q631 158 631 120Q631 65 595 29Q559 -7 504 -7Q456 -7 422.5 16.5Q389 40 378 81L417 99Q425 66 447 48Q469 30 503 30Q539 30 562.5 54.5Q586 79 586 117Q586 147 567.5 163.5Q549 180 514 180Z" glyph-name="uni2153" horiz-adv-x="704" unicode="&#8531;" /><glyph d="M315 350H72L81 392L216 496Q266 534 282.5 558.5Q299 583 299 610Q299 637 281.5 653Q264 669 235 669Q204 669 181 650.5Q158 632 147 598L108 608Q123 655 157 680.5Q191 706 237 706Q285 706 314 680Q343 654 343 613Q343 589 334 567.5Q325 546 307 525Q298 515 286.5 504.5Q275 494 233 461L139 387H322ZM208 0H161L569 700H615ZM545 180Q538 180 531.5 179.5Q525 179 520 177L508 206L636 314H478L485 350H699L692 317L568 214Q612 210 637 184Q662 158 662 120Q662 65 626 29Q590 -7 535 -7Q487 -7 453.5 16.5Q420 40 409 81L448 99Q456 66 478 48Q500 30 534 30Q570 30 593.5 54.5Q617 79 617 117Q617 147 598.5 163.5Q580 180 545 180Z" glyph-name="uni2154" horiz-adv-x="735" unicode="&#8532;" /><glyph d="M178 0H131L539 700H585ZM79 350 85 387H162L206 640Q186 623 161 614Q136 605 106 605L114 642Q151 642 178.5 657Q206 672 223 700H259L205 387H281L274 350ZM541 220Q589 220 617 194Q645 168 645 127Q645 68 609.5 31Q574 -6 516 -6Q469 -6 435 17Q401 40 392 77L429 94Q435 65 458 48Q481 31 516 31Q555 31 578 56Q601 81 601 123Q601 152 582 169Q563 186 530 186Q509 186 490 178.5Q471 171 458 158L425 175L480 350H659L652 313H508L472 202Q486 211 504 215.5Q522 220 541 220Z" glyph-name="uni2155" horiz-adv-x="710" unicode="&#8533;" /><glyph d="M315 350H72L81 392L216 496Q266 534 282.5 558.5Q299 583 299 610Q299 637 281.5 653Q264 669 235 669Q204 669 181 650.5Q158 632 147 598L108 608Q123 655 157 680.5Q191 706 237 706Q285 706 314 680Q343 654 343 613Q343 589 334 567.5Q325 546 307 525Q298 515 286.5 504.5Q275 494 233 461L139 387H322ZM572 220Q620 220 648 194Q676 168 676 127Q676 68 640.5 31Q605 -6 547 -6Q500 -6 466 17Q432 40 423 77L460 94Q466 65 489 48Q512 31 547 31Q586 31 609 56Q632 81 632 123Q632 152 613 169Q594 186 561 186Q540 186 521 178.5Q502 171 489 158L456 175L511 350H690L683 313H539L503 202Q517 211 535 215.5Q553 220 572 220ZM208 0H161L569 700H615Z" glyph-name="uni2156" horiz-adv-x="741" unicode="&#8534;" /><glyph d="M569 220Q617 220 645 194Q673 168 673 127Q673 68 637.5 31Q602 -6 544 -6Q497 -6 463 17Q429 40 420 77L457 94Q463 65 486 48Q509 31 544 31Q583 31 606 56Q629 81 629 123Q629 152 610 169Q591 186 558 186Q537 186 518 178.5Q499 171 486 158L453 175L508 350H687L680 313H536L500 202Q514 211 532 215.5Q550 220 569 220ZM205 0H158L566 700H612ZM204 530Q197 530 190.5 529.5Q184 529 179 527L167 556L295 664H137L144 700H358L351 667L227 564Q271 560 296 534Q321 508 321 470Q321 415 285 379Q249 343 194 343Q146 343 112.5 366.5Q79 390 68 431L107 449Q115 416 137 398Q159 380 193 380Q229 380 252.5 404.5Q276 429 276 467Q276 497 257.5 513.5Q239 530 204 530Z" glyph-name="uni2157" horiz-adv-x="740" unicode="&#8535;" /><glyph d="M263 472 278 553 323 568 307 472H360L354 436H300L286 350H242L257 436H68L74 470L279 700H332L130 472ZM586 220Q634 220 662 194Q690 168 690 127Q690 68 654.5 31Q619 -6 561 -6Q514 -6 480 17Q446 40 437 77L474 94Q480 65 503 48Q526 31 561 31Q600 31 623 56Q646 81 646 123Q646 152 627 169Q608 186 575 186Q554 186 535 178.5Q516 171 503 158L470 175L525 350H704L697 313H553L517 202Q531 211 549 215.5Q567 220 586 220ZM222 0H175L583 700H629Z" glyph-name="uni2158" horiz-adv-x="760" unicode="&#8536;" /><glyph d="M510 214Q553 214 579.5 188.5Q606 163 606 122Q606 69 569.5 31.5Q533 -6 480 -6Q430 -6 399 22Q368 50 368 95Q368 125 382 156.5Q396 188 426 224L529 350H580L459 201Q471 208 483 211Q495 214 510 214ZM563 116Q563 147 544.5 164.5Q526 182 494 182Q458 182 434.5 158.5Q411 135 411 98Q411 67 430 48Q449 29 481 29Q515 29 539 54Q563 79 563 116ZM81 350 87 387H164L208 640Q188 623 163 614Q138 605 108 605L116 642Q153 642 180.5 657Q208 672 225 700H261L207 387H283L276 350ZM180 0H133L541 700H587Z" glyph-name="uni2159" horiz-adv-x="666" unicode="&#8537;" /><glyph d="M529 214Q572 214 598.5 188.5Q625 163 625 122Q625 69 588.5 31.5Q552 -6 499 -6Q449 -6 418 22Q387 50 387 95Q387 125 401 156.5Q415 188 445 224L548 350H599L478 201Q490 208 502 211Q514 214 529 214ZM582 116Q582 147 563.5 164.5Q545 182 513 182Q477 182 453.5 158.5Q430 135 430 98Q430 67 449 48Q468 29 500 29Q534 29 558 54Q582 79 582 116ZM221 570Q269 570 297 544Q325 518 325 477Q325 418 289.5 381Q254 344 196 344Q149 344 115 367Q81 390 72 427L109 444Q115 415 138 398Q161 381 196 381Q235 381 258 406Q281 431 281 473Q281 502 262 519Q243 536 210 536Q189 536 170 528.5Q151 521 138 508L105 525L160 700H339L332 663H188L152 552Q166 561 184 565.5Q202 570 221 570ZM199 0H152L560 700H606Z" glyph-name="uni215A" horiz-adv-x="686" unicode="&#8538;" /><glyph d="M178 0H131L539 700H585ZM79 350 85 387H162L206 640Q186 623 161 614Q136 605 106 605L114 642Q151 642 178.5 657Q206 672 223 700H259L205 387H281L274 350ZM472 187Q449 198 437 216Q425 234 425 257Q425 299 458.5 327.5Q492 356 543 356Q594 356 626 331Q658 306 658 267Q658 235 639 210.5Q620 186 587 177Q611 165 623.5 146Q636 127 636 102Q636 55 601 24.5Q566 -6 511 -6Q457 -6 423 21Q389 48 389 89Q389 123 411.5 150.5Q434 178 472 187ZM543 322Q511 322 489 303Q467 284 467 255Q467 228 486.5 212Q506 196 541 196Q575 196 595 215Q615 234 615 263Q615 289 595 305.5Q575 322 543 322ZM515 165Q478 165 455.5 143.5Q433 122 433 92Q433 64 455 46.5Q477 29 512 29Q546 29 569.5 49.5Q593 70 593 102Q593 132 572.5 148.5Q552 165 515 165Z" glyph-name="uni215B" horiz-adv-x="707" unicode="&#8539;" /><glyph d="M205 0H158L566 700H612ZM499 187Q476 198 464 216Q452 234 452 257Q452 299 485.5 327.5Q519 356 570 356Q621 356 653 331Q685 306 685 267Q685 235 666 210.5Q647 186 614 177Q638 165 650.5 146Q663 127 663 102Q663 55 628 24.5Q593 -6 538 -6Q484 -6 450 21Q416 48 416 89Q416 123 438.5 150.5Q461 178 499 187ZM570 322Q538 322 516 303Q494 284 494 255Q494 228 513.5 212Q533 196 568 196Q602 196 622 215Q642 234 642 263Q642 289 622 305.5Q602 322 570 322ZM542 165Q505 165 482.5 143.5Q460 122 460 92Q460 64 482 46.5Q504 29 539 29Q573 29 596.5 49.5Q620 70 620 102Q620 132 599.5 148.5Q579 165 542 165ZM204 530Q197 530 190.5 529.5Q184 529 179 527L167 556L295 664H137L144 700H358L351 667L227 564Q271 560 296 534Q321 508 321 470Q321 415 285 379Q249 343 194 343Q146 343 112.5 366.5Q79 390 68 431L107 449Q115 416 137 398Q159 380 193 380Q229 380 252.5 404.5Q276 429 276 467Q276 497 257.5 513.5Q239 530 204 530Z" glyph-name="uni215C" horiz-adv-x="736" unicode="&#8540;" /><glyph d="M186 0H139L547 700H593ZM480 187Q457 198 445 216Q433 234 433 257Q433 299 466.5 327.5Q500 356 551 356Q602 356 634 331Q666 306 666 267Q666 235 647 210.5Q628 186 595 177Q619 165 631.5 146Q644 127 644 102Q644 55 609 24.5Q574 -6 519 -6Q465 -6 431 21Q397 48 397 89Q397 123 419.5 150.5Q442 178 480 187ZM551 322Q519 322 497 303Q475 284 475 255Q475 228 494.5 212Q514 196 549 196Q583 196 603 215Q623 234 623 263Q623 289 603 305.5Q583 322 551 322ZM523 165Q486 165 463.5 143.5Q441 122 441 92Q441 64 463 46.5Q485 29 520 29Q554 29 577.5 49.5Q601 70 601 102Q601 132 580.5 148.5Q560 165 523 165ZM221 570Q269 570 297 544Q325 518 325 477Q325 418 289.5 381Q254 344 196 344Q149 344 115 367Q81 390 72 427L109 444Q115 415 138 398Q161 381 196 381Q235 381 258 406Q281 431 281 473Q281 502 262 519Q243 536 210 536Q189 536 170 528.5Q151 521 138 508L105 525L160 700H339L332 663H188L152 552Q166 561 184 565.5Q202 570 221 570Z" glyph-name="uni215D" horiz-adv-x="715" unicode="&#8541;" /><glyph d="M298 663H110L116 700H352L346 666L147 350H99ZM127 0H80L488 700H534ZM421 187Q398 198 386 216Q374 234 374 257Q374 299 407.5 327.5Q441 356 492 356Q543 356 575 331Q607 306 607 267Q607 235 588 210.5Q569 186 536 177Q560 165 572.5 146Q585 127 585 102Q585 55 550 24.5Q515 -6 460 -6Q406 -6 372 21Q338 48 338 89Q338 123 360.5 150.5Q383 178 421 187ZM492 322Q460 322 438 303Q416 284 416 255Q416 228 435.5 212Q455 196 490 196Q524 196 544 215Q564 234 564 263Q564 289 544 305.5Q524 322 492 322ZM464 165Q427 165 404.5 143.5Q382 122 382 92Q382 64 404 46.5Q426 29 461 29Q495 29 518.5 49.5Q542 70 542 102Q542 132 521.5 148.5Q501 165 464 165Z" glyph-name="uni215E" horiz-adv-x="658" unicode="&#8542;" /><glyph d="M92 350 98 387H175L219 640Q199 623 174 614Q149 605 119 605L127 642Q164 642 191.5 657Q219 672 236 700H272L218 387H294L287 350ZM191 0H144L552 700H598Z" glyph-name="uni215F" horiz-adv-x="408" unicode="&#8543;" /><glyph d="M11 0H-36L372 700H418Z" glyph-name="uni2215" horiz-adv-x="347" unicode="&#8725;" /><glyph d="M131.5 319Q131.5 292 150.25 272.5Q169 253 196 253Q223 253 242.5 272.5Q262 292 262 319Q262 346 242.5 364.75Q223 383.5 196 383.5Q169 383.5 150.25 364.75Q131.5 346 131.5 319ZM142 334Z" glyph-name="uni2219" horiz-adv-x="370" /><glyph d="M1408 529H70V537H1408ZM1215 257Q1215 262 1215 287.5Q1215 313 1214 332L1185 330V334Q1185 344 1188 349Q1191 354 1197 354H1214L1211 384Q1230 390 1234.5 391Q1239 392 1243 392Q1248 392 1251 390Q1254 388 1254 384V355H1301V352Q1301 341 1298 336Q1295 331 1289 331H1254V241Q1254 233 1258 229.5Q1262 226 1270 226Q1276 226 1283 227Q1290 228 1304 231Q1324 235 1334.5 236Q1345 237 1355 237Q1377 237 1397 230.5Q1417 224 1417 213Q1417 200 1408.5 192.5Q1400 185 1390 185Q1388 185 1385 186Q1382 187 1374 192Q1355 202 1342.5 205.5Q1330 209 1319 209Q1315 209 1310 208.5Q1305 208 1293 206Q1275 203 1264 202Q1253 201 1243 201Q1226 201 1221 210.5Q1216 220 1215 257ZM1198 290Q1198 278 1192 270.5Q1186 263 1173 258Q1164 255 1154 253.5Q1144 252 1129 252Q1130 242 1137 236Q1144 230 1155 230Q1164 230 1171.5 232Q1179 234 1187 239Q1191 236 1193 232Q1195 228 1195 223Q1195 214 1182.5 207Q1170 200 1148 200Q1120 200 1104 214.5Q1088 229 1088 253Q1088 282 1107 301.5Q1126 321 1157 321Q1175 321 1186.5 312Q1198 303 1198 290ZM875 290Q875 278 869 270.5Q863 263 850 258Q841 255 831 253.5Q821 252 806 252Q807 242 814 236Q821 230 832 230Q841 230 848.5 232Q856 234 864 239Q868 236 870 232Q872 228 872 223Q872 214 859.5 207Q847 200 825 200Q797 200 781 214.5Q765 229 765 253Q765 282 784 301.5Q803 321 834 321Q852 321 863.5 312Q875 303 875 290ZM176 290Q176 278 170 270.5Q164 263 151 258Q142 255 132 253.5Q122 252 107 252Q108 242 115 236Q122 230 133 230Q142 230 149.5 232Q157 234 165 239Q169 236 171 232Q173 228 173 223Q173 214 160.5 207Q148 200 126 200Q98 200 82 214.5Q66 229 66 253Q66 282 85 301.5Q104 321 135 321Q153 321 164.5 312Q176 303 176 290ZM1043 321Q1057 321 1064.5 313Q1072 305 1072 289V240L1074 208Q1055 202 1050.5 201Q1046 200 1043 200Q1038 200 1035 202Q1032 204 1032 208V275Q1032 283 1030 286.5Q1028 290 1024 290Q1017 290 1007.5 272.5Q998 255 998 242L1001 208Q982 202 977.5 201Q973 200 969 200Q964 200 961 202Q958 204 958 208V277L955 313Q974 319 978.5 320Q983 321 987 321Q992 321 995 318.5Q998 316 998 312V272Q1007 296 1018 308.5Q1029 321 1043 321ZM353 321Q367 321 374 313Q381 305 381 289V240L384 208Q365 202 360.5 201Q356 200 353 200Q348 200 345 202Q342 204 342 208V274Q342 283 340 286.5Q338 290 334 290Q327 290 317.5 272.5Q308 255 308 242L310 208Q291 202 286.5 201Q282 200 279 200Q274 200 271 202Q268 204 268 208V274Q268 283 266 286.5Q264 290 260 290Q253 290 243.5 272.5Q234 255 234 242L237 208Q218 202 213.5 201Q209 200 205 200Q200 200 197 202Q194 204 194 208V277L191 313Q210 319 214.5 320Q219 321 223 321Q228 321 231 318.5Q234 316 234 312V272Q240 292 252 306.5Q264 321 279 321Q293 321 300.5 313Q308 305 308 289V272Q314 294 326 307.5Q338 321 353 321ZM829 298Q820 298 813.5 288.5Q807 279 805 264Q821 264 831.5 269.5Q842 275 842 285Q842 291 838.5 294.5Q835 298 829 298ZM1152 298Q1143 298 1136.5 288.5Q1130 279 1128 264Q1144 264 1154.5 269.5Q1165 275 1165 285Q1165 291 1161.5 294.5Q1158 298 1152 298ZM130 298Q121 298 114.5 288.5Q108 279 106 264Q122 264 132.5 269.5Q143 275 143 285Q143 291 139.5 294.5Q136 298 130 298ZM665 242V219Q688 222 699 235Q710 248 710 270Q710 280 706.5 285Q703 290 697 290Q685 290 675 272Q665 254 665 242ZM890 226Q890 236 897 243Q904 250 915 250Q926 250 933.5 243Q941 236 941 226Q941 216 933.5 209.5Q926 203 915 203Q904 203 897 209.5Q890 216 890 226ZM712 320Q730 320 741 306Q752 292 752 269Q752 236 729.5 218.5Q707 201 665 201V161L668 129Q649 123 644.5 122Q640 121 636 121Q631 121 628 123Q625 125 625 129V204L600 201V198Q600 160 582.5 139.5Q565 119 532 119Q513 119 502 128.5Q491 138 491 153Q491 171 507.5 184Q524 197 561 206V248Q553 225 541 212.5Q529 200 515 200Q501 200 494 207.5Q487 215 487 231V234Q477 217 464 209Q451 201 434 201Q421 201 413 209Q405 217 405 231V332L376 330V334Q376 344 379 349Q382 354 388 354H405L402 384Q421 390 425.5 391Q430 392 434 392Q439 392 442 390Q445 388 445 384V355H492V352Q492 341 489 336Q486 331 480 331H445V245Q445 237 448 233Q451 229 458 229Q468 229 477.5 237Q487 245 487 255V280L484 313Q503 319 507.5 320Q512 321 516 321Q521 321 524 318.5Q527 316 527 312V246Q527 238 528.5 234.5Q530 231 534 231Q541 231 550.5 248Q560 265 560 279L558 313Q577 319 581.5 320Q586 321 589 321Q594 321 597 318.5Q600 316 600 312V213L625 216V277L622 313Q641 319 645.5 320Q650 321 654 321Q659 321 662 318.5Q665 316 665 312V272Q673 295 685 307.5Q697 320 712 320ZM533 148Q545 148 552 159Q559 170 560 194Q541 190 530 181.5Q519 173 519 162Q519 155 523 151.5Q527 148 533 148ZM1408 0H70V8H1408Z" glyph-name="uniF8FF" horiz-adv-x="1484" unicode="&#63743;" /><glyph d="M489 495H542L455 0H449Q385 -31 354 -63Q323 -95 323 -130Q323 -155 340 -169Q357 -183 388 -183Q396 -183 403.5 -182Q411 -181 421 -178L415 -212Q407 -216 397.5 -218Q388 -220 375 -220Q329 -220 303 -198Q277 -176 277 -139Q277 -99 311 -60.5Q345 -22 407 5L421 90Q390 40 346 14Q302 -12 248 -12Q158 -12 112 48Q66 108 82 202L133 495H186L135 209Q121 130 153.5 83.5Q186 37 258 37Q330 37 378 87Q426 137 442 227Z" glyph-name="uogonek" horiz-adv-x="597" unicode="&#371;" /><glyph d="M460 661Q460 704 430 734Q400 764 357 764Q314 764 284.5 734Q255 704 255 661Q255 619 284.5 589Q314 559 357 559Q400 559 430 589Q460 619 460 661ZM292 661Q292 689 311 708.5Q330 728 357 728Q384 728 403.5 708Q423 688 423 661Q423 634 403.5 615Q384 596 357 596Q330 596 311 615Q292 634 292 661ZM337 495ZM542 495 455 0H406L421 90Q390 40 346 14Q302 -12 248 -12Q158 -12 112 48Q66 108 82 202L133 495H186L135 209Q121 130 153.5 83.5Q186 37 258 37Q330 37 378 87Q426 137 442 227L489 495ZM337 495ZM414 0Z" glyph-name="uring" horiz-adv-x="597" unicode="&#367;" /><glyph d="M542 495 455 0H406L421 90Q390 40 346 14Q302 -12 248 -12Q158 -12 112 48Q66 108 82 202L133 495H186L135 209Q121 130 153.5 83.5Q186 37 258 37Q330 37 378 87Q426 137 442 227L489 495ZM337 495ZM414 0ZM355 635Q379 617 392.5 611.5Q406 606 420 606Q450 606 469 628.5Q488 651 492 692H453Q451 671 442 660Q433 649 417 649Q407 649 396 654Q385 659 363 675Q337 695 322 701Q307 707 292 707Q259 707 238.5 684Q218 661 211 617H250Q254 640 265 652Q276 664 292 664Q306 664 319 658.5Q332 653 355 635ZM337 495Z" glyph-name="utilde" horiz-adv-x="597" unicode="&#361;" /><glyph d="M192 0 74 495H128L228 63L478 495H536L245 0Z" glyph-name="v" horiz-adv-x="523" unicode="v" /><glyph d="M150 0 77 495H129L187 69L392 495H445L502 69L707 495H761L516 0H466L407 424L201 0ZM419 495Z" glyph-name="w" horiz-adv-x="752" unicode="w" /><glyph d="M567 726H505L405 587H456ZM419 495ZM150 0 77 495H129L187 69L392 495H445L502 69L707 495H761L516 0H466L407 424L201 0ZM419 495Z" glyph-name="wacute" horiz-adv-x="752" unicode="&#7811;" /><glyph d="M319 587 411 726H469L538 587H491L437 686L365 587ZM419 495ZM150 0 77 495H129L187 69L392 495H445L502 69L707 495H761L516 0H466L407 424L201 0ZM419 495Z" glyph-name="wcircumflex" horiz-adv-x="752" unicode="&#373;" /><glyph d="M327 656Q327 640 338.5 628.5Q350 617 367 617Q384 617 395.5 628.5Q407 640 407 656Q407 673 395.5 684.5Q384 696 367 696Q351 696 339 684.5Q327 673 327 656ZM467 656Q467 640 478.5 628.5Q490 617 506 617Q523 617 534.5 628.5Q546 640 546 656Q546 673 534.5 684.5Q523 696 506 696Q490 696 478.5 684.5Q467 673 467 656ZM419 495ZM150 0 77 495H129L187 69L392 495H445L502 69L707 495H761L516 0H466L407 424L201 0ZM419 495Z" glyph-name="wdieresis" horiz-adv-x="752" unicode="&#7813;" /><glyph d="M150 0 77 495H129L187 69L392 495H445L502 69L707 495H761L516 0H466L407 424L201 0ZM419 495ZM442 587 367 726H305L392 587ZM419 495Z" glyph-name="wgrave" horiz-adv-x="752" unicode="&#7809;" /><glyph d="M226 253 77 495H134L262 286L463 495H526L286 248L440 0H383L251 215L43 0H-20Z" glyph-name="x" horiz-adv-x="511" unicode="x" /><glyph d="M187 -9 75 495H129L224 54L480 495H538L120 -218H63ZM303 495Z" glyph-name="y" horiz-adv-x="525" unicode="y" /><glyph d="M187 -9 75 495H129L224 54L480 495H538L120 -218H63ZM303 495ZM451 726H389L289 587H340ZM303 495Z" glyph-name="yacute" horiz-adv-x="525" unicode="&#253;" /><glyph d="M187 -9 75 495H129L224 54L480 495H538L120 -218H63ZM303 495ZM203 587 295 726H353L422 587H375L321 686L249 587ZM303 495Z" glyph-name="ycircumflex" horiz-adv-x="525" unicode="&#375;" /><glyph d="M187 -9 75 495H129L224 54L480 495H538L120 -218H63ZM303 495ZM212 656Q212 640 223.5 628.5Q235 617 252 617Q269 617 280.5 628.5Q292 640 292 656Q292 673 280.5 684.5Q269 696 252 696Q236 696 224 684.5Q212 673 212 656ZM352 656Q352 640 363.5 628.5Q375 617 391 617Q408 617 419.5 628.5Q431 640 431 656Q431 673 419.5 684.5Q408 696 391 696Q375 696 363.5 684.5Q352 673 352 656ZM304 495Z" glyph-name="ydieresis" horiz-adv-x="525" unicode="&#255;" /><glyph d="M256 199H82L89 239H263L275 306L271 317H103L110 357H254L115 700H170L307 357H310L568 700H628L368 357H516L509 317H338L331 308L319 239H495L488 199H312L276 0H221Z" glyph-name="yen" horiz-adv-x="588" unicode="&#165;" /><glyph d="M187 -9 75 495H129L224 54L480 495H538L120 -218H63ZM303 495ZM326 587 251 726H189L276 587ZM303 495Z" glyph-name="ygrave" horiz-adv-x="525" unicode="&#7923;" /><glyph d="M69 48H401L393 0H-8L-2 41L399 447H88L96 495H475L468 453ZM286 495Z" glyph-name="z" horiz-adv-x="476" unicode="z" /><glyph d="M434 726H372L272 587H323ZM286 495ZM69 48H401L393 0H-8L-2 41L399 447H88L96 495H475L468 453ZM286 495Z" glyph-name="zacute" horiz-adv-x="476" unicode="&#378;" /><glyph d="M324 587H266L198 726H244L299 627L371 726H417ZM286 495ZM69 48H401L393 0H-8L-2 41L399 447H88L96 495H475L468 453ZM286 495Z" glyph-name="zcaron" horiz-adv-x="476" unicode="&#382;" /><glyph d="M69 48H401L393 0H-8L-2 41L399 447H88L96 495H475L468 453ZM286 495ZM260 656Q260 637 273.5 623.5Q287 610 306 610Q325 610 338.5 623.5Q352 637 352 656Q352 676 338.5 689.5Q325 703 306 703Q287 703 273.5 689Q260 675 260 656ZM286 495Z" glyph-name="zdotaccent" horiz-adv-x="476" unicode="&#380;" /><glyph d="M288 -12Q415 -12 498.5 119.5Q582 251 582 449Q582 573 527.5 642.5Q473 712 372 712Q246 712 162.5 580Q79 448 79 251Q79 130 133.5 59Q188 -12 288 -12ZM525 453Q525 277 458.5 157.5Q392 38 292 38Q216 38 176 92.5Q136 147 136 247Q136 423 202 543Q268 663 368 663Q444 663 484.5 608.5Q525 554 525 453Z" glyph-name="zero" horiz-adv-x="625" unicode="0" /><glyph d="M299 219Q299 283 268.5 319.5Q238 356 182 356Q115 356 71 292.5Q27 229 27 132Q27 70 58.5 32Q90 -6 144 -6Q212 -6 255.5 57.5Q299 121 299 219ZM255 219Q255 140 223.5 85.5Q192 31 145 31Q109 31 89.5 57.5Q70 84 70 131Q70 210 101.5 264.5Q133 319 180 319Q216 319 235.5 293Q255 267 255 219Z" glyph-name="zero.denominator" horiz-adv-x="350" unicode="&#63061;" /><glyph d="M274 79Q274 143 243.5 179.5Q213 216 157 216Q90 216 46 152.5Q2 89 2 -8Q2 -70 33.5 -108Q65 -146 119 -146Q187 -146 230.5 -82.5Q274 -19 274 79ZM230 79Q230 0 198.5 -54.5Q167 -109 120 -109Q84 -109 64.5 -82.5Q45 -56 45 -9Q45 70 76.5 124.5Q108 179 155 179Q191 179 210.5 153Q230 127 230 79Z" glyph-name="zero.inferior" horiz-adv-x="350" unicode="&#8320;" /><glyph d="M361 569Q361 633 330.5 669.5Q300 706 244 706Q177 706 133 642.5Q89 579 89 482Q89 420 120.5 382Q152 344 206 344Q274 344 317.5 407.5Q361 471 361 569ZM317 569Q317 490 285.5 435.5Q254 381 207 381Q171 381 151.5 407.5Q132 434 132 481Q132 560 163.5 614.5Q195 669 242 669Q278 669 297.5 643Q317 617 317 569Z" glyph-name="zero.numerator" horiz-adv-x="350" unicode="&#63073;" /><glyph d="M385 709Q385 773 354.5 809.5Q324 846 268 846Q201 846 157 782.5Q113 719 113 622Q113 560 144.5 522Q176 484 230 484Q298 484 341.5 547.5Q385 611 385 709ZM341 709Q341 630 309.5 575.5Q278 521 231 521Q195 521 175.5 547.5Q156 574 156 621Q156 700 187.5 754.5Q219 809 266 809Q302 809 321.5 783Q341 757 341 709Z" glyph-name="zero.superior" horiz-adv-x="350" unicode="&#8304;" /><glyph d="M265 -12Q392 -12 475.5 119.5Q559 251 559 449Q559 573 504.5 642.5Q450 712 349 712Q223 712 139.5 580Q56 448 56 251Q56 130 110.5 59Q165 -12 265 -12ZM502 453Q502 277 435.5 157.5Q369 38 269 38Q193 38 153 92.5Q113 147 113 247Q113 423 179 543Q245 663 345 663Q421 663 461.5 608.5Q502 554 502 453Z" glyph-name="zero.tab" horiz-adv-x="580" unicode="&#65296;" /></font>
</defs>
</svg>
