
<svg version="1.1" id="target" xmlns="http://www.w3.org/2000/svg" xmlns:xlink="http://www.w3.org/1999/xlink" x="0px" y="0px"
	 viewBox="0 0 24 24" style="enable-background:new 0 0 24 24;" xml:space="preserve">
<g>
	<title>color-palette-sample-1</title>
	<path d="M5.286,7.5c-1.241,0-2.25-1.009-2.25-2.25S4.046,3,5.286,3s2.25,1.009,2.25,2.25S6.527,7.5,5.286,7.5z M5.286,4.5
		c-0.414,0-0.75,0.336-0.75,0.75S4.873,6,5.286,6s0.75-0.336,0.75-0.75S5.7,4.5,5.286,4.5z"/>
	<path d="M5.286,13.5c-1.241,0-2.25-1.009-2.25-2.25C3.036,10.01,4.046,9,5.286,9s2.25,1.009,2.25,2.25
		C7.536,12.491,6.527,13.5,5.286,13.5z M5.286,10.5c-0.414,0-0.75,0.336-0.75,0.75S4.873,12,5.286,12s0.75-0.336,0.75-0.75
		S5.7,10.5,5.286,10.5z"/>
	<path d="M5.286,19.5c-1.241,0-2.25-1.009-2.25-2.25S4.046,15,5.286,15s2.25,1.009,2.25,2.25S6.527,19.5,5.286,19.5z M5.286,16.5
		c-0.414,0-0.75,0.336-0.75,0.75S4.873,18,5.286,18s0.75-0.336,0.75-0.75S5.7,16.5,5.286,16.5z"/>
	<path d="M5.285,24c-2.571,0-4.662-2.092-4.663-4.663V2.707C0.622,1.215,1.837,0,3.329,0h3.913c1.492,0.001,2.706,1.215,2.706,2.707
		v14.881l6.393-11.072c0.333-0.576,0.135-1.316-0.442-1.649L12.51,2.912C12.327,2.806,12.116,2.75,11.9,2.75l-0.042,0.001
		c-0.399,0-0.731-0.33-0.739-0.735c-0.004-0.2,0.07-0.39,0.209-0.535c0.139-0.145,0.326-0.226,0.526-0.23l0.062-0.001
		c0.469,0,0.934,0.126,1.345,0.363l3.388,1.956c1.292,0.746,1.737,2.405,0.99,3.698l-7.441,12.889l11.072-6.395
		c0.575-0.333,0.773-1.072,0.441-1.648l-1.957-3.389c-0.079-0.136-0.182-0.254-0.307-0.35c-0.328-0.252-0.39-0.724-0.139-1.052
		c0.143-0.187,0.36-0.294,0.595-0.294c0.166,0,0.324,0.053,0.456,0.155c0.282,0.217,0.515,0.483,0.693,0.79l1.957,3.389
		c0.745,1.292,0.301,2.95-0.99,3.696L7.666,23.35c-0.021,0.012-0.044,0.023-0.068,0.032C6.894,23.786,6.095,24,5.285,24
		C5.285,24,5.285,24,5.285,24z M3.329,1.5c-0.666,0-1.207,0.542-1.207,1.207v16.63c0,1.743,1.419,3.162,3.163,3.163
		c0.845,0,1.639-0.329,2.237-0.926c0.598-0.597,0.927-1.392,0.927-2.237V2.707c0-0.665-0.541-1.207-1.206-1.207H3.329z"/>
</g>
</svg>
