
<svg version="1.1" id="target" xmlns="http://www.w3.org/2000/svg" xmlns:xlink="http://www.w3.org/1999/xlink" x="0px" y="0px"
	 viewBox="0 0 24 24" style="enable-background:new 0 0 24 24;" xml:space="preserve">
<g>
	<title>color-bucket</title>
	<path d="M21.006,24.023c-0.772,0-1.515-0.285-2.092-0.802c-0.941-0.84-1.18-2.203-0.58-3.314l2.012-3.722
		c0.131-0.243,0.384-0.394,0.66-0.394s0.529,0.151,0.66,0.394l2.012,3.722c0.6,1.112,0.361,2.475-0.581,3.316
		C22.521,23.738,21.778,24.023,21.006,24.023z M19.653,20.619c-0.268,0.497-0.161,1.108,0.261,1.484
		c0.302,0.271,0.689,0.419,1.091,0.419s0.79-0.148,1.091-0.418c0.423-0.377,0.53-0.988,0.261-1.486l-1.352-2.501L19.653,20.619z"/>
	<path d="M8.662,20.62c-0.266,0-0.527-0.047-0.775-0.139c-3.603-1.317-6.426-4.14-7.744-7.746c-0.268-0.733-0.13-1.566,0.359-2.174
		l7.814-9.887c0.049-0.07,0.098-0.13,0.149-0.181c0.008-0.008,0.029-0.026,0.037-0.034C8.787,0.196,9.18,0.06,9.669,0.06
		c1.631,0,4.155,1.55,6.751,4.147c3.387,3.387,4.905,6.545,3.787,7.87c-0.042,0.057-0.087,0.105-0.137,0.144L10.063,20.13
		C9.672,20.445,9.173,20.62,8.662,20.62z M1.675,11.498c-0.165,0.205-0.211,0.481-0.123,0.724c1.166,3.189,3.663,5.687,6.853,6.852
		c0.084,0.031,0.17,0.047,0.258,0.047c0.169,0,0.334-0.058,0.464-0.163l8.411-6.647c-1.528-0.557-3.399-1.9-5.36-3.862
		c-1.959-1.959-3.302-3.829-3.86-5.356L1.675,11.498z M9.535,1.553C9.319,1.864,10.03,4.18,13.238,7.389
		c2.722,2.722,4.925,3.736,5.673,3.736c0.123,0,0.163-0.026,0.163-0.026c0.21-0.293-0.499-2.615-3.715-5.831
		c-2.722-2.722-4.924-3.737-5.673-3.737C9.598,1.531,9.553,1.545,9.535,1.553z"/>
</g>
</svg>
