
<svg version="1.1" id="target" xmlns="http://www.w3.org/2000/svg" xmlns:xlink="http://www.w3.org/1999/xlink" x="0px" y="0px"
	 viewBox="0 0 24 24" style="enable-background:new 0 0 24 24;" xml:space="preserve">
<g>
	<title>vectors-pen-anchor</title>
	<path d="M20.379,15.621c-0.401,0-0.778-0.156-1.061-0.439l-2.121-2.121c-0.283-0.283-0.439-0.66-0.439-1.061
		c0-0.401,0.156-0.777,0.439-1.061l0.531-0.531l-4.136-4.136l-0.531,0.531C12.778,7.086,12.401,7.242,12,7.242
		s-0.777-0.156-1.061-0.439l-0.53-0.53l-4.136,4.136l0.53,0.53c0.585,0.585,0.585,1.536,0,2.121l-2.122,2.121
		c-0.283,0.283-0.66,0.439-1.061,0.439c-0.401,0-0.777-0.156-1.061-0.439L0.439,13.06C0.156,12.777,0.001,12.401,0.001,12
		s0.156-0.778,0.439-1.061l2.121-2.121c0.283-0.283,0.66-0.439,1.061-0.439s0.778,0.156,1.061,0.439l0.53,0.531l4.136-4.136
		l-0.53-0.531C8.536,4.399,8.38,4.022,8.38,3.621S8.536,2.843,8.818,2.56l2.121-2.121C11.223,0.156,11.6,0,12,0
		c0.401,0,0.777,0.156,1.061,0.439l2.121,2.121c0.283,0.283,0.439,0.66,0.439,1.061c0,0.401-0.156,0.777-0.439,1.061l-0.53,0.53
		l4.136,4.136l0.53-0.53c0.283-0.283,0.66-0.439,1.061-0.439s0.778,0.156,1.061,0.439l2.121,2.121C23.844,11.223,24,11.599,24,12
		c0,0.401-0.156,0.778-0.44,1.061l-2.121,2.121C21.157,15.465,20.78,15.621,20.379,15.621z M18.258,12l2.121,2.121L22.5,12
		l-2.121-2.121c0,0-1.063,1.063-1.07,1.07L18.258,12z M1.5,12l2.121,2.121L5.743,12L3.621,9.878L1.5,12z M12,5.742l2.121-2.121
		L12,1.5L9.879,3.621c0,0,1.067,1.067,1.07,1.07L12,5.742z"/>
	<path d="M12.052,22.498c-1.32,0-2.56-0.513-3.491-1.444c-1.505-1.505-1.876-3.795-0.925-5.699l2.985-5.97
		c0.153-0.307,0.407-0.562,0.715-0.716c0.201-0.1,0.421-0.156,0.653-0.164c0.022-0.003,0.042-0.004,0.063-0.004
		c0.039,0,0.077,0.003,0.114,0.009c0.563,0.041,1.066,0.375,1.316,0.875l2.985,5.97c0.952,1.904,0.58,4.194-0.925,5.699
		C14.612,21.985,13.372,22.498,12.052,22.498z M8.979,16.026c-0.663,1.325-0.404,2.919,0.643,3.967
		c0.648,0.648,1.511,1.004,2.43,1.004c0.919,0,1.782-0.357,2.431-1.004c1.047-1.048,1.306-2.642,0.643-3.967l-2.323-4.646v5.089
		c0,0.414-0.336,0.75-0.75,0.75c-0.414,0-0.75-0.336-0.75-0.75v-5.091L8.979,16.026z"/>
	<path d="M7.501,24c-0.414,0-0.75-0.336-0.75-0.75s0.336-0.75,0.75-0.75h9c0.414,0,0.75,0.336,0.75,0.75S16.914,24,16.501,24H7.501z
		"/>
</g>
</svg>
