<svg id="target" xmlns="http://www.w3.org/2000/svg" xmlns:xlink="http://www.w3.org/1999/xlink" x="0px" y="0px"
	 viewBox="0 0 24 24" style="enable-background:new 0 0 24 24;" xml:space="preserve">
<title>ecology-plant-deal</title>
<g>
	<path d="M10.741,23.859c-0.338,0-0.66-0.145-0.885-0.397l-2.124-1.603H6.889c-0.209,0.598-0.755,1-1.389,1H4c-0.551,0-1-0.448-1-1
		v-6c0-0.552,0.449-1,1-1h1.5c0.565,0,1.066,0.32,1.317,0.821l2.334-0.993c0.244-0.097,0.492-0.145,0.745-0.145
		c0.419,0,0.821,0.132,1.162,0.383l0.007,0.005l1.734-0.848c0.295-0.146,0.628-0.225,0.963-0.225c0.253,0,0.5,0.043,0.736,0.128
		l3.096,1.186c0.263-0.203,0.579-0.312,0.907-0.312H20c0.552,0,1,0.448,1,1v6c0,0.552-0.448,1-1,1h-1.5c-0.827,0-1.5-0.673-1.5-1.5
		V21.12l-3.238,0.648l-2.276,1.826C11.277,23.765,11.012,23.859,10.741,23.859z M7.9,20.859c0.109,0,0.217,0.036,0.303,0.103
		l2.329,1.77c0.088,0.091,0.154,0.124,0.217,0.124c0.04,0,0.077-0.013,0.109-0.039l3.502-2.81c0.072-0.06,0.082-0.17,0.021-0.248
		l-1.662-1.833l-0.382,0.157c-0.207,0.084-0.423,0.127-0.643,0.127c-0.694,0-1.312-0.414-1.576-1.056
		c-0.208-0.507-0.152-1.085,0.133-1.544c-0.111-0.046-0.231-0.068-0.354-0.068c-0.125,0-0.248,0.023-0.365,0.071L7,16.69v4.169H7.9z
		 M18.5,15.859c-0.275,0-0.5,0.225-0.5,0.5v5c0,0.275,0.225,0.5,0.5,0.5H20v-6H18.5z M4,21.859h1.5c0.276,0,0.5-0.225,0.5-0.5v-5
		c0-0.275-0.224-0.5-0.5-0.5H4C4,15.859,4,21.859,4,21.859z M15.145,19.112c0.319,0.404,0.353,0.927,0.126,1.335L17,20.101v-3.741
		c0-0.111,0.013-0.222,0.037-0.33l-2.889-1.105c-0.121-0.044-0.253-0.066-0.388-0.066c-0.181,0-0.36,0.042-0.521,0.122l-1.856,0.901
		c-0.329,0.162-0.478,0.555-0.338,0.895c0.108,0.264,0.362,0.435,0.648,0.435c0.091,0,0.18-0.018,0.265-0.053l1.898-0.779L14,16.359
		c0.203,0,0.384,0.121,0.462,0.31c0.052,0.124,0.051,0.261-0.001,0.384c-0.051,0.123-0.147,0.219-0.271,0.27l-0.488,0.199
		L15.145,19.112z"/>
	<path d="M23.451,14.207l-0.143-0.038c-3.579-1.524-7.382-2.297-11.308-2.297c-3.926,0-7.729,0.772-11.304,2.296l-0.047,0.02
		l-0.148,0.019c-0.202,0-0.383-0.119-0.461-0.304c-0.108-0.252,0.01-0.547,0.263-0.655c3.607-1.536,7.438-2.334,11.394-2.373
		c-0.328-1.07-0.764-2.105-1.299-3.084C9.949,8.476,9.406,8.863,8.78,8.941c-0.081,0.01-0.16,0.015-0.239,0.015
		c-1.102,0-2.064-0.941-2.54-1.502C4.855,6.111,4.403,2.893,5.072,0.833C5.153,0.58,5.329,0.373,5.567,0.25
		c0.142-0.073,0.299-0.11,0.456-0.11c0.104,0,0.207,0.016,0.307,0.048c0.083,0.025,0.168,0.066,0.247,0.119
		C7.27,0.761,8.033,0.991,8.771,1.213c1.059,0.318,2.054,0.618,2.81,1.503c0.797,0.938,1.112,1.827,0.936,2.642
		c-0.142,0.655-0.611,1.219-1.396,1.678c0.549,0.961,1.004,1.959,1.356,2.977c0.279-0.49,0.683-1.118,1.191-1.704
		c-0.561-0.562-0.675-1.113-0.666-1.492c0.015-0.709,0.456-1.405,1.211-1.908c0.656-0.438,1.317-0.608,1.956-0.774
		c0.557-0.144,1.131-0.292,1.707-0.627c0.096-0.054,0.193-0.091,0.292-0.112c0.068-0.015,0.14-0.022,0.21-0.022
		c0.19,0,0.376,0.055,0.539,0.158c0.227,0.145,0.382,0.369,0.438,0.63c0.35,1.744-0.029,3.578-1.04,5.036
		c-0.681,0.726-1.439,1.11-2.159,1.11c-0.112,0-0.222-0.009-0.328-0.028c-0.615-0.108-1.124-0.505-1.516-1.181
		c-0.53,0.642-0.934,1.34-1.176,1.803c3.678,0.137,7.228,0.925,10.56,2.344c0.254,0.109,0.372,0.403,0.266,0.656
		c-0.08,0.186-0.261,0.305-0.461,0.305H23.451z M15.038,8.346c0.264,0.565,0.587,0.883,0.964,0.95
		c0.054,0.009,0.107,0.014,0.163,0.014c0.429,0,0.931-0.27,1.376-0.74c0.816-1.189,1.13-2.732,0.835-4.204
		c-0.694,0.412-1.336,0.578-1.957,0.738c-0.584,0.151-1.136,0.294-1.651,0.638c-0.465,0.31-0.759,0.73-0.767,1.098
		c-0.005,0.25,0.121,0.505,0.376,0.759c0.711-0.619,1.45-0.982,2.202-1.081l0.069-0.005c0.246,0,0.457,0.187,0.491,0.435
		c0.035,0.274-0.158,0.526-0.431,0.562C16.153,7.583,15.593,7.864,15.038,8.346z M6.022,1.141c-0.558,1.722-0.185,4.582,0.74,5.666
		c0.619,0.731,1.269,1.149,1.781,1.149c0.037,0,0.074-0.002,0.11-0.007c0.427-0.053,0.812-0.428,1.147-1.115
		c0.004-0.01,0.009-0.019,0.014-0.028C9.038,5.594,8.118,4.496,7.078,3.541C6.98,3.451,6.922,3.328,6.917,3.195
		c-0.006-0.134,0.041-0.261,0.131-0.36c0.097-0.104,0.23-0.162,0.369-0.162c0.125,0,0.245,0.047,0.337,0.131
		c1.091,1.001,2.051,2.137,2.855,3.376c0.537-0.312,0.85-0.659,0.931-1.034c0.133-0.616-0.318-1.31-0.721-1.782
		c-0.564-0.662-1.383-0.908-2.332-1.193C7.68,1.929,6.845,1.678,6.025,1.141L6.023,0.89L6.022,1.141L5.959,0.898L6.022,1.141z"/>
</g>
</svg>
