<svg id="target" xmlns="http://www.w3.org/2000/svg" xmlns:xlink="http://www.w3.org/1999/xlink" x="0px" y="0px"
	 viewBox="0 0 24 24" style="enable-background:new 0 0 24 24;" xml:space="preserve">
<title>pollution-rain-skull</title>
<g>
	<path d="M3.5,23.927c-0.135,0-0.262-0.054-0.357-0.15c-0.192-0.196-0.19-0.514,0.006-0.706l4-3.928C7.245,19.051,7.369,19,7.5,19
		c0.136,0,0.263,0.054,0.357,0.15c0.192,0.196,0.19,0.514-0.006,0.706l-4,3.928C3.756,23.876,3.632,23.927,3.5,23.927z"/>
	<path d="M8.5,24c-0.133,0-0.259-0.052-0.354-0.146c-0.195-0.195-0.195-0.512,0-0.707l4-4C12.241,19.052,12.367,19,12.5,19
		s0.259,0.052,0.354,0.146c0.195,0.195,0.195,0.512,0,0.707l-4,4C8.759,23.948,8.633,24,8.5,24z"/>
	<path d="M13.5,24c-0.134,0-0.259-0.052-0.354-0.146c-0.195-0.195-0.195-0.512,0-0.707l4-4C17.241,19.052,17.366,19,17.5,19
		s0.259,0.052,0.354,0.146c0.195,0.195,0.195,0.512,0,0.707l-4,4C13.759,23.948,13.634,24,13.5,24z"/>
	<path d="M12.5,15c-0.276,0-0.5-0.225-0.5-0.5V13c0-0.276,0.224-0.5,0.5-0.5S13,12.724,13,13v1.5C13,14.775,12.776,15,12.5,15z"/>
	<path d="M14.5,15c-0.275,0-0.5-0.225-0.5-0.5v-1.877c0-0.197,0.116-0.376,0.297-0.457c1.05-0.467,1.719-1.511,1.703-2.659
		C16,7.572,14.43,6,12.5,6S9,7.57,9,9.5c-0.015,1.154,0.654,2.2,1.703,2.667c0.18,0.08,0.297,0.259,0.297,0.457V14.5
		c0,0.275-0.224,0.5-0.5,0.5S10,14.775,10,14.5v-1.567c-1.238-0.684-2.019-2.017-2-3.44C8,7.017,10.019,5,12.5,5S17,7.019,17,9.5
		c0.019,1.417-0.762,2.749-2,3.432V14.5C15,14.775,14.775,15,14.5,15z"/>
	<circle cx="13.75" cy="9.25" r="0.75"/>
	<circle cx="11.25" cy="9.25" r="0.75"/>
	<path d="M6,18c-3.309,0-6-2.691-6-6c0-3.15,2.406-5.735,5.519-5.981c0.198-2.535,1.908-4.779,4.314-5.63
		c0.699-0.246,1.426-0.371,2.161-0.371c2.607,0,4.996,1.594,5.999,3.984h0.008c0.441,0,0.878,0.073,1.298,0.218
		c1.01,0.347,1.824,1.067,2.293,2.028c0.407,0.836,0.511,1.78,0.297,2.678C23.195,9.858,24,11.408,24,13.015
		C23.98,15.765,21.752,18,19.032,18H6z M11.994,1.017c-0.621,0-1.236,0.106-1.827,0.315C7.98,2.104,6.506,4.182,6.5,6.501
		C6.499,6.776,6.275,7,6,7c-2.757,0-5,2.243-5,5s2.243,5,5,5h13c2.204,0,3.984-1.768,4-3.941c0-1.429-0.748-2.767-1.952-3.489
		c-0.2-0.121-0.291-0.369-0.215-0.591c0.262-0.759,0.212-1.573-0.14-2.292c-0.352-0.72-0.962-1.26-1.72-1.521
		C18.656,5.056,18.331,5,18.007,5c-0.1,0-0.199,0.005-0.299,0.016c-0.002,0-0.004,0-0.005,0c-0.267,0-0.446-0.125-0.518-0.333
		C16.41,2.491,14.323,1.017,11.994,1.017z"/>
</g>
</svg>
