<svg id="target" xmlns="http://www.w3.org/2000/svg" xmlns:xlink="http://www.w3.org/1999/xlink" x="0px" y="0px"
	 viewBox="0 0 24 24" style="enable-background:new 0 0 24 24;" xml:space="preserve">
<title>renewable-energy-solar-panel</title>
<g>
	<path d="M9.675,2c-0.276,0-0.5-0.224-0.5-0.5v-1c0-0.276,0.224-0.5,0.5-0.5s0.5,0.224,0.5,0.5v1C10.175,1.776,9.951,2,9.675,2z"/>
	<path d="M3.674,4.002c-0.133,0-0.259-0.052-0.354-0.146l-1-1c-0.195-0.195-0.195-0.512,0-0.707c0.094-0.094,0.22-0.146,0.354-0.146
		l0,0c0.133,0,0.259,0.052,0.354,0.146l1,1c0.195,0.195,0.195,0.512,0,0.707C3.933,3.95,3.807,4.002,3.674,4.002z"/>
	<path d="M15.675,4c-0.134,0-0.259-0.052-0.354-0.146c-0.195-0.195-0.195-0.512,0-0.707l1-1C16.416,2.052,16.541,2,16.675,2l0,0
		c0.134,0,0.259,0.052,0.354,0.146c0.195,0.195,0.195,0.512,0,0.707l-1,1C15.934,3.948,15.809,4,15.675,4z"/>
	<path d="M0.675,10c-0.276,0-0.5-0.224-0.5-0.5S0.399,9,0.675,9h1c0.276,0,0.5,0.224,0.5,0.5S1.951,10,1.675,10H0.675z"/>
	<path d="M4.009,11.959c-0.212,0-0.402-0.134-0.472-0.334C3.296,10.941,3.174,10.226,3.175,9.5c0.002-1.854,0.798-3.622,2.184-4.853
		C6.547,3.592,8.079,3.01,9.671,3.01c1.86,0,3.632,0.795,4.863,2.181c0.089,0.1,0.134,0.228,0.126,0.362
		c-0.008,0.133-0.067,0.256-0.167,0.344c-0.092,0.082-0.21,0.126-0.332,0.126c-0.145,0-0.28-0.062-0.375-0.17
		c-0.974-1.097-2.32-1.75-3.786-1.836c-0.111-0.006-0.222-0.01-0.332-0.01c-1.343,0-2.637,0.493-3.646,1.388
		C4.851,6.437,4.177,7.933,4.175,9.501c0,0.612,0.103,1.215,0.306,1.792c0.044,0.126,0.037,0.262-0.021,0.382
		c-0.058,0.12-0.159,0.211-0.285,0.255l-0.041,0.014L4.009,11.959z"/>
	<path d="M14.675,24c-0.275,0-0.5-0.225-0.5-0.5V19h-2v4.5c0,0.275-0.224,0.5-0.5,0.5s-0.5-0.225-0.5-0.5V19h-7.65
		c-0.551,0-1-0.448-1-1c0-0.169,0.043-0.337,0.125-0.485l4.444-8C7.271,9.197,7.606,9,7.969,9h10.412
		c0.361,0,0.696,0.196,0.873,0.513l4.445,8.002c0.13,0.231,0.161,0.501,0.088,0.759c-0.074,0.258-0.243,0.471-0.477,0.601
		C23.166,18.956,22.997,19,22.825,19h-7.65v4.5C15.175,23.775,14.95,24,14.675,24z M22.825,18l-1.111-2h-4.582l0.444,2H22.825z
		 M16.552,18l-0.444-2h-5.865l-0.444,2H16.552z M3.525,17.999L8.773,18l0.445-2H4.636L3.525,17.999z M21.159,15l-1.111-2h-3.583
		l0.444,2H21.159z M15.885,15l-0.444-2H10.91l-0.445,2H15.885z M9.44,15l0.445-2H6.303l-1.111,2H9.44z M19.492,12l-1.111-2h-2.583
		l0.444,2H19.492z M15.218,12l-0.443-2h-3.198l-0.445,2H15.218z M10.107,12l0.445-2H7.969l-1.111,2H10.107z"/>
</g>
</svg>
