<svg id="target" width="24" height="24" viewBox="0 0 24 24" fill="none" xmlns="http://www.w3.org/2000/svg">
<path fill-rule="evenodd" clip-rule="evenodd" d="M14.7061 8.55508L12.9727 4.23041C12.9561 4.18835 12.9309 4.15021 12.8987 4.11841L11.9534 3.16907L10.9788 0.569092C10.9619 0.524658 10.9358 0.484406 10.9021 0.45108C10.188 -0.15036 9.14479 -0.15036 8.43068 0.45108C8.36842 0.51355 8.33351 0.598175 8.33327 0.686401V3.65308C8.33351 3.74457 8.29591 3.83209 8.22975 3.89514C8.16334 3.95816 8.07399 3.99118 7.98268 3.98642C7.86207 3.98041 7.75929 3.97775 7.66749 3.97842C7.48317 3.97842 7.334 3.82916 7.334 3.64508V0.687073C7.33375 0.598755 7.2986 0.514099 7.2361 0.451752C6.52199 -0.149689 5.47877 -0.149689 4.76466 0.451752C4.73122 0.485107 4.70509 0.52536 4.68873 0.569733L3.71339 3.16907L2.76662 4.11841C2.73439 4.15005 2.70949 4.18823 2.69337 4.23041L0.960707 8.55508C-0.145982 9.76556 -0.314439 11.5638 0.548598 12.9586C1.41164 14.3534 3.09596 15.0054 4.67335 14.5551C6.2505 14.1049 7.33668 12.662 7.33327 11.0218V7.64575C7.33327 7.46164 7.48268 7.31241 7.66676 7.31241C7.78932 7.31186 7.91188 7.31763 8.03395 7.32974C8.20509 7.34692 8.33498 7.49124 8.334 7.66309V11.0218C8.33058 12.662 9.41701 14.1049 10.9942 14.5551C12.5713 15.0054 14.2556 14.3534 15.1187 12.9586C15.9817 11.5638 15.8135 9.76556 14.7061 8.55508ZM6.00001 11.0204C6.00001 12.3091 4.95534 13.3537 3.66652 13.3537C2.37794 13.3537 1.33327 12.3091 1.33327 11.0204C1.33327 9.73175 2.37794 8.68707 3.66652 8.68707C4.28541 8.68707 4.87892 8.93289 5.31642 9.37048C5.75416 9.80807 6.00001 10.4016 6.00001 11.0204ZM9.8445 11.9133C10.2056 12.7852 11.0564 13.3538 12.0003 13.3538C13.2888 13.3538 14.3335 12.3091 14.3335 11.0204C14.3335 10.0767 13.7649 9.22586 12.8931 8.86469C12.0213 8.50354 11.0176 8.70316 10.3504 9.37048C9.68288 10.0378 9.48317 11.0414 9.8445 11.9133Z" transform="translate(4.16675 4.65625)" fill="currentColor"/>
</svg>
