<svg id="target" width="24" height="24" viewBox="0 0 24 24" fill="none" xmlns="http://www.w3.org/2000/svg">
<g id="grenade">

<g id="Vector" transform="translate(-0.000152588 0.00143433)">
<path d="M20.0133 2.42952e-06C18.1903 -0.00199757 16.5963 1.231 16.1423 2.997H6.34232C6.02132 2.997 5.71932 3.152 5.53132 3.413C2.21932 6.081 -1.26868 13.013 0.456318 19.746C0.594318 20.281 1.14032 20.603 1.67532 20.465C2.21032 20.327 2.53232 19.781 2.39432 19.246C0.900318 13.426 3.95432 7.27 6.75232 4.997H16.1443C16.6983 7.131 18.8773 8.412 21.0113 7.858C22.7703 7.402 23.9993 5.814 24.0003 3.997C24.0033 1.792 22.2183 0.00300243 20.0133 2.42952e-06ZM20.0003 5.997C18.8953 5.997 18.0003 5.102 18.0003 3.997C18.0003 2.892 18.8953 1.997 20.0003 1.997C21.1053 1.997 22.0003 2.892 22.0003 3.997C22.0003 5.102 21.1053 5.997 20.0003 5.997Z" fill="currentColor"/>
<path d="M5.10032 14.497H17.9003C18.1763 14.499 18.4023 14.277 18.4043 14.001C18.4043 13.98 18.4033 13.959 18.4003 13.937C18.0543 11.441 16.9903 9.09899 15.3383 7.19699C14.9623 6.74799 14.4053 6.49099 13.8193 6.49699H9.18432C8.59832 6.49099 8.04132 6.74799 7.66532 7.19699C6.01232 9.09899 4.94732 11.441 4.60032 13.937C4.56732 14.211 4.76232 14.46 5.03632 14.493C5.05732 14.496 5.07932 14.497 5.10032 14.497Z" fill="currentColor"/>
<path d="M17.9783 16C17.9593 15.998 17.9413 15.997 17.9223 15.997H5.08033C4.80433 15.995 4.57933 16.218 4.57733 16.494C4.57733 16.513 4.57833 16.531 4.58033 16.55C4.89033 19.071 5.96933 21.436 7.66933 23.324C8.04633 23.758 8.59533 24.004 9.17033 23.997H13.8333C14.4073 24.003 14.9563 23.757 15.3333 23.324C17.0333 21.436 18.1123 19.071 18.4223 16.55C18.4513 16.275 18.2523 16.029 17.9783 16Z" fill="currentColor"/>
</g>
</g>
</svg>
