<svg id="target" width="24" height="24" viewBox="0 0 24 24" fill="none" xmlns="http://www.w3.org/2000/svg">
<path d="M7.66554 7.56067C7.04464 7.56472 6.54419 8.07062 6.54689 8.69153C6.54958 9.31244 7.05439 9.81399 7.6753 9.81265C8.29622 9.81131 8.79886 9.30759 8.79888 8.68667C8.79667 8.06285 8.28937 7.55883 7.66554 7.56067Z" transform="translate(4.76318 4)" fill="currentColor"/>
<path fill-rule="evenodd" clip-rule="evenodd" d="M10.0641 1.25601C10.0973 1.34573 10.1675 1.4169 10.2567 1.45132C12.8285 2.45514 14.5086 4.94818 14.4734 7.70868C14.4734 10.0413 13.6268 11.7913 11.9541 12.9173C11.8619 12.9793 11.8068 13.083 11.8068 13.194V15.6667C11.8068 15.8508 11.6576 16 11.4734 16H4.80677C4.62269 16 4.47339 15.8508 4.47339 15.6667V14.6667C4.47339 14.4826 4.32422 14.3333 4.14014 14.3333H3.14014C2.21961 14.3333 1.47339 13.5871 1.47339 12.6667V11.3473C1.47339 11.1632 1.32423 11.014 1.14014 11.014C1.01539 11.0133 0.888068 11.0113 0.772834 11.0067C0.516242 10.9969 0.278693 10.8689 0.129401 10.66C0.0355288 10.5126 -0.00853855 10.339 0.00342434 10.1647V10.074C-0.0473569 9.33588 0.476203 8.41306 0.939826 7.5957L0.974494 7.5347C1.07984 7.34973 1.20203 7.13507 1.29346 6.95468C1.38062 6.78229 1.42957 6.59305 1.43677 6.39999C1.55677 4.2049 2.97803 2.29443 5.04615 1.54868C5.13709 1.51126 5.20679 1.43564 5.23682 1.34201C5.49158 0.542786 6.23389 0.00012207 7.07276 0H8.25806C9.06324 0.000640869 9.78333 0.501404 10.0641 1.25601ZM5.78394 10.5623C6.28406 11.0587 6.96082 11.336 7.66541 11.3333C8.37 11.336 9.04688 11.0587 9.54688 10.5623C10.047 10.0659 10.3295 9.39127 10.3322 8.68668C10.3295 7.74936 9.82813 6.88431 9.01612 6.41602C8.9137 6.35626 8.85071 6.24658 8.85084 6.12802V1.92203C8.85023 1.76535 8.78748 1.61533 8.6764 1.50494C8.56519 1.39453 8.4148 1.33282 8.25806 1.33334H7.07276C6.91614 1.33282 6.76563 1.39453 6.65455 1.50494C6.54334 1.61533 6.4806 1.76535 6.48011 1.92203V6.12802C6.48035 6.24646 6.41761 6.35608 6.31544 6.41602C5.50306 6.88394 5.00135 7.74915 4.99879 8.68668C5.00147 9.39127 5.28382 10.0659 5.78394 10.5623Z" transform="translate(4.76318 4)" fill="currentColor"/>
</svg>
