<svg id="target" width="24" height="24" viewBox="0 0 24 24" fill="none" xmlns="http://www.w3.org/2000/svg">
<path fill-rule="evenodd" clip-rule="evenodd" d="M11.6669 12.8967L8.66694 7.81799V1.33334H10.0004C10.3686 1.33334 10.6669 1.03485 10.6669 0.666656C10.6669 0.298462 10.3686 0 10.0004 0H2.00044C1.63227 0 1.33369 0.298462 1.33369 0.666656C1.33369 1.03485 1.63227 1.33334 2.00044 1.33334H3.33369V7.81799L0.360299 12.8547C-0.0657265 13.4648 -0.117973 14.2612 0.225045 14.9217C0.568063 15.5823 1.24946 15.9977 1.9936 16H10.0043C10.7397 15.998 11.4145 15.5927 11.7619 14.9445C12.1091 14.2964 12.0727 13.51 11.6669 12.8967ZM3.32441 13.548C3.32441 12.9957 3.77216 12.548 4.32441 12.548C4.87666 12.548 5.32441 12.9957 5.32441 13.548C5.32441 14.1003 4.87666 14.548 4.32441 14.548C4.05903 14.5482 3.80439 14.4429 3.61689 14.2553C3.42915 14.0678 3.32368 13.8133 3.32441 13.548ZM7.13764 11.2033C6.76948 11.2033 6.47114 11.5018 6.47114 11.87C6.47041 12.0469 6.54072 12.2166 6.66596 12.3416C6.79096 12.4667 6.96089 12.5368 7.13764 12.5367C7.50605 12.5367 7.80439 12.2382 7.80439 11.87C7.80439 11.5018 7.50605 11.2033 7.13764 11.2033ZM9.47089 13.9247C9.47089 14.2928 9.17255 14.5913 8.80439 14.5913C8.43623 14.5913 8.13764 14.2928 8.13764 13.9247C8.13764 13.5565 8.43623 13.258 8.80439 13.258C9.17085 13.2602 9.46699 13.558 9.46699 13.9247H9.47089ZM4.66694 8C4.6667 8.11951 4.63422 8.23669 4.57295 8.33936L3.34712 10.4153C3.3166 10.4668 3.31611 10.5306 3.34589 10.5826C3.37544 10.6345 3.43061 10.6666 3.49043 10.6667H8.51045C8.57026 10.6666 8.62519 10.6345 8.65498 10.5826C8.68452 10.5306 8.68403 10.4668 8.65376 10.4153L7.42646 8.33936C7.36567 8.23657 7.33369 8.11938 7.33369 8V7.16669H6.12031C5.84419 7.16669 5.62031 6.94281 5.62031 6.66669C5.62031 6.39053 5.84419 6.16669 6.12031 6.16669H7.33369V4.83334H6.12031C5.84419 4.83334 5.62031 4.6095 5.62031 4.33334C5.62031 4.05719 5.84419 3.83334 6.12031 3.83334H7.33369V1.33334H4.66694V8Z" transform="translate(5.99951 4)" fill="currentColor"/>
</svg>
