<svg id="target" width="24" height="24" viewBox="0 0 24 24" fill="none" xmlns="http://www.w3.org/2000/svg">
<path d="M10.5008 0H0.850838C0.344119 0.0860855 -0.0198335 0.535103 0.000837992 1.04867V12.6987C-0.00107565 13.1763 0.289997 13.6063 0.734171 13.782L6.0675 15.9153C6.42697 16.0591 6.83435 16.0152 7.15494 15.7982C7.47552 15.5811 7.66755 15.2192 7.6675 14.832V3.49867C7.66867 3.02124 7.37786 2.59163 6.93417 2.41533L5.02684 1.65467C4.95275 1.62492 4.91016 1.54682 4.92529 1.46842C4.94041 1.39003 5.009 1.33338 5.08884 1.33333H10.3342C10.4262 1.33333 10.5008 1.40795 10.5008 1.5V12.4833C10.5008 12.5754 10.4262 12.65 10.3342 12.65H9.1675C8.79931 12.65 8.50084 12.9485 8.50084 13.3167C8.50084 13.6849 8.79931 13.9833 9.1675 13.9833H10.5008C11.2372 13.9833 11.8342 13.3864 11.8342 12.65V1.33333C11.8342 0.596954 11.2372 0 10.5008 0Z" transform="translate(6.08252 4)" fill="currentColor"/>
</svg>
