<svg width="25" height="26" viewBox="0 0 25 26" fill="none" xmlns="http://www.w3.org/2000/svg">
<g id="mario">

<g id="Vector" transform="translate(0.49678 0.99588)">
<path d="M8.50614 14.5C8.92014 14.5 9.25614 14.164 9.25614 13.75V12.75C9.25614 12.336 8.92014 12 8.50614 12C8.09214 12 7.75614 12.336 7.75614 12.75V13.75C7.75614 14.164 8.09214 14.5 8.50614 14.5Z" fill="currentColor"/>
<path d="M15.5061 14.5C15.9201 14.5 16.2561 14.164 16.2561 13.75V12.75C16.2561 12.336 15.9201 12 15.5061 12C15.0921 12 14.7561 12.336 14.7561 12.75V13.75C14.7561 14.164 15.0921 14.5 15.5061 14.5Z" fill="currentColor"/>
<path d="M22.1101 10.393L22.1061 10.39C21.8611 10.263 21.7641 9.962 21.8911 9.716C21.9011 9.696 21.9121 9.678 21.9251 9.66C22.6291 8.662 23.0061 7.471 23.0061 6.25C23.0021 2.8 20.2061 0.004 16.7561 0H7.25614C3.80614 0.004 1.01014 2.8 1.00614 6.25C0.997139 7.471 1.37114 8.664 2.07514 9.662C2.23414 9.888 2.17914 10.2 1.95314 10.358C1.93514 10.371 1.91614 10.382 1.89614 10.393C0.178139 11.279 -0.495861 13.39 0.390139 15.108C0.946139 16.185 2.02014 16.899 3.22814 16.993C4.32514 21.841 9.14514 24.882 13.9931 23.784C17.3761 23.018 20.0191 20.376 20.7841 16.993C22.7111 16.84 24.1491 15.153 23.9951 13.226C23.8991 12.019 23.1861 10.948 22.1101 10.393ZM8.55914 4.777L10.0591 1.777C10.1821 1.53 10.4831 1.43 10.7301 1.553C10.7991 1.588 10.8601 1.638 10.9061 1.7L11.8061 2.9C11.8891 3.01 12.0461 3.033 12.1561 2.95C12.1751 2.936 12.1921 2.919 12.2061 2.9L13.1061 1.7C13.2721 1.479 13.5851 1.435 13.8061 1.601C13.8681 1.648 13.9181 1.708 13.9531 1.777L15.4531 4.777C15.5841 5.02 15.4931 5.323 15.2501 5.454C15.0071 5.585 14.7041 5.494 14.5731 5.251C14.5681 5.242 14.5631 5.233 14.5591 5.223L13.6061 3.309C13.5441 3.186 13.3941 3.136 13.2701 3.198C13.2361 3.215 13.2061 3.24 13.1831 3.271L12.4061 4.3C12.2241 4.521 11.8981 4.553 11.6771 4.371C11.6511 4.35 11.6271 4.326 11.6061 4.3L10.8341 3.271C10.7511 3.16 10.5951 3.138 10.4841 3.22C10.4531 3.243 10.4271 3.274 10.4101 3.309L9.45314 5.224C9.33014 5.471 9.02914 5.571 8.78214 5.448C8.53514 5.324 8.43514 5.024 8.55914 4.777ZM3.00614 14.5C3.00614 14.638 2.89414 14.75 2.75614 14.75C2.70214 14.75 2.64914 14.732 2.60614 14.7C1.94314 14.203 1.80914 13.263 2.30614 12.6C2.39114 12.486 2.49214 12.385 2.60614 12.3C2.71614 12.217 2.87314 12.24 2.95614 12.35C2.98814 12.393 3.00614 12.446 3.00614 12.5V14.5ZM19.0061 15C19.0061 18.866 15.8721 22 12.0061 22C8.14014 22 5.00614 18.866 5.00614 15V11.5C5.00614 11.224 5.23014 11 5.50614 11H18.5061C18.7821 11 19.0061 11.224 19.0061 11.5V15ZM20.7441 9.977C20.6961 9.992 20.6461 10 20.5961 10H20.0671C19.8611 10 19.6761 9.874 19.6011 9.682C19.2631 8.819 18.4321 8.251 17.5061 8.25H6.50614C5.58014 8.251 4.74814 8.819 4.41114 9.682C4.33614 9.874 4.15114 10 3.94514 10H3.41614C3.14014 10 2.91614 9.776 2.91614 9.5C2.91614 9.448 2.92414 9.396 2.94014 9.346C3.44214 7.8 4.88114 6.752 6.50614 6.75H17.5061C19.1321 6.753 20.5711 7.803 21.0711 9.35C21.1541 9.613 21.0071 9.894 20.7441 9.977ZM21.7061 14.4C21.6211 14.514 21.5201 14.615 21.4061 14.7C21.2961 14.783 21.1391 14.76 21.0561 14.65C21.0241 14.607 21.0061 14.554 21.0061 14.5V12.5C21.0061 12.362 21.1181 12.25 21.2561 12.25C21.3101 12.25 21.3631 12.268 21.4061 12.3C22.0691 12.797 22.2031 13.737 21.7061 14.4Z" fill="currentColor"/>
<path d="M16.9431 15.5H14.9641C14.7201 15.5 14.5111 15.676 14.4711 15.917C14.2411 17.278 12.9501 18.195 11.5891 17.965C10.5401 17.788 9.71814 16.966 9.54114 15.917C9.50114 15.676 9.29214 15.5 9.04814 15.5H7.06914C6.84014 15.5 6.64114 15.655 6.58414 15.876C6.53214 16.08 6.50614 16.29 6.50614 16.5C6.50614 17.881 7.62514 19 9.00614 19C9.23614 18.999 9.46414 18.965 9.68414 18.9C10.1761 20.182 11.6141 20.823 12.8971 20.331C13.5551 20.078 14.0761 19.558 14.3281 18.9C14.5481 18.965 14.7761 18.999 15.0061 19C16.3871 19 17.5061 17.881 17.5061 16.5C17.5061 16.29 17.4791 16.08 17.4271 15.876C17.3701 15.655 17.1711 15.5 16.9431 15.5Z" fill="currentColor"/>
</g>
</g>
</svg>
