<svg id="target" width="24" height="24" viewBox="0 0 24 24" fill="none" xmlns="http://www.w3.org/2000/svg">
<path fill-rule="evenodd" clip-rule="evenodd" d="M10.5385 0.924232C9.474 0.31683 8.2693 -0.00172233 7.04378 7.00362e-06C5.96908 -0.000654211 4.9085 0.244758 3.94333 0.717475C2.97816 1.19019 2.13403 1.87765 1.47565 2.72716C0.817255 3.57667 0.362098 4.56569 0.145054 5.61835C-0.0719893 6.671 -0.0451592 7.75941 0.223504 8.80011C0.49216 9.84076 0.995503 10.8061 1.69495 11.6222C2.39441 12.4382 3.27139 13.0832 4.25868 13.5078C5.24598 13.9324 6.31737 14.1252 7.39072 14.0715C8.46408 14.0179 9.5109 13.7192 10.4509 13.1983L14.1088 14.9405C14.2252 14.9953 14.3558 15.0128 14.4826 14.9907C14.6094 14.9685 14.7263 14.9077 14.8173 14.8165C14.9082 14.7255 14.9688 14.6085 14.9908 14.4816C15.0128 14.3548 14.9951 14.2242 14.9401 14.1078L13.1999 10.4496C13.7954 9.37831 14.1005 8.17002 14.0852 6.94444C14.0698 5.7189 13.7344 4.51864 13.1123 3.46263C12.4902 2.40662 11.6029 1.53158 10.5385 0.924232ZM9.06458 5.93812C9.06458 6.45595 9.48435 6.87577 10.0022 6.87577C10.52 6.87577 10.9397 6.45595 10.9397 5.93812C10.9397 5.42024 10.52 5.00042 10.0022 5.00042C9.48435 5.00042 9.06458 5.42024 9.06458 5.93812ZM4.06413 6.87577C3.54632 6.87577 3.12655 6.45595 3.12655 5.93812C3.12655 5.42024 3.54632 5.00042 4.06413 5.00042C4.58195 5.00042 5.00172 5.42024 5.00172 5.93812C5.00172 6.45595 4.58195 6.87577 4.06413 6.87577ZM8.57516 7.82344H5.47051C5.38762 7.82344 5.30813 7.85635 5.24952 7.915C5.19091 7.97359 5.15799 8.05309 5.15799 8.13599C5.16693 8.62473 5.36734 9.09043 5.71609 9.43289C6.06485 9.77535 6.53407 9.96725 7.02283 9.96725C7.51159 9.96725 7.98082 9.77535 8.32958 9.43289C8.67833 9.09043 8.87874 8.62473 8.88768 8.13599C8.88768 8.05309 8.85476 7.97359 8.79615 7.915C8.73754 7.85635 8.65805 7.82344 8.57516 7.82344Z" transform="translate(20 5) scale(-1 1)" fill="currentColor"/>
</svg>
