<svg id="target" width="24" height="24" viewBox="0 0 24 24" fill="none" xmlns="http://www.w3.org/2000/svg">
<g id="rose">

<path id="Vector" d="M9.677 13.457C9.752 13.501 9.844 13.503 9.92 13.462C11.986 12.435 13.307 10.341 13.342 8.034V3.481C13.342 1.494 10.471 0 6.671 0C2.871 0 0 1.494 0 3.481V8.034C0.085 11.057 2.291 13.6 5.271 14.112C5.503 14.159 5.671 14.364 5.671 14.601V23C5.671 23.552 6.119 24 6.671 24C7.223 24 7.671 23.552 7.671 23V22C7.671 21.724 7.895 21.5 8.171 21.5H9.171C11.38 21.5 13.171 19.709 13.171 17.5V16C13.171 15.724 12.947 15.5 12.671 15.5H11.171C9.991 15.499 8.871 16.02 8.112 16.923C8.023 17.029 7.865 17.042 7.76 16.953C7.704 16.905 7.671 16.836 7.671 16.762V13.576C7.671 13.349 7.748 13.129 7.89 12.952C8.645 11.966 9.012 10.738 8.921 9.5C8.921 7.974 8.186 6.54 6.947 5.649C6.783 5.531 6.587 5.465 6.385 5.46C3.393 5.392 1.5 4.26 1.5 3.481C1.5 2.672 3.514 1.5 6.671 1.5C7.418 1.5 8.198 1.473 8.198 2.232C8.197 2.634 7.871 2.96 7.469 2.961H6.411C6.196 2.962 5.989 2.877 5.838 2.724C5.545 2.431 5.07 2.432 4.777 2.725C4.484 3.018 4.485 3.493 4.778 3.786C5.211 4.219 5.799 4.462 6.411 4.461H7.471C8.69 4.459 9.683 3.48 9.7 2.261C9.702 2.122 9.816 2.012 9.955 2.014C9.982 2.014 10.01 2.019 10.036 2.028C11.188 2.442 11.845 3.028 11.845 3.485C11.845 4.051 10.857 4.796 9.181 5.192C9.046 5.225 8.964 5.361 8.997 5.495C9.006 5.53 9.022 5.563 9.044 5.592C9.937 6.699 10.423 8.078 10.422 9.5C10.495 10.76 10.206 12.015 9.588 13.115C9.517 13.234 9.557 13.387 9.677 13.457Z" transform="translate(5.32901)" fill="currentColor"/>
</g>
</svg>
