<svg id="target" width="24" height="24" viewBox="0 0 24 24" fill="none" xmlns="http://www.w3.org/2000/svg">
<path fill-rule="evenodd" clip-rule="evenodd" d="M14.6251 3.7143C14.7734 3.78272 14.8878 3.90644 14.9432 4.05811C14.9983 4.21015 14.9899 4.3775 14.9197 4.52338C14.8495 4.66925 14.7233 4.78174 14.5688 4.836C14.0171 5.01489 13.4439 5.12128 12.8639 5.15229H12.8458C12.5113 5.15143 12.238 4.88941 12.2283 4.56031C12.2255 4.37805 12.3068 4.20441 12.4495 4.08826L11.012 2.67291C11.0552 3.10016 11.1641 3.5185 11.3351 3.91352C11.9902 5.45844 11.8957 7.21289 11.0782 8.68091C10.8206 9.15198 10.4952 9.58399 10.112 9.96338C9.0703 10.9804 7.67175 11.5648 6.20513 11.5959H6.19451C5.86016 11.5889 5.59203 11.3217 5.58898 10.9924C5.58593 10.6632 5.84911 10.3911 6.18322 10.3781C6.54235 10.3711 6.89922 10.3205 7.24572 10.2274C7.29949 10.213 7.34136 10.1714 7.35564 10.1184C7.36999 10.0654 7.35448 10.0089 7.31512 9.97009L4.86071 7.55719C4.82122 7.51813 4.76342 7.50312 4.70947 7.51782C4.65575 7.53217 4.6137 7.57331 4.59887 7.6261C4.34411 8.53595 4.40746 9.50373 4.77886 10.3738C5.33294 11.6424 5.37542 13.0712 4.89764 14.3695C4.82281 14.574 4.64294 14.7236 4.42565 14.7621C4.20843 14.8005 3.98687 14.7219 3.84441 14.5559C3.70196 14.3899 3.66033 14.1617 3.7351 13.9572C3.75823 13.8926 3.77886 13.8279 3.7976 13.7628C3.81353 13.7088 3.79845 13.6506 3.75823 13.6107L1.17138 11.0637C1.13262 11.0255 1.07641 11.0101 1.02325 11.0231L0.989372 11.0314C0.93383 11.0451 0.877617 11.0589 0.825737 11.0778C0.759514 11.1011 0.689812 11.1131 0.619499 11.1135C0.318352 11.1141 0.0605394 10.901 0.00914778 10.6088C-0.0423049 10.3167 0.127556 10.0306 0.411369 9.93134C0.950188 9.75586 1.50988 9.64997 2.07635 9.61627C2.33257 9.60706 2.56756 9.75592 2.66515 9.98932C2.76275 10.2228 2.70239 10.4913 2.51385 10.6624L3.96575 12.092C3.92248 11.6645 3.81353 11.246 3.64263 10.8507C2.76873 8.77619 3.25195 6.38751 4.86639 4.80091C5.90472 3.78607 7.2987 3.20178 8.76134 3.16828C9.09881 3.17114 9.37542 3.43268 9.39196 3.76459C9.39532 3.92603 9.33343 4.08216 9.21984 4.19861C9.10625 4.31507 8.95031 4.38227 8.78637 4.3855C8.43023 4.39362 8.07641 4.44428 7.7326 4.53626C7.67889 4.55072 7.63702 4.59223 7.62267 4.64521C7.60839 4.69824 7.62383 4.7547 7.66326 4.79352L10.1176 7.21015C10.1572 7.24884 10.2145 7.26404 10.2685 7.24994C10.3224 7.2359 10.3646 7.1947 10.3795 7.14185C10.6337 6.23194 10.5703 5.26435 10.1995 4.39411C9.64642 3.12738 9.60308 1.70099 10.0782 0.403994C10.1937 0.0870385 10.5482 -0.0776954 10.8701 0.0359521C11.192 0.149661 11.3593 0.498721 11.2439 0.815676C11.222 0.871828 11.2042 0.930483 11.1873 0.98633L11.1814 1.0058C11.1654 1.05957 11.1805 1.11762 11.2208 1.15723L13.807 3.70673C13.8455 3.74494 13.9015 3.76038 13.9545 3.74738C14.0217 3.73267 14.088 3.7146 14.1533 3.69318C14.3071 3.63825 14.4769 3.64582 14.6251 3.7143ZM8.56762 9.48395C8.62212 9.53815 8.70879 9.54444 8.77074 9.49872H8.77203C9.10442 9.26026 9.3969 8.97205 9.63891 8.64459C9.68487 8.58319 9.67852 8.49805 9.62389 8.44397L6.41076 5.28333C6.35589 5.22956 6.26934 5.22333 6.20702 5.26856C6.04217 5.38861 5.88628 5.52021 5.74078 5.66242C5.56512 5.83759 5.40496 6.02722 5.26202 6.22919L8.56762 9.48395Z" transform="translate(4.5011 4.6145)" fill="currentcolor"/>
</svg>
