
<svg version="1.1" id="target" xmlns="http://www.w3.org/2000/svg" xmlns:xlink="http://www.w3.org/1999/xlink" x="0px" y="0px"
	 viewBox="0 0 24 24" style="enable-background:new 0 0 24 24;" xml:space="preserve">
<g>
	<title>ecology-globe-hand</title>
	<path d="M0.75,24C0.336,24,0,23.664,0,23.25v-9c0-0.414,0.336-0.75,0.75-0.75s0.75,0.336,0.75,0.75V15H6c1.8,0,3.324,1.268,3.675,3
		h3.075c2.068,0,3.75,1.682,3.75,3.75c0,0.414-0.336,0.75-0.75,0.75H1.5v0.75C1.5,23.664,1.164,24,0.75,24z M14.871,21
		c-0.313-0.879-1.159-1.5-2.121-1.5H6c-0.414,0-0.75-0.336-0.75-0.75S5.586,18,6,18h2.118C7.805,17.121,6.96,16.5,6,16.5H1.5V21
		H14.871z"/>
	<path d="M15.75,16.5c-1.572,0-3.102-0.447-4.427-1.293c-0.059-0.028-0.115-0.064-0.166-0.108C8.866,13.558,7.5,11,7.5,8.25
		c0-2.765,1.379-5.332,3.689-6.87c0.032-0.025,0.067-0.047,0.102-0.066C12.624,0.454,14.166,0,15.75,0C20.299,0,24,3.701,24,8.25
		c0,0.271-0.014,0.547-0.041,0.823c-0.26,2.575-1.738,4.903-3.954,6.243c0,0-0.015,0.009-0.021,0.012v0
		C18.696,16.098,17.237,16.5,15.75,16.5z M12.905,14.368C13.793,14.783,14.767,15,15.75,15c1.041,0,2.073-0.243,3.002-0.706
		l-0.481-2.345c-0.222-1.115,0.423-2.224,1.5-2.58l2.725-0.908c0.003-0.07,0.004-0.14,0.004-0.211c0-3.722-3.028-6.75-6.75-6.75
		c-0.915,0-1.823,0.188-2.659,0.547l3.161,2.137C16.876,4.6,17.25,5.299,17.25,6.053V7.77c0,1.069-0.761,1.997-1.809,2.206
		l-1.772,0.355l0.353,1.413c0.189,0.766-0.04,1.585-0.6,2.14L12.905,14.368z M11.657,2.888C9.989,4.165,9,6.151,9,8.25
		c0,2.065,0.96,4.025,2.582,5.303l0.8-0.749c0.171-0.17,0.247-0.447,0.185-0.698l-0.543-2.174c-0.05-0.198-0.015-0.411,0.094-0.583
		c0.109-0.172,0.286-0.294,0.486-0.334l2.544-0.509c0.349-0.07,0.603-0.379,0.603-0.736V6.053c0-0.251-0.125-0.484-0.334-0.624
		L11.657,2.888z M20.243,10.792c-0.36,0.119-0.576,0.488-0.502,0.859l0.359,1.753c1.025-0.864,1.762-1.997,2.131-3.275
		L20.243,10.792z"/>
</g>
</svg>
