
<svg version="1.1" id="target" xmlns="http://www.w3.org/2000/svg" xmlns:xlink="http://www.w3.org/1999/xlink" x="0px" y="0px"
	 viewBox="0 0 24 24" style="enable-background:new 0 0 24 24;" xml:space="preserve">
<g>
	<title>organic-plant</title>
	<path d="M23.153,14.25c-0.033,0-0.065-0.002-0.099-0.006c-0.41-0.055-0.699-0.433-0.646-0.842c0.062-0.463,0.093-0.935,0.094-1.402
		c0-5.789-4.71-10.5-10.5-10.5C6.21,1.5,1.5,6.21,1.5,12c0,0.467,0.032,0.938,0.093,1.401c0.055,0.41-0.234,0.788-0.644,0.843
		c-0.034,0.004-0.067,0.006-0.099,0.006c-0.374,0-0.694-0.28-0.743-0.651C0.036,13.07,0,12.532,0,12C0,5.383,5.383,0,12,0
		c6.618,0,12.002,5.383,12.002,12c0,0.532-0.036,1.07-0.106,1.599C23.846,13.97,23.527,14.25,23.153,14.25z"/>
	<path d="M12.001,24c-0.414,0-0.75-0.336-0.75-0.75v-2.218c-2.123-0.177-4.107-1.097-5.62-2.614c-1.7-1.704-2.634-3.967-2.631-6.374
		c0-0.413,0.337-0.749,0.75-0.749c1.738,0.002,3.446,0.516,4.898,1.46C8.335,9.795,9.361,6.845,11.48,4.72
		c0.14-0.14,0.333-0.22,0.531-0.22c0.201,0,0.389,0.078,0.531,0.22c2.113,2.12,3.139,5.063,2.832,8.019
		c1.452-0.945,3.121-1.442,4.876-1.443c0.413,0,0.75,0.336,0.75,0.749c0.005,4.719-3.59,8.599-8.25,8.987v2.218
		C12.751,23.664,12.415,24,12.001,24z M4.54,12.838c0.176,1.705,0.932,3.297,2.153,4.521c1.222,1.224,2.812,1.983,4.517,2.164
		C10.847,15.986,8.076,13.209,4.54,12.838z M19.461,12.838c-1.705,0.18-3.295,0.939-4.517,2.163
		c-0.074,0.074-0.146,0.151-0.217,0.228c-1.111,1.21-1.774,2.686-1.937,4.295C16.327,19.153,19.098,16.375,19.461,12.838z
		 M10.531,14.394c0.612,0.701,1.104,1.477,1.469,2.316c0.375-0.855,0.884-1.657,1.503-2.358c0.91-2.748,0.339-5.764-1.493-7.986
		C10.167,8.601,9.601,11.633,10.531,14.394z"/>
	<path d="M20.907,19.623c-0.167,0-0.331-0.057-0.462-0.159c-0.325-0.254-0.383-0.727-0.129-1.052
		c0.531-0.679,0.972-1.424,1.312-2.215c0.118-0.276,0.389-0.454,0.69-0.454c0.101,0,0.2,0.02,0.294,0.06
		c0.381,0.164,0.558,0.606,0.395,0.986c-0.391,0.91-0.898,1.768-1.509,2.548C21.354,19.518,21.139,19.623,20.907,19.623z"/>
	<path d="M16.338,23.128c-0.306,0-0.578-0.183-0.694-0.466c-0.076-0.186-0.075-0.39,0.002-0.574
		c0.078-0.185,0.222-0.328,0.408-0.404c0.795-0.325,1.545-0.754,2.23-1.274c0.131-0.1,0.288-0.153,0.454-0.153
		c0.236,0,0.453,0.108,0.597,0.295c0.122,0.16,0.174,0.357,0.147,0.556s-0.13,0.375-0.289,0.496
		c-0.788,0.599-1.653,1.094-2.57,1.469C16.532,23.109,16.436,23.128,16.338,23.128z"/>
	<path d="M7.687,23.128c-0.098,0-0.193-0.019-0.284-0.056c-0.917-0.374-1.782-0.868-2.571-1.469
		c-0.329-0.251-0.392-0.723-0.142-1.051c0.143-0.188,0.36-0.296,0.597-0.296c0.166,0,0.323,0.053,0.454,0.154
		c0.683,0.521,1.433,0.949,2.229,1.274c0.185,0.075,0.33,0.219,0.408,0.404c0.078,0.185,0.079,0.389,0.003,0.574
		C8.266,22.945,7.993,23.128,7.687,23.128z"/>
	<path d="M3.115,19.623c-0.232,0-0.448-0.105-0.591-0.288c-0.611-0.781-1.119-1.638-1.509-2.548
		c-0.163-0.38,0.014-0.821,0.393-0.985c0.096-0.041,0.194-0.061,0.295-0.061c0.301,0,0.572,0.178,0.69,0.455
		c0.339,0.79,0.78,1.535,1.311,2.214c0.124,0.158,0.178,0.354,0.154,0.553c-0.024,0.199-0.125,0.377-0.282,0.5
		C3.446,19.566,3.282,19.623,3.115,19.623z"/>
</g>
</svg>
