<svg id="target" width="25" height="25" viewBox="0 0 25 25" fill="none" xmlns="http://www.w3.org/2000/svg">
<path d="M1.32485 6.50637C1.32485 6.50637 2.54485 9.00137 4.59585 8.81437C8.75385 8.43437 8.47585 2.90737 9.99585 0.955366C8.71008 0.314595 7.29087 -0.012661 5.85434 0.00037471C4.41781 0.0134104 3.00478 0.366367 1.73085 1.03037C-0.423153 2.25237 -0.576153 4.30037 1.32485 6.50637Z" transform="translate(13.5005 14.4976)" stroke="currentColor" stroke-width="1.5" stroke-linecap="round" stroke-linejoin="round"/>
<path d="M4.623 0C4.623 0 1.923 0.335 0 5.031" transform="translate(13.1443 18.469)" stroke="currentColor" stroke-width="1.5" stroke-linecap="round" stroke-linejoin="round"/>
<path d="M16.1853 10.495C15.7994 9.14165 15.0745 7.9092 14.0791 6.91436C13.0837 5.91951 11.8509 5.1952 10.4973 4.81V0H5.99733V4.81C4.08211 5.354 2.42814 6.57209 1.3404 8.23967C0.252666 9.90725 -0.195489 11.9119 0.0785732 13.8839C0.352635 15.8559 1.33043 17.6624 2.83167 18.9702C4.33291 20.2779 6.25635 20.9989 8.24733 21" transform="translate(1 1)" stroke="currentColor" stroke-width="1.5" stroke-linecap="round" stroke-linejoin="round"/>
<path d="M0 0H9.75" transform="translate(4.74733 1)" stroke="currentColor" stroke-width="1.5" stroke-linecap="round" stroke-linejoin="round"/>
<path d="M0 0C0.0994562 0 0.194839 0.0395085 0.265165 0.109835C0.335491 0.180161 0.375 0.275544 0.375 0.375" transform="translate(11.8723 12.25)" stroke="currentColor" stroke-width="1.5" stroke-linecap="round" stroke-linejoin="round"/>
<path d="M0 0.375C0 0.275544 0.0395085 0.180161 0.109835 0.109835C0.180161 0.0395085 0.275544 0 0.375 0" transform="translate(11.4973 12.25)" stroke="currentColor" stroke-width="1.5" stroke-linecap="round" stroke-linejoin="round"/>
<path d="M0.375 0.375C0.275544 0.375 0.180161 0.335491 0.109835 0.265165C0.0395085 0.194839 0 0.0994562 0 0" transform="translate(11.4973 12.625)" stroke="currentColor" stroke-width="1.5" stroke-linecap="round" stroke-linejoin="round"/>
<path d="M0.375 0C0.375 0.0994562 0.335491 0.194839 0.265165 0.265165C0.194839 0.335491 0.0994562 0.375 0 0.375" transform="translate(11.8723 12.625)" stroke="currentColor" stroke-width="1.5" stroke-linecap="round" stroke-linejoin="round"/>
<path d="M0 0C0.0994562 0 0.194839 0.0395085 0.265165 0.109835C0.335491 0.180161 0.375 0.275544 0.375 0.375" transform="translate(6.62233 15.25)" stroke="currentColor" stroke-width="1.5" stroke-linecap="round" stroke-linejoin="round"/>
<path d="M0 0.375C0 0.275544 0.039509 0.180161 0.109835 0.109835C0.180161 0.0395085 0.275544 0 0.375 0" transform="translate(6.24733 15.25)" stroke="currentColor" stroke-width="1.5" stroke-linecap="round" stroke-linejoin="round"/>
<path d="M0.375 0.375C0.275544 0.375 0.180161 0.335491 0.109835 0.265165C0.039509 0.194839 0 0.0994562 0 0" transform="translate(6.24733 15.625)" stroke="currentColor" stroke-width="1.5" stroke-linecap="round" stroke-linejoin="round"/>
<path d="M0.375 0C0.375 0.0994562 0.335491 0.194839 0.265165 0.265165C0.194839 0.335491 0.0994562 0.375 0 0.375" transform="translate(6.62233 15.625)" stroke="currentColor" stroke-width="1.5" stroke-linecap="round" stroke-linejoin="round"/>
<path d="M0 0C0.0994562 0 0.194839 0.0395085 0.265165 0.109835C0.335491 0.180161 0.375 0.275544 0.375 0.375" transform="translate(7.37233 10)" stroke="currentColor" stroke-width="1.5" stroke-linecap="round" stroke-linejoin="round"/>
<path d="M0 0.375C0 0.275544 0.039509 0.180161 0.109835 0.109835C0.180161 0.0395085 0.275544 0 0.375 0" transform="translate(6.99733 10)" stroke="currentColor" stroke-width="1.5" stroke-linecap="round" stroke-linejoin="round"/>
<path d="M0.375 0.375C0.275544 0.375 0.180161 0.335491 0.109835 0.265165C0.039509 0.194839 0 0.0994562 0 0" transform="translate(6.99733 10.375)" stroke="currentColor" stroke-width="1.5" stroke-linecap="round" stroke-linejoin="round"/>
<path d="M0.375 0C0.375 0.0994562 0.335491 0.194839 0.265165 0.265165C0.194839 0.335491 0.0994562 0.375 0 0.375" transform="translate(7.37233 10.375)" stroke="currentColor" stroke-width="1.5" stroke-linecap="round" stroke-linejoin="round"/>
</svg>
