
<svg version="1.1" id="target" xmlns="http://www.w3.org/2000/svg" xmlns:xlink="http://www.w3.org/1999/xlink" x="0px" y="0px"
	 viewBox="0 0 24 24" style="enable-background:new 0 0 24 24;" xml:space="preserve">
<g>
	<title>pollution-rain-skull</title>
	<path d="M6.002,24c-0.2,0-0.389-0.078-0.53-0.22c-0.292-0.292-0.292-0.768,0-1.061l3.75-3.75c0.142-0.142,0.33-0.22,0.53-0.22l0,0
		c0.2,0,0.389,0.078,0.53,0.22c0.292,0.292,0.292,0.768,0,1.061l-3.75,3.75C6.391,23.922,6.202,24,6.002,24z"/>
	<path d="M15.002,24c-0.2,0-0.389-0.078-0.53-0.22c-0.292-0.292-0.292-0.768,0-1.061l3.75-3.75c0.142-0.142,0.33-0.22,0.53-0.22l0,0
		c0.2,0,0.389,0.078,0.53,0.22c0.292,0.292,0.292,0.768,0,1.061l-3.75,3.75C15.391,23.922,15.202,24,15.002,24z"/>
	<path d="M12.002,22.5c-0.2,0-0.389-0.078-0.53-0.22c-0.292-0.292-0.292-0.768,0-1.061l2.25-2.25c0.142-0.142,0.33-0.22,0.53-0.22
		s0.389,0.078,0.53,0.22c0.292,0.292,0.292,0.768,0,1.061l-2.25,2.25C12.391,22.422,12.202,22.5,12.002,22.5z"/>
	<path d="M3.002,22.5c-0.2,0-0.389-0.078-0.53-0.22c-0.292-0.292-0.292-0.768,0-1.061l2.25-2.25c0.142-0.142,0.33-0.22,0.53-0.22
		s0.389,0.078,0.53,0.22c0.292,0.292,0.292,0.768,0,1.061l-2.25,2.25C3.391,22.422,3.202,22.5,3.002,22.5z"/>
	<path d="M15.752,10.5c-0.414,0-0.75-0.336-0.75-0.75V7.487c-1.5-0.912-1.5-2.495-1.5-3.362C13.502,1.85,15.857,0,18.752,0
		s5.25,1.85,5.25,4.125c0,0.867,0,2.45-1.5,3.362V9.75c0,0.414-0.336,0.75-0.75,0.75H15.752z M21.002,9V7.032
		c0-0.298,0.177-0.568,0.45-0.687c0.805-0.351,1.05-0.87,1.05-2.22c0-1.447-1.682-2.625-3.75-2.625s-3.75,1.178-3.75,2.625
		c0,1.35,0.245,1.868,1.05,2.22c0.273,0.119,0.45,0.389,0.45,0.687V9h1.5V7.5c0-0.414,0.336-0.75,0.75-0.75s0.75,0.336,0.75,0.75V9
		H21.002z"/>
	<path d="M17.252,5.625c-0.044,0-0.088-0.004-0.131-0.011c-0.513-0.06-0.922-0.47-0.982-0.983c-0.008-0.042-0.011-0.086-0.011-0.13
		s0.004-0.088,0.011-0.13c0.06-0.513,0.47-0.923,0.982-0.983c0.043-0.008,0.087-0.011,0.131-0.011s0.088,0.004,0.131,0.011
		c0.513,0.06,0.922,0.47,0.983,0.983c0.007,0.042,0.011,0.086,0.011,0.13s-0.004,0.088-0.011,0.13
		c-0.061,0.513-0.47,0.923-0.983,0.983C17.34,5.621,17.296,5.625,17.252,5.625z"/>
	<path d="M20.252,5.625c-0.044,0-0.088-0.004-0.131-0.011c-0.513-0.06-0.922-0.47-0.982-0.983c-0.008-0.042-0.011-0.086-0.011-0.13
		s0.004-0.088,0.011-0.13c0.06-0.513,0.47-0.923,0.982-0.983c0.043-0.008,0.087-0.011,0.131-0.011s0.088,0.004,0.131,0.011
		c0.513,0.06,0.922,0.47,0.983,0.983c0.007,0.042,0.011,0.086,0.011,0.13s-0.004,0.088-0.011,0.13
		c-0.061,0.513-0.47,0.923-0.983,0.983C20.34,5.621,20.296,5.625,20.252,5.625z"/>
	<path d="M4.502,17.25c-0.674,0-1.346-0.153-1.949-0.442c-2.235-1.072-3.182-3.761-2.11-5.996c0.519-1.083,1.429-1.899,2.561-2.297
		c0.484-0.171,0.987-0.257,1.495-0.257c0.37,0,0.738,0.046,1.097,0.137c0.715-2.179,2.498-3.861,4.732-4.436
		c0.062-0.016,0.124-0.024,0.187-0.024c0.343,0,0.641,0.232,0.726,0.563c0.05,0.194,0.021,0.396-0.081,0.568
		c-0.102,0.172-0.265,0.295-0.459,0.345c-1.961,0.505-3.472,2.116-3.85,4.106C6.809,9.745,6.66,9.943,6.454,10.047
		C6.35,10.1,6.233,10.128,6.115,10.128c-0.112,0-0.224-0.025-0.324-0.074c-0.41-0.197-0.845-0.296-1.292-0.296
		c-0.338,0-0.673,0.058-0.997,0.172c-0.755,0.266-1.361,0.809-1.707,1.531c-0.714,1.489-0.083,3.281,1.406,3.995
		c0.398,0.19,0.848,0.292,1.302,0.294h14.999c1.654,0,3-1.346,3-3c0-0.414,0.336-0.75,0.75-0.75s0.75,0.336,0.75,0.75
		c0,2.481-2.019,4.5-4.5,4.5H4.502z"/>
</g>
</svg>
