
<svg version="1.1" id="target" xmlns="http://www.w3.org/2000/svg" xmlns:xlink="http://www.w3.org/1999/xlink" x="0px" y="0px"
	 viewBox="0 0 24 24" style="enable-background:new 0 0 24 24;" xml:space="preserve">
<g>
	<title>renewable-energy-solar-panel</title>
	<path d="M16.5,24c-0.414,0-0.75-0.336-0.75-0.75V21h-3v2.25c0,0.414-0.336,0.75-0.75,0.75c-0.414,0-0.75-0.336-0.75-0.75V21H6.313
		c-0.401,0-0.777-0.156-1.06-0.439c-0.283-0.283-0.439-0.659-0.439-1.06c0-0.172,0.029-0.342,0.087-0.503l3.214-9
		C8.325,9.402,8.893,9,9.527,9h9.114c0.602,0,1.143,0.357,1.379,0.911l1.707,3.983c0.021,0.039,0.039,0.08,0.053,0.123l2.098,4.893
		c0.325,0.761-0.029,1.644-0.789,1.969C22.901,20.959,22.703,21,22.5,21h-5.25v2.25C17.25,23.664,16.913,24,16.5,24z M6.314,19.502
		L13.5,19.5V15H7.922L6.314,19.502z M22.5,19.5L20.57,15H15v4.5H22.5z M19.927,13.5l-1.286-3L15,10.5v3H19.927z M13.5,13.5v-3H9.529
		l-1.071,3H13.5z"/>
	<path d="M4.9,12.001c-0.212,0-0.415-0.09-0.557-0.248c-0.939-1.042-1.415-2.387-1.342-3.788c0.073-1.401,0.688-2.689,1.73-3.627
		C5.695,3.47,6.941,2.992,8.241,2.992c1.488,0,2.911,0.632,3.904,1.734c0.249,0.276,0.468,0.579,0.652,0.901
		c0.1,0.174,0.125,0.376,0.073,0.569c-0.052,0.193-0.177,0.355-0.351,0.454c-0.113,0.065-0.242,0.099-0.373,0.099
		c-0.268,0-0.518-0.144-0.651-0.377c-0.131-0.229-0.288-0.446-0.466-0.643c-0.709-0.787-1.725-1.239-2.789-1.239
		c-0.928,0-1.819,0.341-2.507,0.962c-0.744,0.67-1.183,1.59-1.235,2.591c-0.052,1,0.288,1.961,0.958,2.705
		c0.276,0.307,0.252,0.782-0.055,1.059C5.264,11.932,5.085,12.001,4.9,12.001z"/>
	<path d="M8.25,2.25C7.836,2.25,7.5,1.914,7.5,1.5V0.75C7.5,0.336,7.836,0,8.25,0C8.663,0,9,0.336,9,0.75V1.5
		C9,1.914,8.663,2.25,8.25,2.25z"/>
	<path d="M13.5,4.5c-0.2,0-0.389-0.078-0.53-0.22c-0.142-0.141-0.22-0.33-0.22-0.53s0.078-0.389,0.22-0.53l0.75-0.75
		c0.142-0.142,0.33-0.22,0.53-0.22l0,0c0.2,0,0.389,0.078,0.53,0.22C14.922,2.611,15,2.8,15,3s-0.078,0.389-0.22,0.53l-0.75,0.75
		C13.888,4.422,13.7,4.5,13.5,4.5z"/>
	<path d="M3,4.5c-0.2,0-0.389-0.078-0.53-0.22l-0.75-0.75C1.578,3.389,1.5,3.2,1.5,3s0.078-0.389,0.22-0.53
		c0.141-0.142,0.33-0.22,0.53-0.22l0,0c0.2,0,0.389,0.078,0.53,0.22l0.75,0.75c0.142,0.141,0.22,0.33,0.22,0.53
		S3.672,4.139,3.53,4.28C3.388,4.422,3.2,4.5,3,4.5z"/>
	<path d="M0.75,9C0.336,9,0,8.664,0,8.25S0.336,7.5,0.75,7.5H1.5c0.414,0,0.75,0.336,0.75,0.75S1.913,9,1.5,9H0.75z"/>
	<path d="M2.25,14.25c-0.2,0-0.389-0.078-0.53-0.22c-0.292-0.292-0.292-0.768,0-1.061l0.75-0.75C2.611,12.078,2.799,12,3,12l0,0
		c0.2,0,0.389,0.078,0.53,0.22c0.292,0.292,0.292,0.768,0,1.061l-0.75,0.75C2.638,14.172,2.45,14.25,2.25,14.25z"/>
</g>
</svg>
