<svg id="target" xmlns="http://www.w3.org/2000/svg" viewBox="0 0 24 24"><defs><style>.a{fill:none;stroke:currentColor;stroke-linecap:round;stroke-linejoin:round;}</style></defs><title>rooster</title><path d="M12.25,10.75a.75.75,0,1,0,.75.75.749.749,0,0,0-.75-.75Z"/><polyline class="a" points="15.25 15.5 20.75 15.5 14.936 10.581"/><path class="a" d="M17.25,15.5s2,4-.5,4h-1.5"/><path class="a" d="M9.25,22a1.5,1.5,0,0,1-3,0,1.5,1.5,0,0,1-3,0V12.5a6,6,0,0,1,12,0V22a1.5,1.5,0,0,1-3,0,1.5,1.5,0,0,1-3,0Z"/><path class="a" d="M13.5,8.267,15.033,3.8A2,2,0,1,0,11.25,2.5a2,2,0,0,0-4,0A2,2,0,1,0,3.467,3.8L5,8.267"/></svg>
