<svg id="target" xmlns="http://www.w3.org/2000/svg" viewBox="0 0 24 24"><defs><style>.a,.b{fill:none;stroke:currentColor;stroke-linecap:round;}.a{stroke-linejoin:round;}.b{stroke-miterlimit:10;}</style></defs><title>tablet-touch</title><path class="a" d="M6.5,17.5h-4a2,2,0,0,1-2-2V2.5a2,2,0,0,1,2-2h19a2,2,0,0,1,2,2V15"/><line class="a" x1="4.5" y1="17.499" x2="4.5" y2="0.499"/><path d="M2.75,8.249A.75.75,0,1,0,3.5,9a.75.75,0,0,0-.75-.75Z"/><path class="a" d="M12.653,23.5,8.847,18.922A1.5,1.5,0,1,1,11.154,17L13.5,19.827V10a1.5,1.5,0,0,1,3,0v6.5h3a4,4,0,0,1,4,4v3"/><line class="b" x1="21.5" y1="7.499" x2="21.5" y2="10.499"/></svg>
