<?xml version="1.0" encoding="UTF-8"?>
<svg id="target" viewBox="0 0 120 120" version="1.1" xmlns="http://www.w3.org/2000/svg" xmlns:xlink="http://www.w3.org/1999/xlink">
    <!-- Generator: Sketch 51 (57462) - http://www.bohemiancoding.com/sketch -->
    <title>logo / boa</title>
    <desc>Created with Sketch.</desc>
    <defs></defs>
    <g id="logo-/-boa" stroke="none" stroke-width="1" fill="none" fill-rule="evenodd">
        <g id="bank-of-america" transform="translate(36.000000, 48.000000)" fill="currentcolor">
            <path d="M16.6508663,5.52539037 C14.8232727,6.29826738 6.85090909,9.85206417 3.87234225,11.5921283 C2.5853262,11.0941604 1.49390374,10.7301818 0,10.1721497 C6.19020321,6.56265241 12.9202139,4.51379679 13.036492,4.36363636 C14.2978396,4.69450267 15.3700107,5.21428877 16.6508663,5.52539037 Z M22.6290481,8.01805348 C20.8019679,8.7906738 12.7744171,12.6617326 9.79559358,14.4017968 C8.4066738,13.7069519 7.05035294,13.0123636 5.66554011,12.4540749 C11.8562567,8.84483422 18.279016,6.44791444 18.3952941,6.29826738 C19.5863102,6.76106952 21.3725775,7.55473797 22.6290481,8.01805348 Z" id="Fill-15"></path>
            <path d="M22.6110802,0 C25.8709733,1.06344385 30.8470588,2.48059893 33.9562781,4.0684492 C32.8982246,4.33309091 31.3696684,4.6459893 30.1555508,5.15140107 C22.2409412,1.83452406 19.3265455,0.973860963 19.1768984,0.857326203 C19.8845775,0.552641711 22.0006845,0.203550802 22.6110802,0 Z M42.0264385,6.41685561 C40.199615,7.18947594 27.6156578,11.2610053 15.6980535,19.1840856 C14.189262,18.2597647 11.7548663,16.852107 10.2673797,16.3685134 C16.4583529,12.7592727 24.6604492,7.31858824 37.1630374,4.11028877 C39.0481283,4.93706952 40.3400214,5.65604278 42.0264385,6.41685561 Z M47.9142674,9.72423529 C46.0869305,10.4968556 30.8139465,17.7946524 23.4050053,24.2446203 C22.0489412,23.4509519 19.1050267,21.234738 17.731508,20.500877 C23.6696471,16.6703743 31.2107807,11.1136684 43.5814332,7.37582888 C45.4665241,8.20260963 46.3928984,8.83122995 47.9142674,9.72423529 Z M16.8379893,1.45026738 C20.0971123,2.51371123 24.859893,4.16752941 27.969369,5.75512299 C26.9831872,6.29339037 25.6491979,6.65762567 24.4589519,7.15328342 C16.5443422,3.83640642 13.3345027,2.8617754 13.1848556,2.74524064 C13.8925348,2.44081283 16.2273369,1.65381818 16.8379893,1.45026738 Z" id="Fill-22" opacity="0.5"></path>
        </g>
    </g>
</svg>
