<?xml version="1.0" encoding="UTF-8"?>
<svg id="target" viewBox="0 0 120 120" version="1.1" xmlns="http://www.w3.org/2000/svg" xmlns:xlink="http://www.w3.org/1999/xlink">
    <!-- Generator: Sketch 51 (57462) - http://www.bohemiancoding.com/sketch -->
    <title>logo / oracle</title>
    <desc>Created with Sketch.</desc>
    <defs></defs>
    <g id="logo-/-oracle" stroke="none" stroke-width="1" fill="none" fill-rule="evenodd">
        <path d="M55.4895025,61.5845751 L59.8507498,61.5845751 L57.5475839,57.8716496 L53.3183052,64.5821471 L51.3900976,64.5842418 L56.5389669,56.5247322 C56.7568198,56.1969055 57.1338729,56 57.5444418,56 C57.9497739,56 58.3215901,56.1916687 58.5404904,56.510069 L63.7061176,64.5842418 L61.77791,64.5821471 L60.8729826,63.0823137 L56.45413,63.0823137 L55.4895025,61.5845751 Z M75.4984527,63.0844085 L75.4984527,56.0837896 L73.8635087,56.0837896 L73.8635087,63.7683409 C73.8635087,63.9809569 73.949393,64.1841466 74.1012616,64.3360152 C74.2615092,64.4941681 74.4730778,64.5821471 74.7003571,64.5821471 L82.1534397,64.5821471 L83.1138776,63.0844085 L75.4984527,63.0844085 Z M48.4606046,61.830707 C50.0463223,61.830707 51.3335396,60.5434896 51.3335396,58.957772 C51.3335396,57.3710069 50.0463223,56.0837896 48.4606046,56.0837896 L41.3081171,56.0837896 L41.3081171,64.5821471 L42.9409664,64.5821471 L42.9409664,57.5815282 L48.3474887,57.5815282 C49.1089264,57.5815282 49.7226851,58.1973816 49.7226851,58.957772 C49.7226851,59.717115 49.1089264,60.3340157 48.3474887,60.3340157 L43.7422042,60.331921 L48.6187574,64.5821471 L50.9931445,64.5821471 L47.7117353,61.8296596 L48.4606046,61.830707 Z M31.2491788,64.5821471 C28.9030707,64.5821471 27,62.6811711 27,60.3340157 C27,57.9868603 28.9030707,56.0837896 31.2491788,56.0837896 L36.1896215,56.0837896 C38.536777,56.0837896 40.4388003,57.9868603 40.4388003,60.3340157 C40.4388003,62.6811711 38.536777,64.5842418 36.1896215,64.5842418 L31.2491788,64.5821471 Z M36.0796477,63.0854558 C37.5993811,63.0854558 38.8300405,61.8537491 38.8300405,60.3340157 C38.8300405,58.8142823 37.5993811,57.5825756 36.0796477,57.5825756 L31.3591526,57.5815282 C29.8394192,57.5815282 28.6077124,58.8142823 28.6077124,60.3340157 C28.6077124,61.8537491 29.8394192,63.0854558 31.3591526,63.0854558 L36.0796477,63.0854558 Z M67.1163532,64.5821471 C64.7702452,64.5821471 62.8661271,62.6811711 62.8661271,60.3340157 C62.8661271,57.9868603 64.7702452,56.0837896 67.1163532,56.0837896 L72.9868603,56.0837896 L72.0243275,57.5825756 L67.2263271,57.5815282 C65.7055463,57.5815282 64.4738396,58.8142823 64.4738396,60.3340157 C64.4738396,61.8537491 65.7055463,63.0854558 67.2263271,63.0854558 L73.1188289,63.0854558 L72.1594382,64.5821471 L67.1163532,64.5821471 Z M87.1085456,63.0854558 C85.8506546,63.0854558 84.786527,62.2391811 84.4618424,61.0860271 L91.4477981,61.0860271 L92.4103309,59.5872411 L84.4597477,59.5861938 C84.7854796,58.4298976 85.8475125,57.5815282 87.1085456,57.5815282 L91.903404,57.5825756 L92.8669841,56.0837896 L86.996477,56.0837896 C84.650369,56.0837896 82.7462509,57.9868603 82.7462509,60.3340157 C82.7462509,62.6811711 84.650369,64.5821471 86.996477,64.5821471 L92.039562,64.5821471 L93,63.0854558 L87.1085456,63.0854558 Z" id="oracle" fill="currentcolor"></path>
    </g>
</svg>
