<?xml version="1.0" encoding="UTF-8"?>
<svg id="target" viewBox="0 0 120 120" version="1.1" xmlns="http://www.w3.org/2000/svg" xmlns:xlink="http://www.w3.org/1999/xlink">
    <!-- Generator: Sketch 51 (57462) - http://www.bohemiancoding.com/sketch -->
    <title>logo / cisco</title>
    <desc>Created with Sketch.</desc>
    <defs></defs>
    <g id="logo-/-cisco" stroke="none" stroke-width="1" fill="none" fill-rule="evenodd">
        <path d="M49.4344935,71.8916385 L49.4344935,63.6373688 L51.5179652,63.6373688 L51.5179652,71.8916385 L49.4344935,71.8916385 Z M67.4474878,66.0027295 C67.3745944,65.9584775 66.7967656,65.5603908 65.9359665,65.5603908 C64.7768676,65.5603908 63.9692525,66.4990231 63.9692525,67.7632885 C63.9692525,68.9897403 64.7419851,69.9670024 65.9359665,69.9670024 C66.7814361,69.9670024 67.3711531,69.5786185 67.4474878,69.5286536 L67.4474878,71.7452441 C67.2213775,71.817607 66.6094484,72.0387764 65.8097327,72.0387764 C63.7896,72.0387764 62.0186501,70.4230339 62.0186501,67.7632885 C62.0186501,65.2973271 63.6210536,63.4909745 65.8097327,63.4909745 C66.6552805,63.4909745 67.2788632,63.7273782 67.4474878,63.7862297 L67.4474878,66.0027295 Z M46.5732292,66.0027295 C46.4892592,65.9584775 45.8193127,65.5603908 44.8211941,65.5603908 C43.472868,65.5603908 42.538679,66.4990231 42.538679,67.7632885 C42.538679,68.9897403 43.4328779,69.9670024 44.8211941,69.9670024 C45.8015394,69.9670024 46.4803725,69.5786185 46.5732292,69.5286536 L46.5732292,71.7452441 C46.3119791,71.817607 45.6021333,72.0387764 44.6703927,72.0387764 C42.330749,72.0387764 40.276567,70.4230339 40.276567,67.7632885 C40.276567,65.2973271 42.1373278,63.4909745 44.6703927,63.4909745 C45.650738,63.4909745 46.3738231,63.7273782 46.5732292,63.7862297 L46.5732292,66.0027295 Z M74.8685909,65.592537 C73.6308948,65.592537 72.7123935,66.5649024 72.7123935,67.7632432 C72.7123935,68.963307 73.6308948,69.9356724 74.8685909,69.9356724 C76.1015716,69.9356724 77.0200729,68.963307 77.0200729,67.7632432 C77.0200729,66.5649024 76.1015716,65.592537 74.8685909,65.592537 M79.2285929,67.7632432 C79.2285929,70.1246502 77.4060992,72.0388218 74.8685909,72.0388218 C72.3270927,72.0388218 70.5085889,70.1246502 70.5085889,67.7632432 C70.5085889,65.4051914 72.3270927,63.4909291 74.8685909,63.4909291 C77.4060992,63.4909291 79.2285929,65.4051914 79.2285929,67.7632432 Z M59.4191981,65.512838 C59.3881855,65.504042 58.5100369,65.2620161 57.7913952,65.2620161 C56.9529646,65.2620161 56.500379,65.5410396 56.500379,65.9375848 C56.500379,66.4410421 57.112562,66.6155111 57.4539736,66.7256877 L58.0306099,66.9075925 C59.3837421,67.3370546 60.0002778,68.2635358 60.0002778,69.2671859 C60.0002778,71.342315 58.1770587,72.0388308 56.580087,72.0388308 C55.4714291,72.0388308 54.4335924,71.8353441 54.3313957,71.8128554 L54.3313957,69.9139182 C54.5174718,69.9597117 55.3913583,70.2195109 56.3010636,70.2195109 C57.3344569,70.2195109 57.8135212,69.9179081 57.8135212,69.449 C57.8135212,69.0299661 57.4008349,68.7902979 56.8820526,68.6270733 C56.7578205,68.585179 56.5668477,68.5265088 56.4386257,68.4822568 C55.2763756,68.1163616 54.309179,67.4358962 54.309179,66.0695247 C54.309179,64.5252383 55.4669857,63.4877644 57.3875956,63.4877644 C58.4034875,63.4877644 59.3569007,63.734687 59.4191981,63.7507374 L59.4191981,65.512838 Z M38.067784,54.7645595 L38.067784,56.9320919 C38.067784,57.5047383 37.6033193,57.9671174 37.0339374,57.9671174 C36.4652809,57.9671174 36,57.5047383 36,56.9320919 L36,54.7645595 C36,54.1975352 36.4652809,53.7358816 37.0339374,53.7358816 C37.6033193,53.7358816 38.067784,54.1975352 38.067784,54.7645595 Z M43.7480556,51.9206151 L43.7480556,56.9320647 C43.7480556,57.5047111 43.2823214,57.9671809 42.714209,57.9671809 C42.1446457,57.9671809 41.6801809,57.5047111 41.6801809,56.9320647 L41.6801809,51.9206151 C41.6801809,51.3536815 42.1446457,50.8903956 42.714209,50.8903956 C43.2823214,50.8903956 43.7480556,51.3536815 43.7480556,51.9206151 Z M49.4302769,48.0303101 L49.4302769,58.9925671 C49.4302769,59.5637626 48.9645426,60.0246002 48.3967929,60.0246002 C47.8245092,60.0246002 47.3587749,59.5637626 47.3587749,58.9925671 L47.3587749,48.0303101 C47.3587749,47.4617443 47.8245092,47 48.3967929,47 C48.9645426,47 49.4302769,47.4617443 49.4302769,48.0303101 Z M55.1076286,51.9206151 L55.1076286,56.9320647 C55.1076286,57.5047111 54.6464283,57.9671809 54.0742353,57.9671809 C53.5067576,57.9671809 53.0406606,57.5047111 53.0406606,56.9320647 L53.0406606,51.9206151 C53.0406606,51.3536815 53.5067576,50.8903956 54.0742353,50.8903956 C54.6464283,50.8903956 55.1076286,51.3536815 55.1076286,51.9206151 Z M60.7850709,54.7645595 L60.7850709,56.9320919 C60.7850709,57.5047383 60.31979,57.9671174 59.756393,57.9671174 C59.1841093,57.9671174 58.7229091,57.5047383 58.7229091,56.9320919 L58.7229091,54.7645595 C58.7229091,54.1975352 59.1841093,53.7358816 59.756393,53.7358816 C60.31979,53.7358816 60.7850709,54.1975352 60.7850709,54.7645595 Z M66.4680901,51.9206151 L66.4680901,56.9320647 C66.4680901,57.5047111 66.0064365,57.9671809 65.4337901,57.9671809 C64.8660404,57.9671809 64.4051122,57.5047111 64.4051122,56.9320647 L64.4051122,51.9206151 C64.4051122,51.3536815 64.8660404,50.8903956 65.4337901,50.8903956 C66.0064365,50.8903956 66.4680901,51.3536815 66.4680901,51.9206151 Z M72.1495134,48.0303101 L72.1495134,58.9925671 C72.1495134,59.5637626 71.6878597,60.0246002 71.1199287,60.0246002 C70.5482797,60.0246002 70.0873515,59.5637626 70.0873515,58.9925671 L70.0873515,48.0303101 C70.0873515,47.4617443 70.5482797,47 71.1199287,47 C71.6878597,47 72.1495134,47.4617443 72.1495134,48.0303101 Z M77.8317346,51.9206151 L77.8317346,56.9320647 C77.8317346,57.5047111 77.3708971,57.9671809 76.789364,57.9671809 C76.2216143,57.9671809 75.7607767,57.5047111 75.7607767,56.9320647 L75.7607767,51.9206151 C75.7607767,51.3536815 76.2216143,50.8903956 76.789364,50.8903956 C77.3708971,50.8903956 77.8317346,51.3536815 77.8317346,51.9206151 Z M83.5050964,54.7645595 L83.5050964,56.9320919 C83.5050964,57.5047383 83.0435334,57.9671174 82.4764185,57.9671174 C81.9038627,57.9671174 81.4421184,57.5047383 81.4421184,56.9320919 L81.4421184,54.7645595 C81.4421184,54.1975352 81.9038627,53.7358816 82.4764185,53.7358816 C83.0435334,53.7358816 83.5050964,54.1975352 83.5050964,54.7645595 Z" id="cisco" fill="currentcolor"></path>
    </g>
</svg>
