<?xml version="1.0" encoding="UTF-8"?>
<svg id="target" viewBox="0 0 120 120" version="1.1" xmlns="http://www.w3.org/2000/svg" xmlns:xlink="http://www.w3.org/1999/xlink">
    <!-- Generator: Sketch 51 (57462) - http://www.bohemiancoding.com/sketch -->
    <title>logo / reuters</title>
    <desc>Created with Sketch.</desc>
    <defs></defs>
    <g id="logo-/-reuters" stroke="none" stroke-width="1" fill="none" fill-rule="evenodd">
        <g id="thomson-reuters" transform="translate(20.000000, 50.000000)" fill="currentcolor" fill-rule="nonzero">
            <path d="M34.6525713,13.7234037 C34.6525713,13.6989295 34.6525713,13.6660253 34.6291849,13.633665 L32.898044,10.6812622 C33.8027732,10.3307375 34.3868904,9.6867944 34.3868904,8.52019147 L34.3868904,8.42120698 C34.3868904,6.53234358 32.8148318,5.92619954 31.1176829,5.92619954 C30.3122102,5.92619954 29.0762637,5.98085856 28.5003045,6.06706209 C28.2786771,6.10214175 28.1481481,6.1777398 28.1481481,6.39827942 L28.1481481,13.633665 C28.1481481,13.7535885 28.249852,13.8542046 28.3697755,13.8542046 L29.4724736,13.8542046 C29.5923971,13.8542046 29.6837674,13.7538605 29.6837674,13.633665 L29.6837674,10.9115915 C29.933948,10.9249163 30.8280717,10.9561889 31.1174109,10.9561889 L31.3624248,10.9561889 L32.952975,13.633665 C33.007634,13.7429831 33.0492401,13.8542046 33.1691637,13.8542046 L34.5198669,13.8542046 C34.6085178,13.8539327 34.6525713,13.7976421 34.6525713,13.7234037 Z M31.1174109,9.71126859 C30.9273281,9.71126859 29.8556306,9.68652246 29.6837674,9.67618892 L29.6837674,7.28288533 C29.879289,7.25922695 30.88545,7.23991953 31.1174109,7.23991953 C32.220381,7.23991953 32.8643241,7.59316364 32.8643241,8.42093504 L32.8643241,8.51991953 C32.8643241,9.49236058 32.2516536,9.71126859 31.1174109,9.71126859 Z M41.1287133,10.4346168 C41.2492411,10.4337671 41.3472789,10.3372951 41.3500687,10.2167965 L41.3500687,9.42056963 C41.3491754,9.29882291 41.2504624,9.20047379 41.1287133,9.20003001 L37.5960003,9.20003001 L37.5960003,8.18843026 C37.5960003,7.26303404 37.6327116,7.2396476 38.4640181,7.2396476 L41.2565229,7.2396476 C41.3816132,7.2396476 41.483317,7.13658407 41.483317,7.01666056 L41.483317,6.31044428 C41.483317,6.1554411 41.4232193,6.10159788 41.2565229,6.07957111 C40.9070859,6.02627177 40.1899922,5.9259276 38.8760003,5.9259276 C37.0434275,5.9259276 36.0709865,5.9128747 36.0709865,8.1887022 L36.0709865,11.6795371 C36.0709865,13.9515575 37.0434275,13.940952 38.8760003,13.940952 C40.1899922,13.940952 40.9070859,13.8422395 41.2565229,13.7875805 C41.4232193,13.7663695 41.483317,13.7133421 41.483317,13.5539879 L41.483317,12.8491313 C41.483317,12.7300236 41.3816132,12.6313111 41.2565229,12.6313111 L38.4640181,12.6313111 C37.6324396,12.6313111 37.5960003,12.6073808 37.5960003,11.6795371 L37.5960003,10.4346168 L41.1287133,10.4346168 Z M49.7504256,10.8180457 L49.7504256,6.22451269 C49.7504256,6.10186982 49.6489937,6.01485049 49.5236315,6.01485049 L48.4339863,6.01485049 C48.3113434,6.01485049 48.2123589,6.10186982 48.2123589,6.22451269 L48.2123589,10.8183177 C48.2123589,12.0776506 47.6336803,12.6729172 46.43934,12.6729172 C45.2479909,12.6729172 44.6641456,12.0776506 44.6641456,10.8183177 L44.6641456,6.22451269 C44.6641456,6.10186982 44.5700559,6.01485049 44.4449657,6.01485049 L43.3526011,6.01485049 C43.2326776,6.01485049 43.1334211,6.10186982 43.1334211,6.22451269 L43.1334211,10.8183177 C43.1334211,13.1694713 44.6611543,13.941224 46.4390681,13.941224 C48.2175257,13.940952 49.7504256,13.1694713 49.7504256,10.8180457 Z M57.2251144,6.22451269 C57.2251144,6.10186982 57.1234105,6.01485049 57.0059344,6.01485049 L51.0641456,6.01485049 C50.944494,6.01485049 50.8452376,6.10186982 50.8452376,6.22451269 L50.8452376,7.09524989 C50.8452376,7.21762083 50.9442221,7.29457855 51.0641456,7.29457855 L53.2673663,7.29457855 L53.2673663,13.633665 C53.2673663,13.7535885 53.3663508,13.8542046 53.4865463,13.8542046 L54.5813583,13.8542046 C54.7028041,13.8530334 54.8010941,13.7551057 54.8027137,13.633665 L54.8027137,7.29457855 L57.0059344,7.29457855 C57.1234105,7.29457855 57.2251144,7.21762083 57.2251144,7.09524989 L57.2251144,6.22451269 Z M72.1092274,13.633665 L70.3726478,10.6812622 C71.2800963,10.3307375 71.8639416,9.6867944 71.8639416,8.52019147 L71.8639416,8.42120698 C71.8639416,6.53234358 70.2970498,5.92619954 68.5920147,5.92619954 C67.786542,5.92619954 66.5533149,5.98085856 65.9798031,6.06706209 C65.7584477,6.10214175 65.6251993,6.1777398 65.6251993,6.39827942 L65.6251993,13.633665 C65.6251993,13.7535885 65.7269032,13.8542046 65.8468267,13.8542046 L66.9495248,13.8542046 C67.0721677,13.8542046 67.1583712,13.7538605 67.1583712,13.633665 L67.1583712,10.9115915 C67.4137186,10.9249163 68.3053948,10.9561889 68.5920147,10.9561889 L68.8397479,10.9561889 L70.4300262,13.633665 C70.4849572,13.7429831 70.5265633,13.8542046 70.6492061,13.8542046 L71.99719,13.8542046 C72.085569,13.8539327 72.1298945,13.7976421 72.1298945,13.7234037 C72.1298945,13.6989295 72.1298945,13.6660253 72.1092274,13.633665 Z M68.5917428,9.71126859 C68.4065548,9.71126859 67.3378486,9.68652246 67.1580993,9.67618892 L67.1580993,7.28288533 C67.3587876,7.25922695 68.3625012,7.23991953 68.5917428,7.23991953 C69.6998796,7.23991953 70.3413753,7.59316364 70.3413753,8.42093504 L70.3413753,8.51991953 C70.3413753,9.49236058 69.7311522,9.71126859 68.5917428,9.71126859 Z M77.5832873,9.65633763 C76.9604204,9.4079971 76.3364126,9.16252746 75.7112839,8.91993653 C75.2209843,8.72305529 74.8092741,8.38803086 74.8092741,8.02690062 C74.8092741,7.53170623 75.4219446,7.24209501 76.2407422,7.24209501 C77.1998584,7.24209501 77.9563827,7.37779079 78.683538,7.44414303 L78.7069244,7.44414303 C78.8162425,7.44414303 78.8945599,7.35168499 78.8945599,7.24209501 L78.8945599,6.42764845 C78.8945599,6.31805847 78.8059089,6.24110075 78.6938715,6.21880205 C78.3183287,6.12879142 77.3564932,5.92701535 76.3030154,5.92701535 C74.2512627,5.92701535 73.2717513,6.81080545 73.2717513,8.02690062 C73.2717513,8.79865333 73.6127583,9.5600725 74.5745939,9.9562824 C75.5394207,10.3527642 77.5153034,10.8112473 77.5153034,11.6428258 C77.5153034,12.2791547 77.2131832,12.6323988 76.2325841,12.6323988 C75.2133702,12.6323988 74.178112,12.4863695 73.7348573,12.4317105 L73.7114709,12.4317105 C73.5962096,12.434063 73.5037558,12.5277222 73.5028964,12.6430043 L73.5028964,13.4381435 C73.5028964,13.5591547 73.6070477,13.6352966 73.7114709,13.6559637 C74.2433765,13.7796943 75.2340372,13.9463907 76.2091976,13.9463907 C78.4175852,13.9463907 79.1134679,12.7550417 79.1134679,11.6428258 C79.1134679,10.5806461 78.5114029,10.0332401 77.5832873,9.65633763 Z M63.4168118,10.4346168 C63.4747916,10.4349792 63.5305173,10.4121817 63.571618,10.3712853 C63.6127187,10.3303888 63.6357935,10.2747774 63.6357198,10.2167965 L63.6357198,9.42056963 C63.636827,9.3620303 63.6141729,9.3055393 63.572926,9.26398491 C63.531679,9.22243052 63.4753578,9.19935754 63.4168118,9.20003001 L59.8868182,9.20003001 L59.8868182,8.18843026 C59.8868182,7.26303404 59.9208101,7.2396476 60.7575554,7.2396476 L63.5522357,7.2396476 C63.6736514,7.23699597 63.770855,7.13810393 63.7714156,7.01666056 L63.7714156,6.31044428 C63.7714156,6.1554411 63.7167566,6.10159788 63.5522357,6.07957111 C63.1951845,6.02627177 62.4783627,5.9259276 61.1643708,5.9259276 C59.3315261,5.9259276 58.3615325,5.9128747 58.3615325,8.1887022 L58.3615325,11.6795371 C58.3615325,13.9515575 59.3312542,13.940952 61.1643708,13.940952 C62.4783627,13.940952 63.1951845,13.8422395 63.5522357,13.7875805 C63.7164847,13.7663695 63.7714156,13.7133421 63.7714156,13.5539879 L63.7714156,12.8491313 C63.7703729,12.728737 63.6726342,12.6316046 63.5522357,12.6313111 L60.7575554,12.6313111 C59.9208101,12.6313111 59.8868182,12.6073808 59.8868182,11.6795371 L59.8868182,10.4346168 L63.4168118,10.4346168 Z" id="Shape"></path>
            <path d="M9.33744636,6.92347567 C9.44350117,7.12117272 9.37143828,7.36917782 9.17292543,7.47632037 C8.9735391,7.58333188 8.72515565,7.50860996 8.61790525,7.30935203 C8.50913108,7.11192692 8.58418526,6.86337795 8.78215424,6.75677926 C8.87781293,6.70483366 8.99024933,6.69322065 9.09450578,6.72451801 C9.19876223,6.75581537 9.28621294,6.82743366 9.33744636,6.92347567 Z M7.31723816,10.12198 C7.20122827,10.1864649 7.15837981,10.332077 7.22097302,10.4491183 C7.25097189,10.5053894 7.30241611,10.5471677 7.36364489,10.5649834 C7.42487368,10.5827992 7.49070168,10.5751435 7.54620778,10.5437519 C7.60306025,10.514492 7.64559057,10.463396 7.66404828,10.4021779 C7.682506,10.3409598 7.67530801,10.2748703 7.64410453,10.219061 C7.58020897,10.1025376 7.43438008,10.0592257 7.31723816,10.12198 Z M7.27644784,9.13866157 C7.14179789,9.21249243 7.09170201,9.3809747 7.16413852,9.51637986 C7.23946463,9.65452305 7.40860846,9.70428723 7.54539197,9.63140854 C7.68054387,9.55744211 7.7322116,9.38476312 7.65906097,9.25069896 C7.62353662,9.18474036 7.56306948,9.13576201 7.49117178,9.11470881 C7.41927408,9.09365561 7.34193889,9.10228246 7.27644784,9.13866157 Z M7.53152326,8.19232632 C7.37639771,8.27682555 7.3176973,8.47011329 7.39963459,8.62660718 C7.48529424,8.78133843 7.67972806,8.84116422 7.83473125,8.75659231 C7.90994254,8.71640805 7.96606597,8.64793966 7.99070942,8.56630503 C8.01535287,8.4846704 8.0064894,8.39658409 7.96607606,8.32149564 C7.88082166,8.16697274 7.68734046,8.10946111 7.53152326,8.19232632 Z M8.05200765,7.37380072 C7.96687945,7.41892864 7.90339065,7.49629392 7.87574217,7.58859181 C7.84809369,7.6808897 7.85859261,7.78041853 7.90489059,7.86491608 C8.00006798,8.03868281 8.2159847,8.10476312 8.39111111,8.00985766 C8.47597186,7.96533233 8.53946705,7.88867703 8.56741653,7.79701091 C8.59536601,7.70534479 8.58544164,7.60630348 8.53985978,7.52200552 C8.49507671,7.43740144 8.4183782,7.37417058 8.32678588,7.34634572 C8.23519357,7.31852085 8.13628384,7.32840361 8.05200765,7.37380072 Z M7.65362226,11.0530869 C7.60644917,11.07847 7.57134372,11.1216143 7.55608204,11.172963 C7.54082037,11.2243116 7.54666221,11.2796261 7.57231358,11.3266539 C7.62608408,11.4234559 7.74727285,11.4596677 7.84533673,11.4082345 C7.94206745,11.3537737 7.97747805,11.2319516 7.92501381,11.1341236 C7.87179235,11.0376139 7.75104715,11.0015597 7.65362226,11.0530869 Z M12.3020863,7.70447419 C12.3666478,7.82088052 12.512065,7.86485507 12.6303123,7.80373061 C12.7468779,7.73908485 12.7902783,7.59304689 12.7279371,7.47523263 C12.6978196,7.41894554 12.6464606,7.37702533 12.5852812,7.35879407 C12.5241018,7.3405628 12.4581739,7.34753193 12.4021585,7.37815169 C12.3455867,7.40812596 12.3032521,7.45936114 12.2844815,7.52056973 C12.2657108,7.58177832 12.2720442,7.64793833 12.3020863,7.70447419 Z M11.4854642,7.18480561 C11.5591587,7.32131719 11.7326535,7.37108137 11.8648141,7.296843 C12.004317,7.22287657 12.0540812,7.05318887 11.9795709,6.91722116 C11.9065731,6.7813937 11.7376601,6.72990617 11.6013087,6.80192054 C11.4646827,6.87655476 11.4131289,7.04694872 11.4854642,7.18480561 Z M10.5418483,6.93190567 C10.5815936,7.00654993 10.6495778,7.06216734 10.7306169,7.086336 C10.811656,7.11050465 10.8989989,7.10121114 10.9731379,7.06053112 C11.0483872,7.02060135 11.1046142,6.95232128 11.1293687,6.87081019 C11.1541232,6.7892991 11.1453625,6.70128262 11.1050266,6.62625027 C11.0649757,6.55125919 10.9965103,6.4954737 10.9149749,6.47139648 C10.8334396,6.44731926 10.7456528,6.45696385 10.6712896,6.49816868 C10.5965004,6.5384152 10.5408114,6.60678105 10.5165239,6.6881648 C10.4922363,6.76954855 10.5013487,6.85725324 10.5418483,6.93190567 Z M9.5566263,6.97079244 C9.60184352,7.05546673 9.67886692,7.11869243 9.77072953,7.14654195 C9.86259213,7.17439147 9.9617578,7.16458011 10.046382,7.11926917 C10.2209005,7.02291987 10.2856027,6.80421701 10.1915955,6.62842575 C10.0938849,6.4596057 9.87970682,6.39898843 9.708016,6.49156177 C9.53632518,6.5841351 9.46927444,6.79638712 9.5566263,6.97079244 Z M12.9155726,8.44060336 C12.9672403,8.53822817 13.0896112,8.57357977 13.1842447,8.52136818 C13.2312894,8.49694107 13.2664965,8.45457566 13.281902,8.40385529 C13.2973075,8.35313492 13.2916096,8.29834528 13.2660973,8.25188018 C13.2138683,8.15373633 13.0925171,8.11570813 12.993618,8.16649246 C12.9003442,8.22060761 12.8614574,8.34515403 12.9155726,8.44060336 Z M12.2221372,12.2661908 C12.171131,12.16963 12.0834676,12.0976114 11.9788434,12.0663162 C11.8742192,12.0350209 11.7614083,12.0470737 11.6657574,12.0997663 C11.5701144,12.1508268 11.4989245,12.2380882 11.4681082,12.3420358 C11.4372918,12.4459835 11.44942,12.5579453 11.5017803,12.6528829 C11.6094668,12.8508519 11.8580157,12.9231867 12.0570724,12.8187635 C12.2547695,12.7094455 12.328464,12.4600807 12.2221372,12.2661908 Z M8.53578075,11.8697089 C8.47194288,11.7542725 8.32742069,11.7112182 8.21081793,11.7728999 C8.15472814,11.8029244 8.11290283,11.854048 8.09458425,11.9149738 C8.07626567,11.9758997 8.08296185,12.0416122 8.11319312,12.0975908 C8.14279605,12.1541803 8.19406653,12.196359 8.25530092,12.2144987 C8.3165353,12.2326384 8.38250681,12.2251908 8.43815594,12.193856 C8.49415449,12.1638848 8.53592221,12.1128588 8.55423853,12.0520425 C8.57255485,11.9912262 8.56591355,11.9256207 8.53578075,11.8697089 Z M9.35349055,12.3896495 C9.27951879,12.2541666 9.10994677,12.2039636 8.97414064,12.2773401 C8.90809459,12.3119807 8.85881928,12.3718045 8.83747366,12.4432636 C8.81612805,12.5147228 8.82451802,12.5917718 8.86074357,12.656962 C8.93144678,12.7937455 9.10303803,12.8459571 9.23900574,12.7725345 C9.37500644,12.6973293 9.42588615,12.5271663 9.35349055,12.3896495 Z M10.2992819,12.6425494 C10.2168855,12.4872743 10.0202762,12.4320714 9.86255364,12.5125643 C9.7077718,12.5977318 9.65010874,12.7914361 9.73311239,12.947389 C9.81850011,13.1042957 10.0129339,13.162218 10.168481,13.0784619 C10.2441981,13.0385641 10.3007058,12.9699127 10.3253034,12.8879379 C10.3499009,12.8059631 10.3405246,12.7175424 10.2992819,12.6425494 Z M11.2831443,12.6031188 C11.1877972,12.4279305 10.9689032,12.3625781 10.7931166,12.4568175 C10.6169025,12.5500914 10.555717,12.7684555 10.6514383,12.9460293 C10.695742,13.0305433 10.7723297,13.0935578 10.8637951,13.1207517 C10.9552606,13.1479455 11.0538348,13.1370087 11.1371149,13.090427 C11.313873,12.997969 11.37669,12.7774294 11.2831443,12.6031188 Z M13.5184534,9.45573826 C13.6367453,9.38775441 13.6818866,9.24090928 13.6201572,9.1258806 C13.5898325,9.06987552 13.5385005,9.02821186 13.4774552,9.01005635 C13.4164098,8.99190084 13.3506524,8.9987409 13.2946505,9.0290716 C13.2376705,9.05878334 13.1950922,9.1102325 13.1765611,9.17176384 C13.1580301,9.23329518 13.1651146,9.29970105 13.1962099,9.35593796 C13.2585322,9.4713974 13.4017829,9.51576281 13.5184534,9.45573826 Z M13.5635946,10.4374251 C13.7001062,10.3631867 13.7490546,10.1926832 13.6748162,10.0572594 C13.6398376,9.99184313 13.5802258,9.94306835 13.5091791,9.92173392 C13.4381324,9.90039948 13.3615121,9.9082655 13.2962821,9.9435904 C13.1602943,10.0184965 13.1090777,10.1883327 13.1809815,10.3259316 C13.2533163,10.4599958 13.4289866,10.509488 13.5635946,10.4374251 Z M13.3066157,11.3829446 C13.4659698,11.2972849 13.5214447,11.1047546 13.440136,10.947304 C13.355541,10.7915299 13.1610152,10.7333301 13.0047674,10.817047 C12.8487657,10.902096 12.7903064,11.0968795 12.8736945,11.2537752 C12.9584066,11.4079636 13.1512652,11.4655062 13.3066157,11.3829446 Z M12.7896665,12.197935 C12.9647929,12.1071086 13.0295135,11.8843935 12.934608,11.7106267 C12.8383429,11.5360442 12.6207946,11.4683323 12.446484,11.5645974 C12.3622819,11.6100708 12.2996093,11.6871503 12.2722703,11.7788585 C12.2449312,11.8705667 12.2551682,11.9693811 12.3007266,12.0535373 C12.3457889,12.1381595 12.4229665,12.2011237 12.514913,12.2282781 C12.6068595,12.2554325 12.7058612,12.244499 12.7896665,12.197935 Z" id="Shape"></path>
            <path d="M12.097047,5.94668366 C12.0576333,6.08014489 11.966701,6.19242002 11.8443411,6.25870258 C11.7219811,6.32498514 11.578265,6.33981938 11.4449458,6.29992777 C11.3106764,6.26115608 11.1974713,6.17033004 11.130517,6.0476571 C11.0635627,5.92498415 11.048413,5.78063994 11.0884385,5.6467389 C11.1420185,5.46656835 11.2876482,5.32866848 11.4704705,5.28498482 C11.6532928,5.24130116 11.8455324,5.29847031 11.9747747,5.4349572 C12.104017,5.57144409 12.1506269,5.76651312 12.097047,5.94668366 Z M7.05454854,7.1886127 C6.91658712,7.15022142 6.77319432,7.22891848 6.73148927,7.3659146 C6.69700017,7.50144123 6.776022,7.63994169 6.91024151,7.67921116 C7.04446102,7.71848062 7.18567444,7.6444158 7.22967495,7.51167198 C7.27264075,7.37488846 7.19106012,7.23103463 7.05454854,7.1886127 Z M7.96689186,6.18517102 C7.88535475,6.1611385 7.79760004,6.17061591 7.72307417,6.21150305 C7.6485483,6.25239018 7.59340577,6.32131051 7.56986616,6.40299129 C7.54554583,6.48456406 7.55477916,6.57246911 7.5955181,6.64720821 C7.63625704,6.72194732 7.70513372,6.77734185 7.78687062,6.80110474 C7.9568742,6.85028767 8.13472927,6.75316545 8.185256,6.58355641 C8.23405764,6.41334612 8.13662846,6.2355955 7.96689186,6.18517102 Z M9.13594221,5.47786701 C8.92006921,5.41554257 8.69419202,5.53829664 8.6290546,5.75333758 C8.56681469,5.96952895 8.69086649,6.195398 8.90670066,6.25886552 C9.01027274,6.28981196 9.12191664,6.2780898 9.21680239,6.22630609 C9.31168814,6.17452237 9.38194825,6.08697075 9.41195666,5.98312301 C9.47288897,5.76764238 9.35018315,5.54302425 9.13594221,5.47786701 Z M10.4306267,5.18825579 C10.3139652,5.1533234 10.1881851,5.16641411 10.0812172,5.224621 C9.97424928,5.28282789 9.89494763,5.38133297 9.86092203,5.49826216 C9.82622965,5.61477808 9.83940819,5.74031623 9.89754048,5.84708775 C9.95567278,5.95385926 10.053964,6.03305741 10.1706565,6.06715105 C10.4130515,6.13796646 10.6671251,5.99969019 10.7392734,5.75768855 C10.7744029,5.6412439 10.7615608,5.51559075 10.7036017,5.40866002 C10.6456426,5.30172929 10.5473694,5.22238195 10.4306267,5.18825579 Z M6.47777353,8.43081368 C6.42876499,8.41626 6.37597579,8.42185421 6.3311061,8.44635643 C6.28623642,8.47085864 6.25299242,8.51224501 6.2387423,8.56134268 C6.22376067,8.6107822 6.22904065,8.66414893 6.25341986,8.70969418 C6.27779906,8.75523943 6.31927884,8.78922933 6.36872743,8.80418101 C6.47260676,8.8340939 6.57974931,8.77426811 6.60993414,8.67147652 C6.62446946,8.62203509 6.61869489,8.56883894 6.59388919,8.52366806 C6.56908348,8.47849718 6.52729355,8.44507897 6.47777353,8.43081368 Z M14.3331719,9.59850436 C14.313435,9.66464466 14.3209862,9.73593268 14.3541414,9.79647038 C14.3872967,9.85700808 14.4432985,9.90176068 14.509658,9.92074782 C14.6472281,9.96122289 14.7915623,9.88251175 14.8320374,9.74494158 C14.8725125,9.6073714 14.7938013,9.46303721 14.6562311,9.42256214 C14.518478,9.38233202 14.3741061,9.46095879 14.3331719,9.59850436 Z M14.0329552,8.30001275 C14.0083904,8.38183894 14.0175585,8.47008995 14.0584187,8.54511932 C14.0992788,8.6201487 14.1684392,8.67572861 14.2505035,8.69948587 C14.4218228,8.75006586 14.5985808,8.65216911 14.648617,8.48193754 C14.6986531,8.31170597 14.602116,8.13413214 14.4321564,8.08518377 C14.3507306,8.06067432 14.2629009,8.06954524 14.1880206,8.10984186 C14.1131404,8.15013847 14.0573544,8.21855385 14.0329552,8.30001275 Z M13.3259231,7.13205014 C13.2850216,7.27161067 13.3216817,7.4223906 13.4220939,7.52759259 C13.5225062,7.63279458 13.6714155,7.67643595 13.8127292,7.6420774 C13.9540429,7.60771886 14.0662921,7.50058029 14.1071935,7.36101976 C14.1379249,7.25759 14.126016,7.1461656 14.0741195,7.05156701 C14.0222231,6.95696843 13.9346498,6.8870532 13.8309072,6.85739537 C13.6157746,6.7952704 13.3906818,6.91769569 13.3259231,7.13205014 Z M12.3309114,6.22487359 C12.2600988,6.467724 12.399563,6.72199811 12.6424134,6.79281071 C12.8852638,6.8636233 13.1395379,6.7241591 13.2103505,6.48130869 C13.2450492,6.36493707 13.2319308,6.23953452 13.1738996,6.13286338 C13.1158685,6.02619224 13.0177118,5.94705217 12.90116,5.91296367 C12.657574,5.84176735 12.4023609,5.98136176 12.3309114,6.22487359 Z M14.2279329,10.9092331 C14.1987792,11.0115174 14.2566119,11.1183692 14.3581899,11.1498959 C14.407598,11.1647484 14.4609,11.1591497 14.5061437,11.1343552 C14.5513873,11.1095606 14.5847868,11.067645 14.5988528,11.0180072 C14.6137518,10.9687097 14.6083091,10.9155005 14.5837379,10.8702403 C14.5591666,10.8249802 14.5175093,10.7914315 14.4680518,10.7770724 C14.3653629,10.7482621 14.2585303,10.8070624 14.2279329,10.9092331 Z M9.75078819,13.9342426 C9.7906111,13.7999487 9.77530385,13.6553238 9.70825059,13.5323418 C9.64119732,13.4093598 9.52792105,13.3181504 9.39346505,13.2788783 C9.25956948,13.2394794 9.11550187,13.2549487 8.9930231,13.3218759 C8.87054433,13.388803 8.77971103,13.5016927 8.74054812,13.6356575 C8.70081567,13.7698792 8.71617177,13.9143981 8.78322248,14.0372734 C8.85027319,14.1601487 8.96349755,14.2512628 9.09787126,14.290478 C9.37687699,14.3712428 9.67138305,14.2108009 9.75078819,13.9342426 Z M6.50469513,9.98084555 C6.54545598,9.843352 6.46705457,9.69884506 6.32956873,9.65805821 C6.19155858,9.6189691 6.04765819,9.69757015 6.00596558,9.83481623 C5.98673216,9.90080946 5.99456319,9.97174468 6.0277289,10.0319532 C6.06089462,10.0921617 6.11666591,10.1366892 6.1827236,10.1557 C6.24860971,10.1755671 6.31970423,10.1682671 6.38017815,10.1354253 C6.44065207,10.1025834 6.48548505,10.0469262 6.50469513,9.98084555 Z M6.8054557,11.2785214 C6.82963588,11.1974504 6.82035639,11.1100735 6.77968801,11.0358895 C6.73901963,10.9617054 6.6703471,10.9068884 6.58899511,10.8836711 C6.50763619,10.8582195 6.41943985,10.8667803 6.34449444,10.9074035 C6.26954903,10.9480266 6.21423589,11.0172533 6.1911536,11.0993159 C6.14166739,11.2689508 6.23906709,11.4465835 6.40870193,11.4960697 C6.57833677,11.5455559 6.75596949,11.4481562 6.8054557,11.2785214 Z M7.51357553,12.4481156 C7.57560858,12.2312615 7.4517311,12.0048396 7.23565753,11.9401402 C7.01967146,11.8779428 6.79404458,12.0020619 6.7309454,12.2177863 C6.70014157,12.3213205 6.71189548,12.4328641 6.76360296,12.5277037 C6.81531044,12.6225433 6.90270225,12.6928484 7.00641598,12.7230423 C7.11012896,12.7540697 7.22192906,12.7425101 7.31709965,12.690919 C7.41227023,12.6393278 7.48297245,12.5519546 7.51357553,12.4481156 Z M8.50858721,13.3566518 C8.57886854,13.1133344 8.43917492,12.8589923 8.19613342,12.7877629 C8.07957569,12.7533706 7.95410515,12.7670113 7.84766111,12.8256475 C7.74121707,12.8842836 7.66263743,12.9830468 7.62942001,13.0999448 C7.59515812,13.2162068 7.60855904,13.3413232 7.66666637,13.4476917 C7.7247737,13.5540603 7.82281259,13.6329404 7.93915445,13.6669301 C8.18196297,13.7374067 8.43617375,13.5988897 8.50858721,13.3566518 Z M13.7825027,12.3899214 C13.9205869,12.4308864 14.0657593,12.3522767 14.1069216,12.2142511 C14.1463741,12.0765154 14.068059,11.9325948 13.9309794,11.8909199 C13.7933013,11.85152 13.6495081,11.9300188 13.6081921,12.0671341 C13.5678492,12.2043355 13.6456508,12.3484081 13.7825027,12.3899214 Z M12.8717909,13.3947228 C13.040818,13.4445928 13.2182838,13.3480699 13.2682728,13.179078 C13.2931598,13.0975784 13.2844317,13.0095117 13.2440314,12.9344827 C13.2036312,12.8594536 13.1349121,12.8036897 13.0531719,12.7796048 C12.8827791,12.7296392 12.7040005,12.8265586 12.6528829,12.9966093 C12.6052409,13.1667868 12.7025689,13.3437909 12.8717909,13.3947228 Z M11.7027406,14.1022987 C11.8066006,14.1332499 11.9185197,14.1214518 12.013643,14.0695246 C12.1087663,14.0175974 12.1792194,13.9298396 12.2093563,13.8257404 C12.2396448,13.7222447 12.2275443,13.6109534 12.1757207,13.5163856 C12.1238972,13.4218179 12.0366028,13.3517331 11.9330699,13.3215721 C11.7936065,13.2804278 11.6427868,13.3168116 11.537423,13.4170183 C11.4320593,13.5172249 11.3881588,13.6660305 11.4222584,13.8073815 C11.456358,13.9487326 11.5632772,14.0611543 11.7027406,14.1022987 Z M10.4091438,14.3908222 C10.5253019,14.4262551 10.6508174,14.4136288 10.7575906,14.3557699 C10.8643639,14.2979109 10.9434764,14.1996522 10.9772169,14.0829913 C11.0484801,13.8400658 10.9093202,13.5853656 10.6663947,13.5141024 C10.4234692,13.4428392 10.168769,13.5819991 10.0975058,13.8249246 C10.0279594,14.067175 10.1672377,14.3200877 10.4091438,14.3908222 Z" id="Shape"></path>
            <path d="M14.7149692,6.21426811 C14.4583385,6.48494924 14.0309665,6.49663139 13.759932,6.24037391 C13.6292197,6.11762136 13.5528957,5.94778313 13.5478926,5.76853787 C13.5428895,5.5892926 13.6096208,5.41546137 13.7332823,5.28560867 C13.8557974,5.15495243 14.0252718,5.07842341 14.2042987,5.07291332 C14.3833255,5.06740323 14.5571855,5.1333651 14.6875037,5.25623964 C14.95922,5.51339579 14.9715066,5.9419676 14.7149692,6.21426811 Z M7.98048863,4.67837689 C7.84621572,4.55272976 7.63576238,4.55879819 7.50895262,4.69197366 C7.38343007,4.82587959 7.3895026,5.03598909 7.52254939,5.16242192 C7.65685584,5.28822507 7.86755881,5.28190641 7.9940854,5.14828128 C8.11954589,5.01455894 8.1134713,4.80462113 7.98048863,4.67837689 Z M9.66893563,4.03606543 C9.50328322,3.88126087 9.24374731,3.88915504 9.08780965,4.05374124 C9.01288954,4.13331693 8.97265971,4.23940161 8.97597478,4.34864594 C8.97928985,4.45789026 9.02587812,4.56134041 9.10548545,4.6362269 C9.27144996,4.79084671 9.53107985,4.78258907 9.68688337,4.61773529 C9.84152819,4.45176963 9.83351844,4.19218115 9.66893563,4.03606543 Z M11.4800255,3.90363289 C11.2698145,3.70647241 10.9398446,3.71607021 10.7414489,3.92511579 C10.5538903,4.13663429 10.5682727,4.45888806 10.7739285,4.65285715 C10.9795842,4.84682625 11.3021278,4.84235214 11.5023242,4.64275335 C11.6996317,4.43225188 11.6896639,4.1018571 11.4800255,3.90363289 Z M13.1934905,4.34226471 C13.0802414,4.23494397 12.9289015,4.17716459 12.7729449,4.18170652 C12.6169882,4.18624845 12.4692674,4.25273739 12.3624559,4.36646696 C12.2553866,4.47973194 12.1976992,4.63089231 12.202085,4.78669201 C12.2064709,4.94249172 12.2725707,5.0901674 12.3858424,5.19722966 C12.6224329,5.4194612 12.9941555,5.40864259 13.2174209,5.17302741 C13.4396319,4.93678621 13.4289318,4.56532312 13.1934905,4.34226471 Z M6.54902061,5.80310176 C6.4489524,5.70972274 6.29235457,5.71433213 6.19795199,5.81343531 C6.15252571,5.86113146 6.12798884,5.9249697 6.12977528,5.99081252 C6.13156171,6.05665535 6.15952402,6.11906919 6.20746973,6.16423199 C6.25509884,6.20982921 6.31900215,6.23445726 6.38491311,6.23261788 C6.45082407,6.23077851 6.51325441,6.20262486 6.55826641,6.15444232 C6.6525664,6.05480517 6.64843051,5.89764128 6.54902061,5.80310176 Z M15.1960229,11.9319822 C15.0697431,12.0661187 15.0758246,12.2771485 15.2096197,12.4037901 C15.3449258,12.524163 15.5514586,12.5149844 15.6755532,12.3830832 C15.7996478,12.251182 15.7962248,12.0444738 15.6678309,11.9167538 C15.5331385,11.7912073 15.322339,11.7980112 15.1960229,11.9319822 Z M15.6229615,10.2111748 C15.468807,10.3770504 15.4771817,10.6361812 15.6417251,10.791757 C15.7210269,10.8668672 15.8270014,10.9072621 15.9361786,10.9039955 C16.0453558,10.9007288 16.1487256,10.8540702 16.2233949,10.7743531 C16.2985067,10.6951045 16.3388368,10.5891272 16.3354151,10.4799924 C16.3319935,10.3708576 16.2851039,10.2676148 16.2051753,10.1932271 C16.0391392,10.0382201 15.7791348,10.0462352 15.6229615,10.2111748 Z M15.4918887,8.39899724 C15.3967258,8.49977204 15.3456138,8.63429591 15.3498491,8.77283685 C15.3540844,8.91137778 15.4133184,9.04252827 15.5144593,9.13730189 C15.6152677,9.23239671 15.7497768,9.2834629 15.8882955,9.27922826 C16.0268141,9.27499362 16.1579527,9.21580634 16.252764,9.11473125 C16.4441931,8.90378174 16.4313263,8.57835807 16.2238395,8.38318111 C16.0163528,8.18800416 15.6907509,8.19503982 15.4918887,8.39899724 Z M14.8593669,6.71952411 C14.6962867,6.89273277 14.6536635,7.14715025 14.7513876,7.36405208 C14.8491116,7.58095391 15.0679197,7.71758481 15.3057046,7.71018567 C15.5434895,7.70278654 15.7533794,7.55281587 15.8374288,7.33025781 C15.9214782,7.10769974 15.8631195,6.85642452 15.6895857,6.69369025 C15.4551774,6.47124708 15.0826259,6.48402804 14.8593669,6.71952411 Z M14.2782409,13.4246356 C14.1848253,13.5248859 14.1896801,13.6816966 14.2891183,13.7759762 C14.3371481,13.8209571 14.4011456,13.8449057 14.4669057,13.842506 C14.5326657,13.8401064 14.5947476,13.8115571 14.6393711,13.7631952 C14.6850192,13.715969 14.7096416,13.6522976 14.7076444,13.5866464 C14.7056472,13.5209952 14.6772,13.4589382 14.6287657,13.414574 C14.5812163,13.3688887 14.5173066,13.3442213 14.4513938,13.3461133 C14.3854809,13.3480053 14.3230914,13.3762981 14.2782409,13.4246356 Z M7.1056724,14.2931974 C7.35772852,14.0209226 7.34335539,13.5964104 7.07346024,13.3418078 C6.8035651,13.0872052 6.37893664,13.0975901 6.12181007,13.3650818 C5.87886074,13.6385435 5.89725692,14.055585 6.1633412,14.3065926 C6.42942548,14.5576003 6.84683036,14.5516669 7.1056724,14.2931974 Z M5.64265987,7.64655194 C5.72441426,7.55989132 5.75372554,7.43619815 5.71955243,7.32206646 C5.68537933,7.20793477 5.59291354,7.12070387 5.47698604,7.0932328 C5.36105854,7.06576174 5.23928148,7.10222401 5.15752709,7.18888464 C5.02971744,7.32213299 5.03733163,7.53233907 5.17248354,7.65960484 C5.30491608,7.78469513 5.51539409,7.77952836 5.64265987,7.64655194 Z M5.21408965,9.36817506 C5.36908544,9.20231973 5.36156348,8.94256938 5.19722966,8.78596133 C5.03104434,8.63711605 4.77654229,8.64771671 4.62331072,8.80986653 C4.47007914,8.97201634 4.47387735,9.22671075 4.63187593,9.38421925 C4.79739727,9.53973123 5.05738396,9.53256672 5.21408965,9.36817506 Z M5.34597833,11.1795369 C5.54426796,10.9689362 5.53440882,10.6374985 5.32395156,10.4390567 C5.11338237,10.2414085 4.78252627,10.2516299 4.58455917,10.4618993 C4.38742638,10.6724562 4.39763853,11.0027707 4.60740174,11.2007478 C4.81842362,11.4000765 5.14855322,11.389471 5.34597833,11.1795369 Z M5.97741236,12.8595539 C6.19973324,12.6232044 6.18890894,12.2515298 5.95321011,12.0285192 C5.83999199,11.9216041 5.68884582,11.8641971 5.53319819,11.8689941 C5.37755056,11.8737911 5.23022642,11.9403968 5.1238071,12.0540812 C5.01639572,12.1671035 4.95837888,12.3182253 4.96256248,12.4740898 C4.96674608,12.6299543 5.03278614,12.7777462 5.1461058,12.8848438 C5.38329533,13.1057056 5.75408715,13.0944254 5.97741236,12.8595539 Z M12.8573784,14.9001572 C12.921637,14.9609265 13.0074696,14.9935729 13.0958707,14.9908678 C13.1842719,14.9881627 13.2679477,14.9503292 13.3283705,14.8857446 C13.3890074,14.821636 13.4215807,14.7359965 13.4188755,14.6477955 C13.4161703,14.5595945 13.3784097,14.4761122 13.3139579,14.4158402 C13.2499098,14.3550836 13.1642877,14.3223596 13.0760437,14.3249115 C12.9877996,14.3274634 12.9042116,14.3650807 12.8437816,14.429437 C12.7176245,14.5632056 12.7237102,14.7738937 12.8573784,14.9001572 Z M11.1689314,15.5416529 C11.334812,15.6980157 11.5947822,15.6876822 11.7506012,15.5234332 C11.8255639,15.4443645 11.8659289,15.3386838 11.8627647,15.2297744 C11.8596005,15.1208651 11.813168,15.0177061 11.7337412,14.943123 C11.5676572,14.7874204 11.3069042,14.7954473 11.1507117,14.9610707 C10.9962634,15.1267433 11.004399,15.3859905 11.1689314,15.5416529 Z M9.35675377,15.6724538 C9.56886339,15.8723263 9.89736138,15.8625366 10.0950584,15.6526025 C10.1904635,15.5520759 10.2419114,15.4176964 10.2380334,15.2791587 C10.2341554,15.140621 10.1752706,15.00933 10.0743913,14.9142979 C9.86396439,14.716434 9.53324188,14.725668 9.33418313,14.9349649 C9.23920467,15.0356692 9.18820477,15.1700298 9.19243933,15.3083928 C9.19667389,15.4467558 9.25579479,15.5777462 9.35675377,15.6724538 Z M7.64682388,15.2362694 C7.7599339,15.3432547 7.91098277,15.4008076 8.0666062,15.3962154 C8.22222963,15.3916232 8.36962207,15.3252639 8.4762269,15.2117952 C8.69842676,14.9754779 8.6869823,14.6037762 8.45066497,14.3815764 C8.21434764,14.1593765 7.84264601,14.170821 7.62044614,14.4071383 C7.51378678,14.5204838 7.45662214,14.6716178 7.46157108,14.8271778 C7.46652002,14.9827379 7.53317561,15.1299327 7.64682388,15.2362694 Z" id="Shape"></path>
            <path d="M17.4593414,7.64492033 C17.0438497,7.82351818 16.5622274,7.63169691 16.383293,7.21635012 C16.2971583,7.01689532 16.2939388,6.791362 16.3743451,6.58952983 C16.4547515,6.38769766 16.6121728,6.22616079 16.8118632,6.14057361 C17.2247912,5.97315703 17.6958014,6.16654003 17.8719561,6.57581666 C18.0481108,6.9850933 17.8647818,7.46010714 17.4593414,7.64492033 Z M11.7108987,2.43436584 C11.6878638,2.31671747 11.6188424,2.21312134 11.5191415,2.14655199 C11.4194407,2.07998263 11.2973008,2.05594217 11.1798088,2.07976206 C11.0620743,2.10266701 10.9583648,2.17164747 10.891727,2.27137439 C10.8250892,2.37110131 10.8010434,2.49331326 10.8249331,2.61085192 C10.8807393,2.84789753 11.114325,2.99810598 11.3531586,2.95052987 C11.5919921,2.90295376 11.7501878,2.67470167 11.7108987,2.43436584 Z M13.6500701,2.85613767 C13.6144522,2.7153905 13.5242232,2.59463529 13.3993433,2.52058516 C13.2744634,2.44653502 13.1252257,2.42529343 12.9846441,2.46155938 C12.843757,2.49699302 12.7228234,2.58716036 12.6486516,2.71207335 C12.5744797,2.83698633 12.5531972,2.98632536 12.589522,3.12698534 C12.6379043,3.31643402 12.783681,3.46568018 12.9719395,3.51850424 C13.160198,3.57132829 13.3623373,3.51970502 13.5022136,3.3830804 C13.6420898,3.24645578 13.6984524,3.04558634 13.6500701,2.85613767 Z M15.4380455,3.71898874 C15.3845416,3.54608712 15.2643271,3.40164313 15.1040149,3.31763358 C14.9437026,3.23362402 14.7565168,3.21697889 14.5838963,3.27138305 C14.4109529,3.32496455 14.266455,3.44519019 14.1823171,3.60550619 C14.0981793,3.76582219 14.0813243,3.95303805 14.1354748,4.12580412 C14.2551879,4.47569669 14.6317705,4.66661376 14.9847607,4.55636881 C15.3377509,4.44612385 15.5387423,4.07482041 15.4380455,3.71898874 Z M16.8640748,4.99001487 C16.795021,4.80279985 16.6543071,4.65075855 16.4729875,4.5674454 C16.2916678,4.48413225 16.0846482,4.47639613 15.8976163,4.54594434 C15.7101146,4.61465481 15.5577411,4.75527973 15.4742387,4.93667812 C15.3907362,5.11807651 15.3829952,5.32527958 15.45273,5.5124028 C15.5969834,5.90213491 16.0298642,6.10113469 16.4195963,5.95688124 C16.8093285,5.8126278 17.0083282,5.37974698 16.8640748,4.99001487 Z M7.82385383,2.94261313 C7.7893143,2.86242403 7.72427228,2.79928416 7.64309361,2.76713925 C7.56191495,2.73499433 7.47127901,2.73648925 7.39120459,2.77129382 C7.22464856,2.84315771 7.14788541,3.03643526 7.21974931,3.20299129 C7.29161321,3.36954732 7.48489075,3.44631047 7.65144678,3.37444657 C7.81814319,3.30265562 7.89591672,3.1090376 7.82385383,2.94261313 Z M16.0259698,13.7909327 C15.8287255,13.9376199 15.7847706,14.2149983 15.9270006,14.4154805 C16.0692306,14.6159627 16.3455542,14.6661228 16.5491736,14.5284215 C16.646996,14.4590349 16.7131856,14.3535728 16.733134,14.2353112 C16.7530823,14.1170496 16.7251495,13.9957109 16.6555003,13.8980752 C16.58625,13.8003569 16.4810049,13.7341643 16.3629343,13.7140693 C16.2448637,13.6939744 16.1236471,13.7216245 16.0259698,13.7909327 Z M16.9244444,12.0282473 C16.7550626,12.1308436 16.654299,12.3169221 16.6609485,12.5148413 C16.667598,12.7127605 16.7806236,12.8916564 16.9565096,12.9826527 C17.1323956,13.073649 17.343714,13.0625556 17.5091056,12.9536435 C17.7582394,12.7895863 17.8301549,12.4562619 17.6708262,12.2040779 C17.5114975,11.9518939 17.179589,11.8737038 16.9244444,12.0282473 Z M17.3494795,10.0447504 C17.0209908,10.2296894 16.9043033,10.6457004 17.0886934,10.9744976 C17.1773173,11.1321776 17.3250363,11.2481173 17.4992585,11.2967362 C17.6734807,11.3453552 17.8598881,11.3226579 18.0173529,11.233652 C18.175431,11.1455617 18.2918642,10.9980814 18.3408643,10.8238758 C18.3898644,10.6496703 18.3673871,10.4631175 18.2784109,10.3055364 C18.1899584,10.1476138 18.0423124,10.0313689 17.8680429,9.98244487 C17.6937735,9.93352087 17.5071998,9.95593773 17.3494795,10.0447504 Z M17.3236456,8.05581474 C16.9521288,8.2403829 16.8000776,8.69081941 16.9837264,9.06279159 C17.0719329,9.24206062 17.227976,9.37876192 17.4172917,9.44261579 C17.6066075,9.50646966 17.8135694,9.49220548 17.9923348,9.40298279 C18.1713573,9.31488869 18.3078806,9.15906869 18.3716794,8.97002016 C18.4354781,8.78097162 18.4212893,8.57429035 18.3322541,8.39573401 C18.1473442,8.02364227 17.6960576,7.87155053 17.3236456,8.05581474 Z M13.1850605,16.2054472 C13.0772691,16.251935 13.0024667,16.3523975 12.9888305,16.4689916 C12.9751944,16.5855856 13.0247963,16.7005977 13.1189516,16.7707039 C13.213107,16.8408101 13.3375113,16.8553597 13.4453027,16.8088719 C13.6119992,16.7370809 13.6897727,16.5437349 13.6179817,16.3764946 C13.5455988,16.2097841 13.3518435,16.1332312 13.1850605,16.2054472 Z M4.02545995,13.4385044 C4.44027684,13.2587403 4.6310011,12.7768786 4.45158275,12.361912 C4.36596592,12.1626793 4.2045984,12.0056973 4.00308274,11.9256013 C3.80156709,11.8455052 3.57646394,11.8488772 3.37743786,11.9349734 C3.17774731,12.020554 3.02033947,12.1821077 2.93997806,12.3839552 C2.85961665,12.5858026 2.86291317,12.8113374 2.94913958,13.0107499 C3.1285017,13.4258153 3.61011575,13.6172198 4.02545995,13.4385044 Z M4.81026556,5.78841725 C4.90797449,5.719304 4.974217,5.61419808 4.99441337,5.4962329 C5.01460974,5.37826773 4.9871047,5.25711164 4.91795199,5.15943064 C4.84915614,5.06123998 4.74398514,4.99460106 4.62581884,4.97432793 C4.50765254,4.9540548 4.38628385,4.98182758 4.28869344,5.05147228 C4.19041441,5.12046428 4.12375943,5.22584962 4.10353867,5.34421256 C4.08331791,5.4625755 4.1112062,5.58411232 4.18100701,5.68181857 C4.32554597,5.88468441 4.60697602,5.93235968 4.81026556,5.78841725 Z M3.91260676,7.55083068 C4.03553511,7.47310651 4.12252078,7.34969986 4.15440023,7.20779804 C4.18627969,7.06589622 4.16043732,6.91714179 4.08256639,6.79430635 C3.92074121,6.53906561 3.58264248,6.46333734 3.32740174,6.62516252 C3.072161,6.7869877 2.99643273,7.12508643 3.15825791,7.38032717 C3.31948278,7.63571749 3.65721571,7.71205438 3.91260676,7.55083068 Z M3.48621202,9.53459953 C3.7061271,9.41913728 3.84592167,9.19328611 3.85118066,8.94495868 C3.85643965,8.69663124 3.72633212,8.46506418 3.51150246,8.34039506 C3.2966728,8.21572594 3.03106489,8.21765294 2.81806671,8.34542596 C2.49106893,8.53058467 2.375455,8.94536533 2.55952573,9.27297678 C2.74359647,9.60058822 3.15799053,9.71758026 3.48621202,9.53459953 Z M3.51258976,11.524079 C3.88489131,11.3394928 4.03707543,10.8880539 3.85250903,10.5157425 C3.76436596,10.3363454 3.60825878,10.1995544 3.41884001,10.135734 C3.22942124,10.0719137 3.02236327,10.0863445 2.84362864,10.1758232 C2.66480391,10.2642054 2.52844543,10.4200465 2.46458651,10.609022 C2.40072758,10.7979975 2.41460618,11.0046069 2.5031655,11.183344 C2.68800219,11.5559704 3.13973491,11.7084545 3.51258976,11.524079 Z M9.12533673,17.1460718 C9.14877325,17.2637762 9.21800935,17.3673488 9.31781285,17.4340035 C9.41761636,17.5006582 9.53981128,17.5249344 9.65751434,17.5014914 C9.9023108,17.451661 10.0606533,17.2131742 10.0115743,16.968226 C9.96185872,16.7239796 9.72417986,16.5657701 9.47966858,16.6141661 C9.23513162,16.6634862 9.07663707,16.9014105 9.12533673,17.1460718 Z M7.18725303,16.7232122 C7.22275526,16.8639997 7.31289328,16.9848378 7.43772429,17.0589913 C7.5625553,17.1331448 7.71178872,17.1545008 7.85240705,17.1183344 C8.04175857,17.0699521 8.19091496,16.9242272 8.24369044,16.7360529 C8.29646592,16.5478785 8.24484264,16.3458428 8.1082666,16.2060507 C7.97169056,16.0662586 7.7709109,16.0099479 7.58155938,16.0583301 C7.44110067,16.0942081 7.32064794,16.184415 7.2467007,16.3091053 C7.17275346,16.4337957 7.15136941,16.582755 7.18725303,16.7232122 Z M5.3987338,15.8600892 C5.45186576,16.0331226 5.57193613,16.1777519 5.73224092,16.261811 C5.8925457,16.3458702 6.07979321,16.3623895 6.25233907,16.3076949 C6.42532222,16.2544057 6.56994132,16.1343848 6.65419972,15.9741867 C6.73845811,15.8139885 6.75540987,15.6268193 6.70130444,15.4540897 C6.58848713,15.0943809 6.20568628,14.8939762 5.84579562,15.006212 C5.67305703,15.0598326 5.52879182,15.1800512 5.4448976,15.3402871 C5.36100339,15.500523 5.34439111,15.6875765 5.3987338,15.8600892 Z M3.97216061,14.5882473 C4.04085789,14.7757421 4.18151329,14.9280853 4.36294042,15.0114989 C4.54436754,15.0949125 4.75157455,15.1025038 4.93861908,15.0325898 C5.31967942,14.882862 5.5109985,14.4558564 5.36909255,14.0718146 C5.2271866,13.6877728 4.80418153,13.487764 4.41731889,13.6217888 C4.02786111,13.7661194 3.82872156,14.1984603 3.97216061,14.5882473 Z M14.7356363,15.2514978 C14.5900442,15.3745004 14.5683962,15.5908707 14.6867333,15.7402795 C14.8050705,15.8896884 15.020648,15.9181677 15.1737242,15.8046144 C15.2771435,15.7278971 15.3305794,15.6009493 15.3131561,15.473366 C15.2957329,15.3457827 15.2102154,15.2378109 15.090013,15.1916323 C14.9698107,15.1454536 14.8339991,15.1683965 14.7356363,15.2514978 Z M11.4264542,16.678071 C11.2338279,16.70716 11.1008879,16.8863981 11.1289569,17.0791757 C11.1424653,17.171785 11.1922546,17.2552183 11.2673459,17.3110777 C11.3424372,17.366937 11.4366631,17.3906346 11.5292458,17.376945 C11.6220215,17.3636282 11.7056815,17.3139317 11.7617541,17.2388281 C11.8178266,17.1637246 11.8416999,17.0693911 11.8281028,16.976656 C11.8145293,16.8837548 11.7645579,16.8000689 11.6892098,16.7440552 C11.6138617,16.6880415 11.5193266,16.6643015 11.4264542,16.678071 Z M9.7086382,2.50044614 C9.69501041,2.40764617 9.64497997,2.32409647 9.5696083,2.26826938 C9.49423662,2.21244229 9.39973228,2.18893643 9.30698959,2.2029488 C9.1822935,2.22131074 9.07686554,2.30480246 9.03041941,2.42197341 C8.98397327,2.53914437 9.00356524,2.67219352 9.0818152,2.77100253 C9.16006516,2.86981153 9.28508509,2.91936896 9.40978118,2.90100701 C9.6028806,2.87285596 9.73664813,2.69356609 9.7086382,2.50044614 Z M6.15879329,3.83211387 C6.03742676,3.67943335 5.81548896,3.65354466 5.66223922,3.77419163 C5.55009365,3.8628975 5.50242757,4.0104248 5.54146847,4.14797904 C5.58050937,4.28553327 5.69856844,4.38602415 5.84059273,4.40259105 C5.98261701,4.41915796 6.12063587,4.34853817 6.19028876,4.22366289 C6.25994164,4.09878762 6.24751094,3.94425012 6.15879329,3.83211387 Z" id="Shape"></path>
            <path d="M19.7862928,10.837986 C19.2072386,10.8372355 18.7383467,10.3673697 18.7387975,9.78831528 C18.7383621,9.51015817 18.8487786,9.24329216 19.0456187,9.04675831 C19.2424588,8.85022446 19.5094963,8.74022354 19.7876524,8.74109199 C20.0658119,8.74058525 20.3327205,8.85087796 20.5293837,9.04759222 C20.726047,9.24430649 20.8362704,9.51124372 20.8356915,9.78940302 C20.8353912,10.3687136 20.3656034,10.8381362 19.7862928,10.837986 Z M15.6697344,1.79450181 C15.702018,1.6444859 15.6731618,1.48778942 15.5895565,1.35911482 C15.5059512,1.23044023 15.3744963,1.14040645 15.2243042,1.10895262 C15.0743224,1.0763103 14.9175155,1.10482614 14.7886283,1.18818171 C14.6597411,1.27153727 14.5694162,1.40284968 14.5376673,1.55302316 C14.4709848,1.86563486 14.6703498,2.17311356 14.9829615,2.23979605 C15.2955733,2.30647854 15.603052,2.10711351 15.6697344,1.79450181 Z M17.7358997,3.27383047 C17.7652475,3.09028195 17.7203533,2.9025993 17.6111241,2.75219872 C17.501895,2.60179815 17.3373091,2.5010422 17.153686,2.47216486 C16.7758579,2.42100658 16.4263337,2.68095398 16.3666147,3.05752382 C16.3068957,3.43409366 16.5588445,3.7894268 16.9339622,3.8576758 C17.3164971,3.9173268 17.675172,3.65619589 17.7358997,3.27383047 Z M20.4329552,7.41404716 C20.4466511,7.15881912 20.358197,6.90863555 20.1871226,6.7187343 C20.0160482,6.52883304 19.7764238,6.41483278 19.5211557,6.40190355 C19.2658437,6.38783344 19.0154464,6.47606167 18.8253485,6.64707324 C18.6352506,6.81808482 18.5211183,7.05778646 18.5081963,7.31315912 C18.4869732,7.658873 18.6529,7.98938662 18.9428206,8.17889792 C19.2327413,8.36840923 19.6020598,8.38776741 19.9102041,8.22960424 C20.2183485,8.07144106 20.4179194,7.76008536 20.4329552,7.41404716 Z M10.8398895,0.420412152 C10.8398895,0.18681963 10.6508944,0 10.4181177,0 C10.1916641,0.00814365425 10.0122902,0.194084061 10.0122902,0.420684088 C10.0122902,0.647284114 10.1916641,0.833224521 10.4181177,0.841368175 C10.6508944,0.841368175 10.8398895,0.653460803 10.8398895,0.420412152 Z M14.9836414,17.339146 C14.6707293,17.4056783 14.470999,17.7132787 14.5375313,18.0261908 C14.6040636,18.3391029 14.9116641,18.5388331 15.2245762,18.4723008 C15.5374882,18.4057685 15.7372185,18.0981681 15.6706862,17.785256 C15.6041539,17.4723439 15.2965535,17.2726137 14.9836414,17.339146 Z M16.9339622,15.722218 C16.684588,15.759021 16.474171,15.9268731 16.3828682,16.1618322 C16.2915654,16.3967912 16.3334351,16.6626795 16.4925273,16.8582086 C16.6516195,17.0537377 16.9034381,17.1488011 17.1520544,17.107185 C17.5313134,17.0437006 17.7886475,16.6865591 17.7288314,16.3067042 C17.6690153,15.9268494 17.3143774,15.6660757 16.9339622,15.722218 Z M18.4402124,13.6049288 C17.9603689,13.6553913 17.6122867,14.0852892 17.6627491,14.5651328 C17.7132115,15.0449764 18.1431095,15.3930586 18.622953,15.3425961 C18.8535975,15.3188217 19.0652795,15.2041775 19.2112179,15.0239997 C19.3571564,14.8438219 19.4253357,14.612945 19.4006883,14.3823922 C19.3500321,13.902538 18.9200928,13.5545208 18.4402124,13.6049288 Z M19.4186361,11.2524156 C18.8879294,11.2813827 18.4807266,11.7343167 18.5081963,12.265103 C18.5210468,12.5205017 18.635158,12.7602468 18.8252725,12.9312733 C19.0153871,13.1022999 19.2658254,13.1905025 19.5211557,13.1763586 C19.7763755,13.1633596 20.0159306,13.0493291 20.1869469,12.8594356 C20.3579632,12.6695422 20.4463804,12.4193982 20.4326832,12.164215 C20.403861,11.632688 19.9502269,11.2247944 19.4186361,11.2524156 Z M10.4181177,18.7377098 C10.1898713,18.7435124 10.00786,18.9302098 10.00786,19.1585298 C10.00786,19.3868499 10.1898713,19.5735473 10.4181177,19.5793499 C10.6505302,19.5793499 10.8389378,19.3909423 10.8389378,19.1585298 C10.8389378,18.9261174 10.6505302,18.7377098 10.4181177,18.7377098 Z M1.04939877,10.837986 C1.62817813,10.8367859 2.0966514,10.3670958 2.09635012,9.78831528 C2.09678389,9.51048878 1.98662841,9.24391258 1.79020068,9.04743383 C1.59377295,8.85095508 1.32722537,8.74073037 1.04939877,8.74109199 C0.77111175,8.74073092 0.504106933,8.85106427 0.307251627,9.04776654 C0.11039632,9.24446881 -0.00014464901,9.51138774 2.64697796e-23,9.78967495 C0.0011985412,10.3685685 0.47050426,10.8373878 1.04939877,10.837986 Z M5.85259401,2.23938815 C6.16535529,2.17293004 6.36502423,1.86551292 6.29856809,1.55275122 C6.26680615,1.40260937 6.17654523,1.27130394 6.04774336,1.18786849 C5.91894148,1.10443305 5.76220948,1.07574108 5.6122031,1.10813682 C5.41012451,1.15107851 5.24630532,1.29856592 5.18245463,1.49504196 C5.11860393,1.69151801 5.16442218,1.90713329 5.30265008,2.06066763 C5.44087798,2.21420197 5.65051542,2.28232985 5.85259401,2.23938815 Z M3.90281708,3.85713193 C4.2855658,3.79628733 4.54671146,3.43693824 4.48639048,3.05410665 C4.45732332,2.87030766 4.35632045,2.70562674 4.20566735,2.59639941 C4.05501424,2.48717208 3.86709237,2.44237523 3.6833652,2.47189293 C3.49979191,2.50083463 3.33527375,2.60161767 3.226101,2.75201078 C3.11692825,2.90240389 3.07207076,3.0900505 3.10142341,3.27355853 C3.16160029,3.65598983 3.52037654,3.91725003 3.90281708,3.85713193 Z M2.39547907,5.9738772 C2.86615435,5.91292805 3.20224223,5.48759529 3.1527005,5.01558296 C3.10315877,4.54357064 2.68608335,4.19728881 2.21301041,4.23539409 C1.98225789,4.25922867 1.77051036,4.37401739 1.6246061,4.55436915 C1.47870183,4.73472091 1.41066565,4.96577186 1.43554706,5.19641385 C1.45960008,5.42686794 1.57429047,5.6383038 1.75434826,5.7841353 C1.93440604,5.92996681 2.1650562,5.99822745 2.39547907,5.9738772 Z M1.41705545,8.32611855 C1.94852675,8.29787585 2.35662109,7.8443836 2.3288549,7.31288719 C2.3158673,7.05726918 2.20153379,6.81736933 2.0111625,6.64629036 C1.8207912,6.47521138 1.57008398,6.3870639 1.3145358,6.40135968 C1.05934402,6.4145708 0.819875652,6.52870224 0.648896111,6.71860583 C0.47791657,6.90850942 0.389456765,7.1586013 0.403008286,7.41377523 C0.431249477,7.94565856 0.885155229,8.35403984 1.41705545,8.32611855 Z M5.16677289,17.7845762 C5.12378261,17.9868005 5.19194334,18.1965985 5.3455796,18.3349413 C5.49921586,18.4732842 5.71498664,18.5191543 5.91161318,18.4552728 C6.10823971,18.3913913 6.25584976,18.2274633 6.29884003,18.025239 C6.36496682,17.7125996 6.16540567,17.4054702 5.85286594,17.338874 C5.54046492,17.2732207 5.23376576,17.4724597 5.16677289,17.7845762 Z M3.10169535,16.3047036 C3.07203808,16.4882852 3.11676937,16.6761165 3.22598889,16.8266251 C3.33520842,16.9771337 3.49990883,17.0779071 3.68363714,17.1066412 C3.96357757,17.1512045 4.24279454,17.0227312 4.39106854,16.7811378 C4.53934255,16.5395445 4.52746769,16.2324183 4.3609821,16.0029949 C4.19449651,15.7735715 3.90619325,15.6670411 3.63052944,15.7330865 C3.35486564,15.799132 3.14613946,16.0247442 3.10169535,16.3047036 Z M1.43554706,14.3829361 C1.41074725,14.6134031 1.47880581,14.8442524 1.62466414,15.0244063 C1.77052247,15.2045602 1.98215587,15.3191667 2.21273847,15.3428681 C2.44323563,15.3675238 2.67406793,15.2994257 2.85427357,15.1536081 C3.03447921,15.0077905 3.14923807,14.7962455 3.17321436,14.5656767 C3.19741555,14.3351386 3.12904242,14.1044292 2.98313695,13.924304 C2.83723147,13.7441788 2.62574606,13.6293935 2.39520714,13.6052008 C2.16475677,13.5807818 1.93406052,13.6490596 1.75402104,13.7949686 C1.57398155,13.9408776 1.45939586,14.152426 1.43554706,14.3829361 Z M0.403008286,12.1639431 C0.38931109,12.4191263 0.477728281,12.6692703 0.648744616,12.8591637 C0.819760951,13.0490571 1.05931603,13.1630876 1.3145358,13.1760867 C1.57009401,13.1906055 1.82088477,13.1025718 2.01129823,12.931506 C2.20171168,12.7604401 2.31601216,12.520479 2.3288549,12.2648311 C2.3561575,11.7335961 1.94823335,11.2805363 1.41705545,11.2521436 C0.885626574,11.2249795 0.43226792,11.6326254 0.403008286,12.1639431 Z M12.7257616,18.4026854 C12.4846564,18.4675823 12.3415099,18.7153217 12.4056936,18.9566178 C12.4706869,19.197579 12.7185964,19.3403369 12.9596261,19.275598 C13.0756968,19.2449828 13.1747934,19.1693976 13.2350084,19.0655523 C13.2952234,18.9617069 13.3115971,18.8381546 13.2805099,18.7222095 C13.2155115,18.4808189 12.9671782,18.3377838 12.7257616,18.4026854 Z M8.10992989,18.4026854 C7.87120846,18.3442886 7.62957617,18.487349 7.5659768,18.7247374 C7.50237744,18.9621257 7.64012356,19.2068265 7.87606543,19.275598 C8.03334386,19.3214411 8.20311602,19.2785855 8.31979347,19.1635879 C8.43647092,19.0485902 8.48178378,18.8794574 8.43822623,18.7215307 C8.39466868,18.5636041 8.26906116,18.4416125 8.10992989,18.4026854 Z M13.2807818,0.856868494 C13.3117083,0.7408918 13.2952308,0.617376397 13.2349832,0.513562772 C13.1747356,0.409749146 13.0756669,0.334165007 12.9596261,0.303479924 C12.7231668,0.250943268 12.4873008,0.39404795 12.4246842,0.628039977 C12.3620677,0.862032003 12.4949383,1.10381108 12.7260336,1.17639261 C12.8419736,1.20771107 12.9656096,1.19162637 13.0696771,1.13168555 C13.1737446,1.07174473 13.2496958,0.972871082 13.2807818,0.856868494 Z M8.43081368,0.62218823 C8.39967988,0.506255748 8.32367861,0.407484771 8.21959295,0.347686537 C8.11550729,0.287888304 7.99189949,0.271981916 7.87606543,0.303479924 C7.76028712,0.334217431 7.66148668,0.409738898 7.60144591,0.513394667 C7.54140514,0.617050437 7.52505406,0.74032923 7.55599745,0.856052687 C7.59777331,1.01232356 7.71974532,1.13443664 7.87596779,1.17639311 C8.03219026,1.21834959 8.19892929,1.17377528 8.3133759,1.05946088 C8.42782252,0.945146493 8.47258954,0.778459099 8.43081368,0.62218823 Z" id="Shape"></path>
        </g>
    </g>
</svg>
