<?xml version="1.0" encoding="UTF-8"?>
<svg id="target" viewBox="0 0 120 120" version="1.1" xmlns="http://www.w3.org/2000/svg" xmlns:xlink="http://www.w3.org/1999/xlink">
    <!-- Generator: Sketch 51 (57462) - http://www.bohemiancoding.com/sketch -->
    <title>logo / tripadvisor</title>
    <desc>Created with Sketch.</desc>
    <defs></defs>
    <g id="logo-/-tripadvisor" stroke="none" stroke-width="1" fill="none" fill-rule="evenodd">
        <path d="M83.9601576,68.2835354 L84,68.2887421 L84,69.3588265 L83.9452167,69.3463758 C83.8487801,69.3253227 83.7319695,69.314683 83.6002181,69.314683 C83.2420895,69.314683 82.9299155,69.4577533 82.6727512,69.737329 C82.4135494,70.0203004 82.2827035,70.428911 82.2827035,70.9541058 L82.2827035,73.8349805 L81.1614578,73.8349805 L81.1614578,70.1334889 C81.1614578,69.4437179 81.1462905,68.8707576 81.1170879,68.4302278 L81.1145977,68.3824622 L82.1138262,68.3824622 L82.1704204,69.3022323 C82.3073786,69.0052255 82.4975353,68.7645867 82.7363631,68.5859752 C83.0236357,68.3702378 83.3403372,68.2604449 83.6771863,68.2604449 C83.7496269,68.2604449 83.8424416,68.267689 83.9601576,68.2835354 Z M53.2279296,45.8691258 C55.5163756,44.8726138 58.358087,44.3349683 61.2160977,44.3349683 C64.0779567,44.3349683 66.6715589,44.8741985 68.9627214,45.8747852 C64.6615568,46.0065366 61.2151922,49.5319069 61.2142867,53.8643115 C61.2133811,49.4526749 57.6391134,45.8752379 53.2279296,45.8691258 Z M52.9871776,52.5419298 C53.7079622,52.5419298 54.2920151,53.1259826 54.2920151,53.8467672 C54.2920151,54.568231 53.7079622,55.1518311 52.9871776,55.1518311 C52.266393,55.1518311 51.6823401,54.568231 51.6823401,53.8467672 C51.6823401,53.1259826 52.266393,52.5419298 52.9871776,52.5419298 Z M69.0740989,52.5237969 C69.7948835,52.5237969 70.3784836,53.1073971 70.3784836,53.8290872 C70.3784836,54.5505509 69.7948835,55.1341511 69.0740989,55.1341511 C68.3533143,55.1341511 67.7688086,54.5505509 67.7688086,53.8290872 C67.7688086,53.1073971 68.3533143,52.5237969 69.0740989,52.5237969 Z M69.2730617,56.5190128 C67.7875753,56.5190128 66.5830229,55.3146868 66.5830229,53.828974 C66.5830229,52.3425821 67.7875753,51.1380297 69.2730617,51.1380297 C70.7585481,51.1380297 71.9631005,52.3425821 71.9631005,53.828974 C71.9631005,55.3146868 70.7585481,56.5190128 69.2730617,56.5190128 M69.2730617,49.9466071 C67.1285916,49.9466071 65.3911475,51.6842775 65.3911475,53.828974 C65.3911475,55.9725386 67.1285916,57.7111145 69.2730617,57.7111145 C71.4166263,57.7111145 73.1549759,55.9725386 73.1549759,53.828974 C73.1549759,51.6842775 71.4166263,49.9466071 69.2730617,49.9466071 M69.2757782,60.3056223 C65.7191679,60.3056223 62.8362558,57.4227101 62.8362558,53.8660998 C62.8362558,50.3108478 65.7191679,47.4277093 69.2757782,47.4277093 C72.831483,47.4277093 75.7141688,50.3108478 75.7141688,53.8660998 C75.7141688,57.4227101 72.831483,60.3056223 69.2757782,60.3056223 Z M53.2790682,60.3056223 C49.7229107,60.3056223 46.8399986,57.4227101 46.8399986,53.8660998 C46.8399986,50.3108478 49.7229107,47.4277093 53.2790682,47.4277093 C56.8352258,47.4277093 59.7183643,50.3108478 59.7183643,53.8660998 C59.7183643,57.4227101 56.8352258,60.3056223 53.2790682,60.3056223 M77.3429518,45.9804806 L71.9975099,45.9804806 C69.2712507,44.1461472 65.5484796,43 61.2792342,43 C57.0079515,43 53.0296007,44.1452416 50.3033415,45.9804806 L45.2112155,45.9804806 C46.0415666,46.9518647 46.6561804,48.2664364 46.8092113,49.1692282 C45.8491461,50.4881011 45.2807132,52.1103192 45.2807132,53.8660998 C45.2807132,58.2840749 48.8615459,61.8653603 53.2790682,61.8653603 C55.7855153,61.8653603 58.0218944,60.7106109 59.4883652,58.9066119 C60.0866798,59.6052116 61.0766268,61.0112396 61.2774232,61.4196239 C61.2774232,61.4196239 62.4260605,59.7041384 63.0714616,58.9136296 C64.5377059,60.7140065 66.7722741,61.8653603 69.2757782,61.8653603 C73.6926214,61.8653603 77.2741332,58.2840749 77.2741332,53.8660998 C77.2741332,52.1112247 76.7045685,50.4903648 75.7451824,49.1719447 C75.8973078,48.2691529 76.5119216,46.9532229 77.3429518,45.9804806 M53.1862536,56.5366703 C51.7005409,56.5366703 50.4962148,55.3323442 50.4962148,53.8466314 C50.4962148,52.3606923 51.7005409,51.1563662 53.1862536,51.1563662 C54.6721928,51.1563662 55.8765188,52.3606923 55.8765188,53.8466314 C55.8765188,55.3323442 54.6721928,56.5366703 53.1862536,56.5366703 M53.1862536,49.9642645 C55.3304973,49.9642645 57.0686206,51.7028405 57.0686206,53.8466314 C57.0686206,55.992007 55.3304973,57.728772 53.1862536,57.728772 C51.0422363,57.728772 49.3041131,55.992007 49.3041131,53.8466314 C49.3041131,51.7028405 51.0422363,49.9642645 53.1862536,49.9642645 Z M39.3700756,69.2597866 L37.9411835,69.2597866 L37.9411835,72.0064197 C37.9411835,72.3672647 37.9984569,72.6307677 38.1120982,72.7862887 C38.2241548,72.9384141 38.4000498,73.0126658 38.6488382,73.0126658 C38.8833649,73.0126658 39.0764645,72.9913864 39.2233832,72.9490538 L39.2781665,72.9332074 L39.3277431,73.7979679 L39.2962767,73.8104186 C39.0375277,73.9075344 38.7228635,73.957111 38.3611129,73.957111 C37.3530558,73.957111 36.8423491,73.3221233 36.8423491,72.0718427 L36.8423491,69.2597866 L36,69.2597866 L36,68.3825754 L36.8423491,68.3825754 L36.8423491,67.3973823 L37.9411835,67.0702674 L37.9411835,68.3825754 L39.3700756,68.3825754 L39.3700756,69.2597866 Z M43.1658759,68.2835354 L43.2052655,68.2887421 L43.2052655,69.3588265 L43.1504823,69.3463758 C43.0540456,69.3253227 42.9376878,69.314683 42.8054836,69.314683 C42.4473551,69.314683 42.1351811,69.4577533 41.8780167,69.737329 C41.6192677,70.0203004 41.487969,70.428911 41.487969,70.9541058 L41.487969,73.8349805 L40.3671761,73.8349805 L40.3671761,70.1334889 C40.3671761,69.4437179 40.3524616,68.8707576 40.3228062,68.4302278 L40.3198633,68.3824622 L41.3190917,68.3824622 L41.3761387,69.3022323 C41.5130969,69.0052255 41.7028009,68.7645867 41.9420814,68.5859752 C42.2289012,68.3702378 42.5456027,68.2604449 42.8829046,68.2604449 C42.9553452,68.2604449 43.0479335,68.267689 43.1658759,68.2835354 Z M44.1792982,73.8349805 L44.1792982,68.3824622 L45.3000911,68.3824622 L45.3000911,73.8349805 L44.1792982,73.8349805 Z M44.7341484,67.4983012 C44.530409,67.4983012 44.361079,67.4292562 44.2309122,67.2965993 C44.1009717,67.1623576 44.035096,66.9959705 44.035096,66.7997016 C44.035096,66.6068283 44.1018772,66.4424785 44.2340814,66.3098216 C44.3658329,66.1789756 44.5378795,66.1117416 44.7452409,66.1117416 C44.9451319,66.1117416 45.1135564,66.1789756 45.2453079,66.3098216 C45.3770593,66.4424785 45.4442933,66.6068283 45.4442933,66.7997016 C45.4442933,66.9959705 45.3784176,67.1623576 45.2482508,67.2965993 C45.1183103,67.4292562 44.9455846,67.4983012 44.7341484,67.4983012 Z M48.0038031,69.4578665 C48.242631,69.2862727 48.5079449,69.1979856 48.7929536,69.1979856 C49.2436704,69.1979856 49.5950076,69.3677684 49.8668865,69.7177474 C50.1398973,70.0697638 50.2782137,70.5225179 50.2782137,71.0637855 C50.2782137,71.6686651 50.1380862,72.154923 49.8621326,72.5069394 C49.5861789,72.8587294 49.2228437,73.0303232 48.7506211,73.0303232 C48.3694021,73.0303232 48.039118,72.8888375 47.7685973,72.6112992 C47.497624,72.3335346 47.3599867,71.9851402 47.3599867,71.574945 L47.3599867,70.7099581 C47.3599867,70.5562481 47.408205,70.3509241 47.5028307,70.0962499 C47.5956453,69.8470087 47.7640698,69.632856 48.0038031,69.4578665 M50.7588122,69.0209587 C50.3214517,68.499386 49.7666015,68.234072 49.1087497,68.234072 C48.3119023,68.234072 47.6889126,68.5471515 47.2542686,69.1642554 L47.2087668,68.3560893 L46.1896172,68.3560893 L46.1945975,68.432152 C46.2224419,68.8830951 46.2364773,69.4737129 46.2364773,70.18997 L46.2364773,76.0563056 L47.3599867,76.0563056 L47.3599867,73.265529 C47.5157342,73.469042 47.7142668,73.6333918 47.9519628,73.755409 C48.2505542,73.9075344 48.5831021,73.9835971 48.9403251,73.9835971 C49.6427732,73.9835971 50.2374658,73.7112655 50.7074246,73.1754309 C51.175346,72.6414074 51.4123628,71.9160952 51.4123628,71.0194156 C51.4123628,70.2130604 51.1925507,69.5391359 50.7588122,69.0209587 M54.8547885,72.7509513 C54.5992088,72.984346 54.2773006,73.1029676 53.8997036,73.1029676 C53.635748,73.1029676 53.4218216,73.0250939 53.2631313,72.8729685 C53.1051201,72.7226541 53.025209,72.5087278 53.025209,72.2379808 C53.025209,71.8913975 53.1829938,71.6242725 53.5080713,71.4246079 C53.829074,71.226528 54.4113158,71.1237528 55.2389504,71.1203571 L55.2389504,71.9622535 C55.2389504,72.2540536 55.1099155,72.5193675 54.8547885,72.7509513 Z M56.4256191,73.7820989 C56.3674402,73.4620017 56.3377848,73.0321116 56.3377848,72.5051057 L56.3377848,70.5437747 C56.3377848,69.8116712 56.1537402,69.2421065 55.7913105,68.8511533 C55.4272962,68.4586154 54.8839912,68.2605355 54.1765628,68.2605355 C53.4548727,68.2605355 52.8244125,68.4266963 52.302387,68.7558485 L52.2718261,68.773506 L52.5348762,69.5375286 L52.5830945,69.5074205 C53.0021185,69.2402955 53.4858863,69.1042429 54.0212681,69.1042429 C54.4169753,69.1042429 54.7180568,69.2067917 54.9165895,69.4100783 C55.1160277,69.6117803 55.2169919,69.8999583 55.2169919,70.26601 L55.2169919,70.3210197 C54.1500767,70.3262264 53.3240267,70.5012158 52.7626116,70.8425925 C52.1860291,71.1927978 51.8933236,71.7075793 51.8933236,72.3724488 C51.8933236,72.8075455 52.0524667,73.184237 52.3664517,73.4918834 C52.6804367,73.8015673 53.1030827,73.9570883 53.6226181,73.9570883 C54.3246134,73.9570883 54.8853494,73.7060362 55.2907908,73.2107231 L55.4012628,73.8350711 L56.4353533,73.8350711 L56.4256191,73.7820989 Z M60.9298439,70.6321976 L60.9298439,71.4847337 C60.9298439,71.9463166 60.7897164,72.319386 60.5124045,72.5953397 C60.2348662,72.8694823 59.914769,73.009157 59.5604889,73.009157 C59.0896246,73.009157 58.733307,72.8375631 58.4716151,72.4839621 C58.2087914,72.1283237 58.0754553,71.6739849 58.0754553,71.1309063 C58.0754553,70.5525129 58.2164882,70.0768946 58.4944792,69.7178606 C58.7717912,69.3606376 59.1276559,69.1872327 59.5817683,69.1872327 C59.9496311,69.1872327 60.2692755,69.3198897 60.5327785,69.5833926 C60.7962814,69.8468955 60.9298439,70.2007229 60.9298439,70.6321976 Z M62.1015716,73.861693 L61.0828748,73.861693 L61.021753,73.078202 C60.8583087,73.3310652 60.6455142,73.5379738 60.3869916,73.6919102 C60.0614614,73.8863681 59.6879392,73.9837103 59.2761593,73.9837103 C58.6117426,73.9837103 58.0491955,73.7165853 57.6057228,73.1913905 C57.1645139,72.6695913 56.9413061,71.9974778 56.9413061,71.1981403 C56.9413061,70.3315688 57.1760591,69.6135008 57.6399058,69.0652155 C58.1062425,68.5135345 58.6925592,68.2339588 59.3814246,68.2339588 C59.7492874,68.2339588 60.0840991,68.3100215 60.3758991,68.4639579 C60.5959377,68.5789575 60.7817932,68.7256498 60.9298439,68.9024503 L60.9298439,65.8287023 L62.0538061,65.8287023 L62.0538061,72.3829979 C62.0538061,72.9756531 62.0678414,73.4460647 62.0952331,73.7838193 L62.1015716,73.861693 Z M66.7024594,68.3825754 L67.8988623,68.3825754 L65.2088234,73.8350937 L62.4694344,68.3825754 L63.6862112,68.3825754 C63.6862112,68.3825754 65.077072,71.173352 65.2036168,71.5606832 C65.303449,71.238775 66.7024594,68.3825754 66.7024594,68.3825754 Z M68.4419409,73.8349805 L68.4419409,68.3824622 L69.5631866,68.3824622 L69.5631866,73.8349805 L68.4419409,73.8349805 Z M68.9971759,67.4983012 C68.7929838,67.4983012 68.6241065,67.4292562 68.4939397,67.2965993 C68.3639993,67.1623576 68.2985763,66.9959705 68.2985763,66.7997016 C68.2985763,66.6068283 68.3649048,66.4424785 68.4966562,66.3098216 C68.6284077,66.1789756 68.800907,66.1117416 69.0078157,66.1117416 C69.2077066,66.1117416 69.3765839,66.1789756 69.5083354,66.3098216 C69.6400869,66.4424785 69.7073208,66.6068283 69.7073208,66.7997016 C69.7073208,66.9959705 69.6409924,67.1623576 69.511731,67.2965993 C69.3817906,67.4292562 69.2086121,67.4983012 68.9971759,67.4983012 Z M73.9845347,71.3025001 C74.2161184,71.5641921 74.3338345,71.8931179 74.3338345,72.2840712 C74.3338345,72.7827799 74.1409612,73.1913905 73.7599686,73.499037 C73.3823716,73.8032877 72.863289,73.9572242 72.2167561,73.9572242 C71.6243272,73.9572242 71.0875872,73.8279629 70.6217031,73.5750997 L70.5888785,73.5574422 L70.8612101,72.6802311 L70.9107867,72.7103392 C71.3379602,72.9702201 71.7843758,73.1028771 72.238941,73.1028771 C72.5590382,73.1028771 72.8094112,73.0338321 72.9807787,72.9014015 C73.1523725,72.7687445 73.2345474,72.5953397 73.2345474,72.3725846 C73.2345474,72.1566209 73.1666343,71.9886491 73.0251486,71.8525965 C72.8809464,71.7163174 72.6226502,71.5854715 72.2575039,71.4616432 C71.259181,71.1202666 70.7534546,70.5950718 70.7534546,69.9019052 C70.7534546,69.4385113 70.9345563,69.045747 71.2917793,68.7310829 C71.6483232,68.4198144 72.126658,68.2604449 72.7156911,68.2604449 C73.2603544,68.2604449 73.7298605,68.3736335 74.1117586,68.5984259 L74.1436778,68.6178944 L73.8588954,69.44734 L73.8120353,69.4190428 C73.4468891,69.2103232 73.0674811,69.1041523 72.681961,69.1041523 C72.4211746,69.1041523 72.2133604,69.1695753 72.063046,69.2952146 C71.9136371,69.4224385 71.8409701,69.5815816 71.8409701,69.7796615 C71.8409701,69.9566884 71.9029974,70.1015697 72.0293158,70.223587 C72.1585771,70.3474152 72.4361154,70.4855053 72.8526493,70.6340086 C73.3744484,70.8214489 73.7554411,71.0460149 73.9845347,71.3025001 Z M77.5207937,73.1028997 C77.0884135,73.1028997 76.7232672,72.9154595 76.4357683,72.5457857 C76.1448738,72.1743009 75.9979551,71.6932496 75.9979551,71.1202892 C75.9979551,70.5455178 76.1394407,70.0608445 76.4181109,69.6807574 C76.6931591,69.3058769 77.0750572,69.1148147 77.5527128,69.1148147 C78.0222189,69.1148147 78.3989104,69.3074616 78.6703365,69.6859641 C78.9462902,70.0698996 79.0859648,70.5418958 79.0859648,71.0867854 C79.0859648,71.6792142 78.9338394,72.1690942 78.6350217,72.5421637 C78.3386941,72.9136485 77.9638136,73.1028997 77.5207937,73.1028997 M79.475107,69.0421476 C78.9949612,68.5239705 78.3617845,68.2604676 77.5941399,68.2604676 C76.824005,68.2604676 76.176793,68.5257815 75.6699347,69.0475807 C75.1642083,69.5693799 74.907723,70.2768082 74.907723,71.1540194 C74.907723,71.978032 75.1562851,72.6571632 75.6461651,73.1753404 C76.1369506,73.6935175 76.7674108,73.9570204 77.5207937,73.9570204 C78.003656,73.9570204 78.4591267,73.8368142 78.8745286,73.6016084 C79.2910624,73.3664026 79.6193092,73.025026 79.8499875,72.5865336 C80.0808921,72.1496258 80.1974763,71.6350707 80.1974763,71.0530552 C80.1974763,70.2360604 79.9543473,69.5605512 79.475107,69.0421476" id="Fill-37" fill="currentcolor"></path>
    </g>
</svg>
