<?xml version="1.0" encoding="UTF-8"?>
<svg id="target" viewBox="0 0 120 120" version="1.1" xmlns="http://www.w3.org/2000/svg" xmlns:xlink="http://www.w3.org/1999/xlink">
    <!-- Generator: Sketch 51 (57462) - http://www.bohemiancoding.com/sketch -->
    <title>logo / mastercard</title>
    <desc>Created with Sketch.</desc>
    <defs></defs>
    <g id="logo-/-mastercard" stroke="none" stroke-width="1" fill="none" fill-rule="evenodd">
        <g id="mastercard" transform="translate(41.000000, 45.000000)" fill="currentcolor">
            <path d="M7.11666667,29.2741667 L7.11666667,27.2741667 C7.1402467,26.9338984 7.01627062,26.5999364 6.77636704,26.3574807 C6.53646346,26.1150249 6.20383207,25.9875219 5.86333333,26.0075 C5.41461138,25.9780826 4.98544317,26.1952213 4.74333333,26.5741667 C4.52259864,26.2065198 4.11842611,25.9890852 3.69,26.0075 C3.31697246,25.9886423 2.96185385,26.1687382 2.75666667,26.4808333 L2.75666667,26.0875 L2.06333333,26.0875 L2.06333333,29.2741667 L2.76333333,29.2741667 L2.76333333,27.5208333 C2.73318612,27.3001967 2.80309255,27.0776191 2.95397575,26.9138399 C3.10485894,26.7500607 3.32096974,26.6621752 3.54333333,26.6741667 C4.00333333,26.6741667 4.23666667,26.9741667 4.23666667,27.5141667 L4.23666667,29.2875 L4.93666667,29.2875 L4.93666667,27.5208333 C4.90775652,27.3004476 4.97809041,27.0785911 5.12869386,26.9151156 C5.27929731,26.7516401 5.49465436,26.6633876 5.71666667,26.6741667 C6.19,26.6741667 6.41666667,26.9741667 6.41666667,27.5141667 L6.41666667,29.2875 L7.11666667,29.2741667 Z M17.4733333,26.0875 L16.3333333,26.0875 L16.3333333,25.1208333 L15.6333333,25.1208333 L15.6333333,26.0875 L15,26.0875 L15,26.7208333 L15.6466667,26.7208333 L15.6466667,28.1875 C15.6466667,28.9275 15.9333333,29.3675 16.7533333,29.3675 C17.0596862,29.3685291 17.3601026,29.283026 17.62,29.1208333 L17.42,28.5275 C17.2340677,28.6384032 17.0230436,28.7003342 16.8066667,28.7075 C16.4733333,28.7075 16.3466667,28.4941667 16.3466667,28.1741667 L16.3466667,26.7208333 L17.48,26.7208333 L17.4733333,26.0875 Z M23.3866667,26.0075 C23.0423058,25.9973725 22.7199943,26.1764344 22.5466667,26.4741667 L22.5466667,26.0875 L21.86,26.0875 L21.86,29.2741667 L22.5533333,29.2741667 L22.5533333,27.4875 C22.5533333,26.9608333 22.78,26.6675 23.22,26.6675 C23.3682947,26.6654715 23.5155383,26.692655 23.6533333,26.7475 L23.8666667,26.0808333 C23.708324,26.024188 23.5415017,25.9948814 23.3733333,25.9941667 L23.3866667,26.0075 Z M14.4466667,26.3408333 C14.0542083,26.1074923 13.6029833,25.9917936 13.1466667,26.0075 C12.34,26.0075 11.8133333,26.3941667 11.8133333,27.0275 C11.8133333,27.5475 12.2,27.8675 12.9133333,27.9675 L13.2466667,28.0141667 C13.6266667,28.0675 13.8066667,28.1675 13.8066667,28.3475 C13.8066667,28.5941667 13.5533333,28.7341667 13.08,28.7341667 C12.6992675,28.7451874 12.3259011,28.6277766 12.02,28.4008333 L11.6866667,28.9408333 C12.0905379,29.2228302 12.5742739,29.3677173 13.0666667,29.3541667 C13.9866667,29.3541667 14.52,28.9208333 14.52,28.3141667 C14.52,27.7075 14.1,27.4608333 13.4066667,27.3608333 L13.0733333,27.3141667 C12.7733333,27.2741667 12.5333333,27.2141667 12.5333333,27.0008333 C12.5333333,26.7875 12.76,26.6275 13.14,26.6275 C13.4912252,26.63158 13.835532,26.7256905 14.14,26.9008333 L14.4466667,26.3408333 Z M33.0166667,26.0075 C32.6723058,25.9973725 32.3499943,26.1764344 32.1766667,26.4741667 L32.1766667,26.0875 L31.49,26.0875 L31.49,29.2741667 L32.1833333,29.2741667 L32.1833333,27.4875 C32.1833333,26.9608333 32.41,26.6675 32.85,26.6675 C32.9982947,26.6654715 33.1455383,26.692655 33.2833333,26.7475 L33.4966667,26.0808333 C33.338324,26.024188 33.1715017,25.9948814 33.0033333,25.9941667 L33.0166667,26.0075 Z M24.0833333,27.6741667 C24.0666593,28.1269783 24.2415683,28.5658542 24.5651279,28.8830695 C24.8886876,29.2002849 25.3309406,29.3664698 25.7833333,29.3408333 C26.1996262,29.3620133 26.6087447,29.2264333 26.93,28.9608333 L26.5966667,28.4008333 C26.3569903,28.5836037 26.0647276,28.6841421 25.7633333,28.6875 C25.2319002,28.6445011 24.8225295,28.2006698 24.8225295,27.6675 C24.8225295,27.1343302 25.2319002,26.6904989 25.7633333,26.6475 C26.0647276,26.6508579 26.3569903,26.7513963 26.5966667,26.9341667 L26.93,26.3741667 C26.6087447,26.1085667 26.1996262,25.9729867 25.7833333,25.9941667 C25.3309406,25.9685302 24.8886876,26.1347151 24.5651279,26.4519305 C24.2415683,26.7691458 24.0666593,27.2080217 24.0833333,27.6608333 L24.0833333,27.6741667 Z M30.5766667,27.6741667 L30.5766667,26.0875 L29.8833333,26.0875 L29.8833333,26.4741667 C29.6444678,26.1668167 29.2723254,25.9931502 28.8833333,26.0075 C27.9628588,26.0075 27.2166667,26.7536921 27.2166667,27.6741667 C27.2166667,28.5946412 27.9628588,29.3408333 28.8833333,29.3408333 C29.2723254,29.3551831 29.6444678,29.1815167 29.8833333,28.8741667 L29.8833333,29.2608333 L30.5766667,29.2608333 L30.5766667,27.6741667 Z M27.9966667,27.6741667 C28.0274983,27.1510562 28.470814,26.7485361 28.9944635,26.7681908 C29.518113,26.7878455 29.9300074,27.2224651 29.9215386,27.746415 C29.9130699,28.2703648 29.4873445,28.6914456 28.9633333,28.6941667 C28.696513,28.6975428 28.4404081,28.589326 28.2568541,28.3956448 C28.0733001,28.2019637 27.9789798,27.9404215 27.9966667,27.6741667 Z M19.63,26.0075 C18.7095254,26.0203866 17.97378,26.7770254 17.9866667,27.6975 C17.9995533,28.6179746 18.7561921,29.35372 19.6766667,29.3408333 C20.1562465,29.3654496 20.6278685,29.2110142 21,28.9075 L20.6666667,28.3941667 C20.403454,28.6052596 20.0773673,28.7225569 19.74,28.7275 C19.2634555,28.7684834 18.8408601,28.4227235 18.7866667,27.9475 L21.1533333,27.9475 C21.1533333,27.8608333 21.1533333,27.7741667 21.1533333,27.6808333 C21.1533333,26.6808333 20.5333333,26.0141667 19.64,26.0141667 L19.63,26.0075 Z M19.63,26.6275 C19.8395343,26.6230328 20.0422567,26.7020099 20.1935463,26.8470479 C20.344836,26.992086 20.4322927,27.191297 20.4366667,27.4008333 L18.77,27.4008333 C18.7951095,26.9557745 19.1711594,26.6122958 19.6166667,26.6275 L19.63,26.6275 Z M37,27.6808333 L37,24.8075 L36.3333333,24.8075 L36.3333333,26.4741667 C36.0944678,26.1668167 35.7223254,25.9931502 35.3333333,26.0075 C34.4128588,26.0075 33.6666667,26.7536921 33.6666667,27.6741667 C33.6666667,28.5946412 34.4128588,29.3408333 35.3333333,29.3408333 C35.7223254,29.3551831 36.0944678,29.1815167 36.3333333,28.8741667 L36.3333333,29.2608333 L37,29.2608333 L37,27.6808333 Z M38.1566667,28.8108333 C38.2000043,28.8103024 38.2430296,28.8182281 38.2833333,28.8341667 C38.3216142,28.849788 38.3566549,28.8723949 38.3866667,28.9008333 C38.4159564,28.9295738 38.4396876,28.9634754 38.4566667,29.0008333 C38.490787,29.0795158 38.490787,29.1688176 38.4566667,29.2475 C38.4396876,29.2848579 38.4159564,29.3187595 38.3866667,29.3475 C38.3566549,29.3759385 38.3216142,29.3985453 38.2833333,29.4141667 C38.2434274,29.4317751 38.2002847,29.4408578 38.1566667,29.4408333 C38.0276832,29.4398611 37.9108376,29.3645606 37.8566667,29.2475 C37.8229414,29.1687361 37.8229414,29.0795973 37.8566667,29.0008333 C37.8736458,28.9634754 37.8973769,28.9295738 37.9266667,28.9008333 C37.9566785,28.8723949 37.9917191,28.849788 38.03,28.8341667 C38.0734166,28.8168961 38.1199792,28.8089464 38.1666667,28.8108333 L38.1566667,28.8108333 Z M38.1566667,29.3741667 C38.1899365,29.3743688 38.2228751,29.3675539 38.2533333,29.3541667 C38.2820121,29.3413625 38.3080214,29.3232691 38.33,29.3008333 C38.4164323,29.206531 38.4164323,29.0618024 38.33,28.9675 C38.3080738,28.9450024 38.2820519,28.9269002 38.2533333,28.9141667 C38.222845,28.9008738 38.1899266,28.8940631 38.1566667,28.8941667 C38.1234354,28.8943423 38.0905727,28.9011415 38.06,28.9141667 C38.0300515,28.9264467 38.002854,28.9445783 37.98,28.9675 C37.8935677,29.0618024 37.8935677,29.206531 37.98,29.3008333 C38.0029102,29.3236865 38.0300932,29.3418085 38.06,29.3541667 C38.0936299,29.3686693 38.1300673,29.3755013 38.1666667,29.3741667 L38.1566667,29.3741667 Z M38.1766667,28.9775 C38.2077838,28.975991 38.238447,28.9854258 38.2633333,29.0041667 C38.2840341,29.0212987 38.2952038,29.0473613 38.2933333,29.0741667 C38.294301,29.0965517 38.2858368,29.1183167 38.27,29.1341667 C38.2506794,29.1517153 38.2260322,29.1622784 38.2,29.1641667 L38.2966667,29.2741667 L38.22,29.2741667 L38.13,29.1641667 L38.1,29.1641667 L38.1,29.2741667 L38.0366667,29.2741667 L38.0366667,28.9808333 L38.1766667,28.9775 Z M38.1033333,29.0341667 L38.1033333,29.1141667 L38.1766667,29.1141667 C38.1897162,29.1180573 38.2036171,29.1180573 38.2166667,29.1141667 C38.221421,29.1047317 38.221421,29.0936016 38.2166667,29.0841667 C38.221421,29.0747317 38.221421,29.0636016 38.2166667,29.0541667 C38.2036171,29.0502761 38.1897162,29.0502761 38.1766667,29.0541667 L38.1033333,29.0341667 Z M34.4366667,27.6808333 C34.4674983,27.1577229 34.910814,26.7552028 35.4344635,26.7748575 C35.958113,26.7945122 36.3700074,27.2291318 36.3615386,27.7530816 C36.3530699,28.2770315 35.9273445,28.6981123 35.4033333,28.7008333 C35.136513,28.7042094 34.8804081,28.5959926 34.6968541,28.4023115 C34.5133001,28.2086303 34.4189798,27.9470882 34.4366667,27.6808333 Z M11.0266667,27.6808333 L11.0266667,26.0875 L10.3333333,26.0875 L10.3333333,26.4741667 C10.0944678,26.1668167 9.72232543,25.9931502 9.33333333,26.0075 C8.41285875,26.0075 7.66666667,26.7536921 7.66666667,27.6741667 C7.66666667,28.5946412 8.41285875,29.3408333 9.33333333,29.3408333 C9.72232543,29.3551831 10.0944678,29.1815167 10.3333333,28.8741667 L10.3333333,29.2608333 L11.0266667,29.2608333 L11.0266667,27.6808333 Z M8.44666667,27.6808333 C8.47749834,27.1577229 8.92081397,26.7552028 9.44446351,26.7748575 C9.96811305,26.7945122 10.3800074,27.2291318 10.3715386,27.7530816 C10.3630699,28.2770315 9.93734454,28.6981123 9.41333333,28.7008333 C9.14536317,28.7060941 8.8874753,28.5987023 8.70244289,28.4047985 C8.51741049,28.2108947 8.42220476,27.9482637 8.44,27.6808333 L8.44666667,27.6808333 Z" id="Shape" fill-rule="nonzero"></path>
            <circle id="Oval" cx="11.375" cy="11.375" r="11.375"></circle>
            <circle id="Oval" opacity="0.5" cx="26.8125" cy="11.375" r="11.375"></circle>
        </g>
    </g>
</svg>
