<?xml version="1.0" encoding="UTF-8"?>
<svg id="target" viewBox="0 0 120 120" version="1.1" xmlns="http://www.w3.org/2000/svg" xmlns:xlink="http://www.w3.org/1999/xlink">
    <!-- Generator: Sketch 51 (57462) - http://www.bohemiancoding.com/sketch -->
    <title>logo / mercedes</title>
    <desc>Created with Sketch.</desc>
    <defs></defs>
    <g id="logo-/-mercedes" stroke="none" stroke-width="1" fill="none" fill-rule="evenodd">
        <path d="M60,76 C51.1637117,76 44,68.8362883 44,59.9998179 C44,51.1635296 51.1637117,44 60,44 C68.8364704,44 76,51.1635296 76,59.9998179 C76,68.8362883 68.8364704,76 60,76 Z M60.085395,62.3899675 L47.0953411,67.7667569 C49.8321688,72.3657054 54.7919976,75.1719052 60.1409291,75.1440472 C65.4760225,75.1302092 70.4218313,72.2959692 73.1311651,67.6835469 L60.085395,62.3899675 Z M57.7932177,58.6231195 L59.8632725,44.9103944 C54.5281791,44.9799486 49.6100463,47.8558846 46.9425907,52.4821449 C44.2611149,57.1085873 44.2332568,62.8047432 46.8591985,67.4590436 L57.7932177,58.6231195 Z M62.1778456,58.8035596 L73.2369529,67.3618135 C75.8071785,62.7076951 75.7514623,57.0530532 73.0701687,52.4544689 C70.402713,47.8558846 65.5262763,44.9936045 60.2050208,44.9103944 L62.1778456,58.8035596 Z" id="mercedes" fill="currentcolor"></path>
    </g>
</svg>
