<?xml version="1.0" encoding="UTF-8"?>
<svg id="target" viewBox="0 0 120 120" version="1.1" xmlns="http://www.w3.org/2000/svg" xmlns:xlink="http://www.w3.org/1999/xlink">
    <!-- Generator: Sketch 51 (57462) - http://www.bohemiancoding.com/sketch -->
    <title>logo / ebay</title>
    <desc>Created with Sketch.</desc>
    <defs></defs>
    <g id="logo-/-ebay" stroke="none" stroke-width="1" fill="none" fill-rule="evenodd">
        <path d="M70.4475212,54.6300336 L73.2520252,54.6300336 L77.3540498,62.8087102 L81.4645936,54.6300336 L84,54.6300336 L76.5789821,69.2100094 L73.8672641,69.2100094 L76.0148588,65.1585448 L70.4475212,54.6300336 M38.5212171,58.7452075 C38.5212171,58.7452075 38.6928988,55.6886445 42.1422738,55.6877185 C45.5790552,55.6867925 45.5790552,58.7452075 45.5790552,58.7452075 L38.5212171,58.7452075 Z M42.201353,54.0916533 C36.2045335,54.0905421 35.9715502,58.7589124 36.0021085,59.9706848 C36.0021085,59.9706848 35.7083791,65.4285684 42.0546736,65.4285684 C47.507742,65.4285684 47.7762839,62.0040103 47.7762839,62.0040103 L45.2673613,62.0090108 C45.2673613,62.0090108 44.7788002,63.8956568 42.0650449,63.8450969 C38.5762219,63.7802764 38.4408398,60.4003519 38.4408398,60.4003519 L48.1059423,60.4003519 C48.1059423,60.4003519 48.8393396,54.0929497 42.201353,54.0916533 Z M54.2792587,63.9525137 C50.4713339,64.0002956 50.5331911,59.9138279 50.5331911,59.9138279 C50.5331911,59.9138279 50.3944753,55.9803366 54.2731471,55.8792167 C58.1514484,55.7780967 58.0253263,59.9977242 58.0253263,59.9977242 C58.0253263,59.9977242 58.0871835,63.9045465 54.2792587,63.9525137 Z M54.8330107,54.2451852 C51.8177476,54.2283319 50.5205974,56.0307114 50.5205974,56.0307114 L50.5205974,50 L48.1031643,50 L48.1440938,62.7457417 C48.1440938,62.7457417 48.1296481,64.2303157 48.0381586,65.2115124 L50.385956,65.2115124 L50.4867056,63.7797208 C50.4867056,63.7797208 51.5819863,65.5821003 54.7822656,65.5821003 C57.9831004,65.5821003 60.5101727,63.6111876 60.577586,59.9556835 C60.6448141,56.3003645 57.8486442,54.2618533 54.8330107,54.2451852 Z M65.5223747,63.9212249 C65.5223747,63.9212249 63.0995707,63.9241881 62.9575213,61.9884637 C62.8060266,59.9225427 66.6848835,60.0468128 66.6848835,60.0468128 L69.4251226,60.0440348 C69.4251226,60.0440348 69.8688651,63.9782669 65.5223747,63.9212249 Z M71.8397778,62.5759224 C71.8457042,60.92726 71.8940418,59.4550945 71.8397778,58.4166706 C71.7762537,57.2126766 71.8903377,54.3066823 66.6848835,54.092034 C66.6848835,54.092034 61.6942629,53.6371795 61.1760696,57.3515776 L63.7285145,57.3515776 C63.7285145,57.3515776 63.9266799,55.6497625 66.5165355,55.6988409 C68.9674901,55.7451412 69.4140106,56.9472831 69.4014169,58.4255602 C69.4014169,58.4255602 67.300678,58.4314867 66.5996909,58.4350055 C65.3362474,58.4413024 60.9149357,58.5813146 60.5023071,61.2743273 C60.0113383,64.4764586 62.8693655,65.4754346 65.1054865,65.4626557 C67.3417927,65.450062 68.6176448,64.7805592 69.5653201,63.5802692 L69.6666252,65.0709549 L71.8903377,65.0583612 C71.8903377,65.0583612 71.8329253,64.2247699 71.8397778,62.5759224 Z" id="ebay" fill="currentcolor"></path>
    </g>
</svg>
