
<svg version="1.1" id="target" xmlns="http://www.w3.org/2000/svg" xmlns:xlink="http://www.w3.org/1999/xlink" x="0px" y="0px"
	 viewBox="0 0 24 24" style="enable-background:new 0 0 24 24;" xml:space="preserve">
<title>business-trip-plane</title>
<g>
	<path d="M7,11.5c-0.551,0-1-0.449-1-1v-0.022c-2.128-0.153-5.91-1.268-5.999-2.99c-0.02-0.399,0.214-0.857,0.695-1.362
		c0.145-0.153,0.329-0.317,0.533-0.485C2.509,4.596,4.679,3.5,7,3.5h9.818l2.861-2.384c0.394-0.396,0.975-0.633,1.577-0.633
		c0.104,0,0.209,0.007,0.312,0.021L23.5,0.5c0.177,0,0.343,0.095,0.432,0.248c0.09,0.153,0.091,0.343,0.004,0.498L20.98,6.5h0.52
		C21.775,6.5,22,6.724,22,7s-0.225,0.5-0.5,0.5h-1.082l-0.982,1.745c-0.406,0.688-1.086,1.143-1.867,1.25L13.694,10.5
		c-0.867,0.801-1.331,0.968-1.944,0.996V11.5H7z M11.5,10.5c0.537,0,0.786,0,1.797-1c-0.755-0.768-0.993-1-1.797-1H9v2H11.5z
		 M7,10.5h1v-2H7C7,8.5,7,10.5,7,10.5z M17.5,9.5c0.415-0.062,0.827-0.344,1.068-0.754L19.27,7.5H18.5C18.225,7.5,18,7.276,18,7
		s0.225-0.5,0.5-0.5h1.332l2.812-5H21.5c-0.102-0.012-0.168-0.016-0.233-0.016c-0.351,0-0.675,0.131-0.913,0.37l-3.033,2.53
		C17.23,4.458,17.117,4.5,17,4.5H8.741c-1.588,1.984-3.203,2-6.987,2C1.628,6.608,1.516,6.714,1.42,6.814
		C1.083,7.17,1.001,7.391,1,7.44c0.037,0.704,2.667,1.873,5,2.038V8.5c0-0.551,0.449-1,1-1h4.5c1.232,0,1.694,0.47,2.533,1.324
		l0.321,0.324c0.097,0.096,0.145,0.224,0.145,0.353H17.5z M7,4.5c-1.516,0-2.831,0.508-3.74,0.992
		C5.379,5.459,6.459,5.293,7.371,4.5H7z"/>
	<path d="M9.5,6.5C9.224,6.5,9,6.276,9,6s0.224-0.5,0.5-0.5H11c0.276,0,0.5,0.224,0.5,0.5S11.276,6.5,11,6.5H9.5z"/>
	<path d="M13.5,6.5C13.225,6.5,13,6.276,13,6s0.225-0.5,0.5-0.5H15c0.275,0,0.5,0.224,0.5,0.5S15.275,6.5,15,6.5H13.5z"/>
	<path d="M12.5,23.5c-0.827,0-1.5-0.673-1.5-1.5v-6c0-0.827,0.673-1.5,1.5-1.5h2.191l0.361-0.723c0.26-0.742,1.03-1.28,1.86-1.28
		c0,0,1.09,0.002,1.092,0.002c0.937,0,1.677,0.523,1.966,1.332l0.338,0.668H22.5c0.827,0,1.5,0.673,1.5,1.5v6
		c0,0.827-0.673,1.5-1.5,1.5H12.5z M12,22c0,0.275,0.224,0.5,0.5,0.5h10c0.275,0,0.5-0.225,0.5-0.5v-2.5h-5v1
		c0,0.275-0.225,0.5-0.5,0.5S17,20.775,17,20.5v-1h-5V22z M23,18.5V16c0-0.275-0.225-0.5-0.5-0.5h-10c-0.276,0-0.5,0.225-0.5,0.5
		v2.5H23z M19.191,14.5l-0.139-0.277c-0.165-0.452-0.53-0.727-0.941-0.727l-1.149,0.003c-0.45,0-0.849,0.27-0.991,0.669L15.807,14.5
		H19.191z"/>
</g>
</svg>
