<svg id="target" xmlns="http://www.w3.org/2000/svg" viewBox="0 0 24 24"><title>professions-woman-doctor-2</title><circle cx="14" cy="9" r="1"/><circle cx="10" cy="9" r="1"/><path d="M13.077,11.131h-2a.639.639,0,0,0-.3,1.2,2.451,2.451,0,0,0,.435.18,3.024,3.024,0,0,0,.867.126h.006a2.976,2.976,0,0,0,.863-.125,2.433,2.433,0,0,0,.436-.181.64.64,0,0,0-.3-1.2Z"/><path d="M22.837,18.019A11.514,11.514,0,0,0,21.3,17.04a.249.249,0,0,1-.019-.428c.366-.242.571-.4.589-.415a.5.5,0,0,0,.031-.759c-2.927-2.724-2.4-6.591-2.405-7.955a7.5,7.5,0,1,0-14.993.081c0,.767.7,4.984-2.412,7.874a.5.5,0,0,0,.031.759c.017.013.223.173.589.415a.25.25,0,0,1-.02.429,11.489,11.489,0,0,0-1.531.977A2.957,2.957,0,0,0,0,20.393V23a1,1,0,0,0,2,0V20.393a.974.974,0,0,1,.377-.785A10.971,10.971,0,0,1,5.09,18.14a.25.25,0,0,0,.16-.233V15.5a.5.5,0,0,1,1,0v3.719a.251.251,0,0,1-.15.229,2.25,2.25,0,1,0,1.8,0,.251.251,0,0,1-.15-.229V17.593a.248.248,0,0,1,.205-.245,21.308,21.308,0,0,1,3.035-.326.248.248,0,0,1,.183.069.252.252,0,0,1,.077.181V23a.75.75,0,0,0,1.5,0V17.271a.249.249,0,0,1,.26-.249,21.681,21.681,0,0,1,2.7.269A.251.251,0,0,0,16,17.044V15.5a.5.5,0,0,1,1,0v2.049h0v2.119a.251.251,0,0,1-.173.238A2.994,2.994,0,0,0,14.75,22.75v.5a.75.75,0,0,0,1.5,0v-.5a1.5,1.5,0,0,1,3,0v.5a.75.75,0,0,0,1.5,0v-.5a3,3,0,0,0-2.076-2.843.249.249,0,0,1-.173-.237V18.347a.25.25,0,0,1,.338-.234,10.98,10.98,0,0,1,2.785,1.5.973.973,0,0,1,.376.784V23a1,1,0,0,0,2,0V20.393A2.955,2.955,0,0,0,22.837,18.019ZM6.25,21.5a.75.75,0,1,1,.75.75A.75.75,0,0,1,6.25,21.5Zm5.75-7a5,5,0,0,1-5-5V7.243a.249.249,0,0,1,.078-.181.246.246,0,0,1,.184-.068,5,5,0,0,0,4.524-2.418.249.249,0,0,1,.428,0,5,5,0,0,0,4.524,2.419.246.246,0,0,1,.184.068A.249.249,0,0,1,17,7.243V9.5A5,5,0,0,1,12,14.5Z"/></svg>
