<svg id="target" xmlns="http://www.w3.org/2000/svg" viewBox="0 0 24 24"><title>people-man-cap-3</title><path d="M23.5,20.394a2.464,2.464,0,0,0-.967-1.977,14.264,14.264,0,0,0-5.908-2.481.5.5,0,0,0-.552.279A4.557,4.557,0,0,1,12,19a4.557,4.557,0,0,1-4.073-2.785.5.5,0,0,0-.552-.279,14.264,14.264,0,0,0-5.908,2.481A2.464,2.464,0,0,0,.5,20.394V23.5A.5.5,0,0,0,1,24H23a.5.5,0,0,0,.5-.5Z"/><path d="M5,9A7,7,0,0,0,19,9V7.75a.25.25,0,0,1,.25-.25H22a1,1,0,0,0,0-2H19.032a.248.248,0,0,1-.242-.19A7,7,0,0,0,5.034,6.326v.011C5.022,6.415,5,6.969,5,7ZM17,9A5,5,0,0,1,7,9V7.75a.25.25,0,0,1,.25-.25h9.5a.25.25,0,0,1,.25.25Z"/><circle cx="14" cy="9.25" r="1"/><circle cx="10" cy="9.25" r="1"/><path d="M10.457,11.844a.638.638,0,0,0,.317.719,2.31,2.31,0,0,0,.435.18,2.99,2.99,0,0,0,.867.126h.006a2.976,2.976,0,0,0,.863-.125,2.3,2.3,0,0,0,.436-.181.639.639,0,0,0-.3-1.2h-2A.639.639,0,0,0,10.457,11.844Z"/></svg>
