
<svg version="1.1" id="target" xmlns="http://www.w3.org/2000/svg" xmlns:xlink="http://www.w3.org/1999/xlink" x="0px" y="0px"
	 viewBox="0 0 24 24" style="enable-background:new 0 0 24 24;" xml:space="preserve">
<g>
	<title>headphones-customer-support-human-1</title>
	<path d="M19.31,24c-0.276,0-0.5-0.224-0.5-0.5v-4.389c0-0.159,0.077-0.31,0.205-0.404c2.376-1.73,3.795-4.518,3.795-7.457
		c0-4.316-3.491-8.253-8-9.086v6.258c2.388,1.04,3.583,3.731,2.727,6.209c-0.696,2.014-2.597,3.368-4.73,3.368
		c-0.553,0-1.101-0.092-1.628-0.274c-0.236-0.082-0.471-0.185-0.701-0.306c-1.51,1.342-3.216,2.173-4.734,2.307
		C5.534,20.475,4.855,21,4.06,21h-0.5c-0.965,0-1.75-0.785-1.75-1.75s0.785-1.75,1.75-1.75h0.5c0.772,0,1.44,0.502,1.667,1.222
		c1.21-0.129,2.599-0.805,3.879-1.885c-1.595-1.329-2.207-3.488-1.522-5.472c0.456-1.32,1.444-2.383,2.725-2.942V2.22
		c-5.144,1.072-6.678,5.98-8.3,11.17C2.342,13.928,2.174,14.465,2.002,15l2.308,0c0.276,0,0.5,0.224,0.5,0.5V16
		c0,0.276-0.224,0.5-0.5,0.5s-0.5-0.224-0.5-0.5H2c-0.552-0.002-1-0.452-0.998-1.003c0-0.104,0.017-0.206,0.048-0.304
		c0.172-0.532,0.339-1.066,0.506-1.6C3.217,7.777,4.934,2.282,10.847,1.194C10.99,0.511,11.598,0,12.31,0h1
		c0.695,0,1.288,0.478,1.45,1.14c5.089,0.827,9.05,5.234,9.05,10.11c0,3.164-1.493,6.187-4,8.112V23.5
		C19.81,23.776,19.586,24,19.31,24z M3.56,18.5c-0.414,0-0.75,0.336-0.75,0.75S3.146,20,3.56,20h0.5c0.414,0,0.75-0.336,0.75-0.75
		S4.474,18.5,4.06,18.5H3.56z M11.241,16.675c0.09,0.04,0.177,0.074,0.263,0.104c0.422,0.146,0.86,0.22,1.303,0.22
		c1.706,0,3.227-1.083,3.784-2.694c0.669-1.937-0.24-4.056-2.077-4.92C14.234,9.769,13.79,10,13.31,10h-1
		c-0.48,0-0.923-0.23-1.203-0.614c-0.974,0.458-1.725,1.288-2.077,2.306c-0.557,1.611-0.013,3.413,1.322,4.457
		c0.469-0.474,0.898-0.989,1.278-1.535c-0.511-0.374-0.82-0.97-0.82-1.614c0-1.103,0.897-2,2-2s2,0.897,2,2s-0.897,2-2,2
		c-0.074,0-0.149-0.004-0.224-0.013C12.187,15.586,11.736,16.152,11.241,16.675z M12.81,12c-0.551,0-1,0.448-1,1s0.449,1,1,1
		c0.552,0,1-0.448,1-1S13.361,12,12.81,12z M12.31,1c-0.276,0-0.5,0.224-0.5,0.5v7c0,0.276,0.224,0.5,0.5,0.5h1
		c0.276,0,0.5-0.224,0.5-0.5v-7c0-0.276-0.224-0.5-0.5-0.5H12.31z"/>
	<path d="M9.31,24c-0.276,0-0.5-0.224-0.5-0.5V22h-1.5c-0.361,0-0.719-0.055-1.063-0.165c-0.263-0.083-0.409-0.365-0.325-0.628
		c0.066-0.209,0.257-0.349,0.476-0.349c0.052,0,0.103,0.008,0.153,0.024C6.795,20.96,7.051,21,7.31,21h2c0.276,0,0.5,0.224,0.5,0.5
		v2C9.81,23.776,9.586,24,9.31,24z"/>
</g>
</svg>
