
<svg version="1.1" id="target" xmlns="http://www.w3.org/2000/svg" xmlns:xlink="http://www.w3.org/1999/xlink" x="0px" y="0px"
	 viewBox="0 0 24 24" style="enable-background:new 0 0 24 24;" xml:space="preserve">
<g>
	<title>design-pen-tool</title>
	<path d="M3.75,24C1.682,24,0,22.318,0,20.25V3.75C0,1.682,1.682,0,3.75,0h16.5C22.318,0,24,1.682,24,3.75v16.5
		c0,2.068-1.682,3.75-3.75,3.75H3.75z M1.5,20.25c0,1.241,1.009,2.25,2.25,2.25h16.5c1.241,0,2.25-1.009,2.25-2.25V7.5h-21V20.25z
		 M22.5,6V3.75c0-1.241-1.009-2.25-2.25-2.25H3.75C2.509,1.5,1.5,2.509,1.5,3.75V6H22.5z"/>
	<path d="M15,21c-0.827,0-1.5-0.673-1.5-1.5v-3c0-0.827,0.673-1.5,1.5-1.5h4.5c0.827,0,1.5,0.673,1.5,1.5v3
		c0,0.827-0.673,1.5-1.5,1.5H15z M15,19.5h4.5v-3H15V19.5z"/>
	<circle cx="4.5" cy="3.75" r="1.125"/>
	<circle cx="7.875" cy="3.75" r="1.125"/>
	<path d="M6,15.75c-0.275,0-0.527-0.15-0.659-0.391c-0.198-0.363-0.064-0.82,0.299-1.018l8.25-4.5
		c0.11-0.06,0.234-0.091,0.359-0.091c0.276,0,0.528,0.15,0.659,0.391c0.096,0.175,0.117,0.378,0.061,0.57
		c-0.056,0.192-0.184,0.351-0.36,0.447l-8.25,4.5C6.25,15.718,6.126,15.75,6,15.75z"/>
</g>
</svg>
