<?xml version="1.0" encoding="utf-8"?>
<!-- Generator: Adobe Illustrator 22.0.0, SVG Export Plug-In . SVG Version: 6.00 Build 0)  -->
<svg version="1.1" id="target" xmlns="http://www.w3.org/2000/svg" xmlns:xlink="http://www.w3.org/1999/xlink" x="0px" y="0px"
	 viewBox="0 0 24 24" style="enable-background:new 0 0 24 24;" xml:space="preserve">
<g>
	<path d="M12.8,18H9.7c-0.1-0.7-0.5-1.4-1-1.9C7.9,15.4,7,15,6,15H1.5v-0.8c0-0.4-0.3-0.8-0.8-0.8S0,13.8,0,14.2v9
		C0,23.7,0.3,24,0.8,24s0.8-0.3,0.8-0.8v-0.8h14.2c0.4,0,0.8-0.3,0.8-0.8c0-1-0.4-1.9-1.1-2.7C14.7,18.4,13.8,18,12.8,18z M1.5,21
		v-4.5H6c0.6,0,1.2,0.2,1.6,0.7C7.8,17.4,8,17.7,8.1,18H6c-0.4,0-0.8,0.3-0.8,0.8s0.3,0.8,0.8,0.8h6.8c0.6,0,1.2,0.2,1.6,0.7
		c0.2,0.2,0.4,0.5,0.5,0.8H1.5z"/>
	<path d="M23.3,0.7c-0.4-0.4-1-0.7-1.6-0.7H5.2C5,0,4.7,0.1,4.4,0.2C4.1,0.3,3.9,0.5,3.7,0.7C3.5,0.9,3.3,1.1,3.2,1.4
		C3.1,1.7,3,2,3,2.2v9C3,11.7,3.3,12,3.8,12s0.8-0.3,0.8-0.8V6h18v8.2c0,0.2-0.1,0.4-0.2,0.5C22.1,14.9,22,15,21.8,15h-9
		c-0.4,0-0.8,0.3-0.8,0.8s0.3,0.8,0.8,0.8h9c0.6,0,1.2-0.2,1.6-0.7c0.4-0.4,0.7-1,0.7-1.6v-12C24,1.7,23.8,1.1,23.3,0.7z M22.5,4.5
		h-18V2.2c0-0.1,0-0.2,0.1-0.3c0-0.1,0.1-0.2,0.2-0.2C4.8,1.7,4.9,1.6,5,1.6c0.1,0,0.2-0.1,0.3-0.1h16.5c0.2,0,0.4,0.1,0.5,0.2
		c0.1,0.1,0.2,0.3,0.2,0.5V4.5z"/>
</g>
</svg>
