<svg id="target" xmlns="http://www.w3.org/2000/svg" viewBox="0 0 24 24"><title>business-flame</title><path d="M2.847,17.527H21.153A2.85,2.85,0,0,0,24,14.681c0-.333.076.22-1.35-8.331A2.173,2.173,0,0,0,20.5,4.527H19a1,1,0,0,0,0,2h1.5a.18.18,0,0,1,.178.152c1.4,8.413,1.322,7.9,1.322,8a.848.848,0,0,1-.847.846H2.847A.848.848,0,0,1,2,14.681c0-.1-.081.418,1.322-8A.18.18,0,0,1,3.5,6.527H5a1,1,0,0,0,0-2H3.5A2.173,2.173,0,0,0,1.35,6.35C-.072,14.876,0,14.349,0,14.681A2.85,2.85,0,0,0,2.847,17.527Z"/><path d="M22.5,19.777a1,1,0,0,0-1-1H2.5a1,1,0,0,0,0,2h19A1,1,0,0,0,22.5,19.777Z"/><path d="M3.5,21.777a1,1,0,0,0,0,2h17a1,1,0,0,0,0-2Z"/><path d="M12.412.389a.5.5,0,0,0-.578-.121A8.134,8.134,0,0,0,7,7.527a5,5,0,0,0,10,0,5.213,5.213,0,0,0-2.248-4.3A.5.5,0,0,0,14,3.49a3.9,3.9,0,0,1-.745,1.354.252.252,0,0,1-.182.084.256.256,0,0,1-.186-.078A3.223,3.223,0,0,1,12.471.977.5.5,0,0,0,12.412.389Z"/></svg>
