<svg id="target" xmlns="http://www.w3.org/2000/svg" xmlns:xlink="http://www.w3.org/1999/xlink" x="0px" y="0px"
	 viewBox="0 0 24 24" style="enable-background:new 0 0 24 24;" xml:space="preserve">
<title>clean-bicycle</title>
<g>
	<path d="M19.5,24c-2.481,0-4.5-2.019-4.5-4.5c0-1.704,0.969-3.257,2.487-4.02l-0.954-2.586l-5.132,6.905
		c-0.04,0.053-0.089,0.097-0.145,0.131l-0.008,0.069L8.954,20c-0.252,2.262-2.165,4-4.454,4C2.019,24,0,21.981,0,19.5
		S2.019,15,4.5,15c0.935,0,1.831,0.295,2.607,0.856l1.291-1.435L7.414,12H6.5C6.224,12,6,11.776,6,11.5S6.224,11,6.5,11h3
		c0.276,0,0.5,0.224,0.5,0.5S9.776,12,9.5,12H8.493l0.765,1.883l6.779-2.334l-0.506-1.376c-0.049-0.133-0.039-0.282,0.027-0.407
		c0.065-0.125,0.182-0.216,0.319-0.251l2.03-0.508l0.096-0.008c0.228,0,0.426,0.156,0.48,0.38c0.033,0.127,0.014,0.262-0.055,0.376
		c-0.068,0.115-0.178,0.196-0.308,0.229l-1.46,0.365l1.768,4.798C18.813,15.047,19.158,15,19.5,15c2.481,0,4.5,2.019,4.5,4.5
		S21.981,24,19.5,24z M17.836,16.43C16.713,17.039,16,18.217,16,19.5c0,1.93,1.57,3.5,3.5,3.5s3.5-1.57,3.5-3.5S21.43,16,19.5,16
		c-0.229,0-0.463,0.029-0.724,0.09l1.192,3.237c0.096,0.258-0.037,0.546-0.295,0.642l-0.042,0.016L19.5,20
		c-0.208,0-0.396-0.131-0.469-0.326L17.836,16.43z M4.5,16C2.57,16,1,17.57,1,19.5S2.57,23,4.5,23c1.736,0,3.201-1.298,3.447-3
		H5.623c-0.246,0-0.482-0.091-0.667-0.255c-0.2-0.18-0.318-0.425-0.332-0.691c-0.015-0.268,0.076-0.523,0.255-0.722l1.555-1.729
		C5.852,16.208,5.188,16,4.5,16z M5.623,19h2.324c-0.092-0.643-0.356-1.244-0.763-1.735L5.623,19z M10.257,19l-1.441-3.548
		L7.86,16.515C8.469,17.201,8.851,18.069,8.954,19H10.257z M11.129,18.488l4.189-5.634l-5.684,1.957L11.129,18.488z"/>
	<path d="M4,12c-0.08,0-0.16-0.02-0.23-0.057c-0.2-0.103-0.306-0.329-0.258-0.55L4.358,7.5h-2.78
		C1.308,7.498,1.056,7.392,0.869,7.202C0.682,7.012,0.58,6.76,0.582,6.493c0.002-0.234,0.086-0.461,0.237-0.639l4.8-5.677
		C5.715,0.064,5.854,0,6,0c0.077,0,0.154,0.018,0.222,0.052c0.206,0.103,0.315,0.331,0.266,0.556L5.623,4.5h3.235
		c0.268,0,0.519,0.105,0.708,0.293c0.189,0.19,0.292,0.442,0.292,0.708c0,0.25-0.094,0.491-0.264,0.676l-5.226,5.661
		C4.274,11.941,4.14,12,4,12z M1.582,6.5h3.396c0.151,0,0.293,0.068,0.389,0.186s0.132,0.271,0.099,0.42L4.879,9.811L8.858,5.5H5
		c-0.153,0-0.295-0.068-0.391-0.188C4.515,5.195,4.479,5.041,4.512,4.891l0.56-2.519L1.582,6.5z"/>
</g>
</svg>
