
<svg version="1.1" id="target" xmlns="http://www.w3.org/2000/svg" xmlns:xlink="http://www.w3.org/1999/xlink" x="0px" y="0px"
	 viewBox="0 0 24 24" style="enable-background:new 0 0 24 24;" xml:space="preserve">
<g>
	<title>ecology-plant-deal</title>
	<path d="M10.319,24.009c-0.443,0-0.873-0.181-1.184-0.498l-2.856-2.171H5.276c-0.307,0.788-1.081,1.334-1.943,1.334h-2
		c-0.414,0-0.75-0.336-0.75-0.75s0.336-0.75,0.75-0.75h2c0.322,0,0.584-0.262,0.584-0.584v-6.664c0-0.324-0.262-0.586-0.584-0.586
		h-2c-0.414,0-0.75-0.336-0.75-0.75s0.336-0.75,0.75-0.75h2c0.765,0,1.453,0.414,1.816,1.063l3.017-1.286
		c0.336-0.135,0.679-0.201,1.027-0.201c0.564,0,1.105,0.174,1.567,0.505l0.193-0.094c-0.187-1.381-0.566-2.675-1.129-3.858
		c-0.56,0.589-1.437,1.251-2.55,1.251c-0.155,0-0.313-0.013-0.468-0.039C3.909,8.697,3.296,5.937,2.848,3.922
		C2.653,3.044,2.469,2.215,2.163,1.757c-0.125-0.188-0.16-0.42-0.093-0.636c0.066-0.216,0.224-0.389,0.433-0.475
		C3.536,0.224,4.629,0.01,5.751,0.01c1.607,0,3.173,0.444,4.531,1.285c1.003,0.664,1.578,1.523,1.675,2.488
		c0.094,0.942-0.28,1.945-1.085,2.912c0.515,0.955,0.919,1.985,1.205,3.075c0.551-1.003,1.209-1.949,1.964-2.827
		c-0.422-0.615-0.614-1.251-0.555-1.854c0.073-0.743,0.504-1.398,1.247-1.895c0.997-0.618,2.132-0.941,3.293-0.941
		c0.808,0,1.595,0.154,2.34,0.458c0.209,0.086,0.367,0.259,0.434,0.475c0.066,0.216,0.032,0.448-0.093,0.636
		c-0.189,0.284-0.318,0.865-0.443,1.428c-0.325,1.464-0.77,3.468-2.935,3.829c-0.121,0.02-0.243,0.03-0.364,0.03
		c-0.87,0-1.541-0.512-1.968-0.973c-0.662,0.798-1.237,1.659-1.718,2.571c0.337-0.13,0.703-0.199,1.07-0.199
		c0.347,0,0.688,0.06,1.012,0.177l4.074,1.559c0.357-0.263,0.786-0.405,1.231-0.405h2c0.414,0,0.75,0.336,0.75,0.75
		s-0.336,0.75-0.75,0.75h-2c-0.163,0-0.32,0.072-0.432,0.198c-0.021,0.03-0.043,0.058-0.069,0.086
		c-0.054,0.091-0.083,0.194-0.083,0.3v6.666c0,0.322,0.262,0.584,0.584,0.584h2c0.414,0,0.75,0.336,0.75,0.75s-0.336,0.75-0.75,0.75
		h-2c-1.149,0-2.084-0.935-2.084-2.084v-0.215l-4.204,0.841l-3.013,2.421C11.073,23.876,10.7,24.009,10.319,24.009L10.319,24.009z
		 M6.531,19.839c0.163,0,0.324,0.054,0.454,0.153l3.107,2.362c0.038,0.029,0.075,0.063,0.108,0.1
		c0.041,0.046,0.092,0.053,0.119,0.053c0.026,0,0.064-0.007,0.101-0.037l4.667-3.749c0.057-0.047,0.07-0.14,0.029-0.206
		l-2.179-2.402L12.486,16.3c-0.283,0.112-0.575,0.168-0.872,0.168c-0.972,0-1.83-0.583-2.187-1.484
		c-0.265-0.668-0.21-1.405,0.132-2.013c-0.116-0.037-0.239-0.056-0.364-0.056c-0.156,0-0.309,0.03-0.455,0.088l-3.322,1.416v5.42
		H6.531z M16.252,17.536c0.01,0.011,0.022,0.025,0.034,0.04c0.385,0.492,0.447,1.143,0.215,1.685l2.082-0.416v-4.921
		c0-0.129,0.012-0.258,0.037-0.385l-3.783-1.448c-0.15-0.054-0.315-0.083-0.485-0.083c-0.228,0-0.454,0.053-0.656,0.154
		l-2.478,1.204c-0.387,0.195-0.56,0.655-0.397,1.067c0.127,0.321,0.446,0.537,0.792,0.537c0.107,0,0.211-0.02,0.311-0.06
		l2.458-1.013c0.091-0.038,0.187-0.057,0.285-0.057c0.305,0,0.577,0.182,0.694,0.464c0.076,0.185,0.076,0.389-0.001,0.574
		c-0.077,0.185-0.221,0.329-0.407,0.405l-0.542,0.224L16.252,17.536z M3.828,1.774c0.201,0.547,0.34,1.17,0.484,1.822
		c0.433,1.948,0.841,3.787,2.741,4.104C7.125,7.713,7.198,7.719,7.27,7.719c0.796,0,1.458-0.726,1.774-1.144
		c-0.977-1.49-1.947-2.2-1.957-2.207C6.751,4.129,6.671,3.66,6.91,3.323c0.14-0.198,0.369-0.316,0.612-0.316
		c0.156,0,0.306,0.048,0.434,0.138c0.113,0.081,1.056,0.771,2.067,2.188c0.332-0.501,0.484-0.979,0.442-1.4
		c-0.051-0.51-0.385-0.972-0.992-1.375C8.368,1.874,7.078,1.509,5.754,1.509C5.099,1.509,4.453,1.598,3.828,1.774z M18.023,3.753
		c-0.879,0-1.736,0.243-2.479,0.702c-0.344,0.231-0.538,0.495-0.565,0.78c-0.037,0.377,0.212,0.853,0.701,1.341
		c0.045,0.045,0.084,0.096,0.117,0.151c0.148,0.242,0.653,0.883,1.177,0.883c0.036,0,0.072-0.003,0.109-0.009
		c1.166-0.194,1.434-1.399,1.717-2.674c0.082-0.371,0.161-0.727,0.264-1.057C18.723,3.792,18.375,3.753,18.023,3.753z"/>
</g>
</svg>
