<svg id="target" xmlns="http://www.w3.org/2000/svg" viewBox="0 0 24 24"><title>artboard-image</title><path d="M24,17.5A1.5,1.5,0,0,0,22.5,16H21V5a2,2,0,0,0-2-2H8.5V1.5A1.5,1.5,0,0,0,7,0H4.5A1.5,1.5,0,0,0,3,1.5V3H1.5A1.5,1.5,0,0,0,0,4.5V7A1.5,1.5,0,0,0,1.5,8.5H3V19a2,2,0,0,0,2,2H15.5v1.5A1.5,1.5,0,0,0,17,24h2.5A1.5,1.5,0,0,0,21,22.5V21h1.5A1.5,1.5,0,0,0,24,19.5Zm-2,1.25a.25.25,0,0,1-.25.25H20a1,1,0,0,0-1,1v1.75a.25.25,0,0,1-.25.25h-1a.25.25,0,0,1-.25-.25V20a1,1,0,0,0-1-1H5.5a.5.5,0,0,1-.5-.5V7.5a1,1,0,0,0-1-1H2.25A.25.25,0,0,1,2,6.25v-1A.25.25,0,0,1,2.25,5H4A1,1,0,0,0,5,4V2.25A.25.25,0,0,1,5.25,2h1a.25.25,0,0,1,.25.25V4a1,1,0,0,0,1,1h11a.5.5,0,0,1,.5.5V17a1,1,0,0,0,1,1h1.75a.25.25,0,0,1,.25.25Z"/><path d="M13.367,10.848a.751.751,0,0,1,.618-.348.735.735,0,0,1,.632.323l1.928,2.782A.25.25,0,0,0,17,13.463V8.25A1.252,1.252,0,0,0,15.75,7H8.25A1.252,1.252,0,0,0,7,8.25v7.5A1.252,1.252,0,0,0,8.25,17H9.315a.251.251,0,0,0,.211-.116ZM10.5,12A1.5,1.5,0,1,1,12,10.5,1.5,1.5,0,0,1,10.5,12Z"/><path d="M14.241,12.915a.25.25,0,0,0-.417.008l-2.35,3.693a.25.25,0,0,0,.211.384H15.75a1.2,1.2,0,0,0,.829-.339.251.251,0,0,0,.033-.324Z"/></svg>
