
<svg version="1.1" id="target" xmlns="http://www.w3.org/2000/svg" xmlns:xlink="http://www.w3.org/1999/xlink" x="0px" y="0px"
	 viewBox="0 0 24 24" style="enable-background:new 0 0 24 24;" xml:space="preserve">
<g>
	<title>color-brush-paint</title>
	<path d="M11.269,18.653c-0.239,0-0.481-0.012-0.719-0.035c-0.277-0.028-0.515-0.205-0.621-0.463
		c-0.106-0.259-0.06-0.552,0.119-0.765c0.643-0.769,0.645-1.664,0.648-2.699c0.002-1.07,0.005-2.282,0.872-3.289
		c0.581-0.714,1.417-1.165,2.35-1.261c0.112-0.011,0.228-0.017,0.343-0.017c0.062,0,0.125,0.002,0.189,0.005l4.259-8.57
		c0.072-0.141,0.154-0.274,0.245-0.397c0.523-0.707,1.362-1.13,2.245-1.13c0.6,0,1.172,0.189,1.654,0.545
		c0.599,0.443,0.989,1.092,1.1,1.829c0.11,0.737-0.073,1.472-0.516,2.071l-5.912,7.831c0.127,0.311,0.209,0.635,0.243,0.965
		c0.096,0.932-0.177,1.846-0.768,2.573c-0.042,0.051-0.085,0.101-0.129,0.15C15.511,17.678,13.464,18.653,11.269,18.653z
		 M14.282,11.622c-0.07,0-0.14,0.004-0.21,0.011c-0.534,0.055-1.014,0.315-1.353,0.731c-0.518,0.603-0.52,1.365-0.522,2.33
		c-0.002,0.758-0.004,1.596-0.296,2.425c1.497-0.165,2.87-0.911,3.832-2.1c0.052-0.058,0.078-0.089,0.103-0.12
		c0.338-0.416,0.494-0.939,0.439-1.473c-0.02-0.19-0.067-0.376-0.141-0.557c-0.148-0.119-0.244-0.287-0.273-0.472
		c-0.094-0.121-0.201-0.23-0.317-0.325c-0.171-0.14-0.364-0.249-0.573-0.326c-0.041,0.007-0.083,0.01-0.125,0.01
		c-0.116,0-0.227-0.026-0.331-0.078c-0.03-0.015-0.059-0.032-0.087-0.051C14.376,11.624,14.328,11.622,14.282,11.622z
		 M15.923,10.533c0.201,0.107,0.391,0.232,0.568,0.376c0.043,0.035,0.085,0.071,0.127,0.109l5.617-7.44
		c0.201-0.272,0.285-0.61,0.234-0.95c-0.051-0.34-0.231-0.64-0.508-0.845c-0.223-0.165-0.487-0.252-0.764-0.252
		c-0.408,0-0.796,0.195-1.038,0.522c-0.042,0.057-0.079,0.117-0.111,0.18L15.923,10.533z"/>
	<path d="M10.04,23.948c-1.21,0-2.375-0.258-3.463-0.768c-4.142-2.15-7.066-7.12-6.477-9.533c0.225-0.922,0.919-1.451,1.903-1.451
		c1.452,0,1.856,0.907,2.151,1.57c0.391,0.877,0.834,1.871,3.59,2.569c0.194,0.049,0.357,0.171,0.46,0.343
		c0.103,0.172,0.132,0.374,0.083,0.568c-0.084,0.333-0.383,0.566-0.726,0.566c-0.062,0-0.125-0.008-0.186-0.023
		c-3.461-0.877-4.141-2.403-4.591-3.413c-0.274-0.615-0.303-0.68-0.781-0.68c-0.317,0-0.394,0.094-0.445,0.307
		c-0.154,0.63,0.187,2.026,1.294,3.726c1.144,1.756,2.744,3.252,4.389,4.107c0.869,0.406,1.815,0.615,2.799,0.615
		c1.757,0,3.477-0.7,4.719-1.92l0.072-0.073c0.142-0.144,0.332-0.224,0.535-0.224c0.198,0,0.385,0.077,0.526,0.216
		c0.142,0.14,0.222,0.328,0.223,0.528s-0.075,0.389-0.216,0.532l-0.081,0.082C14.27,23.113,12.22,23.948,10.04,23.948z"/>
</g>
</svg>
