
<svg version="1.1" id="target" xmlns="http://www.w3.org/2000/svg" xmlns:xlink="http://www.w3.org/1999/xlink" x="0px" y="0px"
	 viewBox="0 0 24 24" style="enable-background:new 0 0 24 24;" xml:space="preserve">
<title>flag-plain-1</title>
<g>
	<path d="M8.6,17c-0.551,0-1-0.448-1-1c0-0.13,0.026-0.261,0.075-0.378c0.285-0.706,0.9-1.236,1.551-1.622H5
		c-0.276,0-0.5-0.225-0.5-0.5S4.724,13,5,13h6.5V2.5C11.5,2.224,11.276,2,11,2H5C4.724,2,4.5,1.776,4.5,1.5S4.724,1,5,1h6
		c0.827,0,1.5,0.673,1.5,1.5V4H20c0.827,0,1.5,0.673,1.5,1.5v10c0,0.827-0.673,1.5-1.5,1.5H8.6z M12.5,13.568l-0.048,0.095
		c0,0.02-0.021,0.094-0.081,0.162l-0.032,0.037l-0.085,0.05l-0.049,0.04l-0.111,0.039c-0.033,0.007-2.914,0.572-3.493,2.01L20,16
		c0.275,0,0.5-0.225,0.5-0.5v-10C20.5,5.224,20.275,5,20,5h-7.5V13.568z"/>
	<path d="M3,24c-0.276,0-0.5-0.225-0.5-0.5v-23C2.5,0.224,2.724,0,3,0s0.5,0.224,0.5,0.5v23C3.5,23.775,3.276,24,3,24z"/>
</g>
</svg>
