<svg id="target" xmlns="http://www.w3.org/2000/svg" viewBox="0 0 24 24"><title>business-shark-1</title><path d="M5.634,2.439a2.2,2.2,0,0,0-.477,1.394v6.9a.251.251,0,0,0,.29.248,4.381,4.381,0,0,1,3.332.8l.144.108a.251.251,0,0,0,.3,0l.141-.107h0a4.416,4.416,0,0,1,5.27,0l.143.108a.251.251,0,0,0,.3,0l.141-.107h0a4.364,4.364,0,0,1,2.517-.858.25.25,0,0,0,.218-.361A15.526,15.526,0,0,0,7.039,1.9,1.457,1.457,0,0,0,5.634,2.439Z"/><path d="M.582,20.76c.04.029,1.172.878,1.172.879a2.453,2.453,0,0,0,2.928,0l1.17-.879a.491.491,0,0,1,.585,0l1.172.879a2.453,2.453,0,0,0,2.928,0l1.17-.879a.491.491,0,0,1,.585,0l1.172.879a2.453,2.453,0,0,0,2.928,0l1.17-.879a.491.491,0,0,1,.585,0l1.172.879a2.456,2.456,0,0,0,2.928,0l1.171-.879A.976.976,0,0,0,22.246,19.2l-1.17.878a.492.492,0,0,1-.586,0L19.318,19.2a2.45,2.45,0,0,0-2.927,0l-1.17.878a.492.492,0,0,1-.586,0L13.463,19.2a2.45,2.45,0,0,0-2.927,0l-1.17.878a.492.492,0,0,1-.586,0L7.608,19.2a2.45,2.45,0,0,0-2.927,0l-1.171.878a.491.491,0,0,1-.585,0L1.754,19.2A.976.976,0,0,0,.582,20.76Z"/><path d="M3.51,14.223a.492.492,0,0,1-.585,0l-1.171-.879A.976.976,0,0,0,.582,14.9c.04.031,1.172.879,1.172.879a2.45,2.45,0,0,0,2.928,0l1.17-.879a.492.492,0,0,1,.585,0l1.172.879a2.45,2.45,0,0,0,2.928,0l1.17-.879a.492.492,0,0,1,.585,0l1.172.879a2.45,2.45,0,0,0,2.928,0l1.17-.879a.492.492,0,0,1,.585,0l1.172.879a2.448,2.448,0,0,0,2.928,0l1.171-.879a.976.976,0,0,0-1.172-1.56l-1.17.879a.494.494,0,0,1-.586,0l-1.172-.879a2.448,2.448,0,0,0-2.927,0l-1.17.879a.494.494,0,0,1-.586,0l-1.172-.879a2.448,2.448,0,0,0-2.927,0l-1.17.879a.494.494,0,0,1-.586,0l-1.172-.879a2.448,2.448,0,0,0-2.927,0Z"/></svg>
