
<svg version="1.1" id="target" xmlns="http://www.w3.org/2000/svg" xmlns:xlink="http://www.w3.org/1999/xlink" x="0px" y="0px"
	 viewBox="0 0 24 24" style="enable-background:new 0 0 24 24;" xml:space="preserve">
<g>
	<title>business-flame</title>
	<path d="M2.531,17.75c-1.378,0-2.513-1.123-2.531-2.503c0-0.148,0.012-0.292,0.036-0.43l1.281-7.502
		c0.168-0.923,0.937-1.565,1.871-1.565l1.311,0c0.414,0,0.75,0.336,0.75,0.75s-0.336,0.75-0.75,0.75H3.2
		c-0.208,0-0.37,0.134-0.405,0.325l-1.281,7.498C1.505,15.128,1.5,15.182,1.5,15.234c0.007,0.558,0.472,1.015,1.036,1.015l18.908,0
		c0.58,0,1.046-0.459,1.053-1.023c0-0.045-0.005-0.098-0.014-0.15L21.2,7.567c-0.033-0.182-0.195-0.317-0.384-0.317l-1.316,0
		c-0.414,0-0.75-0.336-0.75-0.75s0.336-0.75,0.75-0.75h1.3c0.929,0,1.713,0.655,1.877,1.557l1.283,7.514
		c0.024,0.136,0.036,0.277,0.036,0.418c-0.018,1.387-1.161,2.511-2.547,2.511L2.531,17.75z"/>
	<path d="M1.728,20.749c-0.414,0-0.75-0.336-0.75-0.75s0.336-0.75,0.75-0.75h20.544c0.414,0,0.75,0.336,0.75,0.75
		s-0.336,0.75-0.75,0.75H1.728z"/>
	<path d="M3,23.749c-0.414,0-0.75-0.336-0.75-0.75s0.336-0.75,0.75-0.75h18.587c0.414,0,0.75,0.336,0.75,0.75s-0.336,0.75-0.75,0.75
		H3z"/>
	<path d="M12.106,13.856c-1.475,0-2.871-0.567-3.93-1.596c-1.081-1.05-1.688-2.459-1.709-3.966c-0.001-0.054-0.001-0.108,0-0.162
		C6.54,4.771,8.571,1.72,11.641,0.357c0.16-0.072,0.331-0.108,0.505-0.108c0.15,0,0.299,0.027,0.441,0.081
		c0.31,0.118,0.555,0.349,0.69,0.651c0.164,0.365,0.141,0.788-0.06,1.133c-0.443,0.735-0.459,1.63-0.075,2.362
		c0.083-0.158,0.152-0.323,0.204-0.495c0.168-0.524,0.644-0.871,1.185-0.871c0.128,0,0.255,0.02,0.378,0.059
		c0.109,0.035,0.213,0.085,0.309,0.15c1.59,1.099,2.535,2.902,2.532,4.826c0.021,1.496-0.546,2.919-1.597,4
		c-1.052,1.081-2.459,1.689-3.964,1.71L12.106,13.856z M11.59,2.063C9.42,3.311,8.022,5.63,7.967,8.161c0,0.034,0,0.073,0,0.111
		c0.016,1.108,0.461,2.142,1.255,2.913c0.777,0.755,1.805,1.172,2.892,1.172l0.054,0c1.104-0.016,2.137-0.462,2.909-1.256
		s1.188-1.84,1.173-2.944c0.002-1.321-0.588-2.559-1.593-3.383c-0.218,0.543-0.551,1.044-0.974,1.461
		c-0.141,0.139-0.328,0.216-0.526,0.216c-0.186,0-0.365-0.069-0.503-0.193C11.47,5.188,11.075,3.522,11.59,2.063z"/>
</g>
</svg>
