<svg id="target" xmlns="http://www.w3.org/2000/svg" viewBox="0 0 24 24"><title>police-woman-2</title><path d="M.5,23.5A.5.5,0,0,0,1,24H23a.5.5,0,0,0,.5-.5V21.394a2.464,2.464,0,0,0-.967-1.977C21.105,18.327,17.838,16.5,12,16.5S2.9,18.327,1.466,19.417A2.466,2.466,0,0,0,.5,21.394Zm14.25-3.07V19.5a.25.25,0,0,1,.25-.25h3a.25.25,0,0,1,.25.25v.93a2.246,2.246,0,0,1-1,1.872l-.609.406a.251.251,0,0,1-.278,0l-.609-.406A2.246,2.246,0,0,1,14.75,20.43Z"/><path d="M19.345,5.75a.014.014,0,0,0,.012-.006.016.016,0,0,0,0-.013,7.593,7.593,0,0,0-14.64-.3.25.25,0,0,0,.24.32Zm-7.187-.775a.512.512,0,0,1-.316,0A2.978,2.978,0,0,1,10,2a.5.5,0,0,1,.5-.5h3A.5.5,0,0,1,14,2,2.978,2.978,0,0,1,12.158,4.975Z"/><path d="M13,11.861H11a.64.64,0,0,0-.3,1.2,2.4,2.4,0,0,0,.436.18A2.255,2.255,0,0,0,12,13.37h.019a2.966,2.966,0,0,0,.852-.126,2.47,2.47,0,0,0,.431-.179.64.64,0,0,0-.3-1.2Z"/><path d="M17.146,15.838A5.4,5.4,0,0,0,18.463,16a3.8,3.8,0,0,0,2.921-1.12.5.5,0,0,0-.231-.8c-2.411-.774-2.209-4.143-2.16-4.887A.247.247,0,0,1,19.11,9a1.392,1.392,0,0,0,.454-.44,1.493,1.493,0,0,0,.178-1.154.206.206,0,0,0-.2-.156H4.458a.206.206,0,0,0-.2.156A1.493,1.493,0,0,0,4.436,8.56,1.366,1.366,0,0,0,4.891,9a.252.252,0,0,1,.117.2c.052.731.265,4.048-2.161,4.828a.5.5,0,0,0-.231.8,3.8,3.8,0,0,0,2.921,1.12,5.351,5.351,0,0,0,1.317-.161,3.461,3.461,0,0,0,1.029-.436.25.25,0,0,1,.273,0,6.97,6.97,0,0,0,7.643.032.252.252,0,0,1,.275,0A3.478,3.478,0,0,0,17.146,15.838ZM7.018,9.866a.251.251,0,0,1,.081-.2A.248.248,0,0,1,7.307,9.6,29.94,29.94,0,0,0,12,10a29.667,29.667,0,0,0,4.692-.4.251.251,0,0,1,.29.265,5,5,0,0,1-9.964,0Z"/></svg>
