
<svg version="1.1" id="target" xmlns="http://www.w3.org/2000/svg" xmlns:xlink="http://www.w3.org/1999/xlink" x="0px" y="0px"
	 viewBox="0 0 24 24" style="enable-background:new 0 0 24 24;" xml:space="preserve">
<title>mood-happy-laptop</title>
<g>
	<path d="M3.5,24C1.57,24,0,22.43,0,20.5C0,20.225,0.224,20,0.5,20H3V9.167C3,7.972,3.972,7,5.167,7H9c0.276,0,0.5,0.224,0.5,0.5
		S9.276,8,9,8H5.167C4.523,8,4,8.523,4,9.167V20h16v-6c0-0.275,0.225-0.5,0.5-0.5S21,13.725,21,14v6h2.5c0.275,0,0.5,0.225,0.5,0.5
		c0,1.93-1.57,3.5-3.5,3.5H3.5z M1.05,21c0.235,1.142,1.262,2,2.45,2h17c1.188,0,2.215-0.858,2.449-2H1.05z"/>
	<circle cx="15.25" cy="4.75" r="0.75"/>
	<circle cx="19.75" cy="4.75" r="0.75"/>
	<path d="M17.5,10.5C16.121,10.5,15,9.378,15,8c0-0.276,0.225-0.5,0.5-0.5h4C19.775,7.5,20,7.724,20,8
		C20,9.378,18.879,10.5,17.5,10.5z M16.086,8.5c0.209,0.586,0.773,1,1.414,1s1.205-0.414,1.414-1H16.086z"/>
	<path d="M10.5,14c-0.133,0-0.259-0.052-0.354-0.146c-0.149-0.15-0.188-0.378-0.098-0.568l1.671-3.511
		C11.204,8.781,10.955,7.668,11,6.546c-0.007-1.792,0.66-3.414,1.875-4.639C14.092,0.684,15.71,0.006,17.431,0
		c1.229,0,2.426,0.341,3.464,0.985c3.076,1.907,4.027,5.961,2.121,9.038c-1.206,1.943-3.295,3.104-5.59,3.104
		c-1.124,0-2.23-0.292-3.209-0.843l-3.502,1.667C10.649,13.983,10.576,14,10.5,14z M17.435,1c-1.455,0.005-2.821,0.578-3.85,1.612
		c-1.028,1.035-1.591,2.406-1.586,3.86L12,6.573c-0.042,1.033,0.206,2.049,0.714,2.938c0.082,0.14,0.088,0.313,0.018,0.462
		l-1.176,2.469l2.47-1.176c0.063-0.032,0.139-0.049,0.214-0.049c0.093,0,0.185,0.026,0.265,0.076
		c0.879,0.545,1.89,0.833,2.922,0.833c1.946,0,3.718-0.983,4.737-2.631c0.784-1.263,1.028-2.756,0.689-4.203
		c-0.341-1.447-1.224-2.675-2.486-3.458C19.487,1.289,18.473,1,17.435,1l0.001-0.25L17.435,1z"/>
</g>
</svg>
