
<svg version="1.1" id="target" xmlns="http://www.w3.org/2000/svg" xmlns:xlink="http://www.w3.org/1999/xlink" x="0px" y="0px"
	 viewBox="0 0 24 24" style="enable-background:new 0 0 24 24;" xml:space="preserve">
<title>analytics-graph-bar-1</title>
<g>
	<path d="M0.504,24c-0.276,0-0.5-0.225-0.5-0.5s0.224-0.5,0.5-0.5H1v-3c0-0.552,0.449-1,1-1h2c0.551,0,1,0.448,1,1v3h2v-8
		c0-0.552,0.449-1,1-1h2c0.551,0,1,0.448,1,1v8h2v-5c0-0.552,0.448-1,1-1h2c0.552,0,1,0.448,1,1v5h2V10c0-0.551,0.448-1,1-1h2
		c0.552,0,1,0.449,1,1v13h0.504c0.275,0,0.5,0.225,0.5,0.5s-0.225,0.5-0.5,0.5H0.504z M22,23V10l-2,0v13H22z M16,23v-5
		c0,0-2,0-2,0.001V23H16z M10,23v-8c0,0-2,0-2,0.001V23H10z M4,23v-3c0,0-2,0-2,0.001V23H4z"/>
	<path d="M2.504,12.5c-1.378,0-2.5-1.122-2.5-2.5s1.122-2.5,2.5-2.5c0.489,0,0.959,0.145,1.371,0.422l2.051-2.051
		C5.649,5.459,5.504,4.989,5.504,4.5c0-1.378,1.122-2.5,2.5-2.5s2.5,1.122,2.5,2.5c0,0.272-0.045,0.541-0.134,0.801l1.777,1.037
		C12.623,5.803,13.288,5.5,14.004,5.5c0.598,0,1.163,0.21,1.615,0.595l3.154-2.479c-0.177-0.35-0.27-0.731-0.27-1.116
		c0-1.378,1.121-2.5,2.5-2.5s2.5,1.122,2.5,2.5S22.383,5,21.004,5c-0.598,0-1.163-0.21-1.615-0.595l-3.154,2.479
		c0.177,0.35,0.27,0.731,0.27,1.116c0,1.378-1.121,2.5-2.5,2.5c-1.378,0-2.5-1.122-2.5-2.5c0-0.272,0.045-0.541,0.134-0.801
		L9.861,6.162C9.385,6.697,8.72,7,8.004,7C7.515,7,7.045,6.855,6.633,6.578L4.582,8.629C4.859,9.041,5.004,9.511,5.004,10
		C5.004,11.378,3.882,12.5,2.504,12.5z M2.504,8.5c-0.827,0-1.5,0.673-1.5,1.5s0.673,1.5,1.5,1.5s1.5-0.673,1.5-1.5
		S3.331,8.5,2.504,8.5z M14.004,6.5c-0.827,0-1.5,0.673-1.5,1.5s0.673,1.5,1.5,1.5s1.5-0.673,1.5-1.5S14.831,6.5,14.004,6.5z
		 M8.004,3c-0.827,0-1.5,0.673-1.5,1.5S7.177,6,8.004,6s1.5-0.673,1.5-1.5S8.831,3,8.004,3z M21.004,1c-0.827,0-1.5,0.673-1.5,1.5
		s0.673,1.5,1.5,1.5s1.5-0.673,1.5-1.5S21.831,1,21.004,1z"/>
</g>
</svg>
