<svg id="target" xmlns="http://www.w3.org/2000/svg" viewBox="0 0 24 24"><title>business-team-goal</title><path d="M23.012.033H17.107a1.725,1.725,0,0,0-1.723,1.722V5.2a.492.492,0,1,1-.984,0V2.251A.25.25,0,0,0,14.15,2H9.725A.738.738,0,0,0,9.2,3.262l1.762,1.761a.252.252,0,0,1,0,.354L9.2,7.139A.737.737,0,0,0,9.725,8.4h7.382a1.724,1.724,0,0,0,1.722-1.721.245.245,0,0,1,.246-.246h2.456a.249.249,0,0,1,.25.25V22.916a.985.985,0,0,0,1.969,0V1.018a.233.233,0,0,0-.011-.065.224.224,0,0,1,0-.115A.247.247,0,0,0,23.75.771.738.738,0,0,0,23.012.033Z"/><path d="M2.471,20.839A4.669,4.669,0,0,0,.282,23.3a.491.491,0,0,0,.46.666H7.308a.25.25,0,0,0,.25-.264c0-.076-.007-.151-.007-.228A6.869,6.869,0,0,1,7.786,21.7a.249.249,0,0,0-.077-.253,4.552,4.552,0,0,0-.964-.643.253.253,0,0,1-.136-.2.248.248,0,0,1,.095-.221,3.448,3.448,0,1,0-5.577-2.707,3.426,3.426,0,0,0,1.378,2.74.25.25,0,0,1-.034.42ZM2.7,17.1a.25.25,0,0,1,.373-.133,4.452,4.452,0,0,0,2.417.716,4.25,4.25,0,0,0,.936-.111.114.114,0,0,1,.094.023.111.111,0,0,1,.042.088,1.978,1.978,0,0,1-3.955,0A1.9,1.9,0,0,1,2.7,17.1Z"/><path d="M12.3,18.289a5.7,5.7,0,0,0-3.354,5.187.492.492,0,0,0,.492.492H19.854a.492.492,0,0,0,.492-.492,5.705,5.705,0,0,0-3.431-5.224.248.248,0,0,1-.15-.208.253.253,0,0,1,.113-.231,3.859,3.859,0,0,0,.623-.5,4.13,4.13,0,1,0-5.928-.094,4.062,4.062,0,0,0,.76.635.246.246,0,0,1,.113.228A.251.251,0,0,1,12.3,18.289Zm3.084,3.264a.738.738,0,1,1-1.476,0V20.342a.738.738,0,0,1,1.476,0ZM11.929,14.41A2.531,2.531,0,0,1,12.1,13.5a.25.25,0,0,1,.16-.149.247.247,0,0,1,.217.035A5.587,5.587,0,0,0,15.7,14.41a5.53,5.53,0,0,0,1.314-.161.166.166,0,0,1,.141.03.17.17,0,0,1,.064.131,2.639,2.639,0,0,1-1.393,2.317,2.646,2.646,0,0,1-3.9-2.317Z"/></svg>
