
<svg version="1.1" id="target" xmlns="http://www.w3.org/2000/svg" xmlns:xlink="http://www.w3.org/1999/xlink" x="0px" y="0px"
	 viewBox="0 0 24 24" style="enable-background:new 0 0 24 24;" xml:space="preserve">
<title>certified-ribbon-2</title>
<g>
	<path d="M3.915,23.76c-0.154,0-0.299-0.035-0.43-0.105c-0.325-0.177-0.51-0.537-0.51-0.988v-21c0-0.827,0.673-1.5,1.5-1.5h15
		c0.827,0,1.5,0.673,1.5,1.5v21c0,0.45-0.185,0.809-0.507,0.985c-0.133,0.071-0.278,0.107-0.434,0.107c0,0,0,0-0.001,0
		c-0.221,0-0.452-0.075-0.67-0.216l-7.388-4.781l-7.389,4.781C4.368,23.685,4.135,23.76,3.915,23.76z M4.475,1.166
		c-0.276,0-0.5,0.224-0.5,0.5v21c0,0.031,0.002,0.057,0.005,0.077c0.014-0.011,7.724-4.997,7.724-4.997
		c0.081-0.052,0.175-0.079,0.271-0.079s0.19,0.027,0.271,0.079l7.66,4.957c0.026,0.017,0.049,0.029,0.067,0.038
		c-0.001-0.019,0.001-21.075,0.001-21.075c0-0.276-0.225-0.5-0.5-0.5H4.475z"/>
	<path d="M10.906,14.004c-0.254,0-0.501-0.075-0.715-0.218c-0.104-0.068-0.196-0.151-0.277-0.248L6.606,9.924
		C6.42,9.72,6.434,9.403,6.637,9.217c0.092-0.085,0.212-0.132,0.338-0.132c0.14,0,0.274,0.059,0.369,0.163l3.326,3.633l0.076,0.072
		c0.048,0.033,0.104,0.049,0.163,0.049c0.134-0.02,0.2-0.064,0.243-0.13l6.045-8.219c0.094-0.128,0.244-0.204,0.403-0.204
		c0.107,0,0.21,0.034,0.297,0.098c0.106,0.078,0.177,0.194,0.196,0.326c0.021,0.133-0.013,0.265-0.092,0.373l-6.032,8.2
		c-0.177,0.268-0.475,0.465-0.809,0.531C11.077,13.995,10.991,14.004,10.906,14.004z"/>
</g>
</svg>
