
<svg version="1.1" id="target" xmlns="http://www.w3.org/2000/svg" xmlns:xlink="http://www.w3.org/1999/xlink" x="0px" y="0px"
	 viewBox="0 0 24 24" style="enable-background:new 0 0 24 24;" xml:space="preserve">
<title>business-deal-handshake-1</title>
<g>
	<path d="M10.63,19.25c-0.546,0-1.063-0.236-1.419-0.649L5.776,14.75H3.889c-0.209,0.598-0.755,1-1.389,1h-2
		c-0.276,0-0.5-0.225-0.5-0.5s0.224-0.5,0.5-0.5h2c0.276,0,0.5-0.225,0.5-0.5v-7c0-0.276-0.224-0.5-0.5-0.5h-2
		C0.224,6.75,0,6.526,0,6.25s0.224-0.5,0.5-0.5h2c0.827,0,1.5,0.673,1.5,1.5v0.261l3.931-1.575c0.316-0.126,0.647-0.19,0.983-0.19
		c0.567,0,1.11,0.18,1.57,0.521l0.138,0.113l2.645-1.322c0.401-0.2,0.852-0.305,1.303-0.305c0.344,0,0.682,0.059,1.003,0.176
		l4.599,1.669C20.417,6.082,20.924,5.75,21.5,5.75h2c0.275,0,0.5,0.224,0.5,0.5s-0.225,0.5-0.5,0.5h-2c-0.275,0-0.5,0.224-0.5,0.5v7
		c0,0.275,0.225,0.5,0.5,0.5h2c0.275,0,0.5,0.225,0.5,0.5s-0.225,0.5-0.5,0.5h-2c-0.599,0-1.129-0.369-1.359-0.923l-5.223,0.992
		c-0.02,0.082-0.043,0.164-0.074,0.243c-0.218,0.545-0.634,0.972-1.172,1.202c-0.278,0.119-0.569,0.18-0.866,0.18
		c-0.103,0-0.205-0.007-0.307-0.021c-0.012,0.529-0.248,1.028-0.65,1.375C11.51,19.09,11.077,19.25,10.63,19.25z M6,13.75
		c0.143,0,0.279,0.062,0.374,0.169l3.589,4.023c0.17,0.197,0.412,0.308,0.668,0.308c0.208,0,0.409-0.074,0.566-0.21
		c0.192-0.165,0.303-0.406,0.303-0.661v-0.422l-0.854-0.854c-0.195-0.195-0.195-0.512,0-0.707c0.094-0.095,0.22-0.146,0.354-0.146
		s0.259,0.052,0.354,0.146l0.965,0.965l0.047-0.002c0.141,0.055,0.289,0.083,0.44,0.083c0.162,0,0.32-0.032,0.473-0.097
		c0.292-0.125,0.518-0.357,0.636-0.653c0.033-0.083,0.051-0.174,0.061-0.261l-1.328-1.328c-0.195-0.195-0.195-0.512,0-0.707
		c0.095-0.095,0.221-0.146,0.354-0.146s0.26,0.053,0.354,0.147l1.353,1.353H15c0.552,0,1-0.448,1-1c0-0.215-0.071-0.428-0.2-0.6
		l-2.982-3.821L11.09,9.896c-0.171,0.055-0.347,0.083-0.523,0.083c-0.264,0-0.529-0.064-0.767-0.186
		C9.399,9.589,9.103,9.239,8.964,8.81C8.731,8.091,9,7.326,9.606,6.907C9.378,6.795,9.149,6.746,8.915,6.746
		c-0.21,0-0.416,0.04-0.612,0.119L4,8.588v5.162H6z M16.595,12.542C16.857,12.893,17,13.32,17,13.75
		c0,0.233-0.041,0.462-0.121,0.679L20,13.836V7.601L15.23,5.87c-0.212-0.077-0.435-0.116-0.661-0.116
		c-0.298,0-0.595,0.069-0.857,0.2L10.258,7.68C9.956,7.833,9.811,8.179,9.916,8.503c0.057,0.175,0.178,0.317,0.341,0.4
		c0.099,0.05,0.204,0.076,0.312,0.076c0.071,0,0.143-0.012,0.213-0.034l3.601-1.183l0.121-0.013c0.216,0,0.405,0.139,0.473,0.345
		c0.085,0.261-0.058,0.544-0.319,0.63l-0.829,0.272L16.595,12.542z"/>
</g>
</svg>
