<svg id="target" xmlns="http://www.w3.org/2000/svg" viewBox="0 0 24 24"><title>renewable-energy-solar-panel</title><rect x="11.225" y="20.25" width="4" height="3.75" rx="0.5" ry="0.5"/><path d="M13.725,13.25v1.5a.5.5,0,0,0,.5.5h7.7a.25.25,0,0,0,.218-.371l-1.039-1.872a.5.5,0,0,0-.438-.257H14.225A.5.5,0,0,0,13.725,13.25Z"/><path d="M12.225,12.75H5.781a.5.5,0,0,0-.437.257L4.3,14.879a.25.25,0,0,0,.219.371h7.7a.5.5,0,0,0,.5-.5v-1.5A.5.5,0,0,0,12.225,12.75Z"/><path d="M13.725,9.75v1.5a.5.5,0,0,0,.5.5h5.758a.25.25,0,0,0,.219-.371l-.9-1.615a1,1,0,0,0-.874-.514H14.225A.5.5,0,0,0,13.725,9.75Z"/><path d="M12.725,9.75a.5.5,0,0,0-.5-.5H8.019a1,1,0,0,0-.874.515l-.9,1.614a.25.25,0,0,0,.218.371h5.758a.5.5,0,0,0,.5-.5Z"/><path d="M23.749,17.765l-.7-1.258a.5.5,0,0,0-.437-.257H14.225a.5.5,0,0,0-.5.5v2a.5.5,0,0,0,.5.5h8.65a1,1,0,0,0,.874-1.485Z"/><path d="M12.725,18.75v-2a.5.5,0,0,0-.5-.5H3.836a.5.5,0,0,0-.437.257l-.7,1.258a1,1,0,0,0,.875,1.485h8.65A.5.5,0,0,0,12.725,18.75Z"/><path d="M4.581,9.75a.75.75,0,1,0,1.117-1,2.25,2.25,0,1,1,3.927-1.5.75.75,0,0,0,1.5,0,3.75,3.75,0,1,0-6.544,2.5Z"/><path d="M7.375,2.5a.75.75,0,0,0,.75-.75v-1a.75.75,0,0,0-1.5,0v1A.75.75,0,0,0,7.375,2.5Z"/><path d="M11.8,3.891l.707-.707a.75.75,0,1,0-1.061-1.06l-.707.707A.75.75,0,0,0,11.8,3.891Z"/><path d="M12.125,7.25a.75.75,0,0,0,.75.75h1a.75.75,0,0,0,0-1.5h-1A.75.75,0,0,0,12.125,7.25Z"/><path d="M2.956,3.891a.75.75,0,0,0,1.06-1.06l-.707-.707a.75.75,0,1,0-1.06,1.06Z"/><path d="M3.309,12.376l.707-.707a.75.75,0,1,0-1.06-1.06l-.707.707a.75.75,0,1,0,1.06,1.06Z"/><path d="M2.625,7.25a.75.75,0,0,0-.75-.75h-1a.75.75,0,0,0,0,1.5h1A.75.75,0,0,0,2.625,7.25Z"/></svg>
