<svg id="target" xmlns="http://www.w3.org/2000/svg" viewBox="0 0 24 24"><title>people-woman-7</title><path d="M21.8,7.29a.251.251,0,0,1-.2-.175,10.047,10.047,0,0,0-19.21,0,.251.251,0,0,1-.2.175A2.655,2.655,0,0,0,0,9.9v2.667a2.667,2.667,0,0,0,2.667,2.666A1.333,1.333,0,0,0,4,13.9C4,9.01,4,10.421,4,9.253,4,5.1,7.839,2.015,12,2.015S20,5.1,20,9.253c0,1.168,0-.243,0,4.649a1.333,1.333,0,0,0,1.333,1.333A2.667,2.667,0,0,0,24,12.569V9.9A2.655,2.655,0,0,0,21.8,7.29Z"/><path d="M7.36,19.53C4.963,20.012.5,20.908.5,23.485a.5.5,0,0,0,.5.5H23a.5.5,0,0,0,.5-.5c0-2.577-4.466-3.473-6.875-3.958a.5.5,0,0,0-.48.175c-.112.136-.756,1.729-4.142,1.729-3.187,0-3.855-1.371-4.145-1.722A.519.519,0,0,0,7.36,19.53Z"/><path d="M14.858,18.592a7.052,7.052,0,0,0,.737-.4.25.25,0,0,1,.294.022,2.526,2.526,0,0,0,.6.375h0a4.153,4.153,0,0,0,.658.232,5.351,5.351,0,0,0,1.317.161,3.8,3.8,0,0,0,2.921-1.12.5.5,0,0,0-.231-.8c-2.71-.87-2.4-5.231-2.4-6.584a6.75,6.75,0,0,0-13.5,0c0,.659.431,5.615-2.4,6.525a.5.5,0,0,0-.231.8,3.8,3.8,0,0,0,2.921,1.12,5.4,5.4,0,0,0,1.317-.161,3.238,3.238,0,0,0,1.223-.579.248.248,0,0,1,.289-.016,7.077,7.077,0,0,0,.776.422,6.673,6.673,0,0,0,5.716,0ZM6.75,12.485v-.943A.249.249,0,0,1,7,11.292a7.177,7.177,0,0,0,4.94-1.7.1.1,0,0,1,.126,0,7.248,7.248,0,0,0,5.085,1.7.1.1,0,0,1,.1.1v1.089a5.25,5.25,0,0,1-10.5,0Z"/><circle cx="14" cy="12.735" r="1"/><circle cx="10" cy="12.735" r="1"/><path d="M12.943,16.23a2.309,2.309,0,0,0,.441-.183.639.639,0,0,0-.307-1.2h-2a.639.639,0,0,0-.307,1.2,2.357,2.357,0,0,0,.438.183,3.061,3.061,0,0,0,1.735,0Z"/></svg>
