
<svg version="1.1" id="target" xmlns="http://www.w3.org/2000/svg" xmlns:xlink="http://www.w3.org/1999/xlink" x="0px" y="0px"
	 viewBox="0 0 24 24" style="enable-background:new 0 0 24 24;" xml:space="preserve">
<title>professions-man-magician</title>
<g>
	<path d="M15.283,23.846c-0.15,0-0.298-0.034-0.438-0.101L12,22.321l-2.838,1.42c-0.143,0.068-0.291,0.103-0.445,0.103
		c-0.386,0-0.745-0.224-0.913-0.569c-0.401-0.999-0.401-2.024-0.029-2.955c0.097-0.248,0.287-0.446,0.535-0.555
		c0.131-0.057,0.267-0.085,0.405-0.085c0.127,0,0.252,0.024,0.371,0.071L12,21.204l2.838-1.419c0.196-0.082,0.32-0.105,0.446-0.105
		c0.141,0,0.277,0.028,0.406,0.086c0.248,0.107,0.438,0.306,0.536,0.559c0.371,0.926,0.371,1.95-0.001,2.881
		c-0.146,0.311-0.351,0.493-0.606,0.583C15.51,23.826,15.396,23.846,15.283,23.846z M15.286,22.847l0.028-0.06
		c0.258-0.678,0.252-1.421-0.019-2.097l-0.011-0.01v-0.25l-0.003,0.25l-2.164,1.082L15.286,22.847z M8.715,22.846l2.167-1.083
		L8.715,20.68c-0.289,0.701-0.289,1.463-0.013,2.154l0.002,0.005C8.705,22.839,8.712,22.846,8.715,22.846z"/>
	<path d="M12,16.513c-3.033,0-5.5-2.467-5.5-5.5V9.145C5.055,8.982,3.655,8.767,2.337,8.503C2.207,8.478,2.093,8.402,2.019,8.291
		c-0.074-0.111-0.1-0.244-0.074-0.375c0.047-0.233,0.254-0.402,0.492-0.402c1.332,0.257,2.619,0.457,4.004,0.617l-0.44-6.627
		C5.986,1.281,6.122,1.074,6.331,1C8.15,0.347,10.058,0.016,12,0.016c1.943,0,3.849,0.331,5.668,0.984
		c0.209,0.075,0.345,0.282,0.329,0.505L17.56,8.131c1.384-0.16,2.665-0.359,3.908-0.608l0.104-0.011c0.235,0,0.438,0.17,0.484,0.404
		c0.026,0.129,0,0.263-0.074,0.374s-0.188,0.187-0.318,0.213C20.33,8.77,18.966,8.98,17.499,9.145l0.001,1.868
		C17.5,14.046,15.032,16.513,12,16.513z M7.5,11.013c0,2.481,2.019,4.5,4.5,4.5s4.5-2.019,4.5-4.5V9.255
		c-1.502,0.139-3.015,0.209-4.5,0.209c-1.486,0-2.999-0.07-4.501-0.209L7.5,11.013z M7.45,8.248C8.96,8.392,10.489,8.464,12,8.464
		s3.041-0.073,4.549-0.217l0.237-3.575c-1.533-0.23-3.022-0.346-4.43-0.346L11.74,4.328c-1.471,0-2.993,0.116-4.526,0.345
		L7.45,8.248z M12.031,3.329c1.633,0,3.254,0.116,4.822,0.345l0.123-1.855C15.372,1.285,13.698,1.015,12,1.015
		c-1.699,0-3.372,0.27-4.975,0.803l0.123,1.854c1.554-0.229,3.082-0.345,4.544-0.345l0.312,0.002l0.027,0.25V3.329z"/>
	<path d="M12,14.51c-0.647,0-1.287-0.212-1.8-0.597c-0.107-0.08-0.176-0.197-0.195-0.33c-0.019-0.132,0.015-0.264,0.096-0.371
		c0.097-0.127,0.242-0.198,0.4-0.198c0.108,0,0.211,0.033,0.298,0.098c0.343,0.258,0.77,0.399,1.202,0.399
		c0.433,0,0.858-0.142,1.199-0.398c0.091-0.065,0.193-0.099,0.301-0.099c0.158,0,0.304,0.072,0.399,0.197
		c0.166,0.222,0.122,0.536-0.099,0.702C13.286,14.298,12.647,14.51,12,14.51z"/>
	<path d="M23,24.013c-0.275,0-0.5-0.225-0.5-0.5v-1.606c0.003-0.462-0.212-0.903-0.574-1.183c-1.321-1.013-4.367-2.711-9.926-2.711
		c-5.546,0-8.6,1.699-9.926,2.712c-0.362,0.278-0.577,0.72-0.574,1.178v1.61c0,0.275-0.224,0.5-0.5,0.5s-0.5-0.225-0.5-0.5v-1.606
		c-0.005-0.768,0.356-1.506,0.965-1.976c1.428-1.09,4.694-2.918,10.535-2.918c5.854,0,9.113,1.828,10.535,2.918
		c0.608,0.47,0.969,1.209,0.965,1.979v1.604C23.5,23.788,23.275,24.013,23,24.013z"/>
	<circle cx="14" cy="11.013" r="0.75"/>
	<circle cx="10" cy="11.013" r="0.75"/>
</g>
</svg>
