<svg id="target" xmlns="http://www.w3.org/2000/svg" viewBox="0 0 24 24"><title>history-man-napoleon</title><path d="M3.621,9.415,3.628,9.4a4.426,4.426,0,0,1,2.09-2.231L7.39,6.33A2.453,2.453,0,0,0,8.545,5.1l.791-1.845a1.468,1.468,0,0,1,1.351-.891h2.626a1.469,1.469,0,0,1,1.351.89l.79,1.846A2.459,2.459,0,0,0,16.61,6.33l1.672.836a4.411,4.411,0,0,1,2.077,2.2l.006.018.322.936a.245.245,0,0,0,.2.163c.358.052.716.1,1.073.159a.989.989,0,0,0,.883-.3.968.968,0,0,0,.229-.9L22.734,8.1a4.383,4.383,0,0,0-2.485-2.959L18.46,4.348a1.458,1.458,0,0,1-.829-.985L17.439,2.6A3.421,3.421,0,0,0,14.114,0H9.886A3.421,3.421,0,0,0,6.561,2.6l-.192.765a1.457,1.457,0,0,1-.829.986l-1.789.8A4.383,4.383,0,0,0,1.266,8.1L.931,9.442a.974.974,0,0,0,.946,1.211,1.033,1.033,0,0,0,.166-.014c.357-.06.715-.107,1.073-.159a.242.242,0,0,0,.2-.163Z"/><circle cx="6.122" cy="22.531" r="0.735"/><circle cx="17.878" cy="22.531" r="0.735"/><path d="M11.149,15.421a3,3,0,0,0,1.7,0,2.382,2.382,0,0,0,.426-.177.626.626,0,0,0-.3-1.177H11.02a.626.626,0,0,0-.3,1.177A2.3,2.3,0,0,0,11.149,15.421Z"/><circle cx="10.041" cy="11.265" r="0.98"/><path d="M13.96,10.286c-.021,0-.043,0-.065,0a.98.98,0,0,0,.063,1.957l.065,0a.98.98,0,0,0-.063-1.957Z"/><path d="M.245,23.02a.98.98,0,1,0,1.959,0v-.1a.957.957,0,0,1,.369-.769,12.221,12.221,0,0,1,4.719-2.061.247.247,0,0,1,.3.239V23.02a.49.49,0,0,0,.49.49h7.836a.49.49,0,0,0,.49-.49V20.326a.247.247,0,0,1,.3-.239,12.225,12.225,0,0,1,4.718,2.06.959.959,0,0,1,.37.77v.1a.98.98,0,1,0,1.959,0v-.1a2.9,2.9,0,0,0-1.14-2.326,15.354,15.354,0,0,0-7.427-2.757.245.245,0,0,1-.079-.462,6.526,6.526,0,0,0,.593-.338.245.245,0,0,1,.27,0,3.374,3.374,0,0,0,1.906.595,3.429,3.429,0,0,0,1.951-6.248.244.244,0,0,1-.1-.253,3.376,3.376,0,0,0-1.885-3.09l-1.672-.836A3.439,3.439,0,0,1,14.554,5.49l-.79-1.846a.491.491,0,0,0-.451-.3H10.687a.489.489,0,0,0-.451.3L9.445,5.49A3.427,3.427,0,0,1,7.827,7.206l-1.671.836a3.364,3.364,0,0,0-1.88,3.1.246.246,0,0,1-.1.245,3.429,3.429,0,0,0,1.948,6.25,3.374,3.374,0,0,0,1.906-.595.245.245,0,0,1,.27,0,6.526,6.526,0,0,0,.593.338.245.245,0,0,1-.079.462,15.364,15.364,0,0,0-7.428,2.757A2.9,2.9,0,0,0,.245,22.917ZM12,21.551a3.429,3.429,0,0,1-2.773-1.429.245.245,0,0,1,.171-.387,23.744,23.744,0,0,1,5.2,0,.245.245,0,0,1,.171.387A3.429,3.429,0,0,1,12,21.551ZM7.1,11.265V9.843A.245.245,0,0,1,7.347,9.6h9.306a.245.245,0,0,1,.245.245v1.422a4.9,4.9,0,0,1-9.8,0Z"/></svg>
