
<svg version="1.1" id="target" xmlns="http://www.w3.org/2000/svg" xmlns:xlink="http://www.w3.org/1999/xlink" x="0px" y="0px"
	 viewBox="0 0 24 24" style="enable-background:new 0 0 24 24;" xml:space="preserve">
<title>browser-page-account</title>
<g>
	<path d="M2.5,24C1.122,24,0,22.879,0,21.5v-19C0,1.122,1.122,0,2.5,0h19C22.879,0,24,1.122,24,2.5v19c0,1.379-1.121,2.5-2.5,2.5
		H2.5z M1,21.5C1,22.327,1.673,23,2.5,23h19c0.827,0,1.5-0.673,1.5-1.5V6H1V21.5z M23,5V2.5C23,1.673,22.327,1,21.5,1h-19
		C1.673,1,1,1.673,1,2.5V5H23z"/>
	<path d="M14,14c-0.552,0-1-0.448-1-1V9c0-0.551,0.448-1,1-1h6c0.552,0,1,0.449,1,1v4c0,0.552-0.448,1-1,1H14z M14,13h6V9h-6V13z"/>
	<path d="M14,21c-0.552,0-1-0.448-1-1v-4c0-0.552,0.448-1,1-1h6c0.552,0,1,0.448,1,1v4c0,0.552-0.448,1-1,1H14z M14,20h6v-4h-6V20z"
		/>
	<path d="M4,17c-0.551,0-1-0.448-1-1V9c0-0.551,0.449-1,1-1h6c0.551,0,1,0.449,1,1v7c0,0.552-0.449,1-1,1H4z M10,16V9H4v7h0.017
		c0.089-1.063,0.693-2.015,1.611-2.552C5.229,13.074,5,12.557,5,12c0-1.103,0.897-2,2-2s2,0.897,2,2
		c0,0.561-0.232,1.081-0.636,1.455C9.286,13.992,9.893,14.94,9.982,16H10z M8.981,16c-0.124-1.048-0.946-1.884-2.005-2
		c-1.016,0.116-1.832,0.968-1.957,2H8.981z M7,11c-0.551,0-1,0.449-1,1s0.449,1,1,1s1-0.449,1-1S7.551,11,7,11z"/>
	<path d="M4,19c-0.276,0-0.5-0.225-0.5-0.5S3.724,18,4,18h4c0.276,0,0.5,0.225,0.5,0.5S8.276,19,8,19H4z"/>
	<path d="M4,21c-0.276,0-0.5-0.225-0.5-0.5S3.724,20,4,20h4c0.276,0,0.5,0.225,0.5,0.5S8.276,21,8,21H4z"/>
	<circle cx="4" cy="3" r="0.75"/>
	<circle cx="7" cy="3" r="0.75"/>
	<circle cx="10" cy="3" r="0.75"/>
</g>
</svg>
