
<svg version="1.1" id="target" xmlns="http://www.w3.org/2000/svg" xmlns:xlink="http://www.w3.org/1999/xlink" x="0px" y="0px"
	 viewBox="0 0 24 24" style="enable-background:new 0 0 24 24;" xml:space="preserve">
<title>police-man-spy-2</title>
<g>
	<path d="M23,24c-0.275,0-0.5-0.225-0.5-0.5v-1.106c0.003-0.462-0.212-0.903-0.574-1.183c-0.417-0.318-1.088-0.763-2.038-1.199
		l1.065,2.275c0.098,0.211,0.04,0.458-0.141,0.603l-1.25,1.001C19.476,23.961,19.364,24,19.25,24c-0.151,0-0.294-0.068-0.39-0.187
		c-0.173-0.217-0.138-0.531,0.077-0.704l0.943-0.754l-1.351-2.882c-0.308-0.104-0.634-0.204-0.979-0.297l-1.705,4.501
		C15.774,23.87,15.587,24,15.379,24h-0.048l-0.134-0.034c-0.253-0.096-0.383-0.385-0.286-0.643l1.658-4.378
		C15.156,18.649,13.62,18.5,12,18.5c-1.616,0-3.151,0.15-4.568,0.446l1.657,4.376c0.097,0.259-0.034,0.548-0.291,0.646l-0.043,0.016
		L8.621,24c-0.206,0-0.394-0.129-0.467-0.322L6.45,19.179c-0.347,0.094-0.674,0.193-0.982,0.298L4.12,22.355l0.942,0.754
		c0.104,0.083,0.169,0.202,0.185,0.335c0.015,0.133-0.023,0.264-0.106,0.368C5.045,23.932,4.903,24,4.75,24
		c-0.113,0-0.224-0.039-0.312-0.109l-1.25-1c-0.18-0.146-0.238-0.393-0.141-0.603l1.064-2.272c-0.947,0.434-1.619,0.878-2.038,1.197
		C1.711,21.491,1.497,21.932,1.5,22.39v1.11C1.5,23.775,1.276,24,1,24s-0.5-0.225-0.5-0.5v-1.106
		c-0.005-0.768,0.356-1.506,0.965-1.976c0.654-0.497,1.785-1.215,3.465-1.812c0.543-0.192,1.104-0.359,1.68-0.501
		C8.256,17.704,10.07,17.5,12,17.5c2.622,0,4.998,0.37,7.061,1.102c1.688,0.598,2.819,1.316,3.473,1.814
		c0.61,0.472,0.971,1.212,0.967,1.98V23.5C23.5,23.775,23.275,24,23,24z"/>
	<path d="M13.994,17.25c-0.762-0.018-1.474-0.333-1.994-0.875c-0.52,0.542-1.229,0.857-1.988,0.875
		c-4.516,0-5.671-2.016-5.917-2.633c-0.034-0.088-0.046-0.228-0.037-0.304c0.042-0.312,0.309-0.546,0.621-0.546
		c0.323,0.027,0.556,0.038,0.77,0.038c0.594,0,1.071-0.081,1.474-0.254C6,12.4,5.497,10.973,5.5,9.499V8H4
		C3.724,8,3.5,7.776,3.5,7.5S3.724,7,4,7h1.519c0.134-2.172,1.093-5.567,2.665-6.705C8.494,0.089,8.78,0.003,9.075,0.003
		c0.106,0,0.213,0.011,0.317,0.033c0.399,0.083,0.742,0.317,0.965,0.659c0.369,0.534,0.983,0.856,1.641,0.856
		c0.661,0,1.277-0.324,1.649-0.866c0.314-0.433,0.782-0.679,1.287-0.679c0.319,0,0.624,0.1,0.884,0.288
		c1.57,1.137,2.529,4.532,2.663,6.705H20c0.275,0,0.5,0.224,0.5,0.5S20.275,8,20,8h-1.5v1.5c0.003,1.472-0.499,2.897-1.421,4.049
		c0.407,0.174,0.887,0.256,1.482,0.256c0.214,0,0.445-0.011,0.697-0.034c0.006,0,0.013,0,0.021,0c0.055,0,0.17,0.004,0.245,0.031
		c0.32,0.105,0.498,0.459,0.391,0.786c-0.253,0.636-1.41,2.662-5.916,2.662H13.994z M12,15.041c0.182,0,0.349,0.099,0.438,0.258
		c0.317,0.571,0.92,0.936,1.574,0.951c2.83,0,4.078-0.835,4.613-1.45c-0.035,0.001-0.07,0.001-0.105,0.001
		c-2.08,0-2.872-0.947-3.451-1.64c-0.458-0.549-0.761-0.911-1.568-0.911c-0.432,0-0.841,0.185-1.125,0.507
		c-0.092,0.105-0.229,0.166-0.375,0.166s-0.283-0.061-0.376-0.167c-0.283-0.321-0.692-0.506-1.121-0.506
		c-0.811,0-1.113,0.362-1.571,0.911c-0.612,0.733-1.372,1.643-3.511,1.643c-0.015,0-0.029,0-0.044,0
		C5.913,15.416,7.164,16.25,10,16.25c0.645-0.016,1.246-0.38,1.562-0.951C11.651,15.14,11.818,15.041,12,15.041z M6.5,9.5
		c-0.002,1.262,0.441,2.486,1.256,3.476c0.152-0.152,0.289-0.312,0.409-0.456c0.498-0.596,1.062-1.27,2.335-1.27
		c0.545,0,1.069,0.176,1.5,0.5c0.431-0.324,0.955-0.5,1.497-0.5c1.278,0,1.841,0.675,2.338,1.27c0.143,0.171,0.272,0.319,0.41,0.455
		c0.813-0.99,1.258-2.214,1.255-3.474V8c0,0.967-0.267,1.726-0.791,2.256c-0.466,0.472-1.102,0.722-1.837,0.722
		c-1.133,0-2.254-0.585-2.872-1.463c-0.617,0.878-1.738,1.463-2.872,1.463c-0.736,0-1.372-0.25-1.838-0.722
		C6.766,9.725,6.5,8.966,6.5,8V9.5z M12.5,8c0,1.132,1.252,1.978,2.372,1.978c0.322,0,0.779-0.074,1.126-0.425
		C16.331,9.216,16.5,8.693,16.5,8H12.5z M7.5,8c0,0.693,0.169,1.216,0.502,1.553c0.347,0.351,0.804,0.425,1.126,0.425
		c1.12,0,2.372-0.846,2.372-1.978H7.5z M17.479,7c-0.021-0.312-0.062-0.651-0.119-1H6.64C6.583,6.35,6.542,6.689,6.521,7H17.479z
		 M17.158,5c-0.363-1.514-1.037-3.25-1.927-3.895c-0.091-0.066-0.198-0.101-0.31-0.101c-0.17,0-0.331,0.081-0.43,0.217
		c-0.579,0.844-1.488,1.33-2.491,1.33c-0.99,0-1.914-0.486-2.474-1.299c-0.083-0.127-0.2-0.208-0.34-0.237
		C9.15,1.007,9.113,1.003,9.077,1.003c-0.1,0-0.199,0.03-0.285,0.087C7.892,1.741,7.209,3.483,6.843,5H17.158z"/>
	<path d="M13.269,24c-0.235,0-0.436-0.16-0.488-0.39l-0.788-3.501l-0.775,3.5C11.167,23.84,10.966,24,10.73,24l-0.107-0.012
		c-0.132-0.029-0.244-0.107-0.315-0.221c-0.072-0.112-0.095-0.247-0.066-0.377l0.789-3.5c0.099-0.356,0.357-0.619,0.694-0.716
		c0.09-0.025,0.183-0.039,0.275-0.039c0.444,0,0.839,0.3,0.961,0.728l0.795,3.527c0.061,0.269-0.109,0.537-0.379,0.598L13.269,24z"
		/>
</g>
</svg>
