
<svg version="1.1" id="target" xmlns="http://www.w3.org/2000/svg" xmlns:xlink="http://www.w3.org/1999/xlink" x="0px" y="0px"
	 viewBox="0 0 24 24" style="enable-background:new 0 0 24 24;" xml:space="preserve">
<g>
	<title>non-gmo-organic-flask</title>
	<path d="M2.25,24.01C1.009,24.01,0,23,0,21.76c0-0.4,0.107-0.795,0.31-1.14c0.019-0.033,0.04-0.063,0.064-0.092L7.5,11.744V9.759
		c0-0.414,0.336-0.75,0.75-0.75S9,9.345,9,9.759v2.251c0,0.172-0.06,0.339-0.168,0.473l-7.251,8.938
		C1.528,21.526,1.5,21.642,1.5,21.76c0,0.414,0.336,0.75,0.75,0.75h19.5c0.133,0,0.265-0.036,0.38-0.104
		c0.34-0.199,0.465-0.636,0.289-0.985l-7.251-8.939C15.06,12.348,15,12.18,15,12.009v-2.25c0-0.414,0.336-0.75,0.75-0.75
		s0.75,0.336,0.75,0.75v1.984l7.125,8.784c0.025,0.031,0.046,0.062,0.065,0.094c0.303,0.516,0.388,1.122,0.237,1.704
		c-0.151,0.582-0.52,1.07-1.037,1.374c-0.345,0.203-0.74,0.31-1.14,0.31H2.25z"/>
	<path d="M12,16.509c-0.414,0-0.75-0.336-0.75-0.75V7.437C9.762,7.231,8.342,6.589,7.221,5.61C7.195,5.587,7.172,5.564,7.149,5.538
		C6,4.222,5.326,2.536,5.251,0.791C5.242,0.582,5.322,0.377,5.47,0.228c0.14-0.14,0.332-0.22,0.529-0.22
		c0.006,0,0.03,0.001,0.036,0.001c1.743,0.076,3.429,0.75,4.745,1.899c0.026,0.023,0.05,0.047,0.073,0.073
		C11.314,2.51,11.698,3.098,12,3.737c0.302-0.639,0.687-1.227,1.149-1.756c0.023-0.026,0.047-0.05,0.072-0.071
		c1.316-1.149,3.002-1.824,4.747-1.9c0.006,0,0.027-0.001,0.032-0.001c0.2,0,0.389,0.078,0.531,0.219
		c0.148,0.149,0.228,0.353,0.219,0.562C18.675,2.536,18,4.222,16.851,5.538c-0.023,0.026-0.047,0.05-0.072,0.071
		c-1.122,0.98-2.541,1.621-4.029,1.827v8.322C12.75,16.172,12.414,16.509,12,16.509z M8.246,4.513
		c0.821,0.705,1.836,1.19,2.902,1.394c-0.203-1.066-0.689-2.08-1.394-2.901C8.934,2.301,7.918,1.815,6.852,1.611
		C7.056,2.677,7.541,3.692,8.246,4.513z M14.246,3.006c-0.705,0.82-1.19,1.835-1.394,2.901c1.066-0.203,2.081-0.689,2.902-1.394
		c0.705-0.821,1.19-1.836,1.394-2.902C16.082,1.815,15.067,2.301,14.246,3.006z"/>
	<path d="M16.125,19.509c-0.044,0-0.088-0.004-0.13-0.011c-0.513-0.06-0.923-0.47-0.983-0.983C15.004,18.472,15,18.428,15,18.384
		s0.004-0.088,0.011-0.131c0.06-0.513,0.47-0.923,0.983-0.983c0.042-0.008,0.086-0.011,0.131-0.011s0.088,0.004,0.131,0.011
		c0.513,0.06,0.923,0.47,0.983,0.983c0.008,0.042,0.011,0.086,0.011,0.131s-0.004,0.088-0.011,0.131
		c-0.06,0.513-0.47,0.923-0.983,0.983C16.213,19.505,16.17,19.509,16.125,19.509z"/>
	<path d="M8.625,18.009c-0.044,0-0.088-0.004-0.13-0.011c-0.513-0.06-0.923-0.47-0.983-0.983C7.504,16.972,7.5,16.928,7.5,16.884
		s0.004-0.088,0.011-0.131c0.06-0.513,0.47-0.922,0.983-0.982c0.042-0.008,0.086-0.011,0.13-0.011s0.088,0.004,0.13,0.011
		c0.513,0.06,0.923,0.469,0.983,0.982c0.008,0.043,0.011,0.087,0.011,0.131s-0.004,0.088-0.011,0.131
		c-0.06,0.513-0.47,0.922-0.983,0.983C8.713,18.005,8.67,18.009,8.625,18.009z"/>
	<path d="M11.625,21.009c-0.044,0-0.088-0.004-0.13-0.011c-0.513-0.06-0.923-0.47-0.983-0.983c-0.008-0.043-0.011-0.087-0.011-0.131
		s0.004-0.088,0.011-0.131c0.06-0.513,0.47-0.922,0.983-0.982c0.042-0.008,0.086-0.011,0.13-0.011s0.088,0.004,0.131,0.011
		c0.513,0.06,0.923,0.47,0.983,0.983c0.008,0.042,0.011,0.086,0.011,0.131s-0.004,0.088-0.011,0.131
		c-0.06,0.513-0.47,0.923-0.983,0.983C11.713,21.005,11.67,21.009,11.625,21.009z"/>
</g>
</svg>
