<svg id="target" xmlns="http://www.w3.org/2000/svg" xmlns:xlink="http://www.w3.org/1999/xlink" x="0px" y="0px"
	 viewBox="0 0 24 24" style="enable-background:new 0 0 24 24;" xml:space="preserve">
<title>ecology-globe-hand</title>
<g>
	<path d="M12.711,23.967c-1.294,0-2.72-0.501-5.083-1.331C6.873,22.368,6.002,22.063,5,21.725v0.304c0,0.552-0.449,1-1,1H1
		c-0.551,0-1-0.448-1-1v-7c0-0.552,0.449-1,1-1h3c0.551,0,1,0.448,1,1h2.5c1.78,0.062,3.444,0.771,4.708,2H15
		c0.031-0.012,0.113-0.02,0.198-0.02c0.291,0,0.592,0.098,0.847,0.274c0.332,0.231,0.555,0.578,0.627,0.977
		c0.001,0.004,0.001,0.008,0.002,0.012l3.668-1.218c0.311-0.093,0.623-0.138,0.938-0.138c1.029,0,2.01,0.491,2.621,1.313
		c0.089,0.119,0.12,0.271,0.085,0.416c-0.035,0.144-0.131,0.264-0.264,0.33c-2.199,1.1-3.866,1.997-5.206,2.718
		C15.685,23.217,14.291,23.967,12.711,23.967z M5,20.669c1.144,0.385,2.121,0.728,2.96,1.023c2.327,0.817,3.607,1.267,4.735,1.267
		c1.358,0,2.591-0.663,5.294-2.117c1.22-0.657,2.723-1.467,4.677-2.454c-0.394-0.303-0.884-0.472-1.389-0.472
		c-0.215,0-0.43,0.031-0.636,0.092l-4.245,1.41c-0.232,0.32-0.565,0.533-0.948,0.603c-0.089,0.017-0.178,0.024-0.269,0.024
		s-0.18-0.008-0.269-0.024L9.5,20.028c-0.276,0-0.5-0.225-0.5-0.5s0.224-0.5,0.5-0.5H15c0.095,0.012,0.142,0.017,0.184,0.017
		c0.367-0.06,0.554-0.328,0.504-0.608c-0.044-0.245-0.259-0.424-0.509-0.424l-0.135,0.012L12,18.028
		c-0.137,0-0.265-0.054-0.36-0.152c-1.101-1.136-2.578-1.793-4.158-1.848H5V20.669z M1,22.028h3v-7H1C1,15.028,1,22.028,1,22.028z"
		/>
	<path d="M18.092,15.905c-0.175,0-0.339-0.094-0.43-0.243c-0.141-0.239-0.062-0.546,0.174-0.687
		c3.365-2.003,4.623-6.313,2.864-9.813c-0.17-0.34-0.372-0.672-0.601-0.991c-0.35,0.824-0.925,1.521-1.652,1.995
		c-0.081,0.053-0.176,0.082-0.273,0.082h-0.031l-0.092-0.016c-0.146-0.036-0.303-0.055-0.465-0.055
		c-0.427,0-0.838,0.126-1.135,0.268c0.15,0.247,0.286,0.587,0.411,1.031c0.171-0.003,0.312-0.048,0.397-0.091
		c0.069-0.035,0.146-0.053,0.223-0.053c0.133,0,0.262,0.054,0.354,0.146c0.949,0.949-0.256,2.202-0.903,2.875
		c-0.068,0.072-0.162,0.17-0.239,0.254c0.175,0.153,0.399,0.371,0.412,0.713c0.008,0.244-0.098,0.477-0.313,0.693
		c-0.266,0.274-0.573,0.502-0.915,0.676c-0.143,1.215-1.07,1.909-2.569,1.909c-0.792,0-1.543-1.839-1.543-2.239
		c0-0.291,0.125-0.543,0.227-0.746c0.05-0.1,0.122-0.244,0.122-0.297c-0.02-0.047-0.236-0.372-0.553-0.689
		c-0.094-0.094-0.146-0.22-0.146-0.354c0-0.348-0.078-0.458-0.112-0.49c-0.065-0.062-0.224-0.093-0.472-0.093
		c-0.139,0-0.289,0.009-0.442,0.018C10.204,9.72,10.015,9.73,9.826,9.73c-0.395,0-0.73-0.135-0.996-0.401
		C8.298,8.796,8.283,7.93,8.283,7.833c0-0.116,0.024-2.849,2.142-3.271c0.354-0.07,0.671-0.106,0.944-0.106
		c0.461,0,0.819,0.102,1.063,0.303c0.143,0.117,0.223,0.247,0.267,0.354c0.107,0.065,0.252,0.098,0.44,0.098
		c0.304,0,0.657-0.083,1-0.163c0.159-0.038,0.312-0.073,0.454-0.1c0.048-0.49,0.044-0.864,0.022-1.083
		c-0.169,0.063-0.341,0.096-0.511,0.096c-0.221,0-0.43-0.053-0.619-0.159c-0.39-0.216-0.63-0.623-0.68-1.144
		c-0.059-0.613,0.414-1.163,1.379-1.616c-0.071-0.002-0.144-0.003-0.216-0.003c-1.17,0-2.293,0.266-3.338,0.791
		c-3.695,1.857-5.19,6.375-3.333,10.069c0.06,0.12,0.07,0.255,0.028,0.381c-0.042,0.127-0.131,0.23-0.25,0.29
		c-0.07,0.035-0.147,0.053-0.225,0.053l0,0c-0.191,0-0.363-0.106-0.447-0.276C5.387,10.323,5.22,8.02,5.934,5.862
		c0.714-2.158,2.223-3.907,4.248-4.925c1.189-0.599,2.466-0.902,3.792-0.902c0.859,0,1.713,0.13,2.539,0.386l0.058,0.009
		l0.054,0.037c1.36,0.418,2.647,1.242,3.657,2.35c0.548,0.609,0.98,1.237,1.312,1.897c1.993,3.966,0.566,8.851-3.247,11.122
		C18.269,15.881,18.181,15.905,18.092,15.905z M12.407,10.065c0.336,0.362,0.708,0.851,0.708,1.252c0,0.288-0.125,0.54-0.226,0.741
		c-0.053,0.106-0.123,0.247-0.123,0.302c0.011,0.205,0.459,1.05,0.651,1.242c0.982-0.025,1.48-0.443,1.48-1.242
		c0-0.206,0.123-0.388,0.313-0.464c0.311-0.124,0.587-0.304,0.824-0.537c-0.01-0.009-0.019-0.016-0.024-0.021
		c-0.168-0.146-0.419-0.365-0.419-0.722c0-0.309,0.221-0.539,0.623-0.955c0.238-0.248,0.794-0.826,0.935-1.197
		c-0.098,0.017-0.192,0.026-0.284,0.026c-0.312,0-0.581-0.105-0.778-0.303c-0.063-0.062-0.109-0.143-0.132-0.232
		c-0.13-0.512-0.303-0.91-0.386-1.041c-0.143-0.039-0.268-0.142-0.333-0.28c-0.093-0.193-0.057-0.421,0.097-0.608
		c0.242-0.297,1.149-0.852,2.242-0.852c0.167,0,0.331,0.014,0.491,0.04c0.637-0.47,1.091-1.146,1.293-1.926
		c-0.846-0.863-1.901-1.514-3.064-1.888c-1.482,0.334-2.515,0.922-2.491,1.164c0.012,0.13,0.051,0.298,0.169,0.364
		c0.04,0.022,0.092,0.033,0.152,0.033c0.103,0,0.224-0.033,0.349-0.096c0.114-0.058,0.231-0.087,0.349-0.087
		c0.181,0,0.315,0.07,0.397,0.129c0.414,0.298,0.521,1.161,0.319,2.563c-0.034,0.245-0.247,0.429-0.494,0.429
		c-0.154,0-0.417,0.062-0.67,0.121c-0.38,0.089-0.81,0.191-1.237,0.191c-0.519,0-0.921-0.15-1.229-0.458
		c-0.066-0.066-0.112-0.15-0.133-0.241c-0.039-0.014-0.157-0.056-0.406-0.056c-0.208,0-0.459,0.029-0.748,0.086
		C9.313,5.803,9.283,7.814,9.283,7.834c0,0.008,0.006,0.896,0.543,0.896c0.167,0,0.333-0.01,0.496-0.019
		c0.187-0.01,0.351-0.019,0.509-0.019c0.359,0,0.815,0.042,1.158,0.364C12.238,9.292,12.375,9.622,12.407,10.065z"/>
</g>
</svg>
