
<svg version="1.1" id="target" xmlns="http://www.w3.org/2000/svg" xmlns:xlink="http://www.w3.org/1999/xlink" x="0px" y="0px"
	 viewBox="0 0 24 24" style="enable-background:new 0 0 24 24;" xml:space="preserve">
<g>
	<title>business-team-goal</title>
	<path d="M7.972,24c-0.085,0-0.168-0.014-0.249-0.042c-0.39-0.137-0.596-0.566-0.459-0.956c1.048-2.986,3.878-4.996,7.042-5.002
		c0,0,0.01,0,0.015,0c3.163,0.012,5.99,2.021,7.036,5.001c0.137,0.39-0.069,0.819-0.459,0.956C20.819,23.986,20.736,24,20.651,24
		c-0.318,0-0.602-0.201-0.708-0.501c-0.754-2.147-2.645-3.662-4.882-3.947v3.698c0,0.414-0.336,0.75-0.75,0.75
		s-0.75-0.336-0.75-0.75v-3.698c-2.237,0.286-4.128,1.8-4.881,3.946C8.574,23.798,8.29,24,7.972,24z"/>
	<path d="M14.308,18c-2.688,0-4.875-2.187-4.875-4.875c0-0.846,0.225-1.683,0.65-2.422c0,0,0.02-0.035,0.028-0.046
		c0.871-1.482,2.481-2.407,4.197-2.407c2.367,0,4.428,1.758,4.807,4.094c0.023,0.073,0.034,0.15,0.034,0.227
		c0.023,0.203,0.034,0.384,0.034,0.554C19.183,15.813,16.996,18,14.308,18z M11.039,12.286c-0.07,0.273-0.106,0.553-0.106,0.839
		c0,1.861,1.514,3.375,3.375,3.375c1.694,0,3.101-1.255,3.339-2.884c-0.634,0.169-1.285,0.254-1.942,0.254
		C14.005,13.87,12.368,13.311,11.039,12.286z M11.75,10.93c1.1,0.929,2.491,1.436,3.952,1.436c0.621,0,1.23-0.093,1.817-0.277
		c-0.445-1.374-1.746-2.34-3.211-2.34C13.323,9.75,12.389,10.186,11.75,10.93z"/>
	<path d="M4.975,19.5c-2.068,0-3.75-1.682-3.75-3.75S2.907,12,4.975,12s3.75,1.682,3.75,3.75S7.043,19.5,4.975,19.5z M4.975,13.5
		c-1.241,0-2.25,1.009-2.25,2.25S3.734,18,4.975,18s2.25-1.009,2.25-2.25S6.216,13.5,4.975,13.5z"/>
	<path d="M0.75,24c-0.084,0-0.167-0.014-0.246-0.042c-0.392-0.138-0.598-0.566-0.461-0.957c0.734-2.094,2.722-3.501,4.948-3.501
		c0.342,0,0.685,0.034,1.021,0.102c0.405,0.082,0.669,0.478,0.588,0.883c-0.071,0.349-0.38,0.602-0.736,0.602c0,0,0,0,0,0
		c-0.048,0-0.096-0.005-0.145-0.014C5.477,21.025,5.232,21,4.988,21c-1.588,0-3.007,1.004-3.53,2.498C1.353,23.798,1.068,24,0.75,24
		z"/>
	<path d="M23.25,24c-0.414,0-0.75-0.336-0.75-0.75V7.5h-12c-0.305,0-0.577-0.182-0.693-0.463C9.69,6.756,9.754,6.435,9.97,6.22
		l2.47-2.47L9.97,1.28C9.754,1.065,9.69,0.744,9.807,0.463C9.923,0.182,10.195,0,10.5,0h12.75C23.664,0,24,0.336,24,0.75v22.5
		C24,23.664,23.664,24,23.25,24z M22.5,6V1.5H12.311l1.72,1.72c0.142,0.141,0.22,0.33,0.22,0.53s-0.078,0.389-0.22,0.53L12.311,6
		H22.5z"/>
</g>
</svg>
