
<svg version="1.1" id="target" xmlns="http://www.w3.org/2000/svg" xmlns:xlink="http://www.w3.org/1999/xlink" x="0px" y="0px"
	 viewBox="0 0 24 24" style="enable-background:new 0 0 24 24;" xml:space="preserve">
<title>professions-man-post</title>
<g>
	<path d="M12,12.014c-0.648,0-1.287-0.212-1.8-0.596c-0.22-0.166-0.265-0.479-0.101-0.7c0.097-0.127,0.243-0.2,0.401-0.2
		c0.108,0,0.211,0.034,0.298,0.099c0.342,0.256,0.769,0.397,1.201,0.397c0.433,0,0.858-0.141,1.199-0.397
		c0.089-0.066,0.192-0.1,0.301-0.1c0.158,0,0.308,0.075,0.401,0.201c0.164,0.219,0.12,0.533-0.101,0.699
		C13.287,11.802,12.647,12.014,12,12.014z"/>
	<circle cx="14" cy="8.517" r="0.75"/>
	<circle cx="10" cy="8.517" r="0.75"/>
	<path d="M12,15.017c-3.584,0-6.5-2.916-6.5-6.5V7.904C5.379,7.933,5.259,7.962,5.14,7.997l-0.035,0.01L5.001,8.016
		c-0.225,0-0.418-0.144-0.481-0.359c-0.077-0.264,0.076-0.542,0.34-0.62C5.041,6.984,5.224,6.94,5.406,6.896l0.119-0.029L6.51,1.919
		c0.036-0.182,0.169-0.328,0.347-0.381l5.035-1.51L12,0.017c0.05,0,0.099,0.007,0.146,0.022l4.998,1.5
		c0.176,0.053,0.309,0.198,0.346,0.379l0.99,4.95l0.114,0.028c0.183,0.044,0.365,0.088,0.546,0.141
		c0.264,0.079,0.416,0.356,0.34,0.62c-0.062,0.213-0.26,0.361-0.48,0.361h-0.033l-0.103-0.019C18.741,7.963,18.62,7.933,18.5,7.904
		v0.613C18.5,12.101,15.584,15.017,12,15.017z M6.5,8.516c0,3.033,2.467,5.5,5.5,5.5c3.032,0,5.5-2.467,5.5-5.5V7.656
		C15.695,7.24,13.847,7.029,12,7.029c-1.847,0-3.698,0.211-5.503,0.627L6.5,8.516z M6.592,6.608C8.369,6.222,10.186,6.027,12,6.027
		c1.813,0,3.631,0.195,5.408,0.582l-0.84-4.199L12,1.04L7.432,2.41L6.592,6.608z"/>
	<path d="M23,24.017c-0.275,0-0.5-0.225-0.5-0.5v-3.105c0.003-0.462-0.212-0.903-0.574-1.183c-0.606-0.465-1.632-1.111-3.163-1.657
		l0.473,1.521c0.08,0.255,0.055,0.526-0.069,0.763c-0.125,0.236-0.333,0.41-0.587,0.489c-0.093,0.028-0.193,0.044-0.299,0.044
		c-0.053,0-0.104-0.004-0.156-0.011L16.5,20.107v0.969c0.004,0.504-0.373,0.933-0.876,0.995L12.5,22.458v1.059
		c0,0.275-0.224,0.5-0.5,0.5s-0.5-0.225-0.5-0.5v-1.059l-3.124-0.386c-0.503-0.062-0.88-0.492-0.876-1v-0.965l-1.617,0.269
		c-0.057,0.009-0.111,0.014-0.164,0.014c-0.104,0-0.204-0.016-0.299-0.046c-0.254-0.079-0.463-0.253-0.587-0.49
		c-0.124-0.235-0.148-0.507-0.069-0.761l0.471-1.516c-1.525,0.545-2.552,1.189-3.162,1.653c-0.361,0.278-0.576,0.719-0.573,1.177
		v3.109c0,0.275-0.224,0.5-0.5,0.5s-0.5-0.225-0.5-0.5v-3.105c-0.005-0.766,0.355-1.505,0.965-1.976
		c1.121-0.852,3.634-2.339,7.927-2.783l0.014-0.013l0.144-0.003c0.812-0.08,1.621-0.12,2.45-0.12c0.828,0,1.636,0.039,2.47,0.121
		l0.109-0.001l0.018,0.014c4.329,0.448,6.828,1.935,7.938,2.785c0.608,0.469,0.969,1.208,0.965,1.979v3.103
		C23.5,23.792,23.275,24.017,23,24.017z M14.879,16.686c-0.264,1.684-0.88,3.291-1.797,4.693l2.419-0.3L15.5,20.106
		c0-0.058,0.005-0.115,0.014-0.169c0.044-0.262,0.188-0.491,0.406-0.646c0.17-0.122,0.368-0.187,0.572-0.187
		c0.058,0,0.116,0.005,0.175,0.016l1.614,0.268l-0.678-2.181C16.751,16.976,15.836,16.801,14.879,16.686z M7.5,19.106
		c0.209,0,0.41,0.063,0.58,0.185c0.219,0.156,0.363,0.388,0.407,0.651C8.496,19.999,8.5,20.052,8.5,20.107v0.969l2.417,0.302
		c-0.916-1.401-1.532-3.008-1.796-4.691c-0.958,0.116-1.874,0.293-2.726,0.525L5.719,19.39l1.617-0.271
		C7.392,19.11,7.446,19.106,7.5,19.106z M10.12,16.589c0.268,1.641,0.913,3.209,1.88,4.568c0.966-1.36,1.612-2.929,1.88-4.569
		c-0.63-0.048-1.248-0.071-1.88-0.071C11.364,16.517,10.747,16.54,10.12,16.589z"/>
	<path d="M11.949,5.517l-0.144-0.04c-0.951-0.399-1.624-1.284-1.754-2.308c-0.086-0.536,0.289-1.05,0.836-1.139
		c0.05-0.009,0.105-0.013,0.16-0.013h1.91c0.56,0.006,1.008,0.462,1.003,1.018c-0.003,0.059-0.006,0.101-0.012,0.142
		c-0.132,1.02-0.805,1.903-1.755,2.301l-0.046,0.02L12,5.517H11.949z M11.068,3.018c-0.019,0.004-0.027,0.011-0.029,0.013
		c0.08,0.611,0.435,1.137,0.961,1.431c0.519-0.292,0.881-0.825,0.957-1.419L11.068,3.018z"/>
	<path d="M18,23.017c-0.275,0-0.5-0.225-0.5-0.5s0.225-0.5,0.5-0.5h2c0.275,0,0.5,0.225,0.5,0.5s-0.225,0.5-0.5,0.5H18z"/>
</g>
</svg>
