
<svg version="1.1" id="target" xmlns="http://www.w3.org/2000/svg" xmlns:xlink="http://www.w3.org/1999/xlink" x="0px" y="0px"
	 viewBox="0 0 24 24" style="enable-background:new 0 0 24 24;" xml:space="preserve">
<title>business-flame</title>
<g>
	<path d="M18.429,17.652l-0.009-0.005l-13,0.005l-0.007-0.005H2.347c-1.291,0-2.343-1.05-2.347-2.341
		c0-0.131,0.01-0.261,0.032-0.389l1.311-7.861C1.478,6.243,2.175,5.652,3,5.652h2.067L5.18,5.705l0.064,0.013l0.083,0.056
		l0.061,0.052l0.01,0.038c0.021,0.033,0.031,0.062,0.038,0.081C5.45,5.973,5.467,6.004,5.48,6.042l0.018,0.026L5.5,6.22L5.446,6.333
		L5.433,6.399L5.376,6.481L1.764,10.61l-0.231,1.386l4.186,4.651h12.564l4.185-4.65l-0.231-1.388l-3.656-4.18l-0.035-0.124
		l-0.035-0.059L18.5,6.152V6.083l0.017-0.027c0.012-0.045,0.031-0.079,0.043-0.1c0.011-0.026,0.021-0.057,0.04-0.089l0.013-0.051
		l0.125-0.087l0.104-0.031l0.059-0.034L19,5.652h2c0.826,0,1.523,0.591,1.658,1.406l1.311,7.86C23.989,15.045,24,15.172,24,15.3
		c0,1.295-1.053,2.348-2.347,2.348L18.5,17.652H18.429z M21.653,16.647c0.742,0,1.347-0.604,1.347-1.348
		c0-0.073-0.007-0.145-0.019-0.217l-0.305-1.825l-3.05,3.39H21.653z M1.018,15.082C1.006,15.155,1,15.23,1,15.305
		c0.002,0.74,0.606,1.343,1.347,1.343h2.026l-3.051-3.39L1.018,15.082z M3,6.652c-0.334,0-0.616,0.239-0.671,0.569L2.077,8.734
		l1.822-2.083H3z M21.922,8.733L21.67,7.221c-0.054-0.33-0.336-0.569-0.67-0.569h-0.898L21.922,8.733z"/>
	<path d="M1.5,19.652c-0.276,0-0.5-0.225-0.5-0.5s0.224-0.5,0.5-0.5h21c0.275,0,0.5,0.225,0.5,0.5s-0.225,0.5-0.5,0.5H1.5z"/>
	<path d="M2.5,21.652c-0.276,0-0.5-0.225-0.5-0.5s0.224-0.5,0.5-0.5h19c0.275,0,0.5,0.225,0.5,0.5s-0.225,0.5-0.5,0.5H2.5z"/>
	<path d="M3.5,23.652c-0.276,0-0.5-0.225-0.5-0.5s0.224-0.5,0.5-0.5h17c0.275,0,0.5,0.225,0.5,0.5s-0.225,0.5-0.5,0.5H3.5z"/>
	<path d="M12,13.652c-3.033,0-5.5-2.467-5.5-5.5c0.072-3.338,2.086-6.365,5.13-7.716c0.128-0.058,0.266-0.088,0.408-0.088
		c0.393,0,0.751,0.231,0.913,0.588c0.134,0.295,0.115,0.639-0.048,0.918c-0.58,0.959-0.506,2.172,0.156,3.048
		c0.204-0.282,0.361-0.6,0.463-0.933c0.084-0.26,0.261-0.469,0.5-0.591c0.14-0.072,0.297-0.11,0.453-0.11
		c0.105,0,0.21,0.017,0.311,0.05c0.087,0.028,0.17,0.068,0.245,0.119c1.552,1.073,2.474,2.835,2.47,4.715
		C17.5,11.185,15.032,13.652,12,13.652z M12.038,1.348C9.345,2.543,7.564,5.218,7.5,8.163c0,2.473,2.019,4.49,4.5,4.49
		s4.5-2.019,4.5-4.5c0.004-1.552-0.756-3.005-2.032-3.888c-0.19,0.658-0.555,1.261-1.045,1.745c-0.095,0.093-0.22,0.144-0.351,0.144
		c-0.124,0-0.243-0.045-0.335-0.128c-1.32-1.189-1.613-3.155-0.697-4.677L12.009,1.1L12.038,1.348z"/>
</g>
</svg>
