<svg id="target" xmlns="http://www.w3.org/2000/svg" viewBox="0 0 24 24"><title>vectors-pen-anchor</title><path d="M22.5,8H18.753a.251.251,0,0,1-.174-.07l-3.5-3.362A.25.25,0,0,1,15,4.388V1a1,1,0,0,0-1-1H10A1,1,0,0,0,9,1V4.388a.25.25,0,0,1-.077.18L5.421,7.93A.251.251,0,0,1,5.247,8H1.5a1,1,0,0,0-1,1v4a1,1,0,0,0,1,1h4a1,1,0,0,0,1-1V9.773a.25.25,0,0,1,.077-.181L10.246,6.07A.25.25,0,0,1,10.419,6h3.162a.25.25,0,0,1,.173.07l3.669,3.522a.25.25,0,0,1,.077.181V13a1,1,0,0,0,1,1h4a1,1,0,0,0,1-1V9A1,1,0,0,0,22.5,8Zm-1,3.75a.25.25,0,0,1-.25.25h-1.5a.25.25,0,0,1-.25-.25v-1.5a.25.25,0,0,1,.25-.25h1.5a.25.25,0,0,1,.25.25ZM11,2.25A.25.25,0,0,1,11.25,2h1.5a.25.25,0,0,1,.25.25v1.5a.25.25,0,0,1-.25.25h-1.5A.25.25,0,0,1,11,3.75Zm-8.5,8A.25.25,0,0,1,2.75,10h1.5a.25.25,0,0,1,.25.25v1.5a.25.25,0,0,1-.25.25H2.75a.25.25,0,0,1-.25-.25Z"/><path d="M12.735,11.1a.749.749,0,0,0-1.47,0c-.373,1.865-2.867,4.687-3.8,5.617a.748.748,0,0,0-.172.793l1.294,3.452a.25.25,0,0,1-.034.239A3.574,3.574,0,0,0,7.75,23.25.75.75,0,0,0,8.5,24h7a.75.75,0,0,0,.75-.75,3.574,3.574,0,0,0-.808-2.046.247.247,0,0,1-.034-.239L16.7,17.513a.748.748,0,0,0-.172-.793C15.6,15.79,13.108,12.968,12.735,11.1ZM12,19.25a1,1,0,1,1,1-1A1,1,0,0,1,12,19.25Z"/></svg>
