<svg id="target" xmlns="http://www.w3.org/2000/svg" viewBox="0 0 24 24"><title>professions-man-magician</title><path d="M.615,21.915v1.59a.494.494,0,0,0,.5.5H22.89a.494.494,0,0,0,.5-.5v-1.59a2.436,2.436,0,0,0-.957-1.957,15.367,15.367,0,0,0-7.806-2.75.248.248,0,0,1-.08-.47,5.938,5.938,0,0,0,3.4-5.361c0-1.282,0-1.711,0-1.889a.247.247,0,0,1,.217-.242c1.171-.147,2.341-.325,3.507-.558a.99.99,0,0,0-.389-1.942,50.071,50.071,0,0,1-9.246.871,50.522,50.522,0,0,1-9.3-.871.99.99,0,0,0-.389,1.942c1.166.233,2.336.411,3.507.558a.247.247,0,0,1,.217.243c0,.195,0,.656,0,1.888a5.938,5.938,0,0,0,3.4,5.361.248.248,0,0,1-.08.47,15.367,15.367,0,0,0-7.806,2.75A2.436,2.436,0,0,0,.615,21.915Zm15.07.511a.546.546,0,0,1-.748.276l-2.449-1.224a1.089,1.089,0,0,0-.976,0L9.063,22.7a.551.551,0,0,1-.434.024.543.543,0,0,1-.314-.3,3.685,3.685,0,0,1,0-2.795.546.546,0,0,1,.748-.276l2.449,1.224a1.089,1.089,0,0,0,.976,0l2.449-1.224a.551.551,0,0,1,.434-.024.543.543,0,0,1,.314.3A3.685,3.685,0,0,1,15.685,22.426ZM8.04,11.378h0l0-1.634a.248.248,0,0,1,.08-.182A.25.25,0,0,1,8.305,9.5c1.231.095,2.463.154,3.7.154s2.463-.059,3.693-.154a.25.25,0,0,1,.187.065.248.248,0,0,1,.08.182v1.634a3.96,3.96,0,0,1-7.92,0Z"/><path d="M17.951,6.242a.246.246,0,0,0,.216-.228L18.433,2a.989.989,0,0,0-.62-.984,17.217,17.217,0,0,0-11.626,0A.989.989,0,0,0,5.567,2l.267,4.012a.246.246,0,0,0,.216.228A47.352,47.352,0,0,0,17.951,6.242Z"/><circle cx="13.98" cy="11.13" r="0.99"/><circle cx="10.02" cy="11.13" r="0.99"/><path d="M12.081,14.485a2.961,2.961,0,0,0,.855-.124,2.346,2.346,0,0,0,.432-.179.634.634,0,0,0-.3-1.19h-1.98a.633.633,0,0,0-.3,1.19,2.363,2.363,0,0,0,.431.178,2.967,2.967,0,0,0,.858.125Z"/></svg>
