
<svg version="1.1" id="target" xmlns="http://www.w3.org/2000/svg" xmlns:xlink="http://www.w3.org/1999/xlink" x="0px" y="0px"
	 viewBox="0 0 24 24" style="enable-background:new 0 0 24 24;" xml:space="preserve">
<title>rating-star-square</title>
<g>
	<path d="M4.5,24C2.019,24,0,21.981,0,19.5v-15C0,2.019,2.019,0,4.5,0h15C21.981,0,24,2.019,24,4.5v15c0,2.481-2.019,4.5-4.5,4.5
		H4.5z M4.5,1C2.57,1,1,2.57,1,4.5v15C1,21.43,2.57,23,4.5,23h15c1.93,0,3.5-1.57,3.5-3.5v-15C23,2.57,21.43,1,19.5,1H4.5z"/>
	<path d="M8.125,18.002c-0.112,0-0.223-0.015-0.329-0.043c-0.33-0.085-0.608-0.296-0.783-0.594
		c-0.203-0.348-0.231-0.776-0.075-1.146l1.3-2.986l-2.329-2.074c-0.509-0.449-0.557-1.231-0.106-1.742
		c0.232-0.262,0.574-0.418,0.915-0.418L9.429,9l1.411-3.268c0.243-0.452,0.687-0.72,1.168-0.72c0.213,0,0.425,0.054,0.614,0.156
		c0.221,0.119,0.402,0.3,0.523,0.524L14.573,9c0,0,2.669,0,2.67,0c0.342,0,0.637,0.118,0.864,0.33
		c0.241,0.225,0.381,0.53,0.394,0.86c0.014,0.368-0.137,0.72-0.411,0.965l-2.33,2.076l1.295,2.981
		c0.274,0.659-0.035,1.414-0.688,1.687c-0.155,0.066-0.322,0.1-0.494,0.1l0,0c-0.227,0-0.449-0.06-0.645-0.172L12,16.007
		l-3.235,1.822C8.575,17.941,8.352,18.002,8.125,18.002z M12,14.933c0.086,0,0.17,0.022,0.246,0.064l3.479,1.961
		c0.048,0.027,0.097,0.041,0.147,0.041c0.037,0,0.074-0.008,0.11-0.022c0.068-0.028,0.123-0.083,0.152-0.154
		c0.029-0.07,0.029-0.147,0-0.217l-1.438-3.308c-0.086-0.198-0.035-0.429,0.127-0.573l2.6-2.315c0.051-0.046,0.08-0.114,0.077-0.185
		c-0.002-0.062-0.028-0.119-0.075-0.163c-0.04-0.038-0.109-0.063-0.148-0.063L14.245,10c-0.2,0-0.381-0.119-0.459-0.303L12.252,6.14
		c-0.016-0.025-0.057-0.065-0.105-0.092c-0.045-0.024-0.092-0.037-0.142-0.037c-0.111,0-0.214,0.061-0.267,0.158l-1.521,3.529
		C10.138,9.881,9.958,10,9.758,10l-3.021,0c-0.074,0-0.138,0.027-0.184,0.08c-0.085,0.097-0.076,0.246,0.021,0.331l2.601,2.316
		c0.163,0.144,0.213,0.374,0.126,0.573l-1.443,3.312c-0.032,0.076-0.025,0.174,0.02,0.25c0.038,0.065,0.1,0.112,0.173,0.131
		c0.025,0.002,0.048,0.003,0.067,0.003c0.075,0,0.114-0.013,0.148-0.033l3.488-1.965C11.83,14.955,11.914,14.933,12,14.933z"/>
</g>
</svg>
