<svg id="target" xmlns="http://www.w3.org/2000/svg" xmlns:xlink="http://www.w3.org/1999/xlink" x="0px" y="0px"
	 viewBox="0 0 24 24" style="enable-background:new 0 0 24 24;" xml:space="preserve">
<title>global-warming-globe-fire-1</title>
<g>
	<path d="M9,23.634c-4.411,0-8-3.589-8-8s3.589-8,8-8c2.512,0,4.831,1.156,6.363,3.171C16.436,12.217,17,13.885,17,15.634
		C17,20.045,13.411,23.634,9,23.634z M4.881,21.281c1.209,0.886,2.63,1.353,4.119,1.353c2.307,0,4.417-1.113,5.732-3h-0.386
		c-0.736,0-1.358-0.527-1.479-1.253l-0.458-2.747h-0.628c-0.119,0-0.24-0.015-0.359-0.043c-0.806-0.202-1.296-1.019-1.096-1.82
		l0.5-2c0.167-0.669,0.765-1.137,1.455-1.137h1.604c-1.306-1.277-3.057-2-4.885-2c-3.108,0-5.818,2.04-6.7,5h2.919
		c0.689,0,1.288,0.468,1.455,1.137l0.5,2c0.03,0.122,0.044,0.244,0.044,0.363c0,0.827-0.673,1.5-1.5,1.5H5.41L4.881,21.281z
		 M2.078,14.634C2.026,14.985,2,15.314,2,15.634c0,1.827,0.729,3.587,2.012,4.895l0.498-2.492c0.046-0.233,0.253-0.402,0.49-0.402
		h0.719c0.275,0,0.5-0.225,0.5-0.5c0-0.04-0.005-0.081-0.016-0.124l-0.5-1.997c-0.055-0.224-0.254-0.379-0.484-0.379H2.078z
		 M12.281,11.634c-0.23,0-0.43,0.156-0.485,0.379l-0.5,2c-0.067,0.268,0.097,0.54,0.364,0.607c0.039,0.009,0.081,0.014,0.121,0.014
		h1.052c0.245,0,0.452,0.176,0.493,0.417l0.529,3.166c0.039,0.242,0.246,0.417,0.491,0.417h0.97c0.453-0.949,0.684-1.958,0.684-3
		c0-1.436-0.438-2.816-1.268-4H12.281z"/>
	<path d="M18.726,15.943c-0.191,0-0.369-0.111-0.451-0.284c-0.118-0.249-0.014-0.548,0.234-0.667
		c3.963-1.901,3.719-5.413,3.221-7.337c-0.41,0.427-0.877,0.779-1.39,1.051c-0.077,0.038-0.156,0.057-0.234,0.057
		c-0.093,0-0.184-0.026-0.263-0.074c-0.153-0.097-0.243-0.266-0.237-0.443c0.093-2.671-1.114-5.24-3.229-6.872
		c-0.002,0.948-0.455,1.86-1.228,2.428c-0.844,0.615-1.565,1.366-2.148,2.232c-0.093,0.138-0.25,0.22-0.419,0.22
		c-0.258-0.032-0.417-0.168-0.474-0.352c-0.229-0.744-0.806-1.342-1.541-1.601c0.008,0.591-0.115,1.163-0.361,1.671l-0.11,0.319
		c-0.068,0.203-0.258,0.34-0.473,0.34H9.582l-0.12-0.027C9.201,6.518,9.061,6.233,9.149,5.972c0.044-0.128,0.089-0.258,0.139-0.391
		c0.195-0.408,0.286-0.813,0.277-1.226C9.543,4.117,9.623,3.864,9.792,3.662c0.173-0.207,0.416-0.333,0.683-0.357
		c0.014,0,0.028,0,0.041,0c0.18,0,0.288,0.02,0.389,0.057c0.729,0.256,1.361,0.765,1.778,1.421c0.542-0.674,1.171-1.273,1.875-1.787
		c0.513-0.377,0.813-0.982,0.805-1.619c-0.004-0.267,0.097-0.52,0.283-0.711c0.186-0.191,0.436-0.299,0.702-0.303
		c0.249,0,0.477,0.083,0.655,0.232c2.089,1.611,3.41,4.11,3.587,6.752c0.145-0.117,0.282-0.244,0.411-0.378
		c0.176-0.19,0.421-0.303,0.687-0.314c0.001,0,0.003,0,0.004,0c0.295,0,0.529,0.092,0.717,0.265c0.143,0.13,0.243,0.299,0.29,0.488
		c0.463,1.785,1.023,6.19-3.756,8.486C18.874,15.927,18.8,15.943,18.726,15.943z"/>
</g>
</svg>
