
<svg version="1.1" id="target" xmlns="http://www.w3.org/2000/svg" xmlns:xlink="http://www.w3.org/1999/xlink" x="0px" y="0px"
	 viewBox="0 0 24 24" style="enable-background:new 0 0 24 24;" xml:space="preserve">
<title>color-bucket</title>
<g>
	<path d="M8.898,22.12c-0.488,0-1.122-0.222-1.883-0.659c-1.069-0.615-2.308-1.604-3.487-2.784c-1.66-1.66-4.171-4.769-3.238-6.05
		L9.316,0.257l0.035-0.014C9.536,0.077,9.742,0.01,9.991,0.01c1.664,0,5.281,3.174,7.156,5.049c1.614,1.615,3.012,3.258,3.935,4.627
		c1.117,1.655,1.392,2.671,0.865,3.198L9.594,21.905l-0.013,0.003C9.391,22.049,9.162,22.12,8.898,22.12z M1.083,13.229
		c-0.128,0.282,0.534,2.122,3.152,4.741c1.121,1.12,2.285,2.053,3.279,2.624c0.83,0.478,1.241,0.529,1.379,0.529
		c0.079,0,0.106-0.015,0.106-0.015l0.052-0.053l0.015-0.002l11.206-8.179c-1.862-0.798-4.681-3.322-6.149-4.791
		c-1.47-1.469-3.994-4.289-4.791-6.151l-8.181,11.21L1.15,13.149l-0.06,0.077L1.083,13.229z M9.995,0.992
		c-0.041,0.332,1.188,2.739,4.834,6.385c1.567,1.567,3.157,2.921,4.479,3.813c1.157,0.779,1.694,0.923,1.891,0.946
		c-0.025-0.201-0.174-0.747-0.945-1.891c-0.888-1.317-2.242-2.908-3.813-4.479c-3.573-3.574-5.902-4.776-6.417-4.776V0.74
		L9.995,0.992z"/>
	<path d="M21.553,23.958c-1.273-0.029-2.274-1.031-2.303-2.279l-0.001-0.036l0.018-0.102c0.286-1.15,0.788-2.227,1.49-3.193
		c0.171-0.271,0.482-0.439,0.825-0.439c0.191,0,0.377,0.055,0.538,0.157c0.122,0.078,0.229,0.185,0.307,0.308
		c0.687,0.943,1.186,2.015,1.475,3.173l0.008,0.03l0.008,0.097c-0.015,0.628-0.271,1.208-0.722,1.64
		c-0.437,0.417-1.009,0.646-1.61,0.646L21.553,23.958z M21.582,18.911c-0.633,0.873-1.081,1.826-1.339,2.845
		c0.038,0.626,0.609,1.186,1.31,1.202c0.001,0,0.001,0,0.002,0c0.746,0,1.33-0.56,1.361-1.274c-0.252-0.948-0.697-1.897-1.315-2.75
		l-0.017-0.023C21.583,18.91,21.582,18.91,21.582,18.911z"/>
</g>
</svg>
