
<svg version="1.1" id="target" xmlns="http://www.w3.org/2000/svg" xmlns:xlink="http://www.w3.org/1999/xlink" x="0px" y="0px"
	 viewBox="0 0 24 24" style="enable-background:new 0 0 24 24;" xml:space="preserve">
<title>design-tool-pens</title>
<g>
	<path d="M19.998,23.999c-0.211,0-0.418-0.06-0.599-0.173c-0.258-0.161-0.436-0.412-0.504-0.707c-0.86-3.808-1.33-7.714-1.396-11.61
		c0-1.772,0.248-3.536,0.737-5.25C17.767,5.789,17.5,5.156,17.5,4.5c0-1.041,0.641-1.634,1.155-2.111
		c0.574-0.533,0.989-0.917,0.851-1.812c-0.029-0.185,0.047-0.369,0.199-0.48C19.793,0.033,19.894,0,20,0
		c0.076,0,0.152,0.018,0.221,0.051C21.794,0.838,22.5,3.126,22.5,4.5c0,0.656-0.267,1.289-0.737,1.759
		C22.252,7.973,22.5,9.735,22.5,11.5c-0.065,3.904-0.535,7.812-1.396,11.617c-0.099,0.424-0.433,0.758-0.852,0.854
		C20.166,23.989,20.081,23.999,19.998,23.999z M19.121,6.832C18.709,8.374,18.5,9.942,18.5,11.5
		c0.065,3.827,0.526,7.663,1.372,11.398l0.126,0.101c0.083-0.016,0.119-0.054,0.132-0.105c0.844-3.731,1.305-7.569,1.37-11.402
		c0-1.551-0.209-3.118-0.621-4.66C20.593,6.943,20.299,7,20,7S19.407,6.943,19.121,6.832z M20.462,1.5
		c-0.184,0.748-0.697,1.225-1.125,1.622C18.868,3.555,18.5,3.896,18.5,4.5C18.5,5.327,19.173,6,20,6s1.5-0.673,1.5-1.5
		C21.5,3.563,21.139,2.287,20.462,1.5z"/>
	<path d="M5.499,24.001c-0.198,0-0.395-0.052-0.569-0.15c-0.27-0.153-0.464-0.401-0.547-0.699c-0.351-1.161-0.645-2.359-0.874-3.558
		l-0.014-0.07L3.5,19.5V4.094c-0.586,0.208-1,0.77-1,1.406v7C2.5,12.776,2.276,13,2,13s-0.5-0.224-0.5-0.5v-7
		c0-1.192,0.845-2.204,2-2.438V2c0-1.103,0.897-2,2-2s2,0.897,2,2v17.573l-0.008,0.015c-0.229,1.204-0.524,2.404-0.877,3.573
		C6.509,23.543,6.2,23.851,5.81,23.959C5.709,23.986,5.604,24.001,5.499,24.001z M5.543,22.994c0.053-0.015,0.097-0.059,0.112-0.111
		C5.93,21.972,6.174,21.004,6.383,20H4.617c0.209,1.005,0.453,1.97,0.726,2.872c0.014,0.052,0.04,0.086,0.079,0.107l0.002-0.001
		L5.543,22.994z M6.5,19v-6h-2v6H6.5z M6.5,12V4h-2v8H6.5z M6.5,3V2c0-0.551-0.449-1-1-1s-1,0.449-1,1v1H6.5z"/>
	<path d="M12.5,24c-1.103,0-2-0.897-2-2V3.955l0.02-0.07c0.002-0.03,0.01-0.06,0.022-0.087l1.498-3.495
		c0.076-0.176,0.256-0.289,0.46-0.289s0.384,0.113,0.459,0.289l1.531,3.572l-0.005,0.022C14.494,3.928,14.5,3.962,14.5,4v18
		C14.5,23.103,13.603,24,12.5,24z M11.5,22c0,0.552,0.449,1,1,1c0.552,0,1-0.448,1-1H11.5z M13.5,21v-1h-2v1H13.5z M13.5,19V4.694
		l-0.88,0.293L12.5,5c-0.053,0-0.105-0.008-0.155-0.024L11.5,4.694V19H13.5z M12.5,3.973l0.826-0.275L12.5,1.77l-0.826,1.928
		L12.5,3.973z"/>
</g>
</svg>
