
<svg version="1.1" id="target" xmlns="http://www.w3.org/2000/svg" xmlns:xlink="http://www.w3.org/1999/xlink" x="0px" y="0px"
	 viewBox="0 0 24 24" style="enable-background:new 0 0 24 24;" xml:space="preserve">
<g>
	<title>gmo-food-apple</title>
	<path d="M5.813,23.143c-0.057,0-0.115-0.003-0.173-0.008c-2.472-0.323-4.956-3.479-5.55-7.038
		c-0.326-1.952,0.266-4.753,2.005-6.098c0.66-0.511,1.456-0.781,2.3-0.781c0.664,0,1.371,0.163,2.102,0.485l2.084,0.74
		c0.189,0.067,0.34,0.204,0.426,0.385c0.086,0.181,0.097,0.385,0.03,0.573c-0.106,0.299-0.39,0.499-0.706,0.499
		c-0.086,0-0.171-0.015-0.253-0.044l-2.11-0.75c-0.02-0.007-0.038-0.014-0.056-0.023c-0.548-0.244-1.06-0.368-1.519-0.368
		c-0.521,0-0.972,0.153-1.38,0.469c-1.215,0.94-1.695,3.153-1.443,4.664c0.511,3.066,2.661,5.588,4.24,5.795
		c0.041,0,0.082-0.011,0.118-0.031l1.415-0.711c0.252-0.126,0.534-0.192,0.817-0.192c0.282,0,0.564,0.066,0.815,0.191l1.395,0.7
		c0.053,0.028,0.096,0.04,0.14,0.04l0.025-0.001c1.368-0.179,2.873-2.154,3.565-4.693c0.089-0.325,0.386-0.553,0.724-0.553
		c0.066,0,0.133,0.009,0.197,0.026c0.399,0.109,0.635,0.522,0.527,0.921c-0.871,3.197-2.817,5.523-4.843,5.788
		c-0.073,0.008-0.134,0.01-0.195,0.01h0c-0.293,0-0.572-0.07-0.83-0.208l-1.375-0.69c-0.043-0.021-0.093-0.033-0.143-0.033
		c-0.051,0-0.101,0.012-0.146,0.034l-1.393,0.699C6.384,23.072,6.101,23.143,5.813,23.143z"/>
	<path d="M9.465,16.683c-0.2,0-0.389-0.078-0.53-0.22c-0.142-0.142-0.22-0.33-0.22-0.531s0.078-0.389,0.22-0.53l1.66-1.659
		c-0.274-0.46-0.417-0.981-0.417-1.522c0-0.801,0.312-1.555,0.879-2.121l4.773-4.773c0.142-0.142,0.33-0.22,0.53-0.22l0,0
		c0.2,0,0.388,0.078,0.53,0.219l1.591-1.591L17.42,2.675c-0.142-0.141-0.22-0.33-0.22-0.53c0-0.2,0.078-0.389,0.22-0.53
		c0.142-0.142,0.33-0.22,0.53-0.22s0.389,0.078,0.53,0.22l5.303,5.303c0.142,0.141,0.22,0.33,0.22,0.53c0,0.2-0.078,0.389-0.22,0.53
		c-0.142,0.142-0.33,0.22-0.53,0.22s-0.389-0.078-0.53-0.22l-1.061-1.061l-1.591,1.591c0.142,0.141,0.22,0.33,0.22,0.53
		s-0.078,0.389-0.22,0.53l-4.773,4.773c-0.566,0.566-1.319,0.877-2.121,0.877c-0.541,0-1.061-0.143-1.522-0.416l-1.661,1.66
		C9.853,16.605,9.665,16.683,9.465,16.683z M12.117,13.282c0.283,0.282,0.659,0.438,1.06,0.438s0.778-0.156,1.061-0.438l4.243-4.243
		L16.36,6.918l-4.243,4.243C11.532,11.745,11.532,12.697,12.117,13.282C12.117,13.282,12.117,13.282,12.117,13.282z M19.01,7.448
		l1.591-1.591l-1.06-1.06L17.95,6.387L19.01,7.448z"/>
	<path d="M8.793,8.895c-1.585,0-3.114-0.577-4.306-1.625C4.447,7.235,4.409,7.194,4.377,7.149C3.398,5.81,2.968,4.164,3.168,2.517
		c0.045-0.37,0.348-0.648,0.721-0.659c0.067-0.002,0.134-0.003,0.2-0.003c1.588,0,3.119,0.577,4.31,1.624
		c0.041,0.036,0.078,0.076,0.11,0.12c0.979,1.34,1.409,2.985,1.21,4.633C9.674,8.603,9.371,8.88,8.998,8.892
		C8.929,8.894,8.861,8.895,8.793,8.895z M5.54,6.198c0.771,0.655,1.725,1.063,2.726,1.169c-0.017-1.004-0.337-1.99-0.92-2.816
		c-0.77-0.655-1.725-1.063-2.725-1.169C4.637,4.387,4.957,5.373,5.54,6.198z"/>
</g>
</svg>
