<svg id="target" xmlns="http://www.w3.org/2000/svg" xmlns:xlink="http://www.w3.org/1999/xlink" x="0px" y="0px"
	 viewBox="0 0 24 24" style="enable-background:new 0 0 24 24;" xml:space="preserve">
<title>organic-flask-1</title>
<g>
	<path d="M12.002,24.007c-4.272,0-8.042-2.879-9.167-7.001c-0.668-2.447-0.342-5.009,0.916-7.213c1.259-2.203,3.3-3.784,5.748-4.452
		L9.5,1H8C7.724,1,7.5,0.776,7.5,0.5S7.724,0,8,0h8c0.275,0,0.5,0.224,0.5,0.5S16.275,1,16,1h-1.5v4.341
		c3.229,0.881,5.783,3.435,6.665,6.664c0.668,2.448,0.343,5.01-0.916,7.213c-1.26,2.204-3.302,3.785-5.749,4.453
		C13.685,23.894,12.844,24.007,12.002,24.007z M10.5,5.341c0,0.45-0.304,0.847-0.738,0.965c-2.19,0.598-4.017,2.012-5.142,3.983
		c-1.126,1.972-1.417,4.264-0.82,6.455c1.006,3.688,4.379,6.264,8.201,6.264c0.752,0,1.505-0.102,2.238-0.302
		c2.187-0.597,4.012-2.013,5.139-3.986c1.128-1.974,1.42-4.265,0.823-6.451c-0.788-2.89-3.073-5.174-5.962-5.963
		C13.804,6.188,13.5,5.791,13.5,5.341V1h-3V5.341z"/>
	<path d="M13.418,9.25l-0.015-0.011c-0.371-0.049-0.649-0.357-0.652-0.735l0-0.068l0.004-0.007c0.032-0.349,0.3-0.625,0.648-0.67
		l0.011-0.008L13.5,7.748c0.413,0,0.75,0.336,0.75,0.75c0,0.415-0.337,0.752-0.75,0.752H13.418z"/>
	<path d="M6.924,11.75l-0.015-0.01c-0.369-0.047-0.656-0.362-0.659-0.736c0-0.388,0.284-0.702,0.659-0.747l0.011-0.007L7,10.248
		c0.414,0,0.75,0.336,0.75,0.75c0,0.415-0.336,0.752-0.75,0.752H6.924z"/>
	<path d="M5.924,17.25L5.91,17.24c-0.374-0.045-0.656-0.354-0.659-0.736l0-0.068l0.004-0.007c0.032-0.353,0.304-0.63,0.654-0.672
		l0.011-0.007L6,15.748c0.414,0,0.75,0.337,0.75,0.75c0,0.415-0.336,0.752-0.75,0.752H5.924z"/>
	<path d="M15.418,20.75l-0.015-0.011c-0.371-0.048-0.649-0.355-0.652-0.735v-0.068l0.004-0.007c0.033-0.345,0.306-0.625,0.647-0.67
		l0.011-0.009l0.087-0.002c0.413,0,0.75,0.337,0.75,0.75c0,0.415-0.337,0.752-0.75,0.752H15.418z"/>
	<path d="M7.964,20.727L7.87,20.709c-0.257-0.063-0.421-0.335-0.355-0.603c0.185-0.746,0.486-1.489,0.896-2.213
		C7.822,17.149,7.5,16.242,7.5,15.318c0-2.306,1.876-4.182,4.182-4.182c1.777-0.15,3.491-0.68,5.072-1.572
		C16.829,9.522,16.914,9.5,17,9.5c0.089,0,0.177,0.024,0.253,0.069C17.405,9.657,17.5,9.823,17.5,10c0,0.388-0.066,9.5-5.818,9.5
		c-0.911,0-1.799-0.309-2.534-0.875c-0.298,0.568-0.521,1.146-0.663,1.723C8.43,20.57,8.23,20.727,8,20.727H7.964z M9.661,17.765
		c0.573,0.476,1.283,0.735,2.021,0.735c3.829,0,4.618-5.396,4.779-7.655c-1.487,0.717-3.079,1.15-4.737,1.289
		C9.937,12.136,8.5,13.564,8.5,15.318c0,0.588,0.167,1.155,0.485,1.661c0.959-1.305,2.243-2.318,3.731-2.94l0.046-0.02L12.91,14
		c0.2,0,0.381,0.12,0.46,0.306c0.052,0.124,0.053,0.261,0.002,0.385c-0.051,0.123-0.147,0.22-0.271,0.271
		C11.714,15.542,10.528,16.509,9.661,17.765z"/>
</g>
</svg>
