
<svg version="1.1" id="target" xmlns="http://www.w3.org/2000/svg" xmlns:xlink="http://www.w3.org/1999/xlink" x="0px" y="0px"
	 viewBox="0 0 24 24" style="enable-background:new 0 0 24 24;" xml:space="preserve">
<g>
	<title>startup-launch-1</title>
	<path d="M2.935,23.507c-0.784,0-1.4-0.128-1.468-0.143c-0.286-0.063-0.511-0.287-0.573-0.572c-0.027-0.123-0.644-3.027,0.931-4.602
		c0.468-0.507,1.124-0.807,1.838-0.834c0.036-0.001,0.071-0.002,0.106-0.002c0.673,0,1.317,0.252,1.812,0.711
		c0.106,0.098,0.204,0.205,0.294,0.32c0.525,0.408,0.876,0.992,0.99,1.65c0.122,0.704-0.037,1.412-0.448,1.996
		c-0.106,0.15-0.228,0.291-0.363,0.417C5.174,23.321,3.872,23.507,2.935,23.507z M2.286,21.971c0.188,0.019,0.414,0.035,0.661,0.035
		c0.651,0,1.537-0.11,2.061-0.634c0.005-0.005,0.02-0.02,0.025-0.024c0.056-0.052,0.111-0.115,0.157-0.181
		c0.181-0.256,0.25-0.567,0.197-0.875c-0.053-0.309-0.224-0.578-0.48-0.758c-0.071-0.05-0.132-0.111-0.182-0.182
		c-0.047-0.067-0.102-0.13-0.163-0.187c-0.217-0.201-0.499-0.312-0.795-0.312l-0.047,0.001c-0.313,0.012-0.602,0.146-0.815,0.375
		C2.188,19.948,2.216,21.289,2.286,21.971z"/>
	<path d="M10.65,21.582c-0.148,0-0.293-0.027-0.431-0.079c-0.406-0.143-0.717-0.488-0.825-0.919l-0.601-2.452l-2.669-2.673
		l-2.448-0.6c-0.436-0.109-0.782-0.425-0.929-0.846c-0.16-0.423-0.057-0.92,0.265-1.258l1.937-1.933
		c0.504-0.483,1.158-0.746,1.849-0.746c0.327,0,0.647,0.06,0.951,0.177l0.502,0.178l2.574-4.26c0.885-1.38,2.38-2.22,4.004-2.255
		l4.284,0.162l1.076-1.075c0.142-0.142,0.33-0.22,0.53-0.22s0.389,0.078,0.53,0.22c0.142,0.142,0.22,0.33,0.22,0.53
		c0,0.2-0.078,0.389-0.22,0.53l-1.075,1.075l0.162,4.24c0,0.005,0,0.032,0,0.037c-0.036,1.635-0.876,3.128-2.248,4.002L13.8,16.008
		l0.193,0.491c0.372,0.954,0.157,2.049-0.548,2.791l-1.934,1.942C11.273,21.459,10.969,21.582,10.65,21.582z M10.761,19.859
		l1.61-1.615c0.296-0.312,0.387-0.784,0.225-1.198l-0.099-0.252l-2.167,1.308L10.761,19.859z M9.583,16.801l7.714-4.657
		c0.933-0.595,1.511-1.622,1.538-2.742l-0.147-3.838l-3.861-0.147c-1.105,0.028-2.125,0.606-2.73,1.548L9.231,11.71
		c-0.003,0.007-0.016,0.028-0.031,0.051l-1.753,2.901L9.583,16.801z M6.144,13.92l1.316-2.177l-0.231-0.082
		c-0.146-0.056-0.288-0.083-0.433-0.083c-0.3,0-0.583,0.113-0.797,0.318l-1.6,1.596L6.144,13.92z"/>
	<path d="M14.885,11.618c-1.241,0-2.25-1.009-2.25-2.25s1.009-2.25,2.25-2.25s2.25,1.009,2.25,2.25S16.126,11.618,14.885,11.618z
		 M14.885,8.618c-0.414,0-0.75,0.336-0.75,0.75s0.336,0.75,0.75,0.75s0.75-0.336,0.75-0.75S15.298,8.618,14.885,8.618z"/>
	<path d="M21.002,23.406c-0.414,0-0.75-0.336-0.75-0.75v-0.25l-0.75,0c-0.414,0-0.75-0.336-0.75-0.75s0.336-0.75,0.75-0.75h2.106
		c0.061-0.005,0.152-0.098,0.145-0.214c-0.001-0.025-0.001-0.047,0-0.069c0.002-0.083-0.044-0.17-0.119-0.22l-1.711-0.597
		c-0.029-0.01-0.059-0.022-0.088-0.037c-0.604-0.301-0.988-0.931-0.978-1.607c-0.037-0.832,0.573-1.576,1.394-1.729v-0.277
		c0-0.414,0.336-0.75,0.75-0.75s0.75,0.336,0.75,0.75v0.25l0.5,0c0.414,0,0.75,0.336,0.75,0.75s-0.336,0.75-0.75,0.75h-1.75
		c-0.059,0.005-0.151,0.1-0.145,0.215c0.001,0.025,0.001,0.048,0,0.07c-0.002,0.083,0.044,0.17,0.119,0.219l1.711,0.597
		c0.03,0.01,0.061,0.023,0.09,0.038c0.602,0.299,0.986,0.93,0.975,1.605c0.039,0.868-0.627,1.64-1.5,1.745v0.26
		C21.752,23.069,21.415,23.406,21.002,23.406z"/>
	<path d="M3.001,8.406c-0.414,0-0.75-0.336-0.75-0.75v-0.25l-0.749,0c-0.414,0-0.75-0.336-0.75-0.75s0.336-0.75,0.75-0.75h2.105
		c0.059-0.005,0.152-0.1,0.145-0.215c-0.001-0.019-0.001-0.04-0.001-0.061c0.002-0.092-0.044-0.179-0.119-0.229L1.921,4.805
		c-0.029-0.01-0.058-0.022-0.086-0.036C1.23,4.468,0.846,3.837,0.857,3.161C0.82,2.328,1.43,1.585,2.251,1.432V1.156
		c0-0.414,0.336-0.75,0.75-0.75s0.75,0.336,0.75,0.75v0.25l0.5,0c0.414,0,0.75,0.336,0.75,0.75s-0.336,0.75-0.75,0.75H2.502
		C2.44,2.91,2.349,3.004,2.356,3.121c0.001,0.019,0.001,0.04,0.001,0.06C2.354,3.273,2.4,3.36,2.475,3.409l1.711,0.597
		c0.029,0.01,0.059,0.023,0.088,0.037C4.878,4.344,5.262,4.975,5.251,5.65c0.039,0.868-0.626,1.64-1.5,1.745v0.26
		C3.751,8.069,3.414,8.406,3.001,8.406z"/>
</g>
</svg>
