
<svg version="1.1" id="target" xmlns="http://www.w3.org/2000/svg" xmlns:xlink="http://www.w3.org/1999/xlink" x="0px" y="0px"
	 viewBox="0 0 24 24" style="enable-background:new 0 0 24 24;" xml:space="preserve">
<title>renewable-energy-wind-turbine-2</title>
<g>
	<path d="M0.5,24C0.224,24,0,23.775,0,23.5S0.224,23,0.5,23h9.069l1.287-8.573c0.036-0.243,0.248-0.426,0.491-0.426
		c0.209,0.025,0.326,0.096,0.405,0.203c0.079,0.107,0.112,0.239,0.092,0.371L10.581,23h3.839l-1.265-8.434
		c-0.041-0.272,0.147-0.527,0.42-0.568c0.006,0,0.012,0,0.018,0c0.316,0,0.515,0.177,0.551,0.42L15.43,23h8.07
		c0.275,0,0.5,0.225,0.5,0.5S23.775,24,23.5,24H0.5z"/>
	<path d="M4.721,16.755l-0.097-0.018c-0.125-0.032-0.237-0.118-0.303-0.234c-0.388-0.672-0.551-1.838,0.883-3.567
		c0.945-1.141,2.237-2.097,3.056-2.569c0.285-0.151,0.597-0.229,0.91-0.229c0.162,0,0.323,0.021,0.479,0.061
		c0-0.006,0-0.011,0-0.017c0-1.006,0.535-1.912,1.393-2.403C10.71,7.435,10.513,6.978,10.5,6.494V0.5C10.5,0.224,10.724,0,11,0
		c0.575,0,1.1,0.234,1.561,0.696c1.307,1.31,1.789,4.243,1.786,5.785c-0.013,0.491-0.209,0.951-0.539,1.294
		c0.849,0.484,1.383,1.373,1.397,2.366c0.135-0.029,0.272-0.044,0.409-0.044c0.347,0,0.688,0.095,0.987,0.274l5.172,2.984
		c0.115,0.066,0.2,0.179,0.233,0.307c0.034,0.123,0.017,0.262-0.05,0.377c-0.434,0.748-1.241,1.128-2.401,1.128
		c-1.607,0-3.659-0.761-4.885-1.468c-0.432-0.259-0.74-0.649-0.885-1.106c-0.417,0.24-0.881,0.366-1.359,0.366
		c-0.493,0-0.968-0.133-1.395-0.387c-0.129,0.466-0.423,0.86-0.834,1.116l-5.193,3c-0.078,0.044-0.164,0.066-0.25,0.066H4.721z
		 M9.175,11.134c-0.15,0-0.299,0.037-0.431,0.107c-0.735,0.425-1.909,1.294-2.771,2.333c-0.451,0.544-0.939,1.286-0.922,1.932
		l4.632-2.674c0.197-0.124,0.34-0.326,0.396-0.566s0.014-0.488-0.117-0.698C9.792,11.296,9.498,11.134,9.175,11.134z M15.614,11.097
		c-0.074,0-0.15,0.01-0.227,0.028c-0.221,0.055-0.408,0.192-0.542,0.396c-0.267,0.511-0.121,1.046,0.292,1.293
		c1.164,0.672,3.06,1.355,4.424,1.355c0.497,0,0.888-0.088,1.167-0.262l-4.634-2.675C15.943,11.142,15.782,11.097,15.614,11.097z
		 M12.427,8.403c-0.98,0-1.778,0.798-1.778,1.778s0.797,1.778,1.778,1.778c0.585,0,1.134-0.291,1.468-0.777
		c0.017-0.051,0.039-0.101,0.067-0.148l0.245,0.086l-0.182-0.174c0.113-0.23,0.18-0.497,0.18-0.764
		C14.205,9.201,13.407,8.403,12.427,8.403z M11.5,6.48c0.006,0.236,0.109,0.463,0.288,0.633c0.179,0.169,0.38,0.255,0.598,0.255
		c0.554-0.015,0.949-0.41,0.961-0.9c0.003-1.433-0.47-4.039-1.494-5.064c-0.114-0.114-0.232-0.205-0.353-0.271V6.48z"/>
</g>
</svg>
