
<svg version="1.1" id="target" xmlns="http://www.w3.org/2000/svg" xmlns:xlink="http://www.w3.org/1999/xlink" x="0px" y="0px"
	 viewBox="0 0 24 24" style="enable-background:new 0 0 24 24;" xml:space="preserve">
<g>
	<title>people-man-12</title>
	<path d="M2.513,24c-0.058,0-0.116-0.007-0.172-0.02c-0.196-0.046-0.361-0.166-0.466-0.336c-0.105-0.17-0.138-0.372-0.091-0.567
		c0.493-2.08,1.576-3.921,3.139-5.343l-1.046-1.568c-0.229-0.344-0.136-0.811,0.208-1.04C4.208,15.043,4.352,15,4.5,15
		c0.252,0,0.485,0.125,0.625,0.334l0.981,1.472c0.565-0.381,1.171-0.708,1.806-0.975c0.027-0.013,0.055-0.025,0.083-0.035
		c0.519-0.214,1.057-0.389,1.583-0.514c0.794-0.188,1.606-0.283,2.415-0.283c1.361,0,2.694,0.262,3.962,0.781
		c0.053,0.015,0.105,0.036,0.154,0.063c0.62,0.265,1.218,0.591,1.78,0.972l0.987-1.48C19.016,15.125,19.25,15,19.501,15
		c0.148,0,0.292,0.044,0.416,0.126c0.166,0.111,0.28,0.28,0.319,0.477c0.039,0.197,0,0.397-0.112,0.563l-1.052,1.578
		c1.57,1.426,2.655,3.263,3.146,5.333c0.095,0.402-0.155,0.807-0.557,0.903C21.604,23.993,21.546,24,21.489,24l0,0
		c-0.349,0-0.649-0.237-0.73-0.577c-0.625-2.637-2.367-4.809-4.801-6.001l-3.381,4.058c-0.143,0.172-0.353,0.27-0.576,0.27
		s-0.433-0.098-0.576-0.27L8.04,17.418c-0.567,0.276-1.104,0.611-1.599,0.999c-0.033,0.032-0.068,0.061-0.106,0.086
		c-0.003,0.002-0.007,0.004-0.01,0.007c-1.544,1.244-2.617,2.948-3.083,4.914C3.162,23.763,2.862,24,2.513,24z M12.001,19.828
		l2.48-2.977c-0.81-0.234-1.644-0.353-2.486-0.353c-0.694,0-1.391,0.082-2.071,0.243c-0.13,0.031-0.265,0.067-0.406,0.108
		L12.001,19.828z"/>
	<path d="M12.001,14.25c-3.308,0-6-2.692-6-6c0-0.251,0.016-0.502,0.047-0.75H4.501c-0.414,0-0.75-0.336-0.75-0.75S4.087,6,4.501,6
		H6.44c0.274-0.673,0.672-1.297,1.169-1.832L6.22,2.78c-0.142-0.141-0.22-0.33-0.22-0.53s0.078-0.389,0.22-0.53
		C6.362,1.578,6.55,1.5,6.751,1.5s0.389,0.078,0.53,0.22l1.482,1.482c0.752-0.484,1.601-0.792,2.487-0.904V0.75
		c0-0.414,0.336-0.75,0.75-0.75s0.75,0.336,0.75,0.75v1.548c0.886,0.111,1.735,0.42,2.487,0.904L16.72,1.72
		c0.142-0.142,0.33-0.22,0.53-0.22s0.389,0.078,0.53,0.22c0.142,0.141,0.22,0.33,0.22,0.53c0,0.2-0.078,0.389-0.22,0.53
		l-1.388,1.388C16.89,4.704,17.288,5.328,17.562,6h1.939c0.414,0,0.75,0.336,0.75,0.75s-0.336,0.75-0.75,0.75h-1.547
		c0.031,0.248,0.047,0.499,0.047,0.75C18.001,11.558,15.309,14.25,12.001,14.25z M11.251,3.817c-2.133,0.361-3.75,2.234-3.75,4.433
		c0,2.481,2.019,4.5,4.5,4.5c2.481,0,4.5-2.019,4.5-4.5c0-2.198-1.617-4.072-3.75-4.433V4.5c0,0.414-0.336,0.75-0.75,0.75
		s-0.75-0.336-0.75-0.75V3.817z"/>
</g>
</svg>
