
<svg version="1.1" id="target" xmlns="http://www.w3.org/2000/svg" xmlns:xlink="http://www.w3.org/1999/xlink" x="0px" y="0px"
	 viewBox="0 0 24 24" style="enable-background:new 0 0 24 24;" xml:space="preserve">
<title>programming-hold-laptop</title>
<g>
	<path d="M15,24c-0.552,0-1-0.448-1-1v-2c0-0.552,0.448-1,1-1v-4.046l0.021-0.104c0.395-1.383,0.921-2.744,1.563-4.042
		c0.351-0.551,0.832-0.854,1.335-0.854c0.17,0,0.338,0.035,0.498,0.103c0.574,0.245,1.041,0.966,0.788,2.025l-0.299,1.303
		l1.595-1.593c0.023-3.243,0.6-5.282,1.712-6.062c0.391-0.274,0.765-0.332,1.011-0.332c0.238,0,0.413,0.054,0.461,0.074
		C23.867,6.539,24,6.728,24,6.938v7.647c-0.001,0.398-0.165,0.787-0.45,1.066c-0.935,0.935-2.982,2.964-3.55,3.525V20
		c0.552,0,1,0.448,1,1v2c0,0.552-0.448,1-1,1H15z M15,23h5v-2h-5V23z M19,20v-1.032c0-0.134,0.055-0.264,0.149-0.356
		c0,0,2.603-2.576,3.697-3.671c0.098-0.096,0.152-0.226,0.153-0.357V7.437c-0.066,0.024-0.142,0.062-0.224,0.12
		C22.393,7.834,21.5,8.918,21.5,13c0,0.134-0.052,0.259-0.146,0.354l-2.969,2.968c-0.094,0.094-0.223,0.147-0.354,0.147
		c-0.086,0-0.17-0.022-0.244-0.064c-0.191-0.105-0.293-0.331-0.244-0.547l0.688-3.001c0.118-0.494-0.023-0.801-0.206-0.879
		c-0.033-0.014-0.066-0.021-0.103-0.021c-0.153,0-0.334,0.132-0.471,0.344c-0.587,1.194-1.083,2.479-1.461,3.795L15.999,20H19z"/>
	<path d="M4,24c-0.551,0-1-0.448-1-1v-2c0-0.552,0.449-1,1-1v-0.832c-0.656-0.685-2.526-2.625-3.506-3.512
		C0.18,15.373,0,14.967,0,14.543v-7.6c0-0.209,0.132-0.398,0.328-0.47c0.003-0.001,0.181-0.069,0.451-0.069
		c0.245,0,0.619,0.057,1.008,0.33C2.9,7.512,3.476,9.55,3.5,12.792l1.594,1.593l-0.3-1.306c-0.252-1.055,0.214-1.776,0.789-2.021
		c0.162-0.068,0.33-0.103,0.501-0.103c0.5,0,0.977,0.293,1.306,0.805c0.665,1.336,1.195,2.707,1.591,4.095l0.01,0.033L9,15.991V20
		c0.551,0,1,0.448,1,1v2c0,0.552-0.449,1-1,1H4z M4,23h5v-2H4C4,21,4,23,4,23z M8,20v-3.974c-0.369-1.248-0.87-2.541-1.479-3.775
		c-0.114-0.172-0.289-0.295-0.441-0.295c-0.037,0-0.072,0.007-0.106,0.021c-0.181,0.077-0.323,0.384-0.207,0.874l0.689,3.005
		c0.05,0.216-0.051,0.442-0.246,0.549c-0.072,0.041-0.156,0.062-0.241,0.062c-0.133,0-0.258-0.052-0.354-0.146l-2.97-2.969
		C2.552,13.259,2.5,13.134,2.5,13c0-4.105-0.899-5.177-1.286-5.447C1.135,7.498,1.063,7.462,1,7.439v7.104
		c0,0.142,0.06,0.277,0.164,0.371c1.199,1.085,3.675,3.686,3.699,3.71C4.951,18.715,5,18.838,5,18.968V20H8z"/>
	<path d="M7,10c-1.378,0-2.5-1.122-2.5-2.5C4.5,7.224,4.724,7,5,7h1V1.5C6,0.673,6.673,0,7.5,0h9C17.327,0,18,0.673,18,1.5V7h1
		c0.275,0,0.5,0.224,0.5,0.5c0,1.378-1.121,2.5-2.5,2.5H7z M5.586,8C5.794,8.586,6.359,9,7,9h10c0.641,0,1.205-0.414,1.414-1H5.586z
		 M17,7V1.5C17,1.224,16.775,1,16.5,1h-9C7.224,1,7,1.224,7,1.5V7H17z"/>
</g>
</svg>
