
<svg version="1.1" id="target" xmlns="http://www.w3.org/2000/svg" xmlns:xlink="http://www.w3.org/1999/xlink" x="0px" y="0px"
	 viewBox="0 0 24 24" style="enable-background:new 0 0 24 24;" xml:space="preserve">
<title>design-tool-layout</title>
<g>
	<path d="M1.5,24C0.673,24,0,23.327,0,22.5v-21C0,0.673,0.673,0,1.5,0h21C23.327,0,24,0.673,24,1.5v21c0,0.827-0.673,1.5-1.5,1.5
		H1.5z M1.5,1C1.224,1,1,1.224,1,1.5v21C1,22.775,1.224,23,1.5,23h21c0.275,0,0.5-0.225,0.5-0.5v-21C23,1.224,22.775,1,22.5,1H1.5z"
		/>
	<path d="M4,16c-0.551,0-1-0.448-1-1V4c0-0.551,0.449-1,1-1h11c0.552,0,1,0.449,1,1v11c0,0.552-0.448,1-1,1H4z M14.293,15
		l-1.997-1.997C11.492,13.647,10.508,14,9.5,14s-1.993-0.353-2.796-0.998L4.707,15H14.293z M15,14.293V4.707l-1.998,1.997
		C13.647,7.507,14,8.492,14,9.5s-0.353,1.992-0.997,2.796L15,14.293z M4,14.293l1.997-1.998C5.353,11.493,5,10.509,5,9.5
		s0.353-1.993,0.997-2.796L4,4.707V14.293z M7.416,12.291C8.024,12.75,8.755,13,9.5,13c0.744,0,1.475-0.25,2.084-0.708L9.5,10.207
		L7.416,12.291z M12.292,11.584C12.75,10.975,13,10.244,13,9.5c0-0.745-0.25-1.476-0.709-2.084L10.207,9.5L12.292,11.584z
		 M6.708,7.416C6.25,8.025,6,8.756,6,9.5s0.25,1.475,0.708,2.084L8.793,9.5L6.708,7.416z M9.5,8.793l2.084-2.084
		C10.975,6.25,10.244,6,9.5,6S8.025,6.25,7.416,6.708L9.5,8.793z M6.704,5.997C7.507,5.353,8.491,5,9.5,5s1.993,0.353,2.795,0.997
		L14.293,4H4.707L6.704,5.997z"/>
	<path d="M19.5,4C19.225,4,19,3.776,19,3.5S19.225,3,19.5,3h2C21.775,3,22,3.224,22,3.5S21.775,4,21.5,4H19.5z"/>
	<path d="M19.5,6C19.225,6,19,5.776,19,5.5S19.225,5,19.5,5h2C21.775,5,22,5.224,22,5.5S21.775,6,21.5,6H19.5z"/>
	<path d="M19.5,8C19.225,8,19,7.776,19,7.5S19.225,7,19.5,7h2C21.775,7,22,7.224,22,7.5S21.775,8,21.5,8H19.5z"/>
	<path d="M19.5,14c-0.275,0-0.5-0.225-0.5-0.5s0.225-0.5,0.5-0.5h2c0.275,0,0.5,0.225,0.5,0.5S21.775,14,21.5,14H19.5z"/>
	<path d="M19.5,16c-0.275,0-0.5-0.225-0.5-0.5s0.225-0.5,0.5-0.5h2c0.275,0,0.5,0.225,0.5,0.5S21.775,16,21.5,16H19.5z"/>
	<path d="M19,22c-0.552,0-1-0.448-1-1v-2c0-0.552,0.448-1,1-1h2c0.552,0,1,0.448,1,1v2c0,0.552-0.448,1-1,1H19z M19,21h2v-2h-2V21z"
		/>
	<path d="M14,22c-0.552,0-1-0.448-1-1v-2c0-0.552,0.448-1,1-1h2c0.552,0,1,0.448,1,1v2c0,0.552-0.448,1-1,1H14z M14,21h2v-2h-2V21z"
		/>
	<path d="M3.5,19C3.224,19,3,18.775,3,18.5S3.224,18,3.5,18h7c0.276,0,0.5,0.225,0.5,0.5S10.776,19,10.5,19H3.5z"/>
	<path d="M3.5,22C3.224,22,3,21.775,3,21.5S3.224,21,3.5,21h5C8.776,21,9,21.225,9,21.5S8.776,22,8.5,22H3.5z"/>
</g>
</svg>
