<?xml version="1.0" encoding="utf-8"?>
<!-- Generator: Adobe Illustrator 22.0.0, SVG Export Plug-In . SVG Version: 6.00 Build 0)  -->
<svg version="1.1" id="target" xmlns="http://www.w3.org/2000/svg" xmlns:xlink="http://www.w3.org/1999/xlink" x="0px" y="0px"
	 viewBox="0 0 25 25" style="enable-background:new 0 0 25 25;" xml:space="preserve">
<g>
	<path d="M9.2,21.2c-1.8,0-3.6-0.7-4.9-1.8c-1.4-1.2-2.2-2.8-2.5-4.6C1.6,13,2,11.2,3,9.7C4,8.1,5.5,7,7.2,6.5
		c0.3-0.1,0.5-0.4,0.5-0.7V1.8h3v4.1c0,0.3,0.2,0.6,0.5,0.7c1.2,0.3,2.4,1,3.3,1.9c0.9,0.9,1.6,2,1.9,3.3c0.1,0.4,0.5,0.6,0.9,0.5
		c0.4-0.1,0.6-0.5,0.5-0.9c-0.4-1.5-1.2-2.8-2.3-3.9c-1-0.9-2.1-1.7-3.4-2.1V1.8h2.2c0.4,0,0.8-0.3,0.8-0.8s-0.3-0.8-0.8-0.8H4.8
		C4.3,0.2,4,0.6,4,1s0.3,0.8,0.8,0.8h1.5v3.5C4.4,5.9,2.8,7.2,1.7,8.8c-1.2,1.8-1.7,4-1.4,6.2c0.3,2.2,1.4,4.1,3,5.5
		C5,22,7.1,22.8,9.2,22.8c0.4,0,0.8-0.3,0.8-0.8S9.7,21.2,9.2,21.2z"/>
	<path d="M24.2,15.3c0-0.2-0.2-0.4-0.4-0.5c-1.4-0.7-2.9-1-4.5-1c-1.5,0-3.1,0.4-4.5,1.1c-1.2,0.7-1.9,1.6-2.1,2.6
		c-0.2,1,0.1,2.1,0.9,3.3c-0.4,0.7-0.9,1.5-1.3,2.4c-0.2,0.4,0,0.8,0.4,1c0.1,0,0.2,0.1,0.3,0.1c0.3,0,0.6-0.2,0.7-0.5
		c0.3-0.6,0.5-1.2,0.8-1.7c0.6,0.8,1.7,1.9,3.2,1.9c0.1,0,0.2,0,0.3,0c3.3-0.3,4.2-3.4,4.9-5.7c0.3-1,0.6-2,1-2.5
		C24.2,15.7,24.3,15.5,24.2,15.3z M21.7,18c-0.8,2.6-1.5,4.4-3.6,4.6c-1.3,0.1-2.2-1.3-2.5-1.8c1.2-1.4,2.2-1.6,2.3-1.6
		c0.4-0.1,0.7-0.4,0.6-0.8c0-0.4-0.4-0.7-0.8-0.7c-0.1,0-1.5,0.2-3,1.8c-0.4-0.6-0.5-1.2-0.4-1.8c0.1-0.6,0.5-1.2,1.3-1.6
		c1.2-0.6,2.5-0.9,3.8-0.9c1,0,2.1,0.2,3.1,0.5C22.1,16.4,21.9,17.2,21.7,18z"/>
	<circle cx="7.4" cy="10.4" r="1.1"/>
	<circle cx="11.9" cy="12.6" r="1.1"/>
	<circle cx="6.6" cy="15.6" r="1.1"/>
</g>
</svg>
