
<svg version="1.1" id="target" xmlns="http://www.w3.org/2000/svg" xmlns:xlink="http://www.w3.org/1999/xlink" x="0px" y="0px"
	 viewBox="0 0 24 24" style="enable-background:new 0 0 24 24;" xml:space="preserve">
<g>
	<title>global-warming-globe-fire-1</title>
	<path d="M18.112,24c-2.973,0-5.392-2.416-5.392-5.386c-0.121-1.836,0.866-3.621,2.515-4.522C15.346,14.032,15.47,14,15.595,14
		c0.115,0,0.231,0.027,0.335,0.079c0.22,0.109,0.372,0.32,0.407,0.563c0.06,0.411,0.357,0.744,0.742,0.862
		c0.501-1.183,0.477-2.552-0.074-3.717c-0.148-0.289-0.153-0.653-0.008-0.964c0.125-0.272,0.35-0.479,0.633-0.583
		c0.125-0.046,0.255-0.069,0.388-0.069c0.16,0,0.316,0.034,0.463,0.1c3.319,1.414,5.335,4.783,5.012,8.383
		c-0.056,2.959-2.415,5.306-5.375,5.346C18.116,24,18.114,24,18.112,24z M15.26,15.915c-0.713,0.68-1.106,1.66-1.041,2.65
		c0.002,2.18,1.746,3.935,3.889,3.935c2.148-0.029,3.857-1.741,3.886-3.896c0-0.023,0.002-0.042,0.003-0.061
		c0.247-2.65-1.052-5.149-3.291-6.479c0.437,1.529,0.259,3.188-0.523,4.595c-0.123,0.221-0.346,0.364-0.598,0.384
		c-0.066,0.005-0.133,0.008-0.2,0.008C16.52,17.051,15.729,16.617,15.26,15.915z"/>
	<path d="M10.199,19.5c-2.972,0-5.745-1.336-7.611-3.666c-0.039-0.039-0.074-0.081-0.104-0.126
		c-0.004-0.006-0.008-0.013-0.013-0.021c-1.323-1.718-2.023-3.769-2.023-5.934C0.448,6.835,1.742,4.094,4,2.23
		c0.042-0.043,0.089-0.08,0.142-0.113C5.883,0.733,7.975,0.001,10.196,0c4.772,0,8.814,3.412,9.614,8.114
		c0.034,0.197-0.011,0.396-0.127,0.559c-0.116,0.163-0.289,0.272-0.486,0.306c-0.042,0.007-0.084,0.011-0.126,0.011
		c-0.367,0-0.678-0.263-0.739-0.624c-0.235-1.378-0.809-2.666-1.671-3.751l-0.43,0.578c-0.437,0.589-0.56,1.357-0.328,2.053
		l0.255,0.768c0.13,0.393-0.083,0.818-0.476,0.948C15.607,8.987,15.527,9,15.447,9c-0.324,0-0.61-0.206-0.712-0.514L14.48,7.72
		c-0.387-1.16-0.183-2.439,0.547-3.422l0.582-0.783C14.11,2.213,12.202,1.5,10.199,1.5c-1.431,0-2.816,0.367-4.049,1.065l4.04,1.534
		c1.037,0.389,1.632,1.461,1.413,2.549L11.29,8.215c-0.17,0.849-0.822,1.533-1.662,1.743l-1.707,0.427L6.91,12.913
		c-0.283,0.708-0.767,1.305-1.401,1.728L4.25,15.457C5.806,17.078,7.95,18,10.199,18c0.416,0,0.752,0.336,0.752,0.75
		s-0.336,0.75-0.75,0.75H10.199z M4.691,3.616C2.945,5.185,1.948,7.409,1.948,9.752c0,1.622,0.47,3.179,1.36,4.528l1.376-0.892
		c0.374-0.249,0.663-0.607,0.833-1.031l1.154-2.885c0.089-0.223,0.281-0.391,0.515-0.449l2.079-0.52
		c0.28-0.07,0.498-0.298,0.554-0.581l0.313-1.568c0.073-0.364-0.125-0.721-0.472-0.851L4.691,3.616z"/>
</g>
</svg>
