<svg id="target" width="24" height="24" viewBox="0 0 24 24" fill="none" xmlns="http://www.w3.org/2000/svg">
<path fill-rule="evenodd" clip-rule="evenodd" d="M2.78329e-05 6.56006C0.00411719 2.9386 3.06112 0.00390625 6.8334 0C10.6057 0.00390625 13.6627 2.9386 13.6667 6.56006C13.6718 8.29834 12.9516 9.96619 11.6667 11.191V13.6C11.6673 14.3679 11.149 15.0475 10.3863 15.2789C9.6235 15.5103 8.79257 15.24 8.3334 14.6112C7.99051 15.0807 7.43069 15.3602 6.8334 15.3602C6.23611 15.3602 5.6763 15.0807 5.3334 14.6112C4.87423 15.24 4.04324 15.5103 3.28048 15.2789C2.51779 15.0475 1.99948 14.3679 2.00003 13.6V11.191C0.715116 9.96619 -0.00516016 8.29834 2.78329e-05 6.56006ZM9.8334 5.12C9.00497 5.12 8.3334 5.76465 8.3334 6.55994C8.3334 7.35522 9.00497 8 9.8334 8C10.6618 8 11.3334 7.35522 11.3334 6.55994C11.3334 5.76465 10.6618 5.12 9.8334 5.12ZM8.00009 10.9556C7.9711 11.0074 7.91476 11.0399 7.85342 11.04H5.81143C5.75009 11.0399 5.69381 11.0074 5.66482 10.9556C5.63583 10.9037 5.63888 10.8408 5.67276 10.7916L6.69473 9.3197C6.72543 9.2749 6.77755 9.24792 6.8334 9.24792C6.88925 9.24792 6.94137 9.2749 6.97207 9.3197L7.99405 10.7916C8.02792 10.8407 8.03097 10.9037 8.0021 10.9556H8.00009ZM3.8334 5.12C3.00497 5.12 2.3334 5.76465 2.3334 6.55994C2.3334 7.35522 3.00497 8 3.8334 8C4.66183 8 5.3334 7.35522 5.3334 6.55994C5.3334 5.76465 4.66183 5.12 3.8334 5.12Z" transform="translate(5.16663 4)" fill="currentcolor"/>
</svg>
