<svg id="target" width="24" height="24" viewBox="0 0 24 24" fill="none" xmlns="http://www.w3.org/2000/svg">
<path d="M4.69151 1.9252C5.09276 1.82238 5.33469 1.41375 5.23188 1.0125C5.12906 0.611253 4.72043 0.369325 4.31918 0.472142L4.69151 1.9252ZM3.00535 12.1987H3.75535C3.75535 11.9303 3.61192 11.6823 3.37924 11.5485L3.00535 12.1987ZM2.25535 14.9987C2.25535 15.4129 2.59113 15.7487 3.00535 15.7487C3.41956 15.7487 3.75535 15.4129 3.75535 14.9987H2.25535ZM6.75537 5C6.75537 5.41421 7.09116 5.75 7.50537 5.75C7.91958 5.75 8.25537 5.41421 8.25537 5H6.75537ZM7.50537 0.5L8.25537 0.5L7.50537 0.5ZM3.75537 5C3.75537 5.41421 4.09116 5.75 4.50537 5.75C4.91958 5.75 5.25537 5.41421 5.25537 5H3.75537ZM8.25537 15C8.25537 15.4142 8.59116 15.75 9.00537 15.75C9.41958 15.75 9.75537 15.4142 9.75537 15H8.25537ZM9.00537 13.5067L9.12879 12.7669C8.91131 12.7306 8.68888 12.7919 8.52064 12.9344C8.35239 13.0769 8.25537 13.2862 8.25537 13.5067H9.00537ZM9.6767 13.6187L9.55329 14.3585L9.55345 14.3585L9.6767 13.6187ZM12.0054 11.646L12.7554 11.6461V11.646H12.0054ZM12.0054 10.0067L11.824 9.27894C11.4899 9.36221 11.2554 9.66232 11.2554 10.0067H12.0054ZM12.6287 9.85135L12.8101 10.5791L12.8105 10.579L12.6287 9.85135ZM13.218 8.32601L12.594 8.74199L12.5942 8.74238L13.218 8.32601ZM12.0054 6.50668H11.2554C11.2554 6.65473 11.2992 6.79946 11.3813 6.92265L12.0054 6.50668ZM7.65493 0.405078C7.24904 0.322478 6.85304 0.584559 6.77043 0.990453C6.68783 1.39635 6.94992 1.79235 7.35581 1.87495L7.65493 0.405078ZM4.31918 0.472142C1.66233 1.15294 -0.317404 3.37522 -0.687978 6.09276L0.798268 6.29543C1.0864 4.18245 2.62572 2.45454 4.69151 1.9252L4.31918 0.472142ZM-0.687978 6.09276C-1.05855 8.8103 0.253886 11.4815 2.63145 12.8488L3.37924 11.5485C1.5306 10.4854 0.510133 8.40842 0.798268 6.29543L-0.687978 6.09276ZM2.25535 12.1987V14.9987H3.75535V12.1987H2.25535ZM6.00537 10.25C7.8003 10.25 9.25537 8.79493 9.25537 7H7.75537C7.75537 7.9665 6.97187 8.75 6.00537 8.75V10.25ZM9.25537 7C9.25537 5.20507 7.8003 3.75 6.00537 3.75V5.25C6.97187 5.25 7.75537 6.0335 7.75537 7H9.25537ZM6.00537 3.75C4.21045 3.75 2.75537 5.20507 2.75537 7H4.25537C4.25537 6.0335 5.03887 5.25 6.00537 5.25V3.75ZM2.75537 7C2.75537 8.79493 4.21045 10.25 6.00537 10.25V8.75C5.03887 8.75 4.25537 7.9665 4.25537 7H2.75537ZM8.25537 5V0.5H6.75537V5H8.25537ZM8.25537 0.5C8.25537 -0.190356 7.69573 -0.75 7.00537 -0.75V0.75C6.8673 0.75 6.75537 0.638071 6.75537 0.5L8.25537 0.5ZM7.00537 -0.75H5.00537V0.75H7.00537V-0.75ZM5.00537 -0.75C4.31502 -0.75 3.75537 -0.190356 3.75537 0.5H5.25537C5.25537 0.638071 5.14344 0.75 5.00537 0.75V-0.75ZM3.75537 0.5V5H5.25537V0.5H3.75537ZM9.75537 15V13.5067H8.25537V15H9.75537ZM8.88195 14.2465L9.55329 14.3585L9.80012 12.8789L9.12879 12.7669L8.88195 14.2465ZM9.55345 14.3585C10.3508 14.4913 11.1661 14.2666 11.7829 13.7442L10.8133 12.5996C10.533 12.8371 10.1624 12.9393 9.79995 12.8789L9.55345 14.3585ZM11.7829 13.7442C12.3996 13.2217 12.7553 12.4544 12.7554 11.6461L11.2554 11.646C11.2553 12.0134 11.0937 12.3622 10.8133 12.5996L11.7829 13.7442ZM12.7554 11.646V10.0067H11.2554V11.646H12.7554ZM12.1867 10.7344L12.8101 10.5791L12.4474 9.1236L11.824 9.27894L12.1867 10.7344ZM12.8105 10.579C13.3628 10.441 13.8135 10.0429 14.0187 9.51187L12.6195 8.97127C12.5902 9.04714 12.5258 9.104 12.4469 9.12372L12.8105 10.579ZM14.0187 9.51187C14.2239 8.98083 14.1579 8.38316 13.8418 7.90964L12.5942 8.74238C12.6394 8.81003 12.6488 8.89541 12.6195 8.97127L14.0187 9.51187ZM13.8421 7.91004L12.6294 6.09071L11.3813 6.92265L12.594 8.74199L13.8421 7.91004ZM12.7554 6.50668V6.00668H11.2554V6.50668H12.7554ZM12.7554 6.00668C12.7554 3.20577 10.5032 0.984719 7.65493 0.405078L7.35581 1.87495C9.6835 2.34864 11.2554 4.08626 11.2554 6.00668H12.7554Z" transform="translate(5.30334 4.5)" fill="currentColor"/>
</svg>
