<svg id="target" width="24" height="24" viewBox="0 0 24 24" fill="none" xmlns="http://www.w3.org/2000/svg">
<path fill-rule="evenodd" clip-rule="evenodd" d="M7.9967 0.000633814C10.93 -0.040687 13.8547 2.00997 15.6174 3.94997C16.1183 4.50881 16.1191 5.35482 15.6193 5.91464C13.8754 7.83468 10.9927 9.86733 8.09467 9.86733H7.88934C5.00134 9.86733 2.11737 7.83468 0.375366 5.91531C-0.125122 5.3558 -0.125122 4.50954 0.375366 3.94997C2.13867 2.01064 5.06335 -0.0413584 7.9967 0.000633814ZM7.99664 1.86733C6.30298 1.86733 4.92999 3.24032 4.92999 4.93398C4.92999 6.62765 6.30298 8.0007 7.99664 8.0007C9.69031 8.0007 11.0634 6.62765 11.0634 4.93398C11.0634 3.24032 9.69031 1.86733 7.99664 1.86733Z" transform="translate(4.0033 7.06604)" fill="currentcolor"/>
<path d="M7.99666 6.26731C8.73304 6.26731 9.33 5.67036 9.33 4.93398C9.33 4.1976 8.73304 3.60065 7.99666 3.60065C7.26028 3.60065 6.66333 4.1976 6.66333 4.93398C6.66333 5.67036 7.26028 6.26731 7.99666 6.26731Z" transform="translate(4.0033 7.06604)" fill="currentcolor"/>
</svg>
