<svg id="target" width="24" height="24" viewBox="0 0 24 24" fill="none" xmlns="http://www.w3.org/2000/svg">
<g id="grenade">

<path id="Vector" d="M7.8407 4.187L7.45079 3.874L7.4507 3.87411L7.8407 4.187ZM8.2307 4L8.23061 4.5H8.2307V4ZM13.7557 4V4.5L13.7564 4.5L13.7557 4ZM14.1447 4.185L13.7564 4.5L13.7565 4.50016L14.1447 4.185ZM14.1447 22.821L13.7619 22.4993L13.7614 22.5L14.1447 22.821ZM13.7617 23V23.5H13.7621L13.7617 23ZM8.2257 23V22.5H8.22489L8.2257 23ZM7.8407 22.82L7.45625 23.1397L7.45652 23.14L7.8407 22.82ZM0.688476 18.7686C0.801453 19.0205 1.0973 19.1332 1.34928 19.0202C1.60125 18.9073 1.71393 18.6114 1.60095 18.3594L0.688476 18.7686ZM5.40972 1V0.5C5.30344 0.5 5.19992 0.533865 5.11419 0.596682L5.40972 1ZM17.7577 1.5C18.0339 1.5 18.2577 1.27614 18.2577 1C18.2577 0.723858 18.0339 0.5 17.7577 0.5V1.5ZM5.38971 7.5C5.11357 7.5 4.88971 7.72386 4.88971 8C4.88971 8.27614 5.11357 8.5 5.38971 8.5V7.5ZM16.6247 8.5C16.9009 8.5 17.1247 8.27614 17.1247 8C17.1247 7.72386 16.9009 7.5 16.6247 7.5V8.5ZM5.33371 18.5C5.05757 18.5 4.83371 18.7239 4.83371 19C4.83371 19.2761 5.05757 19.5 5.33371 19.5V18.5ZM16.6787 19.5C16.9549 19.5 17.1787 19.2761 17.1787 19C17.1787 18.7239 16.9549 18.5 16.6787 18.5V19.5ZM9.49271 1C9.49271 0.723858 9.26885 0.5 8.99271 0.5C8.71656 0.5 8.49271 0.723858 8.49271 1H9.49271ZM8.49271 4C8.49271 4.27614 8.71656 4.5 8.99271 4.5C9.26885 4.5 9.49271 4.27614 9.49271 4H8.49271ZM13.4927 1C13.4927 0.723858 13.2688 0.5 12.9927 0.5C12.7166 0.5 12.4927 0.723858 12.4927 1H13.4927ZM12.4927 4C12.4927 4.27614 12.7166 4.5 12.9927 4.5C13.2688 4.5 13.4927 4.27614 13.4927 4H12.4927ZM8.23061 4.5L7.79826 3.5983C7.66326 3.66303 7.54451 3.75725 7.45079 3.874L8.23061 4.5ZM8.23061 4.5L8.23079 3.5C8.08108 3.49997 7.93326 3.53356 7.79826 3.5983L8.23061 4.5ZM8.2307 4.5H13.7557V3.5H8.2307V4.5ZM13.7564 4.5L14.1859 3.59693C14.0513 3.53291 13.9041 3.49979 13.755 3.5L13.7564 4.5ZM13.7564 4.5L14.533 3.87C14.4391 3.75424 14.3205 3.66094 14.1859 3.59693L13.7564 4.5ZM13.7565 4.50016C16.2777 7.60527 17.4953 10.6333 17.4926 13.5929C17.4898 16.5511 16.2678 19.5171 13.7619 22.4993L14.5275 23.1427C17.1406 20.0329 18.4896 16.8474 18.4926 13.5938C18.4956 10.3417 17.1537 7.09774 14.5329 3.86984L13.7565 4.50016ZM13.7614 22.5L14.1848 23.4059C14.3171 23.3441 14.4343 23.254 14.5281 23.142L13.7614 22.5ZM13.7614 22.5L13.7621 23.5C13.9081 23.4999 14.0524 23.4678 14.1848 23.4059L13.7614 22.5ZM13.7617 22.5H8.2257V23.5H13.7617V22.5ZM8.22489 22.5H8.22489L7.80136 23.4059C7.93445 23.4681 8.07961 23.5002 8.22651 23.5L8.22489 22.5ZM8.22489 22.5H8.22489L7.45652 23.14C7.55054 23.2529 7.66828 23.3437 7.80136 23.4059L8.22489 22.5ZM8.22515 22.5003C5.73431 19.5048 4.53137 16.5328 4.53483 13.5742C4.53828 10.6138 5.7497 7.59232 8.2307 4.49989L7.4507 3.87411C4.8717 7.08869 3.53862 10.3237 3.53483 13.573C3.53103 16.8242 4.8581 20.0152 7.45625 23.1397L8.22515 22.5003ZM1.60095 18.3594C0.0901543 14.9899 0.282343 11.3599 1.28599 8.24523C2.29354 5.11849 4.09559 2.58276 5.70524 1.40332L5.11419 0.596682C3.29284 1.93124 1.38839 4.66701 0.334188 7.93852C-0.723913 11.2221 -0.948725 15.1171 0.688476 18.7686L1.60095 18.3594ZM5.40972 1.5H17.7577V0.5H5.40972V1.5ZM22.4927 3C22.4927 4.38071 21.3734 5.5 19.9927 5.5V6.5C21.9257 6.5 23.4927 4.933 23.4927 3H22.4927ZM19.9927 5.5C18.612 5.5 17.4927 4.38071 17.4927 3H16.4927C16.4927 4.933 18.0597 6.5 19.9927 6.5V5.5ZM17.4927 3C17.4927 1.61929 18.612 0.5 19.9927 0.5V-0.5C18.0597 -0.5 16.4927 1.067 16.4927 3H17.4927ZM19.9927 0.5C21.3734 0.5 22.4927 1.61929 22.4927 3H23.4927C23.4927 1.067 21.9257 -0.5 19.9927 -0.5V0.5ZM5.38971 8.5H16.6247V7.5H5.38971V8.5ZM5.33371 19.5H16.6787V18.5H5.33371V19.5ZM8.49271 1V4H9.49271V1H8.49271ZM12.4927 1V4H13.4927V1H12.4927Z" transform="translate(0.503662 0.5)" fill="currentColor"/>
</g>
</svg>
