<svg id="target" width="24" height="24" viewBox="0 0 24 24" fill="none" xmlns="http://www.w3.org/2000/svg">
<g id="camera">

<g id="Vector" transform="translate(1)">
<path d="M9 7C9.01 7 9.018 7.007 9.02 7.016L9.292 7.966C9.31 8.032 9.355 8.087 9.416 8.118C9.478 8.151 9.55 8.157 9.616 8.134C9.873 8.046 10.142 8 10.414 8H14.086C14.358 8 14.629 8.046 14.886 8.134C15.016 8.179 15.158 8.11 15.203 7.98C15.205 7.975 15.206 7.971 15.207 7.966L15.478 7.016C15.481 7.006 15.49 7 15.5 7C16.605 7 17.5 6.105 17.5 5V2C17.5 0.895 16.605 0 15.5 0H9C7.895 0 7 0.895 7 2V5C7 6.105 7.895 7 9 7ZM9 2.5C9 2.224 9.224 2 9.5 2H15C15.276 2 15.5 2.224 15.5 2.5V4.5C15.5 4.776 15.276 5 15 5H9.5C9.224 5 9 4.776 9 4.5V2.5Z" fill="currentColor"/>
<path d="M12.25 20.5C14.0449 20.5 15.5 19.0449 15.5 17.25C15.5 15.4551 14.0449 14 12.25 14C10.4551 14 9 15.4551 9 17.25C9 19.0449 10.4551 20.5 12.25 20.5Z" fill="currentColor"/>
<path d="M19.5 11H16.914C16.781 11 16.654 10.948 16.56 10.854L15.146 9.44C14.865 9.159 14.484 9.001 14.086 9H10.414C10.016 9.001 9.635 9.159 9.353 9.44L7.939 10.854C7.845 10.947 7.718 11 7.586 11H2.5C1.119 11 0 12.119 0 13.5V21.5C0 22.881 1.119 24 2.5 24H19.5C20.881 24 22 22.881 22 21.5V13.5C22 12.119 20.881 11 19.5 11ZM3.75 16C3.06 16 2.5 15.44 2.5 14.75C2.5 14.06 3.06 13.5 3.75 13.5C4.44 13.5 5 14.06 5 14.75C5 15.44 4.44 16 3.75 16ZM12.25 22.5C9.352 22.497 7.003 20.148 7 17.25C7 14.351 9.351 12 12.25 12C15.149 12 17.5 14.351 17.5 17.25C17.5 20.149 15.149 22.5 12.25 22.5Z" fill="currentColor"/>
<path d="M2.5 10H5.5C5.776 10 6 9.776 6 9.5C6 8.672 5.328 8 4.5 8H3.5C2.672 8 2 8.672 2 9.5C2 9.776 2.224 10 2.5 10Z" fill="currentColor"/>
</g>
</g>
</svg>
