<svg id="target" width="25" height="24" viewBox="0 0 25 24" fill="none" xmlns="http://www.w3.org/2000/svg">
<g id="mario">

<path id="Vector" d="M22 5.75L22.5 5.75053V5.75H22ZM16.25 0V-0.5V0ZM6.75 0V-0.5V0ZM1 5.75L1.5 5.75028V5.75H1ZM8.05279 4.77639C7.92929 5.02338 8.0294 5.32372 8.27639 5.44721C8.52338 5.57071 8.82372 5.4706 8.94721 5.22361L8.05279 4.77639ZM10 2L10.4 1.7C10.296 1.56137 10.1277 1.48646 9.9551 1.50202C9.78251 1.51758 9.63028 1.6214 9.55279 1.77639L10 2ZM11.5 4L11.1 4.3C11.1944 4.4259 11.3426 4.5 11.5 4.5C11.6574 4.5 11.8056 4.4259 11.9 4.3L11.5 4ZM13 2L13.4472 1.77639C13.3697 1.6214 13.2175 1.51758 13.0449 1.50202C12.8723 1.48646 12.704 1.56137 12.6 1.7L13 2ZM14.0528 5.22361C14.1763 5.4706 14.4766 5.57071 14.7236 5.44721C14.9706 5.32372 15.0707 5.02338 14.9472 4.77639L14.0528 5.22361ZM3 14.5H2.5H3ZM3 11.5C3.27614 11.5 3.5 11.2761 3.5 11C3.5 10.7239 3.27614 10.5 3 10.5V11.5ZM2.5 11V10.5V11ZM0 13.5H-0.5H0ZM3.132 16.5C3.40814 16.5 3.632 16.2761 3.632 16C3.632 15.7239 3.40814 15.5 3.132 15.5V16.5ZM20 10.5C19.7239 10.5 19.5 10.7239 19.5 11C19.5 11.2761 19.7239 11.5 20 11.5V10.5ZM20.5 11V10.5V11ZM19.868 15.5C19.5919 15.5 19.368 15.7239 19.368 16C19.368 16.2761 19.5919 16.5 19.868 16.5V15.5ZM8.5 12.5C8.5 12.2239 8.27614 12 8 12C7.72386 12 7.5 12.2239 7.5 12.5H8.5ZM7.5 13.5C7.5 13.7761 7.72386 14 8 14C8.27614 14 8.5 13.7761 8.5 13.5H7.5ZM15.5 12.5C15.5 12.2239 15.2761 12 15 12C14.7239 12 14.5 12.2239 14.5 12.5H15.5ZM14.5 13.5C14.5 13.7761 14.7239 14 15 14C15.2761 14 15.5 13.7761 15.5 13.5H14.5ZM14.335 15.84L14.2672 16.3354C14.2719 16.336 14.2766 16.3366 14.2813 16.3371L14.335 15.84ZM13.402 16.407L12.9311 16.239C12.9263 16.2525 12.922 16.2662 12.9184 16.2801L13.402 16.407ZM11.5 18L11.459 18.4983C11.486 18.5005 11.5131 18.5006 11.5401 18.4984L11.5 18ZM9.6 16.407L10.0835 16.2797C10.0799 16.2659 10.0757 16.2523 10.0709 16.239L9.6 16.407ZM8.667 15.84L8.72068 16.3371C8.72538 16.3366 8.73008 16.336 8.73476 16.3354L8.667 15.84ZM5.5 16.182L5.44632 15.6849C5.29268 15.7015 5.15534 15.7882 5.07429 15.9197C4.99324 16.0513 4.97758 16.213 5.03188 16.3577L5.5 16.182ZM6.013 17.549L6.48203 17.3757L6.48112 17.3733L6.013 17.549ZM8.263 17.98L8.70043 17.7378C8.62211 17.5963 8.48022 17.5015 8.31956 17.4832C8.15891 17.4649 7.99933 17.5254 7.89121 17.6457L8.263 17.98ZM8.753 18.865L9.20558 18.6525C9.20086 18.6424 9.19581 18.6325 9.19043 18.6228L8.753 18.865ZM11.5 19L11.9296 18.7441C11.8394 18.5927 11.6762 18.5 11.5 18.5C11.3238 18.5 11.1606 18.5927 11.0704 18.7441L11.5 19ZM14.247 18.865L13.8096 18.6228C13.8042 18.6325 13.7991 18.6424 13.7944 18.6525L14.247 18.865ZM14.737 17.98L15.1088 17.6457C15.0007 17.5254 14.8411 17.4649 14.6804 17.4832C14.5198 17.5015 14.3779 17.5963 14.2996 17.7378L14.737 17.98ZM16.987 17.549L16.5189 17.3733L16.518 17.3757L16.987 17.549ZM17.5 16.182L17.9681 16.3577C18.0224 16.213 18.0068 16.0513 17.9257 15.9198C17.8447 15.7882 17.7073 15.7015 17.5537 15.6849L17.5 16.182ZM20.3191 10.3849C21.0006 9.81998 21.5493 9.11185 21.9263 8.31088L21.0214 7.88509C20.707 8.55318 20.2493 9.14383 19.6809 9.61507L20.3191 10.3849ZM21.9263 8.31088C22.3032 7.50991 22.4991 6.63575 22.5 5.75053L21.5 5.74947C21.4992 6.48785 21.3358 7.21699 21.0214 7.88509L21.9263 8.31088ZM22.5 5.75C22.5 4.0924 21.8415 2.50269 20.6694 1.33058L19.9623 2.03769C20.9469 3.02226 21.5 4.35761 21.5 5.75H22.5ZM20.6694 1.33058C19.4973 0.15848 17.9076 -0.5 16.25 -0.5V0.5C17.6424 0.5 18.9777 1.05312 19.9623 2.03769L20.6694 1.33058ZM16.25 -0.5H6.75V0.5H16.25V-0.5ZM6.75 -0.5C5.0924 -0.5 3.50269 0.15848 2.33058 1.33058L3.03769 2.03769C4.02226 1.05312 5.35761 0.5 6.75 0.5V-0.5ZM2.33058 1.33058C1.15848 2.50268 0.500001 4.0924 0.500001 5.75H1.5C1.5 4.35761 2.05312 3.02226 3.03769 2.03769L2.33058 1.33058ZM0.500001 5.74972C0.4995 6.63544 0.694807 7.51032 1.07194 8.31173L1.97676 7.88594C1.66239 7.21789 1.49958 6.4886 1.5 5.75028L0.500001 5.74972ZM1.07194 8.31173C1.44908 9.11315 1.99872 9.82128 2.68152 10.3854L3.31848 9.61455C2.74931 9.14427 2.29114 8.55398 1.97676 7.88594L1.07194 8.31173ZM3 10.5H20V9.5H3V10.5ZM8.94721 5.22361L10.4472 2.22361L9.55279 1.77639L8.05279 4.77639L8.94721 5.22361ZM9.6 2.3L11.1 4.3L11.9 3.7L10.4 1.7L9.6 2.3ZM11.9 4.3L13.4 2.3L12.6 1.7L11.1 3.7L11.9 4.3ZM12.5528 2.22361L14.0528 5.22361L14.9472 4.77639L13.4472 1.77639L12.5528 2.22361ZM20.5 10C20.5 9.07174 20.1313 8.1815 19.4749 7.52513L18.7678 8.23223C19.2366 8.70107 19.5 9.33696 19.5 10H20.5ZM19.4749 7.52513C18.8185 6.86875 17.9283 6.5 17 6.5V7.5C17.663 7.5 18.2989 7.76339 18.7678 8.23223L19.4749 7.52513ZM17 6.5H6V7.5H17V6.5ZM6 6.5C5.07174 6.5 4.1815 6.86875 3.52513 7.52513L4.23223 8.23223C4.70107 7.76339 5.33696 7.5 6 7.5V6.5ZM3.52513 7.52513C2.86875 8.1815 2.5 9.07174 2.5 10H3.5C3.5 9.33696 3.76339 8.70107 4.23223 8.23223L3.52513 7.52513ZM2.5 10L2.5 14.5H3.5L3.5 10H2.5ZM2.5 14.5C2.5 16.8869 3.44821 19.1761 5.13604 20.864L5.84315 20.1569C4.34285 18.6566 3.5 16.6217 3.5 14.5H2.5ZM5.13604 20.864C6.82387 22.5518 9.11305 23.5 11.5 23.5V22.5C9.37827 22.5 7.34344 21.6571 5.84315 20.1569L5.13604 20.864ZM11.5 23.5C13.8869 23.5 16.1761 22.5518 17.864 20.864L17.1569 20.1569C15.6566 21.6571 13.6217 22.5 11.5 22.5V23.5ZM17.864 20.864C19.5518 19.1761 20.5 16.8869 20.5 14.5H19.5C19.5 16.6217 18.6571 18.6566 17.1569 20.1569L17.864 20.864ZM20.5 14.5V10H19.5V14.5H20.5ZM3 10.5H2.5V11.5H3V10.5ZM2.5 10.5C1.70435 10.5 0.941289 10.8161 0.37868 11.3787L1.08579 12.0858C1.46086 11.7107 1.96957 11.5 2.5 11.5V10.5ZM0.37868 11.3787C-0.183929 11.9413 -0.5 12.7044 -0.5 13.5H0.5C0.5 12.9696 0.710714 12.4609 1.08579 12.0858L0.37868 11.3787ZM-0.5 13.5C-0.5 14.2956 -0.183929 15.0587 0.37868 15.6213L1.08579 14.9142C0.710714 14.5391 0.5 14.0304 0.5 13.5H-0.5ZM0.37868 15.6213C0.941289 16.1839 1.70435 16.5 2.5 16.5V15.5C1.96957 15.5 1.46086 15.2893 1.08579 14.9142L0.37868 15.6213ZM2.5 16.5H3.132V15.5H2.5V16.5ZM20 11.5H20.5V10.5H20V11.5ZM20.5 11.5C21.0304 11.5 21.5392 11.7107 21.9142 12.0858L22.6213 11.3787C22.0587 10.8161 21.2957 10.5 20.5 10.5V11.5ZM21.9142 12.0858C22.2893 12.4609 22.5 12.9696 22.5 13.5H23.5C23.5 12.7044 23.1839 11.9413 22.6213 11.3787L21.9142 12.0858ZM22.5 13.5C22.5 14.0304 22.2893 14.5391 21.9142 14.9142L22.6213 15.6213C23.1839 15.0587 23.5 14.2956 23.5 13.5H22.5ZM21.9142 14.9142C21.5392 15.2893 21.0304 15.5 20.5 15.5V16.5C21.2957 16.5 22.0587 16.1839 22.6213 15.6213L21.9142 14.9142ZM20.5 15.5H19.868V16.5H20.5V15.5ZM7.5 12.5V13.5H8.5V12.5H7.5ZM14.5 12.5V13.5H15.5V12.5H14.5ZM14.4028 15.3446C14.0921 15.3021 13.7762 15.3678 13.5082 15.5307L14.0276 16.3852C14.0994 16.3416 14.184 16.324 14.2672 16.3354L14.4028 15.3446ZM13.5082 15.5307C13.2402 15.6935 13.0365 15.9436 12.9311 16.239L13.8729 16.575C13.9012 16.4959 13.9558 16.4289 14.0276 16.3852L13.5082 15.5307ZM12.9184 16.2801C12.8319 16.6098 12.6451 16.9044 12.3838 17.1232L13.0259 17.8899C13.4461 17.5379 13.7465 17.0641 13.8856 16.5339L12.9184 16.2801ZM12.3838 17.1232C12.1225 17.3421 11.7997 17.4743 11.4599 17.5016L11.5401 18.4984C12.0864 18.4545 12.6056 18.2418 13.0259 17.8899L12.3838 17.1232ZM11.541 17.5017C11.2015 17.4737 10.8791 17.3412 10.618 17.1223L9.97556 17.8886C10.3951 18.2404 10.9133 18.4534 11.459 18.4983L11.541 17.5017ZM10.618 17.1223C10.357 16.9035 10.1703 16.6091 10.0835 16.2797L9.11649 16.5343C9.2559 17.0637 9.55604 17.5369 9.97556 17.8886L10.618 17.1223ZM10.0709 16.239C9.96555 15.9436 9.76175 15.6935 9.49377 15.5307L8.97444 16.3852C9.04624 16.4289 9.10084 16.4959 9.12908 16.575L10.0709 16.239ZM9.49377 15.5307C9.22579 15.3678 8.90993 15.3021 8.59924 15.3446L8.73476 16.3354C8.81801 16.324 8.90264 16.3416 8.97444 16.3852L9.49377 15.5307ZM8.61332 15.3429L5.44632 15.6849L5.55368 16.6791L8.72068 16.3371L8.61332 15.3429ZM5.03188 16.3577L5.54488 17.7247L6.48112 17.3733L5.96812 16.0063L5.03188 16.3577ZM5.54398 17.7223C5.65367 18.0192 5.8382 18.2828 6.07968 18.4874L6.72626 17.7246C6.61616 17.6313 6.53203 17.5111 6.48202 17.3757L5.54398 17.7223ZM6.07968 18.4874C6.32116 18.6921 6.61141 18.831 6.9223 18.8905L7.11044 17.9084C6.96869 17.8812 6.83636 17.8179 6.72626 17.7246L6.07968 18.4874ZM6.9223 18.8905C7.2332 18.9501 7.55421 18.9283 7.85424 18.8274L7.53533 17.8796C7.39854 17.9256 7.25219 17.9355 7.11044 17.9084L6.9223 18.8905ZM7.85424 18.8274C8.15426 18.7264 8.42312 18.5497 8.63479 18.3143L7.89121 17.6457C7.79471 17.753 7.67213 17.8336 7.53533 17.8796L7.85424 18.8274ZM7.82557 18.2222L8.31557 19.1072L9.19043 18.6228L8.70043 17.7378L7.82557 18.2222ZM8.30042 19.0775C8.45916 19.4156 8.70693 19.704 9.01716 19.9119L9.57389 19.0812C9.41447 18.9744 9.28715 18.8262 9.20558 18.6525L8.30042 19.0775ZM9.01716 19.9119C9.32739 20.1198 9.68837 20.2394 10.0614 20.2577L10.1105 19.2589C9.91879 19.2495 9.7333 19.1881 9.57389 19.0812L9.01716 19.9119ZM10.0614 20.2577C10.4344 20.276 10.8053 20.1925 11.1345 20.016L10.6619 19.1347C10.4927 19.2254 10.3021 19.2683 10.1105 19.2589L10.0614 20.2577ZM11.1345 20.016C11.4636 19.8395 11.7384 19.5767 11.9296 19.2559L11.0704 18.7441C10.9722 18.909 10.831 19.044 10.6619 19.1347L11.1345 20.016ZM11.0704 19.2559C11.2616 19.5767 11.5364 19.8395 11.8655 20.016L12.3381 19.1347C12.169 19.044 12.0278 18.909 11.9296 18.7441L11.0704 19.2559ZM11.8655 20.016C12.1947 20.1925 12.5656 20.276 12.9386 20.2577L12.8895 19.2589C12.6979 19.2683 12.5073 19.2254 12.3381 19.1347L11.8655 20.016ZM12.9386 20.2577C13.3116 20.2394 13.6726 20.1198 13.9828 19.9119L13.4261 19.0812C13.2667 19.1881 13.0812 19.2495 12.8895 19.2589L12.9386 20.2577ZM13.9828 19.9119C14.2931 19.704 14.5408 19.4156 14.6996 19.0775L13.7944 18.6525C13.7128 18.8262 13.5855 18.9744 13.4261 19.0812L13.9828 19.9119ZM14.6844 19.1072L15.1744 18.2222L14.2996 17.7378L13.8096 18.6228L14.6844 19.1072ZM14.3652 18.3143C14.5769 18.5497 14.8457 18.7264 15.1458 18.8274L15.4647 17.8796C15.3279 17.8336 15.2053 17.753 15.1088 17.6457L14.3652 18.3143ZM15.1458 18.8274C15.4458 18.9283 15.7668 18.9501 16.0777 18.8905L15.8896 17.9084C15.7478 17.9355 15.6015 17.9256 15.4647 17.8796L15.1458 18.8274ZM16.0777 18.8905C16.3886 18.831 16.6788 18.6921 16.9203 18.4874L16.2737 17.7246C16.1636 17.8179 16.0313 17.8812 15.8896 17.9084L16.0777 18.8905ZM16.9203 18.4874C17.1618 18.2828 17.3463 18.0192 17.456 17.7223L16.518 17.3757C16.468 17.5111 16.3838 17.6313 16.2737 17.7246L16.9203 18.4874ZM17.4551 17.7247L17.9681 16.3577L17.0319 16.0063L16.5189 17.3733L17.4551 17.7247ZM17.5537 15.6849L14.3887 15.3429L14.2813 16.3371L17.4463 16.6791L17.5537 15.6849Z" transform="translate(0.999992 0.5)" fill="currentColor"/>
</g>
</svg>
