<svg id="target" width="25" height="24" viewBox="0 0 25 24" fill="none" xmlns="http://www.w3.org/2000/svg">
<g id="love">

<g id="Vector" transform="translate(0.499878 -0.00012207)">
<path d="M7.5 8.25027C5.291 8.25027 3.5 10.0413 3.5 12.2503C3.5 14.4593 5.291 16.2503 7.5 16.2503C9.709 16.2503 11.5 14.4593 11.5 12.2503C11.5 10.0413 9.709 8.25027 7.5 8.25027ZM7.5 14.2503C6.395 14.2503 5.5 13.3553 5.5 12.2503C5.5 12.0603 5.527 11.8723 5.58 11.6903C5.602 11.6163 5.657 11.5563 5.729 11.5283C5.801 11.4993 5.882 11.5063 5.948 11.5463C6.925 12.1293 8.073 12.3603 9.2 12.2003C9.277 12.1893 9.354 12.2153 9.409 12.2693C9.465 12.3233 9.492 12.3993 9.483 12.4763C9.368 13.4853 8.516 14.2483 7.5 14.2503Z" fill="currentColor"/>
<path d="M23.627 1.95027C22.757 0.209267 20.641 -0.497733 18.9 0.372267C18.56 0.542267 18.25 0.765267 17.981 1.03427C17.715 1.30027 17.284 1.30027 17.018 1.03427C15.635 -0.335733 13.403 -0.325733 12.033 1.05727C10.675 2.42827 10.671 4.63627 12.025 6.01127L17.139 11.3463C17.33 11.5453 17.647 11.5513 17.846 11.3603C17.851 11.3553 17.855 11.3513 17.86 11.3463L22.967 6.01927C24.041 4.94727 24.307 3.30727 23.627 1.95027Z" fill="currentColor"/>
<path d="M4.46699 17.7883C4.33299 17.9073 4.20599 18.0343 4.08699 18.1683C3.90399 18.3743 3.92199 18.6913 4.12899 18.8743C4.21999 18.9553 4.33899 19.0003 4.46099 19.0003H10.538C10.814 19.0003 11.038 18.7763 11.038 18.5003C11.038 18.3783 10.993 18.2593 10.912 18.1683C9.23699 16.2833 6.35199 16.1133 4.46699 17.7883Z" fill="currentColor"/>
<path d="M14 11.0003C13.448 11.0003 13 11.4483 13 12.0003V19.5003C13 19.7763 12.776 20.0003 12.5 20.0003H2.5C2.224 20.0003 2 19.7763 2 19.5003V5.00027C2 3.89527 2.895 3.00027 4 3.00027H8.5C9.052 3.00027 9.5 2.55227 9.5 2.00027C9.5 1.44827 9.052 1.00027 8.5 1.00027H3C1.343 1.00027 0 2.34327 0 4.00027V21.0003C0 22.6573 1.343 24.0003 3 24.0003H12C13.657 24.0003 15 22.6573 15 21.0003V12.0003C15 11.4483 14.552 11.0003 14 11.0003Z" fill="currentColor"/>
</g>
</g>
</svg>
