<svg id="target" width="24" height="24" viewBox="0 0 24 24" fill="none" xmlns="http://www.w3.org/2000/svg">
<path d="M0 4L-0.4 3.7C-0.479562 3.80608 -0.513726 3.93943 -0.494977 4.0707L0 4ZM2.6 0.533333L3 0.833333L2.6 0.533333ZM4.66667 0.5C4.94281 0.5 5.16667 0.276142 5.16667 0C5.16667 -0.276142 4.94281 -0.5 4.66667 -0.5V0.5ZM12.6667 4L13.1616 4.07068C13.1804 3.93942 13.1462 3.80608 13.0667 3.7L12.6667 4ZM10.0667 0.533333L10.4667 0.233333L10.4667 0.233333L10.0667 0.533333ZM8 -0.5C7.72386 -0.5 7.5 -0.276142 7.5 0C7.5 0.276142 7.72386 0.5 8 0.5V-0.5ZM8 13.5C7.72386 13.5 7.5 13.7239 7.5 14C7.5 14.2761 7.72386 14.5 8 14.5V13.5ZM8 9.5C7.72386 9.5 7.5 9.72386 7.5 10C7.5 10.2761 7.72386 10.5 8 10.5V9.5ZM8.66675 11.5C8.39061 11.5 8.16675 11.7239 8.16675 12C8.16675 12.2761 8.39061 12.5 8.66675 12.5V11.5ZM12 10V9.5C11.7239 9.5 11.5 9.72386 11.5 10H12ZM12 14H11.5C11.5 14.2761 11.7239 14.5 12 14.5V14ZM11.6957 7.26265C11.6567 7.53602 11.8466 7.78927 12.12 7.82831C12.3934 7.86735 12.6466 7.67739 12.6856 7.40402L11.6957 7.26265ZM0.478 7.34667L0.972978 7.27598L0.972977 7.27597L0.478 7.34667ZM2 8.66667L2 8.16667L1.99997 8.16667L2 8.66667ZM3.33333 8.66667L3.33333 9.16667L3.33362 9.16667L3.33333 8.66667ZM5.13333 7.418L4.66522 7.24231L4.6651 7.24261L5.13333 7.418ZM5.43133 6.624L4.96356 6.4474L4.96322 6.44831L5.43133 6.624ZM7.23133 6.624L7.69935 6.44805L7.69911 6.4474L7.23133 6.624ZM7.02998 7.50928C7.12715 7.76776 7.41547 7.89853 7.67395 7.80135C7.93243 7.70418 8.06319 7.41587 7.96602 7.15739L7.02998 7.50928ZM0.4 4.3L3 0.833333L2.2 0.233333L-0.4 3.7L0.4 4.3ZM3 0.833333C3.15738 0.623495 3.40437 0.5 3.66667 0.5V-0.5C3.08961 -0.5 2.54623 -0.228311 2.2 0.233333L3 0.833333ZM3.66667 0.5H4.66667V-0.5H3.66667V0.5ZM13.0667 3.7L10.4667 0.233333L9.66667 0.833333L12.2667 4.3L13.0667 3.7ZM10.4667 0.233333C10.1204 -0.228311 9.57706 -0.5 9 -0.5V0.5C9.2623 0.5 9.50929 0.623495 9.66667 0.833333L10.4667 0.233333ZM9 -0.5H8V0.5H9V-0.5ZM7.66675 9.16666H14.3334V8.16666H7.66675V9.16666ZM14.8334 9.66666V14.3333H15.8334V9.66666H14.8334ZM14.3334 14.8333H7.66675V15.8333H14.3334V14.8333ZM7.16675 14.3333V9.66666H6.16675V14.3333H7.16675ZM7.66675 14.8333C7.39061 14.8333 7.16675 14.6095 7.16675 14.3333H6.16675C6.16675 15.1618 6.83832 15.8333 7.66675 15.8333V14.8333ZM14.8334 14.3333C14.8334 14.6095 14.6096 14.8333 14.3334 14.8333V15.8333C15.1618 15.8333 15.8334 15.1618 15.8334 14.3333H14.8334ZM14.3334 9.16666C14.6096 9.16666 14.8334 9.39052 14.8334 9.66666H15.8334C15.8334 8.83824 15.1618 8.16666 14.3334 8.16666V9.16666ZM7.66675 8.16666C6.83832 8.16666 6.16675 8.83824 6.16675 9.66666H7.16675C7.16675 9.39052 7.39061 9.16666 7.66675 9.16666V8.16666ZM8 14.5H9.66667V13.5H8V14.5ZM9.66667 14.5C10.4951 14.5 11.1667 13.8284 11.1667 13H10.1667C10.1667 13.2761 9.94281 13.5 9.66667 13.5V14.5ZM11.1667 13C11.1667 12.1716 10.4951 11.5 9.66667 11.5V12.5C9.94281 12.5 10.1667 12.7239 10.1667 13H11.1667ZM9.66667 12.5C10.4951 12.5 11.1667 11.8284 11.1667 11H10.1667C10.1667 11.2761 9.94281 11.5 9.66667 11.5V12.5ZM11.1667 11C11.1667 10.1716 10.4951 9.5 9.66667 9.5V10.5C9.94281 10.5 10.1667 10.7239 10.1667 11H11.1667ZM9.66667 9.5H8V10.5H9.66667V9.5ZM8.66675 12.5H9.66667V11.5H8.66675V12.5ZM12 10.5C12.8284 10.5 13.5 11.1716 13.5 12H14.5C14.5 10.6193 13.3807 9.5 12 9.5V10.5ZM13.5 12C13.5 12.8284 12.8284 13.5 12 13.5V14.5C13.3807 14.5 14.5 13.3807 14.5 12H13.5ZM12.5 14V10H11.5V14H12.5ZM12.6856 7.40402L13.1616 4.07068L12.1717 3.92932L11.6957 7.26265L12.6856 7.40402ZM12.6667 3.5H0V4.5H12.6667V3.5ZM-0.494977 4.0707L-0.0169767 7.41736L0.972977 7.27597L0.494977 3.9293L-0.494977 4.0707ZM-0.0169784 7.41735C0.126367 8.42114 0.986062 9.16674 2.00003 9.16667L1.99997 8.16667C1.48369 8.1667 1.04596 7.78707 0.972978 7.27598L-0.0169784 7.41735ZM2 9.16667H3.33333V8.16667H2V9.16667ZM3.33362 9.16667C4.34359 9.16608 5.24729 8.53918 5.60156 7.59339L4.6651 7.24261C4.45702 7.79811 3.92624 8.16632 3.33304 8.16667L3.33362 9.16667ZM5.60145 7.59369L5.89945 6.79969L4.96322 6.44831L4.66522 7.24231L5.60145 7.59369ZM5.89911 6.8006C5.967 6.62077 6.13912 6.50177 6.33133 6.50177V5.50177C5.72309 5.50177 5.17839 5.87836 4.96356 6.4474L5.89911 6.8006ZM6.33133 6.50177C6.52354 6.50177 6.69567 6.62077 6.76356 6.8006L7.69911 6.4474C7.48428 5.87836 6.93958 5.50177 6.33133 5.50177V6.50177ZM6.76331 6.79995L7.02998 7.50928L7.96602 7.15739L7.69935 6.44805L6.76331 6.79995Z" transform="translate(4.33325 4.33334)" fill="currentColor"/>
</svg>
