<svg id="target" width="24" height="24" viewBox="0 0 24 24" fill="none" xmlns="http://www.w3.org/2000/svg">
<path d="M5.33333 8.66667H5.83333C5.83333 8.53406 5.78065 8.40688 5.68689 8.31311C5.59312 8.21934 5.46594 8.16667 5.33333 8.16667L5.33333 8.66667ZM10 8.66667V8.16667C9.72386 8.16667 9.5 8.39052 9.5 8.66667H10ZM13.3333 8.66667V9.16667C13.6095 9.16667 13.8333 8.94281 13.8333 8.66667H13.3333ZM13.3333 1.11133L13.8333 1.11133L13.3333 1.11133ZM2 8.66667H1.5C1.5 8.94281 1.72386 9.16667 2 9.16667V8.66667ZM0 8.66669L-1.87755e-06 8.16669C-0.153972 8.16669 -0.299355 8.23763 -0.394108 8.35899C-0.488861 8.48035 -0.522415 8.6386 -0.485067 8.78797L0 8.66669ZM3.41533 11.3334L3.41531 11.8334H3.41533V11.3334ZM11.918 11.3334L11.918 11.8334L11.918 11.8334L11.918 11.3334ZM15.3333 8.66669L15.8184 8.78797C15.8557 8.6386 15.8222 8.48035 15.7274 8.35899C15.6327 8.23763 15.4873 8.16669 15.3333 8.16669L15.3333 8.66669ZM6.5 2.66669C6.5 2.39054 6.27614 2.16669 6 2.16669C5.72386 2.16669 5.5 2.39054 5.5 2.66669H6.5ZM5.5 4.00002C5.5 4.27616 5.72386 4.50002 6 4.50002C6.27614 4.50002 6.5 4.27616 6.5 4.00002H5.5ZM9.83334 2.66669C9.83334 2.39054 9.60949 2.16669 9.33334 2.16669C9.0572 2.16669 8.83334 2.39054 8.83334 2.66669H9.83334ZM8.83334 4.00002C8.83334 4.27616 9.0572 4.50002 9.33334 4.50002C9.60949 4.50002 9.83334 4.27616 9.83334 4.00002H8.83334ZM10.6621 6.04338C10.8702 5.8618 10.8916 5.54595 10.71 5.3379C10.5284 5.12986 10.2126 5.10841 10.0045 5.28999L10.6621 6.04338ZM5.32879 5.28999C5.12074 5.10841 4.80489 5.12986 4.6233 5.3379C4.44172 5.54595 4.46317 5.8618 4.67121 6.04338L5.32879 5.28999ZM4.83333 8.66667C4.83333 9.29183 5.27212 9.76 5.76871 10.0437C6.27939 10.3355 6.95148 10.5 7.66667 10.5V9.5C7.09318 9.5 6.59861 9.36617 6.26479 9.17545C5.91688 8.97667 5.83333 8.77817 5.83333 8.66667H4.83333ZM7.66667 10.5C8.38185 10.5 9.05395 10.3355 9.56462 10.0437C10.0612 9.76 10.5 9.29183 10.5 8.66667H9.5C9.5 8.77817 9.41646 8.97667 9.06854 9.17545C8.73472 9.36617 8.24015 9.5 7.66667 9.5V10.5ZM10 9.16667H13.3333V8.16667H10V9.16667ZM13.8333 8.66667V1.11133H12.8333V8.66667H13.8333ZM13.8333 1.11133C13.8333 0.221419 13.1119 -0.5 12.222 -0.5V0.5C12.5596 0.5 12.8333 0.773703 12.8333 1.11133L13.8333 1.11133ZM12.222 -0.5H3.11133V0.5H12.222V-0.5ZM3.11133 -0.5C2.22142 -0.5 1.5 0.221419 1.5 1.11133H2.5C2.5 0.773703 2.7737 0.5 3.11133 0.5V-0.5ZM1.5 1.11133V8.66667H2.5V1.11133H1.5ZM2 9.16667H5.33333V8.16667H2V9.16667ZM5.33333 8.16667L-1.87755e-06 8.16669L1.87755e-06 9.16669L5.33333 9.16667L5.33333 8.16667ZM-0.485067 8.78797C-0.0375724 10.5777 1.57048 11.8333 3.41531 11.8334L3.41536 10.8334C2.02937 10.8333 0.821263 9.89 0.485067 8.5454L-0.485067 8.78797ZM3.41533 11.8334H11.918V10.8334H3.41533V11.8334ZM11.918 11.8334C13.7629 11.8333 15.3709 10.5777 15.8184 8.78797L14.8483 8.5454C14.5121 9.89 13.304 10.8333 11.918 10.8334L11.918 11.8334ZM15.3333 8.16669L10 8.16667L10 9.16667L15.3333 9.16669L15.3333 8.16669ZM5.5 2.66669V4.00002H6.5V2.66669H5.5ZM8.83334 2.66669V4.00002H9.83334V2.66669H8.83334ZM10.0045 5.28999C8.66517 6.45902 6.66816 6.45902 5.32879 5.28999L4.67121 6.04338C6.38732 7.54122 8.94602 7.54122 10.6621 6.04338L10.0045 5.28999Z" transform="translate(4.33333 6.33331)" fill="currentColor"/>
</svg>
