<svg id="target" width="24" height="24" viewBox="0 0 24 24" fill="none" xmlns="http://www.w3.org/2000/svg">
<g id="rose">

<g id="Vector" transform="translate(4.10016)">
<path d="M15.71 17.622C15.416 16.765 14.492 16.297 13.632 16.555C12.532 16.766 11.518 17.281 10.658 18.081C9.895 18.903 9.381 19.917 9.17 21.017C9.069 21.353 9.076 21.716 9.19 22.044C9.335 22.469 9.637 22.813 10.041 23.011C10.275 23.126 10.527 23.184 10.781 23.184C10.944 23.184 11.108 23.161 11.268 23.112C12.369 22.901 13.382 22.387 14.203 21.624C14.217 21.612 14.229 21.6 14.241 21.586C15.004 20.767 15.517 19.753 15.729 18.651C15.829 18.316 15.823 17.954 15.71 17.622ZM14.29 18.226C14.278 18.26 14.269 18.295 14.263 18.331C14.11 19.161 13.729 19.925 13.16 20.544C12.541 21.112 11.777 21.493 10.949 21.646C10.912 21.652 10.876 21.662 10.841 21.673C10.786 21.695 10.735 21.68 10.701 21.664C10.671 21.649 10.63 21.619 10.608 21.558C10.595 21.52 10.595 21.48 10.608 21.442C10.62 21.408 10.629 21.373 10.635 21.337C10.789 20.5 11.177 19.728 11.718 19.142C12.341 18.563 13.113 18.175 13.949 18.022C13.985 18.016 14.021 18.006 14.055 17.995C14.075 17.988 14.095 17.985 14.115 17.985C14.191 17.985 14.263 18.033 14.289 18.108C14.303 18.146 14.303 18.187 14.29 18.226Z" fill="currentColor"/>
<path d="M13.5 9.75V6.75C13.5 3.028 10.472 0 6.75 0C3.028 0 0 3.028 0 6.75V9.75C0 11.733 0.865 13.514 2.232 14.75C2.254 14.774 2.278 14.793 2.302 14.814C3.314 15.704 4.591 16.299 6 16.456V23.25C6 23.664 6.336 24 6.75 24C7.164 24 7.5 23.664 7.5 23.25V16.456C10.87 16.081 13.5 13.218 13.5 9.75ZM6.75 1.5C9.645 1.5 12 3.855 12 6.75V9.75C12 12.645 9.645 15 6.75 15C6.49 15 6.241 14.96 5.991 14.923C8.526 14.553 10.492 12.385 10.5 9.75V5.998C10.496 4.349 9.15 3.004 7.498 3C7.245 3 6.993 3.033 6.748 3.097C5.606 3.395 4.798 4.32 4.573 5.405C3.781 4.945 3.143 4.29 2.688 3.465C3.651 2.276 5.104 1.5 6.75 1.5ZM6.006 5.99C6.014 5.328 6.456 4.723 7.126 4.548C7.249 4.517 7.375 4.5 7.498 4.5C8.324 4.502 8.998 5.176 9 6V6.102C7.918 6.26 6.907 6.223 6.006 5.99ZM1.5 9.75V6.75C1.5 6.107 1.632 5.499 1.844 4.929C2.618 5.973 3.673 6.742 4.92 7.202C4.997 7.251 5.082 7.284 5.172 7.303C6.323 7.68 7.62 7.806 9 7.635V9.747C8.993 11.81 7.31 13.494 5.25 13.499H3.087C2.111 12.546 1.5 11.22 1.5 9.75Z" fill="currentColor"/>
</g>
</g>
</svg>
