<svg id="target" width="24" height="24" viewBox="0 0 24 24" fill="none" xmlns="http://www.w3.org/2000/svg">
<path d="M12.5364 3.78469C12.2617 3.75613 12.0159 3.95564 11.9874 4.2303C11.9588 4.50496 12.1583 4.75077 12.433 4.77933L12.5364 3.78469ZM14.9862 4.47221C15.2462 4.37934 15.3818 4.09323 15.2889 3.83317C15.196 3.57312 14.9099 3.4376 14.6498 3.53047L14.9862 4.47221ZM3.51909 14.6714C3.42525 14.9311 3.5597 15.2177 3.81941 15.3116C4.07912 15.4054 4.36573 15.271 4.45957 15.0112L3.51909 14.6714ZM3.87733 10.954L3.41529 11.1452L3.41766 11.1507L3.87733 10.954ZM5.05333 5.06066L4.70066 4.70622L4.70007 4.70681L5.05333 5.06066ZM9.44779 3.99837C9.7223 4.02832 9.96911 3.83005 9.99905 3.55554C10.029 3.28102 9.83073 3.03421 9.55622 3.00427L9.44779 3.99837ZM5.53937 10.8554C5.264 10.8348 5.02404 11.0413 5.00341 11.3166C4.98278 11.592 5.18929 11.832 5.46466 11.8526L5.53937 10.8554ZM9.76868 9.77733L10.1213 10.1318L10.122 10.1311L9.76868 9.77733ZM10.944 3.882L11.4061 3.6908L11.4037 3.68521L10.944 3.882ZM11.3004 0.16948C11.394 -0.0903147 11.2593 -0.376799 10.9995 -0.4704C10.7397 -0.564002 10.4532 -0.429275 10.3596 -0.16948L11.3004 0.16948ZM-0.169013 10.3641C-0.428901 10.4574 -0.563912 10.7438 -0.470568 11.0037C-0.377225 11.2636 -0.0908749 11.3986 0.169013 11.3052L-0.169013 10.3641ZM2.42 11.0637C2.69377 11.0998 2.94496 10.9071 2.98105 10.6333C3.01713 10.3595 2.82444 10.1084 2.55067 10.0723L2.42 11.0637ZM8.16825 3.22579C7.97299 3.03053 7.65641 3.03053 7.46114 3.22579C7.26588 3.42105 7.26588 3.73764 7.46114 3.9329L8.16825 3.22579ZM10.8958 7.36757C11.0911 7.56283 11.4077 7.56283 11.6029 7.36757C11.7982 7.1723 11.7982 6.85572 11.6029 6.66046L10.8958 7.36757ZM10.9782 0.379079C10.7829 0.183835 10.4664 0.183866 10.2711 0.379147C10.0759 0.574427 10.0759 0.89101 10.2712 1.08625L10.9782 0.379079ZM13.7425 4.55692C13.9378 4.75216 14.2544 4.75213 14.4496 4.55685C14.6449 4.36157 14.6448 4.04499 14.4495 3.84975L13.7425 4.55692ZM1.0789 10.2785C0.883633 10.0832 0.567051 10.0832 0.371788 10.2785C0.176526 10.4737 0.176526 10.7903 0.371788 10.9856L1.0789 10.2785ZM3.84312 14.4569C4.03838 14.6522 4.35497 14.6522 4.55023 14.4569C4.74549 14.2616 4.74549 13.9451 4.55023 13.7498L3.84312 14.4569ZM6.18086 4.06708C5.98558 3.87183 5.669 3.87185 5.47375 4.06713C5.2785 4.2624 5.27853 4.57899 5.4738 4.77423L6.18086 4.06708ZM10.0551 9.3549C10.2504 9.55015 10.567 9.55012 10.7622 9.35485C10.9575 9.15957 10.9575 8.84299 10.7622 8.64774L10.0551 9.3549ZM3.92561 7.46783C3.73037 7.27255 3.41378 7.27252 3.2185 7.46776C3.02322 7.66301 3.02319 7.97959 3.21843 8.17487L3.92561 7.46783ZM6.6531 11.6102C6.84834 11.8055 7.16493 11.8055 7.36021 11.6103C7.55549 11.415 7.55552 11.0984 7.36028 10.9032L6.6531 11.6102ZM4.76619 5.48108C4.57091 5.28583 4.25433 5.28585 4.05908 5.48113C3.86383 5.6764 3.86385 5.99299 4.05913 6.18823L4.76619 5.48108ZM8.64046 10.7689C8.83574 10.9641 9.15232 10.9641 9.34757 10.7688C9.54282 10.5736 9.5428 10.257 9.34752 10.0617L8.64046 10.7689ZM12.433 4.77933C13.2963 4.86909 14.1688 4.76415 14.9862 4.47221L14.6498 3.53047C13.9732 3.77212 13.251 3.85899 12.5364 3.78469L12.433 4.77933ZM4.45957 15.0112C4.95908 13.6289 4.91527 12.1085 4.33701 10.7573L3.41766 11.1507C3.89624 12.269 3.9325 13.5274 3.51909 14.6714L4.45957 15.0112ZM4.33935 10.7628C3.58031 8.92832 4.00159 6.81718 5.40659 5.4145L4.70007 4.70681C3.00872 6.39536 2.50159 8.93676 3.41532 11.1451L4.33935 10.7628ZM5.40601 5.41509C6.46998 4.35638 7.95567 3.83562 9.44779 3.99837L9.55622 3.00427C7.76367 2.80875 5.97886 3.43436 4.70066 4.70623L5.40601 5.41509ZM5.46466 11.8526C7.19305 11.9821 8.89242 11.3541 10.1213 10.1318L9.41608 9.42283C8.39303 10.4404 6.97828 10.9632 5.53937 10.8554L5.46466 11.8526ZM10.122 10.1311C11.8133 8.44163 12.3201 5.89966 11.406 3.69082L10.482 4.07318C11.2414 5.90824 10.8203 8.02004 9.41531 9.42359L10.122 10.1311ZM11.4037 3.68521C10.9256 2.56859 10.8887 1.31223 11.3004 0.16948L10.3596 -0.16948C9.86211 1.21138 9.90669 2.72951 10.4844 4.07879L11.4037 3.68521ZM0.169013 11.3052C0.889375 11.0465 1.66114 10.9637 2.42 11.0637L2.55067 10.0723C1.63381 9.95143 0.701341 10.0515 -0.169013 10.3641L0.169013 11.3052ZM7.46114 3.9329L10.8958 7.36757L11.6029 6.66046L8.16825 3.22579L7.46114 3.9329ZM10.2712 1.08625L13.7425 4.55692L14.4495 3.84975L10.9782 0.379079L10.2712 1.08625ZM0.371788 10.9856L3.84312 14.4569L4.55023 13.7498L1.0789 10.2785L0.371788 10.9856ZM5.4738 4.77423L10.0551 9.3549L10.7622 8.64774L6.18086 4.06708L5.4738 4.77423ZM3.21843 8.17487L6.6531 11.6102L7.36028 10.9032L3.92561 7.46783L3.21843 8.17487ZM4.05913 6.18823L8.64046 10.7689L9.34752 10.0617L4.76619 5.48108L4.05913 6.18823Z" transform="translate(4.58936 4.57935)" fill="currentcolor"/>
</svg>
