<svg id="target" width="24" height="24" viewBox="0 0 24 24" fill="none" xmlns="http://www.w3.org/2000/svg">
<path d="M0.75 0C0.335786 0 0 0.335786 0 0.75C0 1.16421 0.335786 1.5 0.75 1.5C1.16421 1.5 1.5 1.16421 1.5 0.75C1.5 0.335786 1.16421 0 0.75 0Z" transform="translate(7.74927 16.25)" fill="currentColor"/>
<path d="M0.75 0C0.335786 0 0 0.335786 0 0.75C0 1.16421 0.335786 1.5 0.75 1.5C1.16421 1.5 1.5 1.16421 1.5 0.75C1.5 0.335786 1.16421 0 0.75 0Z" transform="translate(9.74927 14.25)" fill="currentColor"/>
<path d="M8.81445 10.25C8.40024 10.25 8.06445 10.5858 8.06445 11C8.06445 11.4142 8.40024 11.75 8.81445 11.75V10.25ZM10.8145 11.75C11.2287 11.75 11.5645 11.4142 11.5645 11C11.5645 10.5858 11.2287 10.25 10.8145 10.25V11.75ZM3.81445 -0.75C3.40024 -0.75 3.06445 -0.414214 3.06445 0C3.06445 0.414214 3.40024 0.75 3.81445 0.75V-0.75ZM10.8145 0.75C11.2287 0.75 11.5645 0.414214 11.5645 0C11.5645 -0.414214 11.2287 -0.75 10.8145 -0.75V0.75ZM9.81446 5H9.06446C9.06446 5.14511 9.10656 5.28711 9.18565 5.40877L9.81446 5ZM9.81446 0H10.5645C10.5645 -0.414214 10.2287 -0.75 9.81446 -0.75V0ZM4.81446 0V-0.75C4.40025 -0.75 4.06446 -0.414214 4.06446 0L4.81446 0ZM4.81446 5L5.4433 5.40873C5.52238 5.28708 5.56446 5.1451 5.56446 5H4.81446ZM0.32313 11.91L0.951957 12.3187L0.95197 12.3187L0.32313 11.91ZM2.00046 15L2.00046 14.25L2.00029 14.25L2.00046 15ZM12.6291 15L12.6293 14.25H12.6291V15ZM14.3065 11.91L14.9353 11.5012L14.9353 11.5012L14.3065 11.91ZM2.8645 7.25C2.45029 7.25 2.1145 7.58579 2.1145 8C2.1145 8.41421 2.45029 8.75 2.8645 8.75V7.25ZM11.7645 8.75C12.1787 8.75 12.5145 8.41421 12.5145 8C12.5145 7.58579 12.1787 7.25 11.7645 7.25V8.75ZM10.5645 10C10.5645 9.58579 10.2287 9.25 9.81445 9.25C9.40024 9.25 9.06445 9.58579 9.06445 10H10.5645ZM9.06445 12C9.06445 12.4142 9.40024 12.75 9.81445 12.75C10.2287 12.75 10.5645 12.4142 10.5645 12H9.06445ZM9.81445 2.75C10.2287 2.75 10.5645 2.41421 10.5645 2C10.5645 1.58579 10.2287 1.25 9.81445 1.25V2.75ZM7.81445 1.25C7.40024 1.25 7.06445 1.58579 7.06445 2C7.06445 2.41421 7.40024 2.75 7.81445 2.75V1.25ZM9.81445 4.75C10.2287 4.75 10.5645 4.41421 10.5645 4C10.5645 3.58579 10.2287 3.25 9.81445 3.25V4.75ZM7.81445 3.25C7.40024 3.25 7.06445 3.58579 7.06445 4C7.06445 4.41421 7.40024 4.75 7.81445 4.75V3.25ZM8.81445 11.75H10.8145V10.25H8.81445V11.75ZM3.81445 0.75H10.8145V-0.75H3.81445V0.75ZM10.5645 5V0H9.06446V5H10.5645ZM9.81446 -0.75H4.81446V0.75H9.81446V-0.75ZM4.06446 0V5H5.56446V0H4.06446ZM4.18562 4.59127L-0.30571 11.5013L0.95197 12.3187L5.4433 5.40873L4.18562 4.59127ZM-0.305697 11.5012C-0.855369 12.3469 -0.898037 13.4255 -0.416876 14.3119L0.901421 13.5963C0.682712 13.1934 0.702106 12.7031 0.951957 12.3187L-0.305697 11.5012ZM-0.416876 14.3119C0.0642847 15.1983 0.992063 15.7502 2.00064 15.75L2.00029 14.25C1.54185 14.2501 1.12013 13.9992 0.901421 13.5963L-0.416876 14.3119ZM2.00046 15.75H12.6291V14.25H2.00046V15.75ZM12.629 15.75C13.6375 15.7502 14.5653 15.1983 15.0465 14.3119L13.7282 13.5963C13.5095 13.9992 13.0877 14.2501 12.6293 14.25L12.629 15.75ZM15.0465 14.3119C15.5276 13.4255 15.485 12.3469 14.9353 11.5012L13.6776 12.3187C13.9275 12.7031 13.9469 13.1934 13.7282 13.5963L15.0465 14.3119ZM14.9353 11.5012L10.4433 4.59123L9.18565 5.40877L13.6777 12.3188L14.9353 11.5012ZM2.8645 8.75H11.7645V7.25H2.8645V8.75ZM9.06445 10V12H10.5645V10H9.06445ZM9.81445 1.25H7.81445V2.75H9.81445V1.25ZM9.81445 3.25H7.81445V4.75H9.81445V3.25Z" transform="translate(4.68481 4.5)" fill="currentColor"/>
</svg>
