<svg id="target" width="24" height="24" viewBox="0 0 24 24" fill="none" xmlns="http://www.w3.org/2000/svg">
<g id="flag">

<path id="Vector" d="M23.344 3.168C22.931 2.858 22.397 2.758 21.9 2.9C19.628 3.549 16.545 5.036 12.529 2.567C9.989 1.007 6.9 0.618 4.053 1.5L3 1.882V1.5C3 0.672 2.328 0 1.5 0C0.672 0 0 0.672 0 1.5V22.5C0 23.328 0.672 24 1.5 24C2.328 24 3 23.328 3 22.5V18.5C10.912 15.618 11.259 20.5 17.42 20.5C19.144 20.5 19.391 20.206 22.803 19.231C23.511 19.027 23.998 18.38 24 17.644V4.485C23.999 3.968 23.756 3.481 23.344 3.168ZM9.53 12.97C9.818 13.268 9.81 13.743 9.512 14.031C9.221 14.312 8.761 14.312 8.47 14.031L5.47 11.031C5.177 10.738 5.177 10.263 5.47 9.97L8.47 6.97C8.768 6.682 9.243 6.691 9.531 6.989C9.812 7.28 9.811 7.741 9.531 8.031L7.06 10.5L9.53 12.97ZM14.228 7.69C14.223 7.706 14.218 7.722 14.212 7.738L12.212 13.738C12.067 14.127 11.635 14.325 11.246 14.18C10.876 14.042 10.675 13.641 10.788 13.263L12.788 7.263C12.906 6.865 13.324 6.638 13.721 6.756C14.118 6.874 14.346 7.292 14.228 7.69ZM19.53 11.031L16.53 14.031C16.242 14.329 15.767 14.337 15.469 14.049C15.171 13.761 15.163 13.286 15.451 12.989C15.457 12.983 15.463 12.977 15.469 12.971L17.938 10.501L15.47 8.031C15.172 7.743 15.163 7.269 15.451 6.971C15.739 6.673 16.213 6.664 16.511 6.952C16.517 6.958 16.523 6.964 16.529 6.97L19.529 9.97C19.823 10.263 19.823 10.738 19.53 11.031Z" fill="currentColor"/>
</g>
</svg>
