<svg id="target" width="24" height="24" viewBox="0 0 24 24" fill="none" xmlns="http://www.w3.org/2000/svg">
<g id="cup">

<path id="Vector" d="M17.98 9.01797H16.825C16.588 9.01797 16.383 8.84997 16.336 8.61797C16.007 6.97397 15.093 5.50497 13.763 4.48297C13.344 4.12297 12.713 4.17197 12.353 4.59097C11.993 5.00997 12.042 5.64097 12.461 6.00097C12.487 6.02297 12.514 6.04397 12.541 6.06297C13.303 6.64897 13.879 7.44297 14.2 8.34997C14.291 8.61097 14.154 8.89597 13.893 8.98697C13.84 9.00497 13.785 9.01497 13.729 9.01497H11.416C11.14 9.01497 10.916 8.79097 10.916 8.51497C10.916 8.48097 10.919 8.44797 10.926 8.41497L12.073 2.63597C12.127 2.36497 12.39 2.18897 12.661 2.24297C12.704 2.25197 12.746 2.26597 12.786 2.28597L16.036 3.91097C16.51 4.19397 17.124 4.03897 17.407 3.56497C17.69 3.09097 17.535 2.47697 17.061 2.19397C17.019 2.16897 16.975 2.14697 16.929 2.12797L13.093 0.209972C12.104 -0.282028 10.904 0.119972 10.411 1.10897C10.333 1.26497 10.276 1.42997 10.242 1.60097V1.60697L8.852 8.61297C8.804 8.84597 8.6 9.01297 8.362 9.01297H5.251C4.975 9.01197 4.751 8.78797 4.752 8.51197C4.752 8.45597 4.762 8.40097 4.78 8.34797C5.333 6.77997 6.631 5.58997 8.241 5.17497C8.77 5.01697 9.071 4.45897 8.912 3.92997C8.762 3.42897 8.252 3.12797 7.741 3.23997C5.155 3.90897 3.179 5.99697 2.651 8.61497C2.604 8.84697 2.399 9.01497 2.162 9.01497H1C0.448 9.01497 0 9.46297 0 10.015C0 10.567 0.448 11.015 1 11.015H2.211C2.458 11.015 2.667 11.195 2.705 11.439L4.438 22.742V22.751C4.561 23.475 5.189 24.003 5.923 24H13.056C13.795 24.002 14.425 23.467 14.542 22.737L16.274 11.442C16.312 11.198 16.521 11.018 16.768 11.018H17.98C18.532 11.018 18.98 10.57 18.98 10.018C18.98 9.46597 18.532 9.01797 17.98 9.01797ZM8.277 11.6L7.894 13.605C7.847 13.838 7.642 14.005 7.404 14.005H5.551C5.305 14.005 5.095 13.825 5.057 13.582L4.75 11.582C4.708 11.309 4.895 11.054 5.168 11.012C5.193 11.008 5.218 11.006 5.243 11.006H7.786C8.062 11.006 8.286 11.23 8.286 11.506C8.286 11.538 8.283 11.569 8.277 11.6ZM14.232 11.589L13.924 13.589C13.886 13.832 13.677 14.011 13.431 14.012H10.454C10.178 14.011 9.955 13.787 9.955 13.511C9.955 13.48 9.958 13.45 9.964 13.419L10.347 11.419C10.392 11.184 10.598 11.014 10.837 11.013H13.738C14.014 11.013 14.238 11.237 14.238 11.513C14.238 11.539 14.236 11.564 14.232 11.589Z" transform="translate(2.51001)" fill="currentColor"/>
</g>
</svg>
