<svg id="target" width="24" height="24" viewBox="0 0 24 24" fill="none" xmlns="http://www.w3.org/2000/svg">
<path fill-rule="evenodd" clip-rule="evenodd" d="M13.7588 6.33334H15C15.5522 6.33334 16 6.78104 16 7.33334V8.66666C16 9.21896 15.5522 9.66666 15 9.66666H13.7588C13.6355 10.0933 13.4648 10.5047 13.25 10.8933L14.1279 11.772C14.3157 11.9596 14.4211 12.214 14.4211 12.4793C14.4211 12.7447 14.3157 12.9991 14.1279 13.1867L13.1853 14.1293C12.7949 14.5197 12.1619 14.5197 11.7712 14.1293L10.8926 13.2507C10.5042 13.4651 10.093 13.6357 9.66675 13.7593V15C9.66675 15.5523 9.21899 16 8.66675 16H7.33325C6.78101 16 6.33325 15.5523 6.33325 15V13.7593C5.90674 13.6359 5.49536 13.465 5.10669 13.25L4.22803 14.1287C3.83105 14.5037 3.21021 14.5037 2.81323 14.1287L1.87061 13.186C1.68311 12.9984 1.57764 12.744 1.57764 12.4787C1.57764 12.2133 1.68311 11.9589 1.87061 11.7713L2.74927 10.8933C2.53491 10.5046 2.3645 10.0932 2.24146 9.66666H1C0.447754 9.66666 0 9.21896 0 8.66666V7.33334C0 6.78104 0.447754 6.33334 1 6.33334H2.24146C2.3645 5.90704 2.53491 5.49585 2.74927 5.10733L1.87134 4.22934C1.68359 4.04178 1.57812 3.78732 1.57812 3.522C1.57812 3.25668 1.68359 3.00223 1.87134 2.81467L2.8147 1.87201C3.20508 1.48163 3.83813 1.48163 4.22876 1.87201L5.10669 2.75C5.49536 2.5354 5.90674 2.36502 6.33325 2.242V1C6.33325 0.447723 6.78101 0 7.33325 0H8.66675C9.21899 0 9.66675 0.447723 9.66675 1V2.242C10.0928 2.36499 10.5039 2.5354 10.8921 2.75L11.7708 1.87201C12.1611 1.48163 12.7942 1.48163 13.1846 1.87201L14.1279 2.81467C14.3157 3.00223 14.4211 3.25668 14.4211 3.522C14.4211 3.78732 14.3157 4.04178 14.1279 4.22934L13.25 5.10666C13.4646 5.49536 13.6353 5.9068 13.7588 6.33334ZM4.66675 8C4.66675 9.84094 6.15918 11.3333 8 11.3333C9.84009 11.3311 11.3313 9.84003 11.3335 8C11.3335 6.15903 9.84106 4.66666 8 4.66666C6.15918 4.66666 4.66675 6.15903 4.66675 8Z" transform="translate(4 4)" fill="currentColor"/>
</svg>
