<svg id="target" width="24" height="24" viewBox="0 0 24 24" fill="none" xmlns="http://www.w3.org/2000/svg">
<path d="M13.1693 8.66667V8.16667C12.9314 8.16667 12.7264 8.33436 12.6792 8.56759L13.1693 8.66667ZM13.1687 6.66667L12.6785 6.76526C12.7254 6.99872 12.9305 7.16667 13.1687 7.16667V6.66667ZM12.502 4.71867L12.1482 4.36534C11.9966 4.51718 11.9587 4.74887 12.0542 4.94108L12.502 4.71867ZM13.5593 3.66L13.2057 3.3065L13.2056 3.30667L13.5593 3.66ZM13.5593 2.71733L13.9129 2.36383L13.9129 2.36378L13.5593 2.71733ZM12.616 1.774L12.9696 1.42045L12.9695 1.42039L12.616 1.774ZM11.6733 1.774L12.0268 2.12766L12.0268 2.12761L11.6733 1.774ZM10.6133 2.83333L10.3907 3.28104C10.583 3.37666 10.8149 3.3388 10.9668 3.187L10.6133 2.83333ZM8.66667 2.16667H8.16667C8.16667 2.40481 8.33463 2.60991 8.5681 2.65685L8.66667 2.16667ZM6.66667 2.16533L6.76521 2.65553C6.99869 2.60859 7.16667 2.40349 7.16667 2.16533H6.66667ZM4.71933 2.832L4.36611 3.18589C4.51801 3.3375 4.74971 3.37526 4.94189 3.27974L4.71933 2.832ZM3.65933 1.774L3.30583 2.12761L3.30611 2.12789L3.65933 1.774ZM2.71667 1.774L2.36317 1.42039L2.36311 1.42045L2.71667 1.774ZM1.77333 2.71733L1.41978 2.36378L1.41973 2.36383L1.77333 2.71733ZM1.77333 3.66L1.41973 4.0135L1.41989 4.01366L1.77333 3.66ZM2.83333 4.71933L3.28118 4.94167C3.37667 4.74932 3.33867 4.51747 3.18678 4.36567L2.83333 4.71933ZM2.16667 6.66667V7.16667C2.40473 7.16667 2.60978 6.99882 2.65681 6.76545L2.16667 6.66667ZM0 7.33333H-0.5H0ZM0 8H-0.5H0ZM2.164 8.66667L2.65414 8.56788C2.60711 8.33451 2.40206 8.16667 2.164 8.16667V8.66667ZM2.83067 10.614L3.18422 10.9676C3.33603 10.8157 3.37398 10.584 3.27851 10.3917L2.83067 10.614ZM1.77067 11.674L1.41711 11.3204L1.41706 11.3205L1.77067 11.674ZM1.77067 12.6167L1.41706 12.9702L1.41724 12.9703L1.77067 12.6167ZM2.714 13.5593L3.0675 13.2057L3.06743 13.2057L2.714 13.5593ZM3.65667 13.5593L4.01017 13.9129L4.01022 13.9129L3.65667 13.5593ZM4.716 12.5L4.93887 12.0524C4.74649 11.9566 4.51441 11.9945 4.36245 12.1464L4.716 12.5ZM6.66667 13.1693H7.16667C7.16667 12.9313 6.99887 12.7263 6.76555 12.6792L6.66667 13.1693ZM8.66667 13.1693L8.56793 12.6792C8.33454 12.7262 8.16667 12.9313 8.16667 13.1693H8.66667ZM10.6133 12.5027L10.9667 12.1489C10.8148 11.9972 10.5831 11.9594 10.3909 12.0549L10.6133 12.5027ZM11.674 13.562L12.0275 13.2084L12.0273 13.2082L11.674 13.562ZM12.6167 13.562L12.9702 13.9156L12.9702 13.9156L12.6167 13.562ZM13.5593 12.6193L13.9129 12.9729L13.9129 12.9728L13.5593 12.6193ZM13.5593 11.6767L13.2057 12.0301L13.2057 12.0302L13.5593 11.6767ZM12.5 10.6167L12.0524 10.3939C11.9567 10.5862 11.9945 10.8182 12.1463 10.9701L12.5 10.6167ZM13.1693 9.16667H14.6667V8.16667H13.1693V9.16667ZM14.6667 9.16667C15.311 9.16667 15.8333 8.64433 15.8333 8H14.8333C14.8333 8.09205 14.7587 8.16667 14.6667 8.16667V9.16667ZM15.8333 8V7.33333H14.8333V8H15.8333ZM15.8333 7.33333C15.8333 6.689 15.311 6.16667 14.6667 6.16667V7.16667C14.7587 7.16667 14.8333 7.24129 14.8333 7.33333H15.8333ZM14.6667 6.16667H13.1687V7.16667H14.6667V6.16667ZM13.6588 6.56807C13.5143 5.84938 13.2759 5.15281 12.9498 4.49625L12.0542 4.94108C12.3413 5.51916 12.5512 6.13248 12.6785 6.76526L13.6588 6.56807ZM12.8558 5.072L13.9131 4.01333L13.2056 3.30667L12.1482 4.36534L12.8558 5.072ZM13.9129 4.0135C14.3684 3.55792 14.3684 2.81942 13.9129 2.36383L13.2057 3.07083C13.2708 3.13592 13.2708 3.24142 13.2057 3.3065L13.9129 4.0135ZM13.9129 2.36378L12.9696 1.42045L12.2624 2.12755L13.2058 3.07089L13.9129 2.36378ZM12.9695 1.42039C12.5139 0.964948 11.7754 0.964948 11.3198 1.42039L12.0268 2.12761C12.0919 2.06254 12.1974 2.06254 12.2625 2.12761L12.9695 1.42039ZM11.3199 1.42034L10.2599 2.47967L10.9668 3.187L12.0268 2.12766L11.3199 1.42034ZM10.836 2.38563C10.1798 2.05937 9.48362 1.82094 8.76524 1.67648L8.5681 2.65685C9.2004 2.784 9.81321 2.99387 10.3907 3.28104L10.836 2.38563ZM9.16667 2.16667V0.666667H8.16667V2.16667H9.16667ZM9.16667 0.666667C9.16667 0.0223342 8.64433 -0.5 8 -0.5V0.5C8.09205 0.5 8.16667 0.57462 8.16667 0.666667H9.16667ZM8 -0.5H7.33333V0.5H8V-0.5ZM7.33333 -0.5C6.689 -0.5 6.16667 0.0223342 6.16667 0.666667H7.16667C7.16667 0.57462 7.24129 0.5 7.33333 0.5V-0.5ZM6.16667 0.666667V2.16533H7.16667V0.666667H6.16667ZM6.56812 1.67514C5.84955 1.81959 5.15312 2.05802 4.49678 2.38426L4.94189 3.27974C5.51964 2.99256 6.13268 2.78268 6.76521 2.65553L6.56812 1.67514ZM5.07255 2.47811L4.01255 1.42011L3.30611 2.12789L4.36611 3.18589L5.07255 2.47811ZM4.01283 1.42039C3.55725 0.964948 2.81875 0.964948 2.36317 1.42039L3.07017 2.12761C3.13525 2.06254 3.24075 2.06254 3.30583 2.12761L4.01283 1.42039ZM2.36311 1.42045L1.41978 2.36378L2.12689 3.07089L3.07022 2.12755L2.36311 1.42045ZM1.41973 2.36383C0.964281 2.81942 0.964281 3.55792 1.41973 4.0135L2.12694 3.3065C2.06188 3.24142 2.06188 3.13592 2.12694 3.07083L1.41973 2.36383ZM1.41989 4.01366L2.47989 5.073L3.18678 4.36567L2.12678 3.30634L1.41989 4.01366ZM2.38549 4.497C2.05965 5.15333 1.82129 5.84956 1.67652 6.56788L2.65681 6.76545C2.78431 6.13284 2.99422 5.51969 3.28118 4.94167L2.38549 4.497ZM2.16667 6.16667H0.666667V7.16667H2.16667V6.16667ZM0.666667 6.16667C0.0223342 6.16667 -0.5 6.689 -0.5 7.33333H0.5C0.5 7.24129 0.57462 7.16667 0.666667 7.16667V6.16667ZM-0.5 7.33333V8H0.5V7.33333H-0.5ZM-0.5 8C-0.5 8.64433 0.0223342 9.16667 0.666667 9.16667V8.16667C0.57462 8.16667 0.5 8.09205 0.5 8H-0.5ZM0.666667 9.16667H2.164V8.16667H0.666667V9.16667ZM1.67386 8.76545C1.81863 9.48377 2.05698 10.18 2.38282 10.8363L3.27851 10.3917C2.99155 9.81365 2.78164 9.20049 2.65414 8.56788L1.67386 8.76545ZM2.47711 10.2604L1.41711 11.3204L2.12422 12.0276L3.18422 10.9676L2.47711 10.2604ZM1.41706 11.3205C0.961614 11.7761 0.961614 12.5146 1.41706 12.9702L2.12427 12.2632C2.05921 12.1981 2.05921 12.0926 2.12427 12.0275L1.41706 11.3205ZM1.41724 12.9703L2.36057 13.913L3.06743 13.2057L2.1241 12.263L1.41724 12.9703ZM2.3605 13.9129C2.81608 14.3684 3.55458 14.3684 4.01017 13.9129L3.30317 13.2057C3.23808 13.2708 3.13258 13.2708 3.0675 13.2057L2.3605 13.9129ZM4.01022 13.9129L5.06955 12.8536L4.36245 12.1464L3.30311 13.2058L4.01022 13.9129ZM4.49313 12.9476C5.15045 13.2749 5.84799 13.5142 6.56778 13.6595L6.76555 12.6792C6.13179 12.5513 5.51762 12.3406 4.93887 12.0524L4.49313 12.9476ZM6.16667 13.1693V14.6667H7.16667V13.1693H6.16667ZM6.16667 14.6667C6.16667 15.311 6.689 15.8333 7.33333 15.8333V14.8333C7.24129 14.8333 7.16667 14.7587 7.16667 14.6667H6.16667ZM7.33333 15.8333H8V14.8333H7.33333V15.8333ZM8 15.8333C8.64433 15.8333 9.16667 15.311 9.16667 14.6667H8.16667C8.16667 14.7587 8.09205 14.8333 8 14.8333V15.8333ZM9.16667 14.6667V13.1693H8.16667V14.6667H9.16667ZM8.76541 13.6595C9.48361 13.5148 10.1797 13.2764 10.8358 12.9504L10.3909 12.0549C9.81317 12.3419 9.20028 12.5518 8.56793 12.6792L8.76541 13.6595ZM10.26 12.8564L11.3207 13.9158L12.0273 13.2082L10.9667 12.1489L10.26 12.8564ZM11.3205 13.9156C11.7761 14.3711 12.5146 14.3711 12.9702 13.9156L12.2632 13.2084C12.1981 13.2735 12.0926 13.2735 12.0275 13.2084L11.3205 13.9156ZM12.9702 13.9156L13.9129 12.9729L13.2058 12.2658L12.2631 13.2084L12.9702 13.9156ZM13.9129 12.9728C14.3684 12.5173 14.3684 11.7787 13.9129 11.3232L13.2057 12.0302C13.2708 12.0952 13.2708 12.2007 13.2057 12.2658L13.9129 12.9728ZM13.913 11.3232L12.8537 10.2632L12.1463 10.9701L13.2057 12.0301L13.913 11.3232ZM12.9476 10.8395C13.2747 10.1824 13.514 9.48517 13.6594 8.76574L12.6792 8.56759C12.5512 9.20118 12.3404 9.81519 12.0524 10.3939L12.9476 10.8395ZM7.66675 11.1667C9.59974 11.1667 11.1667 9.59967 11.1667 7.66667H10.1667C10.1667 9.04738 9.04746 10.1667 7.66675 10.1667V11.1667ZM11.1667 7.66667C11.1667 5.73368 9.59974 4.16667 7.66675 4.16667V5.16667C9.04746 5.16667 10.1667 6.28596 10.1667 7.66667H11.1667ZM7.66675 4.16667C5.73375 4.16667 4.16675 5.73368 4.16675 7.66667H5.16675C5.16675 6.28596 6.28604 5.16667 7.66675 5.16667V4.16667ZM4.16675 7.66667C4.16675 9.59967 5.73375 11.1667 7.66675 11.1667V10.1667C6.28604 10.1667 5.16675 9.04738 5.16675 7.66667H4.16675Z" transform="translate(4.33325 4.33333)" fill="currentColor"/>
</svg>
