<svg id="target" width="24" height="24" viewBox="0 0 24 24" fill="none" xmlns="http://www.w3.org/2000/svg">
<g id="camera">

<g id="Vector" transform="translate(2.25)">
<path d="M17.25 12H16.214L15.336 10.244C15.092 9.755 14.682 9.404 14.201 9.199L14.86 6H14.999C15.826 6 16.499 5.327 16.499 4.5V1.5C16.499 0.673 15.826 0 14.999 0H7.499C6.672 0 5.999 0.673 5.999 1.5V4.5C5.999 5.327 6.672 6 7.499 6H7.638L8.297 9.2C7.818 9.405 7.408 9.756 7.164 10.244L6.287 12H4.499V11.25C4.499 10.836 4.163 10.5 3.749 10.5C3.335 10.5 2.999 10.836 2.999 11.25V12H2.25C1.009 12 0 13.01 0 14.25V21.75C0 22.99 1.009 24 2.25 24H17.25C18.49 24 19.5 22.99 19.5 21.75V14.25C19.5 13.01 18.49 12 17.25 12ZM7.498 1.5C7.499 1.5 7.499 1.5 7.498 1.5V1.5ZM7.5 1.5H15V4.5H7.5V1.5ZM13.329 6L12.711 9H9.787L9.169 6H13.329ZM18 21.75C18 22.163 17.663 22.5 17.25 22.5H2.25C1.836 22.5 1.5 22.163 1.5 21.75V14.25C1.5 13.837 1.836 13.5 2.25 13.5H6.75C7.034 13.5 7.294 13.34 7.421 13.085L8.506 10.915C8.634 10.659 8.89 10.5 9.176 10.5H13.323C13.609 10.5 13.866 10.659 13.994 10.915L15.079 13.085C15.206 13.34 15.466 13.5 15.75 13.5H17.25C17.663 13.5 18 13.837 18 14.25V21.75Z" fill="currentColor"/>
<path d="M4.125 15C3.503 15.001 2.999 15.505 3 16.126C3.001 16.747 3.505 17.251 4.126 17.25C4.747 17.249 5.25 16.746 5.25 16.125C5.25 15.504 4.746 15 4.125 15Z" fill="currentColor"/>
<path d="M11.249 13.5C9.18099 13.5 7.49899 15.183 7.49899 17.25C7.49899 19.317 9.18099 21 11.249 21C13.316 21 14.999 19.317 14.999 17.25C14.999 15.183 13.316 13.5 11.249 13.5ZM11.249 19.5C10.008 19.5 8.99899 18.49 8.99899 17.25C8.99899 16.01 10.008 15 11.249 15C12.489 15 13.499 16.01 13.499 17.25C13.499 18.49 12.489 19.5 11.249 19.5Z" fill="currentColor"/>
</g>
</g>
</svg>
