<svg id="target" width="24" height="24" viewBox="0 0 24 24" fill="none" xmlns="http://www.w3.org/2000/svg">
<g id="frame">

<path id="Vector" d="M17.5 3C17.5 2.72386 17.2761 2.5 17 2.5C16.7239 2.5 16.5 2.72386 16.5 3H17.5ZM17 9L16.6464 9.35355C16.8417 9.54882 17.1583 9.54882 17.3536 9.35355L17 9ZM15.1036 6.39645C14.9083 6.20118 14.5917 6.20118 14.3964 6.39645C14.2012 6.59171 14.2012 6.90829 14.3964 7.10355L15.1036 6.39645ZM19.6036 7.10355C19.7988 6.90829 19.7988 6.59171 19.6036 6.39645C19.4083 6.20118 19.0917 6.20118 18.8964 6.39645L19.6036 7.10355ZM0 15.5C-0.276142 15.5 -0.5 15.7239 -0.5 16C-0.5 16.2761 -0.276142 16.5 0 16.5V15.5ZM21 16.5C21.2761 16.5 21.5 16.2761 21.5 16C21.5 15.7239 21.2761 15.5 21 15.5V16.5ZM21.5 13C21.5 12.7239 21.2761 12.5 21 12.5C20.7239 12.5 20.5 12.7239 20.5 13H21.5ZM0 18H-0.5H0ZM1 4V4.5V4ZM9 4.5C9.27614 4.5 9.5 4.27614 9.5 4C9.5 3.72386 9.27614 3.5 9 3.5V4.5ZM7.10803 22.6896C6.93659 22.9061 6.9731 23.2205 7.18958 23.392C7.40605 23.5634 7.72052 23.5269 7.89197 23.3104L7.10803 22.6896ZM9.49943 19.0238C9.5126 18.748 9.29968 18.5137 9.02385 18.5006C8.74802 18.4874 8.51374 18.7003 8.50057 18.9762L9.49943 19.0238ZM13.108 23.3104C13.2795 23.5269 13.5939 23.5634 13.8104 23.392C14.0269 23.2205 14.0634 22.9061 13.892 22.6896L13.108 23.3104ZM12.4994 18.9762C12.4863 18.7003 12.252 18.4874 11.9762 18.5006C11.7003 18.5137 11.4874 18.748 11.5006 19.0238L12.4994 18.9762ZM6 22.5C5.72386 22.5 5.5 22.7239 5.5 23C5.5 23.2761 5.72386 23.5 6 23.5V22.5ZM15 23.5C15.2761 23.5 15.5 23.2761 15.5 23C15.5 22.7239 15.2761 22.5 15 22.5V23.5ZM22.5 6C22.5 9.03757 20.0376 11.5 17 11.5V12.5C20.5899 12.5 23.5 9.58985 23.5 6H22.5ZM17 11.5C13.9624 11.5 11.5 9.03757 11.5 6H10.5C10.5 9.58985 13.4101 12.5 17 12.5V11.5ZM11.5 6C11.5 2.96243 13.9624 0.5 17 0.5V-0.5C13.4101 -0.5 10.5 2.41015 10.5 6H11.5ZM17 0.5C20.0376 0.5 22.5 2.96243 22.5 6H23.5C23.5 2.41015 20.5899 -0.5 17 -0.5V0.5ZM16.5 3V9H17.5V3H16.5ZM17.3536 8.64645L15.1036 6.39645L14.3964 7.10355L16.6464 9.35355L17.3536 8.64645ZM17.3536 9.35355L19.6036 7.10355L18.8964 6.39645L16.6464 8.64645L17.3536 9.35355ZM0 16.5H21V15.5H0V16.5ZM20.5 13V18H21.5V13H20.5ZM20.5 18C20.5 18.1326 20.4473 18.2598 20.3536 18.3536L21.0607 19.0607C21.342 18.7794 21.5 18.3978 21.5 18H20.5ZM20.3536 18.3536C20.2598 18.4473 20.1326 18.5 20 18.5V19.5C20.3978 19.5 20.7794 19.342 21.0607 19.0607L20.3536 18.3536ZM20 18.5H1V19.5H20V18.5ZM1 18.5C0.867391 18.5 0.740214 18.4473 0.646447 18.3536L-0.0606602 19.0607C0.220645 19.342 0.602176 19.5 1 19.5V18.5ZM0.646447 18.3536C0.552679 18.2598 0.5 18.1326 0.5 18H-0.5C-0.5 18.3978 -0.341965 18.7794 -0.0606602 19.0607L0.646447 18.3536ZM0.5 18V5H-0.5V18H0.5ZM0.5 5C0.5 4.86739 0.552678 4.74022 0.646447 4.64645L-0.0606602 3.93934C-0.341965 4.22064 -0.5 4.60218 -0.5 5H0.5ZM0.646447 4.64645C0.740215 4.55268 0.867392 4.5 1 4.5V3.5C0.602175 3.5 0.220644 3.65804 -0.0606602 3.93934L0.646447 4.64645ZM1 4.5H9V3.5H1V4.5ZM7.89197 23.3104C8.86268 22.0847 9.42485 20.5856 9.49943 19.0238L8.50057 18.9762C8.43596 20.3291 7.94896 21.6278 7.10803 22.6896L7.89197 23.3104ZM13.892 22.6896C13.051 21.6278 12.564 20.3291 12.4994 18.9762L11.5006 19.0238C11.5751 20.5856 12.1373 22.0847 13.108 23.3104L13.892 22.6896ZM6 23.5H15V22.5H6V23.5Z" transform="translate(0.5 0.5)" fill="currentColor"/>
</g>
</svg>
