<svg id="target" width="24" height="24" viewBox="0 0 24 24" fill="none" xmlns="http://www.w3.org/2000/svg">
<g id="camera">

<path id="Vector" d="M0 21.5H-0.5H0ZM0 12.5H-0.5H0ZM1.5 11V10.5V11ZM6.5 11V11.5C6.50903 11.5 6.51806 11.4998 6.52707 11.4993L6.5 11ZM8.207 10.293L8.54087 10.6652C8.5476 10.6592 8.55416 10.6529 8.56055 10.6466L8.207 10.293ZM16.793 10.293L16.4394 10.6466C16.4458 10.6529 16.4524 10.6592 16.4591 10.6652L16.793 10.293ZM18.5 11L18.4729 11.4993C18.4819 11.4998 18.491 11.5 18.5 11.5V11ZM19.5 11V10.5V11ZM1.5 11C1.5 11.2761 1.72386 11.5 2 11.5C2.27614 11.5 2.5 11.2761 2.5 11H1.5ZM4.5 11C4.5 11.2761 4.72386 11.5 5 11.5C5.27614 11.5 5.5 11.2761 5.5 11H4.5ZM9 2V1.5C8.72386 1.5 8.5 1.72386 8.5 2H9ZM16 2H16.5C16.5 1.72386 16.2761 1.5 16 1.5V2ZM16 4V4.5C16.2761 4.5 16.5 4.27614 16.5 4H16ZM9 4H8.5C8.5 4.27614 8.72386 4.5 9 4.5V4ZM8.97434 5.84189C8.88702 5.57991 8.60386 5.43833 8.34189 5.52566C8.07991 5.61298 7.93833 5.89614 8.02566 6.15811L8.97434 5.84189ZM16.9743 6.15811C17.0617 5.89614 16.9201 5.61298 16.6581 5.52566C16.3961 5.43833 16.113 5.57991 16.0257 5.84189L16.9743 6.15811ZM20.5 21.5C20.5 21.7652 20.3946 22.0196 20.2071 22.2071L20.9142 22.9142C21.2893 22.5391 21.5 22.0304 21.5 21.5H20.5ZM20.2071 22.2071C20.0196 22.3946 19.7652 22.5 19.5 22.5V23.5C20.0304 23.5 20.5391 23.2893 20.9142 22.9142L20.2071 22.2071ZM19.5 22.5H1.5V23.5H19.5V22.5ZM1.5 22.5C1.23478 22.5 0.98043 22.3946 0.792893 22.2071L0.0857865 22.9142C0.460859 23.2893 0.969566 23.5 1.5 23.5V22.5ZM0.792893 22.2071C0.605357 22.0196 0.5 21.7652 0.5 21.5H-0.5C-0.5 22.0304 -0.289286 22.5391 0.0857865 22.9142L0.792893 22.2071ZM0.5 21.5V12.5H-0.5V21.5H0.5ZM0.5 12.5C0.5 12.2348 0.605357 11.9804 0.792893 11.7929L0.0857865 11.0858C-0.289286 11.4609 -0.5 11.9696 -0.5 12.5H0.5ZM0.792893 11.7929C0.98043 11.6054 1.23478 11.5 1.5 11.5V10.5C0.969567 10.5 0.460859 10.7107 0.0857865 11.0858L0.792893 11.7929ZM1.5 11.5H6.5V10.5H1.5V11.5ZM6.52707 11.4993C7.27375 11.4588 7.98422 11.1645 8.54087 10.6652L7.87313 9.9208C7.48609 10.268 6.9921 10.4726 6.47293 10.5007L6.52707 11.4993ZM8.56055 10.6466L9.85355 9.35355L9.14645 8.64645L7.85345 9.93945L8.56055 10.6466ZM9.5 9.5H15.5V8.5H9.5V9.5ZM15.1464 9.35355L16.4394 10.6466L17.1466 9.93945L15.8536 8.64645L15.1464 9.35355ZM16.4591 10.6652C17.0158 11.1645 17.7262 11.4588 18.4729 11.4993L18.5271 10.5007C18.0079 10.4726 17.5139 10.268 17.1269 9.9208L16.4591 10.6652ZM18.5 11.5H19.5V10.5H18.5V11.5ZM19.5 11.5C19.7652 11.5 20.0196 11.6054 20.2071 11.7929L20.9142 11.0858C20.5391 10.7107 20.0304 10.5 19.5 10.5V11.5ZM20.2071 11.7929C20.3946 11.9804 20.5 12.2348 20.5 12.5H21.5C21.5 11.9696 21.2893 11.4609 20.9142 11.0858L20.2071 11.7929ZM20.5 12.5V21.5H21.5V12.5H20.5ZM2.5 11V10H1.5V11H2.5ZM2.5 10C2.5 9.86739 2.55268 9.74022 2.64645 9.64645L1.93934 8.93934C1.65804 9.22064 1.5 9.60217 1.5 10H2.5ZM2.64645 9.64645C2.74021 9.55268 2.86739 9.5 3 9.5V8.5C2.60217 8.5 2.22064 8.65804 1.93934 8.93934L2.64645 9.64645ZM3 9.5H4V8.5H3V9.5ZM4 9.5C4.13261 9.5 4.25978 9.55268 4.35355 9.64645L5.06066 8.93934C4.77936 8.65804 4.39783 8.5 4 8.5V9.5ZM4.35355 9.64645C4.44732 9.74022 4.5 9.86739 4.5 10H5.5C5.5 9.60217 5.34196 9.22064 5.06066 8.93934L4.35355 9.64645ZM4.5 10V11H5.5V10H4.5ZM4.5 14.5C4.5 15.0523 4.05228 15.5 3.5 15.5V16.5C4.60457 16.5 5.5 15.6046 5.5 14.5H4.5ZM3.5 15.5C2.94772 15.5 2.5 15.0523 2.5 14.5H1.5C1.5 15.6046 2.39543 16.5 3.5 16.5V15.5ZM2.5 14.5C2.5 13.9477 2.94772 13.5 3.5 13.5V12.5C2.39543 12.5 1.5 13.3954 1.5 14.5H2.5ZM3.5 13.5C4.05228 13.5 4.5 13.9477 4.5 14.5H5.5C5.5 13.3954 4.60457 12.5 3.5 12.5V13.5ZM15 16.5C15 17.6046 14.1046 18.5 13 18.5V19.5C14.6569 19.5 16 18.1569 16 16.5H15ZM13 18.5C11.8954 18.5 11 17.6046 11 16.5H10C10 18.1569 11.3431 19.5 13 19.5V18.5ZM11 16.5C11 15.3954 11.8954 14.5 13 14.5V13.5C11.3431 13.5 10 14.8431 10 16.5H11ZM13 14.5C14.1046 14.5 15 15.3954 15 16.5H16C16 14.8431 14.6569 13.5 13 13.5V14.5ZM17 16.5C17 18.7091 15.2091 20.5 13 20.5V21.5C15.7614 21.5 18 19.2614 18 16.5H17ZM13 20.5C10.7909 20.5 9 18.7091 9 16.5H8C8 19.2614 10.2386 21.5 13 21.5V20.5ZM9 16.5C9 14.2909 10.7909 12.5 13 12.5V11.5C10.2386 11.5 8 13.7386 8 16.5H9ZM13 12.5C15.2091 12.5 17 14.2909 17 16.5H18C18 13.7386 15.7614 11.5 13 11.5V12.5ZM8 0.5H17V-0.5H8V0.5ZM17 0.5C17.2761 0.5 17.5 0.723857 17.5 1H18.5C18.5 0.171573 17.8284 -0.5 17 -0.5V0.5ZM17.5 1V5H18.5V1H17.5ZM17.5 5C17.5 5.27614 17.2761 5.5 17 5.5V6.5C17.8284 6.5 18.5 5.82843 18.5 5H17.5ZM17 5.5H8V6.5H17V5.5ZM8 5.5C7.72386 5.5 7.5 5.27614 7.5 5H6.5C6.5 5.82843 7.17157 6.5 8 6.5V5.5ZM7.5 5V1H6.5V5H7.5ZM7.5 1C7.5 0.723858 7.72386 0.5 8 0.5V-0.5C7.17157 -0.5 6.5 0.171573 6.5 1H7.5ZM9 2.5H16V1.5H9V2.5ZM15.5 2V4H16.5V2H15.5ZM16 3.5H9V4.5H16V3.5ZM9.5 4V2H8.5V4H9.5ZM8.02566 6.15811L9.02566 9.15811L9.97434 8.84189L8.97434 5.84189L8.02566 6.15811ZM16.0257 5.84189L15.0257 8.84189L15.9743 9.15811L16.9743 6.15811L16.0257 5.84189Z" transform="translate(1.5 0.5)" fill="currentColor"/>
</g>
</svg>
