<svg id="target" width="24" height="24" viewBox="0 0 24 24" fill="none" xmlns="http://www.w3.org/2000/svg">
<path d="M5.16675 0C5.16675 -0.276142 4.94289 -0.5 4.66675 -0.5C4.39061 -0.5 4.16675 -0.276142 4.16675 0H5.16675ZM4.16675 13.3333C4.16675 13.6095 4.39061 13.8333 4.66675 13.8333C4.94289 13.8333 5.16675 13.6095 5.16675 13.3333H4.16675ZM4.66675 0.166672C4.39061 0.166672 4.16675 0.39053 4.16675 0.666672C4.16675 0.942815 4.39061 1.16667 4.66675 1.16667V0.166672ZM11.6667 0.666672L11.6667 1.16667L11.6676 1.16667L11.6667 0.666672ZM11.9027 1.23601L11.5496 0.882005L11.5493 0.88234L11.9027 1.23601ZM9.80408 3.33334L9.45064 2.97967C9.35681 3.07344 9.30409 3.20065 9.30408 3.3333C9.30407 3.46595 9.35677 3.59317 9.45058 3.68695L9.80408 3.33334ZM11.9021 5.43067L11.5486 5.78428L11.549 5.78467L11.9021 5.43067ZM11.6667 6.00001L11.6667 6.50001L11.6669 6.50001L11.6667 6.00001ZM4.66675 5.50001C4.39061 5.50001 4.16675 5.72386 4.16675 6.00001C4.16675 6.27615 4.39061 6.50001 4.66675 6.50001V5.50001ZM4.16675 0V13.3333H5.16675V0H4.16675ZM4.66667 15.8333C5.99713 15.8333 7.2233 15.6415 8.13467 15.316C8.58817 15.1541 8.99059 14.9496 9.28918 14.6974C9.58545 14.4473 9.83333 14.101 9.83333 13.6667H8.83333C8.83333 13.6925 8.82005 13.7848 8.64403 13.9334C8.47032 14.0801 8.18932 14.2347 7.79833 14.3743C7.0207 14.652 5.91353 14.8333 4.66667 14.8333V15.8333ZM9.83333 13.6667C9.83333 13.2323 9.58545 12.8861 9.28918 12.6359C8.99059 12.3838 8.58817 12.1793 8.13467 12.0173C7.2233 11.6918 5.99713 11.5 4.66667 11.5V12.5C5.91353 12.5 7.0207 12.6813 7.79833 12.959C8.18932 13.0987 8.47032 13.2533 8.64403 13.4C8.82005 13.5486 8.83333 13.6408 8.83333 13.6667H9.83333ZM4.66667 11.5C3.33621 11.5 2.11004 11.6918 1.19867 12.0173C0.745159 12.1793 0.342743 12.3838 0.0441536 12.6359C-0.252116 12.8861 -0.5 13.2323 -0.5 13.6667H0.5C0.5 13.6408 0.513284 13.5486 0.689306 13.4C0.863009 13.2533 1.14401 13.0987 1.535 12.959C2.31263 12.6813 3.4198 12.5 4.66667 12.5V11.5ZM-0.5 13.6667C-0.5 14.101 -0.252116 14.4473 0.0441536 14.6974C0.342743 14.9496 0.745159 15.1541 1.19867 15.316C2.11004 15.6415 3.33621 15.8333 4.66667 15.8333V14.8333C3.4198 14.8333 2.31263 14.652 1.535 14.3743C1.14401 14.2347 0.863009 14.0801 0.689306 13.9334C0.513284 13.7848 0.5 13.6925 0.5 13.6667H-0.5ZM4.66675 1.16667H11.6667V0.166672H4.66675V1.16667ZM11.6676 1.16667C11.6001 1.16679 11.5392 1.12618 11.5134 1.06383L12.4372 0.680901C12.3079 0.369111 12.0034 0.166069 11.6659 0.166673L11.6676 1.16667ZM11.5134 1.06383C11.4875 1.00147 11.5019 0.929676 11.5496 0.882005L12.2559 1.59001C12.4948 1.35165 12.5664 0.992691 12.4372 0.680901L11.5134 1.06383ZM11.5493 0.88234L9.45064 2.97967L10.1575 3.687L12.2562 1.58967L11.5493 0.88234ZM9.45058 3.68695L11.5486 5.78428L12.2556 5.07706L10.1576 2.97973L9.45058 3.68695ZM11.549 5.78467C11.5012 5.73704 11.4869 5.66533 11.5127 5.60301L12.4368 5.98501C12.5656 5.67337 12.4939 5.31481 12.2552 5.07667L11.549 5.78467ZM11.5127 5.60301C11.5384 5.54068 11.5992 5.50002 11.6666 5.50001L11.6669 6.50001C12.0041 6.49993 12.308 6.29664 12.4368 5.98501L11.5127 5.60301ZM11.6667 5.50001H4.66675V6.50001H11.6667V5.50001Z" transform="translate(6 4.33333)" fill="currentColor"/>
</svg>
