<svg id="target" width="24" height="24" viewBox="0 0 24 24" fill="none" xmlns="http://www.w3.org/2000/svg">
<g id="slim">

<g id="Vector" transform="translate(0.25 0.5)">
<path d="M20.616 15.259C20.555 15.215 20.478 15.201 20.405 15.22C17.519 15.909 14.839 17.273 12.583 19.2C12.53 19.247 12.5 19.315 12.5 19.386V23H19.39C19.628 23 19.832 22.833 19.88 22.6L20.589 19.01V18.991C20.738 17.816 20.78 16.63 20.716 15.447C20.713 15.372 20.676 15.303 20.616 15.259Z" fill="currentColor"/>
<path d="M4.56 9.65C3.775 10.885 3.242 12.263 2.993 13.705C2.979 13.778 2.999 13.853 3.046 13.91C3.094 13.967 3.164 14 3.239 14H20.262C20.4 14 20.512 13.888 20.512 13.75C20.512 13.735 20.511 13.72 20.508 13.705C20.259 12.263 19.726 10.884 18.94 9.65C17.574 7.571 17.052 5.05 17.48 2.6L17.87 0.6C17.898 0.452 17.862 0.299 17.77 0.18C17.671 0.068 17.53 0.003 17.38 0H6.12C5.97 0.003 5.829 0.068 5.73 0.18C5.638 0.299 5.602 0.452 5.63 0.6L6.02 2.6C6.448 5.05 5.926 7.571 4.56 9.65ZM11.75 9.25C12.164 9.25 12.5 9.586 12.5 10C12.5 10.414 12.164 10.75 11.75 10.75C11.336 10.75 11 10.414 11 10C11.003 9.587 11.337 9.253 11.75 9.25Z" fill="currentColor"/>
<path d="M3.09599 15.221C3.02299 15.201 2.94599 15.216 2.88499 15.26C2.82499 15.304 2.788 15.373 2.785 15.447C2.72 16.63 2.76299 17.816 2.91199 18.991V19.009L3.61999 22.6C3.66799 22.833 3.87199 23 4.10999 23H11V19.391C11 19.32 10.97 19.252 10.917 19.205C8.66199 17.276 5.98199 15.911 3.09599 15.221Z" fill="currentColor"/>
<path d="M3.379 8.325L4.879 6.575C5.039 6.388 5.039 6.112 4.879 5.925L3.379 4.175C3.244 4.014 3.022 3.956 2.826 4.032C2.63 4.105 2.5 4.291 2.5 4.5V5C2.5 5.138 2.388 5.25 2.25 5.25H1C0.448 5.25 0 5.698 0 6.25C0 6.802 0.448 7.25 1 7.25H2.25C2.388 7.25 2.5 7.362 2.5 7.5V8C2.501 8.276 2.725 8.5 3.001 8.499C3.146 8.499 3.284 8.435 3.379 8.325Z" fill="currentColor"/>
<path d="M22.5 5.25H21.25C21.112 5.25 21 5.138 21 5V4.5C21 4.291 20.869 4.104 20.673 4.032C20.477 3.956 20.255 4.014 20.12 4.175L18.62 5.925C18.46 6.112 18.46 6.388 18.62 6.575L20.12 8.325C20.3 8.535 20.615 8.559 20.825 8.38C20.936 8.285 21 8.146 21 8V7.5C21 7.362 21.112 7.25 21.25 7.25H22.5C23.052 7.25 23.5 6.802 23.5 6.25C23.5 5.698 23.052 5.25 22.5 5.25Z" fill="currentColor"/>
</g>
</g>
</svg>
