<svg id="target" width="24" height="24" viewBox="0 0 24 24" fill="none" xmlns="http://www.w3.org/2000/svg">
<g id="slim">

<g id="Vector" transform="translate(0.000183105 0.00012207)">
<path d="M21.7808 14.9237C21.7678 14.8918 21.7608 14.8577 21.7448 14.8278C21.2598 13.6687 20.6108 12.7398 19.9998 11.8758C18.9268 10.3588 17.9998 9.04775 17.9998 6.74975C17.9998 2.74475 19.2478 1.31675 19.2878 1.27175C19.5728 0.97875 19.5698 0.50975 19.2798 0.21975C18.9868 -0.07325 18.5118 -0.07325 18.2188 0.21975C18.0428 0.39575 16.4987 2.07375 16.4987 6.74975C16.4987 9.52575 17.6548 11.1608 18.7738 12.7428C19.1678 13.2998 19.5498 13.8488 19.8878 14.4447H4.10975C4.44675 13.8497 4.83075 13.2998 5.22475 12.7428C6.34275 11.1608 7.49975 9.52575 7.49975 6.74975C7.49975 2.07375 5.95675 0.39575 5.77975 0.21975C5.49075 -0.06925 5.02875 -0.06925 4.73275 0.21475C4.43875 0.49975 4.43175 0.97175 4.71075 1.27075C4.72375 1.28475 5.99975 2.69975 5.99975 6.74975C5.99975 9.04875 5.07275 10.3588 3.99975 11.8758C3.38675 12.7418 2.73675 13.6737 2.25075 14.8328C2.24075 14.8507 2.23675 14.8728 2.22775 14.8918C1.79775 15.9377 1.50075 17.1658 1.50075 18.7148C1.41375 20.5398 2.00775 22.3197 3.17175 23.7288C3.31975 23.9067 3.53475 23.9998 3.75075 23.9998C3.91875 23.9998 4.08875 23.9427 4.22875 23.8277C4.54775 23.5627 4.59275 23.0907 4.32875 22.7708C3.40275 21.6528 2.93075 20.2367 3.00075 18.7498C3.00075 17.7178 3.14475 16.8638 3.37775 16.1117C6.41775 17.1087 10.1958 19.8337 11.2508 20.6217V23.2498C11.2508 23.6637 11.5868 23.9998 12.0008 23.9998C12.4148 23.9998 12.7508 23.6637 12.7508 23.2498V20.6238C13.8028 19.8378 17.5798 17.1117 20.6218 16.1138C20.8568 16.8728 21.0018 17.7378 21.0018 18.7868C21.0708 20.2368 20.5998 21.6528 19.6728 22.7717C19.4088 23.0907 19.4538 23.5638 19.7728 23.8288C19.9118 23.9428 20.0808 23.9998 20.2498 23.9998C20.4658 23.9998 20.6798 23.9067 20.8278 23.7288C21.9928 22.3208 22.5858 20.5397 22.4998 18.7498C22.4998 17.1968 22.2068 15.9688 21.7808 14.9237ZM12.0008 19.3097C11.0948 18.6377 8.99075 17.1367 6.72175 15.9447H17.2778C15.0107 17.1367 12.9058 18.6377 12.0008 19.3097Z" fill="currentColor"/>
<path d="M4.18975 6.74875C4.18975 6.34875 4.03275 5.97175 3.75075 5.68975L1.28075 3.21975C0.98775 2.92675 0.51275 2.92675 0.21975 3.21975C-0.07325 3.51275 -0.07325 3.98775 0.21975 4.28075L2.68975 6.74975L0.21975 9.21975C-0.07325 9.51275 -0.07325 9.98775 0.21975 10.2808C0.36575 10.4268 0.55775 10.5008 0.74975 10.5008C0.94175 10.5008 1.13375 10.4278 1.27975 10.2808L3.75075 7.80875C4.03375 7.52575 4.18975 7.14875 4.18975 6.74875Z" fill="currentColor"/>
<path d="M23.7797 3.21976C23.4857 2.92576 23.0107 2.92676 22.7187 3.21976L20.2507 5.68876C19.9667 5.97176 19.8107 6.34876 19.8107 6.74976C19.8107 7.14976 19.9667 7.52676 20.2497 7.81076L22.7187 10.2808L23.7797 9.21976L21.3117 6.74976L23.7807 4.27976C24.0727 3.98676 24.0727 3.51176 23.7797 3.21976Z" fill="currentColor"/>
<path d="M11.9987 11.6248C12.6197 11.6258 13.1237 11.1218 13.1247 10.5008V10.4998C13.1247 9.87876 12.6217 9.37576 12.0007 9.37476C11.3797 9.37376 10.8757 9.87776 10.8747 10.4988C10.8737 11.1198 11.3777 11.6238 11.9987 11.6248Z" fill="currentColor"/>
</g>
</g>
</svg>
