<svg id="target" width="25" height="24" viewBox="0 0 25 24" fill="none" xmlns="http://www.w3.org/2000/svg">
<g id="rooster">

<g id="Vector" transform="translate(3.24962)">
<path d="M10.211 11.305C10.141 11.052 9.949 10.86 9.695 10.789C9.635 10.764 9.569 10.75 9.5 10.75C9.431 10.75 9.365 10.764 9.305 10.789C9.052 10.859 8.86 11.051 8.789 11.305C8.764 11.365 8.75 11.431 8.75 11.5C8.75 11.569 8.764 11.635 8.789 11.695C8.859 11.948 9.051 12.14 9.305 12.211C9.365 12.236 9.431 12.25 9.5 12.25C9.569 12.25 9.635 12.236 9.695 12.211C9.948 12.141 10.14 11.949 10.211 11.695C10.236 11.635 10.25 11.569 10.25 11.5C10.25 11.431 10.236 11.365 10.211 11.305Z" fill="currentColor"/>
<path d="M18.323 15.118L12.6 10.276C12.31 9.484 11.873 8.766 11.318 8.152L12.756 3.962C13.203 2.659 12.507 1.234 11.203 0.786C10.573 0.568 9.894 0.611 9.294 0.904C9.074 1.011 8.874 1.148 8.698 1.31C8.274 0.53 7.448 0 6.5 0C5.552 0 4.726 0.53 4.302 1.31C4.126 1.148 3.926 1.011 3.706 0.904C3.106 0.611 2.428 0.57 1.796 0.786C0.492 1.234 -0.204 2.66 0.244 3.962L1.682 8.153C0.64 9.306 0 10.828 0 12.5V22C0 23.103 0.897 24 2 24C2.597 24 3.133 23.737 3.5 23.321C3.867 23.737 4.403 24 5 24C5.597 24 6.133 23.737 6.5 23.321C6.867 23.737 7.403 24 8 24C8.597 24 9.133 23.737 9.5 23.321C9.867 23.737 10.403 24 11 24C12.103 24 13 23.103 13 22V20H14C14.858 20 15.282 19.605 15.487 19.273C16.042 18.375 15.609 16.892 15.261 16H18C18.21 16 18.397 15.869 18.47 15.672C18.543 15.475 18.483 15.254 18.323 15.118ZM2.121 1.731C2.902 1.462 3.758 1.88 4.027 2.663C4.106 2.894 4.342 3.033 4.582 2.994C4.823 2.953 5 2.744 5 2.5C5 1.673 5.673 1 6.5 1C7.327 1 8 1.673 8 2.5C8 2.744 8.177 2.953 8.417 2.993C8.661 3.034 8.893 2.894 8.972 2.662C9.102 2.283 9.372 1.977 9.732 1.802C10.092 1.625 10.499 1.6 10.877 1.731C11.66 2 12.079 2.855 11.811 3.638L10.519 7.402C9.412 6.527 8.017 6 6.5 6C4.983 6 3.589 6.527 2.482 7.401L1.189 3.637C0.921 2.855 1.339 2 2.121 1.731ZM12 22C12 22.552 11.552 23 11 23C10.448 23 10 22.552 10 22C10 21.724 9.776 21.5 9.5 21.5C9.224 21.5 9 21.724 9 22C9 22.552 8.551 23 8 23C7.449 23 7 22.552 7 22C7 21.724 6.776 21.5 6.5 21.5C6.224 21.5 6 21.724 6 22C6 22.552 5.551 23 5 23C4.449 23 4 22.552 4 22C4 21.724 3.776 21.5 3.5 21.5C3.224 21.5 3 21.724 3 22C3 22.552 2.551 23 2 23C1.449 23 1 22.552 1 22V12.5C1 9.467 3.467 7 6.5 7C9.533 7 12 9.467 12 12.5V22ZM14.637 18.748C14.594 18.817 14.48 19 14 19H13V16H14.18C14.59 16.921 14.956 18.231 14.637 18.748ZM13 15V12.5C13 12.297 12.988 12.098 12.97 11.9L16.635 15H13Z" fill="currentColor"/>
</g>
</g>
</svg>
