<svg width="48" height="48" viewBox="0 0 48 48" fill="none" xmlns="http://www.w3.org/2000/svg">
<rect width="48" height="48" rx="12" fill="url(#paint0_linear)"/>
<rect width="48" height="48" fill="#EC4969"/>
<path d="M12.782 17.424C12.782 15.048 11.242 13.904 8.69 13.222L6.358 12.606C4.928 12.232 4.07 11.814 4.07 10.56C4.07 9.812 4.598 8.69 6.732 8.69C8.756 8.69 10.252 9.944 10.956 10.626L12.584 8.624C11.77 7.832 9.834 6.336 6.798 6.336C3.102 6.336 1.408 8.602 1.408 10.714C1.408 13.618 3.63 14.542 5.5 15.026L7.524 15.554C9.174 15.994 10.076 16.39 10.076 17.644C10.076 18.656 9.438 19.954 7.194 19.954C4.73 19.954 2.992 18.392 2.354 17.71L0.726 19.734C1.848 20.856 4.048 22.264 7.26 22.264C10.912 22.264 12.782 19.954 12.782 17.424ZM16.7179 22.264C17.6639 22.264 18.4339 21.538 18.4339 20.592C18.4339 19.646 17.6639 18.92 16.7179 18.92C15.7719 18.92 15.0019 19.646 15.0019 20.592C15.0019 21.538 15.7719 22.264 16.7179 22.264Z" transform="translate(21 17)" fill="white"/>
<defs>
<linearGradient id="paint0_linear" x2="1" gradientUnits="userSpaceOnUse" gradientTransform="translate(48) scale(48) rotate(90)">
<stop stop-color="#30333B"/>
<stop offset="1" stop-color="#2B2C34"/>
</linearGradient>
</defs>
</svg>
