<svg id="target" xmlns="http://www.w3.org/2000/svg" viewBox="0 0 24 24"><title>analytics-graph-bar</title><path d="M1.25,21h3.5A.249.249,0,0,0,5,20.75v-2a1,1,0,0,0-1-1H2a1,1,0,0,0-1,1v2A.249.249,0,0,0,1.25,21Z"/><path d="M8,12.75a1,1,0,0,0-1,1v7a.249.249,0,0,0,.25.25h3.5a.249.249,0,0,0,.25-.25v-7a1,1,0,0,0-1-1Z"/><path d="M14,14.75a1,1,0,0,0-1,1v5a.249.249,0,0,0,.25.25h3.5a.249.249,0,0,0,.25-.25v-5a1,1,0,0,0-1-1Z"/><path d="M20,7.75a1,1,0,0,0-1,1v12a.249.249,0,0,0,.25.25h3.5a.249.249,0,0,0,.25-.25v-12a1,1,0,0,0-1-1Z"/><path d="M21-.25a2,2,0,0,0-1.946,2.46A.254.254,0,0,1,19,2.431l-3.258,3.8a.253.253,0,0,1-.252.08A1.935,1.935,0,0,0,15,6.25a2,2,0,0,0-1.417.591.247.247,0,0,1-.256.06l-2.178-.725a.252.252,0,0,1-.169-.2A2,2,0,0,0,7,6.25a1.971,1.971,0,0,0,.055.464.25.25,0,0,1-.084.25l-2.9,2.42a.255.255,0,0,1-.262.037A2,2,0,1,0,5,11.25a2.023,2.023,0,0,0-.054-.463.25.25,0,0,1,.083-.25l2.9-2.42a.25.25,0,0,1,.261-.037,2,2,0,0,0,2.224-.421.25.25,0,0,1,.257-.06l2.177.724a.253.253,0,0,1,.168.2A2,2,0,0,0,17,8.25a1.976,1.976,0,0,0-.16-.781.251.251,0,0,1,.041-.261l3.044-3.552a.25.25,0,0,1,.288-.067A2,2,0,1,0,21-.25Z"/><path d="M1,24.25H23a1,1,0,0,0,0-2H1a1,1,0,0,0,0,2Z"/></svg>
