<svg id="target" xmlns="http://www.w3.org/2000/svg" viewBox="0 0 24 24"><title>business-climb-top</title><path d="M22.256,2.312a.5.5,0,0,0-.391-.812H16.131a.249.249,0,0,1-.245-.2,1,1,0,0,0-1.98.2V9.928a.255.255,0,0,1-.039.134l-2.681,4.257a.252.252,0,0,0,.05.325l1.452,1.227a.251.251,0,0,0,.338-.014l.642-.642a1.752,1.752,0,0,1,2.475,0l.643.641a.248.248,0,0,0,.337.015l1.452-1.227a.252.252,0,0,0,.05-.325l-2.681-4.257a.254.254,0,0,1-.038-.134V6.75a.25.25,0,0,1,.25-.25h5.709a.5.5,0,0,0,.391-.812l-1.1-1.376a.5.5,0,0,1,0-.624Z"/><path d="M.478,23.2a.575.575,0,0,0,.506.3h21.61a1,1,0,0,0,.847-1.532L19.7,16.029a.248.248,0,0,0-.173-.114.251.251,0,0,0-.2.057l-1.236,1.045a1.758,1.758,0,0,1-2.367-.1l-.643-.641a.25.25,0,0,0-.353,0l-.643.643a1.76,1.76,0,0,1-2.367.1l-1.236-1.045a.249.249,0,0,0-.373.057L8.374,18.785a.25.25,0,0,1-.423,0L6.006,15.7a.729.729,0,0,0-1.156,0L.5,22.614A.575.575,0,0,0,.478,23.2Z"/></svg>
