<svg id="target" width="24" height="24" viewBox="0 0 24 24" fill="none" xmlns="http://www.w3.org/2000/svg">
<g id="cup">

<path id="Vector" d="M17.25 8.61976H15.707C15.425 6.08576 13.735 3.97676 11.44 3.08276L11.634 2.08776C11.677 1.89276 11.794 1.72576 11.963 1.61776C12.131 1.51176 12.332 1.47576 12.576 1.53076L16.296 2.59076C16.697 2.70676 17.108 2.47276 17.223 2.07476C17.336 1.67676 17.105 1.26176 16.706 1.14776L12.99 0.0897586C12.975 0.0857586 12.87 0.0587586 12.854 0.0547586C12.268 -0.0762414 11.665 0.0297586 11.158 0.351759C10.65 0.674759 10.3 1.17476 10.165 1.78076L9.986 2.69976C9.663 2.65276 9.336 2.61976 9.001 2.61976C5.533 2.61976 2.67 5.24976 2.295 8.61976H0.75C0.336 8.61976 0 8.95576 0 9.36976C0 9.78376 0.336 10.1198 0.75 10.1198H2.365L4.511 22.9928C4.571 23.3548 4.884 23.6198 5.251 23.6198H13.501C13.883 23.6198 14.204 23.3328 14.246 22.9528L15.671 10.1198H17.25C17.664 10.1198 18 9.78376 18 9.36976C18 8.95576 17.664 8.61976 17.25 8.61976ZM13.662 14.6198H9.187L10.065 10.1198H14.161L13.662 14.6198ZM4.635 14.6198L3.885 10.1198H8.537L7.659 14.6198H4.635ZM14.175 8.61976H10.359L11.146 4.58876C12.751 5.31276 13.914 6.81876 14.175 8.61976ZM9.001 4.11976C9.239 4.11976 9.466 4.15876 9.695 4.18976L8.83 8.61976H3.827C4.195 6.08176 6.363 4.11976 9.001 4.11976ZM5.885 22.1198L4.885 16.1198H13.495L12.828 22.1198H5.885Z" transform="translate(3 0.190125)" fill="currentColor"/>
</g>
</svg>
