<svg id="target" width="24" height="24" viewBox="0 0 24 24" fill="none" xmlns="http://www.w3.org/2000/svg">
<g id="frame">

<g id="Vector" transform="translate(1.5)">
<path d="M18.75 6H15.75C15.336 6 15 6.336 15 6.75C15 7.164 15.336 7.5 15.75 7.5H18.75C19.163 7.5 19.5 7.836 19.5 8.25V15.75H1.5V8.25C1.5 7.836 1.836 7.5 2.25 7.5H5.25C5.664 7.5 6 7.164 6 6.75C6 6.336 5.664 6 5.25 6H2.25C1.009 6 0 7.009 0 8.25V18C0 19.24 1.009 20.25 2.25 20.25H9.75V22.5H6.75C6.336 22.5 6 22.836 6 23.25C6 23.664 6.336 24 6.75 24H14.25C14.664 24 15 23.664 15 23.25C15 22.836 14.664 22.5 14.25 22.5H11.25V20.25H18.75C19.99 20.25 21 19.24 21 18V8.25C21 7.009 19.99 6 18.75 6ZM18.75 18.75H2.25C1.836 18.75 1.5 18.413 1.5 18V17.25H19.5V18C19.5 18.413 19.163 18.75 18.75 18.75Z" fill="currentColor"/>
<path d="M9.96999 13.28C10.039 13.349 10.122 13.404 10.214 13.442C10.306 13.48 10.403 13.5 10.501 13.5C10.599 13.5 10.696 13.48 10.788 13.442C10.88 13.404 10.963 13.349 11.032 13.28L14.032 10.28C14.325 9.987 14.325 9.512 14.032 9.219C13.739 8.926 13.264 8.926 12.971 9.219L11.251 10.939V0.75C11.251 0.336 10.915 0 10.501 0C10.087 0 9.75099 0.336 9.75099 0.75V10.939L8.03099 9.219C7.73799 8.926 7.26299 8.926 6.96999 9.219C6.67699 9.512 6.67699 9.987 6.96999 10.28L9.96999 13.28Z" fill="currentColor"/>
</g>
</g>
</svg>
