<svg id="target" width="24" height="24" viewBox="0 0 24 24" fill="none" xmlns="http://www.w3.org/2000/svg">
<g id="grenade">

<path id="Vector" d="M15.856 3.749C16.191 5.04 17.356 6 18.75 6C20.404 6 21.75 4.654 21.75 3C21.75 1.346 20.404 0 18.75 0C17.357 0 16.193 0.959 15.857 2.249H5.25C5.075 2.249 4.905 2.311 4.77 2.423C4.575 2.585 0 6.496 0 14.999C0 15.413 0.336 15.749 0.75 15.749C1.164 15.749 1.5 15.413 1.5 14.999C1.5 8.183 4.73 4.556 5.545 3.749H8.25V6.75H7.74C6.985 6.73 6.285 7.104 5.866 7.73C4.418 9.895 3.686 12.415 3.75 14.981C3.686 17.585 4.418 20.104 5.866 22.268C6.278 22.885 6.961 23.25 7.688 23.25C7.701 23.25 7.714 23.25 7.727 23.25H14.77C15.513 23.227 16.22 22.894 16.635 22.269C18.084 20.105 18.817 17.585 18.752 15.019C18.816 12.415 18.084 9.895 16.636 7.733C16.219 7.105 15.522 6.763 14.776 6.751H14.25V3.749H15.856ZM17.253 15.019C17.272 15.774 17.207 16.52 17.076 17.25H5.429C5.297 16.51 5.231 15.753 5.25 14.981C5.231 14.226 5.296 13.48 5.427 12.75H17.075C17.207 13.49 17.272 14.247 17.253 15.019ZM15.388 21.437C15.257 21.634 15.039 21.75 14.803 21.75C14.792 21.751 14.786 21.751 14.777 21.75H7.714C7.456 21.745 7.248 21.636 7.113 21.435C6.551 20.596 6.12 19.694 5.809 18.75H16.696C16.384 19.692 15.951 20.596 15.388 21.437ZM14.79 8.25C14.989 8.261 15.254 8.362 15.39 8.565C15.952 9.404 16.384 10.306 16.695 11.25H5.808C6.119 10.309 6.551 9.405 7.114 8.564C7.248 8.363 7.478 8.254 7.727 8.25H14.79ZM9.75 6.75V3.75H12.75V6.75H9.75ZM18.75 1.5C19.577 1.5 20.25 2.173 20.25 3C20.25 3.827 19.577 4.5 18.75 4.5C17.923 4.5 17.25 3.827 17.25 3C17.25 2.173 17.923 1.5 18.75 1.5Z" transform="translate(1.125 0.375)" fill="currentColor"/>
</g>
</svg>
