<svg id="target" width="24" height="24" viewBox="0 0 24 24" fill="none" xmlns="http://www.w3.org/2000/svg">
<path d="M5.50512 4.96159C5.19893 4.68263 4.72457 4.70469 4.4456 5.01087C4.16663 5.31706 4.1887 5.79142 4.49488 6.07039L5.50512 4.96159ZM10.5051 6.07039C10.8113 5.79142 10.8334 5.31706 10.5544 5.01087C10.2754 4.70469 9.80107 4.68263 9.49488 4.96159L10.5051 6.07039ZM6.75 2.5C6.75 2.08579 6.41421 1.75 6 1.75C5.58579 1.75 5.25 2.08579 5.25 2.5H6.75ZM5.25 3.5C5.25 3.91421 5.58579 4.25 6 4.25C6.41421 4.25 6.75 3.91421 6.75 3.5H5.25ZM9.75 2.5C9.75 2.08579 9.41421 1.75 9 1.75C8.58579 1.75 8.25 2.08579 8.25 2.5H9.75ZM8.25 3.5C8.25 3.91421 8.58579 4.25 9 4.25C9.41421 4.25 9.75 3.91421 9.75 3.5H8.25ZM0.750671 6.5C0.750671 6.91421 1.08646 7.25 1.50067 7.25C1.91488 7.25 2.25067 6.91421 2.25067 6.5H0.750671ZM12.7507 6.5C12.7507 6.91421 13.0865 7.25 13.5007 7.25C13.9149 7.25 14.2507 6.91421 14.2507 6.5H12.7507ZM0 8.5V7.75C-0.414214 7.75 -0.75 8.08579 -0.75 8.5L0 8.5ZM2.50067 11L2.50067 10.25L2.50047 10.25L2.50067 11ZM15.0007 8.5H15.7507C15.7507 8.08579 15.4149 7.75 15.0007 7.75V8.5ZM4.49488 6.07039C6.19787 7.622 8.80213 7.622 10.5051 6.07039L9.49488 4.96159C8.36439 5.9916 6.63561 5.9916 5.50512 4.96159L4.49488 6.07039ZM5.25 2.5V3.5H6.75V2.5H5.25ZM8.25 2.5V3.5H9.75V2.5H8.25ZM2.25067 6.5V1H0.750671V6.5H2.25067ZM2.25067 1C2.25067 0.861929 2.3626 0.75 2.50067 0.75V-0.75C1.53417 -0.75 0.750671 0.0335017 0.750671 1H2.25067ZM2.50067 0.75H12.5007V-0.75H2.50067V0.75ZM12.5007 0.75C12.6387 0.75 12.7507 0.861929 12.7507 1H14.2507C14.2507 0.0335017 13.4672 -0.75 12.5007 -0.75V0.75ZM12.7507 1V6.5H14.2507V1H12.7507ZM-0.75 8.5C-0.75 9.3621 -0.407471 10.1889 0.202209 10.7984L1.26273 9.7376C0.934438 9.4094 0.75 8.96421 0.75 8.5L-0.75 8.5ZM0.202209 10.7984C0.81189 11.4079 1.63876 11.7502 2.50087 11.75L2.50047 10.25C2.03626 10.2501 1.59102 10.0658 1.26273 9.7376L0.202209 10.7984ZM2.50067 11.75H12.5007V10.25H2.50067V11.75ZM12.5007 11.75C14.2956 11.75 15.7507 10.2949 15.7507 8.5H14.2507C14.2507 9.4665 13.4672 10.25 12.5007 10.25V11.75ZM15.0007 7.75H0V9.25H15.0007V7.75Z" transform="translate(4.49933 6.5)" fill="currentColor"/>
</svg>
