<svg id="target" width="25" height="24" viewBox="0 0 25 24" fill="none" xmlns="http://www.w3.org/2000/svg">
<g id="mario">

<g id="Vector" transform="translate(1.24674 0.00195312)">
<path d="M6.75341 14.2501C7.16741 14.2501 7.50341 13.9141 7.50341 13.5001V12.7501C7.50341 12.3361 7.16741 12.0001 6.75341 12.0001C6.33941 12.0001 6.00341 12.3361 6.00341 12.7501V13.5001C6.00341 13.9141 6.33941 14.2501 6.75341 14.2501Z" fill="currentColor"/>
<path d="M15.7534 14.2501C16.1674 14.2501 16.5034 13.9141 16.5034 13.5001V12.7501C16.5034 12.3361 16.1674 12.0001 15.7534 12.0001C15.3394 12.0001 15.0034 12.3361 15.0034 12.7501V13.5001C15.0034 13.9141 15.3394 14.2501 15.7534 14.2501Z" fill="currentColor"/>
<path d="M8.82142 4.47809C9.22842 4.57809 9.63142 4.33309 9.73142 3.93309L10.1604 2.21809L10.7234 2.78109C11.0164 3.07409 11.4914 3.07409 11.7844 2.78109L12.3474 2.21809L12.7764 3.93309C12.8614 4.27309 13.1674 4.50109 13.5034 4.50109C13.5644 4.50109 13.6254 4.49409 13.6864 4.47909C14.0884 4.37809 14.3324 3.97109 14.2324 3.56909L13.4824 0.569091C13.4174 0.307091 13.2154 0.100091 12.9554 0.0280911C12.6924 -0.0449089 12.4154 0.0300911 12.2254 0.220091L11.2554 1.19009L10.2854 0.220091C10.0944 0.0290911 9.81442 -0.0459089 9.55542 0.0280911C9.29542 0.100091 9.09342 0.307091 9.02842 0.569091L8.27842 3.56909C8.17542 3.97009 8.41942 4.37709 8.82142 4.47809Z" fill="currentColor"/>
<path d="M11.1844 15.0531C9.16541 15.0541 7.48341 15.9711 6.65841 17.5141C5.92441 18.2941 5.94041 18.9151 6.08941 19.3051C6.32041 19.9091 6.95541 20.1581 7.32341 20.1781C7.60241 20.1941 7.87041 20.2011 8.12741 20.2011C9.48141 20.2011 10.5284 19.9851 11.2544 19.5561C12.1164 20.0651 13.4324 20.2781 15.1794 20.1771C15.5374 20.1591 16.1924 19.9061 16.4264 19.2981C16.6404 18.7431 16.4474 18.1431 15.8504 17.5121C15.0394 16.0151 13.2244 15.0531 11.1844 15.0531ZM11.7844 18.0901C11.6434 17.9491 11.4534 17.8701 11.2544 17.8701C11.0554 17.8701 10.8644 17.9491 10.7244 18.0901C10.2834 18.5301 9.12941 18.7451 7.62541 18.6871C7.66841 18.6321 7.72641 18.5661 7.80441 18.4881C7.86141 18.4311 7.90841 18.3651 7.94541 18.2931C8.48941 17.2041 9.70041 16.5551 11.1854 16.5541C12.6864 16.5541 14.0454 17.2531 14.5654 18.2941C14.6014 18.3651 14.6484 18.4321 14.7064 18.4881C14.7854 18.5671 14.8454 18.6351 14.8894 18.6901C13.3644 18.7541 12.2224 18.5281 11.7844 18.0901Z" fill="currentColor"/>
<path d="M21.6834 11.7701C22.2414 10.6771 22.5344 9.47508 22.5044 8.25008C22.5044 5.62808 19.7264 2.50008 16.0414 0.972077C15.6604 0.814077 15.2204 0.995077 15.0624 1.37808C14.9034 1.76008 15.0844 2.19908 15.4674 2.35808C18.8874 3.77608 21.0044 6.52108 21.0044 8.26808C21.0124 8.59808 20.9874 8.92408 20.9424 9.24508C20.3414 6.86208 15.4674 6.00008 11.2544 6.00008C7.00441 6.00008 2.08741 6.87908 1.55741 9.31008C1.51541 8.96108 1.49241 8.60808 1.50441 8.25008C1.50441 6.98408 3.71741 4.03608 7.05441 2.47508C7.42941 2.30008 7.59141 1.85408 7.41541 1.47808C7.23941 1.10208 6.79441 0.939077 6.41841 1.11708C2.63841 2.88408 0.00441421 6.29508 0.00441421 8.22508C-0.0375858 9.47808 0.221414 10.7161 0.726414 11.8581C0.284414 12.2681 0.00441421 12.8501 0.00441421 13.5001C0.00441421 14.5191 0.684414 15.3811 1.61341 15.6571C2.30641 20.4391 6.43541 23.9961 11.2484 23.9961C11.5154 23.9961 11.7854 23.9841 12.0564 23.9621C16.6214 23.5851 20.2504 20.1351 20.8964 15.6561C21.8254 15.3801 22.5034 14.5171 22.5034 13.5001C22.5044 12.8031 22.1824 12.1831 21.6834 11.7701ZM3.00441 9.75008C3.00441 8.66408 6.31941 7.50008 11.2544 7.50008C13.5094 7.50008 15.6864 7.76208 17.2294 8.21908C18.6544 8.64108 19.5044 9.21308 19.5044 9.75008V9.83708C17.9504 9.28108 15.1934 9.00008 11.2544 9.00008C7.31541 9.00008 4.55841 9.28108 3.00441 9.83708V9.75008ZM20.3074 14.2481C19.8434 14.1891 19.5034 14.5141 19.4704 14.9311C19.1374 18.9641 15.9674 22.1341 11.9334 22.4681C7.39641 22.8271 3.41341 19.4591 3.03941 14.9311C3.00741 14.5391 2.67941 14.2431 2.29241 14.2431C2.26241 14.2441 2.23341 14.2451 2.19941 14.2491C1.81241 14.2211 1.50441 13.8961 1.50441 13.5001C1.50441 13.0871 1.84041 12.7501 2.25441 12.7501C2.66841 12.7501 3.00441 12.4141 3.00441 12.0001V11.4271C3.59841 11.0341 6.46941 10.5001 11.2544 10.5001C16.0394 10.5001 18.9094 11.0341 19.5044 11.4271V12.0001C19.5044 12.4141 19.8404 12.7501 20.2544 12.7501C20.6674 12.7501 21.0044 13.0871 21.0044 13.5001C21.0044 13.8961 20.6964 14.2211 20.3074 14.2481Z" fill="currentColor"/>
</g>
</g>
</svg>
