<svg width="25" height="26" viewBox="0 0 25 26" fill="none" xmlns="http://www.w3.org/2000/svg">
<g id="rooster">

<g id="Vector" transform="translate(2 0.996765)">
<path d="M18.943 15.5455L20.068 14.9025C20.347 14.7415 20.572 14.4895 20.699 14.1935C20.856 13.8255 20.862 13.4185 20.714 13.0465C20.565 12.6735 20.28 12.3815 19.912 12.2245L16.214 10.6395C15.851 9.2745 15.149 8.0485 14.2 7.0575C14.526 6.5515 15.751 4.5565 15.749 3.0625C15.865 1.4955 14.686 0.125496 13.119 0.00849578C12.979 -0.00150422 12.835 -0.00250422 12.75 0.00649578C11.85 0.00649578 11.051 0.413496 10.501 1.0435C9.951 0.413496 9.151 0.00649578 8.251 0.00649578C7.357 0.00649578 6.554 0.399496 6.003 1.0215C5.46 0.400496 4.671 0.00849578 3.809 0.00849578C3.808 0.00849578 3.807 0.00849578 3.805 0.00849578C2.24 -0.112504 0.869 1.0735 0.753 2.6395C0.743 2.7805 0.743 2.9225 0.751 3.0065C0.751 4.5515 1.975 6.5505 2.301 7.0555C0.879 8.5385 0 10.5455 0 12.7565V21.3815C0 22.8285 1.178 24.0065 2.625 24.0065C3.359 24.0065 4.023 23.7035 4.5 23.2165C4.977 23.7035 5.641 24.0065 6.375 24.0065C7.109 24.0065 7.773 23.7035 8.25 23.2165C8.727 23.7035 9.391 24.0065 10.125 24.0065C10.859 24.0065 11.523 23.7035 12 23.2165C12.477 23.7035 13.142 24.0065 13.875 24.0065C15.009 24.0065 15.969 23.2795 16.335 22.2695C16.767 22.4455 17.235 22.5395 17.709 22.5395C18.183 22.5395 18.662 22.4485 19.116 22.2615C20.296 21.7725 21 20.7425 21 19.5065C21 17.6055 19.7 16.2025 18.943 15.5455ZM19.321 13.6025L16.5 15.2145V12.7565C16.5 12.6315 16.487 12.5095 16.481 12.3855L19.321 13.6025ZM2.249 2.7515C2.304 2.0085 2.95 1.4585 3.751 1.5065C4.578 1.5065 5.251 2.1795 5.251 3.0065C5.251 3.4205 5.587 3.7565 6.001 3.7565C6.415 3.7565 6.751 3.4205 6.751 3.0065C6.751 2.1795 7.424 1.5065 8.251 1.5065C9.078 1.5065 9.751 2.1795 9.751 3.0065C9.751 3.4205 10.087 3.7565 10.501 3.7565C10.915 3.7565 11.251 3.4205 11.251 3.0065C11.251 2.1795 11.924 1.5065 12.806 1.5045C12.874 1.4995 12.941 1.4995 13.007 1.5045C13.749 1.5595 14.309 2.2085 14.251 3.0065C14.251 3.9115 13.5 5.3305 13.053 6.0625C11.698 5.0875 10.043 4.5065 8.25 4.5065C6.458 4.5065 4.803 5.0875 3.448 6.0615C3.001 5.3285 2.251 3.9045 2.249 2.9495C2.244 2.8835 2.244 2.8185 2.249 2.7515ZM15 21.3815C15 22.0015 14.495 22.5065 13.875 22.5065C13.255 22.5065 12.75 22.0015 12.75 21.3815C12.75 20.9675 12.414 20.6315 12 20.6315C11.586 20.6315 11.25 20.9675 11.25 21.3815C11.25 22.0015 10.745 22.5065 10.125 22.5065C9.505 22.5065 9 22.0015 9 21.3815C9 20.9675 8.664 20.6315 8.25 20.6315C7.836 20.6315 7.5 20.9675 7.5 21.3815C7.5 22.0015 6.995 22.5065 6.375 22.5065C5.755 22.5065 5.25 22.0015 5.25 21.3815C5.25 20.9675 4.914 20.6315 4.5 20.6315C4.086 20.6315 3.75 20.9675 3.75 21.3815C3.75 22.0015 3.245 22.5065 2.625 22.5065C2.005 22.5065 1.5 22.0015 1.5 21.3815V12.7565C1.5 9.0345 4.528 6.0065 8.25 6.0065C11.972 6.0065 15 9.0345 15 12.7565V21.3815ZM18.542 20.8745C17.855 21.1605 17.062 21.0465 16.5 20.6335V16.9415L17.537 16.3485L17.582 16.3785C17.602 16.3915 19.5 17.6935 19.5 19.5055C19.5 20.3525 18.899 20.7275 18.542 20.8745Z" fill="currentColor"/>
<path d="M12.376 10.5065C11.754 10.5075 11.25 11.0115 11.251 11.6325C11.252 12.2535 11.756 12.7575 12.377 12.7565C12.998 12.7555 13.501 12.2525 13.501 11.6315C13.501 11.0105 12.997 10.5065 12.376 10.5065Z" fill="currentColor"/>
</g>
</g>
</svg>
