<svg id="target" width="24" height="24" viewBox="0 0 24 24" fill="none" xmlns="http://www.w3.org/2000/svg">
<path d="M15.3797 6.187C15.6726 5.8941 15.6726 5.41923 15.3797 5.12634C15.0868 4.83344 14.6119 4.83344 14.319 5.12634L15.3797 6.187ZM13.0814 7.42467L13.6045 7.96223L13.6117 7.955L13.0814 7.42467ZM7.42536 1.768L6.89489 1.23772L6.88792 1.24488L7.42536 1.768ZM9.72313 0.53023C10.016 0.237282 10.0159 -0.237592 9.72293 -0.53043C9.42998 -0.823268 8.9551 -0.823179 8.66227 -0.53023L9.72313 0.53023ZM5.12644 14.3189C4.83349 14.6117 4.8334 15.0866 5.12624 15.3795C5.41907 15.6725 5.89395 15.6726 6.1869 15.3797L5.12644 14.3189ZM7.42533 13.0813L7.95556 13.6117L7.95569 13.6116L7.42533 13.0813ZM-0.53033 8.66231C-0.823223 8.9552 -0.823223 9.43008 -0.53033 9.72297C-0.237437 10.0159 0.237437 10.0159 0.53033 9.72297L-0.53033 8.66231ZM13.9657 6.54096C14.2585 6.83388 14.7334 6.8339 15.0263 6.54103C15.3192 6.24815 15.3193 5.77328 15.0264 5.48037L13.9657 6.54096ZM9.36972 -0.176966C9.07684 -0.469877 8.60197 -0.469905 8.30906 -0.177029C8.01615 0.115847 8.01612 0.590721 8.30899 0.883631L9.36972 -0.176966ZM8.66235 6.89433C8.95524 7.18723 9.43011 7.18723 9.72301 6.89433C10.0159 6.60144 10.0159 6.12657 9.72301 5.83367L8.66235 6.89433ZM6.91967 3.03034C6.62678 2.73745 6.15191 2.73745 5.85901 3.03034C5.56612 3.32323 5.56612 3.79811 5.85901 4.091L6.91967 3.03034ZM0.884365 8.30839C0.591489 8.01547 0.116616 8.01545 -0.176295 8.30832C-0.469205 8.6012 -0.469233 9.07607 -0.176357 9.36898L0.884365 8.30839ZM5.48031 15.0263C5.77319 15.3192 6.24806 15.3193 6.54097 15.0264C6.83388 14.7335 6.83391 14.2586 6.54103 13.9657L5.48031 15.0263ZM6.18694 7.95496C5.89402 7.6621 5.41914 7.66216 5.12628 7.95508C4.83343 8.24801 4.83348 8.72289 5.12641 9.01574L6.18694 7.95496ZM7.93041 11.8191C8.22334 12.1119 8.69821 12.1119 8.99107 11.819C9.28393 11.526 9.28387 11.0512 8.99094 10.7583L7.93041 11.8191ZM14.319 5.12634L12.551 6.89434L13.6117 7.955L15.3797 6.187L14.319 5.12634ZM12.5583 6.88716C11.2843 8.12695 9.25048 8.11303 7.99352 6.85591L6.93279 7.91651C8.7699 9.75383 11.7423 9.77418 13.6044 7.96218L12.5583 6.88716ZM7.99352 6.85591C6.73655 5.5988 6.72287 3.56503 7.96281 2.29112L6.88792 1.24488C5.07569 3.10675 5.09569 6.07919 6.93279 7.91651L7.99352 6.85591ZM7.95579 2.29823L9.72313 0.53023L8.66227 -0.53023L6.89493 1.23777L7.95579 2.29823ZM6.1869 15.3797L7.95556 13.6117L6.8951 12.5509L5.12644 14.3189L6.1869 15.3797ZM7.95569 13.6116C9.81062 11.7565 9.81044 8.74886 7.9553 6.89394L6.8947 7.95467C8.16402 9.22384 8.16414 11.2817 6.89497 12.551L7.95569 13.6116ZM7.9553 6.89394C6.10016 5.03902 3.09256 5.0392 1.23764 6.89434L2.29836 7.95494C3.56753 6.68562 5.62538 6.6855 6.8947 7.95467L7.9553 6.89394ZM1.23767 6.89431L-0.53033 8.66231L0.53033 9.72297L2.29833 7.95497L1.23767 6.89431ZM15.0264 5.48037L9.36972 -0.176966L8.30899 0.883631L13.9657 6.54096L15.0264 5.48037ZM13.6117 6.89437L7.95572 1.2377L6.895 2.2983L12.551 7.95497L13.6117 6.89437ZM9.72301 5.83367L6.91967 3.03034L5.85901 4.091L8.66235 6.89433L9.72301 5.83367ZM-0.176357 9.36898L5.48031 15.0263L6.54103 13.9657L0.884365 8.30839L-0.176357 9.36898ZM1.2377 7.955L6.89503 13.6117L7.95563 12.5509L2.2983 6.89428L1.2377 7.955ZM5.12641 9.01574L7.93041 11.8191L8.99094 10.7583L6.18694 7.95496L5.12641 9.01574Z" transform="translate(4.57465 4.57532)" fill="currentcolor"/>
</svg>
