<svg id="target" width="25" height="24" viewBox="0 0 25 24" fill="none" xmlns="http://www.w3.org/2000/svg">
<g id="video">
<rect width="24" height="24" fill="white" transform="translate(0.501747)"/>
<g id="Vector" transform="translate(0.501747)">
<path d="M21.75 0H2.25C1.009 0 0 1.009 0 2.25V21.75C0 22.99 1.009 24 2.25 24H21.75C22.99 24 24 22.99 24 21.75V2.25C24 1.009 22.99 0 21.75 0ZM22.5 21.75C22.5 22.163 22.163 22.5 21.75 22.5H2.25C1.836 22.5 1.5 22.163 1.5 21.75V2.25C1.5 1.836 1.836 1.5 2.25 1.5H21.75C22.163 1.5 22.5 1.836 22.5 2.25V21.75Z" fill="currentColor"/>
<path d="M16.364 10.564L10.572 7.668C10.352 7.559 10.107 7.501 9.859 7.5H9.857C9.429 7.5 9.025 7.667 8.722 7.969C8.419 8.272 8.251 8.676 8.251 9.106V14.897C8.252 15.142 8.31 15.388 8.418 15.608C8.698 16.172 9.269 16.5 9.86 16.5C10.099 16.5 10.342 16.446 10.571 16.333L16.362 13.436C16.675 13.28 16.924 13.032 17.081 12.717C17.478 11.925 17.155 10.96 16.364 10.564ZM15.693 12.094L9.905 14.988C9.852 15.015 9.788 14.993 9.751 14.893V9.107C9.751 9.053 9.791 9.009 9.876 9.009C9.885 9.009 9.894 9.009 9.904 9.01L15.693 11.905C15.745 11.932 15.766 11.995 15.693 12.094Z" fill="currentColor"/>
</g>
</g>
</svg>
