
<svg version="1.1" id="target" xmlns="http://www.w3.org/2000/svg" xmlns:xlink="http://www.w3.org/1999/xlink" x="0px" y="0px"
	 viewBox="0 0 24 24" style="enable-background:new 0 0 24 24;" xml:space="preserve">
<g>
	<title>people-man-graduate</title>
	<path d="M21.75,24C21.336,24,21,23.664,21,23.25c0-3.007-1.48-5.776-3.974-7.459l-4.566,3.551C12.33,19.444,12.166,19.5,12,19.5
		s-0.329-0.056-0.461-0.158l-4.566-3.551C4.48,17.474,3,20.243,3,23.25C3,23.664,2.664,24,2.25,24S1.5,23.664,1.5,23.25
		c0-3.648,1.945-7.09,5.076-8.987c0.037-0.027,0.078-0.051,0.121-0.07c1.606-0.944,3.44-1.443,5.303-1.443
		c1.864,0,3.697,0.499,5.303,1.443c0.042,0.02,0.082,0.043,0.119,0.069c3.132,1.897,5.077,5.339,5.077,8.988
		C22.5,23.664,22.164,24,21.75,24z M12,17.8l3.597-2.797c-1.136-0.5-2.343-0.752-3.597-0.752s-2.461,0.253-3.597,0.752L12,17.8z"/>
	<path d="M12,12c-3.308,0-6-2.692-6-6V1.5H3v6.75C3,8.664,2.664,9,2.25,9S1.5,8.664,1.5,8.25V1.5H0.75C0.336,1.5,0,1.164,0,0.75
		S0.336,0,0.75,0h22.5C23.664,0,24,0.336,24,0.75S23.664,1.5,23.25,1.5H18V6C18,9.308,15.308,12,12,12z M7.5,6
		c0,2.481,2.019,4.5,4.5,4.5c2.481,0,4.5-2.019,4.5-4.5H7.5z M16.5,4.5v-3h-9v3H16.5z"/>
</g>
</svg>
