
<svg version="1.1" id="target" xmlns="http://www.w3.org/2000/svg" xmlns:xlink="http://www.w3.org/1999/xlink" x="0px" y="0px"
	 viewBox="0 0 24 24" style="enable-background:new 0 0 24 24;" xml:space="preserve">
<g>
	<title>police-man-spy-2</title>
	<path d="M21.75,24c-0.296,0-0.565-0.175-0.685-0.445c-0.873-1.966-2.35-3.58-4.209-4.623l1.083,2.522
		c0.143,0.332,0.028,0.719-0.273,0.92l-2.25,1.5c-0.124,0.083-0.267,0.126-0.416,0.126c-0.251,0-0.485-0.125-0.624-0.334
		c-0.229-0.344-0.136-0.811,0.208-1.04l1.73-1.154l-1.009-2.348l-2.659,4.507c-0.009,0.014-0.02,0.031-0.032,0.046
		c-0.025,0.035-0.048,0.063-0.073,0.09c-0.004,0.004-0.022,0.023-0.026,0.027c-0.044,0.041-0.087,0.074-0.134,0.102
		c-0.01,0.006-0.021,0.011-0.032,0.017c-0.035,0.017-0.067,0.03-0.101,0.042c-0.005,0.003-0.027,0.012-0.05,0.018
		c-0.048,0.013-0.092,0.019-0.135,0.022c-0.021,0.003-0.045,0.005-0.062,0.005c-0.022,0-0.044-0.002-0.065-0.005
		c-0.044-0.004-0.087-0.009-0.128-0.021c-0.016-0.004-0.043-0.014-0.063-0.022c-0.033-0.012-0.066-0.025-0.098-0.042
		c-0.01-0.005-0.02-0.01-0.029-0.016c-0.045-0.026-0.09-0.06-0.131-0.1c-0.01-0.009-0.028-0.028-0.036-0.039
		c-0.021-0.022-0.045-0.052-0.068-0.085c-0.01-0.014-0.02-0.028-0.028-0.041l-2.659-4.507l-1.009,2.348l1.73,1.154
		c0.344,0.229,0.437,0.696,0.208,1.04C9.484,23.875,9.251,24,8.999,24c-0.148,0-0.292-0.044-0.416-0.126l-2.25-1.5
		c-0.301-0.201-0.416-0.588-0.273-0.92l1.08-2.514c-1.86,1.042-3.334,2.652-4.206,4.615c-0.12,0.271-0.389,0.445-0.686,0.445
		c-0.106,0-0.208-0.022-0.304-0.064c-0.378-0.168-0.549-0.612-0.381-0.99c1.274-2.868,3.71-5.105,6.686-6.141
		c0.058-0.029,0.12-0.051,0.184-0.065c1.159-0.382,2.363-0.575,3.578-0.575c1.229,0,2.445,0.199,3.613,0.591
		c0.014,0.003,0.043,0.013,0.074,0.026c0.34,0.117,0.646,0.236,0.937,0.365c2.589,1.151,4.649,3.21,5.799,5.799
		c0.167,0.378-0.003,0.822-0.381,0.99C21.957,23.978,21.855,24,21.75,24z M12,21.773l2.27-3.846
		c-0.74-0.174-1.497-0.262-2.258-0.262c-0.767,0-1.532,0.089-2.28,0.266L12,21.773z"/>
	<path d="M16.267,15.747c-1.624,0-3.099-0.511-3.851-1.335c-0.651-0.713-0.777-1.65-0.345-2.57c0.411-0.877,1.169-1.38,2.08-1.38
		c0.038,0,0.077,0.001,0.116,0.003c0.558,0.026,1.174,0.241,1.8,0.626c0.285-0.6,0.434-1.26,0.433-1.929
		c0-0.414,0.335-0.75,0.749-0.751c0.414,0,0.75,0.336,0.751,0.749c0.001,1.007-0.253,1.995-0.737,2.878
		c0.728,0.716,1.288,1.559,1.592,2.4c0.14,0.389-0.062,0.819-0.45,0.96C17.774,15.626,17.035,15.747,16.267,15.747z M14.147,11.963
		c-0.333,0-0.548,0.155-0.718,0.517c-0.178,0.378-0.149,0.654,0.095,0.921c0.465,0.509,1.556,0.851,2.716,0.851
		c0.286,0,0.569-0.021,0.838-0.062c-0.714-1.188-1.972-2.184-2.881-2.226L14.147,11.963z"/>
	<path d="M7.733,15.747c-0.768,0-1.507-0.121-2.138-0.35c-0.389-0.141-0.59-0.572-0.45-0.96c0.304-0.841,0.864-1.683,1.592-2.399
		C6.252,11.156,5.998,10.168,6,9.161c0-0.413,0.337-0.749,0.75-0.749c0.201,0,0.389,0.078,0.531,0.22
		C7.422,8.774,7.5,8.963,7.5,9.163c-0.001,0.67,0.148,1.329,0.433,1.929c0.626-0.385,1.242-0.601,1.8-0.626
		c0.04-0.002,0.081-0.003,0.121-0.003c0.921,0,1.658,0.49,2.075,1.38c0.432,0.919,0.306,1.856-0.345,2.569
		C10.832,15.236,9.357,15.747,7.733,15.747z M6.921,14.19c0.269,0.041,0.553,0.062,0.839,0.062c1.16,0,2.251-0.342,2.716-0.851
		c0.244-0.268,0.273-0.543,0.095-0.921c-0.214-0.456-0.479-0.517-0.711-0.517c-0.018,0-0.037,0-0.056,0.001
		C8.894,12.006,7.635,13.002,6.921,14.19z"/>
	<path d="M5.971,7.499H3c-0.414,0-0.75-0.336-0.75-0.75S2.586,5.999,3,5.999h2.46l1.489-4.462c0.19-0.57,0.591-1.032,1.129-1.301
		c0.316-0.158,0.654-0.238,1.004-0.238c0.242,0,0.482,0.039,0.714,0.117C9.95,0.166,10.1,0.235,10.24,0.319l1.374,0.825
		c0.117,0.07,0.25,0.107,0.386,0.107c0.135,0,0.269-0.037,0.386-0.107l1.374-0.825C14.109,0.11,14.508,0,14.914,0
		c0.789,0,1.529,0.419,1.933,1.093c0.083,0.139,0.152,0.288,0.204,0.443l1.489,4.464H21c0.414,0,0.75,0.336,0.75,0.75
		s-0.336,0.75-0.75,0.75H6.029C6.019,7.5,6.009,7.501,6,7.501C5.99,7.501,5.981,7.5,5.971,7.499z M16.959,5.999l-1.33-3.988
		c-0.017-0.051-0.04-0.101-0.068-0.147c-0.137-0.229-0.378-0.365-0.646-0.365c-0.135,0-0.268,0.037-0.384,0.106L13.158,2.43
		C12.808,2.641,12.407,2.752,12,2.752c-0.407,0-0.808-0.111-1.158-0.321L9.468,1.605C9.422,1.578,9.372,1.555,9.32,1.538
		C9.242,1.512,9.162,1.498,9.082,1.498c-0.116,0-0.228,0.027-0.334,0.08c-0.179,0.09-0.313,0.244-0.376,0.434l-1.33,3.988H16.959z"
		/>
</g>
</svg>
