
<svg version="1.1" id="target" xmlns="http://www.w3.org/2000/svg" xmlns:xlink="http://www.w3.org/1999/xlink" x="0px" y="0px"
	 viewBox="0 0 24 24" style="enable-background:new 0 0 24 24;" xml:space="preserve">
<g>
	<title>police-woman-2</title>
	<circle cx="12" cy="5.497" r="1.125"/>
	<path d="M21,24.001c-0.259,0-0.496-0.13-0.634-0.349c-0.777-1.224-1.834-2.282-3.059-3.059c-1.379-0.875-2.947-1.395-4.557-1.516
		v4.174c0,0.414-0.336,0.75-0.75,0.75s-0.75-0.336-0.75-0.75v-4.17c-0.478,0.037-0.952,0.107-1.413,0.21
		c-2.583,0.578-4.786,2.127-6.203,4.362C3.495,23.87,3.258,24,2.999,24c-0.142,0-0.281-0.04-0.401-0.117
		c-0.349-0.221-0.453-0.686-0.232-1.035c1.632-2.573,4.169-4.357,7.143-5.022c0.828-0.185,1.673-0.279,2.512-0.279
		c2.15,0,4.255,0.615,6.089,1.779c1.41,0.895,2.628,2.113,3.522,3.522c0.221,0.35,0.117,0.814-0.231,1.035
		C21.282,23.96,21.143,24.001,21,24.001L21,24.001z"/>
	<path d="M15.75,24C15.336,24,15,23.664,15,23.25s0.336-0.75,0.75-0.75h1.5c0.414,0,0.75,0.336,0.75,0.75S17.663,24,17.25,24H15.75z
		"/>
	<path d="M20.839,16.5c-0.115,0-0.231-0.027-0.335-0.079c-1.635-0.817-2.545-2.172-3.051-3.422c-0.26,0.566-0.608,1.093-1.032,1.555
		c-1.084,1.181-2.562,1.869-4.163,1.938c-0.087,0.004-0.174,0.005-0.261,0.005c-2.386,0-4.492-1.393-5.453-3.497
		c-0.506,1.248-1.415,2.602-3.047,3.42c-0.104,0.052-0.22,0.08-0.336,0.08c-0.286,0-0.543-0.159-0.671-0.414
		c-0.09-0.179-0.104-0.382-0.041-0.573c0.063-0.19,0.197-0.344,0.376-0.434c2.237-1.121,2.726-3.692,2.831-4.708
		c-0.62-0.565-1.004-1.228-1.141-1.974c-0.007-0.039-0.01-0.062-0.011-0.086C4.502,8.297,4.5,8.274,4.5,8.25
		c0-0.004,0-0.009,0-0.015C4.506,2.163,8.378,0,12,0c3.622,0,7.495,2.164,7.5,8.238c0,0.036-0.002,0.059-0.005,0.082
		c0,0.014-0.002,0.039-0.007,0.065c-0.001,0.005-0.005,0.024-0.006,0.029c-0.134,0.73-0.517,1.393-1.137,1.958
		c0.096,0.885,0.569,3.576,2.83,4.705c0.37,0.185,0.521,0.636,0.336,1.006C21.382,16.341,21.125,16.5,20.839,16.5z M7.627,11.535
		c0.474,1.987,2.279,3.463,4.364,3.463c0.067,0,0.134-0.001,0.201-0.004c1.202-0.052,2.311-0.568,3.123-1.453
		c0.526-0.574,0.887-1.257,1.06-2.002c-1.239,0.478-2.759,0.737-4.361,0.737C10.401,12.275,8.872,12.015,7.627,11.535z M7.205,9.667
		c1.12,0.694,2.915,1.109,4.809,1.109c2.073,0,4.024-0.505,5.092-1.318c0.009-0.008,0.025-0.021,0.043-0.033
		C17.316,9.294,17.464,9.151,17.588,9H6.415c0.12,0.144,0.263,0.282,0.428,0.413c0.038,0.025,0.072,0.051,0.103,0.08
		c0.05,0.036,0.101,0.072,0.154,0.106C7.135,9.618,7.17,9.641,7.205,9.667z M17.974,7.5c-0.258-3.766-2.47-6-5.975-6
		c-3.505,0-5.716,2.234-5.975,6H17.974z"/>
</g>
</svg>
