
<svg version="1.1" id="target" xmlns="http://www.w3.org/2000/svg" xmlns:xlink="http://www.w3.org/1999/xlink" x="0px" y="0px"
	 viewBox="0 0 24 24" style="enable-background:new 0 0 24 24;" xml:space="preserve">
<g>
	<title>professions-woman-telecommunicator</title>
	<path d="M11.389,15.375c-0.319,0-0.622-0.139-0.833-0.374H8.389c-2.068,0-3.75-1.682-3.75-3.75c0-0.414,0.336-0.75,0.75-0.75
		s0.75,0.336,0.75,0.75c0,1.241,1.009,2.25,2.25,2.25h2.165c0.211-0.236,0.515-0.376,0.835-0.376c0.62,0,1.125,0.505,1.125,1.125
		S12.01,15.375,11.389,15.375z"/>
	<path d="M14.39,15.995c-0.288,0-0.554-0.168-0.678-0.428c-0.177-0.374-0.017-0.822,0.356-0.999c1.347-0.639,2.287-1.909,2.517-3.37
		c-1.881-0.255-3.536-1.399-4.45-3.051c-0.76,1.367-2.034,2.409-3.531,2.856c-0.07,0.021-0.142,0.031-0.214,0.031
		c-0.329,0-0.625-0.22-0.719-0.536c-0.118-0.396,0.108-0.815,0.504-0.933c1.892-0.565,3.214-2.339,3.215-4.314
		c0-0.413,0.336-0.75,0.75-0.75s0.75,0.336,0.75,0.75c0,2.481,2.019,4.5,4.5,4.5c0.414,0,0.75,0.336,0.75,0.75
		c0,2.305-1.345,4.433-3.429,5.422C14.61,15.97,14.502,15.995,14.39,15.995z"/>
	<path d="M2.664,24.001c-0.112,0-0.22-0.025-0.322-0.073c-0.18-0.085-0.317-0.236-0.384-0.425C1.89,23.315,1.9,23.111,1.985,22.93
		c0.626-1.323,1.522-2.527,2.614-3.518c-0.681-0.19-1.347-0.426-1.987-0.704c-1.12-0.504-1.635-1.825-1.152-2.946l0.989-2.309
		C2.569,13.178,2.84,13,3.14,13c0.101,0,0.2,0.02,0.294,0.06c0.185,0.079,0.327,0.225,0.402,0.411
		c0.074,0.186,0.072,0.39-0.007,0.574l-0.99,2.31c-0.161,0.375,0.009,0.814,0.38,0.981c0.926,0.402,1.912,0.704,2.929,0.897
		c0.386-0.244,0.785-0.464,1.187-0.654c0.036-0.017,0.072-0.033,0.109-0.048l0.041-0.018c0.038-0.021,0.08-0.04,0.125-0.055
		c1.434-0.633,2.953-0.954,4.514-0.954c1.557,0,3.073,0.317,4.506,0.941c0.068,0.019,0.129,0.045,0.186,0.08
		c0.003,0.002,0.006,0.004,0.009,0.006c0.449,0.206,0.886,0.442,1.3,0.702c1.02-0.193,2.009-0.496,2.942-0.902
		c0.364-0.164,0.533-0.603,0.372-0.977l-1.375-3.212c-0.282-0.657-0.425-1.353-0.425-2.067V9.001c0-4.135-3.365-7.5-7.5-7.5
		s-7.5,3.365-7.5,7.5c0,0.414-0.336,0.75-0.75,0.75s-0.75-0.336-0.75-0.75c0-4.963,4.037-9,9-9s9,4.037,9,9v2.076
		c0,0.51,0.102,1.007,0.303,1.476l1.375,3.211c0.482,1.12-0.031,2.439-1.143,2.94c-0.646,0.281-1.313,0.517-1.993,0.707
		c1.097,0.989,1.974,2.169,2.612,3.518c0.086,0.181,0.096,0.385,0.028,0.574s-0.205,0.34-0.385,0.425
		c-0.1,0.048-0.208,0.072-0.32,0.072c-0.289,0-0.555-0.169-0.678-0.429c-0.901-1.905-2.416-3.477-4.286-4.454
		c-0.551,0.643-1.233,1.084-1.842,1.478c-1.115,0.721-1.92,1.241-1.92,2.655c0,0.414-0.336,0.75-0.75,0.75s-0.75-0.336-0.75-0.75
		c0-1.414-0.805-1.935-1.92-2.656c-0.611-0.395-1.294-0.837-1.845-1.482c-1.867,0.979-3.381,2.552-4.283,4.458
		C3.218,23.833,2.952,24.001,2.664,24.001z M9.108,18.487c0.355,0.319,0.77,0.587,1.175,0.849c0.667,0.431,1.351,0.874,1.856,1.536
		c0.504-0.663,1.189-1.105,1.856-1.536c0.403-0.261,0.816-0.528,1.171-0.845c-0.984-0.323-2.005-0.487-3.042-0.487
		C11.095,18.004,10.083,18.166,9.108,18.487z"/>
</g>
</svg>
