
<svg version="1.1" id="target" xmlns="http://www.w3.org/2000/svg" xmlns:xlink="http://www.w3.org/1999/xlink" x="0px" y="0px"
	 viewBox="0 0 24 24" style="enable-background:new 0 0 24 24;" xml:space="preserve">
<g>
	<title>professions-man-magician</title>
	<path d="M11.95,17.25c-3.03,0-5.579-2.279-5.952-5.25h-2.3c-0.414,0-0.75-0.336-0.75-0.75s0.336-0.75,0.75-0.75h2.185L5.201,2.312
		C5.199,2.291,5.198,2.271,5.198,2.25c0.001-0.604,0.235-1.169,0.661-1.593C6.284,0.233,6.848,0,7.448,0h9.002
		c1.241,0,2.25,1.009,2.25,2.25c0,0.019-0.001,0.038-0.002,0.057L18.015,10.5h2.183c0.414,0,0.75,0.336,0.75,0.75
		S20.612,12,20.198,12h-2.296C17.53,14.971,14.98,17.25,11.95,17.25z M7.513,12c0.361,2.133,2.236,3.75,4.437,3.75
		c2.201,0,4.077-1.617,4.438-3.75H7.513z M16.51,10.5L16.635,9H7.263l0.125,1.5H16.51z M16.76,7.5l0.44-5.276
		C17.186,1.823,16.853,1.5,16.45,1.5H7.448c-0.2,0-0.388,0.078-0.53,0.219c-0.136,0.135-0.214,0.314-0.22,0.505L7.138,7.5H16.76z"/>
	<path d="M8.037,23.996c-0.354,0-0.688-0.137-0.94-0.387c-0.254-0.251-0.394-0.586-0.396-0.943v-3.329C6.701,18.6,7.301,18,8.038,18
		c0.242,0.002,0.477,0.066,0.681,0.187c0.003,0.002,3.232,1.934,3.232,1.934l3.225-1.935c0.208-0.125,0.445-0.19,0.685-0.19
		c0.11,0,0.221,0.014,0.329,0.041c0.347,0.088,0.639,0.305,0.822,0.612c0.121,0.204,0.186,0.436,0.189,0.673v3.332
		c-0.004,0.736-0.604,1.333-1.337,1.333c-0.247-0.001-0.482-0.067-0.688-0.19l-3.224-1.928l-3.226,1.936
		c-0.206,0.124-0.442,0.19-0.683,0.191c0,0-0.001,0-0.002,0H8.037z M8.201,22.371l2.292-1.375l-2.292-1.371V22.371z M15.701,22.363
		V19.62l-2.289,1.374L15.701,22.363z"/>
</g>
</svg>
