<?xml version="1.0" encoding="UTF-8"?>
<svg id="target" viewBox="0 0 120 120" version="1.1" xmlns="http://www.w3.org/2000/svg" xmlns:xlink="http://www.w3.org/1999/xlink">
    <!-- Generator: Sketch 51 (57462) - http://www.bohemiancoding.com/sketch -->
    <title>logo / amazon</title>
    <desc>Created with Sketch.</desc>
    <defs></defs>
    <g id="logo-/-amazon" stroke="none" stroke-width="1" fill="none" fill-rule="evenodd">
        <path d="M71.8660637,69.6274318 C71.91199,69.5378722 71.9809782,69.4483839 72.0729625,69.3588243 C72.6477177,68.9782674 73.1995501,68.7208549 73.7283865,68.5865156 C74.6020174,68.3626879 75.4527255,68.2395435 76.2804375,68.2171536 C76.510325,68.1947637 76.7287144,68.2059587 76.935679,68.2507385 C77.9702824,68.340298 78.5910298,68.5082222 78.7979945,68.7544398 C78.8899055,68.8887078 78.9358976,69.0902169 78.9358976,69.3588243 L78.9358976,69.5938469 C78.9358976,70.3773506 78.7175082,71.3007555 78.2806561,72.3640616 C77.8438041,73.4273677 77.2345547,74.2836029 76.4528348,74.9327672 C76.3378545,75.0223339 76.2343722,75.0671066 76.1424538,75.0671066 C76.096469,75.0671066 76.0504768,75.0559116 76.0044774,75.0335217 C75.8665815,74.966352 75.8320874,74.8432076 75.9010756,74.6641598 C76.7517105,72.7166668 77.1770645,71.3623634 77.1770645,70.6012496 C77.1770645,70.3549607 77.1310724,70.1759129 77.0391613,70.0639634 C76.8092006,69.795356 76.1654572,69.6610166 75.1078577,69.6610166 C74.7169978,69.6610166 74.2571496,69.6834065 73.7283865,69.7281863 C73.153558,69.795356 72.6247949,69.8625256 72.1419507,69.929624 C72.0039743,69.929624 71.91199,69.9072341 71.8660637,69.8625256 C71.8200057,69.8177459 71.8085736,69.7729661 71.8315696,69.7281863 C71.8315696,69.7057964 71.843075,69.6722115 71.8660637,69.6274318 Z M57.3814037,58.8153231 C57.3814037,59.6883151 57.6055787,60.3878923 58.0539289,60.9139123 C58.502279,61.4400035 59.1058159,61.7030491 59.8644665,61.7030491 C59.9334547,61.7030491 60.0311514,61.6918541 60.1576298,61.6694642 C60.2841081,61.6470743 60.3703068,61.6358794 60.4162989,61.6358794 C61.3819141,61.3896619 62.1291399,60.785206 62.6579763,59.8226545 C62.9108598,59.3973178 63.1005407,58.9328344 63.2270191,58.4291331 C63.3534243,57.9255031 63.4224125,57.5169231 63.4339105,57.2035359 C63.4454085,56.8901487 63.4511942,56.3752524 63.4511942,55.6589897 L63.4511942,54.8195113 C62.1176419,54.8195113 61.1060345,54.9090709 60.4162989,55.0881187 C58.393011,55.6477948 57.3814037,56.8901487 57.3814037,58.8153231 Z M51.4495896,59.4868773 C51.4495896,57.9422598 51.8404495,56.6215413 52.6221694,55.5246504 C53.4038893,54.4277594 54.4729868,53.5994759 55.8295352,53.0398712 C57.07103,52.5249749 58.5999756,52.155613 60.4162989,51.9317853 C61.0370463,51.8646156 62.0486537,51.7750561 63.4511942,51.6631779 L63.4511942,51.0923069 C63.4511942,49.6596531 63.2902217,48.6971016 62.96835,48.2046094 C62.4855057,47.5330481 61.7267819,47.1972638 60.6921785,47.1972638 L60.4162989,47.1972638 C59.6575751,47.2644193 59.0023336,47.4994704 58.4505012,47.90241 C57.898742,48.3053426 57.5423029,48.8649901 57.3814037,49.5813099 C57.2894194,50.0290079 57.0595319,50.2864846 56.6916681,50.353583 L52.7256517,49.8835164 C52.3347918,49.793964 52.1393984,49.5924977 52.1393984,49.2791105 C52.1393984,49.211955 52.1508232,49.1336189 52.1738193,49.0440665 C52.5646793,47.0517723 53.5245821,45.5743387 55.0535277,44.6117515 C56.5824734,43.6491643 58.3700149,43.111921 60.4162989,43 L61.2785051,43 C63.8994711,43 65.945755,43.6603807 67.4172105,44.9811064 C67.6479768,45.2059822 67.8612397,45.4472939 68.0552416,45.703045 C68.2506349,45.9604789 68.4058218,46.1899254 68.5208021,46.3913916 C68.6357092,46.5928579 68.7391915,46.8838837 68.8311758,47.2644193 C68.9230869,47.6449619 68.9920751,47.9080146 69.0380672,48.0535062 C69.0840594,48.1990048 69.1185535,48.5124206 69.1415495,48.9936964 C69.1645456,49.4749721 69.1760436,49.7603862 69.1760436,49.8499387 L69.1760436,57.9758447 C69.1760436,58.5578393 69.2622423,59.0895637 69.4347128,59.5708038 C69.6071101,60.0521152 69.773795,60.3990873 69.9347674,60.61172 C70.0956667,60.8243527 70.3601215,61.1657629 70.7279854,61.6358794 C70.8658885,61.8373171 70.9348767,62.016365 70.9348767,62.1730943 C70.9348767,62.3522134 70.8428925,62.5088714 70.6589971,62.6432107 C68.7506896,64.2549266 67.7160862,65.1279899 67.5551869,65.2623293 C67.2792341,65.463767 66.9458643,65.4861569 66.5550044,65.3294276 C66.2331327,65.0608202 65.9514674,64.8034077 65.7100819,64.5571902 C65.4686964,64.3109014 65.2962259,64.1318535 65.1927436,64.019904 C65.0893345,63.9080259 64.9225764,63.68976 64.692689,63.3651066 C64.4628015,63.0405244 64.301829,62.8222586 64.209918,62.7103804 C62.9223578,64.0758788 61.657867,64.9264809 60.4162989,65.2623293 C59.634579,65.4861569 58.6689638,65.5981064 57.5193801,65.5981064 C55.7489757,65.5981064 54.2948039,65.0664533 53.1567182,64.0031473 C52.0186325,62.9397699 51.4495896,61.4343703 51.4495896,59.4868773 Z M41.0689736,69.0566321 C41.1839173,68.8775842 41.3678419,68.8663179 41.6207694,69.0230472 C47.3686149,72.2689402 53.622352,73.891851 60.3818048,73.891851 C64.8880823,73.891851 69.3369429,73.0748338 73.7283865,71.4406567 C73.8432936,71.3959482 74.0099785,71.3287785 74.2284411,71.2392189 C74.4468306,71.1496594 74.6020174,71.0824897 74.6940017,71.0377099 C75.0388695,70.9034418 75.3090294,70.9706115 75.50443,71.2392189 C75.6998234,71.5078264 75.6366208,71.7540439 75.3147491,71.9779429 C74.9008931,72.2689402 74.37213,72.6047173 73.7283865,72.9852742 C71.7510907,74.1269449 69.5439075,75.0111318 67.1068368,75.6379063 C64.6696929,76.264752 62.2901124,76.5781392 59.9679488,76.5781392 C56.3812944,76.5781392 52.9900333,75.9681216 49.7942388,74.7480934 C46.598415,73.5281222 43.7359756,71.8100186 41.206928,69.5938469 C41.0689736,69.4819687 41,69.3700193 41,69.2580698 C41,69.1909714 41.0229668,69.1238017 41.0689736,69.0566321 Z" id="amazon" fill="currentcolor"></path>
    </g>
</svg>
