<?xml version="1.0" encoding="UTF-8"?>
<svg id="target" viewBox="0 0 120 120" version="1.1" xmlns="http://www.w3.org/2000/svg" xmlns:xlink="http://www.w3.org/1999/xlink">
    <!-- Generator: Sketch 51 (57462) - http://www.bohemiancoding.com/sketch -->
    <title>logo / capital one</title>
    <desc>Created with Sketch.</desc>
    <defs></defs>
    <g id="logo-/-capital-one" stroke="none" stroke-width="1" fill="none" fill-rule="evenodd">
        <path d="M72.3488678,63.4194024 C72.4051686,64.9817497 73.3904327,66.2624523 74.6854919,66.2624523 C77.1908777,66.2624523 78.2465178,63.1940584 78.1761418,61.1392198 C78.1198409,59.5768725 77.1062857,58.2960292 75.8255832,58.2960292 C73.6577207,58.2960292 72.2784918,61.3503478 72.3488678,63.4194024 Z M71.0257989,63.3349512 C70.9272725,60.660663 73.0243367,57.9441492 76.0647208,57.9441492 C78.091409,57.9441492 79.4285531,59.2953685 79.4989291,61.3644231 C79.5974556,64.1794633 77.6410026,66.755225 74.4600072,66.755225 C72.433319,66.755225 71.0961749,65.4040057 71.0257989,63.3349512 Z M42.2701632,62.6311911 C42.1574208,62.6734167 42.0166688,62.7157831 41.8479072,62.7437928 C41.6790047,62.7861591 41.3552751,62.8423192 40.9048687,62.9126952 C40.5952143,62.968996 40.370011,63.0252968 40.2433342,63.1238232 C40.1166574,63.2084151 40.0462814,63.320876 40.0322062,63.4475528 C40.0040558,63.5883048 40.0462814,63.7010472 40.1729582,63.7853576 C40.299635,63.8696681 40.4966879,63.9120344 40.7781919,63.9120344 C40.9893199,63.9120344 41.2004479,63.883884 41.4115759,63.813508 C41.6227039,63.743132 41.7916064,63.6585401 41.9323584,63.5460792 C42.0308848,63.461628 42.1012608,63.3491671 42.1575616,63.2223496 C42.1716368,63.1238232 42.2138624,62.9267704 42.2701632,62.6311911 Z M44.916301,60.9843926 C44.902085,61.223671 44.8600002,61.449015 44.8036994,61.8148295 L44.3532929,64.3202153 C44.3110673,64.5455592 44.3955185,64.7143209 44.6066466,64.8409977 L44.5925714,64.9395241 L42.0308848,64.9395241 L42.0027344,64.3061401 C41.6367791,64.5313433 41.1863727,64.7141801 40.7781919,64.8269225 C40.3701518,64.9253082 40.0462814,64.9817497 39.5536494,64.9817497 C38.7233533,64.9817497 38.2588716,64.8972985 37.9350013,64.6157945 C37.5971964,64.3202153 37.4423692,64.1231625 37.4564444,63.7149816 C37.4705196,63.4757032 37.5829805,63.180124 37.7660989,62.968996 C37.9490765,62.757868 38.1883549,62.6171159 38.4417085,62.4904391 C38.7089966,62.3639031 39.0187917,62.2793111 39.4691982,62.2089351 C39.9196046,62.1385591 40.5529887,62.0681831 41.3975007,61.9978071 C41.833832,61.9555815 42.115336,61.8570551 42.2420128,61.8148295 C42.4249904,61.7444535 42.4812912,61.6740775 42.5093009,61.5333255 C42.5516672,61.2798311 42.4812912,61.1251446 42.1294112,61.0547686 C41.2145231,60.871791 39.4832734,61.1673702 38.5965357,61.3925735 L39.0750926,60.083439 C40.2433342,59.9146773 41.3552751,59.801935 42.5093009,59.801935 C44.3392177,59.7880005 44.9303762,60.308783 44.916301,60.9843926 Z M52.3198567,64.9395241 L53.2065944,59.9287525 L55.6556794,59.9287525 L54.7689417,64.9395241 L52.3198567,64.9395241 Z M53.3473464,58.7745861 C53.4177224,58.3664052 54.0653224,58.0286004 54.7972328,58.0286004 C55.5290026,58.0286004 56.049785,58.3664052 55.979409,58.7745861 C55.909033,59.1827669 55.2474985,59.5205717 54.5296633,59.5205717 C53.7977528,59.5205717 53.2628952,59.1827669 53.3473464,58.7745861 Z M64.3541536,62.6452663 C64.241552,62.6874919 64.1008,62.7297175 63.9318976,62.757868 C63.7629952,62.8000936 63.4392655,62.8563944 62.9747839,62.9267704 C62.6651295,62.9829304 62.4399263,63.039372 62.3132494,63.1378984 C62.2006478,63.2223496 62.1302718,63.3348104 62.1021214,63.461628 C62.073971,63.60238 62.1302718,63.7149816 62.2428734,63.7992921 C62.3695502,63.883884 62.5666031,63.9259689 62.8621823,63.9259689 C63.0733103,63.9259689 63.2844383,63.8978185 63.4955663,63.8274425 C63.7066943,63.7570665 63.8755968,63.6726153 64.0163488,63.5601544 C64.1147344,63.4755625 64.1851104,63.3631016 64.2274768,63.236284 C64.2556272,63.1378984 64.2978528,62.9408456 64.3541536,62.6452663 Z M66.9862162,60.9984678 C66.972141,61.2377462 66.9299154,61.4629495 66.8595394,61.8287639 L66.4232081,64.3342905 C66.3809825,64.5594937 66.4654337,64.7283961 66.6765618,64.8549322 L66.6624866,64.9395241 L64.1008,64.9395241 L64.0867248,64.3061401 C63.7066943,64.5313433 63.2562879,64.7141801 62.8621823,64.8269225 C62.4540015,64.9395241 62.1302718,64.9817497 61.6376398,64.9817497 C60.8072029,64.9817497 60.3427213,64.8972985 60.0189917,64.6157945 C59.6811869,64.3200745 59.5263596,64.1231625 59.5404348,63.7149816 C59.5546508,63.4757032 59.6671117,63.180124 59.8500893,62.968996 C60.0330669,62.757868 60.2723453,62.6171159 60.5256989,62.4904391 C60.7931277,62.3639031 61.1029229,62.2793111 61.5533293,62.1948599 C62.003595,62.1244839 62.6369791,62.0541079 63.4814911,61.9837319 C63.9179631,61.9415063 64.1852512,61.8429799 64.311928,61.8007543 C64.4949056,61.7303783 64.5652816,61.6600023 64.593432,61.5050343 C64.6356576,61.2516807 64.5512064,61.0969942 64.2134016,61.0266182 C63.2844383,60.8434999 61.5672638,61.1392198 60.6805261,61.3642823 L61.1589422,60.0552886 C62.3412591,59.8863862 63.4251903,59.7737846 64.5932913,59.7737846 C66.4091329,59.8020757 67.0002914,60.3228582 66.9862162,60.9984678 Z M37.1186396,63.1378984 C36.3163532,63.2927256 35.8800219,63.3631016 35.0919514,63.3631016 C33.923569,63.3631016 32.9946057,62.7860184 33.0368313,61.7163031 C33.0790569,61.012543 33.9094938,59.5064965 36.0489243,59.5064965 C36.724534,59.5064965 37.2453164,59.6190981 37.9490765,60.027279 L38.2587309,58.2960292 C37.3016172,57.930074 36.6682332,57.8737732 35.8377963,57.8878484 C33.0368313,57.9159988 30.3484679,59.1827669 30.0247383,61.7726039 C29.6869335,64.4046665 32.8960793,65.0662009 34.3176746,65.0521257 C35.1340363,65.0521257 35.9924828,65.0099001 36.79491,64.9395241 L37.1186396,63.1378984 Z M57.0068987,59.9006021 L57.1758011,58.8871877 L59.7374877,58.3241796 L59.4700588,59.9006021 L60.7227517,59.9006021 L60.4834733,60.9140166 L59.273006,60.9140166 L58.5410956,64.9396649 C58.5410956,64.9396649 56.0779354,64.9254489 56.0638602,64.9396649 L56.7956299,60.9282326 L55.8666666,60.9282326 L56.0496442,59.9148181 L57.0067579,59.9148181 L57.0067579,59.9006021 L57.0068987,59.9006021 Z M69.4775268,64.9395241 L66.972141,64.9395241 L68.2246931,57.9582244 L70.6597029,58.0286004 L69.4775268,64.9395241 Z M49.0825605,61.1110694 C48.7588309,61.1110694 48.4773268,61.2095958 48.209898,61.4066487 C47.9565444,61.6037015 47.787642,61.8852055 47.7314819,62.2653767 C47.6611059,62.7017079 47.7033315,63.0113623 47.8722339,63.2084151 C48.0411364,63.4053272 48.29449,63.5039944 48.632154,63.5039944 C48.857498,63.5039944 49.0825605,63.4617688 49.2514629,63.3773175 C49.4625909,63.2647159 49.6033429,63.1521143 49.7300197,62.9692775 C49.8707717,62.7722247 49.9552229,62.5610966 49.9973078,62.307743 C50.0676838,61.9136374 50.0115237,61.6180582 49.8284054,61.4210054 C49.6455685,61.2095958 49.4062901,61.1110694 49.0825605,61.1110694 Z M44.6207218,66.6707738 L45.8171138,59.9569029 L47.9706196,59.9569029 L47.8017172,60.815631 C47.9846948,60.5621366 48.2801333,60.3510086 48.7023893,60.1822469 C49.1105701,60.0133445 49.5892677,59.8865269 50.0958342,59.8865269 C50.6588422,59.8865269 50.9966471,59.9146773 51.4189031,60.1398806 C51.8411591,60.3652245 52.1226632,60.674879 52.2914248,61.097135 C52.4465335,61.5051751 52.4887591,61.9555815 52.4043079,62.4622887 C52.2635559,63.2927256 51.8553751,63.9401848 51.1936999,64.4187417 C50.5320247,64.8972985 49.9411477,65.0239753 49.1105701,65.0239753 C48.8149909,65.0239753 48.5616373,64.9958249 48.3505093,64.9395241 C48.1535972,64.8832233 47.984554,64.8269225 47.8578772,64.7424713 C47.7452756,64.6580201 47.6187396,64.5594937 47.4498372,64.3765161 L47.0557315,66.6707738 L44.6207218,66.6707738 Z M89.0700658,61.7303783 C89.0559906,61.3221974 88.8589378,61.0546279 88.4366818,61.0546279 C87.4373425,61.0546279 86.367768,63.025156 86.1846496,63.813508 C87.8175137,63.813508 89.098357,62.828244 89.0700658,61.7303783 Z M89.2811939,64.8128473 L89.4782467,64.9395241 C88.9856146,65.9388634 87.9862754,66.7411498 86.8180337,66.7411498 C85.86092,66.7411498 85.0728495,66.1077658 85.0306239,64.9113737 C84.9602479,62.7719432 86.9587857,60.7732646 88.6055842,60.7732646 C89.3093443,60.7732646 89.9708787,61.082919 89.9990291,61.8431206 C90.0551892,63.54622 87.662405,64.0670024 86.0861232,64.109228 C86.0298224,64.2922056 86.0157472,64.461108 86.0298224,64.742612 C86.0579728,65.4463721 86.4802289,66.0516057 87.3669665,66.0516057 C88.1271681,66.0233146 88.887229,65.4180809 89.2811939,64.8128473 Z M70.7161445,64.5876441 C68.1544579,66.4032043 65.1282896,68.3033564 61.8769182,70.3021757 L61.7502414,70.3725517 C61.7080158,70.4007021 61.6940814,70.4571437 61.722091,70.5133037 C61.7502414,70.5555293 61.806683,70.5694638 61.862843,70.5414541 L61.9755854,70.4851533 C64.734184,69.0494828 67.9151795,67.3323083 71.0961749,65.5729082 C71.1102501,65.5586922 71.1243253,65.5586922 71.1523349,65.5447578 C70.9694981,65.2491785 70.8146709,64.9254489 70.7161445,64.5876441 Z M87.4937841,51.0050751 C89.2811939,52.9896784 85.4951055,56.5647795 79.8650251,60.3228582 C79.6116715,59.3375941 79.0486635,58.5493828 78.2745274,58.0426756 C79.7100572,56.1706739 80.0197116,54.5801762 78.7671594,53.3415585 C74.6712759,49.2879006 55.6838298,51.5399327 46.5630995,53.1585809 L46.3096051,53.2148817 C46.2533043,53.2148817 46.2112195,53.1867313 46.1970035,53.1304305 C46.1970035,53.0741296 46.2252947,53.031904 46.2815955,53.0178288 L46.5349491,52.961528 C57.5558315,50.5546687 83.4682766,46.5573116 87.4937841,51.0050751 Z M79.4568443,61.6740775 L79.4427691,61.3925735 C80.0057771,61.2799718 80.8925148,61.026759 81.5258988,60.801415 C81.3990813,61.1953799 81.2864797,61.7726039 81.1599436,62.3356119 L80.9345996,63.3490264 L80.9627501,63.3490264 C82.7785917,61.2518214 83.6370382,60.7873398 84.2844975,60.7873398 C84.6646687,60.7873398 84.9178815,60.9842519 84.9320975,61.4065079 C84.9461727,61.6317111 84.8617215,62.0258167 84.6928191,62.6592008 L84.0735102,64.9393834 C84.0031342,65.1645866 83.9046078,65.5023914 83.918683,65.7275946 C83.918683,65.9105722 84.0172094,65.9809482 84.129811,65.9809482 C84.4676159,65.9809482 84.8898719,65.3336297 85.0728495,65.0380505 L85.1992448,65.2773289 C84.7489791,66.0092394 84.2281967,66.755225 83.5102207,66.755225 C83.130331,66.755225 82.8629022,66.558313 82.848827,66.1360569 C82.834611,65.8545529 82.9332782,65.4605881 83.059955,65.0241161 L83.622963,63.0817383 C83.693339,62.8845448 83.8903919,62.1807847 83.8763167,61.871271 C83.8622415,61.660143 83.7496399,61.5616166 83.5666622,61.5616166 C83.1726974,61.5616166 82.5250974,62.1386999 80.8360732,63.8840248 L80.2872812,66.544097 L79.3020171,66.544097 C79.4427691,65.9670138 79.6115308,65.2491785 79.7664987,64.5594937 L80.1465291,62.8704696 C80.1887547,62.7015671 80.3717324,61.941647 80.3717324,61.8289047 C80.3717324,61.6459271 80.2028299,61.6177767 80.0198523,61.6177767 C79.9072507,61.6177767 79.6257467,61.6459271 79.4568443,61.6740775 Z" id="capital-one" fill="currentcolor" fill-rule="nonzero"></path>
    </g>
</svg>
