<?xml version="1.0" encoding="UTF-8"?>
<svg id="target" viewBox="0 0 120 120" version="1.1" xmlns="http://www.w3.org/2000/svg" xmlns:xlink="http://www.w3.org/1999/xlink">
    <!-- Generator: Sketch 51 (57462) - http://www.bohemiancoding.com/sketch -->
    <title>logo / citi</title>
    <desc>Created with Sketch.</desc>
    <defs></defs>
    <g id="logo-/-citi" stroke="none" stroke-width="1" fill="none" fill-rule="evenodd">
        <path d="M52.5832252,67.7552219 L54.3455896,69.8794859 L54.2968307,69.9377258 C52.835959,71.6643336 51.0817211,72.505696 48.9292853,72.505696 C46.7700774,72.505696 44.7896523,71.7810841 43.364808,70.4643222 C41.8175247,69.0413741 41,67.0362986 41,64.6614679 C41,62.2893461 41.8175247,60.2842706 43.364808,58.8610516 C44.7896523,57.5475403 46.7700774,56.8248246 48.9292853,56.8248246 C51.0817211,56.8248246 52.835959,57.6632073 54.2968307,59.390086 L54.3455896,59.4458879 L52.5832252,61.5704228 L52.5168589,61.5016185 C51.4238463,60.3798923 50.1520509,59.788013 48.8431445,59.788013 C46.111561,59.788013 44.1314067,61.838326 44.1314067,64.6614679 C44.1314067,67.486777 46.111561,69.5376317 48.8431445,69.5376317 C50.1520509,69.5376317 51.4238463,68.9454816 52.5168589,67.8259224 L52.5832252,67.7552219 Z M56.117164,72.2139551 L56.117164,57.0667231 L59.2190445,57.0667231 L59.2190445,72.2139551 L56.117164,72.2139551 Z M71.3768124,68.9227274 L71.5585749,68.8086857 L70.8093127,71.7277202 L70.7792447,71.7480364 C70.2705265,72.0595518 69.4275388,72.4723774 68.0273449,72.4447473 C65.9689055,72.4043858 64.5860481,70.8110523 64.5860481,68.4822717 L64.5860481,59.9351025 L61.9633595,59.9351025 L61.9633595,57.082976 L64.5860481,57.082976 L64.5860481,53.9987029 L67.6321267,52.3650079 L67.6321267,57.082976 L70.7865585,57.082976 L70.7865585,59.9351025 L67.6321267,59.9351025 L67.6321267,67.9700321 C67.6321267,69.1508108 68.0807089,69.6793034 69.0854137,69.6793034 C69.7786031,69.6793034 70.5511612,69.4238608 71.3768124,68.9227274 Z M73.9464079,72.2139551 L73.9464079,57.0667231 L77.0482884,57.0667231 L77.0482884,72.2139551 L73.9464079,72.2139551 Z M79,54.6182122 L75.4357223,54.6182122 C72.997505,52.1092945 69.7916055,50.7421483 66.5307167,50.7432318 C63.2115881,50.745128 60.0593234,52.1092945 57.6240858,54.6182122 L54.0568284,54.6182122 C56.7274633,50.6568202 61.5055674,48.0024383 66.5307167,48.0000003 C71.6349639,47.9989168 76.413068,50.7367306 79,54.6182122 Z" id="citi" fill="currentcolor"></path>
    </g>
</svg>
