<?xml version="1.0" encoding="UTF-8"?>
<svg id="target" viewBox="0 0 120 120" version="1.1" xmlns="http://www.w3.org/2000/svg" xmlns:xlink="http://www.w3.org/1999/xlink">
    <!-- Generator: Sketch 51 (57462) - http://www.bohemiancoding.com/sketch -->
    <title>logo / mit</title>
    <desc>Created with Sketch.</desc>
    <defs></defs>
    <g id="logo-/-mit" stroke="none" stroke-width="1" fill="none" fill-rule="evenodd">
        <g id="MIT" transform="translate(41.000000, 50.000000)" fill="currentcolor">
            <path d="M27.6667083,4.02025 L27.6667083,0 L38.861875,0 L38.861875,4.02025 L27.6667083,4.02025 Z M20.743125,4.02025 L20.743125,0 L25.0147083,0 L25.0147083,4.02025 L20.743125,4.02025 Z M27.694875,20.1007083 L27.694875,6.365125 L31.9382917,6.365125 L31.9382917,20.1007083 L27.694875,20.1007083 Z M0,20.10125 L0,0 L4.24341667,0 L4.24341667,20.10125 L0,20.10125 Z M13.8477083,20.10125 L13.8477083,0 L18.0905833,0 L18.0905833,20.10125 L13.8477083,20.10125 Z M6.92358333,13.7355833 L6.92358333,0 L11.167,0 L11.167,13.7355833 L6.92358333,13.7355833 Z" id="Fill-7"></path>
            <polygon id="Fill-42" opacity="0.5" points="20.7794167 20.0806667 25.0228333 20.0806667 25.0228333 6.34508333 20.7794167 6.34508333"></polygon>
        </g>
    </g>
</svg>
