<?xml version="1.0" encoding="UTF-8"?>
<svg id="target" viewBox="0 0 120 120" version="1.1" xmlns="http://www.w3.org/2000/svg" xmlns:xlink="http://www.w3.org/1999/xlink">
    <!-- Generator: Sketch 51 (57462) - http://www.bohemiancoding.com/sketch -->
    <title>logo / qualcomm</title>
    <desc>Created with Sketch.</desc>
    <defs></defs>
    <g id="logo-/-qualcomm" stroke="none" stroke-width="1" fill="none" fill-rule="evenodd">
        <path d="M53.8094472,61.8578742 L58.3184254,61.8547595 L57.3096241,60.2302954 L54.6974692,60.2299493 L54.6974692,53.9802266 L53.1522556,53.9802266 L53.1515635,61.1989522 C53.1515635,61.5034959 53.5052495,61.8578742 53.8094472,61.8578742 Z M32.8710249,61.9841906 L32.8710249,59.7921676 L30.956206,60.3393082 L30.9586285,63.055977 C30.5910995,63.1556459 30.206613,63.2172468 29.8072454,63.2172468 C27.3719334,63.2172468 25.39759,61.2429034 25.39759,58.8075914 C25.39759,56.3726256 27.3719334,54.3982822 29.8072454,54.3982822 C32.2429034,54.3982822 34.2172468,56.3726256 34.2172468,58.8075914 C34.2172468,60.0541445 33.7012527,61.1813025 32.8710249,61.9841906 Z M29.8072454,52 C33.5673227,52 36.6151829,55.0482063 36.6151829,58.8075914 C36.6151829,61.4578144 35.082428,63.7405084 32.8710249,64.8652439 L32.8710249,68.1619302 L30.956206,68.1619302 L30.9679724,65.5120533 C30.5872927,65.5781531 30.2069591,65.615529 29.8072454,65.615529 C26.0478602,65.615529 23,62.5673227 23,58.8075914 C23,55.0482063 26.0478602,52 29.8072454,52 Z M38.4462523,61.8589124 C38.1417085,61.8589124 37.7835235,61.5055724 37.7835235,61.2010286 L37.7804089,53.9802266 L39.3259685,53.9802266 L39.3259685,60.2299493 L42.0062998,60.2299493 L42.0062998,53.9802266 L43.5518594,53.9802266 L43.5532437,61.2010286 C43.5532437,61.5055724 43.1999037,61.8589124 42.8950138,61.8589124 L38.4462523,61.8589124 Z M61.5358611,53.700254 C62.3031037,53.700254 63.0274334,53.9089357 63.6451727,54.2709275 L62.8800065,55.6206101 C62.4875603,55.3863191 62.0262458,55.247544 61.5358611,55.247544 C60.0830489,55.247544 58.9050182,56.4252286 58.9050182,57.8776947 C58.9050182,59.3301609 60.0830489,60.5081915 61.5358611,60.5081915 C61.9888699,60.5081915 62.4117705,60.3919112 62.7844905,60.1898049 L63.5378903,61.5464089 C62.9454142,61.8679103 62.2563839,62.0554815 61.5358611,62.0554815 C59.2285959,62.0554815 57.3580743,60.1849599 57.3580743,57.8776947 C57.3580743,55.5707757 59.2285959,53.700254 61.5358611,53.700254 Z M67.2242542,60.5299941 C65.7721341,60.5299941 64.5965259,59.3630378 64.5965259,57.9105716 C64.5965259,56.4584516 65.7721341,55.2696926 67.2242542,55.2696926 C68.6770664,55.2696926 69.855097,56.4473772 69.855097,57.8998434 C69.855097,59.3523095 68.6770664,60.5299941 67.2242542,60.5299941 Z M63.0506202,57.9105716 C63.0506202,60.2174907 64.9176812,62.0772841 67.2242542,62.0772841 C69.5318654,62.0772841 71.402041,60.2067624 71.402041,57.8998434 C71.402041,55.5925783 69.5318654,53.7224027 67.2242542,53.7224027 C64.9176812,53.7224027 63.0506202,55.6033065 63.0506202,57.9105716 Z M47.1070618,58.810014 L48.349462,55.9832941 L49.5967071,58.810014 L47.1070618,58.810014 Z M47.5863722,53.9940695 L49.1177428,53.9940695 L52.5642785,61.8163455 L50.9232029,61.8163455 L50.1628817,60.0935967 L46.5903756,60.0932507 L45.7809121,61.8163455 L44.1398365,61.8163455 L47.5863722,53.9940695 Z M93.4267847,54.3598681 L96.2569654,60.8895634 C96.6459508,61.9118615 95.2408966,62.4375455 94.7809663,61.6156234 L92.5560664,56.4155386 L90.3308205,61.6156234 C90.0404657,62.1475368 89.1458684,62.1233117 88.8793926,61.6156234 L86.6548388,56.4155386 L84.4295928,61.6156234 C84.2838963,61.8765621 84.0419917,61.9890356 83.7931656,62.0056471 C83.7630572,62.0098 83.7343332,62.0118764 83.7038789,62.0129146 C83.6734245,62.0118764 83.6447005,62.0098 83.6145922,62.0056471 C83.3661121,61.9890356 83.1238614,61.8765621 82.978511,61.6156234 L80.753265,56.4155386 L78.5280191,61.6156234 C78.2622354,62.1233117 77.367292,62.1475368 77.0765912,61.6156234 L74.8516913,56.4155386 L72.6264453,61.6156234 C72.1672072,62.4375455 70.7618069,61.9118615 71.1514845,60.8895634 L73.980973,54.3598681 C74.1508945,54.0452883 74.4405572,53.8999378 74.8516913,53.8999378 C75.2631714,53.8999378 75.5528341,54.0452883 75.7224096,54.3598681 L77.8023051,59.1484728 L79.8825467,54.3598681 C80.0517761,54.0452883 80.3417849,53.8999378 80.753265,53.8999378 C81.164053,53.8999378 81.4547539,54.0452883 81.6239833,54.3598681 L83.7038789,59.1595471 L85.7837744,54.3598681 C85.9530038,54.0452883 86.2433586,53.8999378 86.6548388,53.8999378 C87.0659728,53.8999378 87.3563276,54.0452883 87.5255571,54.3598681 L89.6054526,59.1484728 L91.6853481,54.3598681 C91.8549236,54.0452883 92.1449323,53.8999378 92.5560664,53.8999378 C92.9675466,53.8999378 93.2575553,54.0452883 93.4267847,54.3598681 Z" id="Fill-1" fill="currentcolor"></path>
    </g>
</svg>
