<?xml version="1.0" encoding="UTF-8"?>
<svg id="target" viewBox="0 0 120 120" version="1.1" xmlns="http://www.w3.org/2000/svg" xmlns:xlink="http://www.w3.org/1999/xlink">
    <!-- Generator: Sketch 51 (57462) - http://www.bohemiancoding.com/sketch -->
    <title>logo / samsung</title>
    <desc>Created with Sketch.</desc>
    <defs></defs>
    <g id="logo-/-samsung" stroke="none" stroke-width="1" fill="none" fill-rule="evenodd">
        <path d="M63.3847318,59.7588462 C64.6585687,60.5250705 64.5432419,61.9815081 64.5432419,61.9815081 L64.5432419,62.9386331 C64.3899096,65.3150641 61.1131434,65.2482269 61.1131434,65.2482269 C57.6830449,65.2482269 57.7581821,62.9980439 57.7581821,62.9980439 L57.7581821,61.8211864 L60.4268616,61.8211864 L60.4268616,62.631095 C60.4268616,63.3208716 61.0934854,63.3514506 61.0934854,63.3514506 C61.8221411,63.3798455 61.8832992,62.6765268 61.8832992,62.6765268 C61.9828996,61.9911187 61.2280333,61.5603906 61.2280333,61.5603906 C60.4810302,61.1768416 59.2355882,60.5062862 59.2355882,60.5062862 C58.6218225,60.1035161 58.3728215,59.7396251 58.3728215,59.7396251 C57.9324828,59.1843965 57.9608777,58.3220666 57.9608777,58.3220666 L57.9608777,57.5746266 C57.9608777,56.5397434 58.2391472,56.2431264 58.2391472,56.2431264 C58.9477081,54.9116261 61.4198078,55.074132 61.4198078,55.074132 C64.5628998,55.1601903 64.3702517,57.11463 64.3702517,57.11463 L64.3750569,58.3080876 L61.8697571,58.3080876 L61.8697571,57.4977421 C61.8697571,56.9232924 61.1708068,56.8848501 61.1708068,56.8848501 C60.6339256,56.8848501 60.5098619,57.2487411 60.5098619,57.2487411 C60.2128081,57.8048434 60.7199839,58.2831875 60.7199839,58.2831875 C60.9790323,58.5710676 62.2825746,59.1747859 62.2825746,59.1747859 C62.704129,59.3377287 63.3847318,59.7588462 63.3847318,59.7588462 Z M50.5611785,55.354149 L54.7042062,55.354149 L54.9719916,64.9188466 L52.4819812,64.9188466 L52.4221336,57.7502379 L52.2495802,57.7502379 L50.9525906,64.9175361 L48.3463798,64.9175361 L47.033227,57.7476168 L46.8383946,57.7476168 L46.8086892,64.9188466 L44.3313473,64.9188466 L44.5405956,55.4013281 L48.7251235,55.4013281 L49.5262952,60.610255 L49.7224382,60.610255 L50.5611785,55.354149 Z M35.8142014,55.3934649 L40.0231926,55.3934649 L41.6709679,64.9083624 L39.0044726,64.9083624 L38.0285633,57.5309422 L37.8088308,57.5309422 L36.8324846,64.9083624 L34.1659893,64.9083624 L35.8142014,55.3934649 Z M91.7747813,59.6277931 L95,59.6277931 L95,62.5887212 C95,62.5887212 94.9681104,63.4309562 94.8422993,63.6956837 C94.8422993,63.6956837 94.7287199,64.1486908 94.2875076,64.4763237 C94.2875076,64.4763237 93.8082898,64.9804416 92.220799,65.1564897 C92.1600777,65.1595476 88.5923734,65.4238382 88.5146152,62.8180642 L88.5146152,57.7790696 C88.5146152,57.7790696 88.1127187,55.0007423 91.7341548,55.0007423 C91.7341548,55.0007423 94.090491,54.9242946 94.7134304,56.3230688 C94.7134304,56.3230688 95.0214054,56.697444 94.9397155,58.2443084 L92.4287367,58.2443084 L92.4287367,57.4514367 C92.4287367,57.4514367 92.4239314,56.8114603 91.7717234,56.8114603 C91.7717234,56.8114603 91.0924311,56.8398552 91.0924311,57.3767363 L91.0924311,62.5887212 C91.0924311,62.5887212 91.0635994,63.2885451 91.8293868,63.2885451 C91.8293868,63.2885451 92.4588789,63.2745661 92.4588789,62.5384841 L92.4588789,61.0318094 L91.7747813,61.0318094 L91.7747813,59.6277931 Z M83.4515941,61.1764048 L83.272925,55.3554595 L85.7852143,55.3554595 L85.7852143,64.920594 L82.8286547,64.920594 L80.1888069,59.1009593 L80.0778485,59.1009593 L80.2268123,64.920594 L77.7459757,64.920594 L77.7459757,55.3563332 L80.7938357,55.3563332 L83.34282,61.1764048 L83.4515941,61.1764048 Z M71.688261,62.5371736 L71.688261,55.362449 L74.3477668,55.362449 L74.3477668,62.6236687 C74.3477668,65.2403638 71.0347425,65.2010478 71.0347425,65.2010478 C67.2224056,65.2010478 67.5015489,62.499605 67.5015489,62.499605 L67.5015489,55.3620122 L70.2230865,55.3620122 L70.2309497,62.5568316 C70.2309497,63.3632454 70.9967371,63.3221821 70.9967371,63.3221821 C71.7245191,63.3221821 71.688261,62.5371736 71.688261,62.5371736 Z M30.6253693,59.7588462 C31.9000799,60.5250705 31.7851899,61.9815081 31.7851899,61.9815081 L31.7851899,62.9386331 C31.6314209,65.3150641 28.3550915,65.2482269 28.3550915,65.2482269 C24.9254299,65.2482269 25.0001302,62.9980439 25.0001302,62.9980439 L25.0001302,61.8207495 L27.6696834,61.8207495 L27.6696834,62.631095 C27.6696834,63.3208716 28.3358703,63.3514506 28.3358703,63.3514506 C29.0640892,63.3798455 29.1256841,62.6765268 29.1256841,62.6765268 C29.2252846,61.9906818 28.4699814,61.5599537 28.4699814,61.5599537 C27.7225415,61.1764048 26.4779731,60.5062862 26.4779731,60.5062862 C25.8642074,60.1035161 25.6152064,59.7396251 25.6152064,59.7396251 C25.1744309,59.1839596 25.2032626,58.3220666 25.2032626,58.3220666 L25.2032626,57.5746266 C25.2032626,56.5393065 25.4810953,56.2431264 25.4810953,56.2431264 C25.4850269,56.2361369 25.490269,56.230021 25.4942006,56.2225947 C26.1748035,55.1785377 28.0781324,55.0763163 28.0781324,55.0763163 C28.4254233,55.0588425 28.6621927,55.074132 28.6621927,55.074132 C31.8039742,55.1597534 31.6126366,57.1141931 31.6126366,57.1141931 L31.6178787,58.3080876 L29.1117051,58.3080876 L29.1117051,57.4977421 C29.1117051,56.9232924 28.412318,56.8852869 28.412318,56.8852869 C27.8763105,56.8852869 27.7522469,57.2491779 27.7522469,57.2491779 C27.4547562,57.8039697 27.9628056,58.2831875 27.9628056,58.2831875 C28.2209804,58.5715045 29.523649,59.1747859 29.523649,59.1747859 C29.9456402,59.3377287 30.6253693,59.7588462 30.6253693,59.7588462 Z" id="samsung" fill="currentcolor"></path>
    </g>
</svg>
