<?xml version="1.0" encoding="UTF-8"?>
<svg id="target" viewBox="0 0 120 120" version="1.1" xmlns="http://www.w3.org/2000/svg" xmlns:xlink="http://www.w3.org/1999/xlink">
    <!-- Generator: Sketch 51 (57462) - http://www.bohemiancoding.com/sketch -->
    <title>logo / sprint</title>
    <desc>Created with Sketch.</desc>
    <defs></defs>
    <g id="logo-/-sprint" stroke="none" stroke-width="1" fill="none" fill-rule="evenodd">
        <path d="M75.7176324,47.0016025 C75.7564542,46.9931789 75.760666,47.0193653 75.7634128,47.0473829 C77.7116429,48.2265025 79.1332154,50.3640802 79.3351984,53.2751633 C79.4827944,55.4076136 79.0929286,57.7938704 79.060333,60.1894663 C78.8473626,60.090947 78.8327129,59.6752611 78.7856507,59.4110167 C78.0194702,55.1177322 77.0416012,50.9401806 75.7176324,47.1389437 C75.7249573,47.0858384 75.7073776,47.0574546 75.671852,47.0473829 C75.6634285,47.0085611 75.6896148,47.0041662 75.7176324,47.0016025 Z M80.8920977,50.0238404 C82.0490596,50.7924015 83.2322079,52.0411072 82.9983617,54.053613 C82.7985761,55.7729411 82.087332,57.6568955 81.3499016,59.227712 C80.5795093,60.8688473 79.565016,62.3407782 78.7398703,63.3490454 C79.6194031,59.069495 80.4866667,54.7776755 80.8463174,49.97806 C80.8851391,49.9696364 80.8893509,49.9958228 80.8920977,50.0238404 Z M85.608393,53.3667241 C86.2815477,53.9499662 88.2052395,54.9668401 88.0810831,56.0683161 C88.0301753,56.5202601 87.0907618,57.4234155 86.7988661,57.7625566 C86.2972962,58.3452493 85.869158,58.813308 85.379491,59.2734924 C82.500088,62.2708257 79.274219,64.9213269 75.9465344,67.4701956 C79.437014,63.0390206 83.1889912,58.8687938 85.608393,53.3667241 Z M51.5424574,58.5866035 C51.395594,56.7101571 54.3953079,57.0573555 53.8778064,58.8614689 C53.7595099,59.2734924 53.5064359,59.4073543 53.0535764,59.6399186 C52.1458429,59.6966863 51.5962952,59.275873 51.5424574,58.5866035 Z M34.324821,59.5483578 C32.7085903,58.8920502 29.2963036,59.084511 30.0663296,61.3341591 C30.5063707,62.619306 33.0349129,62.9062575 34.0501387,63.7152884 C34.6544398,64.1968981 35.0230634,64.8142008 35.1034538,65.5928336 C35.4594421,69.0406459 31.7821784,70.3734045 28.234748,69.4393015 C28.3014042,68.8952474 28.2805284,68.2638443 28.3722723,67.745061 C28.6938337,67.7042249 29.1368047,67.9056586 29.654123,67.9739629 C30.5724776,68.0951894 31.5897177,68.1237564 32.2643375,67.7908414 C32.7882482,67.4645188 33.3006222,66.7432031 33.0427871,65.8217355 C32.8314649,65.0663592 31.7862071,64.6574488 30.9363401,64.3106166 C30.0417913,63.9456553 29.182402,63.6367293 28.6469546,63.0283996 C27.903298,62.1842093 27.7461797,60.3753347 28.4636499,59.2734924 C29.437124,57.7788544 31.8616532,57.3695778 34.4165649,57.8539342 C34.3889135,58.4217941 34.3198767,58.9479023 34.324821,59.5483578 Z M67.7065956,60.9221356 C68.4698462,60.9221356 69.2330968,60.9221356 69.9961642,60.9221356 C69.9681466,61.3977023 70.0540306,61.9873536 69.9503838,62.3874742 C69.2025155,62.3874742 68.4546471,62.3874742 67.7065956,62.3874742 C67.7065956,63.1712344 67.7065956,64.2998124 67.7065956,65.4095289 C67.7065956,66.3456462 67.5804249,67.607903 68.1188022,67.9739629 C68.5390662,68.2598157 69.4837902,68.0481272 69.9961642,68.0197433 C69.9961642,68.5235107 69.9961642,69.0270949 69.9961642,69.5308623 C68.5321075,69.7894299 66.7148094,69.9110226 66.1496963,68.8439734 C65.3979824,67.4242321 66.1440195,64.4397173 65.875014,62.4332546 C65.4168439,62.3264947 64.7609026,62.4176892 64.2265539,62.3874742 C64.2265539,61.8989059 64.2265539,61.4105208 64.2265539,60.9221356 C64.7759185,60.9221356 65.3254663,60.9221356 65.875014,60.9221356 C65.875014,60.0061617 65.875014,59.0903709 65.875014,58.1745801 C66.4740046,58.0105032 67.1002802,57.8733451 67.6608153,57.6708127 C67.7675751,58.6631483 67.6761975,59.8536214 67.7065956,60.9221356 Z M41.0561856,67.8824022 C42.3470094,67.0968108 42.6566679,63.3911633 41.4226118,62.5248153 C41.0750472,62.2807143 40.6163277,62.2363989 40.1861752,62.2957303 C38.1733033,62.5746244 38.3135744,65.6558274 38.3545936,68.0197433 C39.3751299,68.2568857 40.344026,68.3158509 41.0561856,67.8824022 Z M38.3545936,73.3315498 C37.7440664,73.3315498 37.133356,73.3315498 36.5228288,73.3315498 C36.416069,69.2865781 36.5076297,65.0432858 36.4770485,60.9221356 C37.0723766,60.9221356 37.6677047,60.9221356 38.2630328,60.9221356 C38.2714564,61.4649079 38.2192668,61.9468837 38.171472,62.4332546 C38.67762,61.6344784 39.4000345,60.827828 40.6899426,60.738831 C43.1472505,60.5698098 44.1699843,62.4858104 44.1699843,64.8143839 C44.1699843,68.0424504 42.1633385,70.2232448 38.400374,69.5766427 C38.293431,70.7367176 38.3849918,72.0951132 38.3545936,73.3315498 Z M50.1228993,62.5705957 C46.7476031,62.2078319 47.7241902,66.5785768 47.5586484,69.5766427 C46.9481211,69.5766427 46.3375939,69.5766427 45.7268836,69.5766427 C45.6201238,66.7833067 45.7116845,63.7916501 45.6811032,60.9221356 C46.2764313,60.9221356 46.8717595,60.9221356 47.4670876,60.9221356 C47.4930908,61.6046296 47.3925571,62.1604035 47.3295633,62.7537172 C47.8391906,61.6302666 48.4660156,60.6234644 50.21446,60.738831 C50.1487194,61.314382 50.1494519,61.9562229 50.1228993,62.5705957 Z M61.2958768,69.5308623 C61.1173333,67.6099173 61.5322867,65.3542262 61.2958768,63.4406061 C61.1810596,62.5097994 60.3674506,62.0258091 59.326954,62.4332546 C57.362243,63.2025481 57.7819576,66.8406237 57.7700547,69.5308623 C57.1443284,69.5308623 56.518419,69.5308623 55.8926927,69.5308623 C55.8926927,66.6611646 55.8926927,63.7916501 55.8926927,60.9221356 C56.4880208,60.9221356 57.0831658,60.9221356 57.6784939,60.9221356 C57.7006516,61.508857 57.6319811,62.0051164 57.5869332,62.5248153 C58.1024203,61.6581011 58.9290309,60.8305748 60.2885252,60.738831 C64.520464,60.4537107 62.8242092,65.7539805 63.1732388,69.5308623 C62.5475125,69.5308623 61.9216031,69.5308623 61.2958768,69.5308623 Z M53.6946849,60.9221356 C53.6946849,63.7916501 53.6946849,66.6611646 53.6946849,69.5308623 C53.0687755,69.5308623 52.4430492,69.5308623 51.8171397,69.5308623 C51.8171397,66.7071281 51.8171397,63.8832109 51.8171397,61.0594768 C51.8131111,60.9944686 51.8096318,60.9298267 51.8631032,60.9221356 C52.4736305,60.9221356 53.0841577,60.9221356 53.6946849,60.9221356 Z M69.1236089,72.6446609 C69.0846041,72.6362373 69.0805754,72.6626068 69.0778286,72.6904413 C72.3793268,70.1007365 76.3102137,67.8694005 79.7472219,65.0890662 C81.3471548,63.7949463 83.032056,62.3938834 84.7385657,61.0136964 C85.9306869,60.0491952 87.0762952,58.8830773 88.309985,57.7625566 C89.1497804,56.9998554 89.7289938,56.4488427 90.9659798,57.1214481 C91.3250812,57.3168388 91.7017622,57.5470225 91.9733314,57.808337 C92.3436032,58.1645084 93.1332232,59.1110636 92.980683,59.8688205 C92.914393,60.1993549 92.2033321,60.5456377 91.7902099,60.8303917 C88.8789436,62.8375869 85.725957,64.7504745 82.6321186,66.462844 C78.9070603,68.5246094 74.9924711,70.0776632 71.2758364,72.0035524 C70.5076415,72.1665306 69.8733085,72.4633706 69.1236089,72.6446609 Z" id="sprint" fill="currentcolor"></path>
    </g>
</svg>
