<?xml version="1.0" encoding="UTF-8"?>
<svg id="target" viewBox="0 0 120 120" version="1.1" xmlns="http://www.w3.org/2000/svg" xmlns:xlink="http://www.w3.org/1999/xlink">
    <!-- Generator: Sketch 51 (57462) - http://www.bohemiancoding.com/sketch -->
    <title>logo / wells fargo</title>
    <desc>Created with Sketch.</desc>
    <defs></defs>
    <g id="logo-/-wells-fargo" stroke="none" stroke-width="1" fill="none" fill-rule="evenodd">
        <path d="M79.1251056,70.5906209 C76.4316755,70.5906209 74.343598,68.9079827 74.343598,66.3561758 C74.343598,63.8160268 76.4316755,62.1554093 79.1082663,62.1554093 C81.7982421,62.1554093 83.8358017,63.8160268 83.8358017,66.3730151 C83.8358017,68.9079827 81.7982421,70.5906209 79.1251056,70.5906209 M81.8491919,66.3898545 C81.8491919,64.2620533 80.686846,63.1523843 79.0914269,63.1523843 C77.5145743,63.1523843 76.3133684,64.2620533 76.3133684,66.3898545 C76.3133684,68.5124743 77.5145743,69.6493453 79.0914269,69.6493453 C80.6630982,69.6493453 81.8323526,68.5124743 81.8323526,66.3898545 L81.8491919,66.3898545 M68.3155478,58.2897025 L68.3155478,57.3816737 L68.4386044,57.3816737 C69.1454247,57.3816737 69.4541459,57.3147481 69.4541459,56.6234718 L69.4368748,51.8553493 C69.4368748,51.1696861 69.1065647,51.0971475 68.4217651,51.0971475 L67.9053588,51.0971475 L67.9053588,50.1891187 L72.800424,50.1891187 L72.800424,51.0971475 L72.2166604,51.1139868 C71.4239163,51.1139868 71.290497,51.1865255 71.290497,51.8553493 L71.290497,57.3320192 L73.2606992,57.3320192 C74.2252909,57.3320192 74.7922151,57.2085308 75.0499865,56.7296892 C75.286169,56.300502 75.3923863,55.8156155 75.3923863,55.0245986 C75.5275328,55.0245986 76.3353891,55.0245986 76.3353891,55.0245986 L76.3353891,58.2897025 L68.3155478,58.2897025 Z M59.2443274,58.2897025 L59.2443274,57.3816737 L59.7097839,57.3816737 C60.4118547,57.3816737 60.7205758,57.3147481 60.7205758,56.6234718 L60.7037365,51.8553493 C60.7037365,51.1696861 60.2939793,51.0971475 59.6035666,51.0971475 L59.1769701,51.0971475 L59.1769701,50.1891187 L64.0651269,50.1891187 L64.0651269,51.0971475 L63.481795,51.1139868 C62.6955276,51.1139868 62.5556316,51.1865255 62.5556316,51.8553493 L62.5556316,57.3320192 L64.5323105,57.3320192 C65.4921526,57.3320192 66.0586451,57.2085308 66.3168482,56.7296892 C66.558212,56.300502 66.659248,55.8156155 66.659248,55.0245986 C66.810802,55.0245986 67.601819,55.0245986 67.601819,55.0245986 L67.601819,58.2897025 L59.2443274,58.2897025 Z M49.6230222,58.2897025 L49.6230222,57.3816737 L50.1001367,57.3648344 C50.8078205,57.3648344 51.2007383,57.2979088 51.2007383,56.6234718 C51.2007383,51.8553493 51.2007383,56.6234718 51.2007383,51.83851 C51.2007383,51.1696861 50.8078205,51.0971475 50.1001367,51.0971475 L49.6230222,51.0971475 L49.6230222,50.1891187 C58.3738633,50.1891187 49.6230222,50.1891187 58.3738633,50.1891187 L58.3738633,53.3311659 L57.4481317,53.3311659 C57.3976137,51.4430015 56.9537461,51.1468019 55.3034912,51.1468019 L53.0357941,51.1468019 L53.0357941,53.5539633 L53.6195577,53.5539633 C54.6523703,53.5539633 54.7875167,53.2089728 54.8717134,51.9887687 L55.8034899,51.9887687 L55.8034899,56.094544 L54.8548741,56.094544 C54.7875167,54.7024923 54.6523703,54.5116465 53.636397,54.5116465 L53.0357941,54.5116465 L53.0357941,57.3320192 L55.645891,57.3320192 C57.1225712,57.3320192 57.4757655,56.6351298 57.604867,55.0245986 L58.5310305,55.0245986 L58.5310305,58.2897025 L49.6230222,58.2897025 Z M49.9710351,51.0971475 C49.3035066,51.0971475 49.0789821,51.3536235 48.8030761,52.094986 L46.4857245,58.2897025 L45.0258837,58.2897025 L43.173125,53.7931682 L41.4054266,58.2897025 L39.8954995,58.2897025 L37.4766802,52.1942949 C37.2007741,51.4926559 36.7918805,51.0971475 36.190414,51.0971475 L36,51.0971475 L36,50.1891187 L40.1204558,50.1891187 L40.1204558,51.0971475 L39.7214931,51.0971475 C39.2612179,51.0971475 39.0535328,51.2193406 39.0703721,51.4758166 C39.0703721,51.5263346 39.0535328,51.6157126 39.1040508,51.7322926 C39.1040508,51.7322926 40.0470536,53.9550849 40.7935974,56.1502433 C40.8717492,56.1614696 40.9054279,56.1614696 40.9054279,56.1614696 L42.5224358,52.1118253 C42.4546467,51.4430015 42.230554,51.0971475 41.5289151,51.0971475 L40.9788301,51.0971475 L40.9788301,50.1891187 L45.3177655,50.1891187 L45.3177655,51.0971475 L44.6329658,51.0971475 C44.2232087,51.0971475 44.0664733,51.1865255 44.0664733,51.4261622 C44.0664733,51.5263346 44.0833127,51.6485277 44.1338307,51.7659713 C44.1338307,51.7659713 45.1105121,54.1221829 45.8229455,56.1731276 C45.9183684,56.1731276 45.9183684,56.1783089 45.9183684,56.1783089 L47.4844266,52.0781467 C47.5854626,51.8048313 47.5854626,51.5988733 47.5854626,51.4589773 C47.5854626,51.2025012 47.3609381,51.0971475 46.900663,51.0971475 L46.3341705,51.0971475 L46.3341705,50.1891187 L50.2797562,50.1891187 L50.2797562,51.0971475 L49.9710351,51.0971475 Z M84.632,55.9218329 C84.632,57.7771822 83.1730227,58.4451425 81.0124065,58.4451425 C79.7101646,58.4451425 78.4571453,57.7046435 78.1821028,57.4481675 L77.9074922,58.2948838 L77.0827965,58.2948838 L77.0827965,55.0362566 L78.0253675,55.0362566 C78.2835706,56.5906567 79.3276094,57.2642301 80.815084,57.3320192 C82.0953053,57.3872868 83.0041976,57.0466141 83.1056654,56.1614696 C83.2235407,55.1359972 82.0953053,55.2033546 81.1523025,55.0302117 L79.7593872,54.7741674 C77.6829677,54.4123376 77.0150074,53.8100075 76.9644894,52.456384 C76.90879,50.9801357 78.249892,50.0168393 80.0525644,50 C80.9282098,50 82.0616266,50.1390325 82.9368403,50.841535 L83.3465974,50.1718476 L84.0650757,50.1718476 L84.0650757,53.0021512 L83.1561834,53.0021512 C82.9588609,51.4317753 81.4105056,50.9529337 80.0866748,50.9857488 C79.1251056,51.0185639 78.490824,51.5703759 78.490824,52.2227922 C78.490824,52.8303036 79.0914269,52.9075919 79.8552419,53.0410112 L81.555583,53.336779 C83.2908981,53.6260702 84.632,53.9831504 84.632,55.9049935 L84.632,55.9218329 Z M45.7612013,65.4705995 C45.7612013,64.8466805 45.6601653,64.2948685 45.4360726,63.848842 C45.1610301,63.3700004 44.5992872,63.2974617 43.6338319,63.2974617 L41.6070668,63.2974617 L41.6070668,65.7210306 L42.2473934,65.7210306 C43.2745928,65.7210306 43.4321917,65.5323437 43.4321917,64.2780291 L44.1843487,64.2780291 L44.1843487,68.3285369 L43.4153524,68.3116976 C43.398513,66.9572105 43.2577535,66.6791456 42.2473934,66.6791456 L41.6070668,66.6791456 L41.6070668,68.7909709 C41.6070668,69.4654079 41.7141477,69.5310381 42.4157867,69.5310381 L43.3587895,69.5310381 L43.3587895,70.4403622 L38.36312,70.4403622 L38.36312,69.5310381 L38.8294401,69.5150624 C39.5310791,69.5150624 39.7720111,69.4485686 39.7720111,68.7741316 C39.7720111,64.0060091 39.7720111,68.7741316 39.7720111,63.988738 C39.7720111,63.3203459 39.5310791,63.2478072 38.8294401,63.2478072 L38.36312,63.2478072 L38.36312,62.3393467 C46.6934096,62.3393467 38.36312,62.3393467 46.6934096,62.3393467 L46.6934096,65.4705995 L45.7612013,65.4705995 Z M50.5608436,70.4403622 L50.5608436,69.5310381 L51.4360572,69.5310381 C51.9023773,69.5310381 52.1269018,69.4813837 52.1269018,69.2033188 C52.1269018,69.1027145 52.0703389,68.9636821 52.0029815,68.8125598 L51.6605817,67.8665346 L48.5003998,67.8665346 L48.0906427,68.880349 C48.0232853,69.0362208 47.9896066,69.1532325 47.9896066,69.2590181 C47.9896066,69.5150624 48.208518,69.5310381 48.6402958,69.5310381 L49.4831261,69.5310381 L49.4831261,70.4403622 L45.2560212,70.4403622 L45.2560212,69.5310381 L45.6264866,69.5310381 C46.2607682,69.5310381 46.4520458,69.3086726 46.6934096,68.7400212 L49.4045426,62.3393467 L51.3915841,62.3393467 L53.98441,68.7400212 C54.2205924,69.3591906 54.4839769,69.5310381 54.9442521,69.5310381 L55.3371699,69.5310381 L55.3371699,70.4403622 L50.5608436,70.4403622 M50.116976,63.7991875 L48.8993625,66.9075561 L51.3518606,66.9075561 L50.116976,63.7991875 M64.4917233,68.5513343 C64.4917233,70.0271509 63.8069237,70.6122098 62.8306741,70.6122098 C61.7140966,70.6122098 60.990437,70.3060793 60.939919,69.1864794 L60.9062403,68.2443402 C60.8552905,66.8855354 60.4217856,66.6126518 59.0189394,66.6126518 L58.1942438,66.6126518 L58.1942438,68.7909709 C58.1942438,69.4654079 58.2957116,69.5310381 59.0021001,69.5310381 L59.7378495,69.5310381 L59.7378495,70.4403622 L54.7922663,70.4403622 L54.7922663,69.5310381 L55.5111764,69.5310381 C55.9774964,69.5310381 56.3583245,69.3643719 56.3583245,68.7741316 L56.3583245,63.988738 C56.3583245,63.3203459 56.2521071,63.2478072 55.5504681,63.2478072 L54.8825078,63.2478072 L54.8825078,62.3393467 L60.455896,62.3393467 C62.5387922,62.3393467 63.4982026,62.9585161 63.4982026,64.2620533 C63.4982026,65.4308759 62.5893102,66.1502178 61.040955,66.3561758 C62.4830929,66.7020298 62.6735069,67.2136866 62.7581354,68.3116976 C62.7749747,68.4179149 62.7581354,68.6407123 62.7581354,68.8125598 C62.791814,69.2918332 62.9822281,69.5150624 63.2235919,69.498223 C63.7175457,69.4654079 63.7564057,69.1027145 63.7175457,68.1389864 L64.4917233,68.1389864 C64.5085627,68.2780189 64.5085627,68.4179149 64.5085627,68.5513343 L64.4917233,68.5513343 M61.6294681,64.4848507 L61.6294681,64.50169 C61.6294681,65.3423615 61.0966543,65.7041913 59.9628057,65.7041913 L58.1942438,65.7210306 L58.1942438,63.2646466 L59.9291271,63.2646466 C61.079815,63.2646466 61.6294681,63.5427115 61.6294681,64.4848507 Z M71.7106168,64.935195 C71.3228803,63.7206039 70.5098427,63.1523843 69.1687407,63.1523843 C67.8483642,63.1523843 66.799144,64.233556 66.8159834,66.2944316 C66.8159834,68.3894176 67.6575184,69.5211073 69.1687407,69.537083 C70.2684789,69.537083 71.2451603,68.9913159 71.2451603,68.0604029 L71.2451603,67.6152399 C71.2451603,67.0694728 71.1100139,67.0694728 70.336268,67.0694728 L69.9312604,67.0694728 L69.9312604,66.1394233 L73.6976584,66.1394233 L73.6976584,67.0694728 L73.3889372,67.0694728 C72.8051736,67.0694728 72.7157956,67.0137734 72.7157956,67.7046179 L72.7157956,70.417478 L72.0530166,70.417478 L71.6264201,69.7439046 C70.8859212,70.3289636 69.825043,70.6014154 68.8755636,70.6014154 C67.7654628,70.6014154 66.8159834,70.2110882 66.0638264,69.4537499 C65.2728094,68.6458936 64.8125343,67.5655855 64.8289418,66.2944316 C64.8289418,65.0414123 65.2391308,64.0444373 66.0469871,63.2417623 C66.748626,62.5509178 67.8146855,62.1614542 68.9157189,62.17743 C69.825043,62.17743 70.8859212,62.4170667 71.4865241,63.0530754 L71.9014626,62.2111087 L72.5469705,62.2111087 L72.5469705,64.9300136 L71.7106168,64.935195 Z" id="Fill-8" fill="currentcolor"></path>
    </g>
</svg>
