<svg id="target" width="24" height="24" viewBox="0 0 24 24" fill="none" xmlns="http://www.w3.org/2000/svg">
<path d="M6.16675 3.04172C6.16675 3.31786 6.39061 3.54172 6.66675 3.54172C6.94289 3.54172 7.16675 3.31786 7.16675 3.04172H6.16675ZM6.66675 0.375055H7.16675C7.16675 0.230665 7.10433 0.0933251 6.99555 -0.00162635L6.66675 0.375055ZM4.66675 0.375055L4.33794 -0.00162635C4.27555 0.0528368 4.22766 0.121946 4.19858 0.199493L4.66675 0.375055ZM3.66675 3.04172L4.0203 3.39527C4.07077 3.3448 4.10985 3.28411 4.13491 3.21728L3.66675 3.04172ZM2.66675 4.04172L2.31319 3.68817C2.26822 3.73315 2.23223 3.7863 2.20718 3.84476L2.66675 4.04172ZM0.207176 8.51143C0.0983977 8.76524 0.215974 9.05918 0.469788 9.16796C0.723603 9.27674 1.01754 9.15916 1.12632 8.90535L0.207176 8.51143ZM8.16675 3.04173C8.16675 3.31787 8.39061 3.54173 8.66675 3.54173C8.94289 3.54173 9.16675 3.31787 9.16675 3.04173H8.16675ZM8.66675 0.417062L8.33794 0.0403811C8.22917 0.135333 8.16675 0.272673 8.16675 0.417062H8.66675ZM10.6667 0.417062L11.134 0.239045C11.1048 0.162482 11.0573 0.09426 10.9956 0.0403811L10.6667 0.417062ZM11.6667 3.04173L11.1995 3.21975C11.2246 3.28562 11.2634 3.34544 11.3132 3.39528L11.6667 3.04173ZM12.6667 4.04173L13.1263 3.84477C13.1013 3.7863 13.0653 3.73315 13.0203 3.68818L12.6667 4.04173ZM14.2072 8.90535C14.316 9.15917 14.6099 9.27675 14.8637 9.16797C15.1175 9.05919 15.2351 8.76525 15.1263 8.51144L14.2072 8.90535ZM4.5 5.70839C4.5 5.98454 4.72386 6.20839 5 6.20839C5.27614 6.20839 5.5 5.98454 5.5 5.70839H4.5ZM9.83333 5.70839C9.83333 5.98454 10.0572 6.20839 10.3333 6.20839C10.6095 6.20839 10.8333 5.98454 10.8333 5.70839H9.83333ZM7.16675 4.47239C7.16675 4.19625 6.9429 3.97239 6.66675 3.97238C6.39061 3.97238 6.16675 4.19623 6.16675 4.47238L7.16675 4.47239ZM9.16675 4.47238C9.16675 4.19624 8.94289 3.97238 8.66675 3.97238C8.39061 3.97238 8.16675 4.19624 8.16675 4.47238H9.16675ZM3.33333 14.5417C5.45042 14.5417 7.16667 12.8255 7.16667 10.7084H6.16667C6.16667 12.2732 4.89814 13.5417 3.33333 13.5417V14.5417ZM7.16667 10.7084C7.16667 8.5913 5.45042 6.87506 3.33333 6.87506V7.87506C4.89814 7.87506 6.16667 9.14359 6.16667 10.7084H7.16667ZM3.33333 6.87506C1.21624 6.87506 -0.5 8.5913 -0.5 10.7084H0.5C0.5 9.14359 1.76853 7.87506 3.33333 7.87506V6.87506ZM-0.5 10.7084C-0.5 12.8255 1.21624 14.5417 3.33333 14.5417V13.5417C1.76853 13.5417 0.5 12.2732 0.5 10.7084H-0.5ZM7.16675 3.04172V0.375055H6.16675V3.04172H7.16675ZM6.99555 -0.00162635C6.23429 -0.666125 5.0992 -0.666125 4.33794 -0.00162635L4.99555 0.751735C5.38007 0.416088 5.95342 0.416088 6.33794 0.751735L6.99555 -0.00162635ZM4.19858 0.199493L3.19858 2.86616L4.13491 3.21728L5.13491 0.550616L4.19858 0.199493ZM3.31319 2.68817L2.31319 3.68817L3.0203 4.39527L4.0203 3.39527L3.31319 2.68817ZM2.20718 3.84476L0.207176 8.51143L1.12632 8.90535L3.12632 4.23868L2.20718 3.84476ZM12.0001 14.5417C14.1172 14.5417 15.8334 12.8255 15.8334 10.7084H14.8334C14.8334 12.2732 13.5649 13.5417 12.0001 13.5417V14.5417ZM15.8334 10.7084C15.8334 8.5913 14.1172 6.87506 12.0001 6.87506V7.87506C13.5649 7.87506 14.8334 9.14359 14.8334 10.7084H15.8334ZM12.0001 6.87506C9.88299 6.87506 8.16675 8.5913 8.16675 10.7084H9.16675C9.16675 9.14359 10.4353 7.87506 12.0001 7.87506V6.87506ZM8.16675 10.7084C8.16675 12.8255 9.88299 14.5417 12.0001 14.5417V13.5417C10.4353 13.5417 9.16675 12.2732 9.16675 10.7084H8.16675ZM9.16675 3.04173V0.417062H8.16675V3.04173H9.16675ZM8.99555 0.793743C9.38007 0.458096 9.95342 0.458096 10.3379 0.793743L10.9956 0.0403811C10.2343 -0.624117 9.0992 -0.624117 8.33794 0.0403811L8.99555 0.793743ZM10.1995 0.595079L11.1995 3.21975L12.134 2.86371L11.134 0.239045L10.1995 0.595079ZM11.3132 3.39528L12.3132 4.39528L13.0203 3.68818L12.0203 2.68818L11.3132 3.39528ZM12.2072 4.23869L14.2072 8.90535L15.1263 8.51144L13.1263 3.84477L12.2072 4.23869ZM5.5 5.70839C5.5 5.63346 5.57476 5.42924 6.00497 5.2138C6.40465 5.01365 6.99154 4.87506 7.66667 4.87506V3.87506C6.86913 3.87506 6.12269 4.03647 5.5572 4.31965C5.02224 4.58755 4.5 5.05 4.5 5.70839H5.5ZM7.66667 4.87506C8.3418 4.87506 8.92869 5.01365 9.32837 5.2138C9.75857 5.42924 9.83333 5.63346 9.83333 5.70839H10.8333C10.8333 5.05 10.3111 4.58755 9.77614 4.31965C9.21065 4.03647 8.4642 3.87506 7.66667 3.87506V4.87506ZM7.16667 10.7084L7.16675 4.47239L6.16675 4.47238L6.16667 10.7084L7.16667 10.7084ZM9.16675 10.7084V4.47238H8.16675V10.7084H9.16675Z" transform="translate(4.33325 4.97894)" fill="currentColor"/>
</svg>
