<svg id="target" width="24" height="24" viewBox="0 0 24 24" fill="none" xmlns="http://www.w3.org/2000/svg">
<g id="flag">

<path id="Vector" d="M-0.5 23C-0.5 23.2761 -0.276142 23.5 0 23.5C0.276142 23.5 0.5 23.2761 0.5 23H-0.5ZM0.5 0C0.5 -0.276142 0.276142 -0.5 0 -0.5C-0.276142 -0.5 -0.5 -0.276142 -0.5 0H0.5ZM0 18.011H-0.5V18.688L0.147043 18.4889L0 18.011ZM3.224 17.019L3.07706 16.5411L3.07696 16.5411L3.224 17.019ZM11.263 18.042L11.5251 17.6162L11.525 17.6161L11.263 18.042ZM19.112 19.122L19.2494 19.6027L19.2494 19.6027L19.112 19.122ZM22.166 18.249L22.0289 17.7682L22.0286 17.7682L22.166 18.249ZM23 17.144H22.5V17.144L23 17.144ZM23 3.98399H23.5L23.5 3.9815L23 3.98399ZM21.534 2.88399L21.6714 3.36475L21.6714 3.36474L21.534 2.88399ZM19.112 3.57599L19.2492 4.05679L19.2494 4.05675L19.112 3.57599ZM11.263 2.49599L11.0006 2.92161L11.001 2.92187L11.263 2.49599ZM3.224 1.46799L3.07716 0.990041L3.07696 0.990102L3.224 1.46799ZM0 2.45999L-0.147043 1.9821L-0.5 2.0907V2.45999H0ZM15.3536 6.64645C15.1583 6.45118 14.8417 6.45118 14.6464 6.64645C14.4512 6.84171 14.4512 7.15829 14.6464 7.35355L15.3536 6.64645ZM18 10L18.3536 10.3536C18.5488 10.1583 18.5488 9.84171 18.3536 9.64645L18 10ZM14.6464 12.6464C14.4512 12.8417 14.4512 13.1583 14.6464 13.3536C14.8417 13.5488 15.1583 13.5488 15.3536 13.3536L14.6464 12.6464ZM8.35355 7.35355C8.54882 7.15829 8.54882 6.84171 8.35355 6.64645C8.15829 6.45118 7.84171 6.45118 7.64645 6.64645L8.35355 7.35355ZM5 10L4.64645 9.64645C4.45118 9.84171 4.45118 10.1583 4.64645 10.3536L5 10ZM7.64645 13.3536C7.84171 13.5488 8.15829 13.5488 8.35355 13.3536C8.54882 13.1583 8.54882 12.8417 8.35355 12.6464L7.64645 13.3536ZM12.9743 7.15811C13.0617 6.89614 12.9201 6.61298 12.6581 6.52566C12.3961 6.43833 12.113 6.57991 12.0257 6.84189L12.9743 7.15811ZM10.0257 12.8419C9.93833 13.1039 10.0799 13.387 10.3419 13.4743C10.6039 13.5617 10.887 13.4201 10.9743 13.1581L10.0257 12.8419ZM0.5 23V0H-0.5V23H0.5ZM0.147043 18.4889L3.37104 17.4969L3.07696 16.5411L-0.147043 17.5331L0.147043 18.4889ZM3.37094 17.4969C4.6387 17.1071 5.97499 16.9921 7.29071 17.1595L7.41694 16.1675C5.96021 15.9822 4.48069 16.1095 3.07706 16.5411L3.37094 17.4969ZM7.29071 17.1595C8.60642 17.327 9.87132 17.773 11.001 18.4679L11.525 17.6161C10.2741 16.8467 8.87368 16.3529 7.41694 16.1675L7.29071 17.1595ZM11.0009 18.4678C12.2216 19.2193 13.5855 19.7084 15.0056 19.9038L15.1419 18.9131C13.8594 18.7366 12.6276 18.2949 11.5251 17.6162L11.0009 18.4678ZM15.0056 19.9038C16.4258 20.0992 17.871 19.9967 19.2494 19.6027L18.9746 18.6412C17.7298 18.997 16.4245 19.0896 15.1419 18.9131L15.0056 19.9038ZM19.2494 19.6027L22.3034 18.7297L22.0286 17.7682L18.9746 18.6412L19.2494 19.6027ZM22.3031 18.7298C22.6479 18.6315 22.9512 18.4236 23.1672 18.1374L22.369 17.535C22.284 17.6476 22.1646 17.7295 22.0289 17.7682L22.3031 18.7298ZM23.1672 18.1374C23.3832 17.8513 23.5 17.5025 23.5 17.144L22.5 17.144C22.5 17.2851 22.454 17.4224 22.369 17.535L23.1672 18.1374ZM23.5 17.144V3.98399H22.5V17.144H23.5ZM23.5 3.9815C23.4987 3.7268 23.4385 3.47585 23.3241 3.24831L22.4307 3.69765C22.4758 3.78728 22.4995 3.88614 22.5 3.98648L23.5 3.9815ZM23.3241 3.24831C23.2096 3.02076 23.044 2.8228 22.8403 2.66994L22.2401 3.46981C22.3204 3.53003 22.3856 3.60801 22.4307 3.69765L23.3241 3.24831ZM22.8403 2.66994C22.6366 2.51707 22.4002 2.41344 22.1497 2.36717L21.9681 3.35053C22.0668 3.36876 22.1599 3.40958 22.2401 3.46981L22.8403 2.66994ZM22.1497 2.36717C21.8993 2.3209 21.6415 2.33325 21.3966 2.40324L21.6714 3.36474C21.7679 3.33717 21.8694 3.33231 21.9681 3.35053L22.1497 2.36717ZM21.3966 2.40323L18.9746 3.09523L19.2494 4.05675L21.6714 3.36475L21.3966 2.40323ZM18.9748 3.09519C17.7298 3.45049 16.4246 3.54284 15.142 3.36636L15.0057 4.35703C16.4257 4.55242 17.8709 4.45017 19.2492 4.05679L18.9748 3.09519ZM15.142 3.36636C13.8595 3.18989 12.6277 2.74845 11.525 2.07012L11.001 2.92187C12.2219 3.67289 13.5857 4.16164 15.0057 4.35703L15.142 3.36636ZM11.5254 2.07037C10.2751 1.2996 8.87478 0.804527 7.41789 0.618226L7.29105 1.61015C8.60679 1.7784 9.87148 2.22551 11.0006 2.92161L11.5254 2.07037ZM7.41789 0.618226C5.96101 0.431924 4.48114 0.558686 3.07716 0.990041L3.37084 1.94594C4.63881 1.55638 5.97531 1.4419 7.29105 1.61015L7.41789 0.618226ZM3.07696 0.990102L-0.147043 1.9821L0.147043 2.93788L3.37104 1.94588L3.07696 0.990102ZM-0.5 2.45999V18.011H0.5V2.45999H-0.5ZM14.6464 7.35355L17.6464 10.3536L18.3536 9.64645L15.3536 6.64645L14.6464 7.35355ZM17.6464 9.64645L14.6464 12.6464L15.3536 13.3536L18.3536 10.3536L17.6464 9.64645ZM7.64645 6.64645L4.64645 9.64645L5.35355 10.3536L8.35355 7.35355L7.64645 6.64645ZM4.64645 10.3536L7.64645 13.3536L8.35355 12.6464L5.35355 9.64645L4.64645 10.3536ZM12.0257 6.84189L10.0257 12.8419L10.9743 13.1581L12.9743 7.15811L12.0257 6.84189Z" transform="translate(0.5 0.5)" fill="currentColor"/>
</g>
</svg>
