<svg id="target" width="24" height="24" viewBox="0 0 24 24" fill="none" xmlns="http://www.w3.org/2000/svg">
<path d="M6.06221 1.21477C6.3362 1.18042 6.53047 0.93045 6.49612 0.656453C6.46176 0.382456 6.21179 0.188188 5.93779 0.222543L6.06221 1.21477ZM0 7.16666L-0.5 7.16666L-0.5 7.16667L0 7.16666ZM2.66667 12.4073H3.16667C3.16667 12.2475 3.09023 12.0973 2.96101 12.0031L2.66667 12.4073ZM2.16667 15.3333C2.16667 15.6095 2.39052 15.8333 2.66667 15.8333C2.94281 15.8333 3.16667 15.6095 3.16667 15.3333H2.16667ZM8.83333 15.3333C8.83333 15.6095 9.05719 15.8333 9.33333 15.8333C9.60948 15.8333 9.83333 15.6095 9.83333 15.3333H8.83333ZM9.33333 14V13.5C9.05719 13.5 8.83333 13.7238 8.83333 14H9.33333ZM12.6667 9.99998V9.49998C12.3905 9.49998 12.1667 9.72384 12.1667 9.99998H12.6667ZM14.2073 9.99998L14.2073 10.5L14.209 10.5L14.2073 9.99998ZM14.5233 9.56398L14.999 9.40998L14.999 9.40995L14.5233 9.56398ZM8.07231 0.252571C7.79907 0.212636 7.54519 0.401766 7.50526 0.675006C7.46532 0.948245 7.65445 1.20212 7.92769 1.24206L8.07231 0.252571ZM4.03777 8.82889L3.54467 8.91167L4.03777 8.82889ZM9.95497 8.82889L10.4481 8.91167L10.4481 8.91167L9.95497 8.82889ZM6.05911 6.01449C6.31518 5.91113 6.43897 5.61975 6.33561 5.36368C6.23224 5.10762 5.94087 4.98383 5.6848 5.08719L6.05911 6.01449ZM8.32989 5.09614C8.07453 4.99105 7.78232 5.11287 7.67724 5.36824C7.57215 5.62361 7.69397 5.91581 7.94934 6.0209L8.32989 5.09614ZM5.93779 0.222543C2.47928 0.656191 -0.5 3.57153 -0.5 7.16666H0.5C0.5 4.14312 3.03406 1.59446 6.06221 1.21477L5.93779 0.222543ZM-0.5 7.16667C-0.499932 9.39925 0.5676 11.4972 2.37232 12.8115L2.96101 12.0031C1.41472 10.8771 0.500059 9.07952 0.5 7.16664L-0.5 7.16667ZM2.16667 12.4073V15.3333H3.16667V12.4073H2.16667ZM9.83333 15.3333V14H8.83333V15.3333H9.83333ZM9.33333 14.5H10.6667V13.5H9.33333V14.5ZM10.6667 14.5C12.0474 14.5 13.1667 13.3807 13.1667 12H12.1667C12.1667 12.8284 11.4951 13.5 10.6667 13.5V14.5ZM13.1667 12V9.99998H12.1667V12H13.1667ZM12.6667 10.5H14.2073V9.49998H12.6667V10.5ZM14.209 10.5C14.4751 10.4991 14.7248 10.3711 14.881 10.1557L14.0713 9.56884C14.1025 9.52575 14.1524 9.50016 14.2056 9.49998L14.209 10.5ZM14.881 10.1557C15.0371 9.94023 15.081 9.66314 14.999 9.40998L14.0476 9.71798C14.0312 9.66735 14.04 9.61193 14.0713 9.56884L14.881 10.1557ZM14.999 9.40995C14.3739 7.47957 13.8052 5.35768 12.8424 3.6672C11.858 1.93871 10.4295 0.597077 8.07231 0.252571L7.92769 1.24206C9.90388 1.53089 11.0987 2.62625 11.9734 4.1621C12.8698 5.73594 13.3961 7.70572 14.0477 9.71801L14.999 9.40995ZM6.4967 5V1H5.4967V5H6.4967ZM7.4967 1V5H8.4967V1H7.4967ZM6.9967 0.5C7.27285 0.5 7.4967 0.723858 7.4967 1H8.4967C8.4967 0.171573 7.82513 -0.5 6.9967 -0.5V0.5ZM6.4967 1C6.4967 0.723858 6.72056 0.5 6.9967 0.5V-0.5C6.16828 -0.5 5.4967 0.171573 5.4967 1H6.4967ZM6.9967 5.5C6.72056 5.5 6.4967 5.27614 6.4967 5H5.4967C5.4967 5.82843 6.16828 6.5 6.9967 6.5V5.5ZM6.9967 6.5C7.82513 6.5 8.4967 5.82843 8.4967 5H7.4967C7.4967 5.27614 7.27285 5.5 6.9967 5.5V6.5ZM6.9967 9.83331C7.82513 9.83331 8.4967 9.16174 8.4967 8.33331H7.4967C7.4967 8.60946 7.27285 8.83331 6.9967 8.83331V9.83331ZM8.4967 8.33331C8.4967 7.50489 7.82513 6.83331 6.9967 6.83331V7.83331C7.27285 7.83331 7.4967 8.05717 7.4967 8.33331H8.4967ZM6.9967 6.83331C6.16828 6.83331 5.4967 7.50489 5.4967 8.33331H6.4967C6.4967 8.05717 6.72056 7.83331 6.9967 7.83331V6.83331ZM5.4967 8.33331C5.4967 9.16174 6.16828 9.83331 6.9967 9.83331V8.83331C6.72056 8.83331 6.4967 8.60946 6.4967 8.33331H5.4967ZM3.54467 8.91167C3.82768 10.5975 5.287 11.8322 6.99637 11.8322V10.8322C5.77539 10.8322 4.73302 9.95024 4.53087 8.74611L3.54467 8.91167ZM6.99637 11.8322C8.70575 11.8322 10.1651 10.5975 10.4481 8.91167L9.46187 8.74611C9.25972 9.95024 8.21735 10.8322 6.99637 10.8322V11.8322ZM5.6848 5.08719C4.17034 5.69852 3.27165 7.28537 3.54467 8.91167L4.53087 8.74611C4.33588 7.58462 4.97778 6.45098 6.05911 6.01449L5.6848 5.08719ZM10.4481 8.91167C10.7198 7.29324 9.83108 5.7139 8.32989 5.09614L7.94934 6.0209C9.02117 6.46197 9.65591 7.59026 9.46187 8.74611L10.4481 8.91167Z" transform="translate(4.73328 4.33334)" fill="currentColor"/>
</svg>
