<svg id="target" width="24" height="24" viewBox="0 0 24 24" fill="none" xmlns="http://www.w3.org/2000/svg">
<path fill-rule="evenodd" clip-rule="evenodd" d="M8.178 9.06468e-06C5.58095 -0.00411806 3.18619 1.40132 1.92342 3.6707C0.660654 5.94008 0.728773 8.71596 2.10133 10.9207L0 15.3333L4.41267 13.232C6.99203 14.831 10.2996 14.6282 12.6643 12.7261C15.029 10.824 15.936 7.6367 14.927 4.77458C13.918 1.91246 11.2128 -0.00137646 8.178 9.06468e-06V9.06468e-06Z" transform="translate(4.33333 4.33331)" stroke="currentColor" stroke-linecap="round" stroke-linejoin="round"/>
<path d="M0.5 0C0.223858 0 0 0.223858 0 0.5C0 0.776142 0.223858 1 0.5 1C0.776142 1 1 0.776142 1 0.5C1 0.223858 0.776142 0 0.5 0Z" transform="translate(9.33333 10)" fill="currentColor"/>
<path d="M0.5 0C0.223858 0 0 0.223858 0 0.5C0 0.776142 0.223858 1 0.5 1C0.776142 1 1 0.776142 1 0.5C1 0.223858 0.776142 0 0.5 0Z" transform="translate(14.6667 10)" fill="currentColor"/>
<path fill-rule="evenodd" clip-rule="evenodd" d="M3.33333 0C3.33333 0.920475 2.58714 1.66667 1.66667 1.66667C0.746192 1.66667 0 0.920475 0 0H3.33333Z" transform="translate(10.8333 12.6666)" stroke="currentColor" stroke-linecap="round" stroke-linejoin="round"/>
</svg>
