<svg width="24" height="26" viewBox="0 0 24 26" fill="none" xmlns="http://www.w3.org/2000/svg">
<g id="rose">
<rect width="24" height="24" fill="white" transform="translate(0 1)"/>
<path id="Vector" d="M0.500305 3.56387C0.500305 3.28773 0.276448 3.06387 0.000305186 3.06387C-0.275837 3.06387 -0.499695 3.28773 -0.499695 3.56387H0.500305ZM0.000305186 7.56387H-0.499695H0.000305186ZM14.0003 7.56387H14.5003H14.0003ZM12.0003 16.5639H12.5003C12.5003 16.2877 12.2764 16.0639 12.0003 16.0639V16.5639ZM2.00031 16.5639V16.0639C1.72416 16.0639 1.50031 16.2877 1.50031 16.5639H2.00031ZM6.50031 23.0639C6.50031 23.34 6.72416 23.5639 7.00031 23.5639C7.27645 23.5639 7.50031 23.34 7.50031 23.0639H6.50031ZM2.00024 2.58512C2.2583 2.48685 2.38784 2.19798 2.28956 1.93992C2.19129 1.68185 1.90242 1.55232 1.64435 1.6506L2.00024 2.58512ZM9.0003 3.56386C9.27644 3.56386 9.5003 3.34 9.5003 3.06386C9.5003 2.78772 9.27644 2.56386 9.0003 2.56386V3.56386ZM-0.499695 3.56387V7.56387H0.500305V3.56387H-0.499695ZM-0.499695 7.56387C-0.499695 9.55299 0.290481 11.4606 1.697 12.8672L2.40411 12.1601C1.18512 10.9411 0.500305 9.28778 0.500305 7.56387H-0.499695ZM1.697 12.8672C3.10353 14.2737 5.01118 15.0639 7.00031 15.0639V14.0639C5.2764 14.0639 3.6231 13.379 2.40411 12.1601L1.697 12.8672ZM7.00031 15.0639C8.98943 15.0639 10.8971 14.2737 12.3036 12.8672L11.5965 12.1601C10.3775 13.379 8.72421 14.0639 7.00031 14.0639V15.0639ZM12.3036 12.8672C13.7101 11.4606 14.5003 9.55299 14.5003 7.56387H13.5003C13.5003 9.28778 12.8155 10.9411 11.5965 12.1601L12.3036 12.8672ZM14.5003 7.56387V3.56387H13.5003V7.56387H14.5003ZM12.0003 16.0639C10.5416 16.0639 9.14267 16.6433 8.11122 17.6748L8.81833 18.3819C9.66224 17.538 10.8068 17.0639 12.0003 17.0639V16.0639ZM8.11122 17.6748C7.07977 18.7062 6.50031 20.1052 6.50031 21.5639H7.50031C7.50031 20.3704 7.97441 19.2258 8.81833 18.3819L8.11122 17.6748ZM7.00031 22.0639C8.459 22.0639 9.85794 21.4844 10.8894 20.453L10.1823 19.7458C9.33837 20.5898 8.19378 21.0639 7.00031 21.0639V22.0639ZM10.8894 20.453C11.9208 19.4215 12.5003 18.0226 12.5003 16.5639H11.5003C11.5003 17.7573 11.0262 18.9019 10.1823 19.7458L10.8894 20.453ZM2.00031 17.0639C2.59125 17.0639 3.17642 17.1803 3.72238 17.4064L4.10506 16.4825C3.43777 16.2061 2.72258 16.0639 2.00031 16.0639V17.0639ZM3.72238 17.4064C4.26835 17.6326 4.76442 17.964 5.18229 18.3819L5.88939 17.6748C5.37867 17.1641 4.77235 16.7589 4.10506 16.4825L3.72238 17.4064ZM5.18229 18.3819C5.60015 18.7998 5.93162 19.2958 6.15776 19.8418L7.08164 19.4591C6.80524 18.7918 6.40011 18.1855 5.88939 17.6748L5.18229 18.3819ZM6.15776 19.8418C6.38391 20.3878 6.50031 20.9729 6.50031 21.5639H7.50031C7.50031 20.8416 7.35804 20.1264 7.08164 19.4591L6.15776 19.8418ZM7.00031 21.0639C5.80683 21.0639 4.66224 20.5898 3.81832 19.7458L3.11122 20.453C4.14267 21.4844 5.54161 22.0639 7.00031 22.0639V21.0639ZM3.81832 19.7458C2.97441 18.9019 2.50031 17.7573 2.50031 16.5639H1.50031C1.50031 18.0226 2.07977 19.4215 3.11122 20.453L3.81832 19.7458ZM7.50031 23.0639V14.5639H6.50031V23.0639H7.50031ZM1.64435 1.6506C1.08245 1.86458 0.631163 2.09015 0.29211 2.32942C-0.0409326 2.56446 -0.308989 2.84325 -0.431013 3.17914C-0.563764 3.54455 -0.496894 3.90235 -0.301857 4.20286C-0.120116 4.48289 0.166747 4.70809 0.487954 4.89154C1.13396 5.26049 2.0787 5.54983 3.1819 5.74868C4.29447 5.94922 5.60337 6.06386 7.0003 6.06386V5.06386C5.65522 5.06386 4.40625 4.95325 3.35929 4.76454C2.30296 4.57414 1.4865 4.31023 0.983889 4.02318C0.730784 3.87863 0.596475 3.75015 0.536961 3.65845C0.490745 3.58724 0.496279 3.55529 0.508887 3.52059C0.532223 3.45635 0.616221 3.32464 0.868705 3.14645C1.11518 2.97251 1.48289 2.78214 2.00024 2.58512L1.64435 1.6506ZM7.0003 6.06386C8.96642 6.06386 10.7648 5.8356 12.0876 5.45707C12.7456 5.26878 13.3143 5.0354 13.7299 4.75488C14.1276 4.48646 14.5003 4.09323 14.5003 3.56387H13.5003C13.5003 3.58451 13.4812 3.71628 13.1705 3.92599C12.8777 4.12359 12.4213 4.32145 11.8125 4.49566C10.6018 4.84213 8.90018 5.06386 7.0003 5.06386V6.06386ZM14.5003 3.56387C14.5003 2.23769 13.7341 1.27848 12.6987 0.645145C11.6742 0.0184831 10.3423 -0.323395 9.04759 -0.446394C7.75064 -0.569605 6.43672 -0.478309 5.42724 -0.193974C4.92489 -0.0524785 4.4658 0.145703 4.1216 0.415409C3.77328 0.688341 3.5003 1.07238 3.5003 1.56386H4.5003C4.5003 1.48034 4.53982 1.35813 4.73837 1.20255C4.94105 1.04374 5.26321 0.891139 5.69836 0.768573C6.56388 0.524784 7.74996 0.434833 8.95301 0.549124C10.1583 0.663628 11.3264 0.978002 12.1769 1.49822C13.0165 2.01175 13.5003 2.69005 13.5003 3.56387H14.5003ZM3.5003 1.56386C3.5003 2.23179 3.89689 2.68343 4.38169 2.96263C4.84961 3.23211 5.44938 3.37652 6.02919 3.45878C7.19168 3.62369 8.49988 3.56386 9.0003 3.56386V2.56386C8.43172 2.56386 7.23992 2.62053 6.16965 2.46869C5.63309 2.39257 5.1833 2.2703 4.88075 2.09606C4.59508 1.93154 4.5003 1.76243 4.5003 1.56386H3.5003Z" transform="translate(4.99985 1.46808)" fill="currentColor"/>
</g>
</svg>
