<svg id="target" width="24" height="24" viewBox="0 0 24 24" fill="none" xmlns="http://www.w3.org/2000/svg">
<path d="M1.33333 12.6667H1.83333C1.83333 12.3905 1.60948 12.1667 1.33333 12.1667V12.6667ZM11.3333 12.6667V12.1667C11.0572 12.1667 10.8333 12.3905 10.8333 12.6667H11.3333ZM5.83331 15.3333C5.83331 15.6094 6.05717 15.8333 6.33331 15.8333C6.60946 15.8333 6.83331 15.6094 6.83331 15.3333H5.83331ZM6.83331 12.6666C6.83331 12.3905 6.60946 12.1666 6.33331 12.1666C6.05717 12.1666 5.83331 12.3905 5.83331 12.6666H6.83331ZM8.5 15.3333C8.5 15.6094 8.72386 15.8333 9 15.8333C9.27614 15.8333 9.5 15.6094 9.5 15.3333H8.5ZM9.5 12.6666C9.5 12.3905 9.27614 12.1666 9 12.1666C8.72386 12.1666 8.5 12.3905 8.5 12.6666H9.5ZM3.16669 15.3333C3.16669 15.6094 3.39054 15.8333 3.66669 15.8333C3.94283 15.8333 4.16669 15.6094 4.16669 15.3333H3.16669ZM4.16669 12.6666C4.16669 12.3905 3.94283 12.1666 3.66669 12.1666C3.39054 12.1666 3.16669 12.3905 3.16669 12.6666H4.16669ZM2.5 4C2.5 3.72386 2.27614 3.5 2 3.5C1.72386 3.5 1.5 3.72386 1.5 4H2.5ZM0 6.16667C-0.276142 6.16667 -0.5 6.39052 -0.5 6.66667C-0.5 6.94281 -0.276142 7.16667 0 7.16667V6.16667ZM11.1667 4C11.1667 3.72386 10.9428 3.5 10.6667 3.5C10.3905 3.5 10.1667 3.72386 10.1667 4H11.1667ZM12.6667 7.16667C12.9428 7.16667 13.1667 6.94281 13.1667 6.66667C13.1667 6.39052 12.9428 6.16667 12.6667 6.16667V7.16667ZM6.50002 11.3333C6.50002 11.6094 6.72388 11.8333 7.00002 11.8333C7.27616 11.8333 7.50002 11.6094 7.50002 11.3333H6.50002ZM5.16669 11.3333C5.16669 11.6094 5.39054 11.8333 5.66669 11.8333C5.94283 11.8333 6.16669 11.6094 6.16669 11.3333H5.16669ZM6.33333 -0.5C2.55939 -0.5 -0.5 2.55939 -0.5 6.33333H0.5C0.5 3.11167 3.11167 0.5 6.33333 0.5V-0.5ZM-0.5 6.33333V11.3333H0.5V6.33333H-0.5ZM-0.5 11.3333C-0.5 12.3459 0.320811 13.1667 1.33333 13.1667V12.1667C0.873096 12.1667 0.5 11.7936 0.5 11.3333H-0.5ZM0.833333 12.6667V14H1.83333V12.6667H0.833333ZM0.833333 14C0.833333 15.0125 1.65414 15.8333 2.66667 15.8333V14.8333C2.20643 14.8333 1.83333 14.4602 1.83333 14H0.833333ZM2.66667 15.8333H10V14.8333H2.66667V15.8333ZM10 15.8333C11.0125 15.8333 11.8333 15.0125 11.8333 14H10.8333C10.8333 14.4602 10.4602 14.8333 10 14.8333V15.8333ZM11.8333 14V12.6667H10.8333V14H11.8333ZM11.3333 13.1667C12.3459 13.1667 13.1667 12.3459 13.1667 11.3333H12.1667C12.1667 11.7936 11.7936 12.1667 11.3333 12.1667V13.1667ZM13.1667 11.3333V6.33333H12.1667V11.3333H13.1667ZM13.1667 6.33333C13.1667 2.55939 10.1073 -0.5 6.33333 -0.5V0.5C9.55499 0.5 12.1667 3.11167 12.1667 6.33333H13.1667ZM6.83331 15.3333V12.6666H5.83331V15.3333H6.83331ZM9.5 15.3333V12.6666H8.5V15.3333H9.5ZM4.16669 15.3333V12.6666H3.16669V15.3333H4.16669ZM9.66667 11.1667C10.8633 11.1667 11.8333 10.1967 11.8333 9.00004H10.8333C10.8333 9.64437 10.311 10.1667 9.66667 10.1667V11.1667ZM11.8333 9.00004C11.8333 7.80342 10.8633 6.83337 9.66667 6.83337V7.83337C10.311 7.83337 10.8333 8.35571 10.8333 9.00004H11.8333ZM9.66667 6.83337C8.47005 6.83337 7.5 7.80342 7.5 9.00004H8.5C8.5 8.35571 9.02233 7.83337 9.66667 7.83337V6.83337ZM7.5 9.00004C7.5 10.1967 8.47005 11.1667 9.66667 11.1667V10.1667C9.02233 10.1667 8.5 9.64437 8.5 9.00004H7.5ZM2.99998 11.1667C4.1966 11.1667 5.16665 10.1967 5.16665 9.00004H4.16665C4.16665 9.64437 3.64431 10.1667 2.99998 10.1667V11.1667ZM5.16665 9.00004C5.16665 7.80342 4.1966 6.83337 2.99998 6.83337V7.83337C3.64431 7.83337 4.16665 8.35571 4.16665 9.00004H5.16665ZM2.99998 6.83337C1.80336 6.83337 0.833313 7.80342 0.833313 9.00004H1.83331C1.83331 8.35571 2.35565 7.83337 2.99998 7.83337V6.83337ZM0.833313 9.00004C0.833313 10.1967 1.80336 11.1667 2.99998 11.1667V10.1667C2.35565 10.1667 1.83331 9.64437 1.83331 9.00004H0.833313ZM1.5 4V4.66667H2.5V4H1.5ZM1.5 4.66667C1.5 5.49509 0.828427 6.16667 0 6.16667V7.16667C1.38071 7.16667 2.5 6.04738 2.5 4.66667H1.5ZM10.1667 4V4.66667H11.1667V4H10.1667ZM10.1667 4.66667C10.1667 6.04738 11.286 7.16667 12.6667 7.16667V6.16667C11.8383 6.16667 11.1667 5.49509 11.1667 4.66667H10.1667ZM7.50002 11.3333C7.50002 10.689 6.97769 10.1666 6.33335 10.1666V11.1666C6.4254 11.1666 6.50002 11.2412 6.50002 11.3333H7.50002ZM6.33335 10.1666C5.68902 10.1666 5.16669 10.689 5.16669 11.3333H6.16669C6.16669 11.2412 6.24131 11.1666 6.33335 11.1666V10.1666Z" transform="translate(5.66669 4.33337)" fill="currentcolor"/>
</svg>
