<svg id="target" width="25" height="24" viewBox="0 0 25 24" fill="none" xmlns="http://www.w3.org/2000/svg">
<g id="video">
<rect width="24" height="24" fill="white" transform="translate(0.501747)"/>
<g id="video-player-1 2">
<g id="Group">
<path id="Vector" d="M23.3728 1.91825C23.2568 1.26225 22.7358 0.76125 22.0748 0.67125C15.3908 -0.22375 8.61275 -0.22375 1.92775 0.67125C1.26675 0.76125 0.74475 1.26325 0.63075 1.91825C-0.21025 6.61725 -0.21025 11.3832 0.63075 16.0812C0.74575 16.7362 1.26775 17.2382 1.92875 17.3282C5.27075 17.7752 8.63575 17.9993 12.0017 17.9993C15.3667 17.9993 18.7327 17.7752 22.0748 17.3282C22.7358 17.2392 23.2578 16.7383 23.3728 16.0823C24.2138 11.3833 24.2138 6.61725 23.3728 1.91825ZM22.3888 15.9072C22.3487 16.1342 22.1688 16.3062 21.9428 16.3382C15.3488 17.2192 8.65875 17.2202 2.06375 16.3382C1.83575 16.3072 1.65575 16.1343 1.61575 15.9062C0.79575 11.3232 0.79575 6.67625 1.61575 2.09225C1.65475 1.86625 1.83475 1.69325 2.06175 1.66325C5.35975 1.22125 8.68075 1.00025 12.0017 1.00025C15.3228 1.00025 18.6448 1.22125 21.9408 1.66225C22.1688 1.69325 22.3477 1.86625 22.3878 2.09225V2.09325C23.2087 6.67625 23.2087 11.3232 22.3888 15.9072Z" transform="translate(0.5 3.00037)" fill="currentColor"/>
<path id="Vector_2" d="M7.476 3.52085L1.556 0.13685C1.556 0.13685 1.556 0.13685 1.555 0.13685C1.056 -0.14815 0.419 0.0268501 0.138 0.52385C0.0469995 0.67985 0 0.85885 0 1.03885V7.80885C0.001 8.08585 0.11 8.34685 0.307 8.54285C0.503 8.73785 0.763 8.84585 1.038 8.84585C1.187 8.87585 1.4 8.79885 1.555 8.70885L7.474 5.32485C7.716 5.18685 7.889 4.96385 7.962 4.69685C8.035 4.42985 8 4.14885 7.861 3.90685C7.77 3.74485 7.635 3.61085 7.476 3.52085ZM1 7.80685L1.005 1.02085C1.012 1.00885 1.028 1.00185 1.043 1.00185C1.049 1.00185 1.054 1.00285 1.059 1.00585L6.979 4.45685L1 7.80685Z" transform="translate(8.50175 7.57776)" fill="currentColor"/>
</g>
</g>
</g>
</svg>
