<svg id="target" width="24" height="24" viewBox="0 0 24 24" fill="none" xmlns="http://www.w3.org/2000/svg">
<path d="M15.2497 4.11467L15.6271 3.78666L15.6249 3.78413L15.2497 4.11467ZM0.0817464 4.11467L-0.293422 3.78412L-0.295634 3.78667L0.0817464 4.11467ZM0.0817464 4.552L-0.295643 4.88001L-0.293413 4.88254L0.0817464 4.552ZM15.2497 4.552L15.6249 4.88255L15.6271 4.88L15.2497 4.552ZM7.66573 7.16667C9.23054 7.16667 10.4991 5.89814 10.4991 4.33333H9.49906C9.49906 5.34586 8.67825 6.16667 7.66573 6.16667V7.16667ZM10.4991 4.33333C10.4991 2.76853 9.23054 1.5 7.66573 1.5V2.5C8.67825 2.5 9.49906 3.32081 9.49906 4.33333H10.4991ZM7.66573 1.5C6.10092 1.5 4.8324 2.76853 4.8324 4.33333H5.8324C5.8324 3.32081 6.65321 2.5 7.66573 2.5V1.5ZM4.8324 4.33333C4.8324 5.89814 6.10092 7.16667 7.66573 7.16667V6.16667C6.65321 6.16667 5.8324 5.34586 5.8324 4.33333H4.8324ZM15.6249 3.78413C15.2224 3.32733 14.2228 2.26593 12.8409 1.31538C11.4638 0.368183 9.66203 -0.5 7.66575 -0.5V0.5C9.37747 0.5 10.98 1.24915 12.2741 2.13929C13.5634 3.02607 14.5017 4.022 14.8746 4.4452L15.6249 3.78413ZM7.66575 -0.5C5.66947 -0.5 3.86769 0.368183 2.49064 1.31538C1.10869 2.26593 0.10905 3.32733 -0.293413 3.78413L0.456906 4.4452C0.829776 4.022 1.76814 3.02607 3.05736 2.13929C4.35146 1.24915 5.95403 0.5 7.66575 0.5V-0.5ZM-0.295634 3.78667C-0.568122 4.10018 -0.568122 4.56649 -0.295634 4.88L0.459127 4.224C0.513624 4.2867 0.513624 4.37996 0.459127 4.44267L-0.295634 3.78667ZM-0.293413 4.88254C0.10905 5.33933 1.10869 6.40073 2.49064 7.35129C3.86769 8.29848 5.66947 9.16667 7.66575 9.16667V8.16667C5.95403 8.16667 4.35146 7.41752 3.05736 6.52738C1.76814 5.6406 0.829776 4.64467 0.456906 4.22146L-0.293413 4.88254ZM7.66575 9.16667C9.66203 9.16667 11.4638 8.29848 12.8409 7.35129C14.2228 6.40073 15.2224 5.33933 15.6249 4.88254L14.8746 4.22146C14.5017 4.64467 13.5634 5.6406 12.2741 6.52738C10.98 7.41752 9.37747 8.16667 7.66575 8.16667V9.16667ZM15.6271 4.88C15.8996 4.56649 15.8996 4.10018 15.6271 3.78667L14.8724 4.44267C14.8179 4.37996 14.8179 4.2867 14.8724 4.224L15.6271 4.88Z" transform="translate(4.33423 7.66669)" fill="currentcolor"/>
</svg>
