
<svg version="1.1" id="target" xmlns="http://www.w3.org/2000/svg" xmlns:xlink="http://www.w3.org/1999/xlink" x="0px" y="0px"
	 viewBox="0 0 24 24" style="enable-background:new 0 0 24 24;" xml:space="preserve">
<title>love-it-phone</title>
<g>
	<circle cx="7" cy="21.5" r="0.75"/>
	<path d="M2.5,24C1.122,24,0,22.879,0,21.5v-19C0,1.122,1.122,0,2.5,0h9C11.776,0,12,0.224,12,0.5S11.776,1,11.5,1h-9
		C1.673,1,1,1.673,1,2.5v13.585c0.672-0.638,1.916-1.095,3.513-1.682l0.532-0.196c-0.001,0-0.002,0-0.003,0
		c-0.012,0,0.019-0.051,0.046-0.155c0.109-0.414,0.015-0.929-0.037-1.023c-0.88-0.951-1.323-2.269-1.194-3.592
		C3.774,8.672,4.038,7.829,4.579,7.172c0.548-0.665,1.322-1.076,2.18-1.159C6.835,6.006,6.912,6.001,6.989,6
		c0.88,0.021,1.686,0.376,2.28,1.001c0.594,0.624,0.909,1.442,0.888,2.303c-0.001,0.076-0.006,0.153-0.014,0.23
		c0.131,1.241-0.312,2.543-1.216,3.521c-0.03,0.069-0.124,0.585-0.015,0.998c0.029,0.109,0.062,0.16,0.073,0.171l0.487,0.174
		c1.613,0.594,2.863,1.054,3.528,1.681V14.5c0-0.275,0.225-0.5,0.5-0.5s0.5,0.225,0.5,0.5v7c0,1.379-1.122,2.5-2.5,2.5H2.5z M1,21.5
		C1,22.327,1.673,23,2.5,23h9c0.827,0,1.5-0.673,1.5-1.5v-1.499L1,20V21.5z M12.976,19c-0.06-0.688-0.228-1.361-0.501-2.004
		c-0.264-0.524-1.763-1.076-3.349-1.66l-0.517-0.19c-0.23-0.084-0.534-0.305-0.672-0.872c-0.13-0.529-0.097-1.505,0.252-1.892
		c0.711-0.771,1.06-1.808,0.958-2.848l0.01-0.254C9.172,8.685,8.954,8.121,8.544,7.69C8.136,7.261,7.586,7.016,6.995,7
		C6.954,7.001,6.905,7.004,6.856,7.009C6.264,7.066,5.729,7.35,5.351,7.809C4.973,8.267,4.796,8.846,4.853,9.437
		c-0.102,1.135,0.237,2.163,0.954,2.94c0.353,0.39,0.387,1.366,0.256,1.896c-0.139,0.568-0.443,0.788-0.673,0.872l-0.532,0.196
		c-1.579,0.581-3.07,1.129-3.346,1.682C1.249,17.644,1.084,18.311,1.024,19H12.976z"/>
	<path d="M17.5,10.776c-0.26,0-0.505-0.099-0.691-0.277L13.729,7.29c-0.761-0.76-0.949-1.926-0.464-2.898
		c0.301-0.601,0.817-1.049,1.455-1.262C14.98,3.043,15.249,3,15.52,3c0.392,0,0.77,0.09,1.123,0.267
		c0.241,0.121,0.462,0.279,0.654,0.47L17.5,3.94l0.203-0.203C18.179,3.262,18.811,3,19.482,3c0.673,0,1.306,0.262,1.78,0.737
		c0.192,0.191,0.351,0.412,0.472,0.654c0.485,0.972,0.295,2.14-0.472,2.906l-3.04,3.171C18.031,10.667,17.775,10.776,17.5,10.776z
		 M15.519,4c-0.163,0-0.325,0.026-0.481,0.079c-0.385,0.128-0.696,0.398-0.877,0.761c-0.293,0.586-0.179,1.29,0.284,1.751
		L17.5,9.777l3.048-3.179c0.469-0.468,0.585-1.173,0.292-1.759c-0.072-0.146-0.168-0.278-0.284-0.394C20.27,4.158,19.889,4,19.483,4
		s-0.786,0.158-1.073,0.444l-0.557,0.557c-0.091,0.091-0.22,0.144-0.354,0.144s-0.263-0.052-0.354-0.144L16.59,4.444
		c-0.116-0.115-0.248-0.211-0.394-0.284C15.981,4.054,15.753,4,15.519,4z"/>
	<path d="M17.5,13c-3.584,0-6.5-2.916-6.5-6.5S13.916,0,17.5,0S24,2.916,24,6.5S21.084,13,17.5,13z M17.5,1
		C14.468,1,12,3.467,12,6.5s2.468,5.5,5.5,5.5S23,9.533,23,6.5S20.532,1,17.5,1z"/>
	<path d="M5.5,3C5.224,3,5,2.776,5,2.5S5.224,2,5.5,2h2C7.776,2,8,2.224,8,2.5S7.776,3,7.5,3H5.5z"/>
	<circle cx="3.25" cy="2.25" r="0.75"/>
</g>
</svg>
