
<svg version="1.1" id="target" xmlns="http://www.w3.org/2000/svg" xmlns:xlink="http://www.w3.org/1999/xlink" x="0px" y="0px"
	 viewBox="0 0 24 24" style="enable-background:new 0 0 24 24;" xml:space="preserve">
<title>ranking-first</title>
<g>
	<path d="M1,21.5c-0.551,0-1-0.448-1-1v-9c0.015-0.41,0.105-0.795,0.268-1.154l1.061-2.123C1.575,7.792,2,7.526,2.474,7.501L7,7.5
		V5.927l0.012-0.02c0.006-0.04,0.017-0.085,0.041-0.131l1.276-2.553C8.575,2.792,9,2.526,9.474,2.501L14.5,2.5
		c0.495,0.025,0.923,0.287,1.157,0.7l1.29,2.577c0.022,0.044,0.033,0.087,0.04,0.126l0.01,0.015L17,7.5h4.5
		c0.495,0.025,0.923,0.287,1.157,0.7l1.067,2.128c0.051,0.112,0.085,0.219,0.117,0.325C23.944,10.747,24,10.867,24,11
		c0,0.066-0.018,0.122-0.038,0.165c0.021,0.121,0.035,0.217,0.039,0.314v9.02c0,0.552-0.448,1-1,1L16.5,21.5H1z M16,20.5v-14H8v14
		H16z M1,20.5h6V12H1V20.5z M23.001,20.499V11.5H17v8.999H23.001z M7,11V8.5H2.508c-0.12,0.009-0.234,0.083-0.298,0.195L1.17,10.775
		C1.141,10.842,1.114,10.917,1.091,11H7z M22.681,10.5l-0.904-1.83c-0.054-0.092-0.17-0.162-0.298-0.171L17,8.5v2H22.681z
		 M15.691,5.5l-0.915-1.83c-0.054-0.092-0.17-0.162-0.298-0.171L9.5,3.5C9.391,3.506,9.275,3.581,9.209,3.695L8.309,5.5H15.691z"/>
	<path d="M19.998,18.5c-0.671,0-1.265-0.451-1.444-1.099c-0.072-0.266,0.084-0.542,0.35-0.615l0.032-0.009l0.097-0.008
		c0.227,0,0.426,0.15,0.486,0.366c0.059,0.215,0.256,0.364,0.479,0.364c0.276,0,0.501-0.224,0.501-0.499
		c0-0.135-0.052-0.261-0.146-0.354C20.259,16.552,20.134,16.5,20,16.5c-0.275,0-0.5-0.225-0.5-0.5s0.224-0.5,0.499-0.5
		c0.225-0.001,0.424-0.153,0.482-0.371c0.034-0.128,0.016-0.263-0.051-0.38c-0.066-0.115-0.175-0.197-0.303-0.232
		c-0.046-0.013-0.089-0.019-0.133-0.019c-0.085,0-0.17,0.023-0.245,0.067c-0.118,0.068-0.2,0.176-0.235,0.305
		c-0.055,0.218-0.252,0.372-0.479,0.372H19l-0.101-0.02c-0.125-0.032-0.233-0.115-0.3-0.231c-0.067-0.116-0.085-0.251-0.05-0.38
		c0.103-0.387,0.352-0.711,0.699-0.911c0.227-0.132,0.484-0.202,0.743-0.202c0.133,0,0.266,0.019,0.396,0.054
		c0.385,0.103,0.708,0.351,0.908,0.698c0.201,0.347,0.255,0.751,0.15,1.138c-0.061,0.227-0.175,0.437-0.33,0.61
		c0.249,0.276,0.384,0.63,0.383,1.004C21.499,17.827,20.826,18.5,19.998,18.5z"/>
	<path d="M3,18.5c-0.191,0-0.368-0.111-0.451-0.284c-0.083-0.171-0.059-0.379,0.06-0.528l1.688-2.11C4.428,15.414,4.5,15.209,4.5,15
		c0-0.275-0.224-0.5-0.5-0.5S3.5,14.725,3.5,15S3.276,15.5,3,15.5S2.5,15.275,2.5,15c0-0.827,0.673-1.5,1.5-1.5s1.5,0.673,1.5,1.5
		c0,0.437-0.15,0.863-0.422,1.202L4.04,17.5H5c0.276,0,0.5,0.225,0.5,0.5S5.276,18.5,5,18.5H3z"/>
	<path d="M11.498,15.5c-0.276,0-0.5-0.225-0.5-0.5s0.224-0.5,0.5-0.5H12v-3h-0.5c-0.276,0-0.5-0.224-0.5-0.5s0.224-0.5,0.5-0.5H12
		c0.551,0,1,0.449,1,1v3h0.498c0.275,0,0.5,0.225,0.5,0.5s-0.225,0.5-0.5,0.5H11.498z"/>
</g>
</svg>
