<svg id="target" xmlns="http://www.w3.org/2000/svg" viewBox="0 0 24 24"><title>police-man-spy-2</title><path d="M18.238,6.433a.248.248,0,0,0,.244-.289c-.364-2.159-1.226-4.839-2.557-5.807a1.742,1.742,0,0,0-1.32-.313,1.792,1.792,0,0,0-1.178.761,1.8,1.8,0,0,1-2.854,0A1.8,1.8,0,0,0,9.4.024,1.744,1.744,0,0,0,8.076.337c-1.332.968-2.2,3.648-2.558,5.807a.248.248,0,0,0,.244.289Z"/><path d="M19.908,13.705a.5.5,0,0,0-.12-.431.5.5,0,0,0-.42-.158,7.522,7.522,0,0,1-.993.051.245.245,0,0,1-.207-.12.247.247,0,0,1-.008-.24,6.867,6.867,0,0,0,.768-3.158V9.4a.248.248,0,0,1,.247-.248h.743a.99.99,0,0,0,0-1.979H4.082a.99.99,0,0,0,0,1.979h.743a.248.248,0,0,1,.247.248v.247a6.871,6.871,0,0,0,.768,3.159.247.247,0,0,1-.008.24.245.245,0,0,1-.207.12,7.537,7.537,0,0,1-.993-.052.495.495,0,0,0-.54.589c.023.117.635,2.872,5.929,2.872a2.681,2.681,0,0,0,1.872-.772.155.155,0,0,1,.214,0,2.681,2.681,0,0,0,1.872.772C19.273,16.577,19.885,13.822,19.908,13.705ZM16.7,9.154a.248.248,0,0,1,.248.248v.247a4.913,4.913,0,0,1-.608,2.37.247.247,0,0,1-.4.043c-.048-.054-.1-.11-.142-.166a2.744,2.744,0,0,0-2.311-1.257,2.475,2.475,0,0,0-1.35.4.249.249,0,0,1-.27,0,2.475,2.475,0,0,0-1.35-.4A2.744,2.744,0,0,0,8.2,11.9c-.047.056-.094.112-.142.167a.247.247,0,0,1-.4-.044,4.91,4.91,0,0,1-.608-2.37V9.4A.248.248,0,0,1,7.3,9.154Z"/><path d="M12,17.567a.5.5,0,0,0-.483.385L10.28,23.4a.5.5,0,0,0,.483.605h2.474a.5.5,0,0,0,.483-.605l-1.237-5.443A.5.5,0,0,0,12,17.567Z"/><path d="M8.54,24h.482a.5.5,0,0,0,.384-.183.489.489,0,0,0,.1-.413l-1.27-6.055a.5.5,0,0,0-.576-.384c-.546.1-1.043.226-1.515.359a.243.243,0,0,0-.162.144L4.741,20.485a.248.248,0,0,0,.064.279l3.571,3.173A.244.244,0,0,0,8.54,24Z"/><path d="M4.572,18.294a.248.248,0,0,0-.323-.323,12.1,12.1,0,0,0-2.674,1.493,2.435,2.435,0,0,0-.957,1.957v2.084a.5.5,0,0,0,.5.5H6.305a.248.248,0,0,0,.165-.432L3.754,21.154a.5.5,0,0,1-.129-.559Z"/><path d="M14.978,24h.482a.244.244,0,0,0,.164-.063L19.2,20.764a.248.248,0,0,0,.064-.279l-1.241-3.017a.25.25,0,0,0-.162-.144c-.473-.132-.97-.256-1.516-.359a.5.5,0,0,0-.576.384L14.494,23.4a.489.489,0,0,0,.1.413A.5.5,0,0,0,14.978,24Z"/><path d="M17.7,24h5.192a.5.5,0,0,0,.5-.5V21.421a2.432,2.432,0,0,0-.958-1.956,12.081,12.081,0,0,0-2.673-1.493.247.247,0,0,0-.323.323l.947,2.3a.5.5,0,0,1-.129.559L17.53,23.568A.248.248,0,0,0,17.7,24Z"/></svg>
