<svg id="target" xmlns="http://www.w3.org/2000/svg" viewBox="0 0 24 24"><title>professions-woman-telecommunicator</title><path d="M.5,23.441a.5.5,0,0,0,.5.5H8.88a.25.25,0,0,0,.142-.455L4.644,20.455a.625.625,0,0,1-.215-.768l1.322-2.974a.25.25,0,0,0-.305-.339,13.1,13.1,0,0,0-3.98,1.985A2.464,2.464,0,0,0,.5,20.335Z"/><path d="M23.5,23.441a.5.5,0,0,1-.5.5H15.12a.25.25,0,0,1-.142-.455l4.378-3.031a.625.625,0,0,0,.215-.768l-1.322-2.974a.25.25,0,0,1,.3-.339,13.1,13.1,0,0,1,3.98,1.985,2.464,2.464,0,0,1,.966,1.976Z"/><path d="M16.606,16.217a.251.251,0,0,0-.429-.04L12.2,21.662a.25.25,0,0,1-.4,0L7.823,16.177a.251.251,0,0,0-.429.04c-.381.814-1.247,2.705-1.525,3.313a.25.25,0,0,0,.087.311l5.9,4a.247.247,0,0,0,.28,0l5.9-4a.25.25,0,0,0,.087-.311C17.853,18.922,16.987,17.031,16.606,16.217Z"/><path d="M12.27,16.059a1,1,0,0,0,.926-.631,1.012,1.012,0,0,0,.074-.369,1,1,0,0,0-1-1,5.006,5.006,0,0,1-5-5v-.95a.249.249,0,0,1,.243-.25A7.019,7.019,0,0,0,12.166,6.2a.156.156,0,0,1,.208,0A7.018,7.018,0,0,0,17.027,7.86a.25.25,0,0,1,.243.25v2.449a1,1,0,0,1-1,1H13.02a1,1,0,0,0,0,2h3.25a3,3,0,0,0,2.912-2.314.25.25,0,0,1,.229-.192,2.5,2.5,0,0,0-.021-4.989.249.249,0,0,1-.232-.207A7,7,0,0,0,5.27,7.059c0,5.269-1.841,5.9-2.4,6.082a.5.5,0,0,0-.327.337.5.5,0,0,0,.1.46,3.8,3.8,0,0,0,2.921,1.119A5.365,5.365,0,0,0,6.875,14.9a3.472,3.472,0,0,0,.832-.332.251.251,0,0,1,.274.021,7.093,7.093,0,0,0,1.4.843A6.958,6.958,0,0,0,12.27,16.059ZM5.52,7.1v0h0Z"/><circle cx="14.27" cy="9.309" r="1"/><circle cx="10.27" cy="9.309" r="1"/></svg>
